<svg width="1280" height="960" viewBox="0 0 1280 960" fill="none" xmlns="http://www.w3.org/2000/svg">
<g id="String for list of  vectors">
<rect width="1280" height="960" fill="white"/>
<g id="17:41">
<path id="We represent a list of vectors as a string" d="M387.92 487.6C387.92 487.96 388.48 488.24 388.96 488.32C391 488.76 391.12 489.64 392.16 491.56C393.6 494.36 397.36 503.08 398.84 506.68C400.4 510.36 400.92 511.92 401.32 513.04C401.56 513.64 401.72 513.8 402.04 513.8C402.28 513.8 402.8 513.32 402.96 512.88C404 509.84 406.36 505.12 407.6 502.52C407.68 502.4 407.84 502.48 407.92 502.6C409.36 505.96 411.6 510.6 412.2 512.8C412.4 513.48 412.72 513.64 412.92 513.64C413.28 513.64 413.68 513.04 413.84 512.64C414.92 509.96 415.16 509.4 417.88 503.2C420.52 497.24 423.16 492.32 423.64 491.36C424.76 489.2 425.52 488.64 427.08 488.32C427.8 488.16 428.08 487.92 428.08 487.6C428.08 487.32 427.72 487.16 427.04 487.16C425.8 487.16 424.44 487.28 423.24 487.28C422.48 487.28 421.44 487.2 420.52 487.2C419.84 487.2 419.48 487.32 419.48 487.68C419.48 487.92 419.88 488.16 420.4 488.32C422.24 488.84 422.44 489.6 421.68 491.44C419.32 496.8 416.08 504.08 414.36 507.76C414.16 508.12 414 508 413.92 507.76C413.16 506.36 411.36 502.44 409.92 499.04C409.84 498.96 409.76 498.48 409.8 498.36C412.12 493.8 413.2 491.92 413.6 491.24C414.72 489.24 415.28 488.72 416.72 488.36C417.52 488.16 417.84 488 417.84 487.6C417.84 487.32 417.48 487.2 416.96 487.2C416.28 487.2 414.88 487.28 413.68 487.28C412.36 487.28 411.6 487.2 410.88 487.2C409.96 487.2 409.72 487.4 409.72 487.68C409.72 487.84 410.08 488.16 410.56 488.28C412.2 488.68 412.8 489.16 411.8 491.36C411 493.2 410.24 494.88 409.28 496.84C409.2 496.92 409 496.96 408.96 496.84C407.48 493.56 406.44 491.2 406.08 490.28C405.52 489 405.6 488.68 407.32 488.36C407.96 488.24 408.28 487.96 408.28 487.6C408.28 487.32 407.8 487.16 407.28 487.16C406.88 487.16 405.32 487.28 403.48 487.28C402.2 487.28 400.72 487.24 400.2 487.24C399.6 487.24 399.04 487.36 399.04 487.68C399.04 487.92 399.32 488.2 400.04 488.4C401.6 488.84 401.84 489.16 403 491.6C403.48 492.64 405.32 496.76 406.84 500.4C406.96 500.6 406.92 500.88 406.88 500.96C405.56 503.92 403.76 507.52 403.44 508.04C403.36 508.16 403.16 508.12 403.12 508C400.4 502.16 396.08 491.96 395.28 490C395.04 489.32 395.16 488.76 396.52 488.4C397.36 488.16 397.6 487.92 397.6 487.64C397.6 487.36 397.36 487.16 396.6 487.16C396.24 487.16 394.16 487.28 393.24 487.28C391.6 487.28 390.72 487.16 388.96 487.16C388.32 487.16 387.92 487.4 387.92 487.6ZM431.808 496.88C431.128 496.88 429.808 497.12 428.768 497.6C425.648 499.04 423.968 502.24 423.968 505.44C423.968 510.12 426.848 513.4 431.168 513.4C433.448 513.4 435.568 512.44 436.968 510.4C437.088 510.2 437.248 509.76 437.248 509.44C437.248 509.24 437.168 508.96 436.928 508.96C436.768 508.96 436.568 509.2 436.408 509.44C435.728 510.44 434.528 510.88 432.768 510.88C430.848 510.88 429.168 509.88 428.288 508.68C427.408 507.52 426.768 505.68 426.768 504.12C426.768 503.72 426.848 503.04 426.968 502.72C427.008 502.6 427.168 502.4 427.288 502.4C429.128 502.44 435.968 502.44 436.408 502.44C436.848 502.44 437.168 502 437.168 501.76C437.168 500.36 436.648 499.24 435.768 498.4C434.768 497.4 433.208 496.88 431.808 496.88ZM431.408 497.92C432.848 497.92 434.048 499.2 434.048 500.32C434.048 501.12 433.648 501.32 432.688 501.32C430.688 501.36 428.568 501.36 427.528 501.32C427.448 501.32 427.288 501.08 427.368 500.88C428.088 499.04 429.608 497.92 431.408 497.92ZM448.321 498.92C448.321 499.08 448.721 499.24 449.681 500C450.121 500.28 450.121 500.8 450.121 501.2V508.84C450.081 511.24 449.961 511.64 448.401 512.16C448.081 512.28 447.601 512.44 447.601 512.68C447.601 513 448.001 513.16 448.441 513.16C449.401 513.16 449.881 513 451.081 513C453.401 513 454.801 513.2 455.801 513.2C456.401 513.2 456.761 513.04 456.761 512.84C456.761 512.68 456.681 512.4 456.041 512.2L454.201 511.72C453.481 511.6 453.241 510.84 453.161 509.68C453.121 509.08 452.921 501.84 452.921 501.04C452.921 500.84 453.041 500.48 453.321 500.16C453.721 499.72 454.401 499.6 455.081 499.6C455.881 499.6 456.841 500.08 457.281 500.48C457.401 500.56 457.761 500.64 457.841 500.6C458.081 500.48 459.041 499.4 459.481 498.76C459.601 498.56 459.721 498.28 459.721 498.2C459.721 497.84 459.361 496.84 457.721 496.84C456.481 496.84 454.721 497.84 453.161 499.32C453.081 499.36 452.881 499.32 452.881 499.16C452.881 498.4 452.961 497.68 452.961 496.96C452.961 496.84 452.761 496.48 452.601 496.48C452.481 496.48 452.281 496.64 451.801 496.96C451.401 497.2 450.161 497.8 448.841 498.24C448.401 498.4 448.321 498.8 448.321 498.92ZM468.723 496.88C468.043 496.88 466.723 497.12 465.683 497.6C462.563 499.04 460.882 502.24 460.882 505.44C460.882 510.12 463.763 513.4 468.083 513.4C470.363 513.4 472.483 512.44 473.883 510.4C474.003 510.2 474.163 509.76 474.163 509.44C474.163 509.24 474.083 508.96 473.843 508.96C473.683 508.96 473.483 509.2 473.323 509.44C472.643 510.44 471.443 510.88 469.683 510.88C467.763 510.88 466.083 509.88 465.203 508.68C464.323 507.52 463.683 505.68 463.683 504.12C463.683 503.72 463.763 503.04 463.883 502.72C463.923 502.6 464.083 502.4 464.203 502.4C466.043 502.44 472.883 502.44 473.323 502.44C473.763 502.44 474.083 502 474.083 501.76C474.083 500.36 473.563 499.24 472.683 498.4C471.683 497.4 470.122 496.88 468.723 496.88ZM468.323 497.92C469.763 497.92 470.963 499.2 470.963 500.32C470.963 501.12 470.563 501.32 469.603 501.32C467.603 501.36 465.483 501.36 464.443 501.32C464.363 501.32 464.203 501.08 464.283 500.88C465.003 499.04 466.523 497.92 468.323 497.92ZM487.115 496.92C485.995 496.92 484.795 497.12 484.155 497.4C483.595 497.64 482.515 498.2 481.555 498.84C481.395 498.96 481.235 498.8 481.235 498.64C481.275 498 481.275 497.24 481.355 496.6C481.355 496.44 481.035 496.12 480.915 496.12C480.835 496.12 480.515 496.28 480.115 496.48C479.435 496.88 477.675 497.72 477.075 497.88C476.915 497.92 476.515 498.4 476.515 498.6C476.515 498.8 476.995 499.16 477.995 499.88C478.115 499.96 478.315 500.24 478.315 501.92C478.355 504.28 478.315 507.28 478.315 510C478.315 514.08 478.275 517.36 478.195 518.68C478.035 521.56 477.835 521.92 475.715 522.36C475.075 522.48 474.795 522.8 474.795 522.96C474.795 523.32 475.395 523.48 475.995 523.48C477.195 523.48 477.595 523.36 478.555 523.36C480.115 523.36 482.435 523.56 483.315 523.56C483.835 523.56 484.355 523.36 484.355 523.04C484.355 522.76 484.035 522.56 483.235 522.32C481.715 521.84 481.435 521.36 481.315 520.32C481.195 519.2 481.155 517.56 481.155 513.68C481.155 513.48 481.315 513.16 481.435 513.16C481.955 513.24 482.755 513.32 483.675 513.32C485.475 513.32 487.835 513 490.035 511.28C492.595 509.36 493.435 506.4 493.435 504.4C493.435 502.2 492.515 500.24 491.555 499.16C490.355 497.84 488.555 496.92 487.115 496.92ZM485.035 498.96C485.955 498.96 487.595 499.52 488.635 500.6C490.275 502.4 490.275 504.56 490.275 505.48C490.275 506.68 489.555 509.68 487.555 511.36C486.995 511.84 486.155 512.04 485.715 512.04C484.715 512.04 482.795 511.36 481.715 509.84C481.435 509.48 481.275 508.8 481.195 508.08C481.035 506.44 481.075 502.08 481.275 500.88C481.395 500.16 481.595 499.84 481.795 499.68C482.235 499.32 483.355 498.96 485.035 498.96ZM496.603 498.92C496.603 499.08 497.003 499.24 497.963 500C498.403 500.28 498.403 500.8 498.403 501.2V508.84C498.363 511.24 498.243 511.64 496.683 512.16C496.363 512.28 495.882 512.44 495.882 512.68C495.882 513 496.283 513.16 496.723 513.16C497.683 513.16 498.163 513 499.363 513C501.683 513 503.083 513.2 504.083 513.2C504.683 513.2 505.043 513.04 505.043 512.84C505.043 512.68 504.963 512.4 504.323 512.2L502.483 511.72C501.763 511.6 501.523 510.84 501.443 509.68C501.403 509.08 501.203 501.84 501.203 501.04C501.203 500.84 501.323 500.48 501.603 500.16C502.003 499.72 502.683 499.6 503.363 499.6C504.163 499.6 505.122 500.08 505.563 500.48C505.683 500.56 506.043 500.64 506.123 500.6C506.363 500.48 507.323 499.4 507.763 498.76C507.883 498.56 508.003 498.28 508.003 498.2C508.003 497.84 507.643 496.84 506.003 496.84C504.763 496.84 503.003 497.84 501.443 499.32C501.363 499.36 501.163 499.32 501.163 499.16C501.163 498.4 501.243 497.68 501.243 496.96C501.243 496.84 501.043 496.48 500.883 496.48C500.763 496.48 500.563 496.64 500.083 496.96C499.683 497.2 498.443 497.8 497.123 498.24C496.683 498.4 496.603 498.8 496.603 498.92ZM517.004 496.88C516.324 496.88 515.004 497.12 513.964 497.6C510.844 499.04 509.164 502.24 509.164 505.44C509.164 510.12 512.044 513.4 516.364 513.4C518.644 513.4 520.764 512.44 522.164 510.4C522.284 510.2 522.444 509.76 522.444 509.44C522.444 509.24 522.364 508.96 522.124 508.96C521.964 508.96 521.764 509.2 521.604 509.44C520.924 510.44 519.724 510.88 517.964 510.88C516.044 510.88 514.364 509.88 513.484 508.68C512.604 507.52 511.964 505.68 511.964 504.12C511.964 503.72 512.044 503.04 512.164 502.72C512.204 502.6 512.364 502.4 512.484 502.4C514.324 502.44 521.164 502.44 521.604 502.44C522.044 502.44 522.364 502 522.364 501.76C522.364 500.36 521.844 499.24 520.964 498.4C519.964 497.4 518.404 496.88 517.004 496.88ZM516.604 497.92C518.044 497.92 519.244 499.2 519.244 500.32C519.244 501.12 518.844 501.32 517.884 501.32C515.884 501.36 513.764 501.36 512.724 501.32C512.644 501.32 512.484 501.08 512.564 500.88C513.284 499.04 514.804 497.92 516.604 497.92ZM530.908 496.84C529.548 496.84 528.468 497.2 527.708 497.68C526.188 498.6 525.508 499.92 525.508 501.28C525.508 503.16 526.788 504.56 527.988 505.32C529.228 506.12 529.468 506.32 530.428 507C531.668 507.76 532.228 508.6 532.228 509.68C532.228 510.44 531.908 511.4 531.308 511.88C530.868 512.2 530.228 512.48 529.708 512.48C528.268 512.48 527.188 511.68 526.068 509.64C525.828 509.2 525.548 508.72 525.228 508.72C524.988 508.72 524.908 509.12 524.908 509.56C524.908 510.72 525.388 512.4 525.508 512.6C526.188 513.16 528.188 513.48 529.388 513.48C530.628 513.48 532.028 513.04 532.748 512.56C533.748 511.84 535.068 510.48 535.068 508.64C535.068 506.84 534.188 505.48 531.948 504.16C529.268 502.68 527.988 501.64 527.988 500.28C527.988 499.44 528.748 497.8 530.388 497.8C531.708 497.8 532.708 498.6 533.588 500.48C533.788 500.92 534.028 501.16 534.188 501.16C534.508 501.16 534.668 500.8 534.668 500.44C534.668 500.16 534.548 498.8 534.548 498.08C534.548 497.84 534.308 497.56 534.228 497.52C534.148 497.48 533.388 497.16 532.948 497.08C532.508 496.96 531.668 496.84 530.908 496.84ZM545.519 496.88C544.839 496.88 543.519 497.12 542.479 497.6C539.359 499.04 537.679 502.24 537.679 505.44C537.679 510.12 540.559 513.4 544.879 513.4C547.159 513.4 549.279 512.44 550.679 510.4C550.799 510.2 550.959 509.76 550.959 509.44C550.959 509.24 550.879 508.96 550.639 508.96C550.479 508.96 550.279 509.2 550.119 509.44C549.439 510.44 548.239 510.88 546.479 510.88C544.559 510.88 542.879 509.88 541.999 508.68C541.119 507.52 540.479 505.68 540.479 504.12C540.479 503.72 540.559 503.04 540.679 502.72C540.719 502.6 540.879 502.4 540.999 502.4C542.839 502.44 549.679 502.44 550.119 502.44C550.559 502.44 550.879 502 550.879 501.76C550.879 500.36 550.359 499.24 549.479 498.4C548.479 497.4 546.919 496.88 545.519 496.88ZM545.119 497.92C546.559 497.92 547.759 499.2 547.759 500.32C547.759 501.12 547.359 501.32 546.399 501.32C544.399 501.36 542.279 501.36 541.239 501.32C541.159 501.32 540.999 501.08 541.079 500.88C541.799 499.04 543.319 497.92 545.119 497.92ZM553.753 498.76C553.753 498.88 553.993 499.08 554.513 499.44C555.393 500.16 555.473 500.56 555.473 501C555.473 505.08 555.393 508.56 555.273 509.76C555.153 511.2 554.913 511.6 553.593 512C553.153 512.12 552.753 512.32 552.753 512.6C552.753 512.96 553.193 513.12 553.793 513.12C554.473 513.12 555.633 513 557.113 513C557.953 513 559.073 513.04 559.553 513.04C560.113 513.04 560.553 512.84 560.553 512.56C560.553 512.32 560.233 512.08 559.833 511.96C558.553 511.6 558.393 511.28 558.353 510.72C558.313 510.24 558.313 501.64 558.313 501.12C558.313 500.76 558.593 500.28 558.713 500.16C559.473 499.48 560.513 498.88 562.273 498.88C563.193 498.88 564.393 499.32 564.833 499.64C565.313 500 566.033 501.16 566.033 502.6C566.033 503.76 565.993 508.6 565.913 509.92C565.833 511.24 565.633 511.56 564.673 511.92C564.193 512.08 563.753 512.32 563.753 512.6C563.753 512.92 564.313 513.08 564.673 513.08C565.193 513.08 566.433 513 567.433 513C568.553 513 569.473 513.08 570.393 513.08C571.033 513.08 571.593 512.92 571.593 512.64C571.593 512.36 571.353 512.16 570.593 511.96C569.593 511.68 569.193 511.16 569.113 510.56C569.073 510 568.993 504.04 568.993 503.28C568.993 501.28 568.473 499.44 567.593 498.4C567.033 497.76 565.913 496.88 563.953 496.88C562.273 496.88 560.193 498 558.593 499.08C558.553 499.08 558.353 499.16 558.353 498.96C558.353 498.6 558.513 497.64 558.513 496.96C558.513 496.8 558.313 496.36 558.113 496.36C557.913 496.36 557.553 496.56 557.153 496.8C556.593 497.2 555.153 497.72 554.473 497.96C554.193 498.08 553.753 498.48 553.753 498.76ZM578.544 497.4C578.384 497.4 578.224 497.2 578.224 497.08V495.2C578.224 495.12 577.864 494.76 577.664 494.76C577.504 494.76 577.224 495.08 576.744 495.64C576.184 496.32 574.944 497.28 573.544 498.4C573.424 498.52 573.304 498.68 573.304 498.84C573.304 498.96 573.544 499.16 573.864 499.28C574.664 499.52 575.384 499.8 575.384 500.08C575.384 501.48 575.224 507.48 575.224 508.96C575.224 510.08 575.304 510.92 575.744 511.6C576.224 512.48 577.624 513.48 579.264 513.48C581.064 513.48 582.464 512.76 583.544 511.72C583.824 511.44 584.104 511.04 584.104 510.72C584.104 510.36 583.904 510.28 583.864 510.28C583.704 510.28 583.624 510.32 583.264 510.52C582.664 510.88 581.824 511.12 581.304 511.12C580.464 511.12 579.624 511.04 578.864 510.36C578.424 509.92 578.184 509.4 578.184 508.4C578.184 506.48 578.224 500.6 578.264 499.8C578.264 499.72 578.424 499.52 578.624 499.52H582.984C583.264 499.52 584.024 499.44 584.024 499.08C584.024 498.56 583.904 497.44 583.904 497.56C583.904 497.44 583.504 497.24 583.464 497.24C583.304 497.24 579.424 497.4 578.544 497.4ZM601.164 496.84C600.404 496.84 598.604 497.52 597.444 498.36C595.564 499.6 594.444 500.72 594.444 501.88C594.444 502.08 594.684 502.4 594.924 502.4C595.124 502.4 597.124 501.4 597.524 501.08C597.604 501 597.764 500.76 597.764 500.64C597.684 499.84 597.804 499.12 598.044 499C598.324 498.8 598.844 498.56 599.684 498.56C601.644 498.56 602.804 500.24 602.804 501.24C602.804 501.72 602.764 504.16 602.724 504.52C602.724 504.76 602.484 504.96 601.564 505.24C600.684 505.52 597.484 506.4 596.884 506.64C596.284 506.92 595.684 507.12 595.284 507.64C594.844 508.2 594.524 508.96 594.524 509.68C594.524 511.68 595.884 513.4 597.284 513.4C597.484 513.4 598.444 513.32 598.884 513.16C599.284 513.04 601.004 512.36 602.484 511.32C602.564 511.28 602.724 511.44 602.724 511.48C603.204 512.96 604.364 513.48 605.284 513.48C607.084 513.48 608.884 511.76 608.884 511C608.884 510.96 608.884 510.72 608.764 510.6C608.684 510.48 608.644 510.4 608.524 510.48C608.084 510.8 607.164 511.08 607.004 511.08C606.684 511.08 605.404 510.92 605.404 509.08C605.404 508.64 605.564 503.6 605.564 502.04C605.564 500.36 605.364 499.56 604.764 498.72C604.164 497.84 603.164 496.84 601.164 496.84ZM599.964 511.32C599.124 511.32 597.444 510.68 597.444 508.92C597.444 507.96 597.844 507.68 598.244 507.4C599.324 506.88 601.244 506.2 602.364 506.2C602.524 506.2 602.684 506.4 602.684 506.52C602.684 507.32 602.684 508.68 602.604 509.64C602.604 509.72 602.364 510.48 602.124 510.64C601.364 511.04 600.564 511.32 599.964 511.32ZM618.351 486.6C618.351 486.76 618.471 486.88 619.151 487.36C620.071 487.92 620.071 488.16 620.111 488.48C620.231 489.56 620.231 493.88 620.231 496.84C620.231 503.16 620.111 507.36 619.991 509C619.831 511 619.751 511.72 617.911 512.12C617.471 512.2 617.031 512.4 617.031 512.68C617.031 513 617.351 513.12 618.151 513.12C618.991 513.12 620.751 513 621.671 513C622.391 513 624.111 513.12 625.071 513.12C625.551 513.12 626.111 512.96 626.111 512.68C626.111 512.44 625.791 512.24 625.191 512.08C623.471 511.6 623.311 511.12 623.151 510.32C622.951 509.24 623.031 501.6 623.031 495.76C623.031 490.4 623.271 485.88 623.391 484.88C623.391 484.72 623.151 484.4 623.031 484.48C621.951 485.16 620.751 485.4 618.911 486.04C618.471 486.16 618.351 486.44 618.351 486.6ZM632.231 513C633.071 513 635.071 513.12 635.351 513.12C635.791 513.12 636.271 512.96 636.271 512.72C636.271 512.44 636.031 512.24 635.391 512.04C634.391 511.72 633.511 511.64 633.471 510.36C633.431 508.96 633.391 507.28 633.391 505.04C633.391 502.76 633.631 497.56 633.631 497.12C633.631 497.08 633.431 496.68 633.271 496.68C632.671 496.84 630.791 497.72 629.311 498.04C628.871 498.12 628.511 498.44 628.511 498.72C628.511 498.88 628.591 499 628.831 499.16C629.991 500 630.431 500.32 630.471 500.6C630.551 501.08 630.511 505.64 630.511 506.84C630.511 508 630.471 510.4 630.351 510.96C630.271 511.36 629.671 511.84 628.751 512.08C628.071 512.28 627.791 512.48 627.791 512.72C627.791 513 628.191 513.16 628.831 513.16C629.511 513.16 630.911 513 632.231 513ZM632.151 488.72C631.591 488.72 630.991 488.88 630.591 489.24C630.271 489.68 630.111 490.32 630.111 490.68C630.111 491.36 630.391 491.8 630.711 492.16C631.071 492.48 631.711 492.64 631.991 492.64C632.791 492.64 633.911 491.76 633.911 490.68C633.911 489.96 633.231 488.72 632.151 488.72ZM644.228 496.84C642.868 496.84 641.788 497.2 641.028 497.68C639.508 498.6 638.828 499.92 638.828 501.28C638.828 503.16 640.108 504.56 641.308 505.32C642.548 506.12 642.788 506.32 643.748 507C644.988 507.76 645.548 508.6 645.548 509.68C645.548 510.44 645.228 511.4 644.628 511.88C644.188 512.2 643.548 512.48 643.028 512.48C641.588 512.48 640.508 511.68 639.388 509.64C639.148 509.2 638.868 508.72 638.548 508.72C638.308 508.72 638.228 509.12 638.228 509.56C638.228 510.72 638.708 512.4 638.828 512.6C639.508 513.16 641.508 513.48 642.708 513.48C643.948 513.48 645.348 513.04 646.068 512.56C647.068 511.84 648.388 510.48 648.388 508.64C648.388 506.84 647.508 505.48 645.268 504.16C642.588 502.68 641.308 501.64 641.308 500.28C641.308 499.44 642.068 497.8 643.708 497.8C645.028 497.8 646.028 498.6 646.908 500.48C647.108 500.92 647.348 501.16 647.508 501.16C647.828 501.16 647.988 500.8 647.988 500.44C647.988 500.16 647.868 498.8 647.868 498.08C647.868 497.84 647.628 497.56 647.548 497.52C647.468 497.48 646.708 497.16 646.268 497.08C645.828 496.96 644.988 496.84 644.228 496.84ZM656.005 497.4C655.845 497.4 655.685 497.2 655.685 497.08V495.2C655.685 495.12 655.325 494.76 655.125 494.76C654.965 494.76 654.685 495.08 654.205 495.64C653.645 496.32 652.405 497.28 651.005 498.4C650.885 498.52 650.765 498.68 650.765 498.84C650.765 498.96 651.005 499.16 651.325 499.28C652.125 499.52 652.845 499.8 652.845 500.08C652.845 501.48 652.685 507.48 652.685 508.96C652.685 510.08 652.765 510.92 653.205 511.6C653.685 512.48 655.085 513.48 656.725 513.48C658.525 513.48 659.925 512.76 661.005 511.72C661.285 511.44 661.565 511.04 661.565 510.72C661.565 510.36 661.365 510.28 661.325 510.28C661.165 510.28 661.085 510.32 660.725 510.52C660.125 510.88 659.285 511.12 658.765 511.12C657.925 511.12 657.085 511.04 656.325 510.36C655.885 509.92 655.645 509.4 655.645 508.4C655.645 506.48 655.685 500.6 655.725 499.8C655.725 499.72 655.885 499.52 656.085 499.52H660.445C660.725 499.52 661.485 499.44 661.485 499.08C661.485 498.56 661.365 497.44 661.365 497.56C661.365 497.44 660.965 497.24 660.925 497.24C660.765 497.24 656.885 497.4 656.005 497.4ZM680.305 496.84C677.625 496.84 675.625 497.96 674.385 499.04C672.865 500.32 671.585 502.24 671.585 505.28C671.585 507.28 672.825 510 674.545 511.4C676.025 512.64 678.025 513.48 679.865 513.48C681.665 513.48 683.225 513.04 684.825 511.88C686.305 510.92 688.305 508.32 688.305 505C688.305 499.96 684.265 496.84 680.305 496.84ZM679.545 498.04C680.585 498.04 682.025 498.64 682.905 499.6C684.425 501.36 684.905 503.64 684.905 505.72C684.905 507.44 684.105 509.92 683.105 511C681.985 512.12 681.105 512.32 680.665 512.32C678.745 512.32 676.465 510.88 675.465 507.88C675.145 506.88 674.985 505.64 674.985 504.32C674.985 502.24 675.905 500.16 676.945 499.2C677.785 498.48 678.705 498.04 679.545 498.04ZM696.562 497.4C696.442 497.4 696.322 497.2 696.322 497.04C696.322 491.8 696.682 489.64 697.642 487.96C698.362 486.8 699.162 486.32 700.122 486.32C701.162 486.32 702.162 486.88 702.922 487.56C703.482 488.12 703.722 488.36 704.002 488.36C704.242 488.36 704.522 488.32 704.722 488.24C705.282 488.04 705.802 487.12 705.802 486.56C705.802 486.08 705.522 485.52 705.122 485.2C704.482 484.68 703.402 484.44 702.562 484.44C701.042 484.44 699.602 484.88 698.002 486.08C696.242 487.36 695.242 488.8 694.402 490.8C693.682 492.52 693.482 494.36 693.402 496.76C693.402 496.96 693.162 497.2 692.882 497.44C691.962 498.16 690.962 498.6 690.922 498.76C690.802 499.04 691.082 499.44 691.282 499.44C691.722 499.36 692.562 499.36 692.962 499.36C693.122 499.36 693.362 499.48 693.362 500.84C693.362 503 693.322 507.8 693.282 509.44C693.242 511.24 693.202 511.64 691.482 512.12C691.042 512.28 690.642 512.56 690.642 512.76C690.642 513.04 691.082 513.2 691.642 513.2C692.042 513.2 694.202 513 695.642 513C696.642 513 698.482 513.08 698.962 513.08C699.442 513.08 700.002 513 700.002 512.6C700.002 512.44 699.762 512.12 699.082 512C696.842 511.64 696.562 511.28 696.402 509.88C696.322 509.2 696.202 500.44 696.282 499.64C696.282 499.56 696.482 499.32 696.562 499.32C697.002 499.32 700.962 499.44 701.242 499.44C701.442 499.44 701.842 499.16 701.842 499.04C701.842 498.2 701.562 497.36 701.282 497.36C701.122 497.36 699.002 497.4 696.562 497.4ZM709.008 497.64C709.008 497.88 709.168 498.04 709.768 498.24C710.768 498.52 711.168 499.04 711.448 499.56C712.528 501.48 714.648 506.4 715.608 508.96C716.528 511.28 716.608 511.72 717.048 513.04C717.168 513.48 717.408 513.76 717.568 513.76C717.888 513.76 718.328 513.36 718.528 512.72C719.208 510.6 719.208 510.2 720.328 507.36C721.528 504.56 723.048 500.68 723.608 499.8C724.208 499.08 724.648 498.6 725.608 498.24C726.208 498 726.448 497.88 726.448 497.64C726.448 497.4 726.048 497.2 725.648 497.2C724.888 497.2 723.648 497.4 722.928 497.4C721.928 497.4 721.568 497.28 720.768 497.28C720.248 497.28 719.968 497.48 719.968 497.72C719.968 497.96 720.288 498.12 720.608 498.24C721.808 498.68 722.168 498.92 721.848 499.96C721.488 501.2 719.328 506.76 718.808 508C718.728 508.16 718.568 508.28 718.488 508.16C718.208 507.92 716.088 503.16 714.928 499.72C714.768 499.24 714.648 498.68 715.808 498.36C716.328 498.2 716.688 498.04 716.688 497.76C716.688 497.48 716.368 497.32 715.768 497.32C715.328 497.32 714.328 497.4 713.288 497.4C712.848 497.4 710.688 497.2 709.968 497.2C709.608 497.2 709.008 497.36 709.008 497.64ZM735.051 496.88C734.371 496.88 733.051 497.12 732.011 497.6C728.891 499.04 727.211 502.24 727.211 505.44C727.211 510.12 730.091 513.4 734.411 513.4C736.691 513.4 738.811 512.44 740.211 510.4C740.331 510.2 740.491 509.76 740.491 509.44C740.491 509.24 740.411 508.96 740.171 508.96C740.011 508.96 739.811 509.2 739.651 509.44C738.971 510.44 737.771 510.88 736.011 510.88C734.091 510.88 732.411 509.88 731.531 508.68C730.651 507.52 730.011 505.68 730.011 504.12C730.011 503.72 730.091 503.04 730.211 502.72C730.251 502.6 730.411 502.4 730.531 502.4C732.371 502.44 739.211 502.44 739.651 502.44C740.091 502.44 740.411 502 740.411 501.76C740.411 500.36 739.891 499.24 739.011 498.4C738.011 497.4 736.451 496.88 735.051 496.88ZM734.651 497.92C736.091 497.92 737.291 499.2 737.291 500.32C737.291 501.12 736.891 501.32 735.931 501.32C733.931 501.36 731.811 501.36 730.771 501.32C730.691 501.32 730.531 501.08 730.611 500.88C731.331 499.04 732.851 497.92 734.651 497.92ZM752.463 496.96C751.383 496.96 748.783 497.52 747.223 498.64C744.903 500.2 743.343 502.64 743.343 505.56C743.343 507.24 743.903 509.12 744.583 510.24C745.863 512.12 747.983 513.44 750.503 513.44C752.583 513.44 754.863 512.52 756.263 510.96C756.583 510.64 756.783 510.24 756.783 509.8C756.783 509.6 756.463 509.48 756.023 509.8C754.983 510.52 753.943 511 752.463 511C750.383 511 748.423 510 747.423 508.32C747.263 508.08 746.383 506.64 746.383 504.32C746.383 502.56 746.983 500.92 748.063 499.72C748.703 498.92 749.903 498.36 750.543 498.36C751.903 498.36 752.583 498.96 753.903 499.92C754.543 500.36 755.223 500.68 755.463 500.68C755.623 500.68 756.783 499.72 756.783 499.08C756.783 498.84 756.583 498.16 756.183 497.88C755.423 497.28 753.663 496.96 752.463 496.96ZM764.287 497.4C764.127 497.4 763.967 497.2 763.967 497.08V495.2C763.967 495.12 763.607 494.76 763.407 494.76C763.247 494.76 762.967 495.08 762.487 495.64C761.927 496.32 760.687 497.28 759.287 498.4C759.167 498.52 759.047 498.68 759.047 498.84C759.047 498.96 759.287 499.16 759.607 499.28C760.407 499.52 761.127 499.8 761.127 500.08C761.127 501.48 760.967 507.48 760.967 508.96C760.967 510.08 761.047 510.92 761.487 511.6C761.967 512.48 763.367 513.48 765.007 513.48C766.807 513.48 768.207 512.76 769.287 511.72C769.567 511.44 769.847 511.04 769.847 510.72C769.847 510.36 769.647 510.28 769.607 510.28C769.447 510.28 769.367 510.32 769.007 510.52C768.407 510.88 767.567 511.12 767.047 511.12C766.207 511.12 765.367 511.04 764.607 510.36C764.167 509.92 763.927 509.4 763.927 508.4C763.927 506.48 763.967 500.6 764.007 499.8C764.007 499.72 764.167 499.52 764.367 499.52H768.727C769.007 499.52 769.767 499.44 769.767 499.08C769.767 498.56 769.647 497.44 769.647 497.56C769.647 497.44 769.247 497.24 769.207 497.24C769.047 497.24 765.167 497.4 764.287 497.4ZM780.422 496.84C777.742 496.84 775.742 497.96 774.502 499.04C772.982 500.32 771.702 502.24 771.702 505.28C771.702 507.28 772.942 510 774.662 511.4C776.142 512.64 778.142 513.48 779.982 513.48C781.782 513.48 783.342 513.04 784.942 511.88C786.422 510.92 788.422 508.32 788.422 505C788.422 499.96 784.382 496.84 780.422 496.84ZM779.662 498.04C780.702 498.04 782.142 498.64 783.022 499.6C784.542 501.36 785.022 503.64 785.022 505.72C785.022 507.44 784.222 509.92 783.222 511C782.102 512.12 781.222 512.32 780.782 512.32C778.862 512.32 776.582 510.88 775.582 507.88C775.262 506.88 775.102 505.64 775.102 504.32C775.102 502.24 776.022 500.16 777.062 499.2C777.902 498.48 778.822 498.04 779.662 498.04ZM791.603 498.92C791.603 499.08 792.003 499.24 792.963 500C793.403 500.28 793.403 500.8 793.403 501.2V508.84C793.363 511.24 793.243 511.64 791.683 512.16C791.363 512.28 790.882 512.44 790.882 512.68C790.882 513 791.283 513.16 791.723 513.16C792.683 513.16 793.163 513 794.363 513C796.683 513 798.083 513.2 799.083 513.2C799.683 513.2 800.043 513.04 800.043 512.84C800.043 512.68 799.963 512.4 799.323 512.2L797.483 511.72C796.763 511.6 796.523 510.84 796.443 509.68C796.403 509.08 796.203 501.84 796.203 501.04C796.203 500.84 796.323 500.48 796.603 500.16C797.003 499.72 797.683 499.6 798.363 499.6C799.163 499.6 800.122 500.08 800.563 500.48C800.683 500.56 801.043 500.64 801.123 500.6C801.363 500.48 802.323 499.4 802.763 498.76C802.883 498.56 803.003 498.28 803.003 498.2C803.003 497.84 802.643 496.84 801.003 496.84C799.763 496.84 798.003 497.84 796.443 499.32C796.363 499.36 796.163 499.32 796.163 499.16C796.163 498.4 796.243 497.68 796.243 496.96C796.243 496.84 796.043 496.48 795.883 496.48C795.763 496.48 795.563 496.64 795.083 496.96C794.683 497.2 793.443 497.8 792.123 498.24C791.683 498.4 791.603 498.8 791.603 498.92ZM810.556 496.84C809.196 496.84 808.116 497.2 807.356 497.68C805.836 498.6 805.156 499.92 805.156 501.28C805.156 503.16 806.436 504.56 807.636 505.32C808.876 506.12 809.116 506.32 810.076 507C811.316 507.76 811.876 508.6 811.876 509.68C811.876 510.44 811.556 511.4 810.956 511.88C810.516 512.2 809.876 512.48 809.356 512.48C807.916 512.48 806.836 511.68 805.716 509.64C805.476 509.2 805.196 508.72 804.876 508.72C804.636 508.72 804.556 509.12 804.556 509.56C804.556 510.72 805.036 512.4 805.156 512.6C805.836 513.16 807.836 513.48 809.036 513.48C810.276 513.48 811.676 513.04 812.396 512.56C813.396 511.84 814.716 510.48 814.716 508.64C814.716 506.84 813.836 505.48 811.596 504.16C808.916 502.68 807.636 501.64 807.636 500.28C807.636 499.44 808.396 497.8 810.036 497.8C811.356 497.8 812.356 498.6 813.236 500.48C813.436 500.92 813.676 501.16 813.836 501.16C814.156 501.16 814.316 500.8 814.316 500.44C814.316 500.16 814.196 498.8 814.196 498.08C814.196 497.84 813.956 497.56 813.876 497.52C813.796 497.48 813.036 497.16 812.596 497.08C812.156 496.96 811.316 496.84 810.556 496.84ZM832.297 496.84C831.537 496.84 829.737 497.52 828.577 498.36C826.697 499.6 825.577 500.72 825.577 501.88C825.577 502.08 825.817 502.4 826.057 502.4C826.257 502.4 828.257 501.4 828.657 501.08C828.737 501 828.897 500.76 828.897 500.64C828.817 499.84 828.937 499.12 829.177 499C829.457 498.8 829.977 498.56 830.817 498.56C832.777 498.56 833.937 500.24 833.937 501.24C833.937 501.72 833.897 504.16 833.857 504.52C833.857 504.76 833.617 504.96 832.697 505.24C831.817 505.52 828.617 506.4 828.017 506.64C827.417 506.92 826.817 507.12 826.417 507.64C825.977 508.2 825.657 508.96 825.657 509.68C825.657 511.68 827.017 513.4 828.417 513.4C828.617 513.4 829.577 513.32 830.017 513.16C830.417 513.04 832.137 512.36 833.617 511.32C833.697 511.28 833.857 511.44 833.857 511.48C834.337 512.96 835.497 513.48 836.417 513.48C838.217 513.48 840.017 511.76 840.017 511C840.017 510.96 840.017 510.72 839.897 510.6C839.817 510.48 839.777 510.4 839.657 510.48C839.217 510.8 838.297 511.08 838.137 511.08C837.817 511.08 836.537 510.92 836.537 509.08C836.537 508.64 836.697 503.6 836.697 502.04C836.697 500.36 836.497 499.56 835.897 498.72C835.297 497.84 834.297 496.84 832.297 496.84ZM831.097 511.32C830.257 511.32 828.577 510.68 828.577 508.92C828.577 507.96 828.977 507.68 829.377 507.4C830.457 506.88 832.377 506.2 833.497 506.2C833.657 506.2 833.817 506.4 833.817 506.52C833.817 507.32 833.817 508.68 833.737 509.64C833.737 509.72 833.497 510.48 833.257 510.64C832.497 511.04 831.697 511.32 831.097 511.32ZM847.627 496.84C846.267 496.84 845.187 497.2 844.427 497.68C842.907 498.6 842.227 499.92 842.227 501.28C842.227 503.16 843.507 504.56 844.707 505.32C845.947 506.12 846.187 506.32 847.147 507C848.387 507.76 848.947 508.6 848.947 509.68C848.947 510.44 848.627 511.4 848.027 511.88C847.587 512.2 846.947 512.48 846.427 512.48C844.987 512.48 843.907 511.68 842.787 509.64C842.547 509.2 842.267 508.72 841.947 508.72C841.707 508.72 841.627 509.12 841.627 509.56C841.627 510.72 842.107 512.4 842.227 512.6C842.907 513.16 844.907 513.48 846.107 513.48C847.347 513.48 848.747 513.04 849.467 512.56C850.467 511.84 851.787 510.48 851.787 508.64C851.787 506.84 850.907 505.48 848.667 504.16C845.987 502.68 844.707 501.64 844.707 500.28C844.707 499.44 845.467 497.8 847.107 497.8C848.427 497.8 849.427 498.6 850.307 500.48C850.507 500.92 850.747 501.16 850.907 501.16C851.227 501.16 851.387 500.8 851.387 500.44C851.387 500.16 851.267 498.8 851.267 498.08C851.267 497.84 851.027 497.56 850.947 497.52C850.867 497.48 850.107 497.16 849.667 497.08C849.227 496.96 848.387 496.84 847.627 496.84ZM869.367 496.84C868.607 496.84 866.807 497.52 865.647 498.36C863.767 499.6 862.647 500.72 862.647 501.88C862.647 502.08 862.887 502.4 863.127 502.4C863.327 502.4 865.327 501.4 865.727 501.08C865.807 501 865.967 500.76 865.967 500.64C865.887 499.84 866.007 499.12 866.247 499C866.527 498.8 867.047 498.56 867.887 498.56C869.847 498.56 871.007 500.24 871.007 501.24C871.007 501.72 870.967 504.16 870.927 504.52C870.927 504.76 870.687 504.96 869.767 505.24C868.887 505.52 865.687 506.4 865.087 506.64C864.487 506.92 863.887 507.12 863.487 507.64C863.047 508.2 862.727 508.96 862.727 509.68C862.727 511.68 864.087 513.4 865.487 513.4C865.687 513.4 866.647 513.32 867.087 513.16C867.487 513.04 869.207 512.36 870.687 511.32C870.767 511.28 870.927 511.44 870.927 511.48C871.407 512.96 872.567 513.48 873.487 513.48C875.287 513.48 877.087 511.76 877.087 511C877.087 510.96 877.087 510.72 876.967 510.6C876.887 510.48 876.847 510.4 876.727 510.48C876.287 510.8 875.367 511.08 875.207 511.08C874.887 511.08 873.607 510.92 873.607 509.08C873.607 508.64 873.767 503.6 873.767 502.04C873.767 500.36 873.567 499.56 872.967 498.72C872.367 497.84 871.367 496.84 869.367 496.84ZM868.167 511.32C867.327 511.32 865.647 510.68 865.647 508.92C865.647 507.96 866.047 507.68 866.447 507.4C867.527 506.88 869.447 506.2 870.567 506.2C870.727 506.2 870.887 506.4 870.887 506.52C870.887 507.32 870.887 508.68 870.807 509.64C870.807 509.72 870.567 510.48 870.327 510.64C869.567 511.04 868.767 511.32 868.167 511.32ZM892.314 496.84C890.954 496.84 889.874 497.2 889.114 497.68C887.594 498.6 886.914 499.92 886.914 501.28C886.914 503.16 888.194 504.56 889.394 505.32C890.634 506.12 890.874 506.32 891.834 507C893.074 507.76 893.634 508.6 893.634 509.68C893.634 510.44 893.314 511.4 892.714 511.88C892.274 512.2 891.634 512.48 891.114 512.48C889.674 512.48 888.594 511.68 887.474 509.64C887.234 509.2 886.954 508.72 886.634 508.72C886.394 508.72 886.314 509.12 886.314 509.56C886.314 510.72 886.794 512.4 886.914 512.6C887.594 513.16 889.594 513.48 890.794 513.48C892.034 513.48 893.434 513.04 894.154 512.56C895.154 511.84 896.474 510.48 896.474 508.64C896.474 506.84 895.594 505.48 893.354 504.16C890.674 502.68 889.394 501.64 889.394 500.28C889.394 499.44 890.154 497.8 891.794 497.8C893.114 497.8 894.114 498.6 894.994 500.48C895.194 500.92 895.434 501.16 895.594 501.16C895.914 501.16 896.074 500.8 896.074 500.44C896.074 500.16 895.954 498.8 895.954 498.08C895.954 497.84 895.714 497.56 895.634 497.52C895.554 497.48 894.794 497.16 894.354 497.08C893.914 496.96 893.074 496.84 892.314 496.84ZM904.091 497.4C903.931 497.4 903.771 497.2 903.771 497.08V495.2C903.771 495.12 903.411 494.76 903.211 494.76C903.051 494.76 902.771 495.08 902.291 495.64C901.731 496.32 900.491 497.28 899.091 498.4C898.971 498.52 898.851 498.68 898.851 498.84C898.851 498.96 899.091 499.16 899.411 499.28C900.211 499.52 900.931 499.8 900.931 500.08C900.931 501.48 900.771 507.48 900.771 508.96C900.771 510.08 900.851 510.92 901.291 511.6C901.771 512.48 903.171 513.48 904.811 513.48C906.611 513.48 908.011 512.76 909.091 511.72C909.371 511.44 909.651 511.04 909.651 510.72C909.651 510.36 909.451 510.28 909.411 510.28C909.251 510.28 909.171 510.32 908.811 510.52C908.211 510.88 907.371 511.12 906.851 511.12C906.011 511.12 905.171 511.04 904.411 510.36C903.971 509.92 903.731 509.4 903.731 508.4C903.731 506.48 903.771 500.6 903.811 499.8C903.811 499.72 903.971 499.52 904.171 499.52H908.531C908.811 499.52 909.571 499.44 909.571 499.08C909.571 498.56 909.451 497.44 909.451 497.56C909.451 497.44 909.051 497.24 909.011 497.24C908.851 497.24 904.971 497.4 904.091 497.4ZM911.759 498.92C911.759 499.08 912.159 499.24 913.119 500C913.559 500.28 913.559 500.8 913.559 501.2V508.84C913.519 511.24 913.399 511.64 911.839 512.16C911.519 512.28 911.039 512.44 911.039 512.68C911.039 513 911.439 513.16 911.879 513.16C912.839 513.16 913.319 513 914.519 513C916.839 513 918.239 513.2 919.239 513.2C919.839 513.2 920.199 513.04 920.199 512.84C920.199 512.68 920.119 512.4 919.479 512.2L917.639 511.72C916.919 511.6 916.679 510.84 916.599 509.68C916.559 509.08 916.359 501.84 916.359 501.04C916.359 500.84 916.479 500.48 916.759 500.16C917.159 499.72 917.839 499.6 918.519 499.6C919.319 499.6 920.279 500.08 920.719 500.48C920.839 500.56 921.199 500.64 921.279 500.6C921.519 500.48 922.479 499.4 922.919 498.76C923.039 498.56 923.159 498.28 923.159 498.2C923.159 497.84 922.799 496.84 921.159 496.84C919.919 496.84 918.159 497.84 916.599 499.32C916.519 499.36 916.319 499.32 916.319 499.16C916.319 498.4 916.399 497.68 916.399 496.96C916.399 496.84 916.199 496.48 916.039 496.48C915.919 496.48 915.719 496.64 915.239 496.96C914.839 497.2 913.599 497.8 912.279 498.24C911.839 498.4 911.759 498.8 911.759 498.92ZM928.52 513C929.36 513 931.36 513.12 931.64 513.12C932.08 513.12 932.56 512.96 932.56 512.72C932.56 512.44 932.32 512.24 931.68 512.04C930.68 511.72 929.8 511.64 929.76 510.36C929.72 508.96 929.68 507.28 929.68 505.04C929.68 502.76 929.92 497.56 929.92 497.12C929.92 497.08 929.72 496.68 929.56 496.68C928.96 496.84 927.08 497.72 925.6 498.04C925.16 498.12 924.8 498.44 924.8 498.72C924.8 498.88 924.88 499 925.12 499.16C926.28 500 926.72 500.32 926.76 500.6C926.84 501.08 926.8 505.64 926.8 506.84C926.8 508 926.76 510.4 926.64 510.96C926.56 511.36 925.96 511.84 925.04 512.08C924.36 512.28 924.08 512.48 924.08 512.72C924.08 513 924.48 513.16 925.12 513.16C925.8 513.16 927.2 513 928.52 513ZM928.44 488.72C927.88 488.72 927.28 488.88 926.88 489.24C926.56 489.68 926.4 490.32 926.4 490.68C926.4 491.36 926.68 491.8 927 492.16C927.36 492.48 928 492.64 928.28 492.64C929.08 492.64 930.2 491.76 930.2 490.68C930.2 489.96 929.52 488.72 928.44 488.72ZM935.003 498.76C935.003 498.88 935.243 499.08 935.763 499.44C936.643 500.16 936.723 500.56 936.723 501C936.723 505.08 936.643 508.56 936.523 509.76C936.403 511.2 936.163 511.6 934.843 512C934.403 512.12 934.003 512.32 934.003 512.6C934.003 512.96 934.443 513.12 935.043 513.12C935.723 513.12 936.883 513 938.363 513C939.203 513 940.323 513.04 940.803 513.04C941.363 513.04 941.803 512.84 941.803 512.56C941.803 512.32 941.483 512.08 941.083 511.96C939.803 511.6 939.643 511.28 939.603 510.72C939.563 510.24 939.563 501.64 939.563 501.12C939.563 500.76 939.843 500.28 939.963 500.16C940.723 499.48 941.763 498.88 943.523 498.88C944.443 498.88 945.643 499.32 946.083 499.64C946.563 500 947.283 501.16 947.283 502.6C947.283 503.76 947.243 508.6 947.163 509.92C947.083 511.24 946.883 511.56 945.923 511.92C945.443 512.08 945.003 512.32 945.003 512.6C945.003 512.92 945.563 513.08 945.923 513.08C946.443 513.08 947.683 513 948.683 513C949.803 513 950.723 513.08 951.643 513.08C952.283 513.08 952.843 512.92 952.843 512.64C952.843 512.36 952.603 512.16 951.843 511.96C950.843 511.68 950.443 511.16 950.363 510.56C950.323 510 950.243 504.04 950.243 503.28C950.243 501.28 949.723 499.44 948.843 498.4C948.283 497.76 947.163 496.88 945.203 496.88C943.523 496.88 941.443 498 939.843 499.08C939.803 499.08 939.603 499.16 939.603 498.96C939.603 498.6 939.763 497.64 939.763 496.96C939.763 496.8 939.563 496.36 939.363 496.36C939.163 496.36 938.803 496.56 938.403 496.8C937.843 497.2 936.403 497.72 935.723 497.96C935.443 498.08 935.003 498.48 935.003 498.76ZM961.708 496.68C960.148 496.68 958.748 497.12 957.628 497.96C956.068 499.12 955.188 500.56 955.188 502.52C955.188 505.44 957.108 506.96 958.228 507.6C958.348 507.72 958.468 507.88 958.388 507.96C957.748 508.6 956.028 509.56 955.428 510.04C955.348 510.12 955.228 510.32 955.228 510.4C955.228 511.68 955.788 512.8 956.588 513.36C957.108 513.76 957.868 514 958.148 514.16C958.268 514.24 958.348 514.36 958.268 514.44C957.748 514.88 956.508 515.76 955.508 516.6C955.148 516.88 954.348 517.36 954.348 519.12C954.348 520.24 955.068 521.72 956.188 522.6C957.868 523.84 959.748 524.08 961.188 524.08C962.628 524.08 964.748 523.8 966.948 522.36C968.668 521.24 970.708 519.2 970.708 516.2C970.708 515.16 970.148 513.64 969.028 512.68C968.308 512.12 967.428 511.76 967.108 511.72C965.828 511.52 961.508 511.48 959.748 511.4C959.308 511.36 958.108 510.64 958.108 509.6C958.108 509.28 958.988 508.44 959.388 508.24C959.548 508.16 959.748 508.16 959.988 508.2C960.268 508.2 961.148 508.24 961.388 508.24C962.348 508.24 963.988 508.08 965.748 506.72C967.308 505.52 967.988 503.88 967.988 501.68C967.988 501 967.868 500.28 967.668 499.68C967.628 499.56 967.748 499.36 967.908 499.36C968.908 499.44 970.348 499.44 970.588 499.44C970.748 499.44 971.308 498.72 971.308 498.16C971.308 498 971.188 497.76 970.948 497.72C970.108 497.52 967.188 497.48 966.308 497.4L965.188 497.16C964.028 496.88 963.308 496.68 961.708 496.68ZM962.668 522.4C961.188 522.4 959.828 522 958.748 521.16C957.908 520.44 957.348 519.4 957.348 518.12C957.348 517.2 957.868 515.72 959.148 514.84C959.388 514.68 960.028 514.44 961.308 514.44C962.988 514.44 964.268 514.44 965.348 514.64C966.308 514.84 967.068 515.36 967.468 515.88C967.948 516.52 968.028 517.44 968.028 517.96C968.028 519.12 967.428 520.64 965.828 521.68C965.388 521.92 964.228 522.4 962.668 522.4ZM961.388 497.64C962.548 497.64 963.508 498.28 964.268 499.4C964.908 500.36 965.148 501.68 965.148 502.4C965.148 504.04 964.628 506 963.628 506.64C963.068 507 962.588 507.2 962.308 507.2C959.708 507.2 958.348 504.2 958.348 502.2C958.348 500.32 958.788 499.28 959.388 498.64C959.748 498.16 960.668 497.64 961.388 497.64Z" fill="black"/>
<path id="# 01010 # 11101 # 10101 # 11000" d="M471.88 555.8C471.92 555.6 471.84 554.96 471.76 554.76L468.72 554.8C468.68 554.8 468.56 554.76 468.64 554.44L470.2 548.4C470.32 548 470 547.84 469.92 547.84C469.32 547.84 468.76 548 468.68 548.24L467.08 554.52C467.04 554.72 466.92 554.84 466.84 554.84L462.72 554.96C462.68 554.96 462.6 554.84 462.6 554.72L464.16 548.56C464.16 548.44 463.88 548.2 463.76 548.2C463.28 548.2 462.68 548.4 462.56 548.64L460.96 554.84C460.92 554.92 460.8 555.04 460.72 555.04L457.48 555.2C457.24 555.24 456.88 556.08 456.8 556.36C456.68 556.96 456.84 557.56 456.84 557.6L460.16 557.52C460.32 557.52 460.32 557.76 460.32 557.84L459.24 562.16C459.2 562.4 459.04 562.44 458.88 562.44L455.96 562.6C455.64 562.6 455.24 563.52 455.08 564.32C455.08 564.4 455.24 564.96 455.36 564.96L458.2 564.88C458.44 564.88 458.48 565.12 458.44 565.28L456.72 572C456.68 572.16 457.04 572.52 457.32 572.52C457.44 572.52 458.16 572.4 458.24 572.08L460.08 565.16C460.08 565.08 460.4 564.84 460.48 564.84L464.36 564.68C464.44 564.68 464.56 564.84 464.52 565.04L462.8 571.88C462.68 572.2 463.08 572.32 463.28 572.32C463.72 572.32 464.28 572.08 464.36 571.76L466.16 564.92C466.2 564.68 466.32 564.64 466.4 564.64L469.56 564.52C470 564.52 470.4 563.48 470.48 563C470.52 562.76 470.44 562.08 470.24 562.08L467 562.2C466.88 562.24 466.84 562.08 466.88 561.96L467.96 557.68C468 557.52 468.12 557.28 468.2 557.28L471.24 557.16C471.56 557.16 471.84 556.28 471.88 555.8ZM466.32 557.76L465.28 561.92C465.24 562.12 465.12 562.24 464.96 562.24L461.04 562.4C460.88 562.44 460.76 562.16 460.8 562.08L461.88 557.8C461.92 557.64 462.04 557.48 462.2 557.48L466.2 557.36C466.36 557.32 466.36 557.6 466.32 557.76ZM491.462 547.76C489.942 547.76 488.862 548.16 487.782 548.84C485.262 550.44 482.942 554.4 482.942 560.84C482.942 565.96 485.142 573.36 491.142 573.48C492.342 573.52 493.662 573.12 494.822 572.36C497.062 570.92 499.382 566.68 499.382 560.24C499.382 555.96 497.782 547.76 491.462 547.76ZM490.782 548.96C491.582 548.96 492.222 549.28 492.862 549.72C493.942 550.48 495.862 553.92 495.862 560.48C495.862 565.6 495.222 568.72 494.302 570.48C494.182 570.68 493.062 572.4 491.702 572.4C487.622 572.4 486.302 564.8 486.302 560.36C486.302 554.44 487.382 551.92 488.342 550.48C489.182 549.32 489.862 548.96 490.782 548.96ZM502.343 572.8C502.343 573.12 502.903 573.2 503.342 573.2C503.903 573.2 506.463 573 508.743 573C509.983 573 511.623 573.16 512.623 573.16C513.223 573.16 513.583 573 513.583 572.72C513.583 572.36 513.103 572.12 512.543 572C510.063 571.4 509.943 571 509.943 568.28C509.903 563.56 509.903 555.28 509.903 552.44C509.863 549.52 510.023 548.64 510.023 547.84C510.023 547.64 509.863 547.4 509.583 547.44L508.062 548.2C506.903 548.84 505.383 549.04 503.863 549.36C503.463 549.44 503.062 549.76 503.062 549.96C503.062 550.24 503.223 550.36 503.823 550.52C504.223 550.64 504.983 550.72 505.623 550.84C506.063 550.92 506.423 551.24 506.503 551.64C506.623 552.24 506.663 553.56 506.663 557.84C506.663 565.2 506.543 568.12 506.383 569.44C506.183 571.12 505.623 571.56 503.663 572C502.743 572.24 502.343 572.48 502.343 572.8ZM525.095 547.76C523.575 547.76 522.495 548.16 521.415 548.84C518.895 550.44 516.575 554.4 516.575 560.84C516.575 565.96 518.775 573.36 524.775 573.48C525.975 573.52 527.295 573.12 528.455 572.36C530.695 570.92 533.015 566.68 533.015 560.24C533.015 555.96 531.415 547.76 525.095 547.76ZM524.415 548.96C525.215 548.96 525.855 549.28 526.495 549.72C527.575 550.48 529.495 553.92 529.495 560.48C529.495 565.6 528.855 568.72 527.935 570.48C527.815 570.68 526.695 572.4 525.335 572.4C521.255 572.4 519.935 564.8 519.935 560.36C519.935 554.44 521.015 551.92 521.975 550.48C522.815 549.32 523.495 548.96 524.415 548.96ZM535.975 572.8C535.975 573.12 536.535 573.2 536.975 573.2C537.535 573.2 540.095 573 542.375 573C543.615 573 545.255 573.16 546.255 573.16C546.855 573.16 547.215 573 547.215 572.72C547.215 572.36 546.735 572.12 546.175 572C543.695 571.4 543.575 571 543.575 568.28C543.535 563.56 543.535 555.28 543.535 552.44C543.495 549.52 543.655 548.64 543.655 547.84C543.655 547.64 543.495 547.4 543.215 547.44L541.695 548.2C540.535 548.84 539.015 549.04 537.495 549.36C537.095 549.44 536.695 549.76 536.695 549.96C536.695 550.24 536.855 550.36 537.455 550.52C537.855 550.64 538.615 550.72 539.255 550.84C539.695 550.92 540.055 551.24 540.135 551.64C540.255 552.24 540.295 553.56 540.295 557.84C540.295 565.2 540.175 568.12 540.015 569.44C539.815 571.12 539.255 571.56 537.295 572C536.375 572.24 535.975 572.48 535.975 572.8ZM558.728 547.76C557.208 547.76 556.128 548.16 555.048 548.84C552.528 550.44 550.208 554.4 550.208 560.84C550.208 565.96 552.408 573.36 558.408 573.48C559.608 573.52 560.928 573.12 562.088 572.36C564.328 570.92 566.648 566.68 566.648 560.24C566.648 555.96 565.048 547.76 558.728 547.76ZM558.048 548.96C558.848 548.96 559.488 549.28 560.128 549.72C561.208 550.48 563.128 553.92 563.128 560.48C563.128 565.6 562.488 568.72 561.568 570.48C561.448 570.68 560.328 572.4 558.967 572.4C554.888 572.4 553.568 564.8 553.568 560.36C553.568 554.44 554.648 551.92 555.608 550.48C556.448 549.32 557.128 548.96 558.048 548.96ZM593.989 555.8C594.029 555.6 593.949 554.96 593.869 554.76L590.829 554.8C590.789 554.8 590.669 554.76 590.749 554.44L592.309 548.4C592.429 548 592.109 547.84 592.029 547.84C591.429 547.84 590.869 548 590.789 548.24L589.189 554.52C589.149 554.72 589.029 554.84 588.949 554.84L584.829 554.96C584.789 554.96 584.709 554.84 584.709 554.72L586.269 548.56C586.269 548.44 585.989 548.2 585.869 548.2C585.389 548.2 584.789 548.4 584.669 548.64L583.069 554.84C583.029 554.92 582.909 555.04 582.829 555.04L579.589 555.2C579.349 555.24 578.989 556.08 578.909 556.36C578.789 556.96 578.949 557.56 578.949 557.6L582.269 557.52C582.429 557.52 582.429 557.76 582.429 557.84L581.349 562.16C581.309 562.4 581.149 562.44 580.989 562.44L578.069 562.6C577.749 562.6 577.349 563.52 577.189 564.32C577.189 564.4 577.349 564.96 577.469 564.96L580.309 564.88C580.549 564.88 580.589 565.12 580.549 565.28L578.829 572C578.789 572.16 579.149 572.52 579.429 572.52C579.549 572.52 580.269 572.4 580.349 572.08L582.189 565.16C582.189 565.08 582.509 564.84 582.589 564.84L586.469 564.68C586.549 564.68 586.669 564.84 586.629 565.04L584.909 571.88C584.789 572.2 585.189 572.32 585.389 572.32C585.829 572.32 586.389 572.08 586.469 571.76L588.269 564.92C588.309 564.68 588.429 564.64 588.509 564.64L591.669 564.52C592.109 564.52 592.509 563.48 592.589 563C592.629 562.76 592.549 562.08 592.349 562.08L589.109 562.2C588.989 562.24 588.949 562.08 588.989 561.96L590.069 557.68C590.109 557.52 590.229 557.28 590.309 557.28L593.349 557.16C593.669 557.16 593.949 556.28 593.989 555.8ZM588.429 557.76L587.389 561.92C587.349 562.12 587.229 562.24 587.069 562.24L583.149 562.4C582.989 562.44 582.869 562.16 582.909 562.08L583.989 557.8C584.029 557.64 584.149 557.48 584.309 557.48L588.309 557.36C588.469 557.32 588.469 557.6 588.429 557.76ZM607.811 572.8C607.811 573.12 608.371 573.2 608.811 573.2C609.371 573.2 611.931 573 614.211 573C615.451 573 617.091 573.16 618.091 573.16C618.691 573.16 619.051 573 619.051 572.72C619.051 572.36 618.571 572.12 618.011 572C615.531 571.4 615.411 571 615.411 568.28C615.371 563.56 615.371 555.28 615.371 552.44C615.331 549.52 615.491 548.64 615.491 547.84C615.491 547.64 615.331 547.4 615.051 547.44L613.531 548.2C612.371 548.84 610.851 549.04 609.331 549.36C608.931 549.44 608.531 549.76 608.531 549.96C608.531 550.24 608.691 550.36 609.291 550.52C609.691 550.64 610.451 550.72 611.091 550.84C611.531 550.92 611.891 551.24 611.971 551.64C612.091 552.24 612.131 553.56 612.131 557.84C612.131 565.2 612.011 568.12 611.851 569.44C611.651 571.12 611.091 571.56 609.131 572C608.211 572.24 607.811 572.48 607.811 572.8ZM621.288 572.8C621.288 573.12 621.848 573.2 622.288 573.2C622.848 573.2 625.408 573 627.688 573C628.928 573 630.568 573.16 631.568 573.16C632.168 573.16 632.528 573 632.528 572.72C632.528 572.36 632.048 572.12 631.488 572C629.008 571.4 628.888 571 628.888 568.28C628.848 563.56 628.848 555.28 628.848 552.44C628.808 549.52 628.968 548.64 628.968 547.84C628.968 547.64 628.808 547.4 628.528 547.44L627.008 548.2C625.848 548.84 624.328 549.04 622.808 549.36C622.408 549.44 622.008 549.76 622.008 549.96C622.008 550.24 622.168 550.36 622.768 550.52C623.168 550.64 623.928 550.72 624.568 550.84C625.008 550.92 625.368 551.24 625.448 551.64C625.568 552.24 625.608 553.56 625.608 557.84C625.608 565.2 625.488 568.12 625.328 569.44C625.128 571.12 624.568 571.56 622.608 572C621.688 572.24 621.288 572.48 621.288 572.8ZM634.764 572.8C634.764 573.12 635.324 573.2 635.764 573.2C636.324 573.2 638.884 573 641.164 573C642.404 573 644.044 573.16 645.044 573.16C645.644 573.16 646.004 573 646.004 572.72C646.004 572.36 645.524 572.12 644.964 572C642.484 571.4 642.364 571 642.364 568.28C642.324 563.56 642.324 555.28 642.324 552.44C642.284 549.52 642.444 548.64 642.444 547.84C642.444 547.64 642.284 547.4 642.004 547.44L640.484 548.2C639.324 548.84 637.804 549.04 636.284 549.36C635.884 549.44 635.484 549.76 635.484 549.96C635.484 550.24 635.644 550.36 636.244 550.52C636.644 550.64 637.404 550.72 638.044 550.84C638.484 550.92 638.844 551.24 638.924 551.64C639.044 552.24 639.084 553.56 639.084 557.84C639.084 565.2 638.964 568.12 638.804 569.44C638.604 571.12 638.044 571.56 636.084 572C635.164 572.24 634.764 572.48 634.764 572.8ZM657.517 547.76C655.997 547.76 654.917 548.16 653.837 548.84C651.317 550.44 648.997 554.4 648.997 560.84C648.997 565.96 651.197 573.36 657.197 573.48C658.397 573.52 659.717 573.12 660.877 572.36C663.117 570.92 665.437 566.68 665.437 560.24C665.437 555.96 663.837 547.76 657.517 547.76ZM656.837 548.96C657.637 548.96 658.277 549.28 658.917 549.72C659.997 550.48 661.917 553.92 661.917 560.48C661.917 565.6 661.277 568.72 660.357 570.48C660.237 570.68 659.117 572.4 657.757 572.4C653.677 572.4 652.357 564.8 652.357 560.36C652.357 554.44 653.437 551.92 654.397 550.48C655.237 549.32 655.917 548.96 656.837 548.96ZM668.397 572.8C668.397 573.12 668.957 573.2 669.397 573.2C669.957 573.2 672.517 573 674.797 573C676.037 573 677.677 573.16 678.677 573.16C679.277 573.16 679.637 573 679.637 572.72C679.637 572.36 679.157 572.12 678.597 572C676.117 571.4 675.997 571 675.997 568.28C675.957 563.56 675.957 555.28 675.957 552.44C675.917 549.52 676.077 548.64 676.077 547.84C676.077 547.64 675.917 547.4 675.637 547.44L674.117 548.2C672.957 548.84 671.437 549.04 669.917 549.36C669.517 549.44 669.117 549.76 669.117 549.96C669.117 550.24 669.277 550.36 669.877 550.52C670.277 550.64 671.037 550.72 671.677 550.84C672.117 550.92 672.477 551.24 672.557 551.64C672.677 552.24 672.717 553.56 672.717 557.84C672.717 565.2 672.597 568.12 672.437 569.44C672.237 571.12 671.677 571.56 669.717 572C668.797 572.24 668.397 572.48 668.397 572.8ZM709.419 555.8C709.459 555.6 709.379 554.96 709.299 554.76L706.259 554.8C706.219 554.8 706.099 554.76 706.179 554.44L707.739 548.4C707.859 548 707.539 547.84 707.459 547.84C706.859 547.84 706.299 548 706.219 548.24L704.619 554.52C704.579 554.72 704.459 554.84 704.379 554.84L700.259 554.96C700.219 554.96 700.139 554.84 700.139 554.72L701.699 548.56C701.699 548.44 701.419 548.2 701.299 548.2C700.819 548.2 700.219 548.4 700.099 548.64L698.499 554.84C698.459 554.92 698.339 555.04 698.259 555.04L695.019 555.2C694.779 555.24 694.419 556.08 694.339 556.36C694.219 556.96 694.379 557.56 694.379 557.6L697.699 557.52C697.859 557.52 697.859 557.76 697.859 557.84L696.779 562.16C696.739 562.4 696.579 562.44 696.419 562.44L693.499 562.6C693.179 562.6 692.779 563.52 692.619 564.32C692.619 564.4 692.779 564.96 692.899 564.96L695.739 564.88C695.979 564.88 696.019 565.12 695.979 565.28L694.259 572C694.219 572.16 694.579 572.52 694.859 572.52C694.979 572.52 695.699 572.4 695.779 572.08L697.619 565.16C697.619 565.08 697.939 564.84 698.019 564.84L701.899 564.68C701.979 564.68 702.099 564.84 702.059 565.04L700.339 571.88C700.219 572.2 700.619 572.32 700.819 572.32C701.259 572.32 701.819 572.08 701.899 571.76L703.699 564.92C703.739 564.68 703.859 564.64 703.939 564.64L707.099 564.52C707.539 564.52 707.939 563.48 708.019 563C708.059 562.76 707.979 562.08 707.779 562.08L704.539 562.2C704.419 562.24 704.379 562.08 704.419 561.96L705.499 557.68C705.539 557.52 705.659 557.28 705.739 557.28L708.779 557.16C709.099 557.16 709.379 556.28 709.419 555.8ZM703.859 557.76L702.819 561.92C702.779 562.12 702.659 562.24 702.499 562.24L698.579 562.4C698.419 562.44 698.299 562.16 698.339 562.08L699.419 557.8C699.459 557.64 699.579 557.48 699.739 557.48L703.739 557.36C703.899 557.32 703.899 557.6 703.859 557.76ZM723.241 572.8C723.241 573.12 723.801 573.2 724.241 573.2C724.801 573.2 727.361 573 729.641 573C730.881 573 732.521 573.16 733.521 573.16C734.121 573.16 734.481 573 734.481 572.72C734.481 572.36 734.001 572.12 733.441 572C730.961 571.4 730.841 571 730.841 568.28C730.801 563.56 730.801 555.28 730.801 552.44C730.761 549.52 730.921 548.64 730.921 547.84C730.921 547.64 730.761 547.4 730.481 547.44L728.961 548.2C727.801 548.84 726.281 549.04 724.761 549.36C724.361 549.44 723.961 549.76 723.961 549.96C723.961 550.24 724.121 550.36 724.721 550.52C725.121 550.64 725.881 550.72 726.521 550.84C726.961 550.92 727.321 551.24 727.401 551.64C727.521 552.24 727.561 553.56 727.561 557.84C727.561 565.2 727.441 568.12 727.281 569.44C727.081 571.12 726.521 571.56 724.561 572C723.641 572.24 723.241 572.48 723.241 572.8ZM745.993 547.76C744.473 547.76 743.393 548.16 742.313 548.84C739.793 550.44 737.473 554.4 737.473 560.84C737.473 565.96 739.673 573.36 745.673 573.48C746.873 573.52 748.193 573.12 749.353 572.36C751.593 570.92 753.913 566.68 753.913 560.24C753.913 555.96 752.313 547.76 745.993 547.76ZM745.313 548.96C746.113 548.96 746.753 549.28 747.393 549.72C748.473 550.48 750.393 553.92 750.393 560.48C750.393 565.6 749.753 568.72 748.833 570.48C748.713 570.68 747.593 572.4 746.233 572.4C742.153 572.4 740.833 564.8 740.833 560.36C740.833 554.44 741.913 551.92 742.873 550.48C743.713 549.32 744.393 548.96 745.313 548.96ZM756.874 572.8C756.874 573.12 757.434 573.2 757.874 573.2C758.434 573.2 760.994 573 763.274 573C764.514 573 766.154 573.16 767.154 573.16C767.754 573.16 768.114 573 768.114 572.72C768.114 572.36 767.634 572.12 767.074 572C764.594 571.4 764.474 571 764.474 568.28C764.434 563.56 764.434 555.28 764.434 552.44C764.394 549.52 764.554 548.64 764.554 547.84C764.554 547.64 764.394 547.4 764.114 547.44L762.594 548.2C761.434 548.84 759.914 549.04 758.394 549.36C757.994 549.44 757.594 549.76 757.594 549.96C757.594 550.24 757.754 550.36 758.354 550.52C758.754 550.64 759.514 550.72 760.154 550.84C760.594 550.92 760.954 551.24 761.034 551.64C761.154 552.24 761.194 553.56 761.194 557.84C761.194 565.2 761.074 568.12 760.914 569.44C760.714 571.12 760.154 571.56 758.194 572C757.274 572.24 756.874 572.48 756.874 572.8ZM779.626 547.76C778.106 547.76 777.026 548.16 775.946 548.84C773.426 550.44 771.106 554.4 771.106 560.84C771.106 565.96 773.306 573.36 779.306 573.48C780.506 573.52 781.826 573.12 782.986 572.36C785.226 570.92 787.546 566.68 787.546 560.24C787.546 555.96 785.946 547.76 779.626 547.76ZM778.946 548.96C779.746 548.96 780.386 549.28 781.026 549.72C782.106 550.48 784.026 553.92 784.026 560.48C784.026 565.6 783.386 568.72 782.466 570.48C782.346 570.68 781.226 572.4 779.866 572.4C775.786 572.4 774.466 564.8 774.466 560.36C774.466 554.44 775.546 551.92 776.506 550.48C777.346 549.32 778.026 548.96 778.946 548.96ZM790.507 572.8C790.507 573.12 791.067 573.2 791.507 573.2C792.067 573.2 794.627 573 796.907 573C798.147 573 799.787 573.16 800.787 573.16C801.387 573.16 801.747 573 801.747 572.72C801.747 572.36 801.267 572.12 800.707 572C798.227 571.4 798.107 571 798.107 568.28C798.067 563.56 798.067 555.28 798.067 552.44C798.027 549.52 798.187 548.64 798.187 547.84C798.187 547.64 798.027 547.4 797.747 547.44L796.227 548.2C795.067 548.84 793.547 549.04 792.027 549.36C791.627 549.44 791.227 549.76 791.227 549.96C791.227 550.24 791.387 550.36 791.987 550.52C792.387 550.64 793.147 550.72 793.787 550.84C794.227 550.92 794.587 551.24 794.667 551.64C794.787 552.24 794.827 553.56 794.827 557.84C794.827 565.2 794.707 568.12 794.547 569.44C794.347 571.12 793.787 571.56 791.827 572C790.907 572.24 790.507 572.48 790.507 572.8ZM831.528 555.8C831.568 555.6 831.488 554.96 831.408 554.76L828.368 554.8C828.328 554.8 828.208 554.76 828.288 554.44L829.848 548.4C829.968 548 829.648 547.84 829.568 547.84C828.968 547.84 828.408 548 828.328 548.24L826.728 554.52C826.688 554.72 826.568 554.84 826.488 554.84L822.368 554.96C822.328 554.96 822.248 554.84 822.248 554.72L823.808 548.56C823.808 548.44 823.528 548.2 823.408 548.2C822.928 548.2 822.328 548.4 822.208 548.64L820.608 554.84C820.568 554.92 820.448 555.04 820.368 555.04L817.128 555.2C816.888 555.24 816.528 556.08 816.448 556.36C816.328 556.96 816.488 557.56 816.488 557.6L819.808 557.52C819.968 557.52 819.968 557.76 819.968 557.84L818.888 562.16C818.848 562.4 818.688 562.44 818.528 562.44L815.608 562.6C815.288 562.6 814.888 563.52 814.728 564.32C814.728 564.4 814.888 564.96 815.008 564.96L817.848 564.88C818.088 564.88 818.128 565.12 818.088 565.28L816.368 572C816.328 572.16 816.688 572.52 816.968 572.52C817.088 572.52 817.808 572.4 817.888 572.08L819.728 565.16C819.728 565.08 820.048 564.84 820.128 564.84L824.008 564.68C824.088 564.68 824.208 564.84 824.168 565.04L822.448 571.88C822.328 572.2 822.728 572.32 822.928 572.32C823.368 572.32 823.928 572.08 824.008 571.76L825.808 564.92C825.848 564.68 825.968 564.64 826.048 564.64L829.208 564.52C829.648 564.52 830.048 563.48 830.128 563C830.168 562.76 830.088 562.08 829.888 562.08L826.648 562.2C826.528 562.24 826.488 562.08 826.528 561.96L827.608 557.68C827.648 557.52 827.768 557.28 827.848 557.28L830.888 557.16C831.208 557.16 831.488 556.28 831.528 555.8ZM825.968 557.76L824.928 561.92C824.888 562.12 824.768 562.24 824.608 562.24L820.688 562.4C820.528 562.44 820.408 562.16 820.448 562.08L821.528 557.8C821.568 557.64 821.688 557.48 821.848 557.48L825.848 557.36C826.008 557.32 826.008 557.6 825.968 557.76ZM845.35 572.8C845.35 573.12 845.91 573.2 846.35 573.2C846.91 573.2 849.47 573 851.75 573C852.99 573 854.63 573.16 855.63 573.16C856.23 573.16 856.59 573 856.59 572.72C856.59 572.36 856.11 572.12 855.55 572C853.07 571.4 852.95 571 852.95 568.28C852.91 563.56 852.91 555.28 852.91 552.44C852.87 549.52 853.03 548.64 853.03 547.84C853.03 547.64 852.87 547.4 852.59 547.44L851.07 548.2C849.91 548.84 848.39 549.04 846.87 549.36C846.47 549.44 846.07 549.76 846.07 549.96C846.07 550.24 846.23 550.36 846.83 550.52C847.23 550.64 847.99 550.72 848.63 550.84C849.07 550.92 849.43 551.24 849.51 551.64C849.63 552.24 849.67 553.56 849.67 557.84C849.67 565.2 849.55 568.12 849.39 569.44C849.19 571.12 848.63 571.56 846.67 572C845.75 572.24 845.35 572.48 845.35 572.8ZM858.827 572.8C858.827 573.12 859.387 573.2 859.827 573.2C860.387 573.2 862.947 573 865.227 573C866.467 573 868.107 573.16 869.107 573.16C869.707 573.16 870.067 573 870.067 572.72C870.067 572.36 869.587 572.12 869.027 572C866.547 571.4 866.427 571 866.427 568.28C866.387 563.56 866.387 555.28 866.387 552.44C866.347 549.52 866.507 548.64 866.507 547.84C866.507 547.64 866.347 547.4 866.067 547.44L864.547 548.2C863.387 548.84 861.867 549.04 860.347 549.36C859.947 549.44 859.547 549.76 859.547 549.96C859.547 550.24 859.707 550.36 860.307 550.52C860.707 550.64 861.467 550.72 862.107 550.84C862.547 550.92 862.907 551.24 862.987 551.64C863.107 552.24 863.147 553.56 863.147 557.84C863.147 565.2 863.027 568.12 862.867 569.44C862.667 571.12 862.107 571.56 860.147 572C859.227 572.24 858.827 572.48 858.827 572.8ZM881.579 547.76C880.059 547.76 878.979 548.16 877.899 548.84C875.379 550.44 873.059 554.4 873.059 560.84C873.059 565.96 875.259 573.36 881.259 573.48C882.459 573.52 883.779 573.12 884.939 572.36C887.179 570.92 889.499 566.68 889.499 560.24C889.499 555.96 887.899 547.76 881.579 547.76ZM880.899 548.96C881.699 548.96 882.339 549.28 882.979 549.72C884.059 550.48 885.979 553.92 885.979 560.48C885.979 565.6 885.339 568.72 884.419 570.48C884.299 570.68 883.179 572.4 881.819 572.4C877.739 572.4 876.419 564.8 876.419 560.36C876.419 554.44 877.499 551.92 878.459 550.48C879.299 549.32 879.979 548.96 880.899 548.96ZM902.126 547.76C900.606 547.76 899.526 548.16 898.446 548.84C895.926 550.44 893.606 554.4 893.606 560.84C893.606 565.96 895.806 573.36 901.806 573.48C903.006 573.52 904.326 573.12 905.486 572.36C907.726 570.92 910.046 566.68 910.046 560.24C910.046 555.96 908.446 547.76 902.126 547.76ZM901.446 548.96C902.246 548.96 902.886 549.28 903.526 549.72C904.606 550.48 906.526 553.92 906.526 560.48C906.526 565.6 905.886 568.72 904.966 570.48C904.846 570.68 903.726 572.4 902.366 572.4C898.286 572.4 896.966 564.8 896.966 560.36C896.966 554.44 898.046 551.92 899.006 550.48C899.846 549.32 900.526 548.96 901.446 548.96ZM922.673 547.76C921.153 547.76 920.073 548.16 918.993 548.84C916.473 550.44 914.153 554.4 914.153 560.84C914.153 565.96 916.353 573.36 922.353 573.48C923.553 573.52 924.873 573.12 926.033 572.36C928.273 570.92 930.593 566.68 930.593 560.24C930.593 555.96 928.993 547.76 922.673 547.76ZM921.993 548.96C922.793 548.96 923.433 549.28 924.073 549.72C925.153 550.48 927.073 553.92 927.073 560.48C927.073 565.6 926.433 568.72 925.513 570.48C925.393 570.68 924.273 572.4 922.913 572.4C918.833 572.4 917.513 564.8 917.513 560.36C917.513 554.44 918.593 551.92 919.553 550.48C920.393 549.32 921.073 548.96 921.993 548.96Z" fill="black"/>
</g>
</g>
</svg>
