<svg width="1024" height="768" viewBox="0 0 1024 768" fill="none" xmlns="http://www.w3.org/2000/svg">
<g id="Pierwszy">
<rect width="1024" height="768" fill="white"/>
<path id="Twierdzenie.__E2_8A_86_sasdfa__E2_84_9D_gdfs" d="M146.949 159.648H137.809V185H134.078V159.648H124.957V156.562H146.949V159.648ZM168.18 180.02L172.242 163.867H175.855L169.703 185H166.773L161.637 168.984L156.637 185H153.707L147.574 163.867H151.168L155.328 179.688L160.25 163.867H163.16L168.18 180.02ZM183.473 185H179.859V163.867H183.473V185ZM179.566 158.262C179.566 157.676 179.742 157.181 180.094 156.777C180.458 156.374 180.992 156.172 181.695 156.172C182.398 156.172 182.932 156.374 183.297 156.777C183.661 157.181 183.844 157.676 183.844 158.262C183.844 158.848 183.661 159.336 183.297 159.727C182.932 160.117 182.398 160.312 181.695 160.312C180.992 160.312 180.458 160.117 180.094 159.727C179.742 159.336 179.566 158.848 179.566 158.262ZM198.043 185.391C195.178 185.391 192.848 184.453 191.051 182.578C189.254 180.69 188.355 178.171 188.355 175.02V174.355C188.355 172.259 188.753 170.391 189.547 168.75C190.354 167.096 191.474 165.807 192.906 164.883C194.352 163.945 195.914 163.477 197.594 163.477C200.341 163.477 202.477 164.382 204 166.191C205.523 168.001 206.285 170.592 206.285 173.965V175.469H191.969C192.021 177.552 192.626 179.238 193.785 180.527C194.957 181.803 196.441 182.441 198.238 182.441C199.514 182.441 200.595 182.181 201.48 181.66C202.366 181.139 203.141 180.449 203.805 179.59L206.012 181.309C204.241 184.03 201.585 185.391 198.043 185.391ZM197.594 166.445C196.135 166.445 194.911 166.979 193.922 168.047C192.932 169.102 192.32 170.586 192.086 172.5H202.672V172.227C202.568 170.391 202.073 168.971 201.188 167.969C200.302 166.953 199.104 166.445 197.594 166.445ZM220.699 167.109C220.152 167.018 219.56 166.973 218.922 166.973C216.552 166.973 214.944 167.982 214.098 170V185H210.484V163.867H214L214.059 166.309C215.243 164.421 216.923 163.477 219.098 163.477C219.801 163.477 220.335 163.568 220.699 163.75V167.109ZM222.77 174.258C222.77 171.016 223.538 168.411 225.074 166.445C226.611 164.466 228.622 163.477 231.109 163.477C233.583 163.477 235.543 164.323 236.988 166.016V155H240.602V185H237.281L237.105 182.734C235.66 184.505 233.648 185.391 231.07 185.391C228.622 185.391 226.624 184.388 225.074 182.383C223.538 180.378 222.77 177.76 222.77 174.531V174.258ZM226.383 174.668C226.383 177.064 226.878 178.939 227.867 180.293C228.857 181.647 230.224 182.324 231.969 182.324C234.26 182.324 235.934 181.296 236.988 179.238V169.531C235.908 167.539 234.247 166.543 232.008 166.543C230.237 166.543 228.857 167.227 227.867 168.594C226.878 169.961 226.383 171.986 226.383 174.668ZM249.625 182.051H261.988V185H245.211V182.344L256.871 166.855H245.387V163.867H261.402V166.426L249.625 182.051ZM274.527 185.391C271.663 185.391 269.332 184.453 267.535 182.578C265.738 180.69 264.84 178.171 264.84 175.02V174.355C264.84 172.259 265.237 170.391 266.031 168.75C266.839 167.096 267.958 165.807 269.391 164.883C270.836 163.945 272.398 163.477 274.078 163.477C276.826 163.477 278.961 164.382 280.484 166.191C282.008 168.001 282.77 170.592 282.77 173.965V175.469H268.453C268.505 177.552 269.111 179.238 270.27 180.527C271.441 181.803 272.926 182.441 274.723 182.441C275.999 182.441 277.079 182.181 277.965 181.66C278.85 181.139 279.625 180.449 280.289 179.59L282.496 181.309C280.725 184.03 278.069 185.391 274.527 185.391ZM274.078 166.445C272.62 166.445 271.396 166.979 270.406 168.047C269.417 169.102 268.805 170.586 268.57 172.5H279.156V172.227C279.052 170.391 278.557 168.971 277.672 167.969C276.786 166.953 275.589 166.445 274.078 166.445ZM290.387 163.867L290.504 166.523C292.118 164.492 294.228 163.477 296.832 163.477C301.298 163.477 303.551 165.996 303.59 171.035V185H299.977V171.016C299.964 169.492 299.612 168.366 298.922 167.637C298.245 166.908 297.184 166.543 295.738 166.543C294.566 166.543 293.538 166.855 292.652 167.48C291.767 168.105 291.077 168.926 290.582 169.941V185H286.969V163.867H290.387ZM312.965 185H309.352V163.867H312.965V185ZM309.059 158.262C309.059 157.676 309.234 157.181 309.586 156.777C309.951 156.374 310.484 156.172 311.188 156.172C311.891 156.172 312.424 156.374 312.789 156.777C313.154 157.181 313.336 157.676 313.336 158.262C313.336 158.848 313.154 159.336 312.789 159.727C312.424 160.117 311.891 160.312 311.188 160.312C310.484 160.312 309.951 160.117 309.586 159.727C309.234 159.336 309.059 158.848 309.059 158.262ZM327.535 185.391C324.671 185.391 322.34 184.453 320.543 182.578C318.746 180.69 317.848 178.171 317.848 175.02V174.355C317.848 172.259 318.245 170.391 319.039 168.75C319.846 167.096 320.966 165.807 322.398 164.883C323.844 163.945 325.406 163.477 327.086 163.477C329.833 163.477 331.969 164.382 333.492 166.191C335.016 168.001 335.777 170.592 335.777 173.965V175.469H321.461C321.513 177.552 322.118 179.238 323.277 180.527C324.449 181.803 325.934 182.441 327.73 182.441C329.007 182.441 330.087 182.181 330.973 181.66C331.858 181.139 332.633 180.449 333.297 179.59L335.504 181.309C333.733 184.03 331.077 185.391 327.535 185.391ZM327.086 166.445C325.628 166.445 324.404 166.979 323.414 168.047C322.424 169.102 321.812 170.586 321.578 172.5H332.164V172.227C332.06 170.391 331.565 168.971 330.68 167.969C329.794 166.953 328.596 166.445 327.086 166.445ZM340.055 183.105C340.055 182.48 340.237 181.96 340.602 181.543C340.979 181.126 341.539 180.918 342.281 180.918C343.023 180.918 343.583 181.126 343.961 181.543C344.352 181.96 344.547 182.48 344.547 183.105C344.547 183.704 344.352 184.206 343.961 184.609C343.583 185.013 343.023 185.215 342.281 185.215C341.539 185.215 340.979 185.013 340.602 184.609C340.237 184.206 340.055 183.704 340.055 183.105ZM380.033 182H389.153C389.633 181.52 389.633 180.48 389.153 180H380.033C375.393 180 371.633 176.24 371.633 171.6C371.633 166.96 375.393 163.2 380.033 163.2H389.153C389.633 162.72 389.633 161.68 389.153 161.2H380.033C374.273 161.2 369.633 165.84 369.633 171.6C369.633 177.36 374.273 182 380.033 182ZM369.993 186C369.513 186.48 369.513 187.52 369.993 188H389.153C389.633 187.52 389.633 186.48 389.153 186H369.993ZM416.461 179.395C416.461 178.418 416.09 177.663 415.348 177.129C414.618 176.582 413.336 176.113 411.5 175.723C409.677 175.332 408.225 174.863 407.145 174.316C406.077 173.77 405.283 173.118 404.762 172.363C404.254 171.608 404 170.71 404 169.668C404 167.936 404.729 166.471 406.188 165.273C407.659 164.076 409.534 163.477 411.812 163.477C414.208 163.477 416.148 164.095 417.633 165.332C419.13 166.569 419.879 168.151 419.879 170.078H416.246C416.246 169.089 415.823 168.236 414.977 167.52C414.143 166.803 413.089 166.445 411.812 166.445C410.497 166.445 409.469 166.732 408.727 167.305C407.984 167.878 407.613 168.626 407.613 169.551C407.613 170.423 407.958 171.081 408.648 171.523C409.339 171.966 410.582 172.389 412.379 172.793C414.189 173.197 415.654 173.678 416.773 174.238C417.893 174.798 418.72 175.475 419.254 176.27C419.801 177.051 420.074 178.008 420.074 179.141C420.074 181.029 419.319 182.546 417.809 183.691C416.298 184.824 414.339 185.391 411.93 185.391C410.237 185.391 408.74 185.091 407.438 184.492C406.135 183.893 405.113 183.06 404.371 181.992C403.642 180.911 403.277 179.746 403.277 178.496H406.891C406.956 179.707 407.438 180.671 408.336 181.387C409.247 182.09 410.445 182.441 411.93 182.441C413.297 182.441 414.391 182.168 415.211 181.621C416.044 181.061 416.461 180.319 416.461 179.395ZM437.828 185C437.62 184.583 437.451 183.841 437.32 182.773C435.641 184.518 433.635 185.391 431.305 185.391C429.221 185.391 427.509 184.805 426.168 183.633C424.84 182.448 424.176 180.951 424.176 179.141C424.176 176.94 425.009 175.234 426.676 174.023C428.355 172.799 430.712 172.188 433.746 172.188H437.262V170.527C437.262 169.264 436.884 168.262 436.129 167.52C435.374 166.764 434.26 166.387 432.789 166.387C431.5 166.387 430.419 166.712 429.547 167.363C428.674 168.014 428.238 168.802 428.238 169.727H424.605C424.605 168.672 424.977 167.656 425.719 166.68C426.474 165.69 427.49 164.909 428.766 164.336C430.055 163.763 431.467 163.477 433.004 163.477C435.439 163.477 437.346 164.089 438.727 165.312C440.107 166.523 440.823 168.197 440.875 170.332V180.059C440.875 181.999 441.122 183.542 441.617 184.688V185H437.828ZM431.832 182.246C432.965 182.246 434.039 181.953 435.055 181.367C436.07 180.781 436.806 180.02 437.262 179.082V174.746H434.43C430.003 174.746 427.789 176.042 427.789 178.633C427.789 179.766 428.167 180.651 428.922 181.289C429.677 181.927 430.647 182.246 431.832 182.246ZM458.844 179.395C458.844 178.418 458.473 177.663 457.73 177.129C457.001 176.582 455.719 176.113 453.883 175.723C452.06 175.332 450.608 174.863 449.527 174.316C448.46 173.77 447.665 173.118 447.145 172.363C446.637 171.608 446.383 170.71 446.383 169.668C446.383 167.936 447.112 166.471 448.57 165.273C450.042 164.076 451.917 163.477 454.195 163.477C456.591 163.477 458.531 164.095 460.016 165.332C461.513 166.569 462.262 168.151 462.262 170.078H458.629C458.629 169.089 458.206 168.236 457.359 167.52C456.526 166.803 455.471 166.445 454.195 166.445C452.88 166.445 451.852 166.732 451.109 167.305C450.367 167.878 449.996 168.626 449.996 169.551C449.996 170.423 450.341 171.081 451.031 171.523C451.721 171.966 452.965 172.389 454.762 172.793C456.572 173.197 458.036 173.678 459.156 174.238C460.276 174.798 461.103 175.475 461.637 176.27C462.184 177.051 462.457 178.008 462.457 179.141C462.457 181.029 461.702 182.546 460.191 183.691C458.681 184.824 456.721 185.391 454.312 185.391C452.62 185.391 451.122 185.091 449.82 184.492C448.518 183.893 447.496 183.06 446.754 181.992C446.025 180.911 445.66 179.746 445.66 178.496H449.273C449.339 179.707 449.82 180.671 450.719 181.387C451.63 182.09 452.828 182.441 454.312 182.441C455.68 182.441 456.773 182.168 457.594 181.621C458.427 181.061 458.844 180.319 458.844 179.395ZM466.285 174.258C466.285 171.016 467.053 168.411 468.59 166.445C470.126 164.466 472.138 163.477 474.625 163.477C477.099 163.477 479.059 164.323 480.504 166.016V155H484.117V185H480.797L480.621 182.734C479.176 184.505 477.164 185.391 474.586 185.391C472.138 185.391 470.139 184.388 468.59 182.383C467.053 180.378 466.285 177.76 466.285 174.531V174.258ZM469.898 174.668C469.898 177.064 470.393 178.939 471.383 180.293C472.372 181.647 473.74 182.324 475.484 182.324C477.776 182.324 479.449 181.296 480.504 179.238V169.531C479.423 167.539 477.763 166.543 475.523 166.543C473.753 166.543 472.372 167.227 471.383 168.594C470.393 169.961 469.898 171.986 469.898 174.668ZM491.52 185V166.66H488.18V163.867H491.52V161.699C491.52 159.434 492.125 157.682 493.336 156.445C494.547 155.208 496.259 154.59 498.473 154.59C499.306 154.59 500.133 154.701 500.953 154.922L500.758 157.852C500.146 157.734 499.495 157.676 498.805 157.676C497.633 157.676 496.728 158.021 496.09 158.711C495.452 159.388 495.133 160.365 495.133 161.641V163.867H499.645V166.66H495.133V185H491.52ZM516.695 185C516.487 184.583 516.318 183.841 516.188 182.773C514.508 184.518 512.503 185.391 510.172 185.391C508.089 185.391 506.376 184.805 505.035 183.633C503.707 182.448 503.043 180.951 503.043 179.141C503.043 176.94 503.876 175.234 505.543 174.023C507.223 172.799 509.579 172.188 512.613 172.188H516.129V170.527C516.129 169.264 515.751 168.262 514.996 167.52C514.241 166.764 513.128 166.387 511.656 166.387C510.367 166.387 509.286 166.712 508.414 167.363C507.542 168.014 507.105 168.802 507.105 169.727H503.473C503.473 168.672 503.844 167.656 504.586 166.68C505.341 165.69 506.357 164.909 507.633 164.336C508.922 163.763 510.335 163.477 511.871 163.477C514.306 163.477 516.214 164.089 517.594 165.312C518.974 166.523 519.69 168.197 519.742 170.332V180.059C519.742 181.999 519.99 183.542 520.484 184.688V185H516.695ZM510.699 182.246C511.832 182.246 512.906 181.953 513.922 181.367C514.938 180.781 515.673 180.02 516.129 179.082V174.746H513.297C508.87 174.746 506.656 176.042 506.656 178.633C506.656 179.766 507.034 180.651 507.789 181.289C508.544 181.927 509.514 182.246 510.699 182.246ZM554.754 165.84C554.754 163.84 554.074 162.2 552.634 160.84C550.714 159.04 547.874 158.84 545.354 158.84C540.674 158.84 534.474 159.12 533.634 159.32V160.08C533.634 160.24 533.754 160.36 533.954 160.36L535.634 160.32V183.88H533.394C533.194 183.88 533.074 184 533.074 184.2V184.96L533.154 185.04C533.154 185.04 539.354 184.96 540.754 184.96C542.354 184.96 545.794 185.04 545.794 185.04L545.874 184.96V184.2C545.874 184 545.714 183.88 545.554 183.88H544.514C542.914 183.88 542.314 183.32 542.314 182.12V173.64C545.034 173.64 546.194 173.88 546.394 174.16L550.514 181.84C551.514 183.72 553.314 185.24 555.674 185.24C556.274 185.24 556.994 185.16 557.394 185L557.234 184.16C555.754 184.16 554.434 182.84 553.514 181.08L549.234 172.88C550.994 172.32 554.754 170.04 554.754 165.84ZM551.514 165.88C551.514 167.56 550.994 168.96 550.194 170.08C549.234 171.44 547.354 172.12 544.354 172.12H542.314V160.28C543.274 160.08 544.394 159.96 545.794 159.96C548.234 159.96 551.514 161.16 551.514 165.88ZM536.994 183.88V160.24H537.634C537.714 160.2 537.794 160.2 537.914 160.2C538.954 160.2 539.074 160.88 539.074 162.04V182.12C539.074 183.24 539.034 183.88 537.394 183.88H536.994ZM569.117 174.258C569.117 170.964 569.879 168.346 571.402 166.406C572.926 164.453 574.944 163.477 577.457 163.477C580.035 163.477 582.047 164.388 583.492 166.211L583.668 163.867H586.969V184.492C586.969 187.227 586.155 189.382 584.527 190.957C582.913 192.533 580.738 193.32 578.004 193.32C576.48 193.32 574.99 192.995 573.531 192.344C572.073 191.693 570.96 190.801 570.191 189.668L572.066 187.5C573.616 189.414 575.51 190.371 577.75 190.371C579.508 190.371 580.875 189.876 581.852 188.887C582.841 187.897 583.336 186.504 583.336 184.707V182.891C581.891 184.557 579.918 185.391 577.418 185.391C574.944 185.391 572.939 184.395 571.402 182.402C569.879 180.41 569.117 177.695 569.117 174.258ZM572.75 174.668C572.75 177.051 573.238 178.926 574.215 180.293C575.191 181.647 576.559 182.324 578.316 182.324C580.595 182.324 582.268 181.289 583.336 179.219V169.57C582.229 167.552 580.569 166.543 578.355 166.543C576.598 166.543 575.224 167.227 574.234 168.594C573.245 169.961 572.75 171.986 572.75 174.668ZM591.559 174.258C591.559 171.016 592.327 168.411 593.863 166.445C595.4 164.466 597.411 163.477 599.898 163.477C602.372 163.477 604.332 164.323 605.777 166.016V155H609.391V185H606.07L605.895 182.734C604.449 184.505 602.438 185.391 599.859 185.391C597.411 185.391 595.413 184.388 593.863 182.383C592.327 180.378 591.559 177.76 591.559 174.531V174.258ZM595.172 174.668C595.172 177.064 595.667 178.939 596.656 180.293C597.646 181.647 599.013 182.324 600.758 182.324C603.049 182.324 604.723 181.296 605.777 179.238V169.531C604.697 167.539 603.036 166.543 600.797 166.543C599.026 166.543 597.646 167.227 596.656 168.594C595.667 169.961 595.172 171.986 595.172 174.668ZM616.793 185V166.66H613.453V163.867H616.793V161.699C616.793 159.434 617.398 157.682 618.609 156.445C619.82 155.208 621.533 154.59 623.746 154.59C624.579 154.59 625.406 154.701 626.227 154.922L626.031 157.852C625.419 157.734 624.768 157.676 624.078 157.676C622.906 157.676 622.001 158.021 621.363 158.711C620.725 159.388 620.406 160.365 620.406 161.641V163.867H624.918V166.66H620.406V185H616.793ZM641.227 179.395C641.227 178.418 640.855 177.663 640.113 177.129C639.384 176.582 638.102 176.113 636.266 175.723C634.443 175.332 632.991 174.863 631.91 174.316C630.842 173.77 630.048 173.118 629.527 172.363C629.02 171.608 628.766 170.71 628.766 169.668C628.766 167.936 629.495 166.471 630.953 165.273C632.424 164.076 634.299 163.477 636.578 163.477C638.974 163.477 640.914 164.095 642.398 165.332C643.896 166.569 644.645 168.151 644.645 170.078H641.012C641.012 169.089 640.589 168.236 639.742 167.52C638.909 166.803 637.854 166.445 636.578 166.445C635.263 166.445 634.234 166.732 633.492 167.305C632.75 167.878 632.379 168.626 632.379 169.551C632.379 170.423 632.724 171.081 633.414 171.523C634.104 171.966 635.348 172.389 637.145 172.793C638.954 173.197 640.419 173.678 641.539 174.238C642.659 174.798 643.486 175.475 644.02 176.27C644.566 177.051 644.84 178.008 644.84 179.141C644.84 181.029 644.085 182.546 642.574 183.691C641.064 184.824 639.104 185.391 636.695 185.391C635.003 185.391 633.505 185.091 632.203 184.492C630.901 183.893 629.879 183.06 629.137 181.992C628.408 180.911 628.043 179.746 628.043 178.496H631.656C631.721 179.707 632.203 180.671 633.102 181.387C634.013 182.09 635.211 182.441 636.695 182.441C638.062 182.441 639.156 182.168 639.977 181.621C640.81 181.061 641.227 180.319 641.227 179.395Z" fill="black"/>
<g id="_5Calpha_=__5Csum_i" clip-path="url(#clip0)">
<g id="page1">
<path id="Vector" d="M263.263 281.482C263.263 278.075 261.331 274.879 257.608 274.879C253.006 274.879 248.405 279.901 248.405 284.889C248.405 287.945 250.302 290.72 253.884 290.72C256.062 290.72 258.661 289.877 261.155 287.769C261.647 289.736 262.736 290.72 264.246 290.72C266.143 290.72 267.091 288.753 267.091 288.296C267.091 287.98 266.845 287.98 266.74 287.98C266.459 287.98 266.424 288.085 266.318 288.366C266.002 289.244 265.194 290.017 264.351 290.017C263.263 290.017 263.263 287.769 263.263 285.627C266.845 281.341 267.688 276.916 267.688 276.881C267.688 276.565 267.407 276.565 267.302 276.565C266.986 276.565 266.951 276.67 266.81 277.302C266.353 278.848 265.44 281.587 263.263 284.467V281.482ZM261.05 286.926C257.959 289.701 255.184 290.017 253.955 290.017C251.461 290.017 250.758 287.804 250.758 286.153C250.758 284.643 251.531 281.06 252.62 279.129C254.06 276.67 256.027 275.581 257.608 275.581C261.015 275.581 261.015 280.042 261.015 282.992C261.015 283.87 260.979 284.784 260.979 285.662C260.979 286.364 261.015 286.54 261.05 286.926Z" fill="black"/>
<path id="Vector_2" d="M302.564 278.988C303.056 278.988 303.688 278.988 303.688 278.356C303.688 277.688 303.091 277.688 302.564 277.688H281.876C281.384 277.688 280.752 277.688 280.752 278.321C280.752 278.988 281.349 278.988 281.876 278.988H302.564ZM302.564 285.521C303.056 285.521 303.688 285.521 303.688 284.889C303.688 284.222 303.091 284.222 302.564 284.222H281.876C281.384 284.222 280.752 284.222 280.752 284.854C280.752 285.521 281.349 285.521 281.876 285.521H302.564Z" fill="black"/>
<path id="Vector_3" d="M359.829 306.174L364.079 294.934H363.201C361.831 298.587 358.108 300.976 354.068 302.029C353.331 302.205 349.889 303.118 343.145 303.118H321.965L339.843 282.149C340.089 281.868 340.159 281.763 340.159 281.587C340.159 281.517 340.159 281.411 339.913 281.06L323.545 258.686H342.794C347.5 258.686 350.697 259.178 351.013 259.248C352.909 259.529 355.965 260.126 358.74 261.882C359.618 262.444 362.007 264.025 363.201 266.87H364.079L359.829 257H318.312C317.504 257 317.469 257.035 317.364 257.246C317.328 257.351 317.328 258.019 317.328 258.405L335.909 283.835L317.715 305.155C317.364 305.577 317.364 305.753 317.364 305.788C317.364 306.174 317.68 306.174 318.312 306.174H359.829Z" fill="black"/>
<path id="Vector_4" d="M343.472 316.409C343.472 315.894 343.097 315.52 342.559 315.52C341.95 315.52 341.271 316.082 341.271 316.784C341.271 317.299 341.645 317.674 342.184 317.674C342.793 317.674 343.472 317.112 343.472 316.409ZM340.053 325.003L338.789 328.235C338.671 328.586 338.554 328.867 338.554 329.265C338.554 330.412 339.444 331.255 340.685 331.255C342.957 331.255 343.917 327.977 343.917 327.673C343.917 327.438 343.729 327.368 343.565 327.368C343.284 327.368 343.238 327.532 343.167 327.766C342.629 329.639 341.669 330.6 340.732 330.6C340.451 330.6 340.17 330.482 340.17 329.85C340.17 329.288 340.334 328.867 340.638 328.141C340.873 327.509 341.107 326.876 341.364 326.244L342.09 324.347C342.301 323.809 342.582 323.083 342.582 322.685C342.582 321.514 341.645 320.695 340.451 320.695C338.18 320.695 337.196 323.973 337.196 324.277C337.196 324.488 337.36 324.582 337.547 324.582C337.852 324.582 337.875 324.441 337.946 324.207C338.601 321.982 339.678 321.35 340.381 321.35C340.709 321.35 340.943 321.467 340.943 322.123C340.943 322.357 340.919 322.685 340.685 323.387L340.053 325.003Z" fill="black"/>
</g>
</g>
<path id="Bardzo_by_Ciebie_zdziwi_C5_82o" d="M141.301 430V401.562H150.598C153.684 401.562 156.001 402.201 157.551 403.477C159.113 404.753 159.895 406.641 159.895 409.141C159.895 410.469 159.517 411.647 158.762 412.676C158.007 413.691 156.978 414.479 155.676 415.039C157.212 415.469 158.423 416.289 159.309 417.5C160.207 418.698 160.656 420.13 160.656 421.797C160.656 424.349 159.829 426.354 158.176 427.812C156.522 429.271 154.185 430 151.164 430H141.301ZM145.051 416.699V426.934H151.242C152.987 426.934 154.361 426.484 155.363 425.586C156.379 424.674 156.887 423.424 156.887 421.836C156.887 418.411 155.025 416.699 151.301 416.699H145.051ZM145.051 413.691H150.715C152.355 413.691 153.664 413.281 154.641 412.461C155.63 411.641 156.125 410.527 156.125 409.121C156.125 407.559 155.669 406.426 154.758 405.723C153.846 405.007 152.46 404.648 150.598 404.648H145.051V413.691ZM178.703 430C178.495 429.583 178.326 428.841 178.195 427.773C176.516 429.518 174.51 430.391 172.18 430.391C170.096 430.391 168.384 429.805 167.043 428.633C165.715 427.448 165.051 425.951 165.051 424.141C165.051 421.94 165.884 420.234 167.551 419.023C169.23 417.799 171.587 417.188 174.621 417.188H178.137V415.527C178.137 414.264 177.759 413.262 177.004 412.52C176.249 411.764 175.135 411.387 173.664 411.387C172.375 411.387 171.294 411.712 170.422 412.363C169.549 413.014 169.113 413.802 169.113 414.727H165.48C165.48 413.672 165.852 412.656 166.594 411.68C167.349 410.69 168.365 409.909 169.641 409.336C170.93 408.763 172.342 408.477 173.879 408.477C176.314 408.477 178.221 409.089 179.602 410.312C180.982 411.523 181.698 413.197 181.75 415.332V425.059C181.75 426.999 181.997 428.542 182.492 429.688V430H178.703ZM172.707 427.246C173.84 427.246 174.914 426.953 175.93 426.367C176.945 425.781 177.681 425.02 178.137 424.082V419.746H175.305C170.878 419.746 168.664 421.042 168.664 423.633C168.664 424.766 169.042 425.651 169.797 426.289C170.552 426.927 171.522 427.246 172.707 427.246ZM197.629 412.109C197.082 412.018 196.49 411.973 195.852 411.973C193.482 411.973 191.874 412.982 191.027 415V430H187.414V408.867H190.93L190.988 411.309C192.173 409.421 193.853 408.477 196.027 408.477C196.73 408.477 197.264 408.568 197.629 408.75V412.109ZM199.699 419.258C199.699 416.016 200.467 413.411 202.004 411.445C203.54 409.466 205.552 408.477 208.039 408.477C210.513 408.477 212.473 409.323 213.918 411.016V400H217.531V430H214.211L214.035 427.734C212.59 429.505 210.578 430.391 208 430.391C205.552 430.391 203.553 429.388 202.004 427.383C200.467 425.378 199.699 422.76 199.699 419.531V419.258ZM203.312 419.668C203.312 422.064 203.807 423.939 204.797 425.293C205.786 426.647 207.154 427.324 208.898 427.324C211.19 427.324 212.863 426.296 213.918 424.238V414.531C212.837 412.539 211.177 411.543 208.938 411.543C207.167 411.543 205.786 412.227 204.797 413.594C203.807 414.961 203.312 416.986 203.312 419.668ZM226.555 427.051H238.918V430H222.141V427.344L233.801 411.855H222.316V408.867H238.332V411.426L226.555 427.051ZM241.73 419.238C241.73 417.168 242.134 415.306 242.941 413.652C243.762 411.999 244.895 410.723 246.34 409.824C247.798 408.926 249.458 408.477 251.32 408.477C254.198 408.477 256.522 409.473 258.293 411.465C260.077 413.457 260.969 416.107 260.969 419.414V419.668C260.969 421.725 260.572 423.574 259.777 425.215C258.996 426.842 257.87 428.112 256.398 429.023C254.94 429.935 253.26 430.391 251.359 430.391C248.495 430.391 246.171 429.395 244.387 427.402C242.616 425.41 241.73 422.773 241.73 419.492V419.238ZM245.363 419.668C245.363 422.012 245.904 423.893 246.984 425.312C248.078 426.732 249.536 427.441 251.359 427.441C253.195 427.441 254.654 426.725 255.734 425.293C256.815 423.848 257.355 421.829 257.355 419.238C257.355 416.921 256.802 415.046 255.695 413.613C254.602 412.168 253.143 411.445 251.32 411.445C249.536 411.445 248.098 412.155 247.004 413.574C245.91 414.993 245.363 417.025 245.363 419.668ZM293.312 419.668C293.312 422.897 292.57 425.495 291.086 427.461C289.602 429.414 287.609 430.391 285.109 430.391C282.44 430.391 280.376 429.447 278.918 427.559L278.742 430H275.422V400H279.035V411.191C280.493 409.382 282.505 408.477 285.07 408.477C287.635 408.477 289.647 409.447 291.105 411.387C292.577 413.327 293.312 415.983 293.312 419.355V419.668ZM289.699 419.258C289.699 416.797 289.224 414.896 288.273 413.555C287.323 412.214 285.956 411.543 284.172 411.543C281.789 411.543 280.077 412.65 279.035 414.863V424.004C280.142 426.217 281.867 427.324 284.211 427.324C285.943 427.324 287.29 426.654 288.254 425.312C289.217 423.971 289.699 421.953 289.699 419.258ZM304.562 424.707L309.484 408.867H313.352L304.855 433.262C303.54 436.777 301.451 438.535 298.586 438.535L297.902 438.477L296.555 438.223V435.293L297.531 435.371C298.755 435.371 299.706 435.124 300.383 434.629C301.073 434.134 301.639 433.229 302.082 431.914L302.883 429.766L295.344 408.867H299.289L304.562 424.707ZM348 420.977C347.648 423.984 346.535 426.309 344.66 427.949C342.798 429.577 340.318 430.391 337.219 430.391C333.859 430.391 331.164 429.186 329.133 426.777C327.115 424.368 326.105 421.146 326.105 417.109V414.375C326.105 411.732 326.574 409.408 327.512 407.402C328.462 405.397 329.803 403.861 331.535 402.793C333.267 401.712 335.272 401.172 337.551 401.172C340.572 401.172 342.993 402.018 344.816 403.711C346.639 405.391 347.701 407.721 348 410.703H344.23C343.905 408.438 343.195 406.797 342.102 405.781C341.021 404.766 339.504 404.258 337.551 404.258C335.155 404.258 333.273 405.143 331.906 406.914C330.552 408.685 329.875 411.204 329.875 414.473V417.227C329.875 420.312 330.52 422.767 331.809 424.59C333.098 426.413 334.901 427.324 337.219 427.324C339.302 427.324 340.897 426.855 342.004 425.918C343.124 424.967 343.866 423.32 344.23 420.977H348ZM356.496 430H352.883V408.867H356.496V430ZM352.59 403.262C352.59 402.676 352.766 402.181 353.117 401.777C353.482 401.374 354.016 401.172 354.719 401.172C355.422 401.172 355.956 401.374 356.32 401.777C356.685 402.181 356.867 402.676 356.867 403.262C356.867 403.848 356.685 404.336 356.32 404.727C355.956 405.117 355.422 405.312 354.719 405.312C354.016 405.312 353.482 405.117 353.117 404.727C352.766 404.336 352.59 403.848 352.59 403.262ZM371.066 430.391C368.202 430.391 365.871 429.453 364.074 427.578C362.277 425.69 361.379 423.171 361.379 420.02V419.355C361.379 417.259 361.776 415.391 362.57 413.75C363.378 412.096 364.497 410.807 365.93 409.883C367.375 408.945 368.938 408.477 370.617 408.477C373.365 408.477 375.5 409.382 377.023 411.191C378.547 413.001 379.309 415.592 379.309 418.965V420.469H364.992C365.044 422.552 365.65 424.238 366.809 425.527C367.98 426.803 369.465 427.441 371.262 427.441C372.538 427.441 373.618 427.181 374.504 426.66C375.389 426.139 376.164 425.449 376.828 424.59L379.035 426.309C377.264 429.03 374.608 430.391 371.066 430.391ZM370.617 411.445C369.159 411.445 367.935 411.979 366.945 413.047C365.956 414.102 365.344 415.586 365.109 417.5H375.695V417.227C375.591 415.391 375.096 413.971 374.211 412.969C373.326 411.953 372.128 411.445 370.617 411.445ZM401.398 419.668C401.398 422.897 400.656 425.495 399.172 427.461C397.688 429.414 395.695 430.391 393.195 430.391C390.526 430.391 388.462 429.447 387.004 427.559L386.828 430H383.508V400H387.121V411.191C388.579 409.382 390.591 408.477 393.156 408.477C395.721 408.477 397.733 409.447 399.191 411.387C400.663 413.327 401.398 415.983 401.398 419.355V419.668ZM397.785 419.258C397.785 416.797 397.31 414.896 396.359 413.555C395.409 412.214 394.042 411.543 392.258 411.543C389.875 411.543 388.163 412.65 387.121 414.863V424.004C388.228 426.217 389.953 427.324 392.297 427.324C394.029 427.324 395.376 426.654 396.34 425.312C397.303 423.971 397.785 421.953 397.785 419.258ZM409.895 430H406.281V408.867H409.895V430ZM405.988 403.262C405.988 402.676 406.164 402.181 406.516 401.777C406.88 401.374 407.414 401.172 408.117 401.172C408.82 401.172 409.354 401.374 409.719 401.777C410.083 402.181 410.266 402.676 410.266 403.262C410.266 403.848 410.083 404.336 409.719 404.727C409.354 405.117 408.82 405.312 408.117 405.312C407.414 405.312 406.88 405.117 406.516 404.727C406.164 404.336 405.988 403.848 405.988 403.262ZM424.465 430.391C421.6 430.391 419.27 429.453 417.473 427.578C415.676 425.69 414.777 423.171 414.777 420.02V419.355C414.777 417.259 415.174 415.391 415.969 413.75C416.776 412.096 417.896 410.807 419.328 409.883C420.773 408.945 422.336 408.477 424.016 408.477C426.763 408.477 428.898 409.382 430.422 411.191C431.945 413.001 432.707 415.592 432.707 418.965V420.469H418.391C418.443 422.552 419.048 424.238 420.207 425.527C421.379 426.803 422.863 427.441 424.66 427.441C425.936 427.441 427.017 427.181 427.902 426.66C428.788 426.139 429.562 425.449 430.227 424.59L432.434 426.309C430.663 429.03 428.007 430.391 424.465 430.391ZM424.016 411.445C422.557 411.445 421.333 411.979 420.344 413.047C419.354 414.102 418.742 415.586 418.508 417.5H429.094V417.227C428.99 415.391 428.495 413.971 427.609 412.969C426.724 411.953 425.526 411.445 424.016 411.445ZM450.227 427.051H462.59V430H445.812V427.344L457.473 411.855H445.988V408.867H462.004V411.426L450.227 427.051ZM465.48 419.258C465.48 416.016 466.249 413.411 467.785 411.445C469.322 409.466 471.333 408.477 473.82 408.477C476.294 408.477 478.254 409.323 479.699 411.016V400H483.312V430H479.992L479.816 427.734C478.371 429.505 476.359 430.391 473.781 430.391C471.333 430.391 469.335 429.388 467.785 427.383C466.249 425.378 465.48 422.76 465.48 419.531V419.258ZM469.094 419.668C469.094 422.064 469.589 423.939 470.578 425.293C471.568 426.647 472.935 427.324 474.68 427.324C476.971 427.324 478.645 426.296 479.699 424.238V414.531C478.618 412.539 476.958 411.543 474.719 411.543C472.948 411.543 471.568 412.227 470.578 413.594C469.589 414.961 469.094 416.986 469.094 419.668ZM492.336 427.051H504.699V430H487.922V427.344L499.582 411.855H488.098V408.867H504.113V411.426L492.336 427.051ZM512.707 430H509.094V408.867H512.707V430ZM508.801 403.262C508.801 402.676 508.977 402.181 509.328 401.777C509.693 401.374 510.227 401.172 510.93 401.172C511.633 401.172 512.167 401.374 512.531 401.777C512.896 402.181 513.078 402.676 513.078 403.262C513.078 403.848 512.896 404.336 512.531 404.727C512.167 405.117 511.633 405.312 510.93 405.312C510.227 405.312 509.693 405.117 509.328 404.727C508.977 404.336 508.801 403.848 508.801 403.262ZM537.219 425.02L541.281 408.867H544.895L538.742 430H535.812L530.676 413.984L525.676 430H522.746L516.613 408.867H520.207L524.367 424.688L529.289 408.867H532.199L537.219 425.02ZM552.512 430H548.898V408.867H552.512V430ZM548.605 403.262C548.605 402.676 548.781 402.181 549.133 401.777C549.497 401.374 550.031 401.172 550.734 401.172C551.438 401.172 551.971 401.374 552.336 401.777C552.701 402.181 552.883 402.676 552.883 403.262C552.883 403.848 552.701 404.336 552.336 404.727C551.971 405.117 551.438 405.312 550.734 405.312C550.031 405.312 549.497 405.117 549.133 404.727C548.781 404.336 548.605 403.848 548.605 403.262ZM562.688 413.027L565.773 411.836V414.238L562.688 415.43V430H559.055V416.816L556.242 417.891V415.488L559.055 414.414V400H562.688V413.027ZM568.176 419.238C568.176 417.168 568.579 415.306 569.387 413.652C570.207 411.999 571.34 410.723 572.785 409.824C574.243 408.926 575.904 408.477 577.766 408.477C580.643 408.477 582.967 409.473 584.738 411.465C586.522 413.457 587.414 416.107 587.414 419.414V419.668C587.414 421.725 587.017 423.574 586.223 425.215C585.441 426.842 584.315 428.112 582.844 429.023C581.385 429.935 579.706 430.391 577.805 430.391C574.94 430.391 572.616 429.395 570.832 427.402C569.061 425.41 568.176 422.773 568.176 419.492V419.238ZM571.809 419.668C571.809 422.012 572.349 423.893 573.43 425.312C574.523 426.732 575.982 427.441 577.805 427.441C579.641 427.441 581.099 426.725 582.18 425.293C583.26 423.848 583.801 421.829 583.801 419.238C583.801 416.921 583.247 415.046 582.141 413.613C581.047 412.168 579.589 411.445 577.766 411.445C575.982 411.445 574.543 412.155 573.449 413.574C572.355 414.993 571.809 417.025 571.809 419.668Z" fill="black"/>
<rect id="dziecko" opacity="0.5" x="138" y="392" width="452" height="339" fill="#FF0000"/>
</g>
<defs>
<clipPath id="clip0">
<rect width="117.079" height="74.2552" fill="white" transform="translate(247 257)"/>
</clipPath>
</defs>
</svg>
