<svg width="1025" height="768" viewBox="0 0 1025 768" fill="none" xmlns="http://www.w3.org/2000/svg">
<g id="Frame">
<rect width="1024" height="768" transform="translate(0.800049)" fill="white"/>
<path id="61:1" d="M214.984 236.441H203.051V249H199.301V220.562H216.918V223.648H203.051V233.375H214.984V236.441ZM224.77 249H221.156V227.867H224.77V249ZM220.863 222.262C220.863 221.676 221.039 221.181 221.391 220.777C221.755 220.374 222.289 220.172 222.992 220.172C223.695 220.172 224.229 220.374 224.594 220.777C224.958 221.181 225.141 221.676 225.141 222.262C225.141 222.848 224.958 223.336 224.594 223.727C224.229 224.117 223.695 224.312 222.992 224.312C222.289 224.312 221.755 224.117 221.391 223.727C221.039 223.336 220.863 222.848 220.863 222.262ZM240.785 231.109C240.238 231.018 239.646 230.973 239.008 230.973C236.638 230.973 235.03 231.982 234.184 234V249H230.57V227.867H234.086L234.145 230.309C235.329 228.421 237.009 227.477 239.184 227.477C239.887 227.477 240.421 227.568 240.785 227.75V231.109ZM256.43 243.395C256.43 242.418 256.059 241.663 255.316 241.129C254.587 240.582 253.305 240.113 251.469 239.723C249.646 239.332 248.194 238.863 247.113 238.316C246.046 237.77 245.251 237.118 244.73 236.363C244.223 235.608 243.969 234.71 243.969 233.668C243.969 231.936 244.698 230.471 246.156 229.273C247.628 228.076 249.503 227.477 251.781 227.477C254.177 227.477 256.117 228.095 257.602 229.332C259.099 230.569 259.848 232.151 259.848 234.078H256.215C256.215 233.089 255.792 232.236 254.945 231.52C254.112 230.803 253.057 230.445 251.781 230.445C250.466 230.445 249.438 230.732 248.695 231.305C247.953 231.878 247.582 232.626 247.582 233.551C247.582 234.423 247.927 235.081 248.617 235.523C249.307 235.966 250.551 236.389 252.348 236.793C254.158 237.197 255.622 237.678 256.742 238.238C257.862 238.798 258.689 239.475 259.223 240.27C259.77 241.051 260.043 242.008 260.043 243.141C260.043 245.029 259.288 246.546 257.777 247.691C256.267 248.824 254.307 249.391 251.898 249.391C250.206 249.391 248.708 249.091 247.406 248.492C246.104 247.893 245.082 247.06 244.34 245.992C243.611 244.911 243.246 243.746 243.246 242.496H246.859C246.924 243.707 247.406 244.671 248.305 245.387C249.216 246.09 250.414 246.441 251.898 246.441C253.266 246.441 254.359 246.168 255.18 245.621C256.013 245.061 256.43 244.319 256.43 243.395ZM269.652 222.75V227.867H273.598V230.66H269.652V243.766C269.652 244.612 269.828 245.25 270.18 245.68C270.531 246.096 271.13 246.305 271.977 246.305C272.393 246.305 272.966 246.227 273.695 246.07V249C272.745 249.26 271.82 249.391 270.922 249.391C269.307 249.391 268.09 248.902 267.27 247.926C266.449 246.949 266.039 245.562 266.039 243.766V230.66H262.191V227.867H266.039V222.75H269.652ZM286.801 238.238C286.801 236.168 287.204 234.306 288.012 232.652C288.832 230.999 289.965 229.723 291.41 228.824C292.868 227.926 294.529 227.477 296.391 227.477C299.268 227.477 301.592 228.473 303.363 230.465C305.147 232.457 306.039 235.107 306.039 238.414V238.668C306.039 240.725 305.642 242.574 304.848 244.215C304.066 245.842 302.94 247.112 301.469 248.023C300.01 248.935 298.331 249.391 296.43 249.391C293.565 249.391 291.241 248.395 289.457 246.402C287.686 244.41 286.801 241.773 286.801 238.492V238.238ZM290.434 238.668C290.434 241.012 290.974 242.893 292.055 244.312C293.148 245.732 294.607 246.441 296.43 246.441C298.266 246.441 299.724 245.725 300.805 244.293C301.885 242.848 302.426 240.829 302.426 238.238C302.426 235.921 301.872 234.046 300.766 232.613C299.672 231.168 298.214 230.445 296.391 230.445C294.607 230.445 293.168 231.155 292.074 232.574C290.98 233.993 290.434 236.025 290.434 238.668ZM317.23 244.098L322.465 227.867H326.156L318.578 249H315.824L308.168 227.867H311.859L317.23 244.098ZM338.129 249.391C335.264 249.391 332.934 248.453 331.137 246.578C329.34 244.69 328.441 242.171 328.441 239.02V238.355C328.441 236.259 328.839 234.391 329.633 232.75C330.44 231.096 331.56 229.807 332.992 228.883C334.438 227.945 336 227.477 337.68 227.477C340.427 227.477 342.562 228.382 344.086 230.191C345.609 232.001 346.371 234.592 346.371 237.965V239.469H332.055C332.107 241.552 332.712 243.238 333.871 244.527C335.043 245.803 336.527 246.441 338.324 246.441C339.6 246.441 340.681 246.181 341.566 245.66C342.452 245.139 343.227 244.449 343.891 243.59L346.098 245.309C344.327 248.03 341.671 249.391 338.129 249.391ZM337.68 230.445C336.221 230.445 334.997 230.979 334.008 232.047C333.018 233.102 332.406 234.586 332.172 236.5H342.758V236.227C342.654 234.391 342.159 232.971 341.273 231.969C340.388 230.953 339.19 230.445 337.68 230.445ZM360.785 231.109C360.238 231.018 359.646 230.973 359.008 230.973C356.638 230.973 355.03 231.982 354.184 234V249H350.57V227.867H354.086L354.145 230.309C355.329 228.421 357.009 227.477 359.184 227.477C359.887 227.477 360.421 227.568 360.785 227.75V231.109ZM368.051 249H364.438V219H368.051V249ZM386.898 249C386.69 248.583 386.521 247.841 386.391 246.773C384.711 248.518 382.706 249.391 380.375 249.391C378.292 249.391 376.579 248.805 375.238 247.633C373.91 246.448 373.246 244.951 373.246 243.141C373.246 240.94 374.079 239.234 375.746 238.023C377.426 236.799 379.783 236.188 382.816 236.188H386.332V234.527C386.332 233.264 385.954 232.262 385.199 231.52C384.444 230.764 383.331 230.387 381.859 230.387C380.57 230.387 379.49 230.712 378.617 231.363C377.745 232.014 377.309 232.802 377.309 233.727H373.676C373.676 232.672 374.047 231.656 374.789 230.68C375.544 229.69 376.56 228.909 377.836 228.336C379.125 227.763 380.538 227.477 382.074 227.477C384.509 227.477 386.417 228.089 387.797 229.312C389.177 230.523 389.893 232.197 389.945 234.332V244.059C389.945 245.999 390.193 247.542 390.688 248.688V249H386.898ZM380.902 246.246C382.035 246.246 383.109 245.953 384.125 245.367C385.141 244.781 385.876 244.02 386.332 243.082V238.746H383.5C379.073 238.746 376.859 240.042 376.859 242.633C376.859 243.766 377.237 244.651 377.992 245.289C378.747 245.927 379.717 246.246 380.902 246.246ZM402.211 243.707L407.133 227.867H411L402.504 252.262C401.189 255.777 399.099 257.535 396.234 257.535L395.551 257.477L394.203 257.223V254.293L395.18 254.371C396.404 254.371 397.354 254.124 398.031 253.629C398.721 253.134 399.288 252.229 399.73 250.914L400.531 248.766L392.992 227.867H396.938L402.211 243.707Z" fill="black"/>
<path id="61:2" d="M489.68 236.324C486.464 235.4 484.12 234.267 482.648 232.926C481.19 231.572 480.461 229.905 480.461 227.926C480.461 225.686 481.353 223.837 483.137 222.379C484.934 220.908 487.264 220.172 490.129 220.172C492.082 220.172 493.82 220.549 495.344 221.305C496.88 222.06 498.065 223.102 498.898 224.43C499.745 225.758 500.168 227.21 500.168 228.785H496.398C496.398 227.066 495.852 225.719 494.758 224.742C493.664 223.753 492.121 223.258 490.129 223.258C488.28 223.258 486.835 223.668 485.793 224.488C484.764 225.296 484.25 226.422 484.25 227.867C484.25 229.026 484.738 230.009 485.715 230.816C486.704 231.611 488.378 232.34 490.734 233.004C493.104 233.668 494.953 234.404 496.281 235.211C497.622 236.005 498.612 236.936 499.25 238.004C499.901 239.072 500.227 240.328 500.227 241.773C500.227 244.078 499.328 245.927 497.531 247.32C495.734 248.701 493.332 249.391 490.324 249.391C488.371 249.391 486.548 249.02 484.855 248.277C483.163 247.522 481.854 246.493 480.93 245.191C480.018 243.889 479.562 242.411 479.562 240.758H483.332C483.332 242.477 483.964 243.837 485.227 244.84C486.503 245.829 488.202 246.324 490.324 246.324C492.303 246.324 493.82 245.921 494.875 245.113C495.93 244.306 496.457 243.206 496.457 241.812C496.457 240.419 495.969 239.345 494.992 238.59C494.016 237.822 492.245 237.066 489.68 236.324ZM513.254 249.391C510.389 249.391 508.059 248.453 506.262 246.578C504.465 244.69 503.566 242.171 503.566 239.02V238.355C503.566 236.259 503.964 234.391 504.758 232.75C505.565 231.096 506.685 229.807 508.117 228.883C509.562 227.945 511.125 227.477 512.805 227.477C515.552 227.477 517.688 228.382 519.211 230.191C520.734 232.001 521.496 234.592 521.496 237.965V239.469H507.18C507.232 241.552 507.837 243.238 508.996 244.527C510.168 245.803 511.652 246.441 513.449 246.441C514.725 246.441 515.806 246.181 516.691 245.66C517.577 245.139 518.352 244.449 519.016 243.59L521.223 245.309C519.452 248.03 516.796 249.391 513.254 249.391ZM512.805 230.445C511.346 230.445 510.122 230.979 509.133 232.047C508.143 233.102 507.531 234.586 507.297 236.5H517.883V236.227C517.779 234.391 517.284 232.971 516.398 231.969C515.513 230.953 514.315 230.445 512.805 230.445ZM534.172 246.441C535.461 246.441 536.587 246.051 537.551 245.27C538.514 244.488 539.048 243.512 539.152 242.34H542.57C542.505 243.551 542.089 244.703 541.32 245.797C540.552 246.891 539.523 247.763 538.234 248.414C536.958 249.065 535.604 249.391 534.172 249.391C531.294 249.391 529.003 248.434 527.297 246.52C525.604 244.592 524.758 241.962 524.758 238.629V238.023C524.758 235.966 525.135 234.137 525.891 232.535C526.646 230.934 527.727 229.69 529.133 228.805C530.552 227.919 532.225 227.477 534.152 227.477C536.522 227.477 538.488 228.186 540.051 229.605C541.626 231.025 542.466 232.867 542.57 235.133H539.152C539.048 233.766 538.527 232.646 537.59 231.773C536.665 230.888 535.52 230.445 534.152 230.445C532.316 230.445 530.891 231.109 529.875 232.438C528.872 233.753 528.371 235.66 528.371 238.16V238.844C528.371 241.279 528.872 243.154 529.875 244.469C530.878 245.784 532.31 246.441 534.172 246.441ZM545.676 238.238C545.676 236.168 546.079 234.306 546.887 232.652C547.707 230.999 548.84 229.723 550.285 228.824C551.743 227.926 553.404 227.477 555.266 227.477C558.143 227.477 560.467 228.473 562.238 230.465C564.022 232.457 564.914 235.107 564.914 238.414V238.668C564.914 240.725 564.517 242.574 563.723 244.215C562.941 245.842 561.815 247.112 560.344 248.023C558.885 248.935 557.206 249.391 555.305 249.391C552.44 249.391 550.116 248.395 548.332 246.402C546.561 244.41 545.676 241.773 545.676 238.492V238.238ZM549.309 238.668C549.309 241.012 549.849 242.893 550.93 244.312C552.023 245.732 553.482 246.441 555.305 246.441C557.141 246.441 558.599 245.725 559.68 244.293C560.76 242.848 561.301 240.829 561.301 238.238C561.301 235.921 560.747 234.046 559.641 232.613C558.547 231.168 557.089 230.445 555.266 230.445C553.482 230.445 552.043 231.155 550.949 232.574C549.855 233.993 549.309 236.025 549.309 238.668ZM572.863 227.867L572.98 230.523C574.595 228.492 576.704 227.477 579.309 227.477C583.775 227.477 586.027 229.996 586.066 235.035V249H582.453V235.016C582.44 233.492 582.089 232.366 581.398 231.637C580.721 230.908 579.66 230.543 578.215 230.543C577.043 230.543 576.014 230.855 575.129 231.48C574.243 232.105 573.553 232.926 573.059 233.941V249H569.445V227.867H572.863ZM590.637 238.258C590.637 235.016 591.405 232.411 592.941 230.445C594.478 228.466 596.49 227.477 598.977 227.477C601.451 227.477 603.41 228.323 604.855 230.016V219H608.469V249H605.148L604.973 246.734C603.527 248.505 601.516 249.391 598.938 249.391C596.49 249.391 594.491 248.388 592.941 246.383C591.405 244.378 590.637 241.76 590.637 238.531V238.258ZM594.25 238.668C594.25 241.064 594.745 242.939 595.734 244.293C596.724 245.647 598.091 246.324 599.836 246.324C602.128 246.324 603.801 245.296 604.855 243.238V233.531C603.775 231.539 602.115 230.543 599.875 230.543C598.104 230.543 596.724 231.227 595.734 232.594C594.745 233.961 594.25 235.986 594.25 238.668ZM623.059 238.238C623.059 236.168 623.462 234.306 624.27 232.652C625.09 230.999 626.223 229.723 627.668 228.824C629.126 227.926 630.786 227.477 632.648 227.477C635.526 227.477 637.85 228.473 639.621 230.465C641.405 232.457 642.297 235.107 642.297 238.414V238.668C642.297 240.725 641.9 242.574 641.105 244.215C640.324 245.842 639.198 247.112 637.727 248.023C636.268 248.935 634.589 249.391 632.688 249.391C629.823 249.391 627.499 248.395 625.715 246.402C623.944 244.41 623.059 241.773 623.059 238.492V238.238ZM626.691 238.668C626.691 241.012 627.232 242.893 628.312 244.312C629.406 245.732 630.865 246.441 632.688 246.441C634.523 246.441 635.982 245.725 637.062 244.293C638.143 242.848 638.684 240.829 638.684 238.238C638.684 235.921 638.13 234.046 637.023 232.613C635.93 231.168 634.471 230.445 632.648 230.445C630.865 230.445 629.426 231.155 628.332 232.574C627.238 233.993 626.691 236.025 626.691 238.668ZM653.488 244.098L658.723 227.867H662.414L654.836 249H652.082L644.426 227.867H648.117L653.488 244.098ZM674.387 249.391C671.522 249.391 669.191 248.453 667.395 246.578C665.598 244.69 664.699 242.171 664.699 239.02V238.355C664.699 236.259 665.096 234.391 665.891 232.75C666.698 231.096 667.818 229.807 669.25 228.883C670.695 227.945 672.258 227.477 673.938 227.477C676.685 227.477 678.82 228.382 680.344 230.191C681.867 232.001 682.629 234.592 682.629 237.965V239.469H668.312C668.365 241.552 668.97 243.238 670.129 244.527C671.301 245.803 672.785 246.441 674.582 246.441C675.858 246.441 676.939 246.181 677.824 245.66C678.71 245.139 679.484 244.449 680.148 243.59L682.355 245.309C680.585 248.03 677.928 249.391 674.387 249.391ZM673.938 230.445C672.479 230.445 671.255 230.979 670.266 232.047C669.276 233.102 668.664 234.586 668.43 236.5H679.016V236.227C678.911 234.391 678.417 232.971 677.531 231.969C676.646 230.953 675.448 230.445 673.938 230.445ZM697.043 231.109C696.496 231.018 695.904 230.973 695.266 230.973C692.896 230.973 691.288 231.982 690.441 234V249H686.828V227.867H690.344L690.402 230.309C691.587 228.421 693.267 227.477 695.441 227.477C696.145 227.477 696.678 227.568 697.043 227.75V231.109ZM704.309 249H700.695V219H704.309V249ZM723.156 249C722.948 248.583 722.779 247.841 722.648 246.773C720.969 248.518 718.964 249.391 716.633 249.391C714.549 249.391 712.837 248.805 711.496 247.633C710.168 246.448 709.504 244.951 709.504 243.141C709.504 240.94 710.337 239.234 712.004 238.023C713.684 236.799 716.04 236.188 719.074 236.188H722.59V234.527C722.59 233.264 722.212 232.262 721.457 231.52C720.702 230.764 719.589 230.387 718.117 230.387C716.828 230.387 715.747 230.712 714.875 231.363C714.003 232.014 713.566 232.802 713.566 233.727H709.934C709.934 232.672 710.305 231.656 711.047 230.68C711.802 229.69 712.818 228.909 714.094 228.336C715.383 227.763 716.796 227.477 718.332 227.477C720.767 227.477 722.674 228.089 724.055 229.312C725.435 230.523 726.151 232.197 726.203 234.332V244.059C726.203 245.999 726.451 247.542 726.945 248.688V249H723.156ZM717.16 246.246C718.293 246.246 719.367 245.953 720.383 245.367C721.398 244.781 722.134 244.02 722.59 243.082V238.746H719.758C715.331 238.746 713.117 240.042 713.117 242.633C713.117 243.766 713.495 244.651 714.25 245.289C715.005 245.927 715.975 246.246 717.16 246.246ZM738.469 243.707L743.391 227.867H747.258L738.762 252.262C737.447 255.777 735.357 257.535 732.492 257.535L731.809 257.477L730.461 257.223V254.293L731.438 254.371C732.661 254.371 733.612 254.124 734.289 253.629C734.979 253.134 735.546 252.229 735.988 250.914L736.789 248.766L729.25 227.867H733.195L738.469 243.707Z" fill="black"/>
<rect id="61:3" opacity="0.5" x="513" y="282" width="200" height="150" fill="#FF0000"/>
<rect id="61:5" opacity="0.5" x="212" y="282" width="200" height="150" fill="#FF0000"/>
</g>
</svg>
