<svg width="1280" height="960" viewBox="0 0 1280 960" fill="none" xmlns="http://www.w3.org/2000/svg">
<g id="String for list of  vectors">
<rect width="1280" height="960" fill="white"/>
<path id="We represent a list of vectors as a string" d="M387.92 487.6C387.92 487.96 388.48 488.24 388.96 488.32C391 488.76 391.12 489.64 392.16 491.56C393.6 494.36 397.36 503.08 398.84 506.68C400.4 510.36 400.92 511.92 401.32 513.04C401.56 513.64 401.72 513.8 402.04 513.8C402.28 513.8 402.8 513.32 402.96 512.88C404 509.84 406.36 505.12 407.6 502.52C407.68 502.4 407.84 502.48 407.92 502.6C409.36 505.96 411.6 510.6 412.2 512.8C412.4 513.48 412.72 513.64 412.92 513.64C413.28 513.64 413.68 513.04 413.84 512.64C414.92 509.96 415.16 509.4 417.88 503.2C420.52 497.24 423.16 492.32 423.64 491.36C424.76 489.2 425.52 488.64 427.08 488.32C427.8 488.16 428.08 487.92 428.08 487.6C428.08 487.32 427.72 487.16 427.04 487.16C425.8 487.16 424.44 487.28 423.24 487.28C422.48 487.28 421.44 487.2 420.52 487.2C419.84 487.2 419.48 487.32 419.48 487.68C419.48 487.92 419.88 488.16 420.4 488.32C422.24 488.84 422.44 489.6 421.68 491.44C419.32 496.8 416.08 504.08 414.36 507.76C414.16 508.12 414 508 413.92 507.76C413.16 506.36 411.36 502.44 409.92 499.04C409.84 498.96 409.76 498.48 409.8 498.36C412.12 493.8 413.2 491.92 413.6 491.24C414.72 489.24 415.28 488.72 416.72 488.36C417.52 488.16 417.84 488 417.84 487.6C417.84 487.32 417.48 487.2 416.96 487.2C416.28 487.2 414.88 487.28 413.68 487.28C412.36 487.28 411.6 487.2 410.88 487.2C409.96 487.2 409.72 487.4 409.72 487.68C409.72 487.84 410.08 488.16 410.56 488.28C412.2 488.68 412.8 489.16 411.8 491.36C411 493.2 410.24 494.88 409.28 496.84C409.2 496.92 409 496.96 408.96 496.84C407.48 493.56 406.44 491.2 406.08 490.28C405.52 489 405.6 488.68 407.32 488.36C407.96 488.24 408.28 487.96 408.28 487.6C408.28 487.32 407.8 487.16 407.28 487.16C406.88 487.16 405.32 487.28 403.48 487.28C402.2 487.28 400.72 487.24 400.2 487.24C399.6 487.24 399.04 487.36 399.04 487.68C399.04 487.92 399.32 488.2 400.04 488.4C401.6 488.84 401.84 489.16 403 491.6C403.48 492.64 405.32 496.76 406.84 500.4C406.96 500.6 406.92 500.88 406.88 500.96C405.56 503.92 403.76 507.52 403.44 508.04C403.36 508.16 403.16 508.12 403.12 508C400.4 502.16 396.08 491.96 395.28 490C395.04 489.32 395.16 488.76 396.52 488.4C397.36 488.16 397.6 487.92 397.6 487.64C397.6 487.36 397.36 487.16 396.6 487.16C396.24 487.16 394.16 487.28 393.24 487.28C391.6 487.28 390.72 487.16 388.96 487.16C388.32 487.16 387.92 487.4 387.92 487.6ZM431.808 496.88C431.128 496.88 429.808 497.12 428.768 497.6C425.648 499.04 423.968 502.24 423.968 505.44C423.968 510.12 426.848 513.4 431.168 513.4C433.448 513.4 435.568 512.44 436.968 510.4C437.088 510.2 437.248 509.76 437.248 509.44C437.248 509.24 437.168 508.96 436.928 508.96C436.768 508.96 436.568 509.2 436.408 509.44C435.728 510.44 434.528 510.88 432.768 510.88C430.848 510.88 429.168 509.88 428.288 508.68C427.408 507.52 426.768 505.68 426.768 504.12C426.768 503.72 426.848 503.04 426.968 502.72C427.008 502.6 427.168 502.4 427.288 502.4C429.128 502.44 435.968 502.44 436.408 502.44C436.848 502.44 437.168 502 437.168 501.76C437.168 500.36 436.648 499.24 435.768 498.4C434.768 497.4 433.208 496.88 431.808 496.88ZM431.408 497.92C432.848 497.92 434.048 499.2 434.048 500.32C434.048 501.12 433.648 501.32 432.688 501.32C430.688 501.36 428.568 501.36 427.528 501.32C427.448 501.32 427.288 501.08 427.368 500.88C428.088 499.04 429.608 497.92 431.408 497.92ZM448.321 498.92C448.321 499.08 448.721 499.24 449.681 500C450.121 500.28 450.121 500.8 450.121 501.2V508.84C450.081 511.24 449.961 511.64 448.401 512.16C448.081 512.28 447.601 512.44 447.601 512.68C447.601 513 448.001 513.16 448.441 513.16C449.401 513.16 449.881 513 451.081 513C453.401 513 454.801 513.2 455.801 513.2C456.401 513.2 456.761 513.04 456.761 512.84C456.761 512.68 456.681 512.4 456.041 512.2L454.201 511.72C453.481 511.6 453.241 510.84 453.161 509.68C453.121 509.08 452.921 501.84 452.921 501.04C452.921 500.84 453.041 500.48 453.321 500.16C453.721 499.72 454.401 499.6 455.081 499.6C455.881 499.6 456.841 500.08 457.281 500.48C457.401 500.56 457.761 500.64 457.841 500.6C458.081 500.48 459.041 499.4 459.481 498.76C459.601 498.56 459.721 498.28 459.721 498.2C459.721 497.84 459.361 496.84 457.721 496.84C456.481 496.84 454.721 497.84 453.161 499.32C453.081 499.36 452.881 499.32 452.881 499.16C452.881 498.4 452.961 497.68 452.961 496.96C452.961 496.84 452.761 496.48 452.601 496.48C452.481 496.48 452.281 496.64 451.801 496.96C451.401 497.2 450.161 497.8 448.841 498.24C448.401 498.4 448.321 498.8 448.321 498.92ZM468.723 496.88C468.043 496.88 466.723 497.12 465.683 497.6C462.563 499.04 460.882 502.24 460.882 505.44C460.882 510.12 463.763 513.4 468.083 513.4C470.363 513.4 472.483 512.44 473.883 510.4C474.003 510.2 474.163 509.76 474.163 509.44C474.163 509.24 474.083 508.96 473.843 508.96C473.683 508.96 473.483 509.2 473.323 509.44C472.643 510.44 471.443 510.88 469.683 510.88C467.763 510.88 466.083 509.88 465.203 508.68C464.323 507.52 463.683 505.68 463.683 504.12C463.683 503.72 463.763 503.04 463.883 502.72C463.923 502.6 464.083 502.4 464.203 502.4C466.043 502.44 472.883 502.44 473.323 502.44C473.763 502.44 474.083 502 474.083 501.76C474.083 500.36 473.563 499.24 472.683 498.4C471.683 497.4 470.122 496.88 468.723 496.88ZM468.323 497.92C469.763 497.92 470.963 499.2 470.963 500.32C470.963 501.12 470.563 501.32 469.603 501.32C467.603 501.36 465.483 501.36 464.443 501.32C464.363 501.32 464.203 501.08 464.283 500.88C465.003 499.04 466.523 497.92 468.323 497.92ZM487.115 496.92C485.995 496.92 484.795 497.12 484.155 497.4C483.595 497.64 482.515 498.2 481.555 498.84C481.395 498.96 481.235 498.8 481.235 498.64C481.275 498 481.275 497.24 481.355 496.6C481.355 496.44 481.035 496.12 480.915 496.12C480.835 496.12 480.515 496.28 480.115 496.48C479.435 496.88 477.675 497.72 477.075 497.88C476.915 497.92 476.515 498.4 476.515 498.6C476.515 498.8 476.995 499.16 477.995 499.88C478.115 499.96 478.315 500.24 478.315 501.92C478.355 504.28 478.315 507.28 478.315 510C478.315 514.08 478.275 517.36 478.195 518.68C478.035 521.56 477.835 521.92 475.715 522.36C475.075 522.48 474.795 522.8 474.795 522.96C474.795 523.32 475.395 523.48 475.995 523.48C477.195 523.48 477.595 523.36 478.555 523.36C480.115 523.36 482.435 523.56 483.315 523.56C483.835 523.56 484.355 523.36 484.355 523.04C484.355 522.76 484.035 522.56 483.235 522.32C481.715 521.84 481.435 521.36 481.315 520.32C481.195 519.2 481.155 517.56 481.155 513.68C481.155 513.48 481.315 513.16 481.435 513.16C481.955 513.24 482.755 513.32 483.675 513.32C485.475 513.32 487.835 513 490.035 511.28C492.595 509.36 493.435 506.4 493.435 504.4C493.435 502.2 492.515 500.24 491.555 499.16C490.355 497.84 488.555 496.92 487.115 496.92ZM485.035 498.96C485.955 498.96 487.595 499.52 488.635 500.6C490.275 502.4 490.275 504.56 490.275 505.48C490.275 506.68 489.555 509.68 487.555 511.36C486.995 511.84 486.155 512.04 485.715 512.04C484.715 512.04 482.795 511.36 481.715 509.84C481.435 509.48 481.275 508.8 481.195 508.08C481.035 506.44 481.075 502.08 481.275 500.88C481.395 500.16 481.595 499.84 481.795 499.68C482.235 499.32 483.355 498.96 485.035 498.96ZM496.603 498.92C496.603 499.08 497.003 499.24 497.963 500C498.403 500.28 498.403 500.8 498.403 501.2V508.84C498.363 511.24 498.243 511.64 496.683 512.16C496.363 512.28 495.882 512.44 495.882 512.68C495.882 513 496.283 513.16 496.723 513.16C497.683 513.16 498.163 513 499.363 513C501.683 513 503.083 513.2 504.083 513.2C504.683 513.2 505.043 513.04 505.043 512.84C505.043 512.68 504.963 512.4 504.323 512.2L502.483 511.72C501.763 511.6 501.523 510.84 501.443 509.68C501.403 509.08 501.203 501.84 501.203 501.04C501.203 500.84 501.323 500.48 501.603 500.16C502.003 499.72 502.683 499.6 503.363 499.6C504.163 499.6 505.122 500.08 505.563 500.48C505.683 500.56 506.043 500.64 506.123 500.6C506.363 500.48 507.323 499.4 507.763 498.76C507.883 498.56 508.003 498.28 508.003 498.2C508.003 497.84 507.643 496.84 506.003 496.84C504.763 496.84 503.003 497.84 501.443 499.32C501.363 499.36 501.163 499.32 501.163 499.16C501.163 498.4 501.243 497.68 501.243 496.96C501.243 496.84 501.043 496.48 500.883 496.48C500.763 496.48 500.563 496.64 500.083 496.96C499.683 497.2 498.443 497.8 497.123 498.24C496.683 498.4 496.603 498.8 496.603 498.92ZM517.004 496.88C516.324 496.88 515.004 497.12 513.964 497.6C510.844 499.04 509.164 502.24 509.164 505.44C509.164 510.12 512.044 513.4 516.364 513.4C518.644 513.4 520.764 512.44 522.164 510.4C522.284 510.2 522.444 509.76 522.444 509.44C522.444 509.24 522.364 508.96 522.124 508.96C521.964 508.96 521.764 509.2 521.604 509.44C520.924 510.44 519.724 510.88 517.964 510.88C516.044 510.88 514.364 509.88 513.484 508.68C512.604 507.52 511.964 505.68 511.964 504.12C511.964 503.72 512.044 503.04 512.164 502.72C512.204 502.6 512.364 502.4 512.484 502.4C514.324 502.44 521.164 502.44 521.604 502.44C522.044 502.44 522.364 502 522.364 501.76C522.364 500.36 521.844 499.24 520.964 498.4C519.964 497.4 518.404 496.88 517.004 496.88ZM516.604 497.92C518.044 497.92 519.244 499.2 519.244 500.32C519.244 501.12 518.844 501.32 517.884 501.32C515.884 501.36 513.764 501.36 512.724 501.32C512.644 501.32 512.484 501.08 512.564 500.88C513.284 499.04 514.804 497.92 516.604 497.92ZM530.908 496.84C529.548 496.84 528.468 497.2 527.708 497.68C526.188 498.6 525.508 499.92 525.508 501.28C525.508 503.16 526.788 504.56 527.988 505.32C529.228 506.12 529.468 506.32 530.428 507C531.668 507.76 532.228 508.6 532.228 509.68C532.228 510.44 531.908 511.4 531.308 511.88C530.868 512.2 530.228 512.48 529.708 512.48C528.268 512.48 527.188 511.68 526.068 509.64C525.828 509.2 525.548 508.72 525.228 508.72C524.988 508.72 524.908 509.12 524.908 509.56C524.908 510.72 525.388 512.4 525.508 512.6C526.188 513.16 528.188 513.48 529.388 513.48C530.628 513.48 532.028 513.04 532.748 512.56C533.748 511.84 535.068 510.48 535.068 508.64C535.068 506.84 534.188 505.48 531.948 504.16C529.268 502.68 527.988 501.64 527.988 500.28C527.988 499.44 528.748 497.8 530.388 497.8C531.708 497.8 532.708 498.6 533.588 500.48C533.788 500.92 534.028 501.16 534.188 501.16C534.508 501.16 534.668 500.8 534.668 500.44C534.668 500.16 534.548 498.8 534.548 498.08C534.548 497.84 534.308 497.56 534.228 497.52C534.148 497.48 533.388 497.16 532.948 497.08C532.508 496.96 531.668 496.84 530.908 496.84ZM545.519 496.88C544.839 496.88 543.519 497.12 542.479 497.6C539.359 499.04 537.679 502.24 537.679 505.44C537.679 510.12 540.559 513.4 544.879 513.4C547.159 513.4 549.279 512.44 550.679 510.4C550.799 510.2 550.959 509.76 550.959 509.44C550.959 509.24 550.879 508.96 550.639 508.96C550.479 508.96 550.279 509.2 550.119 509.44C549.439 510.44 548.239 510.88 546.479 510.88C544.559 510.88 542.879 509.88 541.999 508.68C541.119 507.52 540.479 505.68 540.479 504.12C540.479 503.72 540.559 503.04 540.679 502.72C540.719 502.6 540.879 502.4 540.999 502.4C542.839 502.44 549.679 502.44 550.119 502.44C550.559 502.44 550.879 502 550.879 501.76C550.879 500.36 550.359 499.24 549.479 498.4C548.479 497.4 546.919 496.88 545.519 496.88ZM545.119 497.92C546.559 497.92 547.759 499.2 547.759 500.32C547.759 501.12 547.359 501.32 546.399 501.32C544.399 501.36 542.279 501.36 541.239 501.32C541.159 501.32 540.999 501.08 541.079 500.88C541.799 499.04 543.319 497.92 545.119 497.92ZM553.753 498.76C553.753 498.88 553.993 499.08 554.513 499.44C555.393 500.16 555.473 500.56 555.473 501C555.473 505.08 555.393 508.56 555.273 509.76C555.153 511.2 554.913 511.6 553.593 512C553.153 512.12 552.753 512.32 552.753 512.6C552.753 512.96 553.193 513.12 553.793 513.12C554.473 513.12 555.633 513 557.113 513C557.953 513 559.073 513.04 559.553 513.04C560.113 513.04 560.553 512.84 560.553 512.56C560.553 512.32 560.233 512.08 559.833 511.96C558.553 511.6 558.393 511.28 558.353 510.72C558.313 510.24 558.313 501.64 558.313 501.12C558.313 500.76 558.593 500.28 558.713 500.16C559.473 499.48 560.513 498.88 562.273 498.88C563.193 498.88 564.393 499.32 564.833 499.64C565.313 500 566.033 501.16 566.033 502.6C566.033 503.76 565.993 508.6 565.913 509.92C565.833 511.24 565.633 511.56 564.673 511.92C564.193 512.08 563.753 512.32 563.753 512.6C563.753 512.92 564.313 513.08 564.673 513.08C565.193 513.08 566.433 513 567.433 513C568.553 513 569.473 513.08 570.393 513.08C571.033 513.08 571.593 512.92 571.593 512.64C571.593 512.36 571.353 512.16 570.593 511.96C569.593 511.68 569.193 511.16 569.113 510.56C569.073 510 568.993 504.04 568.993 503.28C568.993 501.28 568.473 499.44 567.593 498.4C567.033 497.76 565.913 496.88 563.953 496.88C562.273 496.88 560.193 498 558.593 499.08C558.553 499.08 558.353 499.16 558.353 498.96C558.353 498.6 558.513 497.64 558.513 496.96C558.513 496.8 558.313 496.36 558.113 496.36C557.913 496.36 557.553 496.56 557.153 496.8C556.593 497.2 555.153 497.72 554.473 497.96C554.193 498.08 553.753 498.48 553.753 498.76ZM578.544 497.4C578.384 497.4 578.224 497.2 578.224 497.08V495.2C578.224 495.12 577.864 494.76 577.664 494.76C577.504 494.76 577.224 495.08 576.744 495.64C576.184 496.32 574.944 497.28 573.544 498.4C573.424 498.52 573.304 498.68 573.304 498.84C573.304 498.96 573.544 499.16 573.864 499.28C574.664 499.52 575.384 499.8 575.384 500.08C575.384 501.48 575.224 507.48 575.224 508.96C575.224 510.08 575.304 510.92 575.744 511.6C576.224 512.48 577.624 513.48 579.264 513.48C581.064 513.48 582.464 512.76 583.544 511.72C583.824 511.44 584.104 511.04 584.104 510.72C584.104 510.36 583.904 510.28 583.864 510.28C583.704 510.28 583.624 510.32 583.264 510.52C582.664 510.88 581.824 511.12 581.304 511.12C580.464 511.12 579.624 511.04 578.864 510.36C578.424 509.92 578.184 509.4 578.184 508.4C578.184 506.48 578.224 500.6 578.264 499.8C578.264 499.72 578.424 499.52 578.624 499.52H582.984C583.264 499.52 584.024 499.44 584.024 499.08C584.024 498.56 583.904 497.44 583.904 497.56C583.904 497.44 583.504 497.24 583.464 497.24C583.304 497.24 579.424 497.4 578.544 497.4ZM601.164 496.84C600.404 496.84 598.604 497.52 597.444 498.36C595.564 499.6 594.444 500.72 594.444 501.88C594.444 502.08 594.684 502.4 594.924 502.4C595.124 502.4 597.124 501.4 597.524 501.08C597.604 501 597.764 500.76 597.764 500.64C597.684 499.84 597.804 499.12 598.044 499C598.324 498.8 598.844 498.56 599.684 498.56C601.644 498.56 602.804 500.24 602.804 501.24C602.804 501.72 602.764 504.16 602.724 504.52C602.724 504.76 602.484 504.96 601.564 505.24C600.684 505.52 597.484 506.4 596.884 506.64C596.284 506.92 595.684 507.12 595.284 507.64C594.844 508.2 594.524 508.96 594.524 509.68C594.524 511.68 595.884 513.4 597.284 513.4C597.484 513.4 598.444 513.32 598.884 513.16C599.284 513.04 601.004 512.36 602.484 511.32C602.564 511.28 602.724 511.44 602.724 511.48C603.204 512.96 604.364 513.48 605.284 513.48C607.084 513.48 608.884 511.76 608.884 511C608.884 510.96 608.884 510.72 608.764 510.6C608.684 510.48 608.644 510.4 608.524 510.48C608.084 510.8 607.164 511.08 607.004 511.08C606.684 511.08 605.404 510.92 605.404 509.08C605.404 508.64 605.564 503.6 605.564 502.04C605.564 500.36 605.364 499.56 604.764 498.72C604.164 497.84 603.164 496.84 601.164 496.84ZM599.964 511.32C599.124 511.32 597.444 510.68 597.444 508.92C597.444 507.96 597.844 507.68 598.244 507.4C599.324 506.88 601.244 506.2 602.364 506.2C602.524 506.2 602.684 506.4 602.684 506.52C602.684 507.32 602.684 508.68 602.604 509.64C602.604 509.72 602.364 510.48 602.124 510.64C601.364 511.04 600.564 511.32 599.964 511.32ZM618.351 486.6C618.351 486.76 618.471 486.88 619.151 487.36C620.071 487.92 620.071 488.16 620.111 488.48C620.231 489.56 620.231 493.88 620.231 496.84C620.231 503.16 620.111 507.36 619.991 509C619.831 511 619.751 511.72 617.911 512.12C617.471 512.2 617.031 512.4 617.031 512.68C617.031 513 617.351 513.12 618.151 513.12C618.991 513.12 620.751 513 621.671 513C622.391 513 624.111 513.12 625.071 513.12C625.551 513.12 626.111 512.96 626.111 512.68C626.111 512.44 625.791 512.24 625.191 512.08C623.471 511.6 623.311 511.12 623.151 510.32C622.951 509.24 623.031 501.6 623.031 495.76C623.031 490.4 623.271 485.88 623.391 484.88C623.391 484.72 623.151 484.4 623.031 484.48C621.951 485.16 620.751 485.4 618.911 486.04C618.471 486.16 618.351 486.44 618.351 486.6ZM632.231 513C633.071 513 635.071 513.12 635.351 513.12C635.791 513.12 636.271 512.96 636.271 512.72C636.271 512.44 636.031 512.24 635.391 512.04C634.391 511.72 633.511 511.64 633.471 510.36C633.431 508.96 633.391 507.28 633.391 505.04C633.391 502.76 633.631 497.56 633.631 497.12C633.631 497.08 633.431 496.68 633.271 496.68C632.671 496.84 630.791 497.72 629.311 498.04C628.871 498.12 628.511 498.44 628.511 498.72C628.511 498.88 628.591 499 628.831 499.16C629.991 500 630.431 500.32 630.471 500.6C630.551 501.08 630.511 505.64 630.511 506.84C630.511 508 630.471 510.4 630.351 510.96C630.271 511.36 629.671 511.84 628.751 512.08C628.071 512.28 627.791 512.48 627.791 512.72C627.791 513 628.191 513.16 628.831 513.16C629.511 513.16 630.911 513 632.231 513ZM632.151 488.72C631.591 488.72 630.991 488.88 630.591 489.24C630.271 489.68 630.111 490.32 630.111 490.68C630.111 491.36 630.391 491.8 630.711 492.16C631.071 492.48 631.711 492.64 631.991 492.64C632.791 492.64 633.911 491.76 633.911 490.68C633.911 489.96 633.231 488.72 632.151 488.72ZM644.228 496.84C642.868 496.84 641.788 497.2 641.028 497.68C639.508 498.6 638.828 499.92 638.828 501.28C638.828 503.16 640.108 504.56 641.308 505.32C642.548 506.12 642.788 506.32 643.748 507C644.988 507.76 645.548 508.6 645.548 509.68C645.548 510.44 645.228 511.4 644.628 511.88C644.188 512.2 643.548 512.48 643.028 512.48C641.588 512.48 640.508 511.68 639.388 509.64C639.148 509.2 638.868 508.72 638.548 508.72C638.308 508.72 638.228 509.12 638.228 509.56C638.228 510.72 638.708 512.4 638.828 512.6C639.508 513.16 641.508 513.48 642.708 513.48C643.948 513.48 645.348 513.04 646.068 512.56C647.068 511.84 648.388 510.48 648.388 508.64C648.388 506.84 647.508 505.48 645.268 504.16C642.588 502.68 641.308 501.64 641.308 500.28C641.308 499.44 642.068 497.8 643.708 497.8C645.028 497.8 646.028 498.6 646.908 500.48C647.108 500.92 647.348 501.16 647.508 501.16C647.828 501.16 647.988 500.8 647.988 500.44C647.988 500.16 647.868 498.8 647.868 498.08C647.868 497.84 647.628 497.56 647.548 497.52C647.468 497.48 646.708 497.16 646.268 497.08C645.828 496.96 644.988 496.84 644.228 496.84ZM656.005 497.4C655.845 497.4 655.685 497.2 655.685 497.08V495.2C655.685 495.12 655.325 494.76 655.125 494.76C654.965 494.76 654.685 495.08 654.205 495.64C653.645 496.32 652.405 497.28 651.005 498.4C650.885 498.52 650.765 498.68 650.765 498.84C650.765 498.96 651.005 499.16 651.325 499.28C652.125 499.52 652.845 499.8 652.845 500.08C652.845 501.48 652.685 507.48 652.685 508.96C652.685 510.08 652.765 510.92 653.205 511.6C653.685 512.48 655.085 513.48 656.725 513.48C658.525 513.48 659.925 512.76 661.005 511.72C661.285 511.44 661.565 511.04 661.565 510.72C661.565 510.36 661.365 510.28 661.325 510.28C661.165 510.28 661.085 510.32 660.725 510.52C660.125 510.88 659.285 511.12 658.765 511.12C657.925 511.12 657.085 511.04 656.325 510.36C655.885 509.92 655.645 509.4 655.645 508.4C655.645 506.48 655.685 500.6 655.725 499.8C655.725 499.72 655.885 499.52 656.085 499.52H660.445C660.725 499.52 661.485 499.44 661.485 499.08C661.485 498.56 661.365 497.44 661.365 497.56C661.365 497.44 660.965 497.24 660.925 497.24C660.765 497.24 656.885 497.4 656.005 497.4ZM680.305 496.84C677.625 496.84 675.625 497.96 674.385 499.04C672.865 500.32 671.585 502.24 671.585 505.28C671.585 507.28 672.825 510 674.545 511.4C676.025 512.64 678.025 513.48 679.865 513.48C681.665 513.48 683.225 513.04 684.825 511.88C686.305 510.92 688.305 508.32 688.305 505C688.305 499.96 684.265 496.84 680.305 496.84ZM679.545 498.04C680.585 498.04 682.025 498.64 682.905 499.6C684.425 501.36 684.905 503.64 684.905 505.72C684.905 507.44 684.105 509.92 683.105 511C681.985 512.12 681.105 512.32 680.665 512.32C678.745 512.32 676.465 510.88 675.465 507.88C675.145 506.88 674.985 505.64 674.985 504.32C674.985 502.24 675.905 500.16 676.945 499.2C677.785 498.48 678.705 498.04 679.545 498.04ZM696.562 497.4C696.442 497.4 696.322 497.2 696.322 497.04C696.322 491.8 696.682 489.64 697.642 487.96C698.362 486.8 699.162 486.32 700.122 486.32C701.162 486.32 702.162 486.88 702.922 487.56C703.482 488.12 703.722 488.36 704.002 488.36C704.242 488.36 704.522 488.32 704.722 488.24C705.282 488.04 705.802 487.12 705.802 486.56C705.802 486.08 705.522 485.52 705.122 485.2C704.482 484.68 703.402 484.44 702.562 484.44C701.042 484.44 699.602 484.88 698.002 486.08C696.242 487.36 695.242 488.8 694.402 490.8C693.682 492.52 693.482 494.36 693.402 496.76C693.402 496.96 693.162 497.2 692.882 497.44C691.962 498.16 690.962 498.6 690.922 498.76C690.802 499.04 691.082 499.44 691.282 499.44C691.722 499.36 692.562 499.36 692.962 499.36C693.122 499.36 693.362 499.48 693.362 500.84C693.362 503 693.322 507.8 693.282 509.44C693.242 511.24 693.202 511.64 691.482 512.12C691.042 512.28 690.642 512.56 690.642 512.76C690.642 513.04 691.082 513.2 691.642 513.2C692.042 513.2 694.202 513 695.642 513C696.642 513 698.482 513.08 698.962 513.08C699.442 513.08 700.002 513 700.002 512.6C700.002 512.44 699.762 512.12 699.082 512C696.842 511.64 696.562 511.28 696.402 509.88C696.322 509.2 696.202 500.44 696.282 499.64C696.282 499.56 696.482 499.32 696.562 499.32C697.002 499.32 700.962 499.44 701.242 499.44C701.442 499.44 701.842 499.16 701.842 499.04C701.842 498.2 701.562 497.36 701.282 497.36C701.122 497.36 699.002 497.4 696.562 497.4ZM709.008 497.64C709.008 497.88 709.168 498.04 709.768 498.24C710.768 498.52 711.168 499.04 711.448 499.56C712.528 501.48 714.648 506.4 715.608 508.96C716.528 511.28 716.608 511.72 717.048 513.04C717.168 513.48 717.408 513.76 717.568 513.76C717.888 513.76 718.328 513.36 718.528 512.72C719.208 510.6 719.208 510.2 720.328 507.36C721.528 504.56 723.048 500.68 723.608 499.8C724.208 499.08 724.648 498.6 725.608 498.24C726.208 498 726.448 497.88 726.448 497.64C726.448 497.4 726.048 497.2 725.648 497.2C724.888 497.2 723.648 497.4 722.928 497.4C721.928 497.4 721.568 497.28 720.768 497.28C720.248 497.28 719.968 497.48 719.968 497.72C719.968 497.96 720.288 498.12 720.608 498.24C721.808 498.68 722.168 498.92 721.848 499.96C721.488 501.2 719.328 506.76 718.808 508C718.728 508.16 718.568 508.28 718.488 508.16C718.208 507.92 716.088 503.16 714.928 499.72C714.768 499.24 714.648 498.68 715.808 498.36C716.328 498.2 716.688 498.04 716.688 497.76C716.688 497.48 716.368 497.32 715.768 497.32C715.328 497.32 714.328 497.4 713.288 497.4C712.848 497.4 710.688 497.2 709.968 497.2C709.608 497.2 709.008 497.36 709.008 497.64ZM735.051 496.88C734.371 496.88 733.051 497.12 732.011 497.6C728.891 499.04 727.211 502.24 727.211 505.44C727.211 510.12 730.091 513.4 734.411 513.4C736.691 513.4 738.811 512.44 740.211 510.4C740.331 510.2 740.491 509.76 740.491 509.44C740.491 509.24 740.411 508.96 740.171 508.96C740.011 508.96 739.811 509.2 739.651 509.44C738.971 510.44 737.771 510.88 736.011 510.88C734.091 510.88 732.411 509.88 731.531 508.68C730.651 507.52 730.011 505.68 730.011 504.12C730.011 503.72 730.091 503.04 730.211 502.72C730.251 502.6 730.411 502.4 730.531 502.4C732.371 502.44 739.211 502.44 739.651 502.44C740.091 502.44 740.411 502 740.411 501.76C740.411 500.36 739.891 499.24 739.011 498.4C738.011 497.4 736.451 496.88 735.051 496.88ZM734.651 497.92C736.091 497.92 737.291 499.2 737.291 500.32C737.291 501.12 736.891 501.32 735.931 501.32C733.931 501.36 731.811 501.36 730.771 501.32C730.691 501.32 730.531 501.08 730.611 500.88C731.331 499.04 732.851 497.92 734.651 497.92ZM752.463 496.96C751.383 496.96 748.783 497.52 747.223 498.64C744.903 500.2 743.343 502.64 743.343 505.56C743.343 507.24 743.903 509.12 744.583 510.24C745.863 512.12 747.983 513.44 750.503 513.44C752.583 513.44 754.863 512.52 756.263 510.96C756.583 510.64 756.783 510.24 756.783 509.8C756.783 509.6 756.463 509.48 756.023 509.8C754.983 510.52 753.943 511 752.463 511C750.383 511 748.423 510 747.423 508.32C747.263 508.08 746.383 506.64 746.383 504.32C746.383 502.56 746.983 500.92 748.063 499.72C748.703 498.92 749.903 498.36 750.543 498.36C751.903 498.36 752.583 498.96 753.903 499.92C754.543 500.36 755.223 500.68 755.463 500.68C755.623 500.68 756.783 499.72 756.783 499.08C756.783 498.84 756.583 498.16 756.183 497.88C755.423 497.28 753.663 496.96 752.463 496.96ZM764.287 497.4C764.127 497.4 763.967 497.2 763.967 497.08V495.2C763.967 495.12 763.607 494.76 763.407 494.76C763.247 494.76 762.967 495.08 762.487 495.64C761.927 496.32 760.687 497.28 759.287 498.4C759.167 498.52 759.047 498.68 759.047 498.84C759.047 498.96 759.287 499.16 759.607 499.28C760.407 499.52 761.127 499.8 761.127 500.08C761.127 501.48 760.967 507.48 760.967 508.96C760.967 510.08 761.047 510.92 761.487 511.6C761.967 512.48 763.367 513.48 765.007 513.48C766.807 513.48 768.207 512.76 769.287 511.72C769.567 511.44 769.847 511.04 769.847 510.72C769.847 510.36 769.647 510.28 769.607 510.28C769.447 510.28 769.367 510.32 769.007 510.52C768.407 510.88 767.567 511.12 767.047 511.12C766.207 511.12 765.367 511.04 764.607 510.36C764.167 509.92 763.927 509.4 763.927 508.4C763.927 506.48 763.967 500.6 764.007 499.8C764.007 499.72 764.167 499.52 764.367 499.52H768.727C769.007 499.52 769.767 499.44 769.767 499.08C769.767 498.56 769.647 497.44 769.647 497.56C769.647 497.44 769.247 497.24 769.207 497.24C769.047 497.24 765.167 497.4 764.287 497.4ZM780.422 496.84C777.742 496.84 775.742 497.96 774.502 499.04C772.982 500.32 771.702 502.24 771.702 505.28C771.702 507.28 772.942 510 774.662 511.4C776.142 512.64 778.142 513.48 779.982 513.48C781.782 513.48 783.342 513.04 784.942 511.88C786.422 510.92 788.422 508.32 788.422 505C788.422 499.96 784.382 496.84 780.422 496.84ZM779.662 498.04C780.702 498.04 782.142 498.64 783.022 499.6C784.542 501.36 785.022 503.64 785.022 505.72C785.022 507.44 784.222 509.92 783.222 511C782.102 512.12 781.222 512.32 780.782 512.32C778.862 512.32 776.582 510.88 775.582 507.88C775.262 506.88 775.102 505.64 775.102 504.32C775.102 502.24 776.022 500.16 777.062 499.2C777.902 498.48 778.822 498.04 779.662 498.04ZM791.603 498.92C791.603 499.08 792.003 499.24 792.963 500C793.403 500.28 793.403 500.8 793.403 501.2V508.84C793.363 511.24 793.243 511.64 791.683 512.16C791.363 512.28 790.882 512.44 790.882 512.68C790.882 513 791.283 513.16 791.723 513.16C792.683 513.16 793.163 513 794.363 513C796.683 513 798.083 513.2 799.083 513.2C799.683 513.2 800.043 513.04 800.043 512.84C800.043 512.68 799.963 512.4 799.323 512.2L797.483 511.72C796.763 511.6 796.523 510.84 796.443 509.68C796.403 509.08 796.203 501.84 796.203 501.04C796.203 500.84 796.323 500.48 796.603 500.16C797.003 499.72 797.683 499.6 798.363 499.6C799.163 499.6 800.122 500.08 800.563 500.48C800.683 500.56 801.043 500.64 801.123 500.6C801.363 500.48 802.323 499.4 802.763 498.76C802.883 498.56 803.003 498.28 803.003 498.2C803.003 497.84 802.643 496.84 801.003 496.84C799.763 496.84 798.003 497.84 796.443 499.32C796.363 499.36 796.163 499.32 796.163 499.16C796.163 498.4 796.243 497.68 796.243 496.96C796.243 496.84 796.043 496.48 795.883 496.48C795.763 496.48 795.563 496.64 795.083 496.96C794.683 497.2 793.443 497.8 792.123 498.24C791.683 498.4 791.603 498.8 791.603 498.92ZM810.556 496.84C809.196 496.84 808.116 497.2 807.356 497.68C805.836 498.6 805.156 499.92 805.156 501.28C805.156 503.16 806.436 504.56 807.636 505.32C808.876 506.12 809.116 506.32 810.076 507C811.316 507.76 811.876 508.6 811.876 509.68C811.876 510.44 811.556 511.4 810.956 511.88C810.516 512.2 809.876 512.48 809.356 512.48C807.916 512.48 806.836 511.68 805.716 509.64C805.476 509.2 805.196 508.72 804.876 508.72C804.636 508.72 804.556 509.12 804.556 509.56C804.556 510.72 805.036 512.4 805.156 512.6C805.836 513.16 807.836 513.48 809.036 513.48C810.276 513.48 811.676 513.04 812.396 512.56C813.396 511.84 814.716 510.48 814.716 508.64C814.716 506.84 813.836 505.48 811.596 504.16C808.916 502.68 807.636 501.64 807.636 500.28C807.636 499.44 808.396 497.8 810.036 497.8C811.356 497.8 812.356 498.6 813.236 500.48C813.436 500.92 813.676 501.16 813.836 501.16C814.156 501.16 814.316 500.8 814.316 500.44C814.316 500.16 814.196 498.8 814.196 498.08C814.196 497.84 813.956 497.56 813.876 497.52C813.796 497.48 813.036 497.16 812.596 497.08C812.156 496.96 811.316 496.84 810.556 496.84ZM832.297 496.84C831.537 496.84 829.737 497.52 828.577 498.36C826.697 499.6 825.577 500.72 825.577 501.88C825.577 502.08 825.817 502.4 826.057 502.4C826.257 502.4 828.257 501.4 828.657 501.08C828.737 501 828.897 500.76 828.897 500.64C828.817 499.84 828.937 499.12 829.177 499C829.457 498.8 829.977 498.56 830.817 498.56C832.777 498.56 833.937 500.24 833.937 501.24C833.937 501.72 833.897 504.16 833.857 504.52C833.857 504.76 833.617 504.96 832.697 505.24C831.817 505.52 828.617 506.4 828.017 506.64C827.417 506.92 826.817 507.12 826.417 507.64C825.977 508.2 825.657 508.96 825.657 509.68C825.657 511.68 827.017 513.4 828.417 513.4C828.617 513.4 829.577 513.32 830.017 513.16C830.417 513.04 832.137 512.36 833.617 511.32C833.697 511.28 833.857 511.44 833.857 511.48C834.337 512.96 835.497 513.48 836.417 513.48C838.217 513.48 840.017 511.76 840.017 511C840.017 510.96 840.017 510.72 839.897 510.6C839.817 510.48 839.777 510.4 839.657 510.48C839.217 510.8 838.297 511.08 838.137 511.08C837.817 511.08 836.537 510.92 836.537 509.08C836.537 508.64 836.697 503.6 836.697 502.04C836.697 500.36 836.497 499.56 835.897 498.72C835.297 497.84 834.297 496.84 832.297 496.84ZM831.097 511.32C830.257 511.32 828.577 510.68 828.577 508.92C828.577 507.96 828.977 507.68 829.377 507.4C830.457 506.88 832.377 506.2 833.497 506.2C833.657 506.2 833.817 506.4 833.817 506.52C833.817 507.32 833.817 508.68 833.737 509.64C833.737 509.72 833.497 510.48 833.257 510.64C832.497 511.04 831.697 511.32 831.097 511.32ZM847.627 496.84C846.267 496.84 845.187 497.2 844.427 497.68C842.907 498.6 842.227 499.92 842.227 501.28C842.227 503.16 843.507 504.56 844.707 505.32C845.947 506.12 846.187 506.32 847.147 507C848.387 507.76 848.947 508.6 848.947 509.68C848.947 510.44 848.627 511.4 848.027 511.88C847.587 512.2 846.947 512.48 846.427 512.48C844.987 512.48 843.907 511.68 842.787 509.64C842.547 509.2 842.267 508.72 841.947 508.72C841.707 508.72 841.627 509.12 841.627 509.56C841.627 510.72 842.107 512.4 842.227 512.6C842.907 513.16 844.907 513.48 846.107 513.48C847.347 513.48 848.747 513.04 849.467 512.56C850.467 511.84 851.787 510.48 851.787 508.64C851.787 506.84 850.907 505.48 848.667 504.16C845.987 502.68 844.707 501.64 844.707 500.28C844.707 499.44 845.467 497.8 847.107 497.8C848.427 497.8 849.427 498.6 850.307 500.48C850.507 500.92 850.747 501.16 850.907 501.16C851.227 501.16 851.387 500.8 851.387 500.44C851.387 500.16 851.267 498.8 851.267 498.08C851.267 497.84 851.027 497.56 850.947 497.52C850.867 497.48 850.107 497.16 849.667 497.08C849.227 496.96 848.387 496.84 847.627 496.84ZM869.367 496.84C868.607 496.84 866.807 497.52 865.647 498.36C863.767 499.6 862.647 500.72 862.647 501.88C862.647 502.08 862.887 502.4 863.127 502.4C863.327 502.4 865.327 501.4 865.727 501.08C865.807 501 865.967 500.76 865.967 500.64C865.887 499.84 866.007 499.12 866.247 499C866.527 498.8 867.047 498.56 867.887 498.56C869.847 498.56 871.007 500.24 871.007 501.24C871.007 501.72 870.967 504.16 870.927 504.52C870.927 504.76 870.687 504.96 869.767 505.24C868.887 505.52 865.687 506.4 865.087 506.64C864.487 506.92 863.887 507.12 863.487 507.64C863.047 508.2 862.727 508.96 862.727 509.68C862.727 511.68 864.087 513.4 865.487 513.4C865.687 513.4 866.647 513.32 867.087 513.16C867.487 513.04 869.207 512.36 870.687 511.32C870.767 511.28 870.927 511.44 870.927 511.48C871.407 512.96 872.567 513.48 873.487 513.48C875.287 513.48 877.087 511.76 877.087 511C877.087 510.96 877.087 510.72 876.967 510.6C876.887 510.48 876.847 510.4 876.727 510.48C876.287 510.8 875.367 511.08 875.207 511.08C874.887 511.08 873.607 510.92 873.607 509.08C873.607 508.64 873.767 503.6 873.767 502.04C873.767 500.36 873.567 499.56 872.967 498.72C872.367 497.84 871.367 496.84 869.367 496.84ZM868.167 511.32C867.327 511.32 865.647 510.68 865.647 508.92C865.647 507.96 866.047 507.68 866.447 507.4C867.527 506.88 869.447 506.2 870.567 506.2C870.727 506.2 870.887 506.4 870.887 506.52C870.887 507.32 870.887 508.68 870.807 509.64C870.807 509.72 870.567 510.48 870.327 510.64C869.567 511.04 868.767 511.32 868.167 511.32ZM892.314 496.84C890.954 496.84 889.874 497.2 889.114 497.68C887.594 498.6 886.914 499.92 886.914 501.28C886.914 503.16 888.194 504.56 889.394 505.32C890.634 506.12 890.874 506.32 891.834 507C893.074 507.76 893.634 508.6 893.634 509.68C893.634 510.44 893.314 511.4 892.714 511.88C892.274 512.2 891.634 512.48 891.114 512.48C889.674 512.48 888.594 511.68 887.474 509.64C887.234 509.2 886.954 508.72 886.634 508.72C886.394 508.72 886.314 509.12 886.314 509.56C886.314 510.72 886.794 512.4 886.914 512.6C887.594 513.16 889.594 513.48 890.794 513.48C892.034 513.48 893.434 513.04 894.154 512.56C895.154 511.84 896.474 510.48 896.474 508.64C896.474 506.84 895.594 505.48 893.354 504.16C890.674 502.68 889.394 501.64 889.394 500.28C889.394 499.44 890.154 497.8 891.794 497.8C893.114 497.8 894.114 498.6 894.994 500.48C895.194 500.92 895.434 501.16 895.594 501.16C895.914 501.16 896.074 500.8 896.074 500.44C896.074 500.16 895.954 498.8 895.954 498.08C895.954 497.84 895.714 497.56 895.634 497.52C895.554 497.48 894.794 497.16 894.354 497.08C893.914 496.96 893.074 496.84 892.314 496.84ZM904.091 497.4C903.931 497.4 903.771 497.2 903.771 497.08V495.2C903.771 495.12 903.411 494.76 903.211 494.76C903.051 494.76 902.771 495.08 902.291 495.64C901.731 496.32 900.491 497.28 899.091 498.4C898.971 498.52 898.851 498.68 898.851 498.84C898.851 498.96 899.091 499.16 899.411 499.28C900.211 499.52 900.931 499.8 900.931 500.08C900.931 501.48 900.771 507.48 900.771 508.96C900.771 510.08 900.851 510.92 901.291 511.6C901.771 512.48 903.171 513.48 904.811 513.48C906.611 513.48 908.011 512.76 909.091 511.72C909.371 511.44 909.651 511.04 909.651 510.72C909.651 510.36 909.451 510.28 909.411 510.28C909.251 510.28 909.171 510.32 908.811 510.52C908.211 510.88 907.371 511.12 906.851 511.12C906.011 511.12 905.171 511.04 904.411 510.36C903.971 509.92 903.731 509.4 903.731 508.4C903.731 506.48 903.771 500.6 903.811 499.8C903.811 499.72 903.971 499.52 904.171 499.52H908.531C908.811 499.52 909.571 499.44 909.571 499.08C909.571 498.56 909.451 497.44 909.451 497.56C909.451 497.44 909.051 497.24 909.011 497.24C908.851 497.24 904.971 497.4 904.091 497.4ZM911.759 498.92C911.759 499.08 912.159 499.24 913.119 500C913.559 500.28 913.559 500.8 913.559 501.2V508.84C913.519 511.24 913.399 511.64 911.839 512.16C911.519 512.28 911.039 512.44 911.039 512.68C911.039 513 911.439 513.16 911.879 513.16C912.839 513.16 913.319 513 914.519 513C916.839 513 918.239 513.2 919.239 513.2C919.839 513.2 920.199 513.04 920.199 512.84C920.199 512.68 920.119 512.4 919.479 512.2L917.639 511.72C916.919 511.6 916.679 510.84 916.599 509.68C916.559 509.08 916.359 501.84 916.359 501.04C916.359 500.84 916.479 500.48 916.759 500.16C917.159 499.72 917.839 499.6 918.519 499.6C919.319 499.6 920.279 500.08 920.719 500.48C920.839 500.56 921.199 500.64 921.279 500.6C921.519 500.48 922.479 499.4 922.919 498.76C923.039 498.56 923.159 498.28 923.159 498.2C923.159 497.84 922.799 496.84 921.159 496.84C919.919 496.84 918.159 497.84 916.599 499.32C916.519 499.36 916.319 499.32 916.319 499.16C916.319 498.4 916.399 497.68 916.399 496.96C916.399 496.84 916.199 496.48 916.039 496.48C915.919 496.48 915.719 496.64 915.239 496.96C914.839 497.2 913.599 497.8 912.279 498.24C911.839 498.4 911.759 498.8 911.759 498.92ZM928.52 513C929.36 513 931.36 513.12 931.64 513.12C932.08 513.12 932.56 512.96 932.56 512.72C932.56 512.44 932.32 512.24 931.68 512.04C930.68 511.72 929.8 511.64 929.76 510.36C929.72 508.96 929.68 507.28 929.68 505.04C929.68 502.76 929.92 497.56 929.92 497.12C929.92 497.08 929.72 496.68 929.56 496.68C928.96 496.84 927.08 497.72 925.6 498.04C925.16 498.12 924.8 498.44 924.8 498.72C924.8 498.88 924.88 499 925.12 499.16C926.28 500 926.72 500.32 926.76 500.6C926.84 501.08 926.8 505.64 926.8 506.84C926.8 508 926.76 510.4 926.64 510.96C926.56 511.36 925.96 511.84 925.04 512.08C924.36 512.28 924.08 512.48 924.08 512.72C924.08 513 924.48 513.16 925.12 513.16C925.8 513.16 927.2 513 928.52 513ZM928.44 488.72C927.88 488.72 927.28 488.88 926.88 489.24C926.56 489.68 926.4 490.32 926.4 490.68C926.4 491.36 926.68 491.8 927 492.16C927.36 492.48 928 492.64 928.28 492.64C929.08 492.64 930.2 491.76 930.2 490.68C930.2 489.96 929.52 488.72 928.44 488.72ZM935.003 498.76C935.003 498.88 935.243 499.08 935.763 499.44C936.643 500.16 936.723 500.56 936.723 501C936.723 505.08 936.643 508.56 936.523 509.76C936.403 511.2 936.163 511.6 934.843 512C934.403 512.12 934.003 512.32 934.003 512.6C934.003 512.96 934.443 513.12 935.043 513.12C935.723 513.12 936.883 513 938.363 513C939.203 513 940.323 513.04 940.803 513.04C941.363 513.04 941.803 512.84 941.803 512.56C941.803 512.32 941.483 512.08 941.083 511.96C939.803 511.6 939.643 511.28 939.603 510.72C939.563 510.24 939.563 501.64 939.563 501.12C939.563 500.76 939.843 500.28 939.963 500.16C940.723 499.48 941.763 498.88 943.523 498.88C944.443 498.88 945.643 499.32 946.083 499.64C946.563 500 947.283 501.16 947.283 502.6C947.283 503.76 947.243 508.6 947.163 509.92C947.083 511.24 946.883 511.56 945.923 511.92C945.443 512.08 945.003 512.32 945.003 512.6C945.003 512.92 945.563 513.08 945.923 513.08C946.443 513.08 947.683 513 948.683 513C949.803 513 950.723 513.08 951.643 513.08C952.283 513.08 952.843 512.92 952.843 512.64C952.843 512.36 952.603 512.16 951.843 511.96C950.843 511.68 950.443 511.16 950.363 510.56C950.323 510 950.243 504.04 950.243 503.28C950.243 501.28 949.723 499.44 948.843 498.4C948.283 497.76 947.163 496.88 945.203 496.88C943.523 496.88 941.443 498 939.843 499.08C939.803 499.08 939.603 499.16 939.603 498.96C939.603 498.6 939.763 497.64 939.763 496.96C939.763 496.8 939.563 496.36 939.363 496.36C939.163 496.36 938.803 496.56 938.403 496.8C937.843 497.2 936.403 497.72 935.723 497.96C935.443 498.08 935.003 498.48 935.003 498.76ZM961.708 496.68C960.148 496.68 958.748 497.12 957.628 497.96C956.068 499.12 955.188 500.56 955.188 502.52C955.188 505.44 957.108 506.96 958.228 507.6C958.348 507.72 958.468 507.88 958.388 507.96C957.748 508.6 956.028 509.56 955.428 510.04C955.348 510.12 955.228 510.32 955.228 510.4C955.228 511.68 955.788 512.8 956.588 513.36C957.108 513.76 957.868 514 958.148 514.16C958.268 514.24 958.348 514.36 958.268 514.44C957.748 514.88 956.508 515.76 955.508 516.6C955.148 516.88 954.348 517.36 954.348 519.12C954.348 520.24 955.068 521.72 956.188 522.6C957.868 523.84 959.748 524.08 961.188 524.08C962.628 524.08 964.748 523.8 966.948 522.36C968.668 521.24 970.708 519.2 970.708 516.2C970.708 515.16 970.148 513.64 969.028 512.68C968.308 512.12 967.428 511.76 967.108 511.72C965.828 511.52 961.508 511.48 959.748 511.4C959.308 511.36 958.108 510.64 958.108 509.6C958.108 509.28 958.988 508.44 959.388 508.24C959.548 508.16 959.748 508.16 959.988 508.2C960.268 508.2 961.148 508.24 961.388 508.24C962.348 508.24 963.988 508.08 965.748 506.72C967.308 505.52 967.988 503.88 967.988 501.68C967.988 501 967.868 500.28 967.668 499.68C967.628 499.56 967.748 499.36 967.908 499.36C968.908 499.44 970.348 499.44 970.588 499.44C970.748 499.44 971.308 498.72 971.308 498.16C971.308 498 971.188 497.76 970.948 497.72C970.108 497.52 967.188 497.48 966.308 497.4L965.188 497.16C964.028 496.88 963.308 496.68 961.708 496.68ZM962.668 522.4C961.188 522.4 959.828 522 958.748 521.16C957.908 520.44 957.348 519.4 957.348 518.12C957.348 517.2 957.868 515.72 959.148 514.84C959.388 514.68 960.028 514.44 961.308 514.44C962.988 514.44 964.268 514.44 965.348 514.64C966.308 514.84 967.068 515.36 967.468 515.88C967.948 516.52 968.028 517.44 968.028 517.96C968.028 519.12 967.428 520.64 965.828 521.68C965.388 521.92 964.228 522.4 962.668 522.4ZM961.388 497.64C962.548 497.64 963.508 498.28 964.268 499.4C964.908 500.36 965.148 501.68 965.148 502.4C965.148 504.04 964.628 506 963.628 506.64C963.068 507 962.588 507.2 962.308 507.2C959.708 507.2 958.348 504.2 958.348 502.2C958.348 500.32 958.788 499.28 959.388 498.64C959.748 498.16 960.668 497.64 961.388 497.64Z" fill="black"/>
<path id="01010 # 11101 # 10101 # 11000" d="M464.04 547.76C462.52 547.76 461.44 548.16 460.36 548.84C457.84 550.44 455.52 554.4 455.52 560.84C455.52 565.96 457.72 573.36 463.72 573.48C464.92 573.52 466.24 573.12 467.4 572.36C469.64 570.92 471.96 566.68 471.96 560.24C471.96 555.96 470.36 547.76 464.04 547.76ZM463.36 548.96C464.16 548.96 464.8 549.28 465.44 549.72C466.52 550.48 468.44 553.92 468.44 560.48C468.44 565.6 467.8 568.72 466.88 570.48C466.76 570.68 465.64 572.4 464.28 572.4C460.2 572.4 458.88 564.8 458.88 560.36C458.88 554.44 459.96 551.92 460.92 550.48C461.76 549.32 462.44 548.96 463.36 548.96ZM474.921 572.8C474.921 573.12 475.481 573.2 475.921 573.2C476.481 573.2 479.041 573 481.321 573C482.561 573 484.201 573.16 485.201 573.16C485.801 573.16 486.161 573 486.161 572.72C486.161 572.36 485.681 572.12 485.121 572C482.641 571.4 482.521 571 482.521 568.28C482.481 563.56 482.481 555.28 482.481 552.44C482.441 549.52 482.601 548.64 482.601 547.84C482.601 547.64 482.441 547.4 482.161 547.44L480.641 548.2C479.481 548.84 477.961 549.04 476.441 549.36C476.041 549.44 475.641 549.76 475.641 549.96C475.641 550.24 475.801 550.36 476.401 550.52C476.801 550.64 477.561 550.72 478.201 550.84C478.641 550.92 479.001 551.24 479.081 551.64C479.201 552.24 479.241 553.56 479.241 557.84C479.241 565.2 479.121 568.12 478.961 569.44C478.761 571.12 478.201 571.56 476.241 572C475.321 572.24 474.921 572.48 474.921 572.8ZM497.673 547.76C496.153 547.76 495.073 548.16 493.993 548.84C491.473 550.44 489.153 554.4 489.153 560.84C489.153 565.96 491.353 573.36 497.353 573.48C498.553 573.52 499.873 573.12 501.033 572.36C503.273 570.92 505.593 566.68 505.593 560.24C505.593 555.96 503.993 547.76 497.673 547.76ZM496.993 548.96C497.793 548.96 498.433 549.28 499.073 549.72C500.153 550.48 502.073 553.92 502.073 560.48C502.073 565.6 501.433 568.72 500.513 570.48C500.393 570.68 499.273 572.4 497.913 572.4C493.833 572.4 492.513 564.8 492.513 560.36C492.513 554.44 493.593 551.92 494.553 550.48C495.393 549.32 496.073 548.96 496.993 548.96ZM508.553 572.8C508.553 573.12 509.113 573.2 509.553 573.2C510.113 573.2 512.673 573 514.953 573C516.193 573 517.833 573.16 518.833 573.16C519.433 573.16 519.793 573 519.793 572.72C519.793 572.36 519.313 572.12 518.753 572C516.273 571.4 516.153 571 516.153 568.28C516.113 563.56 516.113 555.28 516.113 552.44C516.073 549.52 516.233 548.64 516.233 547.84C516.233 547.64 516.073 547.4 515.793 547.44L514.273 548.2C513.113 548.84 511.593 549.04 510.073 549.36C509.673 549.44 509.273 549.76 509.273 549.96C509.273 550.24 509.433 550.36 510.033 550.52C510.433 550.64 511.193 550.72 511.833 550.84C512.273 550.92 512.633 551.24 512.713 551.64C512.833 552.24 512.873 553.56 512.873 557.84C512.873 565.2 512.753 568.12 512.593 569.44C512.393 571.12 511.833 571.56 509.873 572C508.953 572.24 508.553 572.48 508.553 572.8ZM531.306 547.76C529.786 547.76 528.706 548.16 527.626 548.84C525.106 550.44 522.786 554.4 522.786 560.84C522.786 565.96 524.986 573.36 530.986 573.48C532.186 573.52 533.506 573.12 534.666 572.36C536.906 570.92 539.226 566.68 539.226 560.24C539.226 555.96 537.626 547.76 531.306 547.76ZM530.626 548.96C531.426 548.96 532.066 549.28 532.706 549.72C533.786 550.48 535.706 553.92 535.706 560.48C535.706 565.6 535.066 568.72 534.146 570.48C534.026 570.68 532.906 572.4 531.546 572.4C527.466 572.4 526.146 564.8 526.146 560.36C526.146 554.44 527.226 551.92 528.186 550.48C529.026 549.32 529.706 548.96 530.626 548.96ZM566.568 555.8C566.608 555.6 566.528 554.96 566.448 554.76L563.408 554.8C563.368 554.8 563.248 554.76 563.328 554.44L564.888 548.4C565.008 548 564.688 547.84 564.608 547.84C564.008 547.84 563.448 548 563.368 548.24L561.768 554.52C561.728 554.72 561.608 554.84 561.528 554.84L557.408 554.96C557.368 554.96 557.288 554.84 557.288 554.72L558.848 548.56C558.848 548.44 558.568 548.2 558.448 548.2C557.968 548.2 557.368 548.4 557.248 548.64L555.648 554.84C555.608 554.92 555.488 555.04 555.408 555.04L552.168 555.2C551.928 555.24 551.568 556.08 551.488 556.36C551.368 556.96 551.528 557.56 551.528 557.6L554.848 557.52C555.008 557.52 555.008 557.76 555.008 557.84L553.928 562.16C553.888 562.4 553.728 562.44 553.568 562.44L550.648 562.6C550.328 562.6 549.928 563.52 549.768 564.32C549.768 564.4 549.928 564.96 550.048 564.96L552.888 564.88C553.128 564.88 553.168 565.12 553.128 565.28L551.408 572C551.368 572.16 551.728 572.52 552.008 572.52C552.128 572.52 552.848 572.4 552.928 572.08L554.768 565.16C554.768 565.08 555.088 564.84 555.168 564.84L559.048 564.68C559.128 564.68 559.247 564.84 559.208 565.04L557.488 571.88C557.368 572.2 557.768 572.32 557.968 572.32C558.408 572.32 558.967 572.08 559.048 571.76L560.848 564.92C560.888 564.68 561.008 564.64 561.088 564.64L564.248 564.52C564.688 564.52 565.088 563.48 565.168 563C565.208 562.76 565.128 562.08 564.928 562.08L561.688 562.2C561.568 562.24 561.528 562.08 561.568 561.96L562.648 557.68C562.688 557.52 562.808 557.28 562.888 557.28L565.928 557.16C566.248 557.16 566.528 556.28 566.568 555.8ZM561.008 557.76L559.968 561.92C559.928 562.12 559.808 562.24 559.648 562.24L555.728 562.4C555.568 562.44 555.448 562.16 555.488 562.08L556.568 557.8C556.608 557.64 556.728 557.48 556.888 557.48L560.888 557.36C561.048 557.32 561.048 557.6 561.008 557.76ZM580.389 572.8C580.389 573.12 580.949 573.2 581.389 573.2C581.949 573.2 584.509 573 586.789 573C588.029 573 589.669 573.16 590.669 573.16C591.269 573.16 591.629 573 591.629 572.72C591.629 572.36 591.149 572.12 590.589 572C588.109 571.4 587.989 571 587.989 568.28C587.949 563.56 587.949 555.28 587.949 552.44C587.909 549.52 588.069 548.64 588.069 547.84C588.069 547.64 587.909 547.4 587.629 547.44L586.109 548.2C584.949 548.84 583.429 549.04 581.909 549.36C581.509 549.44 581.109 549.76 581.109 549.96C581.109 550.24 581.269 550.36 581.869 550.52C582.269 550.64 583.029 550.72 583.669 550.84C584.109 550.92 584.469 551.24 584.549 551.64C584.669 552.24 584.709 553.56 584.709 557.84C584.709 565.2 584.589 568.12 584.429 569.44C584.229 571.12 583.669 571.56 581.709 572C580.789 572.24 580.389 572.48 580.389 572.8ZM593.866 572.8C593.866 573.12 594.426 573.2 594.866 573.2C595.426 573.2 597.986 573 600.266 573C601.506 573 603.146 573.16 604.146 573.16C604.746 573.16 605.106 573 605.106 572.72C605.106 572.36 604.626 572.12 604.066 572C601.586 571.4 601.466 571 601.466 568.28C601.426 563.56 601.426 555.28 601.426 552.44C601.386 549.52 601.546 548.64 601.546 547.84C601.546 547.64 601.386 547.4 601.106 547.44L599.586 548.2C598.426 548.84 596.906 549.04 595.386 549.36C594.986 549.44 594.586 549.76 594.586 549.96C594.586 550.24 594.746 550.36 595.346 550.52C595.746 550.64 596.506 550.72 597.146 550.84C597.586 550.92 597.946 551.24 598.026 551.64C598.146 552.24 598.186 553.56 598.186 557.84C598.186 565.2 598.066 568.12 597.906 569.44C597.706 571.12 597.146 571.56 595.186 572C594.266 572.24 593.866 572.48 593.866 572.8ZM607.343 572.8C607.343 573.12 607.903 573.2 608.342 573.2C608.903 573.2 611.463 573 613.743 573C614.983 573 616.623 573.16 617.623 573.16C618.223 573.16 618.583 573 618.583 572.72C618.583 572.36 618.103 572.12 617.543 572C615.063 571.4 614.943 571 614.943 568.28C614.903 563.56 614.903 555.28 614.903 552.44C614.863 549.52 615.023 548.64 615.023 547.84C615.023 547.64 614.863 547.4 614.583 547.44L613.062 548.2C611.903 548.84 610.383 549.04 608.863 549.36C608.463 549.44 608.062 549.76 608.062 549.96C608.062 550.24 608.223 550.36 608.823 550.52C609.223 550.64 609.983 550.72 610.623 550.84C611.063 550.92 611.423 551.24 611.503 551.64C611.623 552.24 611.663 553.56 611.663 557.84C611.663 565.2 611.543 568.12 611.383 569.44C611.183 571.12 610.623 571.56 608.663 572C607.743 572.24 607.343 572.48 607.343 572.8ZM630.095 547.76C628.575 547.76 627.495 548.16 626.415 548.84C623.895 550.44 621.575 554.4 621.575 560.84C621.575 565.96 623.775 573.36 629.775 573.48C630.975 573.52 632.295 573.12 633.455 572.36C635.695 570.92 638.015 566.68 638.015 560.24C638.015 555.96 636.415 547.76 630.095 547.76ZM629.415 548.96C630.215 548.96 630.855 549.28 631.495 549.72C632.575 550.48 634.495 553.92 634.495 560.48C634.495 565.6 633.855 568.72 632.935 570.48C632.815 570.68 631.695 572.4 630.335 572.4C626.255 572.4 624.935 564.8 624.935 560.36C624.935 554.44 626.015 551.92 626.975 550.48C627.815 549.32 628.495 548.96 629.415 548.96ZM640.975 572.8C640.975 573.12 641.535 573.2 641.975 573.2C642.535 573.2 645.095 573 647.375 573C648.615 573 650.255 573.16 651.255 573.16C651.855 573.16 652.215 573 652.215 572.72C652.215 572.36 651.735 572.12 651.175 572C648.695 571.4 648.575 571 648.575 568.28C648.535 563.56 648.535 555.28 648.535 552.44C648.495 549.52 648.655 548.64 648.655 547.84C648.655 547.64 648.495 547.4 648.215 547.44L646.695 548.2C645.535 548.84 644.015 549.04 642.495 549.36C642.095 549.44 641.695 549.76 641.695 549.96C641.695 550.24 641.855 550.36 642.455 550.52C642.855 550.64 643.615 550.72 644.255 550.84C644.695 550.92 645.055 551.24 645.135 551.64C645.255 552.24 645.295 553.56 645.295 557.84C645.295 565.2 645.175 568.12 645.015 569.44C644.815 571.12 644.255 571.56 642.295 572C641.375 572.24 640.975 572.48 640.975 572.8ZM681.997 555.8C682.037 555.6 681.957 554.96 681.877 554.76L678.837 554.8C678.797 554.8 678.677 554.76 678.757 554.44L680.317 548.4C680.437 548 680.117 547.84 680.037 547.84C679.437 547.84 678.877 548 678.797 548.24L677.197 554.52C677.157 554.72 677.037 554.84 676.957 554.84L672.837 554.96C672.797 554.96 672.717 554.84 672.717 554.72L674.277 548.56C674.277 548.44 673.997 548.2 673.877 548.2C673.397 548.2 672.797 548.4 672.677 548.64L671.077 554.84C671.037 554.92 670.917 555.04 670.837 555.04L667.597 555.2C667.357 555.24 666.997 556.08 666.917 556.36C666.797 556.96 666.957 557.56 666.957 557.6L670.277 557.52C670.437 557.52 670.437 557.76 670.437 557.84L669.357 562.16C669.317 562.4 669.157 562.44 668.997 562.44L666.077 562.6C665.757 562.6 665.357 563.52 665.197 564.32C665.197 564.4 665.357 564.96 665.477 564.96L668.317 564.88C668.557 564.88 668.597 565.12 668.557 565.28L666.837 572C666.797 572.16 667.157 572.52 667.437 572.52C667.557 572.52 668.277 572.4 668.357 572.08L670.197 565.16C670.197 565.08 670.517 564.84 670.597 564.84L674.477 564.68C674.557 564.68 674.677 564.84 674.637 565.04L672.917 571.88C672.797 572.2 673.197 572.32 673.397 572.32C673.837 572.32 674.397 572.08 674.477 571.76L676.277 564.92C676.317 564.68 676.437 564.64 676.517 564.64L679.677 564.52C680.117 564.52 680.517 563.48 680.597 563C680.637 562.76 680.557 562.08 680.357 562.08L677.117 562.2C676.997 562.24 676.957 562.08 676.997 561.96L678.077 557.68C678.117 557.52 678.237 557.28 678.317 557.28L681.357 557.16C681.677 557.16 681.957 556.28 681.997 555.8ZM676.437 557.76L675.397 561.92C675.357 562.12 675.237 562.24 675.077 562.24L671.157 562.4C670.997 562.44 670.877 562.16 670.917 562.08L671.997 557.8C672.037 557.64 672.157 557.48 672.317 557.48L676.317 557.36C676.477 557.32 676.477 557.6 676.437 557.76ZM695.819 572.8C695.819 573.12 696.379 573.2 696.819 573.2C697.379 573.2 699.939 573 702.219 573C703.459 573 705.099 573.16 706.099 573.16C706.699 573.16 707.059 573 707.059 572.72C707.059 572.36 706.579 572.12 706.019 572C703.539 571.4 703.419 571 703.419 568.28C703.379 563.56 703.379 555.28 703.379 552.44C703.339 549.52 703.499 548.64 703.499 547.84C703.499 547.64 703.339 547.4 703.059 547.44L701.539 548.2C700.379 548.84 698.859 549.04 697.339 549.36C696.939 549.44 696.539 549.76 696.539 549.96C696.539 550.24 696.699 550.36 697.299 550.52C697.699 550.64 698.459 550.72 699.099 550.84C699.539 550.92 699.899 551.24 699.979 551.64C700.099 552.24 700.139 553.56 700.139 557.84C700.139 565.2 700.019 568.12 699.859 569.44C699.659 571.12 699.099 571.56 697.139 572C696.219 572.24 695.819 572.48 695.819 572.8ZM718.571 547.76C717.051 547.76 715.971 548.16 714.891 548.84C712.371 550.44 710.051 554.4 710.051 560.84C710.051 565.96 712.251 573.36 718.251 573.48C719.451 573.52 720.771 573.12 721.931 572.36C724.171 570.92 726.491 566.68 726.491 560.24C726.491 555.96 724.891 547.76 718.571 547.76ZM717.891 548.96C718.691 548.96 719.331 549.28 719.971 549.72C721.051 550.48 722.971 553.92 722.971 560.48C722.971 565.6 722.331 568.72 721.411 570.48C721.291 570.68 720.171 572.4 718.811 572.4C714.731 572.4 713.411 564.8 713.411 560.36C713.411 554.44 714.491 551.92 715.451 550.48C716.291 549.32 716.971 548.96 717.891 548.96ZM729.452 572.8C729.452 573.12 730.012 573.2 730.452 573.2C731.012 573.2 733.572 573 735.852 573C737.092 573 738.732 573.16 739.732 573.16C740.332 573.16 740.692 573 740.692 572.72C740.692 572.36 740.212 572.12 739.652 572C737.172 571.4 737.052 571 737.052 568.28C737.012 563.56 737.012 555.28 737.012 552.44C736.972 549.52 737.132 548.64 737.132 547.84C737.132 547.64 736.972 547.4 736.692 547.44L735.172 548.2C734.012 548.84 732.492 549.04 730.972 549.36C730.572 549.44 730.172 549.76 730.172 549.96C730.172 550.24 730.332 550.36 730.932 550.52C731.332 550.64 732.092 550.72 732.732 550.84C733.172 550.92 733.532 551.24 733.612 551.64C733.732 552.24 733.772 553.56 733.772 557.84C733.772 565.2 733.652 568.12 733.492 569.44C733.292 571.12 732.732 571.56 730.772 572C729.852 572.24 729.452 572.48 729.452 572.8ZM752.204 547.76C750.684 547.76 749.604 548.16 748.524 548.84C746.004 550.44 743.684 554.4 743.684 560.84C743.684 565.96 745.884 573.36 751.884 573.48C753.084 573.52 754.404 573.12 755.564 572.36C757.804 570.92 760.124 566.68 760.124 560.24C760.124 555.96 758.524 547.76 752.204 547.76ZM751.524 548.96C752.324 548.96 752.964 549.28 753.604 549.72C754.684 550.48 756.604 553.92 756.604 560.48C756.604 565.6 755.964 568.72 755.044 570.48C754.924 570.68 753.804 572.4 752.444 572.4C748.364 572.4 747.044 564.8 747.044 560.36C747.044 554.44 748.124 551.92 749.084 550.48C749.924 549.32 750.604 548.96 751.524 548.96ZM763.085 572.8C763.085 573.12 763.645 573.2 764.085 573.2C764.645 573.2 767.205 573 769.485 573C770.725 573 772.365 573.16 773.365 573.16C773.965 573.16 774.325 573 774.325 572.72C774.325 572.36 773.845 572.12 773.285 572C770.805 571.4 770.685 571 770.685 568.28C770.645 563.56 770.645 555.28 770.645 552.44C770.605 549.52 770.765 548.64 770.765 547.84C770.765 547.64 770.605 547.4 770.325 547.44L768.805 548.2C767.645 548.84 766.125 549.04 764.605 549.36C764.205 549.44 763.805 549.76 763.805 549.96C763.805 550.24 763.965 550.36 764.565 550.52C764.965 550.64 765.725 550.72 766.365 550.84C766.805 550.92 767.165 551.24 767.245 551.64C767.365 552.24 767.405 553.56 767.405 557.84C767.405 565.2 767.285 568.12 767.125 569.44C766.925 571.12 766.365 571.56 764.405 572C763.485 572.24 763.085 572.48 763.085 572.8ZM804.107 555.8C804.147 555.6 804.067 554.96 803.987 554.76L800.947 554.8C800.907 554.8 800.787 554.76 800.867 554.44L802.427 548.4C802.547 548 802.227 547.84 802.147 547.84C801.547 547.84 800.987 548 800.907 548.24L799.307 554.52C799.267 554.72 799.147 554.84 799.067 554.84L794.947 554.96C794.907 554.96 794.827 554.84 794.827 554.72L796.387 548.56C796.387 548.44 796.107 548.2 795.987 548.2C795.507 548.2 794.907 548.4 794.787 548.64L793.187 554.84C793.147 554.92 793.027 555.04 792.947 555.04L789.707 555.2C789.467 555.24 789.107 556.08 789.027 556.36C788.907 556.96 789.067 557.56 789.067 557.6L792.387 557.52C792.547 557.52 792.547 557.76 792.547 557.84L791.467 562.16C791.427 562.4 791.267 562.44 791.107 562.44L788.187 562.6C787.867 562.6 787.467 563.52 787.307 564.32C787.307 564.4 787.467 564.96 787.587 564.96L790.427 564.88C790.667 564.88 790.707 565.12 790.667 565.28L788.947 572C788.907 572.16 789.267 572.52 789.547 572.52C789.667 572.52 790.387 572.4 790.467 572.08L792.307 565.16C792.307 565.08 792.627 564.84 792.707 564.84L796.587 564.68C796.667 564.68 796.787 564.84 796.747 565.04L795.027 571.88C794.907 572.2 795.307 572.32 795.507 572.32C795.947 572.32 796.507 572.08 796.587 571.76L798.387 564.92C798.427 564.68 798.547 564.64 798.627 564.64L801.787 564.52C802.227 564.52 802.627 563.48 802.707 563C802.747 562.76 802.667 562.08 802.467 562.08L799.227 562.2C799.107 562.24 799.067 562.08 799.107 561.96L800.187 557.68C800.227 557.52 800.347 557.28 800.427 557.28L803.467 557.16C803.787 557.16 804.067 556.28 804.107 555.8ZM798.547 557.76L797.507 561.92C797.467 562.12 797.347 562.24 797.187 562.24L793.267 562.4C793.107 562.44 792.987 562.16 793.027 562.08L794.107 557.8C794.147 557.64 794.267 557.48 794.427 557.48L798.427 557.36C798.587 557.32 798.587 557.6 798.547 557.76ZM817.928 572.8C817.928 573.12 818.488 573.2 818.928 573.2C819.488 573.2 822.048 573 824.328 573C825.568 573 827.208 573.16 828.208 573.16C828.808 573.16 829.168 573 829.168 572.72C829.168 572.36 828.688 572.12 828.128 572C825.648 571.4 825.528 571 825.528 568.28C825.488 563.56 825.488 555.28 825.488 552.44C825.448 549.52 825.608 548.64 825.608 547.84C825.608 547.64 825.448 547.4 825.168 547.44L823.648 548.2C822.488 548.84 820.968 549.04 819.448 549.36C819.048 549.44 818.648 549.76 818.648 549.96C818.648 550.24 818.808 550.36 819.408 550.52C819.808 550.64 820.568 550.72 821.208 550.84C821.648 550.92 822.008 551.24 822.088 551.64C822.208 552.24 822.248 553.56 822.248 557.84C822.248 565.2 822.128 568.12 821.968 569.44C821.768 571.12 821.208 571.56 819.248 572C818.328 572.24 817.928 572.48 817.928 572.8ZM831.405 572.8C831.405 573.12 831.965 573.2 832.405 573.2C832.965 573.2 835.525 573 837.805 573C839.045 573 840.685 573.16 841.685 573.16C842.285 573.16 842.645 573 842.645 572.72C842.645 572.36 842.165 572.12 841.605 572C839.125 571.4 839.005 571 839.005 568.28C838.965 563.56 838.965 555.28 838.965 552.44C838.925 549.52 839.085 548.64 839.085 547.84C839.085 547.64 838.925 547.4 838.645 547.44L837.125 548.2C835.965 548.84 834.445 549.04 832.925 549.36C832.525 549.44 832.125 549.76 832.125 549.96C832.125 550.24 832.285 550.36 832.885 550.52C833.285 550.64 834.045 550.72 834.685 550.84C835.125 550.92 835.485 551.24 835.565 551.64C835.685 552.24 835.725 553.56 835.725 557.84C835.725 565.2 835.605 568.12 835.445 569.44C835.245 571.12 834.685 571.56 832.725 572C831.805 572.24 831.405 572.48 831.405 572.8ZM854.157 547.76C852.637 547.76 851.557 548.16 850.477 548.84C847.957 550.44 845.637 554.4 845.637 560.84C845.637 565.96 847.837 573.36 853.837 573.48C855.037 573.52 856.357 573.12 857.517 572.36C859.757 570.92 862.077 566.68 862.077 560.24C862.077 555.96 860.477 547.76 854.157 547.76ZM853.477 548.96C854.277 548.96 854.917 549.28 855.557 549.72C856.637 550.48 858.557 553.92 858.557 560.48C858.557 565.6 857.917 568.72 856.997 570.48C856.877 570.68 855.757 572.4 854.397 572.4C850.317 572.4 848.997 564.8 848.997 560.36C848.997 554.44 850.077 551.92 851.037 550.48C851.877 549.32 852.557 548.96 853.477 548.96ZM874.704 547.76C873.184 547.76 872.104 548.16 871.024 548.84C868.504 550.44 866.184 554.4 866.184 560.84C866.184 565.96 868.384 573.36 874.384 573.48C875.584 573.52 876.904 573.12 878.064 572.36C880.304 570.92 882.624 566.68 882.624 560.24C882.624 555.96 881.024 547.76 874.704 547.76ZM874.024 548.96C874.824 548.96 875.464 549.28 876.104 549.72C877.184 550.48 879.104 553.92 879.104 560.48C879.104 565.6 878.464 568.72 877.544 570.48C877.424 570.68 876.304 572.4 874.944 572.4C870.864 572.4 869.544 564.8 869.544 560.36C869.544 554.44 870.624 551.92 871.584 550.48C872.424 549.32 873.104 548.96 874.024 548.96ZM895.251 547.76C893.731 547.76 892.651 548.16 891.571 548.84C889.051 550.44 886.731 554.4 886.731 560.84C886.731 565.96 888.931 573.36 894.931 573.48C896.131 573.52 897.451 573.12 898.611 572.36C900.851 570.92 903.171 566.68 903.171 560.24C903.171 555.96 901.571 547.76 895.251 547.76ZM894.571 548.96C895.371 548.96 896.011 549.28 896.651 549.72C897.731 550.48 899.651 553.92 899.651 560.48C899.651 565.6 899.011 568.72 898.091 570.48C897.971 570.68 896.851 572.4 895.491 572.4C891.411 572.4 890.091 564.8 890.091 560.36C890.091 554.44 891.171 551.92 892.131 550.48C892.971 549.32 893.651 548.96 894.571 548.96Z" fill="black"/>
</g>
</svg>
