<svg width="1024" height="768" viewBox="0 0 1024 768" fill="none" xmlns="http://www.w3.org/2000/svg">
<g id="first slide" clip-path="url(#clip0)">
<rect width="1024" height="768" fill="white"/>
<path id="Star-free expressions for graphs" d="M116.7 42.14C113.22 41.66 113.34 40.52 107.46 40.52C101.4 40.52 96.06 44.54 96.06 50.9C96.06 57.2 101.28 60.08 106.56 62.12C110.16 63.5 114.6 65.18 114.6 71.06C114.6 75.92 111.9 78.44 107.1 78.44C101.52 78.44 97.92 75.86 96.6 69.92C95.82 69.68 95.22 69.8 94.62 70.1C94.86 74.72 95.1 76.28 95.82 79.22C99.6 79.22 101.28 80.6 106.62 80.6C109.32 80.6 111.9 79.94 114 78.62C117.48 76.46 119.64 72.8 119.64 68.96C119.64 62.6 114.84 59.78 109.92 57.92C106.32 56.6 100.32 54.32 100.32 49.28C100.32 45.92 103.38 42.56 106.92 42.56C112.74 42.56 114.6 46.28 115.8 50.24C116.46 50.36 117.24 50.3 117.78 49.88C117.54 47 117.3 45.32 116.7 42.14ZM124.701 54.26C123.861 54.26 123.621 54.98 123.621 55.46V56.24C123.621 56.54 123.681 56.6 123.921 56.6H127.461V74.66C127.461 78.92 129.321 80.6 132.081 80.6C134.841 80.6 137.841 79.28 140.181 76.64C140.061 76.04 139.701 75.68 139.101 75.62C137.541 76.82 135.741 77.3 134.181 77.3C132.561 77.3 132.201 75.5 132.201 71.78V56.6H138.441C139.041 56.6 139.881 56.36 139.881 55.82V54.62C139.881 54.38 139.701 54.26 139.401 54.26H132.201V51.92C132.201 48.02 132.441 45.62 132.441 45.62C132.441 45.26 132.261 45.08 131.961 45.08C131.721 45.08 131.181 45.32 130.641 45.62C129.981 45.98 129.381 46.28 128.601 46.46C127.881 46.7 127.281 46.88 127.281 47.3C127.281 48.02 127.461 47.6 127.461 54.26H124.701ZM158.685 77.12C159.045 78.98 159.705 80.6 162.705 80.6C164.985 80.6 167.145 79.58 168.405 78.38C168.285 77.66 168.045 77.12 167.385 76.76C166.965 77.12 165.945 77.72 165.165 77.72C163.425 77.72 163.365 75.38 163.365 72.62V63.8C163.365 55.28 158.685 53.66 154.305 53.66C149.385 53.66 144.405 56.9 144.405 60.32C144.405 61.76 145.125 62.48 146.505 62.48C148.245 62.48 149.325 61.22 149.325 60.44C149.325 60.02 149.265 59.6 149.145 59.36C149.085 59.18 149.025 58.82 149.025 58.16C149.025 56.3 151.545 55.64 153.825 55.64C155.865 55.64 158.685 56.66 158.685 63.44C158.685 63.86 158.505 64.1 158.325 64.16L153.165 65.42C147.405 66.86 143.265 70.04 143.265 74.12C143.265 79.04 146.625 80.6 150.825 80.6C152.925 80.6 154.725 80.12 157.365 78.08L158.565 77.12H158.685ZM158.685 66.02V73.94C158.685 74.72 158.325 75.14 157.845 75.5C156.285 76.76 154.245 78.14 152.565 78.14C149.565 78.14 148.245 75.74 148.245 73.88C148.245 71.18 149.505 68.42 153.945 67.28L158.685 66.02ZM179.087 58.52C178.967 56.12 178.907 54.56 178.607 53.96C178.487 53.66 178.367 53.48 177.887 53.48C176.207 54.14 174.647 54.68 170.507 55.22C170.387 55.58 170.507 56.54 170.627 56.9C173.867 57.2 174.527 57.5 174.527 60.98V72.68C174.527 77.66 173.807 77.9 170.087 78.14C169.727 78.5 169.727 79.76 170.087 80.12C172.187 80.06 174.527 80 176.927 80C179.327 80 182.087 80.06 184.187 80.12C184.547 79.76 184.547 78.5 184.187 78.14C179.987 77.84 179.267 77.66 179.267 72.68V64.34C179.267 62.78 179.987 61.4 180.707 60.32C181.367 59.36 182.747 57.38 183.467 57.38C184.007 57.38 184.547 57.5 185.027 58.16C185.447 58.76 186.167 59.54 187.187 59.54C188.627 59.54 190.007 58.04 190.007 56.54C190.007 55.4 188.927 53.66 186.407 53.66C183.587 53.66 181.127 56.3 179.747 58.64C179.387 59.3 179.087 58.82 179.087 58.52ZM207.112 66.62C207.892 66.62 208.732 64.94 208.732 64.22C208.732 63.62 208.492 63.02 207.892 63.02H194.752C194.032 63.02 193.252 64.4 193.252 65.48C193.252 66.08 193.612 66.62 194.152 66.62H207.112ZM221.625 72.68V56.6H227.205C227.745 56.6 228.585 56.36 228.585 55.82V54.62C228.585 54.38 228.405 54.26 228.105 54.26H221.625V50.84C221.625 41.6 224.385 40.16 226.365 40.16C228.165 40.16 229.125 40.88 229.965 42.98C230.445 44.06 231.105 44.9 232.365 44.9C233.385 44.9 234.825 43.64 234.825 42.44C234.825 41.42 234.165 40.34 232.905 39.38C231.345 38.3 229.785 38.12 227.505 38.12C222.465 38.12 216.885 42.5 216.885 51.86V54.26H213.825C212.745 54.26 212.445 54.98 212.445 55.46V56.24C212.445 56.54 212.505 56.6 212.745 56.6H216.885V72.68C216.885 77.66 215.925 77.9 212.685 78.14C212.325 78.5 212.325 79.76 212.685 80.12C214.785 80.06 216.885 80 219.285 80C221.685 80 224.565 80.06 226.665 80.12C227.025 79.76 227.025 78.5 226.665 78.14C221.985 77.9 221.625 77.66 221.625 72.68ZM240.259 58.52C240.139 56.12 240.079 54.56 239.779 53.96C239.659 53.66 239.539 53.48 239.059 53.48C237.379 54.14 235.819 54.68 231.679 55.22C231.559 55.58 231.679 56.54 231.799 56.9C235.039 57.2 235.699 57.5 235.699 60.98V72.68C235.699 77.66 234.979 77.9 231.259 78.14C230.899 78.5 230.899 79.76 231.259 80.12C233.359 80.06 235.699 80 238.099 80C240.499 80 243.259 80.06 245.359 80.12C245.719 79.76 245.719 78.5 245.359 78.14C241.159 77.84 240.439 77.66 240.439 72.68V64.34C240.439 62.78 241.159 61.4 241.879 60.32C242.539 59.36 243.919 57.38 244.639 57.38C245.179 57.38 245.719 57.5 246.199 58.16C246.619 58.76 247.339 59.54 248.359 59.54C249.799 59.54 251.179 58.04 251.179 56.54C251.179 55.4 250.099 53.66 247.579 53.66C244.759 53.66 242.299 56.3 240.919 58.64C240.559 59.3 240.259 58.82 240.259 58.52ZM274.715 74.42C272.495 76.7 270.755 77.66 267.275 77.66C265.115 77.66 262.595 76.4 260.735 73.34C259.535 71.36 258.815 68.6 258.815 65.12L274.775 65.24C275.495 65.24 275.915 64.88 275.915 64.22C275.915 59.18 274.115 53.78 265.775 53.78C260.555 53.78 253.775 58.76 253.775 67.88C253.775 71.24 254.615 74.48 256.595 76.76C258.635 79.16 261.455 80.6 265.775 80.6C270.335 80.6 273.575 78.5 275.975 75.38C275.795 74.78 275.435 74.48 274.715 74.42ZM258.995 63.08C260.135 56.3 264.335 55.76 265.775 55.76C268.055 55.76 270.755 57.02 270.755 62.06C270.755 62.6 270.515 62.9 269.855 62.9L258.995 63.08ZM301.961 74.42C299.741 76.7 298.001 77.66 294.521 77.66C292.361 77.66 289.841 76.4 287.981 73.34C286.781 71.36 286.061 68.6 286.061 65.12L302.021 65.24C302.741 65.24 303.161 64.88 303.161 64.22C303.161 59.18 301.361 53.78 293.021 53.78C287.801 53.78 281.021 58.76 281.021 67.88C281.021 71.24 281.861 74.48 283.841 76.76C285.881 79.16 288.701 80.6 293.021 80.6C297.581 80.6 300.821 78.5 303.221 75.38C303.041 74.78 302.681 74.48 301.961 74.42ZM286.241 63.08C287.381 56.3 291.581 55.76 293.021 55.76C295.301 55.76 298.001 57.02 298.001 62.06C298.001 62.6 297.761 62.9 297.101 62.9L286.241 63.08ZM343.797 74.42C341.577 76.7 339.837 77.66 336.357 77.66C334.197 77.66 331.677 76.4 329.817 73.34C328.617 71.36 327.897 68.6 327.897 65.12L343.857 65.24C344.577 65.24 344.997 64.88 344.997 64.22C344.997 59.18 343.197 53.78 334.857 53.78C329.637 53.78 322.857 58.76 322.857 67.88C322.857 71.24 323.697 74.48 325.677 76.76C327.717 79.16 330.537 80.6 334.857 80.6C339.417 80.6 342.657 78.5 345.057 75.38C344.877 74.78 344.517 74.48 343.797 74.42ZM328.077 63.08C329.217 56.3 333.417 55.76 334.857 55.76C337.137 55.76 339.837 57.02 339.837 62.06C339.837 62.6 339.597 62.9 338.937 62.9L328.077 63.08ZM357.983 58.52C356.603 56.48 357.023 56.42 359.723 56.12C360.083 55.76 360.083 54.5 359.723 54.14C358.103 54.2 355.463 54.26 353.663 54.26C351.863 54.26 350.063 54.2 348.503 54.14C348.143 54.5 348.143 55.76 348.503 56.12C350.543 56.3 352.223 57.32 353.903 59.78L359.123 67.4C359.423 67.82 359.423 68 359.183 68.3L354.143 74.78C351.743 77.84 350.423 78.02 348.323 78.14C347.963 78.5 347.963 79.76 348.323 80.12C349.523 80.06 350.843 80 352.643 80C354.443 80 356.123 80.06 357.683 80.12C358.043 79.76 358.043 78.5 357.683 78.14C355.523 77.9 355.043 77.66 356.363 75.74L360.143 70.28C360.623 69.56 360.863 69.62 361.223 70.16L364.702 74.96C366.803 77.84 365.843 77.96 363.923 78.14C363.563 78.5 363.563 79.76 363.923 80.12C365.723 80.06 367.703 80 369.863 80C372.143 80 373.763 80.06 375.203 80.12C375.563 79.76 375.563 78.5 375.203 78.14C372.503 77.96 371.603 77.78 369.203 74.36L363.803 66.74C363.563 66.38 363.503 66.2 363.803 65.84L368.843 59.42C371.063 56.6 372.503 56.3 374.663 56.12C375.023 55.76 375.023 54.5 374.663 54.14C373.463 54.2 372.083 54.26 370.283 54.26C368.483 54.26 366.803 54.2 365.243 54.14C364.883 54.5 364.883 55.76 365.243 56.12C367.463 56.36 368.123 56.54 366.683 58.58L362.783 64.04C362.363 64.64 362.123 64.58 361.643 63.92L357.983 58.52ZM385.837 57.92C385.777 56.12 385.657 54.56 385.357 53.96C385.237 53.66 385.117 53.48 384.637 53.48C382.957 54.14 381.397 54.68 377.257 55.22C377.137 55.58 377.257 56.54 377.377 56.9C380.617 57.2 381.277 57.5 381.277 60.98V86.6C381.277 91.58 380.617 91.88 376.957 92.06C376.597 92.42 376.597 93.68 376.957 94.04C379.057 93.98 381.277 93.92 383.677 93.92C386.077 93.92 388.957 93.98 390.937 94.04C391.297 93.68 391.297 92.42 390.937 92.06C386.677 91.82 386.017 91.58 386.017 86.6V80.12C386.017 79.34 386.257 79.4 386.857 79.64C388.357 80.24 390.157 80.6 392.077 80.6C395.437 80.6 398.437 79.58 400.897 77.24C403.717 74.48 405.337 70.76 405.337 65.9C405.337 59.54 400.837 53.66 394.717 53.66C391.957 53.66 388.897 55.46 386.497 58.16C386.137 58.52 385.897 58.52 385.837 57.92ZM386.977 60.14C388.537 58.22 391.297 56.42 393.037 56.42C396.877 56.42 400.177 60.74 400.177 67.52C400.177 72.44 398.437 78.56 391.717 78.56C390.637 78.56 388.537 78.26 387.457 77.3C386.257 76.22 386.017 75.86 386.017 73.7V62.78C386.017 61.52 386.257 60.98 386.977 60.14ZM418.15 58.52C418.03 56.12 417.97 54.56 417.67 53.96C417.55 53.66 417.43 53.48 416.95 53.48C415.27 54.14 413.71 54.68 409.57 55.22C409.45 55.58 409.57 56.54 409.69 56.9C412.93 57.2 413.59 57.5 413.59 60.98V72.68C413.59 77.66 412.87 77.9 409.15 78.14C408.79 78.5 408.79 79.76 409.15 80.12C411.25 80.06 413.59 80 415.99 80C418.39 80 421.15 80.06 423.25 80.12C423.61 79.76 423.61 78.5 423.25 78.14C419.05 77.84 418.33 77.66 418.33 72.68V64.34C418.33 62.78 419.05 61.4 419.77 60.32C420.43 59.36 421.81 57.38 422.53 57.38C423.07 57.38 423.61 57.5 424.09 58.16C424.51 58.76 425.23 59.54 426.25 59.54C427.69 59.54 429.07 58.04 429.07 56.54C429.07 55.4 427.99 53.66 425.47 53.66C422.65 53.66 420.19 56.3 418.81 58.64C418.45 59.3 418.15 58.82 418.15 58.52ZM452.605 74.42C450.385 76.7 448.645 77.66 445.165 77.66C443.005 77.66 440.485 76.4 438.625 73.34C437.425 71.36 436.705 68.6 436.705 65.12L452.665 65.24C453.385 65.24 453.805 64.88 453.805 64.22C453.805 59.18 452.005 53.78 443.665 53.78C438.445 53.78 431.665 58.76 431.665 67.88C431.665 71.24 432.505 74.48 434.485 76.76C436.525 79.16 439.345 80.6 443.665 80.6C448.225 80.6 451.465 78.5 453.865 75.38C453.685 74.78 453.325 74.48 452.605 74.42ZM436.885 63.08C438.025 56.3 442.225 55.76 443.665 55.76C445.945 55.76 448.645 57.02 448.645 62.06C448.645 62.6 448.405 62.9 447.745 62.9L436.885 63.08ZM459.161 71.72C459.401 74.66 459.581 77.48 459.581 80C460.181 79.88 460.781 79.82 461.081 79.82C461.501 79.82 461.861 79.82 462.281 79.94C463.901 80.36 465.521 80.6 467.741 80.6C471.101 80.6 477.281 78.98 477.281 73.04C477.281 68.96 474.341 66.56 470.261 65.06C466.661 63.68 464.261 62.78 464.261 59.48C464.261 57.02 466.421 55.64 468.461 55.64C469.781 55.64 473.261 56.12 474.041 61.22C474.401 61.58 475.601 61.52 475.961 61.16C476.141 59 476.261 56.78 476.321 54.8C474.461 54.5 471.581 53.66 468.461 53.66C464.021 53.66 460.001 56.54 460.001 60.38C460.001 64.76 461.981 66.62 466.601 68.54C471.581 70.58 472.721 71.84 472.721 74.42C472.721 77.36 469.841 78.62 467.621 78.62C465.281 78.62 463.961 77.84 463.361 77.18C462.041 75.8 461.381 73.16 461.021 71.66C460.661 71.3 459.521 71.36 459.161 71.72ZM482.54 71.72C482.78 74.66 482.96 77.48 482.96 80C483.56 79.88 484.16 79.82 484.46 79.82C484.88 79.82 485.24 79.82 485.66 79.94C487.28 80.36 488.9 80.6 491.12 80.6C494.48 80.6 500.66 78.98 500.66 73.04C500.66 68.96 497.72 66.56 493.64 65.06C490.04 63.68 487.64 62.78 487.64 59.48C487.64 57.02 489.8 55.64 491.84 55.64C493.16 55.64 496.64 56.12 497.42 61.22C497.78 61.58 498.98 61.52 499.34 61.16C499.52 59 499.64 56.78 499.7 54.8C497.84 54.5 494.96 53.66 491.84 53.66C487.4 53.66 483.38 56.54 483.38 60.38C483.38 64.76 485.36 66.62 489.98 68.54C494.96 70.58 496.1 71.84 496.1 74.42C496.1 77.36 493.22 78.62 491 78.62C488.66 78.62 487.34 77.84 486.74 77.18C485.42 75.8 484.76 73.16 484.4 71.66C484.04 71.3 482.9 71.36 482.54 71.72ZM513.899 72.68V60.74C513.899 57.74 514.139 53.9 514.139 53.9C514.139 53.66 513.839 53.48 513.359 53.48C511.679 54.14 509.279 54.68 505.139 55.22C505.019 55.58 505.139 56.54 505.259 56.9C508.559 57.2 509.159 57.56 509.159 60.98V72.68C509.159 77.66 508.499 77.84 504.839 78.14C504.479 78.5 504.479 79.76 504.839 80.12C506.819 80.06 509.159 80 511.559 80C513.959 80 516.239 80.06 518.219 80.12C518.579 79.76 518.579 78.5 518.219 78.14C514.559 77.9 513.899 77.66 513.899 72.68ZM508.439 44.06C508.439 45.62 509.879 47.18 511.319 47.18C512.999 47.18 514.439 45.56 514.439 44.3C514.439 42.86 513.179 41.18 511.559 41.18C510.119 41.18 508.439 42.62 508.439 44.06ZM521.788 67.7C521.788 73.82 525.868 80.6 534.388 80.6C538.228 80.6 541.168 79.22 543.208 77.24C545.908 74.6 547.108 70.82 547.108 67.16C547.108 60.92 543.688 53.66 534.508 53.66C530.548 53.66 527.308 55.28 525.088 57.86C522.928 60.44 521.788 63.92 521.788 67.7ZM533.608 55.76C538.768 55.76 541.948 60.44 541.948 69.08C541.948 76.64 538.048 78.5 535.228 78.5C528.988 78.5 526.948 70.94 526.948 66.32C526.948 61.1 528.208 55.76 533.608 55.76ZM560.603 58.52C560.243 58.94 559.883 59.06 559.883 58.52C559.823 56.9 559.703 54.56 559.403 53.96C559.283 53.66 559.163 53.48 558.683 53.48C557.003 54.14 555.443 54.68 551.303 55.22C551.183 55.58 551.303 56.54 551.423 56.9C554.663 57.2 555.323 57.5 555.323 60.98V72.68C555.323 77.6 554.723 77.84 551.123 78.14C550.763 78.5 550.763 79.76 551.123 80.12C552.923 80.06 555.323 80 557.723 80C560.123 80 561.923 80.06 563.723 80.12C564.083 79.76 564.083 78.5 563.723 78.14C560.663 77.84 560.063 77.6 560.063 72.68V62.84C560.063 61.58 560.603 60.86 561.083 60.32C563.363 58.1 566.063 56.78 568.403 56.78C569.603 56.78 570.863 57.56 571.583 58.94C572.183 60.14 572.303 61.76 572.303 63.56V72.68C572.303 77.6 571.703 77.84 568.583 78.14C568.283 78.5 568.283 79.76 568.583 80.12C570.383 80.06 572.303 80 574.703 80C577.103 80 579.263 80.06 581.063 80.12C581.363 79.76 581.363 78.5 581.063 78.14C577.703 77.84 577.043 77.6 577.043 72.68V63.74C577.043 60.44 576.803 57.56 575.423 55.7C574.403 54.38 572.543 53.66 570.443 53.66C567.503 53.66 564.143 54.44 560.603 58.52ZM584.962 71.72C585.202 74.66 585.382 77.48 585.382 80C585.982 79.88 586.582 79.82 586.882 79.82C587.302 79.82 587.662 79.82 588.082 79.94C589.702 80.36 591.322 80.6 593.542 80.6C596.902 80.6 603.082 78.98 603.082 73.04C603.082 68.96 600.142 66.56 596.062 65.06C592.462 63.68 590.062 62.78 590.062 59.48C590.062 57.02 592.222 55.64 594.262 55.64C595.582 55.64 599.062 56.12 599.842 61.22C600.202 61.58 601.402 61.52 601.762 61.16C601.942 59 602.062 56.78 602.122 54.8C600.262 54.5 597.382 53.66 594.262 53.66C589.822 53.66 585.802 56.54 585.802 60.38C585.802 64.76 587.782 66.62 592.402 68.54C597.382 70.58 598.522 71.84 598.522 74.42C598.522 77.36 595.642 78.62 593.422 78.62C591.082 78.62 589.762 77.84 589.162 77.18C587.842 75.8 587.182 73.16 586.822 71.66C586.462 71.3 585.322 71.36 584.962 71.72ZM630.961 72.68V56.6H636.541C637.081 56.6 637.921 56.36 637.921 55.82V54.62C637.921 54.38 637.741 54.26 637.441 54.26H630.961V50.84C630.961 41.6 633.721 40.16 635.701 40.16C637.501 40.16 638.461 40.88 639.301 42.98C639.781 44.06 640.441 44.9 641.701 44.9C642.721 44.9 644.161 43.64 644.161 42.44C644.161 41.42 643.501 40.34 642.241 39.38C640.681 38.3 639.121 38.12 636.841 38.12C631.801 38.12 626.221 42.5 626.221 51.86V54.26H623.161C622.081 54.26 621.781 54.98 621.781 55.46V56.24C621.781 56.54 621.841 56.6 622.081 56.6H626.221V72.68C626.221 77.66 625.261 77.9 622.021 78.14C621.661 78.5 621.661 79.76 622.021 80.12C624.121 80.06 626.221 80 628.621 80C631.021 80 633.901 80.06 636.001 80.12C636.361 79.76 636.361 78.5 636.001 78.14C631.321 77.9 630.961 77.66 630.961 72.68ZM641.495 67.7C641.495 73.82 645.575 80.6 654.095 80.6C657.935 80.6 660.875 79.22 662.915 77.24C665.615 74.6 666.815 70.82 666.815 67.16C666.815 60.92 663.395 53.66 654.215 53.66C650.255 53.66 647.015 55.28 644.795 57.86C642.635 60.44 641.495 63.92 641.495 67.7ZM653.315 55.76C658.475 55.76 661.655 60.44 661.655 69.08C661.655 76.64 657.755 78.5 654.935 78.5C648.695 78.5 646.655 70.94 646.655 66.32C646.655 61.1 647.915 55.76 653.315 55.76ZM679.83 58.52C679.71 56.12 679.65 54.56 679.35 53.96C679.23 53.66 679.11 53.48 678.63 53.48C676.95 54.14 675.39 54.68 671.25 55.22C671.13 55.58 671.25 56.54 671.37 56.9C674.61 57.2 675.27 57.5 675.27 60.98V72.68C675.27 77.66 674.55 77.9 670.83 78.14C670.47 78.5 670.47 79.76 670.83 80.12C672.93 80.06 675.27 80 677.67 80C680.07 80 682.83 80.06 684.93 80.12C685.29 79.76 685.29 78.5 684.93 78.14C680.73 77.84 680.01 77.66 680.01 72.68V64.34C680.01 62.78 680.73 61.4 681.45 60.32C682.11 59.36 683.49 57.38 684.21 57.38C684.75 57.38 685.29 57.5 685.77 58.16C686.19 58.76 686.91 59.54 687.93 59.54C689.37 59.54 690.75 58.04 690.75 56.54C690.75 55.4 689.67 53.66 687.15 53.66C684.33 53.66 681.87 56.3 680.49 58.64C680.13 59.3 679.83 58.82 679.83 58.52ZM733.234 56.78C734.374 56.78 735.454 55.7 735.454 54.5C735.454 53.24 734.314 52.28 732.694 52.28C731.134 52.28 728.254 53.3 726.694 55.34C725.974 54.86 723.994 53.66 720.454 53.66C715.114 53.66 710.194 57.26 710.194 62.78C710.194 66.02 711.634 67.88 713.314 69.5C711.634 70.94 710.674 73.52 710.674 75.56C710.674 77.72 711.874 79.4 713.434 80.18C710.194 82.1 708.514 84.86 708.514 87.44C708.514 92.66 713.434 94.28 718.054 94.28C726.154 94.28 734.914 90.38 734.914 83.9C734.914 81.98 734.014 80.48 732.274 79.04C729.934 77.12 725.734 77.06 723.514 77.06C722.434 77.06 720.934 77.18 719.494 77.36C718.594 77.42 717.994 77.48 717.694 77.48C715.954 77.48 713.854 76.64 713.854 74.06C713.854 72.86 714.214 71.6 714.934 70.58C716.374 71.42 718.054 71.84 720.394 71.84C725.674 71.84 730.534 68.54 730.534 62.66C730.534 59.84 729.694 58.22 727.954 56.42C728.374 55.82 729.574 54.98 730.354 54.98C730.774 54.98 731.194 55.16 731.554 55.7C731.794 56.18 732.574 56.78 733.234 56.78ZM714.514 80.6C715.174 80.78 716.134 80.9 716.914 80.9C718.774 80.9 720.454 80.72 721.294 80.72C724.294 80.72 726.814 80.78 728.554 81.74C730.894 83.06 731.614 83.9 731.614 85.46C731.614 89.78 725.254 92.06 719.854 92.06C717.694 92.06 712.654 90.32 712.654 86.24C712.654 84.2 712.774 82.7 714.514 80.6ZM725.734 63.26C725.734 68.84 722.914 69.98 720.694 69.98C715.654 69.98 715.114 65.72 715.114 61.88C715.114 57.68 716.614 55.52 719.914 55.52C723.694 55.52 725.734 58.28 725.734 63.26ZM747.154 58.52C747.034 56.12 746.974 54.56 746.674 53.96C746.554 53.66 746.434 53.48 745.954 53.48C744.274 54.14 742.714 54.68 738.574 55.22C738.454 55.58 738.574 56.54 738.694 56.9C741.934 57.2 742.594 57.5 742.594 60.98V72.68C742.594 77.66 741.874 77.9 738.154 78.14C737.794 78.5 737.794 79.76 738.154 80.12C740.254 80.06 742.594 80 744.994 80C747.394 80 750.154 80.06 752.254 80.12C752.614 79.76 752.614 78.5 752.254 78.14C748.054 77.84 747.334 77.66 747.334 72.68V64.34C747.334 62.78 748.054 61.4 748.774 60.32C749.434 59.36 750.814 57.38 751.534 57.38C752.074 57.38 752.614 57.5 753.094 58.16C753.514 58.76 754.234 59.54 755.254 59.54C756.694 59.54 758.074 58.04 758.074 56.54C758.074 55.4 756.994 53.66 754.474 53.66C751.654 53.66 749.194 56.3 747.814 58.64C747.454 59.3 747.154 58.82 747.154 58.52ZM776.498 77.12C776.858 78.98 777.518 80.6 780.518 80.6C782.798 80.6 784.958 79.58 786.218 78.38C786.098 77.66 785.858 77.12 785.198 76.76C784.778 77.12 783.758 77.72 782.978 77.72C781.238 77.72 781.178 75.38 781.178 72.62V63.8C781.178 55.28 776.498 53.66 772.118 53.66C767.198 53.66 762.218 56.9 762.218 60.32C762.218 61.76 762.938 62.48 764.318 62.48C766.058 62.48 767.138 61.22 767.138 60.44C767.138 60.02 767.078 59.6 766.958 59.36C766.898 59.18 766.838 58.82 766.838 58.16C766.838 56.3 769.358 55.64 771.638 55.64C773.678 55.64 776.498 56.66 776.498 63.44C776.498 63.86 776.318 64.1 776.138 64.16L770.978 65.42C765.218 66.86 761.078 70.04 761.078 74.12C761.078 79.04 764.438 80.6 768.638 80.6C770.738 80.6 772.538 80.12 775.178 78.08L776.378 77.12H776.498ZM776.498 66.02V73.94C776.498 74.72 776.138 75.14 775.658 75.5C774.098 76.76 772.058 78.14 770.378 78.14C767.378 78.14 766.058 75.74 766.058 73.88C766.058 71.18 767.318 68.42 771.758 67.28L776.498 66.02ZM795.7 57.92C795.64 56.12 795.52 54.56 795.22 53.96C795.1 53.66 794.98 53.48 794.5 53.48C792.82 54.14 791.26 54.68 787.12 55.22C787 55.58 787.12 56.54 787.24 56.9C790.48 57.2 791.14 57.5 791.14 60.98V86.6C791.14 91.58 790.48 91.88 786.82 92.06C786.46 92.42 786.46 93.68 786.82 94.04C788.92 93.98 791.14 93.92 793.54 93.92C795.94 93.92 798.82 93.98 800.8 94.04C801.16 93.68 801.16 92.42 800.8 92.06C796.54 91.82 795.88 91.58 795.88 86.6V80.12C795.88 79.34 796.12 79.4 796.72 79.64C798.22 80.24 800.02 80.6 801.94 80.6C805.3 80.6 808.3 79.58 810.76 77.24C813.58 74.48 815.2 70.76 815.2 65.9C815.2 59.54 810.7 53.66 804.58 53.66C801.82 53.66 798.76 55.46 796.36 58.16C796 58.52 795.76 58.52 795.7 57.92ZM796.84 60.14C798.4 58.22 801.16 56.42 802.9 56.42C806.74 56.42 810.04 60.74 810.04 67.52C810.04 72.44 808.3 78.56 801.58 78.56C800.5 78.56 798.4 78.26 797.32 77.3C796.12 76.22 795.88 75.86 795.88 73.7V62.78C795.88 61.52 796.12 60.98 796.84 60.14ZM827.473 62.84C827.473 61.58 828.013 60.86 828.493 60.32C830.773 58.1 833.833 56.78 836.173 56.78C837.373 56.78 838.633 57.56 839.353 58.94C839.953 60.14 840.073 61.76 840.073 63.56V72.68C840.073 77.6 839.473 77.84 836.353 78.14C836.053 78.5 836.053 79.76 836.353 80.12C838.033 80.06 840.073 80 842.473 80C844.873 80 846.853 80.06 848.833 80.12C849.133 79.76 849.133 78.5 848.833 78.14C845.473 77.84 844.813 77.6 844.813 72.68V63.74C844.813 60.44 844.573 57.5 843.193 55.7C842.173 54.38 840.313 53.66 838.213 53.66C835.273 53.66 831.673 54.44 828.013 58.52C828.013 58.58 827.953 58.58 827.893 58.64C827.713 58.88 827.413 59.24 827.413 58.52L827.473 45.02C827.473 41.12 827.713 38.72 827.713 38.72C827.713 38.3 827.473 38.12 826.933 38.12C825.433 38.72 820.933 39.56 818.533 39.74C818.413 40.22 818.533 41.18 818.893 41.54C819.073 41.54 819.253 41.54 819.433 41.54C822.073 41.72 822.733 41.72 822.733 46.46V72.68C822.733 77.66 822.013 77.9 818.533 78.14C818.173 78.5 818.173 79.76 818.533 80.12C820.513 80.06 822.733 80 825.133 80C827.413 80 829.393 80.06 831.073 80.12C831.433 79.76 831.433 78.5 831.073 78.14C828.013 77.9 827.473 77.66 827.473 72.68V62.84ZM852.618 71.72C852.858 74.66 853.038 77.48 853.038 80C853.638 79.88 854.238 79.82 854.538 79.82C854.958 79.82 855.318 79.82 855.738 79.94C857.358 80.36 858.978 80.6 861.198 80.6C864.558 80.6 870.738 78.98 870.738 73.04C870.738 68.96 867.798 66.56 863.718 65.06C860.118 63.68 857.718 62.78 857.718 59.48C857.718 57.02 859.878 55.64 861.918 55.64C863.238 55.64 866.718 56.12 867.498 61.22C867.858 61.58 869.058 61.52 869.418 61.16C869.598 59 869.718 56.78 869.778 54.8C867.918 54.5 865.038 53.66 861.918 53.66C857.478 53.66 853.458 56.54 853.458 60.38C853.458 64.76 855.438 66.62 860.058 68.54C865.038 70.58 866.178 71.84 866.178 74.42C866.178 77.36 863.298 78.62 861.078 78.62C858.738 78.62 857.418 77.84 856.818 77.18C855.498 75.8 854.838 73.16 854.478 71.66C854.118 71.3 852.978 71.36 852.618 71.72Z" fill="black"/>
<path id="Miko&#197;&#130;aj Boja&#197;&#132;czyk" d="M628.52 126.36C628.72 129.6 628.56 129.64 625.96 129.76C625.72 130 625.72 130.84 625.96 131.08C627.44 131.04 629.04 131 630.24 131C631.44 131 633.28 131.04 634.6 131.08C634.84 130.84 634.84 130 634.6 129.76C631.88 129.64 631.76 129.48 631.52 126.16L630.32 109.32C630.16 107.16 630.36 106.6 633.08 106.44C633.32 106.2 633.32 105.36 633.08 105.12L627.84 105.2L619.36 125.48C619.2 125.88 619.08 126.04 619 126.04C618.92 126.04 618.8 125.84 618.68 125.52L610.48 105.2L604.68 105.12C604.44 105.36 604.44 106.2 604.68 106.44C607.44 106.6 607.68 106.68 607.4 109.68L605.8 126.16C605.56 128.56 605.08 129.56 602.8 129.76C602.56 130 602.56 130.84 602.8 131.08C604 131.04 605.28 131 606.24 131C607.2 131 608.8 131.04 610 131.08C610.24 130.84 610.24 130 610 129.76C607.36 129.56 607.16 128.32 607.36 126.08L608.88 110.04H608.96L617.24 130.8C617.36 131.08 617.6 131.4 617.84 131.4C618.08 131.4 618.24 131.12 618.4 130.8L627.4 109.64H627.48L628.52 126.36ZM642.795 126.12V118.16C642.795 116.16 642.955 113.6 642.955 113.6C642.955 113.44 642.755 113.32 642.435 113.32C641.315 113.76 639.715 114.12 636.955 114.48C636.875 114.72 636.955 115.36 637.035 115.6C639.235 115.8 639.635 116.04 639.635 118.32V126.12C639.635 129.44 639.195 129.56 636.755 129.76C636.515 130 636.515 130.84 636.755 131.08C638.075 131.04 639.635 131 641.235 131C642.835 131 644.355 131.04 645.675 131.08C645.915 130.84 645.915 130 645.675 129.76C643.235 129.6 642.795 129.44 642.795 126.12ZM639.155 107.04C639.155 108.08 640.115 109.12 641.075 109.12C642.195 109.12 643.155 108.04 643.155 107.2C643.155 106.24 642.315 105.12 641.235 105.12C640.275 105.12 639.155 106.08 639.155 107.04ZM649.854 126.12C649.854 129.44 649.414 129.6 647.174 129.76C646.934 130 646.934 130.84 647.174 131.08C648.494 131.04 649.854 131 651.454 131C652.854 131 654.174 131.04 655.094 131.08C655.334 130.84 655.334 130 655.094 129.76C653.454 129.6 653.014 129.44 653.014 126.12V122.64C653.774 122.68 654.334 122.72 654.734 122.84C655.174 123.16 655.534 123.52 656.014 124.16L658.934 128.08C660.094 129.64 660.574 130.4 660.614 130.88C660.614 131 660.654 131.08 660.774 131.08C661.574 131.04 662.454 131 663.254 131C664.494 131 665.734 131.04 666.534 131.08C666.774 130.84 666.774 130 666.534 129.76C665.174 129.6 664.174 129.44 663.094 128.08L657.814 121.44C657.654 121.24 657.534 121.08 657.534 120.88C657.534 120.72 657.534 120.64 657.694 120.48L661.214 116.84C662.414 115.56 663.814 115.24 665.414 115.08C665.654 114.84 665.654 114 665.414 113.76C664.494 113.8 663.374 113.84 661.934 113.84C660.414 113.84 658.934 113.8 658.014 113.76C657.774 114 657.774 114.84 658.014 115.08C660.254 115.24 659.294 116.64 658.934 117.12C658.014 118.28 656.774 119.64 655.734 120.4C654.854 121.04 653.774 121.52 653.014 121.64V107.68C653.014 105.08 653.174 103.48 653.174 103.48C653.174 103.2 653.014 103.08 652.654 103.08C651.654 103.48 648.654 104.04 647.054 104.16C646.974 104.48 647.054 105.12 647.294 105.36C647.414 105.36 647.534 105.36 647.654 105.36C649.414 105.48 649.854 105.48 649.854 108.64V126.12ZM668.523 122.8C668.523 126.88 671.243 131.4 676.923 131.4C679.483 131.4 681.443 130.48 682.803 129.16C684.603 127.4 685.403 124.88 685.403 122.44C685.403 118.28 683.123 113.44 677.003 113.44C674.363 113.44 672.203 114.52 670.723 116.24C669.283 117.96 668.523 120.28 668.523 122.8ZM676.403 114.84C679.843 114.84 681.963 117.96 681.963 123.72C681.963 128.76 679.363 130 677.483 130C673.323 130 671.963 124.96 671.963 121.88C671.963 118.4 672.803 114.84 676.403 114.84ZM696.759 113.48L693.999 115.08V107.68C693.999 105.08 694.159 103.48 694.159 103.48C694.159 103.2 693.999 103.08 693.639 103.08C692.639 103.48 689.639 104.04 688.039 104.16C687.959 104.48 688.039 105.12 688.279 105.36C690.599 105.52 690.839 105.64 690.839 108.64V116.96L687.279 119.04L687.959 120.2L690.839 118.52V126.12C690.839 129.44 690.399 129.64 687.959 129.76C687.719 130 687.719 130.84 687.959 131.08C689.359 131.04 690.839 131 692.439 131C694.039 131 695.559 131.04 696.879 131.08C697.119 130.84 697.119 130 696.879 129.76C694.439 129.64 693.999 129.44 693.999 126.12V116.68L697.439 114.68L696.759 113.48ZM709.306 129.08C709.546 130.32 709.986 131.4 711.986 131.4C713.506 131.4 714.946 130.72 715.786 129.92C715.706 129.44 715.546 129.08 715.106 128.84C714.826 129.08 714.146 129.48 713.626 129.48C712.466 129.48 712.426 127.92 712.426 126.08V120.2C712.426 114.52 709.306 113.44 706.386 113.44C703.106 113.44 699.786 115.6 699.786 117.88C699.786 118.84 700.266 119.32 701.186 119.32C702.346 119.32 703.066 118.48 703.066 117.96C703.066 117.68 703.026 117.4 702.946 117.24C702.906 117.12 702.866 116.88 702.866 116.44C702.866 115.2 704.546 114.76 706.066 114.76C707.426 114.76 709.306 115.44 709.306 119.96C709.306 120.24 709.186 120.4 709.066 120.44L705.626 121.28C701.786 122.24 699.026 124.36 699.026 127.08C699.026 130.36 701.266 131.4 704.066 131.4C705.466 131.4 706.666 131.08 708.426 129.72L709.226 129.08H709.306ZM709.306 121.68V126.96C709.306 127.48 709.066 127.76 708.746 128C707.706 128.84 706.346 129.76 705.226 129.76C703.226 129.76 702.346 128.16 702.346 126.92C702.346 125.12 703.186 123.28 706.146 122.52L709.306 121.68ZM720.387 118.32V127.96C720.387 133.24 720.227 138.16 718.227 138.16C717.787 138.16 717.267 138 716.987 137.72C716.587 137.32 716.107 136.68 715.227 136.68C714.787 136.68 713.947 137.48 713.947 138.2C713.947 139.36 715.387 139.92 716.147 139.92C716.987 139.92 719.067 139.8 720.547 138.56C722.427 137.04 723.547 134.16 723.547 126.6V118.16C723.547 116.16 723.707 113.6 723.707 113.6C723.707 113.44 723.507 113.32 723.187 113.32C722.067 113.76 720.467 114.12 717.707 114.48C717.627 114.72 717.707 115.36 717.787 115.6C719.947 115.8 720.387 116.04 720.387 118.32ZM719.827 107.04C719.827 108.08 720.787 109.12 721.747 109.12C722.867 109.12 723.827 108.04 723.827 107.2C723.827 106.24 722.987 105.12 721.907 105.12C720.947 105.12 719.827 106.08 719.827 107.04ZM742.686 105.2C741.246 105.2 739.086 105.16 737.526 105.12C737.286 105.36 737.286 106.2 737.526 106.44C740.326 106.56 741.006 106.76 741.006 110.08V126.12C741.006 129.44 740.326 129.64 737.526 129.76C737.286 130 737.286 130.84 737.526 131.08C739.086 131.04 741.246 131 742.726 131C744.166 131 745.206 131.08 748.566 131.08C756.526 131.08 758.646 127.08 758.646 123.64C758.646 119.8 755.966 117.6 752.486 116.6V116.52C754.486 115.52 756.286 113.44 756.286 111.28C756.286 108.6 755.126 105.12 747.686 105.12C746.286 105.12 744.126 105.2 742.686 105.2ZM744.406 117.72H747.166C752.646 117.72 754.926 120.8 754.926 124.4C754.926 127.32 753.806 129.76 747.726 129.76C744.926 129.76 744.406 128.72 744.406 126.28V117.72ZM744.406 109C744.406 106.88 744.406 106.48 747.886 106.48C750.126 106.48 753.046 107.68 753.046 111.76C753.046 115.16 750.686 116.36 747.366 116.36H744.406V109ZM761.921 122.8C761.921 126.88 764.641 131.4 770.321 131.4C772.881 131.4 774.841 130.48 776.201 129.16C778.001 127.4 778.801 124.88 778.801 122.44C778.801 118.28 776.521 113.44 770.401 113.44C767.761 113.44 765.601 114.52 764.121 116.24C762.681 117.96 761.921 120.28 761.921 122.8ZM769.801 114.84C773.241 114.84 775.361 117.96 775.361 123.72C775.361 128.76 772.761 130 770.881 130C766.721 130 765.361 124.96 765.361 121.88C765.361 118.4 766.201 114.84 769.801 114.84ZM784.958 118.32V127.96C784.958 133.24 784.798 138.16 782.798 138.16C782.358 138.16 781.838 138 781.558 137.72C781.158 137.32 780.678 136.68 779.797 136.68C779.357 136.68 778.517 137.48 778.517 138.2C778.517 139.36 779.957 139.92 780.718 139.92C781.558 139.92 783.638 139.8 785.118 138.56C786.998 137.04 788.118 134.16 788.118 126.6V118.16C788.118 116.16 788.278 113.6 788.278 113.6C788.278 113.44 788.078 113.32 787.758 113.32C786.638 113.76 785.038 114.12 782.278 114.48C782.198 114.72 782.278 115.36 782.358 115.6C784.518 115.8 784.958 116.04 784.958 118.32ZM784.398 107.04C784.398 108.08 785.358 109.12 786.317 109.12C787.438 109.12 788.398 108.04 788.398 107.2C788.398 106.24 787.558 105.12 786.478 105.12C785.518 105.12 784.398 106.08 784.398 107.04ZM803.056 129.08C803.296 130.32 803.736 131.4 805.736 131.4C807.256 131.4 808.696 130.72 809.536 129.92C809.456 129.44 809.296 129.08 808.856 128.84C808.576 129.08 807.896 129.48 807.376 129.48C806.216 129.48 806.176 127.92 806.176 126.08V120.2C806.176 114.52 803.056 113.44 800.136 113.44C796.856 113.44 793.536 115.6 793.536 117.88C793.536 118.84 794.016 119.32 794.936 119.32C796.096 119.32 796.816 118.48 796.816 117.96C796.816 117.68 796.776 117.4 796.696 117.24C796.656 117.12 796.616 116.88 796.616 116.44C796.616 115.2 798.296 114.76 799.816 114.76C801.176 114.76 803.056 115.44 803.056 119.96C803.056 120.24 802.936 120.4 802.816 120.44L799.376 121.28C795.536 122.24 792.776 124.36 792.776 127.08C792.776 130.36 795.016 131.4 797.816 131.4C799.216 131.4 800.416 131.08 802.176 129.72L802.976 129.08H803.056ZM803.056 121.68V126.96C803.056 127.48 802.816 127.76 802.496 128C801.456 128.84 800.096 129.76 798.976 129.76C796.976 129.76 796.096 128.16 796.096 126.92C796.096 125.12 796.936 123.28 799.896 122.52L803.056 121.68ZM816.977 116.68C816.737 116.96 816.497 117.04 816.497 116.68C816.457 115.6 816.377 114.04 816.177 113.64C816.097 113.44 816.017 113.32 815.697 113.32C814.577 113.76 813.537 114.12 810.777 114.48C810.697 114.72 810.777 115.36 810.857 115.6C813.017 115.8 813.457 116 813.457 118.32V126.12C813.457 129.4 813.057 129.56 810.657 129.76C810.417 130 810.417 130.84 810.657 131.08C811.857 131.04 813.457 131 815.057 131C816.657 131 817.857 131.04 819.057 131.08C819.297 130.84 819.297 130 819.057 129.76C817.017 129.56 816.617 129.4 816.617 126.12V119.56C816.617 118.72 816.977 118.24 817.297 117.88C818.817 116.4 820.617 115.52 822.177 115.52C822.977 115.52 823.817 116.04 824.297 116.96C824.697 117.76 824.777 118.84 824.777 120.04V126.12C824.777 129.4 824.377 129.56 822.297 129.76C822.097 130 822.097 130.84 822.297 131.08C823.497 131.04 824.777 131 826.377 131C827.977 131 829.417 131.04 830.617 131.08C830.817 130.84 830.817 130 830.617 129.76C828.377 129.56 827.937 129.4 827.937 126.12V120.16C827.937 117.96 827.777 116.04 826.857 114.8C826.177 113.92 824.937 113.44 823.537 113.44C821.577 113.44 819.337 113.96 816.977 116.68ZM822.177 104.16L819.137 108.92C818.817 109.44 818.697 109.6 818.697 110.04C818.697 110.32 818.977 110.56 819.257 110.56C819.537 110.56 819.857 110.4 820.457 109.8L825.057 105.44L824.937 105C824.017 104.12 822.977 104.08 822.737 104.08C822.537 104.08 822.297 104.12 822.177 104.16ZM847.217 127.36C847.057 127 846.737 126.84 846.377 126.8C845.017 128.56 843.297 129.44 841.577 129.44C838.657 129.44 836.217 126.48 836.217 121.8C836.217 117.4 838.137 114.76 840.777 114.76C843.137 114.76 843.457 116.16 843.617 117.56C843.737 118.64 844.297 119 845.137 119C845.977 119 847.097 118.48 847.097 117.24C847.097 115.04 844.817 113.44 840.977 113.44C837.017 113.44 832.777 117 832.777 122.68C832.777 127.84 835.657 131.4 840.697 131.4C843.097 131.4 845.217 130.64 847.217 127.36ZM851.246 113.44C851.166 113.44 851.006 113.6 851.006 113.68C850.966 115.48 850.766 116.88 850.406 118.84C850.766 119 851.246 119.08 851.726 118.96C852.526 116.04 853.766 115.36 854.966 115.32L860.086 115.2C857.366 119.76 853.366 125.52 850.246 129.72C849.886 130.2 849.886 130.32 849.886 130.52C849.886 130.8 850.206 131 850.806 131L863.286 131.12C863.766 129.76 864.286 127.68 864.566 125.68C864.326 125.52 863.846 125.44 863.366 125.44L862.806 126.6C861.806 128.72 860.966 129.6 858.886 129.64H853.566C856.526 125.88 860.686 119.6 863.166 115.52C863.766 114.52 863.886 114.2 863.886 114.04C863.886 113.88 863.686 113.76 863.406 113.76C863.206 113.76 862.086 113.84 860.926 113.84H853.606C852.326 113.84 851.846 113.64 851.246 113.44ZM873.519 137.4C874.159 136.28 874.679 135.16 875.159 133.96C878.359 126.24 880.159 122.12 882.239 117.64C883.039 115.96 883.599 115.32 885.479 115.08C885.719 114.84 885.719 114 885.479 113.76C884.679 113.8 883.759 113.84 882.639 113.84C881.439 113.84 880.199 113.8 878.999 113.76C878.759 114 878.759 114.84 878.999 115.08C880.279 115.2 881.559 115.44 880.919 116.88L876.959 126.04C876.679 126.68 876.319 126.8 875.999 126L872.439 117.68C871.719 116 871.519 115.24 873.759 115.08C873.999 114.84 873.999 114 873.759 113.76C872.279 113.8 870.679 113.84 869.239 113.84C867.879 113.84 866.799 113.8 865.999 113.76C865.759 114 865.759 114.84 865.999 115.08C867.599 115.28 868.119 115.64 869.159 118.08L873.679 128.6C874.039 129.4 874.639 131.24 874.239 132.36C873.759 133.68 873.279 134.8 872.679 136.04C872.239 136.84 871.679 137.2 870.679 137.2C870.119 137.2 869.959 137.08 869.519 137.08C868.359 137.08 867.759 138.28 867.759 138.8C867.759 139.64 868.559 140.28 869.639 140.28C870.479 140.28 872.079 139.96 873.519 137.4ZM889.385 126.12C889.385 129.44 888.945 129.6 886.705 129.76C886.465 130 886.465 130.84 886.705 131.08C888.025 131.04 889.385 131 890.985 131C892.385 131 893.705 131.04 894.625 131.08C894.865 130.84 894.865 130 894.625 129.76C892.985 129.6 892.545 129.44 892.545 126.12V122.64C893.305 122.68 893.865 122.72 894.265 122.84C894.705 123.16 895.065 123.52 895.545 124.16L898.465 128.08C899.625 129.64 900.105 130.4 900.145 130.88C900.145 131 900.185 131.08 900.305 131.08C901.105 131.04 901.985 131 902.785 131C904.025 131 905.265 131.04 906.065 131.08C906.305 130.84 906.305 130 906.065 129.76C904.705 129.6 903.705 129.44 902.625 128.08L897.345 121.44C897.185 121.24 897.065 121.08 897.065 120.88C897.065 120.72 897.065 120.64 897.225 120.48L900.745 116.84C901.945 115.56 903.345 115.24 904.945 115.08C905.185 114.84 905.185 114 904.945 113.76C904.025 113.8 902.905 113.84 901.465 113.84C899.945 113.84 898.465 113.8 897.545 113.76C897.305 114 897.305 114.84 897.545 115.08C899.785 115.24 898.825 116.64 898.465 117.12C897.545 118.28 896.305 119.64 895.265 120.4C894.385 121.04 893.305 121.52 892.545 121.64V107.68C892.545 105.08 892.705 103.48 892.705 103.48C892.705 103.2 892.545 103.08 892.185 103.08C891.185 103.48 888.185 104.04 886.585 104.16C886.505 104.48 886.585 105.12 886.825 105.36C886.945 105.36 887.065 105.36 887.185 105.36C888.945 105.48 889.385 105.48 889.385 108.64V126.12Z" fill="#EB5757"/>
<rect id="first-order_intro" opacity="0.5" x="57" y="251" width="376" height="282" fill="#FF0000"/>
<rect id="this_talk" opacity="0.5" x="498" y="243" width="478" height="359" fill="#FF0000"/>
<path id="Closing_comments" d="M98.28 661.4C102.16 661.4 105.72 659.56 108.44 656C108.24 655.64 107.96 655.4 107.52 655.4C104.68 658.52 101.96 659.76 98.24 659.76C92.84 659.76 89.12 653.68 89.12 647.84C89.12 644.4 90.04 641.52 91.48 639.72C93.48 637.28 95.8 636.16 97.88 636.16C103.4 636.16 105.6 639.44 106.64 642.88C107.12 643.04 107.52 642.92 107.96 642.68C107.76 640.6 107.48 638.68 107.08 636.48C105.04 636.28 103.24 634.68 98.32 634.68C94.92 634.68 92.08 635.92 89.72 638.08C87.08 640.52 85.48 644.44 85.48 648.6C85.48 655.56 89.68 661.4 98.28 661.4ZM113.659 656.12C113.659 659.44 113.219 659.64 110.779 659.76C110.539 660 110.539 660.84 110.779 661.08C112.179 661.04 113.659 661 115.259 661C116.859 661 118.379 661.04 119.699 661.08C119.939 660.84 119.939 660 119.699 659.76C117.259 659.64 116.819 659.44 116.819 656.12V637.68C116.819 635.08 116.979 633.48 116.979 633.48C116.979 633.2 116.819 633.08 116.459 633.08C115.459 633.48 112.459 634.04 110.859 634.16C110.779 634.48 110.859 635.12 111.099 635.36C113.419 635.52 113.659 635.64 113.659 638.64V656.12ZM122.046 652.8C122.046 656.88 124.766 661.4 130.446 661.4C133.006 661.4 134.966 660.48 136.326 659.16C138.126 657.4 138.926 654.88 138.926 652.44C138.926 648.28 136.646 643.44 130.526 643.44C127.886 643.44 125.726 644.52 124.246 646.24C122.806 647.96 122.046 650.28 122.046 652.8ZM129.926 644.84C133.366 644.84 135.486 647.96 135.486 653.72C135.486 658.76 132.886 660 131.006 660C126.846 660 125.486 654.96 125.486 651.88C125.486 648.4 126.326 644.84 129.926 644.84ZM142.483 655.48C142.643 657.44 142.763 659.32 142.763 661C143.163 660.92 143.563 660.88 143.763 660.88C144.043 660.88 144.283 660.88 144.563 660.96C145.643 661.24 146.723 661.4 148.203 661.4C150.443 661.4 154.563 660.32 154.563 656.36C154.563 653.64 152.603 652.04 149.883 651.04C147.483 650.12 145.883 649.52 145.883 647.32C145.883 645.68 147.323 644.76 148.683 644.76C149.563 644.76 151.883 645.08 152.403 648.48C152.643 648.72 153.443 648.68 153.683 648.44C153.803 647 153.883 645.52 153.923 644.2C152.683 644 150.763 643.44 148.683 643.44C145.723 643.44 143.043 645.36 143.043 647.92C143.043 650.84 144.363 652.08 147.443 653.36C150.763 654.72 151.523 655.56 151.523 657.28C151.523 659.24 149.603 660.08 148.123 660.08C146.563 660.08 145.683 659.56 145.283 659.12C144.403 658.2 143.963 656.44 143.723 655.44C143.483 655.2 142.723 655.24 142.483 655.48ZM163.388 656.12V648.16C163.388 646.16 163.548 643.6 163.548 643.6C163.548 643.44 163.348 643.32 163.028 643.32C161.908 643.76 160.308 644.12 157.548 644.48C157.468 644.72 157.548 645.36 157.628 645.6C159.828 645.8 160.228 646.04 160.228 648.32V656.12C160.228 659.44 159.788 659.56 157.348 659.76C157.108 660 157.108 660.84 157.348 661.08C158.668 661.04 160.228 661 161.828 661C163.428 661 164.948 661.04 166.268 661.08C166.508 660.84 166.508 660 166.268 659.76C163.828 659.6 163.388 659.44 163.388 656.12ZM159.748 637.04C159.748 638.08 160.708 639.12 161.668 639.12C162.788 639.12 163.748 638.04 163.748 637.2C163.748 636.24 162.908 635.12 161.828 635.12C160.868 635.12 159.748 636.08 159.748 637.04ZM174.368 646.68C174.128 646.96 173.888 647.04 173.888 646.68C173.848 645.6 173.768 644.04 173.568 643.64C173.488 643.44 173.408 643.32 173.088 643.32C171.968 643.76 170.928 644.12 168.168 644.48C168.088 644.72 168.168 645.36 168.248 645.6C170.408 645.8 170.848 646 170.848 648.32V656.12C170.848 659.4 170.448 659.56 168.048 659.76C167.808 660 167.808 660.84 168.048 661.08C169.248 661.04 170.848 661 172.448 661C174.048 661 175.248 661.04 176.448 661.08C176.688 660.84 176.688 660 176.448 659.76C174.408 659.56 174.008 659.4 174.008 656.12V649.56C174.008 648.72 174.368 648.24 174.688 647.88C176.208 646.4 178.008 645.52 179.568 645.52C180.368 645.52 181.208 646.04 181.688 646.96C182.088 647.76 182.168 648.84 182.168 650.04V656.12C182.168 659.4 181.768 659.56 179.688 659.76C179.488 660 179.488 660.84 179.688 661.08C180.888 661.04 182.168 661 183.768 661C185.368 661 186.808 661.04 188.008 661.08C188.208 660.84 188.208 660 188.008 659.76C185.768 659.56 185.328 659.4 185.328 656.12V650.16C185.328 647.96 185.168 646.04 184.248 644.8C183.568 643.92 182.328 643.44 180.928 643.44C178.968 643.44 176.728 643.96 174.368 646.68ZM206.448 645.52C207.208 645.52 207.928 644.8 207.928 644C207.928 643.16 207.168 642.52 206.088 642.52C205.048 642.52 203.128 643.2 202.088 644.56C201.608 644.24 200.288 643.44 197.928 643.44C194.368 643.44 191.088 645.84 191.088 649.52C191.088 651.68 192.048 652.92 193.168 654C192.048 654.96 191.408 656.68 191.408 658.04C191.408 659.48 192.208 660.6 193.248 661.12C191.088 662.4 189.968 664.24 189.968 665.96C189.968 669.44 193.248 670.52 196.328 670.52C201.728 670.52 207.568 667.92 207.568 663.6C207.568 662.32 206.968 661.32 205.808 660.36C204.248 659.08 201.448 659.04 199.968 659.04C199.247 659.04 198.248 659.12 197.288 659.24C196.688 659.28 196.288 659.32 196.088 659.32C194.928 659.32 193.528 658.76 193.528 657.04C193.528 656.24 193.768 655.4 194.248 654.72C195.208 655.28 196.328 655.56 197.888 655.56C201.408 655.56 204.648 653.36 204.648 649.44C204.648 647.56 204.088 646.48 202.928 645.28C203.208 644.88 204.008 644.32 204.528 644.32C204.808 644.32 205.088 644.44 205.328 644.8C205.488 645.12 206.008 645.52 206.448 645.52ZM193.967 661.4C194.408 661.52 195.048 661.6 195.568 661.6C196.808 661.6 197.928 661.48 198.488 661.48C200.488 661.48 202.168 661.52 203.328 662.16C204.888 663.04 205.368 663.6 205.368 664.64C205.368 667.52 201.128 669.04 197.528 669.04C196.088 669.04 192.728 667.88 192.728 665.16C192.728 663.8 192.808 662.8 193.967 661.4ZM201.448 649.84C201.448 653.56 199.568 654.32 198.088 654.32C194.728 654.32 194.368 651.48 194.368 648.92C194.368 646.12 195.368 644.68 197.568 644.68C200.088 644.68 201.448 646.52 201.448 649.84ZM234.608 657.36C234.448 657 234.128 656.84 233.768 656.8C232.408 658.56 230.688 659.44 228.967 659.44C226.048 659.44 223.608 656.48 223.608 651.8C223.608 647.4 225.528 644.76 228.168 644.76C230.528 644.76 230.848 646.16 231.008 647.56C231.128 648.64 231.688 649 232.528 649C233.368 649 234.488 648.48 234.488 647.24C234.488 645.04 232.208 643.44 228.368 643.44C224.408 643.44 220.168 647 220.168 652.68C220.168 657.84 223.048 661.4 228.088 661.4C230.488 661.4 232.608 660.64 234.608 657.36ZM237.437 652.8C237.437 656.88 240.157 661.4 245.837 661.4C248.397 661.4 250.357 660.48 251.717 659.16C253.517 657.4 254.317 654.88 254.317 652.44C254.317 648.28 252.037 643.44 245.917 643.44C243.277 643.44 241.117 644.52 239.637 646.24C238.197 647.96 237.437 650.28 237.437 652.8ZM245.317 644.84C248.757 644.84 250.877 647.96 250.877 653.72C250.877 658.76 248.277 660 246.397 660C242.237 660 240.877 654.96 240.877 651.88C240.877 648.4 241.717 644.84 245.317 644.84ZM262.753 646.68C262.713 645.48 262.633 644.04 262.433 643.64C262.353 643.44 262.273 643.32 261.953 643.32C260.833 643.76 259.793 644.12 257.033 644.48C256.953 644.72 257.033 645.36 257.113 645.6C259.273 645.8 259.713 646 259.713 648.32V656.12C259.713 659.4 259.193 659.6 256.993 659.76C256.753 660 256.753 660.84 256.993 661.08C258.193 661.04 259.713 661 261.313 661C262.913 661 264.153 661.04 265.353 661.08C265.593 660.84 265.593 660 265.353 659.76C263.313 659.56 262.873 659.4 262.873 656.12V649.56C262.873 648.72 263.233 648.24 263.553 647.88C265.153 646.32 266.633 645.52 267.873 645.52C269.393 645.52 270.513 646.48 270.513 649.16V656.12C270.513 659.4 270.193 659.6 268.033 659.76C267.833 660 267.833 660.84 268.033 661.08C269.033 661.04 270.513 661 272.113 661C273.713 661 275.033 661.04 276.033 661.08C276.233 660.84 276.233 660 276.033 659.76C274.033 659.6 273.673 659.4 273.673 656.12V649.76C273.673 649.2 273.673 648.64 273.633 648.16C275.553 646.04 277.353 645.52 278.913 645.52C280.433 645.52 281.313 646.4 281.313 649.08V656.12C281.313 659.4 280.913 659.6 278.833 659.76C278.633 660 278.633 660.84 278.833 661.08C279.833 661.04 281.313 661 282.913 661C284.513 661 285.913 661.04 287.033 661.08C287.233 660.84 287.233 660 287.033 659.76C284.833 659.6 284.473 659.4 284.473 656.12V649.8C284.473 646.24 283.873 643.44 280.353 643.44C278.313 643.44 275.833 644.2 273.753 646.4C273.633 646.52 273.393 646.72 273.313 646.36C272.953 644.72 271.393 643.44 269.313 643.44C266.993 643.44 264.913 644.8 263.233 646.68C263.033 646.88 262.793 647.16 262.753 646.68ZM294.355 646.68C294.315 645.48 294.235 644.04 294.035 643.64C293.955 643.44 293.875 643.32 293.555 643.32C292.435 643.76 291.395 644.12 288.635 644.48C288.555 644.72 288.635 645.36 288.715 645.6C290.875 645.8 291.315 646 291.315 648.32V656.12C291.315 659.4 290.795 659.6 288.595 659.76C288.355 660 288.355 660.84 288.595 661.08C289.795 661.04 291.315 661 292.915 661C294.515 661 295.755 661.04 296.955 661.08C297.195 660.84 297.195 660 296.955 659.76C294.915 659.56 294.475 659.4 294.475 656.12V649.56C294.475 648.72 294.835 648.24 295.155 647.88C296.755 646.32 298.235 645.52 299.475 645.52C300.995 645.52 302.115 646.48 302.115 649.16V656.12C302.115 659.4 301.795 659.6 299.635 659.76C299.435 660 299.435 660.84 299.635 661.08C300.635 661.04 302.115 661 303.715 661C305.315 661 306.635 661.04 307.635 661.08C307.835 660.84 307.835 660 307.635 659.76C305.635 659.6 305.275 659.4 305.275 656.12V649.76C305.275 649.2 305.275 648.64 305.235 648.16C307.155 646.04 308.955 645.52 310.515 645.52C312.035 645.52 312.915 646.4 312.915 649.08V656.12C312.915 659.4 312.515 659.6 310.435 659.76C310.235 660 310.235 660.84 310.435 661.08C311.435 661.04 312.915 661 314.515 661C316.115 661 317.515 661.04 318.635 661.08C318.835 660.84 318.835 660 318.635 659.76C316.435 659.6 316.075 659.4 316.075 656.12V649.8C316.075 646.24 315.475 643.44 311.955 643.44C309.915 643.44 307.435 644.2 305.355 646.4C305.235 646.52 304.995 646.72 304.915 646.36C304.555 644.72 302.995 643.44 300.915 643.44C298.595 643.44 296.515 644.8 294.835 646.68C294.635 646.88 294.395 647.16 294.355 646.68ZM334.596 657.28C333.116 658.8 331.956 659.44 329.636 659.44C328.196 659.44 326.516 658.6 325.276 656.56C324.476 655.24 323.996 653.4 323.996 651.08L334.636 651.16C335.116 651.16 335.396 650.92 335.396 650.48C335.396 647.12 334.196 643.52 328.636 643.52C325.156 643.52 320.636 646.84 320.636 652.92C320.636 655.16 321.196 657.32 322.516 658.84C323.876 660.44 325.756 661.4 328.636 661.4C331.676 661.4 333.836 660 335.436 657.92C335.316 657.52 335.076 657.32 334.596 657.28ZM324.116 649.72C324.876 645.2 327.676 644.84 328.636 644.84C330.156 644.84 331.956 645.68 331.956 649.04C331.956 649.4 331.796 649.6 331.356 649.6L324.116 649.72ZM344.407 646.68C344.167 646.96 343.927 647.04 343.927 646.68C343.887 645.6 343.807 644.04 343.607 643.64C343.527 643.44 343.447 643.32 343.127 643.32C342.007 643.76 340.967 644.12 338.207 644.48C338.127 644.72 338.207 645.36 338.287 645.6C340.447 645.8 340.887 646 340.887 648.32V656.12C340.887 659.4 340.487 659.56 338.087 659.76C337.847 660 337.847 660.84 338.087 661.08C339.287 661.04 340.887 661 342.487 661C344.087 661 345.287 661.04 346.487 661.08C346.727 660.84 346.727 660 346.487 659.76C344.447 659.56 344.047 659.4 344.047 656.12V649.56C344.047 648.72 344.407 648.24 344.727 647.88C346.247 646.4 348.047 645.52 349.607 645.52C350.407 645.52 351.247 646.04 351.727 646.96C352.127 647.76 352.207 648.84 352.207 650.04V656.12C352.207 659.4 351.807 659.56 349.727 659.76C349.527 660 349.527 660.84 349.727 661.08C350.927 661.04 352.207 661 353.807 661C355.407 661 356.847 661.04 358.047 661.08C358.247 660.84 358.247 660 358.047 659.76C355.807 659.56 355.367 659.4 355.367 656.12V650.16C355.367 647.96 355.207 646.04 354.287 644.8C353.607 643.92 352.367 643.44 350.967 643.44C349.007 643.44 346.767 643.96 344.407 646.68ZM360.447 643.84C359.887 643.84 359.727 644.32 359.727 644.64V645.16C359.727 645.36 359.767 645.4 359.927 645.4H362.287V657.44C362.287 660.28 363.527 661.4 365.367 661.4C367.207 661.4 369.207 660.52 370.767 658.76C370.687 658.36 370.447 658.12 370.047 658.08C369.007 658.88 367.807 659.2 366.767 659.2C365.687 659.2 365.447 658 365.447 655.52V645.4H369.607C370.007 645.4 370.567 645.24 370.567 644.88V644.08C370.567 643.92 370.447 643.84 370.247 643.84H365.447V642.28C365.447 639.68 365.607 638.08 365.607 638.08C365.607 637.84 365.487 637.72 365.287 637.72C365.127 637.72 364.767 637.88 364.407 638.08C363.967 638.32 363.567 638.52 363.047 638.64C362.567 638.8 362.167 638.92 362.167 639.2C362.167 639.68 362.287 639.4 362.287 643.84H360.447ZM373.303 655.48C373.463 657.44 373.583 659.32 373.583 661C373.983 660.92 374.383 660.88 374.583 660.88C374.863 660.88 375.103 660.88 375.383 660.96C376.463 661.24 377.543 661.4 379.023 661.4C381.263 661.4 385.383 660.32 385.383 656.36C385.383 653.64 383.423 652.04 380.703 651.04C378.303 650.12 376.703 649.52 376.703 647.32C376.703 645.68 378.143 644.76 379.503 644.76C380.383 644.76 382.703 645.08 383.223 648.48C383.463 648.72 384.263 648.68 384.503 648.44C384.623 647 384.703 645.52 384.743 644.2C383.503 644 381.583 643.44 379.503 643.44C376.543 643.44 373.863 645.36 373.863 647.92C373.863 650.84 375.183 652.08 378.263 653.36C381.583 654.72 382.343 655.56 382.343 657.28C382.343 659.24 380.423 660.08 378.943 660.08C377.383 660.08 376.503 659.56 376.103 659.12C375.223 658.2 374.783 656.44 374.543 655.44C374.303 655.2 373.543 655.24 373.303 655.48Z" fill="black"/>
<path id="Background" d="M135.92 207.2C134.48 207.2 132.32 207.16 130.76 207.12C130.52 207.36 130.52 208.2 130.76 208.44C133.56 208.56 134.24 208.76 134.24 212.08V228.12C134.24 231.44 133.56 231.64 130.76 231.76C130.52 232 130.52 232.84 130.76 233.08C132.32 233.04 134.48 233 135.96 233C137.4 233 138.44 233.08 141.8 233.08C149.76 233.08 151.88 229.08 151.88 225.64C151.88 221.8 149.2 219.6 145.72 218.6V218.52C147.72 217.52 149.52 215.44 149.52 213.28C149.52 210.6 148.36 207.12 140.92 207.12C139.52 207.12 137.36 207.2 135.92 207.2ZM137.64 219.72H140.4C145.88 219.72 148.16 222.8 148.16 226.4C148.16 229.32 147.04 231.76 140.96 231.76C138.16 231.76 137.64 230.72 137.64 228.28V219.72ZM137.64 211C137.64 208.88 137.64 208.48 141.12 208.48C143.36 208.48 146.28 209.68 146.28 213.76C146.28 217.16 143.92 218.36 140.6 218.36H137.64V211ZM165.236 231.08C165.476 232.32 165.916 233.4 167.916 233.4C169.436 233.4 170.876 232.72 171.716 231.92C171.636 231.44 171.476 231.08 171.036 230.84C170.756 231.08 170.076 231.48 169.556 231.48C168.396 231.48 168.356 229.92 168.356 228.08V222.2C168.356 216.52 165.236 215.44 162.316 215.44C159.036 215.44 155.716 217.6 155.716 219.88C155.716 220.84 156.196 221.32 157.116 221.32C158.276 221.32 158.996 220.48 158.996 219.96C158.996 219.68 158.956 219.4 158.876 219.24C158.836 219.12 158.796 218.88 158.796 218.44C158.796 217.2 160.476 216.76 161.996 216.76C163.356 216.76 165.236 217.44 165.236 221.96C165.236 222.24 165.116 222.4 164.996 222.44L161.556 223.28C157.716 224.24 154.956 226.36 154.956 229.08C154.956 232.36 157.196 233.4 159.996 233.4C161.396 233.4 162.596 233.08 164.356 231.72L165.156 231.08H165.236ZM165.236 223.68V228.96C165.236 229.48 164.996 229.76 164.676 230C163.636 230.84 162.276 231.76 161.156 231.76C159.156 231.76 158.276 230.16 158.276 228.92C158.276 227.12 159.116 225.28 162.076 224.52L165.236 223.68ZM187.717 229.36C187.557 229 187.237 228.84 186.877 228.8C185.517 230.56 183.797 231.44 182.077 231.44C179.157 231.44 176.717 228.48 176.717 223.8C176.717 219.4 178.637 216.76 181.277 216.76C183.637 216.76 183.957 218.16 184.117 219.56C184.237 220.64 184.797 221 185.637 221C186.477 221 187.597 220.48 187.597 219.24C187.597 217.04 185.317 215.44 181.477 215.44C177.517 215.44 173.277 219 173.277 224.68C173.277 229.84 176.157 233.4 181.197 233.4C183.597 233.4 185.717 232.64 187.717 229.36ZM192.346 228.12C192.346 231.44 191.906 231.6 189.666 231.76C189.426 232 189.426 232.84 189.666 233.08C190.986 233.04 192.346 233 193.946 233C195.346 233 196.666 233.04 197.586 233.08C197.826 232.84 197.826 232 197.586 231.76C195.946 231.6 195.506 231.44 195.506 228.12V224.64C196.266 224.68 196.826 224.72 197.226 224.84C197.666 225.16 198.026 225.52 198.506 226.16L201.426 230.08C202.586 231.64 203.066 232.4 203.106 232.88C203.106 233 203.146 233.08 203.266 233.08C204.066 233.04 204.946 233 205.746 233C206.986 233 208.226 233.04 209.026 233.08C209.266 232.84 209.266 232 209.026 231.76C207.666 231.6 206.666 231.44 205.586 230.08L200.306 223.44C200.146 223.24 200.026 223.08 200.026 222.88C200.026 222.72 200.026 222.64 200.186 222.48L203.706 218.84C204.906 217.56 206.306 217.24 207.906 217.08C208.146 216.84 208.146 216 207.906 215.76C206.986 215.8 205.866 215.84 204.426 215.84C202.906 215.84 201.426 215.8 200.506 215.76C200.266 216 200.266 216.84 200.506 217.08C202.746 217.24 201.786 218.64 201.426 219.12C200.506 220.28 199.266 221.64 198.226 222.4C197.346 223.04 196.266 223.52 195.506 223.64V209.68C195.506 207.08 195.666 205.48 195.666 205.48C195.666 205.2 195.506 205.08 195.146 205.08C194.146 205.48 191.146 206.04 189.546 206.16C189.466 206.48 189.546 207.12 189.786 207.36C189.906 207.36 190.026 207.36 190.146 207.36C191.906 207.48 192.346 207.48 192.346 210.64V228.12ZM227.135 217.52C227.895 217.52 228.615 216.8 228.615 216C228.615 215.16 227.855 214.52 226.775 214.52C225.735 214.52 223.815 215.2 222.775 216.56C222.295 216.24 220.975 215.44 218.615 215.44C215.055 215.44 211.775 217.84 211.775 221.52C211.775 223.68 212.735 224.92 213.855 226C212.735 226.96 212.095 228.68 212.095 230.04C212.095 231.48 212.895 232.6 213.935 233.12C211.775 234.4 210.655 236.24 210.655 237.96C210.655 241.44 213.935 242.52 217.015 242.52C222.415 242.52 228.255 239.92 228.255 235.6C228.255 234.32 227.655 233.32 226.495 232.36C224.935 231.08 222.135 231.04 220.655 231.04C219.935 231.04 218.935 231.12 217.975 231.24C217.375 231.28 216.975 231.32 216.775 231.32C215.615 231.32 214.215 230.76 214.215 229.04C214.215 228.24 214.455 227.4 214.935 226.72C215.895 227.28 217.015 227.56 218.575 227.56C222.095 227.56 225.335 225.36 225.335 221.44C225.335 219.56 224.775 218.48 223.615 217.28C223.895 216.88 224.695 216.32 225.215 216.32C225.495 216.32 225.775 216.44 226.015 216.8C226.175 217.12 226.695 217.52 227.135 217.52ZM214.655 233.4C215.095 233.52 215.735 233.6 216.255 233.6C217.495 233.6 218.615 233.48 219.175 233.48C221.175 233.48 222.855 233.52 224.015 234.16C225.575 235.04 226.055 235.6 226.055 236.64C226.055 239.52 221.815 241.04 218.215 241.04C216.775 241.04 213.415 239.88 213.415 237.16C213.415 235.8 213.495 234.8 214.655 233.4ZM222.135 221.84C222.135 225.56 220.255 226.32 218.775 226.32C215.415 226.32 215.055 223.48 215.055 220.92C215.055 218.12 216.055 216.68 218.255 216.68C220.775 216.68 222.135 218.52 222.135 221.84ZM236.415 218.68C236.335 217.08 236.295 216.04 236.095 215.64C236.015 215.44 235.935 215.32 235.615 215.32C234.495 215.76 233.455 216.12 230.695 216.48C230.615 216.72 230.695 217.36 230.775 217.6C232.935 217.8 233.375 218 233.375 220.32V228.12C233.375 231.44 232.895 231.6 230.415 231.76C230.175 232 230.175 232.84 230.415 233.08C231.815 233.04 233.375 233 234.975 233C236.575 233 238.415 233.04 239.815 233.08C240.055 232.84 240.055 232 239.815 231.76C237.015 231.56 236.535 231.44 236.535 228.12V222.56C236.535 221.52 237.015 220.6 237.495 219.88C237.935 219.24 238.855 217.92 239.335 217.92C239.695 217.92 240.055 218 240.375 218.44C240.655 218.84 241.135 219.36 241.815 219.36C242.775 219.36 243.695 218.36 243.695 217.36C243.695 216.6 242.975 215.44 241.295 215.44C239.415 215.44 237.775 217.2 236.855 218.76C236.615 219.2 236.415 218.88 236.415 218.68ZM245.585 224.8C245.585 228.88 248.305 233.4 253.985 233.4C256.545 233.4 258.505 232.48 259.865 231.16C261.665 229.4 262.465 226.88 262.465 224.44C262.465 220.28 260.185 215.44 254.065 215.44C251.425 215.44 249.265 216.52 247.785 218.24C246.345 219.96 245.585 222.28 245.585 224.8ZM253.465 216.84C256.905 216.84 259.025 219.96 259.025 225.72C259.025 230.76 256.425 232 254.545 232C250.385 232 249.025 226.96 249.025 223.88C249.025 220.4 249.865 216.84 253.465 216.84ZM272.782 233.4C274.342 233.4 276.222 232.6 278.182 231C278.382 230.84 278.742 230.76 278.782 231.04C278.902 232.04 279.222 233.4 279.222 233.4C279.542 233.52 279.742 233.48 279.982 233.4C280.862 232.68 282.262 232.08 284.702 231.8C284.942 231.56 284.942 230.96 284.702 230.72C282.142 230.52 281.782 229.76 281.782 227.8V220.12C281.782 218.92 281.942 216 281.942 216C281.942 215.88 281.822 215.76 281.622 215.76C281.422 215.8 280.822 215.84 280.222 215.84C278.942 215.84 277.502 215.8 276.142 215.76C275.902 216 275.902 216.84 276.142 217.08C278.102 217.2 278.622 217.68 278.622 220.32V228.04C278.622 228.8 278.542 229.12 277.982 229.6C276.502 230.88 274.982 231.52 273.982 231.52C272.782 231.52 270.782 230.96 270.782 227.4V220.12C270.782 218.92 270.942 216 270.942 216C270.942 215.88 270.822 215.76 270.622 215.76C270.422 215.8 269.822 215.84 269.222 215.84C267.942 215.84 266.502 215.8 265.142 215.76C264.902 216 264.902 216.84 265.142 217.08C267.062 217.24 267.622 217.68 267.622 220.28V227.96C267.622 230.72 268.822 233.4 272.782 233.4ZM292.712 218.68C292.472 218.96 292.232 219.04 292.232 218.68C292.192 217.6 292.112 216.04 291.912 215.64C291.832 215.44 291.752 215.32 291.432 215.32C290.312 215.76 289.272 216.12 286.512 216.48C286.432 216.72 286.512 217.36 286.592 217.6C288.752 217.8 289.192 218 289.192 220.32V228.12C289.192 231.4 288.792 231.56 286.392 231.76C286.152 232 286.152 232.84 286.392 233.08C287.592 233.04 289.192 233 290.792 233C292.392 233 293.592 233.04 294.792 233.08C295.032 232.84 295.032 232 294.792 231.76C292.752 231.56 292.352 231.4 292.352 228.12V221.56C292.352 220.72 292.712 220.24 293.032 219.88C294.552 218.4 296.352 217.52 297.912 217.52C298.712 217.52 299.552 218.04 300.032 218.96C300.432 219.76 300.512 220.84 300.512 222.04V228.12C300.512 231.4 300.112 231.56 298.032 231.76C297.832 232 297.832 232.84 298.032 233.08C299.232 233.04 300.512 233 302.112 233C303.712 233 305.152 233.04 306.352 233.08C306.552 232.84 306.552 232 306.352 231.76C304.112 231.56 303.672 231.4 303.672 228.12V222.16C303.672 219.96 303.512 218.04 302.592 216.8C301.912 215.92 300.672 215.44 299.272 215.44C297.312 215.44 295.072 215.96 292.712 218.68ZM320.391 231C320.591 230.84 320.951 230.76 320.991 231.04C321.111 232 321.431 233.4 321.431 233.4C321.751 233.52 321.951 233.48 322.191 233.4C323.071 232.68 324.471 232.08 326.911 231.8C327.151 231.56 327.151 230.96 326.911 230.72C324.351 230.52 323.991 229.76 323.991 227.8V209.68C323.991 207.08 324.151 205.48 324.151 205.48C324.151 205.2 323.991 205.08 323.631 205.08C322.631 205.48 319.631 206.04 318.031 206.16C317.951 206.48 318.031 207.12 318.271 207.36C318.391 207.36 318.511 207.36 318.631 207.36C320.391 207.48 320.831 207.48 320.831 210.64V215.76C320.831 216.04 320.751 216.12 320.471 216.12C320.311 216.12 318.671 215.44 317.351 215.44C314.711 215.44 312.951 216.32 311.351 217.84C309.631 219.56 308.591 221.92 308.591 224.88C308.591 229.8 311.071 233.4 315.391 233.4C316.951 233.4 318.431 232.6 320.391 231ZM320.831 228.04C320.831 228.8 320.751 229.12 320.191 229.6C318.711 230.88 317.431 231.52 316.431 231.52C314.271 231.52 312.031 229.16 312.031 224.16C312.031 221.28 312.591 219.68 313.191 218.84C314.431 216.96 316.111 216.84 316.911 216.84C318.351 216.84 319.351 217.36 320.151 218.28C320.711 218.92 320.831 219.2 320.831 220.44V228.04Z" fill="black"/>
<path id="The_expressions_&#38;_their_logic" d="M512 228.12V212.84C512 210.28 512.4 208.76 513.84 208.76H514.72C517.72 208.76 519.6 209.8 520.28 212.88C520.72 212.88 521.28 212.84 521.64 212.68C521.36 210.84 521.16 208.8 521.12 207C521.12 206.96 521.04 206.88 521 206.88C519.64 207 515.2 207.2 512.04 207.2H508.6C505.52 207.2 500.8 207 499.28 206.88C499.2 206.88 499.12 206.96 499.12 207C498.96 208.8 498.56 210.88 498.12 212.8C498.52 212.96 499 213 499.48 213C500.28 209.8 502.12 208.76 504.76 208.76H506.72C508.2 208.76 508.6 210.28 508.6 212.72V228.12C508.6 231.44 507.92 231.64 504.72 231.76C504.48 232 504.48 232.84 504.72 233.08C506.68 233.04 508.72 233 510.32 233C511.84 233 513.88 233.04 515.88 233.08C516.12 232.84 516.12 232 515.88 231.76C512.68 231.64 512 231.44 512 228.12ZM528.547 221.56C528.547 220.72 528.907 220.24 529.227 219.88C530.747 218.4 532.787 217.52 534.347 217.52C535.147 217.52 535.987 218.04 536.467 218.96C536.867 219.76 536.947 220.84 536.947 222.04V228.12C536.947 231.4 536.547 231.56 534.467 231.76C534.267 232 534.267 232.84 534.467 233.08C535.587 233.04 536.947 233 538.547 233C540.147 233 541.467 233.04 542.787 233.08C542.987 232.84 542.987 232 542.787 231.76C540.547 231.56 540.107 231.4 540.107 228.12V222.16C540.107 219.96 539.947 218 539.027 216.8C538.347 215.92 537.107 215.44 535.707 215.44C533.747 215.44 531.347 215.96 528.907 218.68C528.907 218.72 528.867 218.72 528.827 218.76C528.707 218.92 528.507 219.16 528.507 218.68L528.547 209.68C528.547 207.08 528.707 205.48 528.707 205.48C528.707 205.2 528.547 205.08 528.187 205.08C527.187 205.48 524.187 206.04 522.587 206.16C522.507 206.48 522.587 207.12 522.827 207.36C522.947 207.36 523.067 207.36 523.187 207.36C524.947 207.48 525.387 207.48 525.387 210.64V228.12C525.387 231.44 524.907 231.6 522.587 231.76C522.347 232 522.347 232.84 522.587 233.08C523.907 233.04 525.387 233 526.987 233C528.507 233 529.827 233.04 530.947 233.08C531.187 232.84 531.187 232 530.947 231.76C528.907 231.6 528.547 231.44 528.547 228.12V221.56ZM558.831 229.28C557.351 230.8 556.191 231.44 553.871 231.44C552.431 231.44 550.751 230.6 549.511 228.56C548.711 227.24 548.231 225.4 548.231 223.08L558.871 223.16C559.351 223.16 559.631 222.92 559.631 222.48C559.631 219.12 558.431 215.52 552.871 215.52C549.391 215.52 544.871 218.84 544.871 224.92C544.871 227.16 545.431 229.32 546.751 230.84C548.111 232.44 549.991 233.4 552.871 233.4C555.911 233.4 558.071 232 559.671 229.92C559.551 229.52 559.311 229.32 558.831 229.28ZM548.351 221.72C549.111 217.2 551.911 216.84 552.871 216.84C554.391 216.84 556.191 217.68 556.191 221.04C556.191 221.4 556.031 221.6 555.591 221.6L548.351 221.72ZM586.721 229.28C585.241 230.8 584.081 231.44 581.761 231.44C580.321 231.44 578.641 230.6 577.401 228.56C576.601 227.24 576.121 225.4 576.121 223.08L586.761 223.16C587.241 223.16 587.521 222.92 587.521 222.48C587.521 219.12 586.321 215.52 580.761 215.52C577.281 215.52 572.761 218.84 572.761 224.92C572.761 227.16 573.321 229.32 574.641 230.84C576.001 232.44 577.881 233.4 580.761 233.4C583.801 233.4 585.961 232 587.561 229.92C587.441 229.52 587.201 229.32 586.721 229.28ZM576.241 221.72C577.001 217.2 579.801 216.84 580.761 216.84C582.281 216.84 584.081 217.68 584.081 221.04C584.081 221.4 583.921 221.6 583.481 221.6L576.241 221.72ZM596.178 218.68C595.258 217.32 595.538 217.28 597.338 217.08C597.578 216.84 597.578 216 597.338 215.76C596.258 215.8 594.498 215.84 593.298 215.84C592.098 215.84 590.898 215.8 589.858 215.76C589.618 216 589.618 216.84 589.858 217.08C591.218 217.2 592.338 217.88 593.458 219.52L596.938 224.6C597.138 224.88 597.138 225 596.978 225.2L593.618 229.52C592.018 231.56 591.138 231.68 589.738 231.76C589.498 232 589.498 232.84 589.738 233.08C590.538 233.04 591.418 233 592.618 233C593.818 233 594.938 233.04 595.978 233.08C596.218 232.84 596.218 232 595.978 231.76C594.538 231.6 594.218 231.44 595.098 230.16L597.618 226.52C597.938 226.04 598.098 226.08 598.338 226.44L600.658 229.64C602.058 231.56 601.418 231.64 600.138 231.76C599.898 232 599.898 232.84 600.138 233.08C601.338 233.04 602.658 233 604.098 233C605.618 233 606.698 233.04 607.658 233.08C607.898 232.84 607.898 232 607.658 231.76C605.858 231.64 605.258 231.52 603.658 229.24L600.058 224.16C599.898 223.92 599.858 223.8 600.058 223.56L603.418 219.28C604.898 217.4 605.858 217.2 607.298 217.08C607.538 216.84 607.538 216 607.298 215.76C606.498 215.8 605.578 215.84 604.378 215.84C603.178 215.84 602.058 215.8 601.018 215.76C600.778 216 600.778 216.84 601.018 217.08C602.498 217.24 602.938 217.36 601.978 218.72L599.378 222.36C599.098 222.76 598.938 222.72 598.618 222.28L596.178 218.68ZM614.748 218.28C614.708 217.08 614.628 216.04 614.428 215.64C614.348 215.44 614.268 215.32 613.948 215.32C612.828 215.76 611.788 216.12 609.028 216.48C608.948 216.72 609.028 217.36 609.108 217.6C611.268 217.8 611.708 218 611.708 220.32V237.4C611.708 240.72 611.268 240.92 608.828 241.04C608.588 241.28 608.588 242.12 608.828 242.36C610.228 242.32 611.708 242.28 613.308 242.28C614.908 242.28 616.828 242.32 618.148 242.36C618.388 242.12 618.388 241.28 618.148 241.04C615.308 240.88 614.868 240.72 614.868 237.4V233.08C614.868 232.56 615.028 232.6 615.428 232.76C616.428 233.16 617.628 233.4 618.908 233.4C621.148 233.4 623.148 232.72 624.788 231.16C626.668 229.32 627.748 226.84 627.748 223.6C627.748 219.36 624.748 215.44 620.668 215.44C618.828 215.44 616.788 216.64 615.188 218.44C614.948 218.68 614.788 218.68 614.748 218.28ZM615.508 219.76C616.548 218.48 618.388 217.28 619.548 217.28C622.108 217.28 624.308 220.16 624.308 224.68C624.308 227.96 623.148 232.04 618.668 232.04C617.948 232.04 616.548 231.84 615.828 231.2C615.028 230.48 614.868 230.24 614.868 228.8V221.52C614.868 220.68 615.028 220.32 615.508 219.76ZM636.29 218.68C636.21 217.08 636.17 216.04 635.97 215.64C635.89 215.44 635.81 215.32 635.49 215.32C634.37 215.76 633.33 216.12 630.57 216.48C630.49 216.72 630.57 217.36 630.65 217.6C632.81 217.8 633.25 218 633.25 220.32V228.12C633.25 231.44 632.77 231.6 630.29 231.76C630.05 232 630.05 232.84 630.29 233.08C631.69 233.04 633.25 233 634.85 233C636.45 233 638.29 233.04 639.69 233.08C639.93 232.84 639.93 232 639.69 231.76C636.89 231.56 636.41 231.44 636.41 228.12V222.56C636.41 221.52 636.89 220.6 637.37 219.88C637.81 219.24 638.73 217.92 639.21 217.92C639.57 217.92 639.93 218 640.25 218.44C640.53 218.84 641.01 219.36 641.69 219.36C642.65 219.36 643.57 218.36 643.57 217.36C643.57 216.6 642.85 215.44 641.17 215.44C639.29 215.44 637.65 217.2 636.73 218.76C636.49 219.2 636.29 218.88 636.29 218.68ZM659.26 229.28C657.78 230.8 656.62 231.44 654.3 231.44C652.86 231.44 651.18 230.6 649.94 228.56C649.14 227.24 648.66 225.4 648.66 223.08L659.3 223.16C659.78 223.16 660.06 222.92 660.06 222.48C660.06 219.12 658.86 215.52 653.3 215.52C649.82 215.52 645.3 218.84 645.3 224.92C645.3 227.16 645.86 229.32 647.18 230.84C648.54 232.44 650.42 233.4 653.3 233.4C656.34 233.4 658.5 232 660.1 229.92C659.98 229.52 659.74 229.32 659.26 229.28ZM648.78 221.72C649.54 217.2 652.34 216.84 653.3 216.84C654.82 216.84 656.62 217.68 656.62 221.04C656.62 221.4 656.46 221.6 656.02 221.6L648.78 221.72ZM663.631 227.48C663.791 229.44 663.911 231.32 663.911 233C664.311 232.92 664.711 232.88 664.911 232.88C665.191 232.88 665.431 232.88 665.711 232.96C666.791 233.24 667.871 233.4 669.351 233.4C671.591 233.4 675.711 232.32 675.711 228.36C675.711 225.64 673.751 224.04 671.031 223.04C668.631 222.12 667.031 221.52 667.031 219.32C667.031 217.68 668.471 216.76 669.831 216.76C670.711 216.76 673.031 217.08 673.551 220.48C673.791 220.72 674.591 220.68 674.831 220.44C674.951 219 675.031 217.52 675.071 216.2C673.831 216 671.911 215.44 669.831 215.44C666.871 215.44 664.191 217.36 664.191 219.92C664.191 222.84 665.511 224.08 668.591 225.36C671.911 226.72 672.671 227.56 672.671 229.28C672.671 231.24 670.751 232.08 669.271 232.08C667.711 232.08 666.831 231.56 666.431 231.12C665.551 230.2 665.111 228.44 664.871 227.44C664.631 227.2 663.871 227.24 663.631 227.48ZM679.217 227.48C679.377 229.44 679.497 231.32 679.497 233C679.897 232.92 680.297 232.88 680.497 232.88C680.777 232.88 681.017 232.88 681.297 232.96C682.377 233.24 683.457 233.4 684.937 233.4C687.177 233.4 691.297 232.32 691.297 228.36C691.297 225.64 689.337 224.04 686.617 223.04C684.217 222.12 682.617 221.52 682.617 219.32C682.617 217.68 684.057 216.76 685.417 216.76C686.297 216.76 688.617 217.08 689.137 220.48C689.377 220.72 690.177 220.68 690.417 220.44C690.537 219 690.617 217.52 690.657 216.2C689.417 216 687.497 215.44 685.417 215.44C682.457 215.44 679.777 217.36 679.777 219.92C679.777 222.84 681.097 224.08 684.177 225.36C687.497 226.72 688.257 227.56 688.257 229.28C688.257 231.24 686.337 232.08 684.857 232.08C683.297 232.08 682.417 231.56 682.017 231.12C681.137 230.2 680.697 228.44 680.457 227.44C680.217 227.2 679.457 227.24 679.217 227.48ZM700.123 228.12V220.16C700.123 218.16 700.283 215.6 700.283 215.6C700.283 215.44 700.083 215.32 699.763 215.32C698.643 215.76 697.043 216.12 694.283 216.48C694.203 216.72 694.283 217.36 694.363 217.6C696.563 217.8 696.963 218.04 696.963 220.32V228.12C696.963 231.44 696.523 231.56 694.083 231.76C693.843 232 693.843 232.84 694.083 233.08C695.403 233.04 696.963 233 698.563 233C700.163 233 701.683 233.04 703.003 233.08C703.243 232.84 703.243 232 703.003 231.76C700.563 231.6 700.123 231.44 700.123 228.12ZM696.483 209.04C696.483 210.08 697.443 211.12 698.403 211.12C699.523 211.12 700.483 210.04 700.483 209.2C700.483 208.24 699.643 207.12 698.563 207.12C697.603 207.12 696.483 208.08 696.483 209.04ZM705.382 224.8C705.382 228.88 708.102 233.4 713.782 233.4C716.342 233.4 718.302 232.48 719.662 231.16C721.462 229.4 722.262 226.88 722.262 224.44C722.262 220.28 719.982 215.44 713.862 215.44C711.222 215.44 709.062 216.52 707.582 218.24C706.142 219.96 705.382 222.28 705.382 224.8ZM713.262 216.84C716.702 216.84 718.822 219.96 718.822 225.72C718.822 230.76 716.222 232 714.342 232C710.182 232 708.822 226.96 708.822 223.88C708.822 220.4 709.662 216.84 713.262 216.84ZM731.258 218.68C731.018 218.96 730.778 219.04 730.778 218.68C730.738 217.6 730.658 216.04 730.458 215.64C730.378 215.44 730.298 215.32 729.978 215.32C728.858 215.76 727.818 216.12 725.058 216.48C724.978 216.72 725.058 217.36 725.138 217.6C727.298 217.8 727.738 218 727.738 220.32V228.12C727.738 231.4 727.338 231.56 724.938 231.76C724.698 232 724.698 232.84 724.938 233.08C726.138 233.04 727.738 233 729.338 233C730.938 233 732.138 233.04 733.338 233.08C733.578 232.84 733.578 232 733.338 231.76C731.298 231.56 730.898 231.4 730.898 228.12V221.56C730.898 220.72 731.258 220.24 731.578 219.88C733.098 218.4 734.898 217.52 736.458 217.52C737.258 217.52 738.098 218.04 738.578 218.96C738.978 219.76 739.058 220.84 739.058 222.04V228.12C739.058 231.4 738.658 231.56 736.578 231.76C736.378 232 736.378 232.84 736.578 233.08C737.778 233.04 739.058 233 740.658 233C742.258 233 743.698 233.04 744.898 233.08C745.098 232.84 745.098 232 744.898 231.76C742.658 231.56 742.218 231.4 742.218 228.12V222.16C742.218 219.96 742.058 218.04 741.138 216.8C740.458 215.92 739.218 215.44 737.818 215.44C735.858 215.44 733.618 215.96 731.258 218.68ZM747.498 227.48C747.658 229.44 747.778 231.32 747.778 233C748.178 232.92 748.578 232.88 748.778 232.88C749.058 232.88 749.298 232.88 749.578 232.96C750.658 233.24 751.738 233.4 753.218 233.4C755.458 233.4 759.578 232.32 759.578 228.36C759.578 225.64 757.618 224.04 754.898 223.04C752.498 222.12 750.898 221.52 750.898 219.32C750.898 217.68 752.338 216.76 753.698 216.76C754.578 216.76 756.898 217.08 757.418 220.48C757.658 220.72 758.458 220.68 758.698 220.44C758.818 219 758.898 217.52 758.938 216.2C757.698 216 755.778 215.44 753.698 215.44C750.738 215.44 748.058 217.36 748.058 219.92C748.058 222.84 749.378 224.08 752.458 225.36C755.778 226.72 756.538 227.56 756.538 229.28C756.538 231.24 754.618 232.08 753.138 232.08C751.578 232.08 750.698 231.56 750.298 231.12C749.418 230.2 748.978 228.44 748.738 227.44C748.498 227.2 747.738 227.24 747.498 227.48ZM788.004 229.24L789.164 230.72C791.044 233.32 792.524 233.4 793.764 233.4C795.164 233.4 796.964 232.28 797.884 229.48C797.684 229.28 797.484 229.08 797.044 229.08C796.244 230.64 795.324 231.24 794.004 231.24C793.364 231.24 792.164 230.44 790.924 228.72L789.484 226.72C791.084 224.44 791.964 222.84 793.044 220.92C794.884 217.64 795.164 217.44 797.604 217.28C797.844 217.04 797.844 216.2 797.604 215.96C796.804 216 795.604 216.04 794.244 216.04C792.884 216.04 791.244 216 790.444 215.96C790.204 216.2 790.204 217.04 790.444 217.28C792.604 217.4 793.204 217.6 791.684 220.4C791.004 221.68 790.044 223.4 788.604 225.52C786.764 223.04 784.444 219.72 783.724 218.48L783.564 218.16C786.884 216.24 789.524 213.64 789.524 211.44C789.524 208.92 787.204 207.12 784.404 207.12C780.404 207.12 778.244 209.96 778.244 212.32C778.244 213.84 778.804 215.4 780.284 217.96C775.004 220.92 772.884 223.6 772.884 226.76C772.884 231.64 776.284 233.4 780.564 233.4C783.964 233.4 786.164 231.76 788.004 229.24ZM781.164 219.48C781.604 220.32 784.804 224.96 787.084 227.96C785.124 230.64 783.684 232.08 780.844 232.08C778.324 232.08 776.164 230.68 776.164 226.76C776.164 223.92 777.044 221.76 781.164 219.48ZM782.724 216.64C781.684 214.68 781.204 213.16 781.204 212.24C781.204 209.6 783.164 208.44 784.204 208.44C785.844 208.44 786.764 209.64 786.764 211.44C786.764 212.88 785.284 214.96 782.724 216.64ZM811.087 215.84C810.527 215.84 810.367 216.32 810.367 216.64V217.16C810.367 217.36 810.407 217.4 810.567 217.4H812.927V229.44C812.927 232.28 814.167 233.4 816.007 233.4C817.847 233.4 819.847 232.52 821.407 230.76C821.327 230.36 821.087 230.12 820.687 230.08C819.647 230.88 818.447 231.2 817.407 231.2C816.327 231.2 816.087 230 816.087 227.52V217.4H820.247C820.647 217.4 821.207 217.24 821.207 216.88V216.08C821.207 215.92 821.087 215.84 820.887 215.84H816.087V214.28C816.087 211.68 816.247 210.08 816.247 210.08C816.247 209.84 816.127 209.72 815.927 209.72C815.767 209.72 815.407 209.88 815.047 210.08C814.607 210.32 814.207 210.52 813.687 210.64C813.207 210.8 812.807 210.92 812.807 211.2C812.807 211.68 812.927 211.4 812.927 215.84H811.087ZM828.703 221.56C828.703 220.72 829.063 220.24 829.383 219.88C830.903 218.4 832.943 217.52 834.503 217.52C835.303 217.52 836.143 218.04 836.623 218.96C837.023 219.76 837.103 220.84 837.103 222.04V228.12C837.103 231.4 836.703 231.56 834.623 231.76C834.423 232 834.423 232.84 834.623 233.08C835.743 233.04 837.103 233 838.703 233C840.303 233 841.623 233.04 842.943 233.08C843.143 232.84 843.143 232 842.943 231.76C840.703 231.56 840.263 231.4 840.263 228.12V222.16C840.263 219.96 840.103 218 839.183 216.8C838.503 215.92 837.263 215.44 835.863 215.44C833.903 215.44 831.503 215.96 829.063 218.68C829.063 218.72 829.023 218.72 828.983 218.76C828.863 218.92 828.663 219.16 828.663 218.68L828.703 209.68C828.703 207.08 828.863 205.48 828.863 205.48C828.863 205.2 828.703 205.08 828.343 205.08C827.343 205.48 824.343 206.04 822.743 206.16C822.663 206.48 822.743 207.12 822.983 207.36C823.103 207.36 823.223 207.36 823.343 207.36C825.103 207.48 825.543 207.48 825.543 210.64V228.12C825.543 231.44 825.063 231.6 822.743 231.76C822.503 232 822.503 232.84 822.743 233.08C824.063 233.04 825.543 233 827.143 233C828.663 233 829.983 233.04 831.103 233.08C831.343 232.84 831.343 232 831.103 231.76C829.063 231.6 828.703 231.44 828.703 228.12V221.56ZM858.987 229.28C857.507 230.8 856.347 231.44 854.027 231.44C852.587 231.44 850.907 230.6 849.667 228.56C848.867 227.24 848.387 225.4 848.387 223.08L859.027 223.16C859.507 223.16 859.787 222.92 859.787 222.48C859.787 219.12 858.587 215.52 853.027 215.52C849.547 215.52 845.027 218.84 845.027 224.92C845.027 227.16 845.587 229.32 846.907 230.84C848.267 232.44 850.147 233.4 853.027 233.4C856.067 233.4 858.227 232 859.827 229.92C859.707 229.52 859.467 229.32 858.987 229.28ZM848.507 221.72C849.267 217.2 852.067 216.84 853.027 216.84C854.547 216.84 856.347 217.68 856.347 221.04C856.347 221.4 856.187 221.6 855.747 221.6L848.507 221.72ZM868.678 228.12V220.16C868.678 218.16 868.838 215.6 868.838 215.6C868.838 215.44 868.638 215.32 868.318 215.32C867.198 215.76 865.598 216.12 862.838 216.48C862.757 216.72 862.838 217.36 862.918 217.6C865.118 217.8 865.518 218.04 865.518 220.32V228.12C865.518 231.44 865.078 231.56 862.638 231.76C862.398 232 862.398 232.84 862.638 233.08C863.958 233.04 865.518 233 867.118 233C868.718 233 870.238 233.04 871.558 233.08C871.798 232.84 871.798 232 871.558 231.76C869.118 231.6 868.678 231.44 868.678 228.12ZM865.038 209.04C865.038 210.08 865.998 211.12 866.958 211.12C868.078 211.12 869.038 210.04 869.038 209.2C869.038 208.24 868.198 207.12 867.118 207.12C866.158 207.12 865.038 208.08 865.038 209.04ZM879.337 218.68C879.257 217.08 879.217 216.04 879.017 215.64C878.937 215.44 878.857 215.32 878.537 215.32C877.417 215.76 876.377 216.12 873.617 216.48C873.537 216.72 873.617 217.36 873.697 217.6C875.857 217.8 876.297 218 876.297 220.32V228.12C876.297 231.44 875.817 231.6 873.337 231.76C873.097 232 873.097 232.84 873.337 233.08C874.737 233.04 876.297 233 877.897 233C879.497 233 881.337 233.04 882.737 233.08C882.977 232.84 882.977 232 882.737 231.76C879.937 231.56 879.457 231.44 879.457 228.12V222.56C879.457 221.52 879.937 220.6 880.417 219.88C880.857 219.24 881.777 217.92 882.257 217.92C882.617 217.92 882.977 218 883.297 218.44C883.577 218.84 884.057 219.36 884.737 219.36C885.697 219.36 886.617 218.36 886.617 217.36C886.617 216.6 885.897 215.44 884.217 215.44C882.337 215.44 880.697 217.2 879.777 218.76C879.537 219.2 879.337 218.88 879.337 218.68ZM900.98 228.12C900.98 231.44 900.54 231.64 898.1 231.76C897.86 232 897.86 232.84 898.1 233.08C899.5 233.04 900.98 233 902.58 233C904.18 233 905.7 233.04 907.02 233.08C907.26 232.84 907.26 232 907.02 231.76C904.58 231.64 904.14 231.44 904.14 228.12V209.68C904.14 207.08 904.3 205.48 904.3 205.48C904.3 205.2 904.14 205.08 903.78 205.08C902.78 205.48 899.78 206.04 898.18 206.16C898.1 206.48 898.18 207.12 898.42 207.36C900.74 207.52 900.98 207.64 900.98 210.64V228.12ZM909.367 224.8C909.367 228.88 912.087 233.4 917.767 233.4C920.327 233.4 922.287 232.48 923.647 231.16C925.447 229.4 926.247 226.88 926.247 224.44C926.247 220.28 923.967 215.44 917.847 215.44C915.207 215.44 913.047 216.52 911.567 218.24C910.127 219.96 909.367 222.28 909.367 224.8ZM917.247 216.84C920.687 216.84 922.807 219.96 922.807 225.72C922.807 230.76 920.207 232 918.327 232C914.167 232 912.807 226.96 912.807 223.88C912.807 220.4 913.647 216.84 917.247 216.84ZM945.643 217.52C946.403 217.52 947.123 216.8 947.123 216C947.123 215.16 946.363 214.52 945.283 214.52C944.243 214.52 942.323 215.2 941.283 216.56C940.803 216.24 939.483 215.44 937.123 215.44C933.563 215.44 930.283 217.84 930.283 221.52C930.283 223.68 931.243 224.92 932.363 226C931.243 226.96 930.603 228.68 930.603 230.04C930.603 231.48 931.403 232.6 932.443 233.12C930.283 234.4 929.163 236.24 929.163 237.96C929.163 241.44 932.443 242.52 935.523 242.52C940.923 242.52 946.763 239.92 946.763 235.6C946.763 234.32 946.163 233.32 945.003 232.36C943.443 231.08 940.643 231.04 939.163 231.04C938.443 231.04 937.443 231.12 936.483 231.24C935.883 231.28 935.483 231.32 935.283 231.32C934.123 231.32 932.723 230.76 932.723 229.04C932.723 228.24 932.963 227.4 933.443 226.72C934.403 227.28 935.523 227.56 937.083 227.56C940.603 227.56 943.843 225.36 943.843 221.44C943.843 219.56 943.283 218.48 942.123 217.28C942.403 216.88 943.203 216.32 943.723 216.32C944.003 216.32 944.283 216.44 944.523 216.8C944.683 217.12 945.203 217.52 945.643 217.52ZM933.163 233.4C933.603 233.52 934.243 233.6 934.763 233.6C936.003 233.6 937.123 233.48 937.683 233.48C939.683 233.48 941.363 233.52 942.523 234.16C944.083 235.04 944.563 235.6 944.563 236.64C944.563 239.52 940.323 241.04 936.723 241.04C935.283 241.04 931.923 239.88 931.923 237.16C931.923 235.8 932.003 234.8 933.163 233.4ZM940.643 221.84C940.643 225.56 938.763 226.32 937.283 226.32C933.923 226.32 933.563 223.48 933.563 220.92C933.563 218.12 934.563 216.68 936.763 216.68C939.283 216.68 940.643 218.52 940.643 221.84ZM955.123 228.12V220.16C955.123 218.16 955.283 215.6 955.283 215.6C955.283 215.44 955.083 215.32 954.763 215.32C953.643 215.76 952.043 216.12 949.283 216.48C949.203 216.72 949.283 217.36 949.363 217.6C951.563 217.8 951.963 218.04 951.963 220.32V228.12C951.963 231.44 951.523 231.56 949.083 231.76C948.843 232 948.843 232.84 949.083 233.08C950.403 233.04 951.963 233 953.563 233C955.163 233 956.683 233.04 958.003 233.08C958.243 232.84 958.243 232 958.003 231.76C955.563 231.6 955.123 231.44 955.123 228.12ZM951.483 209.04C951.483 210.08 952.443 211.12 953.403 211.12C954.523 211.12 955.483 210.04 955.483 209.2C955.483 208.24 954.643 207.12 953.563 207.12C952.603 207.12 951.483 208.08 951.483 209.04ZM974.662 229.36C974.502 229 974.182 228.84 973.822 228.8C972.462 230.56 970.742 231.44 969.022 231.44C966.102 231.44 963.662 228.48 963.662 223.8C963.662 219.4 965.582 216.76 968.222 216.76C970.582 216.76 970.902 218.16 971.062 219.56C971.182 220.64 971.742 221 972.582 221C973.422 221 974.542 220.48 974.542 219.24C974.542 217.04 972.262 215.44 968.422 215.44C964.462 215.44 960.222 219 960.222 224.68C960.222 229.84 963.102 233.4 968.142 233.4C970.542 233.4 972.662 232.64 974.662 229.36Z" fill="black"/>
<rect id="closing_comments" opacity="0.5" x="30" y="689" width="429" height="322" fill="#FF0000"/>
</g>
<defs>
<clipPath id="clip0">
<rect width="1024" height="768" fill="white"/>
</clipPath>
</defs>
</svg>
