<svg width="527" height="300" viewBox="0 0 527 300" fill="none" xmlns="http://www.w3.org/2000/svg">
<g id="Slajd 1" clip-path="url(#clip0)">
<rect width="527" height="300" fill="white"/>
<path id="Miko&#197;&#130;aj Boja&#197;&#132;czyk" d="M37.4434 38.4688L40.2324 45.4297L43.0215 38.4688H44.4805V47H43.3555V43.6777L43.4609 40.0918L40.6602 47H39.7988L37.0039 40.1094L37.1152 43.6777V47H35.9902V38.4688H37.4434ZM47.4746 47H46.3906V40.6602H47.4746V47ZM46.3027 38.9785C46.3027 38.8027 46.3555 38.6543 46.4609 38.5332C46.5703 38.4121 46.7305 38.3516 46.9414 38.3516C47.1523 38.3516 47.3125 38.4121 47.4219 38.5332C47.5312 38.6543 47.5859 38.8027 47.5859 38.9785C47.5859 39.1543 47.5312 39.3008 47.4219 39.418C47.3125 39.5352 47.1523 39.5938 46.9414 39.5938C46.7305 39.5938 46.5703 39.5352 46.4609 39.418C46.3555 39.3008 46.3027 39.1543 46.3027 38.9785ZM50.9844 44.0645L50.3047 44.7734V47H49.2207V38H50.3047V43.4434L50.8848 42.7461L52.8594 40.6602H54.1777L51.7109 43.3086L54.4648 47H53.1934L50.9844 44.0645ZM55.0098 43.7715C55.0098 43.1504 55.1309 42.5918 55.373 42.0957C55.6191 41.5996 55.959 41.2168 56.3926 40.9473C56.8301 40.6777 57.3281 40.543 57.8867 40.543C58.75 40.543 59.4473 40.8418 59.9785 41.4395C60.5137 42.0371 60.7812 42.832 60.7812 43.8242V43.9004C60.7812 44.5176 60.6621 45.0723 60.4238 45.5645C60.1895 46.0527 59.8516 46.4336 59.4102 46.707C58.9727 46.9805 58.4688 47.1172 57.8984 47.1172C57.0391 47.1172 56.3418 46.8184 55.8066 46.2207C55.2754 45.623 55.0098 44.832 55.0098 43.8477V43.7715ZM56.0996 43.9004C56.0996 44.6035 56.2617 45.168 56.5859 45.5938C56.9141 46.0195 57.3516 46.2324 57.8984 46.2324C58.4492 46.2324 58.8867 46.0176 59.2109 45.5879C59.5352 45.1543 59.6973 44.5488 59.6973 43.7715C59.6973 43.0762 59.5312 42.5137 59.1992 42.084C58.8711 41.6504 58.4336 41.4336 57.8867 41.4336C57.3516 41.4336 56.9199 41.6465 56.5918 42.0723C56.2637 42.498 56.0996 43.1074 56.0996 43.9004ZM63.4531 41.9082L64.3789 41.5508V42.2715L63.4531 42.6289V47H62.3633V43.0449L61.5195 43.3672V42.6465L62.3633 42.3242V38H63.4531V41.9082ZM69.3008 47C69.2383 46.875 69.1875 46.6523 69.1484 46.332C68.6445 46.8555 68.043 47.1172 67.3438 47.1172C66.7188 47.1172 66.2051 46.9414 65.8027 46.5898C65.4043 46.2344 65.2051 45.7852 65.2051 45.2422C65.2051 44.582 65.4551 44.0703 65.9551 43.707C66.459 43.3398 67.166 43.1562 68.0762 43.1562H69.1309V42.6582C69.1309 42.2793 69.0176 41.9785 68.791 41.7559C68.5645 41.5293 68.2305 41.416 67.7891 41.416C67.4023 41.416 67.0781 41.5137 66.8164 41.709C66.5547 41.9043 66.4238 42.1406 66.4238 42.418H65.334C65.334 42.1016 65.4453 41.7969 65.668 41.5039C65.8945 41.207 66.1992 40.9727 66.582 40.8008C66.9688 40.6289 67.3926 40.543 67.8535 40.543C68.584 40.543 69.1562 40.7266 69.5703 41.0938C69.9844 41.457 70.1992 41.959 70.2148 42.5996V45.5176C70.2148 46.0996 70.2891 46.5625 70.4375 46.9062V47H69.3008ZM67.502 46.1738C67.8418 46.1738 68.1641 46.0859 68.4688 45.9102C68.7734 45.7344 68.9941 45.5059 69.1309 45.2246V43.9238H68.2812C66.9531 43.9238 66.2891 44.3125 66.2891 45.0898C66.2891 45.4297 66.4023 45.6953 66.6289 45.8867C66.8555 46.0781 67.1465 46.1738 67.502 46.1738ZM73.0332 40.6602V47.7324C73.0332 48.9512 72.4805 49.5605 71.375 49.5605C71.1367 49.5605 70.916 49.5254 70.7129 49.4551V48.5879C70.8379 48.6191 71.002 48.6348 71.2051 48.6348C71.4473 48.6348 71.6309 48.5684 71.7559 48.4355C71.8848 48.3066 71.9492 48.0801 71.9492 47.7559V40.6602H73.0332ZM71.8379 38.9785C71.8379 38.8066 71.8906 38.6602 71.9961 38.5391C72.1055 38.4141 72.2637 38.3516 72.4707 38.3516C72.6816 38.3516 72.8418 38.4121 72.9512 38.5332C73.0605 38.6543 73.1152 38.8027 73.1152 38.9785C73.1152 39.1543 73.0605 39.3008 72.9512 39.418C72.8418 39.5352 72.6816 39.5938 72.4707 39.5938C72.2598 39.5938 72.1016 39.5352 71.9961 39.418C71.8906 39.3008 71.8379 39.1543 71.8379 38.9785ZM77.9316 47V38.4688H80.7207C81.6465 38.4688 82.3418 38.6602 82.8066 39.043C83.2754 39.4258 83.5098 39.9922 83.5098 40.7422C83.5098 41.1406 83.3965 41.4941 83.1699 41.8027C82.9434 42.1074 82.6348 42.3438 82.2441 42.5117C82.7051 42.6406 83.0684 42.8867 83.334 43.25C83.6035 43.6094 83.7383 44.0391 83.7383 44.5391C83.7383 45.3047 83.4902 45.9062 82.9941 46.3438C82.498 46.7812 81.7969 47 80.8906 47H77.9316ZM79.0566 43.0098V46.0801H80.9141C81.4375 46.0801 81.8496 45.9453 82.1504 45.6758C82.4551 45.4023 82.6074 45.0273 82.6074 44.5508C82.6074 43.5234 82.0488 43.0098 80.9316 43.0098H79.0566ZM79.0566 42.1074H80.7559C81.248 42.1074 81.6406 41.9844 81.9336 41.7383C82.2305 41.4922 82.3789 41.1582 82.3789 40.7363C82.3789 40.2676 82.2422 39.9277 81.9688 39.7168C81.6953 39.502 81.2793 39.3945 80.7207 39.3945H79.0566V42.1074ZM84.9512 43.7715C84.9512 43.1504 85.0723 42.5918 85.3145 42.0957C85.5605 41.5996 85.9004 41.2168 86.334 40.9473C86.7715 40.6777 87.2695 40.543 87.8281 40.543C88.6914 40.543 89.3887 40.8418 89.9199 41.4395C90.4551 42.0371 90.7227 42.832 90.7227 43.8242V43.9004C90.7227 44.5176 90.6035 45.0723 90.3652 45.5645C90.1309 46.0527 89.793 46.4336 89.3516 46.707C88.9141 46.9805 88.4102 47.1172 87.8398 47.1172C86.9805 47.1172 86.2832 46.8184 85.748 46.2207C85.2168 45.623 84.9512 44.832 84.9512 43.8477V43.7715ZM86.041 43.9004C86.041 44.6035 86.2031 45.168 86.5273 45.5938C86.8555 46.0195 87.293 46.2324 87.8398 46.2324C88.3906 46.2324 88.8281 46.0176 89.1523 45.5879C89.4766 45.1543 89.6387 44.5488 89.6387 43.7715C89.6387 43.0762 89.4727 42.5137 89.1406 42.084C88.8125 41.6504 88.375 41.4336 87.8281 41.4336C87.293 41.4336 86.8613 41.6465 86.5332 42.0723C86.2051 42.498 86.041 43.1074 86.041 43.9004ZM93.2012 40.6602V47.7324C93.2012 48.9512 92.6484 49.5605 91.543 49.5605C91.3047 49.5605 91.084 49.5254 90.8809 49.4551V48.5879C91.0059 48.6191 91.1699 48.6348 91.373 48.6348C91.6152 48.6348 91.7988 48.5684 91.9238 48.4355C92.0527 48.3066 92.1172 48.0801 92.1172 47.7559V40.6602H93.2012ZM92.0059 38.9785C92.0059 38.8066 92.0586 38.6602 92.1641 38.5391C92.2734 38.4141 92.4316 38.3516 92.6387 38.3516C92.8496 38.3516 93.0098 38.4121 93.1191 38.5332C93.2285 38.6543 93.2832 38.8027 93.2832 38.9785C93.2832 39.1543 93.2285 39.3008 93.1191 39.418C93.0098 39.5352 92.8496 39.5938 92.6387 39.5938C92.4277 39.5938 92.2695 39.5352 92.1641 39.418C92.0586 39.3008 92.0059 39.1543 92.0059 38.9785ZM98.8672 47C98.8047 46.875 98.7539 46.6523 98.7148 46.332C98.2109 46.8555 97.6094 47.1172 96.9102 47.1172C96.2852 47.1172 95.7715 46.9414 95.3691 46.5898C94.9707 46.2344 94.7715 45.7852 94.7715 45.2422C94.7715 44.582 95.0215 44.0703 95.5215 43.707C96.0254 43.3398 96.7324 43.1562 97.6426 43.1562H98.6973V42.6582C98.6973 42.2793 98.584 41.9785 98.3574 41.7559C98.1309 41.5293 97.7969 41.416 97.3555 41.416C96.9688 41.416 96.6445 41.5137 96.3828 41.709C96.1211 41.9043 95.9902 42.1406 95.9902 42.418H94.9004C94.9004 42.1016 95.0117 41.7969 95.2344 41.5039C95.4609 41.207 95.7656 40.9727 96.1484 40.8008C96.5352 40.6289 96.959 40.543 97.4199 40.543C98.1504 40.543 98.7227 40.7266 99.1367 41.0938C99.5508 41.457 99.7656 41.959 99.7812 42.5996V45.5176C99.7812 46.0996 99.8555 46.5625 100.004 46.9062V47H98.8672ZM97.0684 46.1738C97.4082 46.1738 97.7305 46.0859 98.0352 45.9102C98.3398 45.7344 98.5605 45.5059 98.6973 45.2246V43.9238H97.8477C96.5195 43.9238 95.8555 44.3125 95.8555 45.0898C95.8555 45.4297 95.9688 45.6953 96.1953 45.8867C96.4219 46.0781 96.7129 46.1738 97.0684 46.1738ZM102.506 40.6602L102.541 41.457C103.025 40.8477 103.658 40.543 104.439 40.543C105.779 40.543 106.455 41.2988 106.467 42.8105V47H105.383V42.8047C105.379 42.3477 105.273 42.0098 105.066 41.791C104.863 41.5723 104.545 41.4629 104.111 41.4629C103.76 41.4629 103.451 41.5566 103.186 41.7441C102.92 41.9316 102.713 42.1777 102.564 42.4824V47H101.48V40.6602H102.506ZM104.545 38H105.857L104.287 39.7227H103.414L104.545 38ZM110.645 46.2324C111.031 46.2324 111.369 46.1152 111.658 45.8809C111.947 45.6465 112.107 45.3535 112.139 45.002H113.164C113.145 45.3652 113.02 45.7109 112.789 46.0391C112.559 46.3672 112.25 46.6289 111.863 46.8242C111.48 47.0195 111.074 47.1172 110.645 47.1172C109.781 47.1172 109.094 46.8301 108.582 46.2559C108.074 45.6777 107.82 44.8887 107.82 43.8887V43.707C107.82 43.0898 107.934 42.541 108.16 42.0605C108.387 41.5801 108.711 41.207 109.133 40.9414C109.559 40.6758 110.061 40.543 110.639 40.543C111.35 40.543 111.939 40.7559 112.408 41.1816C112.881 41.6074 113.133 42.1602 113.164 42.8398H112.139C112.107 42.4297 111.951 42.0938 111.67 41.832C111.393 41.5664 111.049 41.4336 110.639 41.4336C110.088 41.4336 109.66 41.6328 109.355 42.0312C109.055 42.4258 108.904 42.998 108.904 43.748V43.9531C108.904 44.6836 109.055 45.2461 109.355 45.6406C109.656 46.0352 110.086 46.2324 110.645 46.2324ZM115.402 46.1152H119.111V47H114.078V46.2031L117.576 41.5566H114.131V40.6602H118.936V41.4277L115.402 46.1152ZM122.41 45.4121L123.887 40.6602H125.047L122.498 47.9785C122.104 49.0332 121.477 49.5605 120.617 49.5605L120.412 49.543L120.008 49.4668V48.5879L120.301 48.6113C120.668 48.6113 120.953 48.5371 121.156 48.3887C121.363 48.2402 121.533 47.9688 121.666 47.5742L121.906 46.9297L119.645 40.6602H120.828L122.41 45.4121ZM127.789 44.0645L127.109 44.7734V47H126.025V38H127.109V43.4434L127.689 42.7461L129.664 40.6602H130.982L128.516 43.3086L131.27 47H129.998L127.789 44.0645Z" fill="black"/>
<rect id="4:3" opacity="0.5" x="509" width="537" height="306" fill="#FF0000"/>
</g>
<defs>
<clipPath id="clip0">
<rect width="527" height="300" fill="white"/>
</clipPath>
</defs>
</svg>
