<svg width="1024" height="769" viewBox="0 0 1024 769" fill="none" xmlns="http://www.w3.org/2000/svg">
<g id="dziecko">
<rect width="1024" height="768" transform="translate(0 0.599976)" fill="white"/>
<path id="Halo_kuku" d="M267.156 286H263.387V272.855H249.051V286H245.301V257.562H249.051V269.789H263.387V257.562H267.156V286ZM286.297 286C286.089 285.583 285.919 284.841 285.789 283.773C284.109 285.518 282.104 286.391 279.773 286.391C277.69 286.391 275.978 285.805 274.637 284.633C273.309 283.448 272.645 281.951 272.645 280.141C272.645 277.94 273.478 276.234 275.145 275.023C276.824 273.799 279.181 273.188 282.215 273.188H285.73V271.527C285.73 270.264 285.353 269.262 284.598 268.52C283.842 267.764 282.729 267.387 281.258 267.387C279.969 267.387 278.888 267.712 278.016 268.363C277.143 269.014 276.707 269.802 276.707 270.727H273.074C273.074 269.672 273.445 268.656 274.188 267.68C274.943 266.69 275.958 265.909 277.234 265.336C278.523 264.763 279.936 264.477 281.473 264.477C283.908 264.477 285.815 265.089 287.195 266.312C288.576 267.523 289.292 269.197 289.344 271.332V281.059C289.344 282.999 289.591 284.542 290.086 285.688V286H286.297ZM280.301 283.246C281.434 283.246 282.508 282.953 283.523 282.367C284.539 281.781 285.275 281.02 285.73 280.082V275.746H282.898C278.471 275.746 276.258 277.042 276.258 279.633C276.258 280.766 276.635 281.651 277.391 282.289C278.146 282.927 279.116 283.246 280.301 283.246ZM298.934 286H295.32V256H298.934V286ZM303.777 275.238C303.777 273.168 304.181 271.306 304.988 269.652C305.809 267.999 306.941 266.723 308.387 265.824C309.845 264.926 311.505 264.477 313.367 264.477C316.245 264.477 318.569 265.473 320.34 267.465C322.124 269.457 323.016 272.107 323.016 275.414V275.668C323.016 277.725 322.618 279.574 321.824 281.215C321.043 282.842 319.917 284.112 318.445 285.023C316.987 285.935 315.307 286.391 313.406 286.391C310.542 286.391 308.217 285.395 306.434 283.402C304.663 281.41 303.777 278.773 303.777 275.492V275.238ZM307.41 275.668C307.41 278.012 307.951 279.893 309.031 281.312C310.125 282.732 311.583 283.441 313.406 283.441C315.242 283.441 316.701 282.725 317.781 281.293C318.862 279.848 319.402 277.829 319.402 275.238C319.402 272.921 318.849 271.046 317.742 269.613C316.648 268.168 315.19 267.445 313.367 267.445C311.583 267.445 310.145 268.155 309.051 269.574C307.957 270.993 307.41 273.025 307.41 275.668ZM343.367 276.215L341.102 278.578V286H337.488V256H341.102V274.145L343.035 271.82L349.617 264.867H354.012L345.789 273.695L354.969 286H350.73L343.367 276.215ZM370.789 283.91C369.383 285.564 367.319 286.391 364.598 286.391C362.345 286.391 360.626 285.74 359.441 284.438C358.27 283.122 357.677 281.182 357.664 278.617V264.867H361.277V278.52C361.277 281.723 362.579 283.324 365.184 283.324C367.944 283.324 369.78 282.296 370.691 280.238V264.867H374.305V286H370.867L370.789 283.91ZM385.711 276.215L383.445 278.578V286H379.832V256H383.445V274.145L385.379 271.82L391.961 264.867H396.355L388.133 273.695L397.312 286H393.074L385.711 276.215ZM413.133 283.91C411.727 285.564 409.663 286.391 406.941 286.391C404.689 286.391 402.97 285.74 401.785 284.438C400.613 283.122 400.021 281.182 400.008 278.617V264.867H403.621V278.52C403.621 281.723 404.923 283.324 407.527 283.324C410.288 283.324 412.124 282.296 413.035 280.238V264.867H416.648V286H413.211L413.133 283.91Z" fill="black"/>
<path id="Halo_buku" d="M340.156 398H336.387V384.855H322.051V398H318.301V369.562H322.051V381.789H336.387V369.562H340.156V398ZM359.297 398C359.089 397.583 358.919 396.841 358.789 395.773C357.109 397.518 355.104 398.391 352.773 398.391C350.69 398.391 348.978 397.805 347.637 396.633C346.309 395.448 345.645 393.951 345.645 392.141C345.645 389.94 346.478 388.234 348.145 387.023C349.824 385.799 352.181 385.188 355.215 385.188H358.73V383.527C358.73 382.264 358.353 381.262 357.598 380.52C356.842 379.764 355.729 379.387 354.258 379.387C352.969 379.387 351.888 379.712 351.016 380.363C350.143 381.014 349.707 381.802 349.707 382.727H346.074C346.074 381.672 346.445 380.656 347.188 379.68C347.943 378.69 348.958 377.909 350.234 377.336C351.523 376.763 352.936 376.477 354.473 376.477C356.908 376.477 358.815 377.089 360.195 378.312C361.576 379.523 362.292 381.197 362.344 383.332V393.059C362.344 394.999 362.591 396.542 363.086 397.688V398H359.297ZM353.301 395.246C354.434 395.246 355.508 394.953 356.523 394.367C357.539 393.781 358.275 393.02 358.73 392.082V387.746H355.898C351.471 387.746 349.258 389.042 349.258 391.633C349.258 392.766 349.635 393.651 350.391 394.289C351.146 394.927 352.116 395.246 353.301 395.246ZM371.934 398H368.32V368H371.934V398ZM376.777 387.238C376.777 385.168 377.181 383.306 377.988 381.652C378.809 379.999 379.941 378.723 381.387 377.824C382.845 376.926 384.505 376.477 386.367 376.477C389.245 376.477 391.569 377.473 393.34 379.465C395.124 381.457 396.016 384.107 396.016 387.414V387.668C396.016 389.725 395.618 391.574 394.824 393.215C394.043 394.842 392.917 396.112 391.445 397.023C389.987 397.935 388.307 398.391 386.406 398.391C383.542 398.391 381.217 397.395 379.434 395.402C377.663 393.41 376.777 390.773 376.777 387.492V387.238ZM380.41 387.668C380.41 390.012 380.951 391.893 382.031 393.312C383.125 394.732 384.583 395.441 386.406 395.441C388.242 395.441 389.701 394.725 390.781 393.293C391.862 391.848 392.402 389.829 392.402 387.238C392.402 384.921 391.849 383.046 390.742 381.613C389.648 380.168 388.19 379.445 386.367 379.445C384.583 379.445 383.145 380.155 382.051 381.574C380.957 382.993 380.41 385.025 380.41 387.668ZM428.359 387.668C428.359 390.897 427.617 393.495 426.133 395.461C424.648 397.414 422.656 398.391 420.156 398.391C417.487 398.391 415.423 397.447 413.965 395.559L413.789 398H410.469V368H414.082V379.191C415.54 377.382 417.552 376.477 420.117 376.477C422.682 376.477 424.694 377.447 426.152 379.387C427.624 381.327 428.359 383.983 428.359 387.355V387.668ZM424.746 387.258C424.746 384.797 424.271 382.896 423.32 381.555C422.37 380.214 421.003 379.543 419.219 379.543C416.836 379.543 415.124 380.65 414.082 382.863V392.004C415.189 394.217 416.914 395.324 419.258 395.324C420.99 395.324 422.337 394.654 423.301 393.312C424.264 391.971 424.746 389.953 424.746 387.258ZM445.977 395.91C444.57 397.564 442.507 398.391 439.785 398.391C437.533 398.391 435.814 397.74 434.629 396.438C433.457 395.122 432.865 393.182 432.852 390.617V376.867H436.465V390.52C436.465 393.723 437.767 395.324 440.371 395.324C443.132 395.324 444.967 394.296 445.879 392.238V376.867H449.492V398H446.055L445.977 395.91ZM460.898 388.215L458.633 390.578V398H455.02V368H458.633V386.145L460.566 383.82L467.148 376.867H471.543L463.32 385.695L472.5 398H468.262L460.898 388.215ZM488.32 395.91C486.914 397.564 484.85 398.391 482.129 398.391C479.876 398.391 478.158 397.74 476.973 396.438C475.801 395.122 475.208 393.182 475.195 390.617V376.867H478.809V390.52C478.809 393.723 480.111 395.324 482.715 395.324C485.475 395.324 487.311 394.296 488.223 392.238V376.867H491.836V398H488.398L488.32 395.91Z" fill="black"/>
<path id="Halo_ruku" d="M429.156 510H425.387V496.855H411.051V510H407.301V481.562H411.051V493.789H425.387V481.562H429.156V510ZM448.297 510C448.089 509.583 447.919 508.841 447.789 507.773C446.109 509.518 444.104 510.391 441.773 510.391C439.69 510.391 437.978 509.805 436.637 508.633C435.309 507.448 434.645 505.951 434.645 504.141C434.645 501.94 435.478 500.234 437.145 499.023C438.824 497.799 441.181 497.188 444.215 497.188H447.73V495.527C447.73 494.264 447.353 493.262 446.598 492.52C445.842 491.764 444.729 491.387 443.258 491.387C441.969 491.387 440.888 491.712 440.016 492.363C439.143 493.014 438.707 493.802 438.707 494.727H435.074C435.074 493.672 435.445 492.656 436.188 491.68C436.943 490.69 437.958 489.909 439.234 489.336C440.523 488.763 441.936 488.477 443.473 488.477C445.908 488.477 447.815 489.089 449.195 490.312C450.576 491.523 451.292 493.197 451.344 495.332V505.059C451.344 506.999 451.591 508.542 452.086 509.688V510H448.297ZM442.301 507.246C443.434 507.246 444.508 506.953 445.523 506.367C446.539 505.781 447.275 505.02 447.73 504.082V499.746H444.898C440.471 499.746 438.258 501.042 438.258 503.633C438.258 504.766 438.635 505.651 439.391 506.289C440.146 506.927 441.116 507.246 442.301 507.246ZM460.934 510H457.32V480H460.934V510ZM465.777 499.238C465.777 497.168 466.181 495.306 466.988 493.652C467.809 491.999 468.941 490.723 470.387 489.824C471.845 488.926 473.505 488.477 475.367 488.477C478.245 488.477 480.569 489.473 482.34 491.465C484.124 493.457 485.016 496.107 485.016 499.414V499.668C485.016 501.725 484.618 503.574 483.824 505.215C483.043 506.842 481.917 508.112 480.445 509.023C478.987 509.935 477.307 510.391 475.406 510.391C472.542 510.391 470.217 509.395 468.434 507.402C466.663 505.41 465.777 502.773 465.777 499.492V499.238ZM469.41 499.668C469.41 502.012 469.951 503.893 471.031 505.312C472.125 506.732 473.583 507.441 475.406 507.441C477.242 507.441 478.701 506.725 479.781 505.293C480.862 503.848 481.402 501.829 481.402 499.238C481.402 496.921 480.849 495.046 479.742 493.613C478.648 492.168 477.19 491.445 475.367 491.445C473.583 491.445 472.145 492.155 471.051 493.574C469.957 494.993 469.41 497.025 469.41 499.668ZM509.684 492.109C509.137 492.018 508.544 491.973 507.906 491.973C505.536 491.973 503.928 492.982 503.082 495V510H499.469V488.867H502.984L503.043 491.309C504.228 489.421 505.908 488.477 508.082 488.477C508.785 488.477 509.319 488.568 509.684 488.75V492.109ZM526.07 507.91C524.664 509.564 522.6 510.391 519.879 510.391C517.626 510.391 515.908 509.74 514.723 508.438C513.551 507.122 512.958 505.182 512.945 502.617V488.867H516.559V502.52C516.559 505.723 517.861 507.324 520.465 507.324C523.225 507.324 525.061 506.296 525.973 504.238V488.867H529.586V510H526.148L526.07 507.91ZM540.992 500.215L538.727 502.578V510H535.113V480H538.727V498.145L540.66 495.82L547.242 488.867H551.637L543.414 497.695L552.594 510H548.355L540.992 500.215ZM568.414 507.91C567.008 509.564 564.944 510.391 562.223 510.391C559.97 510.391 558.251 509.74 557.066 508.438C555.895 507.122 555.302 505.182 555.289 502.617V488.867H558.902V502.52C558.902 505.723 560.204 507.324 562.809 507.324C565.569 507.324 567.405 506.296 568.316 504.238V488.867H571.93V510H568.492L568.414 507.91Z" fill="black"/>
</g>
</svg>
