<svg width="1280" height="960" viewBox="0 0 1280 960" fill="none" xmlns="http://www.w3.org/2000/svg">
<g id="Polylog and Savitch">
<rect width="1280" height="960" fill="white"/>
<g id="132:133">
<g id="$2$60" clip-path="url(#clip0)">
<g id="page1">
<path id="Vector" d="M941.182 350.185H940.023C939.865 351.081 939.444 353.979 938.917 354.822C938.548 355.296 935.545 355.296 933.964 355.296H924.217C925.64 354.084 928.854 350.712 930.224 349.448C938.232 342.071 941.182 339.332 941.182 334.116C941.182 328.057 936.388 324 930.276 324C924.165 324 920.582 329.216 920.582 333.747C920.582 336.434 922.9 336.434 923.058 336.434C924.165 336.434 925.535 335.644 925.535 333.958C925.535 332.483 924.534 331.481 923.058 331.481C922.584 331.481 922.479 331.481 922.321 331.534C923.322 327.951 926.167 325.528 929.591 325.528C934.07 325.528 936.809 329.269 936.809 334.116C936.809 338.594 934.228 342.493 931.225 345.865L920.582 357.772V359.036H939.813L941.182 350.185Z" fill="#2F80ED"/>
</g>
</g>
<g id="$\log(n^{\log n})$40" clip-path="url(#clip1)">
<g id="page1_2">
<path id="Vector_2" d="M954.041 304.377L949.159 304.763V305.782C951.548 305.782 951.829 306.028 951.829 307.749V326.154C951.829 327.735 951.442 327.735 949.159 327.735V328.753C950.143 328.683 951.864 328.683 952.917 328.683C953.971 328.683 955.727 328.683 956.711 328.753V327.735C954.463 327.735 954.041 327.735 954.041 326.154V304.377Z" fill="#2F80ED"/>
<path id="Vector_3" d="M973.675 321.237C973.675 316.706 970.233 313.088 966.159 313.088C961.944 313.088 958.607 316.811 958.607 321.237C958.607 325.733 962.119 329.105 966.124 329.105C970.268 329.105 973.675 325.662 973.675 321.237ZM966.159 328.332C964.859 328.332 963.278 327.77 962.26 326.049C961.312 324.468 961.276 322.396 961.276 320.921C961.276 319.586 961.276 317.443 962.365 315.863C963.349 314.352 964.894 313.79 966.124 313.79C967.493 313.79 968.969 314.423 969.917 315.792C971.006 317.408 971.006 319.621 971.006 320.921C971.006 322.15 971.006 324.328 970.093 325.979C969.109 327.664 967.493 328.332 966.159 328.332Z" fill="#2F80ED"/>
<path id="Vector_4" d="M978.929 322.396C980.58 323.484 981.985 323.484 982.371 323.484C985.532 323.484 987.885 321.096 987.885 318.391C987.885 317.443 987.604 316.108 986.48 314.984C987.85 313.579 989.501 313.579 989.677 313.579C989.817 313.579 989.993 313.579 990.133 313.65C989.782 313.79 989.606 314.141 989.606 314.528C989.606 315.02 989.958 315.441 990.52 315.441C990.801 315.441 991.433 315.265 991.433 314.493C991.433 313.86 990.941 312.877 989.712 312.877C987.885 312.877 986.516 314.001 986.024 314.528C984.97 313.72 983.741 313.263 982.406 313.263C979.245 313.263 976.891 315.652 976.891 318.356C976.891 320.358 978.121 321.658 978.472 321.974C978.051 322.501 977.418 323.52 977.418 324.889C977.418 326.927 978.648 327.805 978.929 327.98C977.313 328.437 975.697 329.701 975.697 331.528C975.697 333.952 978.999 335.954 983.319 335.954C987.499 335.954 990.976 334.092 990.976 331.458C990.976 330.58 990.73 328.507 988.623 327.418C986.832 326.505 985.075 326.505 982.055 326.505C979.912 326.505 979.666 326.505 979.034 325.838C978.683 325.487 978.367 324.819 978.367 324.082C978.367 323.484 978.577 322.887 978.929 322.396ZM982.406 322.747C979.315 322.747 979.315 319.199 979.315 318.391C979.315 317.759 979.315 316.319 979.912 315.371C980.58 314.352 981.633 314.001 982.371 314.001C985.462 314.001 985.462 317.548 985.462 318.356C985.462 318.989 985.462 320.429 984.865 321.377C984.197 322.396 983.144 322.747 982.406 322.747ZM983.354 335.216C979.982 335.216 977.418 333.495 977.418 331.493C977.418 331.212 977.489 329.842 978.823 328.929C979.596 328.437 979.912 328.437 982.371 328.437C985.286 328.437 989.255 328.437 989.255 331.493C989.255 333.565 986.586 335.216 983.354 335.216Z" fill="#2F80ED"/>
<path id="Vector_5" d="M1003.84 337.289C1003.84 337.183 1003.84 337.113 1003.24 336.516C999.729 332.968 997.762 327.173 997.762 320.007C997.762 313.193 999.413 307.328 1003.49 303.183C1003.84 302.867 1003.84 302.797 1003.84 302.691C1003.84 302.48 1003.66 302.41 1003.52 302.41C1003.07 302.41 1000.19 304.939 998.464 308.381C996.673 311.929 995.865 315.687 995.865 320.007C995.865 323.133 996.357 327.313 998.183 331.072C1000.26 335.286 1003.14 337.57 1003.52 337.57C1003.66 337.57 1003.84 337.499 1003.84 337.289Z" fill="#2F80ED"/>
<path id="Vector_6" d="M1013.03 318.462C1013.1 318.251 1013.98 316.495 1015.28 315.371C1016.19 314.528 1017.39 313.966 1018.76 313.966C1020.16 313.966 1020.66 315.02 1020.66 316.425C1020.66 318.427 1019.22 322.431 1018.51 324.328C1018.2 325.171 1018.02 325.627 1018.02 326.26C1018.02 327.84 1019.11 329.105 1020.8 329.105C1024.06 329.105 1025.29 323.941 1025.29 323.731C1025.29 323.555 1025.15 323.415 1024.94 323.415C1024.62 323.415 1024.59 323.52 1024.41 324.117C1023.61 326.997 1022.27 328.402 1020.9 328.402C1020.55 328.402 1019.99 328.367 1019.99 327.243C1019.99 326.365 1020.37 325.311 1020.59 324.82C1021.29 322.888 1022.76 318.954 1022.76 316.952C1022.76 314.844 1021.53 313.264 1018.86 313.264C1015.74 313.264 1014.09 315.477 1013.45 316.355C1013.35 314.353 1011.91 313.264 1010.36 313.264C1009.24 313.264 1008.47 313.931 1007.87 315.125C1007.24 316.39 1006.75 318.497 1006.75 318.638C1006.75 318.778 1006.89 318.954 1007.13 318.954C1007.41 318.954 1007.45 318.919 1007.66 318.111C1008.22 315.968 1008.85 313.966 1010.26 313.966C1011.07 313.966 1011.35 314.528 1011.35 315.582C1011.35 316.355 1011 317.724 1010.75 318.813L1009.77 322.607C1009.63 323.274 1009.24 324.855 1009.06 325.487C1008.82 326.4 1008.43 328.051 1008.43 328.227C1008.43 328.718 1008.82 329.105 1009.35 329.105C1009.77 329.105 1010.26 328.894 1010.54 328.367C1010.61 328.191 1010.93 326.962 1011.1 326.26L1011.87 323.098L1013.03 318.462Z" fill="#2F80ED"/>
<path id="Vector_7" d="M1030.8 298L1027.31 298.258V299.03C1028.9 299.03 1029.09 299.194 1029.09 300.342V312.424C1029.09 313.478 1028.81 313.478 1027.31 313.478V314.251C1028.22 314.181 1029.54 314.181 1029.93 314.181C1030.4 314.181 1031.67 314.181 1032.58 314.251V313.478C1031.08 313.478 1030.8 313.478 1030.8 312.424V298Z" fill="#2F80ED"/>
<path id="Vector_8" d="M1044.95 309.264C1044.95 306.337 1042.53 303.808 1039.44 303.808C1036.35 303.808 1033.94 306.337 1033.94 309.264C1033.94 312.191 1036.45 314.485 1039.44 314.485C1042.46 314.485 1044.95 312.191 1044.95 309.264ZM1039.44 313.759C1038.18 313.759 1037.2 313.151 1036.68 312.331C1036.1 311.371 1036.02 310.224 1036.02 309.053C1036.02 308.163 1036.02 306.758 1036.75 305.751C1037.36 304.932 1038.34 304.463 1039.44 304.463C1040.66 304.463 1041.67 305.049 1042.21 305.868C1042.84 306.852 1042.86 308.116 1042.86 309.053C1042.86 310.13 1042.82 311.418 1042.16 312.401C1041.53 313.338 1040.47 313.759 1039.44 313.759Z" fill="#2F80ED"/>
<path id="Vector_9" d="M1049.73 312.635C1049 312.565 1048.42 311.932 1048.42 311.089C1048.42 310.527 1048.56 310.317 1048.72 310.106C1049.71 310.691 1050.62 310.808 1051.18 310.808C1053.5 310.808 1055.21 309.193 1055.21 307.366C1055.21 306.476 1054.81 305.727 1054.25 305.118C1054.58 304.837 1055.35 304.346 1056.5 304.322C1056.4 304.392 1056.29 304.509 1056.29 304.884C1056.29 305.306 1056.59 305.61 1057.01 305.61C1057.34 305.61 1057.74 305.399 1057.74 304.861C1057.74 304.463 1057.43 303.667 1056.4 303.667C1056 303.667 1054.88 303.76 1053.8 304.744C1053.22 304.322 1052.31 303.924 1051.2 303.924C1048.89 303.924 1047.18 305.54 1047.18 307.366C1047.18 308.467 1047.79 309.286 1048.28 309.755C1047.76 310.34 1047.58 311.089 1047.58 311.651C1047.58 312.611 1048.04 313.337 1048.56 313.735C1047.34 314.063 1046.38 314.977 1046.38 316.054C1046.38 317.74 1048.79 319.051 1051.88 319.051C1054.81 319.051 1057.39 317.857 1057.39 316.007C1057.39 314.742 1056.64 313.759 1055.86 313.361C1054.48 312.635 1053.34 312.635 1051.04 312.635H1049.73ZM1051.2 310.129C1049.03 310.129 1049.03 307.881 1049.03 307.366C1049.03 306.5 1049.14 305.891 1049.5 305.423C1049.89 304.884 1050.55 304.603 1051.18 304.603C1053.36 304.603 1053.36 306.851 1053.36 307.366C1053.36 308.233 1053.24 308.841 1052.89 309.31C1052.38 309.965 1051.63 310.129 1051.2 310.129ZM1052.31 314.157C1052.94 314.157 1056 314.157 1056 316.03C1056 317.295 1054.2 318.372 1051.88 318.372C1049.54 318.372 1047.76 317.295 1047.76 316.03C1047.76 315.539 1048.14 314.157 1050.06 314.157H1052.31Z" fill="#2F80ED"/>
<path id="Vector_10" d="M1067.29 310.411C1067.36 310.059 1067.6 309.17 1067.67 308.818C1068 307.554 1068 307.53 1068.53 306.758C1069.31 305.61 1070.41 304.58 1071.98 304.58C1072.82 304.58 1073.31 305.072 1073.31 306.172C1073.31 307.46 1072.33 310.13 1071.88 311.277C1071.58 312.05 1071.58 312.19 1071.58 312.495C1071.58 313.829 1072.68 314.485 1073.69 314.485C1075.98 314.485 1076.94 311.207 1076.94 310.902C1076.94 310.668 1076.75 310.598 1076.59 310.598C1076.31 310.598 1076.26 310.762 1076.19 310.996C1075.63 312.916 1074.65 313.829 1073.76 313.829C1073.38 313.829 1073.19 313.595 1073.19 313.057C1073.19 312.518 1073.38 312.003 1073.62 311.417C1073.97 310.528 1075 307.835 1075 306.524C1075 304.767 1073.78 303.924 1072.09 303.924C1070.2 303.924 1068.98 305.072 1068.3 305.962C1068.14 304.674 1067.11 303.924 1065.91 303.924C1065.07 303.924 1064.48 304.463 1064.11 305.189C1063.55 306.289 1063.31 307.46 1063.31 307.507C1063.31 307.718 1063.48 307.811 1063.66 307.811C1063.97 307.811 1063.99 307.718 1064.16 307.109C1064.44 305.962 1064.86 304.58 1065.84 304.58C1066.45 304.58 1066.59 305.165 1066.59 305.681C1066.59 306.102 1066.47 306.547 1066.29 307.32C1066.24 307.507 1065.89 308.889 1065.8 309.216L1064.93 312.729C1064.84 313.08 1064.69 313.665 1064.69 313.759C1064.69 314.298 1065.14 314.485 1065.44 314.485C1065.87 314.485 1066.22 314.204 1066.38 313.923C1066.45 313.783 1066.64 312.986 1066.76 312.495L1067.29 310.411Z" fill="#2F80ED"/>
<path id="Vector_11" d="M1089.08 320.007C1089.08 317.338 1088.72 312.983 1086.76 308.908C1084.69 304.693 1081.81 302.41 1081.42 302.41C1081.28 302.41 1081.1 302.48 1081.1 302.691C1081.1 302.797 1081.1 302.867 1081.7 303.464C1085.21 307.011 1087.18 312.807 1087.18 319.972C1087.18 326.786 1085.53 332.652 1081.45 336.797C1081.1 337.113 1081.1 337.183 1081.1 337.289C1081.1 337.499 1081.28 337.57 1081.42 337.57C1081.88 337.57 1084.76 335.041 1086.48 331.598C1088.27 328.016 1089.08 324.222 1089.08 320.007Z" fill="#2F80ED"/>
</g>
</g>
</g>
<g id="132:130">
<g id="$(\log n)^2$40" clip-path="url(#clip2)">
<g id="page1_3">
<path id="Vector_12" d="M228.415 336.609C228.415 336.504 228.415 336.434 227.818 335.837C224.305 332.289 222.338 326.494 222.338 319.328C222.338 312.514 223.989 306.648 228.063 302.504C228.415 302.188 228.415 302.117 228.415 302.012C228.415 301.801 228.239 301.731 228.099 301.731C227.642 301.731 224.762 304.26 223.041 307.702C221.249 311.25 220.441 315.008 220.441 319.328C220.441 322.454 220.933 326.634 222.76 330.392C224.832 334.607 227.712 336.89 228.099 336.89C228.239 336.89 228.415 336.82 228.415 336.609Z" fill="#2F80ED"/>
<path id="Vector_13" d="M236.415 303.698L231.533 304.085V305.103C233.922 305.103 234.203 305.349 234.203 307.07V325.475C234.203 327.056 233.816 327.056 231.533 327.056V328.074C232.517 328.004 234.238 328.004 235.292 328.004C236.345 328.004 238.101 328.004 239.085 328.074V327.056C236.837 327.056 236.415 327.056 236.415 325.475V303.698Z" fill="#2F80ED"/>
<path id="Vector_14" d="M256.049 320.558C256.049 316.027 252.607 312.409 248.533 312.409C244.318 312.409 240.981 316.132 240.981 320.558C240.981 325.054 244.493 328.426 248.498 328.426C252.642 328.426 256.049 324.984 256.049 320.558ZM248.533 327.653C247.233 327.653 245.652 327.091 244.634 325.37C243.686 323.789 243.65 321.717 243.65 320.242C243.65 318.907 243.65 316.765 244.739 315.184C245.723 313.674 247.268 313.112 248.498 313.112C249.867 313.112 251.343 313.744 252.291 315.114C253.38 316.729 253.38 318.942 253.38 320.242C253.38 321.471 253.38 323.649 252.467 325.3C251.483 326.986 249.867 327.653 248.533 327.653Z" fill="#2F80ED"/>
<path id="Vector_15" d="M261.303 321.717C262.954 322.806 264.359 322.806 264.745 322.806C267.907 322.806 270.26 320.417 270.26 317.713C270.26 316.764 269.979 315.43 268.855 314.306C270.225 312.901 271.876 312.901 272.051 312.901C272.192 312.901 272.367 312.901 272.508 312.971C272.157 313.111 271.981 313.463 271.981 313.849C271.981 314.341 272.332 314.762 272.894 314.762C273.175 314.762 273.807 314.587 273.807 313.814C273.807 313.182 273.316 312.198 272.086 312.198C270.26 312.198 268.89 313.322 268.398 313.849C267.345 313.041 266.115 312.585 264.781 312.585C261.619 312.585 259.266 314.973 259.266 317.678C259.266 319.68 260.495 320.979 260.847 321.295C260.425 321.822 259.793 322.841 259.793 324.211C259.793 326.248 261.022 327.126 261.303 327.302C259.687 327.758 258.072 329.023 258.072 330.849C258.072 333.273 261.373 335.275 265.694 335.275C269.874 335.275 273.351 333.413 273.351 330.779C273.351 329.901 273.105 327.829 270.998 326.74C269.206 325.826 267.45 325.826 264.429 325.826C262.287 325.826 262.041 325.826 261.409 325.159C261.057 324.808 260.741 324.141 260.741 323.403C260.741 322.806 260.952 322.209 261.303 321.717ZM264.781 322.068C261.69 322.068 261.69 318.521 261.69 317.713C261.69 317.081 261.69 315.64 262.287 314.692C262.954 313.673 264.008 313.322 264.745 313.322C267.836 313.322 267.836 316.87 267.836 317.678C267.836 318.31 267.836 319.75 267.239 320.698C266.572 321.717 265.518 322.068 264.781 322.068ZM265.729 334.537C262.357 334.537 259.793 332.816 259.793 330.814C259.793 330.533 259.863 329.163 261.198 328.25C261.971 327.758 262.287 327.758 264.745 327.758C267.661 327.758 271.63 327.758 271.63 330.814C271.63 332.886 268.96 334.537 265.729 334.537Z" fill="#2F80ED"/>
<path id="Vector_16" d="M287.887 317.783C287.957 317.572 288.835 315.816 290.135 314.692C291.048 313.849 292.242 313.287 293.612 313.287C295.017 313.287 295.509 314.341 295.509 315.746C295.509 317.748 294.069 321.752 293.366 323.649C293.05 324.492 292.875 324.948 292.875 325.58C292.875 327.161 293.963 328.426 295.649 328.426C298.916 328.426 300.145 323.262 300.145 323.052C300.145 322.876 300.005 322.735 299.794 322.735C299.478 322.735 299.443 322.841 299.267 323.438C298.459 326.318 297.125 327.723 295.755 327.723C295.403 327.723 294.841 327.688 294.841 326.564C294.841 325.686 295.228 324.632 295.439 324.14C296.141 322.209 297.616 318.275 297.616 316.273C297.616 314.165 296.387 312.584 293.717 312.584C290.591 312.584 288.941 314.797 288.308 315.675C288.203 313.673 286.763 312.584 285.217 312.584C284.093 312.584 283.321 313.252 282.724 314.446C282.091 315.711 281.6 317.818 281.6 317.958C281.6 318.099 281.74 318.275 281.986 318.275C282.267 318.275 282.302 318.239 282.513 317.432C283.075 315.289 283.707 313.287 285.112 313.287C285.92 313.287 286.201 313.849 286.201 314.903C286.201 315.675 285.85 317.045 285.604 318.134L284.62 321.928C284.48 322.595 284.093 324.175 283.918 324.808C283.672 325.721 283.286 327.372 283.286 327.547C283.286 328.039 283.672 328.426 284.199 328.426C284.62 328.426 285.112 328.215 285.393 327.688C285.463 327.512 285.779 326.283 285.955 325.58L286.728 322.419L287.887 317.783Z" fill="#2F80ED"/>
<path id="Vector_17" d="M311.085 319.328C311.085 316.659 310.734 312.303 308.767 308.229C306.694 304.014 303.814 301.731 303.428 301.731C303.287 301.731 303.112 301.801 303.112 302.012C303.112 302.117 303.112 302.188 303.709 302.785C307.221 306.332 309.188 312.128 309.188 319.293C309.188 326.107 307.537 331.973 303.463 336.118C303.112 336.434 303.112 336.504 303.112 336.609C303.112 336.82 303.287 336.89 303.428 336.89C303.885 336.89 306.765 334.361 308.486 330.919C310.277 327.337 311.085 323.543 311.085 319.328Z" fill="#2F80ED"/>
<path id="Vector_18" d="M321.158 308.795C321.533 308.444 322.516 307.671 322.891 307.343C324.343 306.008 325.724 304.72 325.724 302.59C325.724 299.803 323.383 298 320.456 298C317.646 298 315.796 300.131 315.796 302.215C315.796 303.362 316.709 303.526 317.037 303.526C317.529 303.526 318.255 303.175 318.255 302.285C318.255 301.068 317.084 301.068 316.803 301.068C317.482 299.358 319.051 298.773 320.198 298.773C322.376 298.773 323.5 300.623 323.5 302.59C323.5 305.025 321.79 306.804 319.027 309.638L316.077 312.682C315.796 312.94 315.796 312.986 315.796 313.572H325.045L325.724 309.38H324.998C324.928 309.849 324.741 311.019 324.46 311.464C324.319 311.652 322.54 311.652 322.165 311.652H317.997L321.158 308.795Z" fill="#2F80ED"/>
</g>
</g>
<g id="$2$60_2" clip-path="url(#clip3)">
<g id="page1_4">
<path id="Vector_19" d="M214.182 350.185H213.023C212.865 351.081 212.444 353.979 211.917 354.822C211.548 355.296 208.545 355.296 206.964 355.296H197.217C198.64 354.084 201.854 350.712 203.224 349.448C211.232 342.071 214.182 339.332 214.182 334.116C214.182 328.057 209.388 324 203.276 324C197.165 324 193.582 329.216 193.582 333.747C193.582 336.434 195.9 336.434 196.058 336.434C197.165 336.434 198.535 335.644 198.535 333.958C198.535 332.483 197.534 331.481 196.058 331.481C195.584 331.481 195.479 331.481 195.321 331.534C196.322 327.951 199.167 325.528 202.591 325.528C207.07 325.528 209.809 329.269 209.809 334.116C209.809 338.594 207.228 342.493 204.225 345.865L193.582 357.772V359.036H212.813L214.182 350.185Z" fill="#2F80ED"/>
</g>
</g>
<path id="=" d="M389.12 334.92L370 335.08C369.68 335.08 369.4 336 369.4 336.52C369.4 336.68 369.52 337.16 369.92 337.16H389.12C389.36 337.16 389.52 336.36 389.52 335.4C389.52 335.16 389.32 334.92 389.12 334.92ZM389.08 342.48L370 342.44C369.68 342.44 369.4 343.12 369.4 343.68C369.4 344 369.64 344.56 369.96 344.56L388.96 344.6C389.2 344.6 389.52 344.12 389.52 343.12C389.52 342.76 389.24 342.48 389.08 342.48Z" fill="#2F80ED"/>
</g>
<g id="132:131">
<g id="$2$60_3" clip-path="url(#clip4)">
<g id="page1_5">
<path id="Vector_20" d="M471.182 350.185H470.023C469.865 351.081 469.444 353.979 468.917 354.822C468.548 355.296 465.545 355.296 463.964 355.296H454.217C455.64 354.084 458.854 350.712 460.224 349.448C468.232 342.071 471.182 339.332 471.182 334.116C471.182 328.057 466.388 324 460.276 324C454.165 324 450.582 329.216 450.582 333.747C450.582 336.434 452.9 336.434 453.058 336.434C454.165 336.434 455.535 335.644 455.535 333.958C455.535 332.483 454.534 331.481 453.058 331.481C452.584 331.481 452.479 331.481 452.321 331.534C453.322 327.951 456.167 325.528 459.591 325.528C464.07 325.528 466.809 329.269 466.809 334.116C466.809 338.594 464.228 342.493 461.225 345.865L450.582 357.772V359.036H469.813L471.182 350.185Z" fill="#2F80ED"/>
</g>
</g>
<g id="$\log n$40" clip-path="url(#clip5)">
<g id="page1_6">
<path id="Vector_21" d="M486.041 302L481.159 302.386V303.405C483.548 303.405 483.829 303.651 483.829 305.372V323.777C483.829 325.358 483.442 325.358 481.159 325.358V326.376C482.143 326.306 483.864 326.306 484.917 326.306C485.971 326.306 487.727 326.306 488.711 326.376V325.358C486.463 325.358 486.041 325.358 486.041 323.777V302Z" fill="#2F80ED"/>
<path id="Vector_22" d="M505.675 318.86C505.675 314.329 502.233 310.711 498.159 310.711C493.944 310.711 490.607 314.434 490.607 318.86C490.607 323.356 494.119 326.728 498.124 326.728C502.268 326.728 505.675 323.285 505.675 318.86ZM498.159 325.955C496.859 325.955 495.278 325.393 494.26 323.672C493.312 322.091 493.276 320.019 493.276 318.544C493.276 317.209 493.276 315.066 494.365 313.486C495.349 311.975 496.894 311.413 498.124 311.413C499.493 311.413 500.969 312.046 501.917 313.416C503.006 315.031 503.006 317.244 503.006 318.544C503.006 319.773 503.006 321.951 502.093 323.602C501.109 325.288 499.493 325.955 498.159 325.955Z" fill="#2F80ED"/>
<path id="Vector_23" d="M510.929 320.019C512.58 321.108 513.985 321.108 514.371 321.108C517.532 321.108 519.885 318.719 519.885 316.015C519.885 315.066 519.604 313.731 518.48 312.607C519.85 311.202 521.501 311.202 521.677 311.202C521.817 311.202 521.993 311.202 522.133 311.273C521.782 311.413 521.606 311.764 521.606 312.151C521.606 312.643 521.958 313.064 522.52 313.064C522.801 313.064 523.433 312.888 523.433 312.116C523.433 311.483 522.941 310.5 521.712 310.5C519.885 310.5 518.516 311.624 518.024 312.151C516.97 311.343 515.741 310.886 514.406 310.886C511.245 310.886 508.891 313.275 508.891 315.979C508.891 317.981 510.121 319.281 510.472 319.597C510.051 320.124 509.418 321.143 509.418 322.513C509.418 324.55 510.648 325.428 510.929 325.603C509.313 326.06 507.697 327.325 507.697 329.151C507.697 331.575 510.999 333.577 515.319 333.577C519.499 333.577 522.976 331.715 522.976 329.081C522.976 328.203 522.73 326.13 520.623 325.041C518.832 324.128 517.075 324.128 514.055 324.128C511.912 324.128 511.666 324.128 511.034 323.461C510.683 323.11 510.367 322.442 510.367 321.705C510.367 321.108 510.577 320.51 510.929 320.019ZM514.406 320.37C511.315 320.37 511.315 316.822 511.315 316.015C511.315 315.382 511.315 313.942 511.912 312.994C512.58 311.975 513.633 311.624 514.371 311.624C517.462 311.624 517.462 315.172 517.462 315.979C517.462 316.612 517.462 318.052 516.865 319C516.197 320.019 515.144 320.37 514.406 320.37ZM515.354 332.839C511.982 332.839 509.418 331.118 509.418 329.116C509.418 328.835 509.489 327.465 510.823 326.552C511.596 326.06 511.912 326.06 514.371 326.06C517.286 326.06 521.255 326.06 521.255 329.116C521.255 331.188 518.586 332.839 515.354 332.839Z" fill="#2F80ED"/>
<path id="Vector_24" d="M537.513 316.085C537.583 315.874 538.461 314.118 539.761 312.994C540.674 312.151 541.868 311.589 543.238 311.589C544.643 311.589 545.135 312.643 545.135 314.048C545.135 316.05 543.695 320.054 542.992 321.951C542.676 322.794 542.5 323.25 542.5 323.883C542.5 325.463 543.589 326.728 545.275 326.728C548.542 326.728 549.771 321.565 549.771 321.354C549.771 321.178 549.631 321.038 549.42 321.038C549.104 321.038 549.069 321.143 548.893 321.74C548.085 324.62 546.751 326.025 545.381 326.025C545.029 326.025 544.467 325.99 544.467 324.866C544.467 323.988 544.854 322.934 545.065 322.443C545.767 320.511 547.242 316.577 547.242 314.575C547.242 312.467 546.013 310.887 543.343 310.887C540.217 310.887 538.567 313.1 537.934 313.978C537.829 311.976 536.389 310.887 534.843 310.887C533.719 310.887 532.947 311.554 532.35 312.748C531.717 314.013 531.226 316.12 531.226 316.261C531.226 316.401 531.366 316.577 531.612 316.577C531.893 316.577 531.928 316.542 532.139 315.734C532.701 313.591 533.333 311.589 534.738 311.589C535.546 311.589 535.827 312.151 535.827 313.205C535.827 313.978 535.476 315.348 535.23 316.436L534.246 320.23C534.106 320.897 533.719 322.478 533.544 323.11C533.298 324.023 532.912 325.674 532.912 325.85C532.912 326.341 533.298 326.728 533.825 326.728C534.246 326.728 534.738 326.517 535.019 325.99C535.089 325.815 535.405 324.585 535.581 323.883L536.354 320.722L537.513 316.085Z" fill="#2F80ED"/>
</g>
</g>
<g id="$\ ^{\log n}$40" clip-path="url(#clip6)">
<g id="page1_7">
<path id="Vector_25" d="M574.473 293L570.984 293.258V294.03C572.576 294.03 572.764 294.194 572.764 295.342V307.424C572.764 308.478 572.483 308.478 570.984 308.478V309.251C571.897 309.181 573.208 309.181 573.606 309.181C574.075 309.181 575.339 309.181 576.253 309.251V308.478C574.754 308.478 574.473 308.478 574.473 307.424V293Z" fill="#2F80ED"/>
<path id="Vector_26" d="M588.62 304.264C588.62 301.337 586.208 298.808 583.118 298.808C580.027 298.808 577.615 301.337 577.615 304.264C577.615 307.191 580.12 309.485 583.118 309.485C586.138 309.485 588.62 307.191 588.62 304.264ZM583.118 308.759C581.853 308.759 580.87 308.151 580.354 307.331C579.769 306.371 579.699 305.224 579.699 304.053C579.699 303.163 579.699 301.758 580.425 300.751C581.034 299.932 582.017 299.463 583.118 299.463C584.335 299.463 585.342 300.049 585.881 300.868C586.513 301.852 586.536 303.116 586.536 304.053C586.536 305.13 586.489 306.418 585.834 307.401C585.202 308.338 584.148 308.759 583.118 308.759Z" fill="#2F80ED"/>
<path id="Vector_27" d="M593.402 307.635C592.676 307.565 592.091 306.932 592.091 306.089C592.091 305.527 592.231 305.317 592.395 305.106C593.379 305.691 594.292 305.808 594.854 305.808C597.172 305.808 598.882 304.193 598.882 302.366C598.882 301.476 598.484 300.727 597.922 300.118C598.249 299.837 599.022 299.346 600.17 299.322C600.076 299.392 599.959 299.509 599.959 299.884C599.959 300.306 600.263 300.61 600.685 300.61C601.012 300.61 601.411 300.399 601.411 299.861C601.411 299.463 601.106 298.667 600.076 298.667C599.678 298.667 598.554 298.76 597.477 299.744C596.891 299.322 595.978 298.924 594.877 298.924C592.559 298.924 590.85 300.54 590.85 302.366C590.85 303.467 591.459 304.286 591.95 304.755C591.435 305.34 591.248 306.089 591.248 306.651C591.248 307.611 591.716 308.337 592.231 308.735C591.014 309.063 590.054 309.977 590.054 311.054C590.054 312.74 592.466 314.051 595.557 314.051C598.484 314.051 601.059 312.857 601.059 311.007C601.059 309.742 600.31 308.759 599.537 308.361C598.156 307.635 597.008 307.635 594.714 307.635H593.402ZM594.877 305.129C592.7 305.129 592.7 302.881 592.7 302.366C592.7 301.5 592.817 300.891 593.168 300.423C593.566 299.884 594.222 299.603 594.854 299.603C597.032 299.603 597.032 301.851 597.032 302.366C597.032 303.233 596.915 303.841 596.563 304.31C596.048 304.965 595.299 305.129 594.877 305.129ZM595.978 309.157C596.61 309.157 599.678 309.157 599.678 311.03C599.678 312.295 597.875 313.372 595.557 313.372C593.215 313.372 591.435 312.295 591.435 311.03C591.435 310.539 591.81 309.157 593.73 309.157H595.978Z" fill="#2F80ED"/>
<path id="Vector_28" d="M610.967 305.411C611.037 305.059 611.271 304.17 611.342 303.818C611.67 302.554 611.67 302.53 612.208 301.758C612.981 300.61 614.081 299.58 615.65 299.58C616.493 299.58 616.985 300.072 616.985 301.172C616.985 302.46 616.002 305.13 615.557 306.277C615.252 307.05 615.252 307.19 615.252 307.495C615.252 308.829 616.353 309.485 617.36 309.485C619.654 309.485 620.615 306.207 620.615 305.902C620.615 305.668 620.427 305.598 620.263 305.598C619.982 305.598 619.935 305.762 619.865 305.996C619.303 307.916 618.32 308.829 617.43 308.829C617.055 308.829 616.868 308.595 616.868 308.057C616.868 307.518 617.055 307.003 617.289 306.417C617.641 305.528 618.671 302.835 618.671 301.524C618.671 299.767 617.453 298.924 615.767 298.924C613.871 298.924 612.653 300.072 611.974 300.962C611.81 299.674 610.78 298.924 609.586 298.924C608.743 298.924 608.157 299.463 607.782 300.189C607.22 301.289 606.986 302.46 606.986 302.507C606.986 302.718 607.15 302.811 607.338 302.811C607.642 302.811 607.665 302.718 607.829 302.109C608.11 300.962 608.532 299.58 609.515 299.58C610.124 299.58 610.265 300.165 610.265 300.681C610.265 301.102 610.148 301.547 609.96 302.32C609.913 302.507 609.562 303.889 609.468 304.216L608.602 307.729C608.508 308.08 608.368 308.665 608.368 308.759C608.368 309.298 608.813 309.485 609.117 309.485C609.539 309.485 609.89 309.204 610.054 308.923C610.124 308.783 610.311 307.986 610.429 307.495L610.967 305.411Z" fill="#2F80ED"/>
</g>
</g>
<g id="$($40" clip-path="url(#clip7)">
<g id="page1_8">
<path id="Vector_29" d="M447.484 367.552C447.484 367.36 447.484 367.232 446.412 366.144C440.109 359.68 436.58 349.12 436.58 336.064C436.58 323.648 439.542 312.96 446.853 305.408C447.484 304.832 447.484 304.704 447.484 304.512C447.484 304.128 447.168 304 446.916 304C446.097 304 440.929 308.608 437.84 314.88C434.626 321.344 433.176 328.192 433.176 336.064C433.176 341.76 434.059 349.376 437.336 356.224C441.055 363.904 446.223 368.064 446.916 368.064C447.168 368.064 447.484 367.936 447.484 367.552Z" fill="#2F80ED"/>
</g>
</g>
<g id="$($40_2" clip-path="url(#clip8)">
<g id="page1_9">
<path id="Vector_30" d="M555.516 304.448C555.516 304.64 555.516 304.768 556.588 305.856C562.891 312.32 566.42 322.88 566.42 335.936C566.42 348.352 563.458 359.04 556.147 366.592C555.516 367.168 555.516 367.296 555.516 367.488C555.516 367.872 555.832 368 556.084 368C556.903 368 562.071 363.392 565.16 357.12C568.374 350.656 569.824 343.808 569.824 335.936C569.824 330.24 568.941 322.624 565.664 315.776C561.945 308.096 556.777 303.936 556.084 303.936C555.832 303.936 555.516 304.064 555.516 304.448Z" fill="#2F80ED"/>
</g>
</g>
<path id="=_2" d="M664.12 334.92L645 335.08C644.68 335.08 644.4 336 644.4 336.52C644.4 336.68 644.52 337.16 644.92 337.16H664.12C664.36 337.16 664.52 336.36 664.52 335.4C664.52 335.16 664.32 334.92 664.12 334.92ZM664.08 342.48L645 342.44C644.68 342.44 644.4 343.12 644.4 343.68C644.4 344 644.64 344.56 644.96 344.56L663.96 344.6C664.2 344.6 664.52 344.12 664.52 343.12C664.52 342.76 664.24 342.48 664.08 342.48Z" fill="#2F80ED"/>
</g>
<g id="132:132">
<g id="$\log n$40_2" clip-path="url(#clip9)">
<g id="page1_10">
<path id="Vector_31" d="M756.041 306L751.159 306.386V307.405C753.548 307.405 753.829 307.651 753.829 309.372V327.777C753.829 329.358 753.442 329.358 751.159 329.358V330.376C752.143 330.306 753.864 330.306 754.917 330.306C755.971 330.306 757.727 330.306 758.711 330.376V329.358C756.463 329.358 756.041 329.358 756.041 327.777V306Z" fill="#2F80ED"/>
<path id="Vector_32" d="M775.675 322.86C775.675 318.329 772.233 314.711 768.159 314.711C763.944 314.711 760.607 318.434 760.607 322.86C760.607 327.356 764.119 330.728 768.124 330.728C772.268 330.728 775.675 327.285 775.675 322.86ZM768.159 329.955C766.859 329.955 765.278 329.393 764.26 327.672C763.312 326.091 763.276 324.019 763.276 322.544C763.276 321.209 763.276 319.066 764.365 317.486C765.349 315.975 766.894 315.413 768.124 315.413C769.493 315.413 770.969 316.046 771.917 317.416C773.006 319.031 773.006 321.244 773.006 322.544C773.006 323.773 773.006 325.951 772.093 327.602C771.109 329.288 769.493 329.955 768.159 329.955Z" fill="#2F80ED"/>
<path id="Vector_33" d="M780.929 324.019C782.58 325.108 783.985 325.108 784.371 325.108C787.532 325.108 789.885 322.719 789.885 320.015C789.885 319.066 789.604 317.731 788.48 316.607C789.85 315.202 791.501 315.202 791.677 315.202C791.817 315.202 791.993 315.202 792.133 315.273C791.782 315.413 791.606 315.764 791.606 316.151C791.606 316.643 791.958 317.064 792.52 317.064C792.801 317.064 793.433 316.888 793.433 316.116C793.433 315.483 792.941 314.5 791.712 314.5C789.885 314.5 788.516 315.624 788.024 316.151C786.97 315.343 785.741 314.886 784.406 314.886C781.245 314.886 778.891 317.275 778.891 319.979C778.891 321.981 780.121 323.281 780.472 323.597C780.051 324.124 779.418 325.143 779.418 326.513C779.418 328.55 780.648 329.428 780.929 329.603C779.313 330.06 777.697 331.325 777.697 333.151C777.697 335.575 780.999 337.577 785.319 337.577C789.499 337.577 792.976 335.715 792.976 333.081C792.976 332.203 792.73 330.13 790.623 329.041C788.832 328.128 787.075 328.128 784.055 328.128C781.912 328.128 781.666 328.128 781.034 327.461C780.683 327.11 780.367 326.442 780.367 325.705C780.367 325.108 780.577 324.51 780.929 324.019ZM784.406 324.37C781.315 324.37 781.315 320.822 781.315 320.015C781.315 319.382 781.315 317.942 781.912 316.994C782.58 315.975 783.633 315.624 784.371 315.624C787.462 315.624 787.462 319.172 787.462 319.979C787.462 320.612 787.462 322.052 786.865 323C786.197 324.019 785.144 324.37 784.406 324.37ZM785.354 336.839C781.982 336.839 779.418 335.118 779.418 333.116C779.418 332.835 779.489 331.465 780.823 330.552C781.596 330.06 781.912 330.06 784.371 330.06C787.286 330.06 791.255 330.06 791.255 333.116C791.255 335.188 788.586 336.839 785.354 336.839Z" fill="#2F80ED"/>
<path id="Vector_34" d="M807.513 320.085C807.583 319.874 808.461 318.118 809.761 316.994C810.674 316.151 811.868 315.589 813.238 315.589C814.643 315.589 815.135 316.643 815.135 318.048C815.135 320.05 813.695 324.054 812.992 325.951C812.676 326.794 812.5 327.25 812.5 327.883C812.5 329.463 813.589 330.728 815.275 330.728C818.542 330.728 819.771 325.565 819.771 325.354C819.771 325.178 819.631 325.038 819.42 325.038C819.104 325.038 819.069 325.143 818.893 325.74C818.085 328.62 816.751 330.025 815.381 330.025C815.029 330.025 814.467 329.99 814.467 328.866C814.467 327.988 814.854 326.934 815.065 326.443C815.767 324.511 817.242 320.577 817.242 318.575C817.242 316.467 816.013 314.887 813.343 314.887C810.217 314.887 808.567 317.1 807.934 317.978C807.829 315.976 806.389 314.887 804.843 314.887C803.719 314.887 802.947 315.554 802.35 316.748C801.717 318.013 801.226 320.12 801.226 320.261C801.226 320.401 801.366 320.577 801.612 320.577C801.893 320.577 801.928 320.542 802.139 319.734C802.701 317.591 803.333 315.589 804.738 315.589C805.546 315.589 805.827 316.151 805.827 317.205C805.827 317.978 805.476 319.348 805.23 320.436L804.246 324.23C804.106 324.897 803.719 326.478 803.544 327.11C803.298 328.023 802.912 329.674 802.912 329.85C802.912 330.341 803.298 330.728 803.825 330.728C804.246 330.728 804.738 330.517 805.019 329.99C805.089 329.815 805.405 328.585 805.581 327.883L806.354 324.722L807.513 320.085Z" fill="#2F80ED"/>
</g>
</g>
<g id="$n$60" clip-path="url(#clip10)">
<g id="page1_11">
<path id="Vector_35" d="M729.853 343.247C729.959 342.931 731.276 340.297 733.225 338.611C734.595 337.346 736.386 336.503 738.441 336.503C740.549 336.503 741.286 338.084 741.286 340.191C741.286 343.195 739.126 349.201 738.072 352.046C737.598 353.31 737.335 353.995 737.335 354.944C737.335 357.315 738.968 359.211 741.497 359.211C746.397 359.211 748.241 351.466 748.241 351.15C748.241 350.887 748.03 350.676 747.714 350.676C747.24 350.676 747.187 350.834 746.924 351.73C745.712 356.05 743.71 358.158 741.655 358.158C741.128 358.158 740.285 358.105 740.285 356.419C740.285 355.102 740.865 353.521 741.181 352.784C742.235 349.886 744.447 343.985 744.447 340.982C744.447 337.821 742.603 335.45 738.599 335.45C733.91 335.45 731.434 338.769 730.485 340.086C730.327 337.083 728.167 335.45 725.849 335.45C724.163 335.45 723.004 336.451 722.108 338.242C721.16 340.139 720.422 343.3 720.422 343.511C720.422 343.721 720.633 343.985 721.002 343.985C721.423 343.985 721.476 343.932 721.792 342.72C722.635 339.507 723.584 336.503 725.691 336.503C726.903 336.503 727.324 337.346 727.324 338.927C727.324 340.086 726.797 342.141 726.429 343.774L724.953 349.464C724.743 350.465 724.163 352.836 723.9 353.785C723.531 355.154 722.951 357.631 722.951 357.894C722.951 358.632 723.531 359.211 724.321 359.211C724.953 359.211 725.691 358.895 726.112 358.105C726.218 357.841 726.692 355.997 726.955 354.944L728.115 350.202L729.853 343.247Z" fill="#2F80ED"/>
</g>
</g>
<path id="=_3" d="M884.12 334.92L865 335.08C864.68 335.08 864.4 336 864.4 336.52C864.4 336.68 864.52 337.16 864.92 337.16H884.12C884.36 337.16 884.52 336.36 884.52 335.4C884.52 335.16 884.32 334.92 884.12 334.92ZM884.08 342.48L865 342.44C864.68 342.44 864.4 343.12 864.4 343.68C864.4 344 864.64 344.56 864.96 344.56L883.96 344.6C884.2 344.6 884.52 344.12 884.52 343.12C884.52 342.76 884.24 342.48 884.08 342.48Z" fill="#2F80ED"/>
</g>
</g>
<defs>
<clipPath id="clip0">
<rect width="23.182" height="35.0365" fill="white" transform="translate(918 324)"/>
</clipPath>
<clipPath id="clip1">
<rect width="141.076" height="39.5695" fill="white" transform="translate(948 298)"/>
</clipPath>
<clipPath id="clip2">
<rect width="108.726" height="38.8905" fill="white" transform="translate(217 298)"/>
</clipPath>
<clipPath id="clip3">
<rect width="23.182" height="35.0365" fill="white" transform="translate(191 324)"/>
</clipPath>
<clipPath id="clip4">
<rect width="23.182" height="35.0365" fill="white" transform="translate(448 324)"/>
</clipPath>
<clipPath id="clip5">
<rect width="69.7712" height="31.5767" fill="white" transform="translate(480 302)"/>
</clipPath>
<clipPath id="clip6">
<rect width="50.6141" height="21.0512" fill="white" transform="translate(570 293)"/>
</clipPath>
<clipPath id="clip7">
<rect width="24" height="64" fill="white" transform="translate(427 304)"/>
</clipPath>
<clipPath id="clip8">
<rect width="24" height="64" fill="white" transform="translate(576 368) rotate(180)"/>
</clipPath>
<clipPath id="clip9">
<rect width="69.7712" height="31.5767" fill="white" transform="translate(750 306)"/>
</clipPath>
<clipPath id="clip10">
<rect width="30.7944" height="22.6845" fill="white" transform="translate(719 336)"/>
</clipPath>
</defs>
</svg>
