<svg width="527" height="300" viewBox="0 0 527 300" fill="none" xmlns="http://www.w3.org/2000/svg">
<g id="Slajd 2">
<rect width="527" height="300" fill="white"/>
<path id="Dupa" d="M186.156 175V123.812H200.605C205.059 123.812 208.996 124.797 212.418 126.766C215.84 128.734 218.477 131.535 220.328 135.168C222.203 138.801 223.152 142.973 223.176 147.684V150.953C223.176 155.781 222.238 160.012 220.363 163.645C218.512 167.277 215.852 170.066 212.383 172.012C208.938 173.957 204.918 174.953 200.324 175H186.156ZM192.906 129.367V169.48H200.008C205.211 169.48 209.254 167.863 212.137 164.629C215.043 161.395 216.496 156.789 216.496 150.812V147.824C216.496 142.012 215.125 137.5 212.383 134.289C209.664 131.055 205.797 129.414 200.781 129.367H192.906ZM255.871 171.238C253.34 174.215 249.625 175.703 244.727 175.703C240.672 175.703 237.578 174.531 235.445 172.188C233.336 169.82 232.27 166.328 232.246 161.711V136.961H238.75V161.535C238.75 167.301 241.094 170.184 245.781 170.184C250.75 170.184 254.055 168.332 255.695 164.629V136.961H262.199V175H256.012L255.871 171.238ZM304.246 156.402C304.246 162.191 302.922 166.855 300.273 170.395C297.625 173.934 294.039 175.703 289.516 175.703C284.898 175.703 281.266 174.238 278.617 171.309V189.625H272.113V136.961H278.055L278.371 141.18C281.02 137.898 284.699 136.258 289.41 136.258C293.98 136.258 297.59 137.98 300.238 141.426C302.91 144.871 304.246 149.664 304.246 155.805V156.402ZM297.742 155.664C297.742 151.375 296.828 147.988 295 145.504C293.172 143.02 290.664 141.777 287.477 141.777C283.539 141.777 280.586 143.523 278.617 147.016V165.191C280.562 168.66 283.539 170.395 287.547 170.395C290.664 170.395 293.137 169.164 294.965 166.703C296.816 164.219 297.742 160.539 297.742 155.664ZM336.027 175C335.652 174.25 335.348 172.914 335.113 170.992C332.09 174.133 328.48 175.703 324.285 175.703C320.535 175.703 317.453 174.648 315.039 172.539C312.648 170.406 311.453 167.711 311.453 164.453C311.453 160.492 312.953 157.422 315.953 155.242C318.977 153.039 323.219 151.938 328.68 151.938H335.008V148.949C335.008 146.676 334.328 144.871 332.969 143.535C331.609 142.176 329.605 141.496 326.957 141.496C324.637 141.496 322.691 142.082 321.121 143.254C319.551 144.426 318.766 145.844 318.766 147.508H312.227C312.227 145.609 312.895 143.781 314.23 142.023C315.59 140.242 317.418 138.836 319.715 137.805C322.035 136.773 324.578 136.258 327.344 136.258C331.727 136.258 335.16 137.359 337.645 139.562C340.129 141.742 341.418 144.754 341.512 148.598V166.105C341.512 169.598 341.957 172.375 342.848 174.438V175H336.027ZM325.234 170.043C327.273 170.043 329.207 169.516 331.035 168.461C332.863 167.406 334.188 166.035 335.008 164.348V156.543H329.91C321.941 156.543 317.957 158.875 317.957 163.539C317.957 165.578 318.637 167.172 319.996 168.32C321.355 169.469 323.102 170.043 325.234 170.043Z" fill="black"/>
</g>
</svg>
