<svg width="1024" height="768" viewBox="0 0 1024 768" fill="none" xmlns="http://www.w3.org/2000/svg">
<g id="new slide">
<rect width="1024" height="768" fill="white"/>
<path id="EATCS Fellows 2021" d="M252.062 74.6832H233.576V89.8004H255.051V94.4H227.951V51.7438H254.758V56.3727H233.576V70.0836H252.062V74.6832ZM285.607 83.2672H267.736L263.723 94.4H257.922L274.211 51.7438H279.133L295.451 94.4H289.68L285.607 83.2672ZM269.436 78.6383H283.938L276.672 58.6871L269.436 78.6383ZM326.857 56.3727H313.146V94.4H307.551V56.3727H293.869V51.7438H326.857V56.3727ZM363.742 80.8649C363.215 85.3766 361.545 88.8629 358.732 91.3239C355.939 93.7653 352.219 94.986 347.57 94.986C342.531 94.986 338.488 93.1793 335.441 89.566C332.414 85.9528 330.9 81.1188 330.9 75.0641V70.9625C330.9 66.9977 331.604 63.5114 333.01 60.5035C334.436 57.4957 336.447 55.191 339.045 53.5895C341.643 51.9684 344.65 51.1578 348.068 51.1578C352.6 51.1578 356.232 52.4274 358.967 54.9664C361.701 57.486 363.293 60.9821 363.742 65.4547H358.088C357.6 62.0563 356.535 59.5953 354.895 58.0719C353.273 56.5485 350.998 55.7867 348.068 55.7867C344.475 55.7867 341.652 57.1149 339.602 59.7711C337.57 62.4274 336.555 66.2067 336.555 71.109V75.2399C336.555 79.8688 337.521 83.5504 339.455 86.2848C341.389 89.0192 344.094 90.3864 347.57 90.3864C350.695 90.3864 353.088 89.6832 354.748 88.277C356.428 86.8512 357.541 84.3805 358.088 80.8649H363.742ZM384.016 75.3864C379.191 73.9996 375.676 72.3004 373.469 70.2887C371.281 68.2574 370.188 65.7574 370.188 62.7887C370.188 59.4293 371.525 56.6559 374.201 54.4684C376.896 52.2614 380.393 51.1578 384.689 51.1578C387.619 51.1578 390.227 51.7242 392.512 52.8571C394.816 53.9899 396.594 55.5524 397.844 57.5446C399.113 59.5367 399.748 61.7145 399.748 64.0778H394.094C394.094 61.4996 393.273 59.4781 391.633 58.0133C389.992 56.5289 387.678 55.7867 384.689 55.7867C381.916 55.7867 379.748 56.402 378.186 57.6324C376.643 58.8434 375.871 60.5328 375.871 62.7008C375.871 64.4391 376.604 65.9137 378.068 67.1246C379.553 68.316 382.062 69.4098 385.598 70.4059C389.152 71.402 391.926 72.5055 393.918 73.7164C395.93 74.9078 397.414 76.3043 398.371 77.9059C399.348 79.5074 399.836 81.3922 399.836 83.5602C399.836 87.0172 398.488 89.7906 395.793 91.8805C393.098 93.9508 389.494 94.986 384.982 94.986C382.053 94.986 379.318 94.4293 376.779 93.316C374.24 92.1832 372.277 90.6403 370.891 88.6871C369.523 86.734 368.84 84.5172 368.84 82.0367H374.494C374.494 84.6149 375.441 86.6559 377.336 88.1598C379.25 89.6442 381.799 90.3864 384.982 90.3864C387.951 90.3864 390.227 89.7809 391.809 88.5699C393.391 87.359 394.182 85.7086 394.182 83.6188C394.182 81.5289 393.449 79.9176 391.984 78.7848C390.52 77.6324 387.863 76.4996 384.016 75.3864ZM445.48 75.5621H427.58V94.4H421.955V51.7438H448.381V56.3727H427.58V70.9625H445.48V75.5621ZM466.779 94.986C462.482 94.986 458.986 93.5797 456.291 90.7672C453.596 87.9352 452.248 84.1559 452.248 79.4293V78.4332C452.248 75.2887 452.844 72.486 454.035 70.025C455.246 67.5446 456.926 65.611 459.074 64.2242C461.242 62.818 463.586 62.1149 466.105 62.1149C470.227 62.1149 473.43 63.4723 475.715 66.1871C478 68.902 479.143 72.7887 479.143 77.8473V80.1031H457.668C457.746 83.2281 458.654 85.7574 460.393 87.691C462.15 89.6051 464.377 90.5621 467.072 90.5621C468.986 90.5621 470.607 90.1715 471.936 89.3903C473.264 88.609 474.426 87.5739 475.422 86.2848L478.732 88.8629C476.076 92.9449 472.092 94.986 466.779 94.986ZM466.105 66.568C463.918 66.568 462.082 67.3688 460.598 68.9703C459.113 70.5524 458.195 72.7789 457.844 75.65H473.723V75.2399C473.566 72.486 472.824 70.3571 471.496 68.8531C470.168 67.3297 468.371 66.568 466.105 66.568ZM491.33 94.4H485.91V49.4H491.33V94.4ZM505.92 94.4H500.5V49.4H505.92V94.4ZM513.186 78.2574C513.186 75.152 513.791 72.359 515.002 69.8785C516.232 67.3981 517.932 65.484 520.1 64.1364C522.287 62.7887 524.777 62.1149 527.57 62.1149C531.887 62.1149 535.373 63.609 538.029 66.5973C540.705 69.5856 542.043 73.5602 542.043 78.5211V78.902C542.043 81.9879 541.447 84.7614 540.256 87.2223C539.084 89.6637 537.395 91.568 535.188 92.9352C533 94.3024 530.48 94.986 527.629 94.986C523.332 94.986 519.846 93.4918 517.17 90.5035C514.514 87.5153 513.186 83.5602 513.186 78.6383V78.2574ZM518.635 78.902C518.635 82.4176 519.445 85.2399 521.066 87.3688C522.707 89.4977 524.895 90.5621 527.629 90.5621C530.383 90.5621 532.57 89.4879 534.191 87.3395C535.812 85.1715 536.623 82.1442 536.623 78.2574C536.623 74.7809 535.793 71.9684 534.133 69.8199C532.492 67.652 530.305 66.568 527.57 66.568C524.895 66.568 522.736 67.6324 521.096 69.7614C519.455 71.8903 518.635 74.9371 518.635 78.902ZM576.906 86.9293L583 62.7008H588.42L579.191 94.4H574.797L567.092 70.3766L559.592 94.4H555.197L545.998 62.7008H551.389L557.629 86.4313L565.012 62.7008H569.377L576.906 86.9293ZM612.414 85.9918C612.414 84.527 611.857 83.3942 610.744 82.5934C609.65 81.7731 607.727 81.0699 604.973 80.484C602.238 79.8981 600.061 79.1949 598.439 78.3746C596.838 77.5543 595.646 76.5778 594.865 75.4449C594.104 74.3121 593.723 72.9645 593.723 71.402C593.723 68.8043 594.816 66.6071 597.004 64.8102C599.211 63.0133 602.023 62.1149 605.441 62.1149C609.035 62.1149 611.945 63.0426 614.172 64.8981C616.418 66.7535 617.541 69.1266 617.541 72.0172H612.092C612.092 70.5328 611.457 69.2535 610.188 68.1793C608.938 67.1051 607.355 66.568 605.441 66.568C603.469 66.568 601.926 66.9977 600.812 67.8571C599.699 68.7164 599.143 69.8395 599.143 71.2262C599.143 72.5348 599.66 73.5211 600.695 74.1852C601.73 74.8492 603.596 75.484 606.291 76.0895C609.006 76.6949 611.203 77.4176 612.883 78.2574C614.562 79.0973 615.803 80.1129 616.604 81.3043C617.424 82.4762 617.834 83.9117 617.834 85.611C617.834 88.443 616.701 90.7184 614.436 92.4371C612.17 94.1364 609.23 94.986 605.617 94.986C603.078 94.986 600.832 94.5367 598.879 93.6383C596.926 92.7399 595.393 91.4899 594.279 89.8883C593.186 88.2672 592.639 86.5192 592.639 84.6442H598.059C598.156 86.4606 598.879 87.9059 600.227 88.9801C601.594 90.0348 603.391 90.5621 605.617 90.5621C607.668 90.5621 609.309 90.152 610.539 89.3317C611.789 88.4918 612.414 87.3785 612.414 85.9918ZM667.17 94.4H639.221V90.5035L653.986 74.0973C656.174 71.6168 657.678 69.6051 658.498 68.0621C659.338 66.4996 659.758 64.8883 659.758 63.2281C659.758 61.0016 659.084 59.1754 657.736 57.7496C656.389 56.3239 654.592 55.611 652.346 55.611C649.65 55.611 647.551 56.3824 646.047 57.9254C644.562 59.4489 643.82 61.5778 643.82 64.3121H638.4C638.4 60.3864 639.66 57.2125 642.18 54.7906C644.719 52.3688 648.107 51.1578 652.346 51.1578C656.311 51.1578 659.445 52.2028 661.75 54.2926C664.055 56.3629 665.207 59.1266 665.207 62.5836C665.207 66.7828 662.531 71.7828 657.18 77.5836L645.754 89.9762H667.17V94.4ZM699.66 76.2067C699.66 82.5543 698.576 87.2711 696.408 90.3571C694.24 93.443 690.852 94.986 686.242 94.986C681.691 94.986 678.322 93.4821 676.135 90.4742C673.947 87.4469 672.814 82.9352 672.736 76.9391V69.7028C672.736 63.4332 673.82 58.775 675.988 55.7281C678.156 52.6813 681.555 51.1578 686.184 51.1578C690.773 51.1578 694.152 52.6324 696.32 55.5817C698.488 58.5114 699.602 63.0426 699.66 69.1754V76.2067ZM694.24 68.7946C694.24 64.2047 693.596 60.8649 692.307 58.775C691.018 56.6656 688.977 55.611 686.184 55.611C683.41 55.611 681.389 56.6559 680.119 58.7457C678.85 60.8356 678.195 64.0485 678.156 68.3844V77.0563C678.156 81.6656 678.82 85.0739 680.148 87.2809C681.496 89.4684 683.527 90.5621 686.242 90.5621C688.918 90.5621 690.9 89.527 692.189 87.4567C693.498 85.3864 694.182 82.1246 694.24 77.6715V68.7946ZM734.553 94.4H706.604V90.5035L721.369 74.0973C723.557 71.6168 725.061 69.6051 725.881 68.0621C726.721 66.4996 727.141 64.8883 727.141 63.2281C727.141 61.0016 726.467 59.1754 725.119 57.7496C723.771 56.3239 721.975 55.611 719.729 55.611C717.033 55.611 714.934 56.3824 713.43 57.9254C711.945 59.4489 711.203 61.5778 711.203 64.3121H705.783C705.783 60.3864 707.043 57.2125 709.562 54.7906C712.102 52.3688 715.49 51.1578 719.729 51.1578C723.693 51.1578 726.828 52.2028 729.133 54.2926C731.438 56.3629 732.59 59.1266 732.59 62.5836C732.59 66.7828 729.914 71.7828 724.562 77.5836L713.137 89.9762H734.553V94.4ZM758.107 94.4H752.658V58.277L741.73 62.2906V57.3688L757.258 51.5387H758.107V94.4Z" fill="black"/>
<path id="Selection committee: Christel Baier &#226;&#128;&#162; Miko&#197;&#130;aj Boja&#197;&#132;czyk &#226;&#128;&#162; Mariangiola Dezani &#226;&#128;&#162; Josep Diaz &#226;&#128;&#162; Giuseppe Italiano" d="M41.8398 134.062C40.2318 133.6 39.0599 133.033 38.3242 132.363C37.5951 131.686 37.2305 130.852 37.2305 129.863C37.2305 128.743 37.6764 127.819 38.5684 127.089C39.4668 126.354 40.6322 125.986 42.0645 125.986C43.041 125.986 43.9102 126.175 44.6719 126.552C45.4401 126.93 46.0326 127.451 46.4492 128.115C46.8724 128.779 47.084 129.505 47.084 130.293H45.1992C45.1992 129.433 44.9258 128.759 44.3789 128.271C43.832 127.776 43.0605 127.529 42.0645 127.529C41.14 127.529 40.4173 127.734 39.8965 128.144C39.3822 128.548 39.125 129.111 39.125 129.834C39.125 130.413 39.3691 130.905 39.8574 131.308C40.3522 131.705 41.1888 132.07 42.3672 132.402C43.5521 132.734 44.4766 133.102 45.1406 133.505C45.8112 133.903 46.306 134.368 46.625 134.902C46.9505 135.436 47.1133 136.064 47.1133 136.787C47.1133 137.939 46.6641 138.864 45.7656 139.56C44.8672 140.25 43.666 140.595 42.1621 140.595C41.1855 140.595 40.2741 140.41 39.4277 140.039C38.5814 139.661 37.9271 139.147 37.4648 138.496C37.0091 137.845 36.7812 137.106 36.7812 136.279H38.666C38.666 137.138 38.9818 137.819 39.6133 138.32C40.2513 138.815 41.1009 139.062 42.1621 139.062C43.1517 139.062 43.9102 138.86 44.4375 138.457C44.9648 138.053 45.2285 137.503 45.2285 136.806C45.2285 136.11 44.9844 135.573 44.4961 135.195C44.0078 134.811 43.1224 134.433 41.8398 134.062ZM53.627 140.595C52.1947 140.595 51.0293 140.127 50.1309 139.189C49.2324 138.245 48.7832 136.985 48.7832 135.41V135.078C48.7832 134.03 48.9818 133.095 49.3789 132.275C49.7826 131.448 50.3424 130.804 51.0586 130.341C51.7812 129.873 52.5625 129.638 53.4023 129.638C54.776 129.638 55.8438 130.091 56.6055 130.996C57.3672 131.901 57.748 133.196 57.748 134.882V135.634H50.5898C50.6159 136.676 50.9186 137.519 51.498 138.164C52.084 138.802 52.8262 139.121 53.7246 139.121C54.3626 139.121 54.903 138.991 55.3457 138.73C55.7884 138.47 56.1758 138.125 56.5078 137.695L57.6113 138.554C56.7259 139.915 55.3978 140.595 53.627 140.595ZM53.4023 131.123C52.6732 131.123 52.0612 131.39 51.5664 131.923C51.0716 132.451 50.7656 133.193 50.6484 134.15H55.9414V134.013C55.8893 133.095 55.6419 132.386 55.1992 131.884C54.7565 131.377 54.1576 131.123 53.4023 131.123ZM61.8105 140.4H60.0039V125.4H61.8105V140.4ZM69.0957 140.595C67.6634 140.595 66.498 140.127 65.5996 139.189C64.7012 138.245 64.252 136.985 64.252 135.41V135.078C64.252 134.03 64.4505 133.095 64.8477 132.275C65.2513 131.448 65.8112 130.804 66.5273 130.341C67.25 129.873 68.0312 129.638 68.8711 129.638C70.2448 129.638 71.3125 130.091 72.0742 130.996C72.8359 131.901 73.2168 133.196 73.2168 134.882V135.634H66.0586C66.0846 136.676 66.3874 137.519 66.9668 138.164C67.5527 138.802 68.2949 139.121 69.1934 139.121C69.8314 139.121 70.3717 138.991 70.8145 138.73C71.2572 138.47 71.6445 138.125 71.9766 137.695L73.0801 138.554C72.1947 139.915 70.8665 140.595 69.0957 140.595ZM68.8711 131.123C68.1419 131.123 67.5299 131.39 67.0352 131.923C66.5404 132.451 66.2344 133.193 66.1172 134.15H71.4102V134.013C71.3581 133.095 71.1107 132.386 70.668 131.884C70.2253 131.377 69.6263 131.123 68.8711 131.123ZM79.5547 139.121C80.1992 139.121 80.7624 138.925 81.2441 138.535C81.7259 138.144 81.9928 137.656 82.0449 137.07H83.7539C83.7214 137.675 83.513 138.252 83.1289 138.798C82.7448 139.345 82.2305 139.782 81.5859 140.107C80.9479 140.433 80.2708 140.595 79.5547 140.595C78.1159 140.595 76.9701 140.117 76.1172 139.16C75.2708 138.196 74.8477 136.881 74.8477 135.214V134.912C74.8477 133.883 75.0365 132.968 75.4141 132.168C75.7917 131.367 76.332 130.745 77.0352 130.302C77.7448 129.86 78.5814 129.638 79.5449 129.638C80.7298 129.638 81.7129 129.993 82.4941 130.703C83.2819 131.412 83.7018 132.334 83.7539 133.466H82.0449C81.9928 132.783 81.7324 132.223 81.2637 131.787C80.8014 131.344 80.2285 131.123 79.5449 131.123C78.627 131.123 77.9141 131.455 77.4062 132.119C76.9049 132.776 76.6543 133.73 76.6543 134.98V135.322C76.6543 136.539 76.9049 137.477 77.4062 138.134C77.9076 138.792 78.6237 139.121 79.5547 139.121ZM88.2363 127.275V129.834H90.209V131.23H88.2363V137.783C88.2363 138.206 88.3242 138.525 88.5 138.74C88.6758 138.948 88.9753 139.052 89.3984 139.052C89.6068 139.052 89.8932 139.013 90.2578 138.935V140.4C89.7826 140.53 89.3203 140.595 88.8711 140.595C88.0638 140.595 87.4551 140.351 87.0449 139.863C86.6348 139.375 86.4297 138.681 86.4297 137.783V131.23H84.5059V129.834H86.4297V127.275H88.2363ZM94.291 140.4H92.4844V129.834H94.291V140.4ZM92.3379 127.031C92.3379 126.738 92.4258 126.491 92.6016 126.289C92.7839 126.087 93.0508 125.986 93.4023 125.986C93.7539 125.986 94.0208 126.087 94.2031 126.289C94.3854 126.491 94.4766 126.738 94.4766 127.031C94.4766 127.324 94.3854 127.568 94.2031 127.763C94.0208 127.959 93.7539 128.056 93.4023 128.056C93.0508 128.056 92.7839 127.959 92.6016 127.763C92.4258 127.568 92.3379 127.324 92.3379 127.031ZM96.7129 135.019C96.7129 133.984 96.9147 133.053 97.3184 132.226C97.7285 131.399 98.2949 130.761 99.0176 130.312C99.7467 129.863 100.577 129.638 101.508 129.638C102.947 129.638 104.109 130.136 104.994 131.132C105.886 132.129 106.332 133.453 106.332 135.107V135.234C106.332 136.263 106.133 137.187 105.736 138.007C105.346 138.821 104.783 139.456 104.047 139.912C103.318 140.367 102.478 140.595 101.527 140.595C100.095 140.595 98.9329 140.097 98.041 139.101C97.1556 138.105 96.7129 136.787 96.7129 135.146V135.019ZM98.5293 135.234C98.5293 136.406 98.7995 137.347 99.3398 138.056C99.8867 138.766 100.616 139.121 101.527 139.121C102.445 139.121 103.174 138.763 103.715 138.047C104.255 137.324 104.525 136.315 104.525 135.019C104.525 133.86 104.249 132.923 103.695 132.207C103.148 131.484 102.419 131.123 101.508 131.123C100.616 131.123 99.8965 131.477 99.3496 132.187C98.8027 132.897 98.5293 133.912 98.5293 135.234ZM110.307 129.834L110.365 131.162C111.173 130.146 112.227 129.638 113.529 129.638C115.762 129.638 116.889 130.898 116.908 133.418V140.4H115.102V133.408C115.095 132.646 114.919 132.083 114.574 131.718C114.236 131.354 113.705 131.172 112.982 131.172C112.396 131.172 111.882 131.328 111.439 131.64C110.997 131.953 110.652 132.363 110.404 132.871V140.4H108.598V129.834H110.307ZM128.832 139.121C129.477 139.121 130.04 138.925 130.521 138.535C131.003 138.144 131.27 137.656 131.322 137.07H133.031C132.999 137.675 132.79 138.252 132.406 138.798C132.022 139.345 131.508 139.782 130.863 140.107C130.225 140.433 129.548 140.595 128.832 140.595C127.393 140.595 126.247 140.117 125.395 139.16C124.548 138.196 124.125 136.881 124.125 135.214V134.912C124.125 133.883 124.314 132.968 124.691 132.168C125.069 131.367 125.609 130.745 126.312 130.302C127.022 129.86 127.859 129.638 128.822 129.638C130.007 129.638 130.99 129.993 131.771 130.703C132.559 131.412 132.979 132.334 133.031 133.466H131.322C131.27 132.783 131.01 132.223 130.541 131.787C130.079 131.344 129.506 131.123 128.822 131.123C127.904 131.123 127.191 131.455 126.684 132.119C126.182 132.776 125.932 133.73 125.932 134.98V135.322C125.932 136.539 126.182 137.477 126.684 138.134C127.185 138.792 127.901 139.121 128.832 139.121ZM134.584 135.019C134.584 133.984 134.786 133.053 135.189 132.226C135.6 131.399 136.166 130.761 136.889 130.312C137.618 129.863 138.448 129.638 139.379 129.638C140.818 129.638 141.98 130.136 142.865 131.132C143.757 132.129 144.203 133.453 144.203 135.107V135.234C144.203 136.263 144.005 137.187 143.607 138.007C143.217 138.821 142.654 139.456 141.918 139.912C141.189 140.367 140.349 140.595 139.398 140.595C137.966 140.595 136.804 140.097 135.912 139.101C135.027 138.105 134.584 136.787 134.584 135.146V135.019ZM136.4 135.234C136.4 136.406 136.671 137.347 137.211 138.056C137.758 138.766 138.487 139.121 139.398 139.121C140.316 139.121 141.046 138.763 141.586 138.047C142.126 137.324 142.396 136.315 142.396 135.019C142.396 133.86 142.12 132.923 141.566 132.207C141.02 131.484 140.29 131.123 139.379 131.123C138.487 131.123 137.768 131.477 137.221 132.187C136.674 132.897 136.4 133.912 136.4 135.234ZM148.168 129.834L148.217 131.005C148.992 130.094 150.036 129.638 151.352 129.638C152.829 129.638 153.835 130.205 154.369 131.338C154.721 130.83 155.176 130.42 155.736 130.107C156.303 129.795 156.97 129.638 157.738 129.638C160.056 129.638 161.234 130.866 161.273 133.32V140.4H159.467V133.427C159.467 132.672 159.294 132.109 158.949 131.738C158.604 131.36 158.025 131.172 157.211 131.172C156.54 131.172 155.984 131.373 155.541 131.777C155.098 132.174 154.841 132.711 154.77 133.388V140.4H152.953V133.476C152.953 131.94 152.201 131.172 150.697 131.172C149.512 131.172 148.702 131.676 148.266 132.685V140.4H146.459V129.834H148.168ZM165.707 129.834L165.756 131.005C166.531 130.094 167.576 129.638 168.891 129.638C170.368 129.638 171.374 130.205 171.908 131.338C172.26 130.83 172.715 130.42 173.275 130.107C173.842 129.795 174.509 129.638 175.277 129.638C177.595 129.638 178.773 130.866 178.812 133.32V140.4H177.006V133.427C177.006 132.672 176.833 132.109 176.488 131.738C176.143 131.36 175.564 131.172 174.75 131.172C174.079 131.172 173.523 131.373 173.08 131.777C172.637 132.174 172.38 132.711 172.309 133.388V140.4H170.492V133.476C170.492 131.94 169.74 131.172 168.236 131.172C167.051 131.172 166.241 131.676 165.805 132.685V140.4H163.998V129.834H165.707ZM183.51 140.4H181.703V129.834H183.51V140.4ZM181.557 127.031C181.557 126.738 181.645 126.491 181.82 126.289C182.003 126.087 182.27 125.986 182.621 125.986C182.973 125.986 183.24 126.087 183.422 126.289C183.604 126.491 183.695 126.738 183.695 127.031C183.695 127.324 183.604 127.568 183.422 127.763C183.24 127.959 182.973 128.056 182.621 128.056C182.27 128.056 182.003 127.959 181.82 127.763C181.645 127.568 181.557 127.324 181.557 127.031ZM188.861 127.275V129.834H190.834V131.23H188.861V137.783C188.861 138.206 188.949 138.525 189.125 138.74C189.301 138.948 189.6 139.052 190.023 139.052C190.232 139.052 190.518 139.013 190.883 138.935V140.4C190.408 140.53 189.945 140.595 189.496 140.595C188.689 140.595 188.08 140.351 187.67 139.863C187.26 139.375 187.055 138.681 187.055 137.783V131.23H185.131V129.834H187.055V127.275H188.861ZM195.404 127.275V129.834H197.377V131.23H195.404V137.783C195.404 138.206 195.492 138.525 195.668 138.74C195.844 138.948 196.143 139.052 196.566 139.052C196.775 139.052 197.061 139.013 197.426 138.935V140.4C196.951 140.53 196.488 140.595 196.039 140.595C195.232 140.595 194.623 140.351 194.213 139.863C193.803 139.375 193.598 138.681 193.598 137.783V131.23H191.674V129.834H193.598V127.275H195.404ZM203.881 140.595C202.449 140.595 201.283 140.127 200.385 139.189C199.486 138.245 199.037 136.985 199.037 135.41V135.078C199.037 134.03 199.236 133.095 199.633 132.275C200.036 131.448 200.596 130.804 201.312 130.341C202.035 129.873 202.816 129.638 203.656 129.638C205.03 129.638 206.098 130.091 206.859 130.996C207.621 131.901 208.002 133.196 208.002 134.882V135.634H200.844C200.87 136.676 201.173 137.519 201.752 138.164C202.338 138.802 203.08 139.121 203.979 139.121C204.617 139.121 205.157 138.991 205.6 138.73C206.042 138.47 206.43 138.125 206.762 137.695L207.865 138.554C206.98 139.915 205.652 140.595 203.881 140.595ZM203.656 131.123C202.927 131.123 202.315 131.39 201.82 131.923C201.326 132.451 201.02 133.193 200.902 134.15H206.195V134.013C206.143 133.095 205.896 132.386 205.453 131.884C205.01 131.377 204.411 131.123 203.656 131.123ZM214.486 140.595C213.054 140.595 211.889 140.127 210.99 139.189C210.092 138.245 209.643 136.985 209.643 135.41V135.078C209.643 134.03 209.841 133.095 210.238 132.275C210.642 131.448 211.202 130.804 211.918 130.341C212.641 129.873 213.422 129.638 214.262 129.638C215.635 129.638 216.703 130.091 217.465 130.996C218.227 131.901 218.607 133.196 218.607 134.882V135.634H211.449C211.475 136.676 211.778 137.519 212.357 138.164C212.943 138.802 213.686 139.121 214.584 139.121C215.222 139.121 215.762 138.991 216.205 138.73C216.648 138.47 217.035 138.125 217.367 137.695L218.471 138.554C217.585 139.915 216.257 140.595 214.486 140.595ZM214.262 131.123C213.533 131.123 212.921 131.39 212.426 131.923C211.931 132.451 211.625 133.193 211.508 134.15H216.801V134.013C216.749 133.095 216.501 132.386 216.059 131.884C215.616 131.377 215.017 131.123 214.262 131.123ZM220.648 139.453C220.648 139.14 220.74 138.88 220.922 138.672C221.111 138.463 221.391 138.359 221.762 138.359C222.133 138.359 222.413 138.463 222.602 138.672C222.797 138.88 222.895 139.14 222.895 139.453C222.895 139.752 222.797 140.003 222.602 140.205C222.413 140.407 222.133 140.507 221.762 140.507C221.391 140.507 221.111 140.407 220.922 140.205C220.74 140.003 220.648 139.752 220.648 139.453ZM220.658 130.83C220.658 130.517 220.749 130.257 220.932 130.048C221.12 129.84 221.4 129.736 221.771 129.736C222.143 129.736 222.423 129.84 222.611 130.048C222.807 130.257 222.904 130.517 222.904 130.83C222.904 131.129 222.807 131.38 222.611 131.582C222.423 131.783 222.143 131.884 221.771 131.884C221.4 131.884 221.12 131.783 220.932 131.582C220.749 131.38 220.658 131.129 220.658 130.83ZM241.254 135.888C241.078 137.392 240.521 138.554 239.584 139.375C238.653 140.188 237.413 140.595 235.863 140.595C234.184 140.595 232.836 139.993 231.82 138.789C230.811 137.584 230.307 135.973 230.307 133.955V132.588C230.307 131.266 230.541 130.104 231.01 129.101C231.485 128.099 232.156 127.33 233.021 126.797C233.887 126.256 234.89 125.986 236.029 125.986C237.54 125.986 238.751 126.409 239.662 127.255C240.574 128.095 241.104 129.261 241.254 130.752H239.369C239.206 129.619 238.852 128.798 238.305 128.291C237.764 127.783 237.006 127.529 236.029 127.529C234.831 127.529 233.891 127.972 233.207 128.857C232.53 129.742 232.191 131.002 232.191 132.636V134.013C232.191 135.556 232.514 136.783 233.158 137.695C233.803 138.606 234.704 139.062 235.863 139.062C236.905 139.062 237.702 138.828 238.256 138.359C238.816 137.884 239.187 137.06 239.369 135.888H241.254ZM245.346 131.113C246.146 130.13 247.188 129.638 248.471 129.638C250.704 129.638 251.83 130.898 251.85 133.418V140.4H250.043V133.408C250.036 132.646 249.861 132.083 249.516 131.718C249.177 131.354 248.646 131.172 247.924 131.172C247.338 131.172 246.824 131.328 246.381 131.64C245.938 131.953 245.593 132.363 245.346 132.871V140.4H243.539V125.4H245.346V131.113ZM259.662 131.455C259.389 131.409 259.092 131.386 258.773 131.386C257.589 131.386 256.785 131.891 256.361 132.9V140.4H254.555V129.834H256.312L256.342 131.054C256.934 130.11 257.774 129.638 258.861 129.638C259.213 129.638 259.48 129.684 259.662 129.775V131.455ZM263.295 140.4H261.488V129.834H263.295V140.4ZM261.342 127.031C261.342 126.738 261.43 126.491 261.605 126.289C261.788 126.087 262.055 125.986 262.406 125.986C262.758 125.986 263.025 126.087 263.207 126.289C263.389 126.491 263.48 126.738 263.48 127.031C263.48 127.324 263.389 127.568 263.207 127.763C263.025 127.959 262.758 128.056 262.406 128.056C262.055 128.056 261.788 127.959 261.605 127.763C261.43 127.568 261.342 127.324 261.342 127.031ZM272.348 137.597C272.348 137.109 272.162 136.731 271.791 136.464C271.426 136.191 270.785 135.957 269.867 135.761C268.956 135.566 268.23 135.332 267.689 135.058C267.156 134.785 266.758 134.459 266.498 134.082C266.244 133.704 266.117 133.255 266.117 132.734C266.117 131.868 266.482 131.136 267.211 130.537C267.947 129.938 268.884 129.638 270.023 129.638C271.221 129.638 272.191 129.948 272.934 130.566C273.682 131.185 274.057 131.976 274.057 132.939H272.24C272.24 132.444 272.029 132.018 271.605 131.66C271.189 131.302 270.661 131.123 270.023 131.123C269.366 131.123 268.852 131.266 268.48 131.552C268.109 131.839 267.924 132.213 267.924 132.675C267.924 133.112 268.096 133.44 268.441 133.662C268.786 133.883 269.408 134.095 270.307 134.297C271.212 134.498 271.944 134.739 272.504 135.019C273.064 135.299 273.477 135.638 273.744 136.035C274.018 136.425 274.154 136.904 274.154 137.47C274.154 138.414 273.777 139.173 273.021 139.746C272.266 140.312 271.286 140.595 270.082 140.595C269.236 140.595 268.487 140.446 267.836 140.146C267.185 139.847 266.674 139.43 266.303 138.896C265.938 138.356 265.756 137.773 265.756 137.148H267.562C267.595 137.754 267.836 138.235 268.285 138.593C268.741 138.945 269.34 139.121 270.082 139.121C270.766 139.121 271.312 138.984 271.723 138.711C272.139 138.431 272.348 138.06 272.348 137.597ZM278.959 127.275V129.834H280.932V131.23H278.959V137.783C278.959 138.206 279.047 138.525 279.223 138.74C279.398 138.948 279.698 139.052 280.121 139.052C280.329 139.052 280.616 139.013 280.98 138.935V140.4C280.505 140.53 280.043 140.595 279.594 140.595C278.786 140.595 278.178 140.351 277.768 139.863C277.357 139.375 277.152 138.681 277.152 137.783V131.23H275.229V129.834H277.152V127.275H278.959ZM287.436 140.595C286.003 140.595 284.838 140.127 283.939 139.189C283.041 138.245 282.592 136.985 282.592 135.41V135.078C282.592 134.03 282.79 133.095 283.188 132.275C283.591 131.448 284.151 130.804 284.867 130.341C285.59 129.873 286.371 129.638 287.211 129.638C288.585 129.638 289.652 130.091 290.414 130.996C291.176 131.901 291.557 133.196 291.557 134.882V135.634H284.398C284.424 136.676 284.727 137.519 285.307 138.164C285.893 138.802 286.635 139.121 287.533 139.121C288.171 139.121 288.712 138.991 289.154 138.73C289.597 138.47 289.984 138.125 290.316 137.695L291.42 138.554C290.535 139.915 289.206 140.595 287.436 140.595ZM287.211 131.123C286.482 131.123 285.87 131.39 285.375 131.923C284.88 132.451 284.574 133.193 284.457 134.15H289.75V134.013C289.698 133.095 289.451 132.386 289.008 131.884C288.565 131.377 287.966 131.123 287.211 131.123ZM295.619 140.4H293.812V125.4H295.619V140.4ZM303.764 140.4V126.181H308.412C309.955 126.181 311.114 126.5 311.889 127.138C312.67 127.776 313.061 128.72 313.061 129.97C313.061 130.634 312.872 131.224 312.494 131.738C312.117 132.246 311.602 132.64 310.951 132.92C311.719 133.134 312.325 133.545 312.768 134.15C313.217 134.749 313.441 135.465 313.441 136.298C313.441 137.575 313.028 138.577 312.201 139.306C311.374 140.035 310.206 140.4 308.695 140.4H303.764ZM305.639 133.75V138.867H308.734C309.607 138.867 310.294 138.642 310.795 138.193C311.303 137.737 311.557 137.112 311.557 136.318C311.557 134.606 310.626 133.75 308.764 133.75H305.639ZM305.639 132.246H308.471C309.291 132.246 309.945 132.041 310.434 131.63C310.928 131.22 311.176 130.664 311.176 129.961C311.176 129.179 310.948 128.613 310.492 128.261C310.036 127.903 309.343 127.724 308.412 127.724H305.639V132.246ZM322.465 140.4C322.361 140.192 322.276 139.821 322.211 139.287C321.371 140.159 320.368 140.595 319.203 140.595C318.161 140.595 317.305 140.302 316.635 139.716C315.971 139.124 315.639 138.375 315.639 137.47C315.639 136.37 316.055 135.517 316.889 134.912C317.729 134.3 318.907 133.994 320.424 133.994H322.182V133.164C322.182 132.532 321.993 132.031 321.615 131.66C321.238 131.282 320.681 131.093 319.945 131.093C319.301 131.093 318.76 131.256 318.324 131.582C317.888 131.907 317.67 132.301 317.67 132.763H315.854C315.854 132.236 316.039 131.728 316.41 131.24C316.788 130.745 317.296 130.354 317.934 130.068C318.578 129.782 319.285 129.638 320.053 129.638C321.27 129.638 322.224 129.944 322.914 130.556C323.604 131.162 323.962 131.998 323.988 133.066V137.929C323.988 138.899 324.112 139.671 324.359 140.244V140.4H322.465ZM319.467 139.023C320.033 139.023 320.57 138.877 321.078 138.584C321.586 138.291 321.954 137.91 322.182 137.441V135.273H320.766C318.552 135.273 317.445 135.921 317.445 137.216C317.445 137.783 317.634 138.226 318.012 138.545C318.389 138.864 318.874 139.023 319.467 139.023ZM328.783 140.4H326.977V129.834H328.783V140.4ZM326.83 127.031C326.83 126.738 326.918 126.491 327.094 126.289C327.276 126.087 327.543 125.986 327.895 125.986C328.246 125.986 328.513 126.087 328.695 126.289C328.878 126.491 328.969 126.738 328.969 127.031C328.969 127.324 328.878 127.568 328.695 127.763C328.513 127.959 328.246 128.056 327.895 128.056C327.543 128.056 327.276 127.959 327.094 127.763C326.918 127.568 326.83 127.324 326.83 127.031ZM336.068 140.595C334.636 140.595 333.471 140.127 332.572 139.189C331.674 138.245 331.225 136.985 331.225 135.41V135.078C331.225 134.03 331.423 133.095 331.82 132.275C332.224 131.448 332.784 130.804 333.5 130.341C334.223 129.873 335.004 129.638 335.844 129.638C337.217 129.638 338.285 130.091 339.047 130.996C339.809 131.901 340.189 133.196 340.189 134.882V135.634H333.031C333.057 136.676 333.36 137.519 333.939 138.164C334.525 138.802 335.268 139.121 336.166 139.121C336.804 139.121 337.344 138.991 337.787 138.73C338.23 138.47 338.617 138.125 338.949 137.695L340.053 138.554C339.167 139.915 337.839 140.595 336.068 140.595ZM335.844 131.123C335.115 131.123 334.503 131.39 334.008 131.923C333.513 132.451 333.207 133.193 333.09 134.15H338.383V134.013C338.331 133.095 338.083 132.386 337.641 131.884C337.198 131.377 336.599 131.123 335.844 131.123ZM347.396 131.455C347.123 131.409 346.827 131.386 346.508 131.386C345.323 131.386 344.519 131.891 344.096 132.9V140.4H342.289V129.834H344.047L344.076 131.054C344.669 130.11 345.508 129.638 346.596 129.638C346.947 129.638 347.214 129.684 347.396 129.775V131.455ZM354.008 132.861C354.008 132.295 354.187 131.829 354.545 131.464C354.91 131.1 355.391 130.918 355.99 130.918C356.583 130.918 357.064 131.097 357.436 131.455C357.807 131.806 357.992 132.285 357.992 132.89V133.252C357.992 133.818 357.813 134.28 357.455 134.638C357.097 134.996 356.612 135.175 356 135.175C355.395 135.175 354.91 134.996 354.545 134.638C354.187 134.274 354.008 133.805 354.008 133.232V132.861ZM368.432 126.181L373.08 137.783L377.729 126.181H380.16V140.4H378.285V134.863L378.461 128.886L373.793 140.4H372.357L367.699 128.916L367.885 134.863V140.4H366.01V126.181H368.432ZM385.15 140.4H383.344V129.834H385.15V140.4ZM383.197 127.031C383.197 126.738 383.285 126.491 383.461 126.289C383.643 126.087 383.91 125.986 384.262 125.986C384.613 125.986 384.88 126.087 385.062 126.289C385.245 126.491 385.336 126.738 385.336 127.031C385.336 127.324 385.245 127.568 385.062 127.763C384.88 127.959 384.613 128.056 384.262 128.056C383.91 128.056 383.643 127.959 383.461 127.763C383.285 127.568 383.197 127.324 383.197 127.031ZM391 135.507L389.867 136.689V140.4H388.061V125.4H389.867V134.472L390.834 133.31L394.125 129.834H396.322L392.211 134.248L396.801 140.4H394.682L391 135.507ZM397.709 135.019C397.709 133.984 397.911 133.053 398.314 132.226C398.725 131.399 399.291 130.761 400.014 130.312C400.743 129.863 401.573 129.638 402.504 129.638C403.943 129.638 405.105 130.136 405.99 131.132C406.882 132.129 407.328 133.453 407.328 135.107V135.234C407.328 136.263 407.13 137.187 406.732 138.007C406.342 138.821 405.779 139.456 405.043 139.912C404.314 140.367 403.474 140.595 402.523 140.595C401.091 140.595 399.929 140.097 399.037 139.101C398.152 138.105 397.709 136.787 397.709 135.146V135.019ZM399.525 135.234C399.525 136.406 399.796 137.347 400.336 138.056C400.883 138.766 401.612 139.121 402.523 139.121C403.441 139.121 404.171 138.763 404.711 138.047C405.251 137.324 405.521 136.315 405.521 135.019C405.521 133.86 405.245 132.923 404.691 132.207C404.145 131.484 403.415 131.123 402.504 131.123C401.612 131.123 400.893 131.477 400.346 132.187C399.799 132.897 399.525 133.912 399.525 135.234ZM411.781 131.914L413.324 131.318V132.519L411.781 133.115V140.4H409.965V133.808L408.559 134.345V133.144L409.965 132.607V125.4H411.781V131.914ZM421.527 140.4C421.423 140.192 421.339 139.821 421.273 139.287C420.434 140.159 419.431 140.595 418.266 140.595C417.224 140.595 416.368 140.302 415.697 139.716C415.033 139.124 414.701 138.375 414.701 137.47C414.701 136.37 415.118 135.517 415.951 134.912C416.791 134.3 417.969 133.994 419.486 133.994H421.244V133.164C421.244 132.532 421.055 132.031 420.678 131.66C420.3 131.282 419.743 131.093 419.008 131.093C418.363 131.093 417.823 131.256 417.387 131.582C416.951 131.907 416.732 132.301 416.732 132.763H414.916C414.916 132.236 415.102 131.728 415.473 131.24C415.85 130.745 416.358 130.354 416.996 130.068C417.641 129.782 418.347 129.638 419.115 129.638C420.333 129.638 421.286 129.944 421.977 130.556C422.667 131.162 423.025 131.998 423.051 133.066V137.929C423.051 138.899 423.174 139.671 423.422 140.244V140.4H421.527ZM418.529 139.023C419.096 139.023 419.633 138.877 420.141 138.584C420.648 138.291 421.016 137.91 421.244 137.441V135.273H419.828C417.615 135.273 416.508 135.921 416.508 137.216C416.508 137.783 416.697 138.226 417.074 138.545C417.452 138.864 417.937 139.023 418.529 139.023ZM427.748 129.834V141.621C427.748 143.652 426.827 144.668 424.984 144.668C424.587 144.668 424.219 144.609 423.881 144.492V143.047C424.089 143.099 424.363 143.125 424.701 143.125C425.105 143.125 425.411 143.014 425.619 142.793C425.834 142.578 425.941 142.2 425.941 141.66V129.834H427.748ZM425.756 127.031C425.756 126.744 425.844 126.5 426.02 126.298C426.202 126.09 426.465 125.986 426.811 125.986C427.162 125.986 427.429 126.087 427.611 126.289C427.794 126.491 427.885 126.738 427.885 127.031C427.885 127.324 427.794 127.568 427.611 127.763C427.429 127.959 427.162 128.056 426.811 128.056C426.459 128.056 426.195 127.959 426.02 127.763C425.844 127.568 425.756 127.324 425.756 127.031ZM435.912 140.4V126.181H440.561C442.104 126.181 443.262 126.5 444.037 127.138C444.818 127.776 445.209 128.72 445.209 129.97C445.209 130.634 445.02 131.224 444.643 131.738C444.265 132.246 443.751 132.64 443.1 132.92C443.868 133.134 444.473 133.545 444.916 134.15C445.365 134.749 445.59 135.465 445.59 136.298C445.59 137.575 445.176 138.577 444.35 139.306C443.523 140.035 442.354 140.4 440.844 140.4H435.912ZM437.787 133.75V138.867H440.883C441.755 138.867 442.442 138.642 442.943 138.193C443.451 137.737 443.705 137.112 443.705 136.318C443.705 134.606 442.774 133.75 440.912 133.75H437.787ZM437.787 132.246H440.619C441.439 132.246 442.094 132.041 442.582 131.63C443.077 131.22 443.324 130.664 443.324 129.961C443.324 129.179 443.096 128.613 442.641 128.261C442.185 127.903 441.492 127.724 440.561 127.724H437.787V132.246ZM447.611 135.019C447.611 133.984 447.813 133.053 448.217 132.226C448.627 131.399 449.193 130.761 449.916 130.312C450.645 129.863 451.475 129.638 452.406 129.638C453.845 129.638 455.007 130.136 455.893 131.132C456.785 132.129 457.23 133.453 457.23 135.107V135.234C457.23 136.263 457.032 137.187 456.635 138.007C456.244 138.821 455.681 139.456 454.945 139.912C454.216 140.367 453.376 140.595 452.426 140.595C450.993 140.595 449.831 140.097 448.939 139.101C448.054 138.105 447.611 136.787 447.611 135.146V135.019ZM449.428 135.234C449.428 136.406 449.698 137.347 450.238 138.056C450.785 138.766 451.514 139.121 452.426 139.121C453.344 139.121 454.073 138.763 454.613 138.047C455.154 137.324 455.424 136.315 455.424 135.019C455.424 133.86 455.147 132.923 454.594 132.207C454.047 131.484 453.318 131.123 452.406 131.123C451.514 131.123 450.795 131.477 450.248 132.187C449.701 132.897 449.428 133.912 449.428 135.234ZM461.361 129.834V141.621C461.361 143.652 460.44 144.668 458.598 144.668C458.201 144.668 457.833 144.609 457.494 144.492V143.047C457.702 143.099 457.976 143.125 458.314 143.125C458.718 143.125 459.024 143.014 459.232 142.793C459.447 142.578 459.555 142.2 459.555 141.66V129.834H461.361ZM459.369 127.031C459.369 126.744 459.457 126.5 459.633 126.298C459.815 126.09 460.079 125.986 460.424 125.986C460.775 125.986 461.042 126.087 461.225 126.289C461.407 126.491 461.498 126.738 461.498 127.031C461.498 127.324 461.407 127.568 461.225 127.763C461.042 127.959 460.775 128.056 460.424 128.056C460.072 128.056 459.809 127.959 459.633 127.763C459.457 127.568 459.369 127.324 459.369 127.031ZM470.805 140.4C470.701 140.192 470.616 139.821 470.551 139.287C469.711 140.159 468.708 140.595 467.543 140.595C466.501 140.595 465.645 140.302 464.975 139.716C464.311 139.124 463.979 138.375 463.979 137.47C463.979 136.37 464.395 135.517 465.229 134.912C466.068 134.3 467.247 133.994 468.764 133.994H470.521V133.164C470.521 132.532 470.333 132.031 469.955 131.66C469.577 131.282 469.021 131.093 468.285 131.093C467.641 131.093 467.1 131.256 466.664 131.582C466.228 131.907 466.01 132.301 466.01 132.763H464.193C464.193 132.236 464.379 131.728 464.75 131.24C465.128 130.745 465.635 130.354 466.273 130.068C466.918 129.782 467.624 129.638 468.393 129.638C469.61 129.638 470.564 129.944 471.254 130.556C471.944 131.162 472.302 131.998 472.328 133.066V137.929C472.328 138.899 472.452 139.671 472.699 140.244V140.4H470.805ZM467.807 139.023C468.373 139.023 468.91 138.877 469.418 138.584C469.926 138.291 470.294 137.91 470.521 137.441V135.273H469.105C466.892 135.273 465.785 135.921 465.785 137.216C465.785 137.783 465.974 138.226 466.352 138.545C466.729 138.864 467.214 139.023 467.807 139.023ZM476.869 129.834L476.928 131.162C477.735 130.146 478.79 129.638 480.092 129.638C482.325 129.638 483.451 130.898 483.471 133.418V140.4H481.664V133.408C481.658 132.646 481.482 132.083 481.137 131.718C480.798 131.354 480.268 131.172 479.545 131.172C478.959 131.172 478.445 131.328 478.002 131.64C477.559 131.953 477.214 132.363 476.967 132.871V140.4H475.16V129.834H476.869ZM480.268 125.4H482.455L479.838 128.271H478.383L480.268 125.4ZM490.434 139.121C491.078 139.121 491.641 138.925 492.123 138.535C492.605 138.144 492.872 137.656 492.924 137.07H494.633C494.6 137.675 494.392 138.252 494.008 138.798C493.624 139.345 493.109 139.782 492.465 140.107C491.827 140.433 491.15 140.595 490.434 140.595C488.995 140.595 487.849 140.117 486.996 139.16C486.15 138.196 485.727 136.881 485.727 135.214V134.912C485.727 133.883 485.915 132.968 486.293 132.168C486.671 131.367 487.211 130.745 487.914 130.302C488.624 129.86 489.46 129.638 490.424 129.638C491.609 129.638 492.592 129.993 493.373 130.703C494.161 131.412 494.581 132.334 494.633 133.466H492.924C492.872 132.783 492.611 132.223 492.143 131.787C491.68 131.344 491.107 131.123 490.424 131.123C489.506 131.123 488.793 131.455 488.285 132.119C487.784 132.776 487.533 133.73 487.533 134.98V135.322C487.533 136.539 487.784 137.477 488.285 138.134C488.786 138.792 489.503 139.121 490.434 139.121ZM498.363 138.925H504.545V140.4H496.156V139.072L501.986 131.328H496.244V129.834H504.252V131.113L498.363 138.925ZM510.043 137.754L512.504 129.834H514.438L510.189 142.031C509.532 143.789 508.487 144.668 507.055 144.668L506.713 144.638L506.039 144.511V143.047L506.527 143.086C507.139 143.086 507.615 142.962 507.953 142.714C508.298 142.467 508.581 142.015 508.803 141.357L509.203 140.283L505.434 129.834H507.406L510.043 137.754ZM519.008 135.507L517.875 136.689V140.4H516.068V125.4H517.875V134.472L518.842 133.31L522.133 129.834H524.33L520.219 134.248L524.809 140.4H522.689L519.008 135.507ZM531.137 132.861C531.137 132.295 531.316 131.829 531.674 131.464C532.038 131.1 532.52 130.918 533.119 130.918C533.712 130.918 534.193 131.097 534.564 131.455C534.936 131.806 535.121 132.285 535.121 132.89V133.252C535.121 133.818 534.942 134.28 534.584 134.638C534.226 134.996 533.741 135.175 533.129 135.175C532.523 135.175 532.038 134.996 531.674 134.638C531.316 134.274 531.137 133.805 531.137 133.232V132.861ZM545.561 126.181L550.209 137.783L554.857 126.181H557.289V140.4H555.414V134.863L555.59 128.886L550.922 140.4H549.486L544.828 128.916L545.014 134.863V140.4H543.139V126.181H545.561ZM566.84 140.4C566.736 140.192 566.651 139.821 566.586 139.287C565.746 140.159 564.743 140.595 563.578 140.595C562.536 140.595 561.68 140.302 561.01 139.716C560.346 139.124 560.014 138.375 560.014 137.47C560.014 136.37 560.43 135.517 561.264 134.912C562.104 134.3 563.282 133.994 564.799 133.994H566.557V133.164C566.557 132.532 566.368 132.031 565.99 131.66C565.613 131.282 565.056 131.093 564.32 131.093C563.676 131.093 563.135 131.256 562.699 131.582C562.263 131.907 562.045 132.301 562.045 132.763H560.229C560.229 132.236 560.414 131.728 560.785 131.24C561.163 130.745 561.671 130.354 562.309 130.068C562.953 129.782 563.66 129.638 564.428 129.638C565.645 129.638 566.599 129.944 567.289 130.556C567.979 131.162 568.337 131.998 568.363 133.066V137.929C568.363 138.899 568.487 139.671 568.734 140.244V140.4H566.84ZM563.842 139.023C564.408 139.023 564.945 138.877 565.453 138.584C565.961 138.291 566.329 137.91 566.557 137.441V135.273H565.141C562.927 135.273 561.82 135.921 561.82 137.216C561.82 137.783 562.009 138.226 562.387 138.545C562.764 138.864 563.249 139.023 563.842 139.023ZM576.303 131.455C576.029 131.409 575.733 131.386 575.414 131.386C574.229 131.386 573.425 131.891 573.002 132.9V140.4H571.195V129.834H572.953L572.982 131.054C573.575 130.11 574.415 129.638 575.502 129.638C575.854 129.638 576.12 129.684 576.303 129.775V131.455ZM579.936 140.4H578.129V129.834H579.936V140.4ZM577.982 127.031C577.982 126.738 578.07 126.491 578.246 126.289C578.428 126.087 578.695 125.986 579.047 125.986C579.398 125.986 579.665 126.087 579.848 126.289C580.03 126.491 580.121 126.738 580.121 127.031C580.121 127.324 580.03 127.568 579.848 127.763C579.665 127.959 579.398 128.056 579.047 128.056C578.695 128.056 578.428 127.959 578.246 127.763C578.07 127.568 577.982 127.324 577.982 127.031ZM589.359 140.4C589.255 140.192 589.171 139.821 589.105 139.287C588.266 140.159 587.263 140.595 586.098 140.595C585.056 140.595 584.2 140.302 583.529 139.716C582.865 139.124 582.533 138.375 582.533 137.47C582.533 136.37 582.95 135.517 583.783 134.912C584.623 134.3 585.801 133.994 587.318 133.994H589.076V133.164C589.076 132.532 588.887 132.031 588.51 131.66C588.132 131.282 587.576 131.093 586.84 131.093C586.195 131.093 585.655 131.256 585.219 131.582C584.783 131.907 584.564 132.301 584.564 132.763H582.748C582.748 132.236 582.934 131.728 583.305 131.24C583.682 130.745 584.19 130.354 584.828 130.068C585.473 129.782 586.179 129.638 586.947 129.638C588.165 129.638 589.118 129.944 589.809 130.556C590.499 131.162 590.857 131.998 590.883 133.066V137.929C590.883 138.899 591.007 139.671 591.254 140.244V140.4H589.359ZM586.361 139.023C586.928 139.023 587.465 138.877 587.973 138.584C588.48 138.291 588.848 137.91 589.076 137.441V135.273H587.66C585.447 135.273 584.34 135.921 584.34 137.216C584.34 137.783 584.529 138.226 584.906 138.545C585.284 138.864 585.769 139.023 586.361 139.023ZM595.424 129.834L595.482 131.162C596.29 130.146 597.344 129.638 598.646 129.638C600.88 129.638 602.006 130.898 602.025 133.418V140.4H600.219V133.408C600.212 132.646 600.036 132.083 599.691 131.718C599.353 131.354 598.822 131.172 598.1 131.172C597.514 131.172 596.999 131.328 596.557 131.64C596.114 131.953 595.769 132.363 595.521 132.871V140.4H593.715V129.834H595.424ZM604.32 135.029C604.32 133.382 604.701 132.073 605.463 131.103C606.225 130.127 607.234 129.638 608.49 129.638C609.779 129.638 610.785 130.094 611.508 131.005L611.596 129.834H613.246V140.146C613.246 141.513 612.839 142.591 612.025 143.379C611.218 144.166 610.131 144.56 608.764 144.56C608.002 144.56 607.257 144.397 606.527 144.072C605.798 143.746 605.242 143.3 604.857 142.734L605.795 141.65C606.57 142.607 607.517 143.086 608.637 143.086C609.516 143.086 610.199 142.838 610.688 142.343C611.182 141.849 611.43 141.152 611.43 140.254V139.345C610.707 140.179 609.721 140.595 608.471 140.595C607.234 140.595 606.231 140.097 605.463 139.101C604.701 138.105 604.32 136.748 604.32 135.029ZM606.137 135.234C606.137 136.425 606.381 137.363 606.869 138.047C607.357 138.724 608.041 139.062 608.92 139.062C610.059 139.062 610.896 138.545 611.43 137.509V132.685C610.876 131.676 610.046 131.172 608.939 131.172C608.061 131.172 607.374 131.513 606.879 132.197C606.384 132.88 606.137 133.893 606.137 135.234ZM617.943 140.4H616.137V129.834H617.943V140.4ZM615.99 127.031C615.99 126.738 616.078 126.491 616.254 126.289C616.436 126.087 616.703 125.986 617.055 125.986C617.406 125.986 617.673 126.087 617.855 126.289C618.038 126.491 618.129 126.738 618.129 127.031C618.129 127.324 618.038 127.568 617.855 127.763C617.673 127.959 617.406 128.056 617.055 128.056C616.703 128.056 616.436 127.959 616.254 127.763C616.078 127.568 615.99 127.324 615.99 127.031ZM620.365 135.019C620.365 133.984 620.567 133.053 620.971 132.226C621.381 131.399 621.947 130.761 622.67 130.312C623.399 129.863 624.229 129.638 625.16 129.638C626.599 129.638 627.761 130.136 628.646 131.132C629.538 132.129 629.984 133.453 629.984 135.107V135.234C629.984 136.263 629.786 137.187 629.389 138.007C628.998 138.821 628.435 139.456 627.699 139.912C626.97 140.367 626.13 140.595 625.18 140.595C623.747 140.595 622.585 140.097 621.693 139.101C620.808 138.105 620.365 136.787 620.365 135.146V135.019ZM622.182 135.234C622.182 136.406 622.452 137.347 622.992 138.056C623.539 138.766 624.268 139.121 625.18 139.121C626.098 139.121 626.827 138.763 627.367 138.047C627.908 137.324 628.178 136.315 628.178 135.019C628.178 133.86 627.901 132.923 627.348 132.207C626.801 131.484 626.072 131.123 625.16 131.123C624.268 131.123 623.549 131.477 623.002 132.187C622.455 132.897 622.182 133.912 622.182 135.234ZM634.213 140.4H632.406V125.4H634.213V140.4ZM643.637 140.4C643.533 140.192 643.448 139.821 643.383 139.287C642.543 140.159 641.54 140.595 640.375 140.595C639.333 140.595 638.477 140.302 637.807 139.716C637.143 139.124 636.811 138.375 636.811 137.47C636.811 136.37 637.227 135.517 638.061 134.912C638.9 134.3 640.079 133.994 641.596 133.994H643.354V133.164C643.354 132.532 643.165 132.031 642.787 131.66C642.41 131.282 641.853 131.093 641.117 131.093C640.473 131.093 639.932 131.256 639.496 131.582C639.06 131.907 638.842 132.301 638.842 132.763H637.025C637.025 132.236 637.211 131.728 637.582 131.24C637.96 130.745 638.467 130.354 639.105 130.068C639.75 129.782 640.456 129.638 641.225 129.638C642.442 129.638 643.396 129.944 644.086 130.556C644.776 131.162 645.134 131.998 645.16 133.066V137.929C645.16 138.899 645.284 139.671 645.531 140.244V140.4H643.637ZM640.639 139.023C641.205 139.023 641.742 138.877 642.25 138.584C642.758 138.291 643.126 137.91 643.354 137.441V135.273H641.938C639.724 135.273 638.617 135.921 638.617 137.216C638.617 137.783 638.806 138.226 639.184 138.545C639.561 138.864 640.046 139.023 640.639 139.023ZM653.236 140.4V126.181H657.25C658.487 126.181 659.581 126.455 660.531 127.002C661.482 127.548 662.214 128.326 662.729 129.336C663.249 130.345 663.513 131.504 663.52 132.812V133.72C663.52 135.061 663.259 136.237 662.738 137.246C662.224 138.255 661.485 139.03 660.521 139.57C659.564 140.11 658.448 140.387 657.172 140.4H653.236ZM655.111 127.724V138.867H657.084C658.529 138.867 659.652 138.418 660.453 137.519C661.26 136.621 661.664 135.341 661.664 133.681V132.851C661.664 131.237 661.283 129.983 660.521 129.091C659.766 128.193 658.692 127.737 657.299 127.724H655.111ZM670.463 140.595C669.031 140.595 667.865 140.127 666.967 139.189C666.068 138.245 665.619 136.985 665.619 135.41V135.078C665.619 134.03 665.818 133.095 666.215 132.275C666.618 131.448 667.178 130.804 667.895 130.341C668.617 129.873 669.398 129.638 670.238 129.638C671.612 129.638 672.68 130.091 673.441 130.996C674.203 131.901 674.584 133.196 674.584 134.882V135.634H667.426C667.452 136.676 667.755 137.519 668.334 138.164C668.92 138.802 669.662 139.121 670.561 139.121C671.199 139.121 671.739 138.991 672.182 138.73C672.624 138.47 673.012 138.125 673.344 137.695L674.447 138.554C673.562 139.915 672.234 140.595 670.463 140.595ZM670.238 131.123C669.509 131.123 668.897 131.39 668.402 131.923C667.908 132.451 667.602 133.193 667.484 134.15H672.777V134.013C672.725 133.095 672.478 132.386 672.035 131.884C671.592 131.377 670.993 131.123 670.238 131.123ZM678.383 138.925H684.564V140.4H676.176V139.072L682.006 131.328H676.264V129.834H684.271V131.113L678.383 138.925ZM693.129 140.4C693.025 140.192 692.94 139.821 692.875 139.287C692.035 140.159 691.033 140.595 689.867 140.595C688.826 140.595 687.969 140.302 687.299 139.716C686.635 139.124 686.303 138.375 686.303 137.47C686.303 136.37 686.719 135.517 687.553 134.912C688.393 134.3 689.571 133.994 691.088 133.994H692.846V133.164C692.846 132.532 692.657 132.031 692.279 131.66C691.902 131.282 691.345 131.093 690.609 131.093C689.965 131.093 689.424 131.256 688.988 131.582C688.552 131.907 688.334 132.301 688.334 132.763H686.518C686.518 132.236 686.703 131.728 687.074 131.24C687.452 130.745 687.96 130.354 688.598 130.068C689.242 129.782 689.949 129.638 690.717 129.638C691.934 129.638 692.888 129.944 693.578 130.556C694.268 131.162 694.626 131.998 694.652 133.066V137.929C694.652 138.899 694.776 139.671 695.023 140.244V140.4H693.129ZM690.131 139.023C690.697 139.023 691.234 138.877 691.742 138.584C692.25 138.291 692.618 137.91 692.846 137.441V135.273H691.43C689.216 135.273 688.109 135.921 688.109 137.216C688.109 137.783 688.298 138.226 688.676 138.545C689.053 138.864 689.538 139.023 690.131 139.023ZM699.193 129.834L699.252 131.162C700.059 130.146 701.114 129.638 702.416 129.638C704.649 129.638 705.775 130.898 705.795 133.418V140.4H703.988V133.408C703.982 132.646 703.806 132.083 703.461 131.718C703.122 131.354 702.592 131.172 701.869 131.172C701.283 131.172 700.769 131.328 700.326 131.64C699.883 131.953 699.538 132.363 699.291 132.871V140.4H697.484V129.834H699.193ZM710.482 140.4H708.676V129.834H710.482V140.4ZM708.529 127.031C708.529 126.738 708.617 126.491 708.793 126.289C708.975 126.087 709.242 125.986 709.594 125.986C709.945 125.986 710.212 126.087 710.395 126.289C710.577 126.491 710.668 126.738 710.668 127.031C710.668 127.324 710.577 127.568 710.395 127.763C710.212 127.959 709.945 128.056 709.594 128.056C709.242 128.056 708.975 127.959 708.793 127.763C708.617 127.568 708.529 127.324 708.529 127.031ZM718.324 132.861C718.324 132.295 718.503 131.829 718.861 131.464C719.226 131.1 719.708 130.918 720.307 130.918C720.899 130.918 721.381 131.097 721.752 131.455C722.123 131.806 722.309 132.285 722.309 132.89V133.252C722.309 133.818 722.13 134.28 721.771 134.638C721.413 134.996 720.928 135.175 720.316 135.175C719.711 135.175 719.226 134.996 718.861 134.638C718.503 134.274 718.324 133.805 718.324 133.232V132.861ZM736.283 126.181H738.168V136.25C738.168 137.61 737.758 138.675 736.938 139.443C736.124 140.211 735.036 140.595 733.676 140.595C732.263 140.595 731.163 140.234 730.375 139.511C729.587 138.789 729.193 137.776 729.193 136.474H731.068C731.068 137.288 731.29 137.923 731.732 138.379C732.182 138.834 732.829 139.062 733.676 139.062C734.451 139.062 735.076 138.818 735.551 138.33C736.033 137.841 736.277 137.158 736.283 136.279V126.181ZM740.6 135.019C740.6 133.984 740.801 133.053 741.205 132.226C741.615 131.399 742.182 130.761 742.904 130.312C743.633 129.863 744.464 129.638 745.395 129.638C746.833 129.638 747.995 130.136 748.881 131.132C749.773 132.129 750.219 133.453 750.219 135.107V135.234C750.219 136.263 750.02 137.187 749.623 138.007C749.232 138.821 748.669 139.456 747.934 139.912C747.204 140.367 746.365 140.595 745.414 140.595C743.982 140.595 742.82 140.097 741.928 139.101C741.042 138.105 740.6 136.787 740.6 135.146V135.019ZM742.416 135.234C742.416 136.406 742.686 137.347 743.227 138.056C743.773 138.766 744.503 139.121 745.414 139.121C746.332 139.121 747.061 138.763 747.602 138.047C748.142 137.324 748.412 136.315 748.412 135.019C748.412 133.86 748.135 132.923 747.582 132.207C747.035 131.484 746.306 131.123 745.395 131.123C744.503 131.123 743.783 131.477 743.236 132.187C742.689 132.897 742.416 133.912 742.416 135.234ZM758.637 137.597C758.637 137.109 758.451 136.731 758.08 136.464C757.715 136.191 757.074 135.957 756.156 135.761C755.245 135.566 754.519 135.332 753.979 135.058C753.445 134.785 753.048 134.459 752.787 134.082C752.533 133.704 752.406 133.255 752.406 132.734C752.406 131.868 752.771 131.136 753.5 130.537C754.236 129.938 755.173 129.638 756.312 129.638C757.51 129.638 758.48 129.948 759.223 130.566C759.971 131.185 760.346 131.976 760.346 132.939H758.529C758.529 132.444 758.318 132.018 757.895 131.66C757.478 131.302 756.951 131.123 756.312 131.123C755.655 131.123 755.141 131.266 754.77 131.552C754.398 131.839 754.213 132.213 754.213 132.675C754.213 133.112 754.385 133.44 754.73 133.662C755.076 133.883 755.697 134.095 756.596 134.297C757.501 134.498 758.233 134.739 758.793 135.019C759.353 135.299 759.766 135.638 760.033 136.035C760.307 136.425 760.443 136.904 760.443 137.47C760.443 138.414 760.066 139.173 759.311 139.746C758.555 140.312 757.576 140.595 756.371 140.595C755.525 140.595 754.776 140.446 754.125 140.146C753.474 139.847 752.963 139.43 752.592 138.896C752.227 138.356 752.045 137.773 752.045 137.148H753.852C753.884 137.754 754.125 138.235 754.574 138.593C755.03 138.945 755.629 139.121 756.371 139.121C757.055 139.121 757.602 138.984 758.012 138.711C758.428 138.431 758.637 138.06 758.637 137.597ZM767.182 140.595C765.749 140.595 764.584 140.127 763.686 139.189C762.787 138.245 762.338 136.985 762.338 135.41V135.078C762.338 134.03 762.536 133.095 762.934 132.275C763.337 131.448 763.897 130.804 764.613 130.341C765.336 129.873 766.117 129.638 766.957 129.638C768.331 129.638 769.398 130.091 770.16 130.996C770.922 131.901 771.303 133.196 771.303 134.882V135.634H764.145C764.171 136.676 764.473 137.519 765.053 138.164C765.639 138.802 766.381 139.121 767.279 139.121C767.917 139.121 768.458 138.991 768.9 138.73C769.343 138.47 769.73 138.125 770.062 137.695L771.166 138.554C770.281 139.915 768.952 140.595 767.182 140.595ZM766.957 131.123C766.228 131.123 765.616 131.39 765.121 131.923C764.626 132.451 764.32 133.193 764.203 134.15H769.496V134.013C769.444 133.095 769.197 132.386 768.754 131.884C768.311 131.377 767.712 131.123 766.957 131.123ZM782.328 135.234C782.328 136.842 781.96 138.138 781.225 139.121C780.489 140.104 779.493 140.595 778.236 140.595C776.954 140.595 775.945 140.188 775.209 139.375V144.463H773.402V129.834H775.053L775.141 131.005C775.876 130.094 776.898 129.638 778.207 129.638C779.477 129.638 780.479 130.117 781.215 131.074C781.957 132.031 782.328 133.362 782.328 135.068V135.234ZM780.521 135.029C780.521 133.838 780.268 132.897 779.76 132.207C779.252 131.517 778.555 131.172 777.67 131.172C776.576 131.172 775.756 131.657 775.209 132.627V137.675C775.749 138.639 776.576 139.121 777.689 139.121C778.555 139.121 779.242 138.779 779.75 138.095C780.264 137.405 780.521 136.383 780.521 135.029ZM789.877 140.4V126.181H793.891C795.128 126.181 796.221 126.455 797.172 127.002C798.122 127.548 798.855 128.326 799.369 129.336C799.89 130.345 800.154 131.504 800.16 132.812V133.72C800.16 135.061 799.9 136.237 799.379 137.246C798.865 138.255 798.126 139.03 797.162 139.57C796.205 140.11 795.089 140.387 793.812 140.4H789.877ZM791.752 127.724V138.867H793.725C795.17 138.867 796.293 138.418 797.094 137.519C797.901 136.621 798.305 135.341 798.305 133.681V132.851C798.305 131.237 797.924 129.983 797.162 129.091C796.407 128.193 795.333 127.737 793.939 127.724H791.752ZM804.682 140.4H802.875V129.834H804.682V140.4ZM802.729 127.031C802.729 126.738 802.816 126.491 802.992 126.289C803.174 126.087 803.441 125.986 803.793 125.986C804.145 125.986 804.411 126.087 804.594 126.289C804.776 126.491 804.867 126.738 804.867 127.031C804.867 127.324 804.776 127.568 804.594 127.763C804.411 127.959 804.145 128.056 803.793 128.056C803.441 128.056 803.174 127.959 802.992 127.763C802.816 127.568 802.729 127.324 802.729 127.031ZM814.105 140.4C814.001 140.192 813.917 139.821 813.852 139.287C813.012 140.159 812.009 140.595 810.844 140.595C809.802 140.595 808.946 140.302 808.275 139.716C807.611 139.124 807.279 138.375 807.279 137.47C807.279 136.37 807.696 135.517 808.529 134.912C809.369 134.3 810.548 133.994 812.064 133.994H813.822V133.164C813.822 132.532 813.633 132.031 813.256 131.66C812.878 131.282 812.322 131.093 811.586 131.093C810.941 131.093 810.401 131.256 809.965 131.582C809.529 131.907 809.311 132.301 809.311 132.763H807.494C807.494 132.236 807.68 131.728 808.051 131.24C808.428 130.745 808.936 130.354 809.574 130.068C810.219 129.782 810.925 129.638 811.693 129.638C812.911 129.638 813.865 129.944 814.555 130.556C815.245 131.162 815.603 131.998 815.629 133.066V137.929C815.629 138.899 815.753 139.671 816 140.244V140.4H814.105ZM811.107 139.023C811.674 139.023 812.211 138.877 812.719 138.584C813.227 138.291 813.594 137.91 813.822 137.441V135.273H812.406C810.193 135.273 809.086 135.921 809.086 137.216C809.086 137.783 809.275 138.226 809.652 138.545C810.03 138.864 810.515 139.023 811.107 139.023ZM820.16 138.925H826.342V140.4H817.953V139.072L823.783 131.328H818.041V129.834H826.049V131.113L820.16 138.925ZM833.324 132.861C833.324 132.295 833.503 131.829 833.861 131.464C834.226 131.1 834.708 130.918 835.307 130.918C835.899 130.918 836.381 131.097 836.752 131.455C837.123 131.806 837.309 132.285 837.309 132.89V133.252C837.309 133.818 837.13 134.28 836.771 134.638C836.413 134.996 835.928 135.175 835.316 135.175C834.711 135.175 834.226 134.996 833.861 134.638C833.503 134.274 833.324 133.805 833.324 133.232V132.861ZM855.824 138.535C855.342 139.225 854.669 139.742 853.803 140.088C852.943 140.426 851.941 140.595 850.795 140.595C849.636 140.595 848.607 140.325 847.709 139.785C846.811 139.238 846.114 138.463 845.619 137.461C845.131 136.458 844.88 135.296 844.867 133.974V132.734C844.867 130.592 845.365 128.932 846.361 127.754C847.364 126.575 848.77 125.986 850.58 125.986C852.064 125.986 853.259 126.367 854.164 127.129C855.069 127.884 855.622 128.958 855.824 130.351H853.949C853.598 128.47 852.478 127.529 850.59 127.529C849.333 127.529 848.38 127.972 847.729 128.857C847.084 129.736 846.758 131.012 846.752 132.685V133.847C846.752 135.442 847.117 136.712 847.846 137.656C848.575 138.593 849.561 139.062 850.805 139.062C851.508 139.062 852.123 138.984 852.65 138.828C853.178 138.672 853.614 138.408 853.959 138.037V134.843H850.668V133.32H855.824V138.535ZM860.639 140.4H858.832V129.834H860.639V140.4ZM858.686 127.031C858.686 126.738 858.773 126.491 858.949 126.289C859.132 126.087 859.398 125.986 859.75 125.986C860.102 125.986 860.368 126.087 860.551 126.289C860.733 126.491 860.824 126.738 860.824 127.031C860.824 127.324 860.733 127.568 860.551 127.763C860.368 127.959 860.102 128.056 859.75 128.056C859.398 128.056 859.132 127.959 858.949 127.763C858.773 127.568 858.686 127.324 858.686 127.031ZM870.062 139.355C869.359 140.182 868.327 140.595 866.967 140.595C865.84 140.595 864.981 140.27 864.389 139.619C863.803 138.961 863.507 137.991 863.5 136.709V129.834H865.307V136.66C865.307 138.261 865.958 139.062 867.26 139.062C868.64 139.062 869.558 138.548 870.014 137.519V129.834H871.82V140.4H870.102L870.062 139.355ZM880.727 137.597C880.727 137.109 880.541 136.731 880.17 136.464C879.805 136.191 879.164 135.957 878.246 135.761C877.335 135.566 876.609 135.332 876.068 135.058C875.535 134.785 875.137 134.459 874.877 134.082C874.623 133.704 874.496 133.255 874.496 132.734C874.496 131.868 874.861 131.136 875.59 130.537C876.326 129.938 877.263 129.638 878.402 129.638C879.6 129.638 880.57 129.948 881.312 130.566C882.061 131.185 882.436 131.976 882.436 132.939H880.619C880.619 132.444 880.408 132.018 879.984 131.66C879.568 131.302 879.04 131.123 878.402 131.123C877.745 131.123 877.23 131.266 876.859 131.552C876.488 131.839 876.303 132.213 876.303 132.675C876.303 133.112 876.475 133.44 876.82 133.662C877.165 133.883 877.787 134.095 878.686 134.297C879.59 134.498 880.323 134.739 880.883 135.019C881.443 135.299 881.856 135.638 882.123 136.035C882.396 136.425 882.533 136.904 882.533 137.47C882.533 138.414 882.156 139.173 881.4 139.746C880.645 140.312 879.665 140.595 878.461 140.595C877.615 140.595 876.866 140.446 876.215 140.146C875.564 139.847 875.053 139.43 874.682 138.896C874.317 138.356 874.135 137.773 874.135 137.148H875.941C875.974 137.754 876.215 138.235 876.664 138.593C877.12 138.945 877.719 139.121 878.461 139.121C879.145 139.121 879.691 138.984 880.102 138.711C880.518 138.431 880.727 138.06 880.727 137.597ZM889.271 140.595C887.839 140.595 886.674 140.127 885.775 139.189C884.877 138.245 884.428 136.985 884.428 135.41V135.078C884.428 134.03 884.626 133.095 885.023 132.275C885.427 131.448 885.987 130.804 886.703 130.341C887.426 129.873 888.207 129.638 889.047 129.638C890.421 129.638 891.488 130.091 892.25 130.996C893.012 131.901 893.393 133.196 893.393 134.882V135.634H886.234C886.26 136.676 886.563 137.519 887.143 138.164C887.729 138.802 888.471 139.121 889.369 139.121C890.007 139.121 890.548 138.991 890.99 138.73C891.433 138.47 891.82 138.125 892.152 137.695L893.256 138.554C892.37 139.915 891.042 140.595 889.271 140.595ZM889.047 131.123C888.318 131.123 887.706 131.39 887.211 131.923C886.716 132.451 886.41 133.193 886.293 134.15H891.586V134.013C891.534 133.095 891.286 132.386 890.844 131.884C890.401 131.377 889.802 131.123 889.047 131.123ZM904.418 135.234C904.418 136.842 904.05 138.138 903.314 139.121C902.579 140.104 901.583 140.595 900.326 140.595C899.044 140.595 898.035 140.188 897.299 139.375V144.463H895.492V129.834H897.143L897.23 131.005C897.966 130.094 898.988 129.638 900.297 129.638C901.566 129.638 902.569 130.117 903.305 131.074C904.047 132.031 904.418 133.362 904.418 135.068V135.234ZM902.611 135.029C902.611 133.838 902.357 132.897 901.85 132.207C901.342 131.517 900.645 131.172 899.76 131.172C898.666 131.172 897.846 131.657 897.299 132.627V137.675C897.839 138.639 898.666 139.121 899.779 139.121C900.645 139.121 901.332 138.779 901.84 138.095C902.354 137.405 902.611 136.383 902.611 135.029ZM915.648 135.234C915.648 136.842 915.281 138.138 914.545 139.121C913.809 140.104 912.813 140.595 911.557 140.595C910.274 140.595 909.265 140.188 908.529 139.375V144.463H906.723V129.834H908.373L908.461 131.005C909.197 130.094 910.219 129.638 911.527 129.638C912.797 129.638 913.799 130.117 914.535 131.074C915.277 132.031 915.648 133.362 915.648 135.068V135.234ZM913.842 135.029C913.842 133.838 913.588 132.897 913.08 132.207C912.572 131.517 911.876 131.172 910.99 131.172C909.896 131.172 909.076 131.657 908.529 132.627V137.675C909.07 138.639 909.896 139.121 911.01 139.121C911.876 139.121 912.562 138.779 913.07 138.095C913.585 137.405 913.842 136.383 913.842 135.029ZM922.338 140.595C920.906 140.595 919.74 140.127 918.842 139.189C917.943 138.245 917.494 136.985 917.494 135.41V135.078C917.494 134.03 917.693 133.095 918.09 132.275C918.493 131.448 919.053 130.804 919.77 130.341C920.492 129.873 921.273 129.638 922.113 129.638C923.487 129.638 924.555 130.091 925.316 130.996C926.078 131.901 926.459 133.196 926.459 134.882V135.634H919.301C919.327 136.676 919.63 137.519 920.209 138.164C920.795 138.802 921.537 139.121 922.436 139.121C923.074 139.121 923.614 138.991 924.057 138.73C924.499 138.47 924.887 138.125 925.219 137.695L926.322 138.554C925.437 139.915 924.109 140.595 922.338 140.595ZM922.113 131.123C921.384 131.123 920.772 131.39 920.277 131.923C919.783 132.451 919.477 133.193 919.359 134.15H924.652V134.013C924.6 133.095 924.353 132.386 923.91 131.884C923.467 131.377 922.868 131.123 922.113 131.123ZM935.814 140.4H933.939V126.181H935.814V140.4ZM941.42 127.275V129.834H943.393V131.23H941.42V137.783C941.42 138.206 941.508 138.525 941.684 138.74C941.859 138.948 942.159 139.052 942.582 139.052C942.79 139.052 943.077 139.013 943.441 138.935V140.4C942.966 140.53 942.504 140.595 942.055 140.595C941.247 140.595 940.639 140.351 940.229 139.863C939.818 139.375 939.613 138.681 939.613 137.783V131.23H937.689V129.834H939.613V127.275H941.42ZM952.035 140.4C951.931 140.192 951.846 139.821 951.781 139.287C950.941 140.159 949.939 140.595 948.773 140.595C947.732 140.595 946.876 140.302 946.205 139.716C945.541 139.124 945.209 138.375 945.209 137.47C945.209 136.37 945.626 135.517 946.459 134.912C947.299 134.3 948.477 133.994 949.994 133.994H951.752V133.164C951.752 132.532 951.563 132.031 951.186 131.66C950.808 131.282 950.251 131.093 949.516 131.093C948.871 131.093 948.331 131.256 947.895 131.582C947.458 131.907 947.24 132.301 947.24 132.763H945.424C945.424 132.236 945.609 131.728 945.98 131.24C946.358 130.745 946.866 130.354 947.504 130.068C948.148 129.782 948.855 129.638 949.623 129.638C950.84 129.638 951.794 129.944 952.484 130.556C953.174 131.162 953.533 131.998 953.559 133.066V137.929C953.559 138.899 953.682 139.671 953.93 140.244V140.4H952.035ZM949.037 139.023C949.604 139.023 950.141 138.877 950.648 138.584C951.156 138.291 951.524 137.91 951.752 137.441V135.273H950.336C948.122 135.273 947.016 135.921 947.016 137.216C947.016 137.783 947.204 138.226 947.582 138.545C947.96 138.864 948.445 139.023 949.037 139.023ZM958.354 140.4H956.547V125.4H958.354V140.4ZM963.217 140.4H961.41V129.834H963.217V140.4ZM961.264 127.031C961.264 126.738 961.352 126.491 961.527 126.289C961.71 126.087 961.977 125.986 962.328 125.986C962.68 125.986 962.947 126.087 963.129 126.289C963.311 126.491 963.402 126.738 963.402 127.031C963.402 127.324 963.311 127.568 963.129 127.763C962.947 127.959 962.68 128.056 962.328 128.056C961.977 128.056 961.71 127.959 961.527 127.763C961.352 127.568 961.264 127.324 961.264 127.031ZM972.641 140.4C972.536 140.192 972.452 139.821 972.387 139.287C971.547 140.159 970.544 140.595 969.379 140.595C968.337 140.595 967.481 140.302 966.811 139.716C966.146 139.124 965.814 138.375 965.814 137.47C965.814 136.37 966.231 135.517 967.064 134.912C967.904 134.3 969.083 133.994 970.6 133.994H972.357V133.164C972.357 132.532 972.169 132.031 971.791 131.66C971.413 131.282 970.857 131.093 970.121 131.093C969.477 131.093 968.936 131.256 968.5 131.582C968.064 131.907 967.846 132.301 967.846 132.763H966.029C966.029 132.236 966.215 131.728 966.586 131.24C966.964 130.745 967.471 130.354 968.109 130.068C968.754 129.782 969.46 129.638 970.229 129.638C971.446 129.638 972.4 129.944 973.09 130.556C973.78 131.162 974.138 131.998 974.164 133.066V137.929C974.164 138.899 974.288 139.671 974.535 140.244V140.4H972.641ZM969.643 139.023C970.209 139.023 970.746 138.877 971.254 138.584C971.762 138.291 972.13 137.91 972.357 137.441V135.273H970.941C968.728 135.273 967.621 135.921 967.621 137.216C967.621 137.783 967.81 138.226 968.188 138.545C968.565 138.864 969.05 139.023 969.643 139.023ZM978.705 129.834L978.764 131.162C979.571 130.146 980.626 129.638 981.928 129.638C984.161 129.638 985.287 130.898 985.307 133.418V140.4H983.5V133.408C983.493 132.646 983.318 132.083 982.973 131.718C982.634 131.354 982.104 131.172 981.381 131.172C980.795 131.172 980.281 131.328 979.838 131.64C979.395 131.953 979.05 132.363 978.803 132.871V140.4H976.996V129.834H978.705ZM987.553 135.019C987.553 133.984 987.755 133.053 988.158 132.226C988.568 131.399 989.135 130.761 989.857 130.312C990.587 129.863 991.417 129.638 992.348 129.638C993.786 129.638 994.949 130.136 995.834 131.132C996.726 132.129 997.172 133.453 997.172 135.107V135.234C997.172 136.263 996.973 137.187 996.576 138.007C996.186 138.821 995.622 139.456 994.887 139.912C994.158 140.367 993.318 140.595 992.367 140.595C990.935 140.595 989.773 140.097 988.881 139.101C987.995 138.105 987.553 136.787 987.553 135.146V135.019ZM989.369 135.234C989.369 136.406 989.639 137.347 990.18 138.056C990.727 138.766 991.456 139.121 992.367 139.121C993.285 139.121 994.014 138.763 994.555 138.047C995.095 137.324 995.365 136.315 995.365 135.019C995.365 133.86 995.089 132.923 994.535 132.207C993.988 131.484 993.259 131.123 992.348 131.123C991.456 131.123 990.736 131.477 990.189 132.187C989.643 132.897 989.369 133.912 989.369 135.234Z" fill="black"/>
<rect id="alur" opacity="0.5" x="379" y="235.4" width="267" height="201" fill="#FF0000"/>
<rect id="aceto" opacity="0.5" x="69" y="235.4" width="268" height="201" fill="#FF0000"/>
<rect id="peleg" opacity="0.5" x="69" y="462" width="268" height="201" fill="#FF0000"/>
<rect id="sangiorgi" opacity="0.5" x="379" y="462" width="267" height="200" fill="#FF0000"/>
<rect id="saurabh" opacity="0.5" x="688" y="462" width="267" height="200" fill="#FF0000"/>
<rect id="khuller" opacity="0.5" x="688" y="235" width="267" height="200" fill="#FF0000"/>
</g>
</svg>
