<svg width="1280" height="960" viewBox="0 0 1280 960" fill="none" xmlns="http://www.w3.org/2000/svg">
<g id="Savitch does not work for logspace">
<rect width="1280" height="960" fill="white"/>
<rect id="132:128" opacity="0.5" x="708" y="413" width="466" height="349" fill="#FF0000"/>
<g id="132:176">
<g id="$(\log n)^2$40" clip-path="url(#clip0)">
<g id="page1">
<path id="Vector" d="M793.415 478.61C793.415 478.504 793.415 478.434 792.818 477.837C789.305 474.289 787.338 468.494 787.338 461.328C787.338 454.514 788.989 448.649 793.063 444.504C793.415 444.188 793.415 444.118 793.415 444.012C793.415 443.801 793.239 443.731 793.099 443.731C792.642 443.731 789.762 446.26 788.041 449.702C786.249 453.25 785.441 457.008 785.441 461.328C785.441 464.455 785.933 468.634 787.76 472.393C789.832 476.608 792.712 478.891 793.099 478.891C793.239 478.891 793.415 478.82 793.415 478.61Z" fill="#2F80ED"/>
<path id="Vector_2" d="M801.415 445.698L796.533 446.085V447.103C798.922 447.103 799.203 447.349 799.203 449.07V467.475C799.203 469.056 798.816 469.056 796.533 469.056V470.074C797.517 470.004 799.238 470.004 800.292 470.004C801.345 470.004 803.101 470.004 804.085 470.074V469.056C801.837 469.056 801.415 469.056 801.415 467.475V445.698Z" fill="#2F80ED"/>
<path id="Vector_3" d="M821.049 462.558C821.049 458.027 817.607 454.409 813.533 454.409C809.318 454.409 805.981 458.132 805.981 462.558C805.981 467.054 809.493 470.426 813.498 470.426C817.642 470.426 821.049 466.984 821.049 462.558ZM813.533 469.653C812.233 469.653 810.652 469.091 809.634 467.37C808.686 465.789 808.65 463.717 808.65 462.242C808.65 460.907 808.65 458.765 809.739 457.184C810.723 455.674 812.268 455.112 813.498 455.112C814.867 455.112 816.343 455.744 817.291 457.114C818.38 458.729 818.38 460.942 818.38 462.242C818.38 463.471 818.38 465.649 817.467 467.3C816.483 468.986 814.867 469.653 813.533 469.653Z" fill="#2F80ED"/>
<path id="Vector_4" d="M826.303 463.717C827.954 464.806 829.359 464.806 829.745 464.806C832.907 464.806 835.26 462.418 835.26 459.713C835.26 458.765 834.979 457.43 833.855 456.306C835.225 454.901 836.876 454.901 837.051 454.901C837.192 454.901 837.367 454.901 837.508 454.971C837.157 455.112 836.981 455.463 836.981 455.849C836.981 456.341 837.332 456.763 837.894 456.763C838.175 456.763 838.807 456.587 838.807 455.814C838.807 455.182 838.316 454.198 837.086 454.198C835.26 454.198 833.89 455.322 833.398 455.849C832.345 455.041 831.115 454.585 829.781 454.585C826.619 454.585 824.266 456.973 824.266 459.678C824.266 461.68 825.495 462.98 825.847 463.296C825.425 463.823 824.793 464.841 824.793 466.211C824.793 468.248 826.022 469.126 826.303 469.302C824.687 469.759 823.072 471.023 823.072 472.849C823.072 475.273 826.373 477.275 830.694 477.275C834.874 477.275 838.351 475.414 838.351 472.779C838.351 471.901 838.105 469.829 835.998 468.74C834.206 467.827 832.45 467.827 829.429 467.827C827.287 467.827 827.041 467.827 826.409 467.159C826.057 466.808 825.741 466.141 825.741 465.403C825.741 464.806 825.952 464.209 826.303 463.717ZM829.781 464.068C826.69 464.068 826.69 460.521 826.69 459.713C826.69 459.081 826.69 457.641 827.287 456.692C827.954 455.674 829.008 455.322 829.745 455.322C832.836 455.322 832.836 458.87 832.836 459.678C832.836 460.31 832.836 461.75 832.239 462.699C831.572 463.717 830.518 464.068 829.781 464.068ZM830.729 476.538C827.357 476.538 824.793 474.816 824.793 472.814C824.793 472.533 824.863 471.164 826.198 470.25C826.971 469.759 827.287 469.759 829.745 469.759C832.661 469.759 836.63 469.759 836.63 472.814C836.63 474.887 833.96 476.538 830.729 476.538Z" fill="#2F80ED"/>
<path id="Vector_5" d="M852.887 459.783C852.957 459.572 853.835 457.816 855.135 456.692C856.048 455.849 857.242 455.287 858.612 455.287C860.017 455.287 860.509 456.341 860.509 457.746C860.509 459.748 859.069 463.752 858.366 465.649C858.05 466.492 857.875 466.948 857.875 467.58C857.875 469.161 858.963 470.426 860.649 470.426C863.916 470.426 865.145 465.262 865.145 465.052C865.145 464.876 865.005 464.735 864.794 464.735C864.478 464.735 864.443 464.841 864.267 465.438C863.459 468.318 862.125 469.723 860.755 469.723C860.403 469.723 859.841 469.688 859.841 468.564C859.841 467.686 860.228 466.632 860.439 466.14C861.141 464.209 862.616 460.275 862.616 458.273C862.616 456.165 861.387 454.584 858.717 454.584C855.591 454.584 853.941 456.797 853.308 457.675C853.203 455.673 851.763 454.584 850.217 454.584C849.093 454.584 848.321 455.252 847.724 456.446C847.091 457.711 846.6 459.818 846.6 459.958C846.6 460.099 846.74 460.275 846.986 460.275C847.267 460.275 847.302 460.239 847.513 459.432C848.075 457.289 848.707 455.287 850.112 455.287C850.92 455.287 851.201 455.849 851.201 456.903C851.201 457.675 850.85 459.045 850.604 460.134L849.62 463.928C849.48 464.595 849.093 466.175 848.918 466.808C848.672 467.721 848.286 469.372 848.286 469.547C848.286 470.039 848.672 470.426 849.199 470.426C849.62 470.426 850.112 470.215 850.393 469.688C850.463 469.512 850.779 468.283 850.955 467.58L851.728 464.419L852.887 459.783Z" fill="#2F80ED"/>
<path id="Vector_6" d="M876.085 461.328C876.085 458.659 875.734 454.304 873.767 450.229C871.694 446.014 868.814 443.731 868.428 443.731C868.287 443.731 868.112 443.801 868.112 444.012C868.112 444.118 868.112 444.188 868.709 444.785C872.221 448.332 874.188 454.128 874.188 461.293C874.188 468.107 872.537 473.973 868.463 478.118C868.112 478.434 868.112 478.504 868.112 478.61C868.112 478.82 868.287 478.891 868.428 478.891C868.885 478.891 871.765 476.362 873.486 472.919C875.277 469.337 876.085 465.543 876.085 461.328Z" fill="#2F80ED"/>
<path id="Vector_7" d="M886.158 450.795C886.533 450.444 887.516 449.671 887.891 449.343C889.343 448.008 890.724 446.72 890.724 444.59C890.724 441.803 888.383 440 885.456 440C882.646 440 880.796 442.131 880.796 444.215C880.796 445.362 881.709 445.526 882.037 445.526C882.529 445.526 883.255 445.175 883.255 444.285C883.255 443.068 882.084 443.068 881.803 443.068C882.482 441.358 884.051 440.773 885.198 440.773C887.376 440.773 888.5 442.623 888.5 444.59C888.5 447.025 886.79 448.804 884.027 451.638L881.077 454.682C880.796 454.94 880.796 454.986 880.796 455.572H890.045L890.724 451.38H889.998C889.928 451.849 889.741 453.019 889.46 453.464C889.319 453.652 887.54 453.652 887.165 453.652H882.997L886.158 450.795Z" fill="#2F80ED"/>
</g>
</g>
<g id="$\log(n^{\log n})$40" clip-path="url(#clip1)">
<g id="page1_2">
<path id="Vector_8" d="M962.041 448.377L957.159 448.763V449.782C959.548 449.782 959.829 450.028 959.829 451.749V470.154C959.829 471.735 959.442 471.735 957.159 471.735V472.753C958.143 472.683 959.864 472.683 960.917 472.683C961.971 472.683 963.727 472.683 964.711 472.753V471.735C962.463 471.735 962.041 471.735 962.041 470.154V448.377Z" fill="#2F80ED"/>
<path id="Vector_9" d="M981.675 465.236C981.675 460.705 978.233 457.088 974.159 457.088C969.944 457.088 966.607 460.811 966.607 465.236C966.607 469.732 970.119 473.104 974.124 473.104C978.268 473.104 981.675 469.662 981.675 465.236ZM974.159 472.332C972.859 472.332 971.278 471.77 970.26 470.049C969.312 468.468 969.276 466.396 969.276 464.92C969.276 463.586 969.276 461.443 970.365 459.862C971.349 458.352 972.894 457.79 974.124 457.79C975.493 457.79 976.969 458.422 977.917 459.792C979.006 461.408 979.006 463.621 979.006 464.92C979.006 466.15 979.006 468.327 978.093 469.978C977.109 471.664 975.493 472.332 974.159 472.332Z" fill="#2F80ED"/>
<path id="Vector_10" d="M986.929 466.396C988.58 467.484 989.985 467.484 990.371 467.484C993.532 467.484 995.885 465.096 995.885 462.391C995.885 461.443 995.604 460.108 994.48 458.984C995.85 457.579 997.501 457.579 997.677 457.579C997.817 457.579 997.993 457.579 998.133 457.65C997.782 457.79 997.606 458.141 997.606 458.528C997.606 459.02 997.958 459.441 998.52 459.441C998.801 459.441 999.433 459.265 999.433 458.493C999.433 457.86 998.941 456.877 997.712 456.877C995.885 456.877 994.516 458.001 994.024 458.528C992.97 457.72 991.741 457.263 990.406 457.263C987.245 457.263 984.891 459.652 984.891 462.356C984.891 464.358 986.121 465.658 986.472 465.974C986.051 466.501 985.418 467.52 985.418 468.889C985.418 470.927 986.648 471.805 986.929 471.98C985.313 472.437 983.697 473.701 983.697 475.528C983.697 477.952 986.999 479.954 991.319 479.954C995.499 479.954 998.976 478.092 998.976 475.458C998.976 474.58 998.73 472.507 996.623 471.418C994.832 470.505 993.075 470.505 990.055 470.505C987.912 470.505 987.666 470.505 987.034 469.838C986.683 469.487 986.367 468.819 986.367 468.082C986.367 467.484 986.577 466.887 986.929 466.396ZM990.406 466.747C987.315 466.747 987.315 463.199 987.315 462.391C987.315 461.759 987.315 460.319 987.912 459.371C988.58 458.352 989.633 458.001 990.371 458.001C993.462 458.001 993.462 461.548 993.462 462.356C993.462 462.989 993.462 464.429 992.865 465.377C992.197 466.396 991.144 466.747 990.406 466.747ZM991.354 479.216C987.982 479.216 985.418 477.495 985.418 475.493C985.418 475.212 985.489 473.842 986.823 472.929C987.596 472.437 987.912 472.437 990.371 472.437C993.286 472.437 997.255 472.437 997.255 475.493C997.255 477.565 994.586 479.216 991.354 479.216Z" fill="#2F80ED"/>
<path id="Vector_11" d="M1011.84 481.289C1011.84 481.183 1011.84 481.113 1011.24 480.516C1007.73 476.969 1005.76 471.173 1005.76 464.008C1005.76 457.194 1007.41 451.328 1011.49 447.183C1011.84 446.867 1011.84 446.797 1011.84 446.691C1011.84 446.481 1011.66 446.41 1011.52 446.41C1011.07 446.41 1008.19 448.939 1006.46 452.382C1004.67 455.929 1003.87 459.687 1003.87 464.008C1003.87 467.134 1004.36 471.314 1006.18 475.072C1008.26 479.287 1011.14 481.57 1011.52 481.57C1011.66 481.57 1011.84 481.5 1011.84 481.289Z" fill="#2F80ED"/>
<path id="Vector_12" d="M1021.03 462.462C1021.1 462.251 1021.98 460.495 1023.28 459.371C1024.19 458.528 1025.39 457.966 1026.76 457.966C1028.16 457.966 1028.66 459.02 1028.66 460.425C1028.66 462.427 1027.22 466.431 1026.51 468.328C1026.2 469.171 1026.02 469.627 1026.02 470.26C1026.02 471.84 1027.11 473.105 1028.8 473.105C1032.06 473.105 1033.29 467.941 1033.29 467.731C1033.29 467.555 1033.15 467.415 1032.94 467.415C1032.62 467.415 1032.59 467.52 1032.41 468.117C1031.61 470.997 1030.27 472.402 1028.9 472.402C1028.55 472.402 1027.99 472.367 1027.99 471.243C1027.99 470.365 1028.37 469.311 1028.59 468.82C1029.29 466.888 1030.76 462.954 1030.76 460.952C1030.76 458.844 1029.53 457.264 1026.86 457.264C1023.74 457.264 1022.09 459.477 1021.45 460.355C1021.35 458.353 1019.91 457.264 1018.36 457.264C1017.24 457.264 1016.47 457.931 1015.87 459.125C1015.24 460.39 1014.75 462.497 1014.75 462.638C1014.75 462.778 1014.89 462.954 1015.13 462.954C1015.41 462.954 1015.45 462.919 1015.66 462.111C1016.22 459.968 1016.85 457.966 1018.26 457.966C1019.07 457.966 1019.35 458.528 1019.35 459.582C1019.35 460.355 1019 461.724 1018.75 462.813L1017.77 466.607C1017.63 467.274 1017.24 468.855 1017.06 469.487C1016.82 470.4 1016.43 472.051 1016.43 472.227C1016.43 472.718 1016.82 473.105 1017.35 473.105C1017.77 473.105 1018.26 472.894 1018.54 472.367C1018.61 472.191 1018.93 470.962 1019.1 470.26L1019.87 467.098L1021.03 462.462Z" fill="#2F80ED"/>
<path id="Vector_13" d="M1038.8 442L1035.31 442.258V443.03C1036.9 443.03 1037.09 443.194 1037.09 444.342V456.424C1037.09 457.478 1036.81 457.478 1035.31 457.478V458.251C1036.22 458.181 1037.54 458.181 1037.93 458.181C1038.4 458.181 1039.67 458.181 1040.58 458.251V457.478C1039.08 457.478 1038.8 457.478 1038.8 456.424V442Z" fill="#2F80ED"/>
<path id="Vector_14" d="M1052.95 453.263C1052.95 450.336 1050.53 447.807 1047.44 447.807C1044.35 447.807 1041.94 450.336 1041.94 453.263C1041.94 456.19 1044.45 458.485 1047.44 458.485C1050.46 458.485 1052.95 456.19 1052.95 453.263ZM1047.44 457.759C1046.18 457.759 1045.2 457.15 1044.68 456.331C1044.1 455.371 1044.02 454.223 1044.02 453.053C1044.02 452.163 1044.02 450.758 1044.75 449.751C1045.36 448.931 1046.34 448.463 1047.44 448.463C1048.66 448.463 1049.67 449.048 1050.21 449.868C1050.84 450.851 1050.86 452.116 1050.86 453.053C1050.86 454.13 1050.82 455.418 1050.16 456.401C1049.53 457.338 1048.47 457.759 1047.44 457.759Z" fill="#2F80ED"/>
<path id="Vector_15" d="M1057.73 456.635C1057 456.565 1056.42 455.932 1056.42 455.089C1056.42 454.527 1056.56 454.317 1056.72 454.106C1057.71 454.691 1058.62 454.808 1059.18 454.808C1061.5 454.808 1063.21 453.193 1063.21 451.366C1063.21 450.476 1062.81 449.727 1062.25 449.118C1062.58 448.837 1063.35 448.346 1064.5 448.322C1064.4 448.392 1064.29 448.509 1064.29 448.884C1064.29 449.306 1064.59 449.61 1065.01 449.61C1065.34 449.61 1065.74 449.399 1065.74 448.861C1065.74 448.463 1065.43 447.667 1064.4 447.667C1064 447.667 1062.88 447.76 1061.8 448.744C1061.22 448.322 1060.31 447.924 1059.2 447.924C1056.89 447.924 1055.18 449.54 1055.18 451.366C1055.18 452.467 1055.79 453.286 1056.28 453.755C1055.76 454.34 1055.58 455.089 1055.58 455.651C1055.58 456.611 1056.04 457.337 1056.56 457.735C1055.34 458.063 1054.38 458.977 1054.38 460.054C1054.38 461.74 1056.79 463.051 1059.88 463.051C1062.81 463.051 1065.39 461.857 1065.39 460.007C1065.39 458.742 1064.64 457.759 1063.86 457.361C1062.48 456.635 1061.34 456.635 1059.04 456.635H1057.73ZM1059.2 454.129C1057.03 454.129 1057.03 451.881 1057.03 451.366C1057.03 450.5 1057.14 449.891 1057.5 449.423C1057.89 448.884 1058.55 448.603 1059.18 448.603C1061.36 448.603 1061.36 450.851 1061.36 451.366C1061.36 452.233 1061.24 452.841 1060.89 453.31C1060.38 453.965 1059.63 454.129 1059.2 454.129ZM1060.31 458.157C1060.94 458.157 1064 458.157 1064 460.03C1064 461.295 1062.2 462.372 1059.88 462.372C1057.54 462.372 1055.76 461.295 1055.76 460.03C1055.76 459.539 1056.14 458.157 1058.06 458.157H1060.31Z" fill="#2F80ED"/>
<path id="Vector_16" d="M1075.29 454.411C1075.36 454.059 1075.6 453.17 1075.67 452.818C1076 451.554 1076 451.53 1076.53 450.758C1077.31 449.61 1078.41 448.58 1079.98 448.58C1080.82 448.58 1081.31 449.072 1081.31 450.172C1081.31 451.46 1080.33 454.13 1079.88 455.277C1079.58 456.05 1079.58 456.19 1079.58 456.495C1079.58 457.829 1080.68 458.485 1081.69 458.485C1083.98 458.485 1084.94 455.207 1084.94 454.902C1084.94 454.668 1084.75 454.598 1084.59 454.598C1084.31 454.598 1084.26 454.762 1084.19 454.996C1083.63 456.916 1082.65 457.829 1081.76 457.829C1081.38 457.829 1081.19 457.595 1081.19 457.057C1081.19 456.518 1081.38 456.003 1081.62 455.417C1081.97 454.528 1083 451.835 1083 450.524C1083 448.767 1081.78 447.924 1080.09 447.924C1078.2 447.924 1076.98 449.072 1076.3 449.962C1076.14 448.674 1075.11 447.924 1073.91 447.924C1073.07 447.924 1072.48 448.463 1072.11 449.189C1071.55 450.289 1071.31 451.46 1071.31 451.507C1071.31 451.718 1071.48 451.811 1071.66 451.811C1071.97 451.811 1071.99 451.718 1072.16 451.109C1072.44 449.962 1072.86 448.58 1073.84 448.58C1074.45 448.58 1074.59 449.165 1074.59 449.681C1074.59 450.102 1074.47 450.547 1074.29 451.32C1074.24 451.507 1073.89 452.889 1073.8 453.216L1072.93 456.729C1072.84 457.08 1072.69 457.665 1072.69 457.759C1072.69 458.298 1073.14 458.485 1073.44 458.485C1073.87 458.485 1074.22 458.204 1074.38 457.923C1074.45 457.783 1074.64 456.986 1074.76 456.495L1075.29 454.411Z" fill="#2F80ED"/>
<path id="Vector_17" d="M1097.08 464.008C1097.08 461.338 1096.72 456.983 1094.76 452.908C1092.69 448.693 1089.81 446.41 1089.42 446.41C1089.28 446.41 1089.1 446.481 1089.1 446.691C1089.1 446.797 1089.1 446.867 1089.7 447.464C1093.21 451.012 1095.18 456.807 1095.18 463.973C1095.18 470.787 1093.53 476.652 1089.45 480.797C1089.1 481.113 1089.1 481.183 1089.1 481.289C1089.1 481.5 1089.28 481.57 1089.42 481.57C1089.88 481.57 1092.76 479.041 1094.48 475.599C1096.27 472.016 1097.08 468.223 1097.08 464.008Z" fill="#2F80ED"/>
</g>
</g>
<path id="=" d="M930.12 459.92L911 460.08C910.68 460.08 910.4 461 910.4 461.52C910.4 461.68 910.52 462.16 910.92 462.16H930.12C930.36 462.16 930.52 461.36 930.52 460.4C930.52 460.16 930.32 459.92 930.12 459.92ZM930.08 467.48L911 467.44C910.68 467.44 910.4 468.12 910.4 468.68C910.4 469 910.64 469.56 910.96 469.56L929.96 469.6C930.2 469.6 930.52 469.12 930.52 468.12C930.52 467.76 930.24 467.48 930.08 467.48Z" fill="#2F80ED"/>
</g>
<g id="132:175">
<path id="=_2" d="M296.12 459.92L277 460.08C276.68 460.08 276.4 461 276.4 461.52C276.4 461.68 276.52 462.16 276.92 462.16H296.12C296.36 462.16 296.52 461.36 296.52 460.4C296.52 460.16 296.32 459.92 296.12 459.92ZM296.08 467.48L277 467.44C276.68 467.44 276.4 468.12 276.4 468.68C276.4 469 276.64 469.56 276.96 469.56L295.96 469.6C296.2 469.6 296.52 469.12 296.52 468.12C296.52 467.76 296.24 467.48 296.08 467.48Z" fill="#2F80ED"/>
<path id="logarithmic" d="M218.64 496.6C218.64 496.76 218.76 496.88 219.44 497.36C220.36 497.92 220.36 498.16 220.4 498.48C220.52 499.56 220.52 503.88 220.52 506.84C220.52 513.16 220.4 517.36 220.28 519C220.12 521 220.04 521.72 218.2 522.12C217.76 522.2 217.32 522.4 217.32 522.68C217.32 523 217.64 523.12 218.44 523.12C219.28 523.12 221.04 523 221.96 523C222.68 523 224.4 523.12 225.36 523.12C225.84 523.12 226.4 522.96 226.4 522.68C226.4 522.44 226.08 522.24 225.48 522.08C223.76 521.6 223.6 521.12 223.44 520.32C223.24 519.24 223.32 511.6 223.32 505.76C223.32 500.4 223.56 495.88 223.68 494.88C223.68 494.72 223.44 494.4 223.32 494.48C222.24 495.16 221.04 495.4 219.2 496.04C218.76 496.16 218.64 496.44 218.64 496.6ZM236.766 506.84C234.086 506.84 232.086 507.96 230.846 509.04C229.326 510.32 228.046 512.24 228.046 515.28C228.046 517.28 229.286 520 231.006 521.4C232.486 522.64 234.486 523.48 236.326 523.48C238.126 523.48 239.686 523.04 241.286 521.88C242.766 520.92 244.766 518.32 244.766 515C244.766 509.96 240.726 506.84 236.766 506.84ZM236.006 508.04C237.046 508.04 238.486 508.64 239.366 509.6C240.886 511.36 241.366 513.64 241.366 515.72C241.366 517.44 240.566 519.92 239.566 521C238.446 522.12 237.566 522.32 237.126 522.32C235.206 522.32 232.926 520.88 231.926 517.88C231.606 516.88 231.446 515.64 231.446 514.32C231.446 512.24 232.366 510.16 233.406 509.2C234.246 508.48 235.166 508.04 236.006 508.04ZM254.575 506.68C253.015 506.68 251.615 507.12 250.495 507.96C248.935 509.12 248.055 510.56 248.055 512.52C248.055 515.44 249.975 516.96 251.095 517.6C251.215 517.72 251.335 517.88 251.255 517.96C250.615 518.6 248.895 519.56 248.295 520.04C248.215 520.12 248.095 520.32 248.095 520.4C248.095 521.68 248.655 522.8 249.455 523.36C249.975 523.76 250.735 524 251.015 524.16C251.135 524.24 251.215 524.36 251.135 524.44C250.615 524.88 249.375 525.76 248.375 526.6C248.015 526.88 247.215 527.36 247.215 529.12C247.215 530.24 247.935 531.72 249.055 532.6C250.735 533.84 252.615 534.08 254.055 534.08C255.495 534.08 257.615 533.8 259.815 532.36C261.535 531.24 263.575 529.2 263.575 526.2C263.575 525.16 263.015 523.64 261.895 522.68C261.175 522.12 260.295 521.76 259.975 521.72C258.695 521.52 254.375 521.48 252.615 521.4C252.175 521.36 250.975 520.64 250.975 519.6C250.975 519.28 251.855 518.44 252.255 518.24C252.415 518.16 252.615 518.16 252.855 518.2C253.135 518.2 254.015 518.24 254.255 518.24C255.215 518.24 256.855 518.08 258.615 516.72C260.175 515.52 260.855 513.88 260.855 511.68C260.855 511 260.735 510.28 260.535 509.68C260.495 509.56 260.615 509.36 260.775 509.36C261.775 509.44 263.215 509.44 263.455 509.44C263.615 509.44 264.175 508.72 264.175 508.16C264.175 508 264.055 507.76 263.815 507.72C262.975 507.52 260.055 507.48 259.175 507.4L258.055 507.16C256.895 506.88 256.175 506.68 254.575 506.68ZM255.535 532.4C254.055 532.4 252.695 532 251.615 531.16C250.775 530.44 250.215 529.4 250.215 528.12C250.215 527.2 250.735 525.72 252.015 524.84C252.255 524.68 252.895 524.44 254.175 524.44C255.855 524.44 257.135 524.44 258.215 524.64C259.175 524.84 259.935 525.36 260.335 525.88C260.815 526.52 260.895 527.44 260.895 527.96C260.895 529.12 260.295 530.64 258.695 531.68C258.255 531.92 257.095 532.4 255.535 532.4ZM254.255 507.64C255.415 507.64 256.375 508.28 257.135 509.4C257.775 510.36 258.015 511.68 258.015 512.4C258.015 514.04 257.495 516 256.495 516.64C255.935 517 255.455 517.2 255.175 517.2C252.575 517.2 251.215 514.2 251.215 512.2C251.215 510.32 251.655 509.28 252.255 508.64C252.615 508.16 253.535 507.64 254.255 507.64ZM272.195 506.84C271.435 506.84 269.635 507.52 268.475 508.36C266.595 509.6 265.475 510.72 265.475 511.88C265.475 512.08 265.715 512.4 265.955 512.4C266.155 512.4 268.155 511.4 268.555 511.08C268.635 511 268.795 510.76 268.795 510.64C268.715 509.84 268.835 509.12 269.075 509C269.355 508.8 269.875 508.56 270.715 508.56C272.675 508.56 273.835 510.24 273.835 511.24C273.835 511.72 273.795 514.16 273.755 514.52C273.755 514.76 273.515 514.96 272.595 515.24C271.715 515.52 268.515 516.4 267.915 516.64C267.315 516.92 266.715 517.12 266.315 517.64C265.875 518.2 265.555 518.96 265.555 519.68C265.555 521.68 266.915 523.4 268.315 523.4C268.515 523.4 269.475 523.32 269.915 523.16C270.315 523.04 272.035 522.36 273.515 521.32C273.595 521.28 273.755 521.44 273.755 521.48C274.235 522.96 275.395 523.48 276.315 523.48C278.115 523.48 279.915 521.76 279.915 521C279.915 520.96 279.915 520.72 279.795 520.6C279.715 520.48 279.675 520.4 279.555 520.48C279.115 520.8 278.195 521.08 278.035 521.08C277.715 521.08 276.435 520.92 276.435 519.08C276.435 518.64 276.595 513.6 276.595 512.04C276.595 510.36 276.395 509.56 275.795 508.72C275.195 507.84 274.195 506.84 272.195 506.84ZM270.995 521.32C270.155 521.32 268.475 520.68 268.475 518.92C268.475 517.96 268.875 517.68 269.275 517.4C270.355 516.88 272.275 516.2 273.395 516.2C273.555 516.2 273.715 516.4 273.715 516.52C273.715 517.32 273.715 518.68 273.635 519.64C273.635 519.72 273.395 520.48 273.155 520.64C272.395 521.04 271.595 521.32 270.995 521.32ZM281.813 508.92C281.813 509.08 282.213 509.24 283.173 510C283.613 510.28 283.613 510.8 283.613 511.2V518.84C283.573 521.24 283.453 521.64 281.893 522.16C281.573 522.28 281.093 522.44 281.093 522.68C281.093 523 281.493 523.16 281.933 523.16C282.893 523.16 283.373 523 284.573 523C286.893 523 288.293 523.2 289.293 523.2C289.893 523.2 290.253 523.04 290.253 522.84C290.253 522.68 290.173 522.4 289.533 522.2L287.693 521.72C286.973 521.6 286.733 520.84 286.653 519.68C286.613 519.08 286.413 511.84 286.413 511.04C286.413 510.84 286.533 510.48 286.813 510.16C287.213 509.72 287.893 509.6 288.573 509.6C289.373 509.6 290.333 510.08 290.773 510.48C290.893 510.56 291.253 510.64 291.333 510.6C291.573 510.48 292.533 509.4 292.973 508.76C293.093 508.56 293.213 508.28 293.213 508.2C293.213 507.84 292.853 506.84 291.213 506.84C289.973 506.84 288.213 507.84 286.653 509.32C286.573 509.36 286.373 509.32 286.373 509.16C286.373 508.4 286.453 507.68 286.453 506.96C286.453 506.84 286.253 506.48 286.093 506.48C285.973 506.48 285.773 506.64 285.293 506.96C284.893 507.2 283.653 507.8 282.333 508.24C281.893 508.4 281.813 508.8 281.813 508.92ZM298.575 523C299.415 523 301.415 523.12 301.695 523.12C302.135 523.12 302.615 522.96 302.615 522.72C302.615 522.44 302.375 522.24 301.735 522.04C300.735 521.72 299.855 521.64 299.815 520.36C299.775 518.96 299.735 517.28 299.735 515.04C299.735 512.76 299.975 507.56 299.975 507.12C299.975 507.08 299.775 506.68 299.615 506.68C299.015 506.84 297.135 507.72 295.655 508.04C295.215 508.12 294.855 508.44 294.855 508.72C294.855 508.88 294.935 509 295.175 509.16C296.335 510 296.775 510.32 296.815 510.6C296.895 511.08 296.855 515.64 296.855 516.84C296.855 518 296.815 520.4 296.695 520.96C296.615 521.36 296.015 521.84 295.095 522.08C294.415 522.28 294.135 522.48 294.135 522.72C294.135 523 294.535 523.16 295.175 523.16C295.855 523.16 297.255 523 298.575 523ZM298.495 498.72C297.935 498.72 297.335 498.88 296.935 499.24C296.615 499.68 296.455 500.32 296.455 500.68C296.455 501.36 296.735 501.8 297.055 502.16C297.415 502.48 298.055 502.64 298.335 502.64C299.135 502.64 300.255 501.76 300.255 500.68C300.255 499.96 299.575 498.72 298.495 498.72ZM309.732 507.4C309.572 507.4 309.412 507.2 309.412 507.08V505.2C309.412 505.12 309.052 504.76 308.852 504.76C308.692 504.76 308.412 505.08 307.932 505.64C307.372 506.32 306.132 507.28 304.732 508.4C304.612 508.52 304.492 508.68 304.492 508.84C304.492 508.96 304.732 509.16 305.052 509.28C305.852 509.52 306.572 509.8 306.572 510.08C306.572 511.48 306.412 517.48 306.412 518.96C306.412 520.08 306.492 520.92 306.932 521.6C307.412 522.48 308.812 523.48 310.452 523.48C312.252 523.48 313.652 522.76 314.732 521.72C315.012 521.44 315.292 521.04 315.292 520.72C315.292 520.36 315.092 520.28 315.052 520.28C314.892 520.28 314.812 520.32 314.452 520.52C313.852 520.88 313.012 521.12 312.492 521.12C311.652 521.12 310.812 521.04 310.052 520.36C309.612 519.92 309.372 519.4 309.372 518.4C309.372 516.48 309.412 510.6 309.452 509.8C309.452 509.72 309.612 509.52 309.812 509.52H314.172C314.452 509.52 315.212 509.44 315.212 509.08C315.212 508.56 315.092 507.44 315.092 507.56C315.092 507.44 314.692 507.24 314.652 507.24C314.492 507.24 310.612 507.4 309.732 507.4ZM327.194 506.84C325.514 506.84 323.794 507.68 322.154 509.16C322.114 509.2 321.874 509.16 321.874 508.92C321.874 507.76 322.034 497.8 322.434 494.92C322.434 494.8 322.354 494.48 322.194 494.48C321.954 494.48 321.594 494.68 321.434 494.76C320.474 495.4 318.674 495.8 317.434 496.16C317.354 496.2 317.314 496.28 317.314 496.36C317.314 496.68 317.554 497.08 317.714 497.16C318.834 497.88 318.914 497.96 319.034 499C319.194 500.16 319.154 506.92 319.154 508.52C319.154 512.56 318.874 517.96 318.754 519.64C318.634 521.12 318.234 521.56 317.194 521.92C316.354 522.16 316.034 522.4 316.034 522.6C316.034 523 316.594 523.12 316.954 523.12C317.634 523.12 319.074 523 319.994 523C320.954 523 322.954 523.08 323.274 523.08C323.834 523.08 324.274 522.96 324.274 522.6C324.274 522.4 323.954 522.12 323.394 521.96C322.474 521.72 321.914 521.48 321.834 520.16C321.794 518.72 321.794 513.52 321.914 511.84C321.954 510.6 322.474 509.96 322.554 509.88C322.714 509.72 324.034 508.96 325.754 508.96C327.314 508.96 328.354 509.52 328.994 510.28C329.434 510.8 329.634 512.08 329.634 514.28C329.634 514.92 329.714 519.32 329.634 520.08C329.474 521.6 329.354 521.72 328.354 522.04C327.874 522.16 327.514 522.36 327.514 522.6C327.514 522.88 327.714 523.08 328.314 523.08C329.474 523.08 330.274 523 331.194 523C332.554 523 332.994 523.12 334.354 523.12C335.114 523.12 335.434 522.96 335.434 522.6C335.434 522.36 335.114 522.12 334.314 521.96C333.274 521.72 332.754 521.4 332.754 520.4L332.594 513C332.594 511.28 332.234 509.76 331.434 508.68C330.594 507.52 329.194 506.84 327.194 506.84ZM337.518 509C337.518 509.2 337.798 509.4 338.918 510.44C339.278 510.8 339.198 511.32 339.198 511.52C339.198 514.28 339.158 518.28 339.078 519.44C338.918 521.16 338.678 521.76 337.398 522.08C336.678 522.24 336.438 522.52 336.438 522.68C336.438 522.96 336.838 523.12 337.438 523.12C338.318 523.12 339.118 523 340.438 523C341.958 523 343.438 523.08 343.598 523.08C344.118 523.08 344.678 522.96 344.678 522.68C344.678 522.36 344.358 522.2 343.598 521.96C342.318 521.56 342.158 520.92 342.158 520.16C342.158 517.12 342.158 512.08 342.238 511.04C342.278 510.6 342.398 510.28 342.678 510.04C343.638 509.28 344.558 508.8 345.878 508.8C347.318 508.8 348.358 509.32 348.878 510C349.158 510.36 349.398 510.88 349.398 512.04V519.88C349.398 521.32 349.238 521.72 347.878 522.04C347.238 522.2 347.078 522.48 347.078 522.6C347.078 522.76 347.197 523.08 348.118 523.08C348.958 523.08 350.118 523 350.958 523C351.878 523 353.078 523.08 353.958 523.08C354.598 523.08 354.918 522.88 354.918 522.6C354.918 522.4 354.518 522.16 354.078 522.04C352.718 521.72 352.518 521.32 352.398 520.04C352.318 519.16 352.398 511.6 352.398 511.32C352.398 511.04 352.678 510.28 352.798 510.16C353.358 509.68 354.078 508.92 355.878 508.92C357.558 508.92 358.438 509.56 358.918 510.32C359.318 511.04 359.558 511.6 359.558 513C359.558 514.32 359.638 518.8 359.638 519.76C359.638 521.16 359.478 521.64 358.198 522.04C357.758 522.16 357.318 522.32 357.318 522.56C357.318 522.84 357.558 523.08 358.318 523.08C359.238 523.08 359.838 523 361.038 523C362.038 523 363.118 523.12 363.918 523.12C364.678 523.12 365.038 522.96 365.038 522.68C365.038 522.44 364.798 522.28 364.278 522.12C362.838 521.72 362.598 520.96 362.558 520.24C362.558 516.96 362.638 514.16 362.478 512.08C362.398 510.64 362.038 509.24 361.158 508.24C360.318 507.36 359.198 506.88 357.718 506.88C356.998 506.88 356.078 507.08 355.158 507.52C354.118 508.04 353.078 508.68 352.318 509.24C352.158 509.32 352.078 509.24 351.998 509.08C351.838 508.8 351.438 508.2 350.718 507.68C349.998 507.16 349.038 506.88 347.598 506.88C345.717 506.88 343.238 508.4 342.238 509.2C342.078 509.36 341.998 509.08 341.998 508.96C341.998 508.56 342.158 507.44 342.158 506.88C342.158 506.8 341.878 506.52 341.678 506.48C341.598 506.48 341.518 506.52 341.358 506.64C340.918 506.92 339.118 507.96 338.318 508.28C337.878 508.52 337.518 508.76 337.518 509ZM371.661 523C372.501 523 374.501 523.12 374.781 523.12C375.221 523.12 375.701 522.96 375.701 522.72C375.701 522.44 375.461 522.24 374.821 522.04C373.821 521.72 372.941 521.64 372.901 520.36C372.861 518.96 372.821 517.28 372.821 515.04C372.821 512.76 373.061 507.56 373.061 507.12C373.061 507.08 372.861 506.68 372.701 506.68C372.101 506.84 370.221 507.72 368.741 508.04C368.301 508.12 367.941 508.44 367.941 508.72C367.941 508.88 368.021 509 368.261 509.16C369.421 510 369.861 510.32 369.901 510.6C369.981 511.08 369.941 515.64 369.941 516.84C369.941 518 369.901 520.4 369.781 520.96C369.701 521.36 369.101 521.84 368.181 522.08C367.501 522.28 367.221 522.48 367.221 522.72C367.221 523 367.621 523.16 368.261 523.16C368.941 523.16 370.341 523 371.661 523ZM371.581 498.72C371.021 498.72 370.421 498.88 370.021 499.24C369.701 499.68 369.541 500.32 369.541 500.68C369.541 501.36 369.821 501.8 370.141 502.16C370.501 502.48 371.141 502.64 371.421 502.64C372.221 502.64 373.341 501.76 373.341 500.68C373.341 499.96 372.661 498.72 371.581 498.72ZM386.658 506.96C385.578 506.96 382.978 507.52 381.418 508.64C379.098 510.2 377.538 512.64 377.538 515.56C377.538 517.24 378.098 519.12 378.778 520.24C380.058 522.12 382.178 523.44 384.698 523.44C386.778 523.44 389.058 522.52 390.458 520.96C390.778 520.64 390.978 520.24 390.978 519.8C390.978 519.6 390.658 519.48 390.218 519.8C389.178 520.52 388.138 521 386.658 521C384.578 521 382.618 520 381.618 518.32C381.458 518.08 380.578 516.64 380.578 514.32C380.578 512.56 381.178 510.92 382.258 509.72C382.898 508.92 384.098 508.36 384.738 508.36C386.098 508.36 386.778 508.96 388.098 509.92C388.738 510.36 389.418 510.68 389.658 510.68C389.818 510.68 390.978 509.72 390.978 509.08C390.978 508.84 390.778 508.16 390.378 507.88C389.618 507.28 387.858 506.96 386.658 506.96Z" fill="black"/>
<g id="$\log(256n^5)$40" clip-path="url(#clip2)">
<g id="page1_3">
<path id="Vector_18" d="M112.041 447.698L107.159 448.085V449.103C109.548 449.103 109.829 449.349 109.829 451.07V469.475C109.829 471.056 109.442 471.056 107.159 471.056V472.074C108.143 472.004 109.864 472.004 110.917 472.004C111.971 472.004 113.727 472.004 114.711 472.074V471.056C112.463 471.056 112.041 471.056 112.041 469.475V447.698Z" fill="#2F80ED"/>
<path id="Vector_19" d="M131.675 464.558C131.675 460.027 128.233 456.409 124.159 456.409C119.944 456.409 116.607 460.132 116.607 464.558C116.607 469.054 120.119 472.426 124.124 472.426C128.268 472.426 131.675 468.984 131.675 464.558ZM124.159 471.653C122.859 471.653 121.278 471.091 120.26 469.37C119.312 467.789 119.276 465.717 119.276 464.242C119.276 462.907 119.276 460.765 120.365 459.184C121.349 457.674 122.894 457.112 124.124 457.112C125.493 457.112 126.969 457.744 127.917 459.114C129.006 460.729 129.006 462.942 129.006 464.242C129.006 465.471 129.006 467.649 128.093 469.3C127.109 470.986 125.493 471.653 124.159 471.653Z" fill="#2F80ED"/>
<path id="Vector_20" d="M136.929 465.717C138.58 466.806 139.985 466.806 140.371 466.806C143.532 466.806 145.885 464.418 145.885 461.713C145.885 460.765 145.604 459.43 144.48 458.306C145.85 456.901 147.501 456.901 147.677 456.901C147.817 456.901 147.993 456.901 148.133 456.971C147.782 457.112 147.606 457.463 147.606 457.849C147.606 458.341 147.958 458.763 148.52 458.763C148.801 458.763 149.433 458.587 149.433 457.814C149.433 457.182 148.941 456.198 147.712 456.198C145.885 456.198 144.516 457.322 144.024 457.849C142.97 457.041 141.741 456.585 140.406 456.585C137.245 456.585 134.891 458.973 134.891 461.678C134.891 463.68 136.121 464.98 136.472 465.296C136.051 465.823 135.418 466.841 135.418 468.211C135.418 470.248 136.648 471.126 136.929 471.302C135.313 471.759 133.697 473.023 133.697 474.849C133.697 477.273 136.999 479.275 141.319 479.275C145.499 479.275 148.976 477.414 148.976 474.779C148.976 473.901 148.73 471.829 146.623 470.74C144.832 469.827 143.075 469.827 140.055 469.827C137.912 469.827 137.666 469.827 137.034 469.159C136.683 468.808 136.367 468.141 136.367 467.403C136.367 466.806 136.577 466.209 136.929 465.717ZM140.406 466.068C137.315 466.068 137.315 462.521 137.315 461.713C137.315 461.081 137.315 459.641 137.912 458.692C138.58 457.674 139.633 457.322 140.371 457.322C143.462 457.322 143.462 460.87 143.462 461.678C143.462 462.31 143.462 463.75 142.865 464.699C142.197 465.717 141.144 466.068 140.406 466.068ZM141.354 478.538C137.982 478.538 135.418 476.816 135.418 474.814C135.418 474.533 135.489 473.164 136.823 472.25C137.596 471.759 137.912 471.759 140.371 471.759C143.286 471.759 147.255 471.759 147.255 474.814C147.255 476.887 144.586 478.538 141.354 478.538Z" fill="#2F80ED"/>
<path id="Vector_21" d="M161.838 480.61C161.838 480.504 161.838 480.434 161.241 479.837C157.729 476.289 155.762 470.494 155.762 463.328C155.762 456.514 157.413 450.649 161.487 446.504C161.838 446.188 161.838 446.118 161.838 446.012C161.838 445.801 161.663 445.731 161.522 445.731C161.066 445.731 158.186 448.26 156.464 451.702C154.673 455.25 153.865 459.008 153.865 463.328C153.865 466.455 154.357 470.634 156.183 474.393C158.256 478.608 161.136 480.891 161.522 480.891C161.663 480.891 161.838 480.82 161.838 480.61Z" fill="#2F80ED"/>
<path id="Vector_22" d="M179.253 466.173H178.48C178.375 466.77 178.094 468.702 177.743 469.264C177.497 469.58 175.495 469.58 174.441 469.58H167.943C168.891 468.773 171.034 466.525 171.947 465.682C177.286 460.764 179.253 458.938 179.253 455.46C179.253 451.421 176.057 448.717 171.982 448.717C167.908 448.717 165.52 452.194 165.52 455.215C165.52 457.006 167.065 457.006 167.17 457.006C167.908 457.006 168.821 456.479 168.821 455.355C168.821 454.372 168.154 453.704 167.17 453.704C166.854 453.704 166.784 453.704 166.679 453.739C167.346 451.351 169.243 449.735 171.526 449.735C174.511 449.735 176.338 452.229 176.338 455.46C176.338 458.446 174.617 461.045 172.615 463.293L165.52 471.231V472.074H178.34L179.253 466.173Z" fill="#2F80ED"/>
<path id="Vector_23" d="M185.49 451.948C187 452.44 188.23 452.475 188.616 452.475C192.585 452.475 195.114 449.56 195.114 449.068C195.114 448.928 195.044 448.752 194.833 448.752C194.763 448.752 194.693 448.752 194.377 448.892C192.41 449.735 190.724 449.841 189.81 449.841C187.492 449.841 185.841 449.138 185.174 448.857C184.928 448.752 184.858 448.752 184.823 448.752C184.542 448.752 184.542 448.963 184.542 449.525V459.957C184.542 460.589 184.542 460.8 184.963 460.8C185.139 460.8 185.174 460.764 185.525 460.343C186.509 458.903 188.16 458.06 189.916 458.06C191.777 458.06 192.691 459.781 192.972 460.378C193.569 461.748 193.604 463.469 193.604 464.804C193.604 466.138 193.604 468.141 192.62 469.721C191.848 470.986 190.478 471.864 188.932 471.864C186.614 471.864 184.331 470.283 183.699 467.719C183.874 467.789 184.085 467.824 184.261 467.824C184.858 467.824 185.806 467.473 185.806 466.279C185.806 465.295 185.139 464.734 184.261 464.734C183.629 464.734 182.715 465.05 182.715 466.419C182.715 469.405 185.104 472.812 189.003 472.812C192.972 472.812 196.449 469.475 196.449 465.014C196.449 460.835 193.639 457.357 189.951 457.357C187.949 457.357 186.403 458.236 185.49 459.219V451.948Z" fill="#2F80ED"/>
<path id="Vector_24" d="M202.511 459.851C202.511 450.965 206.831 449.56 208.728 449.56C209.992 449.56 211.257 449.946 211.924 451C211.502 451 210.168 451 210.168 452.44C210.168 453.212 210.695 453.88 211.608 453.88C212.486 453.88 213.083 453.353 213.083 452.334C213.083 450.508 211.748 448.717 208.692 448.717C204.267 448.717 199.63 453.248 199.63 460.975C199.63 470.634 203.845 472.812 206.831 472.812C210.659 472.812 213.926 469.475 213.926 464.909C213.926 460.237 210.659 457.111 207.147 457.111C204.021 457.111 202.862 459.816 202.511 460.799V459.851ZM206.831 471.863C204.618 471.863 203.564 469.896 203.248 469.159C202.932 468.246 202.581 466.525 202.581 464.066C202.581 461.291 203.845 457.814 207.006 457.814C208.938 457.814 209.957 459.113 210.484 460.308C211.046 461.607 211.046 463.363 211.046 464.874C211.046 466.665 211.046 468.246 210.378 469.58C209.5 471.266 208.236 471.863 206.831 471.863Z" fill="#2F80ED"/>
<path id="Vector_25" d="M222.622 461.783C222.692 461.572 223.571 459.816 224.87 458.692C225.783 457.849 226.978 457.287 228.347 457.287C229.752 457.287 230.244 458.341 230.244 459.746C230.244 461.748 228.804 465.752 228.102 467.649C227.785 468.492 227.61 468.948 227.61 469.58C227.61 471.161 228.699 472.426 230.385 472.426C233.651 472.426 234.881 467.262 234.881 467.052C234.881 466.876 234.74 466.735 234.529 466.735C234.213 466.735 234.178 466.841 234.002 467.438C233.195 470.318 231.86 471.723 230.49 471.723C230.139 471.723 229.577 471.688 229.577 470.564C229.577 469.686 229.963 468.632 230.174 468.14C230.876 466.209 232.352 462.275 232.352 460.273C232.352 458.165 231.122 456.584 228.453 456.584C225.327 456.584 223.676 458.797 223.044 459.675C222.938 457.673 221.498 456.584 219.953 456.584C218.829 456.584 218.056 457.252 217.459 458.446C216.827 459.711 216.335 461.818 216.335 461.958C216.335 462.099 216.475 462.275 216.721 462.275C217.002 462.275 217.037 462.239 217.248 461.432C217.81 459.289 218.442 457.287 219.847 457.287C220.655 457.287 220.936 457.849 220.936 458.903C220.936 459.675 220.585 461.045 220.339 462.134L219.356 465.928C219.215 466.595 218.829 468.175 218.653 468.808C218.407 469.721 218.021 471.372 218.021 471.547C218.021 472.039 218.407 472.426 218.934 472.426C219.356 472.426 219.847 472.215 220.128 471.688C220.199 471.512 220.515 470.283 220.69 469.58L221.463 466.419L222.622 461.783Z" fill="#2F80ED"/>
<path id="Vector_26" d="M239.194 444.412C239.498 444.506 240.435 444.74 241.418 444.74C244.346 444.74 246.125 442.679 246.125 442.328C246.125 442.07 245.961 442 245.844 442C245.797 442 245.75 442 245.54 442.117C244.627 442.468 243.549 442.749 242.285 442.749C240.903 442.749 239.756 442.398 239.03 442.117C238.796 442 238.749 442 238.726 442C238.421 442 238.421 442.258 238.421 442.679V449.54C238.421 449.962 238.421 450.243 238.796 450.243C238.983 450.243 239.053 450.149 239.171 449.962C239.452 449.61 240.341 448.416 242.332 448.416C243.643 448.416 244.275 449.493 244.486 449.938C244.884 450.781 244.931 451.858 244.931 452.771C244.931 453.638 244.907 454.902 244.252 455.933C243.807 456.635 242.87 457.361 241.629 457.361C240.107 457.361 238.609 456.401 238.07 454.879C238.14 454.902 238.281 454.902 238.304 454.902C238.96 454.902 239.475 454.481 239.475 453.755C239.475 452.889 238.796 452.584 238.328 452.584C237.906 452.584 237.157 452.818 237.157 453.825C237.157 455.933 238.983 458.064 241.676 458.064C244.603 458.064 247.085 455.792 247.085 452.889C247.085 450.172 245.118 447.76 242.355 447.76C241.184 447.76 240.084 448.135 239.194 448.931V444.412Z" fill="#2F80ED"/>
<path id="Vector_27" d="M259.724 463.328C259.724 460.659 259.373 456.304 257.406 452.229C255.334 448.014 252.453 445.731 252.067 445.731C251.927 445.731 251.751 445.801 251.751 446.012C251.751 446.118 251.751 446.188 252.348 446.785C255.861 450.332 257.827 456.128 257.827 463.293C257.827 470.107 256.177 475.973 252.102 480.118C251.751 480.434 251.751 480.504 251.751 480.61C251.751 480.82 251.927 480.891 252.067 480.891C252.524 480.891 255.404 478.362 257.125 474.919C258.916 471.337 259.724 467.543 259.724 463.328Z" fill="#2F80ED"/>
</g>
</g>
<g id="$8 + 5\log n$40" clip-path="url(#clip3)">
<g id="page1_4">
<path id="Vector_28" d="M323.467 459.697C325.223 458.748 327.787 457.133 327.787 454.182C327.787 451.126 324.837 449.019 321.605 449.019C318.128 449.019 315.388 451.583 315.388 454.779C315.388 455.973 315.74 457.168 316.723 458.362C317.109 458.818 317.145 458.854 319.603 460.575C316.196 462.155 314.44 464.509 314.44 467.073C314.44 470.796 317.987 473.114 321.57 473.114C325.469 473.114 328.736 470.234 328.736 466.546C328.736 462.963 326.207 461.383 323.467 459.697ZM318.69 456.535C318.233 456.219 316.828 455.306 316.828 453.585C316.828 451.302 319.217 449.862 321.57 449.862C324.099 449.862 326.347 451.688 326.347 454.217C326.347 456.36 324.802 458.081 322.764 459.205L318.69 456.535ZM320.341 461.066L324.591 463.841C325.504 464.438 327.12 465.527 327.12 467.67C327.12 470.339 324.415 472.166 321.605 472.166C318.62 472.166 316.056 469.988 316.056 467.073C316.056 464.333 318.058 462.12 320.341 461.066Z" fill="#2F80ED"/>
<path id="Vector_29" d="M352.016 464.262H361.71C362.202 464.262 362.834 464.262 362.834 463.63C362.834 462.963 362.237 462.963 361.71 462.963H352.016V453.268C352.016 452.777 352.016 452.144 351.384 452.144C350.716 452.144 350.716 452.741 350.716 453.268V462.963H341.022C340.53 462.963 339.898 462.963 339.898 463.595C339.898 464.262 340.495 464.262 341.022 464.262H350.716V473.956C350.716 474.448 350.716 475.08 351.348 475.08C352.016 475.08 352.016 474.483 352.016 473.956V464.262Z" fill="#2F80ED"/>
<path id="Vector_30" d="M377.052 452.25C378.562 452.742 379.791 452.777 380.178 452.777C384.147 452.777 386.676 449.862 386.676 449.37C386.676 449.229 386.605 449.054 386.395 449.054C386.324 449.054 386.254 449.054 385.938 449.194C383.971 450.037 382.285 450.143 381.372 450.143C379.054 450.143 377.403 449.44 376.736 449.159C376.49 449.054 376.419 449.054 376.384 449.054C376.103 449.054 376.103 449.264 376.103 449.826V460.258C376.103 460.891 376.103 461.101 376.525 461.101C376.7 461.101 376.736 461.066 377.087 460.645C378.07 459.205 379.721 458.362 381.477 458.362C383.339 458.362 384.252 460.083 384.533 460.68C385.13 462.05 385.165 463.771 385.165 465.106C385.165 466.44 385.165 468.442 384.182 470.023C383.409 471.287 382.039 472.165 380.494 472.165C378.176 472.165 375.893 470.585 375.26 468.021C375.436 468.091 375.647 468.126 375.822 468.126C376.419 468.126 377.368 467.775 377.368 466.581C377.368 465.597 376.7 465.035 375.822 465.035C375.19 465.035 374.277 465.351 374.277 466.721C374.277 469.707 376.665 473.114 380.564 473.114C384.533 473.114 388.01 469.777 388.01 465.316C388.01 461.136 385.201 457.659 381.512 457.659C379.51 457.659 377.965 458.537 377.052 459.521V452.25Z" fill="#2F80ED"/>
<path id="Vector_31" d="M401.647 448L396.765 448.386V449.405C399.154 449.405 399.435 449.651 399.435 451.372V469.777C399.435 471.358 399.048 471.358 396.765 471.358V472.376C397.749 472.306 399.47 472.306 400.523 472.306C401.577 472.306 403.333 472.306 404.317 472.376V471.358C402.069 471.358 401.647 471.358 401.647 469.777V448Z" fill="#2F80ED"/>
<path id="Vector_32" d="M421.281 464.86C421.281 460.329 417.839 456.711 413.765 456.711C409.55 456.711 406.213 460.434 406.213 464.86C406.213 469.356 409.725 472.728 413.729 472.728C417.874 472.728 421.281 469.285 421.281 464.86ZM413.765 471.955C412.465 471.955 410.884 471.393 409.866 469.672C408.917 468.091 408.882 466.019 408.882 464.544C408.882 463.209 408.882 461.066 409.971 459.486C410.955 457.975 412.5 457.413 413.729 457.413C415.099 457.413 416.575 458.046 417.523 459.416C418.612 461.031 418.612 463.244 418.612 464.544C418.612 465.773 418.612 467.951 417.699 469.602C416.715 471.288 415.099 471.955 413.765 471.955Z" fill="#2F80ED"/>
<path id="Vector_33" d="M426.535 466.019C428.186 467.108 429.591 467.108 429.977 467.108C433.139 467.108 435.492 464.719 435.492 462.015C435.492 461.066 435.211 459.732 434.087 458.608C435.457 457.203 437.108 457.203 437.283 457.203C437.424 457.203 437.599 457.203 437.74 457.273C437.389 457.413 437.213 457.765 437.213 458.151C437.213 458.643 437.564 459.064 438.126 459.064C438.407 459.064 439.039 458.889 439.039 458.116C439.039 457.484 438.548 456.5 437.318 456.5C435.492 456.5 434.122 457.624 433.63 458.151C432.577 457.343 431.347 456.887 430.012 456.887C426.851 456.887 424.498 459.275 424.498 461.98C424.498 463.982 425.727 465.281 426.079 465.597C425.657 466.124 425.025 467.143 425.025 468.513C425.025 470.55 426.254 471.428 426.535 471.604C424.919 472.06 423.304 473.325 423.304 475.151C423.304 477.575 426.605 479.577 430.926 479.577C435.105 479.577 438.583 477.715 438.583 475.081C438.583 474.203 438.337 472.131 436.229 471.042C434.438 470.128 432.682 470.128 429.661 470.128C427.519 470.128 427.273 470.128 426.641 469.461C426.289 469.11 425.973 468.443 425.973 467.705C425.973 467.108 426.184 466.511 426.535 466.019ZM430.012 466.37C426.922 466.37 426.922 462.823 426.922 462.015C426.922 461.383 426.922 459.942 427.519 458.994C428.186 457.975 429.24 457.624 429.977 457.624C433.068 457.624 433.068 461.172 433.068 461.98C433.068 462.612 433.068 464.052 432.471 465C431.804 466.019 430.75 466.37 430.012 466.37ZM430.961 478.839C427.589 478.839 425.025 477.118 425.025 475.116C425.025 474.835 425.095 473.465 426.43 472.552C427.203 472.06 427.519 472.06 429.977 472.06C432.893 472.06 436.862 472.06 436.862 475.116C436.862 477.188 434.192 478.839 430.961 478.839Z" fill="#2F80ED"/>
<path id="Vector_34" d="M453.119 462.085C453.189 461.874 454.067 460.118 455.367 458.994C456.28 458.151 457.474 457.589 458.844 457.589C460.249 457.589 460.741 458.643 460.741 460.048C460.741 462.05 459.301 466.054 458.598 467.951C458.282 468.794 458.106 469.25 458.106 469.883C458.106 471.463 459.195 472.728 460.881 472.728C464.148 472.728 465.377 467.565 465.377 467.354C465.377 467.178 465.237 467.038 465.026 467.038C464.71 467.038 464.675 467.143 464.499 467.74C463.691 470.62 462.356 472.025 460.987 472.025C460.635 472.025 460.073 471.99 460.073 470.866C460.073 469.988 460.46 468.934 460.671 468.443C461.373 466.511 462.848 462.577 462.848 460.575C462.848 458.467 461.619 456.887 458.949 456.887C455.823 456.887 454.173 459.1 453.54 459.978C453.435 457.976 451.995 456.887 450.449 456.887C449.325 456.887 448.553 457.554 447.956 458.748C447.323 460.013 446.832 462.12 446.832 462.261C446.832 462.401 446.972 462.577 447.218 462.577C447.499 462.577 447.534 462.542 447.745 461.734C448.307 459.591 448.939 457.589 450.344 457.589C451.152 457.589 451.433 458.151 451.433 459.205C451.433 459.978 451.082 461.348 450.836 462.436L449.852 466.23C449.712 466.897 449.325 468.478 449.15 469.11C448.904 470.023 448.518 471.674 448.518 471.85C448.518 472.341 448.904 472.728 449.431 472.728C449.852 472.728 450.344 472.517 450.625 471.99C450.695 471.815 451.011 470.585 451.187 469.883L451.96 466.722L453.119 462.085Z" fill="#2F80ED"/>
</g>
</g>
</g>
<path id="132:178" d="M812.276 606.76C812.276 606.88 812.516 607.08 813.036 607.44C813.916 608.16 813.996 608.56 813.996 609C813.996 613.08 813.916 616.56 813.796 617.76C813.676 619.2 813.436 619.6 812.116 620C811.676 620.12 811.276 620.32 811.276 620.6C811.276 620.96 811.716 621.12 812.316 621.12C812.996 621.12 814.156 621 815.636 621C816.476 621 817.596 621.04 818.076 621.04C818.636 621.04 819.076 620.84 819.076 620.56C819.076 620.32 818.756 620.08 818.356 619.96C817.076 619.6 816.916 619.28 816.876 618.72C816.836 618.24 816.836 609.64 816.836 609.12C816.836 608.76 817.116 608.28 817.236 608.16C817.996 607.48 819.036 606.88 820.796 606.88C821.716 606.88 822.916 607.32 823.356 607.64C823.836 608 824.556 609.16 824.556 610.6C824.556 611.76 824.516 616.6 824.436 617.92C824.356 619.24 824.156 619.56 823.196 619.92C822.716 620.08 822.276 620.32 822.276 620.6C822.276 620.92 822.836 621.08 823.196 621.08C823.716 621.08 824.956 621 825.956 621C827.076 621 827.996 621.08 828.916 621.08C829.556 621.08 830.116 620.92 830.116 620.64C830.116 620.36 829.876 620.16 829.116 619.96C828.116 619.68 827.716 619.16 827.636 618.56C827.596 618 827.516 612.04 827.516 611.28C827.516 609.28 826.996 607.44 826.116 606.4C825.556 605.76 824.436 604.88 822.476 604.88C820.796 604.88 818.716 606 817.116 607.08C817.076 607.08 816.876 607.16 816.876 606.96C816.876 606.6 817.036 605.64 817.036 604.96C817.036 604.8 816.836 604.36 816.636 604.36C816.436 604.36 816.076 604.56 815.676 604.8C815.116 605.2 813.676 605.72 812.996 605.96C812.716 606.08 812.276 606.48 812.276 606.76ZM841.016 604.84C838.336 604.84 836.336 605.96 835.096 607.04C833.576 608.32 832.296 610.24 832.296 613.28C832.296 615.28 833.536 618 835.256 619.4C836.736 620.64 838.736 621.48 840.576 621.48C842.376 621.48 843.936 621.04 845.536 619.88C847.016 618.92 849.016 616.32 849.016 613C849.016 607.96 844.976 604.84 841.016 604.84ZM840.256 606.04C841.296 606.04 842.736 606.64 843.616 607.6C845.136 609.36 845.616 611.64 845.616 613.72C845.616 615.44 844.816 617.92 843.816 619C842.696 620.12 841.816 620.32 841.376 620.32C839.456 620.32 837.176 618.88 836.176 615.88C835.856 614.88 835.696 613.64 835.696 612.32C835.696 610.24 836.616 608.16 837.656 607.2C838.496 606.48 839.416 606.04 840.256 606.04ZM856.873 605.4C856.713 605.4 856.553 605.2 856.553 605.08V603.2C856.553 603.12 856.192 602.76 855.993 602.76C855.833 602.76 855.553 603.08 855.073 603.64C854.513 604.32 853.273 605.28 851.873 606.4C851.753 606.52 851.632 606.68 851.632 606.84C851.632 606.96 851.873 607.16 852.193 607.28C852.993 607.52 853.713 607.8 853.713 608.08C853.713 609.48 853.553 615.48 853.553 616.96C853.553 618.08 853.633 618.92 854.073 619.6C854.553 620.48 855.953 621.48 857.593 621.48C859.393 621.48 860.793 620.76 861.873 619.72C862.153 619.44 862.433 619.04 862.433 618.72C862.433 618.36 862.233 618.28 862.193 618.28C862.033 618.28 861.953 618.32 861.593 618.52C860.993 618.88 860.153 619.12 859.633 619.12C858.793 619.12 857.953 619.04 857.193 618.36C856.753 617.92 856.513 617.4 856.513 616.4C856.513 614.48 856.553 608.6 856.593 607.8C856.593 607.72 856.753 607.52 856.953 607.52H861.313C861.593 607.52 862.353 607.44 862.353 607.08C862.353 606.56 862.233 605.44 862.233 605.56C862.233 605.44 861.833 605.24 861.793 605.24C861.633 605.24 857.753 605.4 856.873 605.4ZM872.812 594.6C872.812 594.76 872.932 594.88 873.612 595.36C874.532 595.92 874.532 596.16 874.572 596.48C874.692 597.56 874.692 601.88 874.692 604.84C874.692 611.16 874.572 615.36 874.452 617C874.292 619 874.212 619.72 872.372 620.12C871.932 620.2 871.492 620.4 871.492 620.68C871.492 621 871.812 621.12 872.612 621.12C873.452 621.12 875.212 621 876.132 621C876.852 621 878.572 621.12 879.532 621.12C880.012 621.12 880.572 620.96 880.572 620.68C880.572 620.44 880.252 620.24 879.652 620.08C877.932 619.6 877.772 619.12 877.612 618.32C877.412 617.24 877.492 609.6 877.492 603.76C877.492 598.4 877.732 593.88 877.852 592.88C877.852 592.72 877.612 592.4 877.492 592.48C876.412 593.16 875.212 593.4 873.372 594.04C872.932 594.16 872.812 594.44 872.812 594.6ZM890.938 604.84C888.258 604.84 886.258 605.96 885.018 607.04C883.498 608.32 882.218 610.24 882.218 613.28C882.218 615.28 883.458 618 885.178 619.4C886.658 620.64 888.658 621.48 890.498 621.48C892.298 621.48 893.858 621.04 895.458 619.88C896.938 618.92 898.938 616.32 898.938 613C898.938 607.96 894.898 604.84 890.938 604.84ZM890.178 606.04C891.217 606.04 892.658 606.64 893.538 607.6C895.058 609.36 895.538 611.64 895.538 613.72C895.538 615.44 894.738 617.92 893.738 619C892.618 620.12 891.738 620.32 891.298 620.32C889.378 620.32 887.098 618.88 886.098 615.88C885.778 614.88 885.618 613.64 885.618 612.32C885.618 610.24 886.538 608.16 887.578 607.2C888.418 606.48 889.338 606.04 890.178 606.04ZM908.747 604.68C907.187 604.68 905.787 605.12 904.667 605.96C903.107 607.12 902.227 608.56 902.227 610.52C902.227 613.44 904.147 614.96 905.267 615.6C905.387 615.72 905.507 615.88 905.427 615.96C904.787 616.6 903.067 617.56 902.467 618.04C902.387 618.12 902.267 618.32 902.267 618.4C902.267 619.68 902.827 620.8 903.627 621.36C904.147 621.76 904.907 622 905.187 622.16C905.307 622.24 905.387 622.36 905.307 622.44C904.787 622.88 903.547 623.76 902.547 624.6C902.187 624.88 901.387 625.36 901.387 627.12C901.387 628.24 902.107 629.72 903.227 630.6C904.907 631.84 906.787 632.08 908.227 632.08C909.667 632.08 911.787 631.8 913.987 630.36C915.707 629.24 917.747 627.2 917.747 624.2C917.747 623.16 917.187 621.64 916.067 620.68C915.347 620.12 914.467 619.76 914.147 619.72C912.867 619.52 908.547 619.48 906.787 619.4C906.347 619.36 905.147 618.64 905.147 617.6C905.147 617.28 906.027 616.44 906.427 616.24C906.587 616.16 906.787 616.16 907.027 616.2C907.307 616.2 908.187 616.24 908.427 616.24C909.387 616.24 911.027 616.08 912.787 614.72C914.347 613.52 915.027 611.88 915.027 609.68C915.027 609 914.907 608.28 914.707 607.68C914.667 607.56 914.787 607.36 914.947 607.36C915.947 607.44 917.387 607.44 917.627 607.44C917.787 607.44 918.347 606.72 918.347 606.16C918.347 606 918.227 605.76 917.987 605.72C917.147 605.52 914.227 605.48 913.347 605.4L912.227 605.16C911.067 604.88 910.347 604.68 908.747 604.68ZM909.707 630.4C908.227 630.4 906.867 630 905.787 629.16C904.947 628.44 904.387 627.4 904.387 626.12C904.387 625.2 904.907 623.72 906.187 622.84C906.427 622.68 907.067 622.44 908.347 622.44C910.027 622.44 911.307 622.44 912.387 622.64C913.347 622.84 914.107 623.36 914.507 623.88C914.987 624.52 915.067 625.44 915.067 625.96C915.067 627.12 914.467 628.64 912.867 629.68C912.427 629.92 911.267 630.4 909.707 630.4ZM908.427 605.64C909.587 605.64 910.547 606.28 911.307 607.4C911.947 608.36 912.187 609.68 912.187 610.4C912.187 612.04 911.667 614 910.667 614.64C910.107 615 909.627 615.2 909.347 615.2C906.747 615.2 905.387 612.2 905.387 610.2C905.387 608.32 905.827 607.28 906.427 606.64C906.787 606.16 907.707 605.64 908.427 605.64ZM926.367 604.84C925.607 604.84 923.807 605.52 922.647 606.36C920.767 607.6 919.647 608.72 919.647 609.88C919.647 610.08 919.887 610.4 920.127 610.4C920.327 610.4 922.327 609.4 922.727 609.08C922.807 609 922.967 608.76 922.967 608.64C922.887 607.84 923.007 607.12 923.247 607C923.527 606.8 924.047 606.56 924.887 606.56C926.847 606.56 928.007 608.24 928.007 609.24C928.007 609.72 927.967 612.16 927.927 612.52C927.927 612.76 927.687 612.96 926.767 613.24C925.887 613.52 922.687 614.4 922.087 614.64C921.487 614.92 920.887 615.12 920.487 615.64C920.047 616.2 919.727 616.96 919.727 617.68C919.727 619.68 921.087 621.4 922.487 621.4C922.687 621.4 923.647 621.32 924.087 621.16C924.487 621.04 926.207 620.36 927.687 619.32C927.767 619.28 927.927 619.44 927.927 619.48C928.407 620.96 929.567 621.48 930.487 621.48C932.287 621.48 934.087 619.76 934.087 619C934.087 618.96 934.087 618.72 933.967 618.6C933.887 618.48 933.847 618.4 933.727 618.48C933.287 618.8 932.367 619.08 932.207 619.08C931.887 619.08 930.607 618.92 930.607 617.08C930.607 616.64 930.767 611.6 930.767 610.04C930.767 608.36 930.567 607.56 929.967 606.72C929.367 605.84 928.367 604.84 926.367 604.84ZM925.167 619.32C924.327 619.32 922.647 618.68 922.647 616.92C922.647 615.96 923.047 615.68 923.447 615.4C924.527 614.88 926.447 614.2 927.567 614.2C927.727 614.2 927.887 614.4 927.887 614.52C927.887 615.32 927.887 616.68 927.807 617.64C927.807 617.72 927.567 618.48 927.327 618.64C926.567 619.04 925.767 619.32 925.167 619.32ZM935.985 606.92C935.985 607.08 936.385 607.24 937.345 608C937.785 608.28 937.785 608.8 937.785 609.2V616.84C937.745 619.24 937.625 619.64 936.065 620.16C935.745 620.28 935.265 620.44 935.265 620.68C935.265 621 935.665 621.16 936.105 621.16C937.065 621.16 937.545 621 938.745 621C941.065 621 942.465 621.2 943.465 621.2C944.065 621.2 944.425 621.04 944.425 620.84C944.425 620.68 944.345 620.4 943.705 620.2L941.865 619.72C941.145 619.6 940.905 618.84 940.825 617.68C940.785 617.08 940.585 609.84 940.585 609.04C940.585 608.84 940.705 608.48 940.985 608.16C941.385 607.72 942.065 607.6 942.745 607.6C943.545 607.6 944.505 608.08 944.945 608.48C945.065 608.56 945.425 608.64 945.505 608.6C945.745 608.48 946.705 607.4 947.145 606.76C947.265 606.56 947.385 606.28 947.385 606.2C947.385 605.84 947.025 604.84 945.385 604.84C944.145 604.84 942.385 605.84 940.825 607.32C940.745 607.36 940.545 607.32 940.545 607.16C940.545 606.4 940.625 605.68 940.625 604.96C940.625 604.84 940.425 604.48 940.265 604.48C940.145 604.48 939.945 604.64 939.465 604.96C939.065 605.2 937.825 605.8 936.505 606.24C936.065 606.4 935.985 606.8 935.985 606.92ZM952.747 621C953.587 621 955.587 621.12 955.867 621.12C956.307 621.12 956.787 620.96 956.787 620.72C956.787 620.44 956.547 620.24 955.907 620.04C954.907 619.72 954.027 619.64 953.987 618.36C953.947 616.96 953.907 615.28 953.907 613.04C953.907 610.76 954.147 605.56 954.147 605.12C954.147 605.08 953.947 604.68 953.787 604.68C953.187 604.84 951.307 605.72 949.827 606.04C949.387 606.12 949.027 606.44 949.027 606.72C949.027 606.88 949.107 607 949.347 607.16C950.507 608 950.947 608.32 950.987 608.6C951.067 609.08 951.027 613.64 951.027 614.84C951.027 616 950.987 618.4 950.867 618.96C950.787 619.36 950.187 619.84 949.267 620.08C948.587 620.28 948.307 620.48 948.307 620.72C948.307 621 948.707 621.16 949.347 621.16C950.027 621.16 951.427 621 952.747 621ZM952.667 596.72C952.107 596.72 951.507 596.88 951.107 597.24C950.787 597.68 950.627 598.32 950.627 598.68C950.627 599.36 950.907 599.8 951.227 600.16C951.587 600.48 952.227 600.64 952.507 600.64C953.307 600.64 954.427 599.76 954.427 598.68C954.427 597.96 953.747 596.72 952.667 596.72ZM963.904 605.4C963.744 605.4 963.584 605.2 963.584 605.08V603.2C963.584 603.12 963.224 602.76 963.024 602.76C962.864 602.76 962.584 603.08 962.104 603.64C961.544 604.32 960.304 605.28 958.904 606.4C958.784 606.52 958.664 606.68 958.664 606.84C958.664 606.96 958.904 607.16 959.224 607.28C960.024 607.52 960.744 607.8 960.744 608.08C960.744 609.48 960.584 615.48 960.584 616.96C960.584 618.08 960.664 618.92 961.104 619.6C961.584 620.48 962.984 621.48 964.624 621.48C966.424 621.48 967.824 620.76 968.904 619.72C969.184 619.44 969.464 619.04 969.464 618.72C969.464 618.36 969.264 618.28 969.224 618.28C969.064 618.28 968.984 618.32 968.624 618.52C968.024 618.88 967.184 619.12 966.664 619.12C965.824 619.12 964.984 619.04 964.224 618.36C963.784 617.92 963.544 617.4 963.544 616.4C963.544 614.48 963.584 608.6 963.624 607.8C963.624 607.72 963.784 607.52 963.984 607.52H968.344C968.624 607.52 969.384 607.44 969.384 607.08C969.384 606.56 969.264 605.44 969.264 605.56C969.264 605.44 968.864 605.24 968.824 605.24C968.664 605.24 964.784 605.4 963.904 605.4ZM981.366 604.84C979.686 604.84 977.966 605.68 976.326 607.16C976.286 607.2 976.046 607.16 976.046 606.92C976.046 605.76 976.206 595.8 976.606 592.92C976.606 592.8 976.526 592.48 976.366 592.48C976.126 592.48 975.766 592.68 975.606 592.76C974.646 593.4 972.846 593.8 971.606 594.16C971.526 594.2 971.486 594.28 971.486 594.36C971.486 594.68 971.726 595.08 971.886 595.16C973.006 595.88 973.086 595.96 973.206 597C973.366 598.16 973.326 604.92 973.326 606.52C973.326 610.56 973.046 615.96 972.926 617.64C972.806 619.12 972.406 619.56 971.366 619.92C970.526 620.16 970.206 620.4 970.206 620.6C970.206 621 970.766 621.12 971.126 621.12C971.806 621.12 973.246 621 974.166 621C975.126 621 977.126 621.08 977.446 621.08C978.006 621.08 978.446 620.96 978.446 620.6C978.446 620.4 978.126 620.12 977.566 619.96C976.646 619.72 976.086 619.48 976.006 618.16C975.966 616.72 975.966 611.52 976.086 609.84C976.126 608.6 976.646 607.96 976.726 607.88C976.886 607.72 978.206 606.96 979.926 606.96C981.486 606.96 982.526 607.52 983.166 608.28C983.606 608.8 983.806 610.08 983.806 612.28C983.806 612.92 983.886 617.32 983.806 618.08C983.646 619.6 983.526 619.72 982.526 620.04C982.046 620.16 981.686 620.36 981.686 620.6C981.686 620.88 981.886 621.08 982.486 621.08C983.646 621.08 984.446 621 985.366 621C986.726 621 987.166 621.12 988.526 621.12C989.286 621.12 989.606 620.96 989.606 620.6C989.606 620.36 989.286 620.12 988.486 619.96C987.446 619.72 986.926 619.4 986.926 618.4L986.766 611C986.766 609.28 986.406 607.76 985.606 606.68C984.766 605.52 983.366 604.84 981.366 604.84ZM991.689 607C991.689 607.2 991.969 607.4 993.089 608.44C993.449 608.8 993.369 609.32 993.369 609.52C993.369 612.28 993.329 616.28 993.249 617.44C993.089 619.16 992.849 619.76 991.569 620.08C990.849 620.24 990.609 620.52 990.609 620.68C990.609 620.96 991.009 621.12 991.609 621.12C992.489 621.12 993.289 621 994.609 621C996.129 621 997.609 621.08 997.769 621.08C998.289 621.08 998.849 620.96 998.849 620.68C998.849 620.36 998.529 620.2 997.769 619.96C996.489 619.56 996.329 618.92 996.329 618.16C996.329 615.12 996.329 610.08 996.409 609.04C996.449 608.6 996.569 608.28 996.849 608.04C997.809 607.28 998.729 606.8 1000.05 606.8C1001.49 606.8 1002.53 607.32 1003.05 608C1003.33 608.36 1003.57 608.88 1003.57 610.04V617.88C1003.57 619.32 1003.41 619.72 1002.05 620.04C1001.41 620.2 1001.25 620.48 1001.25 620.6C1001.25 620.76 1001.37 621.08 1002.29 621.08C1003.13 621.08 1004.29 621 1005.13 621C1006.05 621 1007.25 621.08 1008.13 621.08C1008.77 621.08 1009.09 620.88 1009.09 620.6C1009.09 620.4 1008.69 620.16 1008.25 620.04C1006.89 619.72 1006.69 619.32 1006.57 618.04C1006.49 617.16 1006.57 609.6 1006.57 609.32C1006.57 609.04 1006.85 608.28 1006.97 608.16C1007.53 607.68 1008.25 606.92 1010.05 606.92C1011.73 606.92 1012.61 607.56 1013.09 608.32C1013.49 609.04 1013.73 609.6 1013.73 611C1013.73 612.32 1013.81 616.8 1013.81 617.76C1013.81 619.16 1013.65 619.64 1012.37 620.04C1011.93 620.16 1011.49 620.32 1011.49 620.56C1011.49 620.84 1011.73 621.08 1012.49 621.08C1013.41 621.08 1014.01 621 1015.21 621C1016.21 621 1017.29 621.12 1018.09 621.12C1018.85 621.12 1019.21 620.96 1019.21 620.68C1019.21 620.44 1018.97 620.28 1018.45 620.12C1017.01 619.72 1016.77 618.96 1016.73 618.24C1016.73 614.96 1016.81 612.16 1016.65 610.08C1016.57 608.64 1016.21 607.24 1015.33 606.24C1014.49 605.36 1013.37 604.88 1011.89 604.88C1011.17 604.88 1010.25 605.08 1009.33 605.52C1008.29 606.04 1007.25 606.68 1006.49 607.24C1006.33 607.32 1006.25 607.24 1006.17 607.08C1006.01 606.8 1005.61 606.2 1004.89 605.68C1004.17 605.16 1003.21 604.88 1001.77 604.88C999.889 604.88 997.409 606.4 996.409 607.2C996.249 607.36 996.169 607.08 996.169 606.96C996.169 606.56 996.329 605.44 996.329 604.88C996.329 604.8 996.049 604.52 995.849 604.48C995.769 604.48 995.689 604.52 995.529 604.64C995.089 604.92 993.289 605.96 992.489 606.28C992.049 606.52 991.689 606.76 991.689 607ZM1025.83 621C1026.67 621 1028.67 621.12 1028.95 621.12C1029.39 621.12 1029.87 620.96 1029.87 620.72C1029.87 620.44 1029.63 620.24 1028.99 620.04C1027.99 619.72 1027.11 619.64 1027.07 618.36C1027.03 616.96 1026.99 615.28 1026.99 613.04C1026.99 610.76 1027.23 605.56 1027.23 605.12C1027.23 605.08 1027.03 604.68 1026.87 604.68C1026.27 604.84 1024.39 605.72 1022.91 606.04C1022.47 606.12 1022.11 606.44 1022.11 606.72C1022.11 606.88 1022.19 607 1022.43 607.16C1023.59 608 1024.03 608.32 1024.07 608.6C1024.15 609.08 1024.11 613.64 1024.11 614.84C1024.11 616 1024.07 618.4 1023.95 618.96C1023.87 619.36 1023.27 619.84 1022.35 620.08C1021.67 620.28 1021.39 620.48 1021.39 620.72C1021.39 621 1021.79 621.16 1022.43 621.16C1023.11 621.16 1024.51 621 1025.83 621ZM1025.75 596.72C1025.19 596.72 1024.59 596.88 1024.19 597.24C1023.87 597.68 1023.71 598.32 1023.71 598.68C1023.71 599.36 1023.99 599.8 1024.31 600.16C1024.67 600.48 1025.31 600.64 1025.59 600.64C1026.39 600.64 1027.51 599.76 1027.51 598.68C1027.51 597.96 1026.83 596.72 1025.75 596.72ZM1040.83 604.96C1039.75 604.96 1037.15 605.52 1035.59 606.64C1033.27 608.2 1031.71 610.64 1031.71 613.56C1031.71 615.24 1032.27 617.12 1032.95 618.24C1034.23 620.12 1036.35 621.44 1038.87 621.44C1040.95 621.44 1043.23 620.52 1044.63 618.96C1044.95 618.64 1045.15 618.24 1045.15 617.8C1045.15 617.6 1044.83 617.48 1044.39 617.8C1043.35 618.52 1042.31 619 1040.83 619C1038.75 619 1036.79 618 1035.79 616.32C1035.63 616.08 1034.75 614.64 1034.75 612.32C1034.75 610.56 1035.35 608.92 1036.43 607.72C1037.07 606.92 1038.27 606.36 1038.91 606.36C1040.27 606.36 1040.95 606.96 1042.27 607.92C1042.91 608.36 1043.59 608.68 1043.83 608.68C1043.99 608.68 1045.15 607.72 1045.15 607.08C1045.15 606.84 1044.95 606.16 1044.55 605.88C1043.79 605.28 1042.03 604.96 1040.83 604.96ZM1050.24 616.52C1049.48 616.52 1048.36 617.04 1048.36 618.36C1048.36 619.52 1049.44 619.88 1049.88 620.04C1050.44 620.24 1051.04 620.64 1051.04 621.32C1051.04 622.76 1049.48 623.76 1048.68 624.24C1048.4 624.36 1047.96 624.52 1047.96 624.88C1047.96 625.16 1048.4 625.24 1048.68 625.24C1049.48 625.24 1053.28 623.84 1053.28 620.24C1053.28 617.88 1051.76 616.52 1050.24 616.52ZM800.348 660.64C800.348 658.36 799.508 656.12 797.708 654.6C796.428 653.48 794.628 652.84 792.747 652.84C791.428 652.84 789.508 653.32 788.188 654.2C788.148 654.24 787.948 654.12 787.948 654.04C787.868 653.6 787.868 651.64 787.868 650.6C787.868 647.4 788.108 643.6 788.228 640.96C788.228 640.8 787.948 640.44 787.788 640.44C787.708 640.44 787.308 640.6 786.788 640.92C785.988 641.4 784.628 641.76 783.507 642.16C783.388 642.2 783.028 642.68 783.028 642.72C783.028 642.92 783.228 643.04 783.828 643.48C784.588 644.12 784.788 644.64 784.827 644.84C784.908 645.4 785.028 651.32 785.028 655.12C785.028 658.4 784.988 665.28 784.788 668.4C784.788 668.68 784.868 668.92 785.028 668.92C785.108 668.92 785.348 668.88 785.508 668.8C785.828 668.64 786.188 668.6 786.348 668.68C787.268 669 790.028 669.48 791.428 669.48C792.828 669.48 795.228 669.04 796.868 667.68C798.628 666.32 800.348 663.96 800.348 660.64ZM797.028 661.48C797.028 663.28 796.308 665.76 795.188 666.84C794.268 667.68 793.188 668.2 792.747 668.2C792.028 668.2 790.148 667.68 789.028 666.52C788.508 666 788.268 665.36 788.228 664.52C788.028 662.36 787.908 660.2 787.908 658.12C787.908 657.28 787.948 656.16 787.988 655.8C788.028 655.52 788.188 655.28 788.308 655.2C788.628 654.96 789.388 654.6 790.708 654.6C792.588 654.6 794.148 655.4 795.068 656.32C796.428 657.8 797.028 660.04 797.028 661.48ZM811.481 667.48C810.521 667.48 809.801 667.48 808.761 666.68C808.201 666.28 807.761 665.36 807.761 664.44C807.761 662.64 807.921 655.08 807.881 653.72C807.881 653.48 807.721 653.12 807.561 653.12C807.401 653.12 804.441 653.56 803.321 653.56C802.841 653.56 802.641 653.8 802.641 653.92C802.641 654.28 803.001 654.48 803.361 654.64C804.041 654.92 804.801 655.08 804.841 656.2C804.921 658.32 804.921 662.84 804.921 665.72C804.921 666.36 805.201 667.16 805.481 667.6C806.281 668.84 807.561 669.48 809.001 669.48C810.121 669.48 811.001 669.28 811.681 669C812.201 668.8 813.801 667.76 814.961 666.96C815.041 666.92 815.161 667.04 815.161 667.24C815.121 667.92 815.001 668.68 815.001 668.92C815.001 669.2 815.241 669.48 815.401 669.48C815.481 669.48 816.121 669.32 816.801 669.12C817.721 668.88 819.401 668.44 820.441 668.36C820.601 668.36 820.881 668.08 820.881 667.96C820.841 667.84 820.561 667.2 820.401 667.2C819.921 667.2 818.681 667.4 818.401 667.4C818.081 667.4 817.921 666.92 817.921 666.84C817.921 663.56 818.241 654.68 818.321 653.56C818.321 653.4 818.241 652.96 818.041 652.96C817.761 652.96 817.481 653 817.081 653.12C816.161 653.36 814.401 653.56 812.801 653.56C812.401 653.56 811.881 653.76 811.881 653.92C811.881 654.24 812.401 654.48 812.681 654.56L814.521 655.04C814.761 655.12 815.201 655.68 815.201 655.92L815.121 665.12C815.121 665.28 814.761 665.88 814.521 666.08C813.521 666.96 812.441 667.48 811.481 667.48ZM827.615 653.4C827.455 653.4 827.295 653.2 827.295 653.08V651.2C827.295 651.12 826.935 650.76 826.735 650.76C826.575 650.76 826.295 651.08 825.815 651.64C825.255 652.32 824.015 653.28 822.615 654.4C822.495 654.52 822.375 654.68 822.375 654.84C822.375 654.96 822.615 655.16 822.935 655.28C823.735 655.52 824.455 655.8 824.455 656.08C824.455 657.48 824.295 663.48 824.295 664.96C824.295 666.08 824.375 666.92 824.815 667.6C825.295 668.48 826.695 669.48 828.335 669.48C830.135 669.48 831.535 668.76 832.615 667.72C832.895 667.44 833.175 667.04 833.175 666.72C833.175 666.36 832.975 666.28 832.935 666.28C832.775 666.28 832.695 666.32 832.335 666.52C831.735 666.88 830.895 667.12 830.375 667.12C829.535 667.12 828.695 667.04 827.935 666.36C827.495 665.92 827.255 665.4 827.255 664.4C827.255 662.48 827.295 656.6 827.335 655.8C827.335 655.72 827.495 655.52 827.695 655.52H832.055C832.335 655.52 833.095 655.44 833.095 655.08C833.095 654.56 832.975 653.44 832.975 653.56C832.975 653.44 832.575 653.24 832.535 653.24C832.375 653.24 828.495 653.4 827.615 653.4ZM854.154 652.92C853.034 652.92 851.834 653.12 851.194 653.4C850.634 653.64 849.554 654.2 848.594 654.84C848.434 654.96 848.274 654.8 848.274 654.64C848.314 654 848.314 653.24 848.394 652.6C848.394 652.44 848.074 652.12 847.954 652.12C847.874 652.12 847.554 652.28 847.154 652.48C846.474 652.88 844.714 653.72 844.114 653.88C843.954 653.92 843.554 654.4 843.554 654.6C843.554 654.8 844.034 655.16 845.034 655.88C845.154 655.96 845.354 656.24 845.354 657.92C845.394 660.28 845.354 663.28 845.354 666C845.354 670.08 845.314 673.36 845.234 674.68C845.074 677.56 844.874 677.92 842.754 678.36C842.114 678.48 841.834 678.8 841.834 678.96C841.834 679.32 842.434 679.48 843.034 679.48C844.234 679.48 844.634 679.36 845.594 679.36C847.154 679.36 849.474 679.56 850.354 679.56C850.874 679.56 851.394 679.36 851.394 679.04C851.394 678.76 851.074 678.56 850.274 678.32C848.754 677.84 848.474 677.36 848.354 676.32C848.234 675.2 848.194 673.56 848.194 669.68C848.194 669.48 848.354 669.16 848.474 669.16C848.994 669.24 849.794 669.32 850.714 669.32C852.514 669.32 854.874 669 857.074 667.28C859.634 665.36 860.474 662.4 860.474 660.4C860.474 658.2 859.554 656.24 858.594 655.16C857.394 653.84 855.594 652.92 854.154 652.92ZM852.074 654.96C852.994 654.96 854.634 655.52 855.674 656.6C857.314 658.4 857.314 660.56 857.314 661.48C857.314 662.68 856.594 665.68 854.594 667.36C854.034 667.84 853.194 668.04 852.754 668.04C851.754 668.04 849.834 667.36 848.754 665.84C848.474 665.48 848.314 664.8 848.234 664.08C848.074 662.44 848.114 658.08 848.314 656.88C848.434 656.16 848.634 655.84 848.834 655.68C849.274 655.32 850.394 654.96 852.074 654.96ZM872.109 652.84C869.429 652.84 867.429 653.96 866.189 655.04C864.669 656.32 863.389 658.24 863.389 661.28C863.389 663.28 864.629 666 866.349 667.4C867.829 668.64 869.829 669.48 871.669 669.48C873.469 669.48 875.029 669.04 876.629 667.88C878.109 666.92 880.109 664.32 880.109 661C880.109 655.96 876.069 652.84 872.109 652.84ZM871.349 654.04C872.389 654.04 873.829 654.64 874.709 655.6C876.229 657.36 876.709 659.64 876.709 661.72C876.709 663.44 875.909 665.92 874.909 667C873.789 668.12 872.909 668.32 872.469 668.32C870.549 668.32 868.269 666.88 867.269 663.88C866.949 662.88 866.789 661.64 866.789 660.32C866.789 658.24 867.709 656.16 868.749 655.2C869.589 654.48 870.509 654.04 871.349 654.04ZM883.203 642.6C883.203 642.76 883.323 642.88 884.003 643.36C884.923 643.92 884.923 644.16 884.963 644.48C885.083 645.56 885.083 649.88 885.083 652.84C885.083 659.16 884.963 663.36 884.843 665C884.683 667 884.603 667.72 882.763 668.12C882.323 668.2 881.883 668.4 881.883 668.68C881.883 669 882.203 669.12 883.003 669.12C883.843 669.12 885.603 669 886.523 669C887.243 669 888.963 669.12 889.923 669.12C890.403 669.12 890.963 668.96 890.963 668.68C890.963 668.44 890.643 668.24 890.043 668.08C888.323 667.6 888.163 667.12 888.003 666.32C887.803 665.24 887.883 657.6 887.883 651.76C887.883 646.4 888.123 641.88 888.243 640.88C888.243 640.72 888.003 640.4 887.883 640.48C886.803 641.16 885.603 641.4 883.763 642.04C883.323 642.16 883.203 642.44 883.203 642.6ZM891.128 653.72C891.128 653.96 891.368 654.12 891.928 654.32C893.248 654.76 893.448 655.16 893.808 655.88C895.048 658.4 897.528 664.36 898.368 666.72L898.968 668.36C899.128 668.72 898.968 669.24 898.848 669.8C898.568 670.8 897.288 674.32 896.928 674.96C896.768 675.36 896.688 675.64 896.328 675.64C895.928 675.64 895.088 675.6 894.888 675.6C893.768 675.6 893.128 676.68 893.128 677.36C893.128 678.2 893.568 679.32 894.928 679.32C896.088 679.32 896.848 678.72 897.008 678.2C898.288 674.8 899.768 670.68 901.168 667.04C902.088 664.72 904.248 659.36 905.568 656.36C906.168 655.04 906.688 654.56 907.528 654.28C908.008 654.12 908.408 653.96 908.408 653.6C908.408 653.32 908.128 653.24 907.608 653.24C906.568 653.24 905.648 653.4 905.088 653.4C904.568 653.4 903.488 653.36 902.728 653.36C902.248 653.36 901.728 653.44 901.728 653.8C901.728 653.96 902.088 654.24 902.568 654.36C904.128 654.72 904.448 655.2 904.088 656.32C903.888 656.96 901.408 663.44 900.928 664.52C900.808 664.76 900.648 664.76 900.608 664.68C900.288 664.2 897.728 657.92 897.128 656C896.728 654.96 896.848 654.76 897.968 654.44C898.608 654.28 898.888 654.04 898.888 653.76C898.888 653.44 898.328 653.32 898.008 653.32C897.528 653.32 896.328 653.4 895.208 653.4C894.048 653.4 893.088 653.24 892.088 653.24C891.248 653.24 891.128 653.56 891.128 653.72ZM909.531 642.6C909.531 642.76 909.651 642.88 910.331 643.36C911.251 643.92 911.251 644.16 911.291 644.48C911.411 645.56 911.411 649.88 911.411 652.84C911.411 659.16 911.291 663.36 911.171 665C911.011 667 910.931 667.72 909.091 668.12C908.651 668.2 908.211 668.4 908.211 668.68C908.211 669 908.531 669.12 909.331 669.12C910.171 669.12 911.931 669 912.851 669C913.571 669 915.291 669.12 916.251 669.12C916.731 669.12 917.291 668.96 917.291 668.68C917.291 668.44 916.971 668.24 916.371 668.08C914.651 667.6 914.491 667.12 914.331 666.32C914.131 665.24 914.211 657.6 914.211 651.76C914.211 646.4 914.451 641.88 914.571 640.88C914.571 640.72 914.331 640.4 914.211 640.48C913.131 641.16 911.931 641.4 910.091 642.04C909.651 642.16 909.531 642.44 909.531 642.6ZM927.656 652.84C924.976 652.84 922.976 653.96 921.736 655.04C920.216 656.32 918.936 658.24 918.936 661.28C918.936 663.28 920.176 666 921.896 667.4C923.376 668.64 925.376 669.48 927.216 669.48C929.016 669.48 930.576 669.04 932.176 667.88C933.656 666.92 935.656 664.32 935.656 661C935.656 655.96 931.616 652.84 927.656 652.84ZM926.896 654.04C927.936 654.04 929.376 654.64 930.256 655.6C931.776 657.36 932.256 659.64 932.256 661.72C932.256 663.44 931.456 665.92 930.456 667C929.336 668.12 928.456 668.32 928.016 668.32C926.096 668.32 923.816 666.88 922.816 663.88C922.496 662.88 922.336 661.64 922.336 660.32C922.336 658.24 923.256 656.16 924.296 655.2C925.136 654.48 926.056 654.04 926.896 654.04ZM945.466 652.68C943.906 652.68 942.506 653.12 941.386 653.96C939.826 655.12 938.946 656.56 938.946 658.52C938.946 661.44 940.866 662.96 941.986 663.6C942.106 663.72 942.226 663.88 942.146 663.96C941.506 664.6 939.786 665.56 939.186 666.04C939.106 666.12 938.986 666.32 938.986 666.4C938.986 667.68 939.546 668.8 940.346 669.36C940.866 669.76 941.626 670 941.906 670.16C942.026 670.24 942.106 670.36 942.026 670.44C941.506 670.88 940.266 671.76 939.266 672.6C938.906 672.88 938.106 673.36 938.106 675.12C938.106 676.24 938.826 677.72 939.946 678.6C941.626 679.84 943.506 680.08 944.946 680.08C946.386 680.08 948.506 679.8 950.706 678.36C952.426 677.24 954.466 675.2 954.466 672.2C954.466 671.16 953.906 669.64 952.786 668.68C952.066 668.12 951.186 667.76 950.866 667.72C949.586 667.52 945.266 667.48 943.506 667.4C943.066 667.36 941.866 666.64 941.866 665.6C941.866 665.28 942.746 664.44 943.146 664.24C943.306 664.16 943.506 664.16 943.746 664.2C944.026 664.2 944.906 664.24 945.146 664.24C946.106 664.24 947.746 664.08 949.506 662.72C951.066 661.52 951.746 659.88 951.746 657.68C951.746 657 951.626 656.28 951.426 655.68C951.386 655.56 951.506 655.36 951.666 655.36C952.666 655.44 954.106 655.44 954.346 655.44C954.506 655.44 955.066 654.72 955.066 654.16C955.066 654 954.946 653.76 954.706 653.72C953.866 653.52 950.946 653.48 950.066 653.4L948.946 653.16C947.786 652.88 947.066 652.68 945.466 652.68ZM946.426 678.4C944.946 678.4 943.586 678 942.506 677.16C941.666 676.44 941.106 675.4 941.106 674.12C941.106 673.2 941.626 671.72 942.906 670.84C943.146 670.68 943.786 670.44 945.066 670.44C946.746 670.44 948.026 670.44 949.106 670.64C950.066 670.84 950.826 671.36 951.226 671.88C951.706 672.52 951.786 673.44 951.786 673.96C951.786 675.12 951.186 676.64 949.586 677.68C949.146 677.92 947.986 678.4 946.426 678.4ZM945.146 653.64C946.306 653.64 947.266 654.28 948.026 655.4C948.666 656.36 948.906 657.68 948.906 658.4C948.906 660.04 948.386 662 947.386 662.64C946.826 663 946.346 663.2 946.066 663.2C943.466 663.2 942.106 660.2 942.106 658.2C942.106 656.32 942.546 655.28 943.146 654.64C943.506 654.16 944.426 653.64 945.146 653.64ZM963.086 652.84C962.326 652.84 960.526 653.52 959.366 654.36C957.486 655.6 956.366 656.72 956.366 657.88C956.366 658.08 956.606 658.4 956.846 658.4C957.046 658.4 959.046 657.4 959.446 657.08C959.526 657 959.686 656.76 959.686 656.64C959.606 655.84 959.726 655.12 959.966 655C960.246 654.8 960.766 654.56 961.606 654.56C963.566 654.56 964.726 656.24 964.726 657.24C964.726 657.72 964.686 660.16 964.646 660.52C964.646 660.76 964.406 660.96 963.486 661.24C962.606 661.52 959.406 662.4 958.806 662.64C958.206 662.92 957.606 663.12 957.206 663.64C956.766 664.2 956.446 664.96 956.446 665.68C956.446 667.68 957.806 669.4 959.206 669.4C959.406 669.4 960.366 669.32 960.806 669.16C961.206 669.04 962.926 668.36 964.406 667.32C964.486 667.28 964.646 667.44 964.646 667.48C965.126 668.96 966.286 669.48 967.206 669.48C969.006 669.48 970.806 667.76 970.806 667C970.806 666.96 970.806 666.72 970.686 666.6C970.606 666.48 970.566 666.4 970.446 666.48C970.006 666.8 969.086 667.08 968.926 667.08C968.606 667.08 967.326 666.92 967.326 665.08C967.326 664.64 967.486 659.6 967.486 658.04C967.486 656.36 967.286 655.56 966.686 654.72C966.086 653.84 965.086 652.84 963.086 652.84ZM961.886 667.32C961.046 667.32 959.366 666.68 959.366 664.92C959.366 663.96 959.766 663.68 960.166 663.4C961.246 662.88 963.166 662.2 964.286 662.2C964.446 662.2 964.606 662.4 964.606 662.52C964.606 663.32 964.606 664.68 964.526 665.64C964.526 665.72 964.286 666.48 964.046 666.64C963.286 667.04 962.486 667.32 961.886 667.32ZM972.704 654.92C972.704 655.08 973.104 655.24 974.064 656C974.504 656.28 974.504 656.8 974.504 657.2V664.84C974.464 667.24 974.344 667.64 972.784 668.16C972.464 668.28 971.984 668.44 971.984 668.68C971.984 669 972.384 669.16 972.824 669.16C973.784 669.16 974.264 669 975.464 669C977.784 669 979.184 669.2 980.184 669.2C980.784 669.2 981.144 669.04 981.144 668.84C981.144 668.68 981.064 668.4 980.424 668.2L978.584 667.72C977.864 667.6 977.624 666.84 977.544 665.68C977.504 665.08 977.304 657.84 977.304 657.04C977.304 656.84 977.424 656.48 977.704 656.16C978.104 655.72 978.784 655.6 979.464 655.6C980.264 655.6 981.224 656.08 981.664 656.48C981.784 656.56 982.144 656.64 982.224 656.6C982.464 656.48 983.424 655.4 983.864 654.76C983.984 654.56 984.104 654.28 984.104 654.2C984.104 653.84 983.744 652.84 982.104 652.84C980.864 652.84 979.104 653.84 977.544 655.32C977.464 655.36 977.264 655.32 977.264 655.16C977.264 654.4 977.344 653.68 977.344 652.96C977.344 652.84 977.144 652.48 976.984 652.48C976.864 652.48 976.664 652.64 976.184 652.96C975.784 653.2 974.544 653.8 973.224 654.24C972.784 654.4 972.704 654.8 972.704 654.92ZM989.465 669C990.305 669 992.305 669.12 992.585 669.12C993.025 669.12 993.505 668.96 993.505 668.72C993.505 668.44 993.265 668.24 992.625 668.04C991.625 667.72 990.745 667.64 990.705 666.36C990.665 664.96 990.625 663.28 990.625 661.04C990.625 658.76 990.865 653.56 990.865 653.12C990.865 653.08 990.665 652.68 990.505 652.68C989.905 652.84 988.025 653.72 986.545 654.04C986.105 654.12 985.745 654.44 985.745 654.72C985.745 654.88 985.825 655 986.065 655.16C987.225 656 987.665 656.32 987.705 656.6C987.785 657.08 987.745 661.64 987.745 662.84C987.745 664 987.705 666.4 987.585 666.96C987.505 667.36 986.905 667.84 985.985 668.08C985.305 668.28 985.025 668.48 985.025 668.72C985.025 669 985.425 669.16 986.065 669.16C986.745 669.16 988.145 669 989.465 669ZM989.385 644.72C988.825 644.72 988.225 644.88 987.825 645.24C987.505 645.68 987.345 646.32 987.345 646.68C987.345 647.36 987.625 647.8 987.945 648.16C988.305 648.48 988.945 648.64 989.225 648.64C990.025 648.64 991.145 647.76 991.145 646.68C991.145 645.96 990.465 644.72 989.385 644.72ZM1000.62 653.4C1000.46 653.4 1000.3 653.2 1000.3 653.08V651.2C1000.3 651.12 999.942 650.76 999.743 650.76C999.583 650.76 999.303 651.08 998.823 651.64C998.263 652.32 997.023 653.28 995.623 654.4C995.503 654.52 995.382 654.68 995.382 654.84C995.382 654.96 995.623 655.16 995.943 655.28C996.743 655.52 997.463 655.8 997.463 656.08C997.463 657.48 997.303 663.48 997.303 664.96C997.303 666.08 997.383 666.92 997.823 667.6C998.303 668.48 999.703 669.48 1001.34 669.48C1003.14 669.48 1004.54 668.76 1005.62 667.72C1005.9 667.44 1006.18 667.04 1006.18 666.72C1006.18 666.36 1005.98 666.28 1005.94 666.28C1005.78 666.28 1005.7 666.32 1005.34 666.52C1004.74 666.88 1003.9 667.12 1003.38 667.12C1002.54 667.12 1001.7 667.04 1000.94 666.36C1000.5 665.92 1000.26 665.4 1000.26 664.4C1000.26 662.48 1000.3 656.6 1000.34 655.8C1000.34 655.72 1000.5 655.52 1000.7 655.52H1005.06C1005.34 655.52 1006.1 655.44 1006.1 655.08C1006.1 654.56 1005.98 653.44 1005.98 653.56C1005.98 653.44 1005.58 653.24 1005.54 653.24C1005.38 653.24 1001.5 653.4 1000.62 653.4ZM1018.08 652.84C1016.4 652.84 1014.68 653.68 1013.04 655.16C1013 655.2 1012.76 655.16 1012.76 654.92C1012.76 653.76 1012.92 643.8 1013.32 640.92C1013.32 640.8 1013.24 640.48 1013.08 640.48C1012.84 640.48 1012.48 640.68 1012.32 640.76C1011.36 641.4 1009.56 641.8 1008.32 642.16C1008.24 642.2 1008.2 642.28 1008.2 642.36C1008.2 642.68 1008.44 643.08 1008.6 643.16C1009.72 643.88 1009.8 643.96 1009.92 645C1010.08 646.16 1010.04 652.92 1010.04 654.52C1010.04 658.56 1009.76 663.96 1009.64 665.64C1009.52 667.12 1009.12 667.56 1008.08 667.92C1007.24 668.16 1006.92 668.4 1006.92 668.6C1006.92 669 1007.48 669.12 1007.84 669.12C1008.52 669.12 1009.96 669 1010.88 669C1011.84 669 1013.84 669.08 1014.16 669.08C1014.72 669.08 1015.16 668.96 1015.16 668.6C1015.16 668.4 1014.84 668.12 1014.28 667.96C1013.36 667.72 1012.8 667.48 1012.72 666.16C1012.68 664.72 1012.68 659.52 1012.8 657.84C1012.84 656.6 1013.36 655.96 1013.44 655.88C1013.6 655.72 1014.92 654.96 1016.64 654.96C1018.2 654.96 1019.24 655.52 1019.88 656.28C1020.32 656.8 1020.52 658.08 1020.52 660.28C1020.52 660.92 1020.6 665.32 1020.52 666.08C1020.36 667.6 1020.24 667.72 1019.24 668.04C1018.76 668.16 1018.4 668.36 1018.4 668.6C1018.4 668.88 1018.6 669.08 1019.2 669.08C1020.36 669.08 1021.16 669 1022.08 669C1023.44 669 1023.88 669.12 1025.24 669.12C1026 669.12 1026.32 668.96 1026.32 668.6C1026.32 668.36 1026 668.12 1025.2 667.96C1024.16 667.72 1023.64 667.4 1023.64 666.4L1023.48 659C1023.48 657.28 1023.12 655.76 1022.32 654.68C1021.48 653.52 1020.08 652.84 1018.08 652.84ZM1028.41 655C1028.41 655.2 1028.69 655.4 1029.81 656.44C1030.17 656.8 1030.09 657.32 1030.09 657.52C1030.09 660.28 1030.05 664.28 1029.97 665.44C1029.81 667.16 1029.57 667.76 1028.29 668.08C1027.57 668.24 1027.33 668.52 1027.33 668.68C1027.33 668.96 1027.73 669.12 1028.33 669.12C1029.21 669.12 1030.01 669 1031.33 669C1032.85 669 1034.33 669.08 1034.49 669.08C1035.01 669.08 1035.57 668.96 1035.57 668.68C1035.57 668.36 1035.25 668.2 1034.49 667.96C1033.21 667.56 1033.05 666.92 1033.05 666.16C1033.05 663.12 1033.05 658.08 1033.13 657.04C1033.17 656.6 1033.29 656.28 1033.57 656.04C1034.53 655.28 1035.45 654.8 1036.77 654.8C1038.21 654.8 1039.25 655.32 1039.77 656C1040.05 656.36 1040.29 656.88 1040.29 658.04V665.88C1040.29 667.32 1040.13 667.72 1038.77 668.04C1038.13 668.2 1037.97 668.48 1037.97 668.6C1037.97 668.76 1038.09 669.08 1039.01 669.08C1039.85 669.08 1041.01 669 1041.85 669C1042.77 669 1043.97 669.08 1044.85 669.08C1045.49 669.08 1045.81 668.88 1045.81 668.6C1045.81 668.4 1045.41 668.16 1044.97 668.04C1043.61 667.72 1043.41 667.32 1043.29 666.04C1043.21 665.16 1043.29 657.6 1043.29 657.32C1043.29 657.04 1043.57 656.28 1043.69 656.16C1044.25 655.68 1044.97 654.92 1046.77 654.92C1048.45 654.92 1049.33 655.56 1049.81 656.32C1050.21 657.04 1050.45 657.6 1050.45 659C1050.45 660.32 1050.53 664.8 1050.53 665.76C1050.53 667.16 1050.37 667.64 1049.09 668.04C1048.65 668.16 1048.21 668.32 1048.21 668.56C1048.21 668.84 1048.45 669.08 1049.21 669.08C1050.13 669.08 1050.73 669 1051.93 669C1052.93 669 1054.01 669.12 1054.81 669.12C1055.57 669.12 1055.93 668.96 1055.93 668.68C1055.93 668.44 1055.69 668.28 1055.17 668.12C1053.73 667.72 1053.49 666.96 1053.45 666.24C1053.45 662.96 1053.53 660.16 1053.37 658.08C1053.29 656.64 1052.93 655.24 1052.05 654.24C1051.21 653.36 1050.09 652.88 1048.61 652.88C1047.89 652.88 1046.97 653.08 1046.05 653.52C1045.01 654.04 1043.97 654.68 1043.21 655.24C1043.05 655.32 1042.97 655.24 1042.89 655.08C1042.73 654.8 1042.33 654.2 1041.61 653.68C1040.89 653.16 1039.93 652.88 1038.49 652.88C1036.61 652.88 1034.13 654.4 1033.13 655.2C1032.97 655.36 1032.89 655.08 1032.89 654.96C1032.89 654.56 1033.05 653.44 1033.05 652.88C1033.05 652.8 1032.77 652.52 1032.57 652.48C1032.49 652.48 1032.41 652.52 1032.25 652.64C1031.81 652.92 1030.01 653.96 1029.21 654.28C1028.77 654.52 1028.41 654.76 1028.41 655ZM1062.55 669C1063.39 669 1065.39 669.12 1065.67 669.12C1066.11 669.12 1066.59 668.96 1066.59 668.72C1066.59 668.44 1066.35 668.24 1065.71 668.04C1064.71 667.72 1063.83 667.64 1063.79 666.36C1063.75 664.96 1063.71 663.28 1063.71 661.04C1063.71 658.76 1063.95 653.56 1063.95 653.12C1063.95 653.08 1063.75 652.68 1063.59 652.68C1062.99 652.84 1061.11 653.72 1059.63 654.04C1059.19 654.12 1058.83 654.44 1058.83 654.72C1058.83 654.88 1058.91 655 1059.15 655.16C1060.31 656 1060.75 656.32 1060.79 656.6C1060.87 657.08 1060.83 661.64 1060.83 662.84C1060.83 664 1060.79 666.4 1060.67 666.96C1060.59 667.36 1059.99 667.84 1059.07 668.08C1058.39 668.28 1058.11 668.48 1058.11 668.72C1058.11 669 1058.51 669.16 1059.15 669.16C1059.83 669.16 1061.23 669 1062.55 669ZM1062.47 644.72C1061.91 644.72 1061.31 644.88 1060.91 645.24C1060.59 645.68 1060.43 646.32 1060.43 646.68C1060.43 647.36 1060.71 647.8 1061.03 648.16C1061.39 648.48 1062.03 648.64 1062.31 648.64C1063.11 648.64 1064.23 647.76 1064.23 646.68C1064.23 645.96 1063.55 644.72 1062.47 644.72ZM1077.55 652.96C1076.47 652.96 1073.87 653.52 1072.31 654.64C1069.99 656.2 1068.43 658.64 1068.43 661.56C1068.43 663.24 1068.99 665.12 1069.67 666.24C1070.95 668.12 1073.07 669.44 1075.59 669.44C1077.67 669.44 1079.95 668.52 1081.35 666.96C1081.67 666.64 1081.87 666.24 1081.87 665.8C1081.87 665.6 1081.55 665.48 1081.11 665.8C1080.07 666.52 1079.03 667 1077.55 667C1075.47 667 1073.51 666 1072.51 664.32C1072.35 664.08 1071.47 662.64 1071.47 660.32C1071.47 658.56 1072.07 656.92 1073.15 655.72C1073.79 654.92 1074.99 654.36 1075.63 654.36C1076.99 654.36 1077.67 654.96 1078.99 655.92C1079.63 656.36 1080.31 656.68 1080.55 656.68C1080.71 656.68 1081.87 655.72 1081.87 655.08C1081.87 654.84 1081.67 654.16 1081.27 653.88C1080.51 653.28 1078.75 652.96 1077.55 652.96Z" fill="black"/>
</g>
<defs>
<clipPath id="clip0">
<rect width="108.726" height="38.8905" fill="white" transform="translate(782 440)"/>
</clipPath>
<clipPath id="clip1">
<rect width="141.076" height="39.5695" fill="white" transform="translate(956 442)"/>
</clipPath>
<clipPath id="clip2">
<rect width="153.724" height="38.8905" fill="white" transform="translate(106 442)"/>
</clipPath>
<clipPath id="clip3">
<rect width="152.377" height="31.5767" fill="white" transform="translate(313 448)"/>
</clipPath>
</defs>
</svg>
