<svg width="1280" height="960" viewBox="0 0 1280 960" fill="none" xmlns="http://www.w3.org/2000/svg">
<g id="Rabin tree" clip-path="url(#clip0)">
<rect width="1280" height="960" fill="white"/>
<g id="120:363">
<path id="This is the tree of bit-strings, ordered by the prefix relation." d="M159 482.12V466.84C159 464.28 159.4 462.76 160.84 462.76H161.72C164.72 462.76 166.6 463.8 167.28 466.88C167.72 466.88 168.28 466.84 168.64 466.68C168.36 464.84 168.16 462.8 168.12 461C168.12 460.96 168.04 460.88 168 460.88C166.64 461 162.2 461.2 159.04 461.2H155.6C152.52 461.2 147.8 461 146.28 460.88C146.2 460.88 146.12 460.96 146.12 461C145.96 462.8 145.56 464.88 145.12 466.8C145.52 466.96 146 467 146.48 467C147.28 463.8 149.12 462.76 151.76 462.76H153.72C155.2 462.76 155.6 464.28 155.6 466.72V482.12C155.6 485.44 154.92 485.64 151.72 485.76C151.48 486 151.48 486.84 151.72 487.08C153.68 487.04 155.72 487 157.32 487C158.84 487 160.88 487.04 162.88 487.08C163.12 486.84 163.12 486 162.88 485.76C159.68 485.64 159 485.44 159 482.12ZM175.547 475.56C175.547 474.72 175.907 474.24 176.227 473.88C177.747 472.4 179.787 471.52 181.347 471.52C182.147 471.52 182.987 472.04 183.467 472.96C183.867 473.76 183.947 474.84 183.947 476.04V482.12C183.947 485.4 183.547 485.56 181.467 485.76C181.267 486 181.267 486.84 181.467 487.08C182.587 487.04 183.947 487 185.547 487C187.147 487 188.467 487.04 189.787 487.08C189.987 486.84 189.987 486 189.787 485.76C187.547 485.56 187.107 485.4 187.107 482.12V476.16C187.107 473.96 186.947 472 186.027 470.8C185.347 469.92 184.107 469.44 182.707 469.44C180.747 469.44 178.347 469.96 175.907 472.68C175.907 472.72 175.867 472.72 175.827 472.76C175.707 472.92 175.507 473.16 175.507 472.68L175.547 463.68C175.547 461.08 175.707 459.48 175.707 459.48C175.707 459.2 175.547 459.08 175.187 459.08C174.187 459.48 171.187 460.04 169.587 460.16C169.507 460.48 169.587 461.12 169.827 461.36C169.947 461.36 170.067 461.36 170.187 461.36C171.947 461.48 172.387 461.48 172.387 464.64V482.12C172.387 485.44 171.907 485.6 169.587 485.76C169.347 486 169.347 486.84 169.587 487.08C170.907 487.04 172.387 487 173.987 487C175.507 487 176.827 487.04 177.947 487.08C178.187 486.84 178.187 486 177.947 485.76C175.907 485.6 175.547 485.44 175.547 482.12V475.56ZM197.631 482.12V474.16C197.631 472.16 197.791 469.6 197.791 469.6C197.791 469.44 197.591 469.32 197.271 469.32C196.151 469.76 194.551 470.12 191.791 470.48C191.711 470.72 191.791 471.36 191.871 471.6C194.071 471.8 194.471 472.04 194.471 474.32V482.12C194.471 485.44 194.031 485.56 191.591 485.76C191.351 486 191.351 486.84 191.591 487.08C192.911 487.04 194.471 487 196.071 487C197.671 487 199.191 487.04 200.511 487.08C200.751 486.84 200.751 486 200.511 485.76C198.071 485.6 197.631 485.44 197.631 482.12ZM193.991 463.04C193.991 464.08 194.951 465.12 195.911 465.12C197.031 465.12 197.991 464.04 197.991 463.2C197.991 462.24 197.151 461.12 196.071 461.12C195.111 461.12 193.991 462.08 193.991 463.04ZM203.17 481.48C203.33 483.44 203.45 485.32 203.45 487C203.85 486.92 204.25 486.88 204.45 486.88C204.73 486.88 204.97 486.88 205.25 486.96C206.33 487.24 207.41 487.4 208.89 487.4C211.13 487.4 215.25 486.32 215.25 482.36C215.25 479.64 213.29 478.04 210.57 477.04C208.17 476.12 206.57 475.52 206.57 473.32C206.57 471.68 208.01 470.76 209.37 470.76C210.25 470.76 212.57 471.08 213.09 474.48C213.33 474.72 214.13 474.68 214.37 474.44C214.49 473 214.57 471.52 214.61 470.2C213.37 470 211.45 469.44 209.37 469.44C206.41 469.44 203.73 471.36 203.73 473.92C203.73 476.84 205.05 478.08 208.13 479.36C211.45 480.72 212.21 481.56 212.21 483.28C212.21 485.24 210.29 486.08 208.81 486.08C207.25 486.08 206.37 485.56 205.97 485.12C205.09 484.2 204.65 482.44 204.41 481.44C204.17 481.2 203.41 481.24 203.17 481.48ZM234.076 482.12V474.16C234.076 472.16 234.236 469.6 234.236 469.6C234.236 469.44 234.036 469.32 233.716 469.32C232.596 469.76 230.996 470.12 228.236 470.48C228.156 470.72 228.236 471.36 228.316 471.6C230.516 471.8 230.916 472.04 230.916 474.32V482.12C230.916 485.44 230.476 485.56 228.036 485.76C227.796 486 227.796 486.84 228.036 487.08C229.356 487.04 230.916 487 232.516 487C234.116 487 235.636 487.04 236.956 487.08C237.196 486.84 237.196 486 236.956 485.76C234.516 485.6 234.076 485.44 234.076 482.12ZM230.436 463.04C230.436 464.08 231.396 465.12 232.356 465.12C233.476 465.12 234.436 464.04 234.436 463.2C234.436 462.24 233.596 461.12 232.516 461.12C231.556 461.12 230.436 462.08 230.436 463.04ZM239.615 481.48C239.775 483.44 239.895 485.32 239.895 487C240.295 486.92 240.695 486.88 240.895 486.88C241.175 486.88 241.415 486.88 241.695 486.96C242.775 487.24 243.855 487.4 245.335 487.4C247.575 487.4 251.695 486.32 251.695 482.36C251.695 479.64 249.735 478.04 247.015 477.04C244.615 476.12 243.015 475.52 243.015 473.32C243.015 471.68 244.455 470.76 245.815 470.76C246.695 470.76 249.015 471.08 249.535 474.48C249.775 474.72 250.575 474.68 250.815 474.44C250.935 473 251.015 471.52 251.055 470.2C249.815 470 247.895 469.44 245.815 469.44C242.855 469.44 240.175 471.36 240.175 473.92C240.175 476.84 241.495 478.08 244.575 479.36C247.895 480.72 248.655 481.56 248.655 483.28C248.655 485.24 246.735 486.08 245.255 486.08C243.695 486.08 242.815 485.56 242.415 485.12C241.535 484.2 241.095 482.44 240.855 481.44C240.615 481.2 239.855 481.24 239.615 481.48ZM265.001 469.84C264.441 469.84 264.281 470.32 264.281 470.64V471.16C264.281 471.36 264.321 471.4 264.481 471.4H266.841V483.44C266.841 486.28 268.081 487.4 269.921 487.4C271.761 487.4 273.761 486.52 275.321 484.76C275.241 484.36 275.001 484.12 274.601 484.08C273.561 484.88 272.361 485.2 271.321 485.2C270.241 485.2 270.001 484 270.001 481.52V471.4H274.161C274.561 471.4 275.121 471.24 275.121 470.88V470.08C275.121 469.92 275.001 469.84 274.801 469.84H270.001V468.28C270.001 465.68 270.161 464.08 270.161 464.08C270.161 463.84 270.041 463.72 269.841 463.72C269.681 463.72 269.321 463.88 268.961 464.08C268.521 464.32 268.121 464.52 267.601 464.64C267.121 464.8 266.721 464.92 266.721 465.2C266.721 465.68 266.841 465.4 266.841 469.84H265.001ZM282.618 475.56C282.618 474.72 282.978 474.24 283.298 473.88C284.818 472.4 286.858 471.52 288.418 471.52C289.218 471.52 290.058 472.04 290.538 472.96C290.938 473.76 291.018 474.84 291.018 476.04V482.12C291.018 485.4 290.618 485.56 288.538 485.76C288.338 486 288.338 486.84 288.538 487.08C289.658 487.04 291.018 487 292.618 487C294.218 487 295.538 487.04 296.858 487.08C297.057 486.84 297.057 486 296.858 485.76C294.618 485.56 294.178 485.4 294.178 482.12V476.16C294.178 473.96 294.018 472 293.098 470.8C292.418 469.92 291.178 469.44 289.778 469.44C287.818 469.44 285.418 469.96 282.978 472.68C282.978 472.72 282.938 472.72 282.898 472.76C282.778 472.92 282.578 473.16 282.578 472.68L282.618 463.68C282.618 461.08 282.778 459.48 282.778 459.48C282.778 459.2 282.618 459.08 282.258 459.08C281.258 459.48 278.258 460.04 276.658 460.16C276.578 460.48 276.658 461.12 276.898 461.36C277.018 461.36 277.138 461.36 277.257 461.36C279.018 461.48 279.458 461.48 279.458 464.64V482.12C279.458 485.44 278.978 485.6 276.658 485.76C276.418 486 276.418 486.84 276.658 487.08C277.978 487.04 279.458 487 281.058 487C282.578 487 283.898 487.04 285.018 487.08C285.258 486.84 285.258 486 285.018 485.76C282.978 485.6 282.618 485.44 282.618 482.12V475.56ZM312.901 483.28C311.421 484.8 310.261 485.44 307.941 485.44C306.501 485.44 304.821 484.6 303.581 482.56C302.781 481.24 302.301 479.4 302.301 477.08L312.941 477.16C313.421 477.16 313.701 476.92 313.701 476.48C313.701 473.12 312.501 469.52 306.941 469.52C303.461 469.52 298.941 472.84 298.941 478.92C298.941 481.16 299.501 483.32 300.821 484.84C302.181 486.44 304.061 487.4 306.941 487.4C309.981 487.4 312.141 486 313.741 483.92C313.621 483.52 313.381 483.32 312.901 483.28ZM302.421 475.72C303.181 471.2 305.981 470.84 306.941 470.84C308.461 470.84 310.261 471.68 310.261 475.04C310.261 475.4 310.101 475.6 309.661 475.6L302.421 475.72ZM327.072 469.84C326.512 469.84 326.352 470.32 326.352 470.64V471.16C326.352 471.36 326.392 471.4 326.552 471.4H328.912V483.44C328.912 486.28 330.152 487.4 331.992 487.4C333.832 487.4 335.832 486.52 337.392 484.76C337.312 484.36 337.072 484.12 336.672 484.08C335.632 484.88 334.432 485.2 333.392 485.2C332.312 485.2 332.072 484 332.072 481.52V471.4H336.232C336.632 471.4 337.192 471.24 337.192 470.88V470.08C337.192 469.92 337.072 469.84 336.872 469.84H332.072V468.28C332.072 465.68 332.232 464.08 332.232 464.08C332.232 463.84 332.112 463.72 331.912 463.72C331.752 463.72 331.392 463.88 331.032 464.08C330.592 464.32 330.192 464.52 329.672 464.64C329.192 464.8 328.792 464.92 328.792 465.2C328.792 465.68 328.912 465.4 328.912 469.84H327.072ZM345.048 472.68C344.968 471.08 344.928 470.04 344.728 469.64C344.648 469.44 344.568 469.32 344.248 469.32C343.128 469.76 342.088 470.12 339.328 470.48C339.248 470.72 339.328 471.36 339.408 471.6C341.568 471.8 342.008 472 342.008 474.32V482.12C342.008 485.44 341.528 485.6 339.048 485.76C338.808 486 338.808 486.84 339.048 487.08C340.448 487.04 342.008 487 343.608 487C345.208 487 347.048 487.04 348.448 487.08C348.688 486.84 348.688 486 348.448 485.76C345.648 485.56 345.168 485.44 345.168 482.12V476.56C345.168 475.52 345.648 474.6 346.128 473.88C346.568 473.24 347.488 471.92 347.968 471.92C348.328 471.92 348.688 472 349.008 472.44C349.288 472.84 349.768 473.36 350.448 473.36C351.408 473.36 352.328 472.36 352.328 471.36C352.328 470.6 351.608 469.44 349.928 469.44C348.048 469.44 346.408 471.2 345.488 472.76C345.248 473.2 345.048 472.88 345.048 472.68ZM368.018 483.28C366.538 484.8 365.378 485.44 363.058 485.44C361.618 485.44 359.938 484.6 358.698 482.56C357.898 481.24 357.418 479.4 357.418 477.08L368.058 477.16C368.538 477.16 368.818 476.92 368.818 476.48C368.818 473.12 367.618 469.52 362.058 469.52C358.578 469.52 354.058 472.84 354.058 478.92C354.058 481.16 354.618 483.32 355.938 484.84C357.298 486.44 359.178 487.4 362.058 487.4C365.098 487.4 367.258 486 368.858 483.92C368.738 483.52 368.498 483.32 368.018 483.28ZM357.538 475.72C358.298 471.2 361.098 470.84 362.058 470.84C363.578 470.84 365.378 471.68 365.378 475.04C365.378 475.4 365.218 475.6 364.778 475.6L357.538 475.72ZM386.182 483.28C384.702 484.8 383.542 485.44 381.222 485.44C379.782 485.44 378.102 484.6 376.862 482.56C376.062 481.24 375.582 479.4 375.582 477.08L386.222 477.16C386.702 477.16 386.982 476.92 386.982 476.48C386.982 473.12 385.782 469.52 380.222 469.52C376.742 469.52 372.222 472.84 372.222 478.92C372.222 481.16 372.782 483.32 374.102 484.84C375.462 486.44 377.342 487.4 380.222 487.4C383.262 487.4 385.422 486 387.022 483.92C386.902 483.52 386.662 483.32 386.182 483.28ZM375.702 475.72C376.462 471.2 379.262 470.84 380.222 470.84C381.742 470.84 383.542 471.68 383.542 475.04C383.542 475.4 383.382 475.6 382.942 475.6L375.702 475.72ZM400.273 478.8C400.273 482.88 402.993 487.4 408.673 487.4C411.233 487.4 413.193 486.48 414.553 485.16C416.353 483.4 417.153 480.88 417.153 478.44C417.153 474.28 414.873 469.44 408.753 469.44C406.113 469.44 403.953 470.52 402.473 472.24C401.033 473.96 400.273 476.28 400.273 478.8ZM408.153 470.84C411.593 470.84 413.713 473.96 413.713 479.72C413.713 484.76 411.113 486 409.233 486C405.073 486 403.713 480.96 403.713 477.88C403.713 474.4 404.553 470.84 408.153 470.84ZM425.789 482.12V471.4H429.509C429.869 471.4 430.429 471.24 430.429 470.88V470.08C430.429 469.92 430.309 469.84 430.109 469.84H425.789V467.56C425.789 461.4 427.629 460.44 428.949 460.44C430.149 460.44 430.789 460.92 431.349 462.32C431.669 463.04 432.109 463.6 432.949 463.6C433.629 463.6 434.589 462.76 434.589 461.96C434.589 461.28 434.149 460.56 433.309 459.92C432.269 459.2 431.229 459.08 429.709 459.08C426.349 459.08 422.629 462 422.629 468.24V469.84H420.589C419.869 469.84 419.669 470.32 419.669 470.64V471.16C419.669 471.36 419.709 471.4 419.869 471.4H422.629V482.12C422.629 485.44 421.989 485.6 419.829 485.76C419.589 486 419.589 486.84 419.829 487.08C421.229 487.04 422.629 487 424.229 487C425.829 487 427.749 487.04 429.149 487.08C429.389 486.84 429.389 486 429.149 485.76C426.029 485.6 425.789 485.44 425.789 482.12ZM447.852 471.24C447.612 471.48 447.452 471.4 447.452 471.04V463.68C447.452 461.08 447.612 459.48 447.612 459.48C447.612 459.2 447.452 459.08 447.092 459.08C446.092 459.48 443.092 460.04 441.492 460.16C441.412 460.48 441.492 461.12 441.732 461.36C441.852 461.36 441.972 461.36 442.092 461.36C443.852 461.48 444.292 461.48 444.292 464.64V484.16C444.292 485.72 444.252 486.44 444.132 487C444.332 487.32 444.532 487.48 445.012 487.48C445.252 487.24 445.652 486.88 445.972 486.52C446.372 486.04 446.612 486.04 447.052 486.4C447.972 487.16 449.172 487.4 450.572 487.4C454.652 487.4 459.412 483.68 459.412 477.32C459.412 472.44 455.812 469.44 452.332 469.44C450.612 469.44 449.092 470.12 447.852 471.24ZM448.132 472.48C449.172 471.56 450.372 471.2 451.532 471.2C453.972 471.2 455.972 474.16 455.972 478.04C455.972 482.6 454.132 486.04 450.332 486.04C449.092 486.04 448.252 485.16 447.452 484.16V474.16C447.452 473.32 447.612 472.92 448.132 472.48ZM468.138 482.12V474.16C468.138 472.16 468.298 469.6 468.298 469.6C468.298 469.44 468.098 469.32 467.778 469.32C466.658 469.76 465.058 470.12 462.298 470.48C462.218 470.72 462.298 471.36 462.378 471.6C464.578 471.8 464.978 472.04 464.978 474.32V482.12C464.978 485.44 464.538 485.56 462.098 485.76C461.858 486 461.858 486.84 462.098 487.08C463.418 487.04 464.978 487 466.578 487C468.178 487 469.698 487.04 471.018 487.08C471.258 486.84 471.258 486 471.018 485.76C468.578 485.6 468.138 485.44 468.138 482.12ZM464.498 463.04C464.498 464.08 465.458 465.12 466.418 465.12C467.538 465.12 468.498 464.04 468.498 463.2C468.498 462.24 467.658 461.12 466.578 461.12C465.618 461.12 464.498 462.08 464.498 463.04ZM473.478 469.84C472.918 469.84 472.758 470.32 472.758 470.64V471.16C472.758 471.36 472.798 471.4 472.958 471.4H475.318V483.44C475.318 486.28 476.558 487.4 478.398 487.4C480.238 487.4 482.238 486.52 483.798 484.76C483.718 484.36 483.478 484.12 483.078 484.08C482.038 484.88 480.838 485.2 479.798 485.2C478.718 485.2 478.478 484 478.478 481.52V471.4H482.638C483.038 471.4 483.598 471.24 483.598 470.88V470.08C483.598 469.92 483.478 469.84 483.278 469.84H478.478V468.28C478.478 465.68 478.638 464.08 478.638 464.08C478.638 463.84 478.518 463.72 478.318 463.72C478.158 463.72 477.798 463.88 477.438 464.08C476.998 464.32 476.598 464.52 476.078 464.64C475.598 464.8 475.198 464.92 475.198 465.2C475.198 465.68 475.318 465.4 475.318 469.84H473.478ZM495.254 478.08C495.774 478.08 496.334 476.96 496.334 476.48C496.334 476.08 496.174 475.68 495.774 475.68H487.014C486.534 475.68 486.014 476.6 486.014 477.32C486.014 477.72 486.254 478.08 486.614 478.08H495.254ZM499.85 481.48C500.01 483.44 500.13 485.32 500.13 487C500.53 486.92 500.93 486.88 501.13 486.88C501.41 486.88 501.65 486.88 501.93 486.96C503.01 487.24 504.09 487.4 505.57 487.4C507.81 487.4 511.93 486.32 511.93 482.36C511.93 479.64 509.97 478.04 507.25 477.04C504.85 476.12 503.25 475.52 503.25 473.32C503.25 471.68 504.69 470.76 506.05 470.76C506.93 470.76 509.25 471.08 509.77 474.48C510.01 474.72 510.81 474.68 511.05 474.44C511.17 473 511.25 471.52 511.29 470.2C510.05 470 508.13 469.44 506.05 469.44C503.09 469.44 500.41 471.36 500.41 473.92C500.41 476.84 501.73 478.08 504.81 479.36C508.13 480.72 508.89 481.56 508.89 483.28C508.89 485.24 506.97 486.08 505.49 486.08C503.93 486.08 503.05 485.56 502.65 485.12C501.77 484.2 501.33 482.44 501.09 481.44C500.85 481.2 500.09 481.24 499.85 481.48ZM515.236 469.84C514.676 469.84 514.516 470.32 514.516 470.64V471.16C514.516 471.36 514.556 471.4 514.716 471.4H517.076V483.44C517.076 486.28 518.316 487.4 520.156 487.4C521.996 487.4 523.996 486.52 525.556 484.76C525.476 484.36 525.236 484.12 524.836 484.08C523.796 484.88 522.596 485.2 521.556 485.2C520.476 485.2 520.236 484 520.236 481.52V471.4H524.396C524.796 471.4 525.356 471.24 525.356 470.88V470.08C525.356 469.92 525.236 469.84 525.036 469.84H520.236V468.28C520.236 465.68 520.396 464.08 520.396 464.08C520.396 463.84 520.276 463.72 520.076 463.72C519.916 463.72 519.556 463.88 519.196 464.08C518.756 464.32 518.356 464.52 517.836 464.64C517.356 464.8 516.956 464.92 516.956 465.2C516.956 465.68 517.076 465.4 517.076 469.84H515.236ZM533.212 472.68C533.132 471.08 533.092 470.04 532.892 469.64C532.812 469.44 532.732 469.32 532.412 469.32C531.292 469.76 530.252 470.12 527.492 470.48C527.412 470.72 527.492 471.36 527.572 471.6C529.732 471.8 530.172 472 530.172 474.32V482.12C530.172 485.44 529.692 485.6 527.212 485.76C526.972 486 526.972 486.84 527.212 487.08C528.612 487.04 530.172 487 531.772 487C533.372 487 535.212 487.04 536.612 487.08C536.852 486.84 536.852 486 536.612 485.76C533.812 485.56 533.332 485.44 533.332 482.12V476.56C533.332 475.52 533.812 474.6 534.292 473.88C534.732 473.24 535.652 471.92 536.132 471.92C536.492 471.92 536.852 472 537.172 472.44C537.452 472.84 537.932 473.36 538.612 473.36C539.572 473.36 540.492 472.36 540.492 471.36C540.492 470.6 539.772 469.44 538.092 469.44C536.212 469.44 534.572 471.2 533.652 472.76C533.412 473.2 533.212 472.88 533.212 472.68ZM548.295 482.12V474.16C548.295 472.16 548.455 469.6 548.455 469.6C548.455 469.44 548.255 469.32 547.935 469.32C546.815 469.76 545.215 470.12 542.455 470.48C542.375 470.72 542.455 471.36 542.535 471.6C544.735 471.8 545.135 472.04 545.135 474.32V482.12C545.135 485.44 544.695 485.56 542.255 485.76C542.015 486 542.015 486.84 542.255 487.08C543.575 487.04 545.135 487 546.735 487C548.335 487 549.855 487.04 551.175 487.08C551.415 486.84 551.415 486 551.175 485.76C548.735 485.6 548.295 485.44 548.295 482.12ZM544.655 463.04C544.655 464.08 545.615 465.12 546.575 465.12C547.695 465.12 548.655 464.04 548.655 463.2C548.655 462.24 547.815 461.12 546.735 461.12C545.775 461.12 544.655 462.08 544.655 463.04ZM559.274 472.68C559.034 472.96 558.794 473.04 558.794 472.68C558.754 471.6 558.674 470.04 558.474 469.64C558.394 469.44 558.314 469.32 557.994 469.32C556.874 469.76 555.834 470.12 553.074 470.48C552.994 470.72 553.074 471.36 553.154 471.6C555.314 471.8 555.754 472 555.754 474.32V482.12C555.754 485.4 555.354 485.56 552.954 485.76C552.714 486 552.714 486.84 552.954 487.08C554.154 487.04 555.754 487 557.354 487C558.954 487 560.154 487.04 561.354 487.08C561.594 486.84 561.594 486 561.354 485.76C559.314 485.56 558.914 485.4 558.914 482.12V475.56C558.914 474.72 559.274 474.24 559.594 473.88C561.114 472.4 562.914 471.52 564.474 471.52C565.274 471.52 566.114 472.04 566.594 472.96C566.994 473.76 567.074 474.84 567.074 476.04V482.12C567.074 485.4 566.674 485.56 564.594 485.76C564.394 486 564.394 486.84 564.594 487.08C565.794 487.04 567.074 487 568.674 487C570.274 487 571.714 487.04 572.914 487.08C573.114 486.84 573.114 486 572.914 485.76C570.674 485.56 570.234 485.4 570.234 482.12V476.16C570.234 473.96 570.074 472.04 569.154 470.8C568.474 469.92 567.234 469.44 565.834 469.44C563.874 469.44 561.634 469.96 559.274 472.68ZM591.354 471.52C592.114 471.52 592.834 470.8 592.834 470C592.834 469.16 592.074 468.52 590.994 468.52C589.954 468.52 588.034 469.2 586.994 470.56C586.514 470.24 585.194 469.44 582.834 469.44C579.274 469.44 575.994 471.84 575.994 475.52C575.994 477.68 576.954 478.92 578.074 480C576.954 480.96 576.314 482.68 576.314 484.04C576.314 485.48 577.114 486.6 578.154 487.12C575.994 488.4 574.874 490.24 574.874 491.96C574.874 495.44 578.154 496.52 581.234 496.52C586.634 496.52 592.474 493.92 592.474 489.6C592.474 488.32 591.874 487.32 590.714 486.36C589.154 485.08 586.354 485.04 584.874 485.04C584.154 485.04 583.154 485.12 582.194 485.24C581.594 485.28 581.194 485.32 580.994 485.32C579.834 485.32 578.434 484.76 578.434 483.04C578.434 482.24 578.674 481.4 579.154 480.72C580.114 481.28 581.234 481.56 582.794 481.56C586.314 481.56 589.554 479.36 589.554 475.44C589.554 473.56 588.994 472.48 587.834 471.28C588.114 470.88 588.914 470.32 589.434 470.32C589.714 470.32 589.994 470.44 590.234 470.8C590.394 471.12 590.914 471.52 591.354 471.52ZM578.874 487.4C579.314 487.52 579.954 487.6 580.474 487.6C581.714 487.6 582.834 487.48 583.394 487.48C585.394 487.48 587.074 487.52 588.234 488.16C589.794 489.04 590.274 489.6 590.274 490.64C590.274 493.52 586.034 495.04 582.434 495.04C580.994 495.04 577.634 493.88 577.634 491.16C577.634 489.8 577.714 488.8 578.874 487.4ZM586.354 475.84C586.354 479.56 584.474 480.32 582.994 480.32C579.634 480.32 579.274 477.48 579.274 474.92C579.274 472.12 580.274 470.68 582.474 470.68C584.994 470.68 586.354 472.52 586.354 475.84ZM595.514 481.48C595.674 483.44 595.794 485.32 595.794 487C596.194 486.92 596.594 486.88 596.794 486.88C597.074 486.88 597.314 486.88 597.594 486.96C598.674 487.24 599.754 487.4 601.234 487.4C603.474 487.4 607.594 486.32 607.594 482.36C607.594 479.64 605.634 478.04 602.914 477.04C600.514 476.12 598.914 475.52 598.914 473.32C598.914 471.68 600.354 470.76 601.714 470.76C602.594 470.76 604.914 471.08 605.434 474.48C605.674 474.72 606.474 474.68 606.714 474.44C606.834 473 606.914 471.52 606.954 470.2C605.714 470 603.794 469.44 601.714 469.44C598.754 469.44 596.074 471.36 596.074 473.92C596.074 476.84 597.394 478.08 600.474 479.36C603.794 480.72 604.554 481.56 604.554 483.28C604.554 485.24 602.634 486.08 601.154 486.08C599.594 486.08 598.714 485.56 598.314 485.12C597.434 484.2 596.994 482.44 596.754 481.44C596.514 481.2 595.754 481.24 595.514 481.48ZM613.34 483.2C612.1 483.2 611.22 484.04 611.22 485.16C611.22 486.4 612.26 486.8 612.98 486.92C613.74 487 614.42 487.24 614.42 488.16C614.42 489 612.98 490.84 610.9 491.36C610.9 491.76 610.98 492.04 611.26 492.32C613.66 491.88 615.98 489.96 615.98 487.16C615.98 484.76 614.94 483.2 613.34 483.2ZM629.609 478.8C629.609 482.88 632.329 487.4 638.009 487.4C640.569 487.4 642.529 486.48 643.889 485.16C645.689 483.4 646.489 480.88 646.489 478.44C646.489 474.28 644.209 469.44 638.089 469.44C635.449 469.44 633.289 470.52 631.809 472.24C630.369 473.96 629.609 476.28 629.609 478.8ZM637.489 470.84C640.929 470.84 643.049 473.96 643.049 479.72C643.049 484.76 640.449 486 638.569 486C634.409 486 633.049 480.96 633.049 477.88C633.049 474.4 633.889 470.84 637.489 470.84ZM655.165 472.68C655.085 471.08 655.045 470.04 654.845 469.64C654.765 469.44 654.685 469.32 654.365 469.32C653.245 469.76 652.205 470.12 649.445 470.48C649.365 470.72 649.445 471.36 649.525 471.6C651.685 471.8 652.125 472 652.125 474.32V482.12C652.125 485.44 651.645 485.6 649.165 485.76C648.925 486 648.925 486.84 649.165 487.08C650.565 487.04 652.125 487 653.725 487C655.325 487 657.165 487.04 658.565 487.08C658.805 486.84 658.805 486 658.565 485.76C655.765 485.56 655.285 485.44 655.285 482.12V476.56C655.285 475.52 655.765 474.6 656.245 473.88C656.685 473.24 657.605 471.92 658.085 471.92C658.445 471.92 658.805 472 659.125 472.44C659.405 472.84 659.885 473.36 660.565 473.36C661.525 473.36 662.445 472.36 662.445 471.36C662.445 470.6 661.725 469.44 660.045 469.44C658.165 469.44 656.525 471.2 655.605 472.76C655.365 473.2 655.165 472.88 655.165 472.68ZM676.055 485C676.255 484.84 676.615 484.76 676.655 485.04C676.775 486 677.095 487.4 677.095 487.4C677.415 487.52 677.615 487.48 677.855 487.4C678.735 486.68 680.135 486.08 682.575 485.8C682.815 485.56 682.815 484.96 682.575 484.72C680.015 484.52 679.655 483.76 679.655 481.8V463.68C679.655 461.08 679.815 459.48 679.815 459.48C679.815 459.2 679.655 459.08 679.295 459.08C678.295 459.48 675.295 460.04 673.695 460.16C673.615 460.48 673.695 461.12 673.935 461.36C674.055 461.36 674.175 461.36 674.295 461.36C676.055 461.48 676.495 461.48 676.495 464.64V469.76C676.495 470.04 676.415 470.12 676.135 470.12C675.975 470.12 674.335 469.44 673.015 469.44C670.375 469.44 668.615 470.32 667.015 471.84C665.295 473.56 664.255 475.92 664.255 478.88C664.255 483.8 666.735 487.4 671.055 487.4C672.615 487.4 674.095 486.6 676.055 485ZM676.495 482.04C676.495 482.8 676.415 483.12 675.855 483.6C674.375 484.88 673.095 485.52 672.095 485.52C669.935 485.52 667.695 483.16 667.695 478.16C667.695 475.28 668.255 473.68 668.855 472.84C670.095 470.96 671.775 470.84 672.575 470.84C674.015 470.84 675.015 471.36 675.815 472.28C676.375 472.92 676.495 473.2 676.495 474.44V482.04ZM698.37 483.28C696.89 484.8 695.73 485.44 693.41 485.44C691.97 485.44 690.29 484.6 689.05 482.56C688.25 481.24 687.77 479.4 687.77 477.08L698.41 477.16C698.89 477.16 699.17 476.92 699.17 476.48C699.17 473.12 697.97 469.52 692.41 469.52C688.93 469.52 684.41 472.84 684.41 478.92C684.41 481.16 684.97 483.32 686.29 484.84C687.65 486.44 689.53 487.4 692.41 487.4C695.45 487.4 697.61 486 699.21 483.92C699.09 483.52 698.85 483.32 698.37 483.28ZM687.89 475.72C688.65 471.2 691.45 470.84 692.41 470.84C693.93 470.84 695.73 471.68 695.73 475.04C695.73 475.4 695.57 475.6 695.13 475.6L687.89 475.72ZM707.86 472.68C707.78 471.08 707.74 470.04 707.54 469.64C707.46 469.44 707.38 469.32 707.06 469.32C705.94 469.76 704.9 470.12 702.14 470.48C702.06 470.72 702.14 471.36 702.22 471.6C704.38 471.8 704.82 472 704.82 474.32V482.12C704.82 485.44 704.34 485.6 701.86 485.76C701.62 486 701.62 486.84 701.86 487.08C703.26 487.04 704.82 487 706.42 487C708.02 487 709.86 487.04 711.26 487.08C711.5 486.84 711.5 486 711.26 485.76C708.46 485.56 707.98 485.44 707.98 482.12V476.56C707.98 475.52 708.46 474.6 708.94 473.88C709.38 473.24 710.3 471.92 710.78 471.92C711.14 471.92 711.5 472 711.82 472.44C712.1 472.84 712.58 473.36 713.26 473.36C714.22 473.36 715.14 472.36 715.14 471.36C715.14 470.6 714.42 469.44 712.74 469.44C710.86 469.44 709.22 471.2 708.3 472.76C708.06 473.2 707.86 472.88 707.86 472.68ZM730.831 483.28C729.351 484.8 728.191 485.44 725.871 485.44C724.431 485.44 722.751 484.6 721.511 482.56C720.711 481.24 720.231 479.4 720.231 477.08L730.871 477.16C731.351 477.16 731.631 476.92 731.631 476.48C731.631 473.12 730.431 469.52 724.871 469.52C721.391 469.52 716.871 472.84 716.871 478.92C716.871 481.16 717.431 483.32 718.751 484.84C720.111 486.44 721.991 487.4 724.871 487.4C727.911 487.4 730.071 486 731.671 483.92C731.551 483.52 731.311 483.32 730.831 483.28ZM720.351 475.72C721.111 471.2 723.911 470.84 724.871 470.84C726.391 470.84 728.191 471.68 728.191 475.04C728.191 475.4 728.031 475.6 727.591 475.6L720.351 475.72ZM746.915 485C747.115 484.84 747.475 484.76 747.515 485.04C747.635 486 747.955 487.4 747.955 487.4C748.275 487.52 748.475 487.48 748.715 487.4C749.595 486.68 750.995 486.08 753.435 485.8C753.675 485.56 753.675 484.96 753.435 484.72C750.875 484.52 750.515 483.76 750.515 481.8V463.68C750.515 461.08 750.675 459.48 750.675 459.48C750.675 459.2 750.515 459.08 750.155 459.08C749.155 459.48 746.155 460.04 744.555 460.16C744.475 460.48 744.555 461.12 744.795 461.36C744.915 461.36 745.035 461.36 745.155 461.36C746.915 461.48 747.355 461.48 747.355 464.64V469.76C747.355 470.04 747.275 470.12 746.995 470.12C746.835 470.12 745.195 469.44 743.875 469.44C741.235 469.44 739.475 470.32 737.875 471.84C736.155 473.56 735.115 475.92 735.115 478.88C735.115 483.8 737.595 487.4 741.915 487.4C743.475 487.4 744.955 486.6 746.915 485ZM747.355 482.04C747.355 482.8 747.275 483.12 746.715 483.6C745.235 484.88 743.955 485.52 742.955 485.52C740.795 485.52 738.555 483.16 738.555 478.16C738.555 475.28 739.115 473.68 739.715 472.84C740.955 470.96 742.635 470.84 743.435 470.84C744.875 470.84 745.875 471.36 746.675 472.28C747.235 472.92 747.355 473.2 747.355 474.44V482.04ZM770.469 471.24C770.229 471.48 770.069 471.4 770.069 471.04V463.68C770.069 461.08 770.229 459.48 770.229 459.48C770.229 459.2 770.069 459.08 769.709 459.08C768.709 459.48 765.709 460.04 764.109 460.16C764.029 460.48 764.109 461.12 764.349 461.36C764.469 461.36 764.589 461.36 764.709 461.36C766.469 461.48 766.909 461.48 766.909 464.64V484.16C766.909 485.72 766.869 486.44 766.749 487C766.949 487.32 767.149 487.48 767.629 487.48C767.869 487.24 768.269 486.88 768.589 486.52C768.989 486.04 769.229 486.04 769.669 486.4C770.589 487.16 771.789 487.4 773.189 487.4C777.269 487.4 782.029 483.68 782.029 477.32C782.029 472.44 778.429 469.44 774.949 469.44C773.229 469.44 771.709 470.12 770.469 471.24ZM770.749 472.48C771.789 471.56 772.989 471.2 774.149 471.2C776.589 471.2 778.589 474.16 778.589 478.04C778.589 482.6 776.749 486.04 772.949 486.04C771.709 486.04 770.869 485.16 770.069 484.16V474.16C770.069 473.32 770.229 472.92 770.749 472.48ZM791.676 493.4C792.316 492.28 792.836 491.16 793.316 489.96C796.516 482.24 798.316 478.12 800.396 473.64C801.196 471.96 801.756 471.32 803.636 471.08C803.876 470.84 803.876 470 803.636 469.76C802.836 469.8 801.916 469.84 800.796 469.84C799.596 469.84 798.356 469.8 797.156 469.76C796.916 470 796.916 470.84 797.156 471.08C798.436 471.2 799.716 471.44 799.076 472.88L795.116 482.04C794.836 482.68 794.476 482.8 794.156 482L790.596 473.68C789.876 472 789.676 471.24 791.916 471.08C792.156 470.84 792.156 470 791.916 469.76C790.436 469.8 788.836 469.84 787.396 469.84C786.036 469.84 784.956 469.8 784.156 469.76C783.916 470 783.916 470.84 784.156 471.08C785.756 471.28 786.276 471.64 787.316 474.08L791.836 484.6C792.196 485.4 792.796 487.24 792.396 488.36C791.916 489.68 791.436 490.8 790.836 492.04C790.396 492.84 789.836 493.2 788.836 493.2C788.276 493.2 788.116 493.08 787.676 493.08C786.516 493.08 785.916 494.28 785.916 494.8C785.916 495.64 786.716 496.28 787.796 496.28C788.636 496.28 790.236 495.96 791.676 493.4ZM815.822 469.84C815.262 469.84 815.102 470.32 815.102 470.64V471.16C815.102 471.36 815.142 471.4 815.302 471.4H817.662V483.44C817.662 486.28 818.902 487.4 820.742 487.4C822.582 487.4 824.582 486.52 826.142 484.76C826.062 484.36 825.822 484.12 825.422 484.08C824.382 484.88 823.182 485.2 822.142 485.2C821.062 485.2 820.822 484 820.822 481.52V471.4H824.982C825.382 471.4 825.942 471.24 825.942 470.88V470.08C825.942 469.92 825.822 469.84 825.622 469.84H820.822V468.28C820.822 465.68 820.982 464.08 820.982 464.08C820.982 463.84 820.862 463.72 820.662 463.72C820.502 463.72 820.142 463.88 819.782 464.08C819.342 464.32 818.942 464.52 818.422 464.64C817.942 464.8 817.542 464.92 817.542 465.2C817.542 465.68 817.662 465.4 817.662 469.84H815.822ZM833.438 475.56C833.438 474.72 833.798 474.24 834.118 473.88C835.638 472.4 837.678 471.52 839.238 471.52C840.038 471.52 840.878 472.04 841.358 472.96C841.758 473.76 841.838 474.84 841.838 476.04V482.12C841.838 485.4 841.438 485.56 839.358 485.76C839.158 486 839.158 486.84 839.358 487.08C840.478 487.04 841.838 487 843.438 487C845.038 487 846.358 487.04 847.678 487.08C847.878 486.84 847.878 486 847.678 485.76C845.438 485.56 844.998 485.4 844.998 482.12V476.16C844.998 473.96 844.838 472 843.918 470.8C843.238 469.92 841.998 469.44 840.598 469.44C838.638 469.44 836.238 469.96 833.798 472.68C833.798 472.72 833.758 472.72 833.718 472.76C833.598 472.92 833.398 473.16 833.398 472.68L833.438 463.68C833.438 461.08 833.598 459.48 833.598 459.48C833.598 459.2 833.438 459.08 833.078 459.08C832.078 459.48 829.078 460.04 827.478 460.16C827.398 460.48 827.478 461.12 827.718 461.36C827.838 461.36 827.958 461.36 828.078 461.36C829.838 461.48 830.278 461.48 830.278 464.64V482.12C830.278 485.44 829.798 485.6 827.478 485.76C827.238 486 827.238 486.84 827.478 487.08C828.798 487.04 830.278 487 831.878 487C833.398 487 834.718 487.04 835.838 487.08C836.078 486.84 836.078 486 835.838 485.76C833.798 485.6 833.438 485.44 833.438 482.12V475.56ZM863.721 483.28C862.241 484.8 861.081 485.44 858.761 485.44C857.321 485.44 855.641 484.6 854.401 482.56C853.601 481.24 853.121 479.4 853.121 477.08L863.761 477.16C864.241 477.16 864.521 476.92 864.521 476.48C864.521 473.12 863.321 469.52 857.761 469.52C854.281 469.52 849.761 472.84 849.761 478.92C849.761 481.16 850.321 483.32 851.641 484.84C853.001 486.44 854.881 487.4 857.761 487.4C860.801 487.4 862.961 486 864.561 483.92C864.441 483.52 864.201 483.32 863.721 483.28ZM853.241 475.72C854.001 471.2 856.801 470.84 857.761 470.84C859.281 470.84 861.081 471.68 861.081 475.04C861.081 475.4 860.921 475.6 860.481 475.6L853.241 475.72ZM882.412 472.28C882.372 471.08 882.292 470.04 882.092 469.64C882.012 469.44 881.932 469.32 881.612 469.32C880.492 469.76 879.452 470.12 876.692 470.48C876.612 470.72 876.692 471.36 876.772 471.6C878.932 471.8 879.372 472 879.372 474.32V491.4C879.372 494.72 878.932 494.92 876.492 495.04C876.252 495.28 876.252 496.12 876.492 496.36C877.892 496.32 879.372 496.28 880.972 496.28C882.572 496.28 884.492 496.32 885.812 496.36C886.052 496.12 886.052 495.28 885.812 495.04C882.972 494.88 882.532 494.72 882.532 491.4V487.08C882.532 486.56 882.692 486.6 883.092 486.76C884.092 487.16 885.292 487.4 886.572 487.4C888.812 487.4 890.812 486.72 892.452 485.16C894.332 483.32 895.412 480.84 895.412 477.6C895.412 473.36 892.412 469.44 888.332 469.44C886.492 469.44 884.452 470.64 882.852 472.44C882.612 472.68 882.452 472.68 882.412 472.28ZM883.172 473.76C884.212 472.48 886.052 471.28 887.212 471.28C889.772 471.28 891.972 474.16 891.972 478.68C891.972 481.96 890.812 486.04 886.332 486.04C885.612 486.04 884.212 485.84 883.492 485.2C882.692 484.48 882.532 484.24 882.532 482.8V475.52C882.532 474.68 882.692 474.32 883.172 473.76ZM903.954 472.68C903.874 471.08 903.834 470.04 903.634 469.64C903.554 469.44 903.474 469.32 903.154 469.32C902.034 469.76 900.994 470.12 898.234 470.48C898.154 470.72 898.234 471.36 898.314 471.6C900.474 471.8 900.914 472 900.914 474.32V482.12C900.914 485.44 900.434 485.6 897.954 485.76C897.714 486 897.714 486.84 897.954 487.08C899.354 487.04 900.914 487 902.514 487C904.114 487 905.954 487.04 907.354 487.08C907.594 486.84 907.594 486 907.354 485.76C904.554 485.56 904.074 485.44 904.074 482.12V476.56C904.074 475.52 904.554 474.6 905.034 473.88C905.474 473.24 906.394 471.92 906.874 471.92C907.234 471.92 907.594 472 907.914 472.44C908.194 472.84 908.674 473.36 909.354 473.36C910.314 473.36 911.234 472.36 911.234 471.36C911.234 470.6 910.514 469.44 908.834 469.44C906.954 469.44 905.314 471.2 904.394 472.76C904.154 473.2 903.954 472.88 903.954 472.68ZM926.924 483.28C925.444 484.8 924.284 485.44 921.964 485.44C920.524 485.44 918.844 484.6 917.604 482.56C916.804 481.24 916.324 479.4 916.324 477.08L926.964 477.16C927.444 477.16 927.724 476.92 927.724 476.48C927.724 473.12 926.524 469.52 920.964 469.52C917.484 469.52 912.964 472.84 912.964 478.92C912.964 481.16 913.524 483.32 914.844 484.84C916.204 486.44 918.084 487.4 920.964 487.4C924.004 487.4 926.164 486 927.764 483.92C927.644 483.52 927.404 483.32 926.924 483.28ZM916.444 475.72C917.204 471.2 920.004 470.84 920.964 470.84C922.484 470.84 924.284 471.68 924.284 475.04C924.284 475.4 924.124 475.6 923.684 475.6L916.444 475.72ZM948.175 482.12V473.68C948.175 472.12 948.335 469.56 948.335 469.56C948.335 469.4 948.095 469.32 947.935 469.32C946.735 469.8 945.575 469.84 944.175 469.84H936.295V467.56C936.295 463.76 937.655 460.44 940.375 460.44C942.095 460.44 943.455 460.88 943.775 462.52C944.175 464.52 945.015 465.12 946.255 465.12C947.135 465.12 947.975 464.32 947.975 463.48C947.975 461 944.575 459.08 940.855 459.08C939.015 459.08 936.815 459.8 935.175 461.72C933.495 463.68 933.135 466.12 933.135 469.24V469.84H931.175C930.455 469.84 930.255 470.32 930.255 470.64V471.16C930.255 471.36 930.295 471.4 930.455 471.4H933.135V482.12C933.135 485.44 932.695 485.6 930.535 485.76C930.295 486 930.295 486.84 930.535 487.08C931.895 487.04 933.335 487 934.735 487C936.135 487 937.935 487.04 939.255 487.08C939.495 486.84 939.495 486 939.255 485.76C936.695 485.6 936.295 485.44 936.295 482.12V471.4H943.455C944.695 471.4 945.015 472.2 945.015 474.24V482.12C945.015 485.44 944.535 485.6 942.335 485.76C942.095 486 942.095 486.84 942.335 487.08C943.735 487.04 945.175 487 946.615 487C948.015 487 949.575 487.04 951.055 487.08C951.295 486.84 951.295 486 951.055 485.76C948.615 485.6 948.175 485.44 948.175 482.12ZM959.038 472.68C958.118 471.32 958.398 471.28 960.198 471.08C960.438 470.84 960.438 470 960.198 469.76C959.118 469.8 957.358 469.84 956.158 469.84C954.958 469.84 953.758 469.8 952.718 469.76C952.478 470 952.478 470.84 952.718 471.08C954.078 471.2 955.198 471.88 956.318 473.52L959.798 478.6C959.998 478.88 959.998 479 959.838 479.2L956.478 483.52C954.878 485.56 953.998 485.68 952.598 485.76C952.358 486 952.358 486.84 952.598 487.08C953.398 487.04 954.278 487 955.478 487C956.678 487 957.798 487.04 958.838 487.08C959.078 486.84 959.078 486 958.838 485.76C957.398 485.6 957.078 485.44 957.958 484.16L960.478 480.52C960.798 480.04 960.958 480.08 961.198 480.44L963.518 483.64C964.918 485.56 964.278 485.64 962.998 485.76C962.758 486 962.758 486.84 962.998 487.08C964.198 487.04 965.518 487 966.958 487C968.478 487 969.558 487.04 970.518 487.08C970.758 486.84 970.758 486 970.518 485.76C968.718 485.64 968.118 485.52 966.518 483.24L962.918 478.16C962.758 477.92 962.718 477.8 962.918 477.56L966.278 473.28C967.758 471.4 968.718 471.2 970.158 471.08C970.398 470.84 970.398 470 970.158 469.76C969.358 469.8 968.438 469.84 967.238 469.84C966.038 469.84 964.918 469.8 963.878 469.76C963.638 470 963.638 470.84 963.878 471.08C965.358 471.24 965.798 471.36 964.838 472.72L962.238 476.36C961.958 476.76 961.798 476.72 961.478 476.28L959.038 472.68ZM988.407 472.68C988.327 471.08 988.287 470.04 988.087 469.64C988.007 469.44 987.927 469.32 987.607 469.32C986.487 469.76 985.447 470.12 982.687 470.48C982.607 470.72 982.687 471.36 982.767 471.6C984.927 471.8 985.367 472 985.367 474.32V482.12C985.367 485.44 984.887 485.6 982.407 485.76C982.167 486 982.167 486.84 982.407 487.08C983.807 487.04 985.367 487 986.967 487C988.567 487 990.407 487.04 991.807 487.08C992.047 486.84 992.047 486 991.807 485.76C989.007 485.56 988.527 485.44 988.527 482.12V476.56C988.527 475.52 989.007 474.6 989.487 473.88C989.927 473.24 990.847 471.92 991.327 471.92C991.687 471.92 992.047 472 992.367 472.44C992.647 472.84 993.127 473.36 993.807 473.36C994.767 473.36 995.687 472.36 995.687 471.36C995.687 470.6 994.967 469.44 993.287 469.44C991.407 469.44 989.767 471.2 988.847 472.76C988.607 473.2 988.407 472.88 988.407 472.68ZM1011.38 483.28C1009.9 484.8 1008.74 485.44 1006.42 485.44C1004.98 485.44 1003.3 484.6 1002.06 482.56C1001.26 481.24 1000.78 479.4 1000.78 477.08L1011.42 477.16C1011.9 477.16 1012.18 476.92 1012.18 476.48C1012.18 473.12 1010.98 469.52 1005.42 469.52C1001.94 469.52 997.418 472.84 997.418 478.92C997.418 481.16 997.978 483.32 999.298 484.84C1000.66 486.44 1002.54 487.4 1005.42 487.4C1008.46 487.4 1010.62 486 1012.22 483.92C1012.1 483.52 1011.86 483.32 1011.38 483.28ZM1000.9 475.72C1001.66 471.2 1004.46 470.84 1005.42 470.84C1006.94 470.84 1008.74 471.68 1008.74 475.04C1008.74 475.4 1008.58 475.6 1008.14 475.6L1000.9 475.72ZM1017.63 482.12C1017.63 485.44 1017.19 485.64 1014.75 485.76C1014.51 486 1014.51 486.84 1014.75 487.08C1016.15 487.04 1017.63 487 1019.23 487C1020.83 487 1022.35 487.04 1023.67 487.08C1023.91 486.84 1023.91 486 1023.67 485.76C1021.23 485.64 1020.79 485.44 1020.79 482.12V463.68C1020.79 461.08 1020.95 459.48 1020.95 459.48C1020.95 459.2 1020.79 459.08 1020.43 459.08C1019.43 459.48 1016.43 460.04 1014.83 460.16C1014.75 460.48 1014.83 461.12 1015.07 461.36C1017.39 461.52 1017.63 461.64 1017.63 464.64V482.12ZM1036.1 485.08C1036.34 486.32 1036.78 487.4 1038.78 487.4C1040.3 487.4 1041.74 486.72 1042.58 485.92C1042.5 485.44 1042.34 485.08 1041.9 484.84C1041.62 485.08 1040.94 485.48 1040.42 485.48C1039.26 485.48 1039.22 483.92 1039.22 482.08V476.2C1039.22 470.52 1036.1 469.44 1033.18 469.44C1029.9 469.44 1026.58 471.6 1026.58 473.88C1026.58 474.84 1027.06 475.32 1027.98 475.32C1029.14 475.32 1029.86 474.48 1029.86 473.96C1029.86 473.68 1029.82 473.4 1029.74 473.24C1029.7 473.12 1029.65 472.88 1029.65 472.44C1029.65 471.2 1031.34 470.76 1032.86 470.76C1034.22 470.76 1036.1 471.44 1036.1 475.96C1036.1 476.24 1035.98 476.4 1035.86 476.44L1032.42 477.28C1028.58 478.24 1025.82 480.36 1025.82 483.08C1025.82 486.36 1028.06 487.4 1030.86 487.4C1032.26 487.4 1033.46 487.08 1035.22 485.72L1036.02 485.08H1036.1ZM1036.1 477.68V482.96C1036.1 483.48 1035.86 483.76 1035.54 484C1034.5 484.84 1033.14 485.76 1032.02 485.76C1030.02 485.76 1029.14 484.16 1029.14 482.92C1029.14 481.12 1029.98 479.28 1032.94 478.52L1036.1 477.68ZM1044.38 469.84C1043.82 469.84 1043.66 470.32 1043.66 470.64V471.16C1043.66 471.36 1043.7 471.4 1043.86 471.4H1046.22V483.44C1046.22 486.28 1047.46 487.4 1049.3 487.4C1051.14 487.4 1053.14 486.52 1054.7 484.76C1054.62 484.36 1054.38 484.12 1053.98 484.08C1052.94 484.88 1051.74 485.2 1050.7 485.2C1049.62 485.2 1049.38 484 1049.38 481.52V471.4H1053.54C1053.94 471.4 1054.5 471.24 1054.5 470.88V470.08C1054.5 469.92 1054.38 469.84 1054.18 469.84H1049.38V468.28C1049.38 465.68 1049.54 464.08 1049.54 464.08C1049.54 463.84 1049.42 463.72 1049.22 463.72C1049.06 463.72 1048.7 463.88 1048.34 464.08C1047.9 464.32 1047.5 464.52 1046.98 464.64C1046.5 464.8 1046.1 464.92 1046.1 465.2C1046.1 465.68 1046.22 465.4 1046.22 469.84H1044.38ZM1062.55 482.12V474.16C1062.55 472.16 1062.71 469.6 1062.71 469.6C1062.71 469.44 1062.51 469.32 1062.19 469.32C1061.07 469.76 1059.47 470.12 1056.71 470.48C1056.63 470.72 1056.71 471.36 1056.79 471.6C1058.99 471.8 1059.39 472.04 1059.39 474.32V482.12C1059.39 485.44 1058.95 485.56 1056.51 485.76C1056.27 486 1056.27 486.84 1056.51 487.08C1057.83 487.04 1059.39 487 1060.99 487C1062.59 487 1064.11 487.04 1065.43 487.08C1065.67 486.84 1065.67 486 1065.43 485.76C1062.99 485.6 1062.55 485.44 1062.55 482.12ZM1058.91 463.04C1058.91 464.08 1059.87 465.12 1060.83 465.12C1061.95 465.12 1062.91 464.04 1062.91 463.2C1062.91 462.24 1062.07 461.12 1060.99 461.12C1060.03 461.12 1058.91 462.08 1058.91 463.04ZM1067.81 478.8C1067.81 482.88 1070.53 487.4 1076.21 487.4C1078.77 487.4 1080.73 486.48 1082.09 485.16C1083.89 483.4 1084.69 480.88 1084.69 478.44C1084.69 474.28 1082.41 469.44 1076.29 469.44C1073.65 469.44 1071.49 470.52 1070.01 472.24C1068.57 473.96 1067.81 476.28 1067.81 478.8ZM1075.69 470.84C1079.13 470.84 1081.25 473.96 1081.25 479.72C1081.25 484.76 1078.65 486 1076.77 486C1072.61 486 1071.25 480.96 1071.25 477.88C1071.25 474.4 1072.09 470.84 1075.69 470.84ZM1093.69 472.68C1093.45 472.96 1093.21 473.04 1093.21 472.68C1093.17 471.6 1093.09 470.04 1092.89 469.64C1092.81 469.44 1092.73 469.32 1092.41 469.32C1091.29 469.76 1090.25 470.12 1087.49 470.48C1087.41 470.72 1087.49 471.36 1087.57 471.6C1089.73 471.8 1090.17 472 1090.17 474.32V482.12C1090.17 485.4 1089.77 485.56 1087.37 485.76C1087.13 486 1087.13 486.84 1087.37 487.08C1088.57 487.04 1090.17 487 1091.77 487C1093.37 487 1094.57 487.04 1095.77 487.08C1096.01 486.84 1096.01 486 1095.77 485.76C1093.73 485.56 1093.33 485.4 1093.33 482.12V475.56C1093.33 474.72 1093.69 474.24 1094.01 473.88C1095.53 472.4 1097.33 471.52 1098.89 471.52C1099.69 471.52 1100.53 472.04 1101.01 472.96C1101.41 473.76 1101.49 474.84 1101.49 476.04V482.12C1101.49 485.4 1101.09 485.56 1099.01 485.76C1098.81 486 1098.81 486.84 1099.01 487.08C1100.21 487.04 1101.49 487 1103.09 487C1104.69 487 1106.13 487.04 1107.33 487.08C1107.53 486.84 1107.53 486 1107.33 485.76C1105.09 485.56 1104.65 485.4 1104.65 482.12V476.16C1104.65 473.96 1104.49 472.04 1103.57 470.8C1102.89 469.92 1101.65 469.44 1100.25 469.44C1098.29 469.44 1096.05 469.96 1093.69 472.68ZM1110.29 485.28C1110.29 486.44 1111.25 487.4 1112.41 487.4C1113.57 487.4 1114.53 486.44 1114.53 485.28C1114.53 484.12 1113.57 483.16 1112.41 483.16C1111.25 483.16 1110.29 484.12 1110.29 485.28Z" fill="black"/>
<g id="&#206;&#181;">
<path id="&#206;&#181;_2" d="M635.92 561.16C635.92 558.92 637.24 557.6 639.48 557.6C639.84 557.6 641.2 557.84 641.52 557.84C642.44 557.84 642.72 557.4 642.72 556.92C642.72 556.44 642.32 556.08 641.56 556.08C641.36 556.08 639.56 556.28 639.52 556.28C637.8 556.28 636.36 555.4 636.36 552.64C636.36 550 638.16 549.76 639.4 549.76C640.96 549.76 641.64 550.6 642.08 551.48C642.48 552.16 642.88 552.8 643.76 552.8C644.28 552.8 645.04 552.48 645.04 551.32C645.04 549.88 642.72 548.44 639.64 548.44C634.92 548.44 633.52 551.32 633.52 552.92C633.52 554.84 634.56 556 636.4 556.76V556.84C633.52 557.84 632.76 559.96 632.76 561.48C632.76 563.8 634.08 566.4 639.36 566.4C641.88 566.4 644.04 565.24 645.36 564C645.36 563.56 645.12 563.28 644.76 563.16C643.2 564.24 641.68 564.88 639.8 564.88C637.6 564.88 635.92 563.28 635.92 561.16Z" fill="black"/>
<path id="0" d="M380.12 671.4C383.2 671.4 387.88 668.28 387.88 658.88C387.88 654.92 386.92 651.52 385.16 649.2C384.12 647.8 382.44 646.6 380.28 646.6C376.32 646.6 372.56 651.32 372.56 659.24C372.56 663.52 373.88 667.52 376.08 669.72C377.2 670.84 378.56 671.4 380.12 671.4ZM380.28 648C380.96 648 381.6 648.24 382.08 648.68C383.32 649.72 384.4 652.76 384.4 658.12C384.4 661.8 384.28 664.32 383.72 666.36C382.84 669.64 380.88 670 380.16 670C376.44 670 376.04 663.16 376.04 659.68C376.04 649.84 378.48 648 380.28 648Z" fill="black"/>
<path id="00" d="M239.12 813.4C242.2 813.4 246.88 810.28 246.88 800.88C246.88 796.92 245.92 793.52 244.16 791.2C243.12 789.8 241.44 788.6 239.28 788.6C235.32 788.6 231.56 793.32 231.56 801.24C231.56 805.52 232.88 809.52 235.08 811.72C236.2 812.84 237.56 813.4 239.12 813.4ZM239.28 790C239.96 790 240.6 790.24 241.08 790.68C242.32 791.72 243.4 794.76 243.4 800.12C243.4 803.8 243.28 806.32 242.72 808.36C241.84 811.64 239.88 812 239.16 812C235.44 812 235.04 805.16 235.04 801.68C235.04 791.84 237.48 790 239.28 790ZM257.714 813.4C260.794 813.4 265.474 810.28 265.474 800.88C265.474 796.92 264.514 793.52 262.754 791.2C261.714 789.8 260.034 788.6 257.874 788.6C253.914 788.6 250.154 793.32 250.154 801.24C250.154 805.52 251.474 809.52 253.674 811.72C254.794 812.84 256.154 813.4 257.714 813.4ZM257.874 790C258.554 790 259.194 790.24 259.674 790.68C260.914 791.72 261.994 794.76 261.994 800.12C261.994 803.8 261.874 806.32 261.314 808.36C260.434 811.64 258.474 812 257.754 812C254.034 812 253.634 805.16 253.634 801.68C253.634 791.84 256.074 790 257.874 790Z" fill="black"/>
<path id="000" d="M158.12 968.4C161.2 968.4 165.88 965.28 165.88 955.88C165.88 951.92 164.92 948.52 163.16 946.2C162.12 944.8 160.44 943.6 158.28 943.6C154.32 943.6 150.56 948.32 150.56 956.24C150.56 960.52 151.88 964.52 154.08 966.72C155.2 967.84 156.56 968.4 158.12 968.4ZM158.28 945C158.96 945 159.6 945.24 160.08 945.68C161.32 946.72 162.4 949.76 162.4 955.12C162.4 958.8 162.28 961.32 161.72 963.36C160.84 966.64 158.88 967 158.16 967C154.44 967 154.04 960.16 154.04 956.68C154.04 946.84 156.48 945 158.28 945ZM176.714 968.4C179.794 968.4 184.474 965.28 184.474 955.88C184.474 951.92 183.514 948.52 181.754 946.2C180.714 944.8 179.034 943.6 176.874 943.6C172.914 943.6 169.154 948.32 169.154 956.24C169.154 960.52 170.474 964.52 172.674 966.72C173.794 967.84 175.154 968.4 176.714 968.4ZM176.874 945C177.554 945 178.194 945.24 178.674 945.68C179.914 946.72 180.994 949.76 180.994 955.12C180.994 958.8 180.874 961.32 180.314 963.36C179.434 966.64 177.474 967 176.754 967C173.034 967 172.634 960.16 172.634 956.68C172.634 946.84 175.074 945 176.874 945ZM195.308 968.4C198.388 968.4 203.068 965.28 203.068 955.88C203.068 951.92 202.108 948.52 200.348 946.2C199.308 944.8 197.628 943.6 195.468 943.6C191.508 943.6 187.748 948.32 187.748 956.24C187.748 960.52 189.068 964.52 191.268 966.72C192.388 967.84 193.748 968.4 195.308 968.4ZM195.468 945C196.148 945 196.788 945.24 197.268 945.68C198.508 946.72 199.588 949.76 199.588 955.12C199.588 958.8 199.468 961.32 198.908 963.36C198.028 966.64 196.068 967 195.348 967C191.628 967 191.228 960.16 191.228 956.68C191.228 946.84 193.668 945 195.468 945Z" fill="black"/>
<path id="100" d="M698.52 963.12V949.24C698.52 946.84 698.56 944.4 698.64 943.88C698.64 943.68 698.56 943.68 698.4 943.68C696.2 945.04 694.08 946.04 690.56 947.68C690.64 948.12 690.8 948.52 691.16 948.76C693 948 693.88 947.76 694.64 947.76C695.32 947.76 695.44 948.72 695.44 950.08V963.12C695.44 966.44 694.36 966.64 691.56 966.76C691.32 967 691.32 967.84 691.56 968.08C693.52 968.04 694.96 968 697.12 968C699.04 968 700 968.04 702 968.08C702.24 967.84 702.24 967 702 966.76C699.2 966.64 698.52 966.44 698.52 963.12ZM714.714 968.4C717.794 968.4 722.474 965.28 722.474 955.88C722.474 951.92 721.514 948.52 719.754 946.2C718.714 944.8 717.034 943.6 714.874 943.6C710.914 943.6 707.154 948.32 707.154 956.24C707.154 960.52 708.474 964.52 710.674 966.72C711.794 967.84 713.154 968.4 714.714 968.4ZM714.874 945C715.554 945 716.194 945.24 716.674 945.68C717.914 946.72 718.994 949.76 718.994 955.12C718.994 958.8 718.874 961.32 718.314 963.36C717.434 966.64 715.474 967 714.754 967C711.034 967 710.634 960.16 710.634 956.68C710.634 946.84 713.074 945 714.874 945ZM733.308 968.4C736.388 968.4 741.068 965.28 741.068 955.88C741.068 951.92 740.108 948.52 738.348 946.2C737.308 944.8 735.628 943.6 733.468 943.6C729.508 943.6 725.748 948.32 725.748 956.24C725.748 960.52 727.068 964.52 729.268 966.72C730.388 967.84 731.748 968.4 733.308 968.4ZM733.468 945C734.148 945 734.788 945.24 735.268 945.68C736.508 946.72 737.588 949.76 737.588 955.12C737.588 958.8 737.468 961.32 736.908 963.36C736.028 966.64 734.068 967 733.348 967C729.628 967 729.228 960.16 729.228 956.68C729.228 946.84 731.668 945 733.468 945Z" fill="black"/>
<path id="010" d="M416.12 968.4C419.2 968.4 423.88 965.28 423.88 955.88C423.88 951.92 422.92 948.52 421.16 946.2C420.12 944.8 418.44 943.6 416.28 943.6C412.32 943.6 408.56 948.32 408.56 956.24C408.56 960.52 409.88 964.52 412.08 966.72C413.2 967.84 414.56 968.4 416.12 968.4ZM416.28 945C416.96 945 417.6 945.24 418.08 945.68C419.32 946.72 420.4 949.76 420.4 955.12C420.4 958.8 420.28 961.32 419.72 963.36C418.84 966.64 416.88 967 416.16 967C412.44 967 412.04 960.16 412.04 956.68C412.04 946.84 414.48 945 416.28 945ZM437.114 963.12V949.24C437.114 946.84 437.154 944.4 437.234 943.88C437.234 943.68 437.154 943.68 436.994 943.68C434.794 945.04 432.674 946.04 429.154 947.68C429.234 948.12 429.394 948.52 429.754 948.76C431.594 948 432.474 947.76 433.234 947.76C433.914 947.76 434.034 948.72 434.034 950.08V963.12C434.034 966.44 432.954 966.64 430.154 966.76C429.914 967 429.914 967.84 430.154 968.08C432.114 968.04 433.554 968 435.714 968C437.634 968 438.594 968.04 440.594 968.08C440.834 967.84 440.834 967 440.594 966.76C437.794 966.64 437.114 966.44 437.114 963.12ZM453.308 968.4C456.388 968.4 461.068 965.28 461.068 955.88C461.068 951.92 460.108 948.52 458.348 946.2C457.308 944.8 455.628 943.6 453.468 943.6C449.508 943.6 445.748 948.32 445.748 956.24C445.748 960.52 447.068 964.52 449.268 966.72C450.388 967.84 451.748 968.4 453.308 968.4ZM453.468 945C454.148 945 454.788 945.24 455.268 945.68C456.508 946.72 457.588 949.76 457.588 955.12C457.588 958.8 457.468 961.32 456.908 963.36C456.028 966.64 454.068 967 453.348 967C449.628 967 449.228 960.16 449.228 956.68C449.228 946.84 451.668 945 453.468 945Z" fill="black"/>
<path id="110" d="M956.52 963.12V949.24C956.52 946.84 956.56 944.4 956.64 943.88C956.64 943.68 956.56 943.68 956.4 943.68C954.2 945.04 952.08 946.04 948.56 947.68C948.64 948.12 948.8 948.52 949.16 948.76C951 948 951.88 947.76 952.64 947.76C953.32 947.76 953.44 948.72 953.44 950.08V963.12C953.44 966.44 952.36 966.64 949.56 966.76C949.32 967 949.32 967.84 949.56 968.08C951.52 968.04 952.96 968 955.12 968C957.04 968 958 968.04 960 968.08C960.24 967.84 960.24 967 960 966.76C957.2 966.64 956.52 966.44 956.52 963.12ZM975.114 963.12V949.24C975.114 946.84 975.154 944.4 975.234 943.88C975.234 943.68 975.154 943.68 974.994 943.68C972.794 945.04 970.674 946.04 967.154 947.68C967.234 948.12 967.394 948.52 967.754 948.76C969.594 948 970.474 947.76 971.234 947.76C971.914 947.76 972.034 948.72 972.034 950.08V963.12C972.034 966.44 970.954 966.64 968.154 966.76C967.914 967 967.914 967.84 968.154 968.08C970.114 968.04 971.554 968 973.714 968C975.634 968 976.594 968.04 978.594 968.08C978.834 967.84 978.834 967 978.594 966.76C975.794 966.64 975.114 966.44 975.114 963.12ZM991.308 968.4C994.388 968.4 999.068 965.28 999.068 955.88C999.068 951.92 998.108 948.52 996.348 946.2C995.308 944.8 993.628 943.6 991.468 943.6C987.508 943.6 983.748 948.32 983.748 956.24C983.748 960.52 985.068 964.52 987.268 966.72C988.388 967.84 989.748 968.4 991.308 968.4ZM991.468 945C992.148 945 992.788 945.24 993.268 945.68C994.508 946.72 995.588 949.76 995.588 955.12C995.588 958.8 995.468 961.32 994.908 963.36C994.028 966.64 992.068 967 991.348 967C987.628 967 987.228 960.16 987.228 956.68C987.228 946.84 989.668 945 991.468 945Z" fill="black"/>
<path id="10" d="M766.52 808.12V794.24C766.52 791.84 766.56 789.4 766.64 788.88C766.64 788.68 766.56 788.68 766.4 788.68C764.2 790.04 762.08 791.04 758.56 792.68C758.64 793.12 758.8 793.52 759.16 793.76C761 793 761.88 792.76 762.64 792.76C763.32 792.76 763.44 793.72 763.44 795.08V808.12C763.44 811.44 762.36 811.64 759.56 811.76C759.32 812 759.32 812.84 759.56 813.08C761.52 813.04 762.96 813 765.12 813C767.04 813 768 813.04 770 813.08C770.24 812.84 770.24 812 770 811.76C767.2 811.64 766.52 811.44 766.52 808.12ZM782.714 813.4C785.794 813.4 790.474 810.28 790.474 800.88C790.474 796.92 789.514 793.52 787.754 791.2C786.714 789.8 785.034 788.6 782.874 788.6C778.914 788.6 775.154 793.32 775.154 801.24C775.154 805.52 776.474 809.52 778.674 811.72C779.794 812.84 781.154 813.4 782.714 813.4ZM782.874 790C783.554 790 784.194 790.24 784.674 790.68C785.914 791.72 786.994 794.76 786.994 800.12C786.994 803.8 786.874 806.32 786.314 808.36C785.434 811.64 783.474 812 782.754 812C779.034 812 778.634 805.16 778.634 801.68C778.634 791.84 781.074 790 782.874 790Z" fill="black"/>
<path id="1" d="M911.52 666.12V652.24C911.52 649.84 911.56 647.4 911.64 646.88C911.64 646.68 911.56 646.68 911.4 646.68C909.2 648.04 907.08 649.04 903.56 650.68C903.64 651.12 903.8 651.52 904.16 651.76C906 651 906.88 650.76 907.64 650.76C908.32 650.76 908.44 651.72 908.44 653.08V666.12C908.44 669.44 907.36 669.64 904.56 669.76C904.32 670 904.32 670.84 904.56 671.08C906.52 671.04 907.96 671 910.12 671C912.04 671 913 671.04 915 671.08C915.24 670.84 915.24 670 915 669.76C912.2 669.64 911.52 669.44 911.52 666.12Z" fill="black"/>
<path id="01" d="M497.12 813.4C500.2 813.4 504.88 810.28 504.88 800.88C504.88 796.92 503.92 793.52 502.16 791.2C501.12 789.8 499.44 788.6 497.28 788.6C493.32 788.6 489.56 793.32 489.56 801.24C489.56 805.52 490.88 809.52 493.08 811.72C494.2 812.84 495.56 813.4 497.12 813.4ZM497.28 790C497.96 790 498.6 790.24 499.08 790.68C500.32 791.72 501.4 794.76 501.4 800.12C501.4 803.8 501.28 806.32 500.72 808.36C499.84 811.64 497.88 812 497.16 812C493.44 812 493.04 805.16 493.04 801.68C493.04 791.84 495.48 790 497.28 790ZM518.114 808.12V794.24C518.114 791.84 518.154 789.4 518.234 788.88C518.234 788.68 518.154 788.68 517.994 788.68C515.794 790.04 513.674 791.04 510.154 792.68C510.234 793.12 510.394 793.52 510.754 793.76C512.594 793 513.474 792.76 514.234 792.76C514.914 792.76 515.034 793.72 515.034 795.08V808.12C515.034 811.44 513.954 811.64 511.154 811.76C510.914 812 510.914 812.84 511.154 813.08C513.114 813.04 514.554 813 516.714 813C518.634 813 519.594 813.04 521.594 813.08C521.834 812.84 521.834 812 521.594 811.76C518.794 811.64 518.114 811.44 518.114 808.12Z" fill="black"/>
<path id="001" d="M287.12 968.4C290.2 968.4 294.88 965.28 294.88 955.88C294.88 951.92 293.92 948.52 292.16 946.2C291.12 944.8 289.44 943.6 287.28 943.6C283.32 943.6 279.56 948.32 279.56 956.24C279.56 960.52 280.88 964.52 283.08 966.72C284.2 967.84 285.56 968.4 287.12 968.4ZM287.28 945C287.96 945 288.6 945.24 289.08 945.68C290.32 946.72 291.4 949.76 291.4 955.12C291.4 958.8 291.28 961.32 290.72 963.36C289.84 966.64 287.88 967 287.16 967C283.44 967 283.04 960.16 283.04 956.68C283.04 946.84 285.48 945 287.28 945ZM305.714 968.4C308.794 968.4 313.474 965.28 313.474 955.88C313.474 951.92 312.514 948.52 310.754 946.2C309.714 944.8 308.034 943.6 305.874 943.6C301.914 943.6 298.154 948.32 298.154 956.24C298.154 960.52 299.474 964.52 301.674 966.72C302.794 967.84 304.154 968.4 305.714 968.4ZM305.874 945C306.554 945 307.194 945.24 307.674 945.68C308.914 946.72 309.994 949.76 309.994 955.12C309.994 958.8 309.874 961.32 309.314 963.36C308.434 966.64 306.474 967 305.754 967C302.034 967 301.634 960.16 301.634 956.68C301.634 946.84 304.074 945 305.874 945ZM326.708 963.12V949.24C326.708 946.84 326.748 944.4 326.828 943.88C326.828 943.68 326.748 943.68 326.588 943.68C324.388 945.04 322.268 946.04 318.748 947.68C318.828 948.12 318.988 948.52 319.348 948.76C321.188 948 322.068 947.76 322.828 947.76C323.508 947.76 323.628 948.72 323.628 950.08V963.12C323.628 966.44 322.548 966.64 319.748 966.76C319.508 967 319.508 967.84 319.748 968.08C321.708 968.04 323.148 968 325.308 968C327.228 968 328.188 968.04 330.188 968.08C330.428 967.84 330.428 967 330.188 966.76C327.388 966.64 326.708 966.44 326.708 963.12Z" fill="black"/>
<path id="101" d="M827.52 963.12V949.24C827.52 946.84 827.56 944.4 827.64 943.88C827.64 943.68 827.56 943.68 827.4 943.68C825.2 945.04 823.08 946.04 819.56 947.68C819.64 948.12 819.8 948.52 820.16 948.76C822 948 822.88 947.76 823.64 947.76C824.32 947.76 824.44 948.72 824.44 950.08V963.12C824.44 966.44 823.36 966.64 820.56 966.76C820.32 967 820.32 967.84 820.56 968.08C822.52 968.04 823.96 968 826.12 968C828.04 968 829 968.04 831 968.08C831.24 967.84 831.24 967 831 966.76C828.2 966.64 827.52 966.44 827.52 963.12ZM843.714 968.4C846.794 968.4 851.474 965.28 851.474 955.88C851.474 951.92 850.514 948.52 848.754 946.2C847.714 944.8 846.034 943.6 843.874 943.6C839.914 943.6 836.154 948.32 836.154 956.24C836.154 960.52 837.474 964.52 839.674 966.72C840.794 967.84 842.154 968.4 843.714 968.4ZM843.874 945C844.554 945 845.194 945.24 845.674 945.68C846.914 946.72 847.994 949.76 847.994 955.12C847.994 958.8 847.874 961.32 847.314 963.36C846.434 966.64 844.474 967 843.754 967C840.034 967 839.634 960.16 839.634 956.68C839.634 946.84 842.074 945 843.874 945ZM864.708 963.12V949.24C864.708 946.84 864.748 944.4 864.828 943.88C864.828 943.68 864.748 943.68 864.588 943.68C862.388 945.04 860.268 946.04 856.748 947.68C856.828 948.12 856.988 948.52 857.348 948.76C859.188 948 860.068 947.76 860.828 947.76C861.508 947.76 861.628 948.72 861.628 950.08V963.12C861.628 966.44 860.548 966.64 857.748 966.76C857.508 967 857.508 967.84 857.748 968.08C859.708 968.04 861.148 968 863.308 968C865.228 968 866.188 968.04 868.188 968.08C868.428 967.84 868.428 967 868.188 966.76C865.388 966.64 864.708 966.44 864.708 963.12Z" fill="black"/>
<path id="011" d="M545.12 968.4C548.2 968.4 552.88 965.28 552.88 955.88C552.88 951.92 551.92 948.52 550.16 946.2C549.12 944.8 547.44 943.6 545.28 943.6C541.32 943.6 537.56 948.32 537.56 956.24C537.56 960.52 538.88 964.52 541.08 966.72C542.2 967.84 543.56 968.4 545.12 968.4ZM545.28 945C545.96 945 546.6 945.24 547.08 945.68C548.32 946.72 549.4 949.76 549.4 955.12C549.4 958.8 549.28 961.32 548.72 963.36C547.84 966.64 545.88 967 545.16 967C541.44 967 541.04 960.16 541.04 956.68C541.04 946.84 543.48 945 545.28 945ZM566.114 963.12V949.24C566.114 946.84 566.154 944.4 566.234 943.88C566.234 943.68 566.154 943.68 565.994 943.68C563.794 945.04 561.674 946.04 558.154 947.68C558.234 948.12 558.394 948.52 558.754 948.76C560.594 948 561.474 947.76 562.234 947.76C562.914 947.76 563.034 948.72 563.034 950.08V963.12C563.034 966.44 561.954 966.64 559.154 966.76C558.914 967 558.914 967.84 559.154 968.08C561.114 968.04 562.554 968 564.714 968C566.634 968 567.594 968.04 569.594 968.08C569.834 967.84 569.834 967 569.594 966.76C566.794 966.64 566.114 966.44 566.114 963.12ZM584.708 963.12V949.24C584.708 946.84 584.748 944.4 584.828 943.88C584.828 943.68 584.748 943.68 584.588 943.68C582.388 945.04 580.268 946.04 576.748 947.68C576.828 948.12 576.988 948.52 577.348 948.76C579.188 948 580.068 947.76 580.828 947.76C581.508 947.76 581.628 948.72 581.628 950.08V963.12C581.628 966.44 580.548 966.64 577.748 966.76C577.508 967 577.508 967.84 577.748 968.08C579.708 968.04 581.148 968 583.308 968C585.228 968 586.188 968.04 588.188 968.08C588.428 967.84 588.428 967 588.188 966.76C585.388 966.64 584.708 966.44 584.708 963.12Z" fill="black"/>
<path id="111" d="M1085.52 963.12V949.24C1085.52 946.84 1085.56 944.4 1085.64 943.88C1085.64 943.68 1085.56 943.68 1085.4 943.68C1083.2 945.04 1081.08 946.04 1077.56 947.68C1077.64 948.12 1077.8 948.52 1078.16 948.76C1080 948 1080.88 947.76 1081.64 947.76C1082.32 947.76 1082.44 948.72 1082.44 950.08V963.12C1082.44 966.44 1081.36 966.64 1078.56 966.76C1078.32 967 1078.32 967.84 1078.56 968.08C1080.52 968.04 1081.96 968 1084.12 968C1086.04 968 1087 968.04 1089 968.08C1089.24 967.84 1089.24 967 1089 966.76C1086.2 966.64 1085.52 966.44 1085.52 963.12ZM1104.11 963.12V949.24C1104.11 946.84 1104.15 944.4 1104.23 943.88C1104.23 943.68 1104.15 943.68 1103.99 943.68C1101.79 945.04 1099.67 946.04 1096.15 947.68C1096.23 948.12 1096.39 948.52 1096.75 948.76C1098.59 948 1099.47 947.76 1100.23 947.76C1100.91 947.76 1101.03 948.72 1101.03 950.08V963.12C1101.03 966.44 1099.95 966.64 1097.15 966.76C1096.91 967 1096.91 967.84 1097.15 968.08C1099.11 968.04 1100.55 968 1102.71 968C1104.63 968 1105.59 968.04 1107.59 968.08C1107.83 967.84 1107.83 967 1107.59 966.76C1104.79 966.64 1104.11 966.44 1104.11 963.12ZM1122.71 963.12V949.24C1122.71 946.84 1122.75 944.4 1122.83 943.88C1122.83 943.68 1122.75 943.68 1122.59 943.68C1120.39 945.04 1118.27 946.04 1114.75 947.68C1114.83 948.12 1114.99 948.52 1115.35 948.76C1117.19 948 1118.07 947.76 1118.83 947.76C1119.51 947.76 1119.63 948.72 1119.63 950.08V963.12C1119.63 966.44 1118.55 966.64 1115.75 966.76C1115.51 967 1115.51 967.84 1115.75 968.08C1117.71 968.04 1119.15 968 1121.31 968C1123.23 968 1124.19 968.04 1126.19 968.08C1126.43 967.84 1126.43 967 1126.19 966.76C1123.39 966.64 1122.71 966.44 1122.71 963.12Z" fill="black"/>
<path id="11" d="M1024.52 808.12V794.24C1024.52 791.84 1024.56 789.4 1024.64 788.88C1024.64 788.68 1024.56 788.68 1024.4 788.68C1022.2 790.04 1020.08 791.04 1016.56 792.68C1016.64 793.12 1016.8 793.52 1017.16 793.76C1019 793 1019.88 792.76 1020.64 792.76C1021.32 792.76 1021.44 793.72 1021.44 795.08V808.12C1021.44 811.44 1020.36 811.64 1017.56 811.76C1017.32 812 1017.32 812.84 1017.56 813.08C1019.52 813.04 1020.96 813 1023.12 813C1025.04 813 1026 813.04 1028 813.08C1028.24 812.84 1028.24 812 1028 811.76C1025.2 811.64 1024.52 811.44 1024.52 808.12ZM1043.11 808.12V794.24C1043.11 791.84 1043.15 789.4 1043.23 788.88C1043.23 788.68 1043.15 788.68 1042.99 788.68C1040.79 790.04 1038.67 791.04 1035.15 792.68C1035.23 793.12 1035.39 793.52 1035.75 793.76C1037.59 793 1038.47 792.76 1039.23 792.76C1039.91 792.76 1040.03 793.72 1040.03 795.08V808.12C1040.03 811.44 1038.95 811.64 1036.15 811.76C1035.91 812 1035.91 812.84 1036.15 813.08C1038.11 813.04 1039.55 813 1041.71 813C1043.63 813 1044.59 813.04 1046.59 813.08C1046.83 812.84 1046.83 812 1046.59 811.76C1043.79 811.64 1043.11 811.44 1043.11 808.12Z" fill="black"/>
<line id="Line 17" x1="389.859" y1="643.52" x2="630.859" y2="572.52" stroke="black"/>
<line id="Line 18" x1="646.128" y1="572.517" x2="900.128" y2="639.517" stroke="black"/>
<line id="Line 19" x1="371.324" y1="676.381" x2="257.324" y2="773.381" stroke="black"/>
<line id="Line 23" x1="242.457" y1="826.202" x2="193.457" y2="937.202" stroke="black"/>
<line id="Line 35" x1="1037.46" y1="822.803" x2="1086.46" y2="936.803" stroke="black"/>
<line id="Line 25" x1="495.459" y1="823.197" x2="446.459" y2="937.197" stroke="black"/>
<line id="Line 40" x1="785.461" y1="822.806" x2="833.461" y2="936.806" stroke="black"/>
<line id="Line 20" x1="506.673" y1="777.378" x2="389.673" y2="676.378" stroke="black"/>
<line id="Line 24" x1="305.545" y1="937.208" x2="256.545" y2="830.208" stroke="black"/>
<line id="Line 41" x1="957.573" y1="936.74" x2="1022.57" y2="829.74" stroke="black"/>
<line id="Line 26" x1="565.556" y1="932.23" x2="510.556" y2="826.23" stroke="black"/>
<line id="Line 46" x1="712.565" y1="931.754" x2="772.565" y2="825.754" stroke="black"/>
<line id="Line 21" x1="905.322" y1="676.383" x2="785.322" y2="777.383" stroke="black"/>
<line id="Line 22" x1="910.311" y1="675.609" x2="1037.31" y2="776.609" stroke="black"/>
</g>
</g>
</g>
<defs>
<clipPath id="clip0">
<rect width="1280" height="960" fill="white"/>
</clipPath>
</defs>
</svg>
