<svg width="1024" height="769" viewBox="0 0 1024 769" fill="none" xmlns="http://www.w3.org/2000/svg">
<g id="new slide">
<rect width="1024" height="768" transform="translate(0 0.599976)" fill="white"/>
<rect id="o_niewa_C5_BCno_C5_9Bci" opacity="0.5" x="512" y="312" width="492" height="369" fill="#FF0000"/>
<rect id="o_wa_C5_BCno_C5_9Bci" opacity="0.5" x="31" y="312" width="437" height="328" fill="#FF0000"/>
<path id="Referat Emilki o interfejsach" d="M88.5957 96.7441H78.5762V114H72.9219V71.3438H87.043C91.8477 71.3438 95.5391 72.4375 98.1172 74.625C100.715 76.8125 102.014 79.9961 102.014 84.1758C102.014 86.832 101.291 89.1465 99.8457 91.1191C98.4199 93.0918 96.4277 94.5664 93.8691 95.543L103.889 113.648V114H97.8535L88.5957 96.7441ZM78.5762 92.1445H87.2188C90.0117 92.1445 92.2285 91.4219 93.8691 89.9766C95.5293 88.5312 96.3594 86.5977 96.3594 84.1758C96.3594 81.5391 95.5684 79.5176 93.9863 78.1113C92.4238 76.7051 90.1582 75.9922 87.1895 75.9727H78.5762V92.1445ZM122.229 114.586C117.932 114.586 114.436 113.18 111.74 110.367C109.045 107.535 107.697 103.756 107.697 99.0293V98.0332C107.697 94.8887 108.293 92.0859 109.484 89.625C110.695 87.1445 112.375 85.2109 114.523 83.8242C116.691 82.418 119.035 81.7148 121.555 81.7148C125.676 81.7148 128.879 83.0723 131.164 85.7871C133.449 88.502 134.592 92.3887 134.592 97.4473V99.7031H113.117C113.195 102.828 114.104 105.357 115.842 107.291C117.6 109.205 119.826 110.162 122.521 110.162C124.436 110.162 126.057 109.771 127.385 108.99C128.713 108.209 129.875 107.174 130.871 105.885L134.182 108.463C131.525 112.545 127.541 114.586 122.229 114.586ZM121.555 86.168C119.367 86.168 117.531 86.9688 116.047 88.5703C114.562 90.1523 113.645 92.3789 113.293 95.25H129.172V94.8398C129.016 92.0859 128.273 89.957 126.945 88.4531C125.617 86.9297 123.82 86.168 121.555 86.168ZM143.557 114V86.4902H138.547V82.3008H143.557V79.0488C143.557 75.6504 144.465 73.0234 146.281 71.168C148.098 69.3125 150.666 68.3848 153.986 68.3848C155.236 68.3848 156.477 68.5508 157.707 68.8828L157.414 73.2773C156.496 73.1016 155.52 73.0137 154.484 73.0137C152.727 73.0137 151.369 73.5312 150.412 74.5664C149.455 75.582 148.977 77.0469 148.977 78.9609V82.3008H155.744V86.4902H148.977V114H143.557ZM174.201 114.586C169.904 114.586 166.408 113.18 163.713 110.367C161.018 107.535 159.67 103.756 159.67 99.0293V98.0332C159.67 94.8887 160.266 92.0859 161.457 89.625C162.668 87.1445 164.348 85.2109 166.496 83.8242C168.664 82.418 171.008 81.7148 173.527 81.7148C177.648 81.7148 180.852 83.0723 183.137 85.7871C185.422 88.502 186.564 92.3887 186.564 97.4473V99.7031H165.09C165.168 102.828 166.076 105.357 167.814 107.291C169.572 109.205 171.799 110.162 174.494 110.162C176.408 110.162 178.029 109.771 179.357 108.99C180.686 108.209 181.848 107.174 182.844 105.885L186.154 108.463C183.498 112.545 179.514 114.586 174.201 114.586ZM173.527 86.168C171.34 86.168 169.504 86.9688 168.02 88.5703C166.535 90.1523 165.617 92.3789 165.266 95.25H181.145V94.8398C180.988 92.0859 180.246 89.957 178.918 88.4531C177.59 86.9297 175.793 86.168 173.527 86.168ZM208.186 87.1641C207.365 87.0273 206.477 86.959 205.52 86.959C201.965 86.959 199.553 88.4727 198.283 91.5V114H192.863V82.3008H198.137L198.225 85.9629C200.002 83.1309 202.521 81.7148 205.783 81.7148C206.838 81.7148 207.639 81.8516 208.186 82.125V87.1641ZM231.594 114C231.281 113.375 231.027 112.262 230.832 110.66C228.312 113.277 225.305 114.586 221.809 114.586C218.684 114.586 216.115 113.707 214.104 111.949C212.111 110.172 211.115 107.926 211.115 105.211C211.115 101.91 212.365 99.3516 214.865 97.5352C217.385 95.6992 220.92 94.7812 225.471 94.7812H230.744V92.291C230.744 90.3965 230.178 88.8926 229.045 87.7793C227.912 86.6465 226.242 86.0801 224.035 86.0801C222.102 86.0801 220.48 86.5684 219.172 87.5449C217.863 88.5215 217.209 89.7031 217.209 91.0898H211.76C211.76 89.5078 212.316 87.9844 213.43 86.5195C214.562 85.0352 216.086 83.8633 218 83.0039C219.934 82.1445 222.053 81.7148 224.357 81.7148C228.01 81.7148 230.871 82.6328 232.941 84.4688C235.012 86.2852 236.086 88.7949 236.164 91.998V106.588C236.164 109.498 236.535 111.812 237.277 113.531V114H231.594ZM222.6 109.869C224.299 109.869 225.91 109.43 227.434 108.551C228.957 107.672 230.061 106.529 230.744 105.123V98.6191H226.496C219.855 98.6191 216.535 100.562 216.535 104.449C216.535 106.148 217.102 107.477 218.234 108.434C219.367 109.391 220.822 109.869 222.6 109.869ZM252.014 74.625V82.3008H257.932V86.4902H252.014V106.148C252.014 107.418 252.277 108.375 252.805 109.02C253.332 109.645 254.23 109.957 255.5 109.957C256.125 109.957 256.984 109.84 258.078 109.605V114C256.652 114.391 255.266 114.586 253.918 114.586C251.496 114.586 249.67 113.854 248.439 112.389C247.209 110.924 246.594 108.844 246.594 106.148V86.4902H240.822V82.3008H246.594V74.625H252.014ZM304.133 94.2832H285.646V109.4H307.121V114H280.021V71.3438H306.828V75.9727H285.646V89.6836H304.133V94.2832ZM318.371 82.3008L318.518 85.8164C320.842 83.082 323.977 81.7148 327.922 81.7148C332.355 81.7148 335.373 83.4141 336.975 86.8125C338.029 85.2891 339.396 84.0586 341.076 83.1211C342.775 82.1836 344.777 81.7148 347.082 81.7148C354.035 81.7148 357.57 85.3965 357.688 92.7598V114H352.268V93.082C352.268 90.8164 351.75 89.127 350.715 88.0137C349.68 86.8809 347.941 86.3145 345.5 86.3145C343.488 86.3145 341.818 86.9199 340.49 88.1309C339.162 89.3223 338.391 90.9336 338.176 92.9648V114H332.727V93.2285C332.727 88.6191 330.471 86.3145 325.959 86.3145C322.404 86.3145 319.973 87.8281 318.664 90.8555V114H313.244V82.3008H318.371ZM371.779 114H366.359V82.3008H371.779V114ZM365.92 73.8926C365.92 73.0137 366.184 72.2715 366.711 71.666C367.258 71.0605 368.059 70.7578 369.113 70.7578C370.168 70.7578 370.969 71.0605 371.516 71.666C372.062 72.2715 372.336 73.0137 372.336 73.8926C372.336 74.7715 372.062 75.5039 371.516 76.0898C370.969 76.6758 370.168 76.9688 369.113 76.9688C368.059 76.9688 367.258 76.6758 366.711 76.0898C366.184 75.5039 365.92 74.7715 365.92 73.8926ZM386.369 114H380.949V69H386.369V114ZM403.918 99.3223L400.52 102.867V114H395.1V69H400.52V96.2168L403.42 92.7305L413.293 82.3008H419.885L407.551 95.543L421.32 114H414.963L403.918 99.3223ZM431.369 114H425.949V82.3008H431.369V114ZM425.51 73.8926C425.51 73.0137 425.773 72.2715 426.301 71.666C426.848 71.0605 427.648 70.7578 428.703 70.7578C429.758 70.7578 430.559 71.0605 431.105 71.666C431.652 72.2715 431.926 73.0137 431.926 73.8926C431.926 74.7715 431.652 75.5039 431.105 76.0898C430.559 76.6758 429.758 76.9688 428.703 76.9688C427.648 76.9688 426.848 76.6758 426.301 76.0898C425.773 75.5039 425.51 74.7715 425.51 73.8926ZM453.518 97.8574C453.518 94.752 454.123 91.959 455.334 89.4785C456.564 86.998 458.264 85.084 460.432 83.7363C462.619 82.3887 465.109 81.7148 467.902 81.7148C472.219 81.7148 475.705 83.209 478.361 86.1973C481.037 89.1855 482.375 93.1602 482.375 98.1211V98.502C482.375 101.588 481.779 104.361 480.588 106.822C479.416 109.264 477.727 111.168 475.52 112.535C473.332 113.902 470.812 114.586 467.961 114.586C463.664 114.586 460.178 113.092 457.502 110.104C454.846 107.115 453.518 103.16 453.518 98.2383V97.8574ZM458.967 98.502C458.967 102.018 459.777 104.84 461.398 106.969C463.039 109.098 465.227 110.162 467.961 110.162C470.715 110.162 472.902 109.088 474.523 106.939C476.145 104.771 476.955 101.744 476.955 97.8574C476.955 94.3809 476.125 91.5684 474.465 89.4199C472.824 87.252 470.637 86.168 467.902 86.168C465.227 86.168 463.068 87.2324 461.428 89.3613C459.787 91.4902 458.967 94.5371 458.967 98.502ZM509.943 114H504.523V82.3008H509.943V114ZM504.084 73.8926C504.084 73.0137 504.348 72.2715 504.875 71.666C505.422 71.0605 506.223 70.7578 507.277 70.7578C508.332 70.7578 509.133 71.0605 509.68 71.666C510.227 72.2715 510.5 73.0137 510.5 73.8926C510.5 74.7715 510.227 75.5039 509.68 76.0898C509.133 76.6758 508.332 76.9688 507.277 76.9688C506.223 76.9688 505.422 76.6758 504.875 76.0898C504.348 75.5039 504.084 74.7715 504.084 73.8926ZM523.771 82.3008L523.947 86.2852C526.369 83.2383 529.533 81.7148 533.439 81.7148C540.139 81.7148 543.518 85.4941 543.576 93.0527V114H538.156V93.0234C538.137 90.7383 537.609 89.0488 536.574 87.9551C535.559 86.8613 533.967 86.3145 531.799 86.3145C530.041 86.3145 528.498 86.7832 527.17 87.7207C525.842 88.6582 524.807 89.8887 524.064 91.4121V114H518.645V82.3008H523.771ZM559.104 74.625V82.3008H565.021V86.4902H559.104V106.148C559.104 107.418 559.367 108.375 559.895 109.02C560.422 109.645 561.32 109.957 562.59 109.957C563.215 109.957 564.074 109.84 565.168 109.605V114C563.742 114.391 562.355 114.586 561.008 114.586C558.586 114.586 556.76 113.854 555.529 112.389C554.299 110.924 553.684 108.844 553.684 106.148V86.4902H547.912V82.3008H553.684V74.625H559.104ZM584.533 114.586C580.236 114.586 576.74 113.18 574.045 110.367C571.35 107.535 570.002 103.756 570.002 99.0293V98.0332C570.002 94.8887 570.598 92.0859 571.789 89.625C573 87.1445 574.68 85.2109 576.828 83.8242C578.996 82.418 581.34 81.7148 583.859 81.7148C587.98 81.7148 591.184 83.0723 593.469 85.7871C595.754 88.502 596.896 92.3887 596.896 97.4473V99.7031H575.422C575.5 102.828 576.408 105.357 578.146 107.291C579.904 109.205 582.131 110.162 584.826 110.162C586.74 110.162 588.361 109.771 589.689 108.99C591.018 108.209 592.18 107.174 593.176 105.885L596.486 108.463C593.83 112.545 589.846 114.586 584.533 114.586ZM583.859 86.168C581.672 86.168 579.836 86.9688 578.352 88.5703C576.867 90.1523 575.949 92.3789 575.598 95.25H591.477V94.8398C591.32 92.0859 590.578 89.957 589.25 88.4531C587.922 86.9297 586.125 86.168 583.859 86.168ZM618.518 87.1641C617.697 87.0273 616.809 86.959 615.852 86.959C612.297 86.959 609.885 88.4727 608.615 91.5V114H603.195V82.3008H608.469L608.557 85.9629C610.334 83.1309 612.854 81.7148 616.115 81.7148C617.17 81.7148 617.971 81.8516 618.518 82.125V87.1641ZM626.662 114V86.4902H621.652V82.3008H626.662V79.0488C626.662 75.6504 627.57 73.0234 629.387 71.168C631.203 69.3125 633.771 68.3848 637.092 68.3848C638.342 68.3848 639.582 68.5508 640.812 68.8828L640.52 73.2773C639.602 73.1016 638.625 73.0137 637.59 73.0137C635.832 73.0137 634.475 73.5312 633.518 74.5664C632.561 75.582 632.082 77.0469 632.082 78.9609V82.3008H638.85V86.4902H632.082V114H626.662ZM657.307 114.586C653.01 114.586 649.514 113.18 646.818 110.367C644.123 107.535 642.775 103.756 642.775 99.0293V98.0332C642.775 94.8887 643.371 92.0859 644.562 89.625C645.773 87.1445 647.453 85.2109 649.602 83.8242C651.77 82.418 654.113 81.7148 656.633 81.7148C660.754 81.7148 663.957 83.0723 666.242 85.7871C668.527 88.502 669.67 92.3887 669.67 97.4473V99.7031H648.195C648.273 102.828 649.182 105.357 650.92 107.291C652.678 109.205 654.904 110.162 657.6 110.162C659.514 110.162 661.135 109.771 662.463 108.99C663.791 108.209 664.953 107.174 665.949 105.885L669.26 108.463C666.604 112.545 662.619 114.586 657.307 114.586ZM656.633 86.168C654.445 86.168 652.609 86.9688 651.125 88.5703C649.641 90.1523 648.723 92.3789 648.371 95.25H664.25V94.8398C664.094 92.0859 663.352 89.957 662.023 88.4531C660.695 86.9297 658.898 86.168 656.633 86.168ZM681.564 82.3008V117.662C681.564 123.756 678.801 126.803 673.273 126.803C672.082 126.803 670.979 126.627 669.963 126.275V121.939C670.588 122.096 671.408 122.174 672.424 122.174C673.635 122.174 674.553 121.842 675.178 121.178C675.822 120.533 676.145 119.4 676.145 117.779V82.3008H681.564ZM675.588 73.8926C675.588 73.0332 675.852 72.3008 676.379 71.6953C676.926 71.0703 677.717 70.7578 678.752 70.7578C679.807 70.7578 680.607 71.0605 681.154 71.666C681.701 72.2715 681.975 73.0137 681.975 73.8926C681.975 74.7715 681.701 75.5039 681.154 76.0898C680.607 76.6758 679.807 76.9688 678.752 76.9688C677.697 76.9688 676.906 76.6758 676.379 76.0898C675.852 75.5039 675.588 74.7715 675.588 73.8926ZM708.781 105.592C708.781 104.127 708.225 102.994 707.111 102.193C706.018 101.373 704.094 100.67 701.34 100.084C698.605 99.498 696.428 98.7949 694.807 97.9746C693.205 97.1543 692.014 96.1777 691.232 95.0449C690.471 93.9121 690.09 92.5645 690.09 91.002C690.09 88.4043 691.184 86.207 693.371 84.4102C695.578 82.6133 698.391 81.7148 701.809 81.7148C705.402 81.7148 708.312 82.6426 710.539 84.498C712.785 86.3535 713.908 88.7266 713.908 91.6172H708.459C708.459 90.1328 707.824 88.8535 706.555 87.7793C705.305 86.7051 703.723 86.168 701.809 86.168C699.836 86.168 698.293 86.5977 697.18 87.457C696.066 88.3164 695.51 89.4395 695.51 90.8262C695.51 92.1348 696.027 93.1211 697.062 93.7852C698.098 94.4492 699.963 95.084 702.658 95.6895C705.373 96.2949 707.57 97.0176 709.25 97.8574C710.93 98.6973 712.17 99.7129 712.971 100.904C713.791 102.076 714.201 103.512 714.201 105.211C714.201 108.043 713.068 110.318 710.803 112.037C708.537 113.736 705.598 114.586 701.984 114.586C699.445 114.586 697.199 114.137 695.246 113.238C693.293 112.34 691.76 111.09 690.646 109.488C689.553 107.867 689.006 106.119 689.006 104.244H694.426C694.523 106.061 695.246 107.506 696.594 108.58C697.961 109.635 699.758 110.162 701.984 110.162C704.035 110.162 705.676 109.752 706.906 108.932C708.156 108.092 708.781 106.979 708.781 105.592ZM740.832 114C740.52 113.375 740.266 112.262 740.07 110.66C737.551 113.277 734.543 114.586 731.047 114.586C727.922 114.586 725.354 113.707 723.342 111.949C721.35 110.172 720.354 107.926 720.354 105.211C720.354 101.91 721.604 99.3516 724.104 97.5352C726.623 95.6992 730.158 94.7812 734.709 94.7812H739.982V92.291C739.982 90.3965 739.416 88.8926 738.283 87.7793C737.15 86.6465 735.48 86.0801 733.273 86.0801C731.34 86.0801 729.719 86.5684 728.41 87.5449C727.102 88.5215 726.447 89.7031 726.447 91.0898H720.998C720.998 89.5078 721.555 87.9844 722.668 86.5195C723.801 85.0352 725.324 83.8633 727.238 83.0039C729.172 82.1445 731.291 81.7148 733.596 81.7148C737.248 81.7148 740.109 82.6328 742.18 84.4688C744.25 86.2852 745.324 88.7949 745.402 91.998V106.588C745.402 109.498 745.773 111.812 746.516 113.531V114H740.832ZM731.838 109.869C733.537 109.869 735.148 109.43 736.672 108.551C738.195 107.672 739.299 106.529 739.982 105.123V98.6191H735.734C729.094 98.6191 725.773 100.562 725.773 104.449C725.773 106.148 726.34 107.477 727.473 108.434C728.605 109.391 730.061 109.869 731.838 109.869ZM766.613 110.162C768.547 110.162 770.236 109.576 771.682 108.404C773.127 107.232 773.928 105.768 774.084 104.01H779.211C779.113 105.826 778.488 107.555 777.336 109.195C776.184 110.836 774.641 112.145 772.707 113.121C770.793 114.098 768.762 114.586 766.613 114.586C762.297 114.586 758.859 113.15 756.301 110.279C753.762 107.389 752.492 103.443 752.492 98.4434V97.5352C752.492 94.4492 753.059 91.7051 754.191 89.3027C755.324 86.9004 756.945 85.0352 759.055 83.707C761.184 82.3789 763.693 81.7148 766.584 81.7148C770.139 81.7148 773.088 82.7793 775.432 84.9082C777.795 87.0371 779.055 89.8008 779.211 93.1992H774.084C773.928 91.1484 773.146 89.4688 771.74 88.1602C770.354 86.832 768.635 86.168 766.584 86.168C763.83 86.168 761.691 87.1641 760.168 89.1562C758.664 91.1289 757.912 93.9902 757.912 97.7402V98.7656C757.912 102.418 758.664 105.23 760.168 107.203C761.672 109.176 763.82 110.162 766.613 110.162ZM790.725 86.1387C793.127 83.1895 796.252 81.7148 800.1 81.7148C806.799 81.7148 810.178 85.4941 810.236 93.0527V114H804.816V93.0234C804.797 90.7383 804.27 89.0488 803.234 87.9551C802.219 86.8613 800.627 86.3145 798.459 86.3145C796.701 86.3145 795.158 86.7832 793.83 87.7207C792.502 88.6582 791.467 89.8887 790.725 91.4121V114H785.305V69H790.725V86.1387Z" fill="black"/>
<path id="autor: Miko&#197;&#130;aj" d="M476.811 166C476.615 165.619 476.474 165.146 476.386 164.579C475.36 165.722 474.027 166.293 472.387 166.293C470.834 166.293 469.545 165.844 468.52 164.945C467.504 164.047 466.996 162.914 466.996 161.547C466.996 159.867 467.616 158.578 468.856 157.68C470.106 156.781 471.908 156.327 474.262 156.317H476.21V155.409C476.21 154.677 476.02 154.091 475.639 153.651C475.268 153.212 474.677 152.992 473.866 152.992C473.153 152.992 472.592 153.163 472.182 153.505C471.781 153.847 471.581 154.315 471.581 154.911H467.348C467.348 153.993 467.631 153.144 468.197 152.362C468.764 151.581 469.564 150.971 470.6 150.531C471.635 150.082 472.797 149.857 474.086 149.857C476.039 149.857 477.587 150.351 478.729 151.337C479.882 152.313 480.458 153.69 480.458 155.468V162.338C480.468 163.842 480.678 164.979 481.088 165.751V166H476.811ZM473.31 163.056C473.935 163.056 474.511 162.919 475.038 162.646C475.565 162.362 475.956 161.986 476.21 161.518V158.793H474.628C472.509 158.793 471.381 159.525 471.244 160.99L471.229 161.239C471.229 161.767 471.415 162.201 471.786 162.543C472.157 162.885 472.665 163.056 473.31 163.056ZM493.202 164.389C492.157 165.658 490.712 166.293 488.866 166.293C487.167 166.293 485.868 165.805 484.97 164.828C484.081 163.852 483.627 162.421 483.607 160.536V150.15H487.841V160.39C487.841 162.04 488.593 162.865 490.097 162.865C491.532 162.865 492.519 162.367 493.056 161.371V150.15H497.304V166H493.319L493.202 164.389ZM505.565 146.254V150.15H508.275V153.256H505.565V161.166C505.565 161.752 505.678 162.172 505.902 162.426C506.127 162.68 506.557 162.807 507.191 162.807C507.66 162.807 508.075 162.772 508.437 162.704V165.912C507.606 166.166 506.752 166.293 505.873 166.293C502.904 166.293 501.391 164.794 501.332 161.796V153.256H499.018V150.15H501.332V146.254H505.565ZM509.535 157.929C509.535 156.356 509.838 154.955 510.443 153.725C511.049 152.494 511.918 151.542 513.051 150.868C514.193 150.194 515.517 149.857 517.021 149.857C519.159 149.857 520.902 150.512 522.25 151.82C523.607 153.129 524.364 154.906 524.521 157.152L524.55 158.236C524.55 160.668 523.871 162.621 522.514 164.096C521.156 165.561 519.335 166.293 517.05 166.293C514.765 166.293 512.938 165.561 511.571 164.096C510.214 162.631 509.535 160.639 509.535 158.119V157.929ZM513.769 158.236C513.769 159.74 514.052 160.893 514.618 161.693C515.185 162.484 515.995 162.88 517.05 162.88C518.075 162.88 518.876 162.489 519.452 161.708C520.028 160.917 520.316 159.657 520.316 157.929C520.316 156.454 520.028 155.312 519.452 154.501C518.876 153.69 518.065 153.285 517.021 153.285C515.985 153.285 515.185 153.69 514.618 154.501C514.052 155.302 513.769 156.547 513.769 158.236ZM536.063 154.12C535.487 154.042 534.979 154.003 534.54 154.003C532.938 154.003 531.889 154.545 531.391 155.629V166H527.157V150.15H531.156L531.273 152.04C532.123 150.585 533.3 149.857 534.804 149.857C535.272 149.857 535.712 149.921 536.122 150.048L536.063 154.12ZM538.451 164.579C538.451 164.11 538.588 163.72 538.861 163.407C539.145 163.095 539.564 162.938 540.121 162.938C540.678 162.938 541.098 163.095 541.381 163.407C541.674 163.72 541.82 164.11 541.82 164.579C541.82 165.028 541.674 165.404 541.381 165.707C541.098 166.01 540.678 166.161 540.121 166.161C539.564 166.161 539.145 166.01 538.861 165.707C538.588 165.404 538.451 165.028 538.451 164.579ZM538.466 151.645C538.466 151.176 538.603 150.785 538.876 150.473C539.159 150.16 539.579 150.004 540.136 150.004C540.692 150.004 541.112 150.16 541.396 150.473C541.688 150.785 541.835 151.176 541.835 151.645C541.835 152.094 541.688 152.47 541.396 152.772C541.112 153.075 540.692 153.227 540.136 153.227C539.579 153.227 539.159 153.075 538.876 152.772C538.603 152.47 538.466 152.094 538.466 151.645ZM557.304 144.672L564.276 162.074L571.249 144.672H574.896V166H572.084V157.694L572.348 148.729L565.346 166H563.192L556.205 148.773L556.483 157.694V166H553.671V144.672H557.304ZM582.382 166H579.672V150.15H582.382V166ZM579.452 145.946C579.452 145.507 579.584 145.136 579.848 144.833C580.121 144.53 580.521 144.379 581.049 144.379C581.576 144.379 581.977 144.53 582.25 144.833C582.523 145.136 582.66 145.507 582.66 145.946C582.66 146.386 582.523 146.752 582.25 147.045C581.977 147.338 581.576 147.484 581.049 147.484C580.521 147.484 580.121 147.338 579.848 147.045C579.584 146.752 579.452 146.386 579.452 145.946ZM591.156 158.661L589.457 160.434V166H586.747V143.5H589.457V157.108L590.907 155.365L595.844 150.15H599.14L592.973 156.771L599.857 166H596.679L591.156 158.661ZM601.22 157.929C601.22 156.376 601.522 154.979 602.128 153.739C602.743 152.499 603.593 151.542 604.677 150.868C605.771 150.194 607.016 149.857 608.412 149.857C610.57 149.857 612.313 150.604 613.642 152.099C614.979 153.593 615.648 155.58 615.648 158.061V158.251C615.648 159.794 615.351 161.181 614.755 162.411C614.169 163.632 613.324 164.584 612.221 165.268C611.127 165.951 609.867 166.293 608.441 166.293C606.293 166.293 604.55 165.546 603.212 164.052C601.884 162.558 601.22 160.58 601.22 158.119V157.929ZM603.944 158.251C603.944 160.009 604.35 161.42 605.16 162.484C605.98 163.549 607.074 164.081 608.441 164.081C609.818 164.081 610.912 163.544 611.723 162.47C612.533 161.386 612.938 159.872 612.938 157.929C612.938 156.19 612.523 154.784 611.693 153.71C610.873 152.626 609.779 152.084 608.412 152.084C607.074 152.084 605.995 152.616 605.175 153.681C604.354 154.745 603.944 156.269 603.944 158.251ZM622.328 153.271L624.643 152.377V154.179L622.328 155.072V166H619.604V156.112L617.494 156.918V155.116L619.604 154.311V143.5H622.328V153.271ZM636.947 166C636.791 165.688 636.664 165.131 636.566 164.33C635.307 165.639 633.803 166.293 632.055 166.293C630.492 166.293 629.208 165.854 628.202 164.975C627.206 164.086 626.708 162.963 626.708 161.605C626.708 159.955 627.333 158.676 628.583 157.768C629.843 156.85 631.61 156.391 633.886 156.391H636.522V155.146C636.522 154.198 636.239 153.446 635.673 152.89C635.106 152.323 634.271 152.04 633.168 152.04C632.201 152.04 631.391 152.284 630.736 152.772C630.082 153.261 629.755 153.852 629.755 154.545H627.03C627.03 153.754 627.309 152.992 627.865 152.26C628.432 151.518 629.193 150.932 630.15 150.502C631.117 150.072 632.177 149.857 633.329 149.857C635.155 149.857 636.586 150.316 637.621 151.234C638.656 152.143 639.193 153.397 639.232 154.999V162.294C639.232 163.749 639.418 164.906 639.789 165.766V166H636.947ZM632.45 163.935C633.3 163.935 634.105 163.715 634.867 163.275C635.629 162.836 636.181 162.265 636.522 161.562V158.31H634.398C631.078 158.31 629.418 159.281 629.418 161.225C629.418 162.074 629.701 162.738 630.268 163.217C630.834 163.695 631.562 163.935 632.45 163.935ZM646.278 150.15V167.831C646.278 170.878 644.896 172.401 642.133 172.401C641.537 172.401 640.985 172.313 640.478 172.138V169.97C640.79 170.048 641.2 170.087 641.708 170.087C642.313 170.087 642.772 169.921 643.085 169.589C643.407 169.267 643.568 168.7 643.568 167.89V150.15H646.278ZM643.29 145.946C643.29 145.517 643.422 145.15 643.686 144.848C643.959 144.535 644.354 144.379 644.872 144.379C645.399 144.379 645.8 144.53 646.073 144.833C646.347 145.136 646.483 145.507 646.483 145.946C646.483 146.386 646.347 146.752 646.073 147.045C645.8 147.338 645.399 147.484 644.872 147.484C644.345 147.484 643.949 147.338 643.686 147.045C643.422 146.752 643.29 146.386 643.29 145.946Z" fill="black"/>
<path id="Cz_C4_99_C5_9B_C4_87_1._O_wa_C5_BCno_C5_9Bci_interfejs_C3_B3w" d="M49.1641 351.232C48.9004 353.488 48.0654 355.231 46.6592 356.462C45.2627 357.683 43.4023 358.293 41.0781 358.293C38.5586 358.293 36.5371 357.39 35.0137 355.583C33.5 353.776 32.7432 351.359 32.7432 348.332V346.281C32.7432 344.299 33.0947 342.556 33.7979 341.052C34.5107 339.548 35.5166 338.396 36.8154 337.595C38.1143 336.784 39.6182 336.379 41.3271 336.379C43.5928 336.379 45.4092 337.014 46.7764 338.283C48.1436 339.543 48.9395 341.291 49.1641 343.527H46.3369C46.0928 341.828 45.5605 340.598 44.7402 339.836C43.9297 339.074 42.792 338.693 41.3271 338.693C39.5303 338.693 38.1191 339.357 37.0938 340.686C36.0781 342.014 35.5703 343.903 35.5703 346.354V348.42C35.5703 350.734 36.0537 352.575 37.0205 353.942C37.9873 355.31 39.3398 355.993 41.0781 355.993C42.6406 355.993 43.8369 355.642 44.667 354.938C45.5068 354.226 46.0635 352.99 46.3369 351.232H49.1641ZM55.1406 355.788H64.4131V358H51.8301V356.008L60.5752 344.392H51.9619V342.15H63.9736V344.069L55.1406 355.788ZM79.7939 355.231C79.1006 356.306 78.1924 357.106 77.0693 357.634H77.084L76.2344 358.293C75.1309 359.182 74.5791 360.046 74.5791 360.886C74.5791 361.589 74.96 361.94 75.7217 361.94C76.1904 361.94 76.6787 361.813 77.1865 361.56L77.377 363.332C76.6934 363.762 75.9121 363.977 75.0332 363.977C74.1641 363.977 73.4756 363.723 72.9678 363.215C72.4697 362.707 72.2207 362.033 72.2207 361.193C72.2207 360.139 72.6992 359.172 73.6562 358.293C71.5273 358.254 69.8086 357.531 68.5 356.125C67.2012 354.709 66.5518 352.834 66.5518 350.5V350.017C66.5518 348.444 66.8496 347.043 67.4453 345.812C68.0508 344.572 68.8906 343.605 69.9648 342.912C71.0488 342.209 72.2207 341.857 73.4805 341.857C75.541 341.857 77.1426 342.536 78.2852 343.894C79.4277 345.251 79.999 347.194 79.999 349.724V350.852H69.2617C69.3008 352.414 69.7549 353.679 70.624 354.646C71.5029 355.603 72.6162 356.081 73.9639 356.081C74.9209 356.081 75.7314 355.886 76.3955 355.495C77.0596 355.104 77.6406 354.587 78.1387 353.942L79.7939 355.231ZM73.4805 344.084C72.3867 344.084 71.4688 344.484 70.7266 345.285C69.9844 346.076 69.5254 347.189 69.3496 348.625H77.2891V348.42C77.2109 347.043 76.8398 345.979 76.1758 345.227C75.5117 344.465 74.6133 344.084 73.4805 344.084ZM92.377 353.796C92.377 353.063 92.0986 352.497 91.542 352.097C90.9951 351.687 90.0332 351.335 88.6562 351.042C87.2891 350.749 86.2002 350.397 85.3896 349.987C84.5889 349.577 83.9932 349.089 83.6025 348.522C83.2217 347.956 83.0312 347.282 83.0312 346.501C83.0312 345.202 83.5781 344.104 84.6719 343.205C85.7754 342.307 87.1816 341.857 88.8906 341.857C90.6875 341.857 92.1426 342.321 93.2559 343.249C94.3789 344.177 94.9404 345.363 94.9404 346.809H92.2158C92.2158 346.066 91.8984 345.427 91.2637 344.89C90.6387 344.353 89.8477 344.084 88.8906 344.084C87.9043 344.084 87.1328 344.299 86.5762 344.729C86.0195 345.158 85.7412 345.72 85.7412 346.413C85.7412 347.067 86 347.561 86.5176 347.893C87.0352 348.225 87.9678 348.542 89.3154 348.845C90.6729 349.147 91.7715 349.509 92.6113 349.929C93.4512 350.349 94.0713 350.856 94.4717 351.452C94.8818 352.038 95.0869 352.756 95.0869 353.605C95.0869 355.021 94.5205 356.159 93.3877 357.019C92.2549 357.868 90.7852 358.293 88.9785 358.293C87.709 358.293 86.5859 358.068 85.6094 357.619C84.6328 357.17 83.8662 356.545 83.3096 355.744C82.7627 354.934 82.4893 354.06 82.4893 353.122H85.1992C85.248 354.03 85.6094 354.753 86.2832 355.29C86.9668 355.817 87.8652 356.081 88.9785 356.081C90.0039 356.081 90.8242 355.876 91.4395 355.466C92.0645 355.046 92.377 354.489 92.377 353.796ZM90.6631 335.5H93.9443L90.0186 339.807H87.8359L90.6631 335.5ZM104.975 356.081C105.941 356.081 106.786 355.788 107.509 355.202C108.231 354.616 108.632 353.884 108.71 353.005H111.273C111.225 353.913 110.912 354.777 110.336 355.598C109.76 356.418 108.988 357.072 108.021 357.561C107.064 358.049 106.049 358.293 104.975 358.293C102.816 358.293 101.098 357.575 99.8184 356.14C98.5488 354.694 97.9141 352.722 97.9141 350.222V349.768C97.9141 348.225 98.1973 346.853 98.7637 345.651C99.3301 344.45 100.141 343.518 101.195 342.854C102.26 342.189 103.515 341.857 104.96 341.857C106.737 341.857 108.212 342.39 109.384 343.454C110.565 344.519 111.195 345.9 111.273 347.6H108.71C108.632 346.574 108.241 345.734 107.538 345.08C106.845 344.416 105.985 344.084 104.96 344.084C103.583 344.084 102.514 344.582 101.752 345.578C101 346.564 100.624 347.995 100.624 349.87V350.383C100.624 352.209 101 353.615 101.752 354.602C102.504 355.588 103.578 356.081 104.975 356.081ZM105.692 335.5H108.974L105.048 339.807H102.865L105.692 335.5ZM130.39 358H127.665V339.938L122.201 341.945V339.484L129.965 336.569H130.39V358ZM138.666 356.579C138.666 356.11 138.803 355.72 139.076 355.407C139.359 355.095 139.779 354.938 140.336 354.938C140.893 354.938 141.312 355.095 141.596 355.407C141.889 355.72 142.035 356.11 142.035 356.579C142.035 357.028 141.889 357.404 141.596 357.707C141.312 358.01 140.893 358.161 140.336 358.161C139.779 358.161 139.359 358.01 139.076 357.707C138.803 357.404 138.666 357.028 138.666 356.579ZM170.79 348.024C170.79 350.114 170.438 351.94 169.735 353.503C169.032 355.056 168.036 356.242 166.747 357.062C165.458 357.883 163.954 358.293 162.235 358.293C160.556 358.293 159.066 357.883 157.768 357.062C156.469 356.232 155.458 355.056 154.735 353.532C154.022 351.999 153.656 350.227 153.637 348.215V346.677C153.637 344.626 153.993 342.814 154.706 341.242C155.419 339.67 156.425 338.469 157.724 337.639C159.032 336.799 160.526 336.379 162.206 336.379C163.915 336.379 165.419 336.794 166.718 337.624C168.026 338.444 169.032 339.641 169.735 341.213C170.438 342.775 170.79 344.597 170.79 346.677V348.024ZM167.992 346.647C167.992 344.118 167.484 342.18 166.469 340.832C165.453 339.475 164.032 338.796 162.206 338.796C160.429 338.796 159.027 339.475 158.002 340.832C156.986 342.18 156.464 344.055 156.435 346.457V348.024C156.435 350.476 156.947 352.404 157.973 353.811C159.008 355.207 160.429 355.905 162.235 355.905C164.052 355.905 165.458 355.246 166.454 353.928C167.45 352.6 167.963 350.7 167.992 348.229V346.647ZM196.059 354.265L199.105 342.15H201.815L197.201 358H195.004L191.151 345.988L187.401 358H185.204L180.604 342.15H183.3L186.42 354.016L190.111 342.15H192.294L196.059 354.265ZM214.369 358C214.213 357.688 214.086 357.131 213.988 356.33C212.729 357.639 211.225 358.293 209.477 358.293C207.914 358.293 206.63 357.854 205.624 356.975C204.628 356.086 204.13 354.963 204.13 353.605C204.13 351.955 204.755 350.676 206.005 349.768C207.265 348.85 209.032 348.391 211.308 348.391H213.944V347.146C213.944 346.198 213.661 345.446 213.095 344.89C212.528 344.323 211.693 344.04 210.59 344.04C209.623 344.04 208.812 344.284 208.158 344.772C207.504 345.261 207.177 345.852 207.177 346.545H204.452C204.452 345.754 204.73 344.992 205.287 344.26C205.854 343.518 206.615 342.932 207.572 342.502C208.539 342.072 209.599 341.857 210.751 341.857C212.577 341.857 214.008 342.316 215.043 343.234C216.078 344.143 216.615 345.397 216.654 346.999V354.294C216.654 355.749 216.84 356.906 217.211 357.766V358H214.369ZM209.872 355.935C210.722 355.935 211.527 355.715 212.289 355.275C213.051 354.836 213.603 354.265 213.944 353.562V350.31H211.82C208.5 350.31 206.84 351.281 206.84 353.225C206.84 354.074 207.123 354.738 207.689 355.217C208.256 355.695 208.983 355.935 209.872 355.935ZM223.451 355.788H232.724V358H220.141V356.008L228.886 344.392H220.272V342.15H232.284V344.069L223.451 355.788ZM224.784 337.976C224.784 337.536 224.916 337.165 225.18 336.862C225.453 336.56 225.854 336.408 226.381 336.408C226.908 336.408 227.309 336.56 227.582 336.862C227.855 337.165 227.992 337.536 227.992 337.976C227.992 338.415 227.855 338.781 227.582 339.074C227.309 339.367 226.908 339.514 226.381 339.514C225.854 339.514 225.453 339.367 225.18 339.074C224.916 338.781 224.784 338.415 224.784 337.976ZM238.349 342.15L238.437 344.143C239.647 342.619 241.229 341.857 243.183 341.857C246.532 341.857 248.222 343.747 248.251 347.526V358H245.541V347.512C245.531 346.369 245.268 345.524 244.75 344.978C244.242 344.431 243.446 344.157 242.362 344.157C241.483 344.157 240.712 344.392 240.048 344.86C239.384 345.329 238.866 345.944 238.495 346.706V358H235.785V342.15H238.349ZM251.62 349.929C251.62 348.376 251.923 346.979 252.528 345.739C253.144 344.499 253.993 343.542 255.077 342.868C256.171 342.194 257.416 341.857 258.812 341.857C260.971 341.857 262.714 342.604 264.042 344.099C265.38 345.593 266.049 347.58 266.049 350.061V350.251C266.049 351.794 265.751 353.181 265.155 354.411C264.569 355.632 263.725 356.584 262.621 357.268C261.527 357.951 260.268 358.293 258.842 358.293C256.693 358.293 254.95 357.546 253.612 356.052C252.284 354.558 251.62 352.58 251.62 350.119V349.929ZM254.345 350.251C254.345 352.009 254.75 353.42 255.561 354.484C256.381 355.549 257.475 356.081 258.842 356.081C260.219 356.081 261.312 355.544 262.123 354.47C262.934 353.386 263.339 351.872 263.339 349.929C263.339 348.19 262.924 346.784 262.094 345.71C261.273 344.626 260.18 344.084 258.812 344.084C257.475 344.084 256.396 344.616 255.575 345.681C254.755 346.745 254.345 348.269 254.345 350.251ZM278.676 353.796C278.676 353.063 278.397 352.497 277.841 352.097C277.294 351.687 276.332 351.335 274.955 351.042C273.588 350.749 272.499 350.397 271.688 349.987C270.888 349.577 270.292 349.089 269.901 348.522C269.521 347.956 269.33 347.282 269.33 346.501C269.33 345.202 269.877 344.104 270.971 343.205C272.074 342.307 273.48 341.857 275.189 341.857C276.986 341.857 278.441 342.321 279.555 343.249C280.678 344.177 281.239 345.363 281.239 346.809H278.515C278.515 346.066 278.197 345.427 277.562 344.89C276.938 344.353 276.146 344.084 275.189 344.084C274.203 344.084 273.432 344.299 272.875 344.729C272.318 345.158 272.04 345.72 272.04 346.413C272.04 347.067 272.299 347.561 272.816 347.893C273.334 348.225 274.267 348.542 275.614 348.845C276.972 349.147 278.07 349.509 278.91 349.929C279.75 350.349 280.37 350.856 280.771 351.452C281.181 352.038 281.386 352.756 281.386 353.605C281.386 355.021 280.819 356.159 279.687 357.019C278.554 357.868 277.084 358.293 275.277 358.293C274.008 358.293 272.885 358.068 271.908 357.619C270.932 357.17 270.165 356.545 269.608 355.744C269.062 354.934 268.788 354.06 268.788 353.122H271.498C271.547 354.03 271.908 354.753 272.582 355.29C273.266 355.817 274.164 356.081 275.277 356.081C276.303 356.081 277.123 355.876 277.738 355.466C278.363 355.046 278.676 354.489 278.676 353.796ZM276.962 335.5H280.243L276.317 339.807H274.135L276.962 335.5ZM291.273 356.081C292.24 356.081 293.085 355.788 293.808 355.202C294.53 354.616 294.931 353.884 295.009 353.005H297.572C297.523 353.913 297.211 354.777 296.635 355.598C296.059 356.418 295.287 357.072 294.32 357.561C293.363 358.049 292.348 358.293 291.273 358.293C289.115 358.293 287.396 357.575 286.117 356.14C284.848 354.694 284.213 352.722 284.213 350.222V349.768C284.213 348.225 284.496 346.853 285.062 345.651C285.629 344.45 286.439 343.518 287.494 342.854C288.559 342.189 289.813 341.857 291.259 341.857C293.036 341.857 294.511 342.39 295.683 343.454C296.864 344.519 297.494 345.9 297.572 347.6H295.009C294.931 346.574 294.54 345.734 293.837 345.08C293.144 344.416 292.284 344.084 291.259 344.084C289.882 344.084 288.812 344.582 288.051 345.578C287.299 346.564 286.923 347.995 286.923 349.87V350.383C286.923 352.209 287.299 353.615 288.051 354.602C288.803 355.588 289.877 356.081 291.273 356.081ZM303.563 358H300.854V342.15H303.563V358ZM300.634 337.946C300.634 337.507 300.766 337.136 301.029 336.833C301.303 336.53 301.703 336.379 302.23 336.379C302.758 336.379 303.158 336.53 303.432 336.833C303.705 337.136 303.842 337.507 303.842 337.946C303.842 338.386 303.705 338.752 303.432 339.045C303.158 339.338 302.758 339.484 302.23 339.484C301.703 339.484 301.303 339.338 301.029 339.045C300.766 338.752 300.634 338.386 300.634 337.946ZM318.3 358H315.59V342.15H318.3V358ZM315.37 337.946C315.37 337.507 315.502 337.136 315.766 336.833C316.039 336.53 316.439 336.379 316.967 336.379C317.494 336.379 317.895 336.53 318.168 336.833C318.441 337.136 318.578 337.507 318.578 337.946C318.578 338.386 318.441 338.752 318.168 339.045C317.895 339.338 317.494 339.484 316.967 339.484C316.439 339.484 316.039 339.338 315.766 339.045C315.502 338.752 315.37 338.386 315.37 337.946ZM325.214 342.15L325.302 344.143C326.513 342.619 328.095 341.857 330.048 341.857C333.397 341.857 335.087 343.747 335.116 347.526V358H332.406V347.512C332.396 346.369 332.133 345.524 331.615 344.978C331.107 344.431 330.312 344.157 329.228 344.157C328.349 344.157 327.577 344.392 326.913 344.86C326.249 345.329 325.731 345.944 325.36 346.706V358H322.65V342.15H325.214ZM342.88 338.312V342.15H345.839V344.245H342.88V354.074C342.88 354.709 343.012 355.188 343.275 355.51C343.539 355.822 343.988 355.979 344.623 355.979C344.936 355.979 345.365 355.92 345.912 355.803V358C345.199 358.195 344.506 358.293 343.832 358.293C342.621 358.293 341.708 357.927 341.093 357.194C340.478 356.462 340.17 355.422 340.17 354.074V344.245H337.284V342.15H340.17V338.312H342.88ZM355.595 358.293C353.446 358.293 351.698 357.59 350.351 356.184C349.003 354.768 348.329 352.878 348.329 350.515V350.017C348.329 348.444 348.627 347.043 349.223 345.812C349.828 344.572 350.668 343.605 351.742 342.912C352.826 342.209 353.998 341.857 355.258 341.857C357.318 341.857 358.92 342.536 360.062 343.894C361.205 345.251 361.776 347.194 361.776 349.724V350.852H351.039C351.078 352.414 351.532 353.679 352.401 354.646C353.28 355.603 354.394 356.081 355.741 356.081C356.698 356.081 357.509 355.886 358.173 355.495C358.837 355.104 359.418 354.587 359.916 353.942L361.571 355.231C360.243 357.272 358.251 358.293 355.595 358.293ZM355.258 344.084C354.164 344.084 353.246 344.484 352.504 345.285C351.762 346.076 351.303 347.189 351.127 348.625H359.066V348.42C358.988 347.043 358.617 345.979 357.953 345.227C357.289 344.465 356.391 344.084 355.258 344.084ZM372.587 344.582C372.177 344.514 371.732 344.479 371.254 344.479C369.477 344.479 368.271 345.236 367.636 346.75V358H364.926V342.15H367.562L367.606 343.981C368.495 342.565 369.755 341.857 371.386 341.857C371.913 341.857 372.313 341.926 372.587 342.062V344.582ZM376.659 358V344.245H374.154V342.15H376.659V340.524C376.659 338.825 377.113 337.512 378.021 336.584C378.93 335.656 380.214 335.192 381.874 335.192C382.499 335.192 383.119 335.275 383.734 335.441L383.588 337.639C383.129 337.551 382.641 337.507 382.123 337.507C381.244 337.507 380.565 337.766 380.087 338.283C379.608 338.791 379.369 339.523 379.369 340.48V342.15H382.753V344.245H379.369V358H376.659ZM391.981 358.293C389.833 358.293 388.085 357.59 386.737 356.184C385.39 354.768 384.716 352.878 384.716 350.515V350.017C384.716 348.444 385.014 347.043 385.609 345.812C386.215 344.572 387.055 343.605 388.129 342.912C389.213 342.209 390.385 341.857 391.645 341.857C393.705 341.857 395.307 342.536 396.449 343.894C397.592 345.251 398.163 347.194 398.163 349.724V350.852H387.426C387.465 352.414 387.919 353.679 388.788 354.646C389.667 355.603 390.78 356.081 392.128 356.081C393.085 356.081 393.896 355.886 394.56 355.495C395.224 355.104 395.805 354.587 396.303 353.942L397.958 355.231C396.63 357.272 394.638 358.293 391.981 358.293ZM391.645 344.084C390.551 344.084 389.633 344.484 388.891 345.285C388.148 346.076 387.689 347.189 387.514 348.625H395.453V348.42C395.375 347.043 395.004 345.979 394.34 345.227C393.676 344.465 392.777 344.084 391.645 344.084ZM404.11 342.15V359.831C404.11 362.878 402.729 364.401 399.965 364.401C399.369 364.401 398.817 364.313 398.31 364.138V361.97C398.622 362.048 399.032 362.087 399.54 362.087C400.146 362.087 400.604 361.921 400.917 361.589C401.239 361.267 401.4 360.7 401.4 359.89V342.15H404.11ZM401.122 337.946C401.122 337.517 401.254 337.15 401.518 336.848C401.791 336.535 402.187 336.379 402.704 336.379C403.231 336.379 403.632 336.53 403.905 336.833C404.179 337.136 404.315 337.507 404.315 337.946C404.315 338.386 404.179 338.752 403.905 339.045C403.632 339.338 403.231 339.484 402.704 339.484C402.177 339.484 401.781 339.338 401.518 339.045C401.254 338.752 401.122 338.386 401.122 337.946ZM417.719 353.796C417.719 353.063 417.44 352.497 416.884 352.097C416.337 351.687 415.375 351.335 413.998 351.042C412.631 350.749 411.542 350.397 410.731 349.987C409.931 349.577 409.335 349.089 408.944 348.522C408.563 347.956 408.373 347.282 408.373 346.501C408.373 345.202 408.92 344.104 410.014 343.205C411.117 342.307 412.523 341.857 414.232 341.857C416.029 341.857 417.484 342.321 418.598 343.249C419.721 344.177 420.282 345.363 420.282 346.809H417.558C417.558 346.066 417.24 345.427 416.605 344.89C415.98 344.353 415.189 344.084 414.232 344.084C413.246 344.084 412.475 344.299 411.918 344.729C411.361 345.158 411.083 345.72 411.083 346.413C411.083 347.067 411.342 347.561 411.859 347.893C412.377 348.225 413.31 348.542 414.657 348.845C416.015 349.147 417.113 349.509 417.953 349.929C418.793 350.349 419.413 350.856 419.813 351.452C420.224 352.038 420.429 352.756 420.429 353.605C420.429 355.021 419.862 356.159 418.729 357.019C417.597 357.868 416.127 358.293 414.32 358.293C413.051 358.293 411.928 358.068 410.951 357.619C409.975 357.17 409.208 356.545 408.651 355.744C408.104 354.934 407.831 354.06 407.831 353.122H410.541C410.59 354.03 410.951 354.753 411.625 355.29C412.309 355.817 413.207 356.081 414.32 356.081C415.346 356.081 416.166 355.876 416.781 355.466C417.406 355.046 417.719 354.489 417.719 353.796ZM423.241 349.929C423.241 348.376 423.544 346.979 424.149 345.739C424.765 344.499 425.614 343.542 426.698 342.868C427.792 342.194 429.037 341.857 430.434 341.857C432.592 341.857 434.335 342.604 435.663 344.099C437.001 345.593 437.67 347.58 437.67 350.061V350.251C437.67 351.794 437.372 353.181 436.776 354.411C436.19 355.632 435.346 356.584 434.242 357.268C433.148 357.951 431.889 358.293 430.463 358.293C428.314 358.293 426.571 357.546 425.233 356.052C423.905 354.558 423.241 352.58 423.241 350.119V349.929ZM425.966 350.251C425.966 352.009 426.371 353.42 427.182 354.484C428.002 355.549 429.096 356.081 430.463 356.081C431.84 356.081 432.934 355.544 433.744 354.47C434.555 353.386 434.96 351.872 434.96 349.929C434.96 348.19 434.545 346.784 433.715 345.71C432.895 344.626 431.801 344.084 430.434 344.084C429.096 344.084 428.017 344.616 427.196 345.681C426.376 346.745 425.966 348.269 425.966 350.251ZM431.664 335.5H434.945L431.02 339.807H428.837L431.664 335.5ZM455.102 354.265L458.148 342.15H460.858L456.244 358H454.047L450.194 345.988L446.444 358H444.247L439.647 342.15H442.343L445.463 354.016L449.154 342.15H451.337L455.102 354.265Z" fill="black"/>
<path id="Cz_C4_99_C5_9B_C4_87_2._O_niewa_C5_BCno_C5_9Bci_interfejs_C3_B3w" d="M539.164 351.232C538.9 353.488 538.065 355.231 536.659 356.462C535.263 357.683 533.402 358.293 531.078 358.293C528.559 358.293 526.537 357.39 525.014 355.583C523.5 353.776 522.743 351.359 522.743 348.332V346.281C522.743 344.299 523.095 342.556 523.798 341.052C524.511 339.548 525.517 338.396 526.815 337.595C528.114 336.784 529.618 336.379 531.327 336.379C533.593 336.379 535.409 337.014 536.776 338.283C538.144 339.543 538.939 341.291 539.164 343.527H536.337C536.093 341.828 535.561 340.598 534.74 339.836C533.93 339.074 532.792 338.693 531.327 338.693C529.53 338.693 528.119 339.357 527.094 340.686C526.078 342.014 525.57 343.903 525.57 346.354V348.42C525.57 350.734 526.054 352.575 527.021 353.942C527.987 355.31 529.34 355.993 531.078 355.993C532.641 355.993 533.837 355.642 534.667 354.938C535.507 354.226 536.063 352.99 536.337 351.232H539.164ZM545.141 355.788H554.413V358H541.83V356.008L550.575 344.392H541.962V342.15H553.974V344.069L545.141 355.788ZM569.794 355.231C569.101 356.306 568.192 357.106 567.069 357.634H567.084L566.234 358.293C565.131 359.182 564.579 360.046 564.579 360.886C564.579 361.589 564.96 361.94 565.722 361.94C566.19 361.94 566.679 361.813 567.187 361.56L567.377 363.332C566.693 363.762 565.912 363.977 565.033 363.977C564.164 363.977 563.476 363.723 562.968 363.215C562.47 362.707 562.221 362.033 562.221 361.193C562.221 360.139 562.699 359.172 563.656 358.293C561.527 358.254 559.809 357.531 558.5 356.125C557.201 354.709 556.552 352.834 556.552 350.5V350.017C556.552 348.444 556.85 347.043 557.445 345.812C558.051 344.572 558.891 343.605 559.965 342.912C561.049 342.209 562.221 341.857 563.48 341.857C565.541 341.857 567.143 342.536 568.285 343.894C569.428 345.251 569.999 347.194 569.999 349.724V350.852H559.262C559.301 352.414 559.755 353.679 560.624 354.646C561.503 355.603 562.616 356.081 563.964 356.081C564.921 356.081 565.731 355.886 566.396 355.495C567.06 355.104 567.641 354.587 568.139 353.942L569.794 355.231ZM563.48 344.084C562.387 344.084 561.469 344.484 560.727 345.285C559.984 346.076 559.525 347.189 559.35 348.625H567.289V348.42C567.211 347.043 566.84 345.979 566.176 345.227C565.512 344.465 564.613 344.084 563.48 344.084ZM582.377 353.796C582.377 353.063 582.099 352.497 581.542 352.097C580.995 351.687 580.033 351.335 578.656 351.042C577.289 350.749 576.2 350.397 575.39 349.987C574.589 349.577 573.993 349.089 573.603 348.522C573.222 347.956 573.031 347.282 573.031 346.501C573.031 345.202 573.578 344.104 574.672 343.205C575.775 342.307 577.182 341.857 578.891 341.857C580.688 341.857 582.143 342.321 583.256 343.249C584.379 344.177 584.94 345.363 584.94 346.809H582.216C582.216 346.066 581.898 345.427 581.264 344.89C580.639 344.353 579.848 344.084 578.891 344.084C577.904 344.084 577.133 344.299 576.576 344.729C576.02 345.158 575.741 345.72 575.741 346.413C575.741 347.067 576 347.561 576.518 347.893C577.035 348.225 577.968 348.542 579.315 348.845C580.673 349.147 581.771 349.509 582.611 349.929C583.451 350.349 584.071 350.856 584.472 351.452C584.882 352.038 585.087 352.756 585.087 353.605C585.087 355.021 584.521 356.159 583.388 357.019C582.255 357.868 580.785 358.293 578.979 358.293C577.709 358.293 576.586 358.068 575.609 357.619C574.633 357.17 573.866 356.545 573.31 355.744C572.763 354.934 572.489 354.06 572.489 353.122H575.199C575.248 354.03 575.609 354.753 576.283 355.29C576.967 355.817 577.865 356.081 578.979 356.081C580.004 356.081 580.824 355.876 581.439 355.466C582.064 355.046 582.377 354.489 582.377 353.796ZM580.663 335.5H583.944L580.019 339.807H577.836L580.663 335.5ZM594.975 356.081C595.941 356.081 596.786 355.788 597.509 355.202C598.231 354.616 598.632 353.884 598.71 353.005H601.273C601.225 353.913 600.912 354.777 600.336 355.598C599.76 356.418 598.988 357.072 598.021 357.561C597.064 358.049 596.049 358.293 594.975 358.293C592.816 358.293 591.098 357.575 589.818 356.14C588.549 354.694 587.914 352.722 587.914 350.222V349.768C587.914 348.225 588.197 346.853 588.764 345.651C589.33 344.45 590.141 343.518 591.195 342.854C592.26 342.189 593.515 341.857 594.96 341.857C596.737 341.857 598.212 342.39 599.384 343.454C600.565 344.519 601.195 345.9 601.273 347.6H598.71C598.632 346.574 598.241 345.734 597.538 345.08C596.845 344.416 595.985 344.084 594.96 344.084C593.583 344.084 592.514 344.582 591.752 345.578C591 346.564 590.624 347.995 590.624 349.87V350.383C590.624 352.209 591 353.615 591.752 354.602C592.504 355.588 593.578 356.081 594.975 356.081ZM595.692 335.5H598.974L595.048 339.807H592.865L595.692 335.5ZM625.458 358H611.483V356.052L618.866 347.849C619.96 346.608 620.712 345.603 621.122 344.831C621.542 344.05 621.752 343.244 621.752 342.414C621.752 341.301 621.415 340.388 620.741 339.675C620.067 338.962 619.169 338.605 618.046 338.605C616.698 338.605 615.648 338.991 614.896 339.763C614.154 340.524 613.783 341.589 613.783 342.956H611.073C611.073 340.993 611.703 339.406 612.963 338.195C614.232 336.984 615.927 336.379 618.046 336.379C620.028 336.379 621.596 336.901 622.748 337.946C623.9 338.981 624.477 340.363 624.477 342.092C624.477 344.191 623.139 346.691 620.463 349.592L614.75 355.788H625.458V358ZM628.666 356.579C628.666 356.11 628.803 355.72 629.076 355.407C629.359 355.095 629.779 354.938 630.336 354.938C630.893 354.938 631.312 355.095 631.596 355.407C631.889 355.72 632.035 356.11 632.035 356.579C632.035 357.028 631.889 357.404 631.596 357.707C631.312 358.01 630.893 358.161 630.336 358.161C629.779 358.161 629.359 358.01 629.076 357.707C628.803 357.404 628.666 357.028 628.666 356.579ZM660.79 348.024C660.79 350.114 660.438 351.94 659.735 353.503C659.032 355.056 658.036 356.242 656.747 357.062C655.458 357.883 653.954 358.293 652.235 358.293C650.556 358.293 649.066 357.883 647.768 357.062C646.469 356.232 645.458 355.056 644.735 353.532C644.022 351.999 643.656 350.227 643.637 348.215V346.677C643.637 344.626 643.993 342.814 644.706 341.242C645.419 339.67 646.425 338.469 647.724 337.639C649.032 336.799 650.526 336.379 652.206 336.379C653.915 336.379 655.419 336.794 656.718 337.624C658.026 338.444 659.032 339.641 659.735 341.213C660.438 342.775 660.79 344.597 660.79 346.677V348.024ZM657.992 346.647C657.992 344.118 657.484 342.18 656.469 340.832C655.453 339.475 654.032 338.796 652.206 338.796C650.429 338.796 649.027 339.475 648.002 340.832C646.986 342.18 646.464 344.055 646.435 346.457V348.024C646.435 350.476 646.947 352.404 647.973 353.811C649.008 355.207 650.429 355.905 652.235 355.905C654.052 355.905 655.458 355.246 656.454 353.928C657.45 352.6 657.963 350.7 657.992 348.229V346.647ZM674.589 342.15L674.677 344.143C675.888 342.619 677.47 341.857 679.423 341.857C682.772 341.857 684.462 343.747 684.491 347.526V358H681.781V347.512C681.771 346.369 681.508 345.524 680.99 344.978C680.482 344.431 679.687 344.157 678.603 344.157C677.724 344.157 676.952 344.392 676.288 344.86C675.624 345.329 675.106 345.944 674.735 346.706V358H672.025V342.15H674.589ZM691.522 358H688.812V342.15H691.522V358ZM688.593 337.946C688.593 337.507 688.725 337.136 688.988 336.833C689.262 336.53 689.662 336.379 690.189 336.379C690.717 336.379 691.117 336.53 691.391 336.833C691.664 337.136 691.801 337.507 691.801 337.946C691.801 338.386 691.664 338.752 691.391 339.045C691.117 339.338 690.717 339.484 690.189 339.484C689.662 339.484 689.262 339.338 688.988 339.045C688.725 338.752 688.593 338.386 688.593 337.946ZM702.45 358.293C700.302 358.293 698.554 357.59 697.206 356.184C695.858 354.768 695.185 352.878 695.185 350.515V350.017C695.185 348.444 695.482 347.043 696.078 345.812C696.684 344.572 697.523 343.605 698.598 342.912C699.682 342.209 700.854 341.857 702.113 341.857C704.174 341.857 705.775 342.536 706.918 343.894C708.061 345.251 708.632 347.194 708.632 349.724V350.852H697.895C697.934 352.414 698.388 353.679 699.257 354.646C700.136 355.603 701.249 356.081 702.597 356.081C703.554 356.081 704.364 355.886 705.028 355.495C705.692 355.104 706.273 354.587 706.771 353.942L708.427 355.231C707.099 357.272 705.106 358.293 702.45 358.293ZM702.113 344.084C701.02 344.084 700.102 344.484 699.359 345.285C698.617 346.076 698.158 347.189 697.982 348.625H705.922V348.42C705.844 347.043 705.473 345.979 704.809 345.227C704.145 344.465 703.246 344.084 702.113 344.084ZM725.814 354.265L728.861 342.15H731.571L726.957 358H724.76L720.907 345.988L717.157 358H714.96L710.36 342.15H713.056L716.176 354.016L719.867 342.15H722.05L725.814 354.265ZM744.125 358C743.969 357.688 743.842 357.131 743.744 356.33C742.484 357.639 740.98 358.293 739.232 358.293C737.67 358.293 736.386 357.854 735.38 356.975C734.384 356.086 733.886 354.963 733.886 353.605C733.886 351.955 734.511 350.676 735.761 349.768C737.021 348.85 738.788 348.391 741.063 348.391H743.7V347.146C743.7 346.198 743.417 345.446 742.851 344.89C742.284 344.323 741.449 344.04 740.346 344.04C739.379 344.04 738.568 344.284 737.914 344.772C737.26 345.261 736.933 345.852 736.933 346.545H734.208C734.208 345.754 734.486 344.992 735.043 344.26C735.609 343.518 736.371 342.932 737.328 342.502C738.295 342.072 739.354 341.857 740.507 341.857C742.333 341.857 743.764 342.316 744.799 343.234C745.834 344.143 746.371 345.397 746.41 346.999V354.294C746.41 355.749 746.596 356.906 746.967 357.766V358H744.125ZM739.628 355.935C740.478 355.935 741.283 355.715 742.045 355.275C742.807 354.836 743.358 354.265 743.7 353.562V350.31H741.576C738.256 350.31 736.596 351.281 736.596 353.225C736.596 354.074 736.879 354.738 737.445 355.217C738.012 355.695 738.739 355.935 739.628 355.935ZM753.207 355.788H762.479V358H749.896V356.008L758.642 344.392H750.028V342.15H762.04V344.069L753.207 355.788ZM754.54 337.976C754.54 337.536 754.672 337.165 754.936 336.862C755.209 336.56 755.609 336.408 756.137 336.408C756.664 336.408 757.064 336.56 757.338 336.862C757.611 337.165 757.748 337.536 757.748 337.976C757.748 338.415 757.611 338.781 757.338 339.074C757.064 339.367 756.664 339.514 756.137 339.514C755.609 339.514 755.209 339.367 754.936 339.074C754.672 338.781 754.54 338.415 754.54 337.976ZM768.104 342.15L768.192 344.143C769.403 342.619 770.985 341.857 772.938 341.857C776.288 341.857 777.978 343.747 778.007 347.526V358H775.297V347.512C775.287 346.369 775.023 345.524 774.506 344.978C773.998 344.431 773.202 344.157 772.118 344.157C771.239 344.157 770.468 344.392 769.804 344.86C769.14 345.329 768.622 345.944 768.251 346.706V358H765.541V342.15H768.104ZM781.376 349.929C781.376 348.376 781.679 346.979 782.284 345.739C782.899 344.499 783.749 343.542 784.833 342.868C785.927 342.194 787.172 341.857 788.568 341.857C790.727 341.857 792.47 342.604 793.798 344.099C795.136 345.593 795.805 347.58 795.805 350.061V350.251C795.805 351.794 795.507 353.181 794.911 354.411C794.325 355.632 793.48 356.584 792.377 357.268C791.283 357.951 790.023 358.293 788.598 358.293C786.449 358.293 784.706 357.546 783.368 356.052C782.04 354.558 781.376 352.58 781.376 350.119V349.929ZM784.101 350.251C784.101 352.009 784.506 353.42 785.316 354.484C786.137 355.549 787.23 356.081 788.598 356.081C789.975 356.081 791.068 355.544 791.879 354.47C792.689 353.386 793.095 351.872 793.095 349.929C793.095 348.19 792.68 346.784 791.85 345.71C791.029 344.626 789.936 344.084 788.568 344.084C787.23 344.084 786.151 344.616 785.331 345.681C784.511 346.745 784.101 348.269 784.101 350.251ZM808.432 353.796C808.432 353.063 808.153 352.497 807.597 352.097C807.05 351.687 806.088 351.335 804.711 351.042C803.344 350.749 802.255 350.397 801.444 349.987C800.644 349.577 800.048 349.089 799.657 348.522C799.276 347.956 799.086 347.282 799.086 346.501C799.086 345.202 799.633 344.104 800.727 343.205C801.83 342.307 803.236 341.857 804.945 341.857C806.742 341.857 808.197 342.321 809.311 343.249C810.434 344.177 810.995 345.363 810.995 346.809H808.271C808.271 346.066 807.953 345.427 807.318 344.89C806.693 344.353 805.902 344.084 804.945 344.084C803.959 344.084 803.188 344.299 802.631 344.729C802.074 345.158 801.796 345.72 801.796 346.413C801.796 347.067 802.055 347.561 802.572 347.893C803.09 348.225 804.022 348.542 805.37 348.845C806.728 349.147 807.826 349.509 808.666 349.929C809.506 350.349 810.126 350.856 810.526 351.452C810.937 352.038 811.142 352.756 811.142 353.605C811.142 355.021 810.575 356.159 809.442 357.019C808.31 357.868 806.84 358.293 805.033 358.293C803.764 358.293 802.641 358.068 801.664 357.619C800.688 357.17 799.921 356.545 799.364 355.744C798.817 354.934 798.544 354.06 798.544 353.122H801.254C801.303 354.03 801.664 354.753 802.338 355.29C803.021 355.817 803.92 356.081 805.033 356.081C806.059 356.081 806.879 355.876 807.494 355.466C808.119 355.046 808.432 354.489 808.432 353.796ZM806.718 335.5H809.999L806.073 339.807H803.891L806.718 335.5ZM821.029 356.081C821.996 356.081 822.841 355.788 823.563 355.202C824.286 354.616 824.687 353.884 824.765 353.005H827.328C827.279 353.913 826.967 354.777 826.391 355.598C825.814 356.418 825.043 357.072 824.076 357.561C823.119 358.049 822.104 358.293 821.029 358.293C818.871 358.293 817.152 357.575 815.873 356.14C814.604 354.694 813.969 352.722 813.969 350.222V349.768C813.969 348.225 814.252 346.853 814.818 345.651C815.385 344.45 816.195 343.518 817.25 342.854C818.314 342.189 819.569 341.857 821.015 341.857C822.792 341.857 824.267 342.39 825.438 343.454C826.62 344.519 827.25 345.9 827.328 347.6H824.765C824.687 346.574 824.296 345.734 823.593 345.08C822.899 344.416 822.04 344.084 821.015 344.084C819.638 344.084 818.568 344.582 817.807 345.578C817.055 346.564 816.679 347.995 816.679 349.87V350.383C816.679 352.209 817.055 353.615 817.807 354.602C818.559 355.588 819.633 356.081 821.029 356.081ZM833.319 358H830.609V342.15H833.319V358ZM830.39 337.946C830.39 337.507 830.521 337.136 830.785 336.833C831.059 336.53 831.459 336.379 831.986 336.379C832.514 336.379 832.914 336.53 833.188 336.833C833.461 337.136 833.598 337.507 833.598 337.946C833.598 338.386 833.461 338.752 833.188 339.045C832.914 339.338 832.514 339.484 831.986 339.484C831.459 339.484 831.059 339.338 830.785 339.045C830.521 338.752 830.39 338.386 830.39 337.946ZM848.056 358H845.346V342.15H848.056V358ZM845.126 337.946C845.126 337.507 845.258 337.136 845.521 336.833C845.795 336.53 846.195 336.379 846.723 336.379C847.25 336.379 847.65 336.53 847.924 336.833C848.197 337.136 848.334 337.507 848.334 337.946C848.334 338.386 848.197 338.752 847.924 339.045C847.65 339.338 847.25 339.484 846.723 339.484C846.195 339.484 845.795 339.338 845.521 339.045C845.258 338.752 845.126 338.386 845.126 337.946ZM854.97 342.15L855.058 344.143C856.269 342.619 857.851 341.857 859.804 341.857C863.153 341.857 864.843 343.747 864.872 347.526V358H862.162V347.512C862.152 346.369 861.889 345.524 861.371 344.978C860.863 344.431 860.067 344.157 858.983 344.157C858.104 344.157 857.333 344.392 856.669 344.86C856.005 345.329 855.487 345.944 855.116 346.706V358H852.406V342.15H854.97ZM872.636 338.312V342.15H875.595V344.245H872.636V354.074C872.636 354.709 872.768 355.188 873.031 355.51C873.295 355.822 873.744 355.979 874.379 355.979C874.691 355.979 875.121 355.92 875.668 355.803V358C874.955 358.195 874.262 358.293 873.588 358.293C872.377 358.293 871.464 357.927 870.849 357.194C870.233 356.462 869.926 355.422 869.926 354.074V344.245H867.04V342.15H869.926V338.312H872.636ZM885.351 358.293C883.202 358.293 881.454 357.59 880.106 356.184C878.759 354.768 878.085 352.878 878.085 350.515V350.017C878.085 348.444 878.383 347.043 878.979 345.812C879.584 344.572 880.424 343.605 881.498 342.912C882.582 342.209 883.754 341.857 885.014 341.857C887.074 341.857 888.676 342.536 889.818 343.894C890.961 345.251 891.532 347.194 891.532 349.724V350.852H880.795C880.834 352.414 881.288 353.679 882.157 354.646C883.036 355.603 884.149 356.081 885.497 356.081C886.454 356.081 887.265 355.886 887.929 355.495C888.593 355.104 889.174 354.587 889.672 353.942L891.327 355.231C889.999 357.272 888.007 358.293 885.351 358.293ZM885.014 344.084C883.92 344.084 883.002 344.484 882.26 345.285C881.518 346.076 881.059 347.189 880.883 348.625H888.822V348.42C888.744 347.043 888.373 345.979 887.709 345.227C887.045 344.465 886.146 344.084 885.014 344.084ZM902.343 344.582C901.933 344.514 901.488 344.479 901.01 344.479C899.232 344.479 898.026 345.236 897.392 346.75V358H894.682V342.15H897.318L897.362 343.981C898.251 342.565 899.511 341.857 901.142 341.857C901.669 341.857 902.069 341.926 902.343 342.062V344.582ZM906.415 358V344.245H903.91V342.15H906.415V340.524C906.415 338.825 906.869 337.512 907.777 336.584C908.686 335.656 909.97 335.192 911.63 335.192C912.255 335.192 912.875 335.275 913.49 335.441L913.344 337.639C912.885 337.551 912.396 337.507 911.879 337.507C911 337.507 910.321 337.766 909.843 338.283C909.364 338.791 909.125 339.523 909.125 340.48V342.15H912.509V344.245H909.125V358H906.415ZM921.737 358.293C919.589 358.293 917.841 357.59 916.493 356.184C915.146 354.768 914.472 352.878 914.472 350.515V350.017C914.472 348.444 914.77 347.043 915.365 345.812C915.971 344.572 916.811 343.605 917.885 342.912C918.969 342.209 920.141 341.857 921.4 341.857C923.461 341.857 925.062 342.536 926.205 343.894C927.348 345.251 927.919 347.194 927.919 349.724V350.852H917.182C917.221 352.414 917.675 353.679 918.544 354.646C919.423 355.603 920.536 356.081 921.884 356.081C922.841 356.081 923.651 355.886 924.315 355.495C924.979 355.104 925.561 354.587 926.059 353.942L927.714 355.231C926.386 357.272 924.394 358.293 921.737 358.293ZM921.4 344.084C920.307 344.084 919.389 344.484 918.646 345.285C917.904 346.076 917.445 347.189 917.27 348.625H925.209V348.42C925.131 347.043 924.76 345.979 924.096 345.227C923.432 344.465 922.533 344.084 921.4 344.084ZM933.866 342.15V359.831C933.866 362.878 932.484 364.401 929.721 364.401C929.125 364.401 928.573 364.313 928.065 364.138V361.97C928.378 362.048 928.788 362.087 929.296 362.087C929.901 362.087 930.36 361.921 930.673 361.589C930.995 361.267 931.156 360.7 931.156 359.89V342.15H933.866ZM930.878 337.946C930.878 337.517 931.01 337.15 931.273 336.848C931.547 336.535 931.942 336.379 932.46 336.379C932.987 336.379 933.388 336.53 933.661 336.833C933.935 337.136 934.071 337.507 934.071 337.946C934.071 338.386 933.935 338.752 933.661 339.045C933.388 339.338 932.987 339.484 932.46 339.484C931.933 339.484 931.537 339.338 931.273 339.045C931.01 338.752 930.878 338.386 930.878 337.946ZM947.475 353.796C947.475 353.063 947.196 352.497 946.64 352.097C946.093 351.687 945.131 351.335 943.754 351.042C942.387 350.749 941.298 350.397 940.487 349.987C939.687 349.577 939.091 349.089 938.7 348.522C938.319 347.956 938.129 347.282 938.129 346.501C938.129 345.202 938.676 344.104 939.77 343.205C940.873 342.307 942.279 341.857 943.988 341.857C945.785 341.857 947.24 342.321 948.354 343.249C949.477 344.177 950.038 345.363 950.038 346.809H947.313C947.313 346.066 946.996 345.427 946.361 344.89C945.736 344.353 944.945 344.084 943.988 344.084C943.002 344.084 942.23 344.299 941.674 344.729C941.117 345.158 940.839 345.72 940.839 346.413C940.839 347.067 941.098 347.561 941.615 347.893C942.133 348.225 943.065 348.542 944.413 348.845C945.771 349.147 946.869 349.509 947.709 349.929C948.549 350.349 949.169 350.856 949.569 351.452C949.979 352.038 950.185 352.756 950.185 353.605C950.185 355.021 949.618 356.159 948.485 357.019C947.353 357.868 945.883 358.293 944.076 358.293C942.807 358.293 941.684 358.068 940.707 357.619C939.73 357.17 938.964 356.545 938.407 355.744C937.86 354.934 937.587 354.06 937.587 353.122H940.297C940.346 354.03 940.707 354.753 941.381 355.29C942.064 355.817 942.963 356.081 944.076 356.081C945.102 356.081 945.922 355.876 946.537 355.466C947.162 355.046 947.475 354.489 947.475 353.796ZM952.997 349.929C952.997 348.376 953.3 346.979 953.905 345.739C954.521 344.499 955.37 343.542 956.454 342.868C957.548 342.194 958.793 341.857 960.189 341.857C962.348 341.857 964.091 342.604 965.419 344.099C966.757 345.593 967.426 347.58 967.426 350.061V350.251C967.426 351.794 967.128 353.181 966.532 354.411C965.946 355.632 965.102 356.584 963.998 357.268C962.904 357.951 961.645 358.293 960.219 358.293C958.07 358.293 956.327 357.546 954.989 356.052C953.661 354.558 952.997 352.58 952.997 350.119V349.929ZM955.722 350.251C955.722 352.009 956.127 353.42 956.938 354.484C957.758 355.549 958.852 356.081 960.219 356.081C961.596 356.081 962.689 355.544 963.5 354.47C964.311 353.386 964.716 351.872 964.716 349.929C964.716 348.19 964.301 346.784 963.471 345.71C962.65 344.626 961.557 344.084 960.189 344.084C958.852 344.084 957.772 344.616 956.952 345.681C956.132 346.745 955.722 348.269 955.722 350.251ZM961.42 335.5H964.701L960.775 339.807H958.593L961.42 335.5ZM984.857 354.265L987.904 342.15H990.614L986 358H983.803L979.95 345.988L976.2 358H974.003L969.403 342.15H972.099L975.219 354.016L978.91 342.15H981.093L984.857 354.265Z" fill="black"/>
</g>
</svg>
