<svg width="1024" height="768" viewBox="0 0 1024 768" fill="none" xmlns="http://www.w3.org/2000/svg">
<g id="First slide">
<rect width="1024" height="768" fill="white"/>
<path id="Recognisable languages over monads" d="M67.34 78.08V67.94C72.38 67.94 73.52 68.84 74.36 70.22L80.78 80.66C82.52 83.48 85.1 86 88.7 86C89.6 86 90.62 85.88 91.22 85.58C91.46 85.16 91.4 84.62 91.16 84.14C88.46 84.14 86.96 82.1 85.4 79.52L77.84 66.92C80.42 66.08 85.82 62.96 85.82 56.66C85.82 53.66 84.8 51.2 82.64 49.16C79.76 46.46 76.04 46.28 72.26 46.28C69.44 46.28 66.92 46.7 64.76 46.7C62.66 46.7 59.84 46.64 57.02 46.58C56.66 46.94 56.66 48.2 57.02 48.56C61.22 48.74 62.24 49.04 62.24 54.02V78.08C62.24 83.06 61.22 83.36 57.02 83.54C56.66 83.9 56.66 85.16 57.02 85.52C59.72 85.46 62.54 85.4 64.82 85.4C67.1 85.4 69.92 85.46 72.56 85.52C72.92 85.16 72.92 83.9 72.56 83.54C68.36 83.36 67.34 83.06 67.34 78.08ZM72.32 48.32C75.98 48.32 80.3 49.64 80.3 56.72C80.3 64.22 76.04 65.9 70.22 65.9H67.34V52.16C67.34 50.42 68.06 48.32 72.32 48.32ZM114.375 79.82C112.155 82.1 110.415 83.06 106.935 83.06C104.775 83.06 102.255 81.8 100.395 78.74C99.1948 76.76 98.4748 74 98.4748 70.52L114.435 70.64C115.155 70.64 115.575 70.28 115.575 69.62C115.575 64.58 113.775 59.18 105.435 59.18C100.215 59.18 93.4348 64.16 93.4348 73.28C93.4348 76.64 94.2748 79.88 96.2548 82.16C98.2948 84.56 101.115 86 105.435 86C109.995 86 113.235 83.9 115.635 80.78C115.455 80.18 115.095 79.88 114.375 79.82ZM98.6548 68.48C99.7948 61.7 103.995 61.16 105.435 61.16C107.715 61.16 110.415 62.42 110.415 67.46C110.415 68 110.175 68.3 109.515 68.3L98.6548 68.48ZM142.341 79.94C142.101 79.4 141.621 79.16 141.081 79.1C139.041 81.74 136.461 83.06 133.881 83.06C129.501 83.06 125.841 78.62 125.841 71.6C125.841 65 128.721 61.04 132.681 61.04C136.221 61.04 136.701 63.14 136.941 65.24C137.121 66.86 137.961 67.4 139.221 67.4C140.481 67.4 142.161 66.62 142.161 64.76C142.161 61.46 138.741 59.06 132.981 59.06C127.041 59.06 120.681 64.4 120.681 72.92C120.681 80.66 125.001 86 132.561 86C136.161 86 139.341 84.86 142.341 79.94ZM146.585 73.1C146.585 79.22 150.665 86 159.185 86C163.025 86 165.965 84.62 168.005 82.64C170.705 80 171.905 76.22 171.905 72.56C171.905 66.32 168.485 59.06 159.305 59.06C155.345 59.06 152.105 60.68 149.885 63.26C147.725 65.84 146.585 69.32 146.585 73.1ZM158.405 61.16C163.565 61.16 166.745 65.84 166.745 74.48C166.745 82.04 162.845 83.9 160.025 83.9C153.785 83.9 151.745 76.34 151.745 71.72C151.745 66.5 153.005 61.16 158.405 61.16ZM200.999 62.18C202.139 62.18 203.219 61.1 203.219 59.9C203.219 58.64 202.079 57.68 200.459 57.68C198.899 57.68 196.019 58.7 194.459 60.74C193.739 60.26 191.759 59.06 188.219 59.06C182.879 59.06 177.959 62.66 177.959 68.18C177.959 71.42 179.399 73.28 181.079 74.9C179.399 76.34 178.439 78.92 178.439 80.96C178.439 83.12 179.639 84.8 181.199 85.58C177.959 87.5 176.279 90.26 176.279 92.84C176.279 98.06 181.199 99.68 185.819 99.68C193.919 99.68 202.679 95.78 202.679 89.3C202.679 87.38 201.779 85.88 200.039 84.44C197.699 82.52 193.499 82.46 191.279 82.46C190.199 82.46 188.699 82.58 187.259 82.76C186.359 82.82 185.759 82.88 185.459 82.88C183.719 82.88 181.619 82.04 181.619 79.46C181.619 78.26 181.979 77 182.699 75.98C184.139 76.82 185.819 77.24 188.159 77.24C193.439 77.24 198.299 73.94 198.299 68.06C198.299 65.24 197.459 63.62 195.719 61.82C196.139 61.22 197.339 60.38 198.119 60.38C198.539 60.38 198.959 60.56 199.319 61.1C199.559 61.58 200.339 62.18 200.999 62.18ZM182.279 86C182.939 86.18 183.899 86.3 184.679 86.3C186.539 86.3 188.219 86.12 189.059 86.12C192.059 86.12 194.579 86.18 196.319 87.14C198.659 88.46 199.379 89.3 199.379 90.86C199.379 95.18 193.019 97.46 187.619 97.46C185.459 97.46 180.419 95.72 180.419 91.64C180.419 89.6 180.539 88.1 182.279 86ZM193.499 68.66C193.499 74.24 190.679 75.38 188.459 75.38C183.419 75.38 182.879 71.12 182.879 67.28C182.879 63.08 184.379 60.92 187.679 60.92C191.459 60.92 193.499 63.68 193.499 68.66ZM215.399 63.92C215.039 64.34 214.679 64.46 214.679 63.92C214.619 62.3 214.499 59.96 214.199 59.36C214.079 59.06 213.959 58.88 213.479 58.88C211.799 59.54 210.239 60.08 206.099 60.62C205.979 60.98 206.099 61.94 206.219 62.3C209.459 62.6 210.119 62.9 210.119 66.38V78.08C210.119 83 209.519 83.24 205.919 83.54C205.559 83.9 205.559 85.16 205.919 85.52C207.719 85.46 210.119 85.4 212.519 85.4C214.919 85.4 216.719 85.46 218.519 85.52C218.879 85.16 218.879 83.9 218.519 83.54C215.459 83.24 214.859 83 214.859 78.08V68.24C214.859 66.98 215.399 66.26 215.879 65.72C218.159 63.5 220.859 62.18 223.199 62.18C224.399 62.18 225.659 62.96 226.379 64.34C226.979 65.54 227.099 67.16 227.099 68.96V78.08C227.099 83 226.499 83.24 223.379 83.54C223.079 83.9 223.079 85.16 223.379 85.52C225.179 85.46 227.099 85.4 229.499 85.4C231.899 85.4 234.059 85.46 235.859 85.52C236.159 85.16 236.159 83.9 235.859 83.54C232.499 83.24 231.839 83 231.839 78.08V69.14C231.839 65.84 231.599 62.96 230.219 61.1C229.199 59.78 227.339 59.06 225.239 59.06C222.299 59.06 218.939 59.84 215.399 63.92ZM247.739 78.08V66.14C247.739 63.14 247.979 59.3 247.979 59.3C247.979 59.06 247.679 58.88 247.199 58.88C245.519 59.54 243.119 60.08 238.979 60.62C238.859 60.98 238.979 61.94 239.099 62.3C242.399 62.6 242.999 62.96 242.999 66.38V78.08C242.999 83.06 242.339 83.24 238.679 83.54C238.319 83.9 238.319 85.16 238.679 85.52C240.659 85.46 242.999 85.4 245.399 85.4C247.799 85.4 250.079 85.46 252.059 85.52C252.419 85.16 252.419 83.9 252.059 83.54C248.399 83.3 247.739 83.06 247.739 78.08ZM242.279 49.46C242.279 51.02 243.719 52.58 245.159 52.58C246.839 52.58 248.279 50.96 248.279 49.7C248.279 48.26 247.019 46.58 245.399 46.58C243.959 46.58 242.279 48.02 242.279 49.46ZM256.048 77.12C256.288 80.06 256.468 82.88 256.468 85.4C257.068 85.28 257.668 85.22 257.968 85.22C258.388 85.22 258.748 85.22 259.168 85.34C260.788 85.76 262.408 86 264.628 86C267.988 86 274.168 84.38 274.168 78.44C274.168 74.36 271.228 71.96 267.148 70.46C263.548 69.08 261.148 68.18 261.148 64.88C261.148 62.42 263.308 61.04 265.348 61.04C266.668 61.04 270.148 61.52 270.928 66.62C271.288 66.98 272.488 66.92 272.848 66.56C273.028 64.4 273.148 62.18 273.208 60.2C271.348 59.9 268.468 59.06 265.348 59.06C260.908 59.06 256.888 61.94 256.888 65.78C256.888 70.16 258.868 72.02 263.488 73.94C268.468 75.98 269.608 77.24 269.608 79.82C269.608 82.76 266.728 84.02 264.508 84.02C262.168 84.02 260.848 83.24 260.248 82.58C258.928 81.2 258.268 78.56 257.908 77.06C257.548 76.7 256.408 76.76 256.048 77.12ZM294.127 82.52C294.487 84.38 295.147 86 298.147 86C300.427 86 302.587 84.98 303.847 83.78C303.727 83.06 303.487 82.52 302.827 82.16C302.407 82.52 301.387 83.12 300.607 83.12C298.867 83.12 298.807 80.78 298.807 78.02V69.2C298.807 60.68 294.127 59.06 289.747 59.06C284.827 59.06 279.847 62.3 279.847 65.72C279.847 67.16 280.567 67.88 281.947 67.88C283.687 67.88 284.767 66.62 284.767 65.84C284.767 65.42 284.707 65 284.587 64.76C284.527 64.58 284.467 64.22 284.467 63.56C284.467 61.7 286.987 61.04 289.267 61.04C291.307 61.04 294.127 62.06 294.127 68.84C294.127 69.26 293.947 69.5 293.767 69.56L288.607 70.82C282.847 72.26 278.707 75.44 278.707 79.52C278.707 84.44 282.067 86 286.267 86C288.367 86 290.167 85.52 292.807 83.48L294.007 82.52H294.127ZM294.127 71.42V79.34C294.127 80.12 293.767 80.54 293.287 80.9C291.727 82.16 289.687 83.54 288.007 83.54C285.007 83.54 283.687 81.14 283.687 79.28C283.687 76.58 284.947 73.82 289.387 72.68L294.127 71.42ZM313.989 61.76C313.629 62.12 313.389 62 313.389 61.46V50.42C313.389 46.52 313.629 44.12 313.629 44.12C313.629 43.7 313.389 43.52 312.849 43.52C311.349 44.12 306.849 44.96 304.449 45.14C304.329 45.62 304.449 46.58 304.809 46.94C304.989 46.94 305.169 46.94 305.349 46.94C307.989 47.12 308.649 47.12 308.649 51.86V81.14C308.649 83.48 308.589 84.56 308.409 85.4C308.709 85.88 309.009 86.12 309.729 86.12C310.089 85.76 310.689 85.22 311.169 84.68C311.769 83.96 312.129 83.96 312.789 84.5C314.169 85.64 315.969 86 318.069 86C324.189 86 331.329 80.42 331.329 70.88C331.329 63.56 325.929 59.06 320.709 59.06C318.129 59.06 315.849 60.08 313.989 61.76ZM314.409 63.62C315.969 62.24 317.769 61.7 319.509 61.7C323.169 61.7 326.169 66.14 326.169 71.96C326.169 78.8 323.409 83.96 317.709 83.96C315.849 83.96 314.589 82.64 313.389 81.14V66.14C313.389 64.88 313.629 64.28 314.409 63.62ZM339.259 78.08C339.259 83.06 338.599 83.36 334.939 83.54C334.579 83.9 334.579 85.16 334.939 85.52C337.039 85.46 339.259 85.4 341.659 85.4C344.059 85.4 346.339 85.46 348.319 85.52C348.679 85.16 348.679 83.9 348.319 83.54C344.659 83.36 343.999 83.06 343.999 78.08V50.42C343.999 46.52 344.239 44.12 344.239 44.12C344.239 43.7 343.999 43.52 343.459 43.52C341.959 44.12 337.459 44.96 335.059 45.14C334.939 45.62 335.059 46.58 335.419 46.94C338.899 47.18 339.259 47.36 339.259 51.86V78.08ZM372.539 79.82C370.319 82.1 368.579 83.06 365.099 83.06C362.939 83.06 360.419 81.8 358.559 78.74C357.359 76.76 356.639 74 356.639 70.52L372.599 70.64C373.319 70.64 373.739 70.28 373.739 69.62C373.739 64.58 371.939 59.18 363.599 59.18C358.379 59.18 351.599 64.16 351.599 73.28C351.599 76.64 352.439 79.88 354.419 82.16C356.459 84.56 359.279 86 363.599 86C368.159 86 371.399 83.9 373.799 80.78C373.619 80.18 373.259 79.88 372.539 79.82ZM356.819 68.48C357.959 61.7 362.159 61.16 363.599 61.16C365.879 61.16 368.579 62.42 368.579 67.46C368.579 68 368.339 68.3 367.679 68.3L356.819 68.48ZM396.915 78.08C396.915 83.06 396.255 83.36 392.595 83.54C392.235 83.9 392.235 85.16 392.595 85.52C394.695 85.46 396.915 85.4 399.315 85.4C401.715 85.4 403.995 85.46 405.975 85.52C406.335 85.16 406.335 83.9 405.975 83.54C402.315 83.36 401.655 83.06 401.655 78.08V50.42C401.655 46.52 401.895 44.12 401.895 44.12C401.895 43.7 401.655 43.52 401.115 43.52C399.615 44.12 395.115 44.96 392.715 45.14C392.595 45.62 392.715 46.58 393.075 46.94C396.555 47.18 396.915 47.36 396.915 51.86V78.08ZM424.615 82.52C424.975 84.38 425.635 86 428.635 86C430.915 86 433.075 84.98 434.335 83.78C434.215 83.06 433.975 82.52 433.315 82.16C432.895 82.52 431.875 83.12 431.095 83.12C429.355 83.12 429.295 80.78 429.295 78.02V69.2C429.295 60.68 424.615 59.06 420.235 59.06C415.315 59.06 410.335 62.3 410.335 65.72C410.335 67.16 411.055 67.88 412.435 67.88C414.175 67.88 415.255 66.62 415.255 65.84C415.255 65.42 415.195 65 415.075 64.76C415.015 64.58 414.955 64.22 414.955 63.56C414.955 61.7 417.475 61.04 419.755 61.04C421.795 61.04 424.615 62.06 424.615 68.84C424.615 69.26 424.435 69.5 424.255 69.56L419.095 70.82C413.335 72.26 409.195 75.44 409.195 79.52C409.195 84.44 412.555 86 416.755 86C418.855 86 420.655 85.52 423.295 83.48L424.495 82.52H424.615ZM424.615 71.42V79.34C424.615 80.12 424.255 80.54 423.775 80.9C422.215 82.16 420.175 83.54 418.495 83.54C415.495 83.54 414.175 81.14 414.175 79.28C414.175 76.58 415.435 73.82 419.875 72.68L424.615 71.42ZM445.497 63.92C445.137 64.34 444.777 64.46 444.777 63.92C444.717 62.3 444.597 59.96 444.297 59.36C444.177 59.06 444.057 58.88 443.577 58.88C441.897 59.54 440.337 60.08 436.197 60.62C436.077 60.98 436.197 61.94 436.317 62.3C439.557 62.6 440.217 62.9 440.217 66.38V78.08C440.217 83 439.617 83.24 436.017 83.54C435.657 83.9 435.657 85.16 436.017 85.52C437.817 85.46 440.217 85.4 442.617 85.4C445.017 85.4 446.817 85.46 448.617 85.52C448.977 85.16 448.977 83.9 448.617 83.54C445.557 83.24 444.957 83 444.957 78.08V68.24C444.957 66.98 445.497 66.26 445.977 65.72C448.257 63.5 450.957 62.18 453.297 62.18C454.497 62.18 455.757 62.96 456.477 64.34C457.077 65.54 457.197 67.16 457.197 68.96V78.08C457.197 83 456.597 83.24 453.477 83.54C453.177 83.9 453.177 85.16 453.477 85.52C455.277 85.46 457.197 85.4 459.597 85.4C461.997 85.4 464.157 85.46 465.957 85.52C466.257 85.16 466.257 83.9 465.957 83.54C462.597 83.24 461.937 83 461.937 78.08V69.14C461.937 65.84 461.697 62.96 460.317 61.1C459.297 59.78 457.437 59.06 455.337 59.06C452.397 59.06 449.037 59.84 445.497 63.92ZM493.617 62.18C494.757 62.18 495.837 61.1 495.837 59.9C495.837 58.64 494.697 57.68 493.077 57.68C491.517 57.68 488.637 58.7 487.077 60.74C486.357 60.26 484.377 59.06 480.837 59.06C475.497 59.06 470.577 62.66 470.577 68.18C470.577 71.42 472.017 73.28 473.697 74.9C472.017 76.34 471.057 78.92 471.057 80.96C471.057 83.12 472.257 84.8 473.817 85.58C470.577 87.5 468.897 90.26 468.897 92.84C468.897 98.06 473.817 99.68 478.437 99.68C486.537 99.68 495.297 95.78 495.297 89.3C495.297 87.38 494.397 85.88 492.657 84.44C490.317 82.52 486.117 82.46 483.897 82.46C482.817 82.46 481.317 82.58 479.877 82.76C478.977 82.82 478.377 82.88 478.077 82.88C476.337 82.88 474.237 82.04 474.237 79.46C474.237 78.26 474.597 77 475.317 75.98C476.757 76.82 478.437 77.24 480.777 77.24C486.057 77.24 490.917 73.94 490.917 68.06C490.917 65.24 490.077 63.62 488.337 61.82C488.757 61.22 489.957 60.38 490.737 60.38C491.157 60.38 491.577 60.56 491.937 61.1C492.177 61.58 492.957 62.18 493.617 62.18ZM474.897 86C475.557 86.18 476.517 86.3 477.297 86.3C479.157 86.3 480.837 86.12 481.677 86.12C484.677 86.12 487.197 86.18 488.937 87.14C491.277 88.46 491.997 89.3 491.997 90.86C491.997 95.18 485.637 97.46 480.237 97.46C478.077 97.46 473.037 95.72 473.037 91.64C473.037 89.6 473.157 88.1 474.897 86ZM486.117 68.66C486.117 74.24 483.297 75.38 481.077 75.38C476.037 75.38 475.497 71.12 475.497 67.28C475.497 63.08 476.997 60.92 480.297 60.92C484.077 60.92 486.117 63.68 486.117 68.66ZM509.997 86C512.337 86 515.157 84.8 518.097 82.4C518.397 82.16 518.937 82.04 518.997 82.46C519.177 83.96 519.657 86 519.657 86C520.137 86.18 520.437 86.12 520.797 86C522.117 84.92 524.217 84.02 527.877 83.6C528.237 83.24 528.237 82.34 527.877 81.98C524.037 81.68 523.497 80.54 523.497 77.6V66.08C523.497 64.28 523.737 59.9 523.737 59.9C523.737 59.72 523.557 59.54 523.257 59.54C522.957 59.6 522.057 59.66 521.157 59.66C519.237 59.66 517.077 59.6 515.037 59.54C514.677 59.9 514.677 61.16 515.037 61.52C517.977 61.7 518.757 62.42 518.757 66.38V77.96C518.757 79.1 518.637 79.58 517.797 80.3C515.577 82.22 513.297 83.18 511.797 83.18C509.997 83.18 506.997 82.34 506.997 77V66.08C506.997 64.28 507.237 59.9 507.237 59.9C507.237 59.72 507.057 59.54 506.757 59.54C506.457 59.6 505.557 59.66 504.657 59.66C502.737 59.66 500.577 59.6 498.537 59.54C498.177 59.9 498.177 61.16 498.537 61.52C501.417 61.76 502.257 62.42 502.257 66.32V77.84C502.257 81.98 504.057 86 509.997 86ZM546.432 82.52C546.792 84.38 547.452 86 550.452 86C552.732 86 554.892 84.98 556.152 83.78C556.032 83.06 555.792 82.52 555.132 82.16C554.712 82.52 553.692 83.12 552.912 83.12C551.172 83.12 551.112 80.78 551.112 78.02V69.2C551.112 60.68 546.432 59.06 542.052 59.06C537.132 59.06 532.152 62.3 532.152 65.72C532.152 67.16 532.872 67.88 534.252 67.88C535.992 67.88 537.072 66.62 537.072 65.84C537.072 65.42 537.012 65 536.892 64.76C536.832 64.58 536.772 64.22 536.772 63.56C536.772 61.7 539.292 61.04 541.572 61.04C543.612 61.04 546.432 62.06 546.432 68.84C546.432 69.26 546.252 69.5 546.072 69.56L540.912 70.82C535.152 72.26 531.012 75.44 531.012 79.52C531.012 84.44 534.372 86 538.572 86C540.672 86 542.472 85.52 545.112 83.48L546.312 82.52H546.432ZM546.432 71.42V79.34C546.432 80.12 546.072 80.54 545.592 80.9C544.032 82.16 541.992 83.54 540.312 83.54C537.312 83.54 535.992 81.14 535.992 79.28C535.992 76.58 537.252 73.82 541.692 72.68L546.432 71.42ZM582.913 62.18C584.053 62.18 585.133 61.1 585.133 59.9C585.133 58.64 583.993 57.68 582.373 57.68C580.813 57.68 577.933 58.7 576.373 60.74C575.653 60.26 573.673 59.06 570.133 59.06C564.793 59.06 559.873 62.66 559.873 68.18C559.873 71.42 561.313 73.28 562.993 74.9C561.313 76.34 560.353 78.92 560.353 80.96C560.353 83.12 561.553 84.8 563.113 85.58C559.873 87.5 558.193 90.26 558.193 92.84C558.193 98.06 563.113 99.68 567.733 99.68C575.833 99.68 584.593 95.78 584.593 89.3C584.593 87.38 583.693 85.88 581.953 84.44C579.613 82.52 575.413 82.46 573.193 82.46C572.113 82.46 570.613 82.58 569.173 82.76C568.273 82.82 567.673 82.88 567.373 82.88C565.633 82.88 563.533 82.04 563.533 79.46C563.533 78.26 563.893 77 564.613 75.98C566.053 76.82 567.733 77.24 570.073 77.24C575.353 77.24 580.213 73.94 580.213 68.06C580.213 65.24 579.373 63.62 577.633 61.82C578.053 61.22 579.253 60.38 580.033 60.38C580.453 60.38 580.873 60.56 581.233 61.1C581.473 61.58 582.253 62.18 582.913 62.18ZM564.193 86C564.853 86.18 565.813 86.3 566.593 86.3C568.453 86.3 570.133 86.12 570.973 86.12C573.973 86.12 576.493 86.18 578.233 87.14C580.573 88.46 581.293 89.3 581.293 90.86C581.293 95.18 574.933 97.46 569.533 97.46C567.373 97.46 562.333 95.72 562.333 91.64C562.333 89.6 562.453 88.1 564.193 86ZM575.413 68.66C575.413 74.24 572.593 75.38 570.373 75.38C565.333 75.38 564.793 71.12 564.793 67.28C564.793 63.08 566.293 60.92 569.593 60.92C573.373 60.92 575.413 63.68 575.413 68.66ZM609.433 79.82C607.213 82.1 605.473 83.06 601.993 83.06C599.833 83.06 597.313 81.8 595.453 78.74C594.253 76.76 593.533 74 593.533 70.52L609.493 70.64C610.213 70.64 610.633 70.28 610.633 69.62C610.633 64.58 608.833 59.18 600.493 59.18C595.273 59.18 588.493 64.16 588.493 73.28C588.493 76.64 589.333 79.88 591.313 82.16C593.353 84.56 596.173 86 600.493 86C605.053 86 608.293 83.9 610.693 80.78C610.513 80.18 610.153 79.88 609.433 79.82ZM593.713 68.48C594.853 61.7 599.053 61.16 600.493 61.16C602.773 61.16 605.473 62.42 605.473 67.46C605.473 68 605.233 68.3 604.573 68.3L593.713 68.48ZM615.989 77.12C616.229 80.06 616.409 82.88 616.409 85.4C617.009 85.28 617.609 85.22 617.909 85.22C618.329 85.22 618.689 85.22 619.109 85.34C620.729 85.76 622.349 86 624.569 86C627.929 86 634.109 84.38 634.109 78.44C634.109 74.36 631.169 71.96 627.089 70.46C623.489 69.08 621.089 68.18 621.089 64.88C621.089 62.42 623.249 61.04 625.289 61.04C626.609 61.04 630.089 61.52 630.869 66.62C631.229 66.98 632.429 66.92 632.789 66.56C632.969 64.4 633.089 62.18 633.149 60.2C631.289 59.9 628.409 59.06 625.289 59.06C620.849 59.06 616.829 61.94 616.829 65.78C616.829 70.16 618.809 72.02 623.429 73.94C628.409 75.98 629.549 77.24 629.549 79.82C629.549 82.76 626.669 84.02 624.449 84.02C622.109 84.02 620.789 83.24 620.189 82.58C618.869 81.2 618.209 78.56 617.849 77.06C617.489 76.7 616.349 76.76 615.989 77.12ZM653.948 73.1C653.948 79.22 658.028 86 666.548 86C670.388 86 673.328 84.62 675.368 82.64C678.068 80 679.268 76.22 679.268 72.56C679.268 66.32 675.848 59.06 666.668 59.06C662.708 59.06 659.468 60.68 657.248 63.26C655.088 65.84 653.948 69.32 653.948 73.1ZM665.768 61.16C670.928 61.16 674.108 65.84 674.108 74.48C674.108 82.04 670.208 83.9 667.388 83.9C661.148 83.9 659.108 76.34 659.108 71.72C659.108 66.5 660.368 61.16 665.768 61.16ZM700.813 61.52C704.053 61.76 704.413 62.48 703.153 65.54L698.293 77.3C697.333 79.64 697.033 79.64 696.073 77.12L691.753 65.54C690.673 62.66 690.433 61.94 693.613 61.52C693.973 61.16 693.973 59.9 693.613 59.54C691.633 59.6 689.533 59.66 687.553 59.66C685.573 59.66 683.773 59.6 681.973 59.54C681.613 59.9 681.613 61.16 681.973 61.52C685.153 61.88 685.573 62.84 686.773 65.9L694.453 84.86C694.813 85.76 695.173 86.12 695.953 86.12C696.553 86.12 696.973 85.76 697.393 84.74L705.373 65.96C706.513 63.32 707.173 61.82 710.533 61.52C710.893 61.16 710.893 59.9 710.533 59.54C709.333 59.6 707.893 59.66 706.333 59.66C704.353 59.66 702.313 59.6 700.813 59.54C700.453 59.9 700.453 61.16 700.813 61.52ZM733.828 79.82C731.608 82.1 729.868 83.06 726.388 83.06C724.228 83.06 721.708 81.8 719.848 78.74C718.648 76.76 717.928 74 717.928 70.52L733.888 70.64C734.608 70.64 735.028 70.28 735.028 69.62C735.028 64.58 733.228 59.18 724.888 59.18C719.668 59.18 712.888 64.16 712.888 73.28C712.888 76.64 713.728 79.88 715.708 82.16C717.748 84.56 720.568 86 724.888 86C729.448 86 732.688 83.9 735.088 80.78C734.908 80.18 734.548 79.88 733.828 79.82ZM718.108 68.48C719.248 61.7 723.448 61.16 724.888 61.16C727.168 61.16 729.868 62.42 729.868 67.46C729.868 68 729.628 68.3 728.968 68.3L718.108 68.48ZM748.064 63.92C747.944 61.52 747.884 59.96 747.584 59.36C747.464 59.06 747.344 58.88 746.864 58.88C745.184 59.54 743.624 60.08 739.484 60.62C739.364 60.98 739.484 61.94 739.604 62.3C742.844 62.6 743.504 62.9 743.504 66.38V78.08C743.504 83.06 742.784 83.3 739.064 83.54C738.704 83.9 738.704 85.16 739.064 85.52C741.164 85.46 743.504 85.4 745.904 85.4C748.304 85.4 751.064 85.46 753.164 85.52C753.524 85.16 753.524 83.9 753.164 83.54C748.964 83.24 748.244 83.06 748.244 78.08V69.74C748.244 68.18 748.964 66.8 749.684 65.72C750.344 64.76 751.724 62.78 752.444 62.78C752.984 62.78 753.524 62.9 754.004 63.56C754.424 64.16 755.144 64.94 756.164 64.94C757.604 64.94 758.984 63.44 758.984 61.94C758.984 60.8 757.904 59.06 755.384 59.06C752.564 59.06 750.104 61.7 748.724 64.04C748.364 64.7 748.064 64.22 748.064 63.92ZM785.028 63.92C784.968 62.12 784.848 59.96 784.548 59.36C784.428 59.06 784.308 58.88 783.828 58.88C782.148 59.54 780.588 60.08 776.448 60.62C776.328 60.98 776.448 61.94 776.568 62.3C779.808 62.6 780.468 62.9 780.468 66.38V78.08C780.468 83 779.688 83.3 776.388 83.54C776.028 83.9 776.028 85.16 776.388 85.52C778.188 85.46 780.468 85.4 782.868 85.4C785.268 85.4 787.128 85.46 788.928 85.52C789.288 85.16 789.288 83.9 788.928 83.54C785.868 83.24 785.208 83 785.208 78.08V68.24C785.208 66.98 785.748 66.26 786.228 65.72C788.628 63.38 790.848 62.18 792.708 62.18C794.988 62.18 796.668 63.62 796.668 67.64V78.08C796.668 83 796.188 83.3 792.948 83.54C792.648 83.9 792.648 85.16 792.948 85.52C794.448 85.46 796.668 85.4 799.068 85.4C801.468 85.4 803.448 85.46 804.948 85.52C805.248 85.16 805.248 83.9 804.948 83.54C801.948 83.3 801.408 83 801.408 78.08V68.54C801.408 67.7 801.408 66.86 801.348 66.14C804.228 62.96 806.928 62.18 809.268 62.18C811.548 62.18 812.868 63.5 812.868 67.52V78.08C812.868 83 812.268 83.3 809.148 83.54C808.848 83.9 808.848 85.16 809.148 85.52C810.648 85.46 812.868 85.4 815.268 85.4C817.668 85.4 819.768 85.46 821.448 85.52C821.748 85.16 821.748 83.9 821.448 83.54C818.148 83.3 817.608 83 817.608 78.08V68.6C817.608 63.26 816.708 59.06 811.428 59.06C808.368 59.06 804.648 60.2 801.528 63.5C801.348 63.68 800.988 63.98 800.868 63.44C800.328 60.98 797.988 59.06 794.868 59.06C791.388 59.06 788.268 61.1 785.748 63.92C785.448 64.22 785.088 64.64 785.028 63.92ZM824.69 73.1C824.69 79.22 828.77 86 837.29 86C841.13 86 844.07 84.62 846.11 82.64C848.81 80 850.01 76.22 850.01 72.56C850.01 66.32 846.59 59.06 837.41 59.06C833.45 59.06 830.21 60.68 827.99 63.26C825.83 65.84 824.69 69.32 824.69 73.1ZM836.51 61.16C841.67 61.16 844.85 65.84 844.85 74.48C844.85 82.04 840.95 83.9 838.13 83.9C831.89 83.9 829.85 76.34 829.85 71.72C829.85 66.5 831.11 61.16 836.51 61.16ZM863.505 63.92C863.145 64.34 862.785 64.46 862.785 63.92C862.725 62.3 862.605 59.96 862.305 59.36C862.185 59.06 862.065 58.88 861.585 58.88C859.905 59.54 858.345 60.08 854.205 60.62C854.085 60.98 854.205 61.94 854.325 62.3C857.565 62.6 858.225 62.9 858.225 66.38V78.08C858.225 83 857.625 83.24 854.025 83.54C853.665 83.9 853.665 85.16 854.025 85.52C855.825 85.46 858.225 85.4 860.625 85.4C863.025 85.4 864.825 85.46 866.625 85.52C866.985 85.16 866.985 83.9 866.625 83.54C863.565 83.24 862.965 83 862.965 78.08V68.24C862.965 66.98 863.505 66.26 863.985 65.72C866.265 63.5 868.965 62.18 871.305 62.18C872.505 62.18 873.765 62.96 874.485 64.34C875.085 65.54 875.205 67.16 875.205 68.96V78.08C875.205 83 874.605 83.24 871.485 83.54C871.185 83.9 871.185 85.16 871.485 85.52C873.285 85.46 875.205 85.4 877.605 85.4C880.005 85.4 882.165 85.46 883.965 85.52C884.265 85.16 884.265 83.9 883.965 83.54C880.605 83.24 879.945 83 879.945 78.08V69.14C879.945 65.84 879.705 62.96 878.325 61.1C877.305 59.78 875.445 59.06 873.345 59.06C870.405 59.06 867.045 59.84 863.505 63.92ZM902.564 82.52C902.924 84.38 903.584 86 906.584 86C908.864 86 911.024 84.98 912.284 83.78C912.164 83.06 911.924 82.52 911.264 82.16C910.844 82.52 909.824 83.12 909.044 83.12C907.304 83.12 907.244 80.78 907.244 78.02V69.2C907.244 60.68 902.564 59.06 898.184 59.06C893.264 59.06 888.284 62.3 888.284 65.72C888.284 67.16 889.004 67.88 890.384 67.88C892.124 67.88 893.204 66.62 893.204 65.84C893.204 65.42 893.144 65 893.024 64.76C892.964 64.58 892.904 64.22 892.904 63.56C892.904 61.7 895.424 61.04 897.704 61.04C899.744 61.04 902.564 62.06 902.564 68.84C902.564 69.26 902.384 69.5 902.204 69.56L897.044 70.82C891.284 72.26 887.144 75.44 887.144 79.52C887.144 84.44 890.504 86 894.704 86C896.804 86 898.604 85.52 901.244 83.48L902.444 82.52H902.564ZM902.564 71.42V79.34C902.564 80.12 902.204 80.54 901.724 80.9C900.164 82.16 898.124 83.54 896.444 83.54C893.444 83.54 892.124 81.14 892.124 79.28C892.124 76.58 893.384 73.82 897.824 72.68L902.564 71.42ZM932.446 82.4C932.746 82.16 933.286 82.04 933.346 82.46C933.526 83.9 934.006 86 934.006 86C934.486 86.18 934.786 86.12 935.146 86C936.466 84.92 938.566 84.02 942.226 83.6C942.586 83.24 942.586 82.34 942.226 81.98C938.386 81.68 937.846 80.54 937.846 77.6V50.42C937.846 46.52 938.086 44.12 938.086 44.12C938.086 43.7 937.846 43.52 937.306 43.52C935.806 44.12 931.306 44.96 928.906 45.14C928.786 45.62 928.906 46.58 929.266 46.94C929.446 46.94 929.626 46.94 929.806 46.94C932.446 47.12 933.106 47.12 933.106 51.86V59.54C933.106 59.96 932.986 60.08 932.566 60.08C932.326 60.08 929.866 59.06 927.886 59.06C923.926 59.06 921.286 60.38 918.886 62.66C916.306 65.24 914.746 68.78 914.746 73.22C914.746 80.6 918.466 86 924.946 86C927.286 86 929.506 84.8 932.446 82.4ZM933.106 77.96C933.106 79.1 932.986 79.58 932.146 80.3C929.926 82.22 928.006 83.18 926.506 83.18C923.266 83.18 919.906 79.64 919.906 72.14C919.906 67.82 920.746 65.42 921.646 64.16C923.506 61.34 926.026 61.16 927.226 61.16C929.386 61.16 930.886 61.94 932.086 63.32C932.926 64.28 933.106 64.7 933.106 66.56V77.96ZM945.638 77.12C945.878 80.06 946.058 82.88 946.058 85.4C946.658 85.28 947.258 85.22 947.558 85.22C947.978 85.22 948.338 85.22 948.758 85.34C950.378 85.76 951.998 86 954.218 86C957.578 86 963.758 84.38 963.758 78.44C963.758 74.36 960.818 71.96 956.738 70.46C953.138 69.08 950.738 68.18 950.738 64.88C950.738 62.42 952.898 61.04 954.938 61.04C956.258 61.04 959.738 61.52 960.518 66.62C960.878 66.98 962.078 66.92 962.438 66.56C962.618 64.4 962.738 62.18 962.798 60.2C960.938 59.9 958.058 59.06 954.938 59.06C950.498 59.06 946.478 61.94 946.478 65.78C946.478 70.16 948.458 72.02 953.078 73.94C958.058 75.98 959.198 77.24 959.198 79.82C959.198 82.76 956.318 84.02 954.098 84.02C951.758 84.02 950.438 83.24 949.838 82.58C948.518 81.2 947.858 78.56 947.498 77.06C947.138 76.7 945.998 76.76 945.638 77.12Z" fill="black"/>
<rect id="recognisable_word_languages" opacity="0.5" x="75" y="247.4" width="201" height="150" fill="#FF0000"/>
<path id="Words_and_semigroups" d="M90.8 192.16C88.48 191.84 88.56 191.08 84.64 191.08C80.6 191.08 77.04 193.76 77.04 198C77.04 202.2 80.52 204.12 84.04 205.48C86.44 206.4 89.4 207.52 89.4 211.44C89.4 214.68 87.6 216.36 84.4 216.36C80.68 216.36 78.28 214.64 77.4 210.68C76.88 210.52 76.48 210.6 76.08 210.8C76.24 213.88 76.4 214.92 76.88 216.88C79.4 216.88 80.52 217.8 84.08 217.8C85.88 217.8 87.6 217.36 89 216.48C91.32 215.04 92.76 212.6 92.76 210.04C92.76 205.8 89.56 203.92 86.28 202.68C83.88 201.8 79.88 200.28 79.88 196.92C79.88 194.68 81.92 192.44 84.28 192.44C88.16 192.44 89.4 194.92 90.2 197.56C90.64 197.64 91.16 197.6 91.52 197.32C91.36 195.4 91.2 194.28 90.8 192.16ZM109.854 213.68C108.374 215.2 107.214 215.84 104.894 215.84C103.454 215.84 101.774 215 100.534 212.96C99.7341 211.64 99.2541 209.8 99.2541 207.48L109.894 207.56C110.374 207.56 110.654 207.32 110.654 206.88C110.654 203.52 109.454 199.92 103.894 199.92C100.414 199.92 95.8941 203.24 95.8941 209.32C95.8941 211.56 96.4541 213.72 97.7741 215.24C99.1341 216.84 101.014 217.8 103.894 217.8C106.934 217.8 109.094 216.4 110.694 214.32C110.574 213.92 110.334 213.72 109.854 213.68ZM99.3741 206.12C100.134 201.6 102.934 201.24 103.894 201.24C105.414 201.24 107.214 202.08 107.214 205.44C107.214 205.8 107.054 206 106.614 206L99.3741 206.12ZM119.105 203.08C119.065 201.88 118.985 200.44 118.785 200.04C118.705 199.84 118.625 199.72 118.305 199.72C117.185 200.16 116.145 200.52 113.385 200.88C113.305 201.12 113.385 201.76 113.465 202C115.625 202.2 116.065 202.4 116.065 204.72V212.52C116.065 215.8 115.545 216 113.345 216.16C113.105 216.4 113.105 217.24 113.345 217.48C114.545 217.44 116.065 217.4 117.665 217.4C119.265 217.4 120.505 217.44 121.705 217.48C121.945 217.24 121.945 216.4 121.705 216.16C119.665 215.96 119.225 215.8 119.225 212.52V205.96C119.225 205.12 119.585 204.64 119.905 204.28C121.505 202.72 122.985 201.92 124.225 201.92C125.745 201.92 126.865 202.88 126.865 205.56V212.52C126.865 215.8 126.545 216 124.385 216.16C124.185 216.4 124.185 217.24 124.385 217.48C125.385 217.44 126.865 217.4 128.465 217.4C130.065 217.4 131.385 217.44 132.385 217.48C132.585 217.24 132.585 216.4 132.385 216.16C130.385 216 130.025 215.8 130.025 212.52V206.16C130.025 205.6 130.025 205.04 129.985 204.56C131.905 202.44 133.705 201.92 135.265 201.92C136.785 201.92 137.665 202.8 137.665 205.48V212.52C137.665 215.8 137.265 216 135.185 216.16C134.985 216.4 134.985 217.24 135.185 217.48C136.185 217.44 137.665 217.4 139.265 217.4C140.865 217.4 142.265 217.44 143.385 217.48C143.585 217.24 143.585 216.4 143.385 216.16C141.185 216 140.825 215.8 140.825 212.52V206.2C140.825 202.64 140.225 199.84 136.705 199.84C134.665 199.84 132.185 200.6 130.105 202.8C129.985 202.92 129.745 203.12 129.665 202.76C129.305 201.12 127.745 199.84 125.665 199.84C123.345 199.84 121.265 201.2 119.585 203.08C119.385 203.28 119.145 203.56 119.105 203.08ZM151.146 212.52V204.56C151.146 202.56 151.306 200 151.306 200C151.306 199.84 151.106 199.72 150.786 199.72C149.666 200.16 148.066 200.52 145.306 200.88C145.226 201.12 145.306 201.76 145.386 202C147.586 202.2 147.986 202.44 147.986 204.72V212.52C147.986 215.84 147.546 215.96 145.106 216.16C144.866 216.4 144.866 217.24 145.106 217.48C146.426 217.44 147.986 217.4 149.586 217.4C151.186 217.4 152.706 217.44 154.026 217.48C154.266 217.24 154.266 216.4 154.026 216.16C151.586 216 151.146 215.84 151.146 212.52ZM147.506 193.44C147.506 194.48 148.466 195.52 149.426 195.52C150.546 195.52 151.506 194.44 151.506 193.6C151.506 192.64 150.666 191.52 149.586 191.52C148.626 191.52 147.506 192.48 147.506 193.44ZM172.526 201.92C173.286 201.92 174.006 201.2 174.006 200.4C174.006 199.56 173.246 198.92 172.166 198.92C171.126 198.92 169.206 199.6 168.166 200.96C167.686 200.64 166.366 199.84 164.006 199.84C160.446 199.84 157.166 202.24 157.166 205.92C157.166 208.08 158.126 209.32 159.246 210.4C158.126 211.36 157.486 213.08 157.486 214.44C157.486 215.88 158.286 217 159.326 217.52C157.166 218.8 156.046 220.64 156.046 222.36C156.046 225.84 159.326 226.92 162.406 226.92C167.806 226.92 173.646 224.32 173.646 220C173.646 218.72 173.046 217.72 171.886 216.76C170.326 215.48 167.526 215.44 166.046 215.44C165.326 215.44 164.326 215.52 163.366 215.64C162.766 215.68 162.366 215.72 162.166 215.72C161.006 215.72 159.606 215.16 159.606 213.44C159.606 212.64 159.846 211.8 160.326 211.12C161.286 211.68 162.406 211.96 163.966 211.96C167.486 211.96 170.726 209.76 170.726 205.84C170.726 203.96 170.166 202.88 169.006 201.68C169.286 201.28 170.086 200.72 170.606 200.72C170.886 200.72 171.166 200.84 171.406 201.2C171.566 201.52 172.086 201.92 172.526 201.92ZM160.046 217.8C160.486 217.92 161.126 218 161.646 218C162.886 218 164.006 217.88 164.566 217.88C166.566 217.88 168.246 217.92 169.406 218.56C170.966 219.44 171.446 220 171.446 221.04C171.446 223.92 167.206 225.44 163.606 225.44C162.166 225.44 158.806 224.28 158.806 221.56C158.806 220.2 158.886 219.2 160.046 217.8ZM167.526 206.24C167.526 209.96 165.646 210.72 164.166 210.72C160.806 210.72 160.446 207.88 160.446 205.32C160.446 202.52 161.446 201.08 163.646 201.08C166.166 201.08 167.526 202.92 167.526 206.24ZM181.806 203.08C181.726 201.48 181.686 200.44 181.486 200.04C181.406 199.84 181.326 199.72 181.006 199.72C179.886 200.16 178.846 200.52 176.086 200.88C176.006 201.12 176.086 201.76 176.166 202C178.326 202.2 178.766 202.4 178.766 204.72V212.52C178.766 215.84 178.286 216 175.806 216.16C175.566 216.4 175.566 217.24 175.806 217.48C177.206 217.44 178.766 217.4 180.366 217.4C181.966 217.4 183.806 217.44 185.206 217.48C185.446 217.24 185.446 216.4 185.206 216.16C182.406 215.96 181.926 215.84 181.926 212.52V206.96C181.926 205.92 182.406 205 182.886 204.28C183.326 203.64 184.246 202.32 184.726 202.32C185.086 202.32 185.446 202.4 185.766 202.84C186.046 203.24 186.526 203.76 187.206 203.76C188.166 203.76 189.086 202.76 189.086 201.76C189.086 201 188.366 199.84 186.686 199.84C184.806 199.84 183.166 201.6 182.246 203.16C182.006 203.6 181.806 203.28 181.806 203.08ZM190.976 209.2C190.976 213.28 193.696 217.8 199.376 217.8C201.936 217.8 203.896 216.88 205.256 215.56C207.056 213.8 207.856 211.28 207.856 208.84C207.856 204.68 205.576 199.84 199.456 199.84C196.816 199.84 194.656 200.92 193.176 202.64C191.736 204.36 190.976 206.68 190.976 209.2ZM198.856 201.24C202.296 201.24 204.416 204.36 204.416 210.12C204.416 215.16 201.816 216.4 199.936 216.4C195.776 216.4 194.416 211.36 194.416 208.28C194.416 204.8 195.256 201.24 198.856 201.24ZM218.172 217.8C219.732 217.8 221.612 217 223.572 215.4C223.772 215.24 224.132 215.16 224.172 215.44C224.292 216.44 224.612 217.8 224.612 217.8C224.932 217.92 225.132 217.88 225.372 217.8C226.252 217.08 227.652 216.48 230.092 216.2C230.332 215.96 230.332 215.36 230.092 215.12C227.532 214.92 227.172 214.16 227.172 212.2V204.52C227.172 203.32 227.332 200.4 227.332 200.4C227.332 200.28 227.212 200.16 227.012 200.16C226.812 200.2 226.212 200.24 225.612 200.24C224.332 200.24 222.892 200.2 221.532 200.16C221.292 200.4 221.292 201.24 221.532 201.48C223.492 201.6 224.012 202.08 224.012 204.72V212.44C224.012 213.2 223.932 213.52 223.372 214C221.892 215.28 220.372 215.92 219.372 215.92C218.172 215.92 216.172 215.36 216.172 211.8V204.52C216.172 203.32 216.332 200.4 216.332 200.4C216.332 200.28 216.212 200.16 216.012 200.16C215.812 200.2 215.212 200.24 214.612 200.24C213.332 200.24 211.892 200.2 210.532 200.16C210.292 200.4 210.292 201.24 210.532 201.48C212.452 201.64 213.012 202.08 213.012 204.68V212.36C213.012 215.12 214.212 217.8 218.172 217.8ZM236.982 202.68C236.942 201.48 236.862 200.44 236.662 200.04C236.582 199.84 236.502 199.72 236.182 199.72C235.062 200.16 234.022 200.52 231.262 200.88C231.182 201.12 231.262 201.76 231.342 202C233.502 202.2 233.942 202.4 233.942 204.72V221.8C233.942 225.12 233.502 225.32 231.062 225.44C230.822 225.68 230.822 226.52 231.062 226.76C232.462 226.72 233.942 226.68 235.542 226.68C237.142 226.68 239.062 226.72 240.382 226.76C240.622 226.52 240.622 225.68 240.382 225.44C237.542 225.28 237.102 225.12 237.102 221.8V217.48C237.102 216.96 237.262 217 237.662 217.16C238.662 217.56 239.862 217.8 241.142 217.8C243.382 217.8 245.382 217.12 247.022 215.56C248.902 213.72 249.982 211.24 249.982 208C249.982 203.76 246.982 199.84 242.902 199.84C241.062 199.84 239.022 201.04 237.422 202.84C237.182 203.08 237.022 203.08 236.982 202.68ZM237.742 204.16C238.782 202.88 240.622 201.68 241.782 201.68C244.342 201.68 246.542 204.56 246.542 209.08C246.542 212.36 245.382 216.44 240.902 216.44C240.182 216.44 238.782 216.24 238.062 215.6C237.262 214.88 237.102 214.64 237.102 213.2V205.92C237.102 205.08 237.262 204.72 237.742 204.16ZM253.404 211.88C253.564 213.84 253.684 215.72 253.684 217.4C254.084 217.32 254.484 217.28 254.684 217.28C254.964 217.28 255.204 217.28 255.484 217.36C256.564 217.64 257.644 217.8 259.124 217.8C261.364 217.8 265.484 216.72 265.484 212.76C265.484 210.04 263.524 208.44 260.804 207.44C258.404 206.52 256.804 205.92 256.804 203.72C256.804 202.08 258.244 201.16 259.604 201.16C260.484 201.16 262.804 201.48 263.324 204.88C263.564 205.12 264.364 205.08 264.604 204.84C264.724 203.4 264.804 201.92 264.844 200.6C263.604 200.4 261.684 199.84 259.604 199.84C256.644 199.84 253.964 201.76 253.964 204.32C253.964 207.24 255.284 208.48 258.364 209.76C261.684 211.12 262.444 211.96 262.444 213.68C262.444 215.64 260.524 216.48 259.044 216.48C257.484 216.48 256.604 215.96 256.204 215.52C255.324 214.6 254.884 212.84 254.644 211.84C254.404 211.6 253.644 211.64 253.404 211.88Z" fill="black"/>
<path id="Monads" d="M457.52 212.76C457.72 216 457.56 216.04 454.96 216.16C454.72 216.4 454.72 217.24 454.96 217.48C456.44 217.44 458.04 217.4 459.24 217.4C460.44 217.4 462.28 217.44 463.6 217.48C463.84 217.24 463.84 216.4 463.6 216.16C460.88 216.04 460.76 215.88 460.52 212.56L459.32 195.72C459.16 193.56 459.36 193 462.08 192.84C462.32 192.6 462.32 191.76 462.08 191.52L456.84 191.6L448.36 211.88C448.2 212.28 448.08 212.44 448 212.44C447.92 212.44 447.8 212.24 447.68 211.92L439.48 191.6L433.68 191.52C433.44 191.76 433.44 192.6 433.68 192.84C436.44 193 436.68 193.08 436.4 196.08L434.8 212.56C434.56 214.96 434.08 215.96 431.8 216.16C431.56 216.4 431.56 217.24 431.8 217.48C433 217.44 434.28 217.4 435.24 217.4C436.2 217.4 437.8 217.44 439 217.48C439.24 217.24 439.24 216.4 439 216.16C436.36 215.96 436.16 214.72 436.36 212.48L437.88 196.44H437.96L446.24 217.2C446.36 217.48 446.6 217.8 446.84 217.8C447.08 217.8 447.24 217.52 447.4 217.2L456.4 196.04H456.48L457.52 212.76ZM466.195 209.2C466.195 213.28 468.915 217.8 474.595 217.8C477.155 217.8 479.115 216.88 480.475 215.56C482.275 213.8 483.075 211.28 483.075 208.84C483.075 204.68 480.795 199.84 474.675 199.84C472.035 199.84 469.875 200.92 468.395 202.64C466.955 204.36 466.195 206.68 466.195 209.2ZM474.075 201.24C477.515 201.24 479.635 204.36 479.635 210.12C479.635 215.16 477.035 216.4 475.155 216.4C470.995 216.4 469.635 211.36 469.635 208.28C469.635 204.8 470.475 201.24 474.075 201.24ZM492.071 203.08C491.831 203.36 491.591 203.44 491.591 203.08C491.551 202 491.471 200.44 491.271 200.04C491.191 199.84 491.111 199.72 490.791 199.72C489.671 200.16 488.631 200.52 485.871 200.88C485.791 201.12 485.871 201.76 485.951 202C488.111 202.2 488.551 202.4 488.551 204.72V212.52C488.551 215.8 488.151 215.96 485.751 216.16C485.511 216.4 485.511 217.24 485.751 217.48C486.951 217.44 488.551 217.4 490.151 217.4C491.751 217.4 492.951 217.44 494.151 217.48C494.391 217.24 494.391 216.4 494.151 216.16C492.111 215.96 491.711 215.8 491.711 212.52V205.96C491.711 205.12 492.071 204.64 492.391 204.28C493.911 202.8 495.711 201.92 497.271 201.92C498.071 201.92 498.911 202.44 499.391 203.36C499.791 204.16 499.871 205.24 499.871 206.44V212.52C499.871 215.8 499.471 215.96 497.391 216.16C497.191 216.4 497.191 217.24 497.391 217.48C498.591 217.44 499.871 217.4 501.471 217.4C503.071 217.4 504.511 217.44 505.711 217.48C505.911 217.24 505.911 216.4 505.711 216.16C503.471 215.96 503.031 215.8 503.031 212.52V206.56C503.031 204.36 502.871 202.44 501.951 201.2C501.271 200.32 500.031 199.84 498.631 199.84C496.671 199.84 494.431 200.36 492.071 203.08ZM518.111 215.48C518.351 216.72 518.791 217.8 520.791 217.8C522.311 217.8 523.751 217.12 524.591 216.32C524.511 215.84 524.351 215.48 523.911 215.24C523.631 215.48 522.951 215.88 522.431 215.88C521.271 215.88 521.231 214.32 521.231 212.48V206.6C521.231 200.92 518.111 199.84 515.191 199.84C511.911 199.84 508.591 202 508.591 204.28C508.591 205.24 509.071 205.72 509.991 205.72C511.151 205.72 511.871 204.88 511.871 204.36C511.871 204.08 511.831 203.8 511.751 203.64C511.711 203.52 511.671 203.28 511.671 202.84C511.671 201.6 513.351 201.16 514.871 201.16C516.231 201.16 518.111 201.84 518.111 206.36C518.111 206.64 517.991 206.8 517.871 206.84L514.431 207.68C510.591 208.64 507.831 210.76 507.831 213.48C507.831 216.76 510.071 217.8 512.871 217.8C514.271 217.8 515.471 217.48 517.231 216.12L518.031 215.48H518.111ZM518.111 208.08V213.36C518.111 213.88 517.871 214.16 517.551 214.4C516.511 215.24 515.151 216.16 514.031 216.16C512.031 216.16 511.151 214.56 511.151 213.32C511.151 211.52 511.991 209.68 514.951 208.92L518.111 208.08ZM538.032 215.4C538.232 215.24 538.592 215.16 538.632 215.44C538.752 216.4 539.072 217.8 539.072 217.8C539.392 217.92 539.592 217.88 539.832 217.8C540.712 217.08 542.112 216.48 544.552 216.2C544.792 215.96 544.792 215.36 544.552 215.12C541.992 214.92 541.632 214.16 541.632 212.2V194.08C541.632 191.48 541.792 189.88 541.792 189.88C541.792 189.6 541.632 189.48 541.272 189.48C540.272 189.88 537.272 190.44 535.672 190.56C535.592 190.88 535.672 191.52 535.912 191.76C536.032 191.76 536.152 191.76 536.272 191.76C538.032 191.88 538.472 191.88 538.472 195.04V200.16C538.472 200.44 538.392 200.52 538.112 200.52C537.952 200.52 536.312 199.84 534.992 199.84C532.352 199.84 530.592 200.72 528.992 202.24C527.272 203.96 526.232 206.32 526.232 209.28C526.232 214.2 528.712 217.8 533.032 217.8C534.592 217.8 536.072 217 538.032 215.4ZM538.472 212.44C538.472 213.2 538.392 213.52 537.832 214C536.352 215.28 535.072 215.92 534.072 215.92C531.912 215.92 529.672 213.56 529.672 208.56C529.672 205.68 530.232 204.08 530.832 203.24C532.072 201.36 533.752 201.24 534.552 201.24C535.992 201.24 536.992 201.76 537.792 202.68C538.352 203.32 538.472 203.6 538.472 204.84V212.44ZM546.826 211.88C546.986 213.84 547.106 215.72 547.106 217.4C547.506 217.32 547.906 217.28 548.106 217.28C548.386 217.28 548.626 217.28 548.906 217.36C549.986 217.64 551.066 217.8 552.546 217.8C554.786 217.8 558.906 216.72 558.906 212.76C558.906 210.04 556.946 208.44 554.226 207.44C551.826 206.52 550.226 205.92 550.226 203.72C550.226 202.08 551.666 201.16 553.026 201.16C553.906 201.16 556.226 201.48 556.746 204.88C556.986 205.12 557.786 205.08 558.026 204.84C558.146 203.4 558.226 201.92 558.266 200.6C557.026 200.4 555.106 199.84 553.026 199.84C550.066 199.84 547.386 201.76 547.386 204.32C547.386 207.24 548.706 208.48 551.786 209.76C555.106 211.12 555.866 211.96 555.866 213.68C555.866 215.64 553.946 216.48 552.466 216.48C550.906 216.48 550.026 215.96 549.626 215.52C548.746 214.6 548.306 212.84 548.066 211.84C547.826 211.6 547.066 211.64 546.826 211.88Z" fill="black"/>
<path id="Graphs" d="M812.08 191.08C805.4 191.08 798.48 196.32 798.48 205.12C798.48 212.32 803.44 217.8 811.08 217.8C815.8 217.8 819.52 216.8 822.24 214.48C821.8 214.12 821.6 213.8 821.6 213.36V208.72C821.6 207.32 822.28 206.92 823.44 206.8C823.68 206.56 823.68 205.6 823.44 205.36C822.48 205.4 821.48 205.44 819.88 205.44C818.56 205.44 816.68 205.4 814.92 205.36C814.68 205.6 814.68 206.56 814.92 206.8C817.12 206.96 818.2 207.12 818.2 208.72V214.84C816.84 216.12 814.16 216.36 812 216.36C805.68 216.36 802.32 209.6 802.32 204.32C802.32 197.32 806.88 192.52 811.52 192.52C817.32 192.52 818.96 195.84 820 199.28C820.44 199.32 820.88 199.24 821.32 199.04C821.24 197.36 821.04 195.76 820.4 192.88C818 192.48 816.52 191.08 812.08 191.08ZM831.423 203.08C831.343 201.48 831.303 200.44 831.103 200.04C831.023 199.84 830.943 199.72 830.623 199.72C829.503 200.16 828.463 200.52 825.703 200.88C825.623 201.12 825.703 201.76 825.783 202C827.943 202.2 828.383 202.4 828.383 204.72V212.52C828.383 215.84 827.903 216 825.423 216.16C825.183 216.4 825.183 217.24 825.423 217.48C826.823 217.44 828.383 217.4 829.983 217.4C831.583 217.4 833.423 217.44 834.823 217.48C835.063 217.24 835.063 216.4 834.823 216.16C832.023 215.96 831.543 215.84 831.543 212.52V206.96C831.543 205.92 832.023 205 832.503 204.28C832.943 203.64 833.863 202.32 834.343 202.32C834.703 202.32 835.063 202.4 835.383 202.84C835.663 203.24 836.143 203.76 836.823 203.76C837.783 203.76 838.703 202.76 838.703 201.76C838.703 201 837.983 199.84 836.303 199.84C834.423 199.84 832.783 201.6 831.863 203.16C831.623 203.6 831.423 203.28 831.423 203.08ZM850.986 215.48C851.226 216.72 851.666 217.8 853.666 217.8C855.186 217.8 856.626 217.12 857.466 216.32C857.386 215.84 857.226 215.48 856.786 215.24C856.506 215.48 855.826 215.88 855.306 215.88C854.146 215.88 854.106 214.32 854.106 212.48V206.6C854.106 200.92 850.986 199.84 848.066 199.84C844.786 199.84 841.466 202 841.466 204.28C841.466 205.24 841.946 205.72 842.866 205.72C844.026 205.72 844.746 204.88 844.746 204.36C844.746 204.08 844.706 203.8 844.626 203.64C844.586 203.52 844.546 203.28 844.546 202.84C844.546 201.6 846.226 201.16 847.746 201.16C849.106 201.16 850.986 201.84 850.986 206.36C850.986 206.64 850.866 206.8 850.746 206.84L847.306 207.68C843.466 208.64 840.706 210.76 840.706 213.48C840.706 216.76 842.946 217.8 845.746 217.8C847.146 217.8 848.346 217.48 850.106 216.12L850.906 215.48H850.986ZM850.986 208.08V213.36C850.986 213.88 850.746 214.16 850.426 214.4C849.386 215.24 848.026 216.16 846.906 216.16C844.906 216.16 844.026 214.56 844.026 213.32C844.026 211.52 844.866 209.68 847.826 208.92L850.986 208.08ZM863.787 202.68C863.747 201.48 863.667 200.44 863.467 200.04C863.387 199.84 863.307 199.72 862.987 199.72C861.867 200.16 860.827 200.52 858.067 200.88C857.987 201.12 858.067 201.76 858.147 202C860.307 202.2 860.747 202.4 860.747 204.72V221.8C860.747 225.12 860.307 225.32 857.867 225.44C857.627 225.68 857.627 226.52 857.867 226.76C859.267 226.72 860.747 226.68 862.347 226.68C863.947 226.68 865.867 226.72 867.187 226.76C867.427 226.52 867.427 225.68 867.187 225.44C864.347 225.28 863.907 225.12 863.907 221.8V217.48C863.907 216.96 864.067 217 864.467 217.16C865.467 217.56 866.667 217.8 867.947 217.8C870.187 217.8 872.187 217.12 873.827 215.56C875.707 213.72 876.787 211.24 876.787 208C876.787 203.76 873.787 199.84 869.707 199.84C867.867 199.84 865.827 201.04 864.227 202.84C863.987 203.08 863.827 203.08 863.787 202.68ZM864.547 204.16C865.587 202.88 867.427 201.68 868.587 201.68C871.147 201.68 873.347 204.56 873.347 209.08C873.347 212.36 872.187 216.44 867.707 216.44C866.987 216.44 865.587 216.24 864.867 215.6C864.067 214.88 863.907 214.64 863.907 213.2V205.92C863.907 205.08 864.067 204.72 864.547 204.16ZM884.969 205.96C884.969 205.12 885.329 204.64 885.649 204.28C887.169 202.8 889.209 201.92 890.769 201.92C891.569 201.92 892.409 202.44 892.889 203.36C893.289 204.16 893.369 205.24 893.369 206.44V212.52C893.369 215.8 892.969 215.96 890.889 216.16C890.689 216.4 890.689 217.24 890.889 217.48C892.009 217.44 893.369 217.4 894.969 217.4C896.569 217.4 897.889 217.44 899.209 217.48C899.409 217.24 899.409 216.4 899.209 216.16C896.969 215.96 896.529 215.8 896.529 212.52V206.56C896.529 204.36 896.369 202.4 895.449 201.2C894.769 200.32 893.529 199.84 892.129 199.84C890.169 199.84 887.769 200.36 885.329 203.08C885.329 203.12 885.289 203.12 885.249 203.16C885.129 203.32 884.929 203.56 884.929 203.08L884.969 194.08C884.969 191.48 885.129 189.88 885.129 189.88C885.129 189.6 884.969 189.48 884.609 189.48C883.609 189.88 880.609 190.44 879.009 190.56C878.929 190.88 879.009 191.52 879.249 191.76C879.369 191.76 879.489 191.76 879.609 191.76C881.369 191.88 881.809 191.88 881.809 195.04V212.52C881.809 215.84 881.329 216 879.009 216.16C878.769 216.4 878.769 217.24 879.009 217.48C880.329 217.44 881.809 217.4 883.409 217.4C884.929 217.4 886.249 217.44 887.369 217.48C887.609 217.24 887.609 216.4 887.369 216.16C885.329 216 884.969 215.84 884.969 212.52V205.96ZM901.733 211.88C901.893 213.84 902.013 215.72 902.013 217.4C902.413 217.32 902.813 217.28 903.013 217.28C903.293 217.28 903.533 217.28 903.813 217.36C904.893 217.64 905.973 217.8 907.453 217.8C909.693 217.8 913.813 216.72 913.813 212.76C913.813 210.04 911.853 208.44 909.133 207.44C906.733 206.52 905.133 205.92 905.133 203.72C905.133 202.08 906.573 201.16 907.933 201.16C908.813 201.16 911.133 201.48 911.653 204.88C911.893 205.12 912.693 205.08 912.933 204.84C913.053 203.4 913.133 201.92 913.173 200.6C911.933 200.4 910.013 199.84 907.933 199.84C904.973 199.84 902.293 201.76 902.293 204.32C902.293 207.24 903.613 208.48 906.693 209.76C910.013 211.12 910.773 211.96 910.773 213.68C910.773 215.64 908.853 216.48 907.373 216.48C905.813 216.48 904.933 215.96 904.533 215.52C903.653 214.6 903.213 212.84 902.973 211.84C902.733 211.6 901.973 211.64 901.733 211.88Z" fill="black"/>
<rect id="avantages_of_semigroups" opacity="0.5" x="75" y="397.4" width="201" height="151" fill="#FF0000"/>
<rect id="monads" opacity="0.5" x="309" y="247.4" width="373" height="279" fill="#FF0000"/>
<rect id="graphs" opacity="0.5" x="747" y="247" width="220" height="165" fill="#FF0000"/>
</g>
</svg>
