<svg width="1024" height="768" viewBox="0 0 1024 768" fill="none" xmlns="http://www.w3.org/2000/svg">
<g id="pierwszy">
<rect width="1024" height="768" fill="white"/>
<g id="Abc">
<path id="Arrow 1" d="M390.034 374.499C390.31 374.48 390.518 374.241 390.499 373.966L390.189 369.476C390.17 369.201 389.931 368.993 389.656 369.012C389.381 369.031 389.173 369.27 389.192 369.545L389.467 373.536L385.476 373.811C385.201 373.83 384.993 374.069 385.012 374.344C385.031 374.619 385.27 374.827 385.545 374.808L390.034 374.499ZM265.672 266.377L389.672 374.377L390.328 373.623L266.328 265.623L265.672 266.377Z" fill="black"/>
<path id="Arrow 2" d="M478.404 220.295C478.567 220.072 478.518 219.759 478.295 219.596L474.66 216.943C474.437 216.781 474.124 216.83 473.961 217.053C473.798 217.276 473.847 217.589 474.07 217.751L477.301 220.109L474.943 223.34C474.781 223.563 474.83 223.876 475.053 224.039C475.276 224.202 475.588 224.153 475.751 223.93L478.404 220.295ZM286.077 250.494L478.077 220.494L477.923 219.506L285.923 249.506L286.077 250.494Z" fill="black"/>
<path id="Arrow 3" d="M415.511 374.106C415.57 374.376 415.836 374.547 416.106 374.489L420.504 373.533C420.773 373.474 420.945 373.208 420.886 372.938C420.827 372.668 420.561 372.497 420.291 372.555L416.382 373.405L415.533 369.496C415.474 369.227 415.208 369.055 414.938 369.114C414.668 369.173 414.497 369.439 414.555 369.709L415.511 374.106ZM505.579 233.73L415.579 373.73L416.421 374.27L506.421 234.27L505.579 233.73Z" fill="black"/>
<path id="Abc_2" d="M347.004 202.578H335.09L332.414 210H328.547L339.406 181.562H342.688L353.566 210H349.719L347.004 202.578ZM336.223 199.492H345.891L341.047 186.191L336.223 199.492ZM374.719 199.668C374.719 202.897 373.977 205.495 372.492 207.461C371.008 209.414 369.016 210.391 366.516 210.391C363.846 210.391 361.783 209.447 360.324 207.559L360.148 210H356.828V180H360.441V191.191C361.9 189.382 363.911 188.477 366.477 188.477C369.042 188.477 371.053 189.447 372.512 191.387C373.983 193.327 374.719 195.983 374.719 199.355V199.668ZM371.105 199.258C371.105 196.797 370.63 194.896 369.68 193.555C368.729 192.214 367.362 191.543 365.578 191.543C363.195 191.543 361.483 192.65 360.441 194.863V204.004C361.548 206.217 363.273 207.324 365.617 207.324C367.349 207.324 368.697 206.654 369.66 205.312C370.624 203.971 371.105 201.953 371.105 199.258ZM387.766 207.441C389.055 207.441 390.181 207.051 391.145 206.27C392.108 205.488 392.642 204.512 392.746 203.34H396.164C396.099 204.551 395.682 205.703 394.914 206.797C394.146 207.891 393.117 208.763 391.828 209.414C390.552 210.065 389.198 210.391 387.766 210.391C384.888 210.391 382.596 209.434 380.891 207.52C379.198 205.592 378.352 202.962 378.352 199.629V199.023C378.352 196.966 378.729 195.137 379.484 193.535C380.24 191.934 381.32 190.69 382.727 189.805C384.146 188.919 385.819 188.477 387.746 188.477C390.116 188.477 392.082 189.186 393.645 190.605C395.22 192.025 396.06 193.867 396.164 196.133H392.746C392.642 194.766 392.121 193.646 391.184 192.773C390.259 191.888 389.113 191.445 387.746 191.445C385.91 191.445 384.484 192.109 383.469 193.438C382.466 194.753 381.965 196.66 381.965 199.16V199.844C381.965 202.279 382.466 204.154 383.469 205.469C384.471 206.784 385.904 207.441 387.766 207.441Z" fill="black"/>
<path id="Abc_3" d="M278.004 356.578H266.09L263.414 364H259.547L270.406 335.562H273.688L284.566 364H280.719L278.004 356.578ZM267.223 353.492H276.891L272.047 340.191L267.223 353.492ZM305.719 353.668C305.719 356.897 304.977 359.495 303.492 361.461C302.008 363.414 300.016 364.391 297.516 364.391C294.846 364.391 292.783 363.447 291.324 361.559L291.148 364H287.828V334H291.441V345.191C292.9 343.382 294.911 342.477 297.477 342.477C300.042 342.477 302.053 343.447 303.512 345.387C304.983 347.327 305.719 349.983 305.719 353.355V353.668ZM302.105 353.258C302.105 350.797 301.63 348.896 300.68 347.555C299.729 346.214 298.362 345.543 296.578 345.543C294.195 345.543 292.483 346.65 291.441 348.863V358.004C292.548 360.217 294.273 361.324 296.617 361.324C298.349 361.324 299.697 360.654 300.66 359.312C301.624 357.971 302.105 355.953 302.105 353.258ZM318.766 361.441C320.055 361.441 321.181 361.051 322.145 360.27C323.108 359.488 323.642 358.512 323.746 357.34H327.164C327.099 358.551 326.682 359.703 325.914 360.797C325.146 361.891 324.117 362.763 322.828 363.414C321.552 364.065 320.198 364.391 318.766 364.391C315.888 364.391 313.596 363.434 311.891 361.52C310.198 359.592 309.352 356.962 309.352 353.629V353.023C309.352 350.966 309.729 349.137 310.484 347.535C311.24 345.934 312.32 344.69 313.727 343.805C315.146 342.919 316.819 342.477 318.746 342.477C321.116 342.477 323.082 343.186 324.645 344.605C326.22 346.025 327.06 347.867 327.164 350.133H323.746C323.642 348.766 323.121 347.646 322.184 346.773C321.259 345.888 320.113 345.445 318.746 345.445C316.91 345.445 315.484 346.109 314.469 347.438C313.466 348.753 312.965 350.66 312.965 353.16V353.844C312.965 356.279 313.466 358.154 314.469 359.469C315.471 360.784 316.904 361.441 318.766 361.441Z" fill="black"/>
<path id="Abc_4" d="M515.004 332.578H503.09L500.414 340H496.547L507.406 311.562H510.688L521.566 340H517.719L515.004 332.578ZM504.223 329.492H513.891L509.047 316.191L504.223 329.492ZM542.719 329.668C542.719 332.897 541.977 335.495 540.492 337.461C539.008 339.414 537.016 340.391 534.516 340.391C531.846 340.391 529.783 339.447 528.324 337.559L528.148 340H524.828V310H528.441V321.191C529.9 319.382 531.911 318.477 534.477 318.477C537.042 318.477 539.053 319.447 540.512 321.387C541.983 323.327 542.719 325.983 542.719 329.355V329.668ZM539.105 329.258C539.105 326.797 538.63 324.896 537.68 323.555C536.729 322.214 535.362 321.543 533.578 321.543C531.195 321.543 529.483 322.65 528.441 324.863V334.004C529.548 336.217 531.273 337.324 533.617 337.324C535.349 337.324 536.697 336.654 537.66 335.312C538.624 333.971 539.105 331.953 539.105 329.258ZM555.766 337.441C557.055 337.441 558.181 337.051 559.145 336.27C560.108 335.488 560.642 334.512 560.746 333.34H564.164C564.099 334.551 563.682 335.703 562.914 336.797C562.146 337.891 561.117 338.763 559.828 339.414C558.552 340.065 557.198 340.391 555.766 340.391C552.888 340.391 550.596 339.434 548.891 337.52C547.198 335.592 546.352 332.962 546.352 329.629V329.023C546.352 326.966 546.729 325.137 547.484 323.535C548.24 321.934 549.32 320.69 550.727 319.805C552.146 318.919 553.819 318.477 555.746 318.477C558.116 318.477 560.082 319.186 561.645 320.605C563.22 322.025 564.06 323.867 564.164 326.133H560.746C560.642 324.766 560.121 323.646 559.184 322.773C558.259 321.888 557.113 321.445 555.746 321.445C553.91 321.445 552.484 322.109 551.469 323.438C550.466 324.753 549.965 326.66 549.965 329.16V329.844C549.965 332.279 550.466 334.154 551.469 335.469C552.471 336.784 553.904 337.441 555.766 337.441Z" fill="black"/>
</g>
<path id="Pierwszy lemat." d="M171.051 559.867V571H167.301V542.562H177.789C180.901 542.562 183.336 543.357 185.094 544.945C186.865 546.534 187.75 548.637 187.75 551.254C187.75 554.014 186.884 556.143 185.152 557.641C183.434 559.125 180.966 559.867 177.75 559.867H171.051ZM171.051 556.801H177.789C179.794 556.801 181.331 556.332 182.398 555.395C183.466 554.444 184 553.077 184 551.293C184 549.6 183.466 548.246 182.398 547.23C181.331 546.215 179.866 545.688 178.004 545.648H171.051V556.801ZM195.895 571H192.281V549.867H195.895V571ZM191.988 544.262C191.988 543.676 192.164 543.181 192.516 542.777C192.88 542.374 193.414 542.172 194.117 542.172C194.82 542.172 195.354 542.374 195.719 542.777C196.083 543.181 196.266 543.676 196.266 544.262C196.266 544.848 196.083 545.336 195.719 545.727C195.354 546.117 194.82 546.312 194.117 546.312C193.414 546.312 192.88 546.117 192.516 545.727C192.164 545.336 191.988 544.848 191.988 544.262ZM210.465 571.391C207.6 571.391 205.27 570.453 203.473 568.578C201.676 566.69 200.777 564.171 200.777 561.02V560.355C200.777 558.259 201.174 556.391 201.969 554.75C202.776 553.096 203.896 551.807 205.328 550.883C206.773 549.945 208.336 549.477 210.016 549.477C212.763 549.477 214.898 550.382 216.422 552.191C217.945 554.001 218.707 556.592 218.707 559.965V561.469H204.391C204.443 563.552 205.048 565.238 206.207 566.527C207.379 567.803 208.863 568.441 210.66 568.441C211.936 568.441 213.017 568.181 213.902 567.66C214.788 567.139 215.562 566.449 216.227 565.59L218.434 567.309C216.663 570.03 214.007 571.391 210.465 571.391ZM210.016 552.445C208.557 552.445 207.333 552.979 206.344 554.047C205.354 555.102 204.742 556.586 204.508 558.5H215.094V558.227C214.99 556.391 214.495 554.971 213.609 553.969C212.724 552.953 211.526 552.445 210.016 552.445ZM233.121 553.109C232.574 553.018 231.982 552.973 231.344 552.973C228.974 552.973 227.366 553.982 226.52 556V571H222.906V549.867H226.422L226.48 552.309C227.665 550.421 229.345 549.477 231.52 549.477C232.223 549.477 232.757 549.568 233.121 549.75V553.109ZM255.523 566.02L259.586 549.867H263.199L257.047 571H254.117L248.98 554.984L243.98 571H241.051L234.918 549.867H238.512L242.672 565.688L247.594 549.867H250.504L255.523 566.02ZM279.195 565.395C279.195 564.418 278.824 563.663 278.082 563.129C277.353 562.582 276.07 562.113 274.234 561.723C272.411 561.332 270.96 560.863 269.879 560.316C268.811 559.77 268.017 559.118 267.496 558.363C266.988 557.608 266.734 556.71 266.734 555.668C266.734 553.936 267.464 552.471 268.922 551.273C270.393 550.076 272.268 549.477 274.547 549.477C276.943 549.477 278.883 550.095 280.367 551.332C281.865 552.569 282.613 554.151 282.613 556.078H278.98C278.98 555.089 278.557 554.236 277.711 553.52C276.878 552.803 275.823 552.445 274.547 552.445C273.232 552.445 272.203 552.732 271.461 553.305C270.719 553.878 270.348 554.626 270.348 555.551C270.348 556.423 270.693 557.081 271.383 557.523C272.073 557.966 273.316 558.389 275.113 558.793C276.923 559.197 278.388 559.678 279.508 560.238C280.628 560.798 281.454 561.475 281.988 562.27C282.535 563.051 282.809 564.008 282.809 565.141C282.809 567.029 282.053 568.546 280.543 569.691C279.033 570.824 277.073 571.391 274.664 571.391C272.971 571.391 271.474 571.091 270.172 570.492C268.87 569.893 267.848 569.06 267.105 567.992C266.376 566.911 266.012 565.746 266.012 564.496H269.625C269.69 565.707 270.172 566.671 271.07 567.387C271.982 568.09 273.18 568.441 274.664 568.441C276.031 568.441 277.125 568.168 277.945 567.621C278.779 567.061 279.195 566.319 279.195 565.395ZM290.914 568.051H303.277V571H286.5V568.344L298.16 552.855H286.676V549.867H302.691V552.426L290.914 568.051ZM314.273 565.707L319.195 549.867H323.062L314.566 574.262C313.251 577.777 311.161 579.535 308.297 579.535L307.613 579.477L306.266 579.223V576.293L307.242 576.371C308.466 576.371 309.417 576.124 310.094 575.629C310.784 575.134 311.35 574.229 311.793 572.914L312.594 570.766L305.055 549.867H309L314.273 565.707ZM340.152 571H336.539V541H340.152V571ZM354.723 571.391C351.858 571.391 349.527 570.453 347.73 568.578C345.934 566.69 345.035 564.171 345.035 561.02V560.355C345.035 558.259 345.432 556.391 346.227 554.75C347.034 553.096 348.154 551.807 349.586 550.883C351.031 549.945 352.594 549.477 354.273 549.477C357.021 549.477 359.156 550.382 360.68 552.191C362.203 554.001 362.965 556.592 362.965 559.965V561.469H348.648C348.701 563.552 349.306 565.238 350.465 566.527C351.637 567.803 353.121 568.441 354.918 568.441C356.194 568.441 357.275 568.181 358.16 567.66C359.046 567.139 359.82 566.449 360.484 565.59L362.691 567.309C360.921 570.03 358.264 571.391 354.723 571.391ZM354.273 552.445C352.815 552.445 351.591 552.979 350.602 554.047C349.612 555.102 349 556.586 348.766 558.5H359.352V558.227C359.247 556.391 358.753 554.971 357.867 553.969C356.982 552.953 355.784 552.445 354.273 552.445ZM370.562 549.867L370.66 552.211C372.21 550.388 374.299 549.477 376.93 549.477C379.885 549.477 381.897 550.609 382.965 552.875C383.668 551.859 384.579 551.039 385.699 550.414C386.832 549.789 388.167 549.477 389.703 549.477C394.339 549.477 396.695 551.931 396.773 556.84V571H393.16V557.055C393.16 555.544 392.815 554.418 392.125 553.676C391.435 552.921 390.276 552.543 388.648 552.543C387.307 552.543 386.194 552.947 385.309 553.754C384.423 554.548 383.909 555.622 383.766 556.977V571H380.133V557.152C380.133 554.079 378.629 552.543 375.621 552.543C373.251 552.543 371.63 553.552 370.758 555.57V571H367.145V549.867H370.562ZM415.289 571C415.081 570.583 414.911 569.841 414.781 568.773C413.102 570.518 411.096 571.391 408.766 571.391C406.682 571.391 404.97 570.805 403.629 569.633C402.301 568.448 401.637 566.951 401.637 565.141C401.637 562.94 402.47 561.234 404.137 560.023C405.816 558.799 408.173 558.188 411.207 558.188H414.723V556.527C414.723 555.264 414.345 554.262 413.59 553.52C412.835 552.764 411.721 552.387 410.25 552.387C408.961 552.387 407.88 552.712 407.008 553.363C406.135 554.014 405.699 554.802 405.699 555.727H402.066C402.066 554.672 402.438 553.656 403.18 552.68C403.935 551.69 404.951 550.909 406.227 550.336C407.516 549.763 408.928 549.477 410.465 549.477C412.9 549.477 414.807 550.089 416.188 551.312C417.568 552.523 418.284 554.197 418.336 556.332V566.059C418.336 567.999 418.583 569.542 419.078 570.688V571H415.289ZM409.293 568.246C410.426 568.246 411.5 567.953 412.516 567.367C413.531 566.781 414.267 566.02 414.723 565.082V560.746H411.891C407.464 560.746 405.25 562.042 405.25 564.633C405.25 565.766 405.628 566.651 406.383 567.289C407.138 567.927 408.108 568.246 409.293 568.246ZM428.902 544.75V549.867H432.848V552.66H428.902V565.766C428.902 566.612 429.078 567.25 429.43 567.68C429.781 568.096 430.38 568.305 431.227 568.305C431.643 568.305 432.216 568.227 432.945 568.07V571C431.995 571.26 431.07 571.391 430.172 571.391C428.557 571.391 427.34 570.902 426.52 569.926C425.699 568.949 425.289 567.562 425.289 565.766V552.66H421.441V549.867H425.289V544.75H428.902ZM437.164 569.105C437.164 568.48 437.346 567.96 437.711 567.543C438.089 567.126 438.648 566.918 439.391 566.918C440.133 566.918 440.693 567.126 441.07 567.543C441.461 567.96 441.656 568.48 441.656 569.105C441.656 569.704 441.461 570.206 441.07 570.609C440.693 571.013 440.133 571.215 439.391 571.215C438.648 571.215 438.089 571.013 437.711 570.609C437.346 570.206 437.164 569.704 437.164 569.105Z" fill="black"/>
<path id="Drugi lemat." d="M584.301 507V478.562H592.328C594.802 478.562 596.99 479.109 598.891 480.203C600.792 481.297 602.257 482.853 603.285 484.871C604.327 486.889 604.854 489.207 604.867 491.824V493.641C604.867 496.323 604.346 498.673 603.305 500.691C602.276 502.71 600.798 504.259 598.871 505.34C596.957 506.421 594.724 506.974 592.172 507H584.301ZM588.051 481.648V503.934H591.996C594.887 503.934 597.133 503.035 598.734 501.238C600.349 499.441 601.156 496.883 601.156 493.562V491.902C601.156 488.673 600.395 486.167 598.871 484.383C597.361 482.586 595.212 481.674 592.426 481.648H588.051ZM620.199 489.109C619.652 489.018 619.06 488.973 618.422 488.973C616.052 488.973 614.444 489.982 613.598 492V507H609.984V485.867H613.5L613.559 488.309C614.743 486.421 616.423 485.477 618.598 485.477C619.301 485.477 619.835 485.568 620.199 485.75V489.109ZM636.586 504.91C635.18 506.564 633.116 507.391 630.395 507.391C628.142 507.391 626.423 506.74 625.238 505.438C624.066 504.122 623.474 502.182 623.461 499.617V485.867H627.074V499.52C627.074 502.723 628.376 504.324 630.98 504.324C633.741 504.324 635.577 503.296 636.488 501.238V485.867H640.102V507H636.664L636.586 504.91ZM644.75 496.258C644.75 492.964 645.512 490.346 647.035 488.406C648.559 486.453 650.577 485.477 653.09 485.477C655.668 485.477 657.68 486.388 659.125 488.211L659.301 485.867H662.602V506.492C662.602 509.227 661.788 511.382 660.16 512.957C658.546 514.533 656.371 515.32 653.637 515.32C652.113 515.32 650.622 514.995 649.164 514.344C647.706 513.693 646.592 512.801 645.824 511.668L647.699 509.5C649.249 511.414 651.143 512.371 653.383 512.371C655.141 512.371 656.508 511.876 657.484 510.887C658.474 509.897 658.969 508.504 658.969 506.707V504.891C657.523 506.557 655.551 507.391 653.051 507.391C650.577 507.391 648.572 506.395 647.035 504.402C645.512 502.41 644.75 499.695 644.75 496.258ZM648.383 496.668C648.383 499.051 648.871 500.926 649.848 502.293C650.824 503.647 652.191 504.324 653.949 504.324C656.228 504.324 657.901 503.289 658.969 501.219V491.57C657.862 489.552 656.202 488.543 653.988 488.543C652.23 488.543 650.857 489.227 649.867 490.594C648.878 491.961 648.383 493.986 648.383 496.668ZM671.996 507H668.383V485.867H671.996V507ZM668.09 480.262C668.09 479.676 668.266 479.181 668.617 478.777C668.982 478.374 669.516 478.172 670.219 478.172C670.922 478.172 671.456 478.374 671.82 478.777C672.185 479.181 672.367 479.676 672.367 480.262C672.367 480.848 672.185 481.336 671.82 481.727C671.456 482.117 670.922 482.312 670.219 482.312C669.516 482.312 668.982 482.117 668.617 481.727C668.266 481.336 668.09 480.848 668.09 480.262ZM691.645 507H688.031V477H691.645V507ZM706.215 507.391C703.35 507.391 701.02 506.453 699.223 504.578C697.426 502.69 696.527 500.171 696.527 497.02V496.355C696.527 494.259 696.924 492.391 697.719 490.75C698.526 489.096 699.646 487.807 701.078 486.883C702.523 485.945 704.086 485.477 705.766 485.477C708.513 485.477 710.648 486.382 712.172 488.191C713.695 490.001 714.457 492.592 714.457 495.965V497.469H700.141C700.193 499.552 700.798 501.238 701.957 502.527C703.129 503.803 704.613 504.441 706.41 504.441C707.686 504.441 708.767 504.181 709.652 503.66C710.538 503.139 711.312 502.449 711.977 501.59L714.184 503.309C712.413 506.03 709.757 507.391 706.215 507.391ZM705.766 488.445C704.307 488.445 703.083 488.979 702.094 490.047C701.104 491.102 700.492 492.586 700.258 494.5H710.844V494.227C710.74 492.391 710.245 490.971 709.359 489.969C708.474 488.953 707.276 488.445 705.766 488.445ZM722.055 485.867L722.152 488.211C723.702 486.388 725.792 485.477 728.422 485.477C731.378 485.477 733.389 486.609 734.457 488.875C735.16 487.859 736.072 487.039 737.191 486.414C738.324 485.789 739.659 485.477 741.195 485.477C745.831 485.477 748.188 487.931 748.266 492.84V507H744.652V493.055C744.652 491.544 744.307 490.418 743.617 489.676C742.927 488.921 741.768 488.543 740.141 488.543C738.799 488.543 737.686 488.947 736.801 489.754C735.915 490.548 735.401 491.622 735.258 492.977V507H731.625V493.152C731.625 490.079 730.121 488.543 727.113 488.543C724.743 488.543 723.122 489.552 722.25 491.57V507H718.637V485.867H722.055ZM766.781 507C766.573 506.583 766.404 505.841 766.273 504.773C764.594 506.518 762.589 507.391 760.258 507.391C758.174 507.391 756.462 506.805 755.121 505.633C753.793 504.448 753.129 502.951 753.129 501.141C753.129 498.94 753.962 497.234 755.629 496.023C757.309 494.799 759.665 494.188 762.699 494.188H766.215V492.527C766.215 491.264 765.837 490.262 765.082 489.52C764.327 488.764 763.214 488.387 761.742 488.387C760.453 488.387 759.372 488.712 758.5 489.363C757.628 490.014 757.191 490.802 757.191 491.727H753.559C753.559 490.672 753.93 489.656 754.672 488.68C755.427 487.69 756.443 486.909 757.719 486.336C759.008 485.763 760.421 485.477 761.957 485.477C764.392 485.477 766.299 486.089 767.68 487.312C769.06 488.523 769.776 490.197 769.828 492.332V502.059C769.828 503.999 770.076 505.542 770.57 506.688V507H766.781ZM760.785 504.246C761.918 504.246 762.992 503.953 764.008 503.367C765.023 502.781 765.759 502.02 766.215 501.082V496.746H763.383C758.956 496.746 756.742 498.042 756.742 500.633C756.742 501.766 757.12 502.651 757.875 503.289C758.63 503.927 759.6 504.246 760.785 504.246ZM780.395 480.75V485.867H784.34V488.66H780.395V501.766C780.395 502.612 780.57 503.25 780.922 503.68C781.273 504.096 781.872 504.305 782.719 504.305C783.135 504.305 783.708 504.227 784.438 504.07V507C783.487 507.26 782.562 507.391 781.664 507.391C780.049 507.391 778.832 506.902 778.012 505.926C777.191 504.949 776.781 503.562 776.781 501.766V488.66H772.934V485.867H776.781V480.75H780.395ZM788.656 505.105C788.656 504.48 788.839 503.96 789.203 503.543C789.581 503.126 790.141 502.918 790.883 502.918C791.625 502.918 792.185 503.126 792.562 503.543C792.953 503.96 793.148 504.48 793.148 505.105C793.148 505.704 792.953 506.206 792.562 506.609C792.185 507.013 791.625 507.215 790.883 507.215C790.141 507.215 789.581 507.013 789.203 506.609C788.839 506.206 788.656 505.704 788.656 505.105Z" fill="black"/>
<rect id="new_slide" opacity="0.5" x="100" y="100" width="100" height="75" fill="#FF0000"/>
<rect id="1:12" opacity="0.5" x="114" y="496" width="362" height="272" fill="#FF0000"/>
<rect id="61:0" opacity="0.5" x="566" y="543" width="231" height="173" fill="#FF0000"/>
<rect id="klpat" opacity="0.5" x="797" y="100" width="100" height="75" fill="#FF0000"/>
</g>
</svg>
