<svg width="1280" height="960" viewBox="0 0 1280 960" fill="none" xmlns="http://www.w3.org/2000/svg">
<g id="graph monads, 2" clip-path="url(#clip0)">
<rect width="1280" height="960" fill="white"/>
<path id="Theorem__5BB.,_5D_Mso_without_counting_corresponds_to_algebras_that_avoid_groups_in_some_way." d="M604.2 535.08V519.88C604.2 517.32 604.6 515.84 606.04 515.84H606.92C609.92 515.84 611.6 516.84 612.28 519.92C612.72 519.92 613.48 519.88 613.84 519.72C613.56 517.88 613.36 515.8 613.32 514C613.32 513.96 613.24 513.88 613.2 513.88C611.84 514 607.4 514.2 604.24 514.2H598.6C595.52 514.2 590.8 514 589.28 513.88C589.2 513.88 589.12 513.96 589.12 514C588.96 515.8 588.56 517.92 588.12 519.84C588.52 520 589.2 520.04 589.68 520.04C590.48 516.84 592.12 515.84 594.76 515.84H596.72C598.2 515.84 598.6 517.32 598.6 519.76V535.08C598.6 538.4 597.92 538.6 594.72 538.72C594.48 538.96 594.48 539.84 594.72 540.08C596.68 540.04 598.76 540 601.32 540C603.96 540 606.08 540.04 608.08 540.08C608.32 539.84 608.32 538.96 608.08 538.72C604.88 538.6 604.2 538.4 604.2 535.08ZM635.214 534.88V528.64C635.214 524.24 633.334 522.24 629.894 522.24C628.414 522.24 625.574 523.72 623.294 525.12V516.68C623.294 514.08 623.414 512.6 623.414 512.6C623.414 512.24 623.134 512.08 622.774 512.08C621.294 512.56 618.094 513 615.254 513.12C615.134 513.6 615.174 514.04 615.374 514.4C617.894 514.6 618.094 514.64 618.094 517.4V534.92C618.094 538.24 617.454 538.6 615.014 538.72C614.774 538.96 614.774 539.84 615.014 540.08C616.694 540.04 618.494 540 620.694 540C622.614 540 623.854 540.04 625.574 540.08C625.814 539.84 625.814 538.96 625.574 538.72C623.894 538.6 623.294 538.24 623.294 534.92V526.72C624.974 525.68 626.294 525.2 627.014 525.2C628.614 525.2 630.014 525.92 630.014 528.2V534.88C630.014 538.24 629.374 538.6 627.734 538.72C627.494 538.96 627.494 539.84 627.734 540.08C629.414 540.04 630.694 540 632.614 540C634.814 540 636.574 540.04 638.294 540.08C638.534 539.84 638.534 538.96 638.294 538.72C635.854 538.6 635.214 538.24 635.214 534.88ZM656.099 534.84C654.459 536.52 652.299 536.96 650.779 536.96C647.659 536.96 645.739 535.16 645.739 531.24C645.739 530.96 645.779 530.8 645.779 530.6H655.379C656.339 530.6 656.539 529.92 656.539 529.36C656.539 525.96 655.219 522.24 649.339 522.24C645.139 522.24 640.339 525.96 640.339 532.08C640.339 534.4 641.179 536.84 642.899 538.4C644.419 539.76 646.379 540.4 649.219 540.4C651.979 540.4 654.699 539 656.699 536.08C656.699 535.56 656.499 534.84 656.099 534.84ZM645.939 529C645.979 527.6 646.179 526.08 646.739 525.28C647.379 524.32 648.459 523.92 648.899 523.92C649.979 523.92 651.459 524.96 651.459 528.16C651.459 528.4 651.459 528.92 651.379 529H645.939ZM660.183 531.72C660.183 536.96 664.343 540.4 669.703 540.4C672.543 540.4 674.903 539.6 676.543 538.12C678.583 536.32 679.263 533.6 679.263 531.36C679.263 526.12 675.703 522.24 669.743 522.24C666.423 522.24 663.943 523.4 662.383 525.2C660.863 526.96 660.183 529.36 660.183 531.72ZM669.103 523.92C671.823 523.92 673.663 527.16 673.663 532.64C673.663 537.44 671.783 538.72 670.343 538.72C667.063 538.72 665.783 533.8 665.783 530.84C665.783 527.16 666.423 523.92 669.103 523.92ZM689.854 529.28C689.854 527.84 690.294 527.24 690.814 526.64C691.134 526.24 691.494 525.96 692.094 525.96C692.454 525.96 692.894 526.32 693.214 526.72C693.494 527.04 694.174 527.36 695.094 527.36C696.254 527.36 697.374 526.16 697.374 524.48C697.374 523.44 696.174 522.24 694.734 522.24C693.334 522.24 691.814 523.44 689.974 526.08H689.814C689.734 524.88 689.534 522.92 689.534 522.92C689.494 522.56 689.174 522.24 688.614 522.24C686.734 522.72 684.614 523.28 681.974 523.56C681.894 523.8 681.974 524.56 682.054 524.8C684.254 525 684.654 525.36 684.654 527.64V535.12C684.654 538.44 684.214 538.52 681.774 538.72C681.534 538.96 681.534 539.84 681.774 540.08C683.454 540.04 685.134 540 687.254 540C689.374 540 691.014 540.04 692.734 540.08C692.974 539.84 692.974 538.96 692.734 538.72C690.294 538.56 689.854 538.44 689.854 535.12V529.28ZM714.771 534.84C713.131 536.52 710.971 536.96 709.451 536.96C706.331 536.96 704.411 535.16 704.411 531.24C704.411 530.96 704.451 530.8 704.451 530.6H714.051C715.011 530.6 715.211 529.92 715.211 529.36C715.211 525.96 713.891 522.24 708.011 522.24C703.811 522.24 699.011 525.96 699.011 532.08C699.011 534.4 699.851 536.84 701.571 538.4C703.091 539.76 705.051 540.4 707.891 540.4C710.651 540.4 713.371 539 715.371 536.08C715.371 535.56 715.171 534.84 714.771 534.84ZM704.611 529C704.651 527.6 704.851 526.08 705.411 525.28C706.051 524.32 707.131 523.92 707.571 523.92C708.651 523.92 710.131 524.96 710.131 528.16C710.131 528.4 710.131 528.92 710.051 529H704.611ZM726.222 535.12V527.16C726.222 526.96 726.222 526.76 726.222 526.56C727.782 525.6 729.182 525.2 729.862 525.2C731.462 525.2 732.662 525.92 732.662 528.2V534.88C732.662 538.24 732.022 538.6 730.382 538.72C730.142 538.96 730.142 539.84 730.382 540.08C732.062 540.04 733.342 540 735.262 540C737.182 540 738.422 540.04 740.142 540.08C740.382 539.84 740.382 538.96 740.142 538.72C738.542 538.6 737.862 538.24 737.862 534.88V528.64C737.862 527.64 737.822 526.84 737.702 526.44C739.222 525.68 740.942 525.2 741.582 525.2C743.182 525.2 744.302 525.92 744.302 528.2V534.88C744.302 538.24 743.662 538.6 742.022 538.72C741.782 538.96 741.782 539.84 742.022 540.08C743.702 540.04 744.982 540 746.902 540C749.102 540 750.862 540.04 752.582 540.08C752.822 539.84 752.822 538.96 752.582 538.72C750.142 538.6 749.502 538.24 749.502 534.88V528.64C749.502 524.24 747.902 522.24 744.462 522.24C742.982 522.24 739.622 523.84 737.302 525.12C736.702 523.4 735.102 522.24 732.742 522.24C731.302 522.24 728.422 523.76 726.142 525.04C726.022 523.84 725.902 522.92 725.902 522.92C725.862 522.44 725.542 522.24 724.982 522.24C723.502 522.64 721.102 523.2 718.342 523.56C718.262 523.8 718.342 524.6 718.422 524.84C720.622 525.04 721.022 525.36 721.022 527.64V535.12C721.022 538.44 720.582 538.52 718.142 538.72C717.902 538.96 717.902 539.84 718.142 540.08C719.822 540.04 721.502 540 723.622 540C725.462 540 726.582 540.04 728.302 540.08C728.542 539.84 728.542 538.96 728.302 538.72C726.622 538.56 726.222 538.44 726.222 535.12ZM766.337 545.404H772.273C772.441 545.236 772.441 544.732 772.273 544.564C768.409 544.256 768.213 543.836 768.213 541.4V524.292C768.213 521.856 768.437 521.436 772.273 521.156C772.441 520.988 772.441 520.484 772.273 520.316H766.337V545.404ZM777.437 521.94C776.429 521.94 774.917 521.912 773.825 521.884C773.657 522.052 773.657 522.64 773.825 522.808C775.785 522.892 776.261 523.032 776.261 525.356V536.584C776.261 538.908 775.785 539.048 773.825 539.132C773.657 539.3 773.657 539.888 773.825 540.056C774.917 540.028 776.429 540 777.465 540C778.473 540 779.201 540.056 781.553 540.056C787.125 540.056 788.609 537.256 788.609 534.848C788.609 532.16 786.733 530.62 784.297 529.92V529.864C785.697 529.164 786.957 527.708 786.957 526.196C786.957 524.32 786.145 521.884 780.937 521.884C779.957 521.884 778.445 521.94 777.437 521.94ZM778.641 530.704H780.573C784.409 530.704 786.005 532.86 786.005 535.38C786.005 537.424 785.221 539.132 780.965 539.132C779.005 539.132 778.641 538.404 778.641 536.696V530.704ZM778.641 524.6C778.641 523.116 778.641 522.836 781.077 522.836C782.645 522.836 784.689 523.676 784.689 526.532C784.689 528.912 783.037 529.752 780.713 529.752H778.641V524.6ZM791.35 538.796C791.35 539.608 792.022 540.28 792.834 540.28C793.646 540.28 794.318 539.608 794.318 538.796C794.318 537.984 793.646 537.312 792.834 537.312C792.022 537.312 791.35 537.984 791.35 538.796ZM798.818 537.34C797.95 537.34 797.334 537.928 797.334 538.712C797.334 539.58 798.062 539.86 798.566 539.944C799.098 540 799.574 540.168 799.574 540.812C799.574 541.4 798.566 542.688 797.11 543.052C797.11 543.332 797.166 543.528 797.362 543.724C799.042 543.416 800.666 542.072 800.666 540.112C800.666 538.432 799.938 537.34 798.818 537.34ZM809.003 520.288H803.067C802.899 520.456 802.899 520.96 803.067 521.128C806.931 521.436 807.127 521.856 807.127 524.292V541.4C807.127 543.836 806.903 544.256 803.067 544.536C802.899 544.704 802.899 545.208 803.067 545.376H809.003V520.288ZM614.52 581.36C614.72 584.6 614.56 584.64 611.96 584.76C611.72 585 611.72 585.84 611.96 586.08C613.44 586.04 615.04 586 616.24 586C617.44 586 619.28 586.04 620.6 586.08C620.84 585.84 620.84 585 620.6 584.76C617.88 584.64 617.76 584.48 617.52 581.16L616.32 564.32C616.16 562.16 616.36 561.6 619.08 561.44C619.32 561.2 619.32 560.36 619.08 560.12L613.84 560.2L605.36 580.48C605.2 580.88 605.08 581.04 605 581.04C604.92 581.04 604.8 580.84 604.68 580.52L596.48 560.2L590.68 560.12C590.44 560.36 590.44 561.2 590.68 561.44C593.44 561.6 593.68 561.68 593.4 564.68L591.8 581.16C591.56 583.56 591.08 584.56 588.8 584.76C588.56 585 588.56 585.84 588.8 586.08C590 586.04 591.28 586 592.24 586C593.2 586 594.8 586.04 596 586.08C596.24 585.84 596.24 585 596 584.76C593.36 584.56 593.16 583.32 593.36 581.08L594.88 565.04H594.96L603.24 585.8C603.36 586.08 603.6 586.4 603.84 586.4C604.08 586.4 604.24 586.12 604.4 585.8L613.4 564.64H613.48L614.52 581.36ZM623.475 580.48C623.635 582.44 623.755 584.32 623.755 586C624.155 585.92 624.555 585.88 624.755 585.88C625.035 585.88 625.275 585.88 625.555 585.96C626.635 586.24 627.715 586.4 629.195 586.4C631.435 586.4 635.555 585.32 635.555 581.36C635.555 578.64 633.595 577.04 630.875 576.04C628.475 575.12 626.875 574.52 626.875 572.32C626.875 570.68 628.315 569.76 629.675 569.76C630.555 569.76 632.875 570.08 633.395 573.48C633.635 573.72 634.435 573.68 634.675 573.44C634.795 572 634.875 570.52 634.915 569.2C633.675 569 631.755 568.44 629.675 568.44C626.715 568.44 624.035 570.36 624.035 572.92C624.035 575.84 625.355 577.08 628.435 578.36C631.755 579.72 632.515 580.56 632.515 582.28C632.515 584.24 630.595 585.08 629.115 585.08C627.555 585.08 626.675 584.56 626.275 584.12C625.395 583.2 624.955 581.44 624.715 580.44C624.475 580.2 623.715 580.24 623.475 580.48ZM638.781 577.8C638.781 581.88 641.501 586.4 647.181 586.4C649.741 586.4 651.701 585.48 653.061 584.16C654.861 582.4 655.661 579.88 655.661 577.44C655.661 573.28 653.381 568.44 647.261 568.44C644.621 568.44 642.461 569.52 640.981 571.24C639.541 572.96 638.781 575.28 638.781 577.8ZM646.661 569.84C650.101 569.84 652.221 572.96 652.221 578.72C652.221 583.76 649.621 585 647.741 585C643.581 585 642.221 579.96 642.221 576.88C642.221 573.4 643.061 569.84 646.661 569.84ZM675.417 570.08C675.657 569.84 675.657 569 675.417 568.76C674.217 568.8 672.817 568.84 671.377 568.84C669.857 568.84 668.777 568.8 667.737 568.76C667.497 569 667.497 569.84 667.737 570.08C669.617 570.28 670.057 570.68 670.897 572.76L676.137 585.68C676.377 586.24 676.697 586.48 677.097 586.48C677.457 586.48 677.777 586.24 678.057 585.6L682.097 575.76L686.217 585.68C686.457 586.24 686.777 586.48 687.177 586.48C687.537 586.48 687.857 586.24 688.097 585.64L693.337 572.96C693.977 571.32 694.657 570.2 696.697 570.08C696.937 569.84 696.937 569 696.697 568.76C695.897 568.8 695.017 568.84 693.817 568.84C692.617 568.84 690.937 568.8 689.737 568.76C689.497 569 689.497 569.84 689.737 570.08C692.737 570.24 692.337 571.4 691.777 572.8L688.417 581.12C688.017 582.12 687.857 582.12 687.537 581.28L684.097 572.52C683.337 570.64 683.417 570.24 685.537 570.08C685.777 569.84 685.777 569 685.537 568.76C684.337 568.8 682.737 568.84 681.537 568.84C680.537 568.84 679.217 568.8 678.017 568.76C677.777 569 677.777 569.84 678.017 570.08C679.897 570.24 680.377 571.4 681.097 573.2L681.337 573.84L678.537 580.92C678.017 582.24 677.937 582.28 677.417 581L674.217 572.76C673.457 570.84 673.497 570.2 675.417 570.08ZM704.42 581.12V573.16C704.42 571.16 704.58 568.6 704.58 568.6C704.58 568.44 704.38 568.32 704.06 568.32C702.94 568.76 701.34 569.12 698.58 569.48C698.5 569.72 698.58 570.36 698.66 570.6C700.86 570.8 701.26 571.04 701.26 573.32V581.12C701.26 584.44 700.82 584.56 698.38 584.76C698.14 585 698.14 585.84 698.38 586.08C699.7 586.04 701.26 586 702.86 586C704.46 586 705.98 586.04 707.3 586.08C707.54 585.84 707.54 585 707.3 584.76C704.86 584.6 704.42 584.44 704.42 581.12ZM700.78 562.04C700.78 563.08 701.74 564.12 702.7 564.12C703.82 564.12 704.78 563.04 704.78 562.2C704.78 561.24 703.94 560.12 702.86 560.12C701.9 560.12 700.78 561.08 700.78 562.04ZM709.759 568.84C709.199 568.84 709.039 569.32 709.039 569.64V570.16C709.039 570.36 709.079 570.4 709.239 570.4H711.599V582.44C711.599 585.28 712.839 586.4 714.679 586.4C716.519 586.4 718.519 585.52 720.079 583.76C719.999 583.36 719.759 583.12 719.359 583.08C718.319 583.88 717.119 584.2 716.079 584.2C714.999 584.2 714.759 583 714.759 580.52V570.4H718.919C719.319 570.4 719.879 570.24 719.879 569.88V569.08C719.879 568.92 719.759 568.84 719.559 568.84H714.759V567.28C714.759 564.68 714.919 563.08 714.919 563.08C714.919 562.84 714.799 562.72 714.599 562.72C714.439 562.72 714.079 562.88 713.719 563.08C713.279 563.32 712.879 563.52 712.359 563.64C711.879 563.8 711.479 563.92 711.479 564.2C711.479 564.68 711.599 564.4 711.599 568.84H709.759ZM727.375 574.56C727.375 573.72 727.735 573.24 728.055 572.88C729.575 571.4 731.615 570.52 733.175 570.52C733.975 570.52 734.815 571.04 735.295 571.96C735.695 572.76 735.775 573.84 735.775 575.04V581.12C735.775 584.4 735.375 584.56 733.295 584.76C733.095 585 733.095 585.84 733.295 586.08C734.415 586.04 735.775 586 737.375 586C738.975 586 740.295 586.04 741.615 586.08C741.815 585.84 741.815 585 741.615 584.76C739.375 584.56 738.935 584.4 738.935 581.12V575.16C738.935 572.96 738.775 571 737.855 569.8C737.175 568.92 735.935 568.44 734.535 568.44C732.575 568.44 730.175 568.96 727.735 571.68C727.735 571.72 727.695 571.72 727.655 571.76C727.535 571.92 727.335 572.16 727.335 571.68L727.375 562.68C727.375 560.08 727.535 558.48 727.535 558.48C727.535 558.2 727.375 558.08 727.015 558.08C726.015 558.48 723.015 559.04 721.415 559.16C721.335 559.48 721.415 560.12 721.655 560.36C721.775 560.36 721.895 560.36 722.015 560.36C723.775 560.48 724.215 560.48 724.215 563.64V581.12C724.215 584.44 723.735 584.6 721.415 584.76C721.175 585 721.175 585.84 721.415 586.08C722.735 586.04 724.215 586 725.815 586C727.335 586 728.655 586.04 729.775 586.08C730.015 585.84 730.015 585 729.775 584.76C727.735 584.6 727.375 584.44 727.375 581.12V574.56ZM743.859 577.8C743.859 581.88 746.579 586.4 752.259 586.4C754.819 586.4 756.779 585.48 758.139 584.16C759.939 582.4 760.739 579.88 760.739 577.44C760.739 573.28 758.459 568.44 752.339 568.44C749.699 568.44 747.539 569.52 746.059 571.24C744.619 572.96 743.859 575.28 743.859 577.8ZM751.739 569.84C755.179 569.84 757.299 572.96 757.299 578.72C757.299 583.76 754.699 585 752.819 585C748.659 585 747.299 579.96 747.299 576.88C747.299 573.4 748.139 569.84 751.739 569.84ZM771.055 586.4C772.615 586.4 774.495 585.6 776.455 584C776.655 583.84 777.015 583.76 777.055 584.04C777.175 585.04 777.495 586.4 777.495 586.4C777.815 586.52 778.015 586.48 778.255 586.4C779.135 585.68 780.535 585.08 782.975 584.8C783.215 584.56 783.215 583.96 782.975 583.72C780.415 583.52 780.055 582.76 780.055 580.8V573.12C780.055 571.92 780.215 569 780.215 569C780.215 568.88 780.095 568.76 779.895 568.76C779.695 568.8 779.095 568.84 778.495 568.84C777.215 568.84 775.775 568.8 774.415 568.76C774.175 569 774.175 569.84 774.415 570.08C776.375 570.2 776.895 570.68 776.895 573.32V581.04C776.895 581.8 776.815 582.12 776.255 582.6C774.775 583.88 773.255 584.52 772.255 584.52C771.055 584.52 769.055 583.96 769.055 580.4V573.12C769.055 571.92 769.215 569 769.215 569C769.215 568.88 769.095 568.76 768.895 568.76C768.695 568.8 768.095 568.84 767.495 568.84C766.215 568.84 764.775 568.8 763.415 568.76C763.175 569 763.175 569.84 763.415 570.08C765.335 570.24 765.895 570.68 765.895 573.28V580.96C765.895 583.72 767.095 586.4 771.055 586.4ZM785.345 568.84C784.785 568.84 784.625 569.32 784.625 569.64V570.16C784.625 570.36 784.665 570.4 784.825 570.4H787.185V582.44C787.185 585.28 788.425 586.4 790.265 586.4C792.105 586.4 794.105 585.52 795.665 583.76C795.585 583.36 795.345 583.12 794.945 583.08C793.905 583.88 792.705 584.2 791.665 584.2C790.585 584.2 790.345 583 790.345 580.52V570.4H794.505C794.905 570.4 795.465 570.24 795.465 569.88V569.08C795.465 568.92 795.345 568.84 795.145 568.84H790.345V567.28C790.345 564.68 790.505 563.08 790.505 563.08C790.505 562.84 790.385 562.72 790.185 562.72C790.025 562.72 789.665 562.88 789.305 563.08C788.865 563.32 788.465 563.52 787.945 563.64C787.465 563.8 787.065 563.92 787.065 564.2C787.065 564.68 787.185 564.4 787.185 568.84H785.345ZM822.201 582.36C822.041 582 821.721 581.84 821.361 581.8C820.001 583.56 818.281 584.44 816.561 584.44C813.641 584.44 811.201 581.48 811.201 576.8C811.201 572.4 813.121 569.76 815.761 569.76C818.121 569.76 818.441 571.16 818.601 572.56C818.721 573.64 819.281 574 820.121 574C820.961 574 822.081 573.48 822.081 572.24C822.081 570.04 819.801 568.44 815.961 568.44C812.001 568.44 807.761 572 807.761 577.68C807.761 582.84 810.641 586.4 815.681 586.4C818.081 586.4 820.201 585.64 822.201 582.36ZM825.031 577.8C825.031 581.88 827.751 586.4 833.431 586.4C835.991 586.4 837.951 585.48 839.311 584.16C841.111 582.4 841.911 579.88 841.911 577.44C841.911 573.28 839.631 568.44 833.511 568.44C830.871 568.44 828.711 569.52 827.231 571.24C825.791 572.96 825.031 575.28 825.031 577.8ZM832.911 569.84C836.351 569.84 838.471 572.96 838.471 578.72C838.471 583.76 835.871 585 833.991 585C829.831 585 828.471 579.96 828.471 576.88C828.471 573.4 829.311 569.84 832.911 569.84ZM852.227 586.4C853.787 586.4 855.667 585.6 857.627 584C857.827 583.84 858.187 583.76 858.227 584.04C858.347 585.04 858.667 586.4 858.667 586.4C858.987 586.52 859.187 586.48 859.427 586.4C860.307 585.68 861.707 585.08 864.147 584.8C864.387 584.56 864.387 583.96 864.147 583.72C861.587 583.52 861.227 582.76 861.227 580.8V573.12C861.227 571.92 861.387 569 861.387 569C861.387 568.88 861.267 568.76 861.067 568.76C860.867 568.8 860.267 568.84 859.667 568.84C858.387 568.84 856.947 568.8 855.587 568.76C855.347 569 855.347 569.84 855.587 570.08C857.547 570.2 858.067 570.68 858.067 573.32V581.04C858.067 581.8 857.987 582.12 857.427 582.6C855.947 583.88 854.427 584.52 853.427 584.52C852.227 584.52 850.227 583.96 850.227 580.4V573.12C850.227 571.92 850.387 569 850.387 569C850.387 568.88 850.267 568.76 850.067 568.76C849.867 568.8 849.267 568.84 848.667 568.84C847.387 568.84 845.947 568.8 844.587 568.76C844.347 569 844.347 569.84 844.587 570.08C846.507 570.24 847.067 570.68 847.067 573.28V580.96C847.067 583.72 848.267 586.4 852.227 586.4ZM872.157 571.68C871.917 571.96 871.677 572.04 871.677 571.68C871.637 570.6 871.557 569.04 871.357 568.64C871.277 568.44 871.197 568.32 870.877 568.32C869.757 568.76 868.717 569.12 865.957 569.48C865.877 569.72 865.957 570.36 866.037 570.6C868.197 570.8 868.637 571 868.637 573.32V581.12C868.637 584.4 868.237 584.56 865.837 584.76C865.597 585 865.597 585.84 865.837 586.08C867.037 586.04 868.637 586 870.237 586C871.837 586 873.037 586.04 874.237 586.08C874.477 585.84 874.477 585 874.237 584.76C872.197 584.56 871.797 584.4 871.797 581.12V574.56C871.797 573.72 872.157 573.24 872.477 572.88C873.997 571.4 875.797 570.52 877.357 570.52C878.157 570.52 878.997 571.04 879.477 571.96C879.877 572.76 879.957 573.84 879.957 575.04V581.12C879.957 584.4 879.557 584.56 877.477 584.76C877.277 585 877.277 585.84 877.477 586.08C878.677 586.04 879.957 586 881.557 586C883.157 586 884.597 586.04 885.797 586.08C885.997 585.84 885.997 585 885.797 584.76C883.557 584.56 883.117 584.4 883.117 581.12V575.16C883.117 572.96 882.957 571.04 882.037 569.8C881.357 568.92 880.117 568.44 878.717 568.44C876.757 568.44 874.517 568.96 872.157 571.68ZM888.197 568.84C887.637 568.84 887.477 569.32 887.477 569.64V570.16C887.477 570.36 887.517 570.4 887.677 570.4H890.037V582.44C890.037 585.28 891.277 586.4 893.117 586.4C894.957 586.4 896.957 585.52 898.517 583.76C898.437 583.36 898.197 583.12 897.797 583.08C896.757 583.88 895.557 584.2 894.517 584.2C893.437 584.2 893.197 583 893.197 580.52V570.4H897.357C897.757 570.4 898.317 570.24 898.317 569.88V569.08C898.317 568.92 898.197 568.84 897.997 568.84H893.197V567.28C893.197 564.68 893.357 563.08 893.357 563.08C893.357 562.84 893.237 562.72 893.037 562.72C892.877 562.72 892.517 562.88 892.157 563.08C891.717 563.32 891.317 563.52 890.797 563.64C890.317 563.8 889.917 563.92 889.917 564.2C889.917 564.68 890.037 564.4 890.037 568.84H888.197ZM906.373 581.12V573.16C906.373 571.16 906.533 568.6 906.533 568.6C906.533 568.44 906.333 568.32 906.013 568.32C904.893 568.76 903.293 569.12 900.533 569.48C900.453 569.72 900.533 570.36 900.613 570.6C902.813 570.8 903.213 571.04 903.213 573.32V581.12C903.213 584.44 902.773 584.56 900.333 584.76C900.093 585 900.093 585.84 900.333 586.08C901.653 586.04 903.213 586 904.813 586C906.413 586 907.933 586.04 909.253 586.08C909.493 585.84 909.493 585 909.253 584.76C906.813 584.6 906.373 584.44 906.373 581.12ZM902.733 562.04C902.733 563.08 903.693 564.12 904.653 564.12C905.773 564.12 906.733 563.04 906.733 562.2C906.733 561.24 905.893 560.12 904.813 560.12C903.853 560.12 902.733 561.08 902.733 562.04ZM917.352 571.68C917.112 571.96 916.872 572.04 916.872 571.68C916.832 570.6 916.752 569.04 916.552 568.64C916.472 568.44 916.392 568.32 916.072 568.32C914.952 568.76 913.912 569.12 911.152 569.48C911.072 569.72 911.152 570.36 911.232 570.6C913.392 570.8 913.832 571 913.832 573.32V581.12C913.832 584.4 913.432 584.56 911.032 584.76C910.792 585 910.792 585.84 911.032 586.08C912.232 586.04 913.832 586 915.432 586C917.032 586 918.232 586.04 919.432 586.08C919.672 585.84 919.672 585 919.432 584.76C917.392 584.56 916.992 584.4 916.992 581.12V574.56C916.992 573.72 917.352 573.24 917.672 572.88C919.192 571.4 920.992 570.52 922.552 570.52C923.352 570.52 924.192 571.04 924.672 571.96C925.072 572.76 925.152 573.84 925.152 575.04V581.12C925.152 584.4 924.752 584.56 922.672 584.76C922.472 585 922.472 585.84 922.672 586.08C923.872 586.04 925.152 586 926.752 586C928.352 586 929.792 586.04 930.992 586.08C931.192 585.84 931.192 585 930.992 584.76C928.752 584.56 928.312 584.4 928.312 581.12V575.16C928.312 572.96 928.152 571.04 927.232 569.8C926.552 568.92 925.312 568.44 923.912 568.44C921.952 568.44 919.712 568.96 917.352 571.68ZM949.432 570.52C950.192 570.52 950.912 569.8 950.912 569C950.912 568.16 950.152 567.52 949.072 567.52C948.032 567.52 946.112 568.2 945.072 569.56C944.592 569.24 943.272 568.44 940.912 568.44C937.352 568.44 934.072 570.84 934.072 574.52C934.072 576.68 935.032 577.92 936.152 579C935.032 579.96 934.392 581.68 934.392 583.04C934.392 584.48 935.192 585.6 936.232 586.12C934.072 587.4 932.952 589.24 932.952 590.96C932.952 594.44 936.232 595.52 939.312 595.52C944.712 595.52 950.552 592.92 950.552 588.6C950.552 587.32 949.952 586.32 948.792 585.36C947.232 584.08 944.432 584.04 942.952 584.04C942.232 584.04 941.232 584.12 940.272 584.24C939.672 584.28 939.272 584.32 939.072 584.32C937.912 584.32 936.512 583.76 936.512 582.04C936.512 581.24 936.752 580.4 937.232 579.72C938.192 580.28 939.312 580.56 940.872 580.56C944.392 580.56 947.632 578.36 947.632 574.44C947.632 572.56 947.072 571.48 945.912 570.28C946.192 569.88 946.992 569.32 947.512 569.32C947.792 569.32 948.072 569.44 948.312 569.8C948.472 570.12 948.992 570.52 949.432 570.52ZM936.952 586.4C937.392 586.52 938.032 586.6 938.552 586.6C939.792 586.6 940.912 586.48 941.472 586.48C943.472 586.48 945.152 586.52 946.312 587.16C947.872 588.04 948.352 588.6 948.352 589.64C948.352 592.52 944.112 594.04 940.512 594.04C939.072 594.04 935.712 592.88 935.712 590.16C935.712 588.8 935.792 587.8 936.952 586.4ZM944.432 574.84C944.432 578.56 942.552 579.32 941.072 579.32C937.712 579.32 937.352 576.48 937.352 573.92C937.352 571.12 938.352 569.68 940.552 569.68C943.072 569.68 944.432 571.52 944.432 574.84ZM977.592 582.36C977.432 582 977.112 581.84 976.752 581.8C975.392 583.56 973.672 584.44 971.952 584.44C969.032 584.44 966.592 581.48 966.592 576.8C966.592 572.4 968.512 569.76 971.152 569.76C973.512 569.76 973.832 571.16 973.992 572.56C974.112 573.64 974.672 574 975.512 574C976.352 574 977.472 573.48 977.472 572.24C977.472 570.04 975.192 568.44 971.352 568.44C967.392 568.44 963.152 572 963.152 577.68C963.152 582.84 966.032 586.4 971.072 586.4C973.472 586.4 975.592 585.64 977.592 582.36ZM980.421 577.8C980.421 581.88 983.141 586.4 988.821 586.4C991.381 586.4 993.341 585.48 994.701 584.16C996.501 582.4 997.301 579.88 997.301 577.44C997.301 573.28 995.021 568.44 988.901 568.44C986.261 568.44 984.101 569.52 982.621 571.24C981.181 572.96 980.421 575.28 980.421 577.8ZM988.301 569.84C991.741 569.84 993.861 572.96 993.861 578.72C993.861 583.76 991.261 585 989.381 585C985.221 585 983.861 579.96 983.861 576.88C983.861 573.4 984.701 569.84 988.301 569.84ZM1005.98 571.68C1005.9 570.08 1005.86 569.04 1005.66 568.64C1005.58 568.44 1005.5 568.32 1005.18 568.32C1004.06 568.76 1003.02 569.12 1000.26 569.48C1000.18 569.72 1000.26 570.36 1000.34 570.6C1002.5 570.8 1002.94 571 1002.94 573.32V581.12C1002.94 584.44 1002.46 584.6 999.978 584.76C999.738 585 999.738 585.84 999.978 586.08C1001.38 586.04 1002.94 586 1004.54 586C1006.14 586 1007.98 586.04 1009.38 586.08C1009.62 585.84 1009.62 585 1009.38 584.76C1006.58 584.56 1006.1 584.44 1006.1 581.12V575.56C1006.1 574.52 1006.58 573.6 1007.06 572.88C1007.5 572.24 1008.42 570.92 1008.9 570.92C1009.26 570.92 1009.62 571 1009.94 571.44C1010.22 571.84 1010.7 572.36 1011.38 572.36C1012.34 572.36 1013.26 571.36 1013.26 570.36C1013.26 569.6 1012.54 568.44 1010.86 568.44C1008.98 568.44 1007.34 570.2 1006.42 571.76C1006.18 572.2 1005.98 571.88 1005.98 571.68ZM1020.86 571.68C1020.78 570.08 1020.74 569.04 1020.54 568.64C1020.46 568.44 1020.38 568.32 1020.06 568.32C1018.94 568.76 1017.9 569.12 1015.14 569.48C1015.06 569.72 1015.14 570.36 1015.22 570.6C1017.38 570.8 1017.82 571 1017.82 573.32V581.12C1017.82 584.44 1017.34 584.6 1014.86 584.76C1014.62 585 1014.62 585.84 1014.86 586.08C1016.26 586.04 1017.82 586 1019.42 586C1021.02 586 1022.86 586.04 1024.26 586.08C1024.5 585.84 1024.5 585 1024.26 584.76C1021.46 584.56 1020.98 584.44 1020.98 581.12V575.56C1020.98 574.52 1021.46 573.6 1021.94 572.88C1022.38 572.24 1023.3 570.92 1023.78 570.92C1024.14 570.92 1024.5 571 1024.82 571.44C1025.1 571.84 1025.58 572.36 1026.26 572.36C1027.22 572.36 1028.14 571.36 1028.14 570.36C1028.14 569.6 1027.42 568.44 1025.74 568.44C1023.86 568.44 1022.22 570.2 1021.3 571.76C1021.06 572.2 1020.86 571.88 1020.86 571.68ZM1043.83 582.28C1042.35 583.8 1041.19 584.44 1038.87 584.44C1037.43 584.44 1035.75 583.6 1034.51 581.56C1033.71 580.24 1033.23 578.4 1033.23 576.08L1043.87 576.16C1044.35 576.16 1044.63 575.92 1044.63 575.48C1044.63 572.12 1043.43 568.52 1037.87 568.52C1034.39 568.52 1029.87 571.84 1029.87 577.92C1029.87 580.16 1030.43 582.32 1031.75 583.84C1033.11 585.44 1034.99 586.4 1037.87 586.4C1040.91 586.4 1043.07 585 1044.67 582.92C1044.55 582.52 1044.31 582.32 1043.83 582.28ZM1033.35 574.72C1034.11 570.2 1036.91 569.84 1037.87 569.84C1039.39 569.84 1041.19 570.68 1041.19 574.04C1041.19 574.4 1041.03 574.6 1040.59 574.6L1033.35 574.72ZM1048.2 580.48C1048.36 582.44 1048.48 584.32 1048.48 586C1048.88 585.92 1049.28 585.88 1049.48 585.88C1049.76 585.88 1050 585.88 1050.28 585.96C1051.36 586.24 1052.44 586.4 1053.92 586.4C1056.16 586.4 1060.28 585.32 1060.28 581.36C1060.28 578.64 1058.32 577.04 1055.6 576.04C1053.2 575.12 1051.6 574.52 1051.6 572.32C1051.6 570.68 1053.04 569.76 1054.4 569.76C1055.28 569.76 1057.6 570.08 1058.12 573.48C1058.36 573.72 1059.16 573.68 1059.4 573.44C1059.52 572 1059.6 570.52 1059.64 569.2C1058.4 569 1056.48 568.44 1054.4 568.44C1051.44 568.44 1048.76 570.36 1048.76 572.92C1048.76 575.84 1050.08 577.08 1053.16 578.36C1056.48 579.72 1057.24 580.56 1057.24 582.28C1057.24 584.24 1055.32 585.08 1053.84 585.08C1052.28 585.08 1051.4 584.56 1051 584.12C1050.12 583.2 1049.68 581.44 1049.44 580.44C1049.2 580.2 1048.44 580.24 1048.2 580.48ZM1068.11 571.28C1068.07 570.08 1067.99 569.04 1067.79 568.64C1067.71 568.44 1067.63 568.32 1067.31 568.32C1066.19 568.76 1065.15 569.12 1062.39 569.48C1062.31 569.72 1062.39 570.36 1062.47 570.6C1064.63 570.8 1065.07 571 1065.07 573.32V590.4C1065.07 593.72 1064.63 593.92 1062.19 594.04C1061.95 594.28 1061.95 595.12 1062.19 595.36C1063.59 595.32 1065.07 595.28 1066.67 595.28C1068.27 595.28 1070.19 595.32 1071.51 595.36C1071.75 595.12 1071.75 594.28 1071.51 594.04C1068.67 593.88 1068.23 593.72 1068.23 590.4V586.08C1068.23 585.56 1068.39 585.6 1068.79 585.76C1069.79 586.16 1070.99 586.4 1072.27 586.4C1074.51 586.4 1076.51 585.72 1078.15 584.16C1080.03 582.32 1081.11 579.84 1081.11 576.6C1081.11 572.36 1078.11 568.44 1074.03 568.44C1072.19 568.44 1070.15 569.64 1068.55 571.44C1068.31 571.68 1068.15 571.68 1068.11 571.28ZM1068.87 572.76C1069.91 571.48 1071.75 570.28 1072.91 570.28C1075.47 570.28 1077.67 573.16 1077.67 577.68C1077.67 580.96 1076.51 585.04 1072.03 585.04C1071.31 585.04 1069.91 584.84 1069.19 584.2C1068.39 583.48 1068.23 583.24 1068.23 581.8V574.52C1068.23 573.68 1068.39 573.32 1068.87 572.76ZM1084.52 577.8C1084.52 581.88 1087.24 586.4 1092.92 586.4C1095.48 586.4 1097.44 585.48 1098.8 584.16C1100.6 582.4 1101.4 579.88 1101.4 577.44C1101.4 573.28 1099.12 568.44 1093 568.44C1090.36 568.44 1088.2 569.52 1086.72 571.24C1085.28 572.96 1084.52 575.28 1084.52 577.8ZM1092.4 569.84C1095.84 569.84 1097.96 572.96 1097.96 578.72C1097.96 583.76 1095.36 585 1093.48 585C1089.32 585 1087.96 579.96 1087.96 576.88C1087.96 573.4 1088.8 569.84 1092.4 569.84ZM1110.4 571.68C1110.16 571.96 1109.92 572.04 1109.92 571.68C1109.88 570.6 1109.8 569.04 1109.6 568.64C1109.52 568.44 1109.44 568.32 1109.12 568.32C1108 568.76 1106.96 569.12 1104.2 569.48C1104.12 569.72 1104.2 570.36 1104.28 570.6C1106.44 570.8 1106.88 571 1106.88 573.32V581.12C1106.88 584.4 1106.48 584.56 1104.08 584.76C1103.84 585 1103.84 585.84 1104.08 586.08C1105.28 586.04 1106.88 586 1108.48 586C1110.08 586 1111.28 586.04 1112.48 586.08C1112.72 585.84 1112.72 585 1112.48 584.76C1110.44 584.56 1110.04 584.4 1110.04 581.12V574.56C1110.04 573.72 1110.4 573.24 1110.72 572.88C1112.24 571.4 1114.04 570.52 1115.6 570.52C1116.4 570.52 1117.24 571.04 1117.72 571.96C1118.12 572.76 1118.2 573.84 1118.2 575.04V581.12C1118.2 584.4 1117.8 584.56 1115.72 584.76C1115.52 585 1115.52 585.84 1115.72 586.08C1116.92 586.04 1118.2 586 1119.8 586C1121.4 586 1122.84 586.04 1124.04 586.08C1124.24 585.84 1124.24 585 1124.04 584.76C1121.8 584.56 1121.36 584.4 1121.36 581.12V575.16C1121.36 572.96 1121.2 571.04 1120.28 569.8C1119.6 568.92 1118.36 568.44 1116.96 568.44C1115 568.44 1112.76 568.96 1110.4 571.68ZM1138.08 584C1138.28 583.84 1138.64 583.76 1138.68 584.04C1138.8 585 1139.12 586.4 1139.12 586.4C1139.44 586.52 1139.64 586.48 1139.88 586.4C1140.76 585.68 1142.16 585.08 1144.6 584.8C1144.84 584.56 1144.84 583.96 1144.6 583.72C1142.04 583.52 1141.68 582.76 1141.68 580.8V562.68C1141.68 560.08 1141.84 558.48 1141.84 558.48C1141.84 558.2 1141.68 558.08 1141.32 558.08C1140.32 558.48 1137.32 559.04 1135.72 559.16C1135.64 559.48 1135.72 560.12 1135.96 560.36C1136.08 560.36 1136.2 560.36 1136.32 560.36C1138.08 560.48 1138.52 560.48 1138.52 563.64V568.76C1138.52 569.04 1138.44 569.12 1138.16 569.12C1138 569.12 1136.36 568.44 1135.04 568.44C1132.4 568.44 1130.64 569.32 1129.04 570.84C1127.32 572.56 1126.28 574.92 1126.28 577.88C1126.28 582.8 1128.76 586.4 1133.08 586.4C1134.64 586.4 1136.12 585.6 1138.08 584ZM1138.52 581.04C1138.52 581.8 1138.44 582.12 1137.88 582.6C1136.4 583.88 1135.12 584.52 1134.12 584.52C1131.96 584.52 1129.72 582.16 1129.72 577.16C1129.72 574.28 1130.28 572.68 1130.88 571.84C1132.12 569.96 1133.8 569.84 1134.6 569.84C1136.04 569.84 1137.04 570.36 1137.84 571.28C1138.4 571.92 1138.52 572.2 1138.52 573.44V581.04ZM1146.87 580.48C1147.03 582.44 1147.15 584.32 1147.15 586C1147.55 585.92 1147.95 585.88 1148.15 585.88C1148.43 585.88 1148.67 585.88 1148.95 585.96C1150.03 586.24 1151.11 586.4 1152.59 586.4C1154.83 586.4 1158.95 585.32 1158.95 581.36C1158.95 578.64 1156.99 577.04 1154.27 576.04C1151.87 575.12 1150.27 574.52 1150.27 572.32C1150.27 570.68 1151.71 569.76 1153.07 569.76C1153.95 569.76 1156.27 570.08 1156.79 573.48C1157.03 573.72 1157.83 573.68 1158.07 573.44C1158.19 572 1158.27 570.52 1158.31 569.2C1157.07 569 1155.15 568.44 1153.07 568.44C1150.11 568.44 1147.43 570.36 1147.43 572.92C1147.43 575.84 1148.75 577.08 1151.83 578.36C1155.15 579.72 1155.91 580.56 1155.91 582.28C1155.91 584.24 1153.99 585.08 1152.51 585.08C1150.95 585.08 1150.07 584.56 1149.67 584.12C1148.79 583.2 1148.35 581.44 1148.11 580.44C1147.87 580.2 1147.11 580.24 1146.87 580.48ZM1172.26 568.84C1171.7 568.84 1171.54 569.32 1171.54 569.64V570.16C1171.54 570.36 1171.58 570.4 1171.74 570.4H1174.1V582.44C1174.1 585.28 1175.34 586.4 1177.18 586.4C1179.02 586.4 1181.02 585.52 1182.58 583.76C1182.5 583.36 1182.26 583.12 1181.86 583.08C1180.82 583.88 1179.62 584.2 1178.58 584.2C1177.5 584.2 1177.26 583 1177.26 580.52V570.4H1181.42C1181.82 570.4 1182.38 570.24 1182.38 569.88V569.08C1182.38 568.92 1182.26 568.84 1182.06 568.84H1177.26V567.28C1177.26 564.68 1177.42 563.08 1177.42 563.08C1177.42 562.84 1177.3 562.72 1177.1 562.72C1176.94 562.72 1176.58 562.88 1176.22 563.08C1175.78 563.32 1175.38 563.52 1174.86 563.64C1174.38 563.8 1173.98 563.92 1173.98 564.2C1173.98 564.68 1174.1 564.4 1174.1 568.84H1172.26ZM1184.84 577.8C1184.84 581.88 1187.56 586.4 1193.24 586.4C1195.8 586.4 1197.76 585.48 1199.12 584.16C1200.92 582.4 1201.72 579.88 1201.72 577.44C1201.72 573.28 1199.44 568.44 1193.32 568.44C1190.68 568.44 1188.52 569.52 1187.04 571.24C1185.6 572.96 1184.84 575.28 1184.84 577.8ZM1192.72 569.84C1196.16 569.84 1198.28 572.96 1198.28 578.72C1198.28 583.76 1195.68 585 1193.8 585C1189.64 585 1188.28 579.96 1188.28 576.88C1188.28 573.4 1189.12 569.84 1192.72 569.84ZM599.72 630.08C599.96 631.32 600.4 632.4 602.4 632.4C603.92 632.4 605.36 631.72 606.2 630.92C606.12 630.44 605.96 630.08 605.52 629.84C605.24 630.08 604.56 630.48 604.04 630.48C602.88 630.48 602.84 628.92 602.84 627.08V621.2C602.84 615.52 599.72 614.44 596.8 614.44C593.52 614.44 590.2 616.6 590.2 618.88C590.2 619.84 590.68 620.32 591.6 620.32C592.76 620.32 593.48 619.48 593.48 618.96C593.48 618.68 593.44 618.4 593.36 618.24C593.32 618.12 593.28 617.88 593.28 617.44C593.28 616.2 594.96 615.76 596.48 615.76C597.84 615.76 599.72 616.44 599.72 620.96C599.72 621.24 599.6 621.4 599.48 621.44L596.04 622.28C592.2 623.24 589.44 625.36 589.44 628.08C589.44 631.36 591.68 632.4 594.48 632.4C595.88 632.4 597.08 632.08 598.84 630.72L599.64 630.08H599.72ZM599.72 622.68V627.96C599.72 628.48 599.48 628.76 599.16 629C598.12 629.84 596.76 630.76 595.64 630.76C593.64 630.76 592.76 629.16 592.76 627.92C592.76 626.12 593.6 624.28 596.56 623.52L599.72 622.68ZM610.081 627.12C610.081 630.44 609.641 630.64 607.201 630.76C606.961 631 606.961 631.84 607.201 632.08C608.601 632.04 610.081 632 611.681 632C613.281 632 614.801 632.04 616.121 632.08C616.361 631.84 616.361 631 616.121 630.76C613.681 630.64 613.241 630.44 613.241 627.12V608.68C613.241 606.08 613.401 604.48 613.401 604.48C613.401 604.2 613.241 604.08 612.881 604.08C611.881 604.48 608.881 605.04 607.281 605.16C607.201 605.48 607.281 606.12 607.521 606.36C609.841 606.52 610.081 606.64 610.081 609.64V627.12ZM634.588 616.52C635.348 616.52 636.068 615.8 636.068 615C636.068 614.16 635.308 613.52 634.228 613.52C633.188 613.52 631.268 614.2 630.228 615.56C629.748 615.24 628.428 614.44 626.068 614.44C622.508 614.44 619.228 616.84 619.228 620.52C619.228 622.68 620.188 623.92 621.308 625C620.188 625.96 619.548 627.68 619.548 629.04C619.548 630.48 620.348 631.6 621.388 632.12C619.228 633.4 618.108 635.24 618.108 636.96C618.108 640.44 621.388 641.52 624.468 641.52C629.868 641.52 635.708 638.92 635.708 634.6C635.708 633.32 635.108 632.32 633.948 631.36C632.388 630.08 629.588 630.04 628.108 630.04C627.388 630.04 626.388 630.12 625.428 630.24C624.828 630.28 624.428 630.32 624.228 630.32C623.068 630.32 621.668 629.76 621.668 628.04C621.668 627.24 621.908 626.4 622.388 625.72C623.348 626.28 624.468 626.56 626.028 626.56C629.548 626.56 632.788 624.36 632.788 620.44C632.788 618.56 632.228 617.48 631.068 616.28C631.348 615.88 632.148 615.32 632.668 615.32C632.948 615.32 633.228 615.44 633.468 615.8C633.628 616.12 634.148 616.52 634.588 616.52ZM622.108 632.4C622.548 632.52 623.188 632.6 623.708 632.6C624.948 632.6 626.068 632.48 626.628 632.48C628.628 632.48 630.308 632.52 631.468 633.16C633.028 634.04 633.508 634.6 633.508 635.64C633.508 638.52 629.268 640.04 625.668 640.04C624.228 640.04 620.868 638.88 620.868 636.16C620.868 634.8 620.948 633.8 622.108 632.4ZM629.588 620.84C629.588 624.56 627.708 625.32 626.228 625.32C622.868 625.32 622.508 622.48 622.508 619.92C622.508 617.12 623.508 615.68 625.708 615.68C628.228 615.68 629.588 617.52 629.588 620.84ZM652.268 628.28C650.788 629.8 649.628 630.44 647.308 630.44C645.868 630.44 644.188 629.6 642.948 627.56C642.148 626.24 641.668 624.4 641.668 622.08L652.308 622.16C652.788 622.16 653.068 621.92 653.068 621.48C653.068 618.12 651.868 614.52 646.308 614.52C642.828 614.52 638.308 617.84 638.308 623.92C638.308 626.16 638.868 628.32 640.188 629.84C641.548 631.44 643.428 632.4 646.308 632.4C649.348 632.4 651.508 631 653.108 628.92C652.988 628.52 652.748 628.32 652.268 628.28ZM641.788 620.72C642.548 616.2 645.348 615.84 646.308 615.84C647.828 615.84 649.628 616.68 649.628 620.04C649.628 620.4 649.468 620.6 649.028 620.6L641.788 620.72ZM661.399 616.24C661.159 616.48 660.999 616.4 660.999 616.04V608.68C660.999 606.08 661.159 604.48 661.159 604.48C661.159 604.2 660.999 604.08 660.639 604.08C659.639 604.48 656.639 605.04 655.039 605.16C654.959 605.48 655.039 606.12 655.279 606.36C655.399 606.36 655.519 606.36 655.639 606.36C657.399 606.48 657.839 606.48 657.839 609.64V629.16C657.839 630.72 657.799 631.44 657.679 632C657.879 632.32 658.079 632.48 658.559 632.48C658.799 632.24 659.199 631.88 659.519 631.52C659.919 631.04 660.159 631.04 660.599 631.4C661.519 632.16 662.719 632.4 664.119 632.4C668.199 632.4 672.959 628.68 672.959 622.32C672.959 617.44 669.359 614.44 665.879 614.44C664.159 614.44 662.639 615.12 661.399 616.24ZM661.679 617.48C662.719 616.56 663.919 616.2 665.079 616.2C667.519 616.2 669.519 619.16 669.519 623.04C669.519 627.6 667.679 631.04 663.879 631.04C662.639 631.04 661.799 630.16 660.999 629.16V619.16C660.999 618.32 661.159 617.92 661.679 617.48ZM681.485 617.68C681.405 616.08 681.365 615.04 681.165 614.64C681.085 614.44 681.005 614.32 680.685 614.32C679.565 614.76 678.525 615.12 675.765 615.48C675.685 615.72 675.765 616.36 675.845 616.6C678.005 616.8 678.445 617 678.445 619.32V627.12C678.445 630.44 677.965 630.6 675.485 630.76C675.245 631 675.245 631.84 675.485 632.08C676.885 632.04 678.445 632 680.045 632C681.645 632 683.485 632.04 684.885 632.08C685.125 631.84 685.125 631 684.885 630.76C682.085 630.56 681.605 630.44 681.605 627.12V621.56C681.605 620.52 682.085 619.6 682.565 618.88C683.005 618.24 683.925 616.92 684.405 616.92C684.765 616.92 685.125 617 685.445 617.44C685.725 617.84 686.205 618.36 686.885 618.36C687.845 618.36 688.765 617.36 688.765 616.36C688.765 615.6 688.045 614.44 686.365 614.44C684.485 614.44 682.845 616.2 681.925 617.76C681.685 618.2 681.485 617.88 681.485 617.68ZM701.048 630.08C701.288 631.32 701.728 632.4 703.728 632.4C705.248 632.4 706.688 631.72 707.528 630.92C707.448 630.44 707.288 630.08 706.848 629.84C706.568 630.08 705.888 630.48 705.368 630.48C704.208 630.48 704.168 628.92 704.168 627.08V621.2C704.168 615.52 701.048 614.44 698.128 614.44C694.848 614.44 691.528 616.6 691.528 618.88C691.528 619.84 692.008 620.32 692.928 620.32C694.088 620.32 694.808 619.48 694.808 618.96C694.808 618.68 694.768 618.4 694.688 618.24C694.648 618.12 694.608 617.88 694.608 617.44C694.608 616.2 696.288 615.76 697.808 615.76C699.168 615.76 701.048 616.44 701.048 620.96C701.048 621.24 700.928 621.4 700.808 621.44L697.368 622.28C693.528 623.24 690.768 625.36 690.768 628.08C690.768 631.36 693.008 632.4 695.808 632.4C697.208 632.4 698.408 632.08 700.168 630.72L700.968 630.08H701.048ZM701.048 622.68V627.96C701.048 628.48 700.808 628.76 700.488 629C699.448 629.84 698.088 630.76 696.968 630.76C694.968 630.76 694.088 629.16 694.088 627.92C694.088 626.12 694.928 624.28 697.888 623.52L701.048 622.68ZM709.529 626.48C709.689 628.44 709.809 630.32 709.809 632C710.209 631.92 710.609 631.88 710.809 631.88C711.089 631.88 711.329 631.88 711.609 631.96C712.689 632.24 713.769 632.4 715.249 632.4C717.489 632.4 721.609 631.32 721.609 627.36C721.609 624.64 719.649 623.04 716.929 622.04C714.529 621.12 712.929 620.52 712.929 618.32C712.929 616.68 714.369 615.76 715.729 615.76C716.609 615.76 718.929 616.08 719.449 619.48C719.689 619.72 720.489 619.68 720.729 619.44C720.849 618 720.929 616.52 720.969 615.2C719.729 615 717.809 614.44 715.729 614.44C712.769 614.44 710.089 616.36 710.089 618.92C710.089 621.84 711.409 623.08 714.489 624.36C717.809 625.72 718.569 626.56 718.569 628.28C718.569 630.24 716.649 631.08 715.169 631.08C713.609 631.08 712.729 630.56 712.329 630.12C711.449 629.2 711.009 627.44 710.769 626.44C710.529 626.2 709.769 626.24 709.529 626.48ZM734.915 614.84C734.355 614.84 734.195 615.32 734.195 615.64V616.16C734.195 616.36 734.235 616.4 734.395 616.4H736.755V628.44C736.755 631.28 737.995 632.4 739.835 632.4C741.675 632.4 743.675 631.52 745.235 629.76C745.155 629.36 744.915 629.12 744.515 629.08C743.475 629.88 742.275 630.2 741.235 630.2C740.155 630.2 739.915 629 739.915 626.52V616.4H744.075C744.475 616.4 745.035 616.24 745.035 615.88V615.08C745.035 614.92 744.915 614.84 744.715 614.84H739.915V613.28C739.915 610.68 740.075 609.08 740.075 609.08C740.075 608.84 739.955 608.72 739.755 608.72C739.595 608.72 739.235 608.88 738.875 609.08C738.435 609.32 738.035 609.52 737.515 609.64C737.035 609.8 736.635 609.92 736.635 610.2C736.635 610.68 736.755 610.4 736.755 614.84H734.915ZM752.532 620.56C752.532 619.72 752.892 619.24 753.212 618.88C754.732 617.4 756.772 616.52 758.332 616.52C759.132 616.52 759.972 617.04 760.452 617.96C760.852 618.76 760.932 619.84 760.932 621.04V627.12C760.932 630.4 760.532 630.56 758.452 630.76C758.252 631 758.252 631.84 758.452 632.08C759.572 632.04 760.932 632 762.532 632C764.132 632 765.452 632.04 766.772 632.08C766.972 631.84 766.972 631 766.772 630.76C764.532 630.56 764.092 630.4 764.092 627.12V621.16C764.092 618.96 763.932 617 763.012 615.8C762.332 614.92 761.092 614.44 759.692 614.44C757.732 614.44 755.332 614.96 752.892 617.68C752.892 617.72 752.852 617.72 752.812 617.76C752.692 617.92 752.492 618.16 752.492 617.68L752.532 608.68C752.532 606.08 752.692 604.48 752.692 604.48C752.692 604.2 752.532 604.08 752.172 604.08C751.172 604.48 748.172 605.04 746.572 605.16C746.492 605.48 746.572 606.12 746.812 606.36C746.932 606.36 747.052 606.36 747.172 606.36C748.932 606.48 749.372 606.48 749.372 609.64V627.12C749.372 630.44 748.892 630.6 746.572 630.76C746.332 631 746.332 631.84 746.572 632.08C747.892 632.04 749.372 632 750.972 632C752.492 632 753.812 632.04 754.932 632.08C755.172 631.84 755.172 631 754.932 630.76C752.892 630.6 752.532 630.44 752.532 627.12V620.56ZM779.095 630.08C779.335 631.32 779.775 632.4 781.775 632.4C783.295 632.4 784.735 631.72 785.575 630.92C785.495 630.44 785.335 630.08 784.895 629.84C784.615 630.08 783.935 630.48 783.415 630.48C782.255 630.48 782.215 628.92 782.215 627.08V621.2C782.215 615.52 779.095 614.44 776.175 614.44C772.895 614.44 769.575 616.6 769.575 618.88C769.575 619.84 770.055 620.32 770.975 620.32C772.135 620.32 772.855 619.48 772.855 618.96C772.855 618.68 772.815 618.4 772.735 618.24C772.695 618.12 772.655 617.88 772.655 617.44C772.655 616.2 774.335 615.76 775.855 615.76C777.215 615.76 779.095 616.44 779.095 620.96C779.095 621.24 778.975 621.4 778.855 621.44L775.415 622.28C771.575 623.24 768.815 625.36 768.815 628.08C768.815 631.36 771.055 632.4 773.855 632.4C775.255 632.4 776.455 632.08 778.215 630.72L779.015 630.08H779.095ZM779.095 622.68V627.96C779.095 628.48 778.855 628.76 778.535 629C777.495 629.84 776.135 630.76 775.015 630.76C773.015 630.76 772.135 629.16 772.135 627.92C772.135 626.12 772.975 624.28 775.935 623.52L779.095 622.68ZM787.376 614.84C786.816 614.84 786.656 615.32 786.656 615.64V616.16C786.656 616.36 786.696 616.4 786.856 616.4H789.216V628.44C789.216 631.28 790.456 632.4 792.296 632.4C794.136 632.4 796.136 631.52 797.696 629.76C797.616 629.36 797.376 629.12 796.976 629.08C795.936 629.88 794.736 630.2 793.696 630.2C792.616 630.2 792.376 629 792.376 626.52V616.4H796.536C796.936 616.4 797.496 616.24 797.496 615.88V615.08C797.496 614.92 797.376 614.84 797.176 614.84H792.376V613.28C792.376 610.68 792.536 609.08 792.536 609.08C792.536 608.84 792.416 608.72 792.216 608.72C792.056 608.72 791.696 608.88 791.336 609.08C790.896 609.32 790.496 609.52 789.976 609.64C789.496 609.8 789.096 609.92 789.096 610.2C789.096 610.68 789.216 610.4 789.216 614.84H787.376ZM820.033 630.08C820.273 631.32 820.713 632.4 822.713 632.4C824.233 632.4 825.673 631.72 826.513 630.92C826.433 630.44 826.273 630.08 825.833 629.84C825.553 630.08 824.873 630.48 824.353 630.48C823.193 630.48 823.153 628.92 823.153 627.08V621.2C823.153 615.52 820.033 614.44 817.113 614.44C813.833 614.44 810.513 616.6 810.513 618.88C810.513 619.84 810.993 620.32 811.913 620.32C813.073 620.32 813.793 619.48 813.793 618.96C813.793 618.68 813.753 618.4 813.673 618.24C813.633 618.12 813.592 617.88 813.592 617.44C813.592 616.2 815.273 615.76 816.793 615.76C818.153 615.76 820.033 616.44 820.033 620.96C820.033 621.24 819.913 621.4 819.793 621.44L816.353 622.28C812.513 623.24 809.753 625.36 809.753 628.08C809.753 631.36 811.993 632.4 814.793 632.4C816.193 632.4 817.393 632.08 819.153 630.72L819.953 630.08H820.033ZM820.033 622.68V627.96C820.033 628.48 819.793 628.76 819.473 629C818.433 629.84 817.073 630.76 815.953 630.76C813.953 630.76 813.073 629.16 813.073 627.92C813.073 626.12 813.913 624.28 816.873 623.52L820.033 622.68ZM839.594 616.08C841.754 616.24 841.994 616.72 841.154 618.76L837.914 626.6C837.274 628.16 837.074 628.16 836.434 626.48L833.554 618.76C832.834 616.84 832.674 616.36 834.794 616.08C835.034 615.84 835.034 615 834.794 614.76C833.474 614.8 832.074 614.84 830.754 614.84C829.434 614.84 828.234 614.8 827.034 614.76C826.794 615 826.794 615.84 827.034 616.08C829.154 616.32 829.434 616.96 830.234 619L835.354 631.64C835.594 632.24 835.834 632.48 836.354 632.48C836.754 632.48 837.034 632.24 837.314 631.56L842.634 619.04C843.394 617.28 843.834 616.28 846.074 616.08C846.314 615.84 846.314 615 846.074 614.76C845.274 614.8 844.314 614.84 843.274 614.84C841.954 614.84 840.594 614.8 839.594 614.76C839.354 615 839.354 615.84 839.594 616.08ZM847.804 623.8C847.804 627.88 850.524 632.4 856.204 632.4C858.764 632.4 860.724 631.48 862.084 630.16C863.884 628.4 864.684 625.88 864.684 623.44C864.684 619.28 862.404 614.44 856.284 614.44C853.644 614.44 851.484 615.52 850.004 617.24C848.564 618.96 847.804 621.28 847.804 623.8ZM855.684 615.84C859.124 615.84 861.244 618.96 861.244 624.72C861.244 629.76 858.644 631 856.764 631C852.604 631 851.244 625.96 851.244 622.88C851.244 619.4 852.084 615.84 855.684 615.84ZM873.56 627.12V619.16C873.56 617.16 873.72 614.6 873.72 614.6C873.72 614.44 873.52 614.32 873.2 614.32C872.08 614.76 870.48 615.12 867.72 615.48C867.64 615.72 867.72 616.36 867.8 616.6C870 616.8 870.4 617.04 870.4 619.32V627.12C870.4 630.44 869.96 630.56 867.52 630.76C867.28 631 867.28 631.84 867.52 632.08C868.84 632.04 870.4 632 872 632C873.6 632 875.12 632.04 876.44 632.08C876.68 631.84 876.68 631 876.44 630.76C874 630.6 873.56 630.44 873.56 627.12ZM869.92 608.04C869.92 609.08 870.88 610.12 871.84 610.12C872.96 610.12 873.92 609.04 873.92 608.2C873.92 607.24 873.08 606.12 872 606.12C871.04 606.12 869.92 607.08 869.92 608.04ZM890.54 630C890.74 629.84 891.1 629.76 891.14 630.04C891.26 631 891.58 632.4 891.58 632.4C891.9 632.52 892.1 632.48 892.34 632.4C893.22 631.68 894.62 631.08 897.06 630.8C897.3 630.56 897.3 629.96 897.06 629.72C894.5 629.52 894.14 628.76 894.14 626.8V608.68C894.14 606.08 894.3 604.48 894.3 604.48C894.3 604.2 894.14 604.08 893.78 604.08C892.78 604.48 889.78 605.04 888.18 605.16C888.1 605.48 888.18 606.12 888.42 606.36C888.54 606.36 888.66 606.36 888.78 606.36C890.54 606.48 890.98 606.48 890.98 609.64V614.76C890.98 615.04 890.9 615.12 890.62 615.12C890.46 615.12 888.82 614.44 887.5 614.44C884.86 614.44 883.1 615.32 881.5 616.84C879.78 618.56 878.74 620.92 878.74 623.88C878.74 628.8 881.22 632.4 885.54 632.4C887.1 632.4 888.58 631.6 890.54 630ZM890.98 627.04C890.98 627.8 890.9 628.12 890.34 628.6C888.86 629.88 887.58 630.52 886.58 630.52C884.42 630.52 882.18 628.16 882.18 623.16C882.18 620.28 882.74 618.68 883.34 617.84C884.58 615.96 886.26 615.84 887.06 615.84C888.5 615.84 889.5 616.36 890.3 617.28C890.86 617.92 890.98 618.2 890.98 619.44V627.04ZM925.174 616.52C925.934 616.52 926.654 615.8 926.654 615C926.654 614.16 925.894 613.52 924.814 613.52C923.774 613.52 921.854 614.2 920.814 615.56C920.334 615.24 919.014 614.44 916.654 614.44C913.094 614.44 909.814 616.84 909.814 620.52C909.814 622.68 910.774 623.92 911.894 625C910.774 625.96 910.134 627.68 910.134 629.04C910.134 630.48 910.934 631.6 911.974 632.12C909.814 633.4 908.694 635.24 908.694 636.96C908.694 640.44 911.974 641.52 915.054 641.52C920.454 641.52 926.294 638.92 926.294 634.6C926.294 633.32 925.694 632.32 924.534 631.36C922.974 630.08 920.174 630.04 918.694 630.04C917.974 630.04 916.974 630.12 916.014 630.24C915.414 630.28 915.014 630.32 914.814 630.32C913.654 630.32 912.254 629.76 912.254 628.04C912.254 627.24 912.494 626.4 912.974 625.72C913.934 626.28 915.054 626.56 916.614 626.56C920.134 626.56 923.374 624.36 923.374 620.44C923.374 618.56 922.814 617.48 921.654 616.28C921.934 615.88 922.734 615.32 923.254 615.32C923.534 615.32 923.814 615.44 924.054 615.8C924.214 616.12 924.734 616.52 925.174 616.52ZM912.694 632.4C913.134 632.52 913.774 632.6 914.294 632.6C915.534 632.6 916.654 632.48 917.214 632.48C919.214 632.48 920.894 632.52 922.054 633.16C923.614 634.04 924.094 634.6 924.094 635.64C924.094 638.52 919.854 640.04 916.254 640.04C914.814 640.04 911.454 638.88 911.454 636.16C911.454 634.8 911.534 633.8 912.694 632.4ZM920.174 620.84C920.174 624.56 918.294 625.32 916.814 625.32C913.454 625.32 913.094 622.48 913.094 619.92C913.094 617.12 914.094 615.68 916.294 615.68C918.814 615.68 920.174 617.52 920.174 620.84ZM934.454 617.68C934.374 616.08 934.334 615.04 934.134 614.64C934.054 614.44 933.974 614.32 933.654 614.32C932.534 614.76 931.494 615.12 928.734 615.48C928.654 615.72 928.734 616.36 928.814 616.6C930.974 616.8 931.414 617 931.414 619.32V627.12C931.414 630.44 930.934 630.6 928.454 630.76C928.214 631 928.214 631.84 928.454 632.08C929.854 632.04 931.414 632 933.014 632C934.614 632 936.454 632.04 937.854 632.08C938.094 631.84 938.094 631 937.854 630.76C935.054 630.56 934.574 630.44 934.574 627.12V621.56C934.574 620.52 935.054 619.6 935.534 618.88C935.974 618.24 936.894 616.92 937.374 616.92C937.734 616.92 938.094 617 938.414 617.44C938.694 617.84 939.174 618.36 939.854 618.36C940.814 618.36 941.734 617.36 941.734 616.36C941.734 615.6 941.014 614.44 939.334 614.44C937.454 614.44 935.814 616.2 934.894 617.76C934.654 618.2 934.454 617.88 934.454 617.68ZM943.624 623.8C943.624 627.88 946.344 632.4 952.024 632.4C954.584 632.4 956.544 631.48 957.904 630.16C959.704 628.4 960.504 625.88 960.504 623.44C960.504 619.28 958.224 614.44 952.104 614.44C949.464 614.44 947.304 615.52 945.824 617.24C944.384 618.96 943.624 621.28 943.624 623.8ZM951.504 615.84C954.944 615.84 957.064 618.96 957.064 624.72C957.064 629.76 954.464 631 952.584 631C948.424 631 947.064 625.96 947.064 622.88C947.064 619.4 947.904 615.84 951.504 615.84ZM970.821 632.4C972.381 632.4 974.261 631.6 976.221 630C976.421 629.84 976.781 629.76 976.821 630.04C976.941 631.04 977.261 632.4 977.261 632.4C977.581 632.52 977.781 632.48 978.021 632.4C978.901 631.68 980.301 631.08 982.741 630.8C982.981 630.56 982.981 629.96 982.741 629.72C980.181 629.52 979.821 628.76 979.821 626.8V619.12C979.821 617.92 979.981 615 979.981 615C979.981 614.88 979.861 614.76 979.661 614.76C979.461 614.8 978.861 614.84 978.261 614.84C976.981 614.84 975.541 614.8 974.181 614.76C973.941 615 973.941 615.84 974.181 616.08C976.141 616.2 976.661 616.68 976.661 619.32V627.04C976.661 627.8 976.581 628.12 976.021 628.6C974.541 629.88 973.021 630.52 972.021 630.52C970.821 630.52 968.821 629.96 968.821 626.4V619.12C968.821 617.92 968.981 615 968.981 615C968.981 614.88 968.861 614.76 968.661 614.76C968.461 614.8 967.861 614.84 967.261 614.84C965.981 614.84 964.541 614.8 963.181 614.76C962.941 615 962.941 615.84 963.181 616.08C965.101 616.24 965.661 616.68 965.661 619.28V626.96C965.661 629.72 966.861 632.4 970.821 632.4ZM989.631 617.28C989.591 616.08 989.511 615.04 989.311 614.64C989.231 614.44 989.151 614.32 988.831 614.32C987.711 614.76 986.671 615.12 983.911 615.48C983.831 615.72 983.911 616.36 983.991 616.6C986.151 616.8 986.591 617 986.591 619.32V636.4C986.591 639.72 986.151 639.92 983.711 640.04C983.471 640.28 983.471 641.12 983.711 641.36C985.111 641.32 986.591 641.28 988.191 641.28C989.791 641.28 991.711 641.32 993.031 641.36C993.271 641.12 993.271 640.28 993.031 640.04C990.191 639.88 989.751 639.72 989.751 636.4V632.08C989.751 631.56 989.911 631.6 990.311 631.76C991.311 632.16 992.511 632.4 993.791 632.4C996.031 632.4 998.031 631.72 999.671 630.16C1001.55 628.32 1002.63 625.84 1002.63 622.6C1002.63 618.36 999.631 614.44 995.551 614.44C993.711 614.44 991.671 615.64 990.071 617.44C989.831 617.68 989.671 617.68 989.631 617.28ZM990.391 618.76C991.431 617.48 993.271 616.28 994.431 616.28C996.991 616.28 999.191 619.16 999.191 623.68C999.191 626.96 998.031 631.04 993.551 631.04C992.831 631.04 991.431 630.84 990.711 630.2C989.911 629.48 989.751 629.24 989.751 627.8V620.52C989.751 619.68 989.911 619.32 990.391 618.76ZM1006.05 626.48C1006.21 628.44 1006.33 630.32 1006.33 632C1006.73 631.92 1007.13 631.88 1007.33 631.88C1007.61 631.88 1007.85 631.88 1008.13 631.96C1009.21 632.24 1010.29 632.4 1011.77 632.4C1014.01 632.4 1018.13 631.32 1018.13 627.36C1018.13 624.64 1016.17 623.04 1013.45 622.04C1011.05 621.12 1009.45 620.52 1009.45 618.32C1009.45 616.68 1010.89 615.76 1012.25 615.76C1013.13 615.76 1015.45 616.08 1015.97 619.48C1016.21 619.72 1017.01 619.68 1017.25 619.44C1017.37 618 1017.45 616.52 1017.49 615.2C1016.25 615 1014.33 614.44 1012.25 614.44C1009.29 614.44 1006.61 616.36 1006.61 618.92C1006.61 621.84 1007.93 623.08 1011.01 624.36C1014.33 625.72 1015.09 626.56 1015.09 628.28C1015.09 630.24 1013.17 631.08 1011.69 631.08C1010.13 631.08 1009.25 630.56 1008.85 630.12C1007.97 629.2 1007.53 627.44 1007.29 626.44C1007.05 626.2 1006.29 626.24 1006.05 626.48ZM1036.96 627.12V619.16C1036.96 617.16 1037.12 614.6 1037.12 614.6C1037.12 614.44 1036.92 614.32 1036.6 614.32C1035.48 614.76 1033.88 615.12 1031.12 615.48C1031.04 615.72 1031.12 616.36 1031.2 616.6C1033.4 616.8 1033.8 617.04 1033.8 619.32V627.12C1033.8 630.44 1033.36 630.56 1030.92 630.76C1030.68 631 1030.68 631.84 1030.92 632.08C1032.24 632.04 1033.8 632 1035.4 632C1037 632 1038.52 632.04 1039.84 632.08C1040.08 631.84 1040.08 631 1039.84 630.76C1037.4 630.6 1036.96 630.44 1036.96 627.12ZM1033.32 608.04C1033.32 609.08 1034.28 610.12 1035.24 610.12C1036.36 610.12 1037.32 609.04 1037.32 608.2C1037.32 607.24 1036.48 606.12 1035.4 606.12C1034.44 606.12 1033.32 607.08 1033.32 608.04ZM1047.94 617.68C1047.7 617.96 1047.46 618.04 1047.46 617.68C1047.42 616.6 1047.34 615.04 1047.14 614.64C1047.06 614.44 1046.98 614.32 1046.66 614.32C1045.54 614.76 1044.5 615.12 1041.74 615.48C1041.66 615.72 1041.74 616.36 1041.82 616.6C1043.98 616.8 1044.42 617 1044.42 619.32V627.12C1044.42 630.4 1044.02 630.56 1041.62 630.76C1041.38 631 1041.38 631.84 1041.62 632.08C1042.82 632.04 1044.42 632 1046.02 632C1047.62 632 1048.82 632.04 1050.02 632.08C1050.26 631.84 1050.26 631 1050.02 630.76C1047.98 630.56 1047.58 630.4 1047.58 627.12V620.56C1047.58 619.72 1047.94 619.24 1048.26 618.88C1049.78 617.4 1051.58 616.52 1053.14 616.52C1053.94 616.52 1054.78 617.04 1055.26 617.96C1055.66 618.76 1055.74 619.84 1055.74 621.04V627.12C1055.74 630.4 1055.34 630.56 1053.26 630.76C1053.06 631 1053.06 631.84 1053.26 632.08C1054.46 632.04 1055.74 632 1057.34 632C1058.94 632 1060.38 632.04 1061.58 632.08C1061.78 631.84 1061.78 631 1061.58 630.76C1059.34 630.56 1058.9 630.4 1058.9 627.12V621.16C1058.9 618.96 1058.74 617.04 1057.82 615.8C1057.14 614.92 1055.9 614.44 1054.5 614.44C1052.54 614.44 1050.3 614.96 1047.94 617.68ZM1074.18 626.48C1074.34 628.44 1074.46 630.32 1074.46 632C1074.86 631.92 1075.26 631.88 1075.46 631.88C1075.74 631.88 1075.98 631.88 1076.26 631.96C1077.34 632.24 1078.42 632.4 1079.9 632.4C1082.14 632.4 1086.26 631.32 1086.26 627.36C1086.26 624.64 1084.3 623.04 1081.58 622.04C1079.18 621.12 1077.58 620.52 1077.58 618.32C1077.58 616.68 1079.02 615.76 1080.38 615.76C1081.26 615.76 1083.58 616.08 1084.1 619.48C1084.34 619.72 1085.14 619.68 1085.38 619.44C1085.5 618 1085.58 616.52 1085.62 615.2C1084.38 615 1082.46 614.44 1080.38 614.44C1077.42 614.44 1074.74 616.36 1074.74 618.92C1074.74 621.84 1076.06 623.08 1079.14 624.36C1082.46 625.72 1083.22 626.56 1083.22 628.28C1083.22 630.24 1081.3 631.08 1079.82 631.08C1078.26 631.08 1077.38 630.56 1076.98 630.12C1076.1 629.2 1075.66 627.44 1075.42 626.44C1075.18 626.2 1074.42 626.24 1074.18 626.48ZM1089.48 623.8C1089.48 627.88 1092.2 632.4 1097.88 632.4C1100.44 632.4 1102.4 631.48 1103.76 630.16C1105.56 628.4 1106.36 625.88 1106.36 623.44C1106.36 619.28 1104.08 614.44 1097.96 614.44C1095.32 614.44 1093.16 615.52 1091.68 617.24C1090.24 618.96 1089.48 621.28 1089.48 623.8ZM1097.36 615.84C1100.8 615.84 1102.92 618.96 1102.92 624.72C1102.92 629.76 1100.32 631 1098.44 631C1094.28 631 1092.92 625.96 1092.92 622.88C1092.92 619.4 1093.76 615.84 1097.36 615.84ZM1114.8 617.68C1114.76 616.48 1114.68 615.04 1114.48 614.64C1114.4 614.44 1114.32 614.32 1114 614.32C1112.88 614.76 1111.84 615.12 1109.08 615.48C1109 615.72 1109.08 616.36 1109.16 616.6C1111.32 616.8 1111.76 617 1111.76 619.32V627.12C1111.76 630.4 1111.24 630.6 1109.04 630.76C1108.8 631 1108.8 631.84 1109.04 632.08C1110.24 632.04 1111.76 632 1113.36 632C1114.96 632 1116.2 632.04 1117.4 632.08C1117.64 631.84 1117.64 631 1117.4 630.76C1115.36 630.56 1114.92 630.4 1114.92 627.12V620.56C1114.92 619.72 1115.28 619.24 1115.6 618.88C1117.2 617.32 1118.68 616.52 1119.92 616.52C1121.44 616.52 1122.56 617.48 1122.56 620.16V627.12C1122.56 630.4 1122.24 630.6 1120.08 630.76C1119.88 631 1119.88 631.84 1120.08 632.08C1121.08 632.04 1122.56 632 1124.16 632C1125.76 632 1127.08 632.04 1128.08 632.08C1128.28 631.84 1128.28 631 1128.08 630.76C1126.08 630.6 1125.72 630.4 1125.72 627.12V620.76C1125.72 620.2 1125.72 619.64 1125.68 619.16C1127.6 617.04 1129.4 616.52 1130.96 616.52C1132.48 616.52 1133.36 617.4 1133.36 620.08V627.12C1133.36 630.4 1132.96 630.6 1130.88 630.76C1130.68 631 1130.68 631.84 1130.88 632.08C1131.88 632.04 1133.36 632 1134.96 632C1136.56 632 1137.96 632.04 1139.08 632.08C1139.28 631.84 1139.28 631 1139.08 630.76C1136.88 630.6 1136.52 630.4 1136.52 627.12V620.8C1136.52 617.24 1135.92 614.44 1132.4 614.44C1130.36 614.44 1127.88 615.2 1125.8 617.4C1125.68 617.52 1125.44 617.72 1125.36 617.36C1125 615.72 1123.44 614.44 1121.36 614.44C1119.04 614.44 1116.96 615.8 1115.28 617.68C1115.08 617.88 1114.84 618.16 1114.8 617.68ZM1155.04 628.28C1153.56 629.8 1152.4 630.44 1150.08 630.44C1148.64 630.44 1146.96 629.6 1145.72 627.56C1144.92 626.24 1144.44 624.4 1144.44 622.08L1155.08 622.16C1155.56 622.16 1155.84 621.92 1155.84 621.48C1155.84 618.12 1154.64 614.52 1149.08 614.52C1145.6 614.52 1141.08 617.84 1141.08 623.92C1141.08 626.16 1141.64 628.32 1142.96 629.84C1144.32 631.44 1146.2 632.4 1149.08 632.4C1152.12 632.4 1154.28 631 1155.88 628.92C1155.76 628.52 1155.52 628.32 1155.04 628.28ZM1144.56 620.72C1145.32 616.2 1148.12 615.84 1149.08 615.84C1150.6 615.84 1152.4 616.68 1152.4 620.04C1152.4 620.4 1152.24 620.6 1151.8 620.6L1144.56 620.72ZM1175.61 616.08C1175.85 615.84 1175.85 615 1175.61 614.76C1174.41 614.8 1173.01 614.84 1171.57 614.84C1170.05 614.84 1168.97 614.8 1167.93 614.76C1167.69 615 1167.69 615.84 1167.93 616.08C1169.81 616.28 1170.25 616.68 1171.09 618.76L1176.33 631.68C1176.57 632.24 1176.89 632.48 1177.29 632.48C1177.65 632.48 1177.97 632.24 1178.25 631.6L1182.29 621.76L1186.41 631.68C1186.65 632.24 1186.97 632.48 1187.37 632.48C1187.73 632.48 1188.05 632.24 1188.29 631.64L1193.53 618.96C1194.17 617.32 1194.85 616.2 1196.89 616.08C1197.13 615.84 1197.13 615 1196.89 614.76C1196.09 614.8 1195.21 614.84 1194.01 614.84C1192.81 614.84 1191.13 614.8 1189.93 614.76C1189.69 615 1189.69 615.84 1189.93 616.08C1192.93 616.24 1192.53 617.4 1191.97 618.8L1188.61 627.12C1188.21 628.12 1188.05 628.12 1187.73 627.28L1184.29 618.52C1183.53 616.64 1183.61 616.24 1185.73 616.08C1185.97 615.84 1185.97 615 1185.73 614.76C1184.53 614.8 1182.93 614.84 1181.73 614.84C1180.73 614.84 1179.41 614.8 1178.21 614.76C1177.97 615 1177.97 615.84 1178.21 616.08C1180.09 616.24 1180.57 617.4 1181.29 619.2L1181.53 619.84L1178.73 626.92C1178.21 628.24 1178.13 628.28 1177.61 627L1174.41 618.76C1173.65 616.84 1173.69 616.2 1175.61 616.08ZM1209.1 630.08C1209.34 631.32 1209.78 632.4 1211.78 632.4C1213.3 632.4 1214.74 631.72 1215.58 630.92C1215.5 630.44 1215.34 630.08 1214.9 629.84C1214.62 630.08 1213.94 630.48 1213.42 630.48C1212.26 630.48 1212.22 628.92 1212.22 627.08V621.2C1212.22 615.52 1209.1 614.44 1206.18 614.44C1202.9 614.44 1199.58 616.6 1199.58 618.88C1199.58 619.84 1200.06 620.32 1200.98 620.32C1202.14 620.32 1202.86 619.48 1202.86 618.96C1202.86 618.68 1202.82 618.4 1202.74 618.24C1202.7 618.12 1202.65 617.88 1202.65 617.44C1202.65 616.2 1204.34 615.76 1205.86 615.76C1207.22 615.76 1209.1 616.44 1209.1 620.96C1209.1 621.24 1208.98 621.4 1208.86 621.44L1205.42 622.28C1201.58 623.24 1198.82 625.36 1198.82 628.08C1198.82 631.36 1201.06 632.4 1203.86 632.4C1205.26 632.4 1206.46 632.08 1208.22 630.72L1209.02 630.08H1209.1ZM1209.1 622.68V627.96C1209.1 628.48 1208.86 628.76 1208.54 629C1207.5 629.84 1206.14 630.76 1205.02 630.76C1203.02 630.76 1202.14 629.16 1202.14 627.92C1202.14 626.12 1202.98 624.28 1205.94 623.52L1209.1 622.68ZM1223.82 638.4C1224.46 637.28 1224.98 636.16 1225.46 634.96C1228.66 627.24 1230.46 623.12 1232.54 618.64C1233.34 616.96 1233.9 616.32 1235.78 616.08C1236.02 615.84 1236.02 615 1235.78 614.76C1234.98 614.8 1234.06 614.84 1232.94 614.84C1231.74 614.84 1230.5 614.8 1229.3 614.76C1229.06 615 1229.06 615.84 1229.3 616.08C1230.58 616.2 1231.86 616.44 1231.22 617.88L1227.26 627.04C1226.98 627.68 1226.62 627.8 1226.3 627L1222.74 618.68C1222.02 617 1221.82 616.24 1224.06 616.08C1224.3 615.84 1224.3 615 1224.06 614.76C1222.58 614.8 1220.98 614.84 1219.54 614.84C1218.18 614.84 1217.1 614.8 1216.3 614.76C1216.06 615 1216.06 615.84 1216.3 616.08C1217.9 616.28 1218.42 616.64 1219.46 619.08L1223.98 629.6C1224.34 630.4 1224.94 632.24 1224.54 633.36C1224.06 634.68 1223.58 635.8 1222.98 637.04C1222.54 637.84 1221.98 638.2 1220.98 638.2C1220.42 638.2 1220.26 638.08 1219.82 638.08C1218.66 638.08 1218.06 639.28 1218.06 639.8C1218.06 640.64 1218.86 641.28 1219.94 641.28C1220.78 641.28 1222.38 640.96 1223.82 638.4ZM1236.18 630.28C1236.18 631.44 1237.14 632.4 1238.3 632.4C1239.46 632.4 1240.42 631.44 1240.42 630.28C1240.42 629.12 1239.46 628.16 1238.3 628.16C1237.14 628.16 1236.18 629.12 1236.18 630.28Z" fill="black"/>
<path id="What_about_star-free_languages?" d="M620.4 704.4L614.16 721.76L614.04 721.72L608.52 704.84C607.84 702.68 609.24 702.56 610.6 702.44C610.84 702.2 610.84 701.36 610.6 701.12C608.96 701.16 607.2 701.2 605.6 701.2C604.28 701.2 602.88 701.16 601.6 701.12C601.36 701.36 601.36 702.2 601.6 702.44C603.72 702.56 604.6 703.8 604.96 704.84L605.88 707.48C606.04 707.96 606.16 708.36 606.16 708.72C606.16 709.12 606.12 709.44 605.8 710.12L600.64 721.84L600.44 721.8L594.6 704.12C594.12 702.72 595.2 702.52 596.6 702.44C596.84 702.2 596.84 701.36 596.6 701.12C595.28 701.16 593.52 701.2 591.96 701.2C590.56 701.2 589.4 701.16 588.24 701.12C588 701.36 588 702.2 588.24 702.44C590.04 702.56 590.32 702.6 591.08 704.76L598.6 726.4C598.8 727.04 599.04 727.48 599.48 727.48C600 727.48 600.24 727.08 600.52 726.4L606.48 713C606.84 712.2 606.96 712 607.16 712C607.32 712 607.48 712.44 607.72 713.12L612.32 726.4C612.56 727.08 612.76 727.48 613.24 727.48C613.68 727.48 613.96 727.04 614.16 726.44L622.2 704.88C622.72 703.48 623.44 702.56 625.64 702.44C625.88 702.2 625.88 701.36 625.64 701.12C624.48 701.16 623.2 701.2 622.16 701.2C621.12 701.2 619.36 701.16 617.76 701.12C617.52 701.36 617.52 702.2 617.76 702.44C619.4 702.56 621 702.68 620.4 704.4ZM632.727 715.56C632.727 714.72 633.087 714.24 633.407 713.88C634.927 712.4 636.967 711.52 638.527 711.52C639.327 711.52 640.167 712.04 640.647 712.96C641.047 713.76 641.127 714.84 641.127 716.04V722.12C641.127 725.4 640.727 725.56 638.647 725.76C638.447 726 638.447 726.84 638.647 727.08C639.767 727.04 641.127 727 642.727 727C644.327 727 645.647 727.04 646.967 727.08C647.167 726.84 647.167 726 646.967 725.76C644.727 725.56 644.287 725.4 644.287 722.12V716.16C644.287 713.96 644.127 712 643.207 710.8C642.527 709.92 641.287 709.44 639.887 709.44C637.927 709.44 635.527 709.96 633.087 712.68C633.087 712.72 633.047 712.72 633.007 712.76C632.887 712.92 632.687 713.16 632.687 712.68L632.727 703.68C632.727 701.08 632.887 699.48 632.887 699.48C632.887 699.2 632.727 699.08 632.367 699.08C631.367 699.48 628.367 700.04 626.767 700.16C626.687 700.48 626.767 701.12 627.007 701.36C627.127 701.36 627.247 701.36 627.367 701.36C629.127 701.48 629.567 701.48 629.567 704.64V722.12C629.567 725.44 629.087 725.6 626.767 725.76C626.527 726 626.527 726.84 626.767 727.08C628.087 727.04 629.567 727 631.167 727C632.687 727 634.007 727.04 635.127 727.08C635.367 726.84 635.367 726 635.127 725.76C633.087 725.6 632.727 725.44 632.727 722.12V715.56ZM659.29 725.08C659.53 726.32 659.97 727.4 661.97 727.4C663.49 727.4 664.93 726.72 665.77 725.92C665.69 725.44 665.53 725.08 665.09 724.84C664.81 725.08 664.13 725.48 663.61 725.48C662.45 725.48 662.41 723.92 662.41 722.08V716.2C662.41 710.52 659.29 709.44 656.37 709.44C653.09 709.44 649.77 711.6 649.77 713.88C649.77 714.84 650.25 715.32 651.17 715.32C652.33 715.32 653.05 714.48 653.05 713.96C653.05 713.68 653.01 713.4 652.93 713.24C652.89 713.12 652.85 712.88 652.85 712.44C652.85 711.2 654.53 710.76 656.05 710.76C657.41 710.76 659.29 711.44 659.29 715.96C659.29 716.24 659.17 716.4 659.05 716.44L655.61 717.28C651.77 718.24 649.01 720.36 649.01 723.08C649.01 726.36 651.25 727.4 654.05 727.4C655.45 727.4 656.65 727.08 658.41 725.72L659.21 725.08H659.29ZM659.29 717.68V722.96C659.29 723.48 659.05 723.76 658.73 724C657.69 724.84 656.33 725.76 655.21 725.76C653.21 725.76 652.33 724.16 652.33 722.92C652.33 721.12 653.17 719.28 656.13 718.52L659.29 717.68ZM667.572 709.84C667.012 709.84 666.852 710.32 666.852 710.64V711.16C666.852 711.36 666.892 711.4 667.052 711.4H669.412V723.44C669.412 726.28 670.652 727.4 672.492 727.4C674.332 727.4 676.332 726.52 677.892 724.76C677.812 724.36 677.572 724.12 677.172 724.08C676.132 724.88 674.932 725.2 673.892 725.2C672.812 725.2 672.572 724 672.572 721.52V711.4H676.732C677.132 711.4 677.692 711.24 677.692 710.88V710.08C677.692 709.92 677.572 709.84 677.372 709.84H672.572V708.28C672.572 705.68 672.732 704.08 672.732 704.08C672.732 703.84 672.612 703.72 672.412 703.72C672.252 703.72 671.892 703.88 671.532 704.08C671.092 704.32 670.692 704.52 670.172 704.64C669.692 704.8 669.292 704.92 669.292 705.2C669.292 705.68 669.412 705.4 669.412 709.84H667.572ZM700.228 725.08C700.468 726.32 700.908 727.4 702.908 727.4C704.428 727.4 705.868 726.72 706.708 725.92C706.628 725.44 706.468 725.08 706.028 724.84C705.748 725.08 705.068 725.48 704.548 725.48C703.388 725.48 703.348 723.92 703.348 722.08V716.2C703.348 710.52 700.228 709.44 697.308 709.44C694.028 709.44 690.708 711.6 690.708 713.88C690.708 714.84 691.188 715.32 692.108 715.32C693.268 715.32 693.988 714.48 693.988 713.96C693.988 713.68 693.948 713.4 693.868 713.24C693.828 713.12 693.788 712.88 693.788 712.44C693.788 711.2 695.468 710.76 696.988 710.76C698.348 710.76 700.228 711.44 700.228 715.96C700.228 716.24 700.108 716.4 699.988 716.44L696.548 717.28C692.708 718.24 689.948 720.36 689.948 723.08C689.948 726.36 692.188 727.4 694.988 727.4C696.388 727.4 697.588 727.08 699.348 725.72L700.148 725.08H700.228ZM700.228 717.68V722.96C700.228 723.48 699.988 723.76 699.668 724C698.628 724.84 697.268 725.76 696.148 725.76C694.148 725.76 693.268 724.16 693.268 722.92C693.268 721.12 694.108 719.28 697.068 718.52L700.228 717.68ZM713.469 711.24C713.229 711.48 713.069 711.4 713.069 711.04V703.68C713.069 701.08 713.229 699.48 713.229 699.48C713.229 699.2 713.069 699.08 712.709 699.08C711.709 699.48 708.709 700.04 707.109 700.16C707.029 700.48 707.109 701.12 707.349 701.36C707.469 701.36 707.589 701.36 707.709 701.36C709.469 701.48 709.909 701.48 709.909 704.64V724.16C709.909 725.72 709.869 726.44 709.749 727C709.949 727.32 710.149 727.48 710.629 727.48C710.869 727.24 711.269 726.88 711.589 726.52C711.989 726.04 712.229 726.04 712.669 726.4C713.589 727.16 714.789 727.4 716.189 727.4C720.269 727.4 725.029 723.68 725.029 717.32C725.029 712.44 721.429 709.44 717.949 709.44C716.229 709.44 714.709 710.12 713.469 711.24ZM713.749 712.48C714.789 711.56 715.989 711.2 717.149 711.2C719.589 711.2 721.589 714.16 721.589 718.04C721.589 722.6 719.749 726.04 715.949 726.04C714.709 726.04 713.869 725.16 713.069 724.16V714.16C713.069 713.32 713.229 712.92 713.749 712.48ZM728.546 718.8C728.546 722.88 731.266 727.4 736.946 727.4C739.506 727.4 741.466 726.48 742.826 725.16C744.626 723.4 745.426 720.88 745.426 718.44C745.426 714.28 743.146 709.44 737.026 709.44C734.386 709.44 732.226 710.52 730.746 712.24C729.306 713.96 728.546 716.28 728.546 718.8ZM736.426 710.84C739.866 710.84 741.986 713.96 741.986 719.72C741.986 724.76 739.386 726 737.506 726C733.346 726 731.986 720.96 731.986 717.88C731.986 714.4 732.826 710.84 736.426 710.84ZM755.743 727.4C757.303 727.4 759.183 726.6 761.143 725C761.343 724.84 761.703 724.76 761.743 725.04C761.863 726.04 762.183 727.4 762.183 727.4C762.503 727.52 762.703 727.48 762.943 727.4C763.823 726.68 765.223 726.08 767.663 725.8C767.903 725.56 767.903 724.96 767.663 724.72C765.103 724.52 764.743 723.76 764.743 721.8V714.12C764.743 712.92 764.903 710 764.903 710C764.903 709.88 764.783 709.76 764.583 709.76C764.383 709.8 763.783 709.84 763.183 709.84C761.903 709.84 760.463 709.8 759.103 709.76C758.863 710 758.863 710.84 759.103 711.08C761.063 711.2 761.583 711.68 761.583 714.32V722.04C761.583 722.8 761.503 723.12 760.943 723.6C759.463 724.88 757.943 725.52 756.943 725.52C755.743 725.52 753.743 724.96 753.743 721.4V714.12C753.743 712.92 753.903 710 753.903 710C753.903 709.88 753.783 709.76 753.583 709.76C753.383 709.8 752.783 709.84 752.183 709.84C750.903 709.84 749.463 709.8 748.103 709.76C747.863 710 747.863 710.84 748.103 711.08C750.023 711.24 750.583 711.68 750.583 714.28V721.96C750.583 724.72 751.783 727.4 755.743 727.4ZM770.033 709.84C769.473 709.84 769.313 710.32 769.313 710.64V711.16C769.313 711.36 769.353 711.4 769.513 711.4H771.873V723.44C771.873 726.28 773.113 727.4 774.953 727.4C776.793 727.4 778.793 726.52 780.353 724.76C780.273 724.36 780.033 724.12 779.633 724.08C778.592 724.88 777.393 725.2 776.353 725.2C775.273 725.2 775.033 724 775.033 721.52V711.4H779.193C779.593 711.4 780.153 711.24 780.153 710.88V710.08C780.153 709.92 780.033 709.84 779.833 709.84H775.033V708.28C775.033 705.68 775.193 704.08 775.193 704.08C775.193 703.84 775.073 703.72 774.873 703.72C774.713 703.72 774.353 703.88 773.993 704.08C773.553 704.32 773.153 704.52 772.633 704.64C772.153 704.8 771.753 704.92 771.753 705.2C771.753 705.68 771.873 705.4 771.873 709.84H770.033ZM792.889 721.48C793.049 723.44 793.169 725.32 793.169 727C793.569 726.92 793.969 726.88 794.169 726.88C794.449 726.88 794.689 726.88 794.969 726.96C796.049 727.24 797.129 727.4 798.609 727.4C800.849 727.4 804.969 726.32 804.969 722.36C804.969 719.64 803.009 718.04 800.289 717.04C797.889 716.12 796.289 715.52 796.289 713.32C796.289 711.68 797.729 710.76 799.089 710.76C799.969 710.76 802.289 711.08 802.809 714.48C803.049 714.72 803.849 714.68 804.089 714.44C804.209 713 804.289 711.52 804.329 710.2C803.089 710 801.169 709.44 799.089 709.44C796.129 709.44 793.449 711.36 793.449 713.92C793.449 716.84 794.769 718.08 797.849 719.36C801.169 720.72 801.929 721.56 801.929 723.28C801.929 725.24 800.009 726.08 798.529 726.08C796.969 726.08 796.089 725.56 795.689 725.12C794.809 724.2 794.369 722.44 794.129 721.44C793.889 721.2 793.129 721.24 792.889 721.48ZM808.275 709.84C807.715 709.84 807.555 710.32 807.555 710.64V711.16C807.555 711.36 807.595 711.4 807.755 711.4H810.115V723.44C810.115 726.28 811.355 727.4 813.195 727.4C815.035 727.4 817.035 726.52 818.595 724.76C818.515 724.36 818.275 724.12 817.875 724.08C816.835 724.88 815.635 725.2 814.595 725.2C813.515 725.2 813.275 724 813.275 721.52V711.4H817.435C817.835 711.4 818.395 711.24 818.395 710.88V710.08C818.395 709.92 818.275 709.84 818.075 709.84H813.275V708.28C813.275 705.68 813.435 704.08 813.435 704.08C813.435 703.84 813.315 703.72 813.115 703.72C812.955 703.72 812.595 703.88 812.235 704.08C811.795 704.32 811.395 704.52 810.875 704.64C810.395 704.8 809.995 704.92 809.995 705.2C809.995 705.68 810.115 705.4 810.115 709.84H808.275ZM830.931 725.08C831.171 726.32 831.611 727.4 833.611 727.4C835.131 727.4 836.571 726.72 837.411 725.92C837.331 725.44 837.171 725.08 836.731 724.84C836.451 725.08 835.771 725.48 835.251 725.48C834.091 725.48 834.051 723.92 834.051 722.08V716.2C834.051 710.52 830.931 709.44 828.011 709.44C824.731 709.44 821.411 711.6 821.411 713.88C821.411 714.84 821.891 715.32 822.811 715.32C823.971 715.32 824.691 714.48 824.691 713.96C824.691 713.68 824.651 713.4 824.571 713.24C824.531 713.12 824.491 712.88 824.491 712.44C824.491 711.2 826.171 710.76 827.691 710.76C829.051 710.76 830.931 711.44 830.931 715.96C830.931 716.24 830.811 716.4 830.691 716.44L827.251 717.28C823.411 718.24 820.651 720.36 820.651 723.08C820.651 726.36 822.891 727.4 825.691 727.4C827.091 727.4 828.291 727.08 830.051 725.72L830.851 725.08H830.931ZM830.931 717.68V722.96C830.931 723.48 830.691 723.76 830.371 724C829.331 724.84 827.971 725.76 826.851 725.76C824.851 725.76 823.971 724.16 823.971 722.92C823.971 721.12 824.811 719.28 827.771 718.52L830.931 717.68ZM844.532 712.68C844.452 711.08 844.412 710.04 844.212 709.64C844.132 709.44 844.052 709.32 843.732 709.32C842.612 709.76 841.572 710.12 838.812 710.48C838.732 710.72 838.812 711.36 838.892 711.6C841.052 711.8 841.492 712 841.492 714.32V722.12C841.492 725.44 841.012 725.6 838.532 725.76C838.292 726 838.292 726.84 838.532 727.08C839.932 727.04 841.492 727 843.092 727C844.692 727 846.532 727.04 847.932 727.08C848.172 726.84 848.172 726 847.932 725.76C845.132 725.56 844.652 725.44 844.652 722.12V716.56C844.652 715.52 845.132 714.6 845.612 713.88C846.052 713.24 846.972 711.92 847.452 711.92C847.812 711.92 848.172 712 848.492 712.44C848.772 712.84 849.252 713.36 849.932 713.36C850.892 713.36 851.812 712.36 851.812 711.36C851.812 710.6 851.092 709.44 849.412 709.44C847.532 709.44 845.892 711.2 844.972 712.76C844.732 713.2 844.532 712.88 844.532 712.68ZM863.215 718.08C863.735 718.08 864.295 716.96 864.295 716.48C864.295 716.08 864.135 715.68 863.735 715.68H854.975C854.495 715.68 853.975 716.6 853.975 717.32C853.975 717.72 854.215 718.08 854.575 718.08H863.215ZM872.891 722.12V711.4H876.611C876.971 711.4 877.531 711.24 877.531 710.88V710.08C877.531 709.92 877.411 709.84 877.211 709.84H872.891V707.56C872.891 701.4 874.731 700.44 876.051 700.44C877.251 700.44 877.891 700.92 878.451 702.32C878.771 703.04 879.211 703.6 880.051 703.6C880.731 703.6 881.691 702.76 881.691 701.96C881.691 701.28 881.251 700.56 880.411 699.92C879.371 699.2 878.331 699.08 876.811 699.08C873.451 699.08 869.731 702 869.731 708.24V709.84H867.691C866.971 709.84 866.771 710.32 866.771 710.64V711.16C866.771 711.36 866.811 711.4 866.971 711.4H869.731V722.12C869.731 725.44 869.091 725.6 866.931 725.76C866.691 726 866.691 726.84 866.931 727.08C868.331 727.04 869.731 727 871.331 727C872.931 727 874.851 727.04 876.251 727.08C876.491 726.84 876.491 726 876.251 725.76C873.131 725.6 872.891 725.44 872.891 722.12ZM885.313 712.68C885.233 711.08 885.193 710.04 884.993 709.64C884.913 709.44 884.833 709.32 884.513 709.32C883.393 709.76 882.353 710.12 879.593 710.48C879.513 710.72 879.593 711.36 879.673 711.6C881.833 711.8 882.273 712 882.273 714.32V722.12C882.273 725.44 881.793 725.6 879.313 725.76C879.073 726 879.073 726.84 879.313 727.08C880.713 727.04 882.273 727 883.873 727C885.473 727 887.313 727.04 888.713 727.08C888.953 726.84 888.953 726 888.713 725.76C885.913 725.56 885.433 725.44 885.433 722.12V716.56C885.433 715.52 885.913 714.6 886.393 713.88C886.833 713.24 887.753 711.92 888.233 711.92C888.593 711.92 888.953 712 889.273 712.44C889.553 712.84 890.033 713.36 890.713 713.36C891.673 713.36 892.593 712.36 892.593 711.36C892.593 710.6 891.873 709.44 890.193 709.44C888.313 709.44 886.673 711.2 885.753 712.76C885.513 713.2 885.313 712.88 885.313 712.68ZM908.284 723.28C906.804 724.8 905.644 725.44 903.324 725.44C901.884 725.44 900.204 724.6 898.964 722.56C898.164 721.24 897.684 719.4 897.684 717.08L908.324 717.16C908.804 717.16 909.084 716.92 909.084 716.48C909.084 713.12 907.884 709.52 902.324 709.52C898.844 709.52 894.324 712.84 894.324 718.92C894.324 721.16 894.884 723.32 896.204 724.84C897.564 726.44 899.444 727.4 902.324 727.4C905.364 727.4 907.524 726 909.124 723.92C909.004 723.52 908.764 723.32 908.284 723.28ZM897.804 715.72C898.564 711.2 901.364 710.84 902.324 710.84C903.844 710.84 905.644 711.68 905.644 715.04C905.644 715.4 905.484 715.6 905.044 715.6L897.804 715.72ZM926.448 723.28C924.968 724.8 923.808 725.44 921.488 725.44C920.048 725.44 918.368 724.6 917.128 722.56C916.328 721.24 915.848 719.4 915.848 717.08L926.488 717.16C926.968 717.16 927.248 716.92 927.248 716.48C927.248 713.12 926.048 709.52 920.488 709.52C917.008 709.52 912.488 712.84 912.488 718.92C912.488 721.16 913.048 723.32 914.368 724.84C915.728 726.44 917.608 727.4 920.488 727.4C923.528 727.4 925.688 726 927.288 723.92C927.168 723.52 926.928 723.32 926.448 723.28ZM915.968 715.72C916.728 711.2 919.528 710.84 920.488 710.84C922.008 710.84 923.808 711.68 923.808 715.04C923.808 715.4 923.648 715.6 923.208 715.6L915.968 715.72ZM942.698 722.12C942.698 725.44 942.258 725.64 939.818 725.76C939.578 726 939.578 726.84 939.818 727.08C941.218 727.04 942.698 727 944.298 727C945.898 727 947.418 727.04 948.738 727.08C948.978 726.84 948.978 726 948.738 725.76C946.298 725.64 945.858 725.44 945.858 722.12V703.68C945.858 701.08 946.018 699.48 946.018 699.48C946.018 699.2 945.858 699.08 945.498 699.08C944.498 699.48 941.498 700.04 939.898 700.16C939.818 700.48 939.898 701.12 940.138 701.36C942.458 701.52 942.698 701.64 942.698 704.64V722.12ZM961.165 725.08C961.405 726.32 961.845 727.4 963.845 727.4C965.365 727.4 966.805 726.72 967.645 725.92C967.565 725.44 967.405 725.08 966.965 724.84C966.685 725.08 966.005 725.48 965.485 725.48C964.325 725.48 964.285 723.92 964.285 722.08V716.2C964.285 710.52 961.165 709.44 958.245 709.44C954.965 709.44 951.645 711.6 951.645 713.88C951.645 714.84 952.125 715.32 953.045 715.32C954.205 715.32 954.925 714.48 954.925 713.96C954.925 713.68 954.885 713.4 954.805 713.24C954.765 713.12 954.725 712.88 954.725 712.44C954.725 711.2 956.405 710.76 957.925 710.76C959.285 710.76 961.165 711.44 961.165 715.96C961.165 716.24 961.045 716.4 960.925 716.44L957.485 717.28C953.645 718.24 950.885 720.36 950.885 723.08C950.885 726.36 953.125 727.4 955.925 727.4C957.325 727.4 958.525 727.08 960.285 725.72L961.085 725.08H961.165ZM961.165 717.68V722.96C961.165 723.48 960.925 723.76 960.605 724C959.565 724.84 958.205 725.76 957.085 725.76C955.085 725.76 954.205 724.16 954.205 722.92C954.205 721.12 955.045 719.28 958.005 718.52L961.165 717.68ZM975.087 712.68C974.847 712.96 974.607 713.04 974.607 712.68C974.567 711.6 974.487 710.04 974.287 709.64C974.207 709.44 974.127 709.32 973.807 709.32C972.687 709.76 971.647 710.12 968.887 710.48C968.807 710.72 968.887 711.36 968.967 711.6C971.127 711.8 971.567 712 971.567 714.32V722.12C971.567 725.4 971.167 725.56 968.767 725.76C968.527 726 968.527 726.84 968.767 727.08C969.967 727.04 971.567 727 973.167 727C974.767 727 975.967 727.04 977.167 727.08C977.407 726.84 977.407 726 977.167 725.76C975.127 725.56 974.727 725.4 974.727 722.12V715.56C974.727 714.72 975.087 714.24 975.407 713.88C976.927 712.4 978.727 711.52 980.287 711.52C981.087 711.52 981.927 712.04 982.407 712.96C982.807 713.76 982.887 714.84 982.887 716.04V722.12C982.887 725.4 982.487 725.56 980.407 725.76C980.207 726 980.207 726.84 980.407 727.08C981.607 727.04 982.887 727 984.487 727C986.087 727 987.527 727.04 988.727 727.08C988.927 726.84 988.927 726 988.727 725.76C986.487 725.56 986.047 725.4 986.047 722.12V716.16C986.047 713.96 985.887 712.04 984.967 710.8C984.287 709.92 983.047 709.44 981.647 709.44C979.687 709.44 977.447 709.96 975.087 712.68ZM1007.17 711.52C1007.93 711.52 1008.65 710.8 1008.65 710C1008.65 709.16 1007.89 708.52 1006.81 708.52C1005.77 708.52 1003.85 709.2 1002.81 710.56C1002.33 710.24 1001.01 709.44 998.646 709.44C995.086 709.44 991.806 711.84 991.806 715.52C991.806 717.68 992.766 718.92 993.886 720C992.766 720.96 992.126 722.68 992.126 724.04C992.126 725.48 992.926 726.6 993.966 727.12C991.806 728.4 990.686 730.24 990.686 731.96C990.686 735.44 993.966 736.52 997.046 736.52C1002.45 736.52 1008.29 733.92 1008.29 729.6C1008.29 728.32 1007.69 727.32 1006.53 726.36C1004.97 725.08 1002.17 725.04 1000.69 725.04C999.966 725.04 998.966 725.12 998.006 725.24C997.406 725.28 997.006 725.32 996.806 725.32C995.646 725.32 994.246 724.76 994.246 723.04C994.246 722.24 994.486 721.4 994.966 720.72C995.926 721.28 997.046 721.56 998.606 721.56C1002.13 721.56 1005.37 719.36 1005.37 715.44C1005.37 713.56 1004.81 712.48 1003.65 711.28C1003.93 710.88 1004.73 710.32 1005.25 710.32C1005.53 710.32 1005.81 710.44 1006.05 710.8C1006.21 711.12 1006.73 711.52 1007.17 711.52ZM994.686 727.4C995.126 727.52 995.766 727.6 996.286 727.6C997.526 727.6 998.646 727.48 999.206 727.48C1001.21 727.48 1002.89 727.52 1004.05 728.16C1005.61 729.04 1006.09 729.6 1006.09 730.64C1006.09 733.52 1001.85 735.04 998.246 735.04C996.806 735.04 993.446 733.88 993.446 731.16C993.446 729.8 993.526 728.8 994.686 727.4ZM1002.17 715.84C1002.17 719.56 1000.29 720.32 998.806 720.32C995.446 720.32 995.086 717.48 995.086 714.92C995.086 712.12 996.086 710.68 998.286 710.68C1000.81 710.68 1002.17 712.52 1002.17 715.84ZM1018.09 727.4C1019.65 727.4 1021.53 726.6 1023.49 725C1023.69 724.84 1024.05 724.76 1024.09 725.04C1024.21 726.04 1024.53 727.4 1024.53 727.4C1024.85 727.52 1025.05 727.48 1025.29 727.4C1026.17 726.68 1027.57 726.08 1030.01 725.8C1030.25 725.56 1030.25 724.96 1030.01 724.72C1027.45 724.52 1027.09 723.76 1027.09 721.8V714.12C1027.09 712.92 1027.25 710 1027.25 710C1027.25 709.88 1027.13 709.76 1026.93 709.76C1026.73 709.8 1026.13 709.84 1025.53 709.84C1024.25 709.84 1022.81 709.8 1021.45 709.76C1021.21 710 1021.21 710.84 1021.45 711.08C1023.41 711.2 1023.93 711.68 1023.93 714.32V722.04C1023.93 722.8 1023.85 723.12 1023.29 723.6C1021.81 724.88 1020.29 725.52 1019.29 725.52C1018.09 725.52 1016.09 724.96 1016.09 721.4V714.12C1016.09 712.92 1016.25 710 1016.25 710C1016.25 709.88 1016.13 709.76 1015.93 709.76C1015.73 709.8 1015.13 709.84 1014.53 709.84C1013.25 709.84 1011.81 709.8 1010.45 709.76C1010.21 710 1010.21 710.84 1010.45 711.08C1012.37 711.24 1012.93 711.68 1012.93 714.28V721.96C1012.93 724.72 1014.13 727.4 1018.09 727.4ZM1042.38 725.08C1042.62 726.32 1043.06 727.4 1045.06 727.4C1046.58 727.4 1048.02 726.72 1048.86 725.92C1048.78 725.44 1048.62 725.08 1048.18 724.84C1047.9 725.08 1047.22 725.48 1046.7 725.48C1045.54 725.48 1045.5 723.92 1045.5 722.08V716.2C1045.5 710.52 1042.38 709.44 1039.46 709.44C1036.18 709.44 1032.86 711.6 1032.86 713.88C1032.86 714.84 1033.34 715.32 1034.26 715.32C1035.42 715.32 1036.14 714.48 1036.14 713.96C1036.14 713.68 1036.1 713.4 1036.02 713.24C1035.98 713.12 1035.94 712.88 1035.94 712.44C1035.94 711.2 1037.62 710.76 1039.14 710.76C1040.5 710.76 1042.38 711.44 1042.38 715.96C1042.38 716.24 1042.26 716.4 1042.14 716.44L1038.7 717.28C1034.86 718.24 1032.1 720.36 1032.1 723.08C1032.1 726.36 1034.34 727.4 1037.14 727.4C1038.54 727.4 1039.74 727.08 1041.5 725.72L1042.3 725.08H1042.38ZM1042.38 717.68V722.96C1042.38 723.48 1042.14 723.76 1041.82 724C1040.78 724.84 1039.42 725.76 1038.3 725.76C1036.3 725.76 1035.42 724.16 1035.42 722.92C1035.42 721.12 1036.26 719.28 1039.22 718.52L1042.38 717.68ZM1066.7 711.52C1067.46 711.52 1068.18 710.8 1068.18 710C1068.18 709.16 1067.42 708.52 1066.34 708.52C1065.3 708.52 1063.38 709.2 1062.34 710.56C1061.86 710.24 1060.54 709.44 1058.18 709.44C1054.62 709.44 1051.34 711.84 1051.34 715.52C1051.34 717.68 1052.3 718.92 1053.42 720C1052.3 720.96 1051.66 722.68 1051.66 724.04C1051.66 725.48 1052.46 726.6 1053.5 727.12C1051.34 728.4 1050.22 730.24 1050.22 731.96C1050.22 735.44 1053.5 736.52 1056.58 736.52C1061.98 736.52 1067.82 733.92 1067.82 729.6C1067.82 728.32 1067.22 727.32 1066.06 726.36C1064.5 725.08 1061.7 725.04 1060.22 725.04C1059.5 725.04 1058.5 725.12 1057.54 725.24C1056.94 725.28 1056.54 725.32 1056.34 725.32C1055.18 725.32 1053.78 724.76 1053.78 723.04C1053.78 722.24 1054.02 721.4 1054.5 720.72C1055.46 721.28 1056.58 721.56 1058.14 721.56C1061.66 721.56 1064.9 719.36 1064.9 715.44C1064.9 713.56 1064.34 712.48 1063.18 711.28C1063.46 710.88 1064.26 710.32 1064.78 710.32C1065.06 710.32 1065.34 710.44 1065.58 710.8C1065.74 711.12 1066.26 711.52 1066.7 711.52ZM1054.22 727.4C1054.66 727.52 1055.3 727.6 1055.82 727.6C1057.06 727.6 1058.18 727.48 1058.74 727.48C1060.74 727.48 1062.42 727.52 1063.58 728.16C1065.14 729.04 1065.62 729.6 1065.62 730.64C1065.62 733.52 1061.38 735.04 1057.78 735.04C1056.34 735.04 1052.98 733.88 1052.98 731.16C1052.98 729.8 1053.06 728.8 1054.22 727.4ZM1061.7 715.84C1061.7 719.56 1059.82 720.32 1058.34 720.32C1054.98 720.32 1054.62 717.48 1054.62 714.92C1054.62 712.12 1055.62 710.68 1057.82 710.68C1060.34 710.68 1061.7 712.52 1061.7 715.84ZM1084.38 723.28C1082.9 724.8 1081.74 725.44 1079.42 725.44C1077.98 725.44 1076.3 724.6 1075.06 722.56C1074.26 721.24 1073.78 719.4 1073.78 717.08L1084.42 717.16C1084.9 717.16 1085.18 716.92 1085.18 716.48C1085.18 713.12 1083.98 709.52 1078.42 709.52C1074.94 709.52 1070.42 712.84 1070.42 718.92C1070.42 721.16 1070.98 723.32 1072.3 724.84C1073.66 726.44 1075.54 727.4 1078.42 727.4C1081.46 727.4 1083.62 726 1085.22 723.92C1085.1 723.52 1084.86 723.32 1084.38 723.28ZM1073.9 715.72C1074.66 711.2 1077.46 710.84 1078.42 710.84C1079.94 710.84 1081.74 711.68 1081.74 715.04C1081.74 715.4 1081.58 715.6 1081.14 715.6L1073.9 715.72ZM1088.75 721.48C1088.91 723.44 1089.03 725.32 1089.03 727C1089.43 726.92 1089.83 726.88 1090.03 726.88C1090.31 726.88 1090.55 726.88 1090.83 726.96C1091.91 727.24 1092.99 727.4 1094.47 727.4C1096.71 727.4 1100.83 726.32 1100.83 722.36C1100.83 719.64 1098.87 718.04 1096.15 717.04C1093.75 716.12 1092.15 715.52 1092.15 713.32C1092.15 711.68 1093.59 710.76 1094.95 710.76C1095.83 710.76 1098.15 711.08 1098.67 714.48C1098.91 714.72 1099.71 714.68 1099.95 714.44C1100.07 713 1100.15 711.52 1100.19 710.2C1098.95 710 1097.03 709.44 1094.95 709.44C1091.99 709.44 1089.31 711.36 1089.31 713.92C1089.31 716.84 1090.63 718.08 1093.71 719.36C1097.03 720.72 1097.79 721.56 1097.79 723.28C1097.79 725.24 1095.87 726.08 1094.39 726.08C1092.83 726.08 1091.95 725.56 1091.55 725.12C1090.67 724.2 1090.23 722.44 1089.99 721.44C1089.75 721.2 1088.99 721.24 1088.75 721.48ZM1106.97 704.12C1106.97 702.92 1108.57 701.96 1110.85 701.96C1113.13 701.96 1114.65 704.24 1114.65 706.84C1114.65 708.72 1114.05 709.88 1112.45 711.36C1109.85 713.72 1109.65 716.08 1109.65 717.8V719.64C1109.65 719.92 1109.97 720.04 1110.29 720.04C1110.61 720.04 1110.97 719.92 1110.97 719.64V717.88C1110.97 716.92 1111.01 715.96 1111.53 714.96C1111.89 714.28 1112.69 713.64 1113.61 712.96C1115.49 711.6 1117.97 709.84 1117.97 706.68C1117.97 703.04 1115.33 700.64 1111.25 700.64C1109.13 700.64 1107.45 701.2 1106.29 702.2C1105.09 703.16 1104.25 704.28 1104.25 705.8C1104.25 707.2 1105.25 707.52 1105.89 707.52C1106.65 707.52 1107.45 707.04 1107.45 706.12C1107.45 705.6 1107.37 705.36 1107.21 705.16C1107.05 704.96 1106.97 704.72 1106.97 704.12ZM1108.17 725.28C1108.17 726.44 1109.13 727.4 1110.29 727.4C1111.45 727.4 1112.41 726.44 1112.41 725.28C1112.41 724.12 1111.45 723.16 1110.29 723.16C1109.13 723.16 1108.17 724.12 1108.17 725.28Z" fill="black"/>
<rect id="star-free" opacity="0.5" x="588" y="761" width="596" height="447" fill="#FF0000"/>
</g>
<defs>
<clipPath id="clip0">
<rect width="1280" height="960" fill="white"/>
</clipPath>
</defs>
</svg>
