<svg width="1280" height="960" viewBox="0 0 1280 960" fill="none" xmlns="http://www.w3.org/2000/svg">
<g id="semi and co semi" clip-path="url(#clip0)">
<rect width="1280" height="960" fill="white"/>
<path id="99:75" d="M744.32 598.08C742.76 598.08 741.72 598 738.6 597.96C738.16 597.96 737.12 598.2 737.12 598.76C737.12 599.44 737.72 599.68 738.44 599.88C739.96 600.32 740.48 600.76 740.56 602.04C740.64 603.44 740.64 604.32 740.64 610.32C740.64 615.64 740.6 616.84 740.48 618.04C740.4 619.12 739.84 619.84 738.32 620.2C737.52 620.4 737.04 620.88 737.04 621.32C737.04 621.84 737.64 622.16 738.32 622.16C741.4 622.16 742.76 622 743.6 622C745.2 622 747.04 622.2 749.56 622.2C750.32 622.2 751 621.68 751 621.28C751 620.88 750.68 620.4 749.64 620.12C747.68 619.6 747.16 619.12 747 617.4C746.92 616.52 746.92 613.88 747 612.52C747.04 612.04 747.28 611.48 747.44 611.48C750.16 611.48 750.76 611.56 751.2 611.64C752.12 611.76 752.24 612.2 752.88 613.44C753.2 614.08 753.6 614.48 753.92 614.48C754.52 614.48 754.96 613.76 754.96 613.12C754.96 612.8 754.8 611.12 754.8 610.36C754.8 609.68 754.96 608.64 754.96 607.48C754.96 606.8 754.72 606.04 754.16 606.04C753.68 606.04 753.16 606.84 752.96 607.28C752.44 608.44 752.32 608.76 751.04 608.92C749.96 609.04 748.36 609.12 747.52 609.12C747.16 609.12 747.04 608.88 747 608.44C746.92 607.32 746.96 602.88 747.08 601.44C747.12 601 747.4 600.32 747.84 600.32C749.08 600.32 752.2 600.32 753.32 600.4C754.72 600.52 755.28 602 755.56 602.92C755.8 603.76 756.28 604.32 756.6 604.32C757.08 604.32 757.72 603.68 757.72 602.56V598.64C757.72 598.28 757.32 597.84 756.96 597.84C756.8 597.84 755.92 598.08 750.76 598.08H744.32ZM767.636 605.08C766.276 605.08 764.276 605.88 762.796 606.84C761.116 607.92 759.276 609.4 759.276 610.44C759.276 610.68 759.596 611.24 759.756 611.36C760.276 611.68 761.716 611.84 762.716 611.84C762.956 611.84 763.516 611.52 763.716 611.32C763.876 611.16 764.196 610.76 764.236 610.48C764.356 609.56 764.516 608.36 764.636 608.04C764.756 607.76 765.236 607.36 765.876 607.36C766.916 607.36 767.956 608.08 768.396 609.2C768.476 609.44 768.516 609.72 768.516 609.92V611.68C768.516 611.72 768.236 612.28 767.956 612.4C766.596 613.04 764.116 613.68 761.436 614.32C761.236 614.36 760.156 614.8 759.796 615.28C759.516 615.64 759.076 616.52 759.076 617.4C759.076 621.12 762.036 622.36 763.436 622.36C763.956 622.36 765.036 622.12 765.716 621.68C766.676 621.08 767.396 620.48 768.036 620C768.116 619.92 768.516 620.04 768.516 620.08C769.316 622 770.916 622.52 772.236 622.52C773.636 622.52 774.676 622.24 775.796 621.08C775.956 620.96 776.396 620 776.396 619.28C776.396 619.08 776.236 618.72 776.116 618.76C775.756 618.92 775.116 619 774.876 619C774.196 619 773.516 618.52 773.516 617.4C773.516 612.92 773.676 612.12 773.676 610.6C773.676 610.04 773.236 608.08 772.476 607.28C771.036 605.76 769.356 605.08 767.636 605.08ZM766.116 618.84C765.196 618.84 764.156 618.12 764.156 616.92C764.156 616.2 764.396 615.48 765.276 615.16C766.036 614.88 767.196 614.56 768.036 614.4C768.156 614.4 768.356 614.52 768.356 614.68L768.236 617C768.196 617.64 768.076 618 767.956 618.12C767.356 618.68 766.596 618.84 766.116 618.84ZM787.948 605.08C786.708 605.08 784.508 605.52 782.468 606.76C780.308 608.04 778.108 610.36 778.108 614.4C778.108 617.32 779.668 619.6 780.708 620.48C782.308 621.88 784.188 622.48 786.388 622.48C788.908 622.48 791.268 621.44 792.508 619.72C792.908 619.16 793.508 618.32 793.508 617.68C793.508 617.04 792.868 616.92 792.748 617.04C791.708 617.84 790.068 618.44 788.748 618.44C785.828 618.44 783.308 616.04 783.308 612.04C783.308 609.76 783.948 608.64 784.388 608.2C784.588 608 785.308 607.36 786.268 607.36C787.548 607.36 788.748 608.36 789.868 609.4C790.468 609.96 791.108 610.44 791.428 610.44C792.428 610.44 793.308 609.24 793.308 607.72C793.308 607.48 793.108 606.68 792.708 606.28C792.388 605.92 790.748 605.08 787.948 605.08ZM803.6 605.56C803.32 605.56 803.12 605.2 803.12 605.04V602.8C803.12 602.44 802.72 601.96 802.48 601.96C802.12 601.96 800.72 602.44 800.28 602.92C799.28 604 797.44 605.36 796.36 606.08C795.96 606.32 795.52 606.6 795.52 606.92C795.52 607.24 795.92 608.04 796.56 608.2C797.6 608.44 797.68 608.72 797.68 608.96C797.68 612.8 797.52 614.76 797.52 617.56C797.52 619 797.76 619.92 798.08 620.4C799.24 622.12 801.2 622.48 802.76 622.48C803.76 622.48 805.88 622 806.92 621.2C808.36 620.12 808.52 619.6 808.52 618.96C808.52 618.64 808.16 618.32 808 618.32C807.76 618.32 807.52 618.48 807.16 618.6C806.6 618.8 805.96 618.84 805.48 618.84C804.84 618.84 804.36 618.72 803.8 618.12C803.32 617.56 803.08 617.04 803.12 615.48L803.2 608.96C803.2 608.76 803.44 608.4 803.52 608.4C804.44 608.4 805.92 608.36 807.4 608.36C808.08 608.36 808.36 607.52 808.36 607.32C808.36 607.12 808.4 606.2 808.28 605.8C808.2 605.56 807.76 605.36 807.64 605.36C806.72 605.36 804.04 605.56 803.6 605.56ZM813.01 617.88C812.29 617.88 810.81 618.52 810.81 620.2C810.81 621.92 812.05 622.52 813.01 622.52C814.33 622.52 815.25 621.48 815.25 620.2C815.25 619.4 814.73 617.88 813.01 617.88ZM830.222 608.96C830.222 612.36 830.142 616.52 830.022 617.92C829.862 619.8 829.702 620.4 827.702 620.84C826.902 621 826.502 621.24 826.502 621.52C826.502 621.8 826.782 622.08 827.542 622.08C829.022 622.08 829.382 622 830.582 622C831.662 622 834.502 622.24 836.542 622.24C837.022 622.24 837.622 622.04 837.622 621.72C837.622 621.44 837.302 621.16 836.582 621.04C833.982 620.52 833.782 619.76 833.662 617.6C833.582 616.32 833.542 613.84 833.542 611.64C833.542 603.8 833.582 601.2 833.782 599.88C833.942 598.8 833.902 597.8 836.222 597.32C836.862 597.2 837.262 596.96 837.262 596.64C837.262 596.32 836.902 596.16 836.262 596.16C834.862 596.16 833.942 596.28 831.982 596.28C830.662 596.28 828.662 596.16 827.622 596.16C827.062 596.16 826.622 596.32 826.622 596.64C826.622 596.92 826.862 597.2 827.742 597.36C829.982 597.76 829.982 598.36 830.102 600.2C830.182 601.52 830.222 606.48 830.222 608.96ZM844.405 606.4C844.285 606.4 844.165 606.2 844.165 606.04C844.165 600.8 844.525 598.64 845.485 596.96C846.205 595.8 847.005 595.32 847.965 595.32C849.005 595.32 850.005 595.88 850.765 596.56C851.325 597.12 851.565 597.36 851.845 597.36C852.085 597.36 852.365 597.32 852.565 597.24C853.125 597.04 853.645 596.12 853.645 595.56C853.645 595.08 853.365 594.52 852.965 594.2C852.325 593.68 851.245 593.44 850.405 593.44C848.885 593.44 847.445 593.88 845.845 595.08C844.085 596.36 843.085 597.8 842.245 599.8C841.525 601.52 841.325 603.36 841.245 605.76C841.245 605.96 841.005 606.2 840.725 606.44C839.805 607.16 838.805 607.6 838.765 607.76C838.645 608.04 838.925 608.44 839.125 608.44C839.565 608.36 840.405 608.36 840.805 608.36C840.965 608.36 841.205 608.48 841.205 609.84C841.205 612 841.165 616.8 841.125 618.44C841.085 620.24 841.045 620.64 839.325 621.12C838.885 621.28 838.485 621.56 838.485 621.76C838.485 622.04 838.925 622.2 839.485 622.2C839.885 622.2 842.045 622 843.485 622C844.485 622 846.325 622.08 846.805 622.08C847.285 622.08 847.845 622 847.845 621.6C847.845 621.44 847.605 621.12 846.925 621C844.685 620.64 844.405 620.28 844.245 618.88C844.165 618.2 844.045 609.44 844.125 608.64C844.125 608.56 844.325 608.32 844.405 608.32C844.845 608.32 848.805 608.44 849.085 608.44C849.285 608.44 849.685 608.16 849.685 608.04C849.685 607.2 849.405 606.36 849.125 606.36C848.965 606.36 846.845 606.4 844.405 606.4ZM875.332 613.64C875.332 611.36 874.492 609.12 872.692 607.6C871.412 606.48 869.612 605.84 867.732 605.84C866.412 605.84 864.492 606.32 863.172 607.2C863.132 607.24 862.932 607.12 862.932 607.04C862.852 606.6 862.852 604.64 862.852 603.6C862.852 600.4 863.092 596.6 863.212 593.96C863.212 593.8 862.932 593.44 862.772 593.44C862.692 593.44 862.292 593.6 861.772 593.92C860.972 594.4 859.612 594.76 858.492 595.16C858.372 595.2 858.012 595.68 858.012 595.72C858.012 595.92 858.212 596.04 858.812 596.48C859.572 597.12 859.772 597.64 859.812 597.84C859.892 598.4 860.012 604.32 860.012 608.12C860.012 611.4 859.972 618.28 859.772 621.4C859.772 621.68 859.852 621.92 860.012 621.92C860.092 621.92 860.332 621.88 860.492 621.8C860.812 621.64 861.172 621.6 861.332 621.68C862.252 622 865.012 622.48 866.412 622.48C867.812 622.48 870.212 622.04 871.852 620.68C873.612 619.32 875.332 616.96 875.332 613.64ZM872.012 614.48C872.012 616.28 871.292 618.76 870.172 619.84C869.252 620.68 868.172 621.2 867.732 621.2C867.012 621.2 865.132 620.68 864.012 619.52C863.492 619 863.252 618.36 863.212 617.52C863.012 615.36 862.892 613.2 862.892 611.12C862.892 610.28 862.932 609.16 862.972 608.8C863.012 608.52 863.172 608.28 863.292 608.2C863.612 607.96 864.372 607.6 865.692 607.6C867.572 607.6 869.132 608.4 870.052 609.32C871.412 610.8 872.012 613.04 872.012 614.48ZM886.977 605.84C884.297 605.84 882.297 606.96 881.057 608.04C879.537 609.32 878.257 611.24 878.257 614.28C878.257 616.28 879.497 619 881.217 620.4C882.697 621.64 884.697 622.48 886.537 622.48C888.337 622.48 889.897 622.04 891.497 620.88C892.977 619.92 894.977 617.32 894.977 614C894.977 608.96 890.937 605.84 886.977 605.84ZM886.217 607.04C887.257 607.04 888.697 607.64 889.577 608.6C891.097 610.36 891.577 612.64 891.577 614.72C891.577 616.44 890.777 618.92 889.777 620C888.657 621.12 887.777 621.32 887.337 621.32C885.417 621.32 883.137 619.88 882.137 616.88C881.817 615.88 881.657 614.64 881.657 613.32C881.657 611.24 882.577 609.16 883.617 608.2C884.457 607.48 885.377 607.04 886.217 607.04ZM902.833 606.4C902.673 606.4 902.513 606.2 902.513 606.08V604.2C902.513 604.12 902.153 603.76 901.953 603.76C901.793 603.76 901.513 604.08 901.033 604.64C900.473 605.32 899.233 606.28 897.833 607.4C897.713 607.52 897.593 607.68 897.593 607.84C897.593 607.96 897.833 608.16 898.153 608.28C898.953 608.52 899.673 608.8 899.673 609.08C899.673 610.48 899.513 616.48 899.513 617.96C899.513 619.08 899.593 619.92 900.033 620.6C900.513 621.48 901.913 622.48 903.553 622.48C905.353 622.48 906.753 621.76 907.833 620.72C908.113 620.44 908.393 620.04 908.393 619.72C908.393 619.36 908.193 619.28 908.153 619.28C907.993 619.28 907.913 619.32 907.553 619.52C906.953 619.88 906.113 620.12 905.593 620.12C904.753 620.12 903.913 620.04 903.153 619.36C902.713 618.92 902.473 618.4 902.473 617.4C902.473 615.48 902.513 609.6 902.553 608.8C902.553 608.72 902.713 608.52 902.913 608.52H907.273C907.553 608.52 908.313 608.44 908.313 608.08C908.313 607.56 908.193 606.44 908.193 606.56C908.193 606.44 907.793 606.24 907.753 606.24C907.593 606.24 903.713 606.4 902.833 606.4ZM920.295 605.84C918.615 605.84 916.895 606.68 915.255 608.16C915.215 608.2 914.975 608.16 914.975 607.92C914.975 606.76 915.135 596.8 915.535 593.92C915.535 593.8 915.455 593.48 915.295 593.48C915.055 593.48 914.695 593.68 914.535 593.76C913.575 594.4 911.775 594.8 910.535 595.16C910.455 595.2 910.415 595.28 910.415 595.36C910.415 595.68 910.655 596.08 910.815 596.16C911.935 596.88 912.015 596.96 912.135 598C912.295 599.16 912.255 605.92 912.255 607.52C912.255 611.56 911.975 616.96 911.855 618.64C911.735 620.12 911.335 620.56 910.295 620.92C909.455 621.16 909.135 621.4 909.135 621.6C909.135 622 909.695 622.12 910.055 622.12C910.735 622.12 912.175 622 913.095 622C914.055 622 916.055 622.08 916.375 622.08C916.935 622.08 917.375 621.96 917.375 621.6C917.375 621.4 917.055 621.12 916.495 620.96C915.575 620.72 915.015 620.48 914.935 619.16C914.895 617.72 914.895 612.52 915.015 610.84C915.055 609.6 915.575 608.96 915.655 608.88C915.815 608.72 917.135 607.96 918.855 607.96C920.415 607.96 921.455 608.52 922.095 609.28C922.535 609.8 922.735 611.08 922.735 613.28C922.735 613.92 922.815 618.32 922.735 619.08C922.575 620.6 922.455 620.72 921.455 621.04C920.975 621.16 920.615 621.36 920.615 621.6C920.615 621.88 920.815 622.08 921.415 622.08C922.575 622.08 923.375 622 924.295 622C925.655 622 926.095 622.12 927.455 622.12C928.215 622.12 928.535 621.96 928.535 621.6C928.535 621.36 928.215 621.12 927.415 620.96C926.375 620.72 925.855 620.4 925.855 619.4L925.695 612C925.695 610.28 925.335 608.76 924.535 607.68C923.695 606.52 922.295 605.84 920.295 605.84ZM939.012 596.68C939.012 596.96 939.332 597.28 940.132 597.44C942.012 597.8 942.212 598.56 942.252 599.44C942.292 600.76 942.292 603.52 942.292 605.12C942.292 610.92 942.172 617.28 942.092 618.28C941.892 619.84 941.332 620.6 939.132 621.04C938.492 621.16 938.172 621.48 938.172 621.76C938.172 622.12 938.572 622.2 939.332 622.2C939.892 622.2 941.772 622 944.492 622C952.612 622 956.252 622.24 956.732 622.24C956.892 622.24 957.652 622 957.692 621.56C958.012 620.04 958.292 619.2 958.932 617.24C959.092 616.6 958.972 616.16 958.772 616.16C958.572 616.16 958.212 616.32 957.772 617.04C956.692 618.56 956.052 619.16 955.492 619.72C954.692 620.44 954.212 620.44 953.892 620.48C953.292 620.56 952.172 620.6 951.052 620.6C949.732 620.6 948.252 620.56 947.212 620.4C946.892 620.36 945.932 619.44 945.852 618.88C945.692 617.56 945.572 613.72 945.572 610.6C945.572 604.68 945.572 600.64 945.812 598.84C945.892 598.24 946.172 597.8 948.492 597.28C949.092 597.12 949.412 596.88 949.412 596.6C949.412 596.32 949.132 596.16 948.412 596.16C947.452 596.16 944.732 596.28 943.172 596.28C942.012 596.28 941.292 596.2 940.212 596.2C939.332 596.2 939.012 596.4 939.012 596.68ZM975.922 605.84C975.162 605.84 973.362 606.52 972.202 607.36C970.322 608.6 969.202 609.72 969.202 610.88C969.202 611.08 969.442 611.4 969.682 611.4C969.882 611.4 971.882 610.4 972.282 610.08C972.362 610 972.522 609.76 972.522 609.64C972.442 608.84 972.562 608.12 972.802 608C973.082 607.8 973.602 607.56 974.442 607.56C976.402 607.56 977.562 609.24 977.562 610.24C977.562 610.72 977.522 613.16 977.482 613.52C977.482 613.76 977.242 613.96 976.322 614.24C975.442 614.52 972.242 615.4 971.642 615.64C971.042 615.92 970.442 616.12 970.042 616.64C969.602 617.2 969.282 617.96 969.282 618.68C969.282 620.68 970.642 622.4 972.042 622.4C972.242 622.4 973.202 622.32 973.642 622.16C974.042 622.04 975.762 621.36 977.242 620.32C977.322 620.28 977.482 620.44 977.482 620.48C977.962 621.96 979.122 622.48 980.042 622.48C981.842 622.48 983.642 620.76 983.642 620C983.642 619.96 983.642 619.72 983.522 619.6C983.442 619.48 983.402 619.4 983.282 619.48C982.842 619.8 981.922 620.08 981.762 620.08C981.442 620.08 980.162 619.92 980.162 618.08C980.162 617.64 980.322 612.6 980.322 611.04C980.322 609.36 980.122 608.56 979.522 607.72C978.922 606.84 977.922 605.84 975.922 605.84ZM974.722 620.32C973.882 620.32 972.202 619.68 972.202 617.92C972.202 616.96 972.602 616.68 973.002 616.4C974.082 615.88 976.002 615.2 977.122 615.2C977.282 615.2 977.442 615.4 977.442 615.52C977.442 616.32 977.442 617.68 977.362 618.64C977.362 618.72 977.122 619.48 976.882 619.64C976.122 620.04 975.322 620.32 974.722 620.32ZM985.62 607.76C985.62 607.88 985.86 608.08 986.38 608.44C987.26 609.16 987.34 609.56 987.34 610C987.34 614.08 987.26 617.56 987.14 618.76C987.02 620.2 986.78 620.6 985.46 621C985.02 621.12 984.62 621.32 984.62 621.6C984.62 621.96 985.06 622.12 985.66 622.12C986.34 622.12 987.5 622 988.98 622C989.82 622 990.94 622.04 991.42 622.04C991.98 622.04 992.42 621.84 992.42 621.56C992.42 621.32 992.1 621.08 991.7 620.96C990.42 620.6 990.26 620.28 990.22 619.72C990.18 619.24 990.18 610.64 990.18 610.12C990.18 609.76 990.46 609.28 990.58 609.16C991.34 608.48 992.38 607.88 994.14 607.88C995.06 607.88 996.26 608.32 996.7 608.64C997.18 609 997.9 610.16 997.9 611.6C997.9 612.76 997.86 617.6 997.78 618.92C997.7 620.24 997.5 620.56 996.54 620.92C996.06 621.08 995.62 621.32 995.62 621.6C995.62 621.92 996.18 622.08 996.54 622.08C997.06 622.08 998.3 622 999.3 622C1000.42 622 1001.34 622.08 1002.26 622.08C1002.9 622.08 1003.46 621.92 1003.46 621.64C1003.46 621.36 1003.22 621.16 1002.46 620.96C1001.46 620.68 1001.06 620.16 1000.98 619.56C1000.94 619 1000.86 613.04 1000.86 612.28C1000.86 610.28 1000.34 608.44 999.46 607.4C998.9 606.76 997.78 605.88 995.82 605.88C994.14 605.88 992.06 607 990.46 608.08C990.42 608.08 990.22 608.16 990.22 607.96C990.22 607.6 990.38 606.64 990.38 605.96C990.38 605.8 990.18 605.36 989.98 605.36C989.78 605.36 989.42 605.56 989.02 605.8C988.46 606.2 987.02 606.72 986.34 606.96C986.06 607.08 985.62 607.48 985.62 607.76ZM1015.16 605.84C1014.08 605.84 1011.72 606.24 1009.88 607.36C1007.92 608.52 1005.64 610.8 1005.64 614.72C1005.64 616.72 1006.28 618.76 1007.56 620.2C1008.8 621.52 1010.64 622.4 1012.56 622.4C1013.88 622.4 1015.92 622.04 1017.76 620.4C1017.84 620.4 1018 620.48 1018 620.64C1018 621.2 1017.92 621.92 1017.92 622.28C1017.92 622.48 1018.2 622.8 1018.36 622.8C1018.56 622.8 1018.88 622.72 1019.8 622.4C1020.56 622.12 1022.64 621.72 1023.4 621.6C1023.6 621.56 1024.08 620.88 1024.08 620.6C1024.08 620.56 1024 620.36 1023.84 620.36C1023.44 620.4 1022.12 620.68 1021.68 620.68C1021.44 620.68 1021.12 620.52 1021.04 619.04C1021.04 618.28 1020.96 617.64 1020.96 609.92C1020.96 597.68 1021.12 596.24 1021.32 594.12C1021.36 593.76 1021.12 593.48 1021 593.48C1020.84 593.48 1020.72 593.52 1020.48 593.6C1019.44 594 1017.32 594.6 1016.4 594.72C1016.16 594.76 1015.72 595.24 1015.72 595.4C1015.72 595.48 1015.76 595.56 1016.12 595.76C1017.96 596.72 1017.96 597.2 1018 597.4C1018.12 598.36 1018.24 604.48 1018.04 605.56C1018 605.76 1017.88 606.04 1017.72 606C1017.24 605.92 1016.6 605.84 1015.16 605.84ZM1013.68 607.16C1014.48 607.16 1016 607.6 1017.12 608.72C1017.6 609.2 1017.96 609.92 1018 610.24C1018.12 612.12 1018.16 614.32 1018.12 616.88C1018.08 618.16 1017.56 619.44 1017.48 619.52C1016.76 620.04 1015.84 620.48 1014.56 620.48C1011.12 620.48 1008.88 616.8 1008.88 613.6C1008.88 611.36 1009.8 609.32 1010.56 608.56C1011.28 607.84 1012.4 607.16 1013.68 607.16ZM1037.81 622C1038.65 622 1040.65 622.12 1040.93 622.12C1041.37 622.12 1041.85 621.96 1041.85 621.72C1041.85 621.44 1041.61 621.24 1040.97 621.04C1039.97 620.72 1039.09 620.64 1039.05 619.36C1039.01 617.96 1038.97 616.28 1038.97 614.04C1038.97 611.76 1039.21 606.56 1039.21 606.12C1039.21 606.08 1039.01 605.68 1038.85 605.68C1038.25 605.84 1036.37 606.72 1034.89 607.04C1034.45 607.12 1034.09 607.44 1034.09 607.72C1034.09 607.88 1034.17 608 1034.41 608.16C1035.57 609 1036.01 609.32 1036.05 609.6C1036.13 610.08 1036.09 614.64 1036.09 615.84C1036.09 617 1036.05 619.4 1035.93 619.96C1035.85 620.36 1035.25 620.84 1034.33 621.08C1033.65 621.28 1033.37 621.48 1033.37 621.72C1033.37 622 1033.77 622.16 1034.41 622.16C1035.09 622.16 1036.49 622 1037.81 622ZM1037.73 597.72C1037.17 597.72 1036.57 597.88 1036.17 598.24C1035.85 598.68 1035.69 599.32 1035.69 599.68C1035.69 600.36 1035.97 600.8 1036.29 601.16C1036.65 601.48 1037.29 601.64 1037.57 601.64C1038.37 601.64 1039.49 600.76 1039.49 599.68C1039.49 598.96 1038.81 597.72 1037.73 597.72ZM1048.97 606.4C1048.81 606.4 1048.65 606.2 1048.65 606.08V604.2C1048.65 604.12 1048.29 603.76 1048.09 603.76C1047.93 603.76 1047.65 604.08 1047.17 604.64C1046.61 605.32 1045.37 606.28 1043.97 607.4C1043.85 607.52 1043.73 607.68 1043.73 607.84C1043.73 607.96 1043.97 608.16 1044.29 608.28C1045.09 608.52 1045.81 608.8 1045.81 609.08C1045.81 610.48 1045.65 616.48 1045.65 617.96C1045.65 619.08 1045.73 619.92 1046.17 620.6C1046.65 621.48 1048.05 622.48 1049.69 622.48C1051.49 622.48 1052.89 621.76 1053.97 620.72C1054.25 620.44 1054.53 620.04 1054.53 619.72C1054.53 619.36 1054.33 619.28 1054.29 619.28C1054.13 619.28 1054.05 619.32 1053.69 619.52C1053.09 619.88 1052.25 620.12 1051.73 620.12C1050.89 620.12 1050.05 620.04 1049.29 619.36C1048.85 618.92 1048.61 618.4 1048.61 617.4C1048.61 615.48 1048.65 609.6 1048.69 608.8C1048.69 608.72 1048.85 608.52 1049.05 608.52H1053.41C1053.69 608.52 1054.45 608.44 1054.45 608.08C1054.45 607.56 1054.33 606.44 1054.33 606.56C1054.33 606.44 1053.93 606.24 1053.89 606.24C1053.73 606.24 1049.85 606.4 1048.97 606.4ZM1062.42 605.84C1061.06 605.84 1059.98 606.2 1059.22 606.68C1057.7 607.6 1057.02 608.92 1057.02 610.28C1057.02 612.16 1058.3 613.56 1059.5 614.32C1060.74 615.12 1060.98 615.32 1061.94 616C1063.18 616.76 1063.74 617.6 1063.74 618.68C1063.74 619.44 1063.42 620.4 1062.82 620.88C1062.38 621.2 1061.74 621.48 1061.22 621.48C1059.78 621.48 1058.7 620.68 1057.58 618.64C1057.34 618.2 1057.06 617.72 1056.74 617.72C1056.5 617.72 1056.42 618.12 1056.42 618.56C1056.42 619.72 1056.9 621.4 1057.02 621.6C1057.7 622.16 1059.7 622.48 1060.9 622.48C1062.14 622.48 1063.54 622.04 1064.26 621.56C1065.26 620.84 1066.58 619.48 1066.58 617.64C1066.58 615.84 1065.7 614.48 1063.46 613.16C1060.78 611.68 1059.5 610.64 1059.5 609.28C1059.5 608.44 1060.26 606.8 1061.9 606.8C1063.22 606.8 1064.22 607.6 1065.1 609.48C1065.3 609.92 1065.54 610.16 1065.7 610.16C1066.02 610.16 1066.18 609.8 1066.18 609.44C1066.18 609.16 1066.06 607.8 1066.06 607.08C1066.06 606.84 1065.82 606.56 1065.74 606.52C1065.66 606.48 1064.9 606.16 1064.46 606.08C1064.02 605.96 1063.18 605.84 1062.42 605.84ZM746.4 653.96C745.32 653.96 742.72 654.52 741.16 655.64C738.84 657.2 737.28 659.64 737.28 662.56C737.28 664.24 737.84 666.12 738.52 667.24C739.8 669.12 741.92 670.44 744.44 670.44C746.52 670.44 748.8 669.52 750.2 667.96C750.52 667.64 750.72 667.24 750.72 666.8C750.72 666.6 750.4 666.48 749.96 666.8C748.92 667.52 747.88 668 746.4 668C744.32 668 742.36 667 741.36 665.32C741.2 665.08 740.32 663.64 740.32 661.32C740.32 659.56 740.92 657.92 742 656.72C742.64 655.92 743.84 655.36 744.48 655.36C745.84 655.36 746.52 655.96 747.84 656.92C748.48 657.36 749.16 657.68 749.4 657.68C749.56 657.68 750.72 656.72 750.72 656.08C750.72 655.84 750.52 655.16 750.12 654.88C749.36 654.28 747.6 653.96 746.4 653.96ZM761.82 653.84C759.14 653.84 757.14 654.96 755.9 656.04C754.38 657.32 753.1 659.24 753.1 662.28C753.1 664.28 754.34 667 756.06 668.4C757.54 669.64 759.54 670.48 761.38 670.48C763.18 670.48 764.74 670.04 766.34 668.88C767.82 667.92 769.82 665.32 769.82 662C769.82 656.96 765.78 653.84 761.82 653.84ZM761.06 655.04C762.1 655.04 763.54 655.64 764.42 656.6C765.94 658.36 766.42 660.64 766.42 662.72C766.42 664.44 765.62 666.92 764.62 668C763.5 669.12 762.62 669.32 762.18 669.32C760.26 669.32 757.98 667.88 756.98 664.88C756.66 663.88 756.5 662.64 756.5 661.32C756.5 659.24 757.42 657.16 758.46 656.2C759.3 655.48 760.22 655.04 761.06 655.04ZM773.041 656C773.041 656.2 773.321 656.4 774.441 657.44C774.801 657.8 774.721 658.32 774.721 658.52C774.721 661.28 774.681 665.28 774.601 666.44C774.441 668.16 774.201 668.76 772.921 669.08C772.201 669.24 771.961 669.52 771.961 669.68C771.961 669.96 772.361 670.12 772.961 670.12C773.841 670.12 774.641 670 775.961 670C777.481 670 778.961 670.08 779.121 670.08C779.641 670.08 780.201 669.96 780.201 669.68C780.201 669.36 779.881 669.2 779.121 668.96C777.841 668.56 777.681 667.92 777.681 667.16C777.681 664.12 777.681 659.08 777.761 658.04C777.801 657.6 777.921 657.28 778.201 657.04C779.161 656.28 780.081 655.8 781.401 655.8C782.841 655.8 783.881 656.32 784.401 657C784.681 657.36 784.921 657.88 784.921 659.04V666.88C784.921 668.32 784.761 668.72 783.401 669.04C782.761 669.2 782.601 669.48 782.601 669.6C782.601 669.76 782.721 670.08 783.641 670.08C784.481 670.08 785.641 670 786.481 670C787.401 670 788.601 670.08 789.481 670.08C790.121 670.08 790.441 669.88 790.441 669.6C790.441 669.4 790.041 669.16 789.601 669.04C788.241 668.72 788.041 668.32 787.921 667.04C787.841 666.16 787.921 658.6 787.921 658.32C787.921 658.04 788.201 657.28 788.321 657.16C788.881 656.68 789.601 655.92 791.401 655.92C793.081 655.92 793.961 656.56 794.441 657.32C794.841 658.04 795.081 658.6 795.081 660C795.081 661.32 795.161 665.8 795.161 666.76C795.161 668.16 795.001 668.64 793.721 669.04C793.281 669.16 792.841 669.32 792.841 669.56C792.841 669.84 793.081 670.08 793.841 670.08C794.761 670.08 795.361 670 796.561 670C797.561 670 798.641 670.12 799.441 670.12C800.201 670.12 800.561 669.96 800.561 669.68C800.561 669.44 800.321 669.28 799.801 669.12C798.361 668.72 798.121 667.96 798.081 667.24C798.081 663.96 798.161 661.16 798.001 659.08C797.921 657.64 797.561 656.24 796.681 655.24C795.841 654.36 794.721 653.88 793.241 653.88C792.521 653.88 791.601 654.08 790.681 654.52C789.641 655.04 788.601 655.68 787.841 656.24C787.681 656.32 787.601 656.24 787.521 656.08C787.361 655.8 786.961 655.2 786.241 654.68C785.521 654.16 784.561 653.88 783.121 653.88C781.241 653.88 778.761 655.4 777.761 656.2C777.601 656.36 777.521 656.08 777.521 655.96C777.521 655.56 777.681 654.44 777.681 653.88C777.681 653.8 777.401 653.52 777.201 653.48C777.121 653.48 777.041 653.52 776.881 653.64C776.441 653.92 774.641 654.96 773.841 655.28C773.401 655.52 773.041 655.76 773.041 656ZM813.279 653.92C812.159 653.92 810.959 654.12 810.319 654.4C809.759 654.64 808.679 655.2 807.719 655.84C807.559 655.96 807.399 655.8 807.399 655.64C807.439 655 807.439 654.24 807.519 653.6C807.519 653.44 807.199 653.12 807.079 653.12C806.999 653.12 806.679 653.28 806.279 653.48C805.599 653.88 803.839 654.72 803.239 654.88C803.079 654.92 802.679 655.4 802.679 655.6C802.679 655.8 803.159 656.16 804.159 656.88C804.279 656.96 804.479 657.24 804.479 658.92C804.519 661.28 804.479 664.28 804.479 667C804.479 671.08 804.439 674.36 804.359 675.68C804.199 678.56 803.999 678.92 801.879 679.36C801.239 679.48 800.959 679.8 800.959 679.96C800.959 680.32 801.559 680.48 802.159 680.48C803.359 680.48 803.759 680.36 804.719 680.36C806.279 680.36 808.599 680.56 809.479 680.56C809.999 680.56 810.519 680.36 810.519 680.04C810.519 679.76 810.199 679.56 809.399 679.32C807.879 678.84 807.599 678.36 807.479 677.32C807.359 676.2 807.319 674.56 807.319 670.68C807.319 670.48 807.479 670.16 807.599 670.16C808.119 670.24 808.919 670.32 809.839 670.32C811.639 670.32 813.999 670 816.199 668.28C818.759 666.36 819.599 663.4 819.599 661.4C819.599 659.2 818.679 657.24 817.719 656.16C816.519 654.84 814.719 653.92 813.279 653.92ZM811.199 655.96C812.119 655.96 813.759 656.52 814.799 657.6C816.439 659.4 816.439 661.56 816.439 662.48C816.439 663.68 815.719 666.68 813.719 668.36C813.159 668.84 812.319 669.04 811.879 669.04C810.879 669.04 808.959 668.36 807.879 666.84C807.599 666.48 807.439 665.8 807.359 665.08C807.199 663.44 807.239 659.08 807.439 657.88C807.559 657.16 807.759 656.84 807.959 656.68C808.399 656.32 809.519 655.96 811.199 655.96ZM822.679 643.6C822.679 643.76 822.799 643.88 823.479 644.36C824.399 644.92 824.399 645.16 824.439 645.48C824.559 646.56 824.559 650.88 824.559 653.84C824.559 660.16 824.439 664.36 824.319 666C824.159 668 824.079 668.72 822.239 669.12C821.799 669.2 821.359 669.4 821.359 669.68C821.359 670 821.679 670.12 822.479 670.12C823.319 670.12 825.079 670 825.999 670C826.719 670 828.439 670.12 829.399 670.12C829.879 670.12 830.439 669.96 830.439 669.68C830.439 669.44 830.119 669.24 829.519 669.08C827.799 668.6 827.639 668.12 827.479 667.32C827.279 666.24 827.359 658.6 827.359 652.76C827.359 647.4 827.599 642.88 827.719 641.88C827.719 641.72 827.479 641.4 827.359 641.48C826.279 642.16 825.079 642.4 823.239 643.04C822.799 643.16 822.679 643.44 822.679 643.6ZM839.965 653.88C839.285 653.88 837.965 654.12 836.925 654.6C833.805 656.04 832.125 659.24 832.125 662.44C832.125 667.12 835.005 670.4 839.325 670.4C841.605 670.4 843.725 669.44 845.125 667.4C845.245 667.2 845.405 666.76 845.405 666.44C845.405 666.24 845.325 665.96 845.085 665.96C844.925 665.96 844.725 666.2 844.565 666.44C843.885 667.44 842.685 667.88 840.925 667.88C839.005 667.88 837.325 666.88 836.445 665.68C835.565 664.52 834.925 662.68 834.925 661.12C834.925 660.72 835.005 660.04 835.125 659.72C835.165 659.6 835.325 659.4 835.445 659.4C837.285 659.44 844.125 659.44 844.565 659.44C845.005 659.44 845.325 659 845.325 658.76C845.325 657.36 844.805 656.24 843.925 655.4C842.925 654.4 841.365 653.88 839.965 653.88ZM839.565 654.92C841.005 654.92 842.205 656.2 842.205 657.32C842.205 658.12 841.805 658.32 840.845 658.32C838.845 658.36 836.725 658.36 835.685 658.32C835.605 658.32 835.445 658.08 835.525 657.88C836.245 656.04 837.765 654.92 839.565 654.92ZM848.158 656C848.158 656.2 848.438 656.4 849.558 657.44C849.918 657.8 849.838 658.32 849.838 658.52C849.838 661.28 849.798 665.28 849.718 666.44C849.558 668.16 849.318 668.76 848.038 669.08C847.318 669.24 847.078 669.52 847.078 669.68C847.078 669.96 847.478 670.12 848.078 670.12C848.958 670.12 849.758 670 851.078 670C852.598 670 854.078 670.08 854.238 670.08C854.758 670.08 855.318 669.96 855.318 669.68C855.318 669.36 854.998 669.2 854.238 668.96C852.958 668.56 852.798 667.92 852.798 667.16C852.798 664.12 852.798 659.08 852.878 658.04C852.918 657.6 853.038 657.28 853.318 657.04C854.278 656.28 855.198 655.8 856.518 655.8C857.958 655.8 858.998 656.32 859.518 657C859.798 657.36 860.038 657.88 860.038 659.04V666.88C860.038 668.32 859.878 668.72 858.518 669.04C857.878 669.2 857.718 669.48 857.718 669.6C857.718 669.76 857.838 670.08 858.758 670.08C859.598 670.08 860.758 670 861.598 670C862.518 670 863.718 670.08 864.598 670.08C865.238 670.08 865.558 669.88 865.558 669.6C865.558 669.4 865.158 669.16 864.718 669.04C863.358 668.72 863.158 668.32 863.038 667.04C862.958 666.16 863.038 658.6 863.038 658.32C863.038 658.04 863.318 657.28 863.438 657.16C863.998 656.68 864.718 655.92 866.518 655.92C868.198 655.92 869.078 656.56 869.558 657.32C869.958 658.04 870.198 658.6 870.198 660C870.198 661.32 870.278 665.8 870.278 666.76C870.278 668.16 870.118 668.64 868.838 669.04C868.398 669.16 867.958 669.32 867.958 669.56C867.958 669.84 868.198 670.08 868.958 670.08C869.878 670.08 870.478 670 871.678 670C872.678 670 873.758 670.12 874.558 670.12C875.318 670.12 875.678 669.96 875.678 669.68C875.678 669.44 875.438 669.28 874.918 669.12C873.478 668.72 873.238 667.96 873.198 667.24C873.198 663.96 873.278 661.16 873.118 659.08C873.038 657.64 872.678 656.24 871.798 655.24C870.958 654.36 869.838 653.88 868.358 653.88C867.638 653.88 866.718 654.08 865.798 654.52C864.758 655.04 863.718 655.68 862.958 656.24C862.798 656.32 862.718 656.24 862.638 656.08C862.478 655.8 862.078 655.2 861.358 654.68C860.638 654.16 859.678 653.88 858.238 653.88C856.358 653.88 853.878 655.4 852.878 656.2C852.718 656.36 852.638 656.08 852.638 655.96C852.638 655.56 852.798 654.44 852.798 653.88C852.798 653.8 852.518 653.52 852.318 653.48C852.238 653.48 852.158 653.52 851.998 653.64C851.558 653.92 849.758 654.96 848.958 655.28C848.518 655.52 848.158 655.76 848.158 656ZM885.707 653.88C885.027 653.88 883.707 654.12 882.667 654.6C879.547 656.04 877.867 659.24 877.867 662.44C877.867 667.12 880.747 670.4 885.067 670.4C887.347 670.4 889.467 669.44 890.867 667.4C890.987 667.2 891.147 666.76 891.147 666.44C891.147 666.24 891.067 665.96 890.827 665.96C890.667 665.96 890.467 666.2 890.307 666.44C889.627 667.44 888.427 667.88 886.667 667.88C884.747 667.88 883.067 666.88 882.187 665.68C881.307 664.52 880.667 662.68 880.667 661.12C880.667 660.72 880.747 660.04 880.867 659.72C880.907 659.6 881.067 659.4 881.187 659.4C883.027 659.44 889.867 659.44 890.307 659.44C890.747 659.44 891.067 659 891.067 658.76C891.067 657.36 890.547 656.24 889.667 655.4C888.667 654.4 887.107 653.88 885.707 653.88ZM885.307 654.92C886.747 654.92 887.947 656.2 887.947 657.32C887.947 658.12 887.547 658.32 886.587 658.32C884.587 658.36 882.467 658.36 881.427 658.32C881.347 658.32 881.187 658.08 881.267 657.88C881.987 656.04 883.507 654.92 885.307 654.92ZM893.94 655.76C893.94 655.88 894.18 656.08 894.7 656.44C895.58 657.16 895.66 657.56 895.66 658C895.66 662.08 895.58 665.56 895.46 666.76C895.34 668.2 895.1 668.6 893.78 669C893.34 669.12 892.94 669.32 892.94 669.6C892.94 669.96 893.38 670.12 893.98 670.12C894.66 670.12 895.82 670 897.3 670C898.14 670 899.26 670.04 899.74 670.04C900.3 670.04 900.74 669.84 900.74 669.56C900.74 669.32 900.42 669.08 900.02 668.96C898.74 668.6 898.58 668.28 898.54 667.72C898.5 667.24 898.5 658.64 898.5 658.12C898.5 657.76 898.78 657.28 898.9 657.16C899.66 656.48 900.7 655.88 902.46 655.88C903.38 655.88 904.58 656.32 905.02 656.64C905.5 657 906.22 658.16 906.22 659.6C906.22 660.76 906.18 665.6 906.1 666.92C906.02 668.24 905.82 668.56 904.86 668.92C904.38 669.08 903.94 669.32 903.94 669.6C903.94 669.92 904.5 670.08 904.86 670.08C905.38 670.08 906.62 670 907.62 670C908.74 670 909.66 670.08 910.58 670.08C911.22 670.08 911.78 669.92 911.78 669.64C911.78 669.36 911.54 669.16 910.78 668.96C909.78 668.68 909.38 668.16 909.3 667.56C909.26 667 909.18 661.04 909.18 660.28C909.18 658.28 908.66 656.44 907.78 655.4C907.22 654.76 906.1 653.88 904.14 653.88C902.46 653.88 900.38 655 898.78 656.08C898.74 656.08 898.54 656.16 898.54 655.96C898.54 655.6 898.7 654.64 898.7 653.96C898.7 653.8 898.5 653.36 898.3 653.36C898.1 653.36 897.74 653.56 897.34 653.8C896.78 654.2 895.34 654.72 894.66 654.96C894.38 655.08 893.94 655.48 893.94 655.76ZM918.732 654.4C918.572 654.4 918.412 654.2 918.412 654.08V652.2C918.412 652.12 918.052 651.76 917.852 651.76C917.692 651.76 917.412 652.08 916.932 652.64C916.372 653.32 915.132 654.28 913.732 655.4C913.612 655.52 913.492 655.68 913.492 655.84C913.492 655.96 913.732 656.16 914.052 656.28C914.852 656.52 915.572 656.8 915.572 657.08C915.572 658.48 915.412 664.48 915.412 665.96C915.412 667.08 915.492 667.92 915.932 668.6C916.412 669.48 917.812 670.48 919.452 670.48C921.252 670.48 922.652 669.76 923.732 668.72C924.012 668.44 924.292 668.04 924.292 667.72C924.292 667.36 924.092 667.28 924.052 667.28C923.892 667.28 923.812 667.32 923.452 667.52C922.852 667.88 922.012 668.12 921.492 668.12C920.652 668.12 919.812 668.04 919.052 667.36C918.612 666.92 918.372 666.4 918.372 665.4C918.372 663.48 918.412 657.6 918.452 656.8C918.452 656.72 918.612 656.52 918.812 656.52H923.172C923.452 656.52 924.212 656.44 924.212 656.08C924.212 655.56 924.092 654.44 924.092 654.56C924.092 654.44 923.692 654.24 923.652 654.24C923.492 654.24 919.612 654.4 918.732 654.4ZM941.351 653.84C940.591 653.84 938.791 654.52 937.631 655.36C935.751 656.6 934.631 657.72 934.631 658.88C934.631 659.08 934.871 659.4 935.111 659.4C935.311 659.4 937.311 658.4 937.711 658.08C937.791 658 937.951 657.76 937.951 657.64C937.871 656.84 937.991 656.12 938.231 656C938.511 655.8 939.031 655.56 939.871 655.56C941.831 655.56 942.991 657.24 942.991 658.24C942.991 658.72 942.951 661.16 942.911 661.52C942.911 661.76 942.671 661.96 941.751 662.24C940.871 662.52 937.671 663.4 937.071 663.64C936.471 663.92 935.871 664.12 935.471 664.64C935.031 665.2 934.711 665.96 934.711 666.68C934.711 668.68 936.071 670.4 937.471 670.4C937.671 670.4 938.631 670.32 939.071 670.16C939.471 670.04 941.191 669.36 942.671 668.32C942.751 668.28 942.911 668.44 942.911 668.48C943.391 669.96 944.551 670.48 945.471 670.48C947.271 670.48 949.071 668.76 949.071 668C949.071 667.96 949.071 667.72 948.951 667.6C948.871 667.48 948.831 667.4 948.711 667.48C948.271 667.8 947.351 668.08 947.191 668.08C946.871 668.08 945.591 667.92 945.591 666.08C945.591 665.64 945.751 660.6 945.751 659.04C945.751 657.36 945.551 656.56 944.951 655.72C944.351 654.84 943.351 653.84 941.351 653.84ZM940.151 668.32C939.311 668.32 937.631 667.68 937.631 665.92C937.631 664.96 938.031 664.68 938.431 664.4C939.511 663.88 941.431 663.2 942.551 663.2C942.711 663.2 942.871 663.4 942.871 663.52C942.871 664.32 942.871 665.68 942.791 666.64C942.791 666.72 942.551 667.48 942.311 667.64C941.551 668.04 940.751 668.32 940.151 668.32ZM950.97 655.92C950.97 656.08 951.37 656.24 952.33 657C952.77 657.28 952.77 657.8 952.77 658.2V665.84C952.73 668.24 952.61 668.64 951.05 669.16C950.73 669.28 950.25 669.44 950.25 669.68C950.25 670 950.65 670.16 951.09 670.16C952.05 670.16 952.53 670 953.73 670C956.05 670 957.45 670.2 958.45 670.2C959.05 670.2 959.41 670.04 959.41 669.84C959.41 669.68 959.33 669.4 958.69 669.2L956.85 668.72C956.13 668.6 955.89 667.84 955.81 666.68C955.77 666.08 955.57 658.84 955.57 658.04C955.57 657.84 955.69 657.48 955.97 657.16C956.37 656.72 957.05 656.6 957.73 656.6C958.53 656.6 959.49 657.08 959.93 657.48C960.05 657.56 960.41 657.64 960.49 657.6C960.73 657.48 961.69 656.4 962.13 655.76C962.25 655.56 962.37 655.28 962.37 655.2C962.37 654.84 962.01 653.84 960.37 653.84C959.13 653.84 957.37 654.84 955.81 656.32C955.73 656.36 955.53 656.32 955.53 656.16C955.53 655.4 955.61 654.68 955.61 653.96C955.61 653.84 955.41 653.48 955.25 653.48C955.13 653.48 954.93 653.64 954.45 653.96C954.05 654.2 952.81 654.8 951.49 655.24C951.05 655.4 950.97 655.8 950.97 655.92ZM971.371 653.88C970.691 653.88 969.371 654.12 968.331 654.6C965.211 656.04 963.531 659.24 963.531 662.44C963.531 667.12 966.411 670.4 970.731 670.4C973.011 670.4 975.131 669.44 976.531 667.4C976.651 667.2 976.811 666.76 976.811 666.44C976.811 666.24 976.731 665.96 976.491 665.96C976.331 665.96 976.131 666.2 975.971 666.44C975.291 667.44 974.091 667.88 972.331 667.88C970.411 667.88 968.731 666.88 967.851 665.68C966.971 664.52 966.331 662.68 966.331 661.12C966.331 660.72 966.411 660.04 966.531 659.72C966.571 659.6 966.731 659.4 966.851 659.4C968.691 659.44 975.531 659.44 975.971 659.44C976.411 659.44 976.731 659 976.731 658.76C976.731 657.36 976.211 656.24 975.331 655.4C974.331 654.4 972.771 653.88 971.371 653.88ZM970.971 654.92C972.411 654.92 973.611 656.2 973.611 657.32C973.611 658.12 973.211 658.32 972.251 658.32C970.251 658.36 968.131 658.36 967.091 658.32C967.011 658.32 966.851 658.08 966.931 657.88C967.651 656.04 969.171 654.92 970.971 654.92ZM993.244 653.84C991.884 653.84 990.804 654.2 990.044 654.68C988.524 655.6 987.844 656.92 987.844 658.28C987.844 660.16 989.124 661.56 990.324 662.32C991.564 663.12 991.804 663.32 992.764 664C994.004 664.76 994.564 665.6 994.564 666.68C994.564 667.44 994.244 668.4 993.644 668.88C993.204 669.2 992.564 669.48 992.044 669.48C990.604 669.48 989.524 668.68 988.404 666.64C988.164 666.2 987.884 665.72 987.564 665.72C987.324 665.72 987.244 666.12 987.244 666.56C987.244 667.72 987.724 669.4 987.844 669.6C988.524 670.16 990.524 670.48 991.724 670.48C992.964 670.48 994.364 670.04 995.084 669.56C996.084 668.84 997.404 667.48 997.404 665.64C997.404 663.84 996.524 662.48 994.284 661.16C991.604 659.68 990.324 658.64 990.324 657.28C990.324 656.44 991.084 654.8 992.724 654.8C994.044 654.8 995.044 655.6 995.924 657.48C996.124 657.92 996.364 658.16 996.524 658.16C996.844 658.16 997.004 657.8 997.004 657.44C997.004 657.16 996.884 655.8 996.884 655.08C996.884 654.84 996.644 654.56 996.564 654.52C996.484 654.48 995.724 654.16 995.284 654.08C994.844 653.96 994.004 653.84 993.244 653.84ZM1007.86 653.88C1007.18 653.88 1005.86 654.12 1004.82 654.6C1001.7 656.04 1000.02 659.24 1000.02 662.44C1000.02 667.12 1002.9 670.4 1007.22 670.4C1009.5 670.4 1011.62 669.44 1013.02 667.4C1013.14 667.2 1013.3 666.76 1013.3 666.44C1013.3 666.24 1013.22 665.96 1012.98 665.96C1012.82 665.96 1012.62 666.2 1012.46 666.44C1011.78 667.44 1010.58 667.88 1008.82 667.88C1006.9 667.88 1005.22 666.88 1004.34 665.68C1003.46 664.52 1002.82 662.68 1002.82 661.12C1002.82 660.72 1002.9 660.04 1003.02 659.72C1003.06 659.6 1003.22 659.4 1003.34 659.4C1005.18 659.44 1012.02 659.44 1012.46 659.44C1012.9 659.44 1013.22 659 1013.22 658.76C1013.22 657.36 1012.7 656.24 1011.82 655.4C1010.82 654.4 1009.26 653.88 1007.86 653.88ZM1007.46 654.92C1008.9 654.92 1010.1 656.2 1010.1 657.32C1010.1 658.12 1009.7 658.32 1008.74 658.32C1006.74 658.36 1004.62 658.36 1003.58 658.32C1003.5 658.32 1003.34 658.08 1003.42 657.88C1004.14 656.04 1005.66 654.92 1007.46 654.92ZM1016.05 656C1016.05 656.2 1016.33 656.4 1017.45 657.44C1017.81 657.8 1017.73 658.32 1017.73 658.52C1017.73 661.28 1017.69 665.28 1017.61 666.44C1017.45 668.16 1017.21 668.76 1015.93 669.08C1015.21 669.24 1014.97 669.52 1014.97 669.68C1014.97 669.96 1015.37 670.12 1015.97 670.12C1016.85 670.12 1017.65 670 1018.97 670C1020.49 670 1021.97 670.08 1022.13 670.08C1022.65 670.08 1023.21 669.96 1023.21 669.68C1023.21 669.36 1022.89 669.2 1022.13 668.96C1020.85 668.56 1020.69 667.92 1020.69 667.16C1020.69 664.12 1020.69 659.08 1020.77 658.04C1020.81 657.6 1020.93 657.28 1021.21 657.04C1022.17 656.28 1023.09 655.8 1024.41 655.8C1025.85 655.8 1026.89 656.32 1027.41 657C1027.69 657.36 1027.93 657.88 1027.93 659.04V666.88C1027.93 668.32 1027.77 668.72 1026.41 669.04C1025.77 669.2 1025.61 669.48 1025.61 669.6C1025.61 669.76 1025.73 670.08 1026.65 670.08C1027.49 670.08 1028.65 670 1029.49 670C1030.41 670 1031.61 670.08 1032.49 670.08C1033.13 670.08 1033.45 669.88 1033.45 669.6C1033.45 669.4 1033.05 669.16 1032.61 669.04C1031.25 668.72 1031.05 668.32 1030.93 667.04C1030.85 666.16 1030.93 658.6 1030.93 658.32C1030.93 658.04 1031.21 657.28 1031.33 657.16C1031.89 656.68 1032.61 655.92 1034.41 655.92C1036.09 655.92 1036.97 656.56 1037.45 657.32C1037.85 658.04 1038.09 658.6 1038.09 660C1038.09 661.32 1038.17 665.8 1038.17 666.76C1038.17 668.16 1038.01 668.64 1036.73 669.04C1036.29 669.16 1035.85 669.32 1035.85 669.56C1035.85 669.84 1036.09 670.08 1036.85 670.08C1037.77 670.08 1038.37 670 1039.57 670C1040.57 670 1041.65 670.12 1042.45 670.12C1043.21 670.12 1043.57 669.96 1043.57 669.68C1043.57 669.44 1043.33 669.28 1042.81 669.12C1041.37 668.72 1041.13 667.96 1041.09 667.24C1041.09 663.96 1041.17 661.16 1041.01 659.08C1040.93 657.64 1040.57 656.24 1039.69 655.24C1038.85 654.36 1037.73 653.88 1036.25 653.88C1035.53 653.88 1034.61 654.08 1033.69 654.52C1032.65 655.04 1031.61 655.68 1030.85 656.24C1030.69 656.32 1030.61 656.24 1030.53 656.08C1030.37 655.8 1029.97 655.2 1029.25 654.68C1028.53 654.16 1027.57 653.88 1026.13 653.88C1024.25 653.88 1021.77 655.4 1020.77 656.2C1020.61 656.36 1020.53 656.08 1020.53 655.96C1020.53 655.56 1020.69 654.44 1020.69 653.88C1020.69 653.8 1020.41 653.52 1020.21 653.48C1020.13 653.48 1020.05 653.52 1019.89 653.64C1019.45 653.92 1017.65 654.96 1016.85 655.28C1016.41 655.52 1016.05 655.76 1016.05 656ZM1050.19 670C1051.03 670 1053.03 670.12 1053.31 670.12C1053.75 670.12 1054.23 669.96 1054.23 669.72C1054.23 669.44 1053.99 669.24 1053.35 669.04C1052.35 668.72 1051.47 668.64 1051.43 667.36C1051.39 665.96 1051.35 664.28 1051.35 662.04C1051.35 659.76 1051.59 654.56 1051.59 654.12C1051.59 654.08 1051.39 653.68 1051.23 653.68C1050.63 653.84 1048.75 654.72 1047.27 655.04C1046.83 655.12 1046.47 655.44 1046.47 655.72C1046.47 655.88 1046.55 656 1046.79 656.16C1047.95 657 1048.39 657.32 1048.43 657.6C1048.51 658.08 1048.47 662.64 1048.47 663.84C1048.47 665 1048.43 667.4 1048.31 667.96C1048.23 668.36 1047.63 668.84 1046.71 669.08C1046.03 669.28 1045.75 669.48 1045.75 669.72C1045.75 670 1046.15 670.16 1046.79 670.16C1047.47 670.16 1048.87 670 1050.19 670ZM1050.11 645.72C1049.55 645.72 1048.95 645.88 1048.55 646.24C1048.23 646.68 1048.07 647.32 1048.07 647.68C1048.07 648.36 1048.35 648.8 1048.67 649.16C1049.03 649.48 1049.67 649.64 1049.95 649.64C1050.75 649.64 1051.87 648.76 1051.87 647.68C1051.87 646.96 1051.19 645.72 1050.11 645.72ZM1056.87 660.76C1056.63 660.8 1056.19 661.4 1056.19 662.44C1056.19 662.76 1056.47 663.04 1056.83 663C1059.23 662.76 1062.87 662.4 1064.23 662.24C1064.71 662.2 1064.95 660.96 1064.95 660.32C1064.95 660.16 1064.71 659.88 1064.63 659.88C1063.07 660.04 1059.07 660.44 1056.87 660.76ZM1077.7 653.84C1076.62 653.84 1074.26 654.24 1072.42 655.36C1070.46 656.52 1068.18 658.8 1068.18 662.72C1068.18 664.72 1068.82 666.76 1070.1 668.2C1071.34 669.52 1073.18 670.4 1075.1 670.4C1076.42 670.4 1078.46 670.04 1080.3 668.4C1080.38 668.4 1080.54 668.48 1080.54 668.64C1080.54 669.2 1080.46 669.92 1080.46 670.28C1080.46 670.48 1080.74 670.8 1080.9 670.8C1081.1 670.8 1081.42 670.72 1082.34 670.4C1083.1 670.12 1085.18 669.72 1085.94 669.6C1086.14 669.56 1086.62 668.88 1086.62 668.6C1086.62 668.56 1086.54 668.36 1086.38 668.36C1085.98 668.4 1084.66 668.68 1084.22 668.68C1083.98 668.68 1083.66 668.52 1083.58 667.04C1083.58 666.28 1083.5 665.64 1083.5 657.92C1083.5 645.68 1083.66 644.24 1083.86 642.12C1083.9 641.76 1083.66 641.48 1083.54 641.48C1083.38 641.48 1083.26 641.52 1083.02 641.6C1081.98 642 1079.86 642.6 1078.94 642.72C1078.7 642.76 1078.26 643.24 1078.26 643.4C1078.26 643.48 1078.3 643.56 1078.66 643.76C1080.5 644.72 1080.5 645.2 1080.54 645.4C1080.66 646.36 1080.78 652.48 1080.58 653.56C1080.54 653.76 1080.42 654.04 1080.26 654C1079.78 653.92 1079.14 653.84 1077.7 653.84ZM1076.22 655.16C1077.02 655.16 1078.54 655.6 1079.66 656.72C1080.14 657.2 1080.5 657.92 1080.54 658.24C1080.66 660.12 1080.7 662.32 1080.66 664.88C1080.62 666.16 1080.1 667.44 1080.02 667.52C1079.3 668.04 1078.38 668.48 1077.1 668.48C1073.66 668.48 1071.42 664.8 1071.42 661.6C1071.42 659.36 1072.34 657.32 1073.1 656.56C1073.82 655.84 1074.94 655.16 1076.22 655.16ZM1096.02 653.88C1095.34 653.88 1094.02 654.12 1092.98 654.6C1089.86 656.04 1088.18 659.24 1088.18 662.44C1088.18 667.12 1091.06 670.4 1095.38 670.4C1097.66 670.4 1099.78 669.44 1101.18 667.4C1101.3 667.2 1101.46 666.76 1101.46 666.44C1101.46 666.24 1101.38 665.96 1101.14 665.96C1100.98 665.96 1100.78 666.2 1100.62 666.44C1099.94 667.44 1098.74 667.88 1096.98 667.88C1095.06 667.88 1093.38 666.88 1092.5 665.68C1091.62 664.52 1090.98 662.68 1090.98 661.12C1090.98 660.72 1091.06 660.04 1091.18 659.72C1091.22 659.6 1091.38 659.4 1091.5 659.4C1093.34 659.44 1100.18 659.44 1100.62 659.44C1101.06 659.44 1101.38 659 1101.38 658.76C1101.38 657.36 1100.86 656.24 1099.98 655.4C1098.98 654.4 1097.42 653.88 1096.02 653.88ZM1095.62 654.92C1097.06 654.92 1098.26 656.2 1098.26 657.32C1098.26 658.12 1097.86 658.32 1096.9 658.32C1094.9 658.36 1092.78 658.36 1091.74 658.32C1091.66 658.32 1091.5 658.08 1091.58 657.88C1092.3 656.04 1093.82 654.92 1095.62 654.92ZM1113.43 653.96C1112.35 653.96 1109.75 654.52 1108.19 655.64C1105.87 657.2 1104.31 659.64 1104.31 662.56C1104.31 664.24 1104.87 666.12 1105.55 667.24C1106.83 669.12 1108.95 670.44 1111.47 670.44C1113.55 670.44 1115.83 669.52 1117.23 667.96C1117.55 667.64 1117.75 667.24 1117.75 666.8C1117.75 666.6 1117.43 666.48 1116.99 666.8C1115.95 667.52 1114.91 668 1113.43 668C1111.35 668 1109.39 667 1108.39 665.32C1108.23 665.08 1107.35 663.64 1107.35 661.32C1107.35 659.56 1107.95 657.92 1109.03 656.72C1109.67 655.92 1110.87 655.36 1111.51 655.36C1112.87 655.36 1113.55 655.96 1114.87 656.92C1115.51 657.36 1116.19 657.68 1116.43 657.68C1116.59 657.68 1117.75 656.72 1117.75 656.08C1117.75 655.84 1117.55 655.16 1117.15 654.88C1116.39 654.28 1114.63 653.96 1113.43 653.96ZM1124.22 670C1125.06 670 1127.06 670.12 1127.34 670.12C1127.78 670.12 1128.26 669.96 1128.26 669.72C1128.26 669.44 1128.02 669.24 1127.38 669.04C1126.38 668.72 1125.5 668.64 1125.46 667.36C1125.42 665.96 1125.38 664.28 1125.38 662.04C1125.38 659.76 1125.62 654.56 1125.62 654.12C1125.62 654.08 1125.42 653.68 1125.26 653.68C1124.66 653.84 1122.78 654.72 1121.3 655.04C1120.86 655.12 1120.5 655.44 1120.5 655.72C1120.5 655.88 1120.58 656 1120.82 656.16C1121.98 657 1122.42 657.32 1122.46 657.6C1122.54 658.08 1122.5 662.64 1122.5 663.84C1122.5 665 1122.46 667.4 1122.34 667.96C1122.26 668.36 1121.66 668.84 1120.74 669.08C1120.06 669.28 1119.78 669.48 1119.78 669.72C1119.78 670 1120.18 670.16 1120.82 670.16C1121.5 670.16 1122.9 670 1124.22 670ZM1124.14 645.72C1123.58 645.72 1122.98 645.88 1122.58 646.24C1122.26 646.68 1122.1 647.32 1122.1 647.68C1122.1 648.36 1122.38 648.8 1122.7 649.16C1123.06 649.48 1123.7 649.64 1123.98 649.64C1124.78 649.64 1125.9 648.76 1125.9 647.68C1125.9 646.96 1125.22 645.72 1124.14 645.72ZM1139.61 653.84C1138.53 653.84 1136.17 654.24 1134.33 655.36C1132.37 656.52 1130.09 658.8 1130.09 662.72C1130.09 664.72 1130.73 666.76 1132.01 668.2C1133.25 669.52 1135.09 670.4 1137.01 670.4C1138.33 670.4 1140.37 670.04 1142.21 668.4C1142.29 668.4 1142.45 668.48 1142.45 668.64C1142.45 669.2 1142.37 669.92 1142.37 670.28C1142.37 670.48 1142.65 670.8 1142.81 670.8C1143.01 670.8 1143.33 670.72 1144.25 670.4C1145.01 670.12 1147.09 669.72 1147.85 669.6C1148.05 669.56 1148.53 668.88 1148.53 668.6C1148.53 668.56 1148.45 668.36 1148.29 668.36C1147.89 668.4 1146.57 668.68 1146.13 668.68C1145.89 668.68 1145.57 668.52 1145.49 667.04C1145.49 666.28 1145.41 665.64 1145.41 657.92C1145.41 645.68 1145.57 644.24 1145.77 642.12C1145.81 641.76 1145.57 641.48 1145.45 641.48C1145.29 641.48 1145.17 641.52 1144.93 641.6C1143.89 642 1141.77 642.6 1140.85 642.72C1140.61 642.76 1140.17 643.24 1140.17 643.4C1140.17 643.48 1140.21 643.56 1140.57 643.76C1142.41 644.72 1142.41 645.2 1142.45 645.4C1142.57 646.36 1142.69 652.48 1142.49 653.56C1142.45 653.76 1142.33 654.04 1142.17 654C1141.69 653.92 1141.05 653.84 1139.61 653.84ZM1138.13 655.16C1138.93 655.16 1140.45 655.6 1141.57 656.72C1142.05 657.2 1142.41 657.92 1142.45 658.24C1142.57 660.12 1142.61 662.32 1142.57 664.88C1142.53 666.16 1142.01 667.44 1141.93 667.52C1141.21 668.04 1140.29 668.48 1139.01 668.48C1135.57 668.48 1133.33 664.8 1133.33 661.6C1133.33 659.36 1134.25 657.32 1135.01 656.56C1135.73 655.84 1136.85 655.16 1138.13 655.16ZM1156.94 653.84C1156.18 653.84 1154.38 654.52 1153.22 655.36C1151.34 656.6 1150.22 657.72 1150.22 658.88C1150.22 659.08 1150.46 659.4 1150.7 659.4C1150.9 659.4 1152.9 658.4 1153.3 658.08C1153.38 658 1153.54 657.76 1153.54 657.64C1153.46 656.84 1153.58 656.12 1153.82 656C1154.1 655.8 1154.62 655.56 1155.46 655.56C1157.42 655.56 1158.58 657.24 1158.58 658.24C1158.58 658.72 1158.54 661.16 1158.5 661.52C1158.5 661.76 1158.26 661.96 1157.34 662.24C1156.46 662.52 1153.26 663.4 1152.66 663.64C1152.06 663.92 1151.46 664.12 1151.06 664.64C1150.62 665.2 1150.3 665.96 1150.3 666.68C1150.3 668.68 1151.66 670.4 1153.06 670.4C1153.26 670.4 1154.22 670.32 1154.66 670.16C1155.06 670.04 1156.78 669.36 1158.26 668.32C1158.34 668.28 1158.5 668.44 1158.5 668.48C1158.98 669.96 1160.14 670.48 1161.06 670.48C1162.86 670.48 1164.66 668.76 1164.66 668C1164.66 667.96 1164.66 667.72 1164.54 667.6C1164.46 667.48 1164.42 667.4 1164.3 667.48C1163.86 667.8 1162.94 668.08 1162.78 668.08C1162.46 668.08 1161.18 667.92 1161.18 666.08C1161.18 665.64 1161.34 660.6 1161.34 659.04C1161.34 657.36 1161.14 656.56 1160.54 655.72C1159.94 654.84 1158.94 653.84 1156.94 653.84ZM1155.74 668.32C1154.9 668.32 1153.22 667.68 1153.22 665.92C1153.22 664.96 1153.62 664.68 1154.02 664.4C1155.1 663.88 1157.02 663.2 1158.14 663.2C1158.3 663.2 1158.46 663.4 1158.46 663.52C1158.46 664.32 1158.46 665.68 1158.38 666.64C1158.38 666.72 1158.14 667.48 1157.9 667.64C1157.14 668.04 1156.34 668.32 1155.74 668.32ZM1182.68 661.64C1182.68 659.36 1181.84 657.12 1180.04 655.6C1178.76 654.48 1176.96 653.84 1175.08 653.84C1173.76 653.84 1171.84 654.32 1170.52 655.2C1170.48 655.24 1170.28 655.12 1170.28 655.04C1170.2 654.6 1170.2 652.64 1170.2 651.6C1170.2 648.4 1170.44 644.6 1170.56 641.96C1170.56 641.8 1170.28 641.44 1170.12 641.44C1170.04 641.44 1169.64 641.6 1169.12 641.92C1168.32 642.4 1166.96 642.76 1165.84 643.16C1165.72 643.2 1165.36 643.68 1165.36 643.72C1165.36 643.92 1165.56 644.04 1166.16 644.48C1166.92 645.12 1167.12 645.64 1167.16 645.84C1167.24 646.4 1167.36 652.32 1167.36 656.12C1167.36 659.4 1167.32 666.28 1167.12 669.4C1167.12 669.68 1167.2 669.92 1167.36 669.92C1167.44 669.92 1167.68 669.88 1167.84 669.8C1168.16 669.64 1168.52 669.6 1168.68 669.68C1169.6 670 1172.36 670.48 1173.76 670.48C1175.16 670.48 1177.56 670.04 1179.2 668.68C1180.96 667.32 1182.68 664.96 1182.68 661.64ZM1179.36 662.48C1179.36 664.28 1178.64 666.76 1177.52 667.84C1176.6 668.68 1175.52 669.2 1175.08 669.2C1174.36 669.2 1172.48 668.68 1171.36 667.52C1170.84 667 1170.6 666.36 1170.56 665.52C1170.36 663.36 1170.24 661.2 1170.24 659.12C1170.24 658.28 1170.28 657.16 1170.32 656.8C1170.36 656.52 1170.52 656.28 1170.64 656.2C1170.96 655.96 1171.72 655.6 1173.04 655.6C1174.92 655.6 1176.48 656.4 1177.4 657.32C1178.76 658.8 1179.36 661.04 1179.36 662.48ZM1185.77 643.6C1185.77 643.76 1185.89 643.88 1186.57 644.36C1187.49 644.92 1187.49 645.16 1187.53 645.48C1187.65 646.56 1187.65 650.88 1187.65 653.84C1187.65 660.16 1187.53 664.36 1187.41 666C1187.25 668 1187.17 668.72 1185.33 669.12C1184.89 669.2 1184.45 669.4 1184.45 669.68C1184.45 670 1184.77 670.12 1185.57 670.12C1186.41 670.12 1188.17 670 1189.09 670C1189.81 670 1191.53 670.12 1192.49 670.12C1192.97 670.12 1193.53 669.96 1193.53 669.68C1193.53 669.44 1193.21 669.24 1192.61 669.08C1190.89 668.6 1190.73 668.12 1190.57 667.32C1190.37 666.24 1190.45 658.6 1190.45 652.76C1190.45 647.4 1190.69 642.88 1190.81 641.88C1190.81 641.72 1190.57 641.4 1190.45 641.48C1189.37 642.16 1188.17 642.4 1186.33 643.04C1185.89 643.16 1185.77 643.44 1185.77 643.6ZM1203.05 653.88C1202.37 653.88 1201.05 654.12 1200.01 654.6C1196.89 656.04 1195.21 659.24 1195.21 662.44C1195.21 667.12 1198.09 670.4 1202.41 670.4C1204.69 670.4 1206.81 669.44 1208.21 667.4C1208.33 667.2 1208.49 666.76 1208.49 666.44C1208.49 666.24 1208.41 665.96 1208.17 665.96C1208.01 665.96 1207.81 666.2 1207.65 666.44C1206.97 667.44 1205.77 667.88 1204.01 667.88C1202.09 667.88 1200.41 666.88 1199.53 665.68C1198.65 664.52 1198.01 662.68 1198.01 661.12C1198.01 660.72 1198.09 660.04 1198.21 659.72C1198.25 659.6 1198.41 659.4 1198.53 659.4C1200.37 659.44 1207.21 659.44 1207.65 659.44C1208.09 659.44 1208.41 659 1208.41 658.76C1208.41 657.36 1207.89 656.24 1207.01 655.4C1206.01 654.4 1204.45 653.88 1203.05 653.88ZM1202.65 654.92C1204.09 654.92 1205.29 656.2 1205.29 657.32C1205.29 658.12 1204.89 658.32 1203.93 658.32C1201.93 658.36 1199.81 658.36 1198.77 658.32C1198.69 658.32 1198.53 658.08 1198.61 657.88C1199.33 656.04 1200.85 654.92 1202.65 654.92ZM1213.15 665.52C1212.39 665.52 1211.27 666.04 1211.27 667.36C1211.27 668.52 1212.35 668.88 1212.79 669.04C1213.35 669.24 1213.95 669.64 1213.95 670.32C1213.95 671.76 1212.39 672.76 1211.59 673.24C1211.31 673.36 1210.87 673.52 1210.87 673.88C1210.87 674.16 1211.31 674.24 1211.59 674.24C1212.39 674.24 1216.19 672.84 1216.19 669.24C1216.19 666.88 1214.67 665.52 1213.15 665.52ZM742.56 702.4C742.4 702.4 742.24 702.2 742.24 702.08V700.2C742.24 700.12 741.88 699.76 741.68 699.76C741.52 699.76 741.24 700.08 740.76 700.64C740.2 701.32 738.96 702.28 737.56 703.4C737.44 703.52 737.32 703.68 737.32 703.84C737.32 703.96 737.56 704.16 737.88 704.28C738.68 704.52 739.4 704.8 739.4 705.08C739.4 706.48 739.24 712.48 739.24 713.96C739.24 715.08 739.32 715.92 739.76 716.6C740.24 717.48 741.64 718.48 743.28 718.48C745.08 718.48 746.48 717.76 747.56 716.72C747.84 716.44 748.12 716.04 748.12 715.72C748.12 715.36 747.92 715.28 747.88 715.28C747.72 715.28 747.64 715.32 747.28 715.52C746.68 715.88 745.84 716.12 745.32 716.12C744.48 716.12 743.64 716.04 742.88 715.36C742.44 714.92 742.2 714.4 742.2 713.4C742.2 711.48 742.24 705.6 742.28 704.8C742.28 704.72 742.44 704.52 742.64 704.52H747C747.28 704.52 748.04 704.44 748.04 704.08C748.04 703.56 747.92 702.44 747.92 702.56C747.92 702.44 747.52 702.24 747.48 702.24C747.32 702.24 743.44 702.4 742.56 702.4ZM760.022 701.84C758.342 701.84 756.622 702.68 754.982 704.16C754.942 704.2 754.702 704.16 754.702 703.92C754.702 702.76 754.862 692.8 755.262 689.92C755.262 689.8 755.182 689.48 755.022 689.48C754.782 689.48 754.422 689.68 754.262 689.76C753.302 690.4 751.502 690.8 750.262 691.16C750.182 691.2 750.142 691.28 750.142 691.36C750.142 691.68 750.382 692.08 750.542 692.16C751.662 692.88 751.742 692.96 751.862 694C752.022 695.16 751.982 701.92 751.982 703.52C751.982 707.56 751.702 712.96 751.582 714.64C751.462 716.12 751.062 716.56 750.022 716.92C749.182 717.16 748.862 717.4 748.862 717.6C748.862 718 749.422 718.12 749.782 718.12C750.462 718.12 751.902 718 752.822 718C753.782 718 755.782 718.08 756.102 718.08C756.662 718.08 757.102 717.96 757.102 717.6C757.102 717.4 756.782 717.12 756.222 716.96C755.302 716.72 754.742 716.48 754.662 715.16C754.622 713.72 754.622 708.52 754.742 706.84C754.782 705.6 755.302 704.96 755.382 704.88C755.542 704.72 756.862 703.96 758.582 703.96C760.142 703.96 761.182 704.52 761.822 705.28C762.262 705.8 762.462 707.08 762.462 709.28C762.462 709.92 762.542 714.32 762.462 715.08C762.302 716.6 762.182 716.72 761.182 717.04C760.702 717.16 760.342 717.36 760.342 717.6C760.342 717.88 760.542 718.08 761.142 718.08C762.302 718.08 763.102 718 764.022 718C765.382 718 765.822 718.12 767.182 718.12C767.942 718.12 768.262 717.96 768.262 717.6C768.262 717.36 767.942 717.12 767.142 716.96C766.102 716.72 765.582 716.4 765.582 715.4L765.422 708C765.422 706.28 765.062 704.76 764.262 703.68C763.422 702.52 762.022 701.84 760.022 701.84ZM778.09 701.88C777.41 701.88 776.09 702.12 775.05 702.6C771.93 704.04 770.25 707.24 770.25 710.44C770.25 715.12 773.13 718.4 777.45 718.4C779.73 718.4 781.85 717.44 783.25 715.4C783.37 715.2 783.53 714.76 783.53 714.44C783.53 714.24 783.45 713.96 783.21 713.96C783.05 713.96 782.85 714.2 782.69 714.44C782.01 715.44 780.81 715.88 779.05 715.88C777.13 715.88 775.45 714.88 774.57 713.68C773.69 712.52 773.05 710.68 773.05 709.12C773.05 708.72 773.13 708.04 773.25 707.72C773.29 707.6 773.45 707.4 773.57 707.4C775.41 707.44 782.25 707.44 782.69 707.44C783.13 707.44 783.45 707 783.45 706.76C783.45 705.36 782.93 704.24 782.05 703.4C781.05 702.4 779.49 701.88 778.09 701.88ZM777.69 702.92C779.13 702.92 780.33 704.2 780.33 705.32C780.33 706.12 779.93 706.32 778.97 706.32C776.97 706.36 774.85 706.36 773.81 706.32C773.73 706.32 773.57 706.08 773.65 705.88C774.37 704.04 775.89 702.92 777.69 702.92ZM786.323 703.76C786.323 703.88 786.563 704.08 787.083 704.44C787.963 705.16 788.043 705.56 788.043 706C788.043 710.08 787.963 713.56 787.843 714.76C787.723 716.2 787.483 716.6 786.163 717C785.723 717.12 785.323 717.32 785.323 717.6C785.323 717.96 785.763 718.12 786.363 718.12C787.043 718.12 788.203 718 789.683 718C790.523 718 791.643 718.04 792.123 718.04C792.683 718.04 793.123 717.84 793.123 717.56C793.123 717.32 792.803 717.08 792.403 716.96C791.123 716.6 790.963 716.28 790.923 715.72C790.883 715.24 790.883 706.64 790.883 706.12C790.883 705.76 791.163 705.28 791.283 705.16C792.043 704.48 793.083 703.88 794.843 703.88C795.763 703.88 796.963 704.32 797.403 704.64C797.883 705 798.603 706.16 798.603 707.6C798.603 708.76 798.563 713.6 798.483 714.92C798.403 716.24 798.203 716.56 797.243 716.92C796.763 717.08 796.323 717.32 796.323 717.6C796.323 717.92 796.883 718.08 797.243 718.08C797.763 718.08 799.003 718 800.003 718C801.123 718 802.043 718.08 802.963 718.08C803.603 718.08 804.163 717.92 804.163 717.64C804.163 717.36 803.923 717.16 803.163 716.96C802.163 716.68 801.763 716.16 801.683 715.56C801.643 715 801.563 709.04 801.563 708.28C801.563 706.28 801.043 704.44 800.163 703.4C799.603 702.76 798.483 701.88 796.523 701.88C794.843 701.88 792.763 703 791.163 704.08C791.123 704.08 790.923 704.16 790.923 703.96C790.923 703.6 791.083 702.64 791.083 701.96C791.083 701.8 790.883 701.36 790.683 701.36C790.483 701.36 790.123 701.56 789.723 701.8C789.163 702.2 787.723 702.72 787.043 702.96C786.763 703.08 786.323 703.48 786.323 703.76ZM814.871 692.68C814.871 692.96 815.191 693.28 815.991 693.44C817.871 693.8 818.071 694.56 818.111 695.44C818.151 696.76 818.151 699.52 818.151 701.12C818.151 706.92 818.031 713.28 817.951 714.28C817.751 715.84 817.191 716.6 814.991 717.04C814.351 717.16 814.031 717.48 814.031 717.76C814.031 718.12 814.431 718.2 815.191 718.2C815.751 718.2 817.631 718 820.351 718C828.471 718 832.111 718.24 832.591 718.24C832.751 718.24 833.511 718 833.551 717.56C833.871 716.04 834.151 715.2 834.791 713.24C834.951 712.6 834.831 712.16 834.631 712.16C834.431 712.16 834.071 712.32 833.631 713.04C832.551 714.56 831.911 715.16 831.351 715.72C830.551 716.44 830.071 716.44 829.751 716.48C829.151 716.56 828.031 716.6 826.911 716.6C825.591 716.6 824.111 716.56 823.071 716.4C822.751 716.36 821.791 715.44 821.711 714.88C821.551 713.56 821.431 709.72 821.431 706.6C821.431 700.68 821.431 696.64 821.671 694.84C821.751 694.24 822.031 693.8 824.351 693.28C824.951 693.12 825.271 692.88 825.271 692.6C825.271 692.32 824.991 692.16 824.271 692.16C823.311 692.16 820.591 692.28 819.031 692.28C817.871 692.28 817.151 692.2 816.071 692.2C815.191 692.2 814.871 692.4 814.871 692.68ZM848.981 718C849.821 718 851.821 718.12 852.101 718.12C852.541 718.12 853.021 717.96 853.021 717.72C853.021 717.44 852.781 717.24 852.141 717.04C851.141 716.72 850.261 716.64 850.221 715.36C850.181 713.96 850.141 712.28 850.141 710.04C850.141 707.76 850.381 702.56 850.381 702.12C850.381 702.08 850.181 701.68 850.021 701.68C849.421 701.84 847.541 702.72 846.061 703.04C845.621 703.12 845.261 703.44 845.261 703.72C845.261 703.88 845.341 704 845.581 704.16C846.741 705 847.181 705.32 847.221 705.6C847.301 706.08 847.261 710.64 847.261 711.84C847.261 713 847.221 715.4 847.101 715.96C847.021 716.36 846.421 716.84 845.501 717.08C844.821 717.28 844.541 717.48 844.541 717.72C844.541 718 844.941 718.16 845.581 718.16C846.261 718.16 847.661 718 848.981 718ZM848.901 693.72C848.341 693.72 847.741 693.88 847.341 694.24C847.021 694.68 846.861 695.32 846.861 695.68C846.861 696.36 847.141 696.8 847.461 697.16C847.821 697.48 848.461 697.64 848.741 697.64C849.541 697.64 850.661 696.76 850.661 695.68C850.661 694.96 849.981 693.72 848.901 693.72ZM860.978 701.84C859.618 701.84 858.538 702.2 857.778 702.68C856.258 703.6 855.578 704.92 855.578 706.28C855.578 708.16 856.858 709.56 858.058 710.32C859.298 711.12 859.538 711.32 860.498 712C861.738 712.76 862.298 713.6 862.298 714.68C862.298 715.44 861.978 716.4 861.378 716.88C860.938 717.2 860.298 717.48 859.778 717.48C858.338 717.48 857.258 716.68 856.138 714.64C855.898 714.2 855.618 713.72 855.298 713.72C855.058 713.72 854.978 714.12 854.978 714.56C854.978 715.72 855.458 717.4 855.578 717.6C856.258 718.16 858.258 718.48 859.458 718.48C860.698 718.48 862.098 718.04 862.818 717.56C863.818 716.84 865.138 715.48 865.138 713.64C865.138 711.84 864.258 710.48 862.018 709.16C859.338 707.68 858.058 706.64 858.058 705.28C858.058 704.44 858.818 702.8 860.458 702.8C861.778 702.8 862.778 703.6 863.658 705.48C863.858 705.92 864.098 706.16 864.258 706.16C864.578 706.16 864.738 705.8 864.738 705.44C864.738 705.16 864.618 703.8 864.618 703.08C864.618 702.84 864.378 702.56 864.298 702.52C864.218 702.48 863.458 702.16 863.018 702.08C862.578 701.96 861.738 701.84 860.978 701.84ZM885.198 701.84C884.118 701.84 881.758 702.24 879.918 703.36C877.958 704.52 875.678 706.8 875.678 710.72C875.678 712.72 876.318 714.76 877.598 716.2C878.838 717.52 880.678 718.4 882.598 718.4C883.918 718.4 885.958 718.04 887.798 716.4C887.878 716.4 888.038 716.48 888.038 716.64C888.038 717.2 887.958 717.92 887.958 718.28C887.958 718.48 888.238 718.8 888.398 718.8C888.598 718.8 888.918 718.72 889.838 718.4C890.598 718.12 892.678 717.72 893.438 717.6C893.638 717.56 894.118 716.88 894.118 716.6C894.118 716.56 894.038 716.36 893.878 716.36C893.478 716.4 892.158 716.68 891.718 716.68C891.478 716.68 891.158 716.52 891.078 715.04C891.078 714.28 890.998 713.64 890.998 705.92C890.998 693.68 891.158 692.24 891.358 690.12C891.398 689.76 891.158 689.48 891.038 689.48C890.878 689.48 890.758 689.52 890.518 689.6C889.478 690 887.358 690.6 886.438 690.72C886.198 690.76 885.758 691.24 885.758 691.4C885.758 691.48 885.798 691.56 886.158 691.76C887.998 692.72 887.998 693.2 888.038 693.4C888.158 694.36 888.278 700.48 888.078 701.56C888.038 701.76 887.918 702.04 887.758 702C887.278 701.92 886.638 701.84 885.198 701.84ZM883.718 703.16C884.518 703.16 886.038 703.6 887.158 704.72C887.638 705.2 887.998 705.92 888.038 706.24C888.158 708.12 888.198 710.32 888.158 712.88C888.118 714.16 887.598 715.44 887.518 715.52C886.798 716.04 885.878 716.48 884.598 716.48C881.158 716.48 878.918 712.8 878.918 709.6C878.918 707.36 879.838 705.32 880.598 704.56C881.318 703.84 882.438 703.16 883.718 703.16ZM903.519 701.88C902.839 701.88 901.519 702.12 900.479 702.6C897.359 704.04 895.679 707.24 895.679 710.44C895.679 715.12 898.559 718.4 902.879 718.4C905.159 718.4 907.279 717.44 908.679 715.4C908.799 715.2 908.959 714.76 908.959 714.44C908.959 714.24 908.879 713.96 908.639 713.96C908.479 713.96 908.279 714.2 908.119 714.44C907.439 715.44 906.239 715.88 904.479 715.88C902.559 715.88 900.879 714.88 899.999 713.68C899.119 712.52 898.479 710.68 898.479 709.12C898.479 708.72 898.559 708.04 898.679 707.72C898.719 707.6 898.879 707.4 898.999 707.4C900.839 707.44 907.679 707.44 908.119 707.44C908.559 707.44 908.879 707 908.879 706.76C908.879 705.36 908.359 704.24 907.479 703.4C906.479 702.4 904.919 701.88 903.519 701.88ZM903.119 702.92C904.559 702.92 905.759 704.2 905.759 705.32C905.759 706.12 905.359 706.32 904.399 706.32C902.399 706.36 900.279 706.36 899.239 706.32C899.159 706.32 898.999 706.08 899.079 705.88C899.799 704.04 901.319 702.92 903.119 702.92ZM920.931 701.96C919.851 701.96 917.251 702.52 915.691 703.64C913.371 705.2 911.811 707.64 911.811 710.56C911.811 712.24 912.371 714.12 913.051 715.24C914.331 717.12 916.451 718.44 918.971 718.44C921.051 718.44 923.331 717.52 924.731 715.96C925.051 715.64 925.251 715.24 925.251 714.8C925.251 714.6 924.931 714.48 924.491 714.8C923.451 715.52 922.411 716 920.931 716C918.851 716 916.891 715 915.891 713.32C915.731 713.08 914.851 711.64 914.851 709.32C914.851 707.56 915.451 705.92 916.531 704.72C917.171 703.92 918.371 703.36 919.011 703.36C920.371 703.36 921.051 703.96 922.371 704.92C923.011 705.36 923.691 705.68 923.931 705.68C924.091 705.68 925.251 704.72 925.251 704.08C925.251 703.84 925.051 703.16 924.651 702.88C923.891 702.28 922.131 701.96 920.931 701.96ZM931.715 718C932.555 718 934.555 718.12 934.835 718.12C935.275 718.12 935.755 717.96 935.755 717.72C935.755 717.44 935.515 717.24 934.875 717.04C933.875 716.72 932.995 716.64 932.955 715.36C932.915 713.96 932.875 712.28 932.875 710.04C932.875 707.76 933.115 702.56 933.115 702.12C933.115 702.08 932.915 701.68 932.755 701.68C932.155 701.84 930.275 702.72 928.795 703.04C928.355 703.12 927.995 703.44 927.995 703.72C927.995 703.88 928.075 704 928.315 704.16C929.475 705 929.915 705.32 929.955 705.6C930.035 706.08 929.995 710.64 929.995 711.84C929.995 713 929.955 715.4 929.835 715.96C929.755 716.36 929.155 716.84 928.235 717.08C927.555 717.28 927.275 717.48 927.275 717.72C927.275 718 927.675 718.16 928.315 718.16C928.995 718.16 930.395 718 931.715 718ZM931.635 693.72C931.075 693.72 930.475 693.88 930.075 694.24C929.755 694.68 929.595 695.32 929.595 695.68C929.595 696.36 929.875 696.8 930.195 697.16C930.555 697.48 931.195 697.64 931.475 697.64C932.275 697.64 933.395 696.76 933.395 695.68C933.395 694.96 932.715 693.72 931.635 693.72ZM947.113 701.84C946.033 701.84 943.673 702.24 941.833 703.36C939.873 704.52 937.593 706.8 937.593 710.72C937.593 712.72 938.233 714.76 939.513 716.2C940.753 717.52 942.593 718.4 944.513 718.4C945.833 718.4 947.873 718.04 949.713 716.4C949.793 716.4 949.953 716.48 949.953 716.64C949.953 717.2 949.873 717.92 949.873 718.28C949.873 718.48 950.153 718.8 950.313 718.8C950.513 718.8 950.833 718.72 951.753 718.4C952.513 718.12 954.593 717.72 955.353 717.6C955.553 717.56 956.033 716.88 956.033 716.6C956.033 716.56 955.953 716.36 955.793 716.36C955.393 716.4 954.073 716.68 953.633 716.68C953.393 716.68 953.073 716.52 952.993 715.04C952.993 714.28 952.913 713.64 952.913 705.92C952.913 693.68 953.073 692.24 953.273 690.12C953.313 689.76 953.073 689.48 952.953 689.48C952.793 689.48 952.673 689.52 952.433 689.6C951.393 690 949.273 690.6 948.353 690.72C948.113 690.76 947.673 691.24 947.673 691.4C947.673 691.48 947.713 691.56 948.072 691.76C949.913 692.72 949.913 693.2 949.953 693.4C950.073 694.36 950.193 700.48 949.993 701.56C949.953 701.76 949.833 702.04 949.673 702C949.193 701.92 948.553 701.84 947.113 701.84ZM945.633 703.16C946.433 703.16 947.953 703.6 949.073 704.72C949.553 705.2 949.913 705.92 949.953 706.24C950.073 708.12 950.113 710.32 950.073 712.88C950.033 714.16 949.513 715.44 949.433 715.52C948.713 716.04 947.793 716.48 946.513 716.48C943.073 716.48 940.833 712.8 940.833 709.6C940.833 707.36 941.753 705.32 942.513 704.56C943.233 703.84 944.353 703.16 945.633 703.16ZM964.437 701.84C963.677 701.84 961.877 702.52 960.717 703.36C958.837 704.6 957.717 705.72 957.717 706.88C957.717 707.08 957.957 707.4 958.197 707.4C958.397 707.4 960.397 706.4 960.797 706.08C960.877 706 961.037 705.76 961.037 705.64C960.957 704.84 961.077 704.12 961.317 704C961.597 703.8 962.117 703.56 962.957 703.56C964.917 703.56 966.077 705.24 966.077 706.24C966.077 706.72 966.037 709.16 965.997 709.52C965.997 709.76 965.757 709.96 964.837 710.24C963.957 710.52 960.757 711.4 960.157 711.64C959.557 711.92 958.957 712.12 958.557 712.64C958.117 713.2 957.797 713.96 957.797 714.68C957.797 716.68 959.157 718.4 960.557 718.4C960.757 718.4 961.717 718.32 962.157 718.16C962.557 718.04 964.277 717.36 965.757 716.32C965.837 716.28 965.997 716.44 965.997 716.48C966.477 717.96 967.637 718.48 968.557 718.48C970.357 718.48 972.157 716.76 972.157 716C972.157 715.96 972.157 715.72 972.037 715.6C971.957 715.48 971.917 715.4 971.797 715.48C971.357 715.8 970.437 716.08 970.277 716.08C969.957 716.08 968.677 715.92 968.677 714.08C968.677 713.64 968.837 708.6 968.837 707.04C968.837 705.36 968.637 704.56 968.037 703.72C967.437 702.84 966.437 701.84 964.437 701.84ZM963.237 716.32C962.397 716.32 960.717 715.68 960.717 713.92C960.717 712.96 961.117 712.68 961.517 712.4C962.597 711.88 964.517 711.2 965.637 711.2C965.797 711.2 965.957 711.4 965.957 711.52C965.957 712.32 965.957 713.68 965.877 714.64C965.877 714.72 965.637 715.48 965.397 715.64C964.637 716.04 963.837 716.32 963.237 716.32ZM990.176 709.64C990.176 707.36 989.336 705.12 987.536 703.6C986.256 702.48 984.456 701.84 982.576 701.84C981.256 701.84 979.336 702.32 978.016 703.2C977.976 703.24 977.776 703.12 977.776 703.04C977.696 702.6 977.696 700.64 977.696 699.6C977.696 696.4 977.936 692.6 978.056 689.96C978.056 689.8 977.776 689.44 977.616 689.44C977.536 689.44 977.136 689.6 976.616 689.92C975.816 690.4 974.456 690.76 973.336 691.16C973.216 691.2 972.856 691.68 972.856 691.72C972.856 691.92 973.056 692.04 973.656 692.48C974.416 693.12 974.616 693.64 974.656 693.84C974.736 694.4 974.856 700.32 974.856 704.12C974.856 707.4 974.816 714.28 974.616 717.4C974.616 717.68 974.696 717.92 974.856 717.92C974.936 717.92 975.176 717.88 975.336 717.8C975.656 717.64 976.016 717.6 976.176 717.68C977.096 718 979.856 718.48 981.256 718.48C982.656 718.48 985.056 718.04 986.696 716.68C988.456 715.32 990.176 712.96 990.176 709.64ZM986.856 710.48C986.856 712.28 986.136 714.76 985.016 715.84C984.096 716.68 983.016 717.2 982.576 717.2C981.856 717.2 979.976 716.68 978.856 715.52C978.336 715 978.096 714.36 978.056 713.52C977.856 711.36 977.736 709.2 977.736 707.12C977.736 706.28 977.776 705.16 977.816 704.8C977.856 704.52 978.016 704.28 978.136 704.2C978.456 703.96 979.216 703.6 980.536 703.6C982.416 703.6 983.976 704.4 984.896 705.32C986.256 706.8 986.856 709.04 986.856 710.48ZM993.265 691.6C993.265 691.76 993.385 691.88 994.065 692.36C994.985 692.92 994.985 693.16 995.025 693.48C995.145 694.56 995.145 698.88 995.145 701.84C995.145 708.16 995.025 712.36 994.905 714C994.745 716 994.665 716.72 992.825 717.12C992.385 717.2 991.945 717.4 991.945 717.68C991.945 718 992.265 718.12 993.065 718.12C993.905 718.12 995.665 718 996.585 718C997.305 718 999.025 718.12 999.985 718.12C1000.47 718.12 1001.03 717.96 1001.03 717.68C1001.03 717.44 1000.71 717.24 1000.11 717.08C998.385 716.6 998.225 716.12 998.065 715.32C997.865 714.24 997.945 706.6 997.945 700.76C997.945 695.4 998.185 690.88 998.305 689.88C998.305 689.72 998.065 689.4 997.945 689.48C996.865 690.16 995.665 690.4 993.825 691.04C993.385 691.16 993.265 691.44 993.265 691.6ZM1010.55 701.88C1009.87 701.88 1008.55 702.12 1007.51 702.6C1004.39 704.04 1002.71 707.24 1002.71 710.44C1002.71 715.12 1005.59 718.4 1009.91 718.4C1012.19 718.4 1014.31 717.44 1015.71 715.4C1015.83 715.2 1015.99 714.76 1015.99 714.44C1015.99 714.24 1015.91 713.96 1015.67 713.96C1015.51 713.96 1015.31 714.2 1015.15 714.44C1014.47 715.44 1013.27 715.88 1011.51 715.88C1009.59 715.88 1007.91 714.88 1007.03 713.68C1006.15 712.52 1005.51 710.68 1005.51 709.12C1005.51 708.72 1005.59 708.04 1005.71 707.72C1005.75 707.6 1005.91 707.4 1006.03 707.4C1007.87 707.44 1014.71 707.44 1015.15 707.44C1015.59 707.44 1015.91 707 1015.91 706.76C1015.91 705.36 1015.39 704.24 1014.51 703.4C1013.51 702.4 1011.95 701.88 1010.55 701.88ZM1010.15 702.92C1011.59 702.92 1012.79 704.2 1012.79 705.32C1012.79 706.12 1012.39 706.32 1011.43 706.32C1009.43 706.36 1007.31 706.36 1006.27 706.32C1006.19 706.32 1006.03 706.08 1006.11 705.88C1006.83 704.04 1008.35 702.92 1010.15 702.92ZM1021.13 713.88C1020.41 713.88 1018.93 714.52 1018.93 716.2C1018.93 717.92 1020.17 718.52 1021.13 718.52C1022.45 718.52 1023.37 717.48 1023.37 716.2C1023.37 715.4 1022.85 713.88 1021.13 713.88Z" fill="black"/>
<rect id="99:76" opacity="0.2" x="692" y="736" width="596" height="447" fill="#FF0000"/>
</g>
<defs>
<clipPath id="clip0">
<rect width="1280" height="960" fill="white"/>
</clipPath>
</defs>
</svg>
