<svg width="1280" height="960" viewBox="0 0 1280 960" fill="none" xmlns="http://www.w3.org/2000/svg">
<g id="Circuit complexity classes">
<rect width="1280" height="960" fill="white"/>
<rect id="31:593" opacity="0.5" x="37" y="283" width="476" height="357" fill="#FF0000"/>
<path id="31:739" d="M35.02 120.88C35.02 127.78 30.58 130.6 27.4 130.6H25.9C25.42 130.6 25.18 130.9 25.18 131.14C25.18 131.5 25.48 131.8 26.2 132.1C27.16 132.46 28.72 132.52 29.38 132.52C31.96 132.52 34.72 131.2 36.28 129.88C38.02 128.38 40.48 125.92 40.48 120.58C40.48 118.6 39.88 115.18 37 112.42C34.78 110.32 31.24 108.88 25.78 108.88C22.78 108.88 18.16 109.36 15.76 109.36C15.22 109.36 14.2 109.3 13.78 109.36C13 109.42 12.4 109.72 12.4 110.2C12.4 110.56 13.06 110.92 14.26 111.1C17.62 111.58 17.56 112.42 17.62 114.58C17.68 116.5 17.8 129.22 17.8 131.2C17.8 134.2 17.68 139.12 17.5 142.06C17.32 144.52 16.66 145.72 13.3 146.44C12.7 146.62 12.1 146.98 12.1 147.4C12.1 147.94 12.76 148.24 13.78 148.24C15.64 148.24 18.1 148 19.84 148C22.48 148 24.64 148.24 26.14 148.24C27.04 148.24 28.12 148.06 28.12 147.52C28.12 146.98 27.64 146.68 26.5 146.38C23.44 145.48 22.96 145 22.9 141.1C22.9 139.6 22.78 134.62 22.78 129.16C22.84 122.26 22.84 114.82 22.9 113.56C22.96 112.12 23.26 111.4 23.5 111.22C23.98 110.92 24.58 110.68 25.24 110.68C30.88 110.68 35.02 115.42 35.02 120.88ZM55.7617 123.76C51.7417 123.76 48.7417 125.44 46.8817 127.06C44.6017 128.98 42.6817 131.86 42.6817 136.42C42.6817 139.42 44.5417 143.5 47.1217 145.6C49.3417 147.46 52.3417 148.72 55.1017 148.72C57.8017 148.72 60.1417 148.06 62.5417 146.32C64.7617 144.88 67.7617 140.98 67.7617 136C67.7617 128.44 61.7017 123.76 55.7617 123.76ZM54.6217 125.56C56.1817 125.56 58.3417 126.46 59.6617 127.9C61.9417 130.54 62.6617 133.96 62.6617 137.08C62.6617 139.66 61.4617 143.38 59.9617 145C58.2817 146.68 56.9617 146.98 56.3017 146.98C53.4217 146.98 50.0017 144.82 48.5017 140.32C48.0217 138.82 47.7817 136.96 47.7817 134.98C47.7817 131.86 49.1617 128.74 50.7217 127.3C51.9817 126.22 53.3617 125.56 54.6217 125.56ZM72.4014 108.4C72.4014 108.64 72.5814 108.82 73.6014 109.54C74.9814 110.38 74.9814 110.74 75.0414 111.22C75.2214 112.84 75.2214 119.32 75.2214 123.76C75.2214 133.24 75.0414 139.54 74.8614 142C74.6214 145 74.5014 146.08 71.7414 146.68C71.0814 146.8 70.4214 147.1 70.4214 147.52C70.4214 148 70.9014 148.18 72.1014 148.18C73.3614 148.18 76.0014 148 77.3814 148C78.4614 148 81.0414 148.18 82.4814 148.18C83.2014 148.18 84.0414 147.94 84.0414 147.52C84.0414 147.16 83.5614 146.86 82.6614 146.62C80.0814 145.9 79.8414 145.18 79.6014 143.98C79.3014 142.36 79.4214 130.9 79.4214 122.14C79.4214 114.1 79.7814 107.32 79.9614 105.82C79.9614 105.58 79.6014 105.1 79.4214 105.22C77.8014 106.24 76.0014 106.6 73.2414 107.56C72.5814 107.74 72.4014 108.16 72.4014 108.4ZM84.2898 125.08C84.2898 125.44 84.6498 125.68 85.4898 125.98C87.4698 126.64 87.7698 127.24 88.3098 128.32C90.1698 132.1 93.8898 141.04 95.1498 144.58L96.0498 147.04C96.2898 147.58 96.0498 148.36 95.8698 149.2C95.4498 150.7 93.5298 155.98 92.9898 156.94C92.7498 157.54 92.6298 157.96 92.0898 157.96C91.4898 157.96 90.2298 157.9 89.9298 157.9C88.2498 157.9 87.2898 159.52 87.2898 160.54C87.2898 161.8 87.9498 163.48 89.9898 163.48C91.7298 163.48 92.8698 162.58 93.1098 161.8C95.0298 156.7 97.2498 150.52 99.3498 145.06C100.73 141.58 103.97 133.54 105.95 129.04C106.85 127.06 107.63 126.34 108.89 125.92C109.61 125.68 110.21 125.44 110.21 124.9C110.21 124.48 109.79 124.36 109.01 124.36C107.45 124.36 106.07 124.6 105.23 124.6C104.45 124.6 102.83 124.54 101.69 124.54C100.97 124.54 100.19 124.66 100.19 125.2C100.19 125.44 100.73 125.86 101.45 126.04C103.79 126.58 104.27 127.3 103.73 128.98C103.43 129.94 99.7098 139.66 98.9898 141.28C98.8098 141.64 98.5698 141.64 98.5098 141.52C98.0298 140.8 94.1898 131.38 93.2898 128.5C92.6898 126.94 92.8698 126.64 94.5498 126.16C95.5098 125.92 95.9298 125.56 95.9298 125.14C95.9298 124.66 95.0898 124.48 94.6098 124.48C93.8898 124.48 92.0898 124.6 90.4098 124.6C88.6698 124.6 87.2298 124.36 85.7298 124.36C84.4698 124.36 84.2898 124.84 84.2898 125.08ZM112.379 126.64C112.379 126.82 112.739 127.12 113.519 127.66C114.839 128.74 114.959 129.34 114.959 130C114.959 136.12 114.839 141.34 114.659 143.14C114.479 145.3 114.119 145.9 112.139 146.5C111.479 146.68 110.879 146.98 110.879 147.4C110.879 147.94 111.539 148.18 112.439 148.18C113.459 148.18 115.199 148 117.419 148C118.679 148 120.359 148.06 121.079 148.06C121.919 148.06 122.579 147.76 122.579 147.34C122.579 146.98 122.099 146.62 121.499 146.44C119.579 145.9 119.339 145.42 119.279 144.58C119.219 143.86 119.219 130.96 119.219 130.18C119.219 129.64 119.639 128.92 119.819 128.74C120.959 127.72 122.519 126.82 125.159 126.82C126.539 126.82 128.339 127.48 128.999 127.96C129.719 128.5 130.799 130.24 130.799 132.4C130.799 134.14 130.739 141.4 130.619 143.38C130.499 145.36 130.199 145.84 128.759 146.38C128.039 146.62 127.379 146.98 127.379 147.4C127.379 147.88 128.219 148.12 128.759 148.12C129.539 148.12 131.399 148 132.899 148C134.579 148 135.959 148.12 137.339 148.12C138.299 148.12 139.139 147.88 139.139 147.46C139.139 147.04 138.779 146.74 137.639 146.44C136.139 146.02 135.539 145.24 135.419 144.34C135.359 143.5 135.239 134.56 135.239 133.42C135.239 130.42 134.459 127.66 133.139 126.1C132.299 125.14 130.619 123.82 127.679 123.82C125.159 123.82 122.039 125.5 119.639 127.12C119.579 127.12 119.279 127.24 119.279 126.94C119.279 126.4 119.519 124.96 119.519 123.94C119.519 123.7 119.219 123.04 118.919 123.04C118.619 123.04 118.079 123.34 117.479 123.7C116.639 124.3 114.479 125.08 113.459 125.44C113.039 125.62 112.379 126.22 112.379 126.64ZM155.488 123.76C151.468 123.76 148.468 125.44 146.608 127.06C144.328 128.98 142.408 131.86 142.408 136.42C142.408 139.42 144.268 143.5 146.848 145.6C149.068 147.46 152.068 148.72 154.828 148.72C157.528 148.72 159.868 148.06 162.268 146.32C164.488 144.88 167.488 140.98 167.488 136C167.488 128.44 161.428 123.76 155.488 123.76ZM154.348 125.56C155.908 125.56 158.068 126.46 159.388 127.9C161.668 130.54 162.388 133.96 162.388 137.08C162.388 139.66 161.188 143.38 159.688 145C158.008 146.68 156.688 146.98 156.028 146.98C153.148 146.98 149.728 144.82 148.228 140.32C147.748 138.82 147.508 136.96 147.508 134.98C147.508 131.86 148.888 128.74 150.448 127.3C151.708 126.22 153.088 125.56 154.348 125.56ZM172.319 127C172.319 127.3 172.739 127.6 174.419 129.16C174.959 129.7 174.839 130.48 174.839 130.78C174.839 134.92 174.779 140.92 174.659 142.66C174.419 145.24 174.059 146.14 172.139 146.62C171.059 146.86 170.699 147.28 170.699 147.52C170.699 147.94 171.299 148.18 172.199 148.18C173.519 148.18 174.719 148 176.699 148C178.979 148 181.199 148.12 181.439 148.12C182.219 148.12 183.059 147.94 183.059 147.52C183.059 147.04 182.579 146.8 181.439 146.44C179.519 145.84 179.279 144.88 179.279 143.74C179.279 139.18 179.279 131.62 179.399 130.06C179.459 129.4 179.639 128.92 180.059 128.56C181.499 127.42 182.879 126.7 184.859 126.7C187.019 126.7 188.579 127.48 189.359 128.5C189.779 129.04 190.139 129.82 190.139 131.56V143.32C190.139 145.48 189.899 146.08 187.859 146.56C186.899 146.8 186.659 147.22 186.659 147.4C186.659 147.64 186.839 148.12 188.219 148.12C189.479 148.12 191.219 148 192.479 148C193.859 148 195.659 148.12 196.979 148.12C197.939 148.12 198.419 147.82 198.419 147.4C198.419 147.1 197.819 146.74 197.159 146.56C195.119 146.08 194.819 145.48 194.639 143.56C194.519 142.24 194.639 130.9 194.639 130.48C194.639 130.06 195.059 128.92 195.239 128.74C196.079 128.02 197.159 126.88 199.859 126.88C202.379 126.88 203.699 127.84 204.419 128.98C205.019 130.06 205.379 130.9 205.379 133C205.379 134.98 205.499 141.7 205.499 143.14C205.499 145.24 205.259 145.96 203.339 146.56C202.679 146.74 202.019 146.98 202.019 147.34C202.019 147.76 202.379 148.12 203.519 148.12C204.899 148.12 205.799 148 207.599 148C209.099 148 210.719 148.18 211.919 148.18C213.059 148.18 213.599 147.94 213.599 147.52C213.599 147.16 213.239 146.92 212.459 146.68C210.299 146.08 209.939 144.94 209.879 143.86C209.879 138.94 209.999 134.74 209.759 131.62C209.639 129.46 209.099 127.36 207.779 125.86C206.519 124.54 204.839 123.82 202.619 123.82C201.539 123.82 200.159 124.12 198.779 124.78C197.219 125.56 195.659 126.52 194.519 127.36C194.279 127.48 194.159 127.36 194.039 127.12C193.799 126.7 193.199 125.8 192.119 125.02C191.039 124.24 189.599 123.82 187.439 123.82C184.619 123.82 180.899 126.1 179.399 127.3C179.159 127.54 179.039 127.12 179.039 126.94C179.039 126.34 179.279 124.66 179.279 123.82C179.279 123.7 178.859 123.28 178.559 123.22C178.439 123.22 178.319 123.28 178.079 123.46C177.419 123.88 174.719 125.44 173.519 125.92C172.859 126.28 172.319 126.64 172.319 127ZM223.534 148C224.794 148 227.794 148.18 228.214 148.18C228.874 148.18 229.594 147.94 229.594 147.58C229.594 147.16 229.234 146.86 228.274 146.56C226.774 146.08 225.454 145.96 225.394 144.04C225.334 141.94 225.274 139.42 225.274 136.06C225.274 132.64 225.634 124.84 225.634 124.18C225.634 124.12 225.334 123.52 225.094 123.52C224.194 123.76 221.374 125.08 219.154 125.56C218.494 125.68 217.954 126.16 217.954 126.58C217.954 126.82 218.074 127 218.434 127.24C220.174 128.5 220.834 128.98 220.894 129.4C221.014 130.12 220.954 136.96 220.954 138.76C220.954 140.5 220.894 144.1 220.714 144.94C220.594 145.54 219.694 146.26 218.314 146.62C217.294 146.92 216.874 147.22 216.874 147.58C216.874 148 217.474 148.24 218.434 148.24C219.454 148.24 221.554 148 223.534 148ZM223.414 111.58C222.574 111.58 221.674 111.82 221.074 112.36C220.594 113.02 220.354 113.98 220.354 114.52C220.354 115.54 220.774 116.2 221.254 116.74C221.794 117.22 222.754 117.46 223.174 117.46C224.374 117.46 226.054 116.14 226.054 114.52C226.054 113.44 225.034 111.58 223.414 111.58ZM242.91 123.76C241.77 123.76 239.07 124.78 237.33 126.04C234.51 127.9 232.83 129.58 232.83 131.32C232.83 131.62 233.19 132.1 233.55 132.1C233.85 132.1 236.85 130.6 237.45 130.12C237.57 130 237.81 129.64 237.81 129.46C237.69 128.26 237.87 127.18 238.23 127C238.65 126.7 239.43 126.34 240.69 126.34C243.63 126.34 245.37 128.86 245.37 130.36C245.37 131.08 245.31 134.74 245.25 135.28C245.25 135.64 244.89 135.94 243.51 136.36C242.19 136.78 237.39 138.1 236.49 138.46C235.59 138.88 234.69 139.18 234.09 139.96C233.43 140.8 232.95 141.94 232.95 143.02C232.95 146.02 234.99 148.6 237.09 148.6C237.39 148.6 238.83 148.48 239.49 148.24C240.09 148.06 242.67 147.04 244.89 145.48C245.01 145.42 245.25 145.66 245.25 145.72C245.97 147.94 247.71 148.72 249.09 148.72C251.79 148.72 254.49 146.14 254.49 145C254.49 144.94 254.49 144.58 254.31 144.4C254.19 144.22 254.13 144.1 253.95 144.22C253.29 144.7 251.91 145.12 251.67 145.12C251.19 145.12 249.27 144.88 249.27 142.12C249.27 141.46 249.51 133.9 249.51 131.56C249.51 129.04 249.21 127.84 248.31 126.58C247.41 125.26 245.91 123.76 242.91 123.76ZM241.11 145.48C239.85 145.48 237.33 144.52 237.33 141.88C237.33 140.44 237.93 140.02 238.53 139.6C240.15 138.82 243.03 137.8 244.71 137.8C244.95 137.8 245.19 138.1 245.19 138.28C245.19 139.48 245.19 141.52 245.07 142.96C245.07 143.08 244.71 144.22 244.35 144.46C243.21 145.06 242.01 145.48 241.11 145.48ZM257.382 108.4C257.382 108.64 257.562 108.82 258.582 109.54C259.962 110.38 259.962 110.74 260.022 111.22C260.202 112.84 260.202 119.32 260.202 123.76C260.202 133.24 260.022 139.54 259.842 142C259.602 145 259.482 146.08 256.722 146.68C256.062 146.8 255.402 147.1 255.402 147.52C255.402 148 255.882 148.18 257.082 148.18C258.342 148.18 260.982 148 262.362 148C263.442 148 266.022 148.18 267.462 148.18C268.182 148.18 269.022 147.94 269.022 147.52C269.022 147.16 268.542 146.86 267.642 146.62C265.062 145.9 264.822 145.18 264.582 143.98C264.282 142.36 264.402 130.9 264.402 122.14C264.402 114.1 264.762 107.32 264.942 105.82C264.942 105.58 264.582 105.1 264.402 105.22C262.782 106.24 260.982 106.6 258.222 107.56C257.562 107.74 257.382 108.16 257.382 108.4ZM292.623 123.76C290.583 123.76 288.963 124.3 287.823 125.02C285.543 126.4 284.523 128.38 284.523 130.42C284.523 133.24 286.443 135.34 288.243 136.48C290.103 137.68 290.463 137.98 291.903 139C293.763 140.14 294.603 141.4 294.603 143.02C294.603 144.16 294.123 145.6 293.223 146.32C292.563 146.8 291.603 147.22 290.823 147.22C288.663 147.22 287.043 146.02 285.363 142.96C285.003 142.3 284.583 141.58 284.103 141.58C283.743 141.58 283.623 142.18 283.623 142.84C283.623 144.58 284.343 147.1 284.523 147.4C285.543 148.24 288.543 148.72 290.343 148.72C292.203 148.72 294.303 148.06 295.383 147.34C296.883 146.26 298.863 144.22 298.863 141.46C298.863 138.76 297.543 136.72 294.183 134.74C290.163 132.52 288.243 130.96 288.243 128.92C288.243 127.66 289.383 125.2 291.843 125.2C293.823 125.2 295.323 126.4 296.643 129.22C296.943 129.88 297.303 130.24 297.543 130.24C298.023 130.24 298.263 129.7 298.263 129.16C298.263 128.74 298.083 126.7 298.083 125.62C298.083 125.26 297.723 124.84 297.603 124.78C297.483 124.72 296.343 124.24 295.683 124.12C295.023 123.94 293.763 123.76 292.623 123.76ZM309.081 148C310.341 148 313.341 148.18 313.761 148.18C314.421 148.18 315.141 147.94 315.141 147.58C315.141 147.16 314.781 146.86 313.821 146.56C312.321 146.08 311.001 145.96 310.941 144.04C310.881 141.94 310.821 139.42 310.821 136.06C310.821 132.64 311.181 124.84 311.181 124.18C311.181 124.12 310.881 123.52 310.641 123.52C309.741 123.76 306.921 125.08 304.701 125.56C304.041 125.68 303.501 126.16 303.501 126.58C303.501 126.82 303.621 127 303.981 127.24C305.721 128.5 306.381 128.98 306.441 129.4C306.561 130.12 306.501 136.96 306.501 138.76C306.501 140.5 306.441 144.1 306.261 144.94C306.141 145.54 305.241 146.26 303.861 146.62C302.841 146.92 302.421 147.22 302.421 147.58C302.421 148 303.021 148.24 303.981 148.24C305.001 148.24 307.101 148 309.081 148ZM308.961 111.58C308.121 111.58 307.221 111.82 306.621 112.36C306.141 113.02 305.901 113.98 305.901 114.52C305.901 115.54 306.321 116.2 306.801 116.74C307.341 117.22 308.301 117.46 308.721 117.46C309.921 117.46 311.601 116.14 311.601 114.52C311.601 113.44 310.581 111.58 308.961 111.58ZM328.217 124.6H322.757C321.677 124.6 320.357 124.12 319.637 123.58C319.577 123.52 319.337 123.52 318.977 123.82C318.797 124 318.797 124.24 318.797 124.3C318.797 125.32 318.557 126.82 318.197 128.02C317.897 128.92 317.717 129.52 317.717 130.06C317.717 130.54 318.077 131.08 318.317 131.08C318.737 131.08 319.037 130.48 319.217 130.12C320.237 128.44 322.217 126.34 322.757 126.34C325.577 126.34 330.077 126.58 330.497 126.7C330.737 126.76 330.797 127 330.677 127.18C327.857 131.74 323.657 138.58 321.917 140.98C320.117 143.62 317.717 147.04 317.717 147.4C317.717 147.7 318.257 148.24 318.497 148.24C319.877 148.18 321.437 148 324.077 148C326.957 148 335.597 148.3 336.017 148.3C336.257 148.3 336.797 147.82 336.797 147.58C337.217 145.42 338.237 142.48 338.417 141.58C338.477 141.22 338.417 140.44 337.937 140.44C337.697 140.44 337.217 140.98 336.677 141.76C335.657 143.2 334.577 144.46 333.737 145.3C333.257 145.78 332.897 146.02 332.297 146.02C329.897 146.02 325.097 145.72 324.617 145.54C324.437 145.48 324.197 145.18 324.437 144.94C326.957 140.86 331.997 132.64 333.617 130.24C335.117 128.02 336.197 126.82 337.217 125.44C337.397 125.2 337.277 124.72 337.037 124.54C336.797 124.36 336.797 124.36 336.557 124.36C335.237 124.3 332.597 124.6 328.217 124.6ZM353.213 123.82C352.193 123.82 350.213 124.18 348.653 124.9C343.973 127.06 341.453 131.86 341.453 136.66C341.453 143.68 345.773 148.6 352.253 148.6C355.673 148.6 358.853 147.16 360.953 144.1C361.133 143.8 361.373 143.14 361.373 142.66C361.373 142.36 361.253 141.94 360.893 141.94C360.653 141.94 360.353 142.3 360.113 142.66C359.093 144.16 357.293 144.82 354.653 144.82C351.773 144.82 349.253 143.32 347.933 141.52C346.613 139.78 345.653 137.02 345.653 134.68C345.653 134.08 345.773 133.06 345.953 132.58C346.013 132.4 346.253 132.1 346.433 132.1C349.193 132.16 359.453 132.16 360.113 132.16C360.773 132.16 361.253 131.5 361.253 131.14C361.253 129.04 360.473 127.36 359.153 126.1C357.653 124.6 355.313 123.82 353.213 123.82ZM352.613 125.38C354.773 125.38 356.573 127.3 356.573 128.98C356.573 130.18 355.973 130.48 354.533 130.48C351.533 130.54 348.353 130.54 346.793 130.48C346.673 130.48 346.433 130.12 346.553 129.82C347.633 127.06 349.913 125.38 352.613 125.38ZM390.522 123.94C388.902 123.94 385.002 124.78 382.662 126.46C379.182 128.8 376.842 132.46 376.842 136.84C376.842 139.36 377.682 142.18 378.702 143.86C380.622 146.68 383.802 148.66 387.582 148.66C390.702 148.66 394.122 147.28 396.222 144.94C396.702 144.46 397.002 143.86 397.002 143.2C397.002 142.9 396.522 142.72 395.862 143.2C394.302 144.28 392.742 145 390.522 145C387.402 145 384.462 143.5 382.962 140.98C382.722 140.62 381.402 138.46 381.402 134.98C381.402 132.34 382.302 129.88 383.922 128.08C384.882 126.88 386.682 126.04 387.642 126.04C389.682 126.04 390.702 126.94 392.682 128.38C393.642 129.04 394.662 129.52 395.022 129.52C395.262 129.52 397.002 128.08 397.002 127.12C397.002 126.76 396.702 125.74 396.102 125.32C394.962 124.42 392.322 123.94 390.522 123.94ZM406.698 148C407.958 148 410.958 148.18 411.378 148.18C412.038 148.18 412.758 147.94 412.758 147.58C412.758 147.16 412.398 146.86 411.438 146.56C409.938 146.08 408.618 145.96 408.558 144.04C408.498 141.94 408.438 139.42 408.438 136.06C408.438 132.64 408.798 124.84 408.798 124.18C408.798 124.12 408.498 123.52 408.258 123.52C407.358 123.76 404.538 125.08 402.318 125.56C401.658 125.68 401.118 126.16 401.118 126.58C401.118 126.82 401.238 127 401.598 127.24C403.338 128.5 403.998 128.98 404.058 129.4C404.178 130.12 404.118 136.96 404.118 138.76C404.118 140.5 404.058 144.1 403.878 144.94C403.758 145.54 402.858 146.26 401.478 146.62C400.458 146.92 400.038 147.22 400.038 147.58C400.038 148 400.638 148.24 401.598 148.24C402.618 148.24 404.718 148 406.698 148ZM406.578 111.58C405.738 111.58 404.838 111.82 404.238 112.36C403.758 113.02 403.518 113.98 403.518 114.52C403.518 115.54 403.938 116.2 404.418 116.74C404.958 117.22 405.918 117.46 406.338 117.46C407.538 117.46 409.218 116.14 409.218 114.52C409.218 113.44 408.198 111.58 406.578 111.58ZM416.302 126.88C416.302 127.12 416.902 127.36 418.342 128.5C419.002 128.92 419.002 129.7 419.002 130.3V141.76C418.942 145.36 418.762 145.96 416.422 146.74C415.942 146.92 415.222 147.16 415.222 147.52C415.222 148 415.822 148.24 416.482 148.24C417.922 148.24 418.642 148 420.442 148C423.922 148 426.022 148.3 427.522 148.3C428.422 148.3 428.962 148.06 428.962 147.76C428.962 147.52 428.842 147.1 427.882 146.8L425.122 146.08C424.042 145.9 423.682 144.76 423.562 143.02C423.502 142.12 423.202 131.26 423.202 130.06C423.202 129.76 423.382 129.22 423.802 128.74C424.402 128.08 425.422 127.9 426.442 127.9C427.642 127.9 429.082 128.62 429.742 129.22C429.922 129.34 430.462 129.46 430.582 129.4C430.942 129.22 432.382 127.6 433.042 126.64C433.222 126.34 433.402 125.92 433.402 125.8C433.402 125.26 432.862 123.76 430.402 123.76C428.542 123.76 425.902 125.26 423.562 127.48C423.442 127.54 423.142 127.48 423.142 127.24C423.142 126.1 423.262 125.02 423.262 123.94C423.262 123.76 422.962 123.22 422.722 123.22C422.542 123.22 422.242 123.46 421.522 123.94C420.922 124.3 419.062 125.2 417.082 125.86C416.422 126.1 416.302 126.7 416.302 126.88ZM448.764 123.94C447.144 123.94 443.244 124.78 440.904 126.46C437.424 128.8 435.084 132.46 435.084 136.84C435.084 139.36 435.924 142.18 436.944 143.86C438.864 146.68 442.044 148.66 445.824 148.66C448.944 148.66 452.364 147.28 454.464 144.94C454.944 144.46 455.244 143.86 455.244 143.2C455.244 142.9 454.764 142.72 454.104 143.2C452.544 144.28 450.984 145 448.764 145C445.644 145 442.704 143.5 441.204 140.98C440.964 140.62 439.644 138.46 439.644 134.98C439.644 132.34 440.544 129.88 442.164 128.08C443.124 126.88 444.924 126.04 445.884 126.04C447.924 126.04 448.944 126.94 450.924 128.38C451.884 129.04 452.904 129.52 453.264 129.52C453.504 129.52 455.244 128.08 455.244 127.12C455.244 126.76 454.944 125.74 454.344 125.32C453.204 124.42 450.564 123.94 448.764 123.94ZM471.42 145.72C469.98 145.72 468.9 145.72 467.34 144.52C466.5 143.92 465.84 142.54 465.84 141.16C465.84 138.46 466.08 127.12 466.02 125.08C466.02 124.72 465.78 124.18 465.54 124.18C465.3 124.18 460.86 124.84 459.18 124.84C458.46 124.84 458.16 125.2 458.16 125.38C458.16 125.92 458.7 126.22 459.24 126.46C460.26 126.88 461.4 127.12 461.46 128.8C461.58 131.98 461.58 138.76 461.58 143.08C461.58 144.04 462 145.24 462.42 145.9C463.62 147.76 465.54 148.72 467.7 148.72C469.38 148.72 470.7 148.42 471.72 148C472.5 147.7 474.9 146.14 476.64 144.94C476.76 144.88 476.94 145.06 476.94 145.36C476.88 146.38 476.7 147.52 476.7 147.88C476.7 148.3 477.06 148.72 477.3 148.72C477.42 148.72 478.38 148.48 479.4 148.18C480.78 147.82 483.3 147.16 484.86 147.04C485.1 147.04 485.52 146.62 485.52 146.44C485.46 146.26 485.04 145.3 484.8 145.3C484.08 145.3 482.22 145.6 481.8 145.6C481.32 145.6 481.08 144.88 481.08 144.76C481.08 139.84 481.56 126.52 481.68 124.84C481.68 124.6 481.56 123.94 481.26 123.94C480.84 123.94 480.42 124 479.82 124.18C478.44 124.54 475.8 124.84 473.4 124.84C472.8 124.84 472.02 125.14 472.02 125.38C472.02 125.86 472.8 126.22 473.22 126.34L475.98 127.06C476.34 127.18 477 128.02 477 128.38L476.88 142.18C476.88 142.42 476.34 143.32 475.98 143.62C474.48 144.94 472.86 145.72 471.42 145.72ZM494.823 148C496.083 148 499.083 148.18 499.503 148.18C500.163 148.18 500.883 147.94 500.883 147.58C500.883 147.16 500.523 146.86 499.563 146.56C498.063 146.08 496.743 145.96 496.683 144.04C496.623 141.94 496.563 139.42 496.563 136.06C496.563 132.64 496.923 124.84 496.923 124.18C496.923 124.12 496.623 123.52 496.383 123.52C495.483 123.76 492.663 125.08 490.443 125.56C489.783 125.68 489.243 126.16 489.243 126.58C489.243 126.82 489.363 127 489.723 127.24C491.463 128.5 492.123 128.98 492.183 129.4C492.303 130.12 492.243 136.96 492.243 138.76C492.243 140.5 492.183 144.1 492.003 144.94C491.883 145.54 490.983 146.26 489.603 146.62C488.583 146.92 488.163 147.22 488.163 147.58C488.163 148 488.763 148.24 489.723 148.24C490.743 148.24 492.843 148 494.823 148ZM494.703 111.58C493.863 111.58 492.963 111.82 492.363 112.36C491.883 113.02 491.643 113.98 491.643 114.52C491.643 115.54 492.063 116.2 492.543 116.74C493.083 117.22 494.043 117.46 494.463 117.46C495.663 117.46 497.343 116.14 497.343 114.52C497.343 113.44 496.323 111.58 494.703 111.58ZM511.559 124.6C511.319 124.6 511.079 124.3 511.079 124.12V121.3C511.079 121.18 510.539 120.64 510.239 120.64C509.999 120.64 509.579 121.12 508.859 121.96C508.019 122.98 506.159 124.42 504.059 126.1C503.879 126.28 503.699 126.52 503.699 126.76C503.699 126.94 504.059 127.24 504.539 127.42C505.739 127.78 506.819 128.2 506.819 128.62C506.819 130.72 506.579 139.72 506.579 141.94C506.579 143.62 506.699 144.88 507.359 145.9C508.079 147.22 510.179 148.72 512.639 148.72C515.339 148.72 517.439 147.64 519.059 146.08C519.479 145.66 519.899 145.06 519.899 144.58C519.899 144.04 519.599 143.92 519.539 143.92C519.299 143.92 519.179 143.98 518.639 144.28C517.739 144.82 516.479 145.18 515.699 145.18C514.439 145.18 513.179 145.06 512.039 144.04C511.379 143.38 511.019 142.6 511.019 141.1C511.019 138.22 511.079 129.4 511.139 128.2C511.139 128.08 511.379 127.78 511.679 127.78H518.219C518.639 127.78 519.779 127.66 519.779 127.12C519.779 126.34 519.599 124.66 519.599 124.84C519.599 124.66 518.999 124.36 518.939 124.36C518.699 124.36 512.879 124.6 511.559 124.6ZM531.745 123.76C529.705 123.76 528.085 124.3 526.945 125.02C524.665 126.4 523.645 128.38 523.645 130.42C523.645 133.24 525.565 135.34 527.365 136.48C529.225 137.68 529.585 137.98 531.025 139C532.885 140.14 533.725 141.4 533.725 143.02C533.725 144.16 533.245 145.6 532.345 146.32C531.685 146.8 530.725 147.22 529.945 147.22C527.785 147.22 526.165 146.02 524.485 142.96C524.125 142.3 523.705 141.58 523.225 141.58C522.865 141.58 522.745 142.18 522.745 142.84C522.745 144.58 523.465 147.1 523.645 147.4C524.665 148.24 527.665 148.72 529.465 148.72C531.325 148.72 533.425 148.06 534.505 147.34C536.005 146.26 537.985 144.22 537.985 141.46C537.985 138.76 536.665 136.72 533.305 134.74C529.285 132.52 527.365 130.96 527.365 128.92C527.365 127.66 528.505 125.2 530.965 125.2C532.945 125.2 534.445 126.4 535.765 129.22C536.065 129.88 536.425 130.24 536.665 130.24C537.145 130.24 537.385 129.7 537.385 129.16C537.385 128.74 537.205 126.7 537.205 125.62C537.205 125.26 536.845 124.84 536.725 124.78C536.605 124.72 535.465 124.24 534.805 124.12C534.145 123.94 532.885 123.76 531.745 123.76Z" fill="black"/>
<path id="31:740" d="M682.559 120.88C682.559 127.78 678.119 130.6 674.939 130.6H673.439C672.959 130.6 672.719 130.9 672.719 131.14C672.719 131.5 673.019 131.8 673.739 132.1C674.699 132.46 676.259 132.52 676.919 132.52C679.499 132.52 682.259 131.2 683.819 129.88C685.559 128.38 688.019 125.92 688.019 120.58C688.019 118.6 687.419 115.18 684.539 112.42C682.319 110.32 678.779 108.88 673.319 108.88C670.319 108.88 665.699 109.36 663.299 109.36C662.759 109.36 661.739 109.3 661.319 109.36C660.539 109.42 659.939 109.72 659.939 110.2C659.939 110.56 660.599 110.92 661.799 111.1C665.159 111.58 665.099 112.42 665.159 114.58C665.219 116.5 665.339 129.22 665.339 131.2C665.339 134.2 665.219 139.12 665.039 142.06C664.859 144.52 664.199 145.72 660.839 146.44C660.239 146.62 659.639 146.98 659.639 147.4C659.639 147.94 660.299 148.24 661.319 148.24C663.179 148.24 665.639 148 667.379 148C670.019 148 672.179 148.24 673.679 148.24C674.579 148.24 675.659 148.06 675.659 147.52C675.659 146.98 675.179 146.68 674.039 146.38C670.979 145.48 670.499 145 670.439 141.1C670.439 139.6 670.319 134.62 670.319 129.16C670.379 122.26 670.379 114.82 670.439 113.56C670.499 112.12 670.799 111.4 671.039 111.22C671.519 110.92 672.119 110.68 672.779 110.68C678.419 110.68 682.559 115.42 682.559 120.88ZM703.301 123.76C699.281 123.76 696.281 125.44 694.421 127.06C692.141 128.98 690.221 131.86 690.221 136.42C690.221 139.42 692.081 143.5 694.661 145.6C696.881 147.46 699.881 148.72 702.641 148.72C705.341 148.72 707.681 148.06 710.081 146.32C712.301 144.88 715.301 140.98 715.301 136C715.301 128.44 709.241 123.76 703.301 123.76ZM702.161 125.56C703.721 125.56 705.881 126.46 707.201 127.9C709.481 130.54 710.201 133.96 710.201 137.08C710.201 139.66 709.001 143.38 707.501 145C705.821 146.68 704.501 146.98 703.841 146.98C700.961 146.98 697.541 144.82 696.041 140.32C695.561 138.82 695.321 136.96 695.321 134.98C695.321 131.86 696.701 128.74 698.261 127.3C699.521 126.22 700.901 125.56 702.161 125.56ZM719.94 108.4C719.94 108.64 720.12 108.82 721.14 109.54C722.52 110.38 722.52 110.74 722.58 111.22C722.76 112.84 722.76 119.32 722.76 123.76C722.76 133.24 722.58 139.54 722.4 142C722.16 145 722.04 146.08 719.28 146.68C718.62 146.8 717.96 147.1 717.96 147.52C717.96 148 718.44 148.18 719.64 148.18C720.9 148.18 723.54 148 724.92 148C726 148 728.58 148.18 730.02 148.18C730.74 148.18 731.58 147.94 731.58 147.52C731.58 147.16 731.1 146.86 730.2 146.62C727.62 145.9 727.38 145.18 727.14 143.98C726.84 142.36 726.96 130.9 726.96 122.14C726.96 114.1 727.32 107.32 727.5 105.82C727.5 105.58 727.14 105.1 726.96 105.22C725.34 106.24 723.54 106.6 720.78 107.56C720.12 107.74 719.94 108.16 719.94 108.4ZM731.829 125.08C731.829 125.44 732.189 125.68 733.029 125.98C735.009 126.64 735.309 127.24 735.849 128.32C737.709 132.1 741.429 141.04 742.689 144.58L743.589 147.04C743.829 147.58 743.589 148.36 743.409 149.2C742.989 150.7 741.069 155.98 740.529 156.94C740.289 157.54 740.169 157.96 739.629 157.96C739.029 157.96 737.769 157.9 737.469 157.9C735.789 157.9 734.829 159.52 734.829 160.54C734.829 161.8 735.489 163.48 737.529 163.48C739.269 163.48 740.409 162.58 740.649 161.8C742.569 156.7 744.789 150.52 746.889 145.06C748.269 141.58 751.509 133.54 753.489 129.04C754.389 127.06 755.169 126.34 756.429 125.92C757.149 125.68 757.749 125.44 757.749 124.9C757.749 124.48 757.329 124.36 756.549 124.36C754.989 124.36 753.609 124.6 752.769 124.6C751.989 124.6 750.369 124.54 749.229 124.54C748.509 124.54 747.729 124.66 747.729 125.2C747.729 125.44 748.269 125.86 748.989 126.04C751.329 126.58 751.809 127.3 751.269 128.98C750.969 129.94 747.249 139.66 746.529 141.28C746.349 141.64 746.109 141.64 746.049 141.52C745.569 140.8 741.729 131.38 740.829 128.5C740.229 126.94 740.409 126.64 742.089 126.16C743.049 125.92 743.469 125.56 743.469 125.14C743.469 124.66 742.629 124.48 742.149 124.48C741.429 124.48 739.629 124.6 737.949 124.6C736.209 124.6 734.769 124.36 733.269 124.36C732.009 124.36 731.829 124.84 731.829 125.08ZM759.918 126.64C759.918 126.82 760.278 127.12 761.058 127.66C762.378 128.74 762.498 129.34 762.498 130C762.498 136.12 762.378 141.34 762.198 143.14C762.018 145.3 761.658 145.9 759.678 146.5C759.018 146.68 758.418 146.98 758.418 147.4C758.418 147.94 759.078 148.18 759.978 148.18C760.998 148.18 762.738 148 764.958 148C766.218 148 767.898 148.06 768.618 148.06C769.458 148.06 770.118 147.76 770.118 147.34C770.118 146.98 769.638 146.62 769.038 146.44C767.118 145.9 766.878 145.42 766.818 144.58C766.758 143.86 766.758 130.96 766.758 130.18C766.758 129.64 767.178 128.92 767.358 128.74C768.498 127.72 770.058 126.82 772.698 126.82C774.078 126.82 775.878 127.48 776.538 127.96C777.258 128.5 778.338 130.24 778.338 132.4C778.338 134.14 778.278 141.4 778.158 143.38C778.038 145.36 777.738 145.84 776.298 146.38C775.578 146.62 774.918 146.98 774.918 147.4C774.918 147.88 775.758 148.12 776.298 148.12C777.078 148.12 778.938 148 780.438 148C782.118 148 783.498 148.12 784.878 148.12C785.838 148.12 786.678 147.88 786.678 147.46C786.678 147.04 786.318 146.74 785.178 146.44C783.678 146.02 783.078 145.24 782.958 144.34C782.898 143.5 782.778 134.56 782.778 133.42C782.778 130.42 781.998 127.66 780.678 126.1C779.838 125.14 778.158 123.82 775.218 123.82C772.698 123.82 769.578 125.5 767.178 127.12C767.118 127.12 766.818 127.24 766.818 126.94C766.818 126.4 767.058 124.96 767.058 123.94C767.058 123.7 766.758 123.04 766.458 123.04C766.158 123.04 765.618 123.34 765.018 123.7C764.178 124.3 762.018 125.08 760.998 125.44C760.578 125.62 759.918 126.22 759.918 126.64ZM803.027 123.76C799.007 123.76 796.007 125.44 794.147 127.06C791.867 128.98 789.947 131.86 789.947 136.42C789.947 139.42 791.807 143.5 794.387 145.6C796.607 147.46 799.607 148.72 802.367 148.72C805.067 148.72 807.407 148.06 809.807 146.32C812.027 144.88 815.027 140.98 815.027 136C815.027 128.44 808.967 123.76 803.027 123.76ZM801.887 125.56C803.447 125.56 805.607 126.46 806.927 127.9C809.207 130.54 809.927 133.96 809.927 137.08C809.927 139.66 808.727 143.38 807.227 145C805.547 146.68 804.227 146.98 803.567 146.98C800.687 146.98 797.267 144.82 795.767 140.32C795.287 138.82 795.047 136.96 795.047 134.98C795.047 131.86 796.427 128.74 797.987 127.3C799.247 126.22 800.627 125.56 801.887 125.56ZM819.858 127C819.858 127.3 820.278 127.6 821.958 129.16C822.498 129.7 822.378 130.48 822.378 130.78C822.378 134.92 822.318 140.92 822.198 142.66C821.958 145.24 821.598 146.14 819.678 146.62C818.598 146.86 818.238 147.28 818.238 147.52C818.238 147.94 818.838 148.18 819.738 148.18C821.058 148.18 822.258 148 824.238 148C826.518 148 828.738 148.12 828.978 148.12C829.758 148.12 830.598 147.94 830.598 147.52C830.598 147.04 830.118 146.8 828.978 146.44C827.058 145.84 826.818 144.88 826.818 143.74C826.818 139.18 826.818 131.62 826.938 130.06C826.998 129.4 827.178 128.92 827.598 128.56C829.038 127.42 830.418 126.7 832.398 126.7C834.558 126.7 836.118 127.48 836.898 128.5C837.318 129.04 837.678 129.82 837.678 131.56V143.32C837.678 145.48 837.438 146.08 835.398 146.56C834.438 146.8 834.198 147.22 834.198 147.4C834.198 147.64 834.378 148.12 835.758 148.12C837.018 148.12 838.758 148 840.018 148C841.398 148 843.198 148.12 844.518 148.12C845.478 148.12 845.958 147.82 845.958 147.4C845.958 147.1 845.358 146.74 844.698 146.56C842.658 146.08 842.358 145.48 842.178 143.56C842.058 142.24 842.178 130.9 842.178 130.48C842.178 130.06 842.598 128.92 842.778 128.74C843.618 128.02 844.698 126.88 847.398 126.88C849.918 126.88 851.238 127.84 851.958 128.98C852.558 130.06 852.918 130.9 852.918 133C852.918 134.98 853.038 141.7 853.038 143.14C853.038 145.24 852.798 145.96 850.878 146.56C850.218 146.74 849.558 146.98 849.558 147.34C849.558 147.76 849.918 148.12 851.058 148.12C852.438 148.12 853.338 148 855.138 148C856.638 148 858.258 148.18 859.458 148.18C860.598 148.18 861.138 147.94 861.138 147.52C861.138 147.16 860.778 146.92 859.998 146.68C857.838 146.08 857.478 144.94 857.418 143.86C857.418 138.94 857.538 134.74 857.298 131.62C857.178 129.46 856.638 127.36 855.318 125.86C854.058 124.54 852.378 123.82 850.158 123.82C849.078 123.82 847.698 124.12 846.318 124.78C844.758 125.56 843.198 126.52 842.058 127.36C841.818 127.48 841.698 127.36 841.578 127.12C841.338 126.7 840.738 125.8 839.658 125.02C838.578 124.24 837.138 123.82 834.978 123.82C832.158 123.82 828.438 126.1 826.938 127.3C826.698 127.54 826.578 127.12 826.578 126.94C826.578 126.34 826.818 124.66 826.818 123.82C826.818 123.7 826.398 123.28 826.098 123.22C825.978 123.22 825.858 123.28 825.618 123.46C824.958 123.88 822.258 125.44 821.058 125.92C820.398 126.28 819.858 126.64 819.858 127ZM871.073 148C872.333 148 875.333 148.18 875.753 148.18C876.413 148.18 877.133 147.94 877.133 147.58C877.133 147.16 876.773 146.86 875.813 146.56C874.313 146.08 872.993 145.96 872.933 144.04C872.873 141.94 872.813 139.42 872.813 136.06C872.813 132.64 873.173 124.84 873.173 124.18C873.173 124.12 872.873 123.52 872.633 123.52C871.733 123.76 868.913 125.08 866.693 125.56C866.033 125.68 865.493 126.16 865.493 126.58C865.493 126.82 865.613 127 865.973 127.24C867.713 128.5 868.373 128.98 868.433 129.4C868.553 130.12 868.493 136.96 868.493 138.76C868.493 140.5 868.433 144.1 868.253 144.94C868.133 145.54 867.233 146.26 865.853 146.62C864.833 146.92 864.413 147.22 864.413 147.58C864.413 148 865.013 148.24 865.973 148.24C866.993 148.24 869.093 148 871.073 148ZM870.953 111.58C870.113 111.58 869.213 111.82 868.613 112.36C868.133 113.02 867.893 113.98 867.893 114.52C867.893 115.54 868.313 116.2 868.793 116.74C869.333 117.22 870.293 117.46 870.713 117.46C871.913 117.46 873.593 116.14 873.593 114.52C873.593 113.44 872.573 111.58 870.953 111.58ZM890.449 123.76C889.309 123.76 886.609 124.78 884.869 126.04C882.049 127.9 880.369 129.58 880.369 131.32C880.369 131.62 880.729 132.1 881.089 132.1C881.389 132.1 884.389 130.6 884.989 130.12C885.109 130 885.349 129.64 885.349 129.46C885.229 128.26 885.409 127.18 885.769 127C886.189 126.7 886.969 126.34 888.229 126.34C891.169 126.34 892.909 128.86 892.909 130.36C892.909 131.08 892.849 134.74 892.789 135.28C892.789 135.64 892.429 135.94 891.049 136.36C889.729 136.78 884.929 138.1 884.029 138.46C883.129 138.88 882.229 139.18 881.629 139.96C880.969 140.8 880.489 141.94 880.489 143.02C880.489 146.02 882.529 148.6 884.629 148.6C884.929 148.6 886.369 148.48 887.029 148.24C887.629 148.06 890.209 147.04 892.429 145.48C892.549 145.42 892.789 145.66 892.789 145.72C893.509 147.94 895.249 148.72 896.629 148.72C899.329 148.72 902.029 146.14 902.029 145C902.029 144.94 902.029 144.58 901.849 144.4C901.729 144.22 901.669 144.1 901.489 144.22C900.829 144.7 899.449 145.12 899.209 145.12C898.729 145.12 896.809 144.88 896.809 142.12C896.809 141.46 897.049 133.9 897.049 131.56C897.049 129.04 896.749 127.84 895.849 126.58C894.949 125.26 893.449 123.76 890.449 123.76ZM888.649 145.48C887.389 145.48 884.869 144.52 884.869 141.88C884.869 140.44 885.469 140.02 886.069 139.6C887.689 138.82 890.569 137.8 892.249 137.8C892.489 137.8 892.729 138.1 892.729 138.28C892.729 139.48 892.729 141.52 892.609 142.96C892.609 143.08 892.249 144.22 891.889 144.46C890.749 145.06 889.549 145.48 888.649 145.48ZM904.921 108.4C904.921 108.64 905.101 108.82 906.121 109.54C907.501 110.38 907.501 110.74 907.561 111.22C907.741 112.84 907.741 119.32 907.741 123.76C907.741 133.24 907.561 139.54 907.381 142C907.141 145 907.021 146.08 904.261 146.68C903.601 146.8 902.941 147.1 902.941 147.52C902.941 148 903.421 148.18 904.621 148.18C905.881 148.18 908.521 148 909.901 148C910.981 148 913.561 148.18 915.001 148.18C915.721 148.18 916.561 147.94 916.561 147.52C916.561 147.16 916.081 146.86 915.181 146.62C912.601 145.9 912.361 145.18 912.121 143.98C911.821 142.36 911.941 130.9 911.941 122.14C911.941 114.1 912.301 107.32 912.481 105.82C912.481 105.58 912.121 105.1 911.941 105.22C910.321 106.24 908.521 106.6 905.761 107.56C905.101 107.74 904.921 108.16 904.921 108.4ZM940.163 123.76C938.123 123.76 936.503 124.3 935.363 125.02C933.083 126.4 932.063 128.38 932.063 130.42C932.063 133.24 933.983 135.34 935.783 136.48C937.643 137.68 938.003 137.98 939.443 139C941.303 140.14 942.143 141.4 942.143 143.02C942.143 144.16 941.663 145.6 940.763 146.32C940.103 146.8 939.143 147.22 938.363 147.22C936.203 147.22 934.583 146.02 932.903 142.96C932.543 142.3 932.123 141.58 931.643 141.58C931.283 141.58 931.163 142.18 931.163 142.84C931.163 144.58 931.883 147.1 932.063 147.4C933.083 148.24 936.083 148.72 937.882 148.72C939.743 148.72 941.843 148.06 942.923 147.34C944.423 146.26 946.403 144.22 946.403 141.46C946.403 138.76 945.083 136.72 941.723 134.74C937.703 132.52 935.783 130.96 935.783 128.92C935.783 127.66 936.923 125.2 939.383 125.2C941.363 125.2 942.863 126.4 944.183 129.22C944.482 129.88 944.843 130.24 945.083 130.24C945.563 130.24 945.803 129.7 945.803 129.16C945.803 128.74 945.623 126.7 945.623 125.62C945.623 125.26 945.263 124.84 945.143 124.78C945.023 124.72 943.883 124.24 943.223 124.12C942.563 123.94 941.303 123.76 940.163 123.76ZM956.62 148C957.88 148 960.88 148.18 961.3 148.18C961.96 148.18 962.68 147.94 962.68 147.58C962.68 147.16 962.32 146.86 961.36 146.56C959.86 146.08 958.54 145.96 958.48 144.04C958.42 141.94 958.36 139.42 958.36 136.06C958.36 132.64 958.72 124.84 958.72 124.18C958.72 124.12 958.42 123.52 958.18 123.52C957.28 123.76 954.46 125.08 952.24 125.56C951.58 125.68 951.04 126.16 951.04 126.58C951.04 126.82 951.16 127 951.52 127.24C953.26 128.5 953.92 128.98 953.98 129.4C954.1 130.12 954.04 136.96 954.04 138.76C954.04 140.5 953.98 144.1 953.8 144.94C953.68 145.54 952.78 146.26 951.4 146.62C950.38 146.92 949.96 147.22 949.96 147.58C949.96 148 950.56 148.24 951.52 148.24C952.54 148.24 954.64 148 956.62 148ZM956.5 111.58C955.66 111.58 954.76 111.82 954.16 112.36C953.68 113.02 953.44 113.98 953.44 114.52C953.44 115.54 953.86 116.2 954.34 116.74C954.88 117.22 955.84 117.46 956.26 117.46C957.46 117.46 959.14 116.14 959.14 114.52C959.14 113.44 958.12 111.58 956.5 111.58ZM975.756 124.6H970.296C969.216 124.6 967.896 124.12 967.176 123.58C967.116 123.52 966.876 123.52 966.516 123.82C966.336 124 966.336 124.24 966.336 124.3C966.336 125.32 966.096 126.82 965.736 128.02C965.436 128.92 965.256 129.52 965.256 130.06C965.256 130.54 965.616 131.08 965.856 131.08C966.276 131.08 966.576 130.48 966.756 130.12C967.776 128.44 969.756 126.34 970.296 126.34C973.116 126.34 977.616 126.58 978.036 126.7C978.276 126.76 978.336 127 978.216 127.18C975.396 131.74 971.196 138.58 969.456 140.98C967.656 143.62 965.256 147.04 965.256 147.4C965.256 147.7 965.796 148.24 966.036 148.24C967.416 148.18 968.976 148 971.616 148C974.496 148 983.136 148.3 983.556 148.3C983.796 148.3 984.336 147.82 984.336 147.58C984.756 145.42 985.776 142.48 985.956 141.58C986.016 141.22 985.956 140.44 985.476 140.44C985.236 140.44 984.756 140.98 984.216 141.76C983.196 143.2 982.116 144.46 981.276 145.3C980.796 145.78 980.436 146.02 979.836 146.02C977.436 146.02 972.636 145.72 972.156 145.54C971.976 145.48 971.736 145.18 971.976 144.94C974.496 140.86 979.536 132.64 981.156 130.24C982.656 128.02 983.736 126.82 984.756 125.44C984.936 125.2 984.816 124.72 984.576 124.54C984.336 124.36 984.336 124.36 984.096 124.36C982.776 124.3 980.136 124.6 975.756 124.6ZM1000.75 123.82C999.732 123.82 997.752 124.18 996.192 124.9C991.512 127.06 988.992 131.86 988.992 136.66C988.992 143.68 993.312 148.6 999.792 148.6C1003.21 148.6 1006.39 147.16 1008.49 144.1C1008.67 143.8 1008.91 143.14 1008.91 142.66C1008.91 142.36 1008.79 141.94 1008.43 141.94C1008.19 141.94 1007.89 142.3 1007.65 142.66C1006.63 144.16 1004.83 144.82 1002.19 144.82C999.312 144.82 996.792 143.32 995.472 141.52C994.152 139.78 993.192 137.02 993.192 134.68C993.192 134.08 993.312 133.06 993.492 132.58C993.552 132.4 993.792 132.1 993.972 132.1C996.732 132.16 1006.99 132.16 1007.65 132.16C1008.31 132.16 1008.79 131.5 1008.79 131.14C1008.79 129.04 1008.01 127.36 1006.69 126.1C1005.19 124.6 1002.85 123.82 1000.75 123.82ZM1000.15 125.38C1002.31 125.38 1004.11 127.3 1004.11 128.98C1004.11 130.18 1003.51 130.48 1002.07 130.48C999.072 130.54 995.892 130.54 994.332 130.48C994.212 130.48 993.972 130.12 994.092 129.82C995.172 127.06 997.452 125.38 1000.15 125.38ZM1038.06 123.94C1036.44 123.94 1032.54 124.78 1030.2 126.46C1026.72 128.8 1024.38 132.46 1024.38 136.84C1024.38 139.36 1025.22 142.18 1026.24 143.86C1028.16 146.68 1031.34 148.66 1035.12 148.66C1038.24 148.66 1041.66 147.28 1043.76 144.94C1044.24 144.46 1044.54 143.86 1044.54 143.2C1044.54 142.9 1044.06 142.72 1043.4 143.2C1041.84 144.28 1040.28 145 1038.06 145C1034.94 145 1032 143.5 1030.5 140.98C1030.26 140.62 1028.94 138.46 1028.94 134.98C1028.94 132.34 1029.84 129.88 1031.46 128.08C1032.42 126.88 1034.22 126.04 1035.18 126.04C1037.22 126.04 1038.24 126.94 1040.22 128.38C1041.18 129.04 1042.2 129.52 1042.56 129.52C1042.8 129.52 1044.54 128.08 1044.54 127.12C1044.54 126.76 1044.24 125.74 1043.64 125.32C1042.5 124.42 1039.86 123.94 1038.06 123.94ZM1054.24 148C1055.5 148 1058.5 148.18 1058.92 148.18C1059.58 148.18 1060.3 147.94 1060.3 147.58C1060.3 147.16 1059.94 146.86 1058.98 146.56C1057.48 146.08 1056.16 145.96 1056.1 144.04C1056.04 141.94 1055.98 139.42 1055.98 136.06C1055.98 132.64 1056.34 124.84 1056.34 124.18C1056.34 124.12 1056.04 123.52 1055.8 123.52C1054.9 123.76 1052.08 125.08 1049.86 125.56C1049.2 125.68 1048.66 126.16 1048.66 126.58C1048.66 126.82 1048.78 127 1049.14 127.24C1050.88 128.5 1051.54 128.98 1051.6 129.4C1051.72 130.12 1051.66 136.96 1051.66 138.76C1051.66 140.5 1051.6 144.1 1051.42 144.94C1051.3 145.54 1050.4 146.26 1049.02 146.62C1048 146.92 1047.58 147.22 1047.58 147.58C1047.58 148 1048.18 148.24 1049.14 148.24C1050.16 148.24 1052.26 148 1054.24 148ZM1054.12 111.58C1053.28 111.58 1052.38 111.82 1051.78 112.36C1051.3 113.02 1051.06 113.98 1051.06 114.52C1051.06 115.54 1051.48 116.2 1051.96 116.74C1052.5 117.22 1053.46 117.46 1053.88 117.46C1055.08 117.46 1056.76 116.14 1056.76 114.52C1056.76 113.44 1055.74 111.58 1054.12 111.58ZM1063.84 126.88C1063.84 127.12 1064.44 127.36 1065.88 128.5C1066.54 128.92 1066.54 129.7 1066.54 130.3V141.76C1066.48 145.36 1066.3 145.96 1063.96 146.74C1063.48 146.92 1062.76 147.16 1062.76 147.52C1062.76 148 1063.36 148.24 1064.02 148.24C1065.46 148.24 1066.18 148 1067.98 148C1071.46 148 1073.56 148.3 1075.06 148.3C1075.96 148.3 1076.5 148.06 1076.5 147.76C1076.5 147.52 1076.38 147.1 1075.42 146.8L1072.66 146.08C1071.58 145.9 1071.22 144.76 1071.1 143.02C1071.04 142.12 1070.74 131.26 1070.74 130.06C1070.74 129.76 1070.92 129.22 1071.34 128.74C1071.94 128.08 1072.96 127.9 1073.98 127.9C1075.18 127.9 1076.62 128.62 1077.28 129.22C1077.46 129.34 1078 129.46 1078.12 129.4C1078.48 129.22 1079.92 127.6 1080.58 126.64C1080.76 126.34 1080.94 125.92 1080.94 125.8C1080.94 125.26 1080.4 123.76 1077.94 123.76C1076.08 123.76 1073.44 125.26 1071.1 127.48C1070.98 127.54 1070.68 127.48 1070.68 127.24C1070.68 126.1 1070.8 125.02 1070.8 123.94C1070.8 123.76 1070.5 123.22 1070.26 123.22C1070.08 123.22 1069.78 123.46 1069.06 123.94C1068.46 124.3 1066.6 125.2 1064.62 125.86C1063.96 126.1 1063.84 126.7 1063.84 126.88ZM1096.3 123.94C1094.68 123.94 1090.78 124.78 1088.44 126.46C1084.96 128.8 1082.62 132.46 1082.62 136.84C1082.62 139.36 1083.46 142.18 1084.48 143.86C1086.4 146.68 1089.58 148.66 1093.36 148.66C1096.48 148.66 1099.9 147.28 1102 144.94C1102.48 144.46 1102.78 143.86 1102.78 143.2C1102.78 142.9 1102.3 142.72 1101.64 143.2C1100.08 144.28 1098.52 145 1096.3 145C1093.18 145 1090.24 143.5 1088.74 140.98C1088.5 140.62 1087.18 138.46 1087.18 134.98C1087.18 132.34 1088.08 129.88 1089.7 128.08C1090.66 126.88 1092.46 126.04 1093.42 126.04C1095.46 126.04 1096.48 126.94 1098.46 128.38C1099.42 129.04 1100.44 129.52 1100.8 129.52C1101.04 129.52 1102.78 128.08 1102.78 127.12C1102.78 126.76 1102.48 125.74 1101.88 125.32C1100.74 124.42 1098.1 123.94 1096.3 123.94ZM1118.96 145.72C1117.52 145.72 1116.44 145.72 1114.88 144.52C1114.04 143.92 1113.38 142.54 1113.38 141.16C1113.38 138.46 1113.62 127.12 1113.56 125.08C1113.56 124.72 1113.32 124.18 1113.08 124.18C1112.84 124.18 1108.4 124.84 1106.72 124.84C1106 124.84 1105.7 125.2 1105.7 125.38C1105.7 125.92 1106.24 126.22 1106.78 126.46C1107.8 126.88 1108.94 127.12 1109 128.8C1109.12 131.98 1109.12 138.76 1109.12 143.08C1109.12 144.04 1109.54 145.24 1109.96 145.9C1111.16 147.76 1113.08 148.72 1115.24 148.72C1116.92 148.72 1118.24 148.42 1119.26 148C1120.04 147.7 1122.44 146.14 1124.18 144.94C1124.3 144.88 1124.48 145.06 1124.48 145.36C1124.42 146.38 1124.24 147.52 1124.24 147.88C1124.24 148.3 1124.6 148.72 1124.84 148.72C1124.96 148.72 1125.92 148.48 1126.94 148.18C1128.32 147.82 1130.84 147.16 1132.4 147.04C1132.64 147.04 1133.06 146.62 1133.06 146.44C1133 146.26 1132.58 145.3 1132.34 145.3C1131.62 145.3 1129.76 145.6 1129.34 145.6C1128.86 145.6 1128.62 144.88 1128.62 144.76C1128.62 139.84 1129.1 126.52 1129.22 124.84C1129.22 124.6 1129.1 123.94 1128.8 123.94C1128.38 123.94 1127.96 124 1127.36 124.18C1125.98 124.54 1123.34 124.84 1120.94 124.84C1120.34 124.84 1119.56 125.14 1119.56 125.38C1119.56 125.86 1120.34 126.22 1120.76 126.34L1123.52 127.06C1123.88 127.18 1124.54 128.02 1124.54 128.38L1124.42 142.18C1124.42 142.42 1123.88 143.32 1123.52 143.62C1122.02 144.94 1120.4 145.72 1118.96 145.72ZM1142.36 148C1143.62 148 1146.62 148.18 1147.04 148.18C1147.7 148.18 1148.42 147.94 1148.42 147.58C1148.42 147.16 1148.06 146.86 1147.1 146.56C1145.6 146.08 1144.28 145.96 1144.22 144.04C1144.16 141.94 1144.1 139.42 1144.1 136.06C1144.1 132.64 1144.46 124.84 1144.46 124.18C1144.46 124.12 1144.16 123.52 1143.92 123.52C1143.02 123.76 1140.2 125.08 1137.98 125.56C1137.32 125.68 1136.78 126.16 1136.78 126.58C1136.78 126.82 1136.9 127 1137.26 127.24C1139 128.5 1139.66 128.98 1139.72 129.4C1139.84 130.12 1139.78 136.96 1139.78 138.76C1139.78 140.5 1139.72 144.1 1139.54 144.94C1139.42 145.54 1138.52 146.26 1137.14 146.62C1136.12 146.92 1135.7 147.22 1135.7 147.58C1135.7 148 1136.3 148.24 1137.26 148.24C1138.28 148.24 1140.38 148 1142.36 148ZM1142.24 111.58C1141.4 111.58 1140.5 111.82 1139.9 112.36C1139.42 113.02 1139.18 113.98 1139.18 114.52C1139.18 115.54 1139.6 116.2 1140.08 116.74C1140.62 117.22 1141.58 117.46 1142 117.46C1143.2 117.46 1144.88 116.14 1144.88 114.52C1144.88 113.44 1143.86 111.58 1142.24 111.58ZM1159.1 124.6C1158.86 124.6 1158.62 124.3 1158.62 124.12V121.3C1158.62 121.18 1158.08 120.64 1157.78 120.64C1157.54 120.64 1157.12 121.12 1156.4 121.96C1155.56 122.98 1153.7 124.42 1151.6 126.1C1151.42 126.28 1151.24 126.52 1151.24 126.76C1151.24 126.94 1151.6 127.24 1152.08 127.42C1153.28 127.78 1154.36 128.2 1154.36 128.62C1154.36 130.72 1154.12 139.72 1154.12 141.94C1154.12 143.62 1154.24 144.88 1154.9 145.9C1155.62 147.22 1157.72 148.72 1160.18 148.72C1162.88 148.72 1164.98 147.64 1166.6 146.08C1167.02 145.66 1167.44 145.06 1167.44 144.58C1167.44 144.04 1167.14 143.92 1167.08 143.92C1166.84 143.92 1166.72 143.98 1166.18 144.28C1165.28 144.82 1164.02 145.18 1163.24 145.18C1161.98 145.18 1160.72 145.06 1159.58 144.04C1158.92 143.38 1158.56 142.6 1158.56 141.1C1158.56 138.22 1158.62 129.4 1158.68 128.2C1158.68 128.08 1158.92 127.78 1159.22 127.78H1165.76C1166.18 127.78 1167.32 127.66 1167.32 127.12C1167.32 126.34 1167.14 124.66 1167.14 124.84C1167.14 124.66 1166.54 124.36 1166.48 124.36C1166.24 124.36 1160.42 124.6 1159.1 124.6ZM1179.28 123.76C1177.24 123.76 1175.62 124.3 1174.48 125.02C1172.2 126.4 1171.18 128.38 1171.18 130.42C1171.18 133.24 1173.1 135.34 1174.9 136.48C1176.76 137.68 1177.12 137.98 1178.56 139C1180.42 140.14 1181.26 141.4 1181.26 143.02C1181.26 144.16 1180.78 145.6 1179.88 146.32C1179.22 146.8 1178.26 147.22 1177.48 147.22C1175.32 147.22 1173.7 146.02 1172.02 142.96C1171.66 142.3 1171.24 141.58 1170.76 141.58C1170.4 141.58 1170.28 142.18 1170.28 142.84C1170.28 144.58 1171 147.1 1171.18 147.4C1172.2 148.24 1175.2 148.72 1177 148.72C1178.86 148.72 1180.96 148.06 1182.04 147.34C1183.54 146.26 1185.52 144.22 1185.52 141.46C1185.52 138.76 1184.2 136.72 1180.84 134.74C1176.82 132.52 1174.9 130.96 1174.9 128.92C1174.9 127.66 1176.04 125.2 1178.5 125.2C1180.48 125.2 1181.98 126.4 1183.3 129.22C1183.6 129.88 1183.96 130.24 1184.2 130.24C1184.68 130.24 1184.92 129.7 1184.92 129.16C1184.92 128.74 1184.74 126.7 1184.74 125.62C1184.74 125.26 1184.38 124.84 1184.26 124.78C1184.14 124.72 1183 124.24 1182.34 124.12C1181.68 123.94 1180.42 123.76 1179.28 123.76ZM777.305 195.76C773.285 195.76 770.285 197.44 768.425 199.06C766.145 200.98 764.225 203.86 764.225 208.42C764.225 211.42 766.085 215.5 768.665 217.6C770.885 219.46 773.885 220.72 776.645 220.72C779.345 220.72 781.685 220.06 784.085 218.32C786.305 216.88 789.305 212.98 789.305 208C789.305 200.44 783.245 195.76 777.305 195.76ZM776.165 197.56C777.725 197.56 779.885 198.46 781.205 199.9C783.485 202.54 784.205 205.96 784.205 209.08C784.205 211.66 783.005 215.38 781.505 217C779.825 218.68 778.505 218.98 777.845 218.98C774.965 218.98 771.545 216.82 770.045 212.32C769.565 210.82 769.325 208.96 769.325 206.98C769.325 203.86 770.705 200.74 772.265 199.3C773.525 198.22 774.905 197.56 776.165 197.56ZM801.69 196.6C801.51 196.6 801.33 196.3 801.33 196.06C801.33 188.2 801.87 184.96 803.31 182.44C804.39 180.7 805.59 179.98 807.03 179.98C808.59 179.98 810.09 180.82 811.23 181.84C812.07 182.68 812.43 183.04 812.85 183.04C813.21 183.04 813.63 182.98 813.93 182.86C814.77 182.56 815.55 181.18 815.55 180.34C815.55 179.62 815.13 178.78 814.53 178.3C813.57 177.52 811.95 177.16 810.69 177.16C808.41 177.16 806.25 177.82 803.85 179.62C801.21 181.54 799.71 183.7 798.45 186.7C797.37 189.28 797.07 192.04 796.95 195.64C796.95 195.94 796.59 196.3 796.17 196.66C794.79 197.74 793.29 198.4 793.23 198.64C793.05 199.06 793.47 199.66 793.77 199.66C794.43 199.54 795.69 199.54 796.29 199.54C796.53 199.54 796.89 199.72 796.89 201.76C796.89 205 796.83 212.2 796.77 214.66C796.71 217.36 796.65 217.96 794.07 218.68C793.41 218.92 792.81 219.34 792.81 219.64C792.81 220.06 793.47 220.3 794.31 220.3C794.91 220.3 798.15 220 800.31 220C801.81 220 804.57 220.12 805.29 220.12C806.01 220.12 806.85 220 806.85 219.4C806.85 219.16 806.49 218.68 805.47 218.5C802.11 217.96 801.69 217.42 801.45 215.32C801.33 214.3 801.15 201.16 801.27 199.96C801.27 199.84 801.57 199.48 801.69 199.48C802.35 199.48 808.29 199.66 808.71 199.66C809.01 199.66 809.61 199.24 809.61 199.06C809.61 197.8 809.19 196.54 808.77 196.54C808.53 196.54 805.35 196.6 801.69 196.6ZM831.94 195.76C829.9 195.76 828.28 196.3 827.14 197.02C824.86 198.4 823.84 200.38 823.84 202.42C823.84 205.24 825.76 207.34 827.56 208.48C829.42 209.68 829.78 209.98 831.22 211C833.08 212.14 833.92 213.4 833.92 215.02C833.92 216.16 833.44 217.6 832.54 218.32C831.88 218.8 830.92 219.22 830.14 219.22C827.98 219.22 826.36 218.02 824.68 214.96C824.32 214.3 823.9 213.58 823.42 213.58C823.06 213.58 822.94 214.18 822.94 214.84C822.94 216.58 823.66 219.1 823.84 219.4C824.86 220.24 827.86 220.72 829.66 220.72C831.52 220.72 833.62 220.06 834.7 219.34C836.2 218.26 838.18 216.22 838.18 213.46C838.18 210.76 836.86 208.72 833.5 206.74C829.48 204.52 827.56 202.96 827.56 200.92C827.56 199.66 828.7 197.2 831.16 197.2C833.14 197.2 834.64 198.4 835.96 201.22C836.26 201.88 836.62 202.24 836.86 202.24C837.34 202.24 837.58 201.7 837.58 201.16C837.58 200.74 837.4 198.7 837.4 197.62C837.4 197.26 837.04 196.84 836.92 196.78C836.8 196.72 835.66 196.24 835 196.12C834.34 195.94 833.08 195.76 831.94 195.76ZM842.651 199C842.651 199.3 843.071 199.6 844.751 201.16C845.291 201.7 845.171 202.48 845.171 202.78C845.171 206.92 845.111 212.92 844.991 214.66C844.751 217.24 844.391 218.14 842.471 218.62C841.391 218.86 841.031 219.28 841.031 219.52C841.031 219.94 841.631 220.18 842.531 220.18C843.851 220.18 845.051 220 847.031 220C849.311 220 851.531 220.12 851.771 220.12C852.551 220.12 853.391 219.94 853.391 219.52C853.391 219.04 852.911 218.8 851.771 218.44C849.851 217.84 849.611 216.88 849.611 215.74C849.611 211.18 849.611 203.62 849.731 202.06C849.791 201.4 849.971 200.92 850.391 200.56C851.831 199.42 853.211 198.7 855.191 198.7C857.351 198.7 858.911 199.48 859.691 200.5C860.111 201.04 860.471 201.82 860.471 203.56V215.32C860.471 217.48 860.231 218.08 858.191 218.56C857.231 218.8 856.991 219.22 856.991 219.4C856.991 219.64 857.171 220.12 858.551 220.12C859.811 220.12 861.551 220 862.811 220C864.191 220 865.991 220.12 867.311 220.12C868.271 220.12 868.751 219.82 868.751 219.4C868.751 219.1 868.151 218.74 867.491 218.56C865.451 218.08 865.151 217.48 864.971 215.56C864.851 214.24 864.971 202.9 864.971 202.48C864.971 202.06 865.391 200.92 865.571 200.74C866.411 200.02 867.491 198.88 870.191 198.88C872.711 198.88 874.031 199.84 874.751 200.98C875.351 202.06 875.711 202.9 875.711 205C875.711 206.98 875.831 213.7 875.831 215.14C875.831 217.24 875.591 217.96 873.671 218.56C873.011 218.74 872.351 218.98 872.351 219.34C872.351 219.76 872.711 220.12 873.851 220.12C875.231 220.12 876.131 220 877.931 220C879.431 220 881.051 220.18 882.251 220.18C883.391 220.18 883.931 219.94 883.931 219.52C883.931 219.16 883.571 218.92 882.791 218.68C880.631 218.08 880.271 216.94 880.211 215.86C880.211 210.94 880.331 206.74 880.091 203.62C879.971 201.46 879.431 199.36 878.111 197.86C876.851 196.54 875.171 195.82 872.951 195.82C871.871 195.82 870.491 196.12 869.111 196.78C867.551 197.56 865.991 198.52 864.851 199.36C864.611 199.48 864.491 199.36 864.371 199.12C864.131 198.7 863.531 197.8 862.451 197.02C861.371 196.24 859.931 195.82 857.771 195.82C854.951 195.82 851.231 198.1 849.731 199.3C849.491 199.54 849.371 199.12 849.371 198.94C849.371 198.34 849.611 196.66 849.611 195.82C849.611 195.7 849.191 195.28 848.891 195.22C848.771 195.22 848.651 195.28 848.411 195.46C847.751 195.88 845.051 197.44 843.851 197.92C843.191 198.28 842.651 198.64 842.651 199ZM897.011 195.76C895.871 195.76 893.171 196.78 891.431 198.04C888.611 199.9 886.931 201.58 886.931 203.32C886.931 203.62 887.291 204.1 887.651 204.1C887.951 204.1 890.951 202.6 891.551 202.12C891.671 202 891.911 201.64 891.911 201.46C891.791 200.26 891.971 199.18 892.331 199C892.751 198.7 893.531 198.34 894.791 198.34C897.731 198.34 899.471 200.86 899.471 202.36C899.471 203.08 899.411 206.74 899.351 207.28C899.351 207.64 898.991 207.94 897.611 208.36C896.291 208.78 891.491 210.1 890.591 210.46C889.691 210.88 888.791 211.18 888.191 211.96C887.531 212.8 887.051 213.94 887.051 215.02C887.051 218.02 889.091 220.6 891.191 220.6C891.491 220.6 892.931 220.48 893.591 220.24C894.191 220.06 896.771 219.04 898.991 217.48C899.111 217.42 899.351 217.66 899.351 217.72C900.071 219.94 901.811 220.72 903.191 220.72C905.891 220.72 908.591 218.14 908.591 217C908.591 216.94 908.591 216.58 908.411 216.4C908.291 216.22 908.231 216.1 908.051 216.22C907.391 216.7 906.011 217.12 905.771 217.12C905.291 217.12 903.371 216.88 903.371 214.12C903.371 213.46 903.611 205.9 903.611 203.56C903.611 201.04 903.311 199.84 902.411 198.58C901.511 197.26 900.011 195.76 897.011 195.76ZM895.211 217.48C893.951 217.48 891.431 216.52 891.431 213.88C891.431 212.44 892.031 212.02 892.631 211.6C894.251 210.82 897.131 209.8 898.811 209.8C899.051 209.8 899.291 210.1 899.291 210.28C899.291 211.48 899.291 213.52 899.171 214.96C899.171 215.08 898.811 216.22 898.451 216.46C897.311 217.06 896.111 217.48 895.211 217.48ZM911.483 180.4C911.483 180.64 911.663 180.82 912.683 181.54C914.063 182.38 914.063 182.74 914.123 183.22C914.303 184.84 914.303 191.32 914.303 195.76C914.303 205.24 914.123 211.54 913.943 214C913.703 217 913.583 218.08 910.823 218.68C910.163 218.8 909.503 219.1 909.503 219.52C909.503 220 909.983 220.18 911.183 220.18C912.443 220.18 915.083 220 916.463 220C917.543 220 920.123 220.18 921.563 220.18C922.283 220.18 923.123 219.94 923.123 219.52C923.123 219.16 922.643 218.86 921.743 218.62C919.163 217.9 918.923 217.18 918.683 215.98C918.383 214.36 918.503 202.9 918.503 194.14C918.503 186.1 918.863 179.32 919.043 177.82C919.043 177.58 918.683 177.1 918.503 177.22C916.883 178.24 915.083 178.6 912.323 179.56C911.663 179.74 911.483 180.16 911.483 180.4ZM926.483 180.4C926.483 180.64 926.663 180.82 927.683 181.54C929.063 182.38 929.063 182.74 929.123 183.22C929.303 184.84 929.303 191.32 929.303 195.76C929.303 205.24 929.123 211.54 928.943 214C928.703 217 928.583 218.08 925.823 218.68C925.163 218.8 924.503 219.1 924.503 219.52C924.503 220 924.983 220.18 926.183 220.18C927.443 220.18 930.083 220 931.463 220C932.543 220 935.123 220.18 936.563 220.18C937.283 220.18 938.123 219.94 938.123 219.52C938.123 219.16 937.643 218.86 936.743 218.62C934.163 217.9 933.923 217.18 933.683 215.98C933.383 214.36 933.503 202.9 933.503 194.14C933.503 186.1 933.863 179.32 934.043 177.82C934.043 177.58 933.683 177.1 933.503 177.22C931.883 178.24 930.083 178.6 927.323 179.56C926.663 179.74 926.483 180.16 926.483 180.4ZM966.825 195.76C965.205 195.76 961.665 196.36 958.905 198.04C955.965 199.78 952.545 203.2 952.545 209.08C952.545 212.08 953.505 215.14 955.425 217.3C957.285 219.28 960.045 220.6 962.925 220.6C964.905 220.6 967.965 220.06 970.725 217.6C970.845 217.6 971.085 217.72 971.085 217.96C971.085 218.8 970.965 219.88 970.965 220.42C970.965 220.72 971.385 221.2 971.625 221.2C971.925 221.2 972.405 221.08 973.785 220.6C974.925 220.18 978.045 219.58 979.185 219.4C979.485 219.34 980.205 218.32 980.205 217.9C980.205 217.84 980.085 217.54 979.845 217.54C979.245 217.6 977.265 218.02 976.605 218.02C976.245 218.02 975.765 217.78 975.645 215.56C975.645 214.42 975.525 213.46 975.525 201.88C975.525 183.52 975.765 181.36 976.065 178.18C976.125 177.64 975.765 177.22 975.585 177.22C975.345 177.22 975.165 177.28 974.805 177.4C973.245 178 970.065 178.9 968.685 179.08C968.325 179.14 967.665 179.86 967.665 180.1C967.665 180.22 967.725 180.34 968.265 180.64C971.025 182.08 971.025 182.8 971.085 183.1C971.265 184.54 971.445 193.72 971.145 195.34C971.085 195.64 970.905 196.06 970.665 196C969.945 195.88 968.985 195.76 966.825 195.76ZM964.605 197.74C965.805 197.74 968.085 198.4 969.765 200.08C970.485 200.8 971.025 201.88 971.085 202.36C971.265 205.18 971.325 208.48 971.265 212.32C971.205 214.24 970.425 216.16 970.305 216.28C969.225 217.06 967.845 217.72 965.925 217.72C960.765 217.72 957.405 212.2 957.405 207.4C957.405 204.04 958.785 200.98 959.925 199.84C961.005 198.76 962.685 197.74 964.605 197.74ZM994.306 195.82C993.286 195.82 991.306 196.18 989.746 196.9C985.066 199.06 982.546 203.86 982.546 208.66C982.546 215.68 986.866 220.6 993.346 220.6C996.766 220.6 999.946 219.16 1002.05 216.1C1002.23 215.8 1002.47 215.14 1002.47 214.66C1002.47 214.36 1002.35 213.94 1001.99 213.94C1001.75 213.94 1001.45 214.3 1001.21 214.66C1000.19 216.16 998.386 216.82 995.746 216.82C992.866 216.82 990.346 215.32 989.026 213.52C987.706 211.78 986.746 209.02 986.746 206.68C986.746 206.08 986.866 205.06 987.046 204.58C987.106 204.4 987.346 204.1 987.526 204.1C990.286 204.16 1000.55 204.16 1001.21 204.16C1001.87 204.16 1002.35 203.5 1002.35 203.14C1002.35 201.04 1001.57 199.36 1000.25 198.1C998.746 196.6 996.406 195.82 994.306 195.82ZM993.706 197.38C995.866 197.38 997.666 199.3 997.666 200.98C997.666 202.18 997.066 202.48 995.626 202.48C992.626 202.54 989.446 202.54 987.886 202.48C987.766 202.48 987.526 202.12 987.646 201.82C988.726 199.06 991.006 197.38 993.706 197.38ZM1021.9 195.88C1020.22 195.88 1018.42 196.18 1017.46 196.6C1016.62 196.96 1015 197.8 1013.56 198.76C1013.32 198.94 1013.08 198.7 1013.08 198.46C1013.14 197.5 1013.14 196.36 1013.26 195.4C1013.26 195.16 1012.78 194.68 1012.6 194.68C1012.48 194.68 1012 194.92 1011.4 195.22C1010.38 195.82 1007.74 197.08 1006.84 197.32C1006.6 197.38 1006 198.1 1006 198.4C1006 198.7 1006.72 199.24 1008.22 200.32C1008.4 200.44 1008.7 200.86 1008.7 203.38C1008.76 206.92 1008.7 211.42 1008.7 215.5C1008.7 221.62 1008.64 226.54 1008.52 228.52C1008.28 232.84 1007.98 233.38 1004.8 234.04C1003.84 234.22 1003.42 234.7 1003.42 234.94C1003.42 235.48 1004.32 235.72 1005.22 235.72C1007.02 235.72 1007.62 235.54 1009.06 235.54C1011.4 235.54 1014.88 235.84 1016.2 235.84C1016.98 235.84 1017.76 235.54 1017.76 235.06C1017.76 234.64 1017.28 234.34 1016.08 233.98C1013.8 233.26 1013.38 232.54 1013.2 230.98C1013.02 229.3 1012.96 226.84 1012.96 221.02C1012.96 220.72 1013.2 220.24 1013.38 220.24C1014.16 220.36 1015.36 220.48 1016.74 220.48C1019.44 220.48 1022.98 220 1026.28 217.42C1030.12 214.54 1031.38 210.1 1031.38 207.1C1031.38 203.8 1030 200.86 1028.56 199.24C1026.76 197.26 1024.06 195.88 1021.9 195.88ZM1018.78 198.94C1020.16 198.94 1022.62 199.78 1024.18 201.4C1026.64 204.1 1026.64 207.34 1026.64 208.72C1026.64 210.52 1025.56 215.02 1022.56 217.54C1021.72 218.26 1020.46 218.56 1019.8 218.56C1018.3 218.56 1015.42 217.54 1013.8 215.26C1013.38 214.72 1013.14 213.7 1013.02 212.62C1012.78 210.16 1012.84 203.62 1013.14 201.82C1013.32 200.74 1013.62 200.26 1013.92 200.02C1014.58 199.48 1016.26 198.94 1018.78 198.94ZM1043.14 196.6C1042.9 196.6 1042.66 196.3 1042.66 196.12V193.3C1042.66 193.18 1042.12 192.64 1041.82 192.64C1041.58 192.64 1041.16 193.12 1040.44 193.96C1039.6 194.98 1037.74 196.42 1035.64 198.1C1035.46 198.28 1035.28 198.52 1035.28 198.76C1035.28 198.94 1035.64 199.24 1036.12 199.42C1037.32 199.78 1038.4 200.2 1038.4 200.62C1038.4 202.72 1038.16 211.72 1038.16 213.94C1038.16 215.62 1038.28 216.88 1038.94 217.9C1039.66 219.22 1041.76 220.72 1044.22 220.72C1046.92 220.72 1049.02 219.64 1050.64 218.08C1051.06 217.66 1051.48 217.06 1051.48 216.58C1051.48 216.04 1051.18 215.92 1051.12 215.92C1050.88 215.92 1050.76 215.98 1050.22 216.28C1049.32 216.82 1048.06 217.18 1047.28 217.18C1046.02 217.18 1044.76 217.06 1043.62 216.04C1042.96 215.38 1042.6 214.6 1042.6 213.1C1042.6 210.22 1042.66 201.4 1042.72 200.2C1042.72 200.08 1042.96 199.78 1043.26 199.78H1049.8C1050.22 199.78 1051.36 199.66 1051.36 199.12C1051.36 198.34 1051.18 196.66 1051.18 196.84C1051.18 196.66 1050.58 196.36 1050.52 196.36C1050.28 196.36 1044.46 196.6 1043.14 196.6ZM1069.33 195.76C1066.81 195.76 1064.23 197.02 1061.77 199.24C1061.71 199.3 1061.35 199.24 1061.35 198.88C1061.35 197.14 1061.59 182.2 1062.19 177.88C1062.19 177.7 1062.07 177.22 1061.83 177.22C1061.47 177.22 1060.93 177.52 1060.69 177.64C1059.25 178.6 1056.55 179.2 1054.69 179.74C1054.57 179.8 1054.51 179.92 1054.51 180.04C1054.51 180.52 1054.87 181.12 1055.11 181.24C1056.79 182.32 1056.91 182.44 1057.09 184C1057.33 185.74 1057.27 195.88 1057.27 198.28C1057.27 204.34 1056.85 212.44 1056.67 214.96C1056.49 217.18 1055.89 217.84 1054.33 218.38C1053.07 218.74 1052.59 219.1 1052.59 219.4C1052.59 220 1053.43 220.18 1053.97 220.18C1054.99 220.18 1057.15 220 1058.53 220C1059.97 220 1062.97 220.12 1063.45 220.12C1064.29 220.12 1064.95 219.94 1064.95 219.4C1064.95 219.1 1064.47 218.68 1063.63 218.44C1062.25 218.08 1061.41 217.72 1061.29 215.74C1061.23 213.58 1061.23 205.78 1061.41 203.26C1061.47 201.4 1062.25 200.44 1062.37 200.32C1062.61 200.08 1064.59 198.94 1067.17 198.94C1069.51 198.94 1071.07 199.78 1072.03 200.92C1072.69 201.7 1072.99 203.62 1072.99 206.92C1072.99 207.88 1073.11 214.48 1072.99 215.62C1072.75 217.9 1072.57 218.08 1071.07 218.56C1070.35 218.74 1069.81 219.04 1069.81 219.4C1069.81 219.82 1070.11 220.12 1071.01 220.12C1072.75 220.12 1073.95 220 1075.33 220C1077.37 220 1078.03 220.18 1080.07 220.18C1081.21 220.18 1081.69 219.94 1081.69 219.4C1081.69 219.04 1081.21 218.68 1080.01 218.44C1078.45 218.08 1077.67 217.6 1077.67 216.1L1077.43 205C1077.43 202.42 1076.89 200.14 1075.69 198.52C1074.43 196.78 1072.33 195.76 1069.33 195.76Z" fill="black"/>
<rect id="31:741" opacity="0.5" x="660" y="283" width="526" height="394" fill="#FF0000"/>
</g>
</svg>
