<svg width="1280" height="960" viewBox="0 0 1280 960" fill="none" xmlns="http://www.w3.org/2000/svg">
<g id="Euler">
<rect width="1280" height="960" fill="white"/>
<g id="20:391" clip-path="url(#clip0)">
<g id="page1">
<path id="Vector" d="M397.416 393.654C397.416 393.549 397.416 393.479 396.818 392.882C393.306 389.334 391.339 383.538 391.339 376.373C391.339 369.559 392.99 363.693 397.064 359.549C397.416 359.232 397.416 359.162 397.416 359.057C397.416 358.846 397.24 358.776 397.099 358.776C396.643 358.776 393.763 361.305 392.042 364.747C390.25 368.295 389.442 372.053 389.442 376.373C389.442 379.499 389.934 383.679 391.761 387.437C393.833 391.652 396.713 393.935 397.099 393.935C397.24 393.935 397.416 393.865 397.416 393.654Z" fill="black"/>
<path id="Vector_2" d="M410.123 351.066C410.193 350.855 411.071 349.099 412.371 347.975C413.284 347.132 414.478 346.57 415.848 346.57C417.253 346.57 417.745 347.623 417.745 349.028C417.745 351.03 416.305 355.035 415.602 356.931C415.286 357.774 415.111 358.231 415.111 358.863C415.111 360.444 416.199 361.708 417.885 361.708C421.152 361.708 422.381 356.545 422.381 356.334C422.381 356.159 422.241 356.018 422.03 356.018C421.714 356.018 421.679 356.123 421.503 356.721C420.695 359.601 419.361 361.006 417.991 361.006C417.64 361.006 417.078 360.971 417.078 359.847C417.078 358.969 417.464 357.915 417.675 357.423C418.377 355.491 419.852 351.557 419.852 349.555C419.852 347.448 418.623 345.867 415.954 345.867C412.828 345.867 411.177 348.08 410.544 348.958C410.439 346.956 408.999 345.867 407.453 345.867C406.33 345.867 405.557 346.535 404.96 347.729C404.327 348.993 403.836 351.101 403.836 351.241C403.836 351.382 403.976 351.557 404.222 351.557C404.503 351.557 404.538 351.522 404.749 350.714C405.311 348.572 405.943 346.57 407.348 346.57C408.156 346.57 408.437 347.132 408.437 348.185C408.437 348.958 408.086 350.328 407.84 351.417L406.856 355.21C406.716 355.878 406.33 357.458 406.154 358.09C405.908 359.004 405.522 360.655 405.522 360.83C405.522 361.322 405.908 361.708 406.435 361.708C406.856 361.708 407.348 361.497 407.629 360.971C407.699 360.795 408.015 359.566 408.191 358.863L408.964 355.702L410.123 351.066Z" fill="black"/>
<path id="Vector_3" d="M445.237 353.243H454.931C455.423 353.243 456.055 353.243 456.055 352.611C456.055 351.944 455.458 351.944 454.931 351.944H445.237V342.249C445.237 341.758 445.237 341.125 444.605 341.125C443.937 341.125 443.937 341.723 443.937 342.249V351.944H434.243C433.751 351.944 433.119 351.944 433.119 352.576C433.119 353.243 433.716 353.243 434.243 353.243H443.937V362.938C443.937 363.429 443.937 364.062 444.57 364.062C445.237 364.062 445.237 363.465 445.237 362.938V353.243Z" fill="black"/>
<path id="Vector_4" d="M475.893 338.843C475.893 338.035 475.893 338 475.19 338C474.347 338.948 472.591 340.248 468.973 340.248V341.267C469.781 341.267 471.537 341.267 473.469 340.353V358.653C473.469 359.918 473.364 360.339 470.273 360.339H469.184V361.358C470.132 361.287 473.539 361.287 474.698 361.287C475.857 361.287 479.229 361.287 480.178 361.358V360.339H479.089C475.998 360.339 475.893 359.918 475.893 358.653V338.843Z" fill="black"/>
<path id="Vector_5" d="M482.973 375.637H402.887V377.042H482.973V375.637Z" fill="black"/>
<path id="Vector_6" d="M439.901 398.922C439.971 398.711 440.849 396.955 442.149 395.831C443.062 394.988 444.256 394.426 445.626 394.426C447.031 394.426 447.523 395.48 447.523 396.885C447.523 398.887 446.083 402.891 445.38 404.788C445.064 405.631 444.889 406.087 444.889 406.72C444.889 408.3 445.978 409.565 447.663 409.565C450.93 409.565 452.159 404.401 452.159 404.191C452.159 404.015 452.019 403.875 451.808 403.875C451.492 403.875 451.457 403.98 451.281 404.577C450.473 407.457 449.139 408.862 447.769 408.862C447.418 408.862 446.856 408.827 446.856 407.703C446.856 406.825 447.242 405.771 447.453 405.28C448.155 403.348 449.63 399.414 449.63 397.412C449.63 395.304 448.401 393.724 445.732 393.724C442.606 393.724 440.955 395.936 440.323 396.815C440.217 394.812 438.777 393.724 437.232 393.724C436.108 393.724 435.335 394.391 434.738 395.585C434.106 396.85 433.614 398.957 433.614 399.098C433.614 399.238 433.754 399.414 434 399.414C434.281 399.414 434.316 399.379 434.527 398.571C435.089 396.428 435.721 394.426 437.126 394.426C437.934 394.426 438.215 394.988 438.215 396.042C438.215 396.815 437.864 398.184 437.618 399.273L436.634 403.067C436.494 403.734 436.108 405.315 435.932 405.947C435.686 406.86 435.3 408.511 435.3 408.687C435.3 409.178 435.686 409.565 436.213 409.565C436.634 409.565 437.126 409.354 437.407 408.827C437.477 408.651 437.794 407.422 437.969 406.72L438.742 403.558L439.901 398.922Z" fill="black"/>
<path id="Vector_7" d="M496.39 376.373C496.39 373.704 496.039 369.348 494.072 365.274C492 361.059 489.12 358.776 488.733 358.776C488.593 358.776 488.417 358.846 488.417 359.057C488.417 359.162 488.417 359.232 489.014 359.83C492.527 363.377 494.494 369.173 494.494 376.338C494.494 383.152 492.843 389.018 488.768 393.163C488.417 393.479 488.417 393.549 488.417 393.654C488.417 393.865 488.593 393.935 488.733 393.935C489.19 393.935 492.07 391.406 493.791 387.964C495.583 384.381 496.39 380.588 496.39 376.373Z" fill="black"/>
<path id="Vector_8" d="M504.543 366.777C504.614 366.426 504.848 365.536 504.918 365.185C505.246 363.92 505.246 363.897 505.784 363.124C506.557 361.976 507.658 360.946 509.226 360.946C510.069 360.946 510.561 361.438 510.561 362.538C510.561 363.826 509.578 366.496 509.133 367.643C508.828 368.416 508.828 368.556 508.828 368.861C508.828 370.196 509.929 370.851 510.936 370.851C513.231 370.851 514.191 367.573 514.191 367.269C514.191 367.034 514.003 366.964 513.839 366.964C513.558 366.964 513.512 367.128 513.441 367.362C512.879 369.282 511.896 370.196 511.006 370.196C510.631 370.196 510.444 369.961 510.444 369.423C510.444 368.884 510.631 368.369 510.866 367.784C511.217 366.894 512.247 364.201 512.247 362.89C512.247 361.134 511.03 360.291 509.344 360.291C507.447 360.291 506.229 361.438 505.55 362.328C505.386 361.04 504.356 360.291 503.162 360.291C502.319 360.291 501.733 360.829 501.359 361.555C500.797 362.656 500.562 363.826 500.562 363.873C500.562 364.084 500.726 364.178 500.914 364.178C501.218 364.178 501.242 364.084 501.405 363.475C501.686 362.328 502.108 360.946 503.091 360.946C503.7 360.946 503.841 361.532 503.841 362.047C503.841 362.468 503.724 362.913 503.536 363.686C503.49 363.873 503.138 365.255 503.045 365.583L502.178 369.095C502.085 369.446 501.944 370.032 501.944 370.125C501.944 370.664 502.389 370.851 502.693 370.851C503.115 370.851 503.466 370.57 503.63 370.289C503.7 370.149 503.888 369.353 504.005 368.861L504.543 366.777Z" fill="black"/>
<path id="Vector_9" d="M589.862 377.041C587.93 378.517 586.982 379.957 586.701 380.413C585.12 382.837 584.839 385.05 584.839 385.085C584.839 385.506 585.261 385.506 585.542 385.506C586.139 385.506 586.174 385.436 586.315 384.804C587.122 381.362 589.195 378.411 593.164 376.795C593.585 376.655 593.691 376.585 593.691 376.339C593.691 376.093 593.48 375.988 593.41 375.952C591.864 375.355 587.614 373.599 586.28 367.698C586.174 367.277 586.139 367.171 585.542 367.171C585.261 367.171 584.839 367.171 584.839 367.593C584.839 367.663 585.156 369.876 586.631 372.229C587.333 373.283 588.352 374.512 589.862 375.636H563.765C563.133 375.636 562.5 375.636 562.5 376.339C562.5 377.041 563.133 377.041 563.765 377.041H589.862Z" fill="black"/>
<path id="Vector_10" d="M646.129 376.97C647.077 376.97 649.466 376.9 651.152 376.267C653.821 375.249 654.067 373.212 654.067 372.579C654.067 371.034 652.732 369.629 650.414 369.629C646.726 369.629 641.422 372.966 641.422 379.218C641.422 382.906 643.53 385.47 646.726 385.47C651.503 385.47 654.523 381.747 654.523 381.29C654.523 381.079 654.313 380.904 654.172 380.904C654.067 380.904 654.032 380.939 653.716 381.255C651.468 384.241 648.131 384.767 646.796 384.767C644.794 384.767 643.74 383.187 643.74 380.588C643.74 380.096 643.74 379.218 644.267 376.97H646.129ZM644.443 376.267C645.953 370.858 649.29 370.331 650.414 370.331C651.959 370.331 653.013 371.245 653.013 372.579C653.013 376.267 647.393 376.267 645.918 376.267H644.443Z" fill="black"/>
</g>
</g>
<g id="20:477" clip-path="url(#clip1)">
<g id="page1_2">
<path id="Vector_11" d="M333.416 641.654C333.416 641.549 333.416 641.479 332.818 640.882C329.306 637.334 327.339 631.538 327.339 624.373C327.339 617.559 328.99 611.693 333.064 607.549C333.416 607.232 333.416 607.162 333.416 607.057C333.416 606.846 333.24 606.776 333.099 606.776C332.643 606.776 329.763 609.305 328.042 612.747C326.25 616.295 325.442 620.053 325.442 624.373C325.442 627.499 325.934 631.679 327.761 635.437C329.833 639.652 332.713 641.935 333.099 641.935C333.24 641.935 333.416 641.865 333.416 641.654Z" fill="black"/>
<path id="Vector_12" d="M345.491 610.605C345.491 609.797 345.491 609.762 344.788 609.762C343.945 610.71 342.189 612.01 338.571 612.01V613.028C339.379 613.028 341.135 613.028 343.067 612.115V630.415C343.067 631.679 342.962 632.101 339.871 632.101H338.782V633.119C339.73 633.049 343.137 633.049 344.296 633.049C345.456 633.049 348.827 633.049 349.776 633.119V632.101H348.687C345.596 632.101 345.491 631.679 345.491 630.415V610.605Z" fill="black"/>
<path id="Vector_13" d="M383.523 625.042C384.12 625.042 384.752 625.042 384.752 624.339C384.752 623.637 384.12 623.637 383.523 623.637H364.521C363.924 623.637 363.292 623.637 363.292 624.339C363.292 625.042 363.924 625.042 364.521 625.042H383.523Z" fill="black"/>
<path id="Vector_14" d="M440.574 586.843C440.574 586.035 440.574 586 439.871 586C439.028 586.948 437.272 588.248 433.654 588.248V589.267C434.462 589.267 436.218 589.267 438.15 588.353V606.653C438.15 607.918 438.045 608.339 434.954 608.339H433.865V609.358C434.813 609.287 438.22 609.287 439.379 609.287C440.538 609.287 443.91 609.287 444.859 609.358V608.339H443.77C440.679 608.339 440.574 607.918 440.574 606.653V586.843Z" fill="black"/>
<path id="Vector_15" d="M479.099 623.637H399.013V625.042H479.099V623.637Z" fill="black"/>
<path id="Vector_16" d="M406.249 646.922C406.319 646.711 407.197 644.955 408.497 643.831C409.41 642.988 410.604 642.426 411.974 642.426C413.379 642.426 413.871 643.48 413.871 644.885C413.871 646.887 412.43 650.891 411.728 652.788C411.412 653.631 411.236 654.087 411.236 654.72C411.236 656.3 412.325 657.565 414.011 657.565C417.278 657.565 418.507 652.401 418.507 652.191C418.507 652.015 418.366 651.875 418.156 651.875C417.84 651.875 417.804 651.98 417.629 652.577C416.821 655.457 415.486 656.862 414.116 656.862C413.765 656.862 413.203 656.827 413.203 655.703C413.203 654.825 413.59 653.771 413.8 653.28C414.503 651.348 415.978 647.414 415.978 645.412C415.978 643.304 414.749 641.724 412.079 641.724C408.953 641.724 407.302 643.936 406.67 644.815C406.565 642.812 405.125 641.724 403.579 641.724C402.455 641.724 401.682 642.391 401.085 643.585C400.453 644.85 399.961 646.957 399.961 647.098C399.961 647.238 400.102 647.414 400.348 647.414C400.629 647.414 400.664 647.379 400.875 646.571C401.437 644.428 402.069 642.426 403.474 642.426C404.282 642.426 404.563 642.988 404.563 644.042C404.563 644.815 404.211 646.184 403.965 647.273L402.982 651.067C402.841 651.734 402.455 653.315 402.28 653.947C402.034 654.86 401.647 656.511 401.647 656.687C401.647 657.178 402.034 657.565 402.56 657.565C402.982 657.565 403.474 657.354 403.755 656.827C403.825 656.651 404.141 655.422 404.317 654.72L405.089 651.558L406.249 646.922Z" fill="black"/>
<path id="Vector_17" d="M441.363 649.1H451.057C451.549 649.1 452.181 649.1 452.181 648.468C452.181 647.8 451.584 647.8 451.057 647.8H441.363V638.106C441.363 637.614 441.363 636.982 440.73 636.982C440.063 636.982 440.063 637.579 440.063 638.106V647.8H430.369C429.877 647.8 429.245 647.8 429.245 648.432C429.245 649.1 429.842 649.1 430.369 649.1H440.063V658.794C440.063 659.286 440.063 659.918 440.695 659.918C441.363 659.918 441.363 659.321 441.363 658.794V649.1Z" fill="black"/>
<path id="Vector_18" d="M472.018 634.698C472.018 633.89 472.018 633.855 471.316 633.855C470.473 634.803 468.717 636.103 465.099 636.103V637.122C465.907 637.122 467.663 637.122 469.595 636.208V654.508C469.595 655.773 469.489 656.194 466.398 656.194H465.31V657.213C466.258 657.142 469.665 657.142 470.824 657.142C471.983 657.142 475.355 657.142 476.303 657.213V656.194H475.215C472.124 656.194 472.018 655.773 472.018 654.508V634.698Z" fill="black"/>
<path id="Vector_19" d="M492.516 624.373C492.516 621.704 492.165 617.348 490.198 613.274C488.126 609.059 485.245 606.776 484.859 606.776C484.718 606.776 484.543 606.846 484.543 607.057C484.543 607.162 484.543 607.232 485.14 607.83C488.652 611.377 490.619 617.173 490.619 624.338C490.619 631.152 488.969 637.018 484.894 641.163C484.543 641.479 484.543 641.549 484.543 641.654C484.543 641.865 484.718 641.935 484.859 641.935C485.316 641.935 488.196 639.406 489.917 635.964C491.708 632.381 492.516 628.588 492.516 624.373Z" fill="black"/>
<path id="Vector_20" d="M500.669 614.777C500.739 614.426 500.973 613.536 501.044 613.185C501.371 611.92 501.371 611.897 501.91 611.124C502.683 609.976 503.783 608.946 505.352 608.946C506.195 608.946 506.687 609.438 506.687 610.538C506.687 611.826 505.703 614.496 505.258 615.643C504.954 616.416 504.954 616.556 504.954 616.861C504.954 618.196 506.055 618.851 507.061 618.851C509.356 618.851 510.316 615.573 510.316 615.269C510.316 615.034 510.129 614.964 509.965 614.964C509.684 614.964 509.637 615.128 509.567 615.362C509.005 617.282 508.022 618.196 507.132 618.196C506.757 618.196 506.57 617.961 506.57 617.423C506.57 616.884 506.757 616.369 506.991 615.784C507.342 614.894 508.373 612.201 508.373 610.89C508.373 609.134 507.155 608.291 505.469 608.291C503.572 608.291 502.355 609.438 501.676 610.328C501.512 609.04 500.482 608.291 499.287 608.291C498.444 608.291 497.859 608.829 497.484 609.555C496.922 610.656 496.688 611.826 496.688 611.873C496.688 612.084 496.852 612.178 497.039 612.178C497.344 612.178 497.367 612.084 497.531 611.475C497.812 610.328 498.234 608.946 499.217 608.946C499.826 608.946 499.966 609.532 499.966 610.047C499.966 610.468 499.849 610.913 499.662 611.686C499.615 611.873 499.264 613.255 499.17 613.583L498.304 617.095C498.21 617.446 498.07 618.032 498.07 618.125C498.07 618.664 498.515 618.851 498.819 618.851C499.24 618.851 499.592 618.57 499.756 618.289C499.826 618.149 500.013 617.353 500.13 616.861L500.669 614.777Z" fill="black"/>
<path id="Vector_21" d="M585.988 625.041C584.056 626.517 583.108 627.957 582.827 628.413C581.246 630.837 580.965 633.05 580.965 633.085C580.965 633.506 581.387 633.506 581.668 633.506C582.265 633.506 582.3 633.436 582.44 632.804C583.248 629.362 585.32 626.411 589.289 624.795C589.711 624.655 589.816 624.585 589.816 624.339C589.816 624.093 589.606 623.988 589.535 623.952C587.99 623.355 583.74 621.599 582.405 615.698C582.3 615.277 582.265 615.171 581.668 615.171C581.387 615.171 580.965 615.171 580.965 615.593C580.965 615.663 581.281 617.876 582.756 620.229C583.459 621.283 584.477 622.512 585.988 623.636H559.89C559.258 623.636 558.626 623.636 558.626 624.339C558.626 625.041 559.258 625.041 559.89 625.041H585.988Z" fill="black"/>
<path id="Vector_22" d="M649.596 586.843C649.596 586.035 649.596 586 648.893 586C648.05 586.948 646.294 588.248 642.676 588.248V589.267C643.484 589.267 645.24 589.267 647.172 588.353V606.653C647.172 607.918 647.067 608.339 643.976 608.339H642.887V609.358C643.835 609.287 647.242 609.287 648.401 609.287C649.56 609.287 652.932 609.287 653.881 609.358V608.339H652.792C649.701 608.339 649.596 607.918 649.596 606.653V586.843Z" fill="black"/>
<path id="Vector_23" d="M656.676 623.637H639.48V625.042H656.676V623.637Z" fill="black"/>
<path id="Vector_24" d="M646.395 649.065C647.343 649.065 649.732 648.994 651.418 648.362C654.087 647.344 654.333 645.306 654.333 644.674C654.333 643.129 652.998 641.724 650.68 641.724C646.992 641.724 641.688 645.06 641.688 651.313C641.688 655.001 643.796 657.565 646.992 657.565C651.769 657.565 654.79 653.842 654.79 653.385C654.79 653.174 654.579 652.999 654.438 652.999C654.333 652.999 654.298 653.034 653.982 653.35C651.734 656.335 648.397 656.862 647.062 656.862C645.06 656.862 644.006 655.282 644.006 652.682C644.006 652.191 644.006 651.313 644.533 649.065H646.395ZM644.709 648.362C646.219 642.953 649.556 642.426 650.68 642.426C652.226 642.426 653.279 643.339 653.279 644.674C653.279 648.362 647.659 648.362 646.184 648.362H644.709Z" fill="black"/>
</g>
</g>
<g id="20:510" clip-path="url(#clip2)">
<g id="page1_3">
<path id="Vector_25" d="M328.416 776.654C328.416 776.549 328.416 776.479 327.818 775.882C324.306 772.334 322.339 766.538 322.339 759.373C322.339 752.559 323.99 746.693 328.064 742.549C328.416 742.232 328.416 742.162 328.416 742.057C328.416 741.846 328.24 741.776 328.099 741.776C327.643 741.776 324.763 744.305 323.042 747.747C321.25 751.295 320.442 755.053 320.442 759.373C320.442 762.499 320.934 766.679 322.761 770.437C324.833 774.652 327.713 776.935 328.099 776.935C328.24 776.935 328.416 776.865 328.416 776.654Z" fill="black"/>
<path id="Vector_26" d="M340.491 745.605C340.491 744.797 340.491 744.762 339.788 744.762C338.945 745.71 337.189 747.01 333.571 747.01V748.028C334.379 748.028 336.135 748.028 338.067 747.115V765.415C338.067 766.679 337.962 767.101 334.871 767.101H333.782V768.119C334.73 768.049 338.137 768.049 339.296 768.049C340.456 768.049 343.827 768.049 344.776 768.119V767.101H343.687C340.596 767.101 340.491 766.679 340.491 765.415V745.605Z" fill="black"/>
<path id="Vector_27" d="M378.523 760.042C379.12 760.042 379.752 760.042 379.752 759.339C379.752 758.637 379.12 758.637 378.523 758.637H359.521C358.924 758.637 358.292 758.637 358.292 759.339C358.292 760.042 358.924 760.042 359.521 760.042H378.523Z" fill="black"/>
<path id="Vector_28" d="M414.394 721.843C414.394 721.035 414.394 721 413.691 721C412.848 721.948 411.092 723.248 407.474 723.248V724.267C408.282 724.267 410.038 724.267 411.97 723.353V741.653C411.97 742.918 411.865 743.339 408.774 743.339H407.685V744.358C408.633 744.287 412.04 744.287 413.199 744.287C414.358 744.287 417.73 744.287 418.679 744.358V743.339H417.59C414.499 743.339 414.394 742.918 414.394 741.653V721.843Z" fill="black"/>
<path id="Vector_29" d="M431.739 758.637H394.013V760.042H431.739V758.637Z" fill="black"/>
<path id="Vector_30" d="M400.476 779.603C399.879 779.638 399.738 779.673 399.738 779.989C399.738 780.341 399.914 780.341 400.546 780.341H402.162C405.147 780.341 406.482 782.799 406.482 786.171C406.482 790.773 404.093 792.002 402.372 792.002C400.686 792.002 397.806 791.194 396.788 788.876C397.912 789.051 398.93 788.419 398.93 787.155C398.93 786.136 398.193 785.434 397.209 785.434C396.366 785.434 395.453 785.925 395.453 787.26C395.453 790.386 398.579 792.95 402.478 792.95C406.658 792.95 409.748 789.754 409.748 786.206C409.748 782.975 407.149 780.446 403.777 779.849C406.833 778.971 408.8 776.407 408.8 773.667C408.8 770.892 405.92 768.855 402.513 768.855C399 768.855 396.401 770.998 396.401 773.562C396.401 774.967 397.49 775.248 398.017 775.248C398.755 775.248 399.598 774.721 399.598 773.667C399.598 772.543 398.755 772.051 397.982 772.051C397.771 772.051 397.701 772.051 397.595 772.086C398.93 769.698 402.232 769.698 402.407 769.698C403.567 769.698 405.85 770.225 405.85 773.667C405.85 774.334 405.744 776.301 404.726 777.812C403.672 779.357 402.478 779.463 401.529 779.498L400.476 779.603Z" fill="black"/>
<path id="Vector_31" d="M418.445 781.922C418.515 781.711 419.393 779.955 420.693 778.831C421.606 777.988 422.8 777.426 424.17 777.426C425.575 777.426 426.067 778.48 426.067 779.885C426.067 781.887 424.626 785.891 423.924 787.788C423.608 788.631 423.432 789.087 423.432 789.72C423.432 791.3 424.521 792.565 426.207 792.565C429.474 792.565 430.703 787.401 430.703 787.191C430.703 787.015 430.562 786.875 430.352 786.875C430.036 786.875 430 786.98 429.825 787.577C429.017 790.457 427.682 791.862 426.312 791.862C425.961 791.862 425.399 791.827 425.399 790.703C425.399 789.825 425.786 788.771 425.996 788.28C426.699 786.348 428.174 782.414 428.174 780.412C428.174 778.304 426.945 776.724 424.275 776.724C421.149 776.724 419.498 778.936 418.866 779.815C418.761 777.812 417.321 776.724 415.775 776.724C414.651 776.724 413.878 777.391 413.281 778.585C412.649 779.85 412.157 781.957 412.157 782.098C412.157 782.238 412.298 782.414 412.544 782.414C412.825 782.414 412.86 782.379 413.071 781.571C413.633 779.428 414.265 777.426 415.67 777.426C416.478 777.426 416.759 777.988 416.759 779.042C416.759 779.815 416.407 781.184 416.162 782.273L415.178 786.067C415.038 786.734 414.651 788.315 414.476 788.947C414.23 789.86 413.843 791.511 413.843 791.687C413.843 792.178 414.23 792.565 414.757 792.565C415.178 792.565 415.67 792.354 415.951 791.827C416.021 791.651 416.337 790.422 416.513 789.72L417.285 786.558L418.445 781.922Z" fill="black"/>
<path id="Vector_32" d="M445.156 759.373C445.156 756.704 444.805 752.348 442.838 748.274C440.765 744.059 437.885 741.776 437.499 741.776C437.358 741.776 437.183 741.846 437.183 742.057C437.183 742.162 437.183 742.232 437.78 742.83C441.292 746.377 443.259 752.173 443.259 759.338C443.259 766.152 441.608 772.018 437.534 776.163C437.183 776.479 437.183 776.549 437.183 776.654C437.183 776.865 437.358 776.935 437.499 776.935C437.955 776.935 440.836 774.406 442.557 770.964C444.348 767.381 445.156 763.588 445.156 759.373Z" fill="black"/>
<path id="Vector_33" d="M454.55 745.796C456.4 745.796 457.571 747.154 457.571 749.613C457.571 752.54 455.908 753.406 454.667 753.406C453.379 753.406 451.623 752.938 450.804 751.697C451.647 751.697 452.232 751.158 452.232 750.385C452.232 749.636 451.693 749.097 450.944 749.097C450.312 749.097 449.656 749.495 449.656 750.432C449.656 752.657 452.045 754.108 454.714 754.108C457.828 754.108 460.006 751.954 460.006 749.613C460.006 747.669 458.461 745.889 456.072 745.374C457.922 744.719 459.304 743.126 459.304 741.253C459.304 739.38 457.196 738.045 454.761 738.045C452.255 738.045 450.359 739.403 450.359 741.183C450.359 742.049 450.944 742.424 451.553 742.424C452.279 742.424 452.747 741.909 452.747 741.23C452.747 740.363 451.998 740.035 451.483 740.012C452.466 738.724 454.269 738.654 454.691 738.654C455.299 738.654 457.079 738.841 457.079 741.253C457.079 742.892 456.4 743.876 456.072 744.25C455.37 744.976 454.831 745.023 453.403 745.117C452.958 745.14 452.77 745.163 452.77 745.468C452.77 745.796 452.981 745.796 453.379 745.796H454.55Z" fill="black"/>
<path id="Vector_34" d="M465.749 749.777C465.819 749.426 466.053 748.536 466.124 748.185C466.451 746.92 466.451 746.897 466.99 746.124C467.763 744.976 468.863 743.946 470.432 743.946C471.275 743.946 471.767 744.438 471.767 745.538C471.767 746.826 470.783 749.496 470.339 750.643C470.034 751.416 470.034 751.556 470.034 751.861C470.034 753.196 471.135 753.851 472.142 753.851C474.436 753.851 475.396 750.573 475.396 750.269C475.396 750.034 475.209 749.964 475.045 749.964C474.764 749.964 474.717 750.128 474.647 750.362C474.085 752.282 473.102 753.196 472.212 753.196C471.837 753.196 471.65 752.961 471.65 752.423C471.65 751.884 471.837 751.369 472.071 750.784C472.423 749.894 473.453 747.201 473.453 745.89C473.453 744.134 472.235 743.291 470.549 743.291C468.653 743.291 467.435 744.438 466.756 745.328C466.592 744.04 465.562 743.291 464.367 743.291C463.524 743.291 462.939 743.829 462.564 744.555C462.002 745.656 461.768 746.826 461.768 746.873C461.768 747.084 461.932 747.178 462.119 747.178C462.424 747.178 462.447 747.084 462.611 746.475C462.892 745.328 463.314 743.946 464.297 743.946C464.906 743.946 465.046 744.532 465.046 745.047C465.046 745.468 464.929 745.913 464.742 746.686C464.695 746.873 464.344 748.255 464.25 748.583L463.384 752.095C463.29 752.446 463.15 753.032 463.15 753.125C463.15 753.664 463.595 753.851 463.899 753.851C464.321 753.851 464.672 753.57 464.836 753.289C464.906 753.149 465.093 752.353 465.21 751.861L465.749 749.777Z" fill="black"/>
<path id="Vector_35" d="M492.53 748.302C492.904 748.302 493.42 748.302 493.42 747.763C493.42 747.225 492.904 747.225 492.53 747.225H479.112C478.738 747.225 478.223 747.225 478.223 747.763C478.223 748.302 478.738 748.302 479.112 748.302H492.53Z" fill="black"/>
<path id="Vector_36" d="M502.866 738.701C502.866 738.068 502.819 738.045 502.187 738.045C501.227 738.982 499.986 739.544 497.761 739.544V740.316C498.393 740.316 499.658 740.316 501.016 739.684V751.697C501.016 752.563 500.946 752.844 498.721 752.844H497.901V753.617C498.862 753.546 500.875 753.546 501.929 753.546C502.983 753.546 505.02 753.546 505.98 753.617V752.844H505.161C502.936 752.844 502.866 752.563 502.866 751.697V738.701Z" fill="black"/>
<path id="Vector_37" d="M582.859 760.041C580.927 761.517 579.979 762.957 579.698 763.413C578.117 765.837 577.836 768.05 577.836 768.085C577.836 768.506 578.257 768.506 578.538 768.506C579.136 768.506 579.171 768.436 579.311 767.804C580.119 764.362 582.191 761.411 586.16 759.795C586.582 759.655 586.687 759.585 586.687 759.339C586.687 759.093 586.477 758.988 586.406 758.952C584.861 758.355 580.611 756.599 579.276 750.698C579.171 750.277 579.136 750.171 578.538 750.171C578.257 750.171 577.836 750.171 577.836 750.593C577.836 750.663 578.152 752.876 579.627 755.229C580.33 756.283 581.348 757.512 582.859 758.636H556.761C556.129 758.636 555.497 758.636 555.497 759.339C555.497 760.041 556.129 760.041 556.761 760.041H582.859Z" fill="black"/>
<path id="Vector_38" d="M646.467 721.843C646.467 721.035 646.467 721 645.764 721C644.921 721.948 643.165 723.248 639.547 723.248V724.267C640.355 724.267 642.111 724.267 644.043 723.353V741.653C644.043 742.918 643.938 743.339 640.847 743.339H639.758V744.358C640.706 744.287 644.113 744.287 645.273 744.287C646.432 744.287 649.804 744.287 650.752 744.358V743.339H649.663C646.572 743.339 646.467 742.918 646.467 741.653V721.843Z" fill="black"/>
<path id="Vector_39" d="M653.547 758.637H636.351V760.042H653.547V758.637Z" fill="black"/>
<path id="Vector_40" d="M643.266 784.065C644.215 784.065 646.603 783.994 648.289 783.362C650.958 782.344 651.204 780.306 651.204 779.674C651.204 778.129 649.87 776.724 647.551 776.724C643.863 776.724 638.56 780.06 638.56 786.313C638.56 790.001 640.667 792.565 643.863 792.565C648.64 792.565 651.661 788.842 651.661 788.385C651.661 788.174 651.45 787.999 651.31 787.999C651.204 787.999 651.169 788.034 650.853 788.35C648.605 791.335 645.268 791.862 643.934 791.862C641.932 791.862 640.878 790.282 640.878 787.682C640.878 787.191 640.878 786.313 641.405 784.065H643.266ZM641.58 783.362C643.091 777.953 646.427 777.426 647.551 777.426C649.097 777.426 650.151 778.339 650.151 779.674C650.151 783.362 644.531 783.362 643.055 783.362H641.58Z" fill="black"/>
</g>
</g>
<g id="20:547" clip-path="url(#clip3)">
<g id="page1_4">
<path id="Vector_41" d="M357.416 909.654C357.416 909.549 357.416 909.479 356.818 908.882C353.306 905.334 351.339 899.538 351.339 892.373C351.339 885.559 352.99 879.693 357.064 875.549C357.416 875.232 357.416 875.162 357.416 875.057C357.416 874.846 357.24 874.776 357.099 874.776C356.643 874.776 353.763 877.305 352.042 880.747C350.25 884.295 349.442 888.053 349.442 892.373C349.442 895.499 349.934 899.679 351.761 903.437C353.833 907.652 356.713 909.935 357.099 909.935C357.24 909.935 357.416 909.865 357.416 909.654Z" fill="black"/>
<path id="Vector_42" d="M369.491 878.605C369.491 877.797 369.491 877.762 368.788 877.762C367.945 878.71 366.189 880.01 362.571 880.01V881.028C363.379 881.028 365.135 881.028 367.067 880.115V898.415C367.067 899.679 366.962 900.101 363.871 900.101H362.782V901.119C363.73 901.049 367.137 901.049 368.296 901.049C369.456 901.049 372.827 901.049 373.776 901.119V900.101H372.687C369.596 900.101 369.491 899.679 369.491 898.415V878.605Z" fill="black"/>
<path id="Vector_43" d="M407.523 893.042C408.12 893.042 408.752 893.042 408.752 892.339C408.752 891.637 408.12 891.637 407.523 891.637H388.521C387.924 891.637 387.292 891.637 387.292 892.339C387.292 893.042 387.924 893.042 388.521 893.042H407.523Z" fill="black"/>
<path id="Vector_44" d="M443.394 854.843C443.394 854.035 443.394 854 442.691 854C441.848 854.948 440.092 856.248 436.474 856.248V857.267C437.282 857.267 439.038 857.267 440.97 856.353V874.653C440.97 875.918 440.865 876.339 437.774 876.339H436.685V877.358C437.633 877.287 441.04 877.287 442.199 877.287C443.358 877.287 446.73 877.287 447.679 877.358V876.339H446.59C443.499 876.339 443.394 875.918 443.394 874.653V854.843Z" fill="black"/>
<path id="Vector_45" d="M460.739 891.637H423.013V893.042H460.739V891.637Z" fill="black"/>
<path id="Vector_46" d="M429.476 912.603C428.879 912.638 428.738 912.673 428.738 912.989C428.738 913.341 428.914 913.341 429.546 913.341H431.162C434.147 913.341 435.482 915.799 435.482 919.171C435.482 923.773 433.093 925.002 431.372 925.002C429.686 925.002 426.806 924.194 425.788 921.876C426.912 922.051 427.93 921.419 427.93 920.155C427.93 919.136 427.193 918.434 426.209 918.434C425.366 918.434 424.453 918.925 424.453 920.26C424.453 923.386 427.579 925.95 431.478 925.95C435.658 925.95 438.748 922.754 438.748 919.206C438.748 915.975 436.149 913.446 432.777 912.849C435.833 911.971 437.8 909.407 437.8 906.667C437.8 903.892 434.92 901.855 431.513 901.855C428 901.855 425.401 903.998 425.401 906.562C425.401 907.967 426.49 908.248 427.017 908.248C427.755 908.248 428.598 907.721 428.598 906.667C428.598 905.543 427.755 905.051 426.982 905.051C426.771 905.051 426.701 905.051 426.595 905.086C427.93 902.698 431.232 902.698 431.407 902.698C432.567 902.698 434.85 903.225 434.85 906.667C434.85 907.334 434.744 909.301 433.726 910.812C432.672 912.357 431.478 912.463 430.529 912.498L429.476 912.603Z" fill="black"/>
<path id="Vector_47" d="M447.445 914.922C447.515 914.711 448.393 912.955 449.693 911.831C450.606 910.988 451.8 910.426 453.17 910.426C454.575 910.426 455.067 911.48 455.067 912.885C455.067 914.887 453.626 918.891 452.924 920.788C452.608 921.631 452.432 922.087 452.432 922.72C452.432 924.3 453.521 925.565 455.207 925.565C458.474 925.565 459.703 920.401 459.703 920.191C459.703 920.015 459.562 919.875 459.352 919.875C459.036 919.875 459 919.98 458.825 920.577C458.017 923.457 456.682 924.862 455.312 924.862C454.961 924.862 454.399 924.827 454.399 923.703C454.399 922.825 454.786 921.771 454.996 921.28C455.699 919.348 457.174 915.414 457.174 913.412C457.174 911.304 455.945 909.724 453.275 909.724C450.149 909.724 448.498 911.936 447.866 912.815C447.761 910.812 446.321 909.724 444.775 909.724C443.651 909.724 442.878 910.391 442.281 911.585C441.649 912.85 441.157 914.957 441.157 915.098C441.157 915.238 441.298 915.414 441.544 915.414C441.825 915.414 441.86 915.379 442.071 914.571C442.633 912.428 443.265 910.426 444.67 910.426C445.478 910.426 445.759 910.988 445.759 912.042C445.759 912.815 445.407 914.184 445.162 915.273L444.178 919.067C444.038 919.734 443.651 921.315 443.476 921.947C443.23 922.86 442.843 924.511 442.843 924.687C442.843 925.178 443.23 925.565 443.757 925.565C444.178 925.565 444.67 925.354 444.951 924.827C445.021 924.651 445.337 923.422 445.513 922.72L446.285 919.558L447.445 914.922Z" fill="black"/>
<path id="Vector_48" d="M474.156 892.373C474.156 889.704 473.805 885.348 471.838 881.274C469.765 877.059 466.885 874.776 466.499 874.776C466.358 874.776 466.183 874.846 466.183 875.057C466.183 875.162 466.183 875.232 466.78 875.83C470.292 879.377 472.259 885.173 472.259 892.338C472.259 899.152 470.608 905.018 466.534 909.163C466.183 909.479 466.183 909.549 466.183 909.654C466.183 909.865 466.358 909.935 466.499 909.935C466.955 909.935 469.836 907.406 471.557 903.964C473.348 900.381 474.156 896.588 474.156 892.373Z" fill="black"/>
<path id="Vector_49" d="M483.55 878.796C485.4 878.796 486.571 880.154 486.571 882.613C486.571 885.54 484.908 886.406 483.667 886.406C482.379 886.406 480.623 885.938 479.804 884.697C480.647 884.697 481.232 884.158 481.232 883.385C481.232 882.636 480.693 882.097 479.944 882.097C479.312 882.097 478.656 882.495 478.656 883.432C478.656 885.657 481.045 887.108 483.714 887.108C486.828 887.108 489.006 884.954 489.006 882.613C489.006 880.669 487.461 878.889 485.072 878.374C486.922 877.719 488.304 876.126 488.304 874.253C488.304 872.38 486.196 871.045 483.761 871.045C481.255 871.045 479.359 872.403 479.359 874.183C479.359 875.049 479.944 875.424 480.553 875.424C481.279 875.424 481.747 874.909 481.747 874.23C481.747 873.363 480.998 873.035 480.483 873.012C481.466 871.724 483.269 871.654 483.691 871.654C484.299 871.654 486.079 871.841 486.079 874.253C486.079 875.892 485.4 876.876 485.072 877.25C484.37 877.976 483.831 878.023 482.403 878.117C481.958 878.14 481.77 878.163 481.77 878.468C481.77 878.796 481.981 878.796 482.379 878.796H483.55Z" fill="black"/>
<path id="Vector_50" d="M494.749 882.777C494.819 882.426 495.053 881.536 495.124 881.185C495.451 879.92 495.451 879.897 495.99 879.124C496.763 877.976 497.863 876.946 499.432 876.946C500.275 876.946 500.767 877.438 500.767 878.538C500.767 879.826 499.783 882.496 499.339 883.643C499.034 884.416 499.034 884.556 499.034 884.861C499.034 886.196 500.135 886.851 501.142 886.851C503.436 886.851 504.396 883.573 504.396 883.269C504.396 883.034 504.209 882.964 504.045 882.964C503.764 882.964 503.717 883.128 503.647 883.362C503.085 885.282 502.102 886.196 501.212 886.196C500.837 886.196 500.65 885.961 500.65 885.423C500.65 884.884 500.837 884.369 501.071 883.784C501.423 882.894 502.453 880.201 502.453 878.89C502.453 877.134 501.235 876.291 499.549 876.291C497.653 876.291 496.435 877.438 495.756 878.328C495.592 877.04 494.562 876.291 493.367 876.291C492.524 876.291 491.939 876.829 491.564 877.555C491.002 878.656 490.768 879.826 490.768 879.873C490.768 880.084 490.932 880.178 491.119 880.178C491.424 880.178 491.447 880.084 491.611 879.475C491.892 878.328 492.314 876.946 493.297 876.946C493.906 876.946 494.046 877.532 494.046 878.047C494.046 878.468 493.929 878.913 493.742 879.686C493.695 879.873 493.344 881.255 493.25 881.583L492.384 885.095C492.29 885.446 492.15 886.032 492.15 886.125C492.15 886.664 492.595 886.851 492.899 886.851C493.321 886.851 493.672 886.57 493.836 886.289C493.906 886.149 494.093 885.353 494.21 884.861L494.749 882.777Z" fill="black"/>
<path id="Vector_51" d="M580.068 893.041C578.136 894.517 577.188 895.957 576.907 896.413C575.326 898.837 575.045 901.05 575.045 901.085C575.045 901.506 575.467 901.506 575.748 901.506C576.345 901.506 576.38 901.436 576.52 900.804C577.328 897.362 579.401 894.411 583.37 892.795C583.791 892.655 583.896 892.585 583.896 892.339C583.896 892.093 583.686 891.988 583.615 891.952C582.07 891.355 577.82 889.599 576.485 883.698C576.38 883.277 576.345 883.171 575.748 883.171C575.467 883.171 575.045 883.171 575.045 883.593C575.045 883.663 575.361 885.876 576.836 888.229C577.539 889.283 578.558 890.512 580.068 891.636H553.971C553.338 891.636 552.706 891.636 552.706 892.339C552.706 893.041 553.338 893.041 553.971 893.041H580.068Z" fill="black"/>
<path id="Vector_52" d="M643.675 854.843C643.675 854.035 643.675 854 642.973 854C642.13 854.948 640.374 856.248 636.756 856.248V857.267C637.564 857.267 639.32 857.267 641.252 856.353V874.653C641.252 875.918 641.147 876.339 638.056 876.339H636.967V877.358C637.915 877.287 641.322 877.287 642.481 877.287C643.64 877.287 647.012 877.287 647.961 877.358V876.339H646.872C643.781 876.339 643.675 875.918 643.675 874.653V854.843Z" fill="black"/>
<path id="Vector_53" d="M650.756 891.637H633.56V893.042H650.756V891.637Z" fill="black"/>
<path id="Vector_54" d="M640.475 917.065C641.423 917.065 643.812 916.994 645.498 916.362C648.167 915.344 648.413 913.306 648.413 912.674C648.413 911.129 647.078 909.724 644.76 909.724C641.072 909.724 635.768 913.06 635.768 919.313C635.768 923.001 637.876 925.565 641.072 925.565C645.849 925.565 648.87 921.842 648.87 921.385C648.87 921.174 648.659 920.999 648.518 920.999C648.413 920.999 648.378 921.034 648.062 921.35C645.814 924.335 642.477 924.862 641.142 924.862C639.14 924.862 638.087 923.282 638.087 920.682C638.087 920.191 638.087 919.313 638.613 917.065H640.475ZM638.789 916.362C640.299 910.953 643.636 910.426 644.76 910.426C646.306 910.426 647.359 911.339 647.359 912.674C647.359 916.362 641.739 916.362 640.264 916.362H638.789Z" fill="black"/>
</g>
</g>
<g id="39:0">
<g id="(\frac {n} {n+1})^n \quad  \to \quad  \frac 1 e" clip-path="url(#clip4)">
<g id="page1_5">
<path id="Vector_55" d="M394.416 516.654C394.416 516.549 394.416 516.479 393.818 515.882C390.306 512.334 388.339 506.538 388.339 499.373C388.339 492.559 389.99 486.693 394.064 482.549C394.416 482.232 394.416 482.162 394.416 482.057C394.416 481.846 394.24 481.776 394.099 481.776C393.643 481.776 390.763 484.305 389.042 487.747C387.25 491.295 386.442 495.053 386.442 499.373C386.442 502.499 386.934 506.679 388.761 510.437C390.833 514.652 393.713 516.935 394.099 516.935C394.24 516.935 394.416 516.865 394.416 516.654Z" fill="black"/>
<path id="Vector_56" d="M436.901 474.066C436.971 473.855 437.849 472.099 439.149 470.975C440.062 470.132 441.256 469.57 442.626 469.57C444.031 469.57 444.523 470.623 444.523 472.028C444.523 474.03 443.083 478.035 442.38 479.931C442.064 480.774 441.889 481.231 441.889 481.863C441.889 483.444 442.978 484.708 444.663 484.708C447.93 484.708 449.159 479.545 449.159 479.334C449.159 479.159 449.019 479.018 448.808 479.018C448.492 479.018 448.457 479.123 448.281 479.721C447.473 482.601 446.139 484.006 444.769 484.006C444.418 484.006 443.856 483.971 443.856 482.847C443.856 481.969 444.242 480.915 444.453 480.423C445.155 478.491 446.63 474.557 446.63 472.555C446.63 470.448 445.401 468.867 442.732 468.867C439.606 468.867 437.955 471.08 437.323 471.958C437.217 469.956 435.777 468.867 434.232 468.867C433.108 468.867 432.335 469.535 431.738 470.729C431.106 471.993 430.614 474.101 430.614 474.241C430.614 474.382 430.754 474.557 431 474.557C431.281 474.557 431.316 474.522 431.527 473.714C432.089 471.572 432.721 469.57 434.126 469.57C434.934 469.57 435.215 470.132 435.215 471.185C435.215 471.958 434.864 473.328 434.618 474.417L433.634 478.21C433.494 478.878 433.108 480.458 432.932 481.09C432.686 482.004 432.3 483.655 432.3 483.83C432.3 484.322 432.686 484.708 433.213 484.708C433.634 484.708 434.126 484.497 434.407 483.971C434.477 483.795 434.794 482.566 434.969 481.863L435.742 478.702L436.901 474.066Z" fill="black"/>
<path id="Vector_57" d="M479.973 498.637H399.887V500.042H479.973V498.637Z" fill="black"/>
<path id="Vector_58" d="M407.123 521.922C407.193 521.711 408.071 519.955 409.371 518.831C410.284 517.988 411.478 517.426 412.848 517.426C414.253 517.426 414.745 518.48 414.745 519.885C414.745 521.887 413.305 525.891 412.602 527.788C412.286 528.631 412.111 529.087 412.111 529.72C412.111 531.3 413.199 532.565 414.885 532.565C418.152 532.565 419.381 527.401 419.381 527.191C419.381 527.015 419.241 526.875 419.03 526.875C418.714 526.875 418.679 526.98 418.503 527.577C417.695 530.457 416.361 531.862 414.991 531.862C414.64 531.862 414.078 531.827 414.078 530.703C414.078 529.825 414.464 528.771 414.675 528.28C415.377 526.348 416.852 522.414 416.852 520.412C416.852 518.304 415.623 516.724 412.954 516.724C409.828 516.724 408.177 518.936 407.544 519.815C407.439 517.812 405.999 516.724 404.453 516.724C403.33 516.724 402.557 517.391 401.96 518.585C401.327 519.85 400.836 521.957 400.836 522.098C400.836 522.238 400.976 522.414 401.222 522.414C401.503 522.414 401.538 522.379 401.749 521.571C402.311 519.428 402.943 517.426 404.348 517.426C405.156 517.426 405.437 517.988 405.437 519.042C405.437 519.815 405.086 521.184 404.84 522.273L403.856 526.067C403.716 526.734 403.33 528.315 403.154 528.947C402.908 529.86 402.522 531.511 402.522 531.687C402.522 532.178 402.908 532.565 403.435 532.565C403.856 532.565 404.348 532.354 404.629 531.827C404.699 531.651 405.015 530.422 405.191 529.72L405.964 526.558L407.123 521.922Z" fill="black"/>
<path id="Vector_59" d="M442.237 524.1H451.931C452.423 524.1 453.055 524.1 453.055 523.468C453.055 522.8 452.458 522.8 451.931 522.8H442.237V513.106C442.237 512.614 442.237 511.982 441.605 511.982C440.937 511.982 440.937 512.579 440.937 513.106V522.8H431.243C430.751 522.8 430.119 522.8 430.119 523.432C430.119 524.1 430.716 524.1 431.243 524.1H440.937V533.794C440.937 534.286 440.937 534.918 441.57 534.918C442.237 534.918 442.237 534.321 442.237 533.794V524.1Z" fill="black"/>
<path id="Vector_60" d="M472.893 509.698C472.893 508.89 472.893 508.855 472.19 508.855C471.347 509.803 469.591 511.103 465.973 511.103V512.122C466.781 512.122 468.537 512.122 470.469 511.208V529.508C470.469 530.773 470.364 531.194 467.273 531.194H466.184V532.213C467.132 532.142 470.539 532.142 471.698 532.142C472.857 532.142 476.229 532.142 477.178 532.213V531.194H476.089C472.998 531.194 472.893 530.773 472.893 529.508V509.698Z" fill="black"/>
<path id="Vector_61" d="M493.39 499.373C493.39 496.704 493.039 492.348 491.072 488.274C489 484.059 486.12 481.776 485.733 481.776C485.593 481.776 485.417 481.846 485.417 482.057C485.417 482.162 485.417 482.232 486.014 482.83C489.527 486.377 491.494 492.173 491.494 499.338C491.494 506.152 489.843 512.018 485.768 516.163C485.417 516.479 485.417 516.549 485.417 516.654C485.417 516.865 485.593 516.935 485.733 516.935C486.19 516.935 489.07 514.406 490.791 510.964C492.583 507.381 493.39 503.588 493.39 499.373Z" fill="black"/>
<path id="Vector_62" d="M501.543 489.777C501.614 489.426 501.848 488.536 501.918 488.185C502.246 486.92 502.246 486.897 502.784 486.124C503.557 484.976 504.658 483.946 506.226 483.946C507.069 483.946 507.561 484.438 507.561 485.538C507.561 486.826 506.578 489.496 506.133 490.643C505.828 491.416 505.828 491.556 505.828 491.861C505.828 493.196 506.929 493.851 507.936 493.851C510.231 493.851 511.191 490.573 511.191 490.269C511.191 490.034 511.003 489.964 510.839 489.964C510.558 489.964 510.512 490.128 510.441 490.362C509.879 492.282 508.896 493.196 508.006 493.196C507.631 493.196 507.444 492.961 507.444 492.423C507.444 491.884 507.631 491.369 507.866 490.784C508.217 489.894 509.247 487.201 509.247 485.89C509.247 484.134 508.03 483.291 506.344 483.291C504.447 483.291 503.229 484.438 502.55 485.328C502.386 484.04 501.356 483.291 500.162 483.291C499.319 483.291 498.733 483.829 498.359 484.555C497.797 485.656 497.562 486.826 497.562 486.873C497.562 487.084 497.726 487.178 497.914 487.178C498.218 487.178 498.242 487.084 498.405 486.475C498.686 485.328 499.108 483.946 500.091 483.946C500.7 483.946 500.841 484.532 500.841 485.047C500.841 485.468 500.724 485.913 500.536 486.686C500.49 486.873 500.138 488.255 500.045 488.583L499.178 492.095C499.085 492.446 498.944 493.032 498.944 493.125C498.944 493.664 499.389 493.851 499.693 493.851C500.115 493.851 500.466 493.57 500.63 493.289C500.7 493.149 500.888 492.353 501.005 491.861L501.543 489.777Z" fill="black"/>
<path id="Vector_63" d="M586.862 500.041C584.93 501.517 583.982 502.957 583.701 503.413C582.12 505.837 581.839 508.05 581.839 508.085C581.839 508.506 582.261 508.506 582.542 508.506C583.139 508.506 583.174 508.436 583.315 507.804C584.122 504.362 586.195 501.411 590.164 499.795C590.585 499.655 590.691 499.585 590.691 499.339C590.691 499.093 590.48 498.988 590.41 498.952C588.864 498.355 584.614 496.599 583.28 490.698C583.174 490.277 583.139 490.171 582.542 490.171C582.261 490.171 581.839 490.171 581.839 490.593C581.839 490.663 582.156 492.876 583.631 495.229C584.333 496.283 585.352 497.512 586.862 498.636H560.765C560.133 498.636 559.5 498.636 559.5 499.339C559.5 500.041 560.133 500.041 560.765 500.041H586.862Z" fill="black"/>
<path id="Vector_64" d="M650.47 461.843C650.47 461.035 650.47 461 649.767 461C648.924 461.948 647.168 463.248 643.55 463.248V464.267C644.358 464.267 646.114 464.267 648.046 463.353V481.653C648.046 482.918 647.941 483.339 644.85 483.339H643.761V484.358C644.709 484.287 648.116 484.287 649.276 484.287C650.435 484.287 653.807 484.287 654.755 484.358V483.339H653.666C650.575 483.339 650.47 482.918 650.47 481.653V461.843Z" fill="black"/>
<path id="Vector_65" d="M657.55 498.637H640.354V500.042H657.55V498.637Z" fill="black"/>
<path id="Vector_66" d="M647.269 524.065C648.218 524.065 650.606 523.994 652.292 523.362C654.961 522.344 655.207 520.306 655.207 519.674C655.207 518.129 653.873 516.724 651.554 516.724C647.866 516.724 642.563 520.06 642.563 526.313C642.563 530.001 644.67 532.565 647.866 532.565C652.643 532.565 655.664 528.842 655.664 528.385C655.664 528.174 655.453 527.999 655.313 527.999C655.207 527.999 655.172 528.034 654.856 528.35C652.608 531.335 649.271 531.862 647.937 531.862C645.935 531.862 644.881 530.282 644.881 527.682C644.881 527.191 644.881 526.313 645.408 524.065H647.269ZM645.583 523.362C647.094 517.953 650.43 517.426 651.554 517.426C653.1 517.426 654.154 518.339 654.154 519.674C654.154 523.362 648.534 523.362 647.059 523.362H645.583Z" fill="black"/>
</g>
</g>
<g id="= 0.367.." clip-path="url(#clip5)">
<g id="page1_6">
<path id="Vector_67" d="M704.709 497.364C705.201 497.364 705.833 497.364 705.833 496.731C705.833 496.064 705.236 496.064 704.709 496.064H684.021C683.529 496.064 682.897 496.064 682.897 496.696C682.897 497.364 683.494 497.364 684.021 497.364H704.709ZM704.709 503.897C705.201 503.897 705.833 503.897 705.833 503.264C705.833 502.597 705.236 502.597 704.709 502.597H684.021C683.529 502.597 682.897 502.597 682.897 503.229C682.897 503.897 683.494 503.897 684.021 503.897H704.709Z" fill="black"/>
<path id="Vector_68" d="M733.242 497.504C733.242 494.588 733.066 491.743 731.802 489.074C730.362 486.158 727.833 485.386 726.112 485.386C724.074 485.386 721.581 486.404 720.281 489.32C719.298 491.532 718.946 493.71 718.946 497.504C718.946 500.911 719.192 503.475 720.457 505.969C721.826 508.638 724.25 509.481 726.077 509.481C729.132 509.481 730.889 507.655 731.907 505.617C733.172 502.983 733.242 499.541 733.242 497.504ZM726.077 508.779C724.953 508.779 722.669 508.146 722.002 504.318C721.616 502.21 721.616 499.541 721.616 497.082C721.616 494.202 721.616 491.603 722.178 489.53C722.775 487.177 724.566 486.088 726.077 486.088C727.411 486.088 729.448 486.896 730.116 489.917C730.572 491.919 730.572 494.694 730.572 497.082C730.572 499.435 730.572 502.105 730.186 504.247C729.519 508.111 727.306 508.779 726.077 508.779Z" fill="black"/>
<path id="Vector_69" d="M741.165 507.058C741.165 506.039 740.322 505.336 739.479 505.336C738.46 505.336 737.758 506.179 737.758 507.022C737.758 508.041 738.601 508.743 739.444 508.743C740.463 508.743 741.165 507.9 741.165 507.058Z" fill="black"/>
<path id="Vector_70" d="M750.718 496.134C750.121 496.169 749.981 496.204 749.981 496.52C749.981 496.871 750.156 496.871 750.789 496.871H752.404C755.39 496.871 756.725 499.33 756.725 502.702C756.725 507.303 754.336 508.533 752.615 508.533C750.929 508.533 748.049 507.725 747.03 505.407C748.154 505.582 749.173 504.95 749.173 503.685C749.173 502.667 748.435 501.964 747.452 501.964C746.609 501.964 745.696 502.456 745.696 503.791C745.696 506.917 748.822 509.481 752.721 509.481C756.9 509.481 759.991 506.285 759.991 502.737C759.991 499.506 757.392 496.977 754.02 496.38C757.076 495.502 759.043 492.937 759.043 490.198C759.043 487.423 756.163 485.386 752.756 485.386C749.243 485.386 746.644 487.528 746.644 490.092C746.644 491.497 747.733 491.778 748.26 491.778C748.997 491.778 749.84 491.251 749.84 490.198C749.84 489.074 748.997 488.582 748.225 488.582C748.014 488.582 747.944 488.582 747.838 488.617C749.173 486.229 752.475 486.229 752.65 486.229C753.809 486.229 756.092 486.756 756.092 490.198C756.092 490.865 755.987 492.832 754.968 494.342C753.915 495.888 752.721 495.993 751.772 496.028L750.718 496.134Z" fill="black"/>
<path id="Vector_71" d="M765.772 496.52C765.772 487.634 770.092 486.229 771.989 486.229C773.253 486.229 774.518 486.615 775.185 487.669C774.764 487.669 773.429 487.669 773.429 489.109C773.429 489.882 773.956 490.549 774.869 490.549C775.747 490.549 776.344 490.022 776.344 489.004C776.344 487.177 775.01 485.386 771.954 485.386C767.528 485.386 762.892 489.917 762.892 497.644C762.892 507.303 767.107 509.481 770.092 509.481C773.921 509.481 777.187 506.144 777.187 501.578C777.187 496.907 773.921 493.78 770.408 493.78C767.282 493.78 766.123 496.485 765.772 497.468V496.52ZM770.092 508.533C767.879 508.533 766.826 506.566 766.51 505.828C766.193 504.915 765.842 503.194 765.842 500.735C765.842 497.96 767.107 494.483 770.268 494.483C772.2 494.483 773.218 495.783 773.745 496.977C774.307 498.276 774.307 500.033 774.307 501.543C774.307 503.334 774.307 504.915 773.64 506.25C772.762 507.936 771.497 508.533 770.092 508.533Z" fill="black"/>
<path id="Vector_72" d="M795.332 486.932V486.124H786.867C782.617 486.124 782.546 485.667 782.406 485H781.633L780.544 492.025H781.317C781.422 491.393 781.739 489.215 782.195 488.829C782.476 488.618 785.11 488.618 785.602 488.618H793.049L789.325 493.957C788.377 495.327 784.829 501.087 784.829 507.69C784.829 508.077 784.829 509.482 786.27 509.482C787.745 509.482 787.745 508.112 787.745 507.655V505.899C787.745 500.665 788.588 496.591 790.239 494.238L795.332 486.932Z" fill="black"/>
<path id="Vector_73" d="M802.306 507.058C802.306 506.039 801.463 505.336 800.621 505.336C799.602 505.336 798.899 506.179 798.899 507.022C798.899 508.041 799.742 508.743 800.585 508.743C801.604 508.743 802.306 507.9 802.306 507.058Z" fill="black"/>
<path id="Vector_74" d="M811.86 507.058C811.86 506.039 811.017 505.336 810.174 505.336C809.155 505.336 808.453 506.179 808.453 507.022C808.453 508.041 809.296 508.743 810.139 508.743C811.158 508.743 811.86 507.9 811.86 507.058Z" fill="black"/>
</g>
</g>
</g>
</g>
<defs>
<clipPath id="clip0">
<rect width="268.523" height="71.5643" fill="white" transform="translate(386 338)"/>
</clipPath>
<clipPath id="clip1">
<rect width="334.676" height="73.9176" fill="white" transform="translate(322 586)"/>
</clipPath>
<clipPath id="clip2">
<rect width="336.547" height="71.9506" fill="white" transform="translate(317 721)"/>
</clipPath>
<clipPath id="clip3">
<rect width="304.756" height="71.9506" fill="white" transform="translate(346 854)"/>
</clipPath>
<clipPath id="clip4">
<rect width="274.55" height="73.9176" fill="white" transform="translate(383 461)"/>
</clipPath>
<clipPath id="clip5">
<rect width="130.86" height="24.4816" fill="white" transform="translate(681 485)"/>
</clipPath>
</defs>
</svg>
