<svg width="1024" height="768" viewBox="0 0 1024 768" fill="none" xmlns="http://www.w3.org/2000/svg">
<g id="klpat">
<rect width="1024" height="768" fill="white"/>
<path id="asdfasfa" d="M480.781 466C480.573 465.583 480.404 464.841 480.273 463.773C478.594 465.518 476.589 466.391 474.258 466.391C472.174 466.391 470.462 465.805 469.121 464.633C467.793 463.448 467.129 461.951 467.129 460.141C467.129 457.94 467.962 456.234 469.629 455.023C471.309 453.799 473.665 453.188 476.699 453.188H480.215V451.527C480.215 450.264 479.837 449.262 479.082 448.52C478.327 447.764 477.214 447.387 475.742 447.387C474.453 447.387 473.372 447.712 472.5 448.363C471.628 449.014 471.191 449.802 471.191 450.727H467.559C467.559 449.672 467.93 448.656 468.672 447.68C469.427 446.69 470.443 445.909 471.719 445.336C473.008 444.763 474.421 444.477 475.957 444.477C478.392 444.477 480.299 445.089 481.68 446.312C483.06 447.523 483.776 449.197 483.828 451.332V461.059C483.828 462.999 484.076 464.542 484.57 465.688V466H480.781ZM474.785 463.246C475.918 463.246 476.992 462.953 478.008 462.367C479.023 461.781 479.759 461.02 480.215 460.082V455.746H477.383C472.956 455.746 470.742 457.042 470.742 459.633C470.742 460.766 471.12 461.651 471.875 462.289C472.63 462.927 473.6 463.246 474.785 463.246ZM501.797 460.395C501.797 459.418 501.426 458.663 500.684 458.129C499.954 457.582 498.672 457.113 496.836 456.723C495.013 456.332 493.561 455.863 492.48 455.316C491.413 454.77 490.618 454.118 490.098 453.363C489.59 452.608 489.336 451.71 489.336 450.668C489.336 448.936 490.065 447.471 491.523 446.273C492.995 445.076 494.87 444.477 497.148 444.477C499.544 444.477 501.484 445.095 502.969 446.332C504.466 447.569 505.215 449.151 505.215 451.078H501.582C501.582 450.089 501.159 449.236 500.312 448.52C499.479 447.803 498.424 447.445 497.148 447.445C495.833 447.445 494.805 447.732 494.062 448.305C493.32 448.878 492.949 449.626 492.949 450.551C492.949 451.423 493.294 452.081 493.984 452.523C494.674 452.966 495.918 453.389 497.715 453.793C499.525 454.197 500.99 454.678 502.109 455.238C503.229 455.798 504.056 456.475 504.59 457.27C505.137 458.051 505.41 459.008 505.41 460.141C505.41 462.029 504.655 463.546 503.145 464.691C501.634 465.824 499.674 466.391 497.266 466.391C495.573 466.391 494.076 466.091 492.773 465.492C491.471 464.893 490.449 464.06 489.707 462.992C488.978 461.911 488.613 460.746 488.613 459.496H492.227C492.292 460.707 492.773 461.671 493.672 462.387C494.583 463.09 495.781 463.441 497.266 463.441C498.633 463.441 499.727 463.168 500.547 462.621C501.38 462.061 501.797 461.319 501.797 460.395ZM509.238 455.258C509.238 452.016 510.007 449.411 511.543 447.445C513.079 445.466 515.091 444.477 517.578 444.477C520.052 444.477 522.012 445.323 523.457 447.016V436H527.07V466H523.75L523.574 463.734C522.129 465.505 520.117 466.391 517.539 466.391C515.091 466.391 513.092 465.388 511.543 463.383C510.007 461.378 509.238 458.76 509.238 455.531V455.258ZM512.852 455.668C512.852 458.064 513.346 459.939 514.336 461.293C515.326 462.647 516.693 463.324 518.438 463.324C520.729 463.324 522.402 462.296 523.457 460.238V450.531C522.376 448.539 520.716 447.543 518.477 447.543C516.706 447.543 515.326 448.227 514.336 449.594C513.346 450.961 512.852 452.986 512.852 455.668ZM534.473 466V447.66H531.133V444.867H534.473V442.699C534.473 440.434 535.078 438.682 536.289 437.445C537.5 436.208 539.212 435.59 541.426 435.59C542.259 435.59 543.086 435.701 543.906 435.922L543.711 438.852C543.099 438.734 542.448 438.676 541.758 438.676C540.586 438.676 539.681 439.021 539.043 439.711C538.405 440.388 538.086 441.365 538.086 442.641V444.867H542.598V447.66H538.086V466H534.473ZM559.648 466C559.44 465.583 559.271 464.841 559.141 463.773C557.461 465.518 555.456 466.391 553.125 466.391C551.042 466.391 549.329 465.805 547.988 464.633C546.66 463.448 545.996 461.951 545.996 460.141C545.996 457.94 546.829 456.234 548.496 455.023C550.176 453.799 552.533 453.188 555.566 453.188H559.082V451.527C559.082 450.264 558.704 449.262 557.949 448.52C557.194 447.764 556.081 447.387 554.609 447.387C553.32 447.387 552.24 447.712 551.367 448.363C550.495 449.014 550.059 449.802 550.059 450.727H546.426C546.426 449.672 546.797 448.656 547.539 447.68C548.294 446.69 549.31 445.909 550.586 445.336C551.875 444.763 553.288 444.477 554.824 444.477C557.259 444.477 559.167 445.089 560.547 446.312C561.927 447.523 562.643 449.197 562.695 451.332V461.059C562.695 462.999 562.943 464.542 563.438 465.688V466H559.648ZM553.652 463.246C554.785 463.246 555.859 462.953 556.875 462.367C557.891 461.781 558.626 461.02 559.082 460.082V455.746H556.25C551.823 455.746 549.609 457.042 549.609 459.633C549.609 460.766 549.987 461.651 550.742 462.289C551.497 462.927 552.467 463.246 553.652 463.246ZM580.664 460.395C580.664 459.418 580.293 458.663 579.551 458.129C578.822 457.582 577.539 457.113 575.703 456.723C573.88 456.332 572.428 455.863 571.348 455.316C570.28 454.77 569.486 454.118 568.965 453.363C568.457 452.608 568.203 451.71 568.203 450.668C568.203 448.936 568.932 447.471 570.391 446.273C571.862 445.076 573.737 444.477 576.016 444.477C578.411 444.477 580.352 445.095 581.836 446.332C583.333 447.569 584.082 449.151 584.082 451.078H580.449C580.449 450.089 580.026 449.236 579.18 448.52C578.346 447.803 577.292 447.445 576.016 447.445C574.701 447.445 573.672 447.732 572.93 448.305C572.188 448.878 571.816 449.626 571.816 450.551C571.816 451.423 572.161 452.081 572.852 452.523C573.542 452.966 574.785 453.389 576.582 453.793C578.392 454.197 579.857 454.678 580.977 455.238C582.096 455.798 582.923 456.475 583.457 457.27C584.004 458.051 584.277 459.008 584.277 460.141C584.277 462.029 583.522 463.546 582.012 464.691C580.501 465.824 578.542 466.391 576.133 466.391C574.44 466.391 572.943 466.091 571.641 465.492C570.339 464.893 569.316 464.06 568.574 462.992C567.845 461.911 567.48 460.746 567.48 459.496H571.094C571.159 460.707 571.641 461.671 572.539 462.387C573.451 463.09 574.648 463.441 576.133 463.441C577.5 463.441 578.594 463.168 579.414 462.621C580.247 462.061 580.664 461.319 580.664 460.395ZM590.762 466V447.66H587.422V444.867H590.762V442.699C590.762 440.434 591.367 438.682 592.578 437.445C593.789 436.208 595.501 435.59 597.715 435.59C598.548 435.59 599.375 435.701 600.195 435.922L600 438.852C599.388 438.734 598.737 438.676 598.047 438.676C596.875 438.676 595.97 439.021 595.332 439.711C594.694 440.388 594.375 441.365 594.375 442.641V444.867H598.887V447.66H594.375V466H590.762ZM615.938 466C615.729 465.583 615.56 464.841 615.43 463.773C613.75 465.518 611.745 466.391 609.414 466.391C607.331 466.391 605.618 465.805 604.277 464.633C602.949 463.448 602.285 461.951 602.285 460.141C602.285 457.94 603.118 456.234 604.785 455.023C606.465 453.799 608.822 453.188 611.855 453.188H615.371V451.527C615.371 450.264 614.993 449.262 614.238 448.52C613.483 447.764 612.37 447.387 610.898 447.387C609.609 447.387 608.529 447.712 607.656 448.363C606.784 449.014 606.348 449.802 606.348 450.727H602.715C602.715 449.672 603.086 448.656 603.828 447.68C604.583 446.69 605.599 445.909 606.875 445.336C608.164 444.763 609.577 444.477 611.113 444.477C613.548 444.477 615.456 445.089 616.836 446.312C618.216 447.523 618.932 449.197 618.984 451.332V461.059C618.984 462.999 619.232 464.542 619.727 465.688V466H615.938ZM609.941 463.246C611.074 463.246 612.148 462.953 613.164 462.367C614.18 461.781 614.915 461.02 615.371 460.082V455.746H612.539C608.112 455.746 605.898 457.042 605.898 459.633C605.898 460.766 606.276 461.651 607.031 462.289C607.786 462.927 608.757 463.246 609.941 463.246Z" fill="black"/>
</g>
</svg>
