<svg width="1280" height="960" viewBox="0 0 1280 960" fill="none" xmlns="http://www.w3.org/2000/svg">
<g id="Vertex cover is NP complete">
<rect width="1280" height="960" fill="white"/>
<rect id="7:96" opacity="0.5" x="84" y="397" width="719" height="539" fill="#FF0000"/>
<path id="7:98" d="M100.72 344.68C100.72 349.48 98.32 350.08 97.36 350.32L96.8 350.4C96.48 350.44 96.32 350.72 96.32 351.16C96.32 351.36 96.68 351.76 97.12 352.04C97.72 352.44 98.32 352.6 99.36 352.6C101.2 352.6 102.92 352 104.56 350.64C105.36 349.96 107.2 347.76 107.2 344.64C107.2 342.56 106 340.36 105.04 339.36C103.68 337.96 101.12 336.88 97.64 336.88C94.52 336.88 92.4 337.08 91.04 337.08C89.04 337.08 87.92 336.92 86.2 336.92C85.52 336.92 84.96 337.08 84.96 337.8C84.96 338.2 85.72 338.8 86.36 338.96C88.12 339.36 88.44 340.08 88.52 341C88.64 341.92 88.68 343.84 88.68 345.56C88.68 351.12 88.4 356.04 88.32 356.84C88.2 357.88 87.92 358.56 86.2 359.12C85.04 359.48 84.64 359.84 84.64 360.36C84.64 360.88 85.32 361.24 86.32 361.24C87.64 361.24 91.4 361 92.84 361C94.48 361 96.24 361.12 97.44 361.12C98.48 361.12 99.04 360.64 99.04 360.28C99.04 359.72 98.64 359.44 97.68 359.16C95.52 358.56 95 357.96 95 355.72C95 355.32 94.96 352.24 94.96 348.24C94.96 346.6 95 341.48 95.12 339.88C95.12 339.68 95.28 339.44 95.4 339.32C95.56 339.16 96.08 339 96.52 339C98 339 99.44 340.32 99.6 340.52C99.8 340.8 100.72 342.44 100.72 344.68ZM110.25 346.84C110.25 347.12 110.69 347.6 111.25 348.12C111.97 348.8 112.17 349.16 112.17 349.44C112.17 351.56 112.17 353.76 112.13 356C112.05 358.52 111.93 358.64 110.69 359.16C109.85 359.52 109.53 359.84 109.53 360.32C109.53 360.84 110.33 361.12 111.05 361.12C112.17 361.12 113.09 361 114.49 361C115.65 361 118.25 361.2 119.49 361.2C119.97 361.2 120.93 360.92 120.93 360.32C120.93 359.84 120.09 359.4 119.53 359.2C118.05 358.72 117.69 358.32 117.65 356.72C117.61 355.32 117.61 349.44 117.61 349.04C117.61 348.76 117.81 348.56 118.01 348.4C118.13 348.32 118.69 348.24 118.89 348.24C119.37 348.24 120.49 349.04 120.73 349.28C121.13 349.56 121.53 349.68 121.65 349.68C121.93 349.68 122.37 349.44 122.81 349.04C123.77 348.28 124.77 346.76 124.77 345.92C124.77 345.08 123.17 344.08 121.85 344.08C120.29 344.08 118.89 345.32 117.73 346.6C117.61 346.84 117.37 346.6 117.37 346.48L117.29 344.52C117.29 344.32 116.85 343.72 116.77 343.72C116.37 343.72 116.01 343.84 115.49 344.08C114.65 344.52 112.37 345.16 111.17 345.52C110.89 345.6 110.25 346.24 110.25 346.84ZM135.706 344.08C134.186 344.08 131.106 344.88 129.466 346.2C127.706 347.6 126.186 349.68 126.186 352.76C126.186 354.56 126.826 357.2 128.546 358.88C130.266 360.56 132.706 361.48 135.546 361.48C138.586 361.48 140.906 360.32 142.346 359C143.706 357.76 145.066 355.84 145.066 352.52C145.066 348.44 141.666 344.08 135.706 344.08ZM135.146 346.2C137.266 346.2 138.746 349.28 138.746 353.36C138.746 356.52 138.066 357.96 137.786 358.36C137.306 359.04 136.506 359.4 136.066 359.4C135.306 359.4 134.466 358.76 134.186 358.52C133.666 358.16 132.226 356.04 132.226 352C132.226 350.12 132.706 348.04 133.386 347.08C133.746 346.6 134.426 346.2 135.146 346.2ZM157.776 344.08C156.256 344.08 153.176 344.88 151.536 346.2C149.776 347.6 148.256 349.68 148.256 352.76C148.256 354.56 148.896 357.2 150.616 358.88C152.336 360.56 154.776 361.48 157.616 361.48C160.656 361.48 162.976 360.32 164.416 359C165.776 357.76 167.136 355.84 167.136 352.52C167.136 348.44 163.736 344.08 157.776 344.08ZM157.216 346.2C159.336 346.2 160.816 349.28 160.816 353.36C160.816 356.52 160.136 357.96 159.856 358.36C159.376 359.04 158.576 359.4 158.136 359.4C157.376 359.4 156.536 358.76 156.256 358.52C155.736 358.16 154.296 356.04 154.296 352C154.296 350.12 154.776 348.04 155.456 347.08C155.816 346.6 156.496 346.2 157.216 346.2ZM171.734 347.68C171.774 347.68 172.014 348 172.014 348.24C172.014 352.12 171.894 356.6 171.854 357.24C171.774 358.64 171.374 358.68 170.294 359.16C169.494 359.52 169.134 359.8 169.134 360C169.134 360.52 169.534 361.12 170.654 361.12C171.254 361.12 173.174 361 174.574 361C176.814 361 179.214 361.12 179.734 361.12C180.654 361.12 181.214 360.68 181.214 360.24C181.214 359.64 180.654 359.24 179.974 359.08C178.374 358.72 177.774 358.68 177.734 356.8C177.654 353.64 177.574 352.16 177.574 348.76C177.574 347.68 177.734 347.48 177.934 347.48C178.334 347.48 181.614 347.56 181.734 347.56C181.934 347.56 182.534 347.08 182.534 346.8C182.534 345.12 182.214 344.52 181.934 344.52C181.654 344.52 179.414 344.56 178.134 344.56C177.934 344.56 177.694 344.36 177.694 343.76C177.694 342.2 177.654 340.24 177.694 339.44C177.734 338.96 177.814 336.92 179.254 336.92C180.414 336.92 181.454 338.28 182.054 338.88C182.374 339.2 183.174 339.48 183.334 339.48C184.054 339.48 184.974 338.72 185.454 337.92C185.574 337.68 185.774 337 185.774 336.84C185.774 336.16 185.334 335.68 185.254 335.6C184.494 334.88 183.294 334.44 181.494 334.44C179.974 334.44 177.774 335.28 176.374 336.32C175.374 337.08 174.334 337.96 173.454 339.36C172.454 340.96 172.054 342.64 172.014 343.96C172.014 344.08 171.654 344.52 171.614 344.56C170.054 345.6 169.454 345.96 169.454 346.6C169.454 346.88 170.014 347.32 170.174 347.36L171.734 347.68ZM186.01 356.88C185.29 356.88 183.81 357.52 183.81 359.2C183.81 360.92 185.05 361.52 186.01 361.52C187.33 361.52 188.25 360.48 188.25 359.2C188.25 358.4 187.73 356.88 186.01 356.88ZM212.222 334.56C212.022 334.56 211.862 334.76 211.582 335.08L210.622 336.68C210.462 337 210.382 337.24 210.342 337.36C210.262 337.6 210.222 337.84 209.982 338.4C208.302 342.48 203.742 354.56 202.822 356.6C201.662 359.2 201.142 359.32 199.142 360C198.542 360.2 198.262 360.56 198.262 360.8C198.262 361.04 198.462 361.2 199.182 361.2C199.782 361.2 201.862 361 203.342 361C204.822 361 205.822 361.12 206.502 361.12C207.022 361.12 207.622 361 207.622 360.6C207.622 360.32 207.222 360.08 206.542 359.88C204.742 359.32 204.582 358.64 204.582 358.16C204.582 357.16 205.622 353.76 206.662 351.16C206.742 351.04 206.942 350.84 207.102 350.84C207.942 350.72 211.462 350.68 213.662 350.68C214.822 350.68 214.982 350.92 215.022 351.08C215.942 353.64 216.942 356.28 217.262 357.92C217.422 358.76 217.582 359.56 215.662 359.96C214.942 360.08 214.702 360.4 214.702 360.6C214.702 360.8 214.942 361.08 215.942 361.08C216.942 361.08 217.502 361 218.782 361C220.542 361 222.502 361.2 223.822 361.2C224.822 361.2 225.102 360.96 225.102 360.68C225.102 360.4 224.782 360.2 224.142 360C222.342 359.56 221.702 359.24 220.382 355.96C219.702 354.32 216.702 346.4 214.622 340.56C213.862 338.48 213.182 336.68 212.862 335.6C212.542 334.72 212.382 334.56 212.222 334.56ZM214.022 348.88C212.702 349 209.382 348.96 207.782 349C207.622 349 207.542 348.88 207.582 348.72C207.902 347.48 209.982 341.88 210.702 339.96C210.822 339.68 210.902 339.72 211.022 339.96C211.382 340.52 213.462 346.52 214.142 348.56C214.182 348.68 214.062 348.88 214.022 348.88ZM235.142 346.92C235.142 347.08 235.542 347.24 236.502 348C236.942 348.28 236.942 348.8 236.942 349.2V356.84C236.902 359.24 236.782 359.64 235.222 360.16C234.902 360.28 234.422 360.44 234.422 360.68C234.422 361 234.822 361.16 235.262 361.16C236.222 361.16 236.702 361 237.902 361C240.222 361 241.622 361.2 242.622 361.2C243.222 361.2 243.582 361.04 243.582 360.84C243.582 360.68 243.502 360.4 242.862 360.2L241.022 359.72C240.302 359.6 240.062 358.84 239.982 357.68C239.942 357.08 239.742 349.84 239.742 349.04C239.742 348.84 239.862 348.48 240.142 348.16C240.542 347.72 241.222 347.6 241.902 347.6C242.702 347.6 243.662 348.08 244.102 348.48C244.222 348.56 244.582 348.64 244.662 348.6C244.902 348.48 245.862 347.4 246.302 346.76C246.422 346.56 246.542 346.28 246.542 346.2C246.542 345.84 246.182 344.84 244.542 344.84C243.302 344.84 241.542 345.84 239.982 347.32C239.902 347.36 239.702 347.32 239.702 347.16C239.702 346.4 239.782 345.68 239.782 344.96C239.782 344.84 239.582 344.48 239.422 344.48C239.302 344.48 239.102 344.64 238.622 344.96C238.222 345.2 236.982 345.8 235.662 346.24C235.222 346.4 235.142 346.8 235.142 346.92ZM255.543 344.88C254.863 344.88 253.543 345.12 252.503 345.6C249.383 347.04 247.703 350.24 247.703 353.44C247.703 358.12 250.583 361.4 254.903 361.4C257.183 361.4 259.303 360.44 260.703 358.4C260.823 358.2 260.983 357.76 260.983 357.44C260.983 357.24 260.903 356.96 260.663 356.96C260.503 356.96 260.303 357.2 260.143 357.44C259.463 358.44 258.263 358.88 256.503 358.88C254.583 358.88 252.903 357.88 252.023 356.68C251.143 355.52 250.503 353.68 250.503 352.12C250.503 351.72 250.583 351.04 250.703 350.72C250.743 350.6 250.903 350.4 251.023 350.4C252.863 350.44 259.703 350.44 260.143 350.44C260.583 350.44 260.903 350 260.903 349.76C260.903 348.36 260.383 347.24 259.503 346.4C258.503 345.4 256.943 344.88 255.543 344.88ZM255.143 345.92C256.583 345.92 257.783 347.2 257.783 348.32C257.783 349.12 257.383 349.32 256.423 349.32C254.423 349.36 252.303 349.36 251.263 349.32C251.183 349.32 251.023 349.08 251.103 348.88C251.823 347.04 253.343 345.92 255.143 345.92ZM273.355 344.84C272.275 344.84 269.915 345.24 268.075 346.36C266.115 347.52 263.835 349.8 263.835 353.72C263.835 355.72 264.475 357.76 265.755 359.2C266.995 360.52 268.835 361.4 270.755 361.4C272.075 361.4 274.115 361.04 275.955 359.4C276.035 359.4 276.195 359.48 276.195 359.64C276.195 360.2 276.115 360.92 276.115 361.28C276.115 361.48 276.395 361.8 276.555 361.8C276.755 361.8 277.075 361.72 277.995 361.4C278.755 361.12 280.835 360.72 281.595 360.6C281.795 360.56 282.275 359.88 282.275 359.6C282.275 359.56 282.195 359.36 282.035 359.36C281.635 359.4 280.315 359.68 279.875 359.68C279.635 359.68 279.315 359.52 279.235 358.04C279.235 357.28 279.155 356.64 279.155 348.92C279.155 336.68 279.315 335.24 279.515 333.12C279.555 332.76 279.315 332.48 279.195 332.48C279.035 332.48 278.915 332.52 278.675 332.6C277.635 333 275.515 333.6 274.595 333.72C274.355 333.76 273.915 334.24 273.915 334.4C273.915 334.48 273.955 334.56 274.315 334.76C276.155 335.72 276.155 336.2 276.195 336.4C276.315 337.36 276.435 343.48 276.235 344.56C276.195 344.76 276.075 345.04 275.915 345C275.435 344.92 274.795 344.84 273.355 344.84ZM271.875 346.16C272.675 346.16 274.195 346.6 275.315 347.72C275.795 348.2 276.155 348.92 276.195 349.24C276.315 351.12 276.355 353.32 276.315 355.88C276.275 357.16 275.755 358.44 275.675 358.52C274.955 359.04 274.035 359.48 272.755 359.48C269.315 359.48 267.075 355.8 267.075 352.6C267.075 350.36 267.995 348.32 268.755 347.56C269.475 346.84 270.595 346.16 271.875 346.16ZM292.199 359.48C291.239 359.48 290.519 359.48 289.479 358.68C288.919 358.28 288.479 357.36 288.479 356.44C288.479 354.64 288.639 347.08 288.599 345.72C288.599 345.48 288.439 345.12 288.279 345.12C288.119 345.12 285.159 345.56 284.039 345.56C283.559 345.56 283.359 345.8 283.359 345.92C283.359 346.28 283.719 346.48 284.079 346.64C284.759 346.92 285.519 347.08 285.559 348.2C285.639 350.32 285.639 354.84 285.639 357.72C285.639 358.36 285.919 359.16 286.199 359.6C286.999 360.84 288.279 361.48 289.719 361.48C290.839 361.48 291.719 361.28 292.399 361C292.919 360.8 294.519 359.76 295.679 358.96C295.759 358.92 295.879 359.04 295.879 359.24C295.839 359.92 295.719 360.68 295.719 360.92C295.719 361.2 295.959 361.48 296.119 361.48C296.199 361.48 296.839 361.32 297.519 361.12C298.439 360.88 300.119 360.44 301.159 360.36C301.319 360.36 301.599 360.08 301.599 359.96C301.559 359.84 301.279 359.2 301.119 359.2C300.639 359.2 299.399 359.4 299.119 359.4C298.799 359.4 298.639 358.92 298.639 358.84C298.639 355.56 298.959 346.68 299.039 345.56C299.039 345.4 298.959 344.96 298.759 344.96C298.479 344.96 298.199 345 297.799 345.12C296.879 345.36 295.119 345.56 293.519 345.56C293.119 345.56 292.599 345.76 292.599 345.92C292.599 346.24 293.119 346.48 293.399 346.56L295.239 347.04C295.479 347.12 295.919 347.68 295.919 347.92L295.839 357.12C295.839 357.28 295.479 357.88 295.239 358.08C294.239 358.96 293.159 359.48 292.199 359.48ZM312.681 344.96C311.601 344.96 309.001 345.52 307.441 346.64C305.121 348.2 303.561 350.64 303.561 353.56C303.561 355.24 304.121 357.12 304.801 358.24C306.081 360.12 308.201 361.44 310.721 361.44C312.801 361.44 315.081 360.52 316.481 358.96C316.801 358.64 317.001 358.24 317.001 357.8C317.001 357.6 316.681 357.48 316.241 357.8C315.201 358.52 314.161 359 312.681 359C310.601 359 308.641 358 307.641 356.32C307.481 356.08 306.601 354.64 306.601 352.32C306.601 350.56 307.201 348.92 308.281 347.72C308.921 346.92 310.121 346.36 310.761 346.36C312.121 346.36 312.801 346.96 314.121 347.92C314.761 348.36 315.441 348.68 315.681 348.68C315.841 348.68 317.001 347.72 317.001 347.08C317.001 346.84 316.801 346.16 316.401 345.88C315.641 345.28 313.881 344.96 312.681 344.96ZM324.505 345.4C324.345 345.4 324.185 345.2 324.185 345.08V343.2C324.185 343.12 323.825 342.76 323.625 342.76C323.465 342.76 323.185 343.08 322.705 343.64C322.145 344.32 320.905 345.28 319.505 346.4C319.385 346.52 319.265 346.68 319.265 346.84C319.265 346.96 319.505 347.16 319.825 347.28C320.625 347.52 321.345 347.8 321.345 348.08C321.345 349.48 321.185 355.48 321.185 356.96C321.185 358.08 321.265 358.92 321.705 359.6C322.185 360.48 323.585 361.48 325.225 361.48C327.025 361.48 328.425 360.76 329.505 359.72C329.785 359.44 330.065 359.04 330.065 358.72C330.065 358.36 329.865 358.28 329.825 358.28C329.665 358.28 329.585 358.32 329.225 358.52C328.625 358.88 327.785 359.12 327.265 359.12C326.425 359.12 325.585 359.04 324.825 358.36C324.385 357.92 324.145 357.4 324.145 356.4C324.145 354.48 324.185 348.6 324.225 347.8C324.225 347.72 324.385 347.52 324.585 347.52H328.945C329.225 347.52 329.985 347.44 329.985 347.08C329.985 346.56 329.865 345.44 329.865 345.56C329.865 345.44 329.465 345.24 329.425 345.24C329.265 345.24 325.385 345.4 324.505 345.4ZM335.887 361C336.727 361 338.727 361.12 339.007 361.12C339.447 361.12 339.927 360.96 339.927 360.72C339.927 360.44 339.687 360.24 339.047 360.04C338.047 359.72 337.167 359.64 337.127 358.36C337.087 356.96 337.047 355.28 337.047 353.04C337.047 350.76 337.287 345.56 337.287 345.12C337.287 345.08 337.087 344.68 336.927 344.68C336.327 344.84 334.447 345.72 332.967 346.04C332.527 346.12 332.167 346.44 332.167 346.72C332.167 346.88 332.247 347 332.487 347.16C333.647 348 334.087 348.32 334.127 348.6C334.207 349.08 334.167 353.64 334.167 354.84C334.167 356 334.127 358.4 334.007 358.96C333.927 359.36 333.327 359.84 332.407 360.08C331.727 360.28 331.447 360.48 331.447 360.72C331.447 361 331.847 361.16 332.487 361.16C333.167 361.16 334.567 361 335.887 361ZM335.807 336.72C335.247 336.72 334.647 336.88 334.247 337.24C333.927 337.68 333.767 338.32 333.767 338.68C333.767 339.36 334.047 339.8 334.367 340.16C334.727 340.48 335.367 340.64 335.647 340.64C336.447 340.64 337.567 339.76 337.567 338.68C337.567 337.96 336.887 336.72 335.807 336.72ZM350.484 344.84C347.804 344.84 345.804 345.96 344.564 347.04C343.044 348.32 341.764 350.24 341.764 353.28C341.764 355.28 343.004 358 344.724 359.4C346.204 360.64 348.204 361.48 350.044 361.48C351.844 361.48 353.404 361.04 355.004 359.88C356.484 358.92 358.484 356.32 358.484 353C358.484 347.96 354.444 344.84 350.484 344.84ZM349.724 346.04C350.764 346.04 352.204 346.64 353.084 347.6C354.604 349.36 355.084 351.64 355.084 353.72C355.084 355.44 354.284 357.92 353.284 359C352.164 360.12 351.284 360.32 350.844 360.32C348.924 360.32 346.644 358.88 345.644 355.88C345.324 354.88 345.164 353.64 345.164 352.32C345.164 350.24 346.084 348.16 347.124 347.2C347.964 346.48 348.884 346.04 349.724 346.04ZM361.745 346.76C361.745 346.88 361.985 347.08 362.505 347.44C363.385 348.16 363.465 348.56 363.465 349C363.465 353.08 363.385 356.56 363.265 357.76C363.145 359.2 362.905 359.6 361.585 360C361.145 360.12 360.745 360.32 360.745 360.6C360.745 360.96 361.185 361.12 361.785 361.12C362.465 361.12 363.625 361 365.105 361C365.945 361 367.065 361.04 367.545 361.04C368.105 361.04 368.545 360.84 368.545 360.56C368.545 360.32 368.225 360.08 367.825 359.96C366.545 359.6 366.385 359.28 366.345 358.72C366.305 358.24 366.305 349.64 366.305 349.12C366.305 348.76 366.585 348.28 366.705 348.16C367.465 347.48 368.505 346.88 370.265 346.88C371.185 346.88 372.385 347.32 372.825 347.64C373.305 348 374.025 349.16 374.025 350.6C374.025 351.76 373.985 356.6 373.905 357.92C373.825 359.24 373.625 359.56 372.665 359.92C372.185 360.08 371.745 360.32 371.745 360.6C371.745 360.92 372.305 361.08 372.665 361.08C373.185 361.08 374.425 361 375.425 361C376.545 361 377.465 361.08 378.385 361.08C379.025 361.08 379.585 360.92 379.585 360.64C379.585 360.36 379.345 360.16 378.585 359.96C377.585 359.68 377.185 359.16 377.105 358.56C377.065 358 376.985 352.04 376.985 351.28C376.985 349.28 376.465 347.44 375.585 346.4C375.025 345.76 373.905 344.88 371.945 344.88C370.265 344.88 368.185 346 366.585 347.08C366.545 347.08 366.345 347.16 366.345 346.96C366.345 346.6 366.505 345.64 366.505 344.96C366.505 344.8 366.305 344.36 366.105 344.36C365.905 344.36 365.545 344.56 365.145 344.8C364.585 345.2 363.145 345.72 362.465 345.96C362.185 346.08 361.745 346.48 361.745 346.76ZM395.413 345.4C395.293 345.4 395.173 345.2 395.173 345.04C395.173 339.8 395.533 337.64 396.493 335.96C397.213 334.8 398.013 334.32 398.973 334.32C400.013 334.32 401.013 334.88 401.773 335.56C402.333 336.12 402.573 336.36 402.853 336.36C403.093 336.36 403.373 336.32 403.573 336.24C404.133 336.04 404.653 335.12 404.653 334.56C404.653 334.08 404.373 333.52 403.973 333.2C403.333 332.68 402.253 332.44 401.413 332.44C399.893 332.44 398.453 332.88 396.853 334.08C395.093 335.36 394.093 336.8 393.253 338.8C392.533 340.52 392.333 342.36 392.253 344.76C392.253 344.96 392.013 345.2 391.733 345.44C390.813 346.16 389.813 346.6 389.773 346.76C389.653 347.04 389.933 347.44 390.133 347.44C390.573 347.36 391.413 347.36 391.813 347.36C391.973 347.36 392.213 347.48 392.213 348.84C392.213 351 392.173 355.8 392.133 357.44C392.093 359.24 392.053 359.64 390.333 360.12C389.893 360.28 389.493 360.56 389.493 360.76C389.493 361.04 389.933 361.2 390.493 361.2C390.893 361.2 393.053 361 394.493 361C395.493 361 397.333 361.08 397.813 361.08C398.293 361.08 398.853 361 398.853 360.6C398.853 360.44 398.613 360.12 397.933 360C395.693 359.64 395.413 359.28 395.253 357.88C395.173 357.2 395.053 348.44 395.133 347.64C395.133 347.56 395.333 347.32 395.413 347.32C395.853 347.32 399.813 347.44 400.093 347.44C400.293 347.44 400.693 347.16 400.693 347.04C400.693 346.2 400.413 345.36 400.133 345.36C399.973 345.36 397.853 345.4 395.413 345.4ZM402.251 346.92C402.251 347.08 402.651 347.24 403.611 348C404.051 348.28 404.051 348.8 404.051 349.2V356.84C404.011 359.24 403.891 359.64 402.331 360.16C402.011 360.28 401.531 360.44 401.531 360.68C401.531 361 401.931 361.16 402.371 361.16C403.331 361.16 403.811 361 405.011 361C407.331 361 408.731 361.2 409.731 361.2C410.331 361.2 410.691 361.04 410.691 360.84C410.691 360.68 410.611 360.4 409.971 360.2L408.131 359.72C407.411 359.6 407.171 358.84 407.091 357.68C407.051 357.08 406.851 349.84 406.851 349.04C406.851 348.84 406.971 348.48 407.251 348.16C407.651 347.72 408.331 347.6 409.011 347.6C409.811 347.6 410.771 348.08 411.211 348.48C411.331 348.56 411.691 348.64 411.771 348.6C412.011 348.48 412.971 347.4 413.411 346.76C413.531 346.56 413.651 346.28 413.651 346.2C413.651 345.84 413.291 344.84 411.651 344.84C410.411 344.84 408.651 345.84 407.091 347.32C407.011 347.36 406.811 347.32 406.811 347.16C406.811 346.4 406.891 345.68 406.891 344.96C406.891 344.84 406.691 344.48 406.531 344.48C406.411 344.48 406.211 344.64 405.731 344.96C405.331 345.2 404.091 345.8 402.771 346.24C402.331 346.4 402.251 346.8 402.251 346.92ZM423.492 344.84C420.812 344.84 418.812 345.96 417.572 347.04C416.052 348.32 414.772 350.24 414.772 353.28C414.772 355.28 416.012 358 417.732 359.4C419.212 360.64 421.212 361.48 423.052 361.48C424.852 361.48 426.412 361.04 428.012 359.88C429.492 358.92 431.492 356.32 431.492 353C431.492 347.96 427.452 344.84 423.492 344.84ZM422.732 346.04C423.772 346.04 425.212 346.64 426.092 347.6C427.612 349.36 428.092 351.64 428.092 353.72C428.092 355.44 427.292 357.92 426.292 359C425.172 360.12 424.292 360.32 423.852 360.32C421.932 360.32 419.652 358.88 418.652 355.88C418.332 354.88 418.172 353.64 418.172 352.32C418.172 350.24 419.092 348.16 420.132 347.2C420.972 346.48 421.892 346.04 422.732 346.04ZM434.713 347C434.713 347.2 434.993 347.4 436.113 348.44C436.473 348.8 436.393 349.32 436.393 349.52C436.393 352.28 436.353 356.28 436.273 357.44C436.113 359.16 435.873 359.76 434.593 360.08C433.873 360.24 433.633 360.52 433.633 360.68C433.633 360.96 434.033 361.12 434.633 361.12C435.513 361.12 436.313 361 437.633 361C439.153 361 440.633 361.08 440.793 361.08C441.313 361.08 441.873 360.96 441.873 360.68C441.873 360.36 441.553 360.2 440.793 359.96C439.513 359.56 439.353 358.92 439.353 358.16C439.353 355.12 439.353 350.08 439.433 349.04C439.473 348.6 439.593 348.28 439.873 348.04C440.833 347.28 441.753 346.8 443.073 346.8C444.513 346.8 445.553 347.32 446.073 348C446.353 348.36 446.593 348.88 446.593 350.04V357.88C446.593 359.32 446.433 359.72 445.073 360.04C444.433 360.2 444.273 360.48 444.273 360.6C444.273 360.76 444.393 361.08 445.313 361.08C446.153 361.08 447.313 361 448.153 361C449.073 361 450.273 361.08 451.153 361.08C451.793 361.08 452.113 360.88 452.113 360.6C452.113 360.4 451.713 360.16 451.273 360.04C449.913 359.72 449.713 359.32 449.593 358.04C449.513 357.16 449.593 349.6 449.593 349.32C449.593 349.04 449.873 348.28 449.993 348.16C450.553 347.68 451.273 346.92 453.073 346.92C454.753 346.92 455.633 347.56 456.113 348.32C456.513 349.04 456.753 349.6 456.753 351C456.753 352.32 456.833 356.8 456.833 357.76C456.833 359.16 456.673 359.64 455.393 360.04C454.953 360.16 454.513 360.32 454.513 360.56C454.513 360.84 454.753 361.08 455.513 361.08C456.433 361.08 457.033 361 458.233 361C459.233 361 460.313 361.12 461.113 361.12C461.873 361.12 462.233 360.96 462.233 360.68C462.233 360.44 461.993 360.28 461.473 360.12C460.033 359.72 459.793 358.96 459.753 358.24C459.753 354.96 459.833 352.16 459.673 350.08C459.593 348.64 459.233 347.24 458.353 346.24C457.513 345.36 456.393 344.88 454.913 344.88C454.193 344.88 453.273 345.08 452.353 345.52C451.313 346.04 450.273 346.68 449.513 347.24C449.353 347.32 449.273 347.24 449.193 347.08C449.033 346.8 448.633 346.2 447.913 345.68C447.193 345.16 446.233 344.88 444.793 344.88C442.913 344.88 440.433 346.4 439.433 347.2C439.273 347.36 439.193 347.08 439.193 346.96C439.193 346.56 439.353 345.44 439.353 344.88C439.353 344.8 439.073 344.52 438.873 344.48C438.793 344.48 438.713 344.52 438.553 344.64C438.113 344.92 436.313 345.96 435.513 346.28C435.073 346.52 434.713 346.76 434.713 347ZM480.63 335.76C478.75 335.76 477.07 336.44 475.71 337.64C474.39 338.8 473.51 340.2 473.51 340.64C473.51 341.04 473.63 341.2 473.87 341.2C473.99 341.2 474.27 341.04 474.71 340.48C475.99 338.92 477.51 338.24 479.11 338.24C481.23 338.24 482.99 340 482.99 342.2C482.99 344.12 482.15 345.72 479.15 347.24C478.31 347.68 477.71 348 477.19 348.36C476.95 348.56 476.59 349.08 476.59 349.4C476.55 349.6 476.71 349.8 476.91 349.72C477.91 349.28 479.39 349.04 480.03 349.04C481.47 349.04 482.63 349.32 483.63 350.4C484.63 351.48 485.07 353.12 485.07 354.76C485.07 356.36 484.35 358.72 482.47 360.2C481.43 361.04 479.99 361.36 479.15 361.36C477.91 361.36 476.43 361.08 475.11 359.92C474.79 359.64 474.31 359.36 474.15 359.36C473.83 359.36 473.39 359.64 473.07 360.12C472.91 360.36 472.75 360.8 472.75 361.04C472.75 362.16 474.59 363.04 476.79 363.04C478.39 363.04 480.67 362.56 482.71 361.36C486.15 359.36 488.47 356.04 488.47 352.76C488.47 351.16 488.03 349.92 487.35 349.08C485.99 347.4 483.79 346.84 482.51 346.56C482.31 346.48 482.31 346.32 482.43 346.16C483.39 345.52 484.07 344.92 484.79 344.16C485.31 343.6 486.19 342.4 486.19 340.76C486.19 338.84 484.43 335.76 480.63 335.76ZM492.877 351.76C492.637 351.8 492.197 352.4 492.197 353.44C492.197 353.76 492.477 354.04 492.837 354C495.237 353.76 498.877 353.4 500.237 353.24C500.717 353.2 500.957 351.96 500.957 351.32C500.957 351.16 500.717 350.88 500.637 350.88C499.077 351.04 495.077 351.44 492.877 351.76ZM520.888 334.56C517.208 334.56 513.488 335.44 510.048 338.24C508.368 339.64 505.648 343.28 505.648 347.84C505.648 352.4 507.488 355.28 509.008 357.04C510.608 358.92 514.728 361.72 520.368 361.72C523.768 361.72 527.008 360.88 527.648 360.6C528.048 360.4 528.728 359.92 528.888 359.56C529.448 358.64 530.368 356.52 530.488 355.52C530.568 355.08 530.528 354.2 530.128 354.2C529.968 354.2 529.808 354.4 529.288 355.24C528.328 356.92 527.328 358.2 525.568 359.12C523.928 360.08 521.968 360.2 521.208 360.2C517.968 360.2 513.328 358.4 511.088 353.8C510.208 352.04 509.688 349.88 509.688 347.2C509.688 341.16 513.808 335.84 520.248 335.84C522.408 335.84 524.448 336.28 526.648 337.92C527.168 338.32 527.928 339.52 528.288 340.92C528.488 341.52 528.728 341.96 528.928 341.96C529.248 341.96 529.568 341.48 529.528 340.64C529.448 339.76 529.248 338 529.248 337.16C529.248 336.24 528.848 335.96 528.648 335.96C528.048 335.88 526.648 335.36 525.608 335.2C524.088 334.84 522.288 334.56 520.888 334.56ZM533.272 335.64C533.272 335.96 533.712 336.16 534.152 336.28C535.952 336.76 536.392 336.8 537.512 338.12C537.592 338.24 537.792 338.6 537.792 340.04C537.792 343.36 537.232 352.96 537.032 356.2C536.872 359.16 536.112 359.32 534.232 359.96C533.832 360.08 533.432 360.32 533.432 360.64C533.432 361.04 533.912 361.08 534.472 361.08C535.152 361.08 536.192 361 537.072 361C538.512 361 540.192 361.2 541.352 361.2C542.112 361.2 542.632 361.08 542.632 360.68C542.632 360.44 542.472 360.16 541.632 359.96C539.712 359.4 539.272 358.8 539.112 356.96C539.032 355.72 539.152 349.56 539.152 345.96C539.192 342.84 539.312 341.72 539.352 340.64C539.352 340.44 539.632 340.36 539.792 340.56C543.392 344.88 550.312 352.68 554.072 357.16C555.152 358.48 555.872 359.52 556.552 360.36C556.912 360.84 557.792 361.64 558.352 361.64C558.712 361.64 558.912 361.2 558.912 360.8C558.912 360.16 558.632 357.16 558.632 355.48C558.632 348.6 558.992 340.72 559.072 339.28C559.192 337.12 559.912 336.76 561.632 336.36C562.352 336.16 562.592 335.8 562.592 335.56C562.592 335.24 562.352 335.12 561.672 335.12C560.632 335.12 559.352 335.28 557.912 335.28C556.632 335.28 555.512 335.24 554.472 335.24C553.992 335.24 553.432 335.32 553.432 335.6C553.432 335.92 553.712 336.24 554.512 336.48C556.712 337.12 556.992 338.08 557.032 338.92C557.152 340.16 557.232 341.56 557.232 342.92C557.232 348.68 557.352 353 557.152 354.28C557.152 354.4 556.992 354.8 556.752 354.56C554.072 351.64 545.272 342.04 543.472 339.76C541.912 337.72 540.912 336.52 540.312 335.8C540.072 335.56 539.712 335.28 539.472 335.28C537.432 335.28 535.472 335.16 534.592 335.16C533.672 335.16 533.272 335.32 533.272 335.64ZM570.963 335.28C569.723 335.28 568.283 335.16 566.523 335.16C565.883 335.16 565.403 335.32 565.403 335.64C565.403 335.92 565.603 336.12 566.403 336.32C568.163 336.76 568.843 337.44 568.923 338.8C569.003 339.84 569.003 342.2 569.003 345.96C569.003 353.88 568.803 356.84 568.683 358.08C568.643 358.6 568.563 359.52 566.403 360.04C565.763 360.2 565.323 360.52 565.323 360.84C565.323 361.08 565.643 361.24 566.443 361.24C567.283 361.24 569.603 361 571.203 361C572.723 361 573.963 361.12 575.003 361.12C575.763 361.12 576.123 360.88 576.123 360.64C576.123 360.28 575.763 360 575.163 359.88C572.563 359.4 572.483 358.6 572.443 357.36C572.403 356.2 572.243 350.6 572.283 349.84C572.323 349.68 572.483 349.36 572.603 349.36C573.443 349.24 575.363 349.24 576.123 349.24C576.923 349.24 578.363 349.36 578.803 349.44C579.563 349.64 580.043 349.84 580.443 351.36C580.603 351.92 580.843 352.2 581.043 352.2C581.443 352.2 581.643 351.72 581.643 351.28C581.643 350.4 581.563 350.04 581.563 348.12C581.563 347.4 581.763 346.12 581.763 345.6C581.763 345.12 581.683 344.72 581.403 344.72C581.043 344.72 580.883 345.12 580.643 345.68C580.083 347.04 579.723 347.4 578.483 347.52C577.523 347.6 574.283 347.56 572.723 347.56C572.523 347.56 572.323 347.16 572.323 346.08C572.323 343.44 572.403 338.2 572.483 337.24C572.483 337.12 572.723 336.76 573.123 336.72C573.963 336.64 577.963 336.6 579.323 336.8C580.643 337 581.083 337.36 581.723 339.32C581.963 340.12 582.283 340.56 582.603 340.56C582.963 340.56 583.203 340 583.163 339.48C583.123 338.12 582.963 336.72 583.043 335.56C583.043 335.32 582.763 335.12 582.563 335.16C582.243 335.16 578.563 335.28 576.163 335.28H570.963ZM587.057 351.76C586.817 351.8 586.377 352.4 586.377 353.44C586.377 353.76 586.657 354.04 587.017 354C589.417 353.76 593.057 353.4 594.417 353.24C594.897 353.2 595.137 351.96 595.137 351.32C595.137 351.16 594.897 350.88 594.817 350.88C593.257 351.04 589.257 351.44 587.057 351.76ZM608.046 334.56C605.246 334.56 603.366 335.4 602.126 336.52C600.766 337.72 599.926 339.52 599.926 341.4C599.926 344.8 602.326 347.12 605.726 349.32C609.926 352 610.726 353.8 610.726 355.48C610.726 358.36 608.646 360.32 605.886 360.32C604.366 360.32 601.726 359.32 600.686 357.12C600.126 355.88 599.526 354.84 599.206 354.84C599.046 354.84 598.646 355.44 598.646 355.6C598.646 356.24 599.046 358 599.246 359.36C599.246 359.52 599.766 360.4 600.166 360.64C601.406 361.24 604.126 361.68 605.406 361.68C607.206 361.68 609.566 361.08 610.846 360.24C613.006 358.84 614.126 356.6 614.126 354.6C614.126 351 611.686 348.92 608.606 346.84C605.086 344.48 603.046 343.24 603.046 340.4C603.046 337.72 604.966 335.72 607.646 335.72C608.806 335.72 609.766 336.08 610.486 336.64C610.886 336.88 611.966 338.08 612.446 339.52C612.606 340.08 613.086 340.36 613.406 340.36C613.686 340.36 613.686 339.96 613.686 339.28C613.686 339.12 613.366 336.8 613.286 336.04C613.286 335.96 613.046 335.36 612.806 335.28C612.086 335.16 610.006 334.56 608.046 334.56ZM630.268 334.56C630.068 334.56 629.908 334.76 629.628 335.08L628.668 336.68C628.508 337 628.428 337.24 628.388 337.36C628.308 337.6 628.268 337.84 628.028 338.4C626.348 342.48 621.788 354.56 620.868 356.6C619.708 359.2 619.188 359.32 617.188 360C616.588 360.2 616.308 360.56 616.308 360.8C616.308 361.04 616.508 361.2 617.228 361.2C617.828 361.2 619.908 361 621.388 361C622.868 361 623.868 361.12 624.548 361.12C625.068 361.12 625.668 361 625.668 360.6C625.668 360.32 625.268 360.08 624.588 359.88C622.788 359.32 622.628 358.64 622.628 358.16C622.628 357.16 623.668 353.76 624.708 351.16C624.788 351.04 624.988 350.84 625.148 350.84C625.988 350.72 629.508 350.68 631.708 350.68C632.868 350.68 633.028 350.92 633.068 351.08C633.988 353.64 634.988 356.28 635.308 357.92C635.468 358.76 635.628 359.56 633.708 359.96C632.988 360.08 632.748 360.4 632.748 360.6C632.748 360.8 632.988 361.08 633.988 361.08C634.988 361.08 635.548 361 636.828 361C638.588 361 640.548 361.2 641.868 361.2C642.868 361.2 643.148 360.96 643.148 360.68C643.148 360.4 642.828 360.2 642.188 360C640.388 359.56 639.748 359.24 638.428 355.96C637.748 354.32 634.748 346.4 632.668 340.56C631.908 338.48 631.228 336.68 630.908 335.6C630.588 334.72 630.428 334.56 630.268 334.56ZM632.068 348.88C630.748 349 627.428 348.96 625.828 349C625.668 349 625.588 348.88 625.628 348.72C625.948 347.48 628.028 341.88 628.748 339.96C628.868 339.68 628.948 339.72 629.068 339.96C629.428 340.52 631.508 346.52 632.188 348.56C632.228 348.68 632.108 348.88 632.068 348.88ZM652.562 335.28C647.442 335.28 644.242 335.16 643.202 335.04C642.602 335 641.962 334.4 641.842 334.28C641.402 333.92 641.402 333.64 641.202 333.64C640.962 333.64 640.602 334.04 640.602 334.28C640.602 336.64 639.842 338.84 639.842 339.6C639.842 340 640.002 340.52 640.242 340.52C640.402 340.52 640.642 340.56 641.002 339.72C641.682 338.4 642.162 337.76 642.322 337.64C642.922 336.96 643.762 336.72 645.282 336.72C645.922 336.72 649.442 336.8 650.242 336.92C650.362 336.92 650.562 337.12 650.562 337.44V342.2C650.562 345.28 650.362 353.44 650.282 355.8C650.162 358.8 650.082 359.48 647.282 360.12C646.922 360.2 646.522 360.52 646.522 360.8C646.522 361.04 646.922 361.28 647.722 361.28C648.242 361.28 650.282 361 652.282 361C654.042 361 656.522 361.2 656.842 361.2C657.242 361.2 657.962 361.16 657.962 360.72C657.962 360.44 657.402 360.12 656.882 360C654.402 359.44 654.202 358.96 654.002 357.16C653.842 355.68 653.842 351.88 653.842 347.24V337.44C653.842 337.36 654.002 336.96 654.202 336.92C654.682 336.8 659.122 336.8 659.802 336.84C662.282 336.96 662.802 337.16 663.042 339.24C663.162 340.24 663.322 340.52 663.602 340.52C663.922 340.52 664.242 340.12 664.282 339.76C664.522 337.68 664.762 336.4 665.162 335.16C665.362 334.6 665.202 334.24 665.002 334.24C664.842 334.24 664.722 334.32 664.442 334.48C663.882 334.88 663.162 335.12 661.722 335.2C660.082 335.24 654.642 335.28 652.562 335.28Z" fill="black"/>
<path id="11:15" d="M215.64 286.6C215.64 286.76 215.76 286.88 216.44 287.36C217.36 287.92 217.36 288.16 217.4 288.48C217.52 289.56 217.52 293.88 217.52 296.84C217.52 303.16 217.4 307.36 217.28 309C217.12 311 217.04 311.72 215.2 312.12C214.76 312.2 214.32 312.4 214.32 312.68C214.32 313 214.64 313.12 215.44 313.12C216.28 313.12 218.04 313 218.96 313C219.68 313 221.4 313.12 222.36 313.12C222.84 313.12 223.4 312.96 223.4 312.68C223.4 312.44 223.08 312.24 222.48 312.08C220.76 311.6 220.6 311.12 220.44 310.32C220.24 309.24 220.32 301.6 220.32 295.76C220.32 290.4 220.56 285.88 220.68 284.88C220.68 284.72 220.44 284.4 220.32 284.48C219.24 285.16 218.04 285.4 216.2 286.04C215.76 286.16 215.64 286.44 215.64 286.6ZM229.52 313C230.36 313 232.36 313.12 232.64 313.12C233.08 313.12 233.56 312.96 233.56 312.72C233.56 312.44 233.32 312.24 232.68 312.04C231.68 311.72 230.8 311.64 230.76 310.36C230.72 308.96 230.68 307.28 230.68 305.04C230.68 302.76 230.92 297.56 230.92 297.12C230.92 297.08 230.72 296.68 230.56 296.68C229.96 296.84 228.08 297.72 226.6 298.04C226.16 298.12 225.8 298.44 225.8 298.72C225.8 298.88 225.88 299 226.12 299.16C227.28 300 227.72 300.32 227.76 300.6C227.84 301.08 227.8 305.64 227.8 306.84C227.8 308 227.76 310.4 227.64 310.96C227.56 311.36 226.96 311.84 226.04 312.08C225.36 312.28 225.08 312.48 225.08 312.72C225.08 313 225.48 313.16 226.12 313.16C226.8 313.16 228.2 313 229.52 313ZM229.44 288.72C228.88 288.72 228.28 288.88 227.88 289.24C227.56 289.68 227.4 290.32 227.4 290.68C227.4 291.36 227.68 291.8 228 292.16C228.36 292.48 229 292.64 229.28 292.64C230.08 292.64 231.2 291.76 231.2 290.68C231.2 289.96 230.52 288.72 229.44 288.72ZM236.003 298.76C236.003 298.88 236.243 299.08 236.763 299.44C237.643 300.16 237.723 300.56 237.723 301C237.723 305.08 237.643 308.56 237.523 309.76C237.403 311.2 237.163 311.6 235.843 312C235.403 312.12 235.003 312.32 235.003 312.6C235.003 312.96 235.443 313.12 236.043 313.12C236.723 313.12 237.883 313 239.363 313C240.203 313 241.323 313.04 241.803 313.04C242.363 313.04 242.803 312.84 242.803 312.56C242.803 312.32 242.483 312.08 242.083 311.96C240.803 311.6 240.643 311.28 240.603 310.72C240.563 310.24 240.563 301.64 240.563 301.12C240.563 300.76 240.843 300.28 240.963 300.16C241.723 299.48 242.763 298.88 244.523 298.88C245.443 298.88 246.643 299.32 247.083 299.64C247.563 300 248.283 301.16 248.283 302.6C248.283 303.76 248.243 308.6 248.163 309.92C248.083 311.24 247.883 311.56 246.923 311.92C246.443 312.08 246.003 312.32 246.003 312.6C246.003 312.92 246.563 313.08 246.923 313.08C247.443 313.08 248.683 313 249.683 313C250.803 313 251.723 313.08 252.643 313.08C253.283 313.08 253.843 312.92 253.843 312.64C253.843 312.36 253.603 312.16 252.843 311.96C251.843 311.68 251.443 311.16 251.363 310.56C251.323 310 251.243 304.04 251.243 303.28C251.243 301.28 250.723 299.44 249.843 298.4C249.283 297.76 248.163 296.88 246.203 296.88C244.523 296.88 242.443 298 240.843 299.08C240.803 299.08 240.603 299.16 240.603 298.96C240.603 298.6 240.763 297.64 240.763 296.96C240.763 296.8 240.563 296.36 240.363 296.36C240.163 296.36 239.803 296.56 239.403 296.8C238.843 297.2 237.403 297.72 236.723 297.96C236.443 298.08 236.003 298.48 236.003 298.76ZM263.902 296.88C263.222 296.88 261.902 297.12 260.862 297.6C257.742 299.04 256.062 302.24 256.062 305.44C256.062 310.12 258.942 313.4 263.262 313.4C265.542 313.4 267.662 312.44 269.062 310.4C269.182 310.2 269.342 309.76 269.342 309.44C269.342 309.24 269.262 308.96 269.022 308.96C268.862 308.96 268.662 309.2 268.502 309.44C267.822 310.44 266.622 310.88 264.862 310.88C262.942 310.88 261.262 309.88 260.382 308.68C259.502 307.52 258.862 305.68 258.862 304.12C258.862 303.72 258.942 303.04 259.062 302.72C259.102 302.6 259.262 302.4 259.382 302.4C261.222 302.44 268.062 302.44 268.502 302.44C268.942 302.44 269.262 302 269.262 301.76C269.262 300.36 268.742 299.24 267.862 298.4C266.862 297.4 265.302 296.88 263.902 296.88ZM263.502 297.92C264.942 297.92 266.142 299.2 266.142 300.32C266.142 301.12 265.742 301.32 264.782 301.32C262.782 301.36 260.662 301.36 259.622 301.32C259.542 301.32 259.382 301.08 259.462 300.88C260.182 299.04 261.702 297.92 263.502 297.92ZM278.726 296.84C277.966 296.84 276.166 297.52 275.006 298.36C273.126 299.6 272.006 300.72 272.006 301.88C272.006 302.08 272.246 302.4 272.486 302.4C272.686 302.4 274.686 301.4 275.086 301.08C275.166 301 275.326 300.76 275.326 300.64C275.246 299.84 275.366 299.12 275.606 299C275.886 298.8 276.406 298.56 277.246 298.56C279.206 298.56 280.366 300.24 280.366 301.24C280.366 301.72 280.326 304.16 280.286 304.52C280.286 304.76 280.046 304.96 279.126 305.24C278.246 305.52 275.046 306.4 274.446 306.64C273.846 306.92 273.246 307.12 272.846 307.64C272.406 308.2 272.086 308.96 272.086 309.68C272.086 311.68 273.446 313.4 274.846 313.4C275.046 313.4 276.006 313.32 276.446 313.16C276.846 313.04 278.566 312.36 280.046 311.32C280.126 311.28 280.286 311.44 280.286 311.48C280.766 312.96 281.926 313.48 282.846 313.48C284.646 313.48 286.446 311.76 286.446 311C286.446 310.96 286.446 310.72 286.326 310.6C286.246 310.48 286.206 310.4 286.086 310.48C285.646 310.8 284.726 311.08 284.566 311.08C284.246 311.08 282.966 310.92 282.966 309.08C282.966 308.64 283.126 303.6 283.126 302.04C283.126 300.36 282.926 299.56 282.326 298.72C281.726 297.84 280.726 296.84 278.726 296.84ZM277.526 311.32C276.686 311.32 275.006 310.68 275.006 308.92C275.006 307.96 275.406 307.68 275.806 307.4C276.886 306.88 278.806 306.2 279.926 306.2C280.086 306.2 280.246 306.4 280.246 306.52C280.246 307.32 280.246 308.68 280.166 309.64C280.166 309.72 279.926 310.48 279.686 310.64C278.926 311.04 278.126 311.32 277.526 311.32ZM288.345 298.92C288.345 299.08 288.745 299.24 289.705 300C290.145 300.28 290.145 300.8 290.145 301.2V308.84C290.105 311.24 289.985 311.64 288.425 312.16C288.105 312.28 287.625 312.44 287.625 312.68C287.625 313 288.025 313.16 288.465 313.16C289.425 313.16 289.905 313 291.105 313C293.425 313 294.825 313.2 295.825 313.2C296.425 313.2 296.785 313.04 296.785 312.84C296.785 312.68 296.705 312.4 296.065 312.2L294.225 311.72C293.505 311.6 293.265 310.84 293.185 309.68C293.145 309.08 292.945 301.84 292.945 301.04C292.945 300.84 293.065 300.48 293.345 300.16C293.745 299.72 294.425 299.6 295.105 299.6C295.905 299.6 296.865 300.08 297.305 300.48C297.425 300.56 297.785 300.64 297.865 300.6C298.105 300.48 299.065 299.4 299.505 298.76C299.625 298.56 299.745 298.28 299.745 298.2C299.745 297.84 299.385 296.84 297.745 296.84C296.505 296.84 294.745 297.84 293.185 299.32C293.105 299.36 292.905 299.32 292.905 299.16C292.905 298.4 292.985 297.68 292.985 296.96C292.985 296.84 292.785 296.48 292.625 296.48C292.505 296.48 292.305 296.64 291.825 296.96C291.425 297.2 290.185 297.8 288.865 298.24C288.425 298.4 288.345 298.8 288.345 298.92Z" fill="#2F80ED"/>
</g>
</svg>
