<svg width="1024" height="769" viewBox="0 0 1024 769" fill="none" xmlns="http://www.w3.org/2000/svg">
<g id="homomorphism of algebras">
<rect width="1024" height="768" transform="translate(0 0.800293)" fill="white"/>
<g id="multiplication_in_A">
<path id="TA" d="M324 301.12V285.84C324 283.28 324.4 281.76 325.84 281.76H326.72C329.72 281.76 331.6 282.8 332.28 285.88C332.72 285.88 333.28 285.84 333.64 285.68C333.36 283.84 333.16 281.8 333.12 280C333.12 279.96 333.04 279.88 333 279.88C331.64 280 327.2 280.2 324.04 280.2H320.6C317.52 280.2 312.8 280 311.28 279.88C311.2 279.88 311.12 279.96 311.12 280C310.96 281.8 310.56 283.88 310.12 285.8C310.52 285.96 311 286 311.48 286C312.28 282.8 314.12 281.76 316.76 281.76H318.72C320.2 281.76 320.6 283.28 320.6 285.72V301.12C320.6 304.44 319.92 304.64 316.72 304.76C316.48 305 316.48 305.84 316.72 306.08C318.68 306.04 320.72 306 322.32 306C323.84 306 325.88 306.04 327.88 306.08C328.12 305.84 328.12 305 327.88 304.76C324.68 304.64 324 304.44 324 301.12ZM338.114 302.84L340.314 297.04C340.514 296.52 340.754 296.36 341.714 296.36H350.154L352.474 303.12C352.954 304.48 351.434 304.64 349.514 304.76C349.274 305 349.274 305.84 349.514 306.08C350.994 306.04 353.194 306 354.754 306C356.394 306 357.914 306.04 359.314 306.08C359.554 305.84 359.554 305 359.314 304.76C357.754 304.6 356.394 304.48 355.714 302.56L347.474 279.68C346.874 280.04 345.794 280.48 345.274 280.48L336.194 301.92C335.154 304.4 333.954 304.64 332.194 304.76C331.954 305 331.954 305.84 332.194 306.08C333.234 306.04 334.554 306 335.754 306C337.394 306 339.394 306.04 340.874 306.08C341.114 305.84 341.114 305 340.874 304.76C339.354 304.64 337.474 304.48 338.114 302.84ZM342.434 294.68C341.554 294.68 341.274 294.56 341.434 294.16L345.514 283.8H345.754L349.514 294.68H342.434Z" fill="black"/>
<path id="TB" d="M324 508.12V492.84C324 490.28 324.4 488.76 325.84 488.76H326.72C329.72 488.76 331.6 489.8 332.28 492.88C332.72 492.88 333.28 492.84 333.64 492.68C333.36 490.84 333.16 488.8 333.12 487C333.12 486.96 333.04 486.88 333 486.88C331.64 487 327.2 487.2 324.04 487.2H320.6C317.52 487.2 312.8 487 311.28 486.88C311.2 486.88 311.12 486.96 311.12 487C310.96 488.8 310.56 490.88 310.12 492.8C310.52 492.96 311 493 311.48 493C312.28 489.8 314.12 488.76 316.76 488.76H318.72C320.2 488.76 320.6 490.28 320.6 492.72V508.12C320.6 511.44 319.92 511.64 316.72 511.76C316.48 512 316.48 512.84 316.72 513.08C318.68 513.04 320.72 513 322.32 513C323.84 513 325.88 513.04 327.88 513.08C328.12 512.84 328.12 512 327.88 511.76C324.68 511.64 324 511.44 324 508.12ZM339.787 487.2C338.347 487.2 336.187 487.16 334.627 487.12C334.387 487.36 334.387 488.2 334.627 488.44C337.427 488.56 338.107 488.76 338.107 492.08V508.12C338.107 511.44 337.427 511.64 334.627 511.76C334.387 512 334.387 512.84 334.627 513.08C336.187 513.04 338.347 513 339.827 513C341.267 513 342.307 513.08 345.667 513.08C353.627 513.08 355.747 509.08 355.747 505.64C355.747 501.8 353.067 499.6 349.587 498.6V498.52C351.587 497.52 353.387 495.44 353.387 493.28C353.387 490.6 352.227 487.12 344.787 487.12C343.387 487.12 341.227 487.2 339.787 487.2ZM341.507 499.72H344.267C349.747 499.72 352.027 502.8 352.027 506.4C352.027 509.32 350.907 511.76 344.827 511.76C342.027 511.76 341.507 510.72 341.507 508.28V499.72ZM341.507 491C341.507 488.88 341.507 488.48 344.987 488.48C347.227 488.48 350.147 489.68 350.147 493.76C350.147 497.16 347.787 498.36 344.467 498.36H341.507V491Z" fill="black"/>
<path id="A" d="M742.2 303.312L744.4 297.512C744.6 296.992 744.84 296.832 745.8 296.832H754.24L756.56 303.592C757.04 304.952 755.52 305.112 753.6 305.232C753.36 305.472 753.36 306.312 753.6 306.552C755.08 306.512 757.28 306.472 758.84 306.472C760.48 306.472 762 306.512 763.4 306.552C763.64 306.312 763.64 305.472 763.4 305.232C761.84 305.072 760.48 304.952 759.8 303.032L751.56 280.152C750.96 280.512 749.88 280.952 749.36 280.952L740.28 302.392C739.24 304.872 738.04 305.112 736.28 305.232C736.04 305.472 736.04 306.312 736.28 306.552C737.32 306.512 738.64 306.472 739.84 306.472C741.48 306.472 743.48 306.512 744.96 306.552C745.2 306.312 745.2 305.472 744.96 305.232C743.44 305.112 741.56 304.952 742.2 303.312ZM746.52 295.152C745.64 295.152 745.36 295.032 745.52 294.632L749.6 284.272H749.84L753.6 295.152H746.52Z" fill="black"/>
<path id="B" d="M741.92 487.672C740.48 487.672 738.32 487.632 736.76 487.592C736.52 487.832 736.52 488.672 736.76 488.912C739.56 489.032 740.24 489.232 740.24 492.552V508.592C740.24 511.912 739.56 512.112 736.76 512.232C736.52 512.472 736.52 513.312 736.76 513.552C738.32 513.512 740.48 513.472 741.96 513.472C743.4 513.472 744.44 513.552 747.8 513.552C755.76 513.552 757.88 509.552 757.88 506.112C757.88 502.272 755.2 500.072 751.72 499.072V498.992C753.72 497.992 755.52 495.912 755.52 493.752C755.52 491.072 754.36 487.592 746.92 487.592C745.52 487.592 743.36 487.672 741.92 487.672ZM743.64 500.192H746.4C751.88 500.192 754.16 503.272 754.16 506.872C754.16 509.792 753.04 512.232 746.96 512.232C744.16 512.232 743.64 511.192 743.64 508.752V500.192ZM743.64 491.472C743.64 489.352 743.64 488.952 747.12 488.952C749.36 488.952 752.28 490.152 752.28 494.232C752.28 497.632 749.92 498.832 746.6 498.832H743.64V491.472Z" fill="black"/>
<path id="Arrow 20" d="M708.354 301.208C708.549 301.012 708.549 300.696 708.354 300.5L705.172 297.318C704.976 297.123 704.66 297.123 704.464 297.318C704.269 297.514 704.269 297.83 704.464 298.026L707.293 300.854L704.464 303.682C704.269 303.878 704.269 304.194 704.464 304.39C704.66 304.585 704.976 304.585 705.172 304.39L708.354 301.208ZM374.843 301.354H708V300.354H374.843V301.354Z" fill="black"/>
<path id="Arrow 23" d="M708.354 508.208C708.549 508.012 708.549 507.696 708.354 507.5L705.172 504.318C704.976 504.123 704.66 504.123 704.464 504.318C704.269 504.514 704.269 504.83 704.464 505.026L707.293 507.854L704.464 510.682C704.269 510.878 704.269 511.194 704.464 511.39C704.66 511.585 704.976 511.585 705.172 511.39L708.354 508.208ZM374.843 508.354H708V507.354H374.843V508.354Z" fill="black"/>
<path id="multiplication in A" d="M395.8 266.68C395.76 265.48 395.68 264.04 395.48 263.64C395.4 263.44 395.32 263.32 395 263.32C393.88 263.76 392.84 264.12 390.08 264.48C390 264.72 390.08 265.36 390.16 265.6C392.32 265.8 392.76 266 392.76 268.32V276.12C392.76 279.4 392.24 279.6 390.04 279.76C389.8 280 389.8 280.84 390.04 281.08C391.24 281.04 392.76 281 394.36 281C395.96 281 397.2 281.04 398.4 281.08C398.64 280.84 398.64 280 398.4 279.76C396.36 279.56 395.92 279.4 395.92 276.12V269.56C395.92 268.72 396.28 268.24 396.6 267.88C398.2 266.32 399.68 265.52 400.92 265.52C402.44 265.52 403.56 266.48 403.56 269.16V276.12C403.56 279.4 403.24 279.6 401.08 279.76C400.88 280 400.88 280.84 401.08 281.08C402.08 281.04 403.56 281 405.16 281C406.76 281 408.08 281.04 409.08 281.08C409.28 280.84 409.28 280 409.08 279.76C407.08 279.6 406.72 279.4 406.72 276.12V269.76C406.72 269.2 406.72 268.64 406.68 268.16C408.6 266.04 410.4 265.52 411.96 265.52C413.48 265.52 414.36 266.4 414.36 269.08V276.12C414.36 279.4 413.96 279.6 411.88 279.76C411.68 280 411.68 280.84 411.88 281.08C412.88 281.04 414.36 281 415.96 281C417.56 281 418.96 281.04 420.08 281.08C420.28 280.84 420.28 280 420.08 279.76C417.88 279.6 417.52 279.4 417.52 276.12V269.8C417.52 266.24 416.92 263.44 413.4 263.44C411.36 263.44 408.88 264.2 406.8 266.4C406.68 266.52 406.44 266.72 406.36 266.36C406 264.72 404.44 263.44 402.36 263.44C400.04 263.44 397.96 264.8 396.28 266.68C396.08 266.88 395.84 267.16 395.8 266.68ZM429.282 281.4C430.842 281.4 432.722 280.6 434.682 279C434.882 278.84 435.242 278.76 435.282 279.04C435.402 280.04 435.722 281.4 435.722 281.4C436.042 281.52 436.242 281.48 436.482 281.4C437.362 280.68 438.762 280.08 441.202 279.8C441.442 279.56 441.442 278.96 441.202 278.72C438.642 278.52 438.282 277.76 438.282 275.8V268.12C438.282 266.92 438.442 264 438.442 264C438.442 263.88 438.322 263.76 438.122 263.76C437.922 263.8 437.322 263.84 436.722 263.84C435.442 263.84 434.002 263.8 432.642 263.76C432.402 264 432.402 264.84 432.642 265.08C434.602 265.2 435.122 265.68 435.122 268.32V276.04C435.122 276.8 435.042 277.12 434.482 277.6C433.002 278.88 431.482 279.52 430.482 279.52C429.282 279.52 427.282 278.96 427.282 275.4V268.12C427.282 266.92 427.442 264 427.442 264C427.442 263.88 427.322 263.76 427.122 263.76C426.922 263.8 426.322 263.84 425.722 263.84C424.442 263.84 423.002 263.8 421.642 263.76C421.402 264 421.402 264.84 421.642 265.08C423.562 265.24 424.122 265.68 424.122 268.28V275.96C424.122 278.72 425.322 281.4 429.282 281.4ZM445.652 276.12C445.652 279.44 445.212 279.64 442.772 279.76C442.532 280 442.532 280.84 442.772 281.08C444.172 281.04 445.652 281 447.252 281C448.852 281 450.372 281.04 451.692 281.08C451.932 280.84 451.932 280 451.692 279.76C449.252 279.64 448.812 279.44 448.812 276.12V257.68C448.812 255.08 448.972 253.48 448.972 253.48C448.972 253.2 448.812 253.08 448.452 253.08C447.452 253.48 444.452 254.04 442.852 254.16C442.772 254.48 442.852 255.12 443.092 255.36C445.412 255.52 445.652 255.64 445.652 258.64V276.12ZM454.118 263.84C453.558 263.84 453.398 264.32 453.398 264.64V265.16C453.398 265.36 453.438 265.4 453.598 265.4H455.958V277.44C455.958 280.28 457.198 281.4 459.038 281.4C460.878 281.4 462.878 280.52 464.438 278.76C464.358 278.36 464.118 278.12 463.718 278.08C462.678 278.88 461.478 279.2 460.438 279.2C459.358 279.2 459.118 278 459.118 275.52V265.4H463.278C463.678 265.4 464.238 265.24 464.238 264.88V264.08C464.238 263.92 464.118 263.84 463.918 263.84H459.118V262.28C459.118 259.68 459.278 258.08 459.278 258.08C459.278 257.84 459.158 257.72 458.958 257.72C458.798 257.72 458.438 257.88 458.078 258.08C457.638 258.32 457.238 258.52 456.718 258.64C456.238 258.8 455.838 258.92 455.838 259.2C455.838 259.68 455.958 259.4 455.958 263.84H454.118ZM472.295 276.12V268.16C472.295 266.16 472.455 263.6 472.455 263.6C472.455 263.44 472.255 263.32 471.935 263.32C470.815 263.76 469.215 264.12 466.455 264.48C466.375 264.72 466.455 265.36 466.535 265.6C468.735 265.8 469.135 266.04 469.135 268.32V276.12C469.135 279.44 468.695 279.56 466.255 279.76C466.015 280 466.015 280.84 466.255 281.08C467.575 281.04 469.135 281 470.735 281C472.335 281 473.855 281.04 475.175 281.08C475.415 280.84 475.415 280 475.175 279.76C472.735 279.6 472.295 279.44 472.295 276.12ZM468.655 257.04C468.655 258.08 469.615 259.12 470.575 259.12C471.695 259.12 472.655 258.04 472.655 257.2C472.655 256.24 471.815 255.12 470.735 255.12C469.775 255.12 468.655 256.08 468.655 257.04ZM482.154 266.28C482.114 265.08 482.034 264.04 481.834 263.64C481.754 263.44 481.674 263.32 481.354 263.32C480.234 263.76 479.194 264.12 476.434 264.48C476.354 264.72 476.434 265.36 476.514 265.6C478.674 265.8 479.114 266 479.114 268.32V285.4C479.114 288.72 478.674 288.92 476.234 289.04C475.994 289.28 475.994 290.12 476.234 290.36C477.634 290.32 479.114 290.28 480.714 290.28C482.314 290.28 484.234 290.32 485.554 290.36C485.794 290.12 485.794 289.28 485.554 289.04C482.714 288.88 482.274 288.72 482.274 285.4V281.08C482.274 280.56 482.434 280.6 482.834 280.76C483.834 281.16 485.034 281.4 486.314 281.4C488.554 281.4 490.554 280.72 492.194 279.16C494.074 277.32 495.154 274.84 495.154 271.6C495.154 267.36 492.154 263.44 488.074 263.44C486.234 263.44 484.194 264.64 482.594 266.44C482.354 266.68 482.194 266.68 482.154 266.28ZM482.914 267.76C483.954 266.48 485.794 265.28 486.954 265.28C489.514 265.28 491.714 268.16 491.714 272.68C491.714 275.96 490.554 280.04 486.074 280.04C485.354 280.04 483.954 279.84 483.234 279.2C482.434 278.48 482.274 278.24 482.274 276.8V269.52C482.274 268.68 482.434 268.32 482.914 267.76ZM500.456 276.12C500.456 279.44 500.016 279.64 497.576 279.76C497.336 280 497.336 280.84 497.576 281.08C498.976 281.04 500.456 281 502.056 281C503.656 281 505.176 281.04 506.496 281.08C506.736 280.84 506.736 280 506.496 279.76C504.056 279.64 503.616 279.44 503.616 276.12V257.68C503.616 255.08 503.776 253.48 503.776 253.48C503.776 253.2 503.616 253.08 503.256 253.08C502.256 253.48 499.256 254.04 497.656 254.16C497.576 254.48 497.656 255.12 497.896 255.36C500.216 255.52 500.456 255.64 500.456 258.64V276.12ZM514.443 276.12V268.16C514.443 266.16 514.603 263.6 514.603 263.6C514.603 263.44 514.403 263.32 514.083 263.32C512.963 263.76 511.363 264.12 508.603 264.48C508.523 264.72 508.603 265.36 508.683 265.6C510.883 265.8 511.283 266.04 511.283 268.32V276.12C511.283 279.44 510.843 279.56 508.403 279.76C508.163 280 508.163 280.84 508.403 281.08C509.723 281.04 511.283 281 512.883 281C514.483 281 516.003 281.04 517.323 281.08C517.563 280.84 517.563 280 517.323 279.76C514.883 279.6 514.443 279.44 514.443 276.12ZM510.803 257.04C510.803 258.08 511.763 259.12 512.723 259.12C513.843 259.12 514.803 258.04 514.803 257.2C514.803 256.24 513.963 255.12 512.883 255.12C511.923 255.12 510.803 256.08 510.803 257.04ZM533.983 277.36C533.823 277 533.503 276.84 533.143 276.8C531.783 278.56 530.063 279.44 528.342 279.44C525.423 279.44 522.983 276.48 522.983 271.8C522.983 267.4 524.903 264.76 527.543 264.76C529.903 264.76 530.223 266.16 530.383 267.56C530.503 268.64 531.063 269 531.903 269C532.743 269 533.863 268.48 533.863 267.24C533.863 265.04 531.583 263.44 527.743 263.44C523.783 263.44 519.543 267 519.543 272.68C519.543 277.84 522.423 281.4 527.463 281.4C529.863 281.4 531.983 280.64 533.983 277.36ZM546.892 279.08C547.132 280.32 547.572 281.4 549.572 281.4C551.092 281.4 552.532 280.72 553.372 279.92C553.292 279.44 553.132 279.08 552.692 278.84C552.412 279.08 551.732 279.48 551.212 279.48C550.052 279.48 550.012 277.92 550.012 276.08V270.2C550.012 264.52 546.892 263.44 543.972 263.44C540.692 263.44 537.372 265.6 537.372 267.88C537.372 268.84 537.852 269.32 538.772 269.32C539.932 269.32 540.652 268.48 540.652 267.96C540.652 267.68 540.612 267.4 540.532 267.24C540.492 267.12 540.452 266.88 540.452 266.44C540.452 265.2 542.132 264.76 543.652 264.76C545.012 264.76 546.892 265.44 546.892 269.96C546.892 270.24 546.772 270.4 546.652 270.44L543.212 271.28C539.372 272.24 536.612 274.36 536.612 277.08C536.612 280.36 538.852 281.4 541.652 281.4C543.052 281.4 544.252 281.08 546.012 279.72L546.812 279.08H546.892ZM546.892 271.68V276.96C546.892 277.48 546.652 277.76 546.332 278C545.292 278.84 543.932 279.76 542.812 279.76C540.812 279.76 539.932 278.16 539.932 276.92C539.932 275.12 540.772 273.28 543.732 272.52L546.892 271.68ZM555.173 263.84C554.613 263.84 554.453 264.32 554.453 264.64V265.16C554.453 265.36 554.493 265.4 554.653 265.4H557.013V277.44C557.013 280.28 558.253 281.4 560.093 281.4C561.933 281.4 563.933 280.52 565.493 278.76C565.413 278.36 565.173 278.12 564.773 278.08C563.733 278.88 562.533 279.2 561.493 279.2C560.413 279.2 560.173 278 560.173 275.52V265.4H564.333C564.733 265.4 565.293 265.24 565.293 264.88V264.08C565.293 263.92 565.173 263.84 564.973 263.84H560.173V262.28C560.173 259.68 560.333 258.08 560.333 258.08C560.333 257.84 560.213 257.72 560.013 257.72C559.853 257.72 559.493 257.88 559.133 258.08C558.693 258.32 558.293 258.52 557.773 258.64C557.293 258.8 556.893 258.92 556.893 259.2C556.893 259.68 557.013 259.4 557.013 263.84H555.173ZM573.349 276.12V268.16C573.349 266.16 573.509 263.6 573.509 263.6C573.509 263.44 573.309 263.32 572.989 263.32C571.869 263.76 570.269 264.12 567.509 264.48C567.429 264.72 567.509 265.36 567.589 265.6C569.789 265.8 570.189 266.04 570.189 268.32V276.12C570.189 279.44 569.749 279.56 567.309 279.76C567.069 280 567.069 280.84 567.309 281.08C568.629 281.04 570.189 281 571.789 281C573.389 281 574.909 281.04 576.229 281.08C576.469 280.84 576.469 280 576.229 279.76C573.789 279.6 573.349 279.44 573.349 276.12ZM569.709 257.04C569.709 258.08 570.669 259.12 571.629 259.12C572.749 259.12 573.709 258.04 573.709 257.2C573.709 256.24 572.869 255.12 571.789 255.12C570.829 255.12 569.709 256.08 569.709 257.04ZM578.609 272.8C578.609 276.88 581.329 281.4 587.009 281.4C589.569 281.4 591.529 280.48 592.889 279.16C594.689 277.4 595.489 274.88 595.489 272.44C595.489 268.28 593.209 263.44 587.089 263.44C584.449 263.44 582.289 264.52 580.809 266.24C579.369 267.96 578.609 270.28 578.609 272.8ZM586.489 264.84C589.929 264.84 592.049 267.96 592.049 273.72C592.049 278.76 589.449 280 587.569 280C583.409 280 582.049 274.96 582.049 271.88C582.049 268.4 582.889 264.84 586.489 264.84ZM604.485 266.68C604.245 266.96 604.005 267.04 604.005 266.68C603.965 265.6 603.885 264.04 603.685 263.64C603.605 263.44 603.525 263.32 603.205 263.32C602.085 263.76 601.045 264.12 598.285 264.48C598.205 264.72 598.285 265.36 598.365 265.6C600.525 265.8 600.965 266 600.965 268.32V276.12C600.965 279.4 600.565 279.56 598.165 279.76C597.925 280 597.925 280.84 598.165 281.08C599.365 281.04 600.965 281 602.565 281C604.165 281 605.365 281.04 606.565 281.08C606.805 280.84 606.805 280 606.565 279.76C604.525 279.56 604.125 279.4 604.125 276.12V269.56C604.125 268.72 604.485 268.24 604.805 267.88C606.325 266.4 608.125 265.52 609.685 265.52C610.485 265.52 611.325 266.04 611.805 266.96C612.205 267.76 612.285 268.84 612.285 270.04V276.12C612.285 279.4 611.885 279.56 609.805 279.76C609.605 280 609.605 280.84 609.805 281.08C611.005 281.04 612.285 281 613.885 281C615.485 281 616.925 281.04 618.125 281.08C618.325 280.84 618.325 280 618.125 279.76C615.885 279.56 615.445 279.4 615.445 276.12V270.16C615.445 267.96 615.285 266.04 614.365 264.8C613.685 263.92 612.445 263.44 611.045 263.44C609.085 263.44 606.845 263.96 604.485 266.68ZM636.045 276.12V268.16C636.045 266.16 636.205 263.6 636.205 263.6C636.205 263.44 636.005 263.32 635.685 263.32C634.565 263.76 632.965 264.12 630.205 264.48C630.125 264.72 630.205 265.36 630.285 265.6C632.485 265.8 632.885 266.04 632.885 268.32V276.12C632.885 279.44 632.445 279.56 630.005 279.76C629.765 280 629.765 280.84 630.005 281.08C631.325 281.04 632.885 281 634.485 281C636.085 281 637.605 281.04 638.925 281.08C639.165 280.84 639.165 280 638.925 279.76C636.485 279.6 636.045 279.44 636.045 276.12ZM632.405 257.04C632.405 258.08 633.365 259.12 634.325 259.12C635.445 259.12 636.405 258.04 636.405 257.2C636.405 256.24 635.565 255.12 634.485 255.12C633.525 255.12 632.405 256.08 632.405 257.04ZM647.024 266.68C646.784 266.96 646.544 267.04 646.544 266.68C646.504 265.6 646.424 264.04 646.224 263.64C646.144 263.44 646.064 263.32 645.744 263.32C644.624 263.76 643.584 264.12 640.824 264.48C640.744 264.72 640.824 265.36 640.904 265.6C643.064 265.8 643.504 266 643.504 268.32V276.12C643.504 279.4 643.104 279.56 640.704 279.76C640.464 280 640.464 280.84 640.704 281.08C641.904 281.04 643.504 281 645.104 281C646.704 281 647.904 281.04 649.104 281.08C649.344 280.84 649.344 280 649.104 279.76C647.064 279.56 646.664 279.4 646.664 276.12V269.56C646.664 268.72 647.024 268.24 647.344 267.88C648.864 266.4 650.664 265.52 652.224 265.52C653.024 265.52 653.864 266.04 654.344 266.96C654.744 267.76 654.824 268.84 654.824 270.04V276.12C654.824 279.4 654.424 279.56 652.344 279.76C652.144 280 652.144 280.84 652.344 281.08C653.544 281.04 654.824 281 656.424 281C658.024 281 659.464 281.04 660.664 281.08C660.864 280.84 660.864 280 660.664 279.76C658.424 279.56 657.984 279.4 657.984 276.12V270.16C657.984 267.96 657.824 266.04 656.904 264.8C656.224 263.92 654.984 263.44 653.584 263.44C651.624 263.44 649.384 263.96 647.024 266.68ZM677.544 277.84L679.744 272.04C679.944 271.52 680.184 271.36 681.144 271.36H689.584L691.904 278.12C692.384 279.48 690.864 279.64 688.944 279.76C688.704 280 688.704 280.84 688.944 281.08C690.424 281.04 692.624 281 694.184 281C695.824 281 697.344 281.04 698.744 281.08C698.984 280.84 698.984 280 698.744 279.76C697.184 279.6 695.824 279.48 695.144 277.56L686.904 254.68C686.304 255.04 685.224 255.48 684.704 255.48L675.624 276.92C674.584 279.4 673.384 279.64 671.624 279.76C671.384 280 671.384 280.84 671.624 281.08C672.664 281.04 673.984 281 675.184 281C676.824 281 678.824 281.04 680.304 281.08C680.544 280.84 680.544 280 680.304 279.76C678.784 279.64 676.904 279.48 677.544 277.84ZM681.864 269.68C680.984 269.68 680.704 269.56 680.864 269.16L684.944 258.8H685.184L688.944 269.68H681.864Z" fill="black"/>
<path id="multiplication in B" d="M395.8 538.68C395.76 537.48 395.68 536.04 395.48 535.64C395.4 535.44 395.32 535.32 395 535.32C393.88 535.76 392.84 536.12 390.08 536.48C390 536.72 390.08 537.36 390.16 537.6C392.32 537.8 392.76 538 392.76 540.32V548.12C392.76 551.4 392.24 551.6 390.04 551.76C389.8 552 389.8 552.84 390.04 553.08C391.24 553.04 392.76 553 394.36 553C395.96 553 397.2 553.04 398.4 553.08C398.64 552.84 398.64 552 398.4 551.76C396.36 551.56 395.92 551.4 395.92 548.12V541.56C395.92 540.72 396.28 540.24 396.6 539.88C398.2 538.32 399.68 537.52 400.92 537.52C402.44 537.52 403.56 538.48 403.56 541.16V548.12C403.56 551.4 403.24 551.6 401.08 551.76C400.88 552 400.88 552.84 401.08 553.08C402.08 553.04 403.56 553 405.16 553C406.76 553 408.08 553.04 409.08 553.08C409.28 552.84 409.28 552 409.08 551.76C407.08 551.6 406.72 551.4 406.72 548.12V541.76C406.72 541.2 406.72 540.64 406.68 540.16C408.6 538.04 410.4 537.52 411.96 537.52C413.48 537.52 414.36 538.4 414.36 541.08V548.12C414.36 551.4 413.96 551.6 411.88 551.76C411.68 552 411.68 552.84 411.88 553.08C412.88 553.04 414.36 553 415.96 553C417.56 553 418.96 553.04 420.08 553.08C420.28 552.84 420.28 552 420.08 551.76C417.88 551.6 417.52 551.4 417.52 548.12V541.8C417.52 538.24 416.92 535.44 413.4 535.44C411.36 535.44 408.88 536.2 406.8 538.4C406.68 538.52 406.44 538.72 406.36 538.36C406 536.72 404.44 535.44 402.36 535.44C400.04 535.44 397.96 536.8 396.28 538.68C396.08 538.88 395.84 539.16 395.8 538.68ZM429.282 553.4C430.842 553.4 432.722 552.6 434.682 551C434.882 550.84 435.242 550.76 435.282 551.04C435.402 552.04 435.722 553.4 435.722 553.4C436.042 553.52 436.242 553.48 436.482 553.4C437.362 552.68 438.762 552.08 441.202 551.8C441.442 551.56 441.442 550.96 441.202 550.72C438.642 550.52 438.282 549.76 438.282 547.8V540.12C438.282 538.92 438.442 536 438.442 536C438.442 535.88 438.322 535.76 438.122 535.76C437.922 535.8 437.322 535.84 436.722 535.84C435.442 535.84 434.002 535.8 432.642 535.76C432.402 536 432.402 536.84 432.642 537.08C434.602 537.2 435.122 537.68 435.122 540.32V548.04C435.122 548.8 435.042 549.12 434.482 549.6C433.002 550.88 431.482 551.52 430.482 551.52C429.282 551.52 427.282 550.96 427.282 547.4V540.12C427.282 538.92 427.442 536 427.442 536C427.442 535.88 427.322 535.76 427.122 535.76C426.922 535.8 426.322 535.84 425.722 535.84C424.442 535.84 423.002 535.8 421.642 535.76C421.402 536 421.402 536.84 421.642 537.08C423.562 537.24 424.122 537.68 424.122 540.28V547.96C424.122 550.72 425.322 553.4 429.282 553.4ZM445.652 548.12C445.652 551.44 445.212 551.64 442.772 551.76C442.532 552 442.532 552.84 442.772 553.08C444.172 553.04 445.652 553 447.252 553C448.852 553 450.372 553.04 451.692 553.08C451.932 552.84 451.932 552 451.692 551.76C449.252 551.64 448.812 551.44 448.812 548.12V529.68C448.812 527.08 448.972 525.48 448.972 525.48C448.972 525.2 448.812 525.08 448.452 525.08C447.452 525.48 444.452 526.04 442.852 526.16C442.772 526.48 442.852 527.12 443.092 527.36C445.412 527.52 445.652 527.64 445.652 530.64V548.12ZM454.118 535.84C453.558 535.84 453.398 536.32 453.398 536.64V537.16C453.398 537.36 453.438 537.4 453.598 537.4H455.958V549.44C455.958 552.28 457.198 553.4 459.038 553.4C460.878 553.4 462.878 552.52 464.438 550.76C464.358 550.36 464.118 550.12 463.718 550.08C462.678 550.88 461.478 551.2 460.438 551.2C459.358 551.2 459.118 550 459.118 547.52V537.4H463.278C463.678 537.4 464.238 537.24 464.238 536.88V536.08C464.238 535.92 464.118 535.84 463.918 535.84H459.118V534.28C459.118 531.68 459.278 530.08 459.278 530.08C459.278 529.84 459.158 529.72 458.958 529.72C458.798 529.72 458.438 529.88 458.078 530.08C457.638 530.32 457.238 530.52 456.718 530.64C456.238 530.8 455.838 530.92 455.838 531.2C455.838 531.68 455.958 531.4 455.958 535.84H454.118ZM472.295 548.12V540.16C472.295 538.16 472.455 535.6 472.455 535.6C472.455 535.44 472.255 535.32 471.935 535.32C470.815 535.76 469.215 536.12 466.455 536.48C466.375 536.72 466.455 537.36 466.535 537.6C468.735 537.8 469.135 538.04 469.135 540.32V548.12C469.135 551.44 468.695 551.56 466.255 551.76C466.015 552 466.015 552.84 466.255 553.08C467.575 553.04 469.135 553 470.735 553C472.335 553 473.855 553.04 475.175 553.08C475.415 552.84 475.415 552 475.175 551.76C472.735 551.6 472.295 551.44 472.295 548.12ZM468.655 529.04C468.655 530.08 469.615 531.12 470.575 531.12C471.695 531.12 472.655 530.04 472.655 529.2C472.655 528.24 471.815 527.12 470.735 527.12C469.775 527.12 468.655 528.08 468.655 529.04ZM482.154 538.28C482.114 537.08 482.034 536.04 481.834 535.64C481.754 535.44 481.674 535.32 481.354 535.32C480.234 535.76 479.194 536.12 476.434 536.48C476.354 536.72 476.434 537.36 476.514 537.6C478.674 537.8 479.114 538 479.114 540.32V557.4C479.114 560.72 478.674 560.92 476.234 561.04C475.994 561.28 475.994 562.12 476.234 562.36C477.634 562.32 479.114 562.28 480.714 562.28C482.314 562.28 484.234 562.32 485.554 562.36C485.794 562.12 485.794 561.28 485.554 561.04C482.714 560.88 482.274 560.72 482.274 557.4V553.08C482.274 552.56 482.434 552.6 482.834 552.76C483.834 553.16 485.034 553.4 486.314 553.4C488.554 553.4 490.554 552.72 492.194 551.16C494.074 549.32 495.154 546.84 495.154 543.6C495.154 539.36 492.154 535.44 488.074 535.44C486.234 535.44 484.194 536.64 482.594 538.44C482.354 538.68 482.194 538.68 482.154 538.28ZM482.914 539.76C483.954 538.48 485.794 537.28 486.954 537.28C489.514 537.28 491.714 540.16 491.714 544.68C491.714 547.96 490.554 552.04 486.074 552.04C485.354 552.04 483.954 551.84 483.234 551.2C482.434 550.48 482.274 550.24 482.274 548.8V541.52C482.274 540.68 482.434 540.32 482.914 539.76ZM500.456 548.12C500.456 551.44 500.016 551.64 497.576 551.76C497.336 552 497.336 552.84 497.576 553.08C498.976 553.04 500.456 553 502.056 553C503.656 553 505.176 553.04 506.496 553.08C506.736 552.84 506.736 552 506.496 551.76C504.056 551.64 503.616 551.44 503.616 548.12V529.68C503.616 527.08 503.776 525.48 503.776 525.48C503.776 525.2 503.616 525.08 503.256 525.08C502.256 525.48 499.256 526.04 497.656 526.16C497.576 526.48 497.656 527.12 497.896 527.36C500.216 527.52 500.456 527.64 500.456 530.64V548.12ZM514.443 548.12V540.16C514.443 538.16 514.603 535.6 514.603 535.6C514.603 535.44 514.403 535.32 514.083 535.32C512.963 535.76 511.363 536.12 508.603 536.48C508.523 536.72 508.603 537.36 508.683 537.6C510.883 537.8 511.283 538.04 511.283 540.32V548.12C511.283 551.44 510.843 551.56 508.403 551.76C508.163 552 508.163 552.84 508.403 553.08C509.723 553.04 511.283 553 512.883 553C514.483 553 516.003 553.04 517.323 553.08C517.563 552.84 517.563 552 517.323 551.76C514.883 551.6 514.443 551.44 514.443 548.12ZM510.803 529.04C510.803 530.08 511.763 531.12 512.723 531.12C513.843 531.12 514.803 530.04 514.803 529.2C514.803 528.24 513.963 527.12 512.883 527.12C511.923 527.12 510.803 528.08 510.803 529.04ZM533.983 549.36C533.823 549 533.503 548.84 533.143 548.8C531.783 550.56 530.063 551.44 528.342 551.44C525.423 551.44 522.983 548.48 522.983 543.8C522.983 539.4 524.903 536.76 527.543 536.76C529.903 536.76 530.223 538.16 530.383 539.56C530.503 540.64 531.063 541 531.903 541C532.743 541 533.863 540.48 533.863 539.24C533.863 537.04 531.583 535.44 527.743 535.44C523.783 535.44 519.543 539 519.543 544.68C519.543 549.84 522.423 553.4 527.463 553.4C529.863 553.4 531.983 552.64 533.983 549.36ZM546.892 551.08C547.132 552.32 547.572 553.4 549.572 553.4C551.092 553.4 552.532 552.72 553.372 551.92C553.292 551.44 553.132 551.08 552.692 550.84C552.412 551.08 551.732 551.48 551.212 551.48C550.052 551.48 550.012 549.92 550.012 548.08V542.2C550.012 536.52 546.892 535.44 543.972 535.44C540.692 535.44 537.372 537.6 537.372 539.88C537.372 540.84 537.852 541.32 538.772 541.32C539.932 541.32 540.652 540.48 540.652 539.96C540.652 539.68 540.612 539.4 540.532 539.24C540.492 539.12 540.452 538.88 540.452 538.44C540.452 537.2 542.132 536.76 543.652 536.76C545.012 536.76 546.892 537.44 546.892 541.96C546.892 542.24 546.772 542.4 546.652 542.44L543.212 543.28C539.372 544.24 536.612 546.36 536.612 549.08C536.612 552.36 538.852 553.4 541.652 553.4C543.052 553.4 544.252 553.08 546.012 551.72L546.812 551.08H546.892ZM546.892 543.68V548.96C546.892 549.48 546.652 549.76 546.332 550C545.292 550.84 543.932 551.76 542.812 551.76C540.812 551.76 539.932 550.16 539.932 548.92C539.932 547.12 540.772 545.28 543.732 544.52L546.892 543.68ZM555.173 535.84C554.613 535.84 554.453 536.32 554.453 536.64V537.16C554.453 537.36 554.493 537.4 554.653 537.4H557.013V549.44C557.013 552.28 558.253 553.4 560.093 553.4C561.933 553.4 563.933 552.52 565.493 550.76C565.413 550.36 565.173 550.12 564.773 550.08C563.733 550.88 562.533 551.2 561.493 551.2C560.413 551.2 560.173 550 560.173 547.52V537.4H564.333C564.733 537.4 565.293 537.24 565.293 536.88V536.08C565.293 535.92 565.173 535.84 564.973 535.84H560.173V534.28C560.173 531.68 560.333 530.08 560.333 530.08C560.333 529.84 560.213 529.72 560.013 529.72C559.853 529.72 559.493 529.88 559.133 530.08C558.693 530.32 558.293 530.52 557.773 530.64C557.293 530.8 556.893 530.92 556.893 531.2C556.893 531.68 557.013 531.4 557.013 535.84H555.173ZM573.349 548.12V540.16C573.349 538.16 573.509 535.6 573.509 535.6C573.509 535.44 573.309 535.32 572.989 535.32C571.869 535.76 570.269 536.12 567.509 536.48C567.429 536.72 567.509 537.36 567.589 537.6C569.789 537.8 570.189 538.04 570.189 540.32V548.12C570.189 551.44 569.749 551.56 567.309 551.76C567.069 552 567.069 552.84 567.309 553.08C568.629 553.04 570.189 553 571.789 553C573.389 553 574.909 553.04 576.229 553.08C576.469 552.84 576.469 552 576.229 551.76C573.789 551.6 573.349 551.44 573.349 548.12ZM569.709 529.04C569.709 530.08 570.669 531.12 571.629 531.12C572.749 531.12 573.709 530.04 573.709 529.2C573.709 528.24 572.869 527.12 571.789 527.12C570.829 527.12 569.709 528.08 569.709 529.04ZM578.609 544.8C578.609 548.88 581.329 553.4 587.009 553.4C589.569 553.4 591.529 552.48 592.889 551.16C594.689 549.4 595.489 546.88 595.489 544.44C595.489 540.28 593.209 535.44 587.089 535.44C584.449 535.44 582.289 536.52 580.809 538.24C579.369 539.96 578.609 542.28 578.609 544.8ZM586.489 536.84C589.929 536.84 592.049 539.96 592.049 545.72C592.049 550.76 589.449 552 587.569 552C583.409 552 582.049 546.96 582.049 543.88C582.049 540.4 582.889 536.84 586.489 536.84ZM604.485 538.68C604.245 538.96 604.005 539.04 604.005 538.68C603.965 537.6 603.885 536.04 603.685 535.64C603.605 535.44 603.525 535.32 603.205 535.32C602.085 535.76 601.045 536.12 598.285 536.48C598.205 536.72 598.285 537.36 598.365 537.6C600.525 537.8 600.965 538 600.965 540.32V548.12C600.965 551.4 600.565 551.56 598.165 551.76C597.925 552 597.925 552.84 598.165 553.08C599.365 553.04 600.965 553 602.565 553C604.165 553 605.365 553.04 606.565 553.08C606.805 552.84 606.805 552 606.565 551.76C604.525 551.56 604.125 551.4 604.125 548.12V541.56C604.125 540.72 604.485 540.24 604.805 539.88C606.325 538.4 608.125 537.52 609.685 537.52C610.485 537.52 611.325 538.04 611.805 538.96C612.205 539.76 612.285 540.84 612.285 542.04V548.12C612.285 551.4 611.885 551.56 609.805 551.76C609.605 552 609.605 552.84 609.805 553.08C611.005 553.04 612.285 553 613.885 553C615.485 553 616.925 553.04 618.125 553.08C618.325 552.84 618.325 552 618.125 551.76C615.885 551.56 615.445 551.4 615.445 548.12V542.16C615.445 539.96 615.285 538.04 614.365 536.8C613.685 535.92 612.445 535.44 611.045 535.44C609.085 535.44 606.845 535.96 604.485 538.68ZM636.045 548.12V540.16C636.045 538.16 636.205 535.6 636.205 535.6C636.205 535.44 636.005 535.32 635.685 535.32C634.565 535.76 632.965 536.12 630.205 536.48C630.125 536.72 630.205 537.36 630.285 537.6C632.485 537.8 632.885 538.04 632.885 540.32V548.12C632.885 551.44 632.445 551.56 630.005 551.76C629.765 552 629.765 552.84 630.005 553.08C631.325 553.04 632.885 553 634.485 553C636.085 553 637.605 553.04 638.925 553.08C639.165 552.84 639.165 552 638.925 551.76C636.485 551.6 636.045 551.44 636.045 548.12ZM632.405 529.04C632.405 530.08 633.365 531.12 634.325 531.12C635.445 531.12 636.405 530.04 636.405 529.2C636.405 528.24 635.565 527.12 634.485 527.12C633.525 527.12 632.405 528.08 632.405 529.04ZM647.024 538.68C646.784 538.96 646.544 539.04 646.544 538.68C646.504 537.6 646.424 536.04 646.224 535.64C646.144 535.44 646.064 535.32 645.744 535.32C644.624 535.76 643.584 536.12 640.824 536.48C640.744 536.72 640.824 537.36 640.904 537.6C643.064 537.8 643.504 538 643.504 540.32V548.12C643.504 551.4 643.104 551.56 640.704 551.76C640.464 552 640.464 552.84 640.704 553.08C641.904 553.04 643.504 553 645.104 553C646.704 553 647.904 553.04 649.104 553.08C649.344 552.84 649.344 552 649.104 551.76C647.064 551.56 646.664 551.4 646.664 548.12V541.56C646.664 540.72 647.024 540.24 647.344 539.88C648.864 538.4 650.664 537.52 652.224 537.52C653.024 537.52 653.864 538.04 654.344 538.96C654.744 539.76 654.824 540.84 654.824 542.04V548.12C654.824 551.4 654.424 551.56 652.344 551.76C652.144 552 652.144 552.84 652.344 553.08C653.544 553.04 654.824 553 656.424 553C658.024 553 659.464 553.04 660.664 553.08C660.864 552.84 660.864 552 660.664 551.76C658.424 551.56 657.984 551.4 657.984 548.12V542.16C657.984 539.96 657.824 538.04 656.904 536.8C656.224 535.92 654.984 535.44 653.584 535.44C651.624 535.44 649.384 535.96 647.024 538.68ZM677.264 527.2C675.824 527.2 673.664 527.16 672.104 527.12C671.864 527.36 671.864 528.2 672.104 528.44C674.904 528.56 675.584 528.76 675.584 532.08V548.12C675.584 551.44 674.904 551.64 672.104 551.76C671.864 552 671.864 552.84 672.104 553.08C673.664 553.04 675.824 553 677.304 553C678.744 553 679.784 553.08 683.144 553.08C691.104 553.08 693.224 549.08 693.224 545.64C693.224 541.8 690.544 539.6 687.064 538.6V538.52C689.064 537.52 690.864 535.44 690.864 533.28C690.864 530.6 689.704 527.12 682.264 527.12C680.864 527.12 678.704 527.2 677.264 527.2ZM678.984 539.72H681.744C687.224 539.72 689.504 542.8 689.504 546.4C689.504 549.32 688.384 551.76 682.304 551.76C679.504 551.76 678.984 550.72 678.984 548.28V539.72ZM678.984 531C678.984 528.88 678.984 528.48 682.464 528.48C684.704 528.48 687.624 529.68 687.624 533.76C687.624 537.16 685.264 538.36 681.944 538.36H678.984V531Z" fill="black"/>
<path id="Th" d="M288 397.12V381.84C288 379.28 288.4 377.76 289.84 377.76H290.72C293.72 377.76 295.6 378.8 296.28 381.88C296.72 381.88 297.28 381.84 297.64 381.68C297.36 379.84 297.16 377.8 297.12 376C297.12 375.96 297.04 375.88 297 375.88C295.64 376 291.2 376.2 288.04 376.2H284.6C281.52 376.2 276.8 376 275.28 375.88C275.2 375.88 275.12 375.96 275.12 376C274.96 377.8 274.56 379.88 274.12 381.8C274.52 381.96 275 382 275.48 382C276.28 378.8 278.12 377.76 280.76 377.76H282.72C284.2 377.76 284.6 379.28 284.6 381.72V397.12C284.6 400.44 283.92 400.64 280.72 400.76C280.48 401 280.48 401.84 280.72 402.08C282.68 402.04 284.72 402 286.32 402C287.84 402 289.88 402.04 291.88 402.08C292.12 401.84 292.12 401 291.88 400.76C288.68 400.64 288 400.44 288 397.12ZM304.907 399.12L306.427 392.48C308.947 389.2 311.547 386.84 312.987 386.84C313.827 386.84 314.387 387.08 314.387 388.32C314.387 388.88 314.307 389.64 313.987 391L312.467 397.4C312.147 398.68 311.787 400.32 311.787 401.08C311.787 401.84 312.227 402.4 313.427 402.4C315.347 402.4 317.147 401.04 318.987 398.68C318.867 398.32 318.627 398 318.067 398C317.027 399.2 315.867 400 315.467 400C315.187 400 315.067 399.8 315.067 399.32C315.067 398.96 315.267 398.08 315.507 397.04L317.027 390.68C317.347 389.28 317.547 388.36 317.547 387.64C317.547 385.24 316.467 384.44 314.907 384.44C312.827 384.44 310.747 385.28 307.067 389.52L309.507 378.68C310.107 376.08 310.507 374.48 310.507 374.48C310.507 374.2 310.387 374.08 310.027 374.08C308.947 374.48 306.067 375 304.427 375.12L304.307 376.08C304.307 376.2 304.347 376.28 304.507 376.28L305.747 376.36C306.267 376.36 306.587 376.6 306.587 377.48C306.587 377.92 306.507 378.6 306.307 379.48L301.947 399.12C301.747 399.92 301.427 400.92 301.427 401.32C301.427 401.96 301.787 402.4 303.067 402.4C304.587 402.4 304.547 400.64 304.907 399.12Z" fill="black"/>
<path id="h" d="M777.04 399.12L778.56 392.48C781.08 389.2 783.68 386.84 785.12 386.84C785.96 386.84 786.52 387.08 786.52 388.32C786.52 388.88 786.44 389.64 786.12 391L784.6 397.4C784.28 398.68 783.92 400.32 783.92 401.08C783.92 401.84 784.36 402.4 785.56 402.4C787.48 402.4 789.28 401.04 791.12 398.68C791 398.32 790.76 398 790.2 398C789.16 399.2 788 400 787.6 400C787.32 400 787.2 399.8 787.2 399.32C787.2 398.96 787.4 398.08 787.64 397.04L789.16 390.68C789.48 389.28 789.68 388.36 789.68 387.64C789.68 385.24 788.6 384.44 787.04 384.44C784.96 384.44 782.88 385.28 779.2 389.52L781.64 378.68C782.24 376.08 782.64 374.48 782.64 374.48C782.64 374.2 782.52 374.08 782.16 374.08C781.08 374.48 778.2 375 776.56 375.12L776.44 376.08C776.44 376.2 776.48 376.28 776.64 376.28L777.88 376.36C778.4 376.36 778.72 376.6 778.72 377.48C778.72 377.92 778.64 378.6 778.44 379.48L774.08 399.12C773.88 399.92 773.56 400.92 773.56 401.32C773.56 401.96 773.92 402.4 775.2 402.4C776.72 402.4 776.68 400.64 777.04 399.12Z" fill="black"/>
<path id="Arrow 22" d="M336.646 459.972C336.842 460.167 337.158 460.167 337.354 459.972L340.536 456.79C340.731 456.594 340.731 456.278 340.536 456.082C340.34 455.887 340.024 455.887 339.828 456.082L337 458.911L334.172 456.082C333.976 455.887 333.66 455.887 333.464 456.082C333.269 456.278 333.269 456.594 333.464 456.79L336.646 459.972ZM336.5 321L336.5 459.618L337.5 459.618L337.5 321L336.5 321Z" fill="black"/>
<path id="Arrow 24" d="M747.646 459.972C747.842 460.167 748.158 460.167 748.354 459.972L751.536 456.79C751.731 456.594 751.731 456.278 751.536 456.082C751.34 455.887 751.024 455.887 750.828 456.082L748 458.911L745.172 456.082C744.976 455.887 744.66 455.887 744.464 456.082C744.269 456.278 744.269 456.594 744.464 456.79L747.646 459.972ZM747.5 321L747.5 459.618L748.5 459.618L748.5 321L747.5 321Z" fill="black"/>
</g>
</g>
</svg>
