<svg width="1280" height="960" viewBox="0 0 1280 960" fill="none" xmlns="http://www.w3.org/2000/svg">
<g id="First slide">
<rect width="1280" height="960" fill="white"/>
<path id="Computational Complexity" d="M97.17 69.73C90.73 69.73 84.22 71.27 78.2 76.17C75.26 78.62 70.5 84.99 70.5 92.97C70.5 100.95 73.72 105.99 76.38 109.07C79.18 112.36 86.39 117.26 96.26 117.26C102.21 117.26 107.88 115.79 109 115.3C109.7 114.95 110.89 114.11 111.17 113.48C112.15 111.87 113.76 108.16 113.97 106.41C114.11 105.64 114.04 104.1 113.34 104.1C113.06 104.1 112.78 104.45 111.87 105.92C110.19 108.86 108.44 111.1 105.36 112.71C102.49 114.39 99.06 114.6 97.73 114.6C92.06 114.6 83.94 111.45 80.02 103.4C78.48 100.32 77.57 96.54 77.57 91.85C77.57 81.28 84.78 71.97 96.05 71.97C99.83 71.97 103.4 72.74 107.25 75.61C108.16 76.31 109.49 78.41 110.12 80.86C110.47 81.91 110.89 82.68 111.24 82.68C111.8 82.68 112.36 81.84 112.29 80.37C112.15 78.83 111.8 75.75 111.8 74.28C111.8 72.67 111.1 72.18 110.75 72.18C109.7 72.04 107.25 71.13 105.43 70.85C102.77 70.22 99.62 69.73 97.17 69.73ZM134.676 87.72C129.986 87.72 126.486 89.68 124.316 91.57C121.656 93.81 119.416 97.17 119.416 102.49C119.416 105.99 121.586 110.75 124.596 113.2C127.186 115.37 130.686 116.84 133.906 116.84C137.056 116.84 139.786 116.07 142.586 114.04C145.176 112.36 148.676 107.81 148.676 102C148.676 93.18 141.606 87.72 134.676 87.72ZM133.346 89.82C135.166 89.82 137.686 90.87 139.226 92.55C141.886 95.63 142.726 99.62 142.726 103.26C142.726 106.27 141.326 110.61 139.576 112.5C137.616 114.46 136.076 114.81 135.306 114.81C131.946 114.81 127.956 112.29 126.206 107.04C125.646 105.29 125.366 103.12 125.366 100.81C125.366 97.17 126.976 93.53 128.796 91.85C130.266 90.59 131.876 89.82 133.346 89.82ZM154.312 91.5C154.312 91.85 154.802 92.2 156.762 94.02C157.392 94.65 157.252 95.56 157.252 95.91C157.252 100.74 157.182 107.74 157.042 109.77C156.762 112.78 156.342 113.83 154.102 114.39C152.842 114.67 152.422 115.16 152.422 115.44C152.422 115.93 153.122 116.21 154.172 116.21C155.712 116.21 157.112 116 159.422 116C162.082 116 164.672 116.14 164.952 116.14C165.862 116.14 166.842 115.93 166.842 115.44C166.842 114.88 166.282 114.6 164.952 114.18C162.712 113.48 162.432 112.36 162.432 111.03C162.432 105.71 162.432 96.89 162.572 95.07C162.642 94.3 162.852 93.74 163.342 93.32C165.022 91.99 166.632 91.15 168.942 91.15C171.462 91.15 173.282 92.06 174.192 93.25C174.682 93.88 175.102 94.79 175.102 96.82V110.54C175.102 113.06 174.822 113.76 172.442 114.32C171.322 114.6 171.042 115.09 171.042 115.3C171.042 115.58 171.252 116.14 172.862 116.14C174.332 116.14 176.362 116 177.832 116C179.442 116 181.542 116.14 183.082 116.14C184.202 116.14 184.762 115.79 184.762 115.3C184.762 114.95 184.062 114.53 183.292 114.32C180.912 113.76 180.562 113.06 180.352 110.82C180.212 109.28 180.352 96.05 180.352 95.56C180.352 95.07 180.842 93.74 181.052 93.53C182.032 92.69 183.292 91.36 186.442 91.36C189.382 91.36 190.922 92.48 191.762 93.81C192.462 95.07 192.882 96.05 192.882 98.5C192.882 100.81 193.022 108.65 193.022 110.33C193.022 112.78 192.742 113.62 190.502 114.32C189.732 114.53 188.962 114.81 188.962 115.23C188.962 115.72 189.382 116.14 190.712 116.14C192.322 116.14 193.372 116 195.472 116C197.222 116 199.112 116.21 200.512 116.21C201.842 116.21 202.472 115.93 202.472 115.44C202.472 115.02 202.052 114.74 201.142 114.46C198.622 113.76 198.202 112.43 198.132 111.17C198.132 105.43 198.272 100.53 197.992 96.89C197.852 94.37 197.222 91.92 195.682 90.17C194.212 88.63 192.252 87.79 189.662 87.79C188.402 87.79 186.792 88.14 185.182 88.91C183.362 89.82 181.542 90.94 180.212 91.92C179.932 92.06 179.792 91.92 179.652 91.64C179.372 91.15 178.672 90.1 177.412 89.19C176.152 88.28 174.472 87.79 171.952 87.79C168.662 87.79 164.322 90.45 162.572 91.85C162.292 92.13 162.152 91.64 162.152 91.43C162.152 90.73 162.432 88.77 162.432 87.79C162.432 87.65 161.942 87.16 161.592 87.09C161.452 87.09 161.312 87.16 161.032 87.37C160.262 87.86 157.112 89.68 155.712 90.24C154.942 90.66 154.312 91.08 154.312 91.5ZM224.729 87.86C222.769 87.86 220.669 88.21 219.549 88.7C218.569 89.12 216.679 90.1 214.999 91.22C214.719 91.43 214.439 91.15 214.439 90.87C214.509 89.75 214.509 88.42 214.649 87.3C214.649 87.02 214.089 86.46 213.879 86.46C213.739 86.46 213.179 86.74 212.479 87.09C211.289 87.79 208.209 89.26 207.159 89.54C206.879 89.61 206.179 90.45 206.179 90.8C206.179 91.15 207.019 91.78 208.769 93.04C208.979 93.18 209.329 93.67 209.329 96.61C209.399 100.74 209.329 105.99 209.329 110.75C209.329 117.89 209.259 123.63 209.119 125.94C208.839 130.98 208.489 131.61 204.779 132.38C203.659 132.59 203.169 133.15 203.169 133.43C203.169 134.06 204.219 134.34 205.269 134.34C207.369 134.34 208.069 134.13 209.749 134.13C212.479 134.13 216.539 134.48 218.079 134.48C218.989 134.48 219.899 134.13 219.899 133.57C219.899 133.08 219.339 132.73 217.939 132.31C215.279 131.47 214.789 130.63 214.579 128.81C214.369 126.85 214.299 123.98 214.299 117.19C214.299 116.84 214.579 116.28 214.789 116.28C215.699 116.42 217.099 116.56 218.709 116.56C221.859 116.56 225.989 116 229.839 112.99C234.319 109.63 235.789 104.45 235.789 100.95C235.789 97.1 234.179 93.67 232.499 91.78C230.399 89.47 227.249 87.86 224.729 87.86ZM221.089 91.43C222.699 91.43 225.569 92.41 227.389 94.3C230.259 97.45 230.259 101.23 230.259 102.84C230.259 104.94 228.999 110.19 225.499 113.13C224.519 113.97 223.049 114.32 222.279 114.32C220.529 114.32 217.169 113.13 215.279 110.47C214.789 109.84 214.509 108.65 214.369 107.39C214.089 104.52 214.159 96.89 214.509 94.79C214.719 93.53 215.069 92.97 215.419 92.69C216.189 92.06 218.149 91.43 221.089 91.43ZM255.255 113.34C253.575 113.34 252.315 113.34 250.495 111.94C249.515 111.24 248.745 109.63 248.745 108.02C248.745 104.87 249.025 91.64 248.955 89.26C248.955 88.84 248.675 88.21 248.395 88.21C248.115 88.21 242.935 88.98 240.975 88.98C240.135 88.98 239.785 89.4 239.785 89.61C239.785 90.24 240.415 90.59 241.045 90.87C242.235 91.36 243.565 91.64 243.635 93.6C243.775 97.31 243.775 105.22 243.775 110.26C243.775 111.38 244.265 112.78 244.755 113.55C246.155 115.72 248.395 116.84 250.915 116.84C252.875 116.84 254.415 116.49 255.605 116C256.515 115.65 259.315 113.83 261.345 112.43C261.485 112.36 261.695 112.57 261.695 112.92C261.625 114.11 261.415 115.44 261.415 115.86C261.415 116.35 261.835 116.84 262.115 116.84C262.255 116.84 263.375 116.56 264.565 116.21C266.175 115.79 269.115 115.02 270.935 114.88C271.215 114.88 271.705 114.39 271.705 114.18C271.635 113.97 271.145 112.85 270.865 112.85C270.025 112.85 267.855 113.2 267.365 113.2C266.805 113.2 266.525 112.36 266.525 112.22C266.525 106.48 267.085 90.94 267.225 88.98C267.225 88.7 267.085 87.93 266.735 87.93C266.245 87.93 265.755 88 265.055 88.21C263.445 88.63 260.365 88.98 257.565 88.98C256.865 88.98 255.955 89.33 255.955 89.61C255.955 90.17 256.865 90.59 257.355 90.73L260.575 91.57C260.995 91.71 261.765 92.69 261.765 93.11L261.625 109.21C261.625 109.49 260.995 110.54 260.575 110.89C258.825 112.43 256.935 113.34 255.255 113.34ZM283.49 88.7C283.21 88.7 282.93 88.35 282.93 88.14V84.85C282.93 84.71 282.3 84.08 281.95 84.08C281.67 84.08 281.18 84.64 280.34 85.62C279.36 86.81 277.19 88.49 274.74 90.45C274.53 90.66 274.32 90.94 274.32 91.22C274.32 91.43 274.74 91.78 275.3 91.99C276.7 92.41 277.96 92.9 277.96 93.39C277.96 95.84 277.68 106.34 277.68 108.93C277.68 110.89 277.82 112.36 278.59 113.55C279.43 115.09 281.88 116.84 284.75 116.84C287.9 116.84 290.35 115.58 292.24 113.76C292.73 113.27 293.22 112.57 293.22 112.01C293.22 111.38 292.87 111.24 292.8 111.24C292.52 111.24 292.38 111.31 291.75 111.66C290.7 112.29 289.23 112.71 288.32 112.71C286.85 112.71 285.38 112.57 284.05 111.38C283.28 110.61 282.86 109.7 282.86 107.95C282.86 104.59 282.93 94.3 283 92.9C283 92.76 283.28 92.41 283.63 92.41H291.26C291.75 92.41 293.08 92.27 293.08 91.64C293.08 90.73 292.87 88.77 292.87 88.98C292.87 88.77 292.17 88.42 292.1 88.42C291.82 88.42 285.03 88.7 283.49 88.7ZM308.445 87.72C307.115 87.72 303.965 88.91 301.935 90.38C298.645 92.55 296.685 94.51 296.685 96.54C296.685 96.89 297.105 97.45 297.525 97.45C297.875 97.45 301.375 95.7 302.075 95.14C302.215 95 302.495 94.58 302.495 94.37C302.355 92.97 302.565 91.71 302.985 91.5C303.475 91.15 304.385 90.73 305.855 90.73C309.285 90.73 311.315 93.67 311.315 95.42C311.315 96.26 311.245 100.53 311.175 101.16C311.175 101.58 310.755 101.93 309.145 102.42C307.605 102.91 302.005 104.45 300.955 104.87C299.905 105.36 298.855 105.71 298.155 106.62C297.385 107.6 296.825 108.93 296.825 110.19C296.825 113.69 299.205 116.7 301.655 116.7C302.005 116.7 303.685 116.56 304.455 116.28C305.155 116.07 308.165 114.88 310.755 113.06C310.895 112.99 311.175 113.27 311.175 113.34C312.015 115.93 314.045 116.84 315.655 116.84C318.805 116.84 321.955 113.83 321.955 112.5C321.955 112.43 321.955 112.01 321.745 111.8C321.605 111.59 321.535 111.45 321.325 111.59C320.555 112.15 318.945 112.64 318.665 112.64C318.105 112.64 315.865 112.36 315.865 109.14C315.865 108.37 316.145 99.55 316.145 96.82C316.145 93.88 315.795 92.48 314.745 91.01C313.695 89.47 311.945 87.72 308.445 87.72ZM306.345 113.06C304.875 113.06 301.935 111.94 301.935 108.86C301.935 107.18 302.635 106.69 303.335 106.2C305.225 105.29 308.585 104.1 310.545 104.1C310.825 104.1 311.105 104.45 311.105 104.66C311.105 106.06 311.105 108.44 310.965 110.12C310.965 110.26 310.545 111.59 310.125 111.87C308.795 112.57 307.395 113.06 306.345 113.06ZM332.572 88.7C332.292 88.7 332.012 88.35 332.012 88.14V84.85C332.012 84.71 331.382 84.08 331.032 84.08C330.752 84.08 330.262 84.64 329.422 85.62C328.442 86.81 326.272 88.49 323.822 90.45C323.612 90.66 323.402 90.94 323.402 91.22C323.402 91.43 323.822 91.78 324.382 91.99C325.782 92.41 327.042 92.9 327.042 93.39C327.042 95.84 326.762 106.34 326.762 108.93C326.762 110.89 326.902 112.36 327.672 113.55C328.512 115.09 330.962 116.84 333.832 116.84C336.982 116.84 339.432 115.58 341.322 113.76C341.812 113.27 342.302 112.57 342.302 112.01C342.302 111.38 341.952 111.24 341.882 111.24C341.602 111.24 341.462 111.31 340.832 111.66C339.782 112.29 338.312 112.71 337.402 112.71C335.932 112.71 334.462 112.57 333.132 111.38C332.362 110.61 331.942 109.7 331.942 107.95C331.942 104.59 332.012 94.3 332.082 92.9C332.082 92.76 332.362 92.41 332.712 92.41H340.342C340.832 92.41 342.162 92.27 342.162 91.64C342.162 90.73 341.952 88.77 341.952 88.98C341.952 88.77 341.252 88.42 341.182 88.42C340.902 88.42 334.112 88.7 332.572 88.7ZM352.49 116C353.96 116 357.46 116.21 357.95 116.21C358.72 116.21 359.56 115.93 359.56 115.51C359.56 115.02 359.14 114.67 358.02 114.32C356.27 113.76 354.73 113.62 354.66 111.38C354.59 108.93 354.52 105.99 354.52 102.07C354.52 98.08 354.94 88.98 354.94 88.21C354.94 88.14 354.59 87.44 354.31 87.44C353.26 87.72 349.97 89.26 347.38 89.82C346.61 89.96 345.98 90.52 345.98 91.01C345.98 91.29 346.12 91.5 346.54 91.78C348.57 93.25 349.34 93.81 349.41 94.3C349.55 95.14 349.48 103.12 349.48 105.22C349.48 107.25 349.41 111.45 349.2 112.43C349.06 113.13 348.01 113.97 346.4 114.39C345.21 114.74 344.72 115.09 344.72 115.51C344.72 116 345.42 116.28 346.54 116.28C347.73 116.28 350.18 116 352.49 116ZM352.35 73.51C351.37 73.51 350.32 73.79 349.62 74.42C349.06 75.19 348.78 76.31 348.78 76.94C348.78 78.13 349.27 78.9 349.83 79.53C350.46 80.09 351.58 80.37 352.07 80.37C353.47 80.37 355.43 78.83 355.43 76.94C355.43 75.68 354.24 73.51 352.35 73.51ZM378.035 87.72C373.345 87.72 369.845 89.68 367.675 91.57C365.015 93.81 362.775 97.17 362.775 102.49C362.775 105.99 364.945 110.75 367.955 113.2C370.545 115.37 374.045 116.84 377.265 116.84C380.415 116.84 383.145 116.07 385.945 114.04C388.535 112.36 392.035 107.81 392.035 102C392.035 93.18 384.965 87.72 378.035 87.72ZM376.705 89.82C378.525 89.82 381.045 90.87 382.585 92.55C385.245 95.63 386.085 99.62 386.085 103.26C386.085 106.27 384.685 110.61 382.935 112.5C380.975 114.46 379.435 114.81 378.665 114.81C375.305 114.81 371.315 112.29 369.565 107.04C369.005 105.29 368.725 103.12 368.725 100.81C368.725 97.17 370.335 93.53 372.155 91.85C373.625 90.59 375.235 89.82 376.705 89.82ZM397.741 91.08C397.741 91.29 398.161 91.64 399.071 92.27C400.611 93.53 400.751 94.23 400.751 95C400.751 102.14 400.611 108.23 400.401 110.33C400.191 112.85 399.771 113.55 397.461 114.25C396.691 114.46 395.991 114.81 395.991 115.3C395.991 115.93 396.761 116.21 397.811 116.21C399.001 116.21 401.031 116 403.621 116C405.091 116 407.051 116.07 407.891 116.07C408.871 116.07 409.641 115.72 409.641 115.23C409.641 114.81 409.081 114.39 408.381 114.18C406.141 113.55 405.861 112.99 405.791 112.01C405.721 111.17 405.721 96.12 405.721 95.21C405.721 94.58 406.211 93.74 406.421 93.53C407.751 92.34 409.571 91.29 412.651 91.29C414.261 91.29 416.361 92.06 417.131 92.62C417.971 93.25 419.231 95.28 419.231 97.8C419.231 99.83 419.161 108.3 419.021 110.61C418.881 112.92 418.531 113.48 416.851 114.11C416.011 114.39 415.241 114.81 415.241 115.3C415.241 115.86 416.221 116.14 416.851 116.14C417.761 116.14 419.931 116 421.681 116C423.641 116 425.251 116.14 426.861 116.14C427.981 116.14 428.961 115.86 428.961 115.37C428.961 114.88 428.541 114.53 427.211 114.18C425.461 113.69 424.761 112.78 424.621 111.73C424.551 110.75 424.411 100.32 424.411 98.99C424.411 95.49 423.501 92.27 421.961 90.45C420.981 89.33 419.021 87.79 415.591 87.79C412.651 87.79 409.011 89.75 406.211 91.64C406.141 91.64 405.791 91.78 405.791 91.43C405.791 90.8 406.071 89.12 406.071 87.93C406.071 87.65 405.721 86.88 405.371 86.88C405.021 86.88 404.391 87.23 403.691 87.65C402.711 88.35 400.191 89.26 399.001 89.68C398.511 89.89 397.741 90.59 397.741 91.08ZM444.275 87.72C442.945 87.72 439.795 88.91 437.765 90.38C434.475 92.55 432.515 94.51 432.515 96.54C432.515 96.89 432.935 97.45 433.355 97.45C433.705 97.45 437.205 95.7 437.905 95.14C438.045 95 438.325 94.58 438.325 94.37C438.185 92.97 438.395 91.71 438.815 91.5C439.305 91.15 440.215 90.73 441.685 90.73C445.115 90.73 447.145 93.67 447.145 95.42C447.145 96.26 447.075 100.53 447.005 101.16C447.005 101.58 446.585 101.93 444.975 102.42C443.435 102.91 437.835 104.45 436.785 104.87C435.735 105.36 434.685 105.71 433.985 106.62C433.215 107.6 432.655 108.93 432.655 110.19C432.655 113.69 435.035 116.7 437.485 116.7C437.835 116.7 439.515 116.56 440.285 116.28C440.985 116.07 443.995 114.88 446.585 113.06C446.725 112.99 447.005 113.27 447.005 113.34C447.845 115.93 449.875 116.84 451.485 116.84C454.635 116.84 457.785 113.83 457.785 112.5C457.785 112.43 457.785 112.01 457.575 111.8C457.435 111.59 457.365 111.45 457.155 111.59C456.385 112.15 454.775 112.64 454.495 112.64C453.935 112.64 451.695 112.36 451.695 109.14C451.695 108.37 451.975 99.55 451.975 96.82C451.975 93.88 451.625 92.48 450.575 91.01C449.525 89.47 447.775 87.72 444.275 87.72ZM442.175 113.06C440.705 113.06 437.765 111.94 437.765 108.86C437.765 107.18 438.465 106.69 439.165 106.2C441.055 105.29 444.415 104.1 446.375 104.1C446.655 104.1 446.935 104.45 446.935 104.66C446.935 106.06 446.935 108.44 446.795 110.12C446.795 110.26 446.375 111.59 445.955 111.87C444.625 112.57 443.225 113.06 442.175 113.06ZM461.159 69.8C461.159 70.08 461.369 70.29 462.559 71.13C464.169 72.11 464.169 72.53 464.239 73.09C464.449 74.98 464.449 82.54 464.449 87.72C464.449 98.78 464.239 106.13 464.029 109C463.749 112.5 463.609 113.76 460.389 114.46C459.619 114.6 458.849 114.95 458.849 115.44C458.849 116 459.409 116.21 460.809 116.21C462.279 116.21 465.359 116 466.969 116C468.229 116 471.239 116.21 472.919 116.21C473.759 116.21 474.739 115.93 474.739 115.44C474.739 115.02 474.179 114.67 473.129 114.39C470.119 113.55 469.839 112.71 469.559 111.31C469.209 109.42 469.349 96.05 469.349 85.83C469.349 76.45 469.769 68.54 469.979 66.79C469.979 66.51 469.559 65.95 469.349 66.09C467.459 67.28 465.359 67.7 462.139 68.82C461.369 69.03 461.159 69.52 461.159 69.8ZM519.494 69.73C513.054 69.73 506.544 71.27 500.524 76.17C497.584 78.62 492.824 84.99 492.824 92.97C492.824 100.95 496.044 105.99 498.704 109.07C501.504 112.36 508.714 117.26 518.584 117.26C524.534 117.26 530.204 115.79 531.324 115.3C532.024 114.95 533.214 114.11 533.494 113.48C534.474 111.87 536.084 108.16 536.294 106.41C536.434 105.64 536.364 104.1 535.664 104.1C535.384 104.1 535.104 104.45 534.194 105.92C532.514 108.86 530.764 111.1 527.684 112.71C524.814 114.39 521.384 114.6 520.054 114.6C514.384 114.6 506.264 111.45 502.344 103.4C500.804 100.32 499.894 96.54 499.894 91.85C499.894 81.28 507.104 71.97 518.374 71.97C522.154 71.97 525.724 72.74 529.574 75.61C530.484 76.31 531.814 78.41 532.444 80.86C532.794 81.91 533.214 82.68 533.564 82.68C534.124 82.68 534.684 81.84 534.614 80.37C534.474 78.83 534.124 75.75 534.124 74.28C534.124 72.67 533.424 72.18 533.074 72.18C532.024 72.04 529.574 71.13 527.754 70.85C525.094 70.22 521.944 69.73 519.494 69.73ZM557 87.72C552.31 87.72 548.81 89.68 546.64 91.57C543.98 93.81 541.74 97.17 541.74 102.49C541.74 105.99 543.91 110.75 546.92 113.2C549.51 115.37 553.01 116.84 556.23 116.84C559.38 116.84 562.11 116.07 564.91 114.04C567.5 112.36 571 107.81 571 102C571 93.18 563.93 87.72 557 87.72ZM555.67 89.82C557.49 89.82 560.01 90.87 561.55 92.55C564.21 95.63 565.05 99.62 565.05 103.26C565.05 106.27 563.65 110.61 561.9 112.5C559.94 114.46 558.4 114.81 557.63 114.81C554.27 114.81 550.28 112.29 548.53 107.04C547.97 105.29 547.69 103.12 547.69 100.81C547.69 97.17 549.3 93.53 551.12 91.85C552.59 90.59 554.2 89.82 555.67 89.82ZM576.636 91.5C576.636 91.85 577.126 92.2 579.086 94.02C579.716 94.65 579.576 95.56 579.576 95.91C579.576 100.74 579.506 107.74 579.366 109.77C579.086 112.78 578.666 113.83 576.426 114.39C575.166 114.67 574.746 115.16 574.746 115.44C574.746 115.93 575.446 116.21 576.496 116.21C578.036 116.21 579.436 116 581.746 116C584.406 116 586.996 116.14 587.276 116.14C588.186 116.14 589.166 115.93 589.166 115.44C589.166 114.88 588.606 114.6 587.276 114.18C585.036 113.48 584.756 112.36 584.756 111.03C584.756 105.71 584.756 96.89 584.896 95.07C584.966 94.3 585.176 93.74 585.666 93.32C587.346 91.99 588.956 91.15 591.266 91.15C593.786 91.15 595.606 92.06 596.516 93.25C597.006 93.88 597.426 94.79 597.426 96.82V110.54C597.426 113.06 597.146 113.76 594.766 114.32C593.646 114.6 593.366 115.09 593.366 115.3C593.366 115.58 593.576 116.14 595.186 116.14C596.656 116.14 598.686 116 600.156 116C601.766 116 603.866 116.14 605.406 116.14C606.526 116.14 607.086 115.79 607.086 115.3C607.086 114.95 606.386 114.53 605.616 114.32C603.236 113.76 602.886 113.06 602.676 110.82C602.536 109.28 602.676 96.05 602.676 95.56C602.676 95.07 603.166 93.74 603.376 93.53C604.356 92.69 605.616 91.36 608.766 91.36C611.706 91.36 613.246 92.48 614.086 93.81C614.786 95.07 615.206 96.05 615.206 98.5C615.206 100.81 615.346 108.65 615.346 110.33C615.346 112.78 615.066 113.62 612.826 114.32C612.056 114.53 611.286 114.81 611.286 115.23C611.286 115.72 611.706 116.14 613.036 116.14C614.646 116.14 615.696 116 617.796 116C619.546 116 621.436 116.21 622.836 116.21C624.166 116.21 624.796 115.93 624.796 115.44C624.796 115.02 624.376 114.74 623.466 114.46C620.946 113.76 620.526 112.43 620.456 111.17C620.456 105.43 620.596 100.53 620.316 96.89C620.176 94.37 619.546 91.92 618.006 90.17C616.536 88.63 614.576 87.79 611.986 87.79C610.726 87.79 609.116 88.14 607.506 88.91C605.686 89.82 603.866 90.94 602.536 91.92C602.256 92.06 602.116 91.92 601.976 91.64C601.696 91.15 600.996 90.1 599.736 89.19C598.476 88.28 596.796 87.79 594.276 87.79C590.986 87.79 586.646 90.45 584.896 91.85C584.616 92.13 584.476 91.64 584.476 91.43C584.476 90.73 584.756 88.77 584.756 87.79C584.756 87.65 584.266 87.16 583.916 87.09C583.776 87.09 583.636 87.16 583.356 87.37C582.586 87.86 579.436 89.68 578.036 90.24C577.266 90.66 576.636 91.08 576.636 91.5ZM647.053 87.86C645.093 87.86 642.993 88.21 641.873 88.7C640.893 89.12 639.003 90.1 637.323 91.22C637.043 91.43 636.763 91.15 636.763 90.87C636.833 89.75 636.833 88.42 636.973 87.3C636.973 87.02 636.413 86.46 636.203 86.46C636.063 86.46 635.503 86.74 634.803 87.09C633.613 87.79 630.533 89.26 629.483 89.54C629.203 89.61 628.503 90.45 628.503 90.8C628.503 91.15 629.343 91.78 631.093 93.04C631.303 93.18 631.653 93.67 631.653 96.61C631.723 100.74 631.653 105.99 631.653 110.75C631.653 117.89 631.583 123.63 631.443 125.94C631.163 130.98 630.813 131.61 627.103 132.38C625.983 132.59 625.493 133.15 625.493 133.43C625.493 134.06 626.543 134.34 627.593 134.34C629.693 134.34 630.393 134.13 632.073 134.13C634.803 134.13 638.863 134.48 640.403 134.48C641.313 134.48 642.223 134.13 642.223 133.57C642.223 133.08 641.663 132.73 640.263 132.31C637.603 131.47 637.113 130.63 636.903 128.81C636.693 126.85 636.623 123.98 636.623 117.19C636.623 116.84 636.903 116.28 637.113 116.28C638.023 116.42 639.423 116.56 641.033 116.56C644.183 116.56 648.313 116 652.163 112.99C656.643 109.63 658.113 104.45 658.113 100.95C658.113 97.1 656.503 93.67 654.823 91.78C652.723 89.47 649.573 87.86 647.053 87.86ZM643.413 91.43C645.023 91.43 647.893 92.41 649.713 94.3C652.583 97.45 652.583 101.23 652.583 102.84C652.583 104.94 651.323 110.19 647.823 113.13C646.843 113.97 645.373 114.32 644.603 114.32C642.853 114.32 639.493 113.13 637.603 110.47C637.113 109.84 636.833 108.65 636.693 107.39C636.413 104.52 636.483 96.89 636.833 94.79C637.043 93.53 637.393 92.97 637.743 92.69C638.513 92.06 640.473 91.43 643.413 91.43ZM663.503 69.8C663.503 70.08 663.713 70.29 664.903 71.13C666.513 72.11 666.513 72.53 666.583 73.09C666.793 74.98 666.793 82.54 666.793 87.72C666.793 98.78 666.583 106.13 666.373 109C666.093 112.5 665.953 113.76 662.733 114.46C661.963 114.6 661.193 114.95 661.193 115.44C661.193 116 661.753 116.21 663.153 116.21C664.623 116.21 667.703 116 669.313 116C670.573 116 673.583 116.21 675.263 116.21C676.103 116.21 677.083 115.93 677.083 115.44C677.083 115.02 676.523 114.67 675.473 114.39C672.463 113.55 672.183 112.71 671.903 111.31C671.553 109.42 671.693 96.05 671.693 85.83C671.693 76.45 672.113 68.54 672.323 66.79C672.323 66.51 671.903 65.95 671.693 66.09C669.803 67.28 667.703 67.7 664.483 68.82C663.713 69.03 663.503 69.52 663.503 69.8ZM693.753 87.79C692.563 87.79 690.253 88.21 688.433 89.05C682.973 91.57 680.033 97.17 680.033 102.77C680.033 110.96 685.073 116.7 692.633 116.7C696.623 116.7 700.333 115.02 702.783 111.45C702.993 111.1 703.273 110.33 703.273 109.77C703.273 109.42 703.133 108.93 702.713 108.93C702.433 108.93 702.083 109.35 701.803 109.77C700.613 111.52 698.513 112.29 695.433 112.29C692.073 112.29 689.133 110.54 687.593 108.44C686.053 106.41 684.933 103.19 684.933 100.46C684.933 99.76 685.073 98.57 685.283 98.01C685.353 97.8 685.633 97.45 685.843 97.45C689.063 97.52 701.033 97.52 701.803 97.52C702.573 97.52 703.133 96.75 703.133 96.33C703.133 93.88 702.223 91.92 700.683 90.45C698.933 88.7 696.203 87.79 693.753 87.79ZM693.053 89.61C695.573 89.61 697.673 91.85 697.673 93.81C697.673 95.21 696.973 95.56 695.293 95.56C691.793 95.63 688.083 95.63 686.263 95.56C686.123 95.56 685.843 95.14 685.983 94.79C687.243 91.57 689.903 89.61 693.053 89.61ZM706.185 88.91C706.185 89.4 706.675 89.82 708.005 90.17C709.755 90.73 711.155 91.78 712.905 94.37C714.935 97.45 717.455 102.07 717.735 102.7C717.875 102.98 717.875 103.19 717.735 103.4C715.635 106.13 713.325 109.56 711.925 111.17C710.525 112.78 709.125 113.69 706.675 114.39C705.835 114.6 704.925 115.02 704.925 115.51C704.925 116.07 706.045 116.28 706.955 116.28C708.285 116.28 710.315 116 712.625 116C713.745 116 714.165 116.14 715.635 116.14C716.125 116.14 717.105 116 717.105 115.44C717.105 115.02 716.545 114.53 716.125 114.39C714.725 113.83 714.305 113.27 714.305 112.43C714.375 111.45 717.595 106.62 718.715 105.5C718.925 105.29 719.065 105.36 719.205 105.5C719.695 105.92 721.935 110.19 722.635 111.52C723.965 113.62 723.125 113.9 721.935 114.32C720.955 114.6 720.605 114.95 720.605 115.23C720.605 115.72 721.095 116.14 722.075 116.14C723.475 116.14 724.245 116 725.645 116C728.305 116 730.825 116.35 733.205 116.35C734.325 116.35 734.885 116 734.885 115.51C734.885 115.16 734.465 114.74 733.275 114.46C731.805 114.11 730.055 113.62 727.955 110.61C725.785 107.53 722.845 102.21 722.145 100.67C722.075 100.46 722.075 100.18 722.215 99.9C724.105 97.24 725.365 95.63 727.115 93.46C728.655 91.57 730.405 90.87 733.205 90.1C733.555 89.96 734.535 89.68 734.535 89.12C734.535 88.56 733.835 88.35 733.065 88.35C731.945 88.35 728.655 88.7 726.975 88.7C725.715 88.7 724.665 88.56 723.965 88.56C723.195 88.56 722.565 88.84 722.565 89.33C722.565 89.82 722.915 90.03 724.455 90.66C725.295 91.01 725.645 91.36 724.945 92.48C724.245 93.81 722.355 96.75 721.235 98.22C721.095 98.36 720.815 98.43 720.745 98.29C719.765 96.89 717.035 92.27 717.035 91.85C717.035 91.5 716.895 90.87 718.435 90.38C719.205 90.17 719.765 89.68 719.765 89.19C719.765 88.77 719.065 88.56 718.225 88.56C717.035 88.56 715.565 88.7 714.095 88.7C712.415 88.7 708.845 88.28 708.005 88.28C707.025 88.28 706.185 88.49 706.185 88.91ZM744.599 116C746.069 116 749.569 116.21 750.059 116.21C750.829 116.21 751.669 115.93 751.669 115.51C751.669 115.02 751.249 114.67 750.129 114.32C748.379 113.76 746.839 113.62 746.769 111.38C746.699 108.93 746.629 105.99 746.629 102.07C746.629 98.08 747.049 88.98 747.049 88.21C747.049 88.14 746.699 87.44 746.419 87.44C745.369 87.72 742.079 89.26 739.489 89.82C738.719 89.96 738.089 90.52 738.089 91.01C738.089 91.29 738.229 91.5 738.649 91.78C740.679 93.25 741.449 93.81 741.519 94.3C741.659 95.14 741.589 103.12 741.589 105.22C741.589 107.25 741.519 111.45 741.309 112.43C741.169 113.13 740.119 113.97 738.509 114.39C737.319 114.74 736.829 115.09 736.829 115.51C736.829 116 737.529 116.28 738.649 116.28C739.839 116.28 742.289 116 744.599 116ZM744.459 73.51C743.479 73.51 742.429 73.79 741.729 74.42C741.169 75.19 740.889 76.31 740.889 76.94C740.889 78.13 741.379 78.9 741.939 79.53C742.569 80.09 743.689 80.37 744.179 80.37C745.579 80.37 747.539 78.83 747.539 76.94C747.539 75.68 746.349 73.51 744.459 73.51ZM764.125 88.7C763.845 88.7 763.565 88.35 763.565 88.14V84.85C763.565 84.71 762.935 84.08 762.585 84.08C762.305 84.08 761.815 84.64 760.975 85.62C759.995 86.81 757.825 88.49 755.375 90.45C755.165 90.66 754.955 90.94 754.955 91.22C754.955 91.43 755.375 91.78 755.935 91.99C757.335 92.41 758.595 92.9 758.595 93.39C758.595 95.84 758.315 106.34 758.315 108.93C758.315 110.89 758.455 112.36 759.225 113.55C760.065 115.09 762.515 116.84 765.385 116.84C768.535 116.84 770.985 115.58 772.875 113.76C773.365 113.27 773.855 112.57 773.855 112.01C773.855 111.38 773.505 111.24 773.435 111.24C773.155 111.24 773.015 111.31 772.385 111.66C771.335 112.29 769.865 112.71 768.955 112.71C767.485 112.71 766.015 112.57 764.685 111.38C763.915 110.61 763.495 109.7 763.495 107.95C763.495 104.59 763.565 94.3 763.635 92.9C763.635 92.76 763.915 92.41 764.265 92.41H771.895C772.385 92.41 773.715 92.27 773.715 91.64C773.715 90.73 773.505 88.77 773.505 88.98C773.505 88.77 772.805 88.42 772.735 88.42C772.455 88.42 765.665 88.7 764.125 88.7ZM776.084 89.26C776.084 89.68 776.504 89.96 777.484 90.31C779.794 91.08 780.144 91.78 780.774 93.04C782.944 97.45 787.284 107.88 788.754 112.01L789.804 114.88C790.084 115.51 789.804 116.42 789.594 117.4C789.104 119.15 786.864 125.31 786.234 126.43C785.954 127.13 785.814 127.62 785.184 127.62C784.484 127.62 783.014 127.55 782.664 127.55C780.704 127.55 779.584 129.44 779.584 130.63C779.584 132.1 780.354 134.06 782.734 134.06C784.764 134.06 786.094 133.01 786.374 132.1C788.614 126.15 791.204 118.94 793.654 112.57C795.264 108.51 799.044 99.13 801.354 93.88C802.404 91.57 803.314 90.73 804.784 90.24C805.624 89.96 806.324 89.68 806.324 89.05C806.324 88.56 805.834 88.42 804.924 88.42C803.104 88.42 801.494 88.7 800.514 88.7C799.604 88.7 797.714 88.63 796.384 88.63C795.544 88.63 794.634 88.77 794.634 89.4C794.634 89.68 795.264 90.17 796.104 90.38C798.834 91.01 799.394 91.85 798.764 93.81C798.414 94.93 794.074 106.27 793.234 108.16C793.024 108.58 792.744 108.58 792.674 108.44C792.114 107.6 787.634 96.61 786.584 93.25C785.884 91.43 786.094 91.08 788.054 90.52C789.174 90.24 789.664 89.82 789.664 89.33C789.664 88.77 788.684 88.56 788.124 88.56C787.284 88.56 785.184 88.7 783.224 88.7C781.194 88.7 779.514 88.42 777.764 88.42C776.294 88.42 776.084 88.98 776.084 89.26Z" fill="black"/>
<path id="Lecture 1. Turing machines and their resources" d="M68.84 149.68C68.84 149.96 69.16 150.28 69.96 150.44C71.84 150.8 72.04 151.56 72.08 152.44C72.12 153.76 72.12 156.52 72.12 158.12C72.12 163.92 72 170.28 71.92 171.28C71.72 172.84 71.16 173.6 68.96 174.04C68.32 174.16 68 174.48 68 174.76C68 175.12 68.4 175.2 69.16 175.2C69.72 175.2 71.6 175 74.32 175C82.44 175 86.08 175.24 86.56 175.24C86.72 175.24 87.48 175 87.52 174.56C87.84 173.04 88.12 172.2 88.76 170.24C88.92 169.6 88.8 169.16 88.6 169.16C88.4 169.16 88.04 169.32 87.6 170.04C86.52 171.56 85.88 172.16 85.32 172.72C84.52 173.44 84.04 173.44 83.72 173.48C83.12 173.56 82 173.6 80.88 173.6C79.56 173.6 78.08 173.56 77.04 173.4C76.72 173.36 75.76 172.44 75.68 171.88C75.52 170.56 75.4 166.72 75.4 163.6C75.4 157.68 75.4 153.64 75.64 151.84C75.72 151.24 76 150.8 78.32 150.28C78.92 150.12 79.24 149.88 79.24 149.6C79.24 149.32 78.96 149.16 78.24 149.16C77.28 149.16 74.56 149.28 73 149.28C71.84 149.28 71.12 149.2 70.04 149.2C69.16 149.2 68.84 149.4 68.84 149.68ZM99.0116 158.88C98.3316 158.88 97.0116 159.12 95.9716 159.6C92.8516 161.04 91.1716 164.24 91.1716 167.44C91.1716 172.12 94.0516 175.4 98.3716 175.4C100.652 175.4 102.772 174.44 104.172 172.4C104.292 172.2 104.452 171.76 104.452 171.44C104.452 171.24 104.372 170.96 104.132 170.96C103.972 170.96 103.772 171.2 103.612 171.44C102.932 172.44 101.732 172.88 99.9716 172.88C98.0516 172.88 96.3716 171.88 95.4916 170.68C94.6116 169.52 93.9716 167.68 93.9716 166.12C93.9716 165.72 94.0516 165.04 94.1716 164.72C94.2116 164.6 94.3716 164.4 94.4916 164.4C96.3316 164.44 103.172 164.44 103.612 164.44C104.052 164.44 104.372 164 104.372 163.76C104.372 162.36 103.852 161.24 102.972 160.4C101.972 159.4 100.412 158.88 99.0116 158.88ZM98.6116 159.92C100.052 159.92 101.252 161.2 101.252 162.32C101.252 163.12 100.852 163.32 99.8916 163.32C97.8916 163.36 95.7716 163.36 94.7316 163.32C94.6516 163.32 94.4916 163.08 94.5716 162.88C95.2916 161.04 96.8116 159.92 98.6116 159.92ZM116.423 158.96C115.343 158.96 112.743 159.52 111.183 160.64C108.863 162.2 107.303 164.64 107.303 167.56C107.303 169.24 107.863 171.12 108.543 172.24C109.823 174.12 111.943 175.44 114.463 175.44C116.543 175.44 118.823 174.52 120.223 172.96C120.543 172.64 120.743 172.24 120.743 171.8C120.743 171.6 120.423 171.48 119.983 171.8C118.943 172.52 117.903 173 116.423 173C114.343 173 112.383 172 111.383 170.32C111.223 170.08 110.343 168.64 110.343 166.32C110.343 164.56 110.943 162.92 112.023 161.72C112.663 160.92 113.863 160.36 114.503 160.36C115.863 160.36 116.543 160.96 117.863 161.92C118.503 162.36 119.183 162.68 119.423 162.68C119.583 162.68 120.743 161.72 120.743 161.08C120.743 160.84 120.543 160.16 120.143 159.88C119.383 159.28 117.623 158.96 116.423 158.96ZM128.248 159.4C128.088 159.4 127.928 159.2 127.928 159.08V157.2C127.928 157.12 127.567 156.76 127.368 156.76C127.208 156.76 126.928 157.08 126.448 157.64C125.888 158.32 124.648 159.28 123.248 160.4C123.128 160.52 123.007 160.68 123.007 160.84C123.007 160.96 123.248 161.16 123.568 161.28C124.368 161.52 125.088 161.8 125.088 162.08C125.088 163.48 124.928 169.48 124.928 170.96C124.928 172.08 125.008 172.92 125.448 173.6C125.928 174.48 127.328 175.48 128.968 175.48C130.768 175.48 132.168 174.76 133.248 173.72C133.528 173.44 133.808 173.04 133.808 172.72C133.808 172.36 133.608 172.28 133.568 172.28C133.408 172.28 133.328 172.32 132.968 172.52C132.368 172.88 131.528 173.12 131.008 173.12C130.168 173.12 129.328 173.04 128.568 172.36C128.128 171.92 127.888 171.4 127.888 170.4C127.888 168.48 127.928 162.6 127.968 161.8C127.968 161.72 128.128 161.52 128.328 161.52H132.688C132.968 161.52 133.728 161.44 133.728 161.08C133.728 160.56 133.608 159.44 133.608 159.56C133.608 159.44 133.208 159.24 133.168 159.24C133.008 159.24 129.128 159.4 128.248 159.4ZM144.223 173.48C143.263 173.48 142.543 173.48 141.503 172.68C140.943 172.28 140.503 171.36 140.503 170.44C140.503 168.64 140.663 161.08 140.623 159.72C140.623 159.48 140.463 159.12 140.303 159.12C140.143 159.12 137.183 159.56 136.063 159.56C135.583 159.56 135.383 159.8 135.383 159.92C135.383 160.28 135.743 160.48 136.103 160.64C136.783 160.92 137.543 161.08 137.583 162.2C137.663 164.32 137.663 168.84 137.663 171.72C137.663 172.36 137.943 173.16 138.223 173.6C139.023 174.84 140.303 175.48 141.743 175.48C142.863 175.48 143.743 175.28 144.423 175C144.943 174.8 146.543 173.76 147.703 172.96C147.783 172.92 147.903 173.04 147.903 173.24C147.863 173.92 147.743 174.68 147.743 174.92C147.743 175.2 147.983 175.48 148.143 175.48C148.223 175.48 148.863 175.32 149.543 175.12C150.463 174.88 152.143 174.44 153.183 174.36C153.343 174.36 153.623 174.08 153.623 173.96C153.583 173.84 153.303 173.2 153.143 173.2C152.663 173.2 151.423 173.4 151.143 173.4C150.823 173.4 150.663 172.92 150.663 172.84C150.663 169.56 150.983 160.68 151.063 159.56C151.063 159.4 150.983 158.96 150.783 158.96C150.503 158.96 150.223 159 149.823 159.12C148.903 159.36 147.143 159.56 145.543 159.56C145.143 159.56 144.623 159.76 144.623 159.92C144.623 160.24 145.143 160.48 145.423 160.56L147.263 161.04C147.503 161.12 147.943 161.68 147.943 161.92L147.863 171.12C147.863 171.28 147.503 171.88 147.263 172.08C146.263 172.96 145.183 173.48 144.223 173.48ZM155.681 160.92C155.681 161.08 156.081 161.24 157.041 162C157.481 162.28 157.481 162.8 157.481 163.2V170.84C157.441 173.24 157.321 173.64 155.761 174.16C155.441 174.28 154.961 174.44 154.961 174.68C154.961 175 155.361 175.16 155.801 175.16C156.761 175.16 157.241 175 158.441 175C160.761 175 162.161 175.2 163.161 175.2C163.761 175.2 164.121 175.04 164.121 174.84C164.121 174.68 164.041 174.4 163.401 174.2L161.561 173.72C160.841 173.6 160.601 172.84 160.521 171.68C160.481 171.08 160.281 163.84 160.281 163.04C160.281 162.84 160.401 162.48 160.681 162.16C161.081 161.72 161.761 161.6 162.441 161.6C163.241 161.6 164.201 162.08 164.641 162.48C164.761 162.56 165.121 162.64 165.201 162.6C165.441 162.48 166.401 161.4 166.841 160.76C166.961 160.56 167.081 160.28 167.081 160.2C167.081 159.84 166.721 158.84 165.081 158.84C163.841 158.84 162.081 159.84 160.521 161.32C160.441 161.36 160.241 161.32 160.241 161.16C160.241 160.4 160.321 159.68 160.321 158.96C160.321 158.84 160.121 158.48 159.961 158.48C159.841 158.48 159.641 158.64 159.161 158.96C158.761 159.2 157.521 159.8 156.201 160.24C155.761 160.4 155.681 160.8 155.681 160.92ZM176.082 158.88C175.402 158.88 174.082 159.12 173.042 159.6C169.922 161.04 168.242 164.24 168.242 167.44C168.242 172.12 171.122 175.4 175.442 175.4C177.722 175.4 179.842 174.44 181.242 172.4C181.362 172.2 181.522 171.76 181.522 171.44C181.522 171.24 181.442 170.96 181.202 170.96C181.042 170.96 180.842 171.2 180.682 171.44C180.002 172.44 178.802 172.88 177.042 172.88C175.122 172.88 173.442 171.88 172.562 170.68C171.682 169.52 171.042 167.68 171.042 166.12C171.042 165.72 171.122 165.04 171.242 164.72C171.282 164.6 171.442 164.4 171.562 164.4C173.402 164.44 180.242 164.44 180.682 164.44C181.122 164.44 181.442 164 181.442 163.76C181.442 162.36 180.922 161.24 180.042 160.4C179.042 159.4 177.482 158.88 176.082 158.88ZM175.682 159.92C177.122 159.92 178.322 161.2 178.322 162.32C178.322 163.12 177.922 163.32 176.962 163.32C174.962 163.36 172.842 163.36 171.802 163.32C171.722 163.32 171.562 163.08 171.642 162.88C172.362 161.04 173.882 159.92 175.682 159.92ZM199.915 150.28C198.555 150.28 194.115 150.24 193.515 150C193.315 149.92 193.115 149.88 192.955 150C192.755 150.2 192.595 150.56 192.555 150.92C192.435 151.48 192.315 152.72 191.715 154.16C191.475 154.8 191.275 155.44 191.275 155.72C191.275 156 191.395 156.24 191.635 156.24C191.835 156.24 192.275 155.72 192.475 155.36C193.435 153.92 193.875 153.36 194.955 153.28C195.555 153.16 196.635 153.12 197.355 153.12C202.435 153.12 205.435 153.36 205.795 153.4C205.875 153.4 205.995 153.64 205.955 153.68C203.115 159.88 198.915 167.76 195.235 175.16C195.035 175.52 194.875 175.88 194.875 176.08C194.875 176.4 195.315 176.88 195.875 176.88C195.955 176.88 196.235 176.76 196.435 176.32C196.675 175.72 198.275 172.4 200.435 167.88C203.235 161.96 208.315 151.92 208.915 151.08C209.035 150.88 209.235 150.52 209.235 150.32C209.195 150.2 208.875 150.08 208.555 150.08C208.435 150.08 207.515 150.12 206.475 150.16C205.515 150.2 202.755 150.32 199.915 150.28ZM209.088 170.88C208.368 170.88 206.888 171.52 206.888 173.2C206.888 174.92 208.128 175.52 209.088 175.52C210.408 175.52 211.328 174.48 211.328 173.2C211.328 172.4 210.808 170.88 209.088 170.88ZM234.7 148.92C231.26 148.92 226.74 149.28 224.74 149.28H223.62C223.02 149.28 222.66 149.48 222.66 149.8C222.66 150.08 223.14 150.36 223.58 150.44C226.02 150.8 226.06 151.36 226.14 153.92C226.26 157.2 226.34 161.92 226.34 164.2C226.34 166.56 226.3 167.8 226.22 169.68C226.1 172.84 225.9 173.6 223.14 173.92C222.66 173.96 222.26 174.16 222.26 174.48C222.26 174.8 222.62 175.08 223.54 175.08C224.18 175.08 224.9 175.08 225.66 175.12C228.3 175.32 231.86 175.44 233.5 175.44C237.34 175.44 240.66 174.56 243.02 173.2C245.82 171.64 249.42 167.44 249.42 161.64C249.42 158.48 247.94 154.88 245.78 152.8C244.18 151.32 240.3 148.92 234.7 148.92ZM232.94 150.16C235.9 150.16 239.26 151.04 241.26 152.52C243.82 154.44 245.54 158.2 245.54 161.64C245.54 166.12 243.82 169.6 241.42 171.64C239.18 173.52 235.78 174.24 233.94 174.24C233.06 174.24 231.42 173.76 230.66 173.2C230.54 173.12 229.9 172.56 229.78 171.32C229.66 169.56 229.62 167.2 229.62 164.4V158.6C229.62 155.04 229.7 151.48 229.78 151C229.82 150.76 229.9 150.68 230.18 150.48C230.54 150.28 231.5 150.16 232.94 150.16ZM260.808 158.88C260.128 158.88 258.808 159.12 257.768 159.6C254.648 161.04 252.968 164.24 252.968 167.44C252.968 172.12 255.848 175.4 260.168 175.4C262.448 175.4 264.568 174.44 265.968 172.4C266.088 172.2 266.248 171.76 266.248 171.44C266.248 171.24 266.168 170.96 265.928 170.96C265.768 170.96 265.568 171.2 265.408 171.44C264.728 172.44 263.528 172.88 261.768 172.88C259.848 172.88 258.168 171.88 257.288 170.68C256.408 169.52 255.768 167.68 255.768 166.12C255.768 165.72 255.848 165.04 255.968 164.72C256.008 164.6 256.168 164.4 256.288 164.4C258.128 164.44 264.968 164.44 265.408 164.44C265.848 164.44 266.168 164 266.168 163.76C266.168 162.36 265.648 161.24 264.768 160.4C263.768 159.4 262.208 158.88 260.808 158.88ZM260.408 159.92C261.848 159.92 263.048 161.2 263.048 162.32C263.048 163.12 262.648 163.32 261.688 163.32C259.688 163.36 257.568 163.36 256.528 163.32C256.448 163.32 256.288 163.08 256.368 162.88C257.088 161.04 258.608 159.92 260.408 159.92ZM268.962 160.92C268.962 161.08 269.362 161.24 270.322 162C270.762 162.28 270.762 162.8 270.762 163.2V170.84C270.722 173.24 270.602 173.64 269.042 174.16C268.722 174.28 268.242 174.44 268.242 174.68C268.242 175 268.642 175.16 269.082 175.16C270.042 175.16 270.522 175 271.722 175C274.042 175 275.442 175.2 276.442 175.2C277.042 175.2 277.402 175.04 277.402 174.84C277.402 174.68 277.322 174.4 276.682 174.2L274.842 173.72C274.122 173.6 273.882 172.84 273.802 171.68C273.762 171.08 273.562 163.84 273.562 163.04C273.562 162.84 273.682 162.48 273.962 162.16C274.362 161.72 275.042 161.6 275.722 161.6C276.522 161.6 277.482 162.08 277.922 162.48C278.042 162.56 278.402 162.64 278.482 162.6C278.722 162.48 279.682 161.4 280.122 160.76C280.242 160.56 280.362 160.28 280.362 160.2C280.362 159.84 280.002 158.84 278.362 158.84C277.122 158.84 275.362 159.84 273.802 161.32C273.722 161.36 273.522 161.32 273.522 161.16C273.522 160.4 273.602 159.68 273.602 158.96C273.602 158.84 273.402 158.48 273.242 158.48C273.122 158.48 272.922 158.64 272.442 158.96C272.042 159.2 270.802 159.8 269.482 160.24C269.042 160.4 268.962 160.8 268.962 160.92ZM288.679 158.84C287.919 158.84 286.119 159.52 284.959 160.36C283.079 161.6 281.959 162.72 281.959 163.88C281.959 164.08 282.199 164.4 282.439 164.4C282.639 164.4 284.639 163.4 285.039 163.08C285.119 163 285.279 162.76 285.279 162.64C285.199 161.84 285.319 161.12 285.559 161C285.839 160.8 286.359 160.56 287.199 160.56C289.159 160.56 290.319 162.24 290.319 163.24C290.319 163.72 290.279 166.16 290.239 166.52C290.239 166.76 289.999 166.96 289.079 167.24C288.199 167.52 284.999 168.4 284.399 168.64C283.799 168.92 283.199 169.12 282.799 169.64C282.359 170.2 282.039 170.96 282.039 171.68C282.039 173.68 283.399 175.4 284.799 175.4C284.999 175.4 285.959 175.32 286.399 175.16C286.799 175.04 288.519 174.36 289.999 173.32C290.079 173.28 290.239 173.44 290.239 173.48C290.719 174.96 291.879 175.48 292.799 175.48C294.599 175.48 296.399 173.76 296.399 173C296.399 172.96 296.399 172.72 296.279 172.6C296.199 172.48 296.159 172.4 296.039 172.48C295.599 172.8 294.679 173.08 294.519 173.08C294.199 173.08 292.919 172.92 292.919 171.08C292.919 170.64 293.079 165.6 293.079 164.04C293.079 162.36 292.879 161.56 292.279 160.72C291.679 159.84 290.679 158.84 288.679 158.84ZM287.479 173.32C286.639 173.32 284.959 172.68 284.959 170.92C284.959 169.96 285.359 169.68 285.759 169.4C286.839 168.88 288.759 168.2 289.879 168.2C290.039 168.2 290.199 168.4 290.199 168.52C290.199 169.32 290.199 170.68 290.119 171.64C290.119 171.72 289.879 172.48 289.639 172.64C288.879 173.04 288.079 173.32 287.479 173.32ZM298.378 160.76C298.378 160.88 298.618 161.08 299.138 161.44C300.018 162.16 300.098 162.56 300.098 163C300.098 167.08 300.018 170.56 299.898 171.76C299.778 173.2 299.538 173.6 298.218 174C297.778 174.12 297.378 174.32 297.378 174.6C297.378 174.96 297.818 175.12 298.418 175.12C299.098 175.12 300.258 175 301.738 175C302.578 175 303.698 175.04 304.178 175.04C304.738 175.04 305.178 174.84 305.178 174.56C305.178 174.32 304.858 174.08 304.458 173.96C303.178 173.6 303.018 173.28 302.978 172.72C302.938 172.24 302.938 163.64 302.938 163.12C302.938 162.76 303.218 162.28 303.338 162.16C304.098 161.48 305.138 160.88 306.898 160.88C307.818 160.88 309.018 161.32 309.458 161.64C309.938 162 310.658 163.16 310.658 164.6C310.658 165.76 310.618 170.6 310.538 171.92C310.458 173.24 310.258 173.56 309.298 173.92C308.818 174.08 308.378 174.32 308.378 174.6C308.378 174.92 308.938 175.08 309.298 175.08C309.818 175.08 311.058 175 312.058 175C313.178 175 314.098 175.08 315.018 175.08C315.658 175.08 316.218 174.92 316.218 174.64C316.218 174.36 315.978 174.16 315.218 173.96C314.218 173.68 313.818 173.16 313.738 172.56C313.698 172 313.618 166.04 313.618 165.28C313.618 163.28 313.098 161.44 312.218 160.4C311.658 159.76 310.538 158.88 308.578 158.88C306.898 158.88 304.818 160 303.218 161.08C303.178 161.08 302.978 161.16 302.978 160.96C302.978 160.6 303.138 159.64 303.138 158.96C303.138 158.8 302.938 158.36 302.738 158.36C302.538 158.36 302.178 158.56 301.778 158.8C301.218 159.2 299.778 159.72 299.098 159.96C298.818 160.08 298.378 160.48 298.378 160.76ZM327.917 158.84C326.837 158.84 324.477 159.24 322.637 160.36C320.677 161.52 318.397 163.8 318.397 167.72C318.397 169.72 319.037 171.76 320.317 173.2C321.557 174.52 323.397 175.4 325.317 175.4C326.637 175.4 328.677 175.04 330.517 173.4C330.597 173.4 330.757 173.48 330.757 173.64C330.757 174.2 330.677 174.92 330.677 175.28C330.677 175.48 330.957 175.8 331.117 175.8C331.317 175.8 331.637 175.72 332.557 175.4C333.317 175.12 335.397 174.72 336.157 174.6C336.357 174.56 336.837 173.88 336.837 173.6C336.837 173.56 336.757 173.36 336.597 173.36C336.197 173.4 334.877 173.68 334.437 173.68C334.197 173.68 333.877 173.52 333.797 172.04C333.797 171.28 333.717 170.64 333.717 162.92C333.717 150.68 333.877 149.24 334.077 147.12C334.117 146.76 333.877 146.48 333.757 146.48C333.597 146.48 333.477 146.52 333.237 146.6C332.197 147 330.077 147.6 329.157 147.72C328.917 147.76 328.477 148.24 328.477 148.4C328.477 148.48 328.517 148.56 328.877 148.76C330.717 149.72 330.717 150.2 330.757 150.4C330.877 151.36 330.997 157.48 330.797 158.56C330.757 158.76 330.637 159.04 330.477 159C329.997 158.92 329.357 158.84 327.917 158.84ZM326.437 160.16C327.237 160.16 328.757 160.6 329.877 161.72C330.357 162.2 330.717 162.92 330.757 163.24C330.877 165.12 330.917 167.32 330.877 169.88C330.837 171.16 330.317 172.44 330.237 172.52C329.517 173.04 328.597 173.48 327.317 173.48C323.877 173.48 321.637 169.8 321.637 166.6C321.637 164.36 322.557 162.32 323.317 161.56C324.037 160.84 325.157 160.16 326.437 160.16ZM347.078 158.84C344.398 158.84 342.398 159.96 341.158 161.04C339.638 162.32 338.358 164.24 338.358 167.28C338.358 169.28 339.598 172 341.318 173.4C342.798 174.64 344.798 175.48 346.638 175.48C348.438 175.48 349.998 175.04 351.598 173.88C353.078 172.92 355.078 170.32 355.078 167C355.078 161.96 351.038 158.84 347.078 158.84ZM346.318 160.04C347.358 160.04 348.798 160.64 349.678 161.6C351.198 163.36 351.678 165.64 351.678 167.72C351.678 169.44 350.878 171.92 349.878 173C348.758 174.12 347.878 174.32 347.438 174.32C345.518 174.32 343.238 172.88 342.238 169.88C341.918 168.88 341.758 167.64 341.758 166.32C341.758 164.24 342.678 162.16 343.718 161.2C344.558 160.48 345.478 160.04 346.318 160.04ZM358.299 161C358.299 161.2 358.579 161.4 359.699 162.44C360.059 162.8 359.979 163.32 359.979 163.52C359.979 166.28 359.939 170.28 359.859 171.44C359.699 173.16 359.459 173.76 358.179 174.08C357.459 174.24 357.219 174.52 357.219 174.68C357.219 174.96 357.619 175.12 358.219 175.12C359.099 175.12 359.899 175 361.219 175C362.739 175 364.219 175.08 364.379 175.08C364.899 175.08 365.459 174.96 365.459 174.68C365.459 174.36 365.139 174.2 364.379 173.96C363.099 173.56 362.939 172.92 362.939 172.16C362.939 169.12 362.939 164.08 363.019 163.04C363.059 162.6 363.179 162.28 363.459 162.04C364.419 161.28 365.339 160.8 366.659 160.8C368.099 160.8 369.139 161.32 369.659 162C369.939 162.36 370.179 162.88 370.179 164.04V171.88C370.179 173.32 370.019 173.72 368.659 174.04C368.019 174.2 367.859 174.48 367.859 174.6C367.859 174.76 367.979 175.08 368.899 175.08C369.739 175.08 370.899 175 371.739 175C372.659 175 373.859 175.08 374.739 175.08C375.379 175.08 375.699 174.88 375.699 174.6C375.699 174.4 375.299 174.16 374.859 174.04C373.499 173.72 373.299 173.32 373.179 172.04C373.099 171.16 373.179 163.6 373.179 163.32C373.179 163.04 373.459 162.28 373.579 162.16C374.139 161.68 374.859 160.92 376.659 160.92C378.339 160.92 379.219 161.56 379.699 162.32C380.099 163.04 380.339 163.6 380.339 165C380.339 166.32 380.419 170.8 380.419 171.76C380.419 173.16 380.259 173.64 378.979 174.04C378.539 174.16 378.099 174.32 378.099 174.56C378.099 174.84 378.339 175.08 379.099 175.08C380.019 175.08 380.619 175 381.819 175C382.819 175 383.899 175.12 384.699 175.12C385.459 175.12 385.819 174.96 385.819 174.68C385.819 174.44 385.579 174.28 385.059 174.12C383.619 173.72 383.379 172.96 383.339 172.24C383.339 168.96 383.419 166.16 383.259 164.08C383.179 162.64 382.819 161.24 381.939 160.24C381.099 159.36 379.979 158.88 378.499 158.88C377.779 158.88 376.859 159.08 375.939 159.52C374.899 160.04 373.859 160.68 373.099 161.24C372.939 161.32 372.859 161.24 372.779 161.08C372.619 160.8 372.219 160.2 371.499 159.68C370.779 159.16 369.819 158.88 368.379 158.88C366.499 158.88 364.019 160.4 363.019 161.2C362.859 161.36 362.779 161.08 362.779 160.96C362.779 160.56 362.939 159.44 362.939 158.88C362.939 158.8 362.659 158.52 362.459 158.48C362.379 158.48 362.299 158.52 362.139 158.64C361.699 158.92 359.899 159.96 359.099 160.28C358.659 160.52 358.299 160.76 358.299 161ZM392.442 175C393.282 175 395.282 175.12 395.562 175.12C396.002 175.12 396.482 174.96 396.482 174.72C396.482 174.44 396.242 174.24 395.602 174.04C394.602 173.72 393.722 173.64 393.682 172.36C393.642 170.96 393.602 169.28 393.602 167.04C393.602 164.76 393.842 159.56 393.842 159.12C393.842 159.08 393.642 158.68 393.482 158.68C392.882 158.84 391.002 159.72 389.522 160.04C389.082 160.12 388.722 160.44 388.722 160.72C388.722 160.88 388.802 161 389.042 161.16C390.202 162 390.642 162.32 390.682 162.6C390.762 163.08 390.722 167.64 390.722 168.84C390.722 170 390.682 172.4 390.562 172.96C390.482 173.36 389.882 173.84 388.962 174.08C388.282 174.28 388.002 174.48 388.002 174.72C388.002 175 388.402 175.16 389.042 175.16C389.722 175.16 391.122 175 392.442 175ZM392.362 150.72C391.802 150.72 391.202 150.88 390.802 151.24C390.482 151.68 390.322 152.32 390.322 152.68C390.322 153.36 390.602 153.8 390.922 154.16C391.282 154.48 391.922 154.64 392.202 154.64C393.002 154.64 394.122 153.76 394.122 152.68C394.122 151.96 393.442 150.72 392.362 150.72ZM404.439 158.84C403.079 158.84 401.999 159.2 401.239 159.68C399.719 160.6 399.039 161.92 399.039 163.28C399.039 165.16 400.319 166.56 401.519 167.32C402.759 168.12 402.999 168.32 403.959 169C405.199 169.76 405.759 170.6 405.759 171.68C405.759 172.44 405.439 173.4 404.839 173.88C404.399 174.2 403.759 174.48 403.239 174.48C401.799 174.48 400.719 173.68 399.599 171.64C399.359 171.2 399.079 170.72 398.759 170.72C398.519 170.72 398.439 171.12 398.439 171.56C398.439 172.72 398.919 174.4 399.039 174.6C399.719 175.16 401.719 175.48 402.919 175.48C404.159 175.48 405.559 175.04 406.279 174.56C407.279 173.84 408.599 172.48 408.599 170.64C408.599 168.84 407.719 167.48 405.479 166.16C402.799 164.68 401.519 163.64 401.519 162.28C401.519 161.44 402.279 159.8 403.919 159.8C405.239 159.8 406.239 160.6 407.119 162.48C407.319 162.92 407.559 163.16 407.719 163.16C408.039 163.16 408.199 162.8 408.199 162.44C408.199 162.16 408.079 160.8 408.079 160.08C408.079 159.84 407.839 159.56 407.759 159.52C407.679 159.48 406.919 159.16 406.479 159.08C406.039 158.96 405.199 158.84 404.439 158.84ZM418.211 158.84C417.451 158.84 415.651 159.52 414.491 160.36C412.611 161.6 411.491 162.72 411.491 163.88C411.491 164.08 411.731 164.4 411.971 164.4C412.171 164.4 414.171 163.4 414.571 163.08C414.651 163 414.811 162.76 414.811 162.64C414.731 161.84 414.851 161.12 415.091 161C415.371 160.8 415.891 160.56 416.731 160.56C418.691 160.56 419.851 162.24 419.851 163.24C419.851 163.72 419.811 166.16 419.771 166.52C419.771 166.76 419.531 166.96 418.611 167.24C417.731 167.52 414.531 168.4 413.931 168.64C413.331 168.92 412.731 169.12 412.331 169.64C411.891 170.2 411.571 170.96 411.571 171.68C411.571 173.68 412.931 175.4 414.331 175.4C414.531 175.4 415.491 175.32 415.931 175.16C416.331 175.04 418.051 174.36 419.531 173.32C419.611 173.28 419.771 173.44 419.771 173.48C420.251 174.96 421.411 175.48 422.331 175.48C424.131 175.48 425.931 173.76 425.931 173C425.931 172.96 425.931 172.72 425.811 172.6C425.731 172.48 425.691 172.4 425.571 172.48C425.131 172.8 424.211 173.08 424.051 173.08C423.731 173.08 422.451 172.92 422.451 171.08C422.451 170.64 422.611 165.6 422.611 164.04C422.611 162.36 422.411 161.56 421.811 160.72C421.211 159.84 420.211 158.84 418.211 158.84ZM417.011 173.32C416.171 173.32 414.491 172.68 414.491 170.92C414.491 169.96 414.891 169.68 415.291 169.4C416.371 168.88 418.291 168.2 419.411 168.2C419.571 168.2 419.731 168.4 419.731 168.52C419.731 169.32 419.731 170.68 419.651 171.64C419.651 171.72 419.411 172.48 419.171 172.64C418.411 173.04 417.611 173.32 417.011 173.32ZM431.998 159.4C431.838 159.4 431.678 159.2 431.678 159.08V157.2C431.678 157.12 431.317 156.76 431.118 156.76C430.958 156.76 430.678 157.08 430.198 157.64C429.638 158.32 428.398 159.28 426.998 160.4C426.878 160.52 426.757 160.68 426.757 160.84C426.757 160.96 426.998 161.16 427.318 161.28C428.118 161.52 428.838 161.8 428.838 162.08C428.838 163.48 428.678 169.48 428.678 170.96C428.678 172.08 428.758 172.92 429.198 173.6C429.678 174.48 431.078 175.48 432.718 175.48C434.518 175.48 435.918 174.76 436.998 173.72C437.278 173.44 437.558 173.04 437.558 172.72C437.558 172.36 437.358 172.28 437.318 172.28C437.158 172.28 437.078 172.32 436.718 172.52C436.118 172.88 435.278 173.12 434.758 173.12C433.918 173.12 433.078 173.04 432.318 172.36C431.878 171.92 431.638 171.4 431.638 170.4C431.638 168.48 431.678 162.6 431.718 161.8C431.718 161.72 431.878 161.52 432.078 161.52H436.438C436.718 161.52 437.478 161.44 437.478 161.08C437.478 160.56 437.358 159.44 437.358 159.56C437.358 159.44 436.958 159.24 436.918 159.24C436.758 159.24 432.878 159.4 431.998 159.4ZM443.379 175C444.219 175 446.219 175.12 446.499 175.12C446.939 175.12 447.419 174.96 447.419 174.72C447.419 174.44 447.179 174.24 446.539 174.04C445.539 173.72 444.659 173.64 444.619 172.36C444.579 170.96 444.539 169.28 444.539 167.04C444.539 164.76 444.779 159.56 444.779 159.12C444.779 159.08 444.579 158.68 444.419 158.68C443.819 158.84 441.939 159.72 440.459 160.04C440.019 160.12 439.659 160.44 439.659 160.72C439.659 160.88 439.739 161 439.979 161.16C441.139 162 441.579 162.32 441.619 162.6C441.699 163.08 441.659 167.64 441.659 168.84C441.659 170 441.619 172.4 441.499 172.96C441.419 173.36 440.819 173.84 439.899 174.08C439.219 174.28 438.939 174.48 438.939 174.72C438.939 175 439.339 175.16 439.979 175.16C440.659 175.16 442.059 175 443.379 175ZM443.299 150.72C442.739 150.72 442.139 150.88 441.739 151.24C441.419 151.68 441.259 152.32 441.259 152.68C441.259 153.36 441.539 153.8 441.859 154.16C442.219 154.48 442.859 154.64 443.139 154.64C443.939 154.64 445.059 153.76 445.059 152.68C445.059 151.96 444.379 150.72 443.299 150.72ZM457.977 158.84C455.297 158.84 453.297 159.96 452.057 161.04C450.537 162.32 449.257 164.24 449.257 167.28C449.257 169.28 450.497 172 452.217 173.4C453.697 174.64 455.697 175.48 457.537 175.48C459.337 175.48 460.897 175.04 462.497 173.88C463.977 172.92 465.977 170.32 465.977 167C465.977 161.96 461.937 158.84 457.977 158.84ZM457.217 160.04C458.257 160.04 459.697 160.64 460.577 161.6C462.097 163.36 462.577 165.64 462.577 167.72C462.577 169.44 461.777 171.92 460.777 173C459.657 174.12 458.777 174.32 458.337 174.32C456.417 174.32 454.137 172.88 453.137 169.88C452.817 168.88 452.657 167.64 452.657 166.32C452.657 164.24 453.577 162.16 454.617 161.2C455.457 160.48 456.377 160.04 457.217 160.04ZM469.237 160.76C469.237 160.88 469.477 161.08 469.997 161.44C470.877 162.16 470.957 162.56 470.957 163C470.957 167.08 470.877 170.56 470.757 171.76C470.637 173.2 470.397 173.6 469.077 174C468.637 174.12 468.237 174.32 468.237 174.6C468.237 174.96 468.677 175.12 469.277 175.12C469.957 175.12 471.117 175 472.597 175C473.437 175 474.557 175.04 475.037 175.04C475.597 175.04 476.037 174.84 476.037 174.56C476.037 174.32 475.717 174.08 475.317 173.96C474.037 173.6 473.877 173.28 473.837 172.72C473.797 172.24 473.797 163.64 473.797 163.12C473.797 162.76 474.077 162.28 474.197 162.16C474.957 161.48 475.997 160.88 477.757 160.88C478.677 160.88 479.877 161.32 480.317 161.64C480.797 162 481.517 163.16 481.517 164.6C481.517 165.76 481.477 170.6 481.397 171.92C481.317 173.24 481.117 173.56 480.157 173.92C479.677 174.08 479.237 174.32 479.237 174.6C479.237 174.92 479.797 175.08 480.157 175.08C480.677 175.08 481.917 175 482.917 175C484.037 175 484.957 175.08 485.877 175.08C486.517 175.08 487.077 174.92 487.077 174.64C487.077 174.36 486.837 174.16 486.077 173.96C485.077 173.68 484.677 173.16 484.597 172.56C484.557 172 484.477 166.04 484.477 165.28C484.477 163.28 483.957 161.44 483.077 160.4C482.517 159.76 481.397 158.88 479.437 158.88C477.757 158.88 475.677 160 474.077 161.08C474.037 161.08 473.837 161.16 473.837 160.96C473.837 160.6 473.997 159.64 473.997 158.96C473.997 158.8 473.797 158.36 473.597 158.36C473.397 158.36 473.037 158.56 472.637 158.8C472.077 159.2 470.637 159.72 469.957 159.96C469.677 160.08 469.237 160.48 469.237 160.76Z" fill="black"/>
<rect id="1:176" opacity="0.5" x="67" y="252" width="457" height="343" fill="#FF0000"/>
<rect id="9:0" opacity="0.5" x="590" y="252" width="457" height="343" fill="#FF0000"/>
</g>
</svg>
