<svg width="1280" height="960" viewBox="0 0 1280 960" fill="none" xmlns="http://www.w3.org/2000/svg">
<g id="Gate" clip-path="url(#clip0)">
<rect width="1280" height="960" fill="white"/>
<g id="71:414">
<g id="Group 47">
<g id="An n-qubit gate is any unitary linear map">
<path id="Definition: An k-qubit gate is any unitary linear map" d="M141.68 562.8C138.88 562.8 134.88 563.12 133.48 563.08L130.72 563.04C129.56 563.04 128.92 563.28 128.92 563.88C128.92 564.44 129.48 564.88 130.44 565.08C132.32 565.48 132.4 566.08 132.48 566.52C132.76 567.92 132.68 568.6 132.68 574.08C132.68 579.36 132.68 581.36 132.4 582.92C132.08 584.72 131.4 584.6 130.12 584.96C129.12 585.24 128.52 586.2 128.52 586.64C128.52 586.92 128.84 587.2 129.16 587.16C131.08 587 132.88 587 134.16 587C135.44 587 139.8 587.32 141.44 587.32C144.4 587.32 147.4 587 150.24 585.48C152.4 584.28 156.48 581.12 156.48 575C156.48 572.52 155.8 568.96 152.44 566.12C149.48 563.64 145.52 562.8 141.68 562.8ZM141.68 564.92C142.96 564.92 145 565.68 146.76 567.44C148.8 569.44 149.56 572.44 149.56 575.36C149.56 578.04 148.8 581.4 147 583.12C145.24 584.8 143.08 585.28 142.64 585.28C142.12 585.28 140.68 584.6 140.24 584.24C139.76 583.84 139.32 583 139.24 582.16C139.12 580.96 138.96 580.32 138.96 575.2V572.32C138.96 569.32 139.12 567.6 139.2 566.24C139.2 566.08 139.6 565.32 139.76 565.24C140.04 565.08 141.36 564.92 141.68 564.92ZM169.144 570.08C167.384 570.08 165.624 570.68 164.504 571.4C162.464 572.68 160.264 575.32 160.264 578.92C160.264 583.96 163.464 587.48 168.544 587.48C170.744 587.48 173.184 586.68 174.984 584.76C175.224 584.52 175.784 583.8 175.784 582.8C175.784 582.56 175.384 582.16 175.144 582.32C174.104 582.96 172.584 583.6 171.224 583.6C167.824 583.6 165.784 581.44 165.784 578.52C165.784 578.32 165.744 578.28 165.904 578C166.024 577.68 166.304 577.6 166.664 577.6C167.424 577.6 174.304 577.48 174.584 577.48C175.144 577.48 175.744 576.48 175.744 576.04C175.744 574.92 175.424 573.88 174.904 573C173.784 571.2 171.584 570.08 169.144 570.08ZM168.744 571.96C170.544 571.96 170.944 573.6 170.944 574.32C170.944 575.68 169.784 575.76 168.504 575.76C167.264 575.76 166.624 575.72 166.264 575.64C166.024 575.6 166.064 575.2 166.064 575.04C166.064 573.64 167.384 571.96 168.744 571.96ZM186.782 570.56C186.582 570.56 186.462 570.24 186.462 569.96C186.462 566.84 186.662 565 187.102 564.24C187.462 563.64 187.982 563.12 189.022 563.12C190.182 563.12 192.502 565.2 193.262 565.88C193.502 566.12 194.382 566.44 194.622 566.44C195.782 566.44 197.102 564.76 197.102 563.8C197.102 563.44 196.942 562.72 196.542 562.28C195.622 561.28 193.662 560.6 191.662 560.6C189.502 560.6 187.262 561.48 186.302 562.04C184.662 563.04 183.422 564.2 182.702 565.2C181.622 566.72 181.062 568.04 180.862 569.8C180.822 570.16 180.702 570.4 180.462 570.52C179.502 571.08 178.222 571.92 178.222 572.48C178.222 572.84 178.502 573.32 178.902 573.4L180.262 573.68C180.462 573.72 180.782 574 180.782 574.32C180.782 581.08 180.742 582.64 180.702 583.28C180.622 584.36 180.342 584.84 179.062 585.24C178.462 585.36 178.062 585.84 178.062 586.2C178.062 586.64 178.302 587.12 179.662 587.12C180.262 587.12 181.782 587 183.182 587C184.622 587 187.022 587.12 187.542 587.12C188.462 587.12 189.102 586.6 189.102 586.2C189.102 585.72 188.462 585.4 187.822 585.2C186.862 584.92 186.582 584.52 186.502 582.8C186.422 581.32 186.262 574.64 186.382 573.96C186.422 573.8 186.582 573.32 186.742 573.32L191.502 573.24C192.062 573.24 192.622 573.76 192.662 574.12C192.702 574.96 192.702 575.04 192.702 575.84C192.702 578.12 192.622 582.16 192.542 583C192.422 584.64 192.302 584.96 191.142 585.36C190.862 585.4 190.222 585.8 190.222 586.2C190.222 586.6 190.582 587.12 191.422 587.12C191.982 587.12 193.742 587 195.782 587C196.662 587 198.862 587.12 199.702 587.12C200.182 587.12 200.702 586.6 200.702 586.28C200.702 585.88 200.422 585.52 199.782 585.28C198.422 584.8 198.302 584.64 198.262 583.72C198.102 580.56 198.102 573.52 198.102 572.04C198.102 570.48 197.782 569.88 197.462 569.88C197.222 569.88 196.862 570 196.502 570.16C195.822 570.48 193.942 570.56 188.862 570.56H186.782ZM203.001 572.56C203.001 572.72 203.201 573 203.641 573.4C204.721 574.36 204.881 574.64 204.881 575.28C204.881 578.56 204.841 581.52 204.681 583.12C204.561 584.48 204.521 584.6 202.641 585.36C202.241 585.52 201.761 585.92 201.761 586.44C201.761 586.84 202.201 587.12 203.121 587.12C203.761 587.12 206.241 587 207.481 587C208.441 587 209.681 587.12 211.001 587.12C211.721 587.12 212.441 586.8 212.441 586.16C212.441 586 212.321 585.48 211.361 585.12C210.481 584.76 210.321 584.2 210.321 583.4V574.76C210.321 574.28 210.641 573.88 210.761 573.84C211.361 573.6 212.121 573.44 212.961 573.44C213.681 573.44 214.521 573.68 214.921 574.2C215.321 574.72 215.601 575.28 215.601 578.28C215.601 580.04 215.601 581.6 215.561 583.56C215.521 584.56 215.321 585.04 214.401 585.4C213.761 585.64 213.601 586.08 213.601 586.32C213.601 586.76 214.041 587.12 215.001 587.12C215.481 587.12 217.081 587 218.241 587C219.441 587 221.561 587.12 222.081 587.12C222.601 587.12 223.521 587 223.521 586.24C223.521 585.88 223.081 585.44 222.441 585.12C221.441 584.6 221.321 584.44 221.241 582.8C221.161 581 221.161 579.56 221.161 577.72C221.161 574.96 220.441 573.04 219.801 572.12C219.641 571.92 218.321 570.08 216.001 570.08C213.521 570.08 211.641 571.2 210.361 572.08C210.241 572.16 210.041 572.2 210.041 571.92C210.041 571.52 210.201 570.52 210.201 570.32C210.201 570 209.641 569.6 209.521 569.6C209.441 569.6 208.601 569.8 208.121 570.04C207.321 570.44 204.761 571.04 203.961 571.32C203.321 571.56 203.001 572.28 203.001 572.56ZM225.931 572.56C225.931 572.84 226.411 573.32 226.651 573.52C227.651 574.32 227.731 574.72 227.731 574.84C227.771 575.08 227.811 576.04 227.811 576.84C227.811 579.12 227.691 582.24 227.611 583.08C227.451 584.56 227.411 584.72 225.651 585.36C225.371 585.44 224.611 585.88 224.611 586.4C224.611 586.96 225.491 587.16 226.131 587.16C226.691 587.16 228.611 587 230.651 587C231.531 587 233.731 587.12 234.571 587.12C235.571 587.12 236.011 586.72 236.011 586.36C236.011 585.84 235.411 585.44 234.851 585.24C233.891 584.88 233.531 584.44 233.411 583.68C233.371 583.32 233.331 583.44 233.291 578.2V571.44C233.291 570.68 232.971 569.96 232.771 569.96C232.091 569.96 228.611 571 226.611 571.72C226.451 571.76 225.931 572.28 225.931 572.56ZM230.571 561.8C228.531 561.8 227.211 563.2 227.211 565.04C227.211 565.72 227.371 566.2 227.691 566.64C228.251 567.52 229.291 568 230.211 568C231.251 568 233.331 567.24 233.331 564.84C233.331 564.44 233.091 563.32 232.371 562.56C231.931 562.12 231.371 561.8 230.571 561.8ZM245.522 570.56C245.242 570.56 245.042 570.2 245.042 570.04V567.8C245.042 567.44 244.642 566.96 244.402 566.96C244.042 566.96 242.642 567.44 242.202 567.92C241.202 569 239.362 570.36 238.282 571.08C237.882 571.32 237.442 571.6 237.442 571.92C237.442 572.24 237.842 573.04 238.482 573.2C239.522 573.44 239.602 573.72 239.602 573.96C239.602 577.8 239.442 579.76 239.442 582.56C239.442 584 239.682 584.92 240.002 585.4C241.162 587.12 243.122 587.48 244.682 587.48C245.682 587.48 247.802 587 248.842 586.2C250.282 585.12 250.442 584.6 250.442 583.96C250.442 583.64 250.082 583.32 249.922 583.32C249.682 583.32 249.442 583.48 249.082 583.6C248.522 583.8 247.882 583.84 247.402 583.84C246.762 583.84 246.282 583.72 245.722 583.12C245.242 582.56 245.002 582.04 245.042 580.48L245.122 573.96C245.122 573.76 245.362 573.4 245.442 573.4C246.362 573.4 247.842 573.36 249.322 573.36C250.002 573.36 250.282 572.52 250.282 572.32C250.282 572.12 250.322 571.2 250.202 570.8C250.122 570.56 249.682 570.36 249.562 570.36C248.642 570.36 245.962 570.56 245.522 570.56ZM252.572 572.56C252.572 572.84 253.052 573.32 253.292 573.52C254.292 574.32 254.372 574.72 254.372 574.84C254.412 575.08 254.452 576.04 254.452 576.84C254.452 579.12 254.332 582.24 254.252 583.08C254.092 584.56 254.052 584.72 252.292 585.36C252.012 585.44 251.252 585.88 251.252 586.4C251.252 586.96 252.132 587.16 252.772 587.16C253.332 587.16 255.252 587 257.292 587C258.172 587 260.372 587.12 261.212 587.12C262.212 587.12 262.652 586.72 262.652 586.36C262.652 585.84 262.052 585.44 261.492 585.24C260.532 584.88 260.172 584.44 260.052 583.68C260.012 583.32 259.972 583.44 259.932 578.2V571.44C259.932 570.68 259.612 569.96 259.412 569.96C258.732 569.96 255.252 571 253.252 571.72C253.092 571.76 252.572 572.28 252.572 572.56ZM257.212 561.8C255.172 561.8 253.852 563.2 253.852 565.04C253.852 565.72 254.012 566.2 254.332 566.64C254.892 567.52 255.932 568 256.852 568C257.892 568 259.972 567.24 259.972 564.84C259.972 564.44 259.732 563.32 259.012 562.56C258.572 562.12 258.012 561.8 257.212 561.8ZM274.198 570.08C272.678 570.08 269.598 570.88 267.958 572.2C266.198 573.6 264.678 575.68 264.678 578.76C264.678 580.56 265.318 583.2 267.038 584.88C268.758 586.56 271.198 587.48 274.038 587.48C277.078 587.48 279.398 586.32 280.838 585C282.198 583.76 283.558 581.84 283.558 578.52C283.558 574.44 280.158 570.08 274.198 570.08ZM273.638 572.2C275.758 572.2 277.238 575.28 277.238 579.36C277.238 582.52 276.558 583.96 276.278 584.36C275.798 585.04 274.998 585.4 274.558 585.4C273.798 585.4 272.958 584.76 272.678 584.52C272.158 584.16 270.718 582.04 270.718 578C270.718 576.12 271.198 574.04 271.878 573.08C272.238 572.6 272.918 572.2 273.638 572.2ZM286.868 572.56C286.868 572.72 287.068 573 287.508 573.4C288.588 574.36 288.748 574.64 288.748 575.28C288.748 578.56 288.708 581.52 288.548 583.12C288.428 584.48 288.388 584.6 286.508 585.36C286.108 585.52 285.628 585.92 285.628 586.44C285.628 586.84 286.068 587.12 286.988 587.12C287.628 587.12 290.108 587 291.348 587C292.308 587 293.548 587.12 294.868 587.12C295.588 587.12 296.308 586.8 296.308 586.16C296.308 586 296.188 585.48 295.228 585.12C294.348 584.76 294.188 584.2 294.188 583.4V574.76C294.188 574.28 294.508 573.88 294.628 573.84C295.228 573.6 295.988 573.44 296.828 573.44C297.548 573.44 298.388 573.68 298.788 574.2C299.188 574.72 299.468 575.28 299.468 578.28C299.468 580.04 299.468 581.6 299.428 583.56C299.388 584.56 299.188 585.04 298.268 585.4C297.628 585.64 297.468 586.08 297.468 586.32C297.468 586.76 297.908 587.12 298.868 587.12C299.348 587.12 300.948 587 302.108 587C303.308 587 305.428 587.12 305.948 587.12C306.468 587.12 307.388 587 307.388 586.24C307.388 585.88 306.948 585.44 306.308 585.12C305.308 584.6 305.188 584.44 305.108 582.8C305.028 581 305.028 579.56 305.028 577.72C305.028 574.96 304.308 573.04 303.668 572.12C303.508 571.92 302.188 570.08 299.868 570.08C297.388 570.08 295.508 571.2 294.228 572.08C294.108 572.16 293.908 572.2 293.908 571.92C293.908 571.52 294.068 570.52 294.068 570.32C294.068 570 293.508 569.6 293.388 569.6C293.308 569.6 292.468 569.8 291.988 570.04C291.188 570.44 288.628 571.04 287.828 571.32C287.188 571.56 286.868 572.28 286.868 572.56ZM316.513 580.48C315.113 580.48 313.033 581.8 313.033 583.92C313.033 585.92 314.433 587.48 316.433 587.48C318.633 587.48 319.833 585.72 319.833 583.96C319.833 582.4 318.793 580.48 316.513 580.48ZM316.433 569.52C314.833 569.52 313.033 571.08 313.033 573.04C313.033 575.08 314.553 576.48 316.393 576.48C318.273 576.48 319.833 574.88 319.833 572.96C319.833 571.4 318.513 569.52 316.433 569.52ZM345.011 560.56C344.811 560.56 344.651 560.76 344.371 561.08L343.411 562.68C343.251 563 343.171 563.24 343.131 563.36C343.051 563.6 343.011 563.84 342.771 564.4C341.091 568.48 336.531 580.56 335.611 582.6C334.451 585.2 333.931 585.32 331.931 586C331.331 586.2 331.051 586.56 331.051 586.8C331.051 587.04 331.251 587.2 331.971 587.2C332.571 587.2 334.651 587 336.131 587C337.611 587 338.611 587.12 339.291 587.12C339.811 587.12 340.411 587 340.411 586.6C340.411 586.32 340.011 586.08 339.331 585.88C337.531 585.32 337.371 584.64 337.371 584.16C337.371 583.16 338.411 579.76 339.451 577.16C339.531 577.04 339.731 576.84 339.891 576.84C340.731 576.72 344.251 576.68 346.451 576.68C347.611 576.68 347.771 576.92 347.811 577.08C348.731 579.64 349.731 582.28 350.051 583.92C350.211 584.76 350.371 585.56 348.451 585.96C347.731 586.08 347.491 586.4 347.491 586.6C347.491 586.8 347.731 587.08 348.731 587.08C349.731 587.08 350.291 587 351.571 587C353.331 587 355.291 587.2 356.611 587.2C357.611 587.2 357.891 586.96 357.891 586.68C357.891 586.4 357.571 586.2 356.931 586C355.131 585.56 354.491 585.24 353.171 581.96C352.491 580.32 349.491 572.4 347.411 566.56C346.651 564.48 345.971 562.68 345.651 561.6C345.331 560.72 345.171 560.56 345.011 560.56ZM346.811 574.88C345.491 575 342.171 574.96 340.571 575C340.411 575 340.331 574.88 340.371 574.72C340.691 573.48 342.771 567.88 343.491 565.96C343.611 565.68 343.691 565.72 343.811 565.96C344.171 566.52 346.251 572.52 346.931 574.56C346.971 574.68 346.851 574.88 346.811 574.88ZM359.729 572.76C359.729 572.88 359.969 573.08 360.489 573.44C361.369 574.16 361.449 574.56 361.449 575C361.449 579.08 361.369 582.56 361.249 583.76C361.129 585.2 360.889 585.6 359.569 586C359.129 586.12 358.729 586.32 358.729 586.6C358.729 586.96 359.169 587.12 359.769 587.12C360.449 587.12 361.609 587 363.089 587C363.929 587 365.049 587.04 365.529 587.04C366.089 587.04 366.529 586.84 366.529 586.56C366.529 586.32 366.209 586.08 365.809 585.96C364.529 585.6 364.369 585.28 364.329 584.72C364.289 584.24 364.289 575.64 364.289 575.12C364.289 574.76 364.569 574.28 364.689 574.16C365.449 573.48 366.489 572.88 368.249 572.88C369.169 572.88 370.369 573.32 370.809 573.64C371.289 574 372.009 575.16 372.009 576.6C372.009 577.76 371.969 582.6 371.889 583.92C371.809 585.24 371.609 585.56 370.649 585.92C370.169 586.08 369.729 586.32 369.729 586.6C369.729 586.92 370.289 587.08 370.649 587.08C371.169 587.08 372.409 587 373.409 587C374.529 587 375.449 587.08 376.369 587.08C377.009 587.08 377.569 586.92 377.569 586.64C377.569 586.36 377.329 586.16 376.569 585.96C375.569 585.68 375.169 585.16 375.089 584.56C375.049 584 374.969 578.04 374.969 577.28C374.969 575.28 374.449 573.44 373.569 572.4C373.009 571.76 371.889 570.88 369.929 570.88C368.249 570.88 366.169 572 364.569 573.08C364.529 573.08 364.329 573.16 364.329 572.96C364.329 572.6 364.489 571.64 364.489 570.96C364.489 570.8 364.289 570.36 364.089 570.36C363.889 570.36 363.529 570.56 363.129 570.8C362.569 571.2 361.129 571.72 360.449 571.96C360.169 572.08 359.729 572.48 359.729 572.76ZM401.478 570.84C399.958 570.84 399.318 571.12 398.158 571.72C396.118 572.76 394.398 574.44 393.078 576.4C392.878 576.72 392.317 576.8 392.478 576.36C394.558 570.4 398.398 560.44 398.598 559.68C398.718 559.28 398.638 558.72 398.438 558.72C397.718 558.72 394.198 559.52 393.598 559.84C393.238 560.04 393.038 560.2 392.998 560.48C392.998 560.56 393.318 560.8 393.718 560.96C394.718 561.36 394.758 561.56 394.518 562.24C392.078 569.64 387.078 584.6 386.798 585.28C386.558 585.96 386.438 586.48 386.438 586.6C386.438 587 387.198 587.56 387.918 587.56C388.078 587.56 388.478 587.36 388.598 587.04C389.518 585.04 390.558 582.6 391.358 580.72C391.678 580 391.958 579.84 392.317 579.84C392.718 579.84 393.358 580.36 393.718 581.32C394.238 582.92 394.598 583.96 395.078 585.2C395.718 586.68 396.518 587.68 397.438 587.68C398.758 587.68 400.758 585.92 402.158 583.92C402.598 583.24 402.838 582.36 402.398 582.36C402.238 582.36 402.038 582.52 401.758 582.84C400.798 584.08 399.438 585.04 398.798 585.04C398.278 585.04 397.878 584.76 397.398 583.64C396.838 582.36 396.318 580.44 396.118 579.36C396.078 579.28 396.198 579 396.358 578.96C396.958 578.72 399.238 577.64 400.558 576.76C402.558 575.36 403.638 573.4 403.638 572.48C403.638 571.64 402.798 570.84 401.478 570.84ZM399.238 572.64C400.478 572.64 400.558 573.16 400.558 573.48C400.558 575.48 396.717 578.56 393.678 578.76C393.358 578.76 393.118 578.44 393.278 578.08C394.238 576.2 395.758 574.24 397.238 573.36C397.998 572.88 398.878 572.64 399.238 572.64ZM406.447 577.76C406.207 577.8 405.767 578.4 405.767 579.44C405.767 579.76 406.047 580.04 406.407 580C408.807 579.76 412.447 579.4 413.807 579.24C414.287 579.2 414.527 577.96 414.527 577.32C414.527 577.16 414.287 576.88 414.207 576.88C412.647 577.04 408.647 577.44 406.447 577.76ZM426.557 570.84C425.277 570.84 423.157 571.48 421.957 572.2C420.477 573.04 417.757 575.28 417.757 579.56C417.757 581.52 418.517 583.76 419.757 585.08C421.037 586.4 422.997 587.48 425.597 587.48C426.917 587.48 428.677 586.76 430.197 586C430.317 585.96 430.397 586.16 430.397 586.4C430.397 588.96 430.277 593.56 430.197 594.4C430.117 595.28 430.037 596.16 427.597 596.64C427.077 596.76 426.597 597.04 426.597 597.32C426.597 597.64 427.157 597.76 427.597 597.76C429.237 597.76 432.077 597.28 435.277 597.28C435.877 597.28 436.277 597.04 436.277 596.76C436.277 596.48 435.717 596.2 435.397 596.16C433.517 595.84 433.357 595.48 433.317 594.04C433.197 591.44 433.197 588.24 433.197 585.44C433.197 581.88 433.237 572.68 433.637 571.32C433.797 570.8 433.597 570.52 433.437 570.52C433.197 570.52 432.757 570.8 432.477 571.04C431.997 571.48 431.597 571.68 431.517 571.68C431.277 571.68 430.717 571.48 429.997 571.24C429.077 570.96 427.797 570.84 426.557 570.84ZM425.597 572.08C427.037 572.08 428.717 573 429.517 574.24C429.757 574.6 430.157 576.16 430.197 576.56C430.317 577.8 430.397 582.28 430.397 583.76C430.397 584.04 430.157 584.92 429.997 585C429.477 585.4 428.117 585.68 427.597 585.68C426.037 585.68 424.237 585.12 423.077 583.96C421.877 582.68 421.077 581 421.077 578.64C421.077 575.36 422.277 573.8 423.277 572.92C424.037 572.24 424.917 572.08 425.597 572.08ZM445.692 585.48C444.732 585.48 444.012 585.48 442.972 584.68C442.412 584.28 441.972 583.36 441.972 582.44C441.972 580.64 442.132 573.08 442.092 571.72C442.092 571.48 441.932 571.12 441.772 571.12C441.612 571.12 438.652 571.56 437.532 571.56C437.052 571.56 436.852 571.8 436.852 571.92C436.852 572.28 437.212 572.48 437.572 572.64C438.252 572.92 439.012 573.08 439.052 574.2C439.132 576.32 439.132 580.84 439.132 583.72C439.132 584.36 439.412 585.16 439.692 585.6C440.492 586.84 441.772 587.48 443.212 587.48C444.332 587.48 445.212 587.28 445.892 587C446.412 586.8 448.012 585.76 449.172 584.96C449.252 584.92 449.372 585.04 449.372 585.24C449.332 585.92 449.212 586.68 449.212 586.92C449.212 587.2 449.452 587.48 449.612 587.48C449.692 587.48 450.332 587.32 451.012 587.12C451.932 586.88 453.612 586.44 454.652 586.36C454.812 586.36 455.092 586.08 455.092 585.96C455.052 585.84 454.772 585.2 454.612 585.2C454.132 585.2 452.892 585.4 452.612 585.4C452.292 585.4 452.132 584.92 452.132 584.84C452.132 581.56 452.452 572.68 452.532 571.56C452.532 571.4 452.452 570.96 452.252 570.96C451.972 570.96 451.692 571 451.292 571.12C450.372 571.36 448.612 571.56 447.012 571.56C446.612 571.56 446.092 571.76 446.092 571.92C446.092 572.24 446.612 572.48 446.892 572.56L448.732 573.04C448.972 573.12 449.412 573.68 449.412 573.92L449.332 583.12C449.332 583.28 448.972 583.88 448.732 584.08C447.732 584.96 446.652 585.48 445.692 585.48ZM473.933 578.64C473.933 576.36 473.093 574.12 471.293 572.6C470.013 571.48 468.213 570.84 466.333 570.84C465.013 570.84 463.093 571.32 461.773 572.2C461.733 572.24 461.533 572.12 461.533 572.04C461.453 571.6 461.453 569.64 461.453 568.6C461.453 565.4 461.693 561.6 461.813 558.96C461.813 558.8 461.533 558.44 461.373 558.44C461.293 558.44 460.893 558.6 460.373 558.92C459.573 559.4 458.213 559.76 457.093 560.16C456.973 560.2 456.613 560.68 456.613 560.72C456.613 560.92 456.813 561.04 457.413 561.48C458.173 562.12 458.373 562.64 458.413 562.84C458.493 563.4 458.613 569.32 458.613 573.12C458.613 576.4 458.573 583.28 458.373 586.4C458.373 586.68 458.453 586.92 458.613 586.92C458.693 586.92 458.933 586.88 459.093 586.8C459.413 586.64 459.773 586.6 459.933 586.68C460.853 587 463.613 587.48 465.013 587.48C466.413 587.48 468.813 587.04 470.453 585.68C472.213 584.32 473.933 581.96 473.933 578.64ZM470.613 579.48C470.613 581.28 469.893 583.76 468.773 584.84C467.853 585.68 466.773 586.2 466.333 586.2C465.613 586.2 463.733 585.68 462.613 584.52C462.093 584 461.853 583.36 461.813 582.52C461.613 580.36 461.493 578.2 461.493 576.12C461.493 575.28 461.533 574.16 461.573 573.8C461.613 573.52 461.773 573.28 461.893 573.2C462.213 572.96 462.973 572.6 464.293 572.6C466.173 572.6 467.733 573.4 468.653 574.32C470.013 575.8 470.613 578.04 470.613 579.48ZM480.903 587C481.743 587 483.743 587.12 484.023 587.12C484.463 587.12 484.943 586.96 484.943 586.72C484.943 586.44 484.703 586.24 484.063 586.04C483.063 585.72 482.183 585.64 482.143 584.36C482.103 582.96 482.063 581.28 482.063 579.04C482.063 576.76 482.303 571.56 482.303 571.12C482.303 571.08 482.103 570.68 481.943 570.68C481.343 570.84 479.463 571.72 477.983 572.04C477.543 572.12 477.183 572.44 477.183 572.72C477.183 572.88 477.263 573 477.503 573.16C478.663 574 479.103 574.32 479.143 574.6C479.223 575.08 479.183 579.64 479.183 580.84C479.183 582 479.143 584.4 479.023 584.96C478.943 585.36 478.343 585.84 477.423 586.08C476.743 586.28 476.463 586.48 476.463 586.72C476.463 587 476.863 587.16 477.503 587.16C478.183 587.16 479.583 587 480.903 587ZM480.823 562.72C480.263 562.72 479.663 562.88 479.263 563.24C478.943 563.68 478.783 564.32 478.783 564.68C478.783 565.36 479.063 565.8 479.383 566.16C479.743 566.48 480.383 566.64 480.663 566.64C481.463 566.64 482.583 565.76 482.583 564.68C482.583 563.96 481.903 562.72 480.823 562.72ZM492.06 571.4C491.9 571.4 491.74 571.2 491.74 571.08V569.2C491.74 569.12 491.38 568.76 491.18 568.76C491.02 568.76 490.74 569.08 490.26 569.64C489.7 570.32 488.46 571.28 487.06 572.4C486.94 572.52 486.82 572.68 486.82 572.84C486.82 572.96 487.06 573.16 487.38 573.28C488.18 573.52 488.9 573.8 488.9 574.08C488.9 575.48 488.74 581.48 488.74 582.96C488.74 584.08 488.82 584.92 489.26 585.6C489.74 586.48 491.14 587.48 492.78 587.48C494.58 587.48 495.98 586.76 497.06 585.72C497.34 585.44 497.62 585.04 497.62 584.72C497.62 584.36 497.42 584.28 497.38 584.28C497.22 584.28 497.14 584.32 496.78 584.52C496.18 584.88 495.34 585.12 494.82 585.12C493.98 585.12 493.14 585.04 492.38 584.36C491.94 583.92 491.7 583.4 491.7 582.4C491.7 580.48 491.74 574.6 491.78 573.8C491.78 573.72 491.94 573.52 492.14 573.52H496.5C496.78 573.52 497.54 573.44 497.54 573.08C497.54 572.56 497.42 571.44 497.42 571.56C497.42 571.44 497.02 571.24 496.98 571.24C496.82 571.24 492.94 571.4 492.06 571.4ZM514.559 570.68C512.999 570.68 511.599 571.12 510.479 571.96C508.919 573.12 508.039 574.56 508.039 576.52C508.039 579.44 509.959 580.96 511.079 581.6C511.199 581.72 511.319 581.88 511.239 581.96C510.599 582.6 508.879 583.56 508.279 584.04C508.199 584.12 508.079 584.32 508.079 584.4C508.079 585.68 508.639 586.8 509.439 587.36C509.959 587.76 510.719 588 510.999 588.16C511.119 588.24 511.199 588.36 511.119 588.44C510.599 588.88 509.359 589.76 508.359 590.6C507.999 590.88 507.199 591.36 507.199 593.12C507.199 594.24 507.919 595.72 509.039 596.6C510.719 597.84 512.599 598.08 514.039 598.08C515.479 598.08 517.599 597.8 519.799 596.36C521.519 595.24 523.559 593.2 523.559 590.2C523.559 589.16 522.999 587.64 521.879 586.68C521.159 586.12 520.279 585.76 519.959 585.72C518.679 585.52 514.359 585.48 512.599 585.4C512.159 585.36 510.959 584.64 510.959 583.6C510.959 583.28 511.839 582.44 512.239 582.24C512.399 582.16 512.599 582.16 512.839 582.2C513.119 582.2 513.999 582.24 514.239 582.24C515.199 582.24 516.839 582.08 518.599 580.72C520.159 579.52 520.839 577.88 520.839 575.68C520.839 575 520.719 574.28 520.519 573.68C520.479 573.56 520.599 573.36 520.759 573.36C521.759 573.44 523.199 573.44 523.439 573.44C523.599 573.44 524.159 572.72 524.159 572.16C524.159 572 524.039 571.76 523.799 571.72C522.959 571.52 520.039 571.48 519.159 571.4L518.039 571.16C516.879 570.88 516.159 570.68 514.559 570.68ZM515.519 596.4C514.039 596.4 512.679 596 511.599 595.16C510.759 594.44 510.199 593.4 510.199 592.12C510.199 591.2 510.719 589.72 511.999 588.84C512.239 588.68 512.879 588.44 514.159 588.44C515.839 588.44 517.119 588.44 518.199 588.64C519.159 588.84 519.919 589.36 520.319 589.88C520.799 590.52 520.879 591.44 520.879 591.96C520.879 593.12 520.279 594.64 518.679 595.68C518.239 595.92 517.079 596.4 515.519 596.4ZM514.239 571.64C515.399 571.64 516.359 572.28 517.119 573.4C517.759 574.36 517.999 575.68 517.999 576.4C517.999 578.04 517.479 580 516.479 580.64C515.919 581 515.439 581.2 515.159 581.2C512.559 581.2 511.199 578.2 511.199 576.2C511.199 574.32 511.639 573.28 512.239 572.64C512.599 572.16 513.519 571.64 514.239 571.64ZM532.179 570.84C531.419 570.84 529.619 571.52 528.459 572.36C526.579 573.6 525.459 574.72 525.459 575.88C525.459 576.08 525.699 576.4 525.939 576.4C526.139 576.4 528.139 575.4 528.539 575.08C528.619 575 528.779 574.76 528.779 574.64C528.699 573.84 528.819 573.12 529.059 573C529.339 572.8 529.859 572.56 530.699 572.56C532.659 572.56 533.819 574.24 533.819 575.24C533.819 575.72 533.779 578.16 533.739 578.52C533.739 578.76 533.499 578.96 532.579 579.24C531.699 579.52 528.499 580.4 527.899 580.64C527.299 580.92 526.699 581.12 526.299 581.64C525.859 582.2 525.539 582.96 525.539 583.68C525.539 585.68 526.899 587.4 528.299 587.4C528.499 587.4 529.459 587.32 529.899 587.16C530.299 587.04 532.019 586.36 533.499 585.32C533.579 585.28 533.739 585.44 533.739 585.48C534.219 586.96 535.379 587.48 536.299 587.48C538.099 587.48 539.899 585.76 539.899 585C539.899 584.96 539.899 584.72 539.779 584.6C539.699 584.48 539.659 584.4 539.539 584.48C539.099 584.8 538.179 585.08 538.019 585.08C537.699 585.08 536.419 584.92 536.419 583.08C536.419 582.64 536.579 577.6 536.579 576.04C536.579 574.36 536.379 573.56 535.779 572.72C535.179 571.84 534.179 570.84 532.179 570.84ZM530.979 585.32C530.139 585.32 528.459 584.68 528.459 582.92C528.459 581.96 528.859 581.68 529.259 581.4C530.339 580.88 532.259 580.2 533.379 580.2C533.539 580.2 533.699 580.4 533.699 580.52C533.699 581.32 533.699 582.68 533.619 583.64C533.619 583.72 533.379 584.48 533.139 584.64C532.379 585.04 531.579 585.32 530.979 585.32ZM545.966 571.4C545.806 571.4 545.646 571.2 545.646 571.08V569.2C545.646 569.12 545.286 568.76 545.086 568.76C544.926 568.76 544.646 569.08 544.166 569.64C543.606 570.32 542.366 571.28 540.966 572.4C540.846 572.52 540.726 572.68 540.726 572.84C540.726 572.96 540.966 573.16 541.286 573.28C542.086 573.52 542.806 573.8 542.806 574.08C542.806 575.48 542.646 581.48 542.646 582.96C542.646 584.08 542.726 584.92 543.166 585.6C543.646 586.48 545.046 587.48 546.686 587.48C548.486 587.48 549.886 586.76 550.966 585.72C551.246 585.44 551.526 585.04 551.526 584.72C551.526 584.36 551.326 584.28 551.286 584.28C551.126 584.28 551.046 584.32 550.686 584.52C550.086 584.88 549.246 585.12 548.726 585.12C547.886 585.12 547.046 585.04 546.286 584.36C545.846 583.92 545.606 583.4 545.606 582.4C545.606 580.48 545.646 574.6 545.686 573.8C545.686 573.72 545.846 573.52 546.046 573.52H550.406C550.686 573.52 551.446 573.44 551.446 573.08C551.446 572.56 551.326 571.44 551.326 571.56C551.326 571.44 550.926 571.24 550.886 571.24C550.726 571.24 546.846 571.4 545.966 571.4ZM561.262 570.88C560.582 570.88 559.262 571.12 558.222 571.6C555.102 573.04 553.422 576.24 553.422 579.44C553.422 584.12 556.302 587.4 560.622 587.4C562.902 587.4 565.022 586.44 566.422 584.4C566.542 584.2 566.702 583.76 566.702 583.44C566.702 583.24 566.622 582.96 566.382 582.96C566.222 582.96 566.022 583.2 565.862 583.44C565.182 584.44 563.982 584.88 562.222 584.88C560.302 584.88 558.622 583.88 557.742 582.68C556.862 581.52 556.222 579.68 556.222 578.12C556.222 577.72 556.302 577.04 556.422 576.72C556.462 576.6 556.622 576.4 556.742 576.4C558.582 576.44 565.422 576.44 565.862 576.44C566.302 576.44 566.622 576 566.622 575.76C566.622 574.36 566.102 573.24 565.222 572.4C564.222 571.4 562.662 570.88 561.262 570.88ZM560.862 571.92C562.302 571.92 563.502 573.2 563.502 574.32C563.502 575.12 563.102 575.32 562.142 575.32C560.142 575.36 558.022 575.36 556.982 575.32C556.902 575.32 556.742 575.08 556.822 574.88C557.542 573.04 559.062 571.92 560.862 571.92ZM581.254 587C582.094 587 584.094 587.12 584.374 587.12C584.814 587.12 585.294 586.96 585.294 586.72C585.294 586.44 585.054 586.24 584.414 586.04C583.414 585.72 582.534 585.64 582.494 584.36C582.454 582.96 582.414 581.28 582.414 579.04C582.414 576.76 582.654 571.56 582.654 571.12C582.654 571.08 582.454 570.68 582.294 570.68C581.694 570.84 579.814 571.72 578.334 572.04C577.894 572.12 577.534 572.44 577.534 572.72C577.534 572.88 577.614 573 577.854 573.16C579.014 574 579.454 574.32 579.494 574.6C579.574 575.08 579.534 579.64 579.534 580.84C579.534 582 579.494 584.4 579.374 584.96C579.294 585.36 578.694 585.84 577.774 586.08C577.094 586.28 576.814 586.48 576.814 586.72C576.814 587 577.214 587.16 577.854 587.16C578.534 587.16 579.934 587 581.254 587ZM581.174 562.72C580.614 562.72 580.014 562.88 579.614 563.24C579.294 563.68 579.134 564.32 579.134 564.68C579.134 565.36 579.414 565.8 579.734 566.16C580.094 566.48 580.734 566.64 581.014 566.64C581.814 566.64 582.934 565.76 582.934 564.68C582.934 563.96 582.254 562.72 581.174 562.72ZM593.252 570.84C591.892 570.84 590.812 571.2 590.052 571.68C588.532 572.6 587.852 573.92 587.852 575.28C587.852 577.16 589.132 578.56 590.332 579.32C591.572 580.12 591.812 580.32 592.772 581C594.012 581.76 594.572 582.6 594.572 583.68C594.572 584.44 594.252 585.4 593.652 585.88C593.212 586.2 592.572 586.48 592.052 586.48C590.612 586.48 589.532 585.68 588.412 583.64C588.172 583.2 587.892 582.72 587.572 582.72C587.332 582.72 587.252 583.12 587.252 583.56C587.252 584.72 587.732 586.4 587.852 586.6C588.532 587.16 590.532 587.48 591.732 587.48C592.972 587.48 594.372 587.04 595.092 586.56C596.092 585.84 597.412 584.48 597.412 582.64C597.412 580.84 596.532 579.48 594.292 578.16C591.612 576.68 590.332 575.64 590.332 574.28C590.332 573.44 591.092 571.8 592.732 571.8C594.052 571.8 595.052 572.6 595.932 574.48C596.132 574.92 596.372 575.16 596.532 575.16C596.852 575.16 597.012 574.8 597.012 574.44C597.012 574.16 596.892 572.8 596.892 572.08C596.892 571.84 596.652 571.56 596.572 571.52C596.492 571.48 595.732 571.16 595.292 571.08C594.852 570.96 594.012 570.84 593.252 570.84ZM614.992 570.84C614.232 570.84 612.432 571.52 611.272 572.36C609.392 573.6 608.272 574.72 608.272 575.88C608.272 576.08 608.512 576.4 608.752 576.4C608.952 576.4 610.952 575.4 611.352 575.08C611.432 575 611.592 574.76 611.592 574.64C611.512 573.84 611.632 573.12 611.872 573C612.152 572.8 612.672 572.56 613.512 572.56C615.472 572.56 616.632 574.24 616.632 575.24C616.632 575.72 616.592 578.16 616.552 578.52C616.552 578.76 616.312 578.96 615.392 579.24C614.512 579.52 611.312 580.4 610.712 580.64C610.112 580.92 609.512 581.12 609.112 581.64C608.672 582.2 608.352 582.96 608.352 583.68C608.352 585.68 609.712 587.4 611.112 587.4C611.312 587.4 612.272 587.32 612.712 587.16C613.112 587.04 614.832 586.36 616.312 585.32C616.392 585.28 616.552 585.44 616.552 585.48C617.032 586.96 618.192 587.48 619.112 587.48C620.912 587.48 622.712 585.76 622.712 585C622.712 584.96 622.712 584.72 622.592 584.6C622.512 584.48 622.472 584.4 622.352 584.48C621.912 584.8 620.992 585.08 620.832 585.08C620.512 585.08 619.232 584.92 619.232 583.08C619.232 582.64 619.392 577.6 619.392 576.04C619.392 574.36 619.192 573.56 618.592 572.72C617.992 571.84 616.992 570.84 614.992 570.84ZM613.792 585.32C612.952 585.32 611.272 584.68 611.272 582.92C611.272 581.96 611.672 581.68 612.072 581.4C613.152 580.88 615.072 580.2 616.192 580.2C616.352 580.2 616.512 580.4 616.512 580.52C616.512 581.32 616.512 582.68 616.432 583.64C616.432 583.72 616.192 584.48 615.952 584.64C615.192 585.04 614.392 585.32 613.792 585.32ZM624.69 572.76C624.69 572.88 624.93 573.08 625.45 573.44C626.33 574.16 626.41 574.56 626.41 575C626.41 579.08 626.33 582.56 626.21 583.76C626.09 585.2 625.85 585.6 624.53 586C624.09 586.12 623.69 586.32 623.69 586.6C623.69 586.96 624.13 587.12 624.73 587.12C625.41 587.12 626.57 587 628.05 587C628.89 587 630.01 587.04 630.49 587.04C631.05 587.04 631.49 586.84 631.49 586.56C631.49 586.32 631.17 586.08 630.77 585.96C629.49 585.6 629.33 585.28 629.29 584.72C629.25 584.24 629.25 575.64 629.25 575.12C629.25 574.76 629.53 574.28 629.65 574.16C630.41 573.48 631.45 572.88 633.21 572.88C634.13 572.88 635.33 573.32 635.77 573.64C636.25 574 636.97 575.16 636.97 576.6C636.97 577.76 636.93 582.6 636.85 583.92C636.77 585.24 636.57 585.56 635.61 585.92C635.13 586.08 634.69 586.32 634.69 586.6C634.69 586.92 635.25 587.08 635.61 587.08C636.13 587.08 637.37 587 638.37 587C639.49 587 640.41 587.08 641.33 587.08C641.97 587.08 642.53 586.92 642.53 586.64C642.53 586.36 642.29 586.16 641.53 585.96C640.53 585.68 640.13 585.16 640.05 584.56C640.01 584 639.93 578.04 639.93 577.28C639.93 575.28 639.41 573.44 638.53 572.4C637.97 571.76 636.85 570.88 634.89 570.88C633.21 570.88 631.13 572 629.53 573.08C629.49 573.08 629.29 573.16 629.29 572.96C629.29 572.6 629.45 571.64 629.45 570.96C629.45 570.8 629.25 570.36 629.05 570.36C628.85 570.36 628.49 570.56 628.09 570.8C627.53 571.2 626.09 571.72 625.41 571.96C625.13 572.08 624.69 572.48 624.69 572.76ZM642.566 571.72C642.566 571.96 642.806 572.12 643.366 572.32C644.686 572.76 644.886 573.16 645.246 573.88C646.486 576.4 648.966 582.36 649.806 584.72L650.406 586.36C650.566 586.72 650.406 587.24 650.286 587.8C650.006 588.8 648.726 592.32 648.366 592.96C648.206 593.36 648.126 593.64 647.766 593.64C647.366 593.64 646.526 593.6 646.326 593.6C645.206 593.6 644.566 594.68 644.566 595.36C644.566 596.2 645.006 597.32 646.366 597.32C647.526 597.32 648.286 596.72 648.446 596.2C649.726 592.8 651.206 588.68 652.606 585.04C653.526 582.72 655.686 577.36 657.006 574.36C657.606 573.04 658.126 572.56 658.966 572.28C659.446 572.12 659.846 571.96 659.846 571.6C659.846 571.32 659.566 571.24 659.046 571.24C658.006 571.24 657.086 571.4 656.526 571.4C656.006 571.4 654.926 571.36 654.166 571.36C653.686 571.36 653.166 571.44 653.166 571.8C653.166 571.96 653.526 572.24 654.006 572.36C655.566 572.72 655.886 573.2 655.526 574.32C655.326 574.96 652.846 581.44 652.366 582.52C652.246 582.76 652.086 582.76 652.046 582.68C651.726 582.2 649.166 575.92 648.566 574C648.166 572.96 648.286 572.76 649.406 572.44C650.046 572.28 650.326 572.04 650.326 571.76C650.326 571.44 649.766 571.32 649.446 571.32C648.966 571.32 647.766 571.4 646.646 571.4C645.486 571.4 644.526 571.24 643.526 571.24C642.686 571.24 642.566 571.56 642.566 571.72ZM677.137 585.48C676.177 585.48 675.457 585.48 674.417 584.68C673.857 584.28 673.417 583.36 673.417 582.44C673.417 580.64 673.577 573.08 673.537 571.72C673.537 571.48 673.377 571.12 673.217 571.12C673.057 571.12 670.097 571.56 668.977 571.56C668.497 571.56 668.297 571.8 668.297 571.92C668.297 572.28 668.657 572.48 669.017 572.64C669.697 572.92 670.457 573.08 670.497 574.2C670.577 576.32 670.577 580.84 670.577 583.72C670.577 584.36 670.857 585.16 671.137 585.6C671.937 586.84 673.217 587.48 674.657 587.48C675.777 587.48 676.657 587.28 677.337 587C677.857 586.8 679.457 585.76 680.617 584.96C680.697 584.92 680.817 585.04 680.817 585.24C680.777 585.92 680.657 586.68 680.657 586.92C680.657 587.2 680.897 587.48 681.057 587.48C681.137 587.48 681.777 587.32 682.457 587.12C683.377 586.88 685.057 586.44 686.097 586.36C686.257 586.36 686.537 586.08 686.537 585.96C686.497 585.84 686.217 585.2 686.057 585.2C685.577 585.2 684.337 585.4 684.057 585.4C683.737 585.4 683.577 584.92 683.577 584.84C683.577 581.56 683.897 572.68 683.977 571.56C683.977 571.4 683.897 570.96 683.697 570.96C683.417 570.96 683.137 571 682.737 571.12C681.817 571.36 680.057 571.56 678.457 571.56C678.057 571.56 677.537 571.76 677.537 571.92C677.537 572.24 678.057 572.48 678.337 572.56L680.177 573.04C680.417 573.12 680.857 573.68 680.857 573.92L680.777 583.12C680.777 583.28 680.417 583.88 680.177 584.08C679.177 584.96 678.097 585.48 677.137 585.48ZM688.675 572.76C688.675 572.88 688.915 573.08 689.435 573.44C690.315 574.16 690.395 574.56 690.395 575C690.395 579.08 690.315 582.56 690.195 583.76C690.075 585.2 689.835 585.6 688.515 586C688.075 586.12 687.675 586.32 687.675 586.6C687.675 586.96 688.115 587.12 688.715 587.12C689.395 587.12 690.555 587 692.035 587C692.875 587 693.995 587.04 694.475 587.04C695.035 587.04 695.475 586.84 695.475 586.56C695.475 586.32 695.155 586.08 694.755 585.96C693.475 585.6 693.315 585.28 693.275 584.72C693.235 584.24 693.235 575.64 693.235 575.12C693.235 574.76 693.515 574.28 693.635 574.16C694.395 573.48 695.435 572.88 697.195 572.88C698.115 572.88 699.315 573.32 699.755 573.64C700.235 574 700.955 575.16 700.955 576.6C700.955 577.76 700.915 582.6 700.835 583.92C700.755 585.24 700.555 585.56 699.595 585.92C699.115 586.08 698.675 586.32 698.675 586.6C698.675 586.92 699.235 587.08 699.595 587.08C700.115 587.08 701.355 587 702.355 587C703.475 587 704.395 587.08 705.315 587.08C705.955 587.08 706.515 586.92 706.515 586.64C706.515 586.36 706.275 586.16 705.515 585.96C704.515 585.68 704.115 585.16 704.035 584.56C703.995 584 703.915 578.04 703.915 577.28C703.915 575.28 703.395 573.44 702.515 572.4C701.955 571.76 700.835 570.88 698.875 570.88C697.195 570.88 695.115 572 693.515 573.08C693.475 573.08 693.275 573.16 693.275 572.96C693.275 572.6 693.435 571.64 693.435 570.96C693.435 570.8 693.235 570.36 693.035 570.36C692.835 570.36 692.475 570.56 692.075 570.8C691.515 571.2 690.075 571.72 689.395 571.96C689.115 572.08 688.675 572.48 688.675 572.76ZM713.168 587C714.008 587 716.008 587.12 716.288 587.12C716.728 587.12 717.208 586.96 717.208 586.72C717.208 586.44 716.968 586.24 716.328 586.04C715.328 585.72 714.448 585.64 714.408 584.36C714.368 582.96 714.328 581.28 714.328 579.04C714.328 576.76 714.568 571.56 714.568 571.12C714.568 571.08 714.368 570.68 714.208 570.68C713.608 570.84 711.728 571.72 710.248 572.04C709.808 572.12 709.448 572.44 709.448 572.72C709.448 572.88 709.528 573 709.768 573.16C710.928 574 711.368 574.32 711.408 574.6C711.488 575.08 711.448 579.64 711.448 580.84C711.448 582 711.408 584.4 711.288 584.96C711.208 585.36 710.608 585.84 709.688 586.08C709.008 586.28 708.728 586.48 708.728 586.72C708.728 587 709.128 587.16 709.768 587.16C710.448 587.16 711.848 587 713.168 587ZM713.088 562.72C712.528 562.72 711.928 562.88 711.528 563.24C711.208 563.68 711.048 564.32 711.048 564.68C711.048 565.36 711.328 565.8 711.648 566.16C712.008 566.48 712.648 566.64 712.928 566.64C713.728 566.64 714.848 565.76 714.848 564.68C714.848 563.96 714.168 562.72 713.088 562.72ZM724.326 571.4C724.166 571.4 724.006 571.2 724.006 571.08V569.2C724.006 569.12 723.646 568.76 723.446 568.76C723.286 568.76 723.006 569.08 722.526 569.64C721.966 570.32 720.726 571.28 719.326 572.4C719.206 572.52 719.086 572.68 719.086 572.84C719.086 572.96 719.326 573.16 719.646 573.28C720.446 573.52 721.166 573.8 721.166 574.08C721.166 575.48 721.006 581.48 721.006 582.96C721.006 584.08 721.086 584.92 721.526 585.6C722.006 586.48 723.406 587.48 725.046 587.48C726.846 587.48 728.246 586.76 729.326 585.72C729.606 585.44 729.886 585.04 729.886 584.72C729.886 584.36 729.686 584.28 729.646 584.28C729.486 584.28 729.406 584.32 729.046 584.52C728.446 584.88 727.606 585.12 727.086 585.12C726.246 585.12 725.406 585.04 724.646 584.36C724.206 583.92 723.966 583.4 723.966 582.4C723.966 580.48 724.006 574.6 724.046 573.8C724.046 573.72 724.206 573.52 724.406 573.52H728.766C729.046 573.52 729.806 573.44 729.806 573.08C729.806 572.56 729.686 571.44 729.686 571.56C729.686 571.44 729.286 571.24 729.246 571.24C729.086 571.24 725.206 571.4 724.326 571.4ZM738.586 570.84C737.826 570.84 736.026 571.52 734.866 572.36C732.986 573.6 731.866 574.72 731.866 575.88C731.866 576.08 732.106 576.4 732.346 576.4C732.546 576.4 734.546 575.4 734.946 575.08C735.026 575 735.186 574.76 735.186 574.64C735.106 573.84 735.226 573.12 735.466 573C735.746 572.8 736.266 572.56 737.106 572.56C739.066 572.56 740.226 574.24 740.226 575.24C740.226 575.72 740.186 578.16 740.146 578.52C740.146 578.76 739.906 578.96 738.986 579.24C738.106 579.52 734.906 580.4 734.306 580.64C733.706 580.92 733.106 581.12 732.706 581.64C732.266 582.2 731.946 582.96 731.946 583.68C731.946 585.68 733.306 587.4 734.706 587.4C734.906 587.4 735.866 587.32 736.306 587.16C736.706 587.04 738.426 586.36 739.906 585.32C739.986 585.28 740.146 585.44 740.146 585.48C740.626 586.96 741.786 587.48 742.706 587.48C744.506 587.48 746.306 585.76 746.306 585C746.306 584.96 746.306 584.72 746.186 584.6C746.106 584.48 746.066 584.4 745.946 584.48C745.506 584.8 744.586 585.08 744.426 585.08C744.106 585.08 742.826 584.92 742.826 583.08C742.826 582.64 742.986 577.6 742.986 576.04C742.986 574.36 742.786 573.56 742.186 572.72C741.586 571.84 740.586 570.84 738.586 570.84ZM737.386 585.32C736.546 585.32 734.866 584.68 734.866 582.92C734.866 581.96 735.266 581.68 735.666 581.4C736.746 580.88 738.666 580.2 739.786 580.2C739.946 580.2 740.106 580.4 740.106 580.52C740.106 581.32 740.106 582.68 740.026 583.64C740.026 583.72 739.786 584.48 739.546 584.64C738.786 585.04 737.986 585.32 737.386 585.32ZM748.204 572.92C748.204 573.08 748.604 573.24 749.564 574C750.004 574.28 750.004 574.8 750.004 575.2V582.84C749.964 585.24 749.844 585.64 748.284 586.16C747.964 586.28 747.484 586.44 747.484 586.68C747.484 587 747.884 587.16 748.324 587.16C749.284 587.16 749.764 587 750.964 587C753.284 587 754.684 587.2 755.684 587.2C756.284 587.2 756.644 587.04 756.644 586.84C756.644 586.68 756.564 586.4 755.924 586.2L754.084 585.72C753.364 585.6 753.124 584.84 753.044 583.68C753.004 583.08 752.804 575.84 752.804 575.04C752.804 574.84 752.924 574.48 753.204 574.16C753.604 573.72 754.284 573.6 754.964 573.6C755.764 573.6 756.724 574.08 757.164 574.48C757.284 574.56 757.644 574.64 757.724 574.6C757.964 574.48 758.924 573.4 759.364 572.76C759.484 572.56 759.604 572.28 759.604 572.2C759.604 571.84 759.244 570.84 757.604 570.84C756.364 570.84 754.604 571.84 753.044 573.32C752.964 573.36 752.764 573.32 752.764 573.16C752.764 572.4 752.844 571.68 752.844 570.96C752.844 570.84 752.644 570.48 752.484 570.48C752.364 570.48 752.164 570.64 751.684 570.96C751.284 571.2 750.044 571.8 748.724 572.24C748.284 572.4 748.204 572.8 748.204 572.92ZM760.964 571.72C760.964 571.96 761.204 572.12 761.764 572.32C763.084 572.76 763.284 573.16 763.644 573.88C764.884 576.4 767.364 582.36 768.204 584.72L768.804 586.36C768.964 586.72 768.804 587.24 768.684 587.8C768.404 588.8 767.124 592.32 766.764 592.96C766.604 593.36 766.524 593.64 766.164 593.64C765.764 593.64 764.924 593.6 764.724 593.6C763.604 593.6 762.964 594.68 762.964 595.36C762.964 596.2 763.404 597.32 764.764 597.32C765.924 597.32 766.684 596.72 766.844 596.2C768.124 592.8 769.604 588.68 771.004 585.04C771.924 582.72 774.084 577.36 775.404 574.36C776.004 573.04 776.524 572.56 777.364 572.28C777.844 572.12 778.244 571.96 778.244 571.6C778.244 571.32 777.964 571.24 777.444 571.24C776.404 571.24 775.484 571.4 774.924 571.4C774.404 571.4 773.324 571.36 772.564 571.36C772.084 571.36 771.564 571.44 771.564 571.8C771.564 571.96 771.924 572.24 772.404 572.36C773.964 572.72 774.284 573.2 773.924 574.32C773.724 574.96 771.244 581.44 770.764 582.52C770.644 582.76 770.484 582.76 770.444 582.68C770.124 582.2 767.564 575.92 766.964 574C766.564 572.96 766.684 572.76 767.804 572.44C768.444 572.28 768.724 572.04 768.724 571.76C768.724 571.44 768.164 571.32 767.844 571.32C767.364 571.32 766.164 571.4 765.044 571.4C763.884 571.4 762.924 571.24 761.924 571.24C761.084 571.24 760.964 571.56 760.964 571.72ZM787.335 560.6C787.335 560.76 787.455 560.88 788.135 561.36C789.055 561.92 789.055 562.16 789.095 562.48C789.215 563.56 789.215 567.88 789.215 570.84C789.215 577.16 789.095 581.36 788.975 583C788.815 585 788.735 585.72 786.895 586.12C786.455 586.2 786.015 586.4 786.015 586.68C786.015 587 786.335 587.12 787.135 587.12C787.975 587.12 789.735 587 790.655 587C791.375 587 793.095 587.12 794.055 587.12C794.535 587.12 795.095 586.96 795.095 586.68C795.095 586.44 794.775 586.24 794.175 586.08C792.455 585.6 792.295 585.12 792.135 584.32C791.935 583.24 792.015 575.6 792.015 569.76C792.015 564.4 792.255 559.88 792.375 558.88C792.375 558.72 792.135 558.4 792.015 558.48C790.935 559.16 789.735 559.4 787.895 560.04C787.455 560.16 787.335 560.44 787.335 560.6ZM801.215 587C802.055 587 804.055 587.12 804.335 587.12C804.775 587.12 805.255 586.96 805.255 586.72C805.255 586.44 805.015 586.24 804.375 586.04C803.375 585.72 802.495 585.64 802.455 584.36C802.415 582.96 802.375 581.28 802.375 579.04C802.375 576.76 802.615 571.56 802.615 571.12C802.615 571.08 802.415 570.68 802.255 570.68C801.655 570.84 799.775 571.72 798.295 572.04C797.855 572.12 797.495 572.44 797.495 572.72C797.495 572.88 797.575 573 797.815 573.16C798.975 574 799.415 574.32 799.455 574.6C799.535 575.08 799.495 579.64 799.495 580.84C799.495 582 799.455 584.4 799.335 584.96C799.255 585.36 798.655 585.84 797.735 586.08C797.055 586.28 796.775 586.48 796.775 586.72C796.775 587 797.175 587.16 797.815 587.16C798.495 587.16 799.895 587 801.215 587ZM801.135 562.72C800.575 562.72 799.975 562.88 799.575 563.24C799.255 563.68 799.095 564.32 799.095 564.68C799.095 565.36 799.375 565.8 799.695 566.16C800.055 566.48 800.695 566.64 800.975 566.64C801.775 566.64 802.895 565.76 802.895 564.68C802.895 563.96 802.215 562.72 801.135 562.72ZM807.698 572.76C807.698 572.88 807.938 573.08 808.458 573.44C809.338 574.16 809.418 574.56 809.418 575C809.418 579.08 809.338 582.56 809.218 583.76C809.098 585.2 808.858 585.6 807.538 586C807.098 586.12 806.698 586.32 806.698 586.6C806.698 586.96 807.138 587.12 807.738 587.12C808.418 587.12 809.578 587 811.058 587C811.898 587 813.018 587.04 813.498 587.04C814.058 587.04 814.498 586.84 814.498 586.56C814.498 586.32 814.178 586.08 813.778 585.96C812.498 585.6 812.338 585.28 812.298 584.72C812.258 584.24 812.258 575.64 812.258 575.12C812.258 574.76 812.538 574.28 812.658 574.16C813.418 573.48 814.458 572.88 816.218 572.88C817.138 572.88 818.338 573.32 818.778 573.64C819.258 574 819.978 575.16 819.978 576.6C819.978 577.76 819.938 582.6 819.858 583.92C819.778 585.24 819.578 585.56 818.618 585.92C818.138 586.08 817.698 586.32 817.698 586.6C817.698 586.92 818.258 587.08 818.618 587.08C819.138 587.08 820.378 587 821.378 587C822.498 587 823.418 587.08 824.338 587.08C824.978 587.08 825.538 586.92 825.538 586.64C825.538 586.36 825.298 586.16 824.538 585.96C823.538 585.68 823.138 585.16 823.058 584.56C823.018 584 822.938 578.04 822.938 577.28C822.938 575.28 822.418 573.44 821.538 572.4C820.978 571.76 819.858 570.88 817.898 570.88C816.218 570.88 814.138 572 812.538 573.08C812.498 573.08 812.298 573.16 812.298 572.96C812.298 572.6 812.458 571.64 812.458 570.96C812.458 570.8 812.258 570.36 812.058 570.36C811.858 570.36 811.498 570.56 811.098 570.8C810.538 571.2 809.098 571.72 808.418 571.96C808.138 572.08 807.698 572.48 807.698 572.76ZM835.598 570.88C834.918 570.88 833.598 571.12 832.558 571.6C829.438 573.04 827.757 576.24 827.757 579.44C827.757 584.12 830.638 587.4 834.958 587.4C837.238 587.4 839.358 586.44 840.758 584.4C840.878 584.2 841.038 583.76 841.038 583.44C841.038 583.24 840.958 582.96 840.718 582.96C840.558 582.96 840.358 583.2 840.198 583.44C839.518 584.44 838.318 584.88 836.558 584.88C834.638 584.88 832.958 583.88 832.078 582.68C831.198 581.52 830.558 579.68 830.558 578.12C830.558 577.72 830.638 577.04 830.758 576.72C830.798 576.6 830.958 576.4 831.078 576.4C832.918 576.44 839.758 576.44 840.198 576.44C840.638 576.44 840.958 576 840.958 575.76C840.958 574.36 840.438 573.24 839.558 572.4C838.558 571.4 836.997 570.88 835.598 570.88ZM835.198 571.92C836.638 571.92 837.838 573.2 837.838 574.32C837.838 575.12 837.438 575.32 836.478 575.32C834.478 575.36 832.358 575.36 831.318 575.32C831.238 575.32 831.078 575.08 831.158 574.88C831.878 573.04 833.398 571.92 835.198 571.92ZM850.422 570.84C849.662 570.84 847.862 571.52 846.702 572.36C844.822 573.6 843.702 574.72 843.702 575.88C843.702 576.08 843.942 576.4 844.182 576.4C844.382 576.4 846.382 575.4 846.782 575.08C846.862 575 847.022 574.76 847.022 574.64C846.942 573.84 847.062 573.12 847.302 573C847.582 572.8 848.102 572.56 848.942 572.56C850.902 572.56 852.062 574.24 852.062 575.24C852.062 575.72 852.022 578.16 851.982 578.52C851.982 578.76 851.742 578.96 850.822 579.24C849.942 579.52 846.742 580.4 846.142 580.64C845.542 580.92 844.942 581.12 844.542 581.64C844.102 582.2 843.782 582.96 843.782 583.68C843.782 585.68 845.142 587.4 846.542 587.4C846.742 587.4 847.702 587.32 848.142 587.16C848.542 587.04 850.262 586.36 851.742 585.32C851.822 585.28 851.982 585.44 851.982 585.48C852.462 586.96 853.622 587.48 854.542 587.48C856.342 587.48 858.142 585.76 858.142 585C858.142 584.96 858.142 584.72 858.022 584.6C857.942 584.48 857.902 584.4 857.782 584.48C857.342 584.8 856.422 585.08 856.262 585.08C855.942 585.08 854.662 584.92 854.662 583.08C854.662 582.64 854.822 577.6 854.822 576.04C854.822 574.36 854.622 573.56 854.022 572.72C853.422 571.84 852.422 570.84 850.422 570.84ZM849.222 585.32C848.382 585.32 846.702 584.68 846.702 582.92C846.702 581.96 847.102 581.68 847.502 581.4C848.582 580.88 850.502 580.2 851.622 580.2C851.782 580.2 851.942 580.4 851.942 580.52C851.942 581.32 851.942 582.68 851.862 583.64C851.862 583.72 851.622 584.48 851.382 584.64C850.622 585.04 849.822 585.32 849.222 585.32ZM860.04 572.92C860.04 573.08 860.44 573.24 861.4 574C861.84 574.28 861.84 574.8 861.84 575.2V582.84C861.8 585.24 861.68 585.64 860.12 586.16C859.8 586.28 859.32 586.44 859.32 586.68C859.32 587 859.72 587.16 860.16 587.16C861.12 587.16 861.6 587 862.8 587C865.12 587 866.52 587.2 867.52 587.2C868.12 587.2 868.48 587.04 868.48 586.84C868.48 586.68 868.4 586.4 867.76 586.2L865.92 585.72C865.2 585.6 864.96 584.84 864.88 583.68C864.84 583.08 864.64 575.84 864.64 575.04C864.64 574.84 864.76 574.48 865.04 574.16C865.44 573.72 866.12 573.6 866.8 573.6C867.6 573.6 868.56 574.08 869 574.48C869.12 574.56 869.48 574.64 869.56 574.6C869.8 574.48 870.76 573.4 871.2 572.76C871.32 572.56 871.44 572.28 871.44 572.2C871.44 571.84 871.08 570.84 869.44 570.84C868.2 570.84 866.44 571.84 864.88 573.32C864.8 573.36 864.6 573.32 864.6 573.16C864.6 572.4 864.68 571.68 864.68 570.96C864.68 570.84 864.48 570.48 864.32 570.48C864.2 570.48 864 570.64 863.52 570.96C863.12 571.2 861.88 571.8 860.56 572.24C860.12 572.4 860.04 572.8 860.04 572.92ZM881.643 573C881.643 573.2 881.923 573.4 883.043 574.44C883.403 574.8 883.323 575.32 883.323 575.52C883.323 578.28 883.283 582.28 883.203 583.44C883.043 585.16 882.803 585.76 881.523 586.08C880.803 586.24 880.563 586.52 880.563 586.68C880.563 586.96 880.963 587.12 881.563 587.12C882.443 587.12 883.243 587 884.562 587C886.083 587 887.563 587.08 887.723 587.08C888.243 587.08 888.803 586.96 888.803 586.68C888.803 586.36 888.483 586.2 887.723 585.96C886.443 585.56 886.283 584.92 886.283 584.16C886.283 581.12 886.283 576.08 886.363 575.04C886.403 574.6 886.523 574.28 886.803 574.04C887.763 573.28 888.683 572.8 890.003 572.8C891.443 572.8 892.483 573.32 893.003 574C893.283 574.36 893.523 574.88 893.523 576.04V583.88C893.523 585.32 893.363 585.72 892.003 586.04C891.363 586.2 891.203 586.48 891.203 586.6C891.203 586.76 891.322 587.08 892.243 587.08C893.083 587.08 894.243 587 895.083 587C896.003 587 897.203 587.08 898.083 587.08C898.723 587.08 899.043 586.88 899.043 586.6C899.043 586.4 898.643 586.16 898.203 586.04C896.843 585.72 896.643 585.32 896.523 584.04C896.443 583.16 896.523 575.6 896.523 575.32C896.523 575.04 896.803 574.28 896.923 574.16C897.483 573.68 898.203 572.92 900.003 572.92C901.683 572.92 902.563 573.56 903.043 574.32C903.443 575.04 903.683 575.6 903.683 577C903.683 578.32 903.763 582.8 903.763 583.76C903.763 585.16 903.603 585.64 902.323 586.04C901.883 586.16 901.443 586.32 901.443 586.56C901.443 586.84 901.683 587.08 902.443 587.08C903.363 587.08 903.963 587 905.163 587C906.163 587 907.243 587.12 908.043 587.12C908.803 587.12 909.163 586.96 909.163 586.68C909.163 586.44 908.923 586.28 908.403 586.12C906.963 585.72 906.723 584.96 906.683 584.24C906.683 580.96 906.763 578.16 906.603 576.08C906.523 574.64 906.163 573.24 905.283 572.24C904.443 571.36 903.323 570.88 901.843 570.88C901.123 570.88 900.203 571.08 899.283 571.52C898.243 572.04 897.203 572.68 896.443 573.24C896.283 573.32 896.203 573.24 896.123 573.08C895.963 572.8 895.563 572.2 894.843 571.68C894.123 571.16 893.163 570.88 891.723 570.88C889.842 570.88 887.363 572.4 886.363 573.2C886.203 573.36 886.123 573.08 886.123 572.96C886.123 572.56 886.283 571.44 886.283 570.88C886.283 570.8 886.003 570.52 885.803 570.48C885.723 570.48 885.643 570.52 885.483 570.64C885.043 570.92 883.243 571.96 882.443 572.28C882.003 572.52 881.643 572.76 881.643 573ZM917.883 570.84C917.123 570.84 915.323 571.52 914.163 572.36C912.283 573.6 911.163 574.72 911.163 575.88C911.163 576.08 911.403 576.4 911.643 576.4C911.843 576.4 913.843 575.4 914.243 575.08C914.323 575 914.483 574.76 914.483 574.64C914.403 573.84 914.523 573.12 914.763 573C915.043 572.8 915.563 572.56 916.403 572.56C918.363 572.56 919.523 574.24 919.523 575.24C919.523 575.72 919.483 578.16 919.443 578.52C919.443 578.76 919.203 578.96 918.283 579.24C917.403 579.52 914.203 580.4 913.603 580.64C913.003 580.92 912.403 581.12 912.003 581.64C911.563 582.2 911.243 582.96 911.243 583.68C911.243 585.68 912.603 587.4 914.003 587.4C914.203 587.4 915.163 587.32 915.603 587.16C916.003 587.04 917.723 586.36 919.203 585.32C919.283 585.28 919.443 585.44 919.443 585.48C919.923 586.96 921.083 587.48 922.003 587.48C923.803 587.48 925.603 585.76 925.603 585C925.603 584.96 925.603 584.72 925.483 584.6C925.403 584.48 925.363 584.4 925.243 584.48C924.803 584.8 923.883 585.08 923.723 585.08C923.403 585.08 922.123 584.92 922.123 583.08C922.123 582.64 922.283 577.6 922.283 576.04C922.283 574.36 922.083 573.56 921.483 572.72C920.883 571.84 919.883 570.84 917.883 570.84ZM916.683 585.32C915.843 585.32 914.163 584.68 914.163 582.92C914.163 581.96 914.562 581.68 914.963 581.4C916.043 580.88 917.963 580.2 919.083 580.2C919.243 580.2 919.403 580.4 919.403 580.52C919.403 581.32 919.403 582.68 919.323 583.64C919.323 583.72 919.083 584.48 918.843 584.64C918.083 585.04 917.283 585.32 916.683 585.32ZM937.349 570.92C936.229 570.92 935.029 571.12 934.389 571.4C933.829 571.64 932.749 572.2 931.789 572.84C931.629 572.96 931.469 572.8 931.469 572.64C931.509 572 931.509 571.24 931.589 570.6C931.589 570.44 931.269 570.12 931.149 570.12C931.069 570.12 930.749 570.28 930.349 570.48C929.669 570.88 927.909 571.72 927.309 571.88C927.149 571.92 926.749 572.4 926.749 572.6C926.749 572.8 927.229 573.16 928.229 573.88C928.349 573.96 928.549 574.24 928.549 575.92C928.589 578.28 928.549 581.28 928.549 584C928.549 588.08 928.509 591.36 928.429 592.68C928.269 595.56 928.069 595.92 925.949 596.36C925.309 596.48 925.029 596.8 925.029 596.96C925.029 597.32 925.629 597.48 926.229 597.48C927.429 597.48 927.829 597.36 928.789 597.36C930.349 597.36 932.669 597.56 933.549 597.56C934.069 597.56 934.589 597.36 934.589 597.04C934.589 596.76 934.269 596.56 933.469 596.32C931.949 595.84 931.669 595.36 931.549 594.32C931.429 593.2 931.389 591.56 931.389 587.68C931.389 587.48 931.549 587.16 931.669 587.16C932.189 587.24 932.989 587.32 933.909 587.32C935.709 587.32 938.069 587 940.269 585.28C942.829 583.36 943.669 580.4 943.669 578.4C943.669 576.2 942.749 574.24 941.789 573.16C940.589 571.84 938.789 570.92 937.349 570.92ZM935.269 572.96C936.189 572.96 937.829 573.52 938.869 574.6C940.509 576.4 940.509 578.56 940.509 579.48C940.509 580.68 939.789 583.68 937.789 585.36C937.229 585.84 936.389 586.04 935.949 586.04C934.949 586.04 933.029 585.36 931.949 583.84C931.669 583.48 931.509 582.8 931.429 582.08C931.269 580.44 931.309 576.08 931.509 574.88C931.629 574.16 931.829 573.84 932.029 573.68C932.469 573.32 933.589 572.96 935.269 572.96Z" fill="black"/>
<g id="\mathbb C^{2^k}&#10; \to \mathbb C^{2^k}" clip-path="url(#clip1)">
<g id="page1">
<path id="Vector" d="M985.076 569.404C985.076 568.807 985.076 568.245 984.479 568.245C984.444 568.245 983.917 568.245 983.847 568.877C983.742 569.86 982.934 569.86 982.688 569.86C981.459 569.86 980.229 569.334 979.527 569.017C977.735 568.245 976.225 568.245 975.663 568.245C969.797 568.245 963.299 571.933 963.299 580.925C963.299 589.881 969.657 593.64 975.733 593.64C977.595 593.64 980.089 593.253 982.653 591.708C984.269 590.689 986.06 588.933 986.06 588.441C986.06 587.949 985.533 587.739 985.322 587.739C985.076 587.739 984.936 587.844 984.585 588.23C982.547 590.549 979.421 591.954 976.295 591.954C970.851 591.954 969.481 586.439 969.481 580.995C969.481 574.075 972.01 569.474 975.768 569.474C978.403 569.474 982.618 572.038 983.812 575.761C983.917 576.077 984.023 576.429 984.479 576.429C985.076 576.429 985.076 575.867 985.076 575.27V569.404ZM983.847 573.022C983.426 572.425 982.969 571.968 982.091 571.055C982.266 571.09 982.547 571.09 982.723 571.09C983.109 571.09 983.566 571.02 983.847 570.844V573.022ZM971.378 570.282C970.57 571.09 968.252 574.111 968.252 580.995C968.252 584.472 968.779 589.319 971.94 591.848C966.18 589.987 964.529 585.245 964.529 580.96C964.529 574.497 968.076 571.371 971.378 570.247V570.282Z" fill="black"/>
<path id="Vector_2" d="M993.97 573.693C994.345 573.341 995.329 572.569 995.703 572.241C997.155 570.906 998.537 569.618 998.537 567.487C998.537 564.701 996.195 562.898 993.268 562.898C990.458 562.898 988.608 565.029 988.608 567.113C988.608 568.26 989.521 568.424 989.849 568.424C990.341 568.424 991.067 568.073 991.067 567.183C991.067 565.965 989.896 565.965 989.615 565.965C990.294 564.256 991.863 563.671 993.01 563.671C995.188 563.671 996.312 565.52 996.312 567.487C996.312 569.923 994.603 571.702 991.84 574.536L988.889 577.58C988.608 577.837 988.608 577.884 988.608 578.47H997.858L998.537 574.278H997.811C997.74 574.746 997.553 575.917 997.272 576.362C997.132 576.549 995.352 576.549 994.977 576.549H990.809L993.97 573.693Z" fill="black"/>
<path id="Vector_3" d="M1005.64 558.544C1005.66 558.474 1005.69 558.369 1005.69 558.281C1005.69 558 1005.34 558.018 1005.13 558.035L1003.16 558.193C1002.86 558.211 1002.63 558.228 1002.63 558.65C1002.63 558.913 1002.86 558.913 1003.14 558.913C1003.65 558.913 1003.78 558.966 1004 559.036C1004 559.247 1004 559.282 1003.93 559.563L1001.48 569.38C1001.41 569.661 1001.41 569.749 1001.41 569.784C1001.41 570.223 1001.76 570.381 1002.02 570.381C1002.2 570.381 1002.51 570.311 1002.74 569.977C1002.86 569.749 1003.57 566.834 1003.69 566.272C1004.87 566.36 1006.13 566.641 1006.13 567.677C1006.13 567.765 1006.13 567.852 1006.08 568.046C1006.02 568.309 1006.02 568.414 1006.02 568.555C1006.02 569.714 1007.01 570.381 1008.01 570.381C1009.71 570.381 1010.33 567.817 1010.33 567.677C1010.33 567.642 1010.31 567.431 1009.99 567.431C1009.75 567.431 1009.71 567.536 1009.62 567.835C1009.45 568.467 1008.96 569.802 1008.06 569.802C1007.39 569.802 1007.39 569.047 1007.39 568.853C1007.39 568.572 1007.39 568.555 1007.48 568.204C1007.48 568.186 1007.57 567.835 1007.57 567.624C1007.57 566.272 1006.04 565.85 1004.69 565.727C1005.11 565.464 1005.48 565.183 1006.18 564.568C1007.06 563.796 1007.97 563.04 1008.94 563.04C1009.17 563.04 1009.38 563.093 1009.54 563.269C1008.92 563.392 1008.66 563.883 1008.66 564.252C1008.66 564.814 1009.12 564.937 1009.36 564.937C1009.75 564.937 1010.38 564.656 1010.38 563.778C1010.38 563.023 1009.82 562.461 1008.96 562.461C1007.85 562.461 1006.81 563.304 1006.01 564.006C1005.09 564.797 1004.55 565.253 1003.9 565.499L1005.64 558.544Z" fill="black"/>
<path id="Vector_4" d="M1053.76 584.894C1051.83 586.369 1050.88 587.809 1050.6 588.266C1049.02 590.689 1048.73 592.902 1048.73 592.937C1048.73 593.359 1049.16 593.359 1049.44 593.359C1050.03 593.359 1050.07 593.288 1050.21 592.656C1051.02 589.214 1053.09 586.264 1057.06 584.648C1057.48 584.507 1057.59 584.437 1057.59 584.191C1057.59 583.945 1057.37 583.84 1057.3 583.805C1055.76 583.208 1051.51 581.452 1050.17 575.551C1050.07 575.129 1050.03 575.024 1049.44 575.024C1049.16 575.024 1048.73 575.024 1048.73 575.445C1048.73 575.516 1049.05 577.728 1050.53 580.082C1051.23 581.135 1052.25 582.365 1053.76 583.489H1027.66C1027.03 583.489 1026.4 583.489 1026.4 584.191C1026.4 584.894 1027.03 584.894 1027.66 584.894H1053.76Z" fill="black"/>
<path id="Vector_5" d="M1092.42 569.404C1092.42 568.807 1092.42 568.245 1091.82 568.245C1091.79 568.245 1091.26 568.245 1091.19 568.877C1091.09 569.86 1090.28 569.86 1090.03 569.86C1088.8 569.86 1087.57 569.334 1086.87 569.017C1085.08 568.245 1083.57 568.245 1083.01 568.245C1077.14 568.245 1070.64 571.933 1070.64 580.925C1070.64 589.881 1077 593.64 1083.08 593.64C1084.94 593.64 1087.43 593.253 1090 591.708C1091.61 590.689 1093.4 588.933 1093.4 588.441C1093.4 587.949 1092.88 587.739 1092.67 587.739C1092.42 587.739 1092.28 587.844 1091.93 588.23C1089.89 590.549 1086.77 591.954 1083.64 591.954C1078.2 591.954 1076.83 586.439 1076.83 580.995C1076.83 574.075 1079.35 569.474 1083.11 569.474C1085.75 569.474 1089.96 572.038 1091.16 575.761C1091.26 576.077 1091.37 576.429 1091.82 576.429C1092.42 576.429 1092.42 575.867 1092.42 575.27V569.404ZM1091.19 573.022C1090.77 572.425 1090.31 571.968 1089.44 571.055C1089.61 571.09 1089.89 571.09 1090.07 571.09C1090.45 571.09 1090.91 571.02 1091.19 570.844V573.022ZM1078.72 570.282C1077.91 571.09 1075.6 574.111 1075.6 580.995C1075.6 584.472 1076.12 589.319 1079.28 591.848C1073.52 589.987 1071.87 585.245 1071.87 580.96C1071.87 574.497 1075.42 571.371 1078.72 570.247V570.282Z" fill="black"/>
<path id="Vector_6" d="M1101.31 573.693C1101.69 573.341 1102.67 572.569 1103.05 572.241C1104.5 570.906 1105.88 569.618 1105.88 567.487C1105.88 564.701 1103.54 562.898 1100.61 562.898C1097.8 562.898 1095.95 565.029 1095.95 567.113C1095.95 568.26 1096.87 568.424 1097.19 568.424C1097.69 568.424 1098.41 568.073 1098.41 567.183C1098.41 565.965 1097.24 565.965 1096.96 565.965C1097.64 564.256 1099.21 563.671 1100.35 563.671C1102.53 563.671 1103.66 565.52 1103.66 567.487C1103.66 569.923 1101.95 571.702 1099.18 574.536L1096.23 577.58C1095.95 577.837 1095.95 577.884 1095.95 578.47H1105.2L1105.88 574.278H1105.16C1105.08 574.746 1104.9 575.917 1104.62 576.362C1104.48 576.549 1102.7 576.549 1102.32 576.549H1098.15L1101.31 573.693Z" fill="black"/>
<path id="Vector_7" d="M1112.98 558.544C1113 558.474 1113.04 558.369 1113.04 558.281C1113.04 558 1112.68 558.018 1112.47 558.035L1110.51 558.193C1110.21 558.211 1109.98 558.228 1109.98 558.65C1109.98 558.913 1110.21 558.913 1110.49 558.913C1111 558.913 1111.12 558.966 1111.35 559.036C1111.35 559.247 1111.35 559.282 1111.28 559.563L1108.82 569.38C1108.75 569.661 1108.75 569.749 1108.75 569.784C1108.75 570.223 1109.1 570.381 1109.36 570.381C1109.54 570.381 1109.86 570.311 1110.08 569.977C1110.21 569.749 1110.91 566.834 1111.03 566.272C1112.21 566.36 1113.47 566.641 1113.47 567.677C1113.47 567.765 1113.47 567.852 1113.42 568.046C1113.37 568.309 1113.37 568.414 1113.37 568.555C1113.37 569.714 1114.35 570.381 1115.35 570.381C1117.06 570.381 1117.67 567.817 1117.67 567.677C1117.67 567.642 1117.65 567.431 1117.34 567.431C1117.09 567.431 1117.06 567.536 1116.97 567.835C1116.79 568.467 1116.3 569.802 1115.41 569.802C1114.74 569.802 1114.74 569.047 1114.74 568.853C1114.74 568.572 1114.74 568.555 1114.83 568.204C1114.83 568.186 1114.91 567.835 1114.91 567.624C1114.91 566.272 1113.39 565.85 1112.03 565.727C1112.46 565.464 1112.82 565.183 1113.53 564.568C1114.41 563.796 1115.32 563.04 1116.28 563.04C1116.51 563.04 1116.72 563.093 1116.88 563.269C1116.27 563.392 1116 563.883 1116 564.252C1116 564.814 1116.46 564.937 1116.71 564.937C1117.09 564.937 1117.72 564.656 1117.72 563.778C1117.72 563.023 1117.16 562.461 1116.3 562.461C1115.2 562.461 1114.16 563.304 1113.35 564.006C1112.44 564.797 1111.89 565.253 1111.24 565.499L1112.98 558.544Z" fill="black"/>
</g>
</g>
</g>
</g>
</g>
<rect id="61:52" opacity="0.5" x="152" y="623" width="186" height="139" fill="#FF0000"/>
<rect id="61:125" opacity="0.5" x="354" y="623" width="183" height="137" fill="#FF0000"/>
<rect id="61:292" opacity="0.5" x="355" y="785" width="182" height="136" fill="#FF0000"/>
<rect id="61:534" opacity="0.5" x="152" y="783" width="186" height="138" fill="#FF0000"/>
<rect id="63:202" opacity="0.5" x="697" y="671" width="465" height="349" fill="#FF0000"/>
<path id="71:415" d="M702.48 641.32C702.44 640.64 702.48 635.36 702.6 634.04C702.72 632.36 702.84 631.76 704.72 631.4C705.56 631.24 705.88 631.04 705.88 630.64C705.88 630.4 705.44 630.2 704.6 630.2C703.68 630.2 702.48 630.28 700.8 630.28C699.76 630.28 698.28 630.2 697.16 630.2C696.52 630.2 696 630.36 696 630.64C696 630.96 696.28 631.24 697.12 631.4C698.8 631.76 699.04 632.32 699.12 633.68C699.2 635.44 699.12 639.12 699.12 639.84C699.12 646.36 698.88 650.88 698.76 652.52C698.6 654.08 698.28 654.48 696.24 655C695.8 655.12 695.32 655.36 695.32 655.76C695.32 656 695.64 656.16 696.52 656.16C697.88 656.16 699.56 656 700.48 656C701.92 656 704.36 656.16 704.64 656.16C705.16 656.16 705.84 656.08 705.8 655.76C705.76 655.36 705.48 655.2 704.6 654.96C702.92 654.44 702.48 653.72 702.44 651.84C702.44 650.68 702.36 645.56 702.44 644.52C702.44 644.2 702.76 643.84 702.88 643.84C703.68 643.76 711.56 643.88 717.76 643.88C718.08 643.88 718.24 644 718.24 644.72C718.24 646.72 718.16 649.48 718.08 651.16C717.96 654 717.76 654.44 715.6 655.08C715.16 655.2 714.72 655.44 714.72 655.8C714.72 656.16 715.12 656.24 715.72 656.24C716.52 656.24 719.52 656 720.4 656C721.64 656 723.08 656.12 723.72 656.12C724.48 656.12 724.84 656 724.84 655.68C724.84 655.4 724.48 655.12 723.92 654.92C722.12 654.4 721.72 654.24 721.64 652.68C721.64 652.08 721.48 648.52 721.48 646.76C721.48 639.96 721.6 635.64 721.8 633.6C721.88 632.44 722.2 631.72 723.88 631.32C724.72 631.12 725.04 630.84 725.04 630.6C725.04 630.28 724.56 630.16 723.92 630.16C723.48 630.16 721.64 630.28 720.28 630.28C719.28 630.28 716.72 630.2 716.2 630.2C715.36 630.2 714.96 630.36 714.96 630.64C714.96 631 715.4 631.24 715.96 631.4C717.76 631.88 718.04 632.2 718.16 633.68C718.28 635.24 718.28 640.44 718.24 640.96C718.16 641.76 718.04 642 717.8 642C710.72 642 705.28 642.12 702.92 642.12C702.64 642.12 702.52 642.08 702.48 641.32ZM735.562 639.84C732.883 639.84 730.883 640.96 729.643 642.04C728.123 643.32 726.843 645.24 726.843 648.28C726.843 650.28 728.083 653 729.803 654.4C731.283 655.64 733.283 656.48 735.123 656.48C736.923 656.48 738.483 656.04 740.083 654.88C741.563 653.92 743.563 651.32 743.563 648C743.563 642.96 739.523 639.84 735.562 639.84ZM734.803 641.04C735.842 641.04 737.283 641.64 738.163 642.6C739.683 644.36 740.163 646.64 740.163 648.72C740.163 650.44 739.363 652.92 738.363 654C737.243 655.12 736.363 655.32 735.923 655.32C734.003 655.32 731.723 653.88 730.723 650.88C730.403 649.88 730.243 648.64 730.243 647.32C730.243 645.24 731.163 643.16 732.203 642.2C733.043 641.48 733.963 641.04 734.803 641.04ZM748.187 640.4C747.307 640.4 746.147 640.24 745.467 640.24C744.707 640.24 744.307 640.36 744.307 640.72C744.307 640.96 744.747 641.2 745.307 641.32C746.427 641.6 746.907 642.52 747.547 644C748.387 645.96 750.707 651.76 750.987 652.56L752.187 656C752.347 656.48 752.547 656.6 752.907 656.6C753.267 656.6 753.747 655.4 753.907 654.96C755.107 651.96 756.587 648.88 757.547 646.88C757.587 646.76 757.787 646.76 757.827 646.84L760.307 652.96C760.707 653.92 761.187 655.48 761.347 655.92C761.587 656.24 761.907 656.52 762.107 656.52C762.307 656.52 762.507 656.44 762.627 656.04C763.027 654.72 763.627 653.4 764.307 651.72C765.507 648.76 766.827 645.48 768.147 643.12C768.787 642.04 768.947 641.6 770.267 641.2C770.747 641.08 771.187 640.96 771.187 640.6C771.187 640.36 770.827 640.2 770.347 640.2C769.707 640.2 768.707 640.4 767.387 640.4C766.787 640.4 765.347 640.28 764.907 640.28C764.507 640.28 763.987 640.44 763.987 640.68C763.987 641.04 764.547 641.2 764.907 641.32C766.387 641.68 766.467 642.16 766.467 642.56C766.467 642.92 766.227 643.8 765.787 644.96C764.987 647 763.787 650.2 763.107 651.64C762.987 651.88 762.827 651.96 762.747 651.68C761.907 649.72 759.907 644.28 759.667 643.68C759.387 642.92 759.187 642.52 759.187 642.24C759.187 642.08 759.307 641.6 760.347 641.36C761.027 641.24 761.307 641 761.307 640.72C761.307 640.48 760.947 640.28 760.347 640.28C759.467 640.28 758.267 640.4 757.547 640.4C756.627 640.4 755.427 640.28 754.867 640.28C754.187 640.28 753.907 640.4 753.907 640.68C753.907 641 754.267 641.16 754.787 641.32C755.707 641.56 756.027 642.2 756.467 643C756.787 643.6 757.067 644.64 757.107 644.92C757.107 645.08 757.107 645.28 756.907 645.72C756.107 647.52 754.547 650.92 754.107 651.8C754.027 652 753.867 652.04 753.747 651.8C753.467 651.32 750.787 644.48 750.307 642.92C749.947 642 750.147 641.52 751.027 641.36C751.707 641.2 752.027 640.96 752.027 640.72C752.027 640.52 751.707 640.28 750.987 640.28C750.307 640.28 749.187 640.4 748.187 640.4ZM789.488 639.84C788.408 639.84 786.048 640.24 784.208 641.36C782.248 642.52 779.968 644.8 779.968 648.72C779.968 650.72 780.608 652.76 781.888 654.2C783.128 655.52 784.968 656.4 786.888 656.4C788.208 656.4 790.248 656.04 792.088 654.4C792.168 654.4 792.328 654.48 792.328 654.64C792.328 655.2 792.248 655.92 792.248 656.28C792.248 656.48 792.528 656.8 792.688 656.8C792.888 656.8 793.208 656.72 794.128 656.4C794.888 656.12 796.968 655.72 797.728 655.6C797.928 655.56 798.408 654.88 798.408 654.6C798.408 654.56 798.328 654.36 798.168 654.36C797.768 654.4 796.448 654.68 796.008 654.68C795.768 654.68 795.448 654.52 795.368 653.04C795.368 652.28 795.288 651.64 795.288 643.92C795.288 631.68 795.448 630.24 795.648 628.12C795.688 627.76 795.448 627.48 795.328 627.48C795.168 627.48 795.048 627.52 794.808 627.6C793.768 628 791.648 628.6 790.728 628.72C790.488 628.76 790.048 629.24 790.048 629.4C790.048 629.48 790.088 629.56 790.447 629.76C792.288 630.72 792.288 631.2 792.328 631.4C792.448 632.36 792.568 638.48 792.368 639.56C792.328 639.76 792.208 640.04 792.048 640C791.568 639.92 790.928 639.84 789.488 639.84ZM788.008 641.16C788.808 641.16 790.328 641.6 791.448 642.72C791.928 643.2 792.288 643.92 792.328 644.24C792.448 646.12 792.488 648.32 792.448 650.88C792.408 652.16 791.888 653.44 791.808 653.52C791.088 654.04 790.168 654.48 788.888 654.48C785.448 654.48 783.208 650.8 783.208 647.6C783.208 645.36 784.128 643.32 784.888 642.56C785.608 641.84 786.728 641.16 788.008 641.16ZM808.648 639.84C805.968 639.84 803.968 640.96 802.728 642.04C801.208 643.32 799.928 645.24 799.928 648.28C799.928 650.28 801.168 653 802.888 654.4C804.368 655.64 806.368 656.48 808.208 656.48C810.008 656.48 811.568 656.04 813.168 654.88C814.648 653.92 816.648 651.32 816.648 648C816.648 642.96 812.608 639.84 808.648 639.84ZM807.888 641.04C808.928 641.04 810.368 641.64 811.248 642.6C812.768 644.36 813.248 646.64 813.248 648.72C813.248 650.44 812.448 652.92 811.448 654C810.328 655.12 809.448 655.32 809.008 655.32C807.088 655.32 804.808 653.88 803.808 650.88C803.488 649.88 803.328 648.64 803.328 647.32C803.328 645.24 804.248 643.16 805.288 642.2C806.128 641.48 807.048 641.04 807.888 641.04ZM829.554 640.4C828.674 640.4 827.514 640.24 826.834 640.24C826.074 640.24 825.674 640.36 825.674 640.72C825.674 640.96 826.114 641.2 826.674 641.32C827.794 641.6 828.274 642.52 828.914 644C829.754 645.96 832.074 651.76 832.354 652.56L833.554 656C833.714 656.48 833.914 656.6 834.274 656.6C834.634 656.6 835.114 655.4 835.274 654.96C836.474 651.96 837.954 648.88 838.914 646.88C838.954 646.76 839.154 646.76 839.194 646.84L841.674 652.96C842.074 653.92 842.554 655.48 842.714 655.92C842.954 656.24 843.274 656.52 843.474 656.52C843.674 656.52 843.874 656.44 843.994 656.04C844.394 654.72 844.994 653.4 845.674 651.72C846.874 648.76 848.194 645.48 849.514 643.12C850.154 642.04 850.314 641.6 851.634 641.2C852.114 641.08 852.554 640.96 852.554 640.6C852.554 640.36 852.194 640.2 851.714 640.2C851.074 640.2 850.074 640.4 848.754 640.4C848.154 640.4 846.714 640.28 846.274 640.28C845.874 640.28 845.354 640.44 845.354 640.68C845.354 641.04 845.914 641.2 846.274 641.32C847.754 641.68 847.834 642.16 847.834 642.56C847.834 642.92 847.594 643.8 847.154 644.96C846.354 647 845.154 650.2 844.474 651.64C844.354 651.88 844.194 651.96 844.114 651.68C843.274 649.72 841.274 644.28 841.034 643.68C840.754 642.92 840.554 642.52 840.554 642.24C840.554 642.08 840.674 641.6 841.714 641.36C842.394 641.24 842.674 641 842.674 640.72C842.674 640.48 842.314 640.28 841.714 640.28C840.834 640.28 839.634 640.4 838.914 640.4C837.994 640.4 836.794 640.28 836.234 640.28C835.554 640.28 835.274 640.4 835.274 640.68C835.274 641 835.634 641.16 836.154 641.32C837.074 641.56 837.394 642.2 837.834 643C838.154 643.6 838.434 644.64 838.474 644.92C838.474 645.08 838.474 645.28 838.274 645.72C837.474 647.52 835.914 650.92 835.474 651.8C835.394 652 835.234 652.04 835.114 651.8C834.834 651.32 832.154 644.48 831.674 642.92C831.314 642 831.514 641.52 832.394 641.36C833.074 641.2 833.394 640.96 833.394 640.72C833.394 640.52 833.074 640.28 832.354 640.28C831.674 640.28 830.554 640.4 829.554 640.4ZM861.012 639.88C860.332 639.88 859.012 640.12 857.972 640.6C854.852 642.04 853.172 645.24 853.172 648.44C853.172 653.12 856.052 656.4 860.372 656.4C862.652 656.4 864.772 655.44 866.172 653.4C866.292 653.2 866.452 652.76 866.452 652.44C866.452 652.24 866.372 651.96 866.132 651.96C865.972 651.96 865.772 652.2 865.612 652.44C864.932 653.44 863.732 653.88 861.972 653.88C860.052 653.88 858.372 652.88 857.492 651.68C856.612 650.52 855.972 648.68 855.972 647.12C855.972 646.72 856.052 646.04 856.172 645.72C856.212 645.6 856.372 645.4 856.492 645.4C858.332 645.44 865.172 645.44 865.612 645.44C866.052 645.44 866.372 645 866.372 644.76C866.372 643.36 865.852 642.24 864.972 641.4C863.972 640.4 862.412 639.88 861.012 639.88ZM860.612 640.92C862.052 640.92 863.252 642.2 863.252 643.32C863.252 644.12 862.852 644.32 861.892 644.32C859.892 644.36 857.772 644.36 856.732 644.32C856.652 644.32 856.492 644.08 856.572 643.88C857.292 642.04 858.812 640.92 860.612 640.92ZM887.724 639.92C886.604 639.92 885.404 640.12 884.764 640.4C884.204 640.64 883.124 641.2 882.164 641.84C882.004 641.96 881.844 641.8 881.844 641.64C881.884 641 881.884 640.24 881.964 639.6C881.964 639.44 881.644 639.12 881.524 639.12C881.444 639.12 881.124 639.28 880.724 639.48C880.044 639.88 878.284 640.72 877.684 640.88C877.524 640.92 877.124 641.4 877.124 641.6C877.124 641.8 877.604 642.16 878.604 642.88C878.724 642.96 878.924 643.24 878.924 644.92C878.964 647.28 878.924 650.28 878.924 653C878.924 657.08 878.884 660.36 878.804 661.68C878.644 664.56 878.444 664.92 876.324 665.36C875.684 665.48 875.404 665.8 875.404 665.96C875.404 666.32 876.004 666.48 876.604 666.48C877.804 666.48 878.204 666.36 879.164 666.36C880.724 666.36 883.044 666.56 883.924 666.56C884.444 666.56 884.964 666.36 884.964 666.04C884.964 665.76 884.644 665.56 883.844 665.32C882.324 664.84 882.044 664.36 881.924 663.32C881.804 662.2 881.764 660.56 881.764 656.68C881.764 656.48 881.924 656.16 882.044 656.16C882.564 656.24 883.364 656.32 884.284 656.32C886.084 656.32 888.444 656 890.644 654.28C893.204 652.36 894.044 649.4 894.044 647.4C894.044 645.2 893.124 643.24 892.164 642.16C890.964 640.84 889.164 639.92 887.724 639.92ZM885.644 641.96C886.564 641.96 888.204 642.52 889.244 643.6C890.884 645.4 890.884 647.56 890.884 648.48C890.884 649.68 890.164 652.68 888.164 654.36C887.604 654.84 886.764 655.04 886.324 655.04C885.324 655.04 883.404 654.36 882.324 652.84C882.044 652.48 881.884 651.8 881.804 651.08C881.644 649.44 881.684 645.08 881.884 643.88C882.004 643.16 882.204 642.84 882.404 642.68C882.844 642.32 883.964 641.96 885.644 641.96ZM905.168 654.48C904.208 654.48 903.488 654.48 902.448 653.68C901.888 653.28 901.448 652.36 901.448 651.44C901.448 649.64 901.608 642.08 901.568 640.72C901.568 640.48 901.408 640.12 901.248 640.12C901.088 640.12 898.128 640.56 897.008 640.56C896.528 640.56 896.328 640.8 896.328 640.92C896.328 641.28 896.688 641.48 897.048 641.64C897.728 641.92 898.488 642.08 898.528 643.2C898.608 645.32 898.608 649.84 898.608 652.72C898.608 653.36 898.888 654.16 899.168 654.6C899.968 655.84 901.248 656.48 902.688 656.48C903.808 656.48 904.688 656.28 905.368 656C905.888 655.8 907.488 654.76 908.648 653.96C908.728 653.92 908.848 654.04 908.848 654.24C908.808 654.92 908.688 655.68 908.688 655.92C908.688 656.2 908.928 656.48 909.088 656.48C909.168 656.48 909.808 656.32 910.488 656.12C911.408 655.88 913.088 655.44 914.128 655.36C914.288 655.36 914.568 655.08 914.568 654.96C914.528 654.84 914.248 654.2 914.088 654.2C913.608 654.2 912.368 654.4 912.088 654.4C911.768 654.4 911.608 653.92 911.608 653.84C911.608 650.56 911.928 641.68 912.008 640.56C912.008 640.4 911.928 639.96 911.728 639.96C911.448 639.96 911.168 640 910.768 640.12C909.848 640.36 908.088 640.56 906.488 640.56C906.088 640.56 905.568 640.76 905.568 640.92C905.568 641.24 906.088 641.48 906.368 641.56L908.208 642.04C908.448 642.12 908.888 642.68 908.888 642.92L908.808 652.12C908.808 652.28 908.448 652.88 908.208 653.08C907.208 653.96 906.128 654.48 905.168 654.48ZM921.302 640.4C921.142 640.4 920.982 640.2 920.982 640.08V638.2C920.982 638.12 920.622 637.76 920.422 637.76C920.262 637.76 919.982 638.08 919.502 638.64C918.942 639.32 917.702 640.28 916.302 641.4C916.182 641.52 916.062 641.68 916.062 641.84C916.062 641.96 916.302 642.16 916.622 642.28C917.422 642.52 918.142 642.8 918.142 643.08C918.142 644.48 917.982 650.48 917.982 651.96C917.982 653.08 918.062 653.92 918.502 654.6C918.982 655.48 920.382 656.48 922.022 656.48C923.822 656.48 925.222 655.76 926.302 654.72C926.582 654.44 926.862 654.04 926.862 653.72C926.862 653.36 926.662 653.28 926.622 653.28C926.462 653.28 926.382 653.32 926.022 653.52C925.422 653.88 924.582 654.12 924.062 654.12C923.222 654.12 922.382 654.04 921.622 653.36C921.182 652.92 920.942 652.4 920.942 651.4C920.942 649.48 920.982 643.6 921.022 642.8C921.022 642.72 921.182 642.52 921.382 642.52H925.742C926.022 642.52 926.782 642.44 926.782 642.08C926.782 641.56 926.662 640.44 926.662 640.56C926.662 640.44 926.262 640.24 926.222 640.24C926.062 640.24 922.182 640.4 921.302 640.4ZM943.802 639.68C942.242 639.68 940.842 640.12 939.722 640.96C938.162 642.12 937.282 643.56 937.282 645.52C937.282 648.44 939.202 649.96 940.322 650.6C940.442 650.72 940.562 650.88 940.482 650.96C939.842 651.6 938.122 652.56 937.522 653.04C937.442 653.12 937.322 653.32 937.322 653.4C937.322 654.68 937.882 655.8 938.682 656.36C939.202 656.76 939.962 657 940.242 657.16C940.362 657.24 940.442 657.36 940.362 657.44C939.842 657.88 938.602 658.76 937.602 659.6C937.242 659.88 936.442 660.36 936.442 662.12C936.442 663.24 937.162 664.72 938.282 665.6C939.962 666.84 941.842 667.08 943.282 667.08C944.722 667.08 946.842 666.8 949.042 665.36C950.762 664.24 952.802 662.2 952.802 659.2C952.802 658.16 952.242 656.64 951.122 655.68C950.402 655.12 949.522 654.76 949.202 654.72C947.922 654.52 943.602 654.48 941.842 654.4C941.402 654.36 940.202 653.64 940.202 652.6C940.202 652.28 941.082 651.44 941.482 651.24C941.642 651.16 941.842 651.16 942.082 651.2C942.362 651.2 943.242 651.24 943.482 651.24C944.442 651.24 946.082 651.08 947.842 649.72C949.402 648.52 950.082 646.88 950.082 644.68C950.082 644 949.962 643.28 949.762 642.68C949.722 642.56 949.842 642.36 950.002 642.36C951.002 642.44 952.442 642.44 952.682 642.44C952.842 642.44 953.402 641.72 953.402 641.16C953.402 641 953.282 640.76 953.042 640.72C952.202 640.52 949.282 640.48 948.402 640.4L947.282 640.16C946.122 639.88 945.402 639.68 943.802 639.68ZM944.762 665.4C943.282 665.4 941.922 665 940.842 664.16C940.002 663.44 939.442 662.4 939.442 661.12C939.442 660.2 939.962 658.72 941.242 657.84C941.482 657.68 942.122 657.44 943.402 657.44C945.082 657.44 946.362 657.44 947.442 657.64C948.402 657.84 949.162 658.36 949.562 658.88C950.042 659.52 950.122 660.44 950.122 660.96C950.122 662.12 949.522 663.64 947.922 664.68C947.482 664.92 946.322 665.4 944.762 665.4ZM943.482 640.64C944.642 640.64 945.602 641.28 946.362 642.4C947.002 643.36 947.242 644.68 947.242 645.4C947.242 647.04 946.722 649 945.722 649.64C945.162 650 944.682 650.2 944.402 650.2C941.802 650.2 940.442 647.2 940.442 645.2C940.442 643.32 940.882 642.28 941.482 641.64C941.842 641.16 942.762 640.64 943.482 640.64ZM961.422 639.84C960.662 639.84 958.862 640.52 957.702 641.36C955.822 642.6 954.702 643.72 954.702 644.88C954.702 645.08 954.942 645.4 955.182 645.4C955.382 645.4 957.382 644.4 957.782 644.08C957.862 644 958.022 643.76 958.022 643.64C957.942 642.84 958.062 642.12 958.302 642C958.582 641.8 959.102 641.56 959.942 641.56C961.902 641.56 963.062 643.24 963.062 644.24C963.062 644.72 963.022 647.16 962.982 647.52C962.982 647.76 962.742 647.96 961.822 648.24C960.942 648.52 957.742 649.4 957.142 649.64C956.542 649.92 955.942 650.12 955.542 650.64C955.102 651.2 954.782 651.96 954.782 652.68C954.782 654.68 956.142 656.4 957.542 656.4C957.742 656.4 958.702 656.32 959.142 656.16C959.542 656.04 961.262 655.36 962.742 654.32C962.822 654.28 962.982 654.44 962.982 654.48C963.462 655.96 964.622 656.48 965.542 656.48C967.342 656.48 969.142 654.76 969.142 654C969.142 653.96 969.142 653.72 969.022 653.6C968.942 653.48 968.902 653.4 968.782 653.48C968.342 653.8 967.422 654.08 967.262 654.08C966.942 654.08 965.662 653.92 965.662 652.08C965.662 651.64 965.822 646.6 965.822 645.04C965.822 643.36 965.622 642.56 965.022 641.72C964.422 640.84 963.422 639.84 961.422 639.84ZM960.222 654.32C959.382 654.32 957.702 653.68 957.702 651.92C957.702 650.96 958.102 650.68 958.502 650.4C959.582 649.88 961.502 649.2 962.622 649.2C962.782 649.2 962.942 649.4 962.942 649.52C962.942 650.32 962.942 651.68 962.862 652.64C962.862 652.72 962.622 653.48 962.382 653.64C961.622 654.04 960.822 654.32 960.222 654.32ZM975.208 640.4C975.048 640.4 974.888 640.2 974.888 640.08V638.2C974.888 638.12 974.528 637.76 974.328 637.76C974.168 637.76 973.888 638.08 973.408 638.64C972.848 639.32 971.608 640.28 970.208 641.4C970.088 641.52 969.968 641.68 969.968 641.84C969.968 641.96 970.208 642.16 970.528 642.28C971.328 642.52 972.048 642.8 972.048 643.08C972.048 644.48 971.888 650.48 971.888 651.96C971.888 653.08 971.968 653.92 972.408 654.6C972.888 655.48 974.288 656.48 975.928 656.48C977.728 656.48 979.128 655.76 980.208 654.72C980.488 654.44 980.768 654.04 980.768 653.72C980.768 653.36 980.568 653.28 980.528 653.28C980.368 653.28 980.288 653.32 979.928 653.52C979.328 653.88 978.488 654.12 977.968 654.12C977.128 654.12 976.288 654.04 975.528 653.36C975.088 652.92 974.848 652.4 974.848 651.4C974.848 649.48 974.888 643.6 974.928 642.8C974.928 642.72 975.088 642.52 975.288 642.52H979.648C979.928 642.52 980.688 642.44 980.688 642.08C980.688 641.56 980.568 640.44 980.568 640.56C980.568 640.44 980.168 640.24 980.128 640.24C979.968 640.24 976.088 640.4 975.208 640.4ZM990.504 639.88C989.824 639.88 988.504 640.12 987.464 640.6C984.344 642.04 982.664 645.24 982.664 648.44C982.664 653.12 985.544 656.4 989.864 656.4C992.144 656.4 994.264 655.44 995.664 653.4C995.784 653.2 995.944 652.76 995.944 652.44C995.944 652.24 995.864 651.96 995.624 651.96C995.464 651.96 995.264 652.2 995.104 652.44C994.424 653.44 993.224 653.88 991.464 653.88C989.544 653.88 987.864 652.88 986.984 651.68C986.104 650.52 985.464 648.68 985.464 647.12C985.464 646.72 985.544 646.04 985.664 645.72C985.704 645.6 985.864 645.4 985.984 645.4C987.824 645.44 994.664 645.44 995.104 645.44C995.544 645.44 995.864 645 995.864 644.76C995.864 643.36 995.344 642.24 994.464 641.4C993.464 640.4 991.904 639.88 990.504 639.88ZM990.104 640.92C991.544 640.92 992.744 642.2 992.744 643.32C992.744 644.12 992.344 644.32 991.384 644.32C989.384 644.36 987.264 644.36 986.224 644.32C986.144 644.32 985.984 644.08 986.064 643.88C986.784 642.04 988.304 640.92 990.104 640.92ZM1004.41 639.84C1003.05 639.84 1001.97 640.2 1001.21 640.68C999.688 641.6 999.008 642.92 999.008 644.28C999.008 646.16 1000.29 647.56 1001.49 648.32C1002.73 649.12 1002.97 649.32 1003.93 650C1005.17 650.76 1005.73 651.6 1005.73 652.68C1005.73 653.44 1005.41 654.4 1004.81 654.88C1004.37 655.2 1003.73 655.48 1003.21 655.48C1001.77 655.48 1000.69 654.68 999.568 652.64C999.328 652.2 999.048 651.72 998.728 651.72C998.488 651.72 998.408 652.12 998.408 652.56C998.408 653.72 998.888 655.4 999.008 655.6C999.688 656.16 1001.69 656.48 1002.89 656.48C1004.13 656.48 1005.53 656.04 1006.25 655.56C1007.25 654.84 1008.57 653.48 1008.57 651.64C1008.57 649.84 1007.69 648.48 1005.45 647.16C1002.77 645.68 1001.49 644.64 1001.49 643.28C1001.49 642.44 1002.25 640.8 1003.89 640.8C1005.21 640.8 1006.21 641.6 1007.09 643.48C1007.29 643.92 1007.53 644.16 1007.69 644.16C1008.01 644.16 1008.17 643.8 1008.17 643.44C1008.17 643.16 1008.05 641.8 1008.05 641.08C1008.05 640.84 1007.81 640.56 1007.73 640.52C1007.65 640.48 1006.89 640.16 1006.45 640.08C1006.01 639.96 1005.17 639.84 1004.41 639.84ZM1024.39 640.4C1024.23 640.4 1024.07 640.2 1024.07 640.08V638.2C1024.07 638.12 1023.71 637.76 1023.51 637.76C1023.35 637.76 1023.07 638.08 1022.59 638.64C1022.03 639.32 1020.79 640.28 1019.39 641.4C1019.27 641.52 1019.15 641.68 1019.15 641.84C1019.15 641.96 1019.39 642.16 1019.71 642.28C1020.51 642.52 1021.23 642.8 1021.23 643.08C1021.23 644.48 1021.07 650.48 1021.07 651.96C1021.07 653.08 1021.15 653.92 1021.59 654.6C1022.07 655.48 1023.47 656.48 1025.11 656.48C1026.91 656.48 1028.31 655.76 1029.39 654.72C1029.67 654.44 1029.95 654.04 1029.95 653.72C1029.95 653.36 1029.75 653.28 1029.71 653.28C1029.55 653.28 1029.47 653.32 1029.11 653.52C1028.51 653.88 1027.67 654.12 1027.15 654.12C1026.31 654.12 1025.47 654.04 1024.71 653.36C1024.27 652.92 1024.03 652.4 1024.03 651.4C1024.03 649.48 1024.07 643.6 1024.11 642.8C1024.11 642.72 1024.27 642.52 1024.47 642.52H1028.83C1029.11 642.52 1029.87 642.44 1029.87 642.08C1029.87 641.56 1029.75 640.44 1029.75 640.56C1029.75 640.44 1029.35 640.24 1029.31 640.24C1029.15 640.24 1025.27 640.4 1024.39 640.4ZM1040.52 639.84C1037.84 639.84 1035.84 640.96 1034.6 642.04C1033.08 643.32 1031.8 645.24 1031.8 648.28C1031.8 650.28 1033.04 653 1034.76 654.4C1036.24 655.64 1038.24 656.48 1040.08 656.48C1041.88 656.48 1043.44 656.04 1045.04 654.88C1046.52 653.92 1048.52 651.32 1048.52 648C1048.52 642.96 1044.48 639.84 1040.52 639.84ZM1039.76 641.04C1040.8 641.04 1042.24 641.64 1043.12 642.6C1044.64 644.36 1045.12 646.64 1045.12 648.72C1045.12 650.44 1044.32 652.92 1043.32 654C1042.2 655.12 1041.32 655.32 1040.88 655.32C1038.96 655.32 1036.68 653.88 1035.68 650.88C1035.36 649.88 1035.2 648.64 1035.2 647.32C1035.2 645.24 1036.12 643.16 1037.16 642.2C1038 641.48 1038.92 641.04 1039.76 641.04ZM1058.33 639.68C1056.77 639.68 1055.37 640.12 1054.25 640.96C1052.69 642.12 1051.81 643.56 1051.81 645.52C1051.81 648.44 1053.73 649.96 1054.85 650.6C1054.97 650.72 1055.09 650.88 1055.01 650.96C1054.37 651.6 1052.65 652.56 1052.05 653.04C1051.97 653.12 1051.85 653.32 1051.85 653.4C1051.85 654.68 1052.41 655.8 1053.21 656.36C1053.73 656.76 1054.49 657 1054.77 657.16C1054.89 657.24 1054.97 657.36 1054.89 657.44C1054.37 657.88 1053.13 658.76 1052.13 659.6C1051.77 659.88 1050.97 660.36 1050.97 662.12C1050.97 663.24 1051.69 664.72 1052.81 665.6C1054.49 666.84 1056.37 667.08 1057.81 667.08C1059.25 667.08 1061.37 666.8 1063.57 665.36C1065.29 664.24 1067.33 662.2 1067.33 659.2C1067.33 658.16 1066.77 656.64 1065.65 655.68C1064.93 655.12 1064.05 654.76 1063.73 654.72C1062.45 654.52 1058.13 654.48 1056.37 654.4C1055.93 654.36 1054.73 653.64 1054.73 652.6C1054.73 652.28 1055.61 651.44 1056.01 651.24C1056.17 651.16 1056.37 651.16 1056.61 651.2C1056.89 651.2 1057.77 651.24 1058.01 651.24C1058.97 651.24 1060.61 651.08 1062.37 649.72C1063.93 648.52 1064.61 646.88 1064.61 644.68C1064.61 644 1064.49 643.28 1064.29 642.68C1064.25 642.56 1064.37 642.36 1064.53 642.36C1065.53 642.44 1066.97 642.44 1067.21 642.44C1067.37 642.44 1067.93 641.72 1067.93 641.16C1067.93 641 1067.81 640.76 1067.57 640.72C1066.73 640.52 1063.81 640.48 1062.93 640.4L1061.81 640.16C1060.65 639.88 1059.93 639.68 1058.33 639.68ZM1059.29 665.4C1057.81 665.4 1056.45 665 1055.37 664.16C1054.53 663.44 1053.97 662.4 1053.97 661.12C1053.97 660.2 1054.49 658.72 1055.77 657.84C1056.01 657.68 1056.65 657.44 1057.93 657.44C1059.61 657.44 1060.89 657.44 1061.97 657.64C1062.93 657.84 1063.69 658.36 1064.09 658.88C1064.57 659.52 1064.65 660.44 1064.65 660.96C1064.65 662.12 1064.05 663.64 1062.45 664.68C1062.01 664.92 1060.85 665.4 1059.29 665.4ZM1058.01 640.64C1059.17 640.64 1060.13 641.28 1060.89 642.4C1061.53 643.36 1061.77 644.68 1061.77 645.4C1061.77 647.04 1061.25 649 1060.25 649.64C1059.69 650 1059.21 650.2 1058.93 650.2C1056.33 650.2 1054.97 647.2 1054.97 645.2C1054.97 643.32 1055.41 642.28 1056.01 641.64C1056.37 641.16 1057.29 640.64 1058.01 640.64ZM1076.83 639.88C1076.15 639.88 1074.83 640.12 1073.79 640.6C1070.67 642.04 1068.99 645.24 1068.99 648.44C1068.99 653.12 1071.87 656.4 1076.19 656.4C1078.47 656.4 1080.59 655.44 1081.99 653.4C1082.11 653.2 1082.27 652.76 1082.27 652.44C1082.27 652.24 1082.19 651.96 1081.95 651.96C1081.79 651.96 1081.59 652.2 1081.43 652.44C1080.75 653.44 1079.55 653.88 1077.79 653.88C1075.87 653.88 1074.19 652.88 1073.31 651.68C1072.43 650.52 1071.79 648.68 1071.79 647.12C1071.79 646.72 1071.87 646.04 1071.99 645.72C1072.03 645.6 1072.19 645.4 1072.31 645.4C1074.15 645.44 1080.99 645.44 1081.43 645.44C1081.87 645.44 1082.19 645 1082.19 644.76C1082.19 643.36 1081.67 642.24 1080.79 641.4C1079.79 640.4 1078.23 639.88 1076.83 639.88ZM1076.43 640.92C1077.87 640.92 1079.07 642.2 1079.07 643.32C1079.07 644.12 1078.67 644.32 1077.71 644.32C1075.71 644.36 1073.59 644.36 1072.55 644.32C1072.47 644.32 1072.31 644.08 1072.39 643.88C1073.11 642.04 1074.63 640.92 1076.43 640.92ZM1089.9 640.4C1089.74 640.4 1089.58 640.2 1089.58 640.08V638.2C1089.58 638.12 1089.22 637.76 1089.02 637.76C1088.86 637.76 1088.58 638.08 1088.1 638.64C1087.54 639.32 1086.3 640.28 1084.9 641.4C1084.78 641.52 1084.66 641.68 1084.66 641.84C1084.66 641.96 1084.9 642.16 1085.22 642.28C1086.02 642.52 1086.74 642.8 1086.74 643.08C1086.74 644.48 1086.58 650.48 1086.58 651.96C1086.58 653.08 1086.66 653.92 1087.1 654.6C1087.58 655.48 1088.98 656.48 1090.62 656.48C1092.42 656.48 1093.82 655.76 1094.9 654.72C1095.18 654.44 1095.46 654.04 1095.46 653.72C1095.46 653.36 1095.26 653.28 1095.22 653.28C1095.06 653.28 1094.98 653.32 1094.62 653.52C1094.02 653.88 1093.18 654.12 1092.66 654.12C1091.82 654.12 1090.98 654.04 1090.22 653.36C1089.78 652.92 1089.54 652.4 1089.54 651.4C1089.54 649.48 1089.58 643.6 1089.62 642.8C1089.62 642.72 1089.78 642.52 1089.98 642.52H1094.34C1094.62 642.52 1095.38 642.44 1095.38 642.08C1095.38 641.56 1095.26 640.44 1095.26 640.56C1095.26 640.44 1094.86 640.24 1094.82 640.24C1094.66 640.24 1090.78 640.4 1089.9 640.4ZM1107.36 639.84C1105.68 639.84 1103.96 640.68 1102.32 642.16C1102.28 642.2 1102.04 642.16 1102.04 641.92C1102.04 640.76 1102.2 630.8 1102.6 627.92C1102.6 627.8 1102.52 627.48 1102.36 627.48C1102.12 627.48 1101.76 627.68 1101.6 627.76C1100.64 628.4 1098.84 628.8 1097.6 629.16C1097.52 629.2 1097.48 629.28 1097.48 629.36C1097.48 629.68 1097.72 630.08 1097.88 630.16C1099 630.88 1099.08 630.96 1099.2 632C1099.36 633.16 1099.32 639.92 1099.32 641.52C1099.32 645.56 1099.04 650.96 1098.92 652.64C1098.8 654.12 1098.4 654.56 1097.36 654.92C1096.52 655.16 1096.2 655.4 1096.2 655.6C1096.2 656 1096.76 656.12 1097.12 656.12C1097.8 656.12 1099.24 656 1100.16 656C1101.12 656 1103.12 656.08 1103.44 656.08C1104 656.08 1104.44 655.96 1104.44 655.6C1104.44 655.4 1104.12 655.12 1103.56 654.96C1102.64 654.72 1102.08 654.48 1102 653.16C1101.96 651.72 1101.96 646.52 1102.08 644.84C1102.12 643.6 1102.64 642.96 1102.72 642.88C1102.88 642.72 1104.2 641.96 1105.92 641.96C1107.48 641.96 1108.52 642.52 1109.16 643.28C1109.6 643.8 1109.8 645.08 1109.8 647.28C1109.8 647.92 1109.88 652.32 1109.8 653.08C1109.64 654.6 1109.52 654.72 1108.52 655.04C1108.04 655.16 1107.68 655.36 1107.68 655.6C1107.68 655.88 1107.88 656.08 1108.48 656.08C1109.64 656.08 1110.44 656 1111.36 656C1112.72 656 1113.16 656.12 1114.52 656.12C1115.28 656.12 1115.6 655.96 1115.6 655.6C1115.6 655.36 1115.28 655.12 1114.48 654.96C1113.44 654.72 1112.92 654.4 1112.92 653.4L1112.76 646C1112.76 644.28 1112.4 642.76 1111.6 641.68C1110.76 640.52 1109.36 639.84 1107.36 639.84ZM1125.43 639.88C1124.75 639.88 1123.43 640.12 1122.39 640.6C1119.27 642.04 1117.59 645.24 1117.59 648.44C1117.59 653.12 1120.47 656.4 1124.79 656.4C1127.07 656.4 1129.19 655.44 1130.59 653.4C1130.71 653.2 1130.87 652.76 1130.87 652.44C1130.87 652.24 1130.79 651.96 1130.55 651.96C1130.39 651.96 1130.19 652.2 1130.03 652.44C1129.35 653.44 1128.15 653.88 1126.39 653.88C1124.47 653.88 1122.79 652.88 1121.91 651.68C1121.03 650.52 1120.39 648.68 1120.39 647.12C1120.39 646.72 1120.47 646.04 1120.59 645.72C1120.63 645.6 1120.79 645.4 1120.91 645.4C1122.75 645.44 1129.59 645.44 1130.03 645.44C1130.47 645.44 1130.79 645 1130.79 644.76C1130.79 643.36 1130.27 642.24 1129.39 641.4C1128.39 640.4 1126.83 639.88 1125.43 639.88ZM1125.03 640.92C1126.47 640.92 1127.67 642.2 1127.67 643.32C1127.67 644.12 1127.27 644.32 1126.31 644.32C1124.31 644.36 1122.19 644.36 1121.15 644.32C1121.07 644.32 1120.91 644.08 1120.99 643.88C1121.71 642.04 1123.23 640.92 1125.03 640.92ZM1133.58 641.92C1133.58 642.08 1133.98 642.24 1134.94 643C1135.38 643.28 1135.38 643.8 1135.38 644.2V651.84C1135.34 654.24 1135.22 654.64 1133.66 655.16C1133.34 655.28 1132.86 655.44 1132.86 655.68C1132.86 656 1133.26 656.16 1133.7 656.16C1134.66 656.16 1135.14 656 1136.34 656C1138.66 656 1140.06 656.2 1141.06 656.2C1141.66 656.2 1142.02 656.04 1142.02 655.84C1142.02 655.68 1141.94 655.4 1141.3 655.2L1139.46 654.72C1138.74 654.6 1138.5 653.84 1138.42 652.68C1138.38 652.08 1138.18 644.84 1138.18 644.04C1138.18 643.84 1138.3 643.48 1138.58 643.16C1138.98 642.72 1139.66 642.6 1140.34 642.6C1141.14 642.6 1142.1 643.08 1142.54 643.48C1142.66 643.56 1143.02 643.64 1143.1 643.6C1143.34 643.48 1144.3 642.4 1144.74 641.76C1144.86 641.56 1144.98 641.28 1144.98 641.2C1144.98 640.84 1144.62 639.84 1142.98 639.84C1141.74 639.84 1139.98 640.84 1138.42 642.32C1138.34 642.36 1138.14 642.32 1138.14 642.16C1138.14 641.4 1138.22 640.68 1138.22 639.96C1138.22 639.84 1138.02 639.48 1137.86 639.48C1137.74 639.48 1137.54 639.64 1137.06 639.96C1136.66 640.2 1135.42 640.8 1134.1 641.24C1133.66 641.4 1133.58 641.8 1133.58 641.92ZM1152.33 632C1151.41 632 1150.77 632.88 1150.77 633.44C1150.77 634.64 1151.77 635.72 1152.45 635.72C1153.13 635.72 1153.97 635.56 1154.33 635.56C1157.17 635.56 1157.45 637.28 1157.45 638.92C1157.45 639.88 1156.77 640.6 1155.49 641.16C1153.01 642.24 1151.73 642.92 1151.73 644.28C1151.73 645.12 1152.05 646.56 1152.25 647.4C1152.37 647.88 1152.69 648.52 1152.93 648.52C1153.21 648.52 1153.53 648.16 1153.57 647.48C1153.65 646.76 1153.53 646.16 1154.33 645.8C1155.13 645.36 1157.01 644.32 1157.85 643.76C1158.61 642.96 1159.33 642.04 1159.33 639.68C1159.33 637.04 1156.53 634.24 1156.17 633.96C1154.93 632.92 1153.65 632 1152.33 632ZM1153.65 651.68C1152.85 651.68 1151.25 652.32 1151.25 654.08C1151.25 655.84 1152.57 656.52 1153.61 656.52C1154.97 656.52 1155.97 655.4 1155.97 654.08C1155.97 653.2 1155.41 651.68 1153.65 651.68Z" fill="black"/>
</g>
<defs>
<clipPath id="clip0">
<rect width="1280" height="960" fill="white"/>
</clipPath>
<clipPath id="clip1">
<rect width="155.725" height="35.6395" fill="white" transform="translate(962 558)"/>
</clipPath>
</defs>
</svg>
