<svg width="1280" height="960" viewBox="0 0 1280 960" fill="none" xmlns="http://www.w3.org/2000/svg">
<g id="Satisfiability">
<rect width="1280" height="960" fill="white"/>
<path id="what is the logic?" d="M869.163 257.08C869.403 256.84 869.403 256 869.163 255.76C867.963 255.8 866.563 255.84 865.123 255.84C863.603 255.84 862.523 255.8 861.483 255.76C861.243 256 861.243 256.84 861.483 257.08C863.363 257.28 863.803 257.68 864.643 259.76L869.883 272.68C870.123 273.24 870.443 273.48 870.843 273.48C871.203 273.48 871.523 273.24 871.803 272.6L875.843 262.76L879.963 272.68C880.203 273.24 880.523 273.48 880.923 273.48C881.283 273.48 881.603 273.24 881.843 272.64L887.083 259.96C887.723 258.32 888.403 257.2 890.443 257.08C890.683 256.84 890.683 256 890.443 255.76C889.643 255.8 888.763 255.84 887.563 255.84C886.363 255.84 884.683 255.8 883.483 255.76C883.243 256 883.243 256.84 883.483 257.08C886.483 257.24 886.083 258.4 885.523 259.8L882.163 268.12C881.763 269.12 881.603 269.12 881.283 268.28L877.843 259.52C877.083 257.64 877.163 257.24 879.283 257.08C879.523 256.84 879.523 256 879.283 255.76C878.083 255.8 876.483 255.84 875.283 255.84C874.283 255.84 872.963 255.8 871.763 255.76C871.523 256 871.523 256.84 871.763 257.08C873.643 257.24 874.123 258.4 874.843 260.2L875.083 260.84L872.283 267.92C871.763 269.24 871.683 269.28 871.163 268L867.963 259.76C867.203 257.84 867.243 257.2 869.163 257.08ZM897.606 261.56C897.606 260.72 897.966 260.24 898.286 259.88C899.806 258.4 901.846 257.52 903.406 257.52C904.206 257.52 905.046 258.04 905.526 258.96C905.926 259.76 906.006 260.84 906.006 262.04V268.12C906.006 271.4 905.606 271.56 903.526 271.76C903.326 272 903.326 272.84 903.526 273.08C904.646 273.04 906.006 273 907.606 273C909.206 273 910.526 273.04 911.846 273.08C912.046 272.84 912.046 272 911.846 271.76C909.606 271.56 909.166 271.4 909.166 268.12V262.16C909.166 259.96 909.006 258 908.086 256.8C907.406 255.92 906.166 255.44 904.766 255.44C902.806 255.44 900.406 255.96 897.966 258.68C897.966 258.72 897.926 258.72 897.886 258.76C897.766 258.92 897.566 259.16 897.566 258.68L897.606 249.68C897.606 247.08 897.766 245.48 897.766 245.48C897.766 245.2 897.606 245.08 897.246 245.08C896.246 245.48 893.246 246.04 891.646 246.16C891.566 246.48 891.646 247.12 891.886 247.36C892.006 247.36 892.126 247.36 892.246 247.36C894.006 247.48 894.446 247.48 894.446 250.64V268.12C894.446 271.44 893.966 271.6 891.646 271.76C891.406 272 891.406 272.84 891.646 273.08C892.966 273.04 894.446 273 896.046 273C897.566 273 898.886 273.04 900.006 273.08C900.246 272.84 900.246 272 900.006 271.76C897.966 271.6 897.606 271.44 897.606 268.12V261.56ZM924.169 271.08C924.409 272.32 924.849 273.4 926.849 273.4C928.369 273.4 929.809 272.72 930.649 271.92C930.569 271.44 930.409 271.08 929.969 270.84C929.689 271.08 929.009 271.48 928.489 271.48C927.329 271.48 927.289 269.92 927.289 268.08V262.2C927.289 256.52 924.169 255.44 921.249 255.44C917.969 255.44 914.649 257.6 914.649 259.88C914.649 260.84 915.129 261.32 916.049 261.32C917.209 261.32 917.929 260.48 917.929 259.96C917.929 259.68 917.889 259.4 917.809 259.24C917.769 259.12 917.729 258.88 917.729 258.44C917.729 257.2 919.409 256.76 920.929 256.76C922.289 256.76 924.169 257.44 924.169 261.96C924.169 262.24 924.049 262.4 923.929 262.44L920.489 263.28C916.649 264.24 913.889 266.36 913.889 269.08C913.889 272.36 916.129 273.4 918.929 273.4C920.329 273.4 921.529 273.08 923.289 271.72L924.089 271.08H924.169ZM924.169 263.68V268.96C924.169 269.48 923.929 269.76 923.609 270C922.569 270.84 921.209 271.76 920.089 271.76C918.089 271.76 917.209 270.16 917.209 268.92C917.209 267.12 918.049 265.28 921.009 264.52L924.169 263.68ZM932.45 255.84C931.89 255.84 931.73 256.32 931.73 256.64V257.16C931.73 257.36 931.77 257.4 931.93 257.4H934.29V269.44C934.29 272.28 935.53 273.4 937.37 273.4C939.21 273.4 941.21 272.52 942.77 270.76C942.69 270.36 942.45 270.12 942.05 270.08C941.01 270.88 939.81 271.2 938.77 271.2C937.69 271.2 937.45 270 937.45 267.52V257.4H941.61C942.01 257.4 942.57 257.24 942.57 256.88V256.08C942.57 255.92 942.45 255.84 942.25 255.84H937.45V254.28C937.45 251.68 937.61 250.08 937.61 250.08C937.61 249.84 937.49 249.72 937.29 249.72C937.13 249.72 936.77 249.88 936.41 250.08C935.97 250.32 935.57 250.52 935.05 250.64C934.57 250.8 934.17 250.92 934.17 251.2C934.17 251.68 934.29 251.4 934.29 255.84H932.45ZM960.627 268.12V260.16C960.627 258.16 960.787 255.6 960.787 255.6C960.787 255.44 960.587 255.32 960.267 255.32C959.147 255.76 957.547 256.12 954.787 256.48C954.707 256.72 954.787 257.36 954.867 257.6C957.067 257.8 957.467 258.04 957.467 260.32V268.12C957.467 271.44 957.027 271.56 954.587 271.76C954.347 272 954.347 272.84 954.587 273.08C955.907 273.04 957.467 273 959.067 273C960.667 273 962.187 273.04 963.507 273.08C963.747 272.84 963.747 272 963.507 271.76C961.067 271.6 960.627 271.44 960.627 268.12ZM956.987 249.04C956.987 250.08 957.947 251.12 958.907 251.12C960.027 251.12 960.987 250.04 960.987 249.2C960.987 248.24 960.147 247.12 959.067 247.12C958.107 247.12 956.987 248.08 956.987 249.04ZM966.166 267.48C966.326 269.44 966.446 271.32 966.446 273C966.846 272.92 967.246 272.88 967.446 272.88C967.726 272.88 967.966 272.88 968.246 272.96C969.326 273.24 970.406 273.4 971.886 273.4C974.126 273.4 978.246 272.32 978.246 268.36C978.246 265.64 976.286 264.04 973.566 263.04C971.166 262.12 969.566 261.52 969.566 259.32C969.566 257.68 971.006 256.76 972.366 256.76C973.246 256.76 975.566 257.08 976.086 260.48C976.326 260.72 977.126 260.68 977.366 260.44C977.486 259 977.566 257.52 977.606 256.2C976.366 256 974.446 255.44 972.366 255.44C969.406 255.44 966.726 257.36 966.726 259.92C966.726 262.84 968.046 264.08 971.126 265.36C974.446 266.72 975.206 267.56 975.206 269.28C975.206 271.24 973.286 272.08 971.806 272.08C970.246 272.08 969.366 271.56 968.966 271.12C968.086 270.2 967.646 268.44 967.406 267.44C967.166 267.2 966.406 267.24 966.166 267.48ZM991.552 255.84C990.992 255.84 990.832 256.32 990.832 256.64V257.16C990.832 257.36 990.872 257.4 991.032 257.4H993.392V269.44C993.392 272.28 994.632 273.4 996.472 273.4C998.312 273.4 1000.31 272.52 1001.87 270.76C1001.79 270.36 1001.55 270.12 1001.15 270.08C1000.11 270.88 998.912 271.2 997.872 271.2C996.792 271.2 996.552 270 996.552 267.52V257.4H1000.71C1001.11 257.4 1001.67 257.24 1001.67 256.88V256.08C1001.67 255.92 1001.55 255.84 1001.35 255.84H996.552V254.28C996.552 251.68 996.712 250.08 996.712 250.08C996.712 249.84 996.592 249.72 996.392 249.72C996.232 249.72 995.872 249.88 995.512 250.08C995.072 250.32 994.672 250.52 994.152 250.64C993.672 250.8 993.272 250.92 993.272 251.2C993.272 251.68 993.392 251.4 993.392 255.84H991.552ZM1009.17 261.56C1009.17 260.72 1009.53 260.24 1009.85 259.88C1011.37 258.4 1013.41 257.52 1014.97 257.52C1015.77 257.52 1016.61 258.04 1017.09 258.96C1017.49 259.76 1017.57 260.84 1017.57 262.04V268.12C1017.57 271.4 1017.17 271.56 1015.09 271.76C1014.89 272 1014.89 272.84 1015.09 273.08C1016.21 273.04 1017.57 273 1019.17 273C1020.77 273 1022.09 273.04 1023.41 273.08C1023.61 272.84 1023.61 272 1023.41 271.76C1021.17 271.56 1020.73 271.4 1020.73 268.12V262.16C1020.73 259.96 1020.57 258 1019.65 256.8C1018.97 255.92 1017.73 255.44 1016.33 255.44C1014.37 255.44 1011.97 255.96 1009.53 258.68C1009.53 258.72 1009.49 258.72 1009.45 258.76C1009.33 258.92 1009.13 259.16 1009.13 258.68L1009.17 249.68C1009.17 247.08 1009.33 245.48 1009.33 245.48C1009.33 245.2 1009.17 245.08 1008.81 245.08C1007.81 245.48 1004.81 246.04 1003.21 246.16C1003.13 246.48 1003.21 247.12 1003.45 247.36C1003.57 247.36 1003.69 247.36 1003.81 247.36C1005.57 247.48 1006.01 247.48 1006.01 250.64V268.12C1006.01 271.44 1005.53 271.6 1003.21 271.76C1002.97 272 1002.97 272.84 1003.21 273.08C1004.53 273.04 1006.01 273 1007.61 273C1009.13 273 1010.45 273.04 1011.57 273.08C1011.81 272.84 1011.81 272 1011.57 271.76C1009.53 271.6 1009.17 271.44 1009.17 268.12V261.56ZM1039.45 269.28C1037.97 270.8 1036.81 271.44 1034.49 271.44C1033.05 271.44 1031.37 270.6 1030.13 268.56C1029.33 267.24 1028.85 265.4 1028.85 263.08L1039.49 263.16C1039.97 263.16 1040.25 262.92 1040.25 262.48C1040.25 259.12 1039.05 255.52 1033.49 255.52C1030.01 255.52 1025.49 258.84 1025.49 264.92C1025.49 267.16 1026.05 269.32 1027.37 270.84C1028.73 272.44 1030.61 273.4 1033.49 273.4C1036.53 273.4 1038.69 272 1040.29 269.92C1040.17 269.52 1039.93 269.32 1039.45 269.28ZM1028.97 261.72C1029.73 257.2 1032.53 256.84 1033.49 256.84C1035.01 256.84 1036.81 257.68 1036.81 261.04C1036.81 261.4 1036.65 261.6 1036.21 261.6L1028.97 261.72ZM1055.7 268.12C1055.7 271.44 1055.26 271.64 1052.82 271.76C1052.58 272 1052.58 272.84 1052.82 273.08C1054.22 273.04 1055.7 273 1057.3 273C1058.9 273 1060.42 273.04 1061.74 273.08C1061.98 272.84 1061.98 272 1061.74 271.76C1059.3 271.64 1058.86 271.44 1058.86 268.12V249.68C1058.86 247.08 1059.02 245.48 1059.02 245.48C1059.02 245.2 1058.86 245.08 1058.5 245.08C1057.5 245.48 1054.5 246.04 1052.9 246.16C1052.82 246.48 1052.9 247.12 1053.14 247.36C1055.46 247.52 1055.7 247.64 1055.7 250.64V268.12ZM1064.09 264.8C1064.09 268.88 1066.81 273.4 1072.49 273.4C1075.05 273.4 1077.01 272.48 1078.37 271.16C1080.17 269.4 1080.97 266.88 1080.97 264.44C1080.97 260.28 1078.69 255.44 1072.57 255.44C1069.93 255.44 1067.77 256.52 1066.29 258.24C1064.85 259.96 1064.09 262.28 1064.09 264.8ZM1071.97 256.84C1075.41 256.84 1077.53 259.96 1077.53 265.72C1077.53 270.76 1074.93 272 1073.05 272C1068.89 272 1067.53 266.96 1067.53 263.88C1067.53 260.4 1068.37 256.84 1071.97 256.84ZM1100.37 257.52C1101.13 257.52 1101.85 256.8 1101.85 256C1101.85 255.16 1101.09 254.52 1100.01 254.52C1098.97 254.52 1097.05 255.2 1096.01 256.56C1095.53 256.24 1094.21 255.44 1091.85 255.44C1088.29 255.44 1085.01 257.84 1085.01 261.52C1085.01 263.68 1085.97 264.92 1087.09 266C1085.97 266.96 1085.33 268.68 1085.33 270.04C1085.33 271.48 1086.13 272.6 1087.17 273.12C1085.01 274.4 1083.89 276.24 1083.89 277.96C1083.89 281.44 1087.17 282.52 1090.25 282.52C1095.65 282.52 1101.49 279.92 1101.49 275.6C1101.49 274.32 1100.89 273.32 1099.73 272.36C1098.17 271.08 1095.37 271.04 1093.89 271.04C1093.17 271.04 1092.17 271.12 1091.21 271.24C1090.61 271.28 1090.21 271.32 1090.01 271.32C1088.85 271.32 1087.45 270.76 1087.45 269.04C1087.45 268.24 1087.69 267.4 1088.17 266.72C1089.13 267.28 1090.25 267.56 1091.81 267.56C1095.33 267.56 1098.57 265.36 1098.57 261.44C1098.57 259.56 1098.01 258.48 1096.85 257.28C1097.13 256.88 1097.93 256.32 1098.45 256.32C1098.73 256.32 1099.01 256.44 1099.25 256.8C1099.41 257.12 1099.93 257.52 1100.37 257.52ZM1087.89 273.4C1088.33 273.52 1088.97 273.6 1089.49 273.6C1090.73 273.6 1091.85 273.48 1092.41 273.48C1094.41 273.48 1096.09 273.52 1097.25 274.16C1098.81 275.04 1099.29 275.6 1099.29 276.64C1099.29 279.52 1095.05 281.04 1091.45 281.04C1090.01 281.04 1086.65 279.88 1086.65 277.16C1086.65 275.8 1086.73 274.8 1087.89 273.4ZM1095.37 261.84C1095.37 265.56 1093.49 266.32 1092.01 266.32C1088.65 266.32 1088.29 263.48 1088.29 260.92C1088.29 258.12 1089.29 256.68 1091.49 256.68C1094.01 256.68 1095.37 258.52 1095.37 261.84ZM1109.85 268.12V260.16C1109.85 258.16 1110.01 255.6 1110.01 255.6C1110.01 255.44 1109.81 255.32 1109.49 255.32C1108.37 255.76 1106.77 256.12 1104.01 256.48C1103.93 256.72 1104.01 257.36 1104.09 257.6C1106.29 257.8 1106.69 258.04 1106.69 260.32V268.12C1106.69 271.44 1106.25 271.56 1103.81 271.76C1103.57 272 1103.57 272.84 1103.81 273.08C1105.13 273.04 1106.69 273 1108.29 273C1109.89 273 1111.41 273.04 1112.73 273.08C1112.97 272.84 1112.97 272 1112.73 271.76C1110.29 271.6 1109.85 271.44 1109.85 268.12ZM1106.21 249.04C1106.21 250.08 1107.17 251.12 1108.13 251.12C1109.25 251.12 1110.21 250.04 1110.21 249.2C1110.21 248.24 1109.37 247.12 1108.29 247.12C1107.33 247.12 1106.21 248.08 1106.21 249.04ZM1129.38 269.36C1129.22 269 1128.9 268.84 1128.54 268.8C1127.18 270.56 1125.46 271.44 1123.74 271.44C1120.82 271.44 1118.38 268.48 1118.38 263.8C1118.38 259.4 1120.3 256.76 1122.94 256.76C1125.3 256.76 1125.62 258.16 1125.78 259.56C1125.9 260.64 1126.46 261 1127.3 261C1128.14 261 1129.26 260.48 1129.26 259.24C1129.26 257.04 1126.98 255.44 1123.14 255.44C1119.18 255.44 1114.94 259 1114.94 264.68C1114.94 269.84 1117.82 273.4 1122.86 273.4C1125.26 273.4 1127.38 272.64 1129.38 269.36ZM1135.13 250.12C1135.13 248.92 1136.73 247.96 1139.01 247.96C1141.29 247.96 1142.81 250.24 1142.81 252.84C1142.81 254.72 1142.21 255.88 1140.61 257.36C1138.01 259.72 1137.81 262.08 1137.81 263.8V265.64C1137.81 265.92 1138.13 266.04 1138.45 266.04C1138.77 266.04 1139.13 265.92 1139.13 265.64V263.88C1139.13 262.92 1139.17 261.96 1139.69 260.96C1140.05 260.28 1140.85 259.64 1141.77 258.96C1143.65 257.6 1146.13 255.84 1146.13 252.68C1146.13 249.04 1143.49 246.64 1139.41 246.64C1137.29 246.64 1135.61 247.2 1134.45 248.2C1133.25 249.16 1132.41 250.28 1132.41 251.8C1132.41 253.2 1133.41 253.52 1134.05 253.52C1134.81 253.52 1135.61 253.04 1135.61 252.12C1135.61 251.6 1135.53 251.36 1135.37 251.16C1135.21 250.96 1135.13 250.72 1135.13 250.12ZM1136.33 271.28C1136.33 272.44 1137.29 273.4 1138.45 273.4C1139.61 273.4 1140.57 272.44 1140.57 271.28C1140.57 270.12 1139.61 269.16 1138.45 269.16C1137.29 269.16 1136.33 270.12 1136.33 271.28Z" fill="black"/>
<path id="which models?" d="M276.335 257.08C276.575 256.84 276.575 256 276.335 255.76C275.135 255.8 273.735 255.84 272.295 255.84C270.775 255.84 269.695 255.8 268.655 255.76C268.415 256 268.415 256.84 268.655 257.08C270.535 257.28 270.975 257.68 271.815 259.76L277.055 272.68C277.295 273.24 277.615 273.48 278.015 273.48C278.375 273.48 278.695 273.24 278.975 272.6L283.015 262.76L287.135 272.68C287.375 273.24 287.695 273.48 288.095 273.48C288.455 273.48 288.775 273.24 289.015 272.64L294.255 259.96C294.895 258.32 295.575 257.2 297.615 257.08C297.855 256.84 297.855 256 297.615 255.76C296.815 255.8 295.935 255.84 294.735 255.84C293.535 255.84 291.855 255.8 290.655 255.76C290.415 256 290.415 256.84 290.655 257.08C293.655 257.24 293.255 258.4 292.695 259.8L289.335 268.12C288.935 269.12 288.775 269.12 288.455 268.28L285.015 259.52C284.255 257.64 284.335 257.24 286.455 257.08C286.695 256.84 286.695 256 286.455 255.76C285.255 255.8 283.655 255.84 282.455 255.84C281.455 255.84 280.135 255.8 278.935 255.76C278.695 256 278.695 256.84 278.935 257.08C280.815 257.24 281.295 258.4 282.015 260.2L282.255 260.84L279.455 267.92C278.935 269.24 278.855 269.28 278.335 268L275.135 259.76C274.375 257.84 274.415 257.2 276.335 257.08ZM304.778 261.56C304.778 260.72 305.138 260.24 305.458 259.88C306.978 258.4 309.018 257.52 310.578 257.52C311.378 257.52 312.218 258.04 312.698 258.96C313.098 259.76 313.178 260.84 313.178 262.04V268.12C313.178 271.4 312.778 271.56 310.698 271.76C310.498 272 310.498 272.84 310.698 273.08C311.818 273.04 313.178 273 314.778 273C316.378 273 317.698 273.04 319.018 273.08C319.218 272.84 319.218 272 319.018 271.76C316.778 271.56 316.338 271.4 316.338 268.12V262.16C316.338 259.96 316.178 258 315.258 256.8C314.578 255.92 313.338 255.44 311.938 255.44C309.978 255.44 307.578 255.96 305.138 258.68C305.138 258.72 305.098 258.72 305.058 258.76C304.938 258.92 304.738 259.16 304.738 258.68L304.778 249.68C304.778 247.08 304.938 245.48 304.938 245.48C304.938 245.2 304.778 245.08 304.418 245.08C303.418 245.48 300.418 246.04 298.818 246.16C298.738 246.48 298.818 247.12 299.058 247.36C299.178 247.36 299.298 247.36 299.418 247.36C301.178 247.48 301.618 247.48 301.618 250.64V268.12C301.618 271.44 301.138 271.6 298.818 271.76C298.578 272 298.578 272.84 298.818 273.08C300.138 273.04 301.618 273 303.218 273C304.738 273 306.058 273.04 307.178 273.08C307.418 272.84 307.418 272 307.178 271.76C305.138 271.6 304.778 271.44 304.778 268.12V261.56ZM326.861 268.12V260.16C326.861 258.16 327.021 255.6 327.021 255.6C327.021 255.44 326.821 255.32 326.501 255.32C325.381 255.76 323.781 256.12 321.021 256.48C320.941 256.72 321.021 257.36 321.101 257.6C323.301 257.8 323.701 258.04 323.701 260.32V268.12C323.701 271.44 323.261 271.56 320.821 271.76C320.581 272 320.581 272.84 320.821 273.08C322.141 273.04 323.701 273 325.301 273C326.901 273 328.421 273.04 329.741 273.08C329.981 272.84 329.981 272 329.741 271.76C327.301 271.6 326.861 271.44 326.861 268.12ZM323.221 249.04C323.221 250.08 324.181 251.12 325.141 251.12C326.261 251.12 327.221 250.04 327.221 249.2C327.221 248.24 326.381 247.12 325.301 247.12C324.341 247.12 323.221 248.08 323.221 249.04ZM346.4 269.36C346.24 269 345.92 268.84 345.56 268.8C344.2 270.56 342.48 271.44 340.76 271.44C337.84 271.44 335.4 268.48 335.4 263.8C335.4 259.4 337.32 256.76 339.96 256.76C342.32 256.76 342.64 258.16 342.8 259.56C342.92 260.64 343.48 261 344.32 261C345.16 261 346.28 260.48 346.28 259.24C346.28 257.04 344 255.44 340.16 255.44C336.2 255.44 331.96 259 331.96 264.68C331.96 269.84 334.84 273.4 339.88 273.4C342.28 273.4 344.4 272.64 346.4 269.36ZM354.27 261.56C354.27 260.72 354.63 260.24 354.95 259.88C356.47 258.4 358.51 257.52 360.07 257.52C360.87 257.52 361.71 258.04 362.19 258.96C362.59 259.76 362.67 260.84 362.67 262.04V268.12C362.67 271.4 362.27 271.56 360.19 271.76C359.99 272 359.99 272.84 360.19 273.08C361.31 273.04 362.67 273 364.27 273C365.87 273 367.19 273.04 368.51 273.08C368.71 272.84 368.71 272 368.51 271.76C366.27 271.56 365.83 271.4 365.83 268.12V262.16C365.83 259.96 365.67 258 364.75 256.8C364.07 255.92 362.83 255.44 361.43 255.44C359.47 255.44 357.07 255.96 354.63 258.68C354.63 258.72 354.59 258.72 354.55 258.76C354.43 258.92 354.23 259.16 354.23 258.68L354.27 249.68C354.27 247.08 354.43 245.48 354.43 245.48C354.43 245.2 354.27 245.08 353.91 245.08C352.91 245.48 349.91 246.04 348.31 246.16C348.23 246.48 348.31 247.12 348.55 247.36C348.67 247.36 348.79 247.36 348.91 247.36C350.67 247.48 351.11 247.48 351.11 250.64V268.12C351.11 271.44 350.63 271.6 348.31 271.76C348.07 272 348.07 272.84 348.31 273.08C349.63 273.04 351.11 273 352.71 273C354.23 273 355.55 273.04 356.67 273.08C356.91 272.84 356.91 272 356.67 271.76C354.63 271.6 354.27 271.44 354.27 268.12V261.56ZM385.913 258.68C385.873 257.48 385.793 256.04 385.593 255.64C385.513 255.44 385.433 255.32 385.113 255.32C383.993 255.76 382.953 256.12 380.193 256.48C380.113 256.72 380.193 257.36 380.273 257.6C382.433 257.8 382.873 258 382.873 260.32V268.12C382.873 271.4 382.353 271.6 380.153 271.76C379.913 272 379.913 272.84 380.153 273.08C381.353 273.04 382.873 273 384.473 273C386.073 273 387.313 273.04 388.513 273.08C388.753 272.84 388.753 272 388.513 271.76C386.473 271.56 386.033 271.4 386.033 268.12V261.56C386.033 260.72 386.393 260.24 386.713 259.88C388.313 258.32 389.793 257.52 391.033 257.52C392.553 257.52 393.673 258.48 393.673 261.16V268.12C393.673 271.4 393.353 271.6 391.193 271.76C390.993 272 390.993 272.84 391.193 273.08C392.193 273.04 393.673 273 395.273 273C396.873 273 398.193 273.04 399.193 273.08C399.393 272.84 399.393 272 399.193 271.76C397.193 271.6 396.833 271.4 396.833 268.12V261.76C396.833 261.2 396.833 260.64 396.793 260.16C398.713 258.04 400.513 257.52 402.073 257.52C403.593 257.52 404.473 258.4 404.473 261.08V268.12C404.473 271.4 404.073 271.6 401.993 271.76C401.793 272 401.793 272.84 401.993 273.08C402.993 273.04 404.473 273 406.073 273C407.673 273 409.073 273.04 410.193 273.08C410.393 272.84 410.393 272 410.193 271.76C407.993 271.6 407.633 271.4 407.633 268.12V261.8C407.633 258.24 407.033 255.44 403.513 255.44C401.473 255.44 398.993 256.2 396.913 258.4C396.793 258.52 396.553 258.72 396.473 258.36C396.113 256.72 394.553 255.44 392.473 255.44C390.153 255.44 388.073 256.8 386.393 258.68C386.193 258.88 385.953 259.16 385.913 258.68ZM412.355 264.8C412.355 268.88 415.075 273.4 420.755 273.4C423.315 273.4 425.275 272.48 426.635 271.16C428.435 269.4 429.235 266.88 429.235 264.44C429.235 260.28 426.955 255.44 420.835 255.44C418.195 255.44 416.035 256.52 414.555 258.24C413.115 259.96 412.355 262.28 412.355 264.8ZM420.235 256.84C423.675 256.84 425.795 259.96 425.795 265.72C425.795 270.76 423.195 272 421.315 272C417.155 272 415.795 266.96 415.795 263.88C415.795 260.4 416.635 256.84 420.235 256.84ZM444.505 271C444.705 270.84 445.065 270.76 445.105 271.04C445.225 272 445.545 273.4 445.545 273.4C445.865 273.52 446.065 273.48 446.305 273.4C447.185 272.68 448.585 272.08 451.025 271.8C451.265 271.56 451.265 270.96 451.025 270.72C448.465 270.52 448.105 269.76 448.105 267.8V249.68C448.105 247.08 448.265 245.48 448.265 245.48C448.265 245.2 448.105 245.08 447.745 245.08C446.745 245.48 443.745 246.04 442.145 246.16C442.065 246.48 442.145 247.12 442.385 247.36C442.505 247.36 442.625 247.36 442.745 247.36C444.505 247.48 444.945 247.48 444.945 250.64V255.76C444.945 256.04 444.865 256.12 444.585 256.12C444.425 256.12 442.785 255.44 441.465 255.44C438.825 255.44 437.065 256.32 435.465 257.84C433.745 259.56 432.705 261.92 432.705 264.88C432.705 269.8 435.185 273.4 439.505 273.4C441.065 273.4 442.545 272.6 444.505 271ZM444.945 268.04C444.945 268.8 444.865 269.12 444.305 269.6C442.825 270.88 441.545 271.52 440.545 271.52C438.385 271.52 436.145 269.16 436.145 264.16C436.145 261.28 436.705 259.68 437.305 258.84C438.545 256.96 440.225 256.84 441.025 256.84C442.465 256.84 443.465 257.36 444.265 258.28C444.825 258.92 444.945 259.2 444.945 260.44V268.04ZM466.819 269.28C465.339 270.8 464.179 271.44 461.859 271.44C460.419 271.44 458.739 270.6 457.499 268.56C456.699 267.24 456.219 265.4 456.219 263.08L466.859 263.16C467.339 263.16 467.619 262.92 467.619 262.48C467.619 259.12 466.419 255.52 460.859 255.52C457.379 255.52 452.859 258.84 452.859 264.92C452.859 267.16 453.419 269.32 454.739 270.84C456.099 272.44 457.979 273.4 460.859 273.4C463.899 273.4 466.059 272 467.659 269.92C467.539 269.52 467.299 269.32 466.819 269.28ZM456.339 261.72C457.099 257.2 459.899 256.84 460.859 256.84C462.379 256.84 464.179 257.68 464.179 261.04C464.179 261.4 464.019 261.6 463.579 261.6L456.339 261.72ZM473.07 268.12C473.07 271.44 472.63 271.64 470.19 271.76C469.95 272 469.95 272.84 470.19 273.08C471.59 273.04 473.07 273 474.67 273C476.27 273 477.79 273.04 479.11 273.08C479.35 272.84 479.35 272 479.11 271.76C476.67 271.64 476.23 271.44 476.23 268.12V249.68C476.23 247.08 476.39 245.48 476.39 245.48C476.39 245.2 476.23 245.08 475.87 245.08C474.87 245.48 471.87 246.04 470.27 246.16C470.19 246.48 470.27 247.12 470.51 247.36C472.83 247.52 473.07 247.64 473.07 250.64V268.12ZM481.736 267.48C481.896 269.44 482.016 271.32 482.016 273C482.416 272.92 482.816 272.88 483.016 272.88C483.296 272.88 483.536 272.88 483.816 272.96C484.896 273.24 485.976 273.4 487.456 273.4C489.696 273.4 493.816 272.32 493.816 268.36C493.816 265.64 491.856 264.04 489.136 263.04C486.736 262.12 485.136 261.52 485.136 259.32C485.136 257.68 486.576 256.76 487.936 256.76C488.816 256.76 491.136 257.08 491.656 260.48C491.896 260.72 492.696 260.68 492.936 260.44C493.056 259 493.136 257.52 493.176 256.2C491.936 256 490.016 255.44 487.936 255.44C484.976 255.44 482.296 257.36 482.296 259.92C482.296 262.84 483.616 264.08 486.696 265.36C490.016 266.72 490.776 267.56 490.776 269.28C490.776 271.24 488.856 272.08 487.376 272.08C485.816 272.08 484.936 271.56 484.536 271.12C483.656 270.2 483.216 268.44 482.976 267.44C482.736 267.2 481.976 267.24 481.736 267.48ZM499.962 250.12C499.962 248.92 501.562 247.96 503.842 247.96C506.122 247.96 507.642 250.24 507.642 252.84C507.642 254.72 507.042 255.88 505.442 257.36C502.842 259.72 502.642 262.08 502.642 263.8V265.64C502.642 265.92 502.962 266.04 503.282 266.04C503.602 266.04 503.962 265.92 503.962 265.64V263.88C503.962 262.92 504.002 261.96 504.522 260.96C504.882 260.28 505.682 259.64 506.602 258.96C508.482 257.6 510.962 255.84 510.962 252.68C510.962 249.04 508.322 246.64 504.242 246.64C502.122 246.64 500.442 247.2 499.282 248.2C498.082 249.16 497.242 250.28 497.242 251.8C497.242 253.2 498.242 253.52 498.882 253.52C499.642 253.52 500.442 253.04 500.442 252.12C500.442 251.6 500.362 251.36 500.202 251.16C500.042 250.96 499.962 250.72 499.962 250.12ZM501.162 271.28C501.162 272.44 502.122 273.4 503.282 273.4C504.442 273.4 505.402 272.44 505.402 271.28C505.402 270.12 504.442 269.16 503.282 269.16C502.122 269.16 501.162 270.12 501.162 271.28Z" fill="black"/>
<rect id="136:4" opacity="0.5" x="119" y="526" width="235" height="176" fill="#FF0000"/>
<path id="All models and first-order logic: Hilbert&#226;&#128;&#153;s Entscheidungsproblem:" d="M53.34 470.788L54.88 466.728C55.02 466.364 55.188 466.252 55.86 466.252H61.768L63.392 470.984C63.728 471.936 62.664 472.048 61.32 472.132C61.152 472.3 61.152 472.888 61.32 473.056C62.356 473.028 63.896 473 64.988 473C66.136 473 67.2 473.028 68.18 473.056C68.348 472.888 68.348 472.3 68.18 472.132C67.088 472.02 66.136 471.936 65.66 470.592L59.892 454.576C59.472 454.828 58.716 455.136 58.352 455.136L51.996 470.144C51.268 471.88 50.428 472.048 49.196 472.132C49.028 472.3 49.028 472.888 49.196 473.056C49.924 473.028 50.848 473 51.688 473C52.836 473 54.236 473.028 55.272 473.056C55.44 472.888 55.44 472.3 55.272 472.132C54.208 472.048 52.892 471.936 53.34 470.788ZM56.364 465.076C55.748 465.076 55.552 464.992 55.664 464.712L58.52 457.46H58.688L61.32 465.076H56.364ZM71.1288 469.584C71.1288 471.908 70.8208 472.048 69.1128 472.132C68.9448 472.3 68.9448 472.888 69.1128 473.056C70.0928 473.028 71.1288 473 72.2488 473C73.3688 473 74.4328 473.028 75.3568 473.056C75.5248 472.888 75.5248 472.3 75.3568 472.132C73.6488 472.048 73.3408 471.908 73.3408 469.584V456.676C73.3408 454.856 73.4528 453.736 73.4528 453.736C73.4528 453.54 73.3408 453.456 73.0888 453.456C72.3888 453.736 70.2888 454.128 69.1688 454.212C69.1128 454.436 69.1688 454.884 69.3368 455.052C70.9608 455.164 71.1288 455.248 71.1288 457.348V469.584ZM78.5116 469.584C78.5116 471.908 78.2036 472.048 76.4956 472.132C76.3276 472.3 76.3276 472.888 76.4956 473.056C77.4756 473.028 78.5116 473 79.6316 473C80.7516 473 81.8156 473.028 82.7396 473.056C82.9076 472.888 82.9076 472.3 82.7396 472.132C81.0316 472.048 80.7236 471.908 80.7236 469.584V456.676C80.7236 454.856 80.8356 453.736 80.8356 453.736C80.8356 453.54 80.7236 453.456 80.4716 453.456C79.7716 453.736 77.6716 454.128 76.5516 454.212C76.4956 454.436 76.5516 454.884 76.7196 455.052C78.3436 455.164 78.5116 455.248 78.5116 457.348V469.584ZM94.9944 462.976C94.9664 462.136 94.9104 461.128 94.7704 460.848C94.7144 460.708 94.6584 460.624 94.4344 460.624C93.6504 460.932 92.9224 461.184 90.9904 461.436C90.9344 461.604 90.9904 462.052 91.0464 462.22C92.5584 462.36 92.8664 462.5 92.8664 464.124V469.584C92.8664 471.88 92.5024 472.02 90.9624 472.132C90.7944 472.3 90.7944 472.888 90.9624 473.056C91.8024 473.028 92.8664 473 93.9864 473C95.1064 473 95.9744 473.028 96.8144 473.056C96.9824 472.888 96.9824 472.3 96.8144 472.132C95.3864 471.992 95.0784 471.88 95.0784 469.584V464.992C95.0784 464.404 95.3304 464.068 95.5544 463.816C96.6744 462.724 97.7104 462.164 98.5784 462.164C99.6424 462.164 100.426 462.836 100.426 464.712V469.584C100.426 471.88 100.202 472.02 98.6904 472.132C98.5504 472.3 98.5504 472.888 98.6904 473.056C99.3904 473.028 100.426 473 101.546 473C102.666 473 103.59 473.028 104.29 473.056C104.43 472.888 104.43 472.3 104.29 472.132C102.89 472.02 102.638 471.88 102.638 469.584V465.132C102.638 464.74 102.638 464.348 102.61 464.012C103.954 462.528 105.214 462.164 106.306 462.164C107.37 462.164 107.986 462.78 107.986 464.656V469.584C107.986 471.88 107.706 472.02 106.25 472.132C106.11 472.3 106.11 472.888 106.25 473.056C106.95 473.028 107.986 473 109.106 473C110.226 473 111.206 473.028 111.99 473.056C112.13 472.888 112.13 472.3 111.99 472.132C110.45 472.02 110.198 471.88 110.198 469.584V465.16C110.198 462.668 109.778 460.708 107.314 460.708C105.886 460.708 104.15 461.24 102.694 462.78C102.61 462.864 102.442 463.004 102.386 462.752C102.134 461.604 101.042 460.708 99.5864 460.708C97.9624 460.708 96.5064 461.66 95.3304 462.976C95.1904 463.116 95.0224 463.312 94.9944 462.976ZM113.503 467.26C113.503 470.116 115.407 473.28 119.383 473.28C121.175 473.28 122.547 472.636 123.499 471.712C124.759 470.48 125.319 468.716 125.319 467.008C125.319 464.096 123.723 460.708 119.439 460.708C117.591 460.708 116.079 461.464 115.043 462.668C114.035 463.872 113.503 465.496 113.503 467.26ZM119.019 461.688C121.427 461.688 122.911 463.872 122.911 467.904C122.911 471.432 121.091 472.3 119.775 472.3C116.863 472.3 115.911 468.772 115.911 466.616C115.911 464.18 116.499 461.688 119.019 461.688ZM136.008 471.6C136.148 471.488 136.4 471.432 136.428 471.628C136.512 472.3 136.736 473.28 136.736 473.28C136.96 473.364 137.1 473.336 137.268 473.28C137.884 472.776 138.864 472.356 140.572 472.16C140.74 471.992 140.74 471.572 140.572 471.404C138.78 471.264 138.528 470.732 138.528 469.36V456.676C138.528 454.856 138.64 453.736 138.64 453.736C138.64 453.54 138.528 453.456 138.276 453.456C137.576 453.736 135.476 454.128 134.356 454.212C134.3 454.436 134.356 454.884 134.524 455.052C134.608 455.052 134.692 455.052 134.776 455.052C136.008 455.136 136.316 455.136 136.316 457.348V460.932C136.316 461.128 136.26 461.184 136.064 461.184C135.952 461.184 134.804 460.708 133.88 460.708C132.032 460.708 130.8 461.324 129.68 462.388C128.476 463.592 127.748 465.244 127.748 467.316C127.748 470.76 129.484 473.28 132.508 473.28C133.6 473.28 134.636 472.72 136.008 471.6ZM136.316 469.528C136.316 470.06 136.26 470.284 135.868 470.62C134.832 471.516 133.936 471.964 133.236 471.964C131.724 471.964 130.156 470.312 130.156 466.812C130.156 464.796 130.548 463.676 130.968 463.088C131.836 461.772 133.012 461.688 133.572 461.688C134.58 461.688 135.28 462.052 135.84 462.696C136.232 463.144 136.316 463.34 136.316 464.208V469.528ZM151.628 470.396C150.592 471.46 149.78 471.908 148.156 471.908C147.148 471.908 145.972 471.32 145.104 469.892C144.544 468.968 144.208 467.68 144.208 466.056L151.656 466.112C151.992 466.112 152.188 465.944 152.188 465.636C152.188 463.284 151.348 460.764 147.456 460.764C145.02 460.764 141.856 463.088 141.856 467.344C141.856 468.912 142.248 470.424 143.172 471.488C144.124 472.608 145.44 473.28 147.456 473.28C149.584 473.28 151.096 472.3 152.216 470.844C152.132 470.564 151.964 470.424 151.628 470.396ZM144.292 465.104C144.824 461.94 146.784 461.688 147.456 461.688C148.52 461.688 149.78 462.276 149.78 464.628C149.78 464.88 149.668 465.02 149.36 465.02L144.292 465.104ZM156.004 469.584C156.004 471.908 155.696 472.048 153.988 472.132C153.82 472.3 153.82 472.888 153.988 473.056C154.968 473.028 156.004 473 157.124 473C158.244 473 159.308 473.028 160.232 473.056C160.4 472.888 160.4 472.3 160.232 472.132C158.524 472.048 158.216 471.908 158.216 469.584V456.676C158.216 454.856 158.328 453.736 158.328 453.736C158.328 453.54 158.216 453.456 157.964 453.456C157.264 453.736 155.164 454.128 154.044 454.212C153.988 454.436 154.044 454.884 154.212 455.052C155.836 455.164 156.004 455.248 156.004 457.348V469.584ZM162.071 469.136C162.183 470.508 162.267 471.824 162.267 473C162.547 472.944 162.827 472.916 162.967 472.916C163.163 472.916 163.331 472.916 163.527 472.972C164.283 473.168 165.039 473.28 166.075 473.28C167.643 473.28 170.527 472.524 170.527 469.752C170.527 467.848 169.155 466.728 167.251 466.028C165.571 465.384 164.451 464.964 164.451 463.424C164.451 462.276 165.459 461.632 166.411 461.632C167.027 461.632 168.651 461.856 169.015 464.236C169.183 464.404 169.743 464.376 169.911 464.208C169.995 463.2 170.051 462.164 170.079 461.24C169.211 461.1 167.867 460.708 166.411 460.708C164.339 460.708 162.463 462.052 162.463 463.844C162.463 465.888 163.387 466.756 165.543 467.652C167.867 468.604 168.399 469.192 168.399 470.396C168.399 471.768 167.055 472.356 166.019 472.356C164.927 472.356 164.311 471.992 164.031 471.684C163.415 471.04 163.107 469.808 162.939 469.108C162.771 468.94 162.239 468.968 162.071 469.136ZM186.841 471.656C187.009 472.524 187.317 473.28 188.717 473.28C189.781 473.28 190.789 472.804 191.377 472.244C191.321 471.908 191.209 471.656 190.901 471.488C190.705 471.656 190.229 471.936 189.865 471.936C189.053 471.936 189.025 470.844 189.025 469.556V465.44C189.025 461.464 186.841 460.708 184.797 460.708C182.501 460.708 180.177 462.22 180.177 463.816C180.177 464.488 180.513 464.824 181.157 464.824C181.969 464.824 182.473 464.236 182.473 463.872C182.473 463.676 182.445 463.48 182.389 463.368C182.361 463.284 182.333 463.116 182.333 462.808C182.333 461.94 183.509 461.632 184.573 461.632C185.525 461.632 186.841 462.108 186.841 465.272C186.841 465.468 186.757 465.58 186.673 465.608L184.265 466.196C181.577 466.868 179.645 468.352 179.645 470.256C179.645 472.552 181.213 473.28 183.173 473.28C184.153 473.28 184.993 473.056 186.225 472.104L186.785 471.656H186.841ZM186.841 466.476V470.172C186.841 470.536 186.673 470.732 186.449 470.9C185.721 471.488 184.769 472.132 183.985 472.132C182.585 472.132 181.969 471.012 181.969 470.144C181.969 468.884 182.557 467.596 184.629 467.064L186.841 466.476ZM196.586 462.976C196.418 463.172 196.25 463.228 196.25 462.976C196.222 462.22 196.166 461.128 196.026 460.848C195.97 460.708 195.914 460.624 195.69 460.624C194.906 460.932 194.178 461.184 192.246 461.436C192.19 461.604 192.246 462.052 192.302 462.22C193.814 462.36 194.122 462.5 194.122 464.124V469.584C194.122 471.88 193.842 471.992 192.162 472.132C191.994 472.3 191.994 472.888 192.162 473.056C193.002 473.028 194.122 473 195.242 473C196.362 473 197.202 473.028 198.042 473.056C198.21 472.888 198.21 472.3 198.042 472.132C196.614 471.992 196.334 471.88 196.334 469.584V464.992C196.334 464.404 196.586 464.068 196.81 463.816C197.874 462.78 199.134 462.164 200.226 462.164C200.786 462.164 201.374 462.528 201.71 463.172C201.99 463.732 202.046 464.488 202.046 465.328V469.584C202.046 471.88 201.766 471.992 200.31 472.132C200.17 472.3 200.17 472.888 200.31 473.056C201.15 473.028 202.046 473 203.166 473C204.286 473 205.294 473.028 206.134 473.056C206.274 472.888 206.274 472.3 206.134 472.132C204.566 471.992 204.258 471.88 204.258 469.584V465.412C204.258 463.872 204.146 462.528 203.502 461.66C203.026 461.044 202.158 460.708 201.178 460.708C199.806 460.708 198.238 461.072 196.586 462.976ZM215.961 471.6C216.101 471.488 216.353 471.432 216.381 471.628C216.465 472.3 216.689 473.28 216.689 473.28C216.913 473.364 217.053 473.336 217.221 473.28C217.837 472.776 218.817 472.356 220.525 472.16C220.693 471.992 220.693 471.572 220.525 471.404C218.733 471.264 218.481 470.732 218.481 469.36V456.676C218.481 454.856 218.593 453.736 218.593 453.736C218.593 453.54 218.481 453.456 218.229 453.456C217.529 453.736 215.429 454.128 214.309 454.212C214.253 454.436 214.309 454.884 214.477 455.052C214.561 455.052 214.645 455.052 214.729 455.052C215.961 455.136 216.269 455.136 216.269 457.348V460.932C216.269 461.128 216.213 461.184 216.017 461.184C215.905 461.184 214.757 460.708 213.833 460.708C211.985 460.708 210.753 461.324 209.633 462.388C208.429 463.592 207.701 465.244 207.701 467.316C207.701 470.76 209.437 473.28 212.461 473.28C213.553 473.28 214.589 472.72 215.961 471.6ZM216.269 469.528C216.269 470.06 216.213 470.284 215.821 470.62C214.785 471.516 213.889 471.964 213.189 471.964C211.677 471.964 210.109 470.312 210.109 466.812C210.109 464.796 210.501 463.676 210.921 463.088C211.789 461.772 212.965 461.688 213.525 461.688C214.533 461.688 215.233 462.052 215.793 462.696C216.185 463.144 216.269 463.34 216.269 464.208V469.528ZM240.933 469.584V463.676C240.933 462.584 241.045 460.792 241.045 460.792C241.045 460.68 240.877 460.624 240.765 460.624C239.925 460.96 239.113 460.988 238.133 460.988H232.617V459.392C232.617 456.732 233.569 454.408 235.473 454.408C236.677 454.408 237.629 454.716 237.853 455.864C238.133 457.264 238.721 457.684 239.589 457.684C240.205 457.684 240.793 457.124 240.793 456.536C240.793 454.8 238.413 453.456 235.809 453.456C234.521 453.456 232.981 453.96 231.833 455.304C230.657 456.676 230.405 458.384 230.405 460.568V460.988H229.033C228.529 460.988 228.389 461.324 228.389 461.548V461.912C228.389 462.052 228.417 462.08 228.529 462.08H230.405V469.584C230.405 471.908 230.097 472.02 228.585 472.132C228.417 472.3 228.417 472.888 228.585 473.056C229.537 473.028 230.545 473 231.525 473C232.505 473 233.765 473.028 234.689 473.056C234.857 472.888 234.857 472.3 234.689 472.132C232.897 472.02 232.617 471.908 232.617 469.584V462.08H237.629C238.497 462.08 238.721 462.64 238.721 464.068V469.584C238.721 471.908 238.385 472.02 236.845 472.132C236.677 472.3 236.677 472.888 236.845 473.056C237.825 473.028 238.833 473 239.841 473C240.821 473 241.913 473.028 242.949 473.056C243.117 472.888 243.117 472.3 242.949 472.132C241.241 472.02 240.933 471.908 240.933 469.584ZM248.369 462.976C248.313 461.856 248.285 461.128 248.145 460.848C248.089 460.708 248.033 460.624 247.809 460.624C247.025 460.932 246.297 461.184 244.365 461.436C244.309 461.604 244.365 462.052 244.421 462.22C245.933 462.36 246.241 462.5 246.241 464.124V469.584C246.241 471.908 245.905 472.02 244.169 472.132C244.001 472.3 244.001 472.888 244.169 473.056C245.149 473.028 246.241 473 247.361 473C248.481 473 249.769 473.028 250.749 473.056C250.917 472.888 250.917 472.3 250.749 472.132C248.789 471.992 248.453 471.908 248.453 469.584V465.692C248.453 464.964 248.789 464.32 249.125 463.816C249.433 463.368 250.077 462.444 250.413 462.444C250.665 462.444 250.917 462.5 251.141 462.808C251.337 463.088 251.673 463.452 252.149 463.452C252.821 463.452 253.465 462.752 253.465 462.052C253.465 461.52 252.961 460.708 251.785 460.708C250.469 460.708 249.321 461.94 248.677 463.032C248.509 463.34 248.369 463.116 248.369 462.976ZM255.203 469.136C255.315 470.508 255.399 471.824 255.399 473C255.679 472.944 255.959 472.916 256.099 472.916C256.295 472.916 256.463 472.916 256.659 472.972C257.415 473.168 258.171 473.28 259.207 473.28C260.775 473.28 263.659 472.524 263.659 469.752C263.659 467.848 262.287 466.728 260.383 466.028C258.703 465.384 257.583 464.964 257.583 463.424C257.583 462.276 258.591 461.632 259.543 461.632C260.159 461.632 261.783 461.856 262.147 464.236C262.315 464.404 262.875 464.376 263.043 464.208C263.127 463.2 263.183 462.164 263.211 461.24C262.343 461.1 260.999 460.708 259.543 460.708C257.471 460.708 255.595 462.052 255.595 463.844C255.595 465.888 256.519 466.756 258.675 467.652C260.999 468.604 261.531 469.192 261.531 470.396C261.531 471.768 260.187 472.356 259.151 472.356C258.059 472.356 257.443 471.992 257.163 471.684C256.547 471.04 256.239 469.808 256.071 469.108C255.903 468.94 255.371 468.968 255.203 469.136ZM265.974 460.988C265.582 460.988 265.47 461.324 265.47 461.548V461.912C265.47 462.052 265.498 462.08 265.61 462.08H267.262V470.508C267.262 472.496 268.13 473.28 269.418 473.28C270.706 473.28 272.106 472.664 273.198 471.432C273.142 471.152 272.974 470.984 272.694 470.956C271.966 471.516 271.126 471.74 270.398 471.74C269.642 471.74 269.474 470.9 269.474 469.164V462.08H272.386C272.666 462.08 273.058 461.968 273.058 461.716V461.156C273.058 461.044 272.974 460.988 272.834 460.988H269.474V459.896C269.474 458.076 269.586 456.956 269.586 456.956C269.586 456.788 269.502 456.704 269.362 456.704C269.25 456.704 268.998 456.816 268.746 456.956C268.438 457.124 268.158 457.264 267.794 457.348C267.458 457.46 267.178 457.544 267.178 457.74C267.178 458.076 267.262 457.88 267.262 460.988H265.974ZM281.217 466.756C281.581 466.756 281.973 465.972 281.973 465.636C281.973 465.356 281.861 465.076 281.581 465.076H275.449C275.113 465.076 274.749 465.72 274.749 466.224C274.749 466.504 274.917 466.756 275.169 466.756H281.217ZM284.238 467.26C284.238 470.116 286.142 473.28 290.118 473.28C291.91 473.28 293.282 472.636 294.234 471.712C295.494 470.48 296.054 468.716 296.054 467.008C296.054 464.096 294.458 460.708 290.174 460.708C288.326 460.708 286.814 461.464 285.778 462.668C284.77 463.872 284.238 465.496 284.238 467.26ZM289.754 461.688C292.162 461.688 293.646 463.872 293.646 467.904C293.646 471.432 291.826 472.3 290.51 472.3C287.598 472.3 286.646 468.772 286.646 466.616C286.646 464.18 287.234 461.688 289.754 461.688ZM302.127 462.976C302.071 461.856 302.043 461.128 301.903 460.848C301.847 460.708 301.791 460.624 301.567 460.624C300.783 460.932 300.055 461.184 298.123 461.436C298.067 461.604 298.123 462.052 298.179 462.22C299.691 462.36 299.999 462.5 299.999 464.124V469.584C299.999 471.908 299.663 472.02 297.927 472.132C297.759 472.3 297.759 472.888 297.927 473.056C298.907 473.028 299.999 473 301.119 473C302.239 473 303.527 473.028 304.507 473.056C304.675 472.888 304.675 472.3 304.507 472.132C302.547 471.992 302.211 471.908 302.211 469.584V465.692C302.211 464.964 302.547 464.32 302.883 463.816C303.191 463.368 303.835 462.444 304.171 462.444C304.423 462.444 304.675 462.5 304.899 462.808C305.095 463.088 305.431 463.452 305.907 463.452C306.579 463.452 307.223 462.752 307.223 462.052C307.223 461.52 306.719 460.708 305.543 460.708C304.227 460.708 303.079 461.94 302.435 463.032C302.267 463.34 302.127 463.116 302.127 462.976ZM316.75 471.6C316.89 471.488 317.142 471.432 317.17 471.628C317.254 472.3 317.478 473.28 317.478 473.28C317.702 473.364 317.842 473.336 318.01 473.28C318.626 472.776 319.606 472.356 321.314 472.16C321.482 471.992 321.482 471.572 321.314 471.404C319.522 471.264 319.27 470.732 319.27 469.36V456.676C319.27 454.856 319.382 453.736 319.382 453.736C319.382 453.54 319.27 453.456 319.018 453.456C318.318 453.736 316.218 454.128 315.098 454.212C315.042 454.436 315.098 454.884 315.266 455.052C315.35 455.052 315.434 455.052 315.518 455.052C316.75 455.136 317.058 455.136 317.058 457.348V460.932C317.058 461.128 317.002 461.184 316.806 461.184C316.694 461.184 315.546 460.708 314.622 460.708C312.774 460.708 311.542 461.324 310.422 462.388C309.218 463.592 308.49 465.244 308.49 467.316C308.49 470.76 310.226 473.28 313.25 473.28C314.342 473.28 315.378 472.72 316.75 471.6ZM317.058 469.528C317.058 470.06 317.002 470.284 316.61 470.62C315.574 471.516 314.678 471.964 313.978 471.964C312.466 471.964 310.898 470.312 310.898 466.812C310.898 464.796 311.29 463.676 311.71 463.088C312.578 461.772 313.754 461.688 314.314 461.688C315.322 461.688 316.022 462.052 316.582 462.696C316.974 463.144 317.058 463.34 317.058 464.208V469.528ZM332.371 470.396C331.335 471.46 330.523 471.908 328.899 471.908C327.891 471.908 326.715 471.32 325.847 469.892C325.287 468.968 324.951 467.68 324.951 466.056L332.399 466.112C332.735 466.112 332.931 465.944 332.931 465.636C332.931 463.284 332.091 460.764 328.199 460.764C325.763 460.764 322.599 463.088 322.599 467.344C322.599 468.912 322.991 470.424 323.915 471.488C324.867 472.608 326.183 473.28 328.199 473.28C330.327 473.28 331.839 472.3 332.959 470.844C332.875 470.564 332.707 470.424 332.371 470.396ZM325.035 465.104C325.567 461.94 327.527 461.688 328.199 461.688C329.263 461.688 330.523 462.276 330.523 464.628C330.523 464.88 330.411 465.02 330.103 465.02L325.035 465.104ZM339.014 462.976C338.958 461.856 338.93 461.128 338.79 460.848C338.734 460.708 338.678 460.624 338.454 460.624C337.67 460.932 336.942 461.184 335.01 461.436C334.954 461.604 335.01 462.052 335.066 462.22C336.578 462.36 336.886 462.5 336.886 464.124V469.584C336.886 471.908 336.55 472.02 334.814 472.132C334.646 472.3 334.646 472.888 334.814 473.056C335.794 473.028 336.886 473 338.006 473C339.126 473 340.414 473.028 341.394 473.056C341.562 472.888 341.562 472.3 341.394 472.132C339.434 471.992 339.098 471.908 339.098 469.584V465.692C339.098 464.964 339.434 464.32 339.77 463.816C340.078 463.368 340.722 462.444 341.058 462.444C341.31 462.444 341.562 462.5 341.786 462.808C341.982 463.088 342.318 463.452 342.794 463.452C343.466 463.452 344.11 462.752 344.11 462.052C344.11 461.52 343.606 460.708 342.43 460.708C341.114 460.708 339.966 461.94 339.322 463.032C339.154 463.34 339.014 463.116 339.014 462.976ZM354.164 469.584C354.164 471.908 353.856 472.048 352.148 472.132C351.98 472.3 351.98 472.888 352.148 473.056C353.128 473.028 354.164 473 355.284 473C356.404 473 357.468 473.028 358.392 473.056C358.56 472.888 358.56 472.3 358.392 472.132C356.684 472.048 356.376 471.908 356.376 469.584V456.676C356.376 454.856 356.488 453.736 356.488 453.736C356.488 453.54 356.376 453.456 356.124 453.456C355.424 453.736 353.324 454.128 352.204 454.212C352.148 454.436 352.204 454.884 352.372 455.052C353.996 455.164 354.164 455.248 354.164 457.348V469.584ZM360.035 467.26C360.035 470.116 361.939 473.28 365.915 473.28C367.707 473.28 369.079 472.636 370.031 471.712C371.291 470.48 371.851 468.716 371.851 467.008C371.851 464.096 370.255 460.708 365.971 460.708C364.123 460.708 362.611 461.464 361.575 462.668C360.567 463.872 360.035 465.496 360.035 467.26ZM365.551 461.688C367.959 461.688 369.443 463.872 369.443 467.904C369.443 471.432 367.623 472.3 366.307 472.3C363.395 472.3 362.443 468.772 362.443 466.616C362.443 464.18 363.031 461.688 365.551 461.688ZM385.428 462.164C385.96 462.164 386.464 461.66 386.464 461.1C386.464 460.512 385.932 460.064 385.176 460.064C384.448 460.064 383.104 460.54 382.376 461.492C382.04 461.268 381.116 460.708 379.464 460.708C376.972 460.708 374.676 462.388 374.676 464.964C374.676 466.476 375.348 467.344 376.132 468.1C375.348 468.772 374.9 469.976 374.9 470.928C374.9 471.936 375.46 472.72 376.188 473.084C374.676 473.98 373.892 475.268 373.892 476.472C373.892 478.908 376.188 479.664 378.344 479.664C382.124 479.664 386.212 477.844 386.212 474.82C386.212 473.924 385.792 473.224 384.98 472.552C383.888 471.656 381.928 471.628 380.892 471.628C380.388 471.628 379.688 471.684 379.016 471.768C378.596 471.796 378.316 471.824 378.176 471.824C377.364 471.824 376.384 471.432 376.384 470.228C376.384 469.668 376.552 469.08 376.888 468.604C377.56 468.996 378.344 469.192 379.436 469.192C381.9 469.192 384.168 467.652 384.168 464.908C384.168 463.592 383.776 462.836 382.964 461.996C383.16 461.716 383.72 461.324 384.084 461.324C384.28 461.324 384.476 461.408 384.644 461.66C384.756 461.884 385.12 462.164 385.428 462.164ZM376.692 473.28C377 473.364 377.448 473.42 377.812 473.42C378.68 473.42 379.464 473.336 379.856 473.336C381.256 473.336 382.432 473.364 383.244 473.812C384.336 474.428 384.672 474.82 384.672 475.548C384.672 477.564 381.704 478.628 379.184 478.628C378.176 478.628 375.824 477.816 375.824 475.912C375.824 474.96 375.88 474.26 376.692 473.28ZM381.928 465.188C381.928 467.792 380.612 468.324 379.576 468.324C377.224 468.324 376.972 466.336 376.972 464.544C376.972 462.584 377.672 461.576 379.212 461.576C380.976 461.576 381.928 462.864 381.928 465.188ZM392.064 469.584V464.012C392.064 462.612 392.176 460.82 392.176 460.82C392.176 460.708 392.036 460.624 391.812 460.624C391.028 460.932 389.908 461.184 387.976 461.436C387.92 461.604 387.976 462.052 388.032 462.22C389.572 462.36 389.852 462.528 389.852 464.124V469.584C389.852 471.908 389.544 471.992 387.836 472.132C387.668 472.3 387.668 472.888 387.836 473.056C388.76 473.028 389.852 473 390.972 473C392.092 473 393.156 473.028 394.08 473.056C394.248 472.888 394.248 472.3 394.08 472.132C392.372 472.02 392.064 471.908 392.064 469.584ZM389.516 456.228C389.516 456.956 390.188 457.684 390.86 457.684C391.644 457.684 392.316 456.928 392.316 456.34C392.316 455.668 391.728 454.884 390.972 454.884C390.3 454.884 389.516 455.556 389.516 456.228ZM405.742 470.452C405.63 470.2 405.406 470.088 405.154 470.06C404.202 471.292 402.998 471.908 401.794 471.908C399.75 471.908 398.042 469.836 398.042 466.56C398.042 463.48 399.386 461.632 401.234 461.632C402.886 461.632 403.11 462.612 403.222 463.592C403.306 464.348 403.698 464.6 404.286 464.6C404.874 464.6 405.658 464.236 405.658 463.368C405.658 461.828 404.062 460.708 401.374 460.708C398.602 460.708 395.634 463.2 395.634 467.176C395.634 470.788 397.65 473.28 401.178 473.28C402.858 473.28 404.342 472.748 405.742 470.452ZM408.534 471.32C408.534 472.132 409.206 472.804 410.018 472.804C410.83 472.804 411.502 472.132 411.502 471.32C411.502 470.508 410.83 469.836 410.018 469.836C409.206 469.836 408.534 470.508 408.534 471.32ZM408.534 462.976C408.534 463.788 409.206 464.46 410.018 464.46C410.83 464.46 411.502 463.788 411.502 462.976C411.502 462.164 410.83 461.492 410.018 461.492C409.206 461.492 408.534 462.164 408.534 462.976ZM66.304 501.584V490.356C66.304 488.032 66.78 487.892 68.74 487.808C68.908 487.64 68.908 487.052 68.74 486.884C67.592 486.912 66.164 486.94 65.1 486.94C64.064 486.94 62.72 486.912 61.488 486.884C61.32 487.052 61.32 487.64 61.488 487.808C63.448 487.892 63.924 488.032 63.924 490.356V494.836H54.348V490.356C54.348 488.032 54.824 487.892 56.784 487.808C56.952 487.64 56.952 487.052 56.784 486.884C55.72 486.912 54.572 486.94 53.144 486.94C51.744 486.94 50.596 486.912 49.532 486.884C49.364 487.052 49.364 487.64 49.532 487.808C51.492 487.892 51.968 488.032 51.968 490.356V501.584C51.968 503.908 51.492 504.048 49.532 504.132C49.364 504.3 49.364 504.888 49.532 505.056C50.764 505.028 52.108 505 53.172 505C54.18 505 55.552 505.028 56.784 505.056C56.952 504.888 56.952 504.3 56.784 504.132C54.824 504.048 54.348 503.908 54.348 501.584V496.012H63.924V501.584C63.924 503.908 63.448 504.048 61.488 504.132C61.32 504.3 61.32 504.888 61.488 505.056C62.748 505.028 64.092 505 65.128 505C66.164 505 67.508 505.028 68.74 505.056C68.908 504.888 68.908 504.3 68.74 504.132C66.78 504.048 66.304 503.908 66.304 501.584ZM74.5211 501.584V496.012C74.5211 494.612 74.6331 492.82 74.6331 492.82C74.6331 492.708 74.4931 492.624 74.2691 492.624C73.4851 492.932 72.3651 493.184 70.4331 493.436C70.3771 493.604 70.4331 494.052 70.4891 494.22C72.0291 494.36 72.3091 494.528 72.3091 496.124V501.584C72.3091 503.908 72.0011 503.992 70.2931 504.132C70.1251 504.3 70.1251 504.888 70.2931 505.056C71.2171 505.028 72.3091 505 73.4291 505C74.5491 505 75.6131 505.028 76.5371 505.056C76.7051 504.888 76.7051 504.3 76.5371 504.132C74.8291 504.02 74.5211 503.908 74.5211 501.584ZM71.9731 488.228C71.9731 488.956 72.6451 489.684 73.3171 489.684C74.1011 489.684 74.7731 488.928 74.7731 488.34C74.7731 487.668 74.1851 486.884 73.4291 486.884C72.7571 486.884 71.9731 487.556 71.9731 488.228ZM79.7147 501.584C79.7147 503.908 79.4067 504.048 77.6987 504.132C77.5307 504.3 77.5307 504.888 77.6987 505.056C78.6787 505.028 79.7147 505 80.8347 505C81.9547 505 83.0187 505.028 83.9427 505.056C84.1107 504.888 84.1107 504.3 83.9427 504.132C82.2347 504.048 81.9267 503.908 81.9267 501.584V488.676C81.9267 486.856 82.0387 485.736 82.0387 485.736C82.0387 485.54 81.9267 485.456 81.6747 485.456C80.9747 485.736 78.8747 486.128 77.7547 486.212C77.6987 486.436 77.7547 486.884 77.9227 487.052C79.5467 487.164 79.7147 487.248 79.7147 489.348V501.584ZM89.1135 493.968C88.9455 494.136 88.8335 494.08 88.8335 493.828V488.676C88.8335 486.856 88.9455 485.736 88.9455 485.736C88.9455 485.54 88.8335 485.456 88.5815 485.456C87.8815 485.736 85.7815 486.128 84.6615 486.212C84.6055 486.436 84.6615 486.884 84.8295 487.052C84.9135 487.052 84.9975 487.052 85.0815 487.052C86.3135 487.136 86.6215 487.136 86.6215 489.348V503.012C86.6215 504.104 86.5935 504.608 86.5095 505C86.6495 505.224 86.7895 505.336 87.1255 505.336C87.2935 505.168 87.5735 504.916 87.7975 504.664C88.0775 504.328 88.2455 504.328 88.5535 504.58C89.1975 505.112 90.0375 505.28 91.0175 505.28C93.8735 505.28 97.2055 502.676 97.2055 498.224C97.2055 494.808 94.6855 492.708 92.2495 492.708C91.0455 492.708 89.9815 493.184 89.1135 493.968ZM89.3095 494.836C90.0375 494.192 90.8775 493.94 91.6895 493.94C93.3975 493.94 94.7975 496.012 94.7975 498.728C94.7975 501.92 93.5095 504.328 90.8495 504.328C89.9815 504.328 89.3935 503.712 88.8335 503.012V496.012C88.8335 495.424 88.9455 495.144 89.3095 494.836ZM109.328 502.396C108.292 503.46 107.48 503.908 105.856 503.908C104.848 503.908 103.672 503.32 102.804 501.892C102.244 500.968 101.908 499.68 101.908 498.056L109.356 498.112C109.692 498.112 109.888 497.944 109.888 497.636C109.888 495.284 109.048 492.764 105.156 492.764C102.72 492.764 99.5555 495.088 99.5555 499.344C99.5555 500.912 99.9475 502.424 100.872 503.488C101.824 504.608 103.14 505.28 105.156 505.28C107.284 505.28 108.796 504.3 109.916 502.844C109.832 502.564 109.664 502.424 109.328 502.396ZM101.992 497.104C102.524 493.94 104.484 493.688 105.156 493.688C106.22 493.688 107.48 494.276 107.48 496.628C107.48 496.88 107.368 497.02 107.06 497.02L101.992 497.104ZM115.971 494.976C115.915 493.856 115.887 493.128 115.747 492.848C115.691 492.708 115.635 492.624 115.411 492.624C114.627 492.932 113.899 493.184 111.967 493.436C111.911 493.604 111.967 494.052 112.023 494.22C113.535 494.36 113.843 494.5 113.843 496.124V501.584C113.843 503.908 113.507 504.02 111.771 504.132C111.603 504.3 111.603 504.888 111.771 505.056C112.751 505.028 113.843 505 114.963 505C116.083 505 117.371 505.028 118.351 505.056C118.519 504.888 118.519 504.3 118.351 504.132C116.391 503.992 116.055 503.908 116.055 501.584V497.692C116.055 496.964 116.391 496.32 116.727 495.816C117.035 495.368 117.679 494.444 118.015 494.444C118.267 494.444 118.519 494.5 118.743 494.808C118.939 495.088 119.275 495.452 119.751 495.452C120.423 495.452 121.067 494.752 121.067 494.052C121.067 493.52 120.563 492.708 119.387 492.708C118.071 492.708 116.923 493.94 116.279 495.032C116.111 495.34 115.971 495.116 115.971 494.976ZM122.665 492.988C122.273 492.988 122.161 493.324 122.161 493.548V493.912C122.161 494.052 122.189 494.08 122.301 494.08H123.953V502.508C123.953 504.496 124.821 505.28 126.109 505.28C127.397 505.28 128.797 504.664 129.889 503.432C129.833 503.152 129.665 502.984 129.385 502.956C128.657 503.516 127.817 503.74 127.089 503.74C126.333 503.74 126.165 502.9 126.165 501.164V494.08H129.077C129.357 494.08 129.749 493.968 129.749 493.716V493.156C129.749 493.044 129.665 492.988 129.525 492.988H126.165V491.896C126.165 490.076 126.277 488.956 126.277 488.956C126.277 488.788 126.193 488.704 126.053 488.704C125.941 488.704 125.689 488.816 125.437 488.956C125.129 489.124 124.849 489.264 124.485 489.348C124.149 489.46 123.869 489.544 123.869 489.74C123.869 490.076 123.953 489.88 123.953 492.988H122.665ZM133.932 485.456C133.064 485.456 132.448 486.044 132.448 486.828C132.448 487.696 133.176 487.976 133.68 488.06C134.212 488.116 134.688 488.284 134.688 488.928C134.688 489.516 133.68 490.804 132.224 491.168C132.224 491.448 132.28 491.644 132.476 491.84C134.156 491.532 135.78 490.188 135.78 488.228C135.78 486.548 135.052 485.456 133.932 485.456ZM139.157 501.136C139.269 502.508 139.353 503.824 139.353 505C139.633 504.944 139.913 504.916 140.053 504.916C140.249 504.916 140.417 504.916 140.613 504.972C141.369 505.168 142.125 505.28 143.161 505.28C144.729 505.28 147.613 504.524 147.613 501.752C147.613 499.848 146.241 498.728 144.337 498.028C142.657 497.384 141.537 496.964 141.537 495.424C141.537 494.276 142.545 493.632 143.497 493.632C144.113 493.632 145.737 493.856 146.101 496.236C146.269 496.404 146.829 496.376 146.997 496.208C147.081 495.2 147.137 494.164 147.165 493.24C146.297 493.1 144.953 492.708 143.497 492.708C141.425 492.708 139.549 494.052 139.549 495.844C139.549 497.888 140.473 498.756 142.629 499.652C144.953 500.604 145.485 501.192 145.485 502.396C145.485 503.768 144.141 504.356 143.105 504.356C142.013 504.356 141.397 503.992 141.117 503.684C140.501 503.04 140.193 501.808 140.025 501.108C139.857 500.94 139.325 500.968 139.157 501.136ZM163.591 494.892H161.043V489.852C161.043 488.62 161.379 488.06 162.891 488.06H164.991C167.091 488.06 167.539 489.18 168.155 491.112C168.491 491.168 168.799 491.112 169.079 490.972C168.939 489.824 168.519 487.136 168.463 486.912C168.463 486.856 168.435 486.828 168.351 486.828C167.875 486.912 167.651 486.94 166.979 486.94H159.839C158.999 486.94 157.347 486.912 156.227 486.884C156.059 487.052 156.059 487.64 156.227 487.808C158.187 487.892 158.663 488.032 158.663 490.356V501.584C158.663 503.908 158.187 504.048 156.227 504.132C156.059 504.3 156.059 504.888 156.227 505.056C157.263 505.028 158.943 505 159.867 505H165.887C167.231 505 169.471 505.056 169.471 505.056C169.863 503.656 170.283 501.808 170.507 500.38C170.227 500.212 169.891 500.156 169.527 500.24C168.967 502.256 167.987 503.908 165.859 503.908H162.611C161.435 503.908 161.043 503.46 161.043 502.144V495.956H163.591C165.971 495.956 166.055 496.6 166.139 497.86C166.307 498.028 166.895 498.028 167.063 497.86C167.035 497.132 167.007 496.348 167.007 495.396C167.007 494.612 167.035 493.66 167.063 492.988C166.895 492.82 166.307 492.82 166.139 492.988C166.055 494.528 165.971 494.892 163.591 494.892ZM176.461 494.976C176.293 495.172 176.125 495.228 176.125 494.976C176.097 494.22 176.041 493.128 175.901 492.848C175.845 492.708 175.789 492.624 175.565 492.624C174.781 492.932 174.053 493.184 172.121 493.436C172.065 493.604 172.121 494.052 172.177 494.22C173.689 494.36 173.997 494.5 173.997 496.124V501.584C173.997 503.88 173.717 503.992 172.037 504.132C171.869 504.3 171.869 504.888 172.037 505.056C172.877 505.028 173.997 505 175.117 505C176.237 505 177.077 505.028 177.917 505.056C178.085 504.888 178.085 504.3 177.917 504.132C176.489 503.992 176.209 503.88 176.209 501.584V496.992C176.209 496.404 176.461 496.068 176.685 495.816C177.749 494.78 179.009 494.164 180.101 494.164C180.661 494.164 181.249 494.528 181.585 495.172C181.865 495.732 181.921 496.488 181.921 497.328V501.584C181.921 503.88 181.641 503.992 180.185 504.132C180.045 504.3 180.045 504.888 180.185 505.056C181.025 505.028 181.921 505 183.041 505C184.161 505 185.169 505.028 186.009 505.056C186.149 504.888 186.149 504.3 186.009 504.132C184.441 503.992 184.133 503.88 184.133 501.584V497.412C184.133 495.872 184.021 494.528 183.377 493.66C182.901 493.044 182.033 492.708 181.053 492.708C179.681 492.708 178.113 493.072 176.461 494.976ZM187.688 492.988C187.296 492.988 187.184 493.324 187.184 493.548V493.912C187.184 494.052 187.212 494.08 187.324 494.08H188.976V502.508C188.976 504.496 189.844 505.28 191.132 505.28C192.42 505.28 193.82 504.664 194.912 503.432C194.856 503.152 194.688 502.984 194.408 502.956C193.68 503.516 192.84 503.74 192.112 503.74C191.356 503.74 191.188 502.9 191.188 501.164V494.08H194.1C194.38 494.08 194.772 493.968 194.772 493.716V493.156C194.772 493.044 194.688 492.988 194.548 492.988H191.188V491.896C191.188 490.076 191.3 488.956 191.3 488.956C191.3 488.788 191.216 488.704 191.076 488.704C190.964 488.704 190.712 488.816 190.46 488.956C190.152 489.124 189.872 489.264 189.508 489.348C189.172 489.46 188.892 489.544 188.892 489.74C188.892 490.076 188.976 489.88 188.976 492.988H187.688ZM196.688 501.136C196.8 502.508 196.884 503.824 196.884 505C197.164 504.944 197.444 504.916 197.584 504.916C197.78 504.916 197.948 504.916 198.144 504.972C198.9 505.168 199.656 505.28 200.692 505.28C202.26 505.28 205.144 504.524 205.144 501.752C205.144 499.848 203.772 498.728 201.868 498.028C200.188 497.384 199.068 496.964 199.068 495.424C199.068 494.276 200.076 493.632 201.028 493.632C201.644 493.632 203.268 493.856 203.632 496.236C203.8 496.404 204.36 496.376 204.528 496.208C204.612 495.2 204.668 494.164 204.696 493.24C203.828 493.1 202.484 492.708 201.028 492.708C198.956 492.708 197.08 494.052 197.08 495.844C197.08 497.888 198.004 498.756 200.16 499.652C202.484 500.604 203.016 501.192 203.016 502.396C203.016 503.768 201.672 504.356 200.636 504.356C199.544 504.356 198.928 503.992 198.648 503.684C198.032 503.04 197.724 501.808 197.556 501.108C197.388 500.94 196.856 500.968 196.688 501.136ZM217.398 502.452C217.286 502.2 217.062 502.088 216.81 502.06C215.858 503.292 214.654 503.908 213.45 503.908C211.406 503.908 209.698 501.836 209.698 498.56C209.698 495.48 211.042 493.632 212.89 493.632C214.542 493.632 214.766 494.612 214.878 495.592C214.962 496.348 215.354 496.6 215.942 496.6C216.53 496.6 217.314 496.236 217.314 495.368C217.314 493.828 215.718 492.708 213.03 492.708C210.258 492.708 207.29 495.2 207.29 499.176C207.29 502.788 209.306 505.28 212.834 505.28C214.514 505.28 215.998 504.748 217.398 502.452ZM222.906 496.992C222.906 496.404 223.158 496.068 223.382 495.816C224.446 494.78 225.874 494.164 226.966 494.164C227.526 494.164 228.114 494.528 228.45 495.172C228.73 495.732 228.786 496.488 228.786 497.328V501.584C228.786 503.88 228.506 503.992 227.05 504.132C226.91 504.3 226.91 504.888 227.05 505.056C227.834 505.028 228.786 505 229.906 505C231.026 505 231.95 505.028 232.874 505.056C233.014 504.888 233.014 504.3 232.874 504.132C231.306 503.992 230.998 503.88 230.998 501.584V497.412C230.998 495.872 230.886 494.5 230.242 493.66C229.766 493.044 228.898 492.708 227.918 492.708C226.546 492.708 224.866 493.072 223.158 494.976C223.158 495.004 223.13 495.004 223.102 495.032C223.018 495.144 222.878 495.312 222.878 494.976L222.906 488.676C222.906 486.856 223.018 485.736 223.018 485.736C223.018 485.54 222.906 485.456 222.654 485.456C221.954 485.736 219.854 486.128 218.734 486.212C218.678 486.436 218.734 486.884 218.902 487.052C218.986 487.052 219.07 487.052 219.154 487.052C220.386 487.136 220.694 487.136 220.694 489.348V501.584C220.694 503.908 220.358 504.02 218.734 504.132C218.566 504.3 218.566 504.888 218.734 505.056C219.658 505.028 220.694 505 221.814 505C222.878 505 223.802 505.028 224.586 505.056C224.754 504.888 224.754 504.3 224.586 504.132C223.158 504.02 222.906 503.908 222.906 501.584V496.992ZM244.105 502.396C243.069 503.46 242.257 503.908 240.633 503.908C239.625 503.908 238.449 503.32 237.581 501.892C237.021 500.968 236.685 499.68 236.685 498.056L244.133 498.112C244.469 498.112 244.665 497.944 244.665 497.636C244.665 495.284 243.825 492.764 239.933 492.764C237.497 492.764 234.333 495.088 234.333 499.344C234.333 500.912 234.725 502.424 235.649 503.488C236.601 504.608 237.917 505.28 239.933 505.28C242.061 505.28 243.573 504.3 244.693 502.844C244.609 502.564 244.441 502.424 244.105 502.396ZM236.769 497.104C237.301 493.94 239.261 493.688 239.933 493.688C240.997 493.688 242.257 494.276 242.257 496.628C242.257 496.88 242.145 497.02 241.837 497.02L236.769 497.104ZM250.888 501.584V496.012C250.888 494.612 251 492.82 251 492.82C251 492.708 250.86 492.624 250.636 492.624C249.852 492.932 248.732 493.184 246.8 493.436C246.744 493.604 246.8 494.052 246.856 494.22C248.396 494.36 248.676 494.528 248.676 496.124V501.584C248.676 503.908 248.368 503.992 246.66 504.132C246.492 504.3 246.492 504.888 246.66 505.056C247.584 505.028 248.676 505 249.796 505C250.916 505 251.98 505.028 252.904 505.056C253.072 504.888 253.072 504.3 252.904 504.132C251.196 504.02 250.888 503.908 250.888 501.584ZM248.34 488.228C248.34 488.956 249.012 489.684 249.684 489.684C250.468 489.684 251.14 488.928 251.14 488.34C251.14 487.668 250.552 486.884 249.796 486.884C249.124 486.884 248.34 487.556 248.34 488.228ZM262.774 503.6C262.914 503.488 263.166 503.432 263.194 503.628C263.278 504.3 263.502 505.28 263.502 505.28C263.726 505.364 263.866 505.336 264.034 505.28C264.65 504.776 265.63 504.356 267.338 504.16C267.506 503.992 267.506 503.572 267.338 503.404C265.546 503.264 265.294 502.732 265.294 501.36V488.676C265.294 486.856 265.406 485.736 265.406 485.736C265.406 485.54 265.294 485.456 265.042 485.456C264.342 485.736 262.242 486.128 261.122 486.212C261.066 486.436 261.122 486.884 261.29 487.052C261.374 487.052 261.458 487.052 261.542 487.052C262.774 487.136 263.082 487.136 263.082 489.348V492.932C263.082 493.128 263.026 493.184 262.83 493.184C262.718 493.184 261.57 492.708 260.646 492.708C258.798 492.708 257.566 493.324 256.446 494.388C255.242 495.592 254.514 497.244 254.514 499.316C254.514 502.76 256.25 505.28 259.274 505.28C260.366 505.28 261.402 504.72 262.774 503.6ZM263.082 501.528C263.082 502.06 263.026 502.284 262.634 502.62C261.598 503.516 260.702 503.964 260.002 503.964C258.49 503.964 256.922 502.312 256.922 498.812C256.922 496.796 257.314 495.676 257.734 495.088C258.602 493.772 259.778 493.688 260.338 493.688C261.346 493.688 262.046 494.052 262.606 494.696C262.998 495.144 263.082 495.34 263.082 496.208V501.528ZM273.662 505.28C274.754 505.28 276.07 504.72 277.442 503.6C277.582 503.488 277.834 503.432 277.862 503.628C277.946 504.328 278.17 505.28 278.17 505.28C278.394 505.364 278.534 505.336 278.702 505.28C279.318 504.776 280.298 504.356 282.006 504.16C282.174 503.992 282.174 503.572 282.006 503.404C280.214 503.264 279.962 502.732 279.962 501.36V495.984C279.962 495.144 280.074 493.1 280.074 493.1C280.074 493.016 279.99 492.932 279.85 492.932C279.71 492.96 279.29 492.988 278.87 492.988C277.974 492.988 276.966 492.96 276.014 492.932C275.846 493.1 275.846 493.688 276.014 493.856C277.386 493.94 277.75 494.276 277.75 496.124V501.528C277.75 502.06 277.694 502.284 277.302 502.62C276.266 503.516 275.202 503.964 274.502 503.964C273.662 503.964 272.262 503.572 272.262 501.08V495.984C272.262 495.144 272.374 493.1 272.374 493.1C272.374 493.016 272.29 492.932 272.15 492.932C272.01 492.96 271.59 492.988 271.17 492.988C270.274 492.988 269.266 492.96 268.314 492.932C268.146 493.1 268.146 493.688 268.314 493.856C269.658 493.968 270.05 494.276 270.05 496.096V501.472C270.05 503.404 270.89 505.28 273.662 505.28ZM287.613 494.976C287.445 495.172 287.277 495.228 287.277 494.976C287.249 494.22 287.193 493.128 287.053 492.848C286.997 492.708 286.941 492.624 286.717 492.624C285.933 492.932 285.205 493.184 283.273 493.436C283.217 493.604 283.273 494.052 283.329 494.22C284.841 494.36 285.149 494.5 285.149 496.124V501.584C285.149 503.88 284.869 503.992 283.189 504.132C283.021 504.3 283.021 504.888 283.189 505.056C284.029 505.028 285.149 505 286.269 505C287.389 505 288.229 505.028 289.069 505.056C289.237 504.888 289.237 504.3 289.069 504.132C287.641 503.992 287.361 503.88 287.361 501.584V496.992C287.361 496.404 287.613 496.068 287.837 495.816C288.901 494.78 290.161 494.164 291.253 494.164C291.813 494.164 292.401 494.528 292.737 495.172C293.017 495.732 293.073 496.488 293.073 497.328V501.584C293.073 503.88 292.793 503.992 291.337 504.132C291.197 504.3 291.197 504.888 291.337 505.056C292.177 505.028 293.073 505 294.193 505C295.313 505 296.321 505.028 297.161 505.056C297.301 504.888 297.301 504.3 297.161 504.132C295.593 503.992 295.285 503.88 295.285 501.584V497.412C295.285 495.872 295.173 494.528 294.529 493.66C294.053 493.044 293.185 492.708 292.205 492.708C290.833 492.708 289.265 493.072 287.613 494.976ZM310.069 494.164C310.601 494.164 311.105 493.66 311.105 493.1C311.105 492.512 310.573 492.064 309.817 492.064C309.089 492.064 307.745 492.54 307.017 493.492C306.681 493.268 305.757 492.708 304.105 492.708C301.613 492.708 299.317 494.388 299.317 496.964C299.317 498.476 299.989 499.344 300.773 500.1C299.989 500.772 299.541 501.976 299.541 502.928C299.541 503.936 300.101 504.72 300.829 505.084C299.317 505.98 298.533 507.268 298.533 508.472C298.533 510.908 300.829 511.664 302.985 511.664C306.765 511.664 310.853 509.844 310.853 506.82C310.853 505.924 310.433 505.224 309.621 504.552C308.529 503.656 306.569 503.628 305.533 503.628C305.029 503.628 304.329 503.684 303.657 503.768C303.237 503.796 302.957 503.824 302.817 503.824C302.005 503.824 301.025 503.432 301.025 502.228C301.025 501.668 301.193 501.08 301.529 500.604C302.201 500.996 302.985 501.192 304.077 501.192C306.541 501.192 308.809 499.652 308.809 496.908C308.809 495.592 308.417 494.836 307.605 493.996C307.801 493.716 308.361 493.324 308.725 493.324C308.921 493.324 309.117 493.408 309.285 493.66C309.397 493.884 309.761 494.164 310.069 494.164ZM301.333 505.28C301.641 505.364 302.089 505.42 302.453 505.42C303.321 505.42 304.105 505.336 304.497 505.336C305.897 505.336 307.073 505.364 307.885 505.812C308.977 506.428 309.313 506.82 309.313 507.548C309.313 509.564 306.345 510.628 303.825 510.628C302.817 510.628 300.465 509.816 300.465 507.912C300.465 506.96 300.521 506.26 301.333 505.28ZM306.569 497.188C306.569 499.792 305.253 500.324 304.217 500.324C301.865 500.324 301.613 498.336 301.613 496.544C301.613 494.584 302.313 493.576 303.853 493.576C305.617 493.576 306.569 494.864 306.569 497.188ZM312.981 501.136C313.093 502.508 313.177 503.824 313.177 505C313.457 504.944 313.737 504.916 313.877 504.916C314.073 504.916 314.241 504.916 314.437 504.972C315.193 505.168 315.949 505.28 316.985 505.28C318.553 505.28 321.437 504.524 321.437 501.752C321.437 499.848 320.065 498.728 318.161 498.028C316.481 497.384 315.361 496.964 315.361 495.424C315.361 494.276 316.369 493.632 317.321 493.632C317.937 493.632 319.561 493.856 319.925 496.236C320.093 496.404 320.653 496.376 320.821 496.208C320.905 495.2 320.961 494.164 320.989 493.24C320.121 493.1 318.777 492.708 317.321 492.708C315.249 492.708 313.373 494.052 313.373 495.844C313.373 497.888 314.297 498.756 316.453 499.652C318.777 500.604 319.309 501.192 319.309 502.396C319.309 503.768 317.965 504.356 316.929 504.356C315.837 504.356 315.221 503.992 314.941 503.684C314.325 503.04 314.017 501.808 313.849 501.108C313.681 500.94 313.149 500.968 312.981 501.136ZM326.915 494.696C326.887 493.856 326.831 493.128 326.691 492.848C326.635 492.708 326.579 492.624 326.355 492.624C325.571 492.932 324.843 493.184 322.911 493.436C322.855 493.604 322.911 494.052 322.967 494.22C324.479 494.36 324.787 494.5 324.787 496.124V508.08C324.787 510.404 324.479 510.544 322.771 510.628C322.603 510.796 322.603 511.384 322.771 511.552C323.751 511.524 324.787 511.496 325.907 511.496C327.027 511.496 328.371 511.524 329.295 511.552C329.463 511.384 329.463 510.796 329.295 510.628C327.307 510.516 326.999 510.404 326.999 508.08V505.056C326.999 504.692 327.111 504.72 327.391 504.832C328.091 505.112 328.931 505.28 329.827 505.28C331.395 505.28 332.795 504.804 333.943 503.712C335.259 502.424 336.015 500.688 336.015 498.42C336.015 495.452 333.915 492.708 331.059 492.708C329.771 492.708 328.343 493.548 327.223 494.808C327.055 494.976 326.943 494.976 326.915 494.696ZM327.447 495.732C328.175 494.836 329.463 493.996 330.275 493.996C332.067 493.996 333.607 496.012 333.607 499.176C333.607 501.472 332.795 504.328 329.659 504.328C329.155 504.328 328.175 504.188 327.671 503.74C327.111 503.236 326.999 503.068 326.999 502.06V496.964C326.999 496.376 327.111 496.124 327.447 495.732ZM341.994 494.976C341.938 493.856 341.91 493.128 341.77 492.848C341.714 492.708 341.658 492.624 341.434 492.624C340.65 492.932 339.922 493.184 337.99 493.436C337.934 493.604 337.99 494.052 338.046 494.22C339.558 494.36 339.866 494.5 339.866 496.124V501.584C339.866 503.908 339.53 504.02 337.794 504.132C337.626 504.3 337.626 504.888 337.794 505.056C338.774 505.028 339.866 505 340.986 505C342.106 505 343.394 505.028 344.374 505.056C344.542 504.888 344.542 504.3 344.374 504.132C342.414 503.992 342.078 503.908 342.078 501.584V497.692C342.078 496.964 342.414 496.32 342.75 495.816C343.058 495.368 343.702 494.444 344.038 494.444C344.29 494.444 344.542 494.5 344.766 494.808C344.962 495.088 345.298 495.452 345.774 495.452C346.446 495.452 347.09 494.752 347.09 494.052C347.09 493.52 346.586 492.708 345.41 492.708C344.094 492.708 342.946 493.94 342.302 495.032C342.134 495.34 341.994 495.116 341.994 494.976ZM348.414 499.26C348.414 502.116 350.318 505.28 354.294 505.28C356.086 505.28 357.458 504.636 358.41 503.712C359.67 502.48 360.23 500.716 360.23 499.008C360.23 496.096 358.634 492.708 354.35 492.708C352.502 492.708 350.99 493.464 349.954 494.668C348.946 495.872 348.414 497.496 348.414 499.26ZM353.93 493.688C356.338 493.688 357.822 495.872 357.822 499.904C357.822 503.432 356.002 504.3 354.686 504.3C351.774 504.3 350.822 500.772 350.822 498.616C350.822 496.18 351.41 493.688 353.93 493.688ZM366.051 493.968C365.883 494.136 365.771 494.08 365.771 493.828V488.676C365.771 486.856 365.883 485.736 365.883 485.736C365.883 485.54 365.771 485.456 365.519 485.456C364.819 485.736 362.719 486.128 361.599 486.212C361.543 486.436 361.599 486.884 361.767 487.052C361.851 487.052 361.935 487.052 362.019 487.052C363.251 487.136 363.559 487.136 363.559 489.348V503.012C363.559 504.104 363.531 504.608 363.447 505C363.587 505.224 363.727 505.336 364.063 505.336C364.231 505.168 364.511 504.916 364.735 504.664C365.015 504.328 365.183 504.328 365.491 504.58C366.135 505.112 366.975 505.28 367.955 505.28C370.811 505.28 374.143 502.676 374.143 498.224C374.143 494.808 371.623 492.708 369.187 492.708C367.983 492.708 366.919 493.184 366.051 493.968ZM366.247 494.836C366.975 494.192 367.815 493.94 368.627 493.94C370.335 493.94 371.735 496.012 371.735 498.728C371.735 501.92 370.447 504.328 367.787 504.328C366.919 504.328 366.331 503.712 365.771 503.012V496.012C365.771 495.424 365.883 495.144 366.247 494.836ZM377.844 501.584C377.844 503.908 377.536 504.048 375.828 504.132C375.66 504.3 375.66 504.888 375.828 505.056C376.808 505.028 377.844 505 378.964 505C380.084 505 381.148 505.028 382.072 505.056C382.24 504.888 382.24 504.3 382.072 504.132C380.364 504.048 380.056 503.908 380.056 501.584V488.676C380.056 486.856 380.168 485.736 380.168 485.736C380.168 485.54 380.056 485.456 379.804 485.456C379.104 485.736 377.004 486.128 375.884 486.212C375.828 486.436 375.884 486.884 376.052 487.052C377.676 487.164 377.844 487.248 377.844 489.348V501.584ZM393.374 502.396C392.338 503.46 391.526 503.908 389.902 503.908C388.894 503.908 387.718 503.32 386.85 501.892C386.29 500.968 385.954 499.68 385.954 498.056L393.402 498.112C393.738 498.112 393.934 497.944 393.934 497.636C393.934 495.284 393.094 492.764 389.202 492.764C386.766 492.764 383.602 495.088 383.602 499.344C383.602 500.912 383.994 502.424 384.918 503.488C385.87 504.608 387.186 505.28 389.202 505.28C391.33 505.28 392.842 504.3 393.962 502.844C393.878 502.564 393.71 502.424 393.374 502.396ZM386.038 497.104C386.57 493.94 388.53 493.688 389.202 493.688C390.266 493.688 391.526 494.276 391.526 496.628C391.526 496.88 391.414 497.02 391.106 497.02L386.038 497.104ZM399.85 494.976C399.822 494.136 399.766 493.128 399.626 492.848C399.57 492.708 399.514 492.624 399.29 492.624C398.506 492.932 397.778 493.184 395.846 493.436C395.79 493.604 395.846 494.052 395.902 494.22C397.414 494.36 397.722 494.5 397.722 496.124V501.584C397.722 503.88 397.358 504.02 395.818 504.132C395.65 504.3 395.65 504.888 395.818 505.056C396.658 505.028 397.722 505 398.842 505C399.962 505 400.83 505.028 401.67 505.056C401.838 504.888 401.838 504.3 401.67 504.132C400.242 503.992 399.934 503.88 399.934 501.584V496.992C399.934 496.404 400.186 496.068 400.41 495.816C401.53 494.724 402.566 494.164 403.434 494.164C404.498 494.164 405.282 494.836 405.282 496.712V501.584C405.282 503.88 405.058 504.02 403.546 504.132C403.406 504.3 403.406 504.888 403.546 505.056C404.246 505.028 405.282 505 406.402 505C407.522 505 408.446 505.028 409.146 505.056C409.286 504.888 409.286 504.3 409.146 504.132C407.746 504.02 407.494 503.88 407.494 501.584V497.132C407.494 496.74 407.494 496.348 407.466 496.012C408.81 494.528 410.07 494.164 411.162 494.164C412.226 494.164 412.842 494.78 412.842 496.656V501.584C412.842 503.88 412.562 504.02 411.106 504.132C410.966 504.3 410.966 504.888 411.106 505.056C411.806 505.028 412.842 505 413.962 505C415.082 505 416.062 505.028 416.846 505.056C416.986 504.888 416.986 504.3 416.846 504.132C415.306 504.02 415.054 503.88 415.054 501.584V497.16C415.054 494.668 414.634 492.708 412.17 492.708C410.742 492.708 409.006 493.24 407.55 494.78C407.466 494.864 407.298 495.004 407.242 494.752C406.99 493.604 405.898 492.708 404.442 492.708C402.818 492.708 401.362 493.66 400.186 494.976C400.046 495.116 399.878 495.312 399.85 494.976ZM419.171 503.32C419.171 504.132 419.843 504.804 420.655 504.804C421.467 504.804 422.139 504.132 422.139 503.32C422.139 502.508 421.467 501.836 420.655 501.836C419.843 501.836 419.171 502.508 419.171 503.32ZM419.171 494.976C419.171 495.788 419.843 496.46 420.655 496.46C421.467 496.46 422.139 495.788 422.139 494.976C422.139 494.164 421.467 493.492 420.655 493.492C419.843 493.492 419.171 494.164 419.171 494.976Z" fill="black"/>
<path id="Words and trees" d="M619.68 468.18L615.312 480.332L615.228 480.304L611.364 468.488C610.888 466.976 611.868 466.892 612.82 466.808C612.988 466.64 612.988 466.052 612.82 465.884C611.672 465.912 610.44 465.94 609.32 465.94C608.396 465.94 607.416 465.912 606.52 465.884C606.352 466.052 606.352 466.64 606.52 466.808C608.004 466.892 608.62 467.76 608.872 468.488L609.516 470.336C609.628 470.672 609.712 470.952 609.712 471.204C609.712 471.484 609.684 471.708 609.46 472.184L605.848 480.388L605.708 480.36L601.62 467.984C601.284 467.004 602.04 466.864 603.02 466.808C603.188 466.64 603.188 466.052 603.02 465.884C602.096 465.912 600.864 465.94 599.772 465.94C598.792 465.94 597.98 465.912 597.168 465.884C597 466.052 597 466.64 597.168 466.808C598.428 466.892 598.624 466.92 599.156 468.432L604.42 483.58C604.56 484.028 604.728 484.336 605.036 484.336C605.4 484.336 605.568 484.056 605.764 483.58L609.936 474.2C610.188 473.64 610.272 473.5 610.412 473.5C610.524 473.5 610.636 473.808 610.804 474.284L614.024 483.58C614.192 484.056 614.332 484.336 614.668 484.336C614.976 484.336 615.172 484.028 615.312 483.608L620.94 468.516C621.304 467.536 621.808 466.892 623.348 466.808C623.516 466.64 623.516 466.052 623.348 465.884C622.536 465.912 621.64 465.94 620.912 465.94C620.184 465.94 618.952 465.912 617.832 465.884C617.664 466.052 617.664 466.64 617.832 466.808C618.98 466.892 620.1 466.976 619.68 468.18ZM622.539 478.26C622.539 481.116 624.443 484.28 628.419 484.28C630.211 484.28 631.583 483.636 632.535 482.712C633.795 481.48 634.355 479.716 634.355 478.008C634.355 475.096 632.759 471.708 628.475 471.708C626.627 471.708 625.115 472.464 624.079 473.668C623.071 474.872 622.539 476.496 622.539 478.26ZM628.055 472.688C630.463 472.688 631.947 474.872 631.947 478.904C631.947 482.432 630.127 483.3 628.811 483.3C625.899 483.3 624.947 479.772 624.947 477.616C624.947 475.18 625.535 472.688 628.055 472.688ZM640.428 473.976C640.372 472.856 640.344 472.128 640.204 471.848C640.148 471.708 640.092 471.624 639.868 471.624C639.084 471.932 638.356 472.184 636.424 472.436C636.368 472.604 636.424 473.052 636.48 473.22C637.992 473.36 638.3 473.5 638.3 475.124V480.584C638.3 482.908 637.964 483.02 636.228 483.132C636.06 483.3 636.06 483.888 636.228 484.056C637.208 484.028 638.3 484 639.42 484C640.54 484 641.828 484.028 642.808 484.056C642.976 483.888 642.976 483.3 642.808 483.132C640.848 482.992 640.512 482.908 640.512 480.584V476.692C640.512 475.964 640.848 475.32 641.184 474.816C641.492 474.368 642.136 473.444 642.472 473.444C642.724 473.444 642.976 473.5 643.2 473.808C643.396 474.088 643.732 474.452 644.208 474.452C644.88 474.452 645.524 473.752 645.524 473.052C645.524 472.52 645.02 471.708 643.844 471.708C642.528 471.708 641.38 472.94 640.736 474.032C640.568 474.34 640.428 474.116 640.428 473.976ZM655.051 482.6C655.191 482.488 655.443 482.432 655.471 482.628C655.555 483.3 655.779 484.28 655.779 484.28C656.003 484.364 656.143 484.336 656.311 484.28C656.927 483.776 657.907 483.356 659.615 483.16C659.783 482.992 659.783 482.572 659.615 482.404C657.823 482.264 657.571 481.732 657.571 480.36V467.676C657.571 465.856 657.683 464.736 657.683 464.736C657.683 464.54 657.571 464.456 657.319 464.456C656.619 464.736 654.519 465.128 653.399 465.212C653.343 465.436 653.399 465.884 653.567 466.052C653.651 466.052 653.735 466.052 653.819 466.052C655.051 466.136 655.359 466.136 655.359 468.348V471.932C655.359 472.128 655.303 472.184 655.107 472.184C654.995 472.184 653.847 471.708 652.923 471.708C651.075 471.708 649.843 472.324 648.723 473.388C647.519 474.592 646.791 476.244 646.791 478.316C646.791 481.76 648.527 484.28 651.551 484.28C652.643 484.28 653.679 483.72 655.051 482.6ZM655.359 480.528C655.359 481.06 655.303 481.284 654.911 481.62C653.875 482.516 652.979 482.964 652.279 482.964C650.767 482.964 649.199 481.312 649.199 477.812C649.199 475.796 649.591 474.676 650.011 474.088C650.879 472.772 652.055 472.688 652.615 472.688C653.623 472.688 654.323 473.052 654.883 473.696C655.275 474.144 655.359 474.34 655.359 475.208V480.528ZM661.207 480.136C661.319 481.508 661.403 482.824 661.403 484C661.683 483.944 661.963 483.916 662.103 483.916C662.299 483.916 662.467 483.916 662.663 483.972C663.419 484.168 664.175 484.28 665.211 484.28C666.779 484.28 669.663 483.524 669.663 480.752C669.663 478.848 668.291 477.728 666.387 477.028C664.707 476.384 663.587 475.964 663.587 474.424C663.587 473.276 664.595 472.632 665.547 472.632C666.163 472.632 667.787 472.856 668.151 475.236C668.319 475.404 668.879 475.376 669.047 475.208C669.131 474.2 669.187 473.164 669.215 472.24C668.347 472.1 667.003 471.708 665.547 471.708C663.475 471.708 661.599 473.052 661.599 474.844C661.599 476.888 662.523 477.756 664.679 478.652C667.003 479.604 667.535 480.192 667.535 481.396C667.535 482.768 666.191 483.356 665.155 483.356C664.063 483.356 663.447 482.992 663.167 482.684C662.551 482.04 662.243 480.808 662.075 480.108C661.907 479.94 661.375 479.968 661.207 480.136ZM685.977 482.656C686.145 483.524 686.453 484.28 687.853 484.28C688.917 484.28 689.925 483.804 690.513 483.244C690.457 482.908 690.345 482.656 690.037 482.488C689.841 482.656 689.365 482.936 689.001 482.936C688.189 482.936 688.161 481.844 688.161 480.556V476.44C688.161 472.464 685.977 471.708 683.933 471.708C681.637 471.708 679.313 473.22 679.313 474.816C679.313 475.488 679.649 475.824 680.293 475.824C681.105 475.824 681.609 475.236 681.609 474.872C681.609 474.676 681.581 474.48 681.525 474.368C681.497 474.284 681.469 474.116 681.469 473.808C681.469 472.94 682.645 472.632 683.709 472.632C684.661 472.632 685.977 473.108 685.977 476.272C685.977 476.468 685.893 476.58 685.809 476.608L683.401 477.196C680.713 477.868 678.781 479.352 678.781 481.256C678.781 483.552 680.349 484.28 682.309 484.28C683.289 484.28 684.129 484.056 685.361 483.104L685.921 482.656H685.977ZM685.977 477.476V481.172C685.977 481.536 685.809 481.732 685.585 481.9C684.857 482.488 683.905 483.132 683.121 483.132C681.721 483.132 681.105 482.012 681.105 481.144C681.105 479.884 681.693 478.596 683.765 478.064L685.977 477.476ZM695.722 473.976C695.554 474.172 695.386 474.228 695.386 473.976C695.358 473.22 695.302 472.128 695.162 471.848C695.106 471.708 695.05 471.624 694.826 471.624C694.042 471.932 693.314 472.184 691.382 472.436C691.326 472.604 691.382 473.052 691.438 473.22C692.95 473.36 693.258 473.5 693.258 475.124V480.584C693.258 482.88 692.978 482.992 691.298 483.132C691.13 483.3 691.13 483.888 691.298 484.056C692.138 484.028 693.258 484 694.378 484C695.498 484 696.338 484.028 697.178 484.056C697.346 483.888 697.346 483.3 697.178 483.132C695.75 482.992 695.47 482.88 695.47 480.584V475.992C695.47 475.404 695.722 475.068 695.946 474.816C697.01 473.78 698.27 473.164 699.362 473.164C699.922 473.164 700.51 473.528 700.846 474.172C701.126 474.732 701.182 475.488 701.182 476.328V480.584C701.182 482.88 700.902 482.992 699.446 483.132C699.306 483.3 699.306 483.888 699.446 484.056C700.286 484.028 701.182 484 702.302 484C703.422 484 704.43 484.028 705.27 484.056C705.41 483.888 705.41 483.3 705.27 483.132C703.702 482.992 703.394 482.88 703.394 480.584V476.412C703.394 474.872 703.282 473.528 702.638 472.66C702.162 472.044 701.294 471.708 700.314 471.708C698.942 471.708 697.374 472.072 695.722 473.976ZM715.098 482.6C715.238 482.488 715.49 482.432 715.518 482.628C715.602 483.3 715.826 484.28 715.826 484.28C716.05 484.364 716.19 484.336 716.358 484.28C716.974 483.776 717.954 483.356 719.662 483.16C719.83 482.992 719.83 482.572 719.662 482.404C717.87 482.264 717.618 481.732 717.618 480.36V467.676C717.618 465.856 717.73 464.736 717.73 464.736C717.73 464.54 717.618 464.456 717.366 464.456C716.666 464.736 714.566 465.128 713.446 465.212C713.39 465.436 713.446 465.884 713.614 466.052C713.698 466.052 713.782 466.052 713.866 466.052C715.098 466.136 715.406 466.136 715.406 468.348V471.932C715.406 472.128 715.35 472.184 715.154 472.184C715.042 472.184 713.894 471.708 712.97 471.708C711.122 471.708 709.89 472.324 708.77 473.388C707.566 474.592 706.838 476.244 706.838 478.316C706.838 481.76 708.574 484.28 711.598 484.28C712.69 484.28 713.726 483.72 715.098 482.6ZM715.406 480.528C715.406 481.06 715.35 481.284 714.958 481.62C713.922 482.516 713.026 482.964 712.326 482.964C710.814 482.964 709.246 481.312 709.246 477.812C709.246 475.796 709.638 474.676 710.058 474.088C710.926 472.772 712.102 472.688 712.662 472.688C713.67 472.688 714.37 473.052 714.93 473.696C715.322 474.144 715.406 474.34 715.406 475.208V480.528ZM728.114 471.988C727.722 471.988 727.61 472.324 727.61 472.548V472.912C727.61 473.052 727.638 473.08 727.75 473.08H729.402V481.508C729.402 483.496 730.27 484.28 731.558 484.28C732.846 484.28 734.246 483.664 735.338 482.432C735.282 482.152 735.114 481.984 734.834 481.956C734.106 482.516 733.266 482.74 732.538 482.74C731.782 482.74 731.614 481.9 731.614 480.164V473.08H734.526C734.806 473.08 735.198 472.968 735.198 472.716V472.156C735.198 472.044 735.114 471.988 734.974 471.988H731.614V470.896C731.614 469.076 731.726 467.956 731.726 467.956C731.726 467.788 731.642 467.704 731.502 467.704C731.39 467.704 731.138 467.816 730.886 467.956C730.578 468.124 730.298 468.264 729.934 468.348C729.598 468.46 729.318 468.544 729.318 468.74C729.318 469.076 729.402 468.88 729.402 471.988H728.114ZM740.698 473.976C740.642 472.856 740.614 472.128 740.474 471.848C740.418 471.708 740.362 471.624 740.138 471.624C739.354 471.932 738.626 472.184 736.694 472.436C736.638 472.604 736.694 473.052 736.75 473.22C738.262 473.36 738.57 473.5 738.57 475.124V480.584C738.57 482.908 738.234 483.02 736.498 483.132C736.33 483.3 736.33 483.888 736.498 484.056C737.478 484.028 738.57 484 739.69 484C740.81 484 742.098 484.028 743.078 484.056C743.246 483.888 743.246 483.3 743.078 483.132C741.118 482.992 740.782 482.908 740.782 480.584V476.692C740.782 475.964 741.118 475.32 741.454 474.816C741.762 474.368 742.406 473.444 742.742 473.444C742.994 473.444 743.246 473.5 743.47 473.808C743.666 474.088 744.002 474.452 744.478 474.452C745.15 474.452 745.794 473.752 745.794 473.052C745.794 472.52 745.29 471.708 744.114 471.708C742.798 471.708 741.65 472.94 741.006 474.032C740.838 474.34 740.698 474.116 740.698 473.976ZM756.777 481.396C755.741 482.46 754.929 482.908 753.305 482.908C752.297 482.908 751.121 482.32 750.253 480.892C749.693 479.968 749.357 478.68 749.357 477.056L756.805 477.112C757.141 477.112 757.337 476.944 757.337 476.636C757.337 474.284 756.497 471.764 752.605 471.764C750.169 471.764 747.005 474.088 747.005 478.344C747.005 479.912 747.397 481.424 748.321 482.488C749.273 483.608 750.589 484.28 752.605 484.28C754.733 484.28 756.245 483.3 757.365 481.844C757.281 481.564 757.113 481.424 756.777 481.396ZM749.441 476.104C749.973 472.94 751.933 472.688 752.605 472.688C753.669 472.688 754.929 473.276 754.929 475.628C754.929 475.88 754.817 476.02 754.509 476.02L749.441 476.104ZM769.492 481.396C768.456 482.46 767.644 482.908 766.02 482.908C765.012 482.908 763.836 482.32 762.968 480.892C762.408 479.968 762.072 478.68 762.072 477.056L769.52 477.112C769.856 477.112 770.052 476.944 770.052 476.636C770.052 474.284 769.212 471.764 765.32 471.764C762.884 471.764 759.72 474.088 759.72 478.344C759.72 479.912 760.112 481.424 761.036 482.488C761.988 483.608 763.304 484.28 765.32 484.28C767.448 484.28 768.96 483.3 770.08 481.844C769.996 481.564 769.828 481.424 769.492 481.396ZM762.156 476.104C762.688 472.94 764.648 472.688 765.32 472.688C766.384 472.688 767.644 473.276 767.644 475.628C767.644 475.88 767.532 476.02 767.224 476.02L762.156 476.104ZM772.551 480.136C772.663 481.508 772.747 482.824 772.747 484C773.027 483.944 773.307 483.916 773.447 483.916C773.643 483.916 773.811 483.916 774.007 483.972C774.763 484.168 775.519 484.28 776.555 484.28C778.123 484.28 781.007 483.524 781.007 480.752C781.007 478.848 779.635 477.728 777.731 477.028C776.051 476.384 774.931 475.964 774.931 474.424C774.931 473.276 775.939 472.632 776.891 472.632C777.507 472.632 779.131 472.856 779.495 475.236C779.663 475.404 780.223 475.376 780.391 475.208C780.475 474.2 780.531 473.164 780.559 472.24C779.691 472.1 778.347 471.708 776.891 471.708C774.819 471.708 772.943 473.052 772.943 474.844C772.943 476.888 773.867 477.756 776.023 478.652C778.347 479.604 778.879 480.192 778.879 481.396C778.879 482.768 777.535 483.356 776.499 483.356C775.407 483.356 774.791 482.992 774.511 482.684C773.895 482.04 773.587 480.808 773.419 480.108C773.251 479.94 772.719 479.968 772.551 480.136Z" fill="black"/>
<rect id="136:13" opacity="0.5" x="547" y="512" width="285" height="214" fill="#FF0000"/>
</g>
</svg>
