<svg width="1280" height="960" viewBox="0 0 1280 960" fill="none" xmlns="http://www.w3.org/2000/svg">
<g id="First slide">
<rect width="1280" height="960" fill="white"/>
<path id="Computational Complexity" d="M97.17 69.73C90.73 69.73 84.22 71.27 78.2 76.17C75.26 78.62 70.5 84.99 70.5 92.97C70.5 100.95 73.72 105.99 76.38 109.07C79.18 112.36 86.39 117.26 96.26 117.26C102.21 117.26 107.88 115.79 109 115.3C109.7 114.95 110.89 114.11 111.17 113.48C112.15 111.87 113.76 108.16 113.97 106.41C114.11 105.64 114.04 104.1 113.34 104.1C113.06 104.1 112.78 104.45 111.87 105.92C110.19 108.86 108.44 111.1 105.36 112.71C102.49 114.39 99.06 114.6 97.73 114.6C92.06 114.6 83.94 111.45 80.02 103.4C78.48 100.32 77.57 96.54 77.57 91.85C77.57 81.28 84.78 71.97 96.05 71.97C99.83 71.97 103.4 72.74 107.25 75.61C108.16 76.31 109.49 78.41 110.12 80.86C110.47 81.91 110.89 82.68 111.24 82.68C111.8 82.68 112.36 81.84 112.29 80.37C112.15 78.83 111.8 75.75 111.8 74.28C111.8 72.67 111.1 72.18 110.75 72.18C109.7 72.04 107.25 71.13 105.43 70.85C102.77 70.22 99.62 69.73 97.17 69.73ZM134.676 87.72C129.986 87.72 126.486 89.68 124.316 91.57C121.656 93.81 119.416 97.17 119.416 102.49C119.416 105.99 121.586 110.75 124.596 113.2C127.186 115.37 130.686 116.84 133.906 116.84C137.056 116.84 139.786 116.07 142.586 114.04C145.176 112.36 148.676 107.81 148.676 102C148.676 93.18 141.606 87.72 134.676 87.72ZM133.346 89.82C135.166 89.82 137.686 90.87 139.226 92.55C141.886 95.63 142.726 99.62 142.726 103.26C142.726 106.27 141.326 110.61 139.576 112.5C137.616 114.46 136.076 114.81 135.306 114.81C131.946 114.81 127.956 112.29 126.206 107.04C125.646 105.29 125.366 103.12 125.366 100.81C125.366 97.17 126.976 93.53 128.796 91.85C130.266 90.59 131.876 89.82 133.346 89.82ZM154.312 91.5C154.312 91.85 154.802 92.2 156.762 94.02C157.392 94.65 157.252 95.56 157.252 95.91C157.252 100.74 157.182 107.74 157.042 109.77C156.762 112.78 156.342 113.83 154.102 114.39C152.842 114.67 152.422 115.16 152.422 115.44C152.422 115.93 153.122 116.21 154.172 116.21C155.712 116.21 157.112 116 159.422 116C162.082 116 164.672 116.14 164.952 116.14C165.862 116.14 166.842 115.93 166.842 115.44C166.842 114.88 166.282 114.6 164.952 114.18C162.712 113.48 162.432 112.36 162.432 111.03C162.432 105.71 162.432 96.89 162.572 95.07C162.642 94.3 162.852 93.74 163.342 93.32C165.022 91.99 166.632 91.15 168.942 91.15C171.462 91.15 173.282 92.06 174.192 93.25C174.682 93.88 175.102 94.79 175.102 96.82V110.54C175.102 113.06 174.822 113.76 172.442 114.32C171.322 114.6 171.042 115.09 171.042 115.3C171.042 115.58 171.252 116.14 172.862 116.14C174.332 116.14 176.362 116 177.832 116C179.442 116 181.542 116.14 183.082 116.14C184.202 116.14 184.762 115.79 184.762 115.3C184.762 114.95 184.062 114.53 183.292 114.32C180.912 113.76 180.562 113.06 180.352 110.82C180.212 109.28 180.352 96.05 180.352 95.56C180.352 95.07 180.842 93.74 181.052 93.53C182.032 92.69 183.292 91.36 186.442 91.36C189.382 91.36 190.922 92.48 191.762 93.81C192.462 95.07 192.882 96.05 192.882 98.5C192.882 100.81 193.022 108.65 193.022 110.33C193.022 112.78 192.742 113.62 190.502 114.32C189.732 114.53 188.962 114.81 188.962 115.23C188.962 115.72 189.382 116.14 190.712 116.14C192.322 116.14 193.372 116 195.472 116C197.222 116 199.112 116.21 200.512 116.21C201.842 116.21 202.472 115.93 202.472 115.44C202.472 115.02 202.052 114.74 201.142 114.46C198.622 113.76 198.202 112.43 198.132 111.17C198.132 105.43 198.272 100.53 197.992 96.89C197.852 94.37 197.222 91.92 195.682 90.17C194.212 88.63 192.252 87.79 189.662 87.79C188.402 87.79 186.792 88.14 185.182 88.91C183.362 89.82 181.542 90.94 180.212 91.92C179.932 92.06 179.792 91.92 179.652 91.64C179.372 91.15 178.672 90.1 177.412 89.19C176.152 88.28 174.472 87.79 171.952 87.79C168.662 87.79 164.322 90.45 162.572 91.85C162.292 92.13 162.152 91.64 162.152 91.43C162.152 90.73 162.432 88.77 162.432 87.79C162.432 87.65 161.942 87.16 161.592 87.09C161.452 87.09 161.312 87.16 161.032 87.37C160.262 87.86 157.112 89.68 155.712 90.24C154.942 90.66 154.312 91.08 154.312 91.5ZM224.729 87.86C222.769 87.86 220.669 88.21 219.549 88.7C218.569 89.12 216.679 90.1 214.999 91.22C214.719 91.43 214.439 91.15 214.439 90.87C214.509 89.75 214.509 88.42 214.649 87.3C214.649 87.02 214.089 86.46 213.879 86.46C213.739 86.46 213.179 86.74 212.479 87.09C211.289 87.79 208.209 89.26 207.159 89.54C206.879 89.61 206.179 90.45 206.179 90.8C206.179 91.15 207.019 91.78 208.769 93.04C208.979 93.18 209.329 93.67 209.329 96.61C209.399 100.74 209.329 105.99 209.329 110.75C209.329 117.89 209.259 123.63 209.119 125.94C208.839 130.98 208.489 131.61 204.779 132.38C203.659 132.59 203.169 133.15 203.169 133.43C203.169 134.06 204.219 134.34 205.269 134.34C207.369 134.34 208.069 134.13 209.749 134.13C212.479 134.13 216.539 134.48 218.079 134.48C218.989 134.48 219.899 134.13 219.899 133.57C219.899 133.08 219.339 132.73 217.939 132.31C215.279 131.47 214.789 130.63 214.579 128.81C214.369 126.85 214.299 123.98 214.299 117.19C214.299 116.84 214.579 116.28 214.789 116.28C215.699 116.42 217.099 116.56 218.709 116.56C221.859 116.56 225.989 116 229.839 112.99C234.319 109.63 235.789 104.45 235.789 100.95C235.789 97.1 234.179 93.67 232.499 91.78C230.399 89.47 227.249 87.86 224.729 87.86ZM221.089 91.43C222.699 91.43 225.569 92.41 227.389 94.3C230.259 97.45 230.259 101.23 230.259 102.84C230.259 104.94 228.999 110.19 225.499 113.13C224.519 113.97 223.049 114.32 222.279 114.32C220.529 114.32 217.169 113.13 215.279 110.47C214.789 109.84 214.509 108.65 214.369 107.39C214.089 104.52 214.159 96.89 214.509 94.79C214.719 93.53 215.069 92.97 215.419 92.69C216.189 92.06 218.149 91.43 221.089 91.43ZM255.255 113.34C253.575 113.34 252.315 113.34 250.495 111.94C249.515 111.24 248.745 109.63 248.745 108.02C248.745 104.87 249.025 91.64 248.955 89.26C248.955 88.84 248.675 88.21 248.395 88.21C248.115 88.21 242.935 88.98 240.975 88.98C240.135 88.98 239.785 89.4 239.785 89.61C239.785 90.24 240.415 90.59 241.045 90.87C242.235 91.36 243.565 91.64 243.635 93.6C243.775 97.31 243.775 105.22 243.775 110.26C243.775 111.38 244.265 112.78 244.755 113.55C246.155 115.72 248.395 116.84 250.915 116.84C252.875 116.84 254.415 116.49 255.605 116C256.515 115.65 259.315 113.83 261.345 112.43C261.485 112.36 261.695 112.57 261.695 112.92C261.625 114.11 261.415 115.44 261.415 115.86C261.415 116.35 261.835 116.84 262.115 116.84C262.255 116.84 263.375 116.56 264.565 116.21C266.175 115.79 269.115 115.02 270.935 114.88C271.215 114.88 271.705 114.39 271.705 114.18C271.635 113.97 271.145 112.85 270.865 112.85C270.025 112.85 267.855 113.2 267.365 113.2C266.805 113.2 266.525 112.36 266.525 112.22C266.525 106.48 267.085 90.94 267.225 88.98C267.225 88.7 267.085 87.93 266.735 87.93C266.245 87.93 265.755 88 265.055 88.21C263.445 88.63 260.365 88.98 257.565 88.98C256.865 88.98 255.955 89.33 255.955 89.61C255.955 90.17 256.865 90.59 257.355 90.73L260.575 91.57C260.995 91.71 261.765 92.69 261.765 93.11L261.625 109.21C261.625 109.49 260.995 110.54 260.575 110.89C258.825 112.43 256.935 113.34 255.255 113.34ZM283.49 88.7C283.21 88.7 282.93 88.35 282.93 88.14V84.85C282.93 84.71 282.3 84.08 281.95 84.08C281.67 84.08 281.18 84.64 280.34 85.62C279.36 86.81 277.19 88.49 274.74 90.45C274.53 90.66 274.32 90.94 274.32 91.22C274.32 91.43 274.74 91.78 275.3 91.99C276.7 92.41 277.96 92.9 277.96 93.39C277.96 95.84 277.68 106.34 277.68 108.93C277.68 110.89 277.82 112.36 278.59 113.55C279.43 115.09 281.88 116.84 284.75 116.84C287.9 116.84 290.35 115.58 292.24 113.76C292.73 113.27 293.22 112.57 293.22 112.01C293.22 111.38 292.87 111.24 292.8 111.24C292.52 111.24 292.38 111.31 291.75 111.66C290.7 112.29 289.23 112.71 288.32 112.71C286.85 112.71 285.38 112.57 284.05 111.38C283.28 110.61 282.86 109.7 282.86 107.95C282.86 104.59 282.93 94.3 283 92.9C283 92.76 283.28 92.41 283.63 92.41H291.26C291.75 92.41 293.08 92.27 293.08 91.64C293.08 90.73 292.87 88.77 292.87 88.98C292.87 88.77 292.17 88.42 292.1 88.42C291.82 88.42 285.03 88.7 283.49 88.7ZM308.445 87.72C307.115 87.72 303.965 88.91 301.935 90.38C298.645 92.55 296.685 94.51 296.685 96.54C296.685 96.89 297.105 97.45 297.525 97.45C297.875 97.45 301.375 95.7 302.075 95.14C302.215 95 302.495 94.58 302.495 94.37C302.355 92.97 302.565 91.71 302.985 91.5C303.475 91.15 304.385 90.73 305.855 90.73C309.285 90.73 311.315 93.67 311.315 95.42C311.315 96.26 311.245 100.53 311.175 101.16C311.175 101.58 310.755 101.93 309.145 102.42C307.605 102.91 302.005 104.45 300.955 104.87C299.905 105.36 298.855 105.71 298.155 106.62C297.385 107.6 296.825 108.93 296.825 110.19C296.825 113.69 299.205 116.7 301.655 116.7C302.005 116.7 303.685 116.56 304.455 116.28C305.155 116.07 308.165 114.88 310.755 113.06C310.895 112.99 311.175 113.27 311.175 113.34C312.015 115.93 314.045 116.84 315.655 116.84C318.805 116.84 321.955 113.83 321.955 112.5C321.955 112.43 321.955 112.01 321.745 111.8C321.605 111.59 321.535 111.45 321.325 111.59C320.555 112.15 318.945 112.64 318.665 112.64C318.105 112.64 315.865 112.36 315.865 109.14C315.865 108.37 316.145 99.55 316.145 96.82C316.145 93.88 315.795 92.48 314.745 91.01C313.695 89.47 311.945 87.72 308.445 87.72ZM306.345 113.06C304.875 113.06 301.935 111.94 301.935 108.86C301.935 107.18 302.635 106.69 303.335 106.2C305.225 105.29 308.585 104.1 310.545 104.1C310.825 104.1 311.105 104.45 311.105 104.66C311.105 106.06 311.105 108.44 310.965 110.12C310.965 110.26 310.545 111.59 310.125 111.87C308.795 112.57 307.395 113.06 306.345 113.06ZM332.572 88.7C332.292 88.7 332.012 88.35 332.012 88.14V84.85C332.012 84.71 331.382 84.08 331.032 84.08C330.752 84.08 330.262 84.64 329.422 85.62C328.442 86.81 326.272 88.49 323.822 90.45C323.612 90.66 323.402 90.94 323.402 91.22C323.402 91.43 323.822 91.78 324.382 91.99C325.782 92.41 327.042 92.9 327.042 93.39C327.042 95.84 326.762 106.34 326.762 108.93C326.762 110.89 326.902 112.36 327.672 113.55C328.512 115.09 330.962 116.84 333.832 116.84C336.982 116.84 339.432 115.58 341.322 113.76C341.812 113.27 342.302 112.57 342.302 112.01C342.302 111.38 341.952 111.24 341.882 111.24C341.602 111.24 341.462 111.31 340.832 111.66C339.782 112.29 338.312 112.71 337.402 112.71C335.932 112.71 334.462 112.57 333.132 111.38C332.362 110.61 331.942 109.7 331.942 107.95C331.942 104.59 332.012 94.3 332.082 92.9C332.082 92.76 332.362 92.41 332.712 92.41H340.342C340.832 92.41 342.162 92.27 342.162 91.64C342.162 90.73 341.952 88.77 341.952 88.98C341.952 88.77 341.252 88.42 341.182 88.42C340.902 88.42 334.112 88.7 332.572 88.7ZM352.49 116C353.96 116 357.46 116.21 357.95 116.21C358.72 116.21 359.56 115.93 359.56 115.51C359.56 115.02 359.14 114.67 358.02 114.32C356.27 113.76 354.73 113.62 354.66 111.38C354.59 108.93 354.52 105.99 354.52 102.07C354.52 98.08 354.94 88.98 354.94 88.21C354.94 88.14 354.59 87.44 354.31 87.44C353.26 87.72 349.97 89.26 347.38 89.82C346.61 89.96 345.98 90.52 345.98 91.01C345.98 91.29 346.12 91.5 346.54 91.78C348.57 93.25 349.34 93.81 349.41 94.3C349.55 95.14 349.48 103.12 349.48 105.22C349.48 107.25 349.41 111.45 349.2 112.43C349.06 113.13 348.01 113.97 346.4 114.39C345.21 114.74 344.72 115.09 344.72 115.51C344.72 116 345.42 116.28 346.54 116.28C347.73 116.28 350.18 116 352.49 116ZM352.35 73.51C351.37 73.51 350.32 73.79 349.62 74.42C349.06 75.19 348.78 76.31 348.78 76.94C348.78 78.13 349.27 78.9 349.83 79.53C350.46 80.09 351.58 80.37 352.07 80.37C353.47 80.37 355.43 78.83 355.43 76.94C355.43 75.68 354.24 73.51 352.35 73.51ZM378.035 87.72C373.345 87.72 369.845 89.68 367.675 91.57C365.015 93.81 362.775 97.17 362.775 102.49C362.775 105.99 364.945 110.75 367.955 113.2C370.545 115.37 374.045 116.84 377.265 116.84C380.415 116.84 383.145 116.07 385.945 114.04C388.535 112.36 392.035 107.81 392.035 102C392.035 93.18 384.965 87.72 378.035 87.72ZM376.705 89.82C378.525 89.82 381.045 90.87 382.585 92.55C385.245 95.63 386.085 99.62 386.085 103.26C386.085 106.27 384.685 110.61 382.935 112.5C380.975 114.46 379.435 114.81 378.665 114.81C375.305 114.81 371.315 112.29 369.565 107.04C369.005 105.29 368.725 103.12 368.725 100.81C368.725 97.17 370.335 93.53 372.155 91.85C373.625 90.59 375.235 89.82 376.705 89.82ZM397.741 91.08C397.741 91.29 398.161 91.64 399.071 92.27C400.611 93.53 400.751 94.23 400.751 95C400.751 102.14 400.611 108.23 400.401 110.33C400.191 112.85 399.771 113.55 397.461 114.25C396.691 114.46 395.991 114.81 395.991 115.3C395.991 115.93 396.761 116.21 397.811 116.21C399.001 116.21 401.031 116 403.621 116C405.091 116 407.051 116.07 407.891 116.07C408.871 116.07 409.641 115.72 409.641 115.23C409.641 114.81 409.081 114.39 408.381 114.18C406.141 113.55 405.861 112.99 405.791 112.01C405.721 111.17 405.721 96.12 405.721 95.21C405.721 94.58 406.211 93.74 406.421 93.53C407.751 92.34 409.571 91.29 412.651 91.29C414.261 91.29 416.361 92.06 417.131 92.62C417.971 93.25 419.231 95.28 419.231 97.8C419.231 99.83 419.161 108.3 419.021 110.61C418.881 112.92 418.531 113.48 416.851 114.11C416.011 114.39 415.241 114.81 415.241 115.3C415.241 115.86 416.221 116.14 416.851 116.14C417.761 116.14 419.931 116 421.681 116C423.641 116 425.251 116.14 426.861 116.14C427.981 116.14 428.961 115.86 428.961 115.37C428.961 114.88 428.541 114.53 427.211 114.18C425.461 113.69 424.761 112.78 424.621 111.73C424.551 110.75 424.411 100.32 424.411 98.99C424.411 95.49 423.501 92.27 421.961 90.45C420.981 89.33 419.021 87.79 415.591 87.79C412.651 87.79 409.011 89.75 406.211 91.64C406.141 91.64 405.791 91.78 405.791 91.43C405.791 90.8 406.071 89.12 406.071 87.93C406.071 87.65 405.721 86.88 405.371 86.88C405.021 86.88 404.391 87.23 403.691 87.65C402.711 88.35 400.191 89.26 399.001 89.68C398.511 89.89 397.741 90.59 397.741 91.08ZM444.275 87.72C442.945 87.72 439.795 88.91 437.765 90.38C434.475 92.55 432.515 94.51 432.515 96.54C432.515 96.89 432.935 97.45 433.355 97.45C433.705 97.45 437.205 95.7 437.905 95.14C438.045 95 438.325 94.58 438.325 94.37C438.185 92.97 438.395 91.71 438.815 91.5C439.305 91.15 440.215 90.73 441.685 90.73C445.115 90.73 447.145 93.67 447.145 95.42C447.145 96.26 447.075 100.53 447.005 101.16C447.005 101.58 446.585 101.93 444.975 102.42C443.435 102.91 437.835 104.45 436.785 104.87C435.735 105.36 434.685 105.71 433.985 106.62C433.215 107.6 432.655 108.93 432.655 110.19C432.655 113.69 435.035 116.7 437.485 116.7C437.835 116.7 439.515 116.56 440.285 116.28C440.985 116.07 443.995 114.88 446.585 113.06C446.725 112.99 447.005 113.27 447.005 113.34C447.845 115.93 449.875 116.84 451.485 116.84C454.635 116.84 457.785 113.83 457.785 112.5C457.785 112.43 457.785 112.01 457.575 111.8C457.435 111.59 457.365 111.45 457.155 111.59C456.385 112.15 454.775 112.64 454.495 112.64C453.935 112.64 451.695 112.36 451.695 109.14C451.695 108.37 451.975 99.55 451.975 96.82C451.975 93.88 451.625 92.48 450.575 91.01C449.525 89.47 447.775 87.72 444.275 87.72ZM442.175 113.06C440.705 113.06 437.765 111.94 437.765 108.86C437.765 107.18 438.465 106.69 439.165 106.2C441.055 105.29 444.415 104.1 446.375 104.1C446.655 104.1 446.935 104.45 446.935 104.66C446.935 106.06 446.935 108.44 446.795 110.12C446.795 110.26 446.375 111.59 445.955 111.87C444.625 112.57 443.225 113.06 442.175 113.06ZM461.159 69.8C461.159 70.08 461.369 70.29 462.559 71.13C464.169 72.11 464.169 72.53 464.239 73.09C464.449 74.98 464.449 82.54 464.449 87.72C464.449 98.78 464.239 106.13 464.029 109C463.749 112.5 463.609 113.76 460.389 114.46C459.619 114.6 458.849 114.95 458.849 115.44C458.849 116 459.409 116.21 460.809 116.21C462.279 116.21 465.359 116 466.969 116C468.229 116 471.239 116.21 472.919 116.21C473.759 116.21 474.739 115.93 474.739 115.44C474.739 115.02 474.179 114.67 473.129 114.39C470.119 113.55 469.839 112.71 469.559 111.31C469.209 109.42 469.349 96.05 469.349 85.83C469.349 76.45 469.769 68.54 469.979 66.79C469.979 66.51 469.559 65.95 469.349 66.09C467.459 67.28 465.359 67.7 462.139 68.82C461.369 69.03 461.159 69.52 461.159 69.8ZM519.494 69.73C513.054 69.73 506.544 71.27 500.524 76.17C497.584 78.62 492.824 84.99 492.824 92.97C492.824 100.95 496.044 105.99 498.704 109.07C501.504 112.36 508.714 117.26 518.584 117.26C524.534 117.26 530.204 115.79 531.324 115.3C532.024 114.95 533.214 114.11 533.494 113.48C534.474 111.87 536.084 108.16 536.294 106.41C536.434 105.64 536.364 104.1 535.664 104.1C535.384 104.1 535.104 104.45 534.194 105.92C532.514 108.86 530.764 111.1 527.684 112.71C524.814 114.39 521.384 114.6 520.054 114.6C514.384 114.6 506.264 111.45 502.344 103.4C500.804 100.32 499.894 96.54 499.894 91.85C499.894 81.28 507.104 71.97 518.374 71.97C522.154 71.97 525.724 72.74 529.574 75.61C530.484 76.31 531.814 78.41 532.444 80.86C532.794 81.91 533.214 82.68 533.564 82.68C534.124 82.68 534.684 81.84 534.614 80.37C534.474 78.83 534.124 75.75 534.124 74.28C534.124 72.67 533.424 72.18 533.074 72.18C532.024 72.04 529.574 71.13 527.754 70.85C525.094 70.22 521.944 69.73 519.494 69.73ZM557 87.72C552.31 87.72 548.81 89.68 546.64 91.57C543.98 93.81 541.74 97.17 541.74 102.49C541.74 105.99 543.91 110.75 546.92 113.2C549.51 115.37 553.01 116.84 556.23 116.84C559.38 116.84 562.11 116.07 564.91 114.04C567.5 112.36 571 107.81 571 102C571 93.18 563.93 87.72 557 87.72ZM555.67 89.82C557.49 89.82 560.01 90.87 561.55 92.55C564.21 95.63 565.05 99.62 565.05 103.26C565.05 106.27 563.65 110.61 561.9 112.5C559.94 114.46 558.4 114.81 557.63 114.81C554.27 114.81 550.28 112.29 548.53 107.04C547.97 105.29 547.69 103.12 547.69 100.81C547.69 97.17 549.3 93.53 551.12 91.85C552.59 90.59 554.2 89.82 555.67 89.82ZM576.636 91.5C576.636 91.85 577.126 92.2 579.086 94.02C579.716 94.65 579.576 95.56 579.576 95.91C579.576 100.74 579.506 107.74 579.366 109.77C579.086 112.78 578.666 113.83 576.426 114.39C575.166 114.67 574.746 115.16 574.746 115.44C574.746 115.93 575.446 116.21 576.496 116.21C578.036 116.21 579.436 116 581.746 116C584.406 116 586.996 116.14 587.276 116.14C588.186 116.14 589.166 115.93 589.166 115.44C589.166 114.88 588.606 114.6 587.276 114.18C585.036 113.48 584.756 112.36 584.756 111.03C584.756 105.71 584.756 96.89 584.896 95.07C584.966 94.3 585.176 93.74 585.666 93.32C587.346 91.99 588.956 91.15 591.266 91.15C593.786 91.15 595.606 92.06 596.516 93.25C597.006 93.88 597.426 94.79 597.426 96.82V110.54C597.426 113.06 597.146 113.76 594.766 114.32C593.646 114.6 593.366 115.09 593.366 115.3C593.366 115.58 593.576 116.14 595.186 116.14C596.656 116.14 598.686 116 600.156 116C601.766 116 603.866 116.14 605.406 116.14C606.526 116.14 607.086 115.79 607.086 115.3C607.086 114.95 606.386 114.53 605.616 114.32C603.236 113.76 602.886 113.06 602.676 110.82C602.536 109.28 602.676 96.05 602.676 95.56C602.676 95.07 603.166 93.74 603.376 93.53C604.356 92.69 605.616 91.36 608.766 91.36C611.706 91.36 613.246 92.48 614.086 93.81C614.786 95.07 615.206 96.05 615.206 98.5C615.206 100.81 615.346 108.65 615.346 110.33C615.346 112.78 615.066 113.62 612.826 114.32C612.056 114.53 611.286 114.81 611.286 115.23C611.286 115.72 611.706 116.14 613.036 116.14C614.646 116.14 615.696 116 617.796 116C619.546 116 621.436 116.21 622.836 116.21C624.166 116.21 624.796 115.93 624.796 115.44C624.796 115.02 624.376 114.74 623.466 114.46C620.946 113.76 620.526 112.43 620.456 111.17C620.456 105.43 620.596 100.53 620.316 96.89C620.176 94.37 619.546 91.92 618.006 90.17C616.536 88.63 614.576 87.79 611.986 87.79C610.726 87.79 609.116 88.14 607.506 88.91C605.686 89.82 603.866 90.94 602.536 91.92C602.256 92.06 602.116 91.92 601.976 91.64C601.696 91.15 600.996 90.1 599.736 89.19C598.476 88.28 596.796 87.79 594.276 87.79C590.986 87.79 586.646 90.45 584.896 91.85C584.616 92.13 584.476 91.64 584.476 91.43C584.476 90.73 584.756 88.77 584.756 87.79C584.756 87.65 584.266 87.16 583.916 87.09C583.776 87.09 583.636 87.16 583.356 87.37C582.586 87.86 579.436 89.68 578.036 90.24C577.266 90.66 576.636 91.08 576.636 91.5ZM647.053 87.86C645.093 87.86 642.993 88.21 641.873 88.7C640.893 89.12 639.003 90.1 637.323 91.22C637.043 91.43 636.763 91.15 636.763 90.87C636.833 89.75 636.833 88.42 636.973 87.3C636.973 87.02 636.413 86.46 636.203 86.46C636.063 86.46 635.503 86.74 634.803 87.09C633.613 87.79 630.533 89.26 629.483 89.54C629.203 89.61 628.503 90.45 628.503 90.8C628.503 91.15 629.343 91.78 631.093 93.04C631.303 93.18 631.653 93.67 631.653 96.61C631.723 100.74 631.653 105.99 631.653 110.75C631.653 117.89 631.583 123.63 631.443 125.94C631.163 130.98 630.813 131.61 627.103 132.38C625.983 132.59 625.493 133.15 625.493 133.43C625.493 134.06 626.543 134.34 627.593 134.34C629.693 134.34 630.393 134.13 632.073 134.13C634.803 134.13 638.863 134.48 640.403 134.48C641.313 134.48 642.223 134.13 642.223 133.57C642.223 133.08 641.663 132.73 640.263 132.31C637.603 131.47 637.113 130.63 636.903 128.81C636.693 126.85 636.623 123.98 636.623 117.19C636.623 116.84 636.903 116.28 637.113 116.28C638.023 116.42 639.423 116.56 641.033 116.56C644.183 116.56 648.313 116 652.163 112.99C656.643 109.63 658.113 104.45 658.113 100.95C658.113 97.1 656.503 93.67 654.823 91.78C652.723 89.47 649.573 87.86 647.053 87.86ZM643.413 91.43C645.023 91.43 647.893 92.41 649.713 94.3C652.583 97.45 652.583 101.23 652.583 102.84C652.583 104.94 651.323 110.19 647.823 113.13C646.843 113.97 645.373 114.32 644.603 114.32C642.853 114.32 639.493 113.13 637.603 110.47C637.113 109.84 636.833 108.65 636.693 107.39C636.413 104.52 636.483 96.89 636.833 94.79C637.043 93.53 637.393 92.97 637.743 92.69C638.513 92.06 640.473 91.43 643.413 91.43ZM663.503 69.8C663.503 70.08 663.713 70.29 664.903 71.13C666.513 72.11 666.513 72.53 666.583 73.09C666.793 74.98 666.793 82.54 666.793 87.72C666.793 98.78 666.583 106.13 666.373 109C666.093 112.5 665.953 113.76 662.733 114.46C661.963 114.6 661.193 114.95 661.193 115.44C661.193 116 661.753 116.21 663.153 116.21C664.623 116.21 667.703 116 669.313 116C670.573 116 673.583 116.21 675.263 116.21C676.103 116.21 677.083 115.93 677.083 115.44C677.083 115.02 676.523 114.67 675.473 114.39C672.463 113.55 672.183 112.71 671.903 111.31C671.553 109.42 671.693 96.05 671.693 85.83C671.693 76.45 672.113 68.54 672.323 66.79C672.323 66.51 671.903 65.95 671.693 66.09C669.803 67.28 667.703 67.7 664.483 68.82C663.713 69.03 663.503 69.52 663.503 69.8ZM693.753 87.79C692.563 87.79 690.253 88.21 688.433 89.05C682.973 91.57 680.033 97.17 680.033 102.77C680.033 110.96 685.073 116.7 692.633 116.7C696.623 116.7 700.333 115.02 702.783 111.45C702.993 111.1 703.273 110.33 703.273 109.77C703.273 109.42 703.133 108.93 702.713 108.93C702.433 108.93 702.083 109.35 701.803 109.77C700.613 111.52 698.513 112.29 695.433 112.29C692.073 112.29 689.133 110.54 687.593 108.44C686.053 106.41 684.933 103.19 684.933 100.46C684.933 99.76 685.073 98.57 685.283 98.01C685.353 97.8 685.633 97.45 685.843 97.45C689.063 97.52 701.033 97.52 701.803 97.52C702.573 97.52 703.133 96.75 703.133 96.33C703.133 93.88 702.223 91.92 700.683 90.45C698.933 88.7 696.203 87.79 693.753 87.79ZM693.053 89.61C695.573 89.61 697.673 91.85 697.673 93.81C697.673 95.21 696.973 95.56 695.293 95.56C691.793 95.63 688.083 95.63 686.263 95.56C686.123 95.56 685.843 95.14 685.983 94.79C687.243 91.57 689.903 89.61 693.053 89.61ZM706.185 88.91C706.185 89.4 706.675 89.82 708.005 90.17C709.755 90.73 711.155 91.78 712.905 94.37C714.935 97.45 717.455 102.07 717.735 102.7C717.875 102.98 717.875 103.19 717.735 103.4C715.635 106.13 713.325 109.56 711.925 111.17C710.525 112.78 709.125 113.69 706.675 114.39C705.835 114.6 704.925 115.02 704.925 115.51C704.925 116.07 706.045 116.28 706.955 116.28C708.285 116.28 710.315 116 712.625 116C713.745 116 714.165 116.14 715.635 116.14C716.125 116.14 717.105 116 717.105 115.44C717.105 115.02 716.545 114.53 716.125 114.39C714.725 113.83 714.305 113.27 714.305 112.43C714.375 111.45 717.595 106.62 718.715 105.5C718.925 105.29 719.065 105.36 719.205 105.5C719.695 105.92 721.935 110.19 722.635 111.52C723.965 113.62 723.125 113.9 721.935 114.32C720.955 114.6 720.605 114.95 720.605 115.23C720.605 115.72 721.095 116.14 722.075 116.14C723.475 116.14 724.245 116 725.645 116C728.305 116 730.825 116.35 733.205 116.35C734.325 116.35 734.885 116 734.885 115.51C734.885 115.16 734.465 114.74 733.275 114.46C731.805 114.11 730.055 113.62 727.955 110.61C725.785 107.53 722.845 102.21 722.145 100.67C722.075 100.46 722.075 100.18 722.215 99.9C724.105 97.24 725.365 95.63 727.115 93.46C728.655 91.57 730.405 90.87 733.205 90.1C733.555 89.96 734.535 89.68 734.535 89.12C734.535 88.56 733.835 88.35 733.065 88.35C731.945 88.35 728.655 88.7 726.975 88.7C725.715 88.7 724.665 88.56 723.965 88.56C723.195 88.56 722.565 88.84 722.565 89.33C722.565 89.82 722.915 90.03 724.455 90.66C725.295 91.01 725.645 91.36 724.945 92.48C724.245 93.81 722.355 96.75 721.235 98.22C721.095 98.36 720.815 98.43 720.745 98.29C719.765 96.89 717.035 92.27 717.035 91.85C717.035 91.5 716.895 90.87 718.435 90.38C719.205 90.17 719.765 89.68 719.765 89.19C719.765 88.77 719.065 88.56 718.225 88.56C717.035 88.56 715.565 88.7 714.095 88.7C712.415 88.7 708.845 88.28 708.005 88.28C707.025 88.28 706.185 88.49 706.185 88.91ZM744.599 116C746.069 116 749.569 116.21 750.059 116.21C750.829 116.21 751.669 115.93 751.669 115.51C751.669 115.02 751.249 114.67 750.129 114.32C748.379 113.76 746.839 113.62 746.769 111.38C746.699 108.93 746.629 105.99 746.629 102.07C746.629 98.08 747.049 88.98 747.049 88.21C747.049 88.14 746.699 87.44 746.419 87.44C745.369 87.72 742.079 89.26 739.489 89.82C738.719 89.96 738.089 90.52 738.089 91.01C738.089 91.29 738.229 91.5 738.649 91.78C740.679 93.25 741.449 93.81 741.519 94.3C741.659 95.14 741.589 103.12 741.589 105.22C741.589 107.25 741.519 111.45 741.309 112.43C741.169 113.13 740.119 113.97 738.509 114.39C737.319 114.74 736.829 115.09 736.829 115.51C736.829 116 737.529 116.28 738.649 116.28C739.839 116.28 742.289 116 744.599 116ZM744.459 73.51C743.479 73.51 742.429 73.79 741.729 74.42C741.169 75.19 740.889 76.31 740.889 76.94C740.889 78.13 741.379 78.9 741.939 79.53C742.569 80.09 743.689 80.37 744.179 80.37C745.579 80.37 747.539 78.83 747.539 76.94C747.539 75.68 746.349 73.51 744.459 73.51ZM764.125 88.7C763.845 88.7 763.565 88.35 763.565 88.14V84.85C763.565 84.71 762.935 84.08 762.585 84.08C762.305 84.08 761.815 84.64 760.975 85.62C759.995 86.81 757.825 88.49 755.375 90.45C755.165 90.66 754.955 90.94 754.955 91.22C754.955 91.43 755.375 91.78 755.935 91.99C757.335 92.41 758.595 92.9 758.595 93.39C758.595 95.84 758.315 106.34 758.315 108.93C758.315 110.89 758.455 112.36 759.225 113.55C760.065 115.09 762.515 116.84 765.385 116.84C768.535 116.84 770.985 115.58 772.875 113.76C773.365 113.27 773.855 112.57 773.855 112.01C773.855 111.38 773.505 111.24 773.435 111.24C773.155 111.24 773.015 111.31 772.385 111.66C771.335 112.29 769.865 112.71 768.955 112.71C767.485 112.71 766.015 112.57 764.685 111.38C763.915 110.61 763.495 109.7 763.495 107.95C763.495 104.59 763.565 94.3 763.635 92.9C763.635 92.76 763.915 92.41 764.265 92.41H771.895C772.385 92.41 773.715 92.27 773.715 91.64C773.715 90.73 773.505 88.77 773.505 88.98C773.505 88.77 772.805 88.42 772.735 88.42C772.455 88.42 765.665 88.7 764.125 88.7ZM776.084 89.26C776.084 89.68 776.504 89.96 777.484 90.31C779.794 91.08 780.144 91.78 780.774 93.04C782.944 97.45 787.284 107.88 788.754 112.01L789.804 114.88C790.084 115.51 789.804 116.42 789.594 117.4C789.104 119.15 786.864 125.31 786.234 126.43C785.954 127.13 785.814 127.62 785.184 127.62C784.484 127.62 783.014 127.55 782.664 127.55C780.704 127.55 779.584 129.44 779.584 130.63C779.584 132.1 780.354 134.06 782.734 134.06C784.764 134.06 786.094 133.01 786.374 132.1C788.614 126.15 791.204 118.94 793.654 112.57C795.264 108.51 799.044 99.13 801.354 93.88C802.404 91.57 803.314 90.73 804.784 90.24C805.624 89.96 806.324 89.68 806.324 89.05C806.324 88.56 805.834 88.42 804.924 88.42C803.104 88.42 801.494 88.7 800.514 88.7C799.604 88.7 797.714 88.63 796.384 88.63C795.544 88.63 794.634 88.77 794.634 89.4C794.634 89.68 795.264 90.17 796.104 90.38C798.834 91.01 799.394 91.85 798.764 93.81C798.414 94.93 794.074 106.27 793.234 108.16C793.024 108.58 792.744 108.58 792.674 108.44C792.114 107.6 787.634 96.61 786.584 93.25C785.884 91.43 786.094 91.08 788.054 90.52C789.174 90.24 789.664 89.82 789.664 89.33C789.664 88.77 788.684 88.56 788.124 88.56C787.284 88.56 785.184 88.7 783.224 88.7C781.194 88.7 779.514 88.42 777.764 88.42C776.294 88.42 776.084 88.98 776.084 89.26Z" fill="black"/>
<path id="Lecture 1. Turing machines and their resources" d="M68.84 149.68C68.84 149.96 69.16 150.28 69.96 150.44C71.84 150.8 72.04 151.56 72.08 152.44C72.12 153.76 72.12 156.52 72.12 158.12C72.12 163.92 72 170.28 71.92 171.28C71.72 172.84 71.16 173.6 68.96 174.04C68.32 174.16 68 174.48 68 174.76C68 175.12 68.4 175.2 69.16 175.2C69.72 175.2 71.6 175 74.32 175C82.44 175 86.08 175.24 86.56 175.24C86.72 175.24 87.48 175 87.52 174.56C87.84 173.04 88.12 172.2 88.76 170.24C88.92 169.6 88.8 169.16 88.6 169.16C88.4 169.16 88.04 169.32 87.6 170.04C86.52 171.56 85.88 172.16 85.32 172.72C84.52 173.44 84.04 173.44 83.72 173.48C83.12 173.56 82 173.6 80.88 173.6C79.56 173.6 78.08 173.56 77.04 173.4C76.72 173.36 75.76 172.44 75.68 171.88C75.52 170.56 75.4 166.72 75.4 163.6C75.4 157.68 75.4 153.64 75.64 151.84C75.72 151.24 76 150.8 78.32 150.28C78.92 150.12 79.24 149.88 79.24 149.6C79.24 149.32 78.96 149.16 78.24 149.16C77.28 149.16 74.56 149.28 73 149.28C71.84 149.28 71.12 149.2 70.04 149.2C69.16 149.2 68.84 149.4 68.84 149.68ZM99.0116 158.88C98.3316 158.88 97.0116 159.12 95.9716 159.6C92.8516 161.04 91.1716 164.24 91.1716 167.44C91.1716 172.12 94.0516 175.4 98.3716 175.4C100.652 175.4 102.772 174.44 104.172 172.4C104.292 172.2 104.452 171.76 104.452 171.44C104.452 171.24 104.372 170.96 104.132 170.96C103.972 170.96 103.772 171.2 103.612 171.44C102.932 172.44 101.732 172.88 99.9716 172.88C98.0516 172.88 96.3716 171.88 95.4916 170.68C94.6116 169.52 93.9716 167.68 93.9716 166.12C93.9716 165.72 94.0516 165.04 94.1716 164.72C94.2116 164.6 94.3716 164.4 94.4916 164.4C96.3316 164.44 103.172 164.44 103.612 164.44C104.052 164.44 104.372 164 104.372 163.76C104.372 162.36 103.852 161.24 102.972 160.4C101.972 159.4 100.412 158.88 99.0116 158.88ZM98.6116 159.92C100.052 159.92 101.252 161.2 101.252 162.32C101.252 163.12 100.852 163.32 99.8916 163.32C97.8916 163.36 95.7716 163.36 94.7316 163.32C94.6516 163.32 94.4916 163.08 94.5716 162.88C95.2916 161.04 96.8116 159.92 98.6116 159.92ZM116.423 158.96C115.343 158.96 112.743 159.52 111.183 160.64C108.863 162.2 107.303 164.64 107.303 167.56C107.303 169.24 107.863 171.12 108.543 172.24C109.823 174.12 111.943 175.44 114.463 175.44C116.543 175.44 118.823 174.52 120.223 172.96C120.543 172.64 120.743 172.24 120.743 171.8C120.743 171.6 120.423 171.48 119.983 171.8C118.943 172.52 117.903 173 116.423 173C114.343 173 112.383 172 111.383 170.32C111.223 170.08 110.343 168.64 110.343 166.32C110.343 164.56 110.943 162.92 112.023 161.72C112.663 160.92 113.863 160.36 114.503 160.36C115.863 160.36 116.543 160.96 117.863 161.92C118.503 162.36 119.183 162.68 119.423 162.68C119.583 162.68 120.743 161.72 120.743 161.08C120.743 160.84 120.543 160.16 120.143 159.88C119.383 159.28 117.623 158.96 116.423 158.96ZM128.248 159.4C128.088 159.4 127.928 159.2 127.928 159.08V157.2C127.928 157.12 127.567 156.76 127.368 156.76C127.208 156.76 126.928 157.08 126.448 157.64C125.888 158.32 124.648 159.28 123.248 160.4C123.128 160.52 123.007 160.68 123.007 160.84C123.007 160.96 123.248 161.16 123.568 161.28C124.368 161.52 125.088 161.8 125.088 162.08C125.088 163.48 124.928 169.48 124.928 170.96C124.928 172.08 125.008 172.92 125.448 173.6C125.928 174.48 127.328 175.48 128.968 175.48C130.768 175.48 132.168 174.76 133.248 173.72C133.528 173.44 133.808 173.04 133.808 172.72C133.808 172.36 133.608 172.28 133.568 172.28C133.408 172.28 133.328 172.32 132.968 172.52C132.368 172.88 131.528 173.12 131.008 173.12C130.168 173.12 129.328 173.04 128.568 172.36C128.128 171.92 127.888 171.4 127.888 170.4C127.888 168.48 127.928 162.6 127.968 161.8C127.968 161.72 128.128 161.52 128.328 161.52H132.688C132.968 161.52 133.728 161.44 133.728 161.08C133.728 160.56 133.608 159.44 133.608 159.56C133.608 159.44 133.208 159.24 133.168 159.24C133.008 159.24 129.128 159.4 128.248 159.4ZM144.223 173.48C143.263 173.48 142.543 173.48 141.503 172.68C140.943 172.28 140.503 171.36 140.503 170.44C140.503 168.64 140.663 161.08 140.623 159.72C140.623 159.48 140.463 159.12 140.303 159.12C140.143 159.12 137.183 159.56 136.063 159.56C135.583 159.56 135.383 159.8 135.383 159.92C135.383 160.28 135.743 160.48 136.103 160.64C136.783 160.92 137.543 161.08 137.583 162.2C137.663 164.32 137.663 168.84 137.663 171.72C137.663 172.36 137.943 173.16 138.223 173.6C139.023 174.84 140.303 175.48 141.743 175.48C142.863 175.48 143.743 175.28 144.423 175C144.943 174.8 146.543 173.76 147.703 172.96C147.783 172.92 147.903 173.04 147.903 173.24C147.863 173.92 147.743 174.68 147.743 174.92C147.743 175.2 147.983 175.48 148.143 175.48C148.223 175.48 148.863 175.32 149.543 175.12C150.463 174.88 152.143 174.44 153.183 174.36C153.343 174.36 153.623 174.08 153.623 173.96C153.583 173.84 153.303 173.2 153.143 173.2C152.663 173.2 151.423 173.4 151.143 173.4C150.823 173.4 150.663 172.92 150.663 172.84C150.663 169.56 150.983 160.68 151.063 159.56C151.063 159.4 150.983 158.96 150.783 158.96C150.503 158.96 150.223 159 149.823 159.12C148.903 159.36 147.143 159.56 145.543 159.56C145.143 159.56 144.623 159.76 144.623 159.92C144.623 160.24 145.143 160.48 145.423 160.56L147.263 161.04C147.503 161.12 147.943 161.68 147.943 161.92L147.863 171.12C147.863 171.28 147.503 171.88 147.263 172.08C146.263 172.96 145.183 173.48 144.223 173.48ZM155.681 160.92C155.681 161.08 156.081 161.24 157.041 162C157.481 162.28 157.481 162.8 157.481 163.2V170.84C157.441 173.24 157.321 173.64 155.761 174.16C155.441 174.28 154.961 174.44 154.961 174.68C154.961 175 155.361 175.16 155.801 175.16C156.761 175.16 157.241 175 158.441 175C160.761 175 162.161 175.2 163.161 175.2C163.761 175.2 164.121 175.04 164.121 174.84C164.121 174.68 164.041 174.4 163.401 174.2L161.561 173.72C160.841 173.6 160.601 172.84 160.521 171.68C160.481 171.08 160.281 163.84 160.281 163.04C160.281 162.84 160.401 162.48 160.681 162.16C161.081 161.72 161.761 161.6 162.441 161.6C163.241 161.6 164.201 162.08 164.641 162.48C164.761 162.56 165.121 162.64 165.201 162.6C165.441 162.48 166.401 161.4 166.841 160.76C166.961 160.56 167.081 160.28 167.081 160.2C167.081 159.84 166.721 158.84 165.081 158.84C163.841 158.84 162.081 159.84 160.521 161.32C160.441 161.36 160.241 161.32 160.241 161.16C160.241 160.4 160.321 159.68 160.321 158.96C160.321 158.84 160.121 158.48 159.961 158.48C159.841 158.48 159.641 158.64 159.161 158.96C158.761 159.2 157.521 159.8 156.201 160.24C155.761 160.4 155.681 160.8 155.681 160.92ZM176.082 158.88C175.402 158.88 174.082 159.12 173.042 159.6C169.922 161.04 168.242 164.24 168.242 167.44C168.242 172.12 171.122 175.4 175.442 175.4C177.722 175.4 179.842 174.44 181.242 172.4C181.362 172.2 181.522 171.76 181.522 171.44C181.522 171.24 181.442 170.96 181.202 170.96C181.042 170.96 180.842 171.2 180.682 171.44C180.002 172.44 178.802 172.88 177.042 172.88C175.122 172.88 173.442 171.88 172.562 170.68C171.682 169.52 171.042 167.68 171.042 166.12C171.042 165.72 171.122 165.04 171.242 164.72C171.282 164.6 171.442 164.4 171.562 164.4C173.402 164.44 180.242 164.44 180.682 164.44C181.122 164.44 181.442 164 181.442 163.76C181.442 162.36 180.922 161.24 180.042 160.4C179.042 159.4 177.482 158.88 176.082 158.88ZM175.682 159.92C177.122 159.92 178.322 161.2 178.322 162.32C178.322 163.12 177.922 163.32 176.962 163.32C174.962 163.36 172.842 163.36 171.802 163.32C171.722 163.32 171.562 163.08 171.642 162.88C172.362 161.04 173.882 159.92 175.682 159.92ZM203.035 160.4C202.355 160.4 201.235 160.72 200.515 161.12C199.715 161.44 198.595 162.2 198.235 162.6C197.875 163 197.795 163.2 197.795 163.48C197.795 163.72 198.075 163.84 198.155 163.8C198.795 163.48 200.395 162.92 201.075 162.92C203.595 162.92 205.675 164.76 205.675 168.44C205.675 170.92 204.715 172.52 203.635 173.32C202.915 173.84 202.035 173.96 201.475 173.96C197.715 173.96 195.555 169.72 195.555 165.88C195.555 161.08 198.035 156.24 201.675 152.96C204.395 150.52 206.595 149.4 208.395 148.68C208.875 148.44 209.195 148.32 209.195 148.04C209.195 147.68 208.675 147.6 208.395 147.6C207.075 147.6 204.555 148.6 201.875 150.28C197.075 153.36 192.155 159.36 192.155 166.12C192.155 171.72 195.195 175.52 200.155 175.52C202.035 175.52 203.515 175 205.075 173.8C207.115 172.32 208.675 169.96 208.675 166.68C208.675 163.36 206.795 160.4 203.035 160.4ZM213.346 170.88C212.626 170.88 211.146 171.52 211.146 173.2C211.146 174.92 212.386 175.52 213.346 175.52C214.666 175.52 215.586 174.48 215.586 173.2C215.586 172.4 215.066 170.88 213.346 170.88ZM245.678 155.76C245.678 153.84 244.718 151.84 243.398 150.76C241.798 149.44 239.638 149.08 236.878 149.08C234.718 149.08 231.878 149.28 230.398 149.28H228.158C227.278 149.28 227.078 149.48 227.078 149.76C227.078 150.08 227.438 150.28 228.038 150.44C229.838 150.88 230.198 150.96 230.358 152.44C230.518 154 230.598 157.64 230.598 163.8C230.598 166.2 230.438 170.44 230.358 171.68C230.238 173.2 229.518 173.44 227.758 174C227.238 174.2 226.878 174.28 226.878 174.6C226.878 175 227.398 175.16 227.918 175.16C228.358 175.16 230.438 175 231.158 175C233.878 175 234.638 175.24 236.318 175.24C236.518 175.24 237.278 175.12 237.278 174.72C237.278 174.52 236.998 174.24 236.318 174.04C234.438 173.6 233.998 173.04 233.918 171.36C233.798 169.04 233.718 163.96 233.758 163.28C233.758 163.16 233.958 162.8 234.238 162.8C235.438 162.8 236.918 163.16 237.078 163.32C237.318 163.48 238.118 164.48 238.678 165.32C240.278 167.84 242.318 170.92 243.718 172.84C244.878 174.32 247.158 175.44 249.038 175.44C249.878 175.44 250.758 175.36 251.238 175.16C251.478 175.04 251.798 174.88 251.798 174.64C251.798 174.48 251.478 174.16 251.158 174.08C249.398 173.72 248.318 173 247.238 171.72C244.798 169 241.438 163.6 241.038 162.64C240.958 162.48 241.078 162.12 241.198 162.04C241.478 161.84 242.238 161.48 242.438 161.36C244.398 160.16 245.678 157.92 245.678 155.76ZM242.118 155.84C242.118 158.36 240.558 160.12 239.478 160.8C238.918 161.16 236.798 161.84 234.478 161.84C234.238 161.84 233.918 161.56 233.838 161.24C233.718 160.56 233.838 152.84 233.958 151.44C233.958 151.28 234.238 150.68 234.438 150.6C234.878 150.4 236.158 150.32 236.358 150.32C237.638 150.32 239.358 150.92 240.318 151.84C241.478 153 242.118 154.88 242.118 155.84ZM259.851 158.84C259.091 158.84 257.291 159.52 256.131 160.36C254.251 161.6 253.131 162.72 253.131 163.88C253.131 164.08 253.371 164.4 253.611 164.4C253.811 164.4 255.811 163.4 256.211 163.08C256.291 163 256.451 162.76 256.451 162.64C256.371 161.84 256.491 161.12 256.731 161C257.011 160.8 257.531 160.56 258.371 160.56C260.331 160.56 261.491 162.24 261.491 163.24C261.491 163.72 261.451 166.16 261.411 166.52C261.411 166.76 261.171 166.96 260.251 167.24C259.371 167.52 256.171 168.4 255.571 168.64C254.971 168.92 254.371 169.12 253.971 169.64C253.531 170.2 253.211 170.96 253.211 171.68C253.211 173.68 254.571 175.4 255.971 175.4C256.171 175.4 257.131 175.32 257.571 175.16C257.971 175.04 259.691 174.36 261.171 173.32C261.251 173.28 261.411 173.44 261.411 173.48C261.891 174.96 263.051 175.48 263.971 175.48C265.771 175.48 267.571 173.76 267.571 173C267.571 172.96 267.571 172.72 267.451 172.6C267.371 172.48 267.331 172.4 267.211 172.48C266.771 172.8 265.851 173.08 265.691 173.08C265.371 173.08 264.091 172.92 264.091 171.08C264.091 170.64 264.251 165.6 264.251 164.04C264.251 162.36 264.051 161.56 263.451 160.72C262.851 159.84 261.851 158.84 259.851 158.84ZM258.651 173.32C257.811 173.32 256.131 172.68 256.131 170.92C256.131 169.96 256.531 169.68 256.931 169.4C258.011 168.88 259.931 168.2 261.051 168.2C261.211 168.2 261.371 168.4 261.371 168.52C261.371 169.32 261.371 170.68 261.291 171.64C261.291 171.72 261.051 172.48 260.811 172.64C260.051 173.04 259.251 173.32 258.651 173.32ZM269.55 160.76C269.55 160.88 269.79 161.08 270.31 161.44C271.19 162.16 271.27 162.56 271.27 163C271.27 167.08 271.19 170.56 271.07 171.76C270.95 173.2 270.71 173.6 269.39 174C268.95 174.12 268.55 174.32 268.55 174.6C268.55 174.96 268.99 175.12 269.59 175.12C270.27 175.12 271.43 175 272.91 175C273.75 175 274.87 175.04 275.35 175.04C275.91 175.04 276.35 174.84 276.35 174.56C276.35 174.32 276.03 174.08 275.63 173.96C274.35 173.6 274.19 173.28 274.15 172.72C274.11 172.24 274.11 163.64 274.11 163.12C274.11 162.76 274.39 162.28 274.51 162.16C275.27 161.48 276.31 160.88 278.07 160.88C278.99 160.88 280.19 161.32 280.63 161.64C281.11 162 281.83 163.16 281.83 164.6C281.83 165.76 281.79 170.6 281.71 171.92C281.63 173.24 281.43 173.56 280.47 173.92C279.99 174.08 279.55 174.32 279.55 174.6C279.55 174.92 280.11 175.08 280.47 175.08C280.99 175.08 282.23 175 283.23 175C284.35 175 285.27 175.08 286.19 175.08C286.83 175.08 287.39 174.92 287.39 174.64C287.39 174.36 287.15 174.16 286.39 173.96C285.39 173.68 284.99 173.16 284.91 172.56C284.87 172 284.79 166.04 284.79 165.28C284.79 163.28 284.27 161.44 283.39 160.4C282.83 159.76 281.71 158.88 279.75 158.88C278.07 158.88 275.99 160 274.39 161.08C274.35 161.08 274.15 161.16 274.15 160.96C274.15 160.6 274.31 159.64 274.31 158.96C274.31 158.8 274.11 158.36 273.91 158.36C273.71 158.36 273.35 158.56 272.95 158.8C272.39 159.2 270.95 159.72 270.27 159.96C269.99 160.08 269.55 160.48 269.55 160.76ZM299.089 158.84C298.009 158.84 295.649 159.24 293.809 160.36C291.849 161.52 289.569 163.8 289.569 167.72C289.569 169.72 290.209 171.76 291.489 173.2C292.729 174.52 294.569 175.4 296.489 175.4C297.809 175.4 299.849 175.04 301.689 173.4C301.769 173.4 301.929 173.48 301.929 173.64C301.929 174.2 301.849 174.92 301.849 175.28C301.849 175.48 302.129 175.8 302.289 175.8C302.489 175.8 302.809 175.72 303.729 175.4C304.489 175.12 306.569 174.72 307.329 174.6C307.529 174.56 308.009 173.88 308.009 173.6C308.009 173.56 307.929 173.36 307.769 173.36C307.369 173.4 306.049 173.68 305.609 173.68C305.369 173.68 305.049 173.52 304.969 172.04C304.969 171.28 304.889 170.64 304.889 162.92C304.889 150.68 305.049 149.24 305.249 147.12C305.289 146.76 305.049 146.48 304.929 146.48C304.769 146.48 304.649 146.52 304.409 146.6C303.369 147 301.249 147.6 300.329 147.72C300.089 147.76 299.649 148.24 299.649 148.4C299.649 148.48 299.689 148.56 300.049 148.76C301.889 149.72 301.889 150.2 301.929 150.4C302.049 151.36 302.169 157.48 301.969 158.56C301.929 158.76 301.809 159.04 301.649 159C301.169 158.92 300.529 158.84 299.089 158.84ZM297.609 160.16C298.409 160.16 299.929 160.6 301.049 161.72C301.529 162.2 301.889 162.92 301.929 163.24C302.049 165.12 302.089 167.32 302.049 169.88C302.009 171.16 301.489 172.44 301.409 172.52C300.689 173.04 299.769 173.48 298.489 173.48C295.049 173.48 292.809 169.8 292.809 166.6C292.809 164.36 293.729 162.32 294.489 161.56C295.209 160.84 296.329 160.16 297.609 160.16ZM318.25 158.84C315.57 158.84 313.57 159.96 312.33 161.04C310.81 162.32 309.53 164.24 309.53 167.28C309.53 169.28 310.77 172 312.49 173.4C313.97 174.64 315.97 175.48 317.81 175.48C319.61 175.48 321.17 175.04 322.77 173.88C324.25 172.92 326.25 170.32 326.25 167C326.25 161.96 322.21 158.84 318.25 158.84ZM317.49 160.04C318.53 160.04 319.97 160.64 320.85 161.6C322.37 163.36 322.85 165.64 322.85 167.72C322.85 169.44 322.05 171.92 321.05 173C319.93 174.12 319.05 174.32 318.61 174.32C316.69 174.32 314.41 172.88 313.41 169.88C313.09 168.88 312.93 167.64 312.93 166.32C312.93 164.24 313.85 162.16 314.89 161.2C315.73 160.48 316.65 160.04 317.49 160.04ZM329.471 161C329.471 161.2 329.751 161.4 330.871 162.44C331.231 162.8 331.151 163.32 331.151 163.52C331.151 166.28 331.111 170.28 331.031 171.44C330.871 173.16 330.631 173.76 329.351 174.08C328.631 174.24 328.391 174.52 328.391 174.68C328.391 174.96 328.791 175.12 329.391 175.12C330.271 175.12 331.071 175 332.391 175C333.911 175 335.391 175.08 335.551 175.08C336.071 175.08 336.631 174.96 336.631 174.68C336.631 174.36 336.311 174.2 335.551 173.96C334.271 173.56 334.111 172.92 334.111 172.16C334.111 169.12 334.111 164.08 334.191 163.04C334.231 162.6 334.351 162.28 334.631 162.04C335.591 161.28 336.511 160.8 337.831 160.8C339.271 160.8 340.311 161.32 340.831 162C341.111 162.36 341.351 162.88 341.351 164.04V171.88C341.351 173.32 341.191 173.72 339.831 174.04C339.191 174.2 339.031 174.48 339.031 174.6C339.031 174.76 339.151 175.08 340.071 175.08C340.911 175.08 342.071 175 342.911 175C343.831 175 345.031 175.08 345.911 175.08C346.551 175.08 346.871 174.88 346.871 174.6C346.871 174.4 346.471 174.16 346.031 174.04C344.671 173.72 344.471 173.32 344.351 172.04C344.271 171.16 344.351 163.6 344.351 163.32C344.351 163.04 344.631 162.28 344.751 162.16C345.311 161.68 346.031 160.92 347.831 160.92C349.511 160.92 350.391 161.56 350.871 162.32C351.271 163.04 351.511 163.6 351.511 165C351.511 166.32 351.591 170.8 351.591 171.76C351.591 173.16 351.431 173.64 350.151 174.04C349.711 174.16 349.271 174.32 349.271 174.56C349.271 174.84 349.511 175.08 350.271 175.08C351.191 175.08 351.791 175 352.991 175C353.991 175 355.071 175.12 355.871 175.12C356.631 175.12 356.991 174.96 356.991 174.68C356.991 174.44 356.751 174.28 356.231 174.12C354.791 173.72 354.551 172.96 354.511 172.24C354.511 168.96 354.591 166.16 354.431 164.08C354.351 162.64 353.991 161.24 353.111 160.24C352.271 159.36 351.151 158.88 349.671 158.88C348.951 158.88 348.031 159.08 347.111 159.52C346.071 160.04 345.031 160.68 344.271 161.24C344.111 161.32 344.031 161.24 343.951 161.08C343.791 160.8 343.391 160.2 342.671 159.68C341.951 159.16 340.991 158.88 339.551 158.88C337.671 158.88 335.191 160.4 334.191 161.2C334.031 161.36 333.951 161.08 333.951 160.96C333.951 160.56 334.111 159.44 334.111 158.88C334.111 158.8 333.831 158.52 333.631 158.48C333.551 158.48 333.471 158.52 333.311 158.64C332.871 158.92 331.071 159.96 330.271 160.28C329.831 160.52 329.471 160.76 329.471 161ZM363.614 175C364.454 175 366.454 175.12 366.734 175.12C367.174 175.12 367.654 174.96 367.654 174.72C367.654 174.44 367.414 174.24 366.774 174.04C365.774 173.72 364.894 173.64 364.854 172.36C364.814 170.96 364.774 169.28 364.774 167.04C364.774 164.76 365.014 159.56 365.014 159.12C365.014 159.08 364.814 158.68 364.654 158.68C364.054 158.84 362.174 159.72 360.694 160.04C360.254 160.12 359.894 160.44 359.894 160.72C359.894 160.88 359.974 161 360.214 161.16C361.374 162 361.814 162.32 361.854 162.6C361.934 163.08 361.894 167.64 361.894 168.84C361.894 170 361.854 172.4 361.734 172.96C361.654 173.36 361.054 173.84 360.134 174.08C359.454 174.28 359.174 174.48 359.174 174.72C359.174 175 359.574 175.16 360.214 175.16C360.894 175.16 362.294 175 363.614 175ZM363.534 150.72C362.974 150.72 362.374 150.88 361.974 151.24C361.654 151.68 361.494 152.32 361.494 152.68C361.494 153.36 361.774 153.8 362.094 154.16C362.454 154.48 363.094 154.64 363.374 154.64C364.174 154.64 365.294 153.76 365.294 152.68C365.294 151.96 364.614 150.72 363.534 150.72ZM375.611 158.84C374.251 158.84 373.171 159.2 372.411 159.68C370.891 160.6 370.211 161.92 370.211 163.28C370.211 165.16 371.491 166.56 372.691 167.32C373.931 168.12 374.171 168.32 375.131 169C376.371 169.76 376.931 170.6 376.931 171.68C376.931 172.44 376.611 173.4 376.011 173.88C375.571 174.2 374.931 174.48 374.411 174.48C372.971 174.48 371.891 173.68 370.771 171.64C370.531 171.2 370.251 170.72 369.931 170.72C369.691 170.72 369.611 171.12 369.611 171.56C369.611 172.72 370.091 174.4 370.211 174.6C370.891 175.16 372.891 175.48 374.091 175.48C375.331 175.48 376.731 175.04 377.451 174.56C378.451 173.84 379.771 172.48 379.771 170.64C379.771 168.84 378.891 167.48 376.651 166.16C373.971 164.68 372.691 163.64 372.691 162.28C372.691 161.44 373.451 159.8 375.091 159.8C376.411 159.8 377.411 160.6 378.291 162.48C378.491 162.92 378.731 163.16 378.891 163.16C379.211 163.16 379.371 162.8 379.371 162.44C379.371 162.16 379.251 160.8 379.251 160.08C379.251 159.84 379.011 159.56 378.931 159.52C378.851 159.48 378.091 159.16 377.651 159.08C377.211 158.96 376.371 158.84 375.611 158.84ZM389.383 158.84C388.623 158.84 386.823 159.52 385.663 160.36C383.783 161.6 382.663 162.72 382.663 163.88C382.663 164.08 382.903 164.4 383.143 164.4C383.343 164.4 385.343 163.4 385.743 163.08C385.823 163 385.983 162.76 385.983 162.64C385.903 161.84 386.023 161.12 386.263 161C386.543 160.8 387.063 160.56 387.903 160.56C389.863 160.56 391.023 162.24 391.023 163.24C391.023 163.72 390.983 166.16 390.943 166.52C390.943 166.76 390.703 166.96 389.783 167.24C388.903 167.52 385.703 168.4 385.103 168.64C384.503 168.92 383.903 169.12 383.503 169.64C383.063 170.2 382.743 170.96 382.743 171.68C382.743 173.68 384.103 175.4 385.503 175.4C385.703 175.4 386.663 175.32 387.103 175.16C387.503 175.04 389.223 174.36 390.703 173.32C390.783 173.28 390.943 173.44 390.943 173.48C391.423 174.96 392.583 175.48 393.503 175.48C395.303 175.48 397.103 173.76 397.103 173C397.103 172.96 397.103 172.72 396.983 172.6C396.903 172.48 396.863 172.4 396.743 172.48C396.303 172.8 395.383 173.08 395.223 173.08C394.903 173.08 393.623 172.92 393.623 171.08C393.623 170.64 393.783 165.6 393.783 164.04C393.783 162.36 393.583 161.56 392.983 160.72C392.383 159.84 391.383 158.84 389.383 158.84ZM388.183 173.32C387.343 173.32 385.663 172.68 385.663 170.92C385.663 169.96 386.062 169.68 386.463 169.4C387.543 168.88 389.463 168.2 390.583 168.2C390.743 168.2 390.903 168.4 390.903 168.52C390.903 169.32 390.903 170.68 390.823 171.64C390.823 171.72 390.583 172.48 390.343 172.64C389.583 173.04 388.783 173.32 388.183 173.32ZM403.169 159.4C403.009 159.4 402.849 159.2 402.849 159.08V157.2C402.849 157.12 402.489 156.76 402.289 156.76C402.129 156.76 401.849 157.08 401.369 157.64C400.809 158.32 399.569 159.28 398.169 160.4C398.049 160.52 397.929 160.68 397.929 160.84C397.929 160.96 398.169 161.16 398.489 161.28C399.289 161.52 400.009 161.8 400.009 162.08C400.009 163.48 399.849 169.48 399.849 170.96C399.849 172.08 399.929 172.92 400.369 173.6C400.849 174.48 402.249 175.48 403.889 175.48C405.689 175.48 407.089 174.76 408.169 173.72C408.449 173.44 408.729 173.04 408.729 172.72C408.729 172.36 408.529 172.28 408.489 172.28C408.329 172.28 408.249 172.32 407.889 172.52C407.289 172.88 406.449 173.12 405.929 173.12C405.089 173.12 404.249 173.04 403.489 172.36C403.049 171.92 402.809 171.4 402.809 170.4C402.809 168.48 402.849 162.6 402.889 161.8C402.889 161.72 403.049 161.52 403.249 161.52H407.609C407.889 161.52 408.649 161.44 408.649 161.08C408.649 160.56 408.529 159.44 408.529 159.56C408.529 159.44 408.129 159.24 408.089 159.24C407.929 159.24 404.049 159.4 403.169 159.4ZM414.551 175C415.391 175 417.391 175.12 417.671 175.12C418.111 175.12 418.591 174.96 418.591 174.72C418.591 174.44 418.351 174.24 417.711 174.04C416.711 173.72 415.831 173.64 415.791 172.36C415.751 170.96 415.711 169.28 415.711 167.04C415.711 164.76 415.951 159.56 415.951 159.12C415.951 159.08 415.751 158.68 415.591 158.68C414.991 158.84 413.111 159.72 411.631 160.04C411.191 160.12 410.831 160.44 410.831 160.72C410.831 160.88 410.911 161 411.151 161.16C412.311 162 412.751 162.32 412.791 162.6C412.871 163.08 412.831 167.64 412.831 168.84C412.831 170 412.791 172.4 412.671 172.96C412.591 173.36 411.991 173.84 411.071 174.08C410.391 174.28 410.111 174.48 410.111 174.72C410.111 175 410.511 175.16 411.151 175.16C411.831 175.16 413.231 175 414.551 175ZM414.471 150.72C413.911 150.72 413.311 150.88 412.911 151.24C412.591 151.68 412.431 152.32 412.431 152.68C412.431 153.36 412.711 153.8 413.031 154.16C413.391 154.48 414.031 154.64 414.311 154.64C415.111 154.64 416.231 153.76 416.231 152.68C416.231 151.96 415.551 150.72 414.471 150.72ZM429.148 158.84C426.468 158.84 424.468 159.96 423.228 161.04C421.708 162.32 420.428 164.24 420.428 167.28C420.428 169.28 421.668 172 423.388 173.4C424.868 174.64 426.868 175.48 428.708 175.48C430.508 175.48 432.068 175.04 433.668 173.88C435.148 172.92 437.148 170.32 437.148 167C437.148 161.96 433.108 158.84 429.148 158.84ZM428.388 160.04C429.428 160.04 430.868 160.64 431.748 161.6C433.268 163.36 433.748 165.64 433.748 167.72C433.748 169.44 432.948 171.92 431.948 173C430.828 174.12 429.948 174.32 429.508 174.32C427.588 174.32 425.308 172.88 424.308 169.88C423.988 168.88 423.828 167.64 423.828 166.32C423.828 164.24 424.748 162.16 425.788 161.2C426.628 160.48 427.548 160.04 428.388 160.04ZM440.409 160.76C440.409 160.88 440.649 161.08 441.169 161.44C442.049 162.16 442.129 162.56 442.129 163C442.129 167.08 442.049 170.56 441.929 171.76C441.809 173.2 441.569 173.6 440.249 174C439.809 174.12 439.409 174.32 439.409 174.6C439.409 174.96 439.849 175.12 440.449 175.12C441.129 175.12 442.289 175 443.769 175C444.609 175 445.729 175.04 446.209 175.04C446.769 175.04 447.209 174.84 447.209 174.56C447.209 174.32 446.889 174.08 446.489 173.96C445.209 173.6 445.049 173.28 445.009 172.72C444.969 172.24 444.969 163.64 444.969 163.12C444.969 162.76 445.249 162.28 445.369 162.16C446.129 161.48 447.169 160.88 448.929 160.88C449.849 160.88 451.049 161.32 451.489 161.64C451.969 162 452.689 163.16 452.689 164.6C452.689 165.76 452.649 170.6 452.569 171.92C452.489 173.24 452.289 173.56 451.329 173.92C450.849 174.08 450.409 174.32 450.409 174.6C450.409 174.92 450.969 175.08 451.329 175.08C451.849 175.08 453.089 175 454.089 175C455.209 175 456.129 175.08 457.049 175.08C457.689 175.08 458.249 174.92 458.249 174.64C458.249 174.36 458.009 174.16 457.249 173.96C456.249 173.68 455.849 173.16 455.769 172.56C455.729 172 455.649 166.04 455.649 165.28C455.649 163.28 455.129 161.44 454.249 160.4C453.689 159.76 452.569 158.88 450.609 158.88C448.929 158.88 446.849 160 445.249 161.08C445.209 161.08 445.009 161.16 445.009 160.96C445.009 160.6 445.169 159.64 445.169 158.96C445.169 158.8 444.969 158.36 444.769 158.36C444.569 158.36 444.209 158.56 443.809 158.8C443.249 159.2 441.809 159.72 441.129 159.96C440.849 160.08 440.409 160.48 440.409 160.76Z" fill="black"/>
<rect id="19:2" opacity="0.5" x="59" y="242" width="409" height="307" fill="#FF0000"/>
</g>
</svg>
