<svg width="1280" height="960" viewBox="0 0 1280 960" fill="none" xmlns="http://www.w3.org/2000/svg">
<g id="Propositional formulas">
<rect width="1280" height="960" fill="white"/>
<path id="(x &#226;&#136;&#168; &#194;&#172;y) &#226;&#136;&#167; (y &#226;&#136;&#168; z)" d="M405.16 742.72C405.16 735.92 407.8 729.16 411.64 725.64C411.96 725.32 412.04 725.08 412.04 724.92C412.04 724.68 411.6 724.36 411.08 724.36C410.84 724.36 410.24 724.76 409.92 725.08C406.84 728.24 403 735.08 403 743.6C403 750.52 405.04 756.84 409.36 761.68C409.84 762.2 410.28 762.4 410.56 762.4C410.8 762.4 411.2 762.16 411.44 761.96C411.64 761.72 411.56 761.4 411.36 761.16C407.32 755.44 405.16 752.48 405.16 742.72ZM420.233 737.96C418.513 737.96 415.873 741.08 415.873 742.68C415.873 743 415.993 743.2 416.193 743.2C416.313 743.2 416.433 742.96 416.553 742.8C417.353 741.64 418.073 740.72 418.793 740.72C418.913 740.72 419.233 740.76 419.473 741.6L420.953 746.28C420.993 746.44 420.993 746.8 420.873 746.96C419.513 748.56 416.593 752.16 415.593 752.16C414.953 752.16 414.873 751.84 414.673 750.92C414.633 750.52 414.193 750.6 413.833 750.8C413.353 751.08 412.313 752.16 412.313 753.32C412.273 753.84 412.913 754.76 413.793 754.76C415.633 754.76 417.433 752.64 421.153 748C421.193 747.96 421.313 747.92 421.353 748.04C421.713 749.12 422.073 750.56 422.473 751.68C423.073 753.52 423.913 754.52 424.793 754.52C426.113 754.52 429.073 752.08 429.113 749.44C429.113 748.92 428.953 748.76 428.833 748.76C428.753 748.76 428.513 748.92 428.393 749.16C427.793 750.16 426.593 751.76 425.953 751.76C425.073 751.76 424.713 750.12 423.313 745.76C423.273 745.64 423.353 745.36 423.433 745.24C424.473 744.04 427.313 740.32 428.473 740.32C428.873 740.32 429.193 741 429.233 741.16C429.353 741.44 429.513 741.64 429.793 741.64C430.593 741.64 431.553 739.96 431.553 739.36C431.553 738.72 431.273 737.84 429.993 737.84C429.593 737.84 428.753 738.12 428.433 738.4C426.913 739.4 425.073 742 423.233 744.08C423.153 744.16 422.993 744.24 422.953 744.12C422.553 742.92 421.953 741.24 421.593 739.92C421.393 739.2 420.913 737.96 420.233 737.96ZM456.811 737.92H454.921L448.471 750.88L442.021 737.92H440.071L448.321 754.87H448.621L456.811 737.92ZM490.242 750.55V742.21H475.122V744.19H488.262V750.55H490.242ZM497.31 737.84C494.83 737.84 492.63 741.24 492.75 743.2C492.79 743.6 492.87 743.88 493.11 743.88C493.31 743.88 493.55 743.48 493.83 742.92C494.67 741.24 495.63 739.96 496.19 739.96C496.75 739.96 496.83 740.68 497.03 741.28C497.31 742.2 497.63 745.24 497.63 748.56C497.63 753.36 496.47 757.8 494.71 759.88C493.07 761.76 492.03 762.44 490.83 762.44C489.99 762.44 489.59 761.6 488.99 761.16C488.91 761.04 488.67 761 488.51 761C487.75 761 486.87 762.12 486.87 763C486.87 764 487.87 764.64 488.91 764.64C489.83 764.64 491.39 764.24 493.19 762.8C494.95 761.32 496.31 759.6 497.47 758.2C498.31 757.16 500.07 754.28 501.79 751.44C503.07 749.28 506.39 742.56 506.39 739.2C506.39 738.76 505.59 737.6 504.95 737.6C504.79 737.6 504.31 737.96 504.31 738.24C504.19 743 502.51 747.8 500.55 751.28C500.31 751.72 499.83 751.88 499.87 751.72C500.19 746.84 499.99 743.28 499.47 740.68C499.31 739.76 498.51 737.84 497.31 737.84ZM515.461 744.12C515.461 750.88 512.781 757.2 509.061 761.04C508.741 761.44 508.661 761.68 508.741 761.8C508.821 762 509.021 762.24 509.501 762.24C509.741 762.24 510.341 761.8 510.661 761.48C513.701 758.32 517.541 751.64 517.541 743.16C517.541 736.36 515.661 730.56 511.381 725.36C510.901 724.8 510.301 724.6 510.021 724.6C509.741 724.6 509.381 724.8 509.141 725.04C508.941 725.24 508.901 725.56 509.061 725.84C513.021 730.76 515.461 735.08 515.461 744.12ZM546.293 754.87L538.043 737.92H537.743L529.553 754.87H531.443L537.893 741.91L544.343 754.87H546.293ZM560.355 742.72C560.355 735.92 562.995 729.16 566.835 725.64C567.155 725.32 567.235 725.08 567.235 724.92C567.235 724.68 566.795 724.36 566.275 724.36C566.035 724.36 565.435 724.76 565.115 725.08C562.035 728.24 558.195 735.08 558.195 743.6C558.195 750.52 560.235 756.84 564.555 761.68C565.035 762.2 565.475 762.4 565.755 762.4C565.995 762.4 566.395 762.16 566.635 761.96C566.835 761.72 566.755 761.4 566.555 761.16C562.515 755.44 560.355 752.48 560.355 742.72ZM574.468 737.84C571.988 737.84 569.788 741.24 569.908 743.2C569.948 743.6 570.028 743.88 570.268 743.88C570.468 743.88 570.708 743.48 570.988 742.92C571.828 741.24 572.788 739.96 573.348 739.96C573.908 739.96 573.988 740.68 574.188 741.28C574.468 742.2 574.788 745.24 574.788 748.56C574.788 753.36 573.628 757.8 571.868 759.88C570.228 761.76 569.188 762.44 567.988 762.44C567.148 762.44 566.748 761.6 566.148 761.16C566.068 761.04 565.828 761 565.668 761C564.908 761 564.028 762.12 564.028 763C564.028 764 565.028 764.64 566.068 764.64C566.988 764.64 568.548 764.24 570.348 762.8C572.108 761.32 573.468 759.6 574.628 758.2C575.468 757.16 577.228 754.28 578.948 751.44C580.228 749.28 583.548 742.56 583.548 739.2C583.548 738.76 582.748 737.6 582.108 737.6C581.948 737.6 581.468 737.96 581.468 738.24C581.348 743 579.668 747.8 577.708 751.28C577.468 751.72 576.988 751.88 577.028 751.72C577.348 746.84 577.148 743.28 576.628 740.68C576.468 739.76 575.668 737.84 574.468 737.84ZM609.818 737.92H607.928L601.478 750.88L595.028 737.92H593.078L601.328 754.87H601.628L609.818 737.92ZM626.761 737.84C625.801 737.84 624.401 738.24 622.801 739.44C621.321 740.6 620.321 742.32 620.321 743.12C620.321 743.48 620.521 744.2 620.921 744.2C621.361 744.2 622.281 743.76 622.641 743.36C622.841 743.16 622.881 743.08 622.841 742.92C622.681 742.44 622.601 741.64 622.601 741.28C622.641 740.48 623.321 739.88 624.121 739.88C625.401 739.88 626.281 740.24 627.761 740.64C628.641 740.92 629.321 741.2 629.881 741.28C629.921 741.28 629.961 741.32 629.921 741.44C629.601 742.16 622.601 748.68 620.001 751.2C618.881 752.28 618.401 753.04 618.441 753.56C618.441 754.12 618.881 754.56 619.121 754.56C619.241 754.56 619.441 754.48 619.521 754.32C619.721 753.92 620.321 752.88 620.481 752.72C620.881 752.24 621.401 752.12 621.761 752.12C622.441 752.12 622.921 752.24 624.401 753.4C625.841 754.52 626.881 755.2 627.601 755.2C628.921 755.2 629.561 755 631.201 753.84C632.241 753.08 633.961 751.28 634.001 749.92C634.001 748.76 633.601 748 632.561 748C632.401 748 632.161 748.16 632.161 748.32C632.201 748.48 632.241 749.4 632.241 749.56C632.241 751.2 631.881 752.96 629.881 752.96C629.481 752.96 628.441 752.72 627.521 752.08C626.161 751.16 624.921 750.24 623.361 750.12C623.241 750.12 623.161 750 623.281 749.88C624.761 748.2 633.201 740.16 634.961 738.68C635.201 738.44 635.361 738.04 635.361 737.84C635.401 737.64 635.121 737.56 634.961 737.56C634.721 737.56 634.561 737.64 634.081 738C632.881 738.92 632.161 739.24 631.641 739.24C631.201 739.24 630.401 739 629.481 738.6C628.401 738.16 627.361 737.84 626.761 737.84ZM643.84 744.12C643.84 750.88 641.16 757.2 637.44 761.04C637.12 761.44 637.04 761.68 637.12 761.8C637.2 762 637.4 762.24 637.88 762.24C638.12 762.24 638.72 761.8 639.04 761.48C642.08 758.32 645.92 751.64 645.92 743.16C645.92 736.36 644.04 730.56 639.76 725.36C639.28 724.8 638.68 724.6 638.4 724.6C638.12 724.6 637.76 724.8 637.52 725.04C637.32 725.24 637.28 725.56 637.44 725.84C641.4 730.76 643.84 735.08 643.84 744.12Z" fill="black"/>
<line id="Line 9" x1="529.516" y1="710.126" x2="503.516" y2="610.126" stroke="black"/>
<line id="Line 10" x1="476.501" y1="723.027" x2="470.501" y2="610.026" stroke="black"/>
<line id="Line 11" x1="444.5" y1="721.982" x2="448.5" y2="609.982" stroke="black"/>
<path id="the connectives are &#226;&#136;&#167; &#226;&#136;&#168; &#194;&#172; no quantifiers" d="M335.592 545.08C335.48 545.08 335.368 544.94 335.368 544.856V543.54C335.368 543.484 335.116 543.232 334.976 543.232C334.864 543.232 334.668 543.456 334.332 543.848C333.94 544.324 333.072 544.996 332.092 545.78C332.008 545.864 331.924 545.976 331.924 546.088C331.924 546.172 332.092 546.312 332.316 546.396C332.876 546.564 333.38 546.76 333.38 546.956C333.38 547.936 333.268 552.136 333.268 553.172C333.268 553.956 333.324 554.544 333.632 555.02C333.968 555.636 334.948 556.336 336.096 556.336C337.356 556.336 338.336 555.832 339.092 555.104C339.288 554.908 339.484 554.628 339.484 554.404C339.484 554.152 339.344 554.096 339.316 554.096C339.204 554.096 339.148 554.124 338.896 554.264C338.476 554.516 337.888 554.684 337.524 554.684C336.936 554.684 336.348 554.628 335.816 554.152C335.508 553.844 335.34 553.48 335.34 552.78C335.34 551.436 335.368 547.32 335.396 546.76C335.396 546.704 335.508 546.564 335.648 546.564H338.7C338.896 546.564 339.428 546.508 339.428 546.256C339.428 545.892 339.344 545.108 339.344 545.192C339.344 545.108 339.064 544.968 339.036 544.968C338.924 544.968 336.208 545.08 335.592 545.08ZM347.815 544.688C346.639 544.688 345.435 545.276 344.287 546.312C344.259 546.34 344.091 546.312 344.091 546.144C344.091 545.332 344.203 538.36 344.483 536.344C344.483 536.26 344.427 536.036 344.315 536.036C344.147 536.036 343.895 536.176 343.783 536.232C343.111 536.68 341.851 536.96 340.983 537.212C340.927 537.24 340.899 537.296 340.899 537.352C340.899 537.576 341.067 537.856 341.179 537.912C341.963 538.416 342.019 538.472 342.103 539.2C342.215 540.012 342.187 544.744 342.187 545.864C342.187 548.692 341.991 552.472 341.907 553.648C341.823 554.684 341.543 554.992 340.815 555.244C340.227 555.412 340.003 555.58 340.003 555.72C340.003 556 340.395 556.084 340.647 556.084C341.123 556.084 342.131 556 342.775 556C343.447 556 344.847 556.056 345.071 556.056C345.463 556.056 345.771 555.972 345.771 555.72C345.771 555.58 345.547 555.384 345.155 555.272C344.511 555.104 344.119 554.936 344.063 554.012C344.035 553.004 344.035 549.364 344.119 548.188C344.147 547.32 344.511 546.872 344.567 546.816C344.679 546.704 345.603 546.172 346.807 546.172C347.899 546.172 348.627 546.564 349.075 547.096C349.383 547.46 349.523 548.356 349.523 549.896C349.523 550.344 349.579 553.424 349.523 553.956C349.411 555.02 349.327 555.104 348.627 555.328C348.291 555.412 348.039 555.552 348.039 555.72C348.039 555.916 348.179 556.056 348.599 556.056C349.411 556.056 349.971 556 350.615 556C351.567 556 351.875 556.084 352.827 556.084C353.359 556.084 353.583 555.972 353.583 555.72C353.583 555.552 353.359 555.384 352.799 555.272C352.071 555.104 351.707 554.88 351.707 554.18L351.595 549C351.595 547.796 351.343 546.732 350.783 545.976C350.195 545.164 349.215 544.688 347.815 544.688ZM360.463 544.716C359.987 544.716 359.063 544.884 358.335 545.22C356.151 546.228 354.975 548.468 354.975 550.708C354.975 553.984 356.991 556.28 360.015 556.28C361.611 556.28 363.095 555.608 364.075 554.18C364.159 554.04 364.271 553.732 364.271 553.508C364.271 553.368 364.215 553.172 364.047 553.172C363.935 553.172 363.795 553.34 363.683 553.508C363.207 554.208 362.367 554.516 361.135 554.516C359.791 554.516 358.615 553.816 357.999 552.976C357.383 552.164 356.935 550.876 356.935 549.784C356.935 549.504 356.991 549.028 357.075 548.804C357.103 548.72 357.215 548.58 357.299 548.58C358.587 548.608 363.375 548.608 363.683 548.608C363.991 548.608 364.215 548.3 364.215 548.132C364.215 547.152 363.851 546.368 363.235 545.78C362.535 545.08 361.443 544.716 360.463 544.716ZM360.183 545.444C361.191 545.444 362.031 546.34 362.031 547.124C362.031 547.684 361.751 547.824 361.079 547.824C359.679 547.852 358.195 547.852 357.467 547.824C357.411 547.824 357.299 547.656 357.355 547.516C357.859 546.228 358.923 545.444 360.183 545.444ZM377.874 544.772C377.118 544.772 375.298 545.164 374.206 545.948C372.582 547.04 371.49 548.748 371.49 550.792C371.49 551.968 371.882 553.284 372.358 554.068C373.254 555.384 374.738 556.308 376.502 556.308C377.958 556.308 379.554 555.664 380.534 554.572C380.758 554.348 380.898 554.068 380.898 553.76C380.898 553.62 380.674 553.536 380.366 553.76C379.638 554.264 378.91 554.6 377.874 554.6C376.418 554.6 375.046 553.9 374.346 552.724C374.234 552.556 373.618 551.548 373.618 549.924C373.618 548.692 374.038 547.544 374.794 546.704C375.242 546.144 376.082 545.752 376.53 545.752C377.482 545.752 377.958 546.172 378.882 546.844C379.33 547.152 379.806 547.376 379.974 547.376C380.086 547.376 380.898 546.704 380.898 546.256C380.898 546.088 380.758 545.612 380.478 545.416C379.946 544.996 378.714 544.772 377.874 544.772ZM388.668 544.688C386.792 544.688 385.392 545.472 384.524 546.228C383.46 547.124 382.564 548.468 382.564 550.596C382.564 551.996 383.432 553.9 384.636 554.88C385.672 555.748 387.072 556.336 388.36 556.336C389.62 556.336 390.712 556.028 391.832 555.216C392.868 554.544 394.268 552.724 394.268 550.4C394.268 546.872 391.44 544.688 388.668 544.688ZM388.136 545.528C388.864 545.528 389.872 545.948 390.488 546.62C391.552 547.852 391.888 549.448 391.888 550.904C391.888 552.108 391.328 553.844 390.628 554.6C389.844 555.384 389.228 555.524 388.92 555.524C387.576 555.524 385.98 554.516 385.28 552.416C385.056 551.716 384.944 550.848 384.944 549.924C384.944 548.468 385.588 547.012 386.316 546.34C386.904 545.836 387.548 545.528 388.136 545.528ZM396.55 546.032C396.55 546.116 396.718 546.256 397.082 546.508C397.698 547.012 397.754 547.292 397.754 547.6C397.754 550.456 397.698 552.892 397.614 553.732C397.53 554.74 397.362 555.02 396.438 555.3C396.13 555.384 395.85 555.524 395.85 555.72C395.85 555.972 396.158 556.084 396.578 556.084C397.054 556.084 397.866 556 398.902 556C399.49 556 400.274 556.028 400.61 556.028C401.002 556.028 401.31 555.888 401.31 555.692C401.31 555.524 401.086 555.356 400.806 555.272C399.91 555.02 399.798 554.796 399.77 554.404C399.742 554.068 399.742 548.048 399.742 547.684C399.742 547.432 399.938 547.096 400.022 547.012C400.554 546.536 401.282 546.116 402.514 546.116C403.158 546.116 403.998 546.424 404.306 546.648C404.642 546.9 405.146 547.712 405.146 548.72C405.146 549.532 405.118 552.92 405.062 553.844C405.006 554.768 404.866 554.992 404.194 555.244C403.858 555.356 403.55 555.524 403.55 555.72C403.55 555.944 403.942 556.056 404.194 556.056C404.558 556.056 405.426 556 406.126 556C406.91 556 407.554 556.056 408.198 556.056C408.646 556.056 409.038 555.944 409.038 555.748C409.038 555.552 408.87 555.412 408.338 555.272C407.638 555.076 407.358 554.712 407.302 554.292C407.274 553.9 407.218 549.728 407.218 549.196C407.218 547.796 406.854 546.508 406.238 545.78C405.846 545.332 405.062 544.716 403.69 544.716C402.514 544.716 401.058 545.5 399.938 546.256C399.91 546.256 399.77 546.312 399.77 546.172C399.77 545.92 399.882 545.248 399.882 544.772C399.882 544.66 399.742 544.352 399.602 544.352C399.462 544.352 399.21 544.492 398.93 544.66C398.538 544.94 397.53 545.304 397.054 545.472C396.858 545.556 396.55 545.836 396.55 546.032ZM410.687 546.032C410.687 546.116 410.855 546.256 411.219 546.508C411.835 547.012 411.891 547.292 411.891 547.6C411.891 550.456 411.835 552.892 411.751 553.732C411.667 554.74 411.499 555.02 410.575 555.3C410.267 555.384 409.987 555.524 409.987 555.72C409.987 555.972 410.295 556.084 410.715 556.084C411.191 556.084 412.003 556 413.039 556C413.627 556 414.411 556.028 414.747 556.028C415.139 556.028 415.447 555.888 415.447 555.692C415.447 555.524 415.223 555.356 414.943 555.272C414.047 555.02 413.935 554.796 413.907 554.404C413.879 554.068 413.879 548.048 413.879 547.684C413.879 547.432 414.075 547.096 414.159 547.012C414.691 546.536 415.419 546.116 416.651 546.116C417.295 546.116 418.135 546.424 418.443 546.648C418.779 546.9 419.283 547.712 419.283 548.72C419.283 549.532 419.255 552.92 419.199 553.844C419.143 554.768 419.003 554.992 418.331 555.244C417.995 555.356 417.687 555.524 417.687 555.72C417.687 555.944 418.079 556.056 418.331 556.056C418.695 556.056 419.563 556 420.263 556C421.047 556 421.691 556.056 422.335 556.056C422.783 556.056 423.175 555.944 423.175 555.748C423.175 555.552 423.007 555.412 422.475 555.272C421.775 555.076 421.495 554.712 421.439 554.292C421.411 553.9 421.355 549.728 421.355 549.196C421.355 547.796 420.991 546.508 420.375 545.78C419.983 545.332 419.199 544.716 417.827 544.716C416.651 544.716 415.195 545.5 414.075 546.256C414.047 546.256 413.907 546.312 413.907 546.172C413.907 545.92 414.019 545.248 414.019 544.772C414.019 544.66 413.879 544.352 413.739 544.352C413.599 544.352 413.347 544.492 413.067 544.66C412.675 544.94 411.667 545.304 411.191 545.472C410.995 545.556 410.687 545.836 410.687 546.032ZM430.217 544.716C429.741 544.716 428.817 544.884 428.089 545.22C425.905 546.228 424.729 548.468 424.729 550.708C424.729 553.984 426.745 556.28 429.769 556.28C431.365 556.28 432.849 555.608 433.829 554.18C433.913 554.04 434.025 553.732 434.025 553.508C434.025 553.368 433.969 553.172 433.801 553.172C433.689 553.172 433.549 553.34 433.437 553.508C432.961 554.208 432.121 554.516 430.889 554.516C429.545 554.516 428.369 553.816 427.753 552.976C427.137 552.164 426.689 550.876 426.689 549.784C426.689 549.504 426.745 549.028 426.829 548.804C426.857 548.72 426.969 548.58 427.053 548.58C428.341 548.608 433.129 548.608 433.437 548.608C433.745 548.608 433.969 548.3 433.969 548.132C433.969 547.152 433.605 546.368 432.989 545.78C432.289 545.08 431.197 544.716 430.217 544.716ZM429.937 545.444C430.945 545.444 431.785 546.34 431.785 547.124C431.785 547.684 431.505 547.824 430.833 547.824C429.433 547.852 427.949 547.852 427.221 547.824C427.165 547.824 427.053 547.656 427.109 547.516C427.613 546.228 428.677 545.444 429.937 545.444ZM442.405 544.772C441.649 544.772 439.829 545.164 438.737 545.948C437.113 547.04 436.021 548.748 436.021 550.792C436.021 551.968 436.413 553.284 436.889 554.068C437.785 555.384 439.269 556.308 441.033 556.308C442.489 556.308 444.085 555.664 445.065 554.572C445.289 554.348 445.429 554.068 445.429 553.76C445.429 553.62 445.205 553.536 444.897 553.76C444.169 554.264 443.441 554.6 442.405 554.6C440.949 554.6 439.577 553.9 438.877 552.724C438.765 552.556 438.149 551.548 438.149 549.924C438.149 548.692 438.569 547.544 439.325 546.704C439.773 546.144 440.613 545.752 441.061 545.752C442.013 545.752 442.489 546.172 443.413 546.844C443.861 547.152 444.337 547.376 444.505 547.376C444.617 547.376 445.429 546.704 445.429 546.256C445.429 546.088 445.289 545.612 445.009 545.416C444.477 544.996 443.245 544.772 442.405 544.772ZM450.682 545.08C450.57 545.08 450.458 544.94 450.458 544.856V543.54C450.458 543.484 450.206 543.232 450.066 543.232C449.954 543.232 449.758 543.456 449.422 543.848C449.03 544.324 448.162 544.996 447.182 545.78C447.098 545.864 447.014 545.976 447.014 546.088C447.014 546.172 447.182 546.312 447.406 546.396C447.966 546.564 448.47 546.76 448.47 546.956C448.47 547.936 448.358 552.136 448.358 553.172C448.358 553.956 448.414 554.544 448.722 555.02C449.058 555.636 450.038 556.336 451.186 556.336C452.446 556.336 453.426 555.832 454.182 555.104C454.378 554.908 454.574 554.628 454.574 554.404C454.574 554.152 454.434 554.096 454.406 554.096C454.294 554.096 454.238 554.124 453.986 554.264C453.566 554.516 452.978 554.684 452.614 554.684C452.026 554.684 451.438 554.628 450.906 554.152C450.598 553.844 450.43 553.48 450.43 552.78C450.43 551.436 450.458 547.32 450.486 546.76C450.486 546.704 450.598 546.564 450.738 546.564H453.79C453.986 546.564 454.518 546.508 454.518 546.256C454.518 545.892 454.434 545.108 454.434 545.192C454.434 545.108 454.154 544.968 454.126 544.968C454.014 544.968 451.298 545.08 450.682 545.08ZM458.649 556C459.237 556 460.637 556.084 460.833 556.084C461.141 556.084 461.477 555.972 461.477 555.804C461.477 555.608 461.309 555.468 460.861 555.328C460.161 555.104 459.545 555.048 459.517 554.152C459.489 553.172 459.461 551.996 459.461 550.428C459.461 548.832 459.629 545.192 459.629 544.884C459.629 544.856 459.489 544.576 459.377 544.576C458.957 544.688 457.641 545.304 456.605 545.528C456.297 545.584 456.045 545.808 456.045 546.004C456.045 546.116 456.101 546.2 456.269 546.312C457.081 546.9 457.389 547.124 457.417 547.32C457.473 547.656 457.445 550.848 457.445 551.688C457.445 552.5 457.417 554.18 457.333 554.572C457.277 554.852 456.857 555.188 456.213 555.356C455.737 555.496 455.541 555.636 455.541 555.804C455.541 556 455.821 556.112 456.269 556.112C456.745 556.112 457.725 556 458.649 556ZM458.593 539.004C458.201 539.004 457.781 539.116 457.501 539.368C457.277 539.676 457.165 540.124 457.165 540.376C457.165 540.852 457.361 541.16 457.585 541.412C457.837 541.636 458.285 541.748 458.481 541.748C459.041 541.748 459.825 541.132 459.825 540.376C459.825 539.872 459.349 539.004 458.593 539.004ZM461.643 545.248C461.643 545.416 461.755 545.528 462.175 545.668C462.875 545.864 463.155 546.228 463.351 546.592C464.107 547.936 465.591 551.38 466.263 553.172C466.907 554.796 466.963 555.104 467.271 556.028C467.355 556.336 467.523 556.532 467.635 556.532C467.859 556.532 468.167 556.252 468.307 555.804C468.783 554.32 468.783 554.04 469.567 552.052C470.407 550.092 471.471 547.376 471.863 546.76C472.283 546.256 472.591 545.92 473.263 545.668C473.683 545.5 473.851 545.416 473.851 545.248C473.851 545.08 473.571 544.94 473.291 544.94C472.759 544.94 471.891 545.08 471.387 545.08C470.687 545.08 470.435 544.996 469.875 544.996C469.511 544.996 469.315 545.136 469.315 545.304C469.315 545.472 469.539 545.584 469.763 545.668C470.603 545.976 470.855 546.144 470.631 546.872C470.379 547.74 468.867 551.632 468.503 552.5C468.447 552.612 468.335 552.696 468.279 552.612C468.083 552.444 466.599 549.112 465.787 546.704C465.675 546.368 465.591 545.976 466.403 545.752C466.767 545.64 467.019 545.528 467.019 545.332C467.019 545.136 466.795 545.024 466.375 545.024C466.067 545.024 465.367 545.08 464.639 545.08C464.331 545.08 462.819 544.94 462.315 544.94C462.063 544.94 461.643 545.052 461.643 545.248ZM479.873 544.716C479.397 544.716 478.473 544.884 477.745 545.22C475.561 546.228 474.385 548.468 474.385 550.708C474.385 553.984 476.401 556.28 479.425 556.28C481.021 556.28 482.505 555.608 483.485 554.18C483.569 554.04 483.681 553.732 483.681 553.508C483.681 553.368 483.625 553.172 483.457 553.172C483.345 553.172 483.205 553.34 483.093 553.508C482.617 554.208 481.777 554.516 480.545 554.516C479.201 554.516 478.025 553.816 477.409 552.976C476.793 552.164 476.345 550.876 476.345 549.784C476.345 549.504 476.401 549.028 476.485 548.804C476.513 548.72 476.625 548.58 476.709 548.58C477.997 548.608 482.785 548.608 483.093 548.608C483.401 548.608 483.625 548.3 483.625 548.132C483.625 547.152 483.261 546.368 482.645 545.78C481.945 545.08 480.853 544.716 479.873 544.716ZM479.593 545.444C480.601 545.444 481.441 546.34 481.441 547.124C481.441 547.684 481.161 547.824 480.489 547.824C479.089 547.852 477.605 547.852 476.877 547.824C476.821 547.824 476.709 547.656 476.765 547.516C477.269 546.228 478.333 545.444 479.593 545.444ZM489.606 544.688C488.654 544.688 487.898 544.94 487.366 545.276C486.302 545.92 485.826 546.844 485.826 547.796C485.826 549.112 486.722 550.092 487.562 550.624C488.43 551.184 488.598 551.324 489.27 551.8C490.138 552.332 490.53 552.92 490.53 553.676C490.53 554.208 490.306 554.88 489.886 555.216C489.578 555.44 489.13 555.636 488.766 555.636C487.758 555.636 487.002 555.076 486.218 553.648C486.05 553.34 485.854 553.004 485.63 553.004C485.462 553.004 485.406 553.284 485.406 553.592C485.406 554.404 485.742 555.58 485.826 555.72C486.302 556.112 487.702 556.336 488.542 556.336C489.41 556.336 490.39 556.028 490.894 555.692C491.594 555.188 492.518 554.236 492.518 552.948C492.518 551.688 491.902 550.736 490.334 549.812C488.458 548.776 487.562 548.048 487.562 547.096C487.562 546.508 488.094 545.36 489.242 545.36C490.166 545.36 490.866 545.92 491.482 547.236C491.622 547.544 491.79 547.712 491.902 547.712C492.126 547.712 492.238 547.46 492.238 547.208C492.238 547.012 492.154 546.06 492.154 545.556C492.154 545.388 491.986 545.192 491.93 545.164C491.874 545.136 491.342 544.912 491.034 544.856C490.726 544.772 490.138 544.688 489.606 544.688ZM504.824 544.688C504.292 544.688 503.032 545.164 502.22 545.752C500.904 546.62 500.12 547.404 500.12 548.216C500.12 548.356 500.288 548.58 500.456 548.58C500.596 548.58 501.996 547.88 502.276 547.656C502.332 547.6 502.444 547.432 502.444 547.348C502.388 546.788 502.472 546.284 502.64 546.2C502.836 546.06 503.2 545.892 503.788 545.892C505.16 545.892 505.972 547.068 505.972 547.768C505.972 548.104 505.944 549.812 505.916 550.064C505.916 550.232 505.748 550.372 505.104 550.568C504.488 550.764 502.248 551.38 501.828 551.548C501.408 551.744 500.988 551.884 500.708 552.248C500.4 552.64 500.176 553.172 500.176 553.676C500.176 555.076 501.128 556.28 502.108 556.28C502.248 556.28 502.92 556.224 503.228 556.112C503.508 556.028 504.712 555.552 505.748 554.824C505.804 554.796 505.916 554.908 505.916 554.936C506.252 555.972 507.064 556.336 507.708 556.336C508.968 556.336 510.228 555.132 510.228 554.6C510.228 554.572 510.228 554.404 510.144 554.32C510.088 554.236 510.06 554.18 509.976 554.236C509.668 554.46 509.024 554.656 508.912 554.656C508.688 554.656 507.792 554.544 507.792 553.256C507.792 552.948 507.904 549.42 507.904 548.328C507.904 547.152 507.764 546.592 507.344 546.004C506.924 545.388 506.224 544.688 504.824 544.688ZM503.984 554.824C503.396 554.824 502.22 554.376 502.22 553.144C502.22 552.472 502.5 552.276 502.78 552.08C503.536 551.716 504.88 551.24 505.664 551.24C505.776 551.24 505.888 551.38 505.888 551.464C505.888 552.024 505.888 552.976 505.832 553.648C505.832 553.704 505.664 554.236 505.496 554.348C504.964 554.628 504.404 554.824 503.984 554.824ZM511.557 546.144C511.557 546.256 511.837 546.368 512.509 546.9C512.817 547.096 512.817 547.46 512.817 547.74V553.088C512.789 554.768 512.705 555.048 511.613 555.412C511.389 555.496 511.053 555.608 511.053 555.776C511.053 556 511.333 556.112 511.641 556.112C512.313 556.112 512.649 556 513.489 556C515.113 556 516.093 556.14 516.793 556.14C517.213 556.14 517.465 556.028 517.465 555.888C517.465 555.776 517.409 555.58 516.961 555.44L515.673 555.104C515.169 555.02 515.001 554.488 514.945 553.676C514.917 553.256 514.777 548.188 514.777 547.628C514.777 547.488 514.861 547.236 515.057 547.012C515.337 546.704 515.813 546.62 516.289 546.62C516.849 546.62 517.521 546.956 517.829 547.236C517.913 547.292 518.165 547.348 518.221 547.32C518.389 547.236 519.061 546.48 519.369 546.032C519.453 545.892 519.537 545.696 519.537 545.64C519.537 545.388 519.285 544.688 518.137 544.688C517.269 544.688 516.037 545.388 514.945 546.424C514.889 546.452 514.749 546.424 514.749 546.312C514.749 545.78 514.805 545.276 514.805 544.772C514.805 544.688 514.665 544.436 514.553 544.436C514.469 544.436 514.329 544.548 513.993 544.772C513.713 544.94 512.845 545.36 511.921 545.668C511.613 545.78 511.557 546.06 511.557 546.144ZM525.838 544.716C525.362 544.716 524.438 544.884 523.71 545.22C521.526 546.228 520.35 548.468 520.35 550.708C520.35 553.984 522.366 556.28 525.39 556.28C526.986 556.28 528.47 555.608 529.45 554.18C529.534 554.04 529.646 553.732 529.646 553.508C529.646 553.368 529.59 553.172 529.422 553.172C529.31 553.172 529.17 553.34 529.058 553.508C528.582 554.208 527.742 554.516 526.51 554.516C525.166 554.516 523.99 553.816 523.374 552.976C522.758 552.164 522.31 550.876 522.31 549.784C522.31 549.504 522.366 549.028 522.45 548.804C522.478 548.72 522.59 548.58 522.674 548.58C523.962 548.608 528.75 548.608 529.058 548.608C529.366 548.608 529.59 548.3 529.59 548.132C529.59 547.152 529.226 546.368 528.61 545.78C527.91 545.08 526.818 544.716 525.838 544.716ZM525.558 545.444C526.566 545.444 527.406 546.34 527.406 547.124C527.406 547.684 527.126 547.824 526.454 547.824C525.054 547.852 523.57 547.852 522.842 547.824C522.786 547.824 522.674 547.656 522.73 547.516C523.234 546.228 524.298 545.444 525.558 545.444ZM548.338 556.609L542.563 544.744H542.353L536.62 556.609H537.943L542.458 547.537L546.973 556.609H548.338ZM566.938 544.744H565.615L561.1 553.816L556.585 544.744H555.22L560.995 556.609H561.205L566.938 544.744ZM584.762 553.585V547.747H574.178V549.133H583.376V553.585H584.762ZM332.484 580.032C332.484 580.116 332.652 580.256 333.016 580.508C333.632 581.012 333.688 581.292 333.688 581.6C333.688 584.456 333.632 586.892 333.548 587.732C333.464 588.74 333.296 589.02 332.372 589.3C332.064 589.384 331.784 589.524 331.784 589.72C331.784 589.972 332.092 590.084 332.512 590.084C332.988 590.084 333.8 590 334.836 590C335.424 590 336.208 590.028 336.544 590.028C336.936 590.028 337.244 589.888 337.244 589.692C337.244 589.524 337.02 589.356 336.74 589.272C335.844 589.02 335.732 588.796 335.704 588.404C335.676 588.068 335.676 582.048 335.676 581.684C335.676 581.432 335.872 581.096 335.956 581.012C336.488 580.536 337.216 580.116 338.448 580.116C339.092 580.116 339.932 580.424 340.24 580.648C340.576 580.9 341.08 581.712 341.08 582.72C341.08 583.532 341.052 586.92 340.996 587.844C340.94 588.768 340.8 588.992 340.128 589.244C339.792 589.356 339.484 589.524 339.484 589.72C339.484 589.944 339.876 590.056 340.128 590.056C340.492 590.056 341.36 590 342.06 590C342.844 590 343.488 590.056 344.132 590.056C344.58 590.056 344.972 589.944 344.972 589.748C344.972 589.552 344.804 589.412 344.272 589.272C343.572 589.076 343.292 588.712 343.236 588.292C343.208 587.9 343.152 583.728 343.152 583.196C343.152 581.796 342.788 580.508 342.172 579.78C341.78 579.332 340.996 578.716 339.624 578.716C338.448 578.716 336.992 579.5 335.872 580.256C335.844 580.256 335.704 580.312 335.704 580.172C335.704 579.92 335.816 579.248 335.816 578.772C335.816 578.66 335.676 578.352 335.536 578.352C335.396 578.352 335.144 578.492 334.864 578.66C334.472 578.94 333.464 579.304 332.988 579.472C332.792 579.556 332.484 579.836 332.484 580.032ZM352.602 578.688C350.726 578.688 349.326 579.472 348.458 580.228C347.394 581.124 346.498 582.468 346.498 584.596C346.498 585.996 347.366 587.9 348.57 588.88C349.606 589.748 351.006 590.336 352.294 590.336C353.554 590.336 354.646 590.028 355.766 589.216C356.802 588.544 358.202 586.724 358.202 584.4C358.202 580.872 355.374 578.688 352.602 578.688ZM352.07 579.528C352.798 579.528 353.806 579.948 354.422 580.62C355.486 581.852 355.822 583.448 355.822 584.904C355.822 586.108 355.262 587.844 354.562 588.6C353.778 589.384 353.162 589.524 352.854 589.524C351.51 589.524 349.914 588.516 349.214 586.416C348.99 585.716 348.878 584.848 348.878 583.924C348.878 582.468 349.522 581.012 350.25 580.34C350.838 579.836 351.482 579.528 352.07 579.528ZM371.744 578.688C370.848 578.688 369.364 579.136 368.524 579.64C367.488 580.228 365.584 581.796 365.584 584.792C365.584 586.164 366.116 587.732 366.984 588.656C367.88 589.58 369.252 590.336 371.072 590.336C371.996 590.336 373.228 589.832 374.292 589.3C374.376 589.272 374.432 589.412 374.432 589.58C374.432 591.372 374.348 594.592 374.292 595.18C374.236 595.796 374.18 596.412 372.472 596.748C372.108 596.832 371.772 597.028 371.772 597.224C371.772 597.448 372.164 597.532 372.472 597.532C373.62 597.532 375.608 597.196 377.848 597.196C378.268 597.196 378.548 597.028 378.548 596.832C378.548 596.636 378.156 596.44 377.932 596.412C376.616 596.188 376.504 595.936 376.476 594.928C376.392 593.108 376.392 590.868 376.392 588.908C376.392 586.416 376.42 579.976 376.7 579.024C376.812 578.66 376.672 578.464 376.56 578.464C376.392 578.464 376.084 578.66 375.888 578.828C375.552 579.136 375.272 579.276 375.216 579.276C375.048 579.276 374.656 579.136 374.152 578.968C373.508 578.772 372.612 578.688 371.744 578.688ZM371.072 579.556C372.079 579.556 373.256 580.2 373.816 581.068C373.984 581.32 374.264 582.412 374.292 582.692C374.376 583.56 374.432 586.696 374.432 587.732C374.432 587.928 374.264 588.544 374.152 588.6C373.788 588.88 372.836 589.076 372.472 589.076C371.38 589.076 370.12 588.684 369.308 587.872C368.468 586.976 367.908 585.8 367.908 584.148C367.908 581.852 368.748 580.76 369.448 580.144C369.98 579.668 370.596 579.556 371.072 579.556ZM385.138 588.936C384.466 588.936 383.962 588.936 383.234 588.376C382.842 588.096 382.534 587.452 382.534 586.808C382.534 585.548 382.646 580.256 382.618 579.304C382.618 579.136 382.506 578.884 382.394 578.884C382.282 578.884 380.21 579.192 379.426 579.192C379.09 579.192 378.95 579.36 378.95 579.444C378.95 579.696 379.202 579.836 379.454 579.948C379.93 580.144 380.462 580.256 380.49 581.04C380.546 582.524 380.546 585.688 380.546 587.704C380.546 588.152 380.742 588.712 380.938 589.02C381.498 589.888 382.394 590.336 383.402 590.336C384.186 590.336 384.802 590.196 385.278 590C385.642 589.86 386.762 589.132 387.574 588.572C387.63 588.544 387.714 588.628 387.714 588.768C387.686 589.244 387.602 589.776 387.602 589.944C387.602 590.14 387.77 590.336 387.882 590.336C387.938 590.336 388.386 590.224 388.862 590.084C389.506 589.916 390.682 589.608 391.41 589.552C391.522 589.552 391.718 589.356 391.718 589.272C391.69 589.188 391.494 588.74 391.382 588.74C391.046 588.74 390.178 588.88 389.982 588.88C389.758 588.88 389.646 588.544 389.646 588.488C389.646 586.192 389.87 579.976 389.926 579.192C389.926 579.08 389.87 578.772 389.73 578.772C389.534 578.772 389.338 578.8 389.058 578.884C388.414 579.052 387.182 579.192 386.062 579.192C385.782 579.192 385.418 579.332 385.418 579.444C385.418 579.668 385.782 579.836 385.978 579.892L387.266 580.228C387.434 580.284 387.742 580.676 387.742 580.844L387.686 587.284C387.686 587.396 387.434 587.816 387.266 587.956C386.566 588.572 385.81 588.936 385.138 588.936ZM397.691 578.688C397.159 578.688 395.899 579.164 395.087 579.752C393.771 580.62 392.987 581.404 392.987 582.216C392.987 582.356 393.155 582.58 393.323 582.58C393.463 582.58 394.863 581.88 395.143 581.656C395.199 581.6 395.311 581.432 395.311 581.348C395.255 580.788 395.339 580.284 395.507 580.2C395.703 580.06 396.067 579.892 396.655 579.892C398.027 579.892 398.839 581.068 398.839 581.768C398.839 582.104 398.811 583.812 398.783 584.064C398.783 584.232 398.615 584.372 397.971 584.568C397.355 584.764 395.115 585.38 394.695 585.548C394.275 585.744 393.855 585.884 393.575 586.248C393.267 586.64 393.043 587.172 393.043 587.676C393.043 589.076 393.995 590.28 394.975 590.28C395.115 590.28 395.787 590.224 396.095 590.112C396.375 590.028 397.579 589.552 398.615 588.824C398.671 588.796 398.783 588.908 398.783 588.936C399.119 589.972 399.931 590.336 400.575 590.336C401.835 590.336 403.095 589.132 403.095 588.6C403.095 588.572 403.095 588.404 403.011 588.32C402.955 588.236 402.927 588.18 402.843 588.236C402.535 588.46 401.891 588.656 401.779 588.656C401.555 588.656 400.659 588.544 400.659 587.256C400.659 586.948 400.771 583.42 400.771 582.328C400.771 581.152 400.631 580.592 400.211 580.004C399.791 579.388 399.091 578.688 397.691 578.688ZM396.851 588.824C396.263 588.824 395.087 588.376 395.087 587.144C395.087 586.472 395.367 586.276 395.647 586.08C396.403 585.716 397.747 585.24 398.531 585.24C398.643 585.24 398.755 585.38 398.755 585.464C398.755 586.024 398.755 586.976 398.699 587.648C398.699 587.704 398.531 588.236 398.363 588.348C397.831 588.628 397.271 588.824 396.851 588.824ZM404.48 580.032C404.48 580.116 404.648 580.256 405.012 580.508C405.628 581.012 405.684 581.292 405.684 581.6C405.684 584.456 405.628 586.892 405.544 587.732C405.46 588.74 405.292 589.02 404.368 589.3C404.06 589.384 403.78 589.524 403.78 589.72C403.78 589.972 404.088 590.084 404.508 590.084C404.984 590.084 405.796 590 406.832 590C407.42 590 408.204 590.028 408.54 590.028C408.932 590.028 409.24 589.888 409.24 589.692C409.24 589.524 409.016 589.356 408.736 589.272C407.84 589.02 407.728 588.796 407.7 588.404C407.672 588.068 407.672 582.048 407.672 581.684C407.672 581.432 407.868 581.096 407.952 581.012C408.484 580.536 409.212 580.116 410.444 580.116C411.088 580.116 411.928 580.424 412.236 580.648C412.572 580.9 413.076 581.712 413.076 582.72C413.076 583.532 413.048 586.92 412.992 587.844C412.936 588.768 412.796 588.992 412.124 589.244C411.788 589.356 411.48 589.524 411.48 589.72C411.48 589.944 411.872 590.056 412.124 590.056C412.488 590.056 413.356 590 414.056 590C414.84 590 415.484 590.056 416.128 590.056C416.576 590.056 416.968 589.944 416.968 589.748C416.968 589.552 416.8 589.412 416.268 589.272C415.568 589.076 415.288 588.712 415.232 588.292C415.204 587.9 415.148 583.728 415.148 583.196C415.148 581.796 414.784 580.508 414.168 579.78C413.776 579.332 412.992 578.716 411.62 578.716C410.444 578.716 408.988 579.5 407.868 580.256C407.84 580.256 407.7 580.312 407.7 580.172C407.7 579.92 407.812 579.248 407.812 578.772C407.812 578.66 407.672 578.352 407.532 578.352C407.392 578.352 407.14 578.492 406.86 578.66C406.468 578.94 405.46 579.304 404.984 579.472C404.788 579.556 404.48 579.836 404.48 580.032ZM421.834 579.08C421.722 579.08 421.61 578.94 421.61 578.856V577.54C421.61 577.484 421.358 577.232 421.218 577.232C421.106 577.232 420.91 577.456 420.574 577.848C420.182 578.324 419.314 578.996 418.334 579.78C418.25 579.864 418.166 579.976 418.166 580.088C418.166 580.172 418.334 580.312 418.558 580.396C419.118 580.564 419.622 580.76 419.622 580.956C419.622 581.936 419.51 586.136 419.51 587.172C419.51 587.956 419.566 588.544 419.874 589.02C420.21 589.636 421.19 590.336 422.338 590.336C423.598 590.336 424.578 589.832 425.334 589.104C425.53 588.908 425.726 588.628 425.726 588.404C425.726 588.152 425.586 588.096 425.558 588.096C425.446 588.096 425.39 588.124 425.138 588.264C424.718 588.516 424.13 588.684 423.766 588.684C423.178 588.684 422.59 588.628 422.058 588.152C421.75 587.844 421.582 587.48 421.582 586.78C421.582 585.436 421.61 581.32 421.638 580.76C421.638 580.704 421.75 580.564 421.89 580.564H424.942C425.138 580.564 425.67 580.508 425.67 580.256C425.67 579.892 425.586 579.108 425.586 579.192C425.586 579.108 425.306 578.968 425.278 578.968C425.166 578.968 422.45 579.08 421.834 579.08ZM429.802 590C430.39 590 431.79 590.084 431.986 590.084C432.294 590.084 432.63 589.972 432.63 589.804C432.63 589.608 432.462 589.468 432.014 589.328C431.314 589.104 430.698 589.048 430.67 588.152C430.642 587.172 430.614 585.996 430.614 584.428C430.614 582.832 430.782 579.192 430.782 578.884C430.782 578.856 430.642 578.576 430.53 578.576C430.11 578.688 428.794 579.304 427.758 579.528C427.45 579.584 427.198 579.808 427.198 580.004C427.198 580.116 427.254 580.2 427.422 580.312C428.234 580.9 428.542 581.124 428.57 581.32C428.626 581.656 428.598 584.848 428.598 585.688C428.598 586.5 428.57 588.18 428.486 588.572C428.43 588.852 428.01 589.188 427.366 589.356C426.89 589.496 426.694 589.636 426.694 589.804C426.694 590 426.974 590.112 427.422 590.112C427.898 590.112 428.878 590 429.802 590ZM429.746 573.004C429.354 573.004 428.934 573.116 428.654 573.368C428.43 573.676 428.318 574.124 428.318 574.376C428.318 574.852 428.514 575.16 428.738 575.412C428.99 575.636 429.438 575.748 429.633 575.748C430.194 575.748 430.978 575.132 430.978 574.376C430.978 573.872 430.502 573.004 429.746 573.004ZM438.088 579.052C437.864 579.052 437.696 578.856 437.696 578.772C437.696 574.908 438.368 573.06 439.04 572.276C439.544 571.66 440.076 571.408 440.776 571.408C441.672 571.436 442.456 571.772 443.072 572.416C443.604 572.92 444.024 573.284 444.164 573.284C444.5 573.284 445.592 572.584 445.592 571.912C445.592 571.66 445.536 571.52 445.34 571.268C445.004 570.764 444.248 570.008 442.372 570.008C441.14 570.008 439.852 570.54 438.816 571.352C437.724 572.164 436.912 573.368 436.38 574.572C435.792 575.916 435.624 577.4 435.624 578.744C435.624 578.884 435.484 579.024 435.372 579.108C434.448 579.584 434.168 579.808 434.112 580.032C434.084 580.144 434.168 580.34 434.308 580.34C434.672 580.368 434.924 580.424 435.316 580.48C435.456 580.508 435.624 580.704 435.624 580.788C435.624 582.916 435.624 587.536 435.54 588.096C435.4 588.964 435.26 589.104 434.364 589.384C433.972 589.496 433.776 589.608 433.776 589.804C433.776 589.972 433.972 590.14 434.336 590.14C434.728 590.14 435.68 590 436.66 590C437.584 590 438.676 590.084 439.18 590.084C439.628 590.084 439.796 589.916 439.796 589.776C439.796 589.608 439.656 589.468 439.208 589.3C437.892 588.936 437.808 588.768 437.752 587.872C437.668 586.192 437.668 581.656 437.668 580.788C437.668 580.592 437.892 580.424 437.948 580.424C439.208 580.284 441.84 580.312 442.624 580.424C442.736 580.452 442.96 580.676 442.96 580.844C442.96 582.076 442.904 586.612 442.82 588.348C442.792 588.824 442.512 589.048 441.756 589.356C441.308 589.524 441.168 589.636 441.168 589.804C441.168 590.028 441.392 590.112 441.7 590.112C442.372 590.112 443.156 590 444.108 590C444.836 590 445.564 590.084 446.264 590.084C446.572 590.084 446.908 590 446.908 589.776C446.908 589.58 446.852 589.468 446.32 589.3C445.452 589.048 445.144 588.88 445.088 588.348C445.004 587.424 445.004 586.5 445.004 581.012C445.004 579.416 445.144 578.52 444.948 578.52C444.696 578.52 444.36 578.632 444.08 578.716C443.548 578.884 443.1 579.108 440.608 579.08C440.524 579.08 438.452 579.08 438.088 579.052ZM453.814 578.716C453.338 578.716 452.414 578.884 451.686 579.22C449.502 580.228 448.326 582.468 448.326 584.708C448.326 587.984 450.342 590.28 453.366 590.28C454.962 590.28 456.446 589.608 457.426 588.18C457.51 588.04 457.622 587.732 457.622 587.508C457.622 587.368 457.566 587.172 457.398 587.172C457.286 587.172 457.146 587.34 457.034 587.508C456.558 588.208 455.718 588.516 454.486 588.516C453.142 588.516 451.966 587.816 451.35 586.976C450.734 586.164 450.286 584.876 450.286 583.784C450.286 583.504 450.342 583.028 450.426 582.804C450.454 582.72 450.566 582.58 450.65 582.58C451.938 582.608 456.726 582.608 457.034 582.608C457.342 582.608 457.566 582.3 457.566 582.132C457.566 581.152 457.202 580.368 456.586 579.78C455.886 579.08 454.794 578.716 453.814 578.716ZM453.534 579.444C454.542 579.444 455.382 580.34 455.382 581.124C455.382 581.684 455.102 581.824 454.43 581.824C453.03 581.852 451.546 581.852 450.818 581.824C450.762 581.824 450.65 581.656 450.706 581.516C451.21 580.228 452.274 579.444 453.534 579.444ZM459.522 580.144C459.522 580.256 459.802 580.368 460.474 580.9C460.782 581.096 460.782 581.46 460.782 581.74V587.088C460.754 588.768 460.67 589.048 459.578 589.412C459.354 589.496 459.018 589.608 459.018 589.776C459.018 590 459.298 590.112 459.606 590.112C460.278 590.112 460.614 590 461.454 590C463.078 590 464.058 590.14 464.758 590.14C465.178 590.14 465.43 590.028 465.43 589.888C465.43 589.776 465.374 589.58 464.926 589.44L463.638 589.104C463.134 589.02 462.966 588.488 462.91 587.676C462.882 587.256 462.742 582.188 462.742 581.628C462.742 581.488 462.826 581.236 463.022 581.012C463.302 580.704 463.778 580.62 464.254 580.62C464.814 580.62 465.486 580.956 465.794 581.236C465.878 581.292 466.13 581.348 466.186 581.32C466.354 581.236 467.026 580.48 467.334 580.032C467.418 579.892 467.502 579.696 467.502 579.64C467.502 579.388 467.25 578.688 466.102 578.688C465.234 578.688 464.002 579.388 462.91 580.424C462.854 580.452 462.714 580.424 462.714 580.312C462.714 579.78 462.77 579.276 462.77 578.772C462.77 578.688 462.63 578.436 462.518 578.436C462.434 578.436 462.294 578.548 461.958 578.772C461.678 578.94 460.81 579.36 459.886 579.668C459.578 579.78 459.522 580.06 459.522 580.144ZM472.789 578.688C471.837 578.688 471.081 578.94 470.549 579.276C469.485 579.92 469.009 580.844 469.009 581.796C469.009 583.112 469.905 584.092 470.745 584.624C471.613 585.184 471.781 585.324 472.453 585.8C473.321 586.332 473.713 586.92 473.713 587.676C473.713 588.208 473.489 588.88 473.069 589.216C472.761 589.44 472.313 589.636 471.949 589.636C470.941 589.636 470.185 589.076 469.401 587.648C469.233 587.34 469.037 587.004 468.813 587.004C468.645 587.004 468.589 587.284 468.589 587.592C468.589 588.404 468.925 589.58 469.009 589.72C469.485 590.112 470.885 590.336 471.725 590.336C472.593 590.336 473.573 590.028 474.077 589.692C474.777 589.188 475.701 588.236 475.701 586.948C475.701 585.688 475.085 584.736 473.517 583.812C471.641 582.776 470.745 582.048 470.745 581.096C470.745 580.508 471.277 579.36 472.425 579.36C473.349 579.36 474.049 579.92 474.665 581.236C474.805 581.544 474.973 581.712 475.085 581.712C475.309 581.712 475.421 581.46 475.421 581.208C475.421 581.012 475.337 580.06 475.337 579.556C475.337 579.388 475.169 579.192 475.113 579.164C475.057 579.136 474.525 578.912 474.217 578.856C473.909 578.772 473.321 578.688 472.789 578.688Z" fill="black"/>
<line id="Line 15" x1="585.556" y1="720.77" x2="657.556" y2="581.77" stroke="black"/>
<path id="the variables range over {0,1}" d="M654.592 551.08C654.48 551.08 654.368 550.94 654.368 550.856V549.54C654.368 549.484 654.116 549.232 653.976 549.232C653.864 549.232 653.668 549.456 653.332 549.848C652.94 550.324 652.072 550.996 651.092 551.78C651.008 551.864 650.924 551.976 650.924 552.088C650.924 552.172 651.092 552.312 651.316 552.396C651.876 552.564 652.38 552.76 652.38 552.956C652.38 553.936 652.268 558.136 652.268 559.172C652.268 559.956 652.324 560.544 652.632 561.02C652.968 561.636 653.948 562.336 655.096 562.336C656.356 562.336 657.336 561.832 658.092 561.104C658.288 560.908 658.484 560.628 658.484 560.404C658.484 560.152 658.344 560.096 658.316 560.096C658.204 560.096 658.148 560.124 657.896 560.264C657.476 560.516 656.888 560.684 656.524 560.684C655.936 560.684 655.348 560.628 654.816 560.152C654.508 559.844 654.34 559.48 654.34 558.78C654.34 557.436 654.368 553.32 654.396 552.76C654.396 552.704 654.508 552.564 654.648 552.564H657.7C657.896 552.564 658.428 552.508 658.428 552.256C658.428 551.892 658.344 551.108 658.344 551.192C658.344 551.108 658.064 550.968 658.036 550.968C657.924 550.968 655.208 551.08 654.592 551.08ZM666.815 550.688C665.639 550.688 664.435 551.276 663.287 552.312C663.259 552.34 663.091 552.312 663.091 552.144C663.091 551.332 663.203 544.36 663.483 542.344C663.483 542.26 663.427 542.036 663.315 542.036C663.147 542.036 662.895 542.176 662.783 542.232C662.111 542.68 660.851 542.96 659.983 543.212C659.927 543.24 659.899 543.296 659.899 543.352C659.899 543.576 660.067 543.856 660.179 543.912C660.963 544.416 661.019 544.472 661.103 545.2C661.215 546.012 661.187 550.744 661.187 551.864C661.187 554.692 660.991 558.472 660.907 559.648C660.823 560.684 660.543 560.992 659.815 561.244C659.227 561.412 659.003 561.58 659.003 561.72C659.003 562 659.395 562.084 659.647 562.084C660.123 562.084 661.131 562 661.775 562C662.447 562 663.847 562.056 664.071 562.056C664.463 562.056 664.771 561.972 664.771 561.72C664.771 561.58 664.547 561.384 664.155 561.272C663.511 561.104 663.119 560.936 663.063 560.012C663.035 559.004 663.035 555.364 663.119 554.188C663.147 553.32 663.511 552.872 663.567 552.816C663.679 552.704 664.603 552.172 665.807 552.172C666.899 552.172 667.627 552.564 668.075 553.096C668.383 553.46 668.523 554.356 668.523 555.896C668.523 556.344 668.579 559.424 668.523 559.956C668.411 561.02 668.327 561.104 667.627 561.328C667.291 561.412 667.039 561.552 667.039 561.72C667.039 561.916 667.179 562.056 667.599 562.056C668.411 562.056 668.971 562 669.615 562C670.567 562 670.875 562.084 671.827 562.084C672.359 562.084 672.583 561.972 672.583 561.72C672.583 561.552 672.359 561.384 671.799 561.272C671.071 561.104 670.707 560.88 670.707 560.18L670.595 555C670.595 553.796 670.343 552.732 669.783 551.976C669.195 551.164 668.215 550.688 666.815 550.688ZM679.463 550.716C678.987 550.716 678.063 550.884 677.335 551.22C675.151 552.228 673.975 554.468 673.975 556.708C673.975 559.984 675.991 562.28 679.015 562.28C680.611 562.28 682.095 561.608 683.075 560.18C683.159 560.04 683.271 559.732 683.271 559.508C683.271 559.368 683.215 559.172 683.047 559.172C682.935 559.172 682.795 559.34 682.683 559.508C682.207 560.208 681.367 560.516 680.135 560.516C678.791 560.516 677.615 559.816 676.999 558.976C676.383 558.164 675.935 556.876 675.935 555.784C675.935 555.504 675.991 555.028 676.075 554.804C676.103 554.72 676.215 554.58 676.299 554.58C677.587 554.608 682.375 554.608 682.683 554.608C682.991 554.608 683.215 554.3 683.215 554.132C683.215 553.152 682.851 552.368 682.235 551.78C681.535 551.08 680.443 550.716 679.463 550.716ZM679.183 551.444C680.191 551.444 681.031 552.34 681.031 553.124C681.031 553.684 680.751 553.824 680.079 553.824C678.679 553.852 677.195 553.852 676.467 553.824C676.411 553.824 676.299 553.656 676.355 553.516C676.859 552.228 677.923 551.444 679.183 551.444ZM689.37 551.248C689.37 551.416 689.482 551.528 689.902 551.668C690.602 551.864 690.882 552.228 691.078 552.592C691.834 553.936 693.318 557.38 693.99 559.172C694.634 560.796 694.69 561.104 694.998 562.028C695.082 562.336 695.25 562.532 695.362 562.532C695.586 562.532 695.894 562.252 696.034 561.804C696.51 560.32 696.51 560.04 697.294 558.052C698.134 556.092 699.198 553.376 699.59 552.76C700.01 552.256 700.318 551.92 700.99 551.668C701.41 551.5 701.578 551.416 701.578 551.248C701.578 551.08 701.298 550.94 701.018 550.94C700.486 550.94 699.618 551.08 699.114 551.08C698.414 551.08 698.162 550.996 697.602 550.996C697.238 550.996 697.042 551.136 697.042 551.304C697.042 551.472 697.266 551.584 697.49 551.668C698.33 551.976 698.582 552.144 698.358 552.872C698.106 553.74 696.594 557.632 696.23 558.5C696.174 558.612 696.062 558.696 696.006 558.612C695.81 558.444 694.326 555.112 693.514 552.704C693.402 552.368 693.318 551.976 694.13 551.752C694.494 551.64 694.746 551.528 694.746 551.332C694.746 551.136 694.522 551.024 694.102 551.024C693.794 551.024 693.094 551.08 692.366 551.08C692.058 551.08 690.546 550.94 690.042 550.94C689.79 550.94 689.37 551.052 689.37 551.248ZM706.929 550.688C706.397 550.688 705.137 551.164 704.325 551.752C703.009 552.62 702.225 553.404 702.225 554.216C702.225 554.356 702.393 554.58 702.561 554.58C702.701 554.58 704.101 553.88 704.381 553.656C704.437 553.6 704.549 553.432 704.549 553.348C704.493 552.788 704.577 552.284 704.745 552.2C704.941 552.06 705.305 551.892 705.893 551.892C707.265 551.892 708.077 553.068 708.077 553.768C708.077 554.104 708.049 555.812 708.021 556.064C708.021 556.232 707.853 556.372 707.209 556.568C706.593 556.764 704.353 557.38 703.933 557.548C703.513 557.744 703.093 557.884 702.813 558.248C702.505 558.64 702.281 559.172 702.281 559.676C702.281 561.076 703.233 562.28 704.213 562.28C704.353 562.28 705.025 562.224 705.333 562.112C705.613 562.028 706.817 561.552 707.853 560.824C707.909 560.796 708.021 560.908 708.021 560.936C708.357 561.972 709.169 562.336 709.813 562.336C711.073 562.336 712.333 561.132 712.333 560.6C712.333 560.572 712.333 560.404 712.249 560.32C712.193 560.236 712.165 560.18 712.081 560.236C711.773 560.46 711.129 560.656 711.017 560.656C710.793 560.656 709.897 560.544 709.897 559.256C709.897 558.948 710.009 555.42 710.009 554.328C710.009 553.152 709.869 552.592 709.449 552.004C709.029 551.388 708.329 550.688 706.929 550.688ZM706.089 560.824C705.501 560.824 704.325 560.376 704.325 559.144C704.325 558.472 704.605 558.276 704.885 558.08C705.641 557.716 706.985 557.24 707.769 557.24C707.881 557.24 707.993 557.38 707.993 557.464C707.993 558.024 707.993 558.976 707.937 559.648C707.937 559.704 707.769 560.236 707.601 560.348C707.069 560.628 706.509 560.824 706.089 560.824ZM713.662 552.144C713.662 552.256 713.942 552.368 714.614 552.9C714.922 553.096 714.922 553.46 714.922 553.74V559.088C714.894 560.768 714.81 561.048 713.718 561.412C713.494 561.496 713.158 561.608 713.158 561.776C713.158 562 713.438 562.112 713.746 562.112C714.418 562.112 714.754 562 715.594 562C717.218 562 718.198 562.14 718.898 562.14C719.318 562.14 719.57 562.028 719.57 561.888C719.57 561.776 719.514 561.58 719.066 561.44L717.778 561.104C717.274 561.02 717.106 560.488 717.05 559.676C717.022 559.256 716.882 554.188 716.882 553.628C716.882 553.488 716.966 553.236 717.162 553.012C717.442 552.704 717.918 552.62 718.394 552.62C718.954 552.62 719.626 552.956 719.934 553.236C720.018 553.292 720.27 553.348 720.326 553.32C720.494 553.236 721.166 552.48 721.474 552.032C721.558 551.892 721.642 551.696 721.642 551.64C721.642 551.388 721.39 550.688 720.242 550.688C719.374 550.688 718.142 551.388 717.05 552.424C716.994 552.452 716.854 552.424 716.854 552.312C716.854 551.78 716.91 551.276 716.91 550.772C716.91 550.688 716.77 550.436 716.658 550.436C716.574 550.436 716.434 550.548 716.098 550.772C715.818 550.94 714.95 551.36 714.026 551.668C713.718 551.78 713.662 552.06 713.662 552.144ZM725.395 562C725.983 562 727.383 562.084 727.579 562.084C727.887 562.084 728.223 561.972 728.223 561.804C728.223 561.608 728.055 561.468 727.607 561.328C726.907 561.104 726.291 561.048 726.263 560.152C726.235 559.172 726.207 557.996 726.207 556.428C726.207 554.832 726.375 551.192 726.375 550.884C726.375 550.856 726.235 550.576 726.123 550.576C725.703 550.688 724.387 551.304 723.351 551.528C723.043 551.584 722.791 551.808 722.791 552.004C722.791 552.116 722.847 552.2 723.015 552.312C723.827 552.9 724.135 553.124 724.163 553.32C724.219 553.656 724.191 556.848 724.191 557.688C724.191 558.5 724.163 560.18 724.079 560.572C724.023 560.852 723.603 561.188 722.959 561.356C722.483 561.496 722.287 561.636 722.287 561.804C722.287 562 722.567 562.112 723.015 562.112C723.491 562.112 724.471 562 725.395 562ZM725.339 545.004C724.947 545.004 724.527 545.116 724.247 545.368C724.023 545.676 723.911 546.124 723.911 546.376C723.911 546.852 724.107 547.16 724.331 547.412C724.583 547.636 725.031 547.748 725.227 547.748C725.787 547.748 726.571 547.132 726.571 546.376C726.571 545.872 726.095 545.004 725.339 545.004ZM734.437 550.688C733.905 550.688 732.645 551.164 731.833 551.752C730.517 552.62 729.733 553.404 729.733 554.216C729.733 554.356 729.901 554.58 730.069 554.58C730.209 554.58 731.609 553.88 731.889 553.656C731.945 553.6 732.057 553.432 732.057 553.348C732.001 552.788 732.085 552.284 732.253 552.2C732.449 552.06 732.813 551.892 733.401 551.892C734.773 551.892 735.585 553.068 735.585 553.768C735.585 554.104 735.557 555.812 735.529 556.064C735.529 556.232 735.361 556.372 734.717 556.568C734.101 556.764 731.861 557.38 731.441 557.548C731.021 557.744 730.601 557.884 730.321 558.248C730.013 558.64 729.789 559.172 729.789 559.676C729.789 561.076 730.741 562.28 731.721 562.28C731.861 562.28 732.533 562.224 732.841 562.112C733.121 562.028 734.325 561.552 735.361 560.824C735.417 560.796 735.529 560.908 735.529 560.936C735.865 561.972 736.677 562.336 737.321 562.336C738.581 562.336 739.841 561.132 739.841 560.6C739.841 560.572 739.841 560.404 739.757 560.32C739.701 560.236 739.673 560.18 739.589 560.236C739.281 560.46 738.637 560.656 738.525 560.656C738.301 560.656 737.405 560.544 737.405 559.256C737.405 558.948 737.517 555.42 737.517 554.328C737.517 553.152 737.377 552.592 736.957 552.004C736.537 551.388 735.837 550.688 734.437 550.688ZM733.597 560.824C733.009 560.824 731.833 560.376 731.833 559.144C731.833 558.472 732.113 558.276 732.393 558.08C733.149 557.716 734.493 557.24 735.277 557.24C735.389 557.24 735.501 557.38 735.501 557.464C735.501 558.024 735.501 558.976 735.445 559.648C735.445 559.704 735.277 560.236 735.109 560.348C734.577 560.628 734.017 560.824 733.597 560.824ZM752.454 556.148C752.454 554.552 751.866 552.984 750.606 551.92C749.71 551.136 748.45 550.688 747.134 550.688C746.21 550.688 744.866 551.024 743.942 551.64C743.914 551.668 743.774 551.584 743.774 551.528C743.718 551.22 743.718 549.848 743.718 549.12C743.718 546.88 743.886 544.22 743.97 542.372C743.97 542.26 743.774 542.008 743.662 542.008C743.606 542.008 743.326 542.12 742.962 542.344C742.402 542.68 741.45 542.932 740.666 543.212C740.582 543.24 740.33 543.576 740.33 543.604C740.33 543.744 740.47 543.828 740.89 544.136C741.422 544.584 741.562 544.948 741.59 545.088C741.646 545.48 741.73 549.624 741.73 552.284C741.73 554.58 741.702 559.396 741.562 561.58C741.562 561.776 741.618 561.944 741.73 561.944C741.786 561.944 741.954 561.916 742.066 561.86C742.29 561.748 742.542 561.72 742.654 561.776C743.298 562 745.23 562.336 746.21 562.336C747.19 562.336 748.87 562.028 750.018 561.076C751.25 560.124 752.454 558.472 752.454 556.148ZM750.13 556.736C750.13 557.996 749.626 559.732 748.842 560.488C748.198 561.076 747.442 561.44 747.134 561.44C746.63 561.44 745.314 561.076 744.53 560.264C744.166 559.9 743.998 559.452 743.97 558.864C743.83 557.352 743.746 555.84 743.746 554.384C743.746 553.796 743.774 553.012 743.802 552.76C743.83 552.564 743.942 552.396 744.026 552.34C744.25 552.172 744.782 551.92 745.706 551.92C747.022 551.92 748.114 552.48 748.758 553.124C749.71 554.16 750.13 555.728 750.13 556.736ZM754.617 543.52C754.617 543.632 754.701 543.716 755.177 544.052C755.821 544.444 755.821 544.612 755.849 544.836C755.933 545.592 755.933 548.616 755.933 550.688C755.933 555.112 755.849 558.052 755.765 559.2C755.653 560.6 755.597 561.104 754.309 561.384C754.001 561.44 753.693 561.58 753.693 561.776C753.693 562 753.917 562.084 754.477 562.084C755.065 562.084 756.297 562 756.941 562C757.445 562 758.649 562.084 759.321 562.084C759.657 562.084 760.049 561.972 760.049 561.776C760.049 561.608 759.825 561.468 759.405 561.356C758.201 561.02 758.089 560.684 757.977 560.124C757.837 559.368 757.893 554.02 757.893 549.932C757.893 546.18 758.061 543.016 758.145 542.316C758.145 542.204 757.977 541.98 757.893 542.036C757.137 542.512 756.297 542.68 755.009 543.128C754.701 543.212 754.617 543.408 754.617 543.52ZM766.717 550.716C766.241 550.716 765.317 550.884 764.589 551.22C762.405 552.228 761.229 554.468 761.229 556.708C761.229 559.984 763.245 562.28 766.269 562.28C767.865 562.28 769.349 561.608 770.329 560.18C770.413 560.04 770.525 559.732 770.525 559.508C770.525 559.368 770.469 559.172 770.301 559.172C770.189 559.172 770.049 559.34 769.937 559.508C769.461 560.208 768.621 560.516 767.389 560.516C766.045 560.516 764.869 559.816 764.253 558.976C763.637 558.164 763.189 556.876 763.189 555.784C763.189 555.504 763.245 555.028 763.329 554.804C763.357 554.72 763.469 554.58 763.553 554.58C764.841 554.608 769.629 554.608 769.937 554.608C770.245 554.608 770.469 554.3 770.469 554.132C770.469 553.152 770.105 552.368 769.489 551.78C768.789 551.08 767.697 550.716 766.717 550.716ZM766.437 551.444C767.445 551.444 768.285 552.34 768.285 553.124C768.285 553.684 768.005 553.824 767.333 553.824C765.933 553.852 764.449 553.852 763.721 553.824C763.665 553.824 763.553 553.656 763.609 553.516C764.113 552.228 765.177 551.444 766.437 551.444ZM776.45 550.688C775.498 550.688 774.742 550.94 774.21 551.276C773.146 551.92 772.67 552.844 772.67 553.796C772.67 555.112 773.566 556.092 774.406 556.624C775.274 557.184 775.442 557.324 776.114 557.8C776.982 558.332 777.374 558.92 777.374 559.676C777.374 560.208 777.15 560.88 776.73 561.216C776.422 561.44 775.974 561.636 775.61 561.636C774.602 561.636 773.846 561.076 773.062 559.648C772.894 559.34 772.698 559.004 772.474 559.004C772.306 559.004 772.25 559.284 772.25 559.592C772.25 560.404 772.586 561.58 772.67 561.72C773.146 562.112 774.546 562.336 775.386 562.336C776.254 562.336 777.234 562.028 777.738 561.692C778.438 561.188 779.362 560.236 779.362 558.948C779.362 557.688 778.746 556.736 777.178 555.812C775.302 554.776 774.406 554.048 774.406 553.096C774.406 552.508 774.938 551.36 776.086 551.36C777.01 551.36 777.71 551.92 778.326 553.236C778.466 553.544 778.634 553.712 778.746 553.712C778.97 553.712 779.082 553.46 779.082 553.208C779.082 553.012 778.998 552.06 778.998 551.556C778.998 551.388 778.83 551.192 778.774 551.164C778.718 551.136 778.186 550.912 777.878 550.856C777.57 550.772 776.982 550.688 776.45 550.688ZM787.272 552.144C787.272 552.256 787.552 552.368 788.224 552.9C788.532 553.096 788.532 553.46 788.532 553.74V559.088C788.504 560.768 788.42 561.048 787.328 561.412C787.104 561.496 786.768 561.608 786.768 561.776C786.768 562 787.048 562.112 787.356 562.112C788.028 562.112 788.364 562 789.204 562C790.828 562 791.808 562.14 792.508 562.14C792.928 562.14 793.18 562.028 793.18 561.888C793.18 561.776 793.124 561.58 792.676 561.44L791.388 561.104C790.884 561.02 790.716 560.488 790.66 559.676C790.632 559.256 790.492 554.188 790.492 553.628C790.492 553.488 790.576 553.236 790.772 553.012C791.052 552.704 791.528 552.62 792.004 552.62C792.564 552.62 793.236 552.956 793.544 553.236C793.628 553.292 793.88 553.348 793.936 553.32C794.104 553.236 794.776 552.48 795.084 552.032C795.168 551.892 795.252 551.696 795.252 551.64C795.252 551.388 795 550.688 793.852 550.688C792.984 550.688 791.752 551.388 790.66 552.424C790.604 552.452 790.464 552.424 790.464 552.312C790.464 551.78 790.52 551.276 790.52 550.772C790.52 550.688 790.38 550.436 790.268 550.436C790.184 550.436 790.044 550.548 789.708 550.772C789.428 550.94 788.56 551.36 787.636 551.668C787.328 551.78 787.272 552.06 787.272 552.144ZM801.074 550.688C800.542 550.688 799.282 551.164 798.47 551.752C797.154 552.62 796.37 553.404 796.37 554.216C796.37 554.356 796.538 554.58 796.706 554.58C796.846 554.58 798.246 553.88 798.526 553.656C798.582 553.6 798.694 553.432 798.694 553.348C798.638 552.788 798.722 552.284 798.89 552.2C799.086 552.06 799.45 551.892 800.038 551.892C801.41 551.892 802.222 553.068 802.222 553.768C802.222 554.104 802.194 555.812 802.166 556.064C802.166 556.232 801.998 556.372 801.354 556.568C800.738 556.764 798.498 557.38 798.078 557.548C797.658 557.744 797.238 557.884 796.958 558.248C796.65 558.64 796.426 559.172 796.426 559.676C796.426 561.076 797.378 562.28 798.358 562.28C798.498 562.28 799.17 562.224 799.478 562.112C799.758 562.028 800.962 561.552 801.998 560.824C802.054 560.796 802.166 560.908 802.166 560.936C802.502 561.972 803.314 562.336 803.958 562.336C805.218 562.336 806.478 561.132 806.478 560.6C806.478 560.572 806.478 560.404 806.394 560.32C806.338 560.236 806.31 560.18 806.226 560.236C805.918 560.46 805.274 560.656 805.162 560.656C804.938 560.656 804.042 560.544 804.042 559.256C804.042 558.948 804.154 555.42 804.154 554.328C804.154 553.152 804.014 552.592 803.594 552.004C803.174 551.388 802.474 550.688 801.074 550.688ZM800.234 560.824C799.646 560.824 798.47 560.376 798.47 559.144C798.47 558.472 798.75 558.276 799.03 558.08C799.786 557.716 801.13 557.24 801.914 557.24C802.026 557.24 802.138 557.38 802.138 557.464C802.138 558.024 802.138 558.976 802.082 559.648C802.082 559.704 801.914 560.236 801.746 560.348C801.214 560.628 800.654 560.824 800.234 560.824ZM807.863 552.032C807.863 552.116 808.031 552.256 808.395 552.508C809.011 553.012 809.067 553.292 809.067 553.6C809.067 556.456 809.011 558.892 808.927 559.732C808.843 560.74 808.675 561.02 807.751 561.3C807.443 561.384 807.163 561.524 807.163 561.72C807.163 561.972 807.471 562.084 807.891 562.084C808.367 562.084 809.179 562 810.215 562C810.803 562 811.587 562.028 811.923 562.028C812.315 562.028 812.623 561.888 812.623 561.692C812.623 561.524 812.399 561.356 812.119 561.272C811.223 561.02 811.111 560.796 811.083 560.404C811.055 560.068 811.055 554.048 811.055 553.684C811.055 553.432 811.251 553.096 811.335 553.012C811.867 552.536 812.595 552.116 813.827 552.116C814.471 552.116 815.311 552.424 815.619 552.648C815.955 552.9 816.459 553.712 816.459 554.72C816.459 555.532 816.431 558.92 816.375 559.844C816.319 560.768 816.179 560.992 815.507 561.244C815.171 561.356 814.863 561.524 814.863 561.72C814.863 561.944 815.255 562.056 815.507 562.056C815.871 562.056 816.739 562 817.439 562C818.223 562 818.867 562.056 819.511 562.056C819.959 562.056 820.351 561.944 820.351 561.748C820.351 561.552 820.183 561.412 819.651 561.272C818.951 561.076 818.671 560.712 818.615 560.292C818.587 559.9 818.531 555.728 818.531 555.196C818.531 553.796 818.167 552.508 817.551 551.78C817.159 551.332 816.375 550.716 815.003 550.716C813.827 550.716 812.371 551.5 811.251 552.256C811.223 552.256 811.083 552.312 811.083 552.172C811.083 551.92 811.195 551.248 811.195 550.772C811.195 550.66 811.055 550.352 810.915 550.352C810.775 550.352 810.523 550.492 810.243 550.66C809.851 550.94 808.843 551.304 808.367 551.472C808.171 551.556 807.863 551.836 807.863 552.032ZM826.556 550.576C825.464 550.576 824.484 550.884 823.7 551.472C822.608 552.284 821.992 553.292 821.992 554.664C821.992 556.708 823.336 557.772 824.12 558.22C824.204 558.304 824.288 558.416 824.232 558.472C823.784 558.92 822.58 559.592 822.16 559.928C822.104 559.984 822.02 560.124 822.02 560.18C822.02 561.076 822.412 561.86 822.972 562.252C823.336 562.532 823.868 562.7 824.064 562.812C824.148 562.868 824.204 562.952 824.148 563.008C823.784 563.316 822.916 563.932 822.216 564.52C821.964 564.716 821.404 565.052 821.404 566.284C821.404 567.068 821.908 568.104 822.692 568.72C823.868 569.588 825.184 569.756 826.192 569.756C827.2 569.756 828.684 569.56 830.224 568.552C831.428 567.768 832.856 566.34 832.856 564.24C832.856 563.512 832.464 562.448 831.68 561.776C831.176 561.384 830.56 561.132 830.336 561.104C829.44 560.964 826.416 560.936 825.184 560.88C824.876 560.852 824.036 560.348 824.036 559.62C824.036 559.396 824.652 558.808 824.932 558.668C825.044 558.612 825.184 558.612 825.352 558.64C825.548 558.64 826.164 558.668 826.332 558.668C827.004 558.668 828.152 558.556 829.384 557.604C830.476 556.764 830.952 555.616 830.952 554.076C830.952 553.6 830.868 553.096 830.728 552.676C830.7 552.592 830.784 552.452 830.896 552.452C831.596 552.508 832.604 552.508 832.772 552.508C832.884 552.508 833.276 552.004 833.276 551.612C833.276 551.5 833.192 551.332 833.024 551.304C832.436 551.164 830.392 551.136 829.776 551.08L828.992 550.912C828.18 550.716 827.676 550.576 826.556 550.576ZM827.228 568.58C826.192 568.58 825.24 568.3 824.484 567.712C823.896 567.208 823.504 566.48 823.504 565.584C823.504 564.94 823.868 563.904 824.764 563.288C824.932 563.176 825.38 563.008 826.276 563.008C827.452 563.008 828.348 563.008 829.104 563.148C829.776 563.288 830.308 563.652 830.588 564.016C830.924 564.464 830.98 565.108 830.98 565.472C830.98 566.284 830.56 567.348 829.44 568.076C829.132 568.244 828.32 568.58 827.228 568.58ZM826.332 551.248C827.144 551.248 827.816 551.696 828.348 552.48C828.796 553.152 828.964 554.076 828.964 554.58C828.964 555.728 828.6 557.1 827.9 557.548C827.508 557.8 827.172 557.94 826.976 557.94C825.156 557.94 824.204 555.84 824.204 554.44C824.204 553.124 824.512 552.396 824.932 551.948C825.184 551.612 825.828 551.248 826.332 551.248ZM839.506 550.716C839.03 550.716 838.106 550.884 837.378 551.22C835.194 552.228 834.018 554.468 834.018 556.708C834.018 559.984 836.034 562.28 839.058 562.28C840.654 562.28 842.138 561.608 843.118 560.18C843.202 560.04 843.314 559.732 843.314 559.508C843.314 559.368 843.258 559.172 843.09 559.172C842.978 559.172 842.838 559.34 842.726 559.508C842.25 560.208 841.41 560.516 840.178 560.516C838.834 560.516 837.658 559.816 837.042 558.976C836.426 558.164 835.978 556.876 835.978 555.784C835.978 555.504 836.034 555.028 836.118 554.804C836.146 554.72 836.258 554.58 836.342 554.58C837.63 554.608 842.418 554.608 842.726 554.608C843.034 554.608 843.258 554.3 843.258 554.132C843.258 553.152 842.894 552.368 842.278 551.78C841.578 551.08 840.486 550.716 839.506 550.716ZM839.226 551.444C840.234 551.444 841.074 552.34 841.074 553.124C841.074 553.684 840.794 553.824 840.122 553.824C838.722 553.852 837.238 553.852 836.51 553.824C836.454 553.824 836.342 553.656 836.398 553.516C836.902 552.228 837.966 551.444 839.226 551.444ZM856.637 550.688C854.761 550.688 853.361 551.472 852.493 552.228C851.429 553.124 850.533 554.468 850.533 556.596C850.533 557.996 851.401 559.9 852.605 560.88C853.641 561.748 855.041 562.336 856.329 562.336C857.589 562.336 858.681 562.028 859.801 561.216C860.837 560.544 862.237 558.724 862.237 556.4C862.237 552.872 859.409 550.688 856.637 550.688ZM856.105 551.528C856.833 551.528 857.841 551.948 858.457 552.62C859.521 553.852 859.857 555.448 859.857 556.904C859.857 558.108 859.297 559.844 858.597 560.6C857.813 561.384 857.197 561.524 856.889 561.524C855.545 561.524 853.949 560.516 853.249 558.416C853.025 557.716 852.913 556.848 852.913 555.924C852.913 554.468 853.557 553.012 854.285 552.34C854.873 551.836 855.517 551.528 856.105 551.528ZM862.921 551.248C862.921 551.416 863.033 551.528 863.453 551.668C864.153 551.864 864.433 552.228 864.629 552.592C865.385 553.936 866.869 557.38 867.541 559.172C868.185 560.796 868.241 561.104 868.549 562.028C868.633 562.336 868.801 562.532 868.913 562.532C869.137 562.532 869.445 562.252 869.585 561.804C870.061 560.32 870.061 560.04 870.845 558.052C871.685 556.092 872.749 553.376 873.141 552.76C873.561 552.256 873.869 551.92 874.541 551.668C874.961 551.5 875.129 551.416 875.129 551.248C875.129 551.08 874.849 550.94 874.569 550.94C874.037 550.94 873.169 551.08 872.665 551.08C871.965 551.08 871.713 550.996 871.153 550.996C870.789 550.996 870.593 551.136 870.593 551.304C870.593 551.472 870.817 551.584 871.041 551.668C871.881 551.976 872.133 552.144 871.909 552.872C871.657 553.74 870.145 557.632 869.781 558.5C869.725 558.612 869.613 558.696 869.557 558.612C869.361 558.444 867.877 555.112 867.065 552.704C866.953 552.368 866.869 551.976 867.681 551.752C868.045 551.64 868.297 551.528 868.297 551.332C868.297 551.136 868.073 551.024 867.653 551.024C867.345 551.024 866.645 551.08 865.917 551.08C865.609 551.08 864.097 550.94 863.593 550.94C863.341 550.94 862.921 551.052 862.921 551.248ZM881.15 550.716C880.674 550.716 879.75 550.884 879.022 551.22C876.838 552.228 875.662 554.468 875.662 556.708C875.662 559.984 877.678 562.28 880.702 562.28C882.298 562.28 883.782 561.608 884.762 560.18C884.846 560.04 884.958 559.732 884.958 559.508C884.958 559.368 884.902 559.172 884.734 559.172C884.622 559.172 884.482 559.34 884.37 559.508C883.894 560.208 883.054 560.516 881.822 560.516C880.478 560.516 879.302 559.816 878.686 558.976C878.07 558.164 877.622 556.876 877.622 555.784C877.622 555.504 877.678 555.028 877.762 554.804C877.79 554.72 877.902 554.58 877.986 554.58C879.274 554.608 884.062 554.608 884.37 554.608C884.678 554.608 884.902 554.3 884.902 554.132C884.902 553.152 884.538 552.368 883.922 551.78C883.222 551.08 882.13 550.716 881.15 550.716ZM880.87 551.444C881.878 551.444 882.718 552.34 882.718 553.124C882.718 553.684 882.438 553.824 881.766 553.824C880.366 553.852 878.882 553.852 878.154 553.824C878.098 553.824 877.986 553.656 878.042 553.516C878.546 552.228 879.61 551.444 880.87 551.444ZM886.858 552.144C886.858 552.256 887.138 552.368 887.81 552.9C888.118 553.096 888.118 553.46 888.118 553.74V559.088C888.09 560.768 888.006 561.048 886.914 561.412C886.69 561.496 886.354 561.608 886.354 561.776C886.354 562 886.634 562.112 886.942 562.112C887.614 562.112 887.95 562 888.79 562C890.414 562 891.394 562.14 892.094 562.14C892.514 562.14 892.766 562.028 892.766 561.888C892.766 561.776 892.71 561.58 892.262 561.44L890.974 561.104C890.47 561.02 890.302 560.488 890.246 559.676C890.218 559.256 890.078 554.188 890.078 553.628C890.078 553.488 890.162 553.236 890.358 553.012C890.638 552.704 891.114 552.62 891.59 552.62C892.15 552.62 892.822 552.956 893.13 553.236C893.214 553.292 893.466 553.348 893.522 553.32C893.69 553.236 894.362 552.48 894.67 552.032C894.754 551.892 894.838 551.696 894.838 551.64C894.838 551.388 894.586 550.688 893.438 550.688C892.57 550.688 891.338 551.388 890.246 552.424C890.19 552.452 890.05 552.424 890.05 552.312C890.05 551.78 890.106 551.276 890.106 550.772C890.106 550.688 889.966 550.436 889.854 550.436C889.77 550.436 889.63 550.548 889.294 550.772C889.014 550.94 888.146 551.36 887.222 551.668C886.914 551.78 886.858 552.06 886.858 552.144ZM901.559 553.684C901.307 553.74 901.223 553.936 901.223 553.992C901.223 554.188 901.503 554.58 902.091 554.776C903.687 555.252 904.107 555.98 904.107 557.8C904.107 558.948 903.407 561.832 903.407 562.476C903.407 564.772 905.115 567.32 908.391 567.32C908.643 567.32 909.063 567.152 909.063 566.816C909.063 566.732 908.867 566.62 908.699 566.592C906.795 566.172 905.227 565.36 905.227 563.344C905.227 563.008 905.311 562.7 905.535 561.776C905.647 561.3 906.151 559.116 906.151 557.996C906.151 556.372 905.423 555.168 903.323 554.076C903.211 554.02 903.183 553.936 903.351 553.824C904.779 553.068 906.123 551.864 906.123 550.492C906.123 549.064 905.367 547.188 905.367 545.984C905.367 544.416 905.927 543.016 907.803 542.54L908.811 542.316C908.923 542.26 909.147 541.84 909.147 541.756C909.147 541.616 909.035 541.504 908.643 541.504C907.971 541.504 906.823 541.616 905.283 542.792C903.995 543.828 903.547 545.424 903.547 546.124C903.547 546.936 904.275 549.988 904.275 550.968C904.275 552.032 903.631 553.236 901.559 553.684ZM917.514 550.632C914.77 550.632 911.774 552.956 911.774 556.456C911.774 559.648 914.21 562.336 917.43 562.336C920.79 562.336 923.31 559.62 923.31 556.288C923.31 554.664 922.218 550.632 917.514 550.632ZM917.374 552.032C918.746 552.032 919.81 552.48 920.622 553.264C921.434 554.048 921.854 555.364 921.854 556.624C921.854 558.92 919.894 560.908 917.766 560.908C916.842 560.908 915.358 560.488 914.518 559.592C913.734 558.78 913.202 557.66 913.202 556.288C913.202 553.936 915.022 552.032 917.374 552.032ZM926.641 558.864C926.109 558.864 925.325 559.228 925.325 560.152C925.325 560.964 926.081 561.216 926.389 561.328C926.781 561.468 927.201 561.748 927.201 562.224C927.201 563.232 926.109 563.932 925.549 564.268C925.353 564.352 925.045 564.464 925.045 564.716C925.045 564.912 925.353 564.968 925.549 564.968C926.109 564.968 928.769 563.988 928.769 561.468C928.769 559.816 927.705 558.864 926.641 558.864ZM931.331 551.22C931.331 551.528 931.555 551.668 932.087 551.808C933.123 552.116 933.263 552.284 933.291 553.46C933.319 553.936 933.319 554.552 933.319 555.224C933.319 556.54 933.207 558.836 933.123 559.48C932.983 560.74 932.927 561.02 931.667 561.328C931.247 561.44 931.079 561.636 931.079 561.776C931.079 562 931.275 562.112 931.835 562.112C932.339 562.112 933.179 562 934.103 562C934.971 562 935.699 562.084 936.539 562.084C936.847 562.084 937.295 562 937.295 561.748C937.295 561.524 937.155 561.384 936.567 561.244C935.307 560.936 935.307 560.6 935.307 560.012V556.4C935.307 555.056 935.335 554.384 935.363 553.376C935.391 552.06 935.755 552.004 936.567 551.724C936.987 551.584 937.155 551.444 937.155 551.22C937.155 550.996 936.959 550.968 936.567 550.968C935.783 550.968 934.999 551.08 934.215 551.08C933.179 551.08 932.535 550.996 932.003 550.996C931.583 550.996 931.331 551.08 931.331 551.22ZM947.336 554.524C947.56 554.412 947.644 554.328 947.644 554.16C947.644 553.964 947.419 553.684 946.776 553.46C945.208 552.956 944.788 552.228 944.788 550.408C944.788 549.316 945.46 546.936 945.46 546.348C945.46 544.024 943.724 541.504 940.476 541.504C940.252 541.504 939.832 541.812 939.832 542.008C939.832 542.12 940.028 542.204 940.168 542.26C942.1 542.876 943.612 543.492 943.612 545.48C943.612 545.816 943.528 546.152 943.332 547.02C943.192 547.496 942.744 549.092 942.744 550.184C942.744 551.864 943.388 553.04 945.6 554.132C945.712 554.188 945.712 554.244 945.6 554.328C944.116 555.056 942.772 556.344 942.772 557.744C942.772 559.2 943.472 561.636 943.472 562.84C943.472 564.268 943.136 565.724 941.344 566.172C940.756 566.34 940.42 566.48 940.224 566.592C940.111 566.648 939.916 566.816 939.916 566.956C939.916 567.124 940.14 567.32 940.42 567.32C940.756 567.32 942.212 567.152 943.612 566.032C944.9 564.996 945.292 563.484 945.292 562.7C945.292 562.028 944.592 558.248 944.592 557.24C944.592 556.204 945.236 554.972 947.336 554.524Z" fill="black"/>
</g>
</svg>
