<svg width="1280" height="960" viewBox="0 0 1280 960" fill="none" xmlns="http://www.w3.org/2000/svg">
<g id="First slide">
<rect width="1280" height="960" fill="white"/>
<path id="Computational Complexity" d="M97.17 69.73C90.73 69.73 84.22 71.27 78.2 76.17C75.26 78.62 70.5 84.99 70.5 92.97C70.5 100.95 73.72 105.99 76.38 109.07C79.18 112.36 86.39 117.26 96.26 117.26C102.21 117.26 107.88 115.79 109 115.3C109.7 114.95 110.89 114.11 111.17 113.48C112.15 111.87 113.76 108.16 113.97 106.41C114.11 105.64 114.04 104.1 113.34 104.1C113.06 104.1 112.78 104.45 111.87 105.92C110.19 108.86 108.44 111.1 105.36 112.71C102.49 114.39 99.06 114.6 97.73 114.6C92.06 114.6 83.94 111.45 80.02 103.4C78.48 100.32 77.57 96.54 77.57 91.85C77.57 81.28 84.78 71.97 96.05 71.97C99.83 71.97 103.4 72.74 107.25 75.61C108.16 76.31 109.49 78.41 110.12 80.86C110.47 81.91 110.89 82.68 111.24 82.68C111.8 82.68 112.36 81.84 112.29 80.37C112.15 78.83 111.8 75.75 111.8 74.28C111.8 72.67 111.1 72.18 110.75 72.18C109.7 72.04 107.25 71.13 105.43 70.85C102.77 70.22 99.62 69.73 97.17 69.73ZM134.676 87.72C129.986 87.72 126.486 89.68 124.316 91.57C121.656 93.81 119.416 97.17 119.416 102.49C119.416 105.99 121.586 110.75 124.596 113.2C127.186 115.37 130.686 116.84 133.906 116.84C137.056 116.84 139.786 116.07 142.586 114.04C145.176 112.36 148.676 107.81 148.676 102C148.676 93.18 141.606 87.72 134.676 87.72ZM133.346 89.82C135.166 89.82 137.686 90.87 139.226 92.55C141.886 95.63 142.726 99.62 142.726 103.26C142.726 106.27 141.326 110.61 139.576 112.5C137.616 114.46 136.076 114.81 135.306 114.81C131.946 114.81 127.956 112.29 126.206 107.04C125.646 105.29 125.366 103.12 125.366 100.81C125.366 97.17 126.976 93.53 128.796 91.85C130.266 90.59 131.876 89.82 133.346 89.82ZM154.312 91.5C154.312 91.85 154.802 92.2 156.762 94.02C157.392 94.65 157.252 95.56 157.252 95.91C157.252 100.74 157.182 107.74 157.042 109.77C156.762 112.78 156.342 113.83 154.102 114.39C152.842 114.67 152.422 115.16 152.422 115.44C152.422 115.93 153.122 116.21 154.172 116.21C155.712 116.21 157.112 116 159.422 116C162.082 116 164.672 116.14 164.952 116.14C165.862 116.14 166.842 115.93 166.842 115.44C166.842 114.88 166.282 114.6 164.952 114.18C162.712 113.48 162.432 112.36 162.432 111.03C162.432 105.71 162.432 96.89 162.572 95.07C162.642 94.3 162.852 93.74 163.342 93.32C165.022 91.99 166.632 91.15 168.942 91.15C171.462 91.15 173.282 92.06 174.192 93.25C174.682 93.88 175.102 94.79 175.102 96.82V110.54C175.102 113.06 174.822 113.76 172.442 114.32C171.322 114.6 171.042 115.09 171.042 115.3C171.042 115.58 171.252 116.14 172.862 116.14C174.332 116.14 176.362 116 177.832 116C179.442 116 181.542 116.14 183.082 116.14C184.202 116.14 184.762 115.79 184.762 115.3C184.762 114.95 184.062 114.53 183.292 114.32C180.912 113.76 180.562 113.06 180.352 110.82C180.212 109.28 180.352 96.05 180.352 95.56C180.352 95.07 180.842 93.74 181.052 93.53C182.032 92.69 183.292 91.36 186.442 91.36C189.382 91.36 190.922 92.48 191.762 93.81C192.462 95.07 192.882 96.05 192.882 98.5C192.882 100.81 193.022 108.65 193.022 110.33C193.022 112.78 192.742 113.62 190.502 114.32C189.732 114.53 188.962 114.81 188.962 115.23C188.962 115.72 189.382 116.14 190.712 116.14C192.322 116.14 193.372 116 195.472 116C197.222 116 199.112 116.21 200.512 116.21C201.842 116.21 202.472 115.93 202.472 115.44C202.472 115.02 202.052 114.74 201.142 114.46C198.622 113.76 198.202 112.43 198.132 111.17C198.132 105.43 198.272 100.53 197.992 96.89C197.852 94.37 197.222 91.92 195.682 90.17C194.212 88.63 192.252 87.79 189.662 87.79C188.402 87.79 186.792 88.14 185.182 88.91C183.362 89.82 181.542 90.94 180.212 91.92C179.932 92.06 179.792 91.92 179.652 91.64C179.372 91.15 178.672 90.1 177.412 89.19C176.152 88.28 174.472 87.79 171.952 87.79C168.662 87.79 164.322 90.45 162.572 91.85C162.292 92.13 162.152 91.64 162.152 91.43C162.152 90.73 162.432 88.77 162.432 87.79C162.432 87.65 161.942 87.16 161.592 87.09C161.452 87.09 161.312 87.16 161.032 87.37C160.262 87.86 157.112 89.68 155.712 90.24C154.942 90.66 154.312 91.08 154.312 91.5ZM224.729 87.86C222.769 87.86 220.669 88.21 219.549 88.7C218.569 89.12 216.679 90.1 214.999 91.22C214.719 91.43 214.439 91.15 214.439 90.87C214.509 89.75 214.509 88.42 214.649 87.3C214.649 87.02 214.089 86.46 213.879 86.46C213.739 86.46 213.179 86.74 212.479 87.09C211.289 87.79 208.209 89.26 207.159 89.54C206.879 89.61 206.179 90.45 206.179 90.8C206.179 91.15 207.019 91.78 208.769 93.04C208.979 93.18 209.329 93.67 209.329 96.61C209.399 100.74 209.329 105.99 209.329 110.75C209.329 117.89 209.259 123.63 209.119 125.94C208.839 130.98 208.489 131.61 204.779 132.38C203.659 132.59 203.169 133.15 203.169 133.43C203.169 134.06 204.219 134.34 205.269 134.34C207.369 134.34 208.069 134.13 209.749 134.13C212.479 134.13 216.539 134.48 218.079 134.48C218.989 134.48 219.899 134.13 219.899 133.57C219.899 133.08 219.339 132.73 217.939 132.31C215.279 131.47 214.789 130.63 214.579 128.81C214.369 126.85 214.299 123.98 214.299 117.19C214.299 116.84 214.579 116.28 214.789 116.28C215.699 116.42 217.099 116.56 218.709 116.56C221.859 116.56 225.989 116 229.839 112.99C234.319 109.63 235.789 104.45 235.789 100.95C235.789 97.1 234.179 93.67 232.499 91.78C230.399 89.47 227.249 87.86 224.729 87.86ZM221.089 91.43C222.699 91.43 225.569 92.41 227.389 94.3C230.259 97.45 230.259 101.23 230.259 102.84C230.259 104.94 228.999 110.19 225.499 113.13C224.519 113.97 223.049 114.32 222.279 114.32C220.529 114.32 217.169 113.13 215.279 110.47C214.789 109.84 214.509 108.65 214.369 107.39C214.089 104.52 214.159 96.89 214.509 94.79C214.719 93.53 215.069 92.97 215.419 92.69C216.189 92.06 218.149 91.43 221.089 91.43ZM255.255 113.34C253.575 113.34 252.315 113.34 250.495 111.94C249.515 111.24 248.745 109.63 248.745 108.02C248.745 104.87 249.025 91.64 248.955 89.26C248.955 88.84 248.675 88.21 248.395 88.21C248.115 88.21 242.935 88.98 240.975 88.98C240.135 88.98 239.785 89.4 239.785 89.61C239.785 90.24 240.415 90.59 241.045 90.87C242.235 91.36 243.565 91.64 243.635 93.6C243.775 97.31 243.775 105.22 243.775 110.26C243.775 111.38 244.265 112.78 244.755 113.55C246.155 115.72 248.395 116.84 250.915 116.84C252.875 116.84 254.415 116.49 255.605 116C256.515 115.65 259.315 113.83 261.345 112.43C261.485 112.36 261.695 112.57 261.695 112.92C261.625 114.11 261.415 115.44 261.415 115.86C261.415 116.35 261.835 116.84 262.115 116.84C262.255 116.84 263.375 116.56 264.565 116.21C266.175 115.79 269.115 115.02 270.935 114.88C271.215 114.88 271.705 114.39 271.705 114.18C271.635 113.97 271.145 112.85 270.865 112.85C270.025 112.85 267.855 113.2 267.365 113.2C266.805 113.2 266.525 112.36 266.525 112.22C266.525 106.48 267.085 90.94 267.225 88.98C267.225 88.7 267.085 87.93 266.735 87.93C266.245 87.93 265.755 88 265.055 88.21C263.445 88.63 260.365 88.98 257.565 88.98C256.865 88.98 255.955 89.33 255.955 89.61C255.955 90.17 256.865 90.59 257.355 90.73L260.575 91.57C260.995 91.71 261.765 92.69 261.765 93.11L261.625 109.21C261.625 109.49 260.995 110.54 260.575 110.89C258.825 112.43 256.935 113.34 255.255 113.34ZM283.49 88.7C283.21 88.7 282.93 88.35 282.93 88.14V84.85C282.93 84.71 282.3 84.08 281.95 84.08C281.67 84.08 281.18 84.64 280.34 85.62C279.36 86.81 277.19 88.49 274.74 90.45C274.53 90.66 274.32 90.94 274.32 91.22C274.32 91.43 274.74 91.78 275.3 91.99C276.7 92.41 277.96 92.9 277.96 93.39C277.96 95.84 277.68 106.34 277.68 108.93C277.68 110.89 277.82 112.36 278.59 113.55C279.43 115.09 281.88 116.84 284.75 116.84C287.9 116.84 290.35 115.58 292.24 113.76C292.73 113.27 293.22 112.57 293.22 112.01C293.22 111.38 292.87 111.24 292.8 111.24C292.52 111.24 292.38 111.31 291.75 111.66C290.7 112.29 289.23 112.71 288.32 112.71C286.85 112.71 285.38 112.57 284.05 111.38C283.28 110.61 282.86 109.7 282.86 107.95C282.86 104.59 282.93 94.3 283 92.9C283 92.76 283.28 92.41 283.63 92.41H291.26C291.75 92.41 293.08 92.27 293.08 91.64C293.08 90.73 292.87 88.77 292.87 88.98C292.87 88.77 292.17 88.42 292.1 88.42C291.82 88.42 285.03 88.7 283.49 88.7ZM308.445 87.72C307.115 87.72 303.965 88.91 301.935 90.38C298.645 92.55 296.685 94.51 296.685 96.54C296.685 96.89 297.105 97.45 297.525 97.45C297.875 97.45 301.375 95.7 302.075 95.14C302.215 95 302.495 94.58 302.495 94.37C302.355 92.97 302.565 91.71 302.985 91.5C303.475 91.15 304.385 90.73 305.855 90.73C309.285 90.73 311.315 93.67 311.315 95.42C311.315 96.26 311.245 100.53 311.175 101.16C311.175 101.58 310.755 101.93 309.145 102.42C307.605 102.91 302.005 104.45 300.955 104.87C299.905 105.36 298.855 105.71 298.155 106.62C297.385 107.6 296.825 108.93 296.825 110.19C296.825 113.69 299.205 116.7 301.655 116.7C302.005 116.7 303.685 116.56 304.455 116.28C305.155 116.07 308.165 114.88 310.755 113.06C310.895 112.99 311.175 113.27 311.175 113.34C312.015 115.93 314.045 116.84 315.655 116.84C318.805 116.84 321.955 113.83 321.955 112.5C321.955 112.43 321.955 112.01 321.745 111.8C321.605 111.59 321.535 111.45 321.325 111.59C320.555 112.15 318.945 112.64 318.665 112.64C318.105 112.64 315.865 112.36 315.865 109.14C315.865 108.37 316.145 99.55 316.145 96.82C316.145 93.88 315.795 92.48 314.745 91.01C313.695 89.47 311.945 87.72 308.445 87.72ZM306.345 113.06C304.875 113.06 301.935 111.94 301.935 108.86C301.935 107.18 302.635 106.69 303.335 106.2C305.225 105.29 308.585 104.1 310.545 104.1C310.825 104.1 311.105 104.45 311.105 104.66C311.105 106.06 311.105 108.44 310.965 110.12C310.965 110.26 310.545 111.59 310.125 111.87C308.795 112.57 307.395 113.06 306.345 113.06ZM332.572 88.7C332.292 88.7 332.012 88.35 332.012 88.14V84.85C332.012 84.71 331.382 84.08 331.032 84.08C330.752 84.08 330.262 84.64 329.422 85.62C328.442 86.81 326.272 88.49 323.822 90.45C323.612 90.66 323.402 90.94 323.402 91.22C323.402 91.43 323.822 91.78 324.382 91.99C325.782 92.41 327.042 92.9 327.042 93.39C327.042 95.84 326.762 106.34 326.762 108.93C326.762 110.89 326.902 112.36 327.672 113.55C328.512 115.09 330.962 116.84 333.832 116.84C336.982 116.84 339.432 115.58 341.322 113.76C341.812 113.27 342.302 112.57 342.302 112.01C342.302 111.38 341.952 111.24 341.882 111.24C341.602 111.24 341.462 111.31 340.832 111.66C339.782 112.29 338.312 112.71 337.402 112.71C335.932 112.71 334.462 112.57 333.132 111.38C332.362 110.61 331.942 109.7 331.942 107.95C331.942 104.59 332.012 94.3 332.082 92.9C332.082 92.76 332.362 92.41 332.712 92.41H340.342C340.832 92.41 342.162 92.27 342.162 91.64C342.162 90.73 341.952 88.77 341.952 88.98C341.952 88.77 341.252 88.42 341.182 88.42C340.902 88.42 334.112 88.7 332.572 88.7ZM352.49 116C353.96 116 357.46 116.21 357.95 116.21C358.72 116.21 359.56 115.93 359.56 115.51C359.56 115.02 359.14 114.67 358.02 114.32C356.27 113.76 354.73 113.62 354.66 111.38C354.59 108.93 354.52 105.99 354.52 102.07C354.52 98.08 354.94 88.98 354.94 88.21C354.94 88.14 354.59 87.44 354.31 87.44C353.26 87.72 349.97 89.26 347.38 89.82C346.61 89.96 345.98 90.52 345.98 91.01C345.98 91.29 346.12 91.5 346.54 91.78C348.57 93.25 349.34 93.81 349.41 94.3C349.55 95.14 349.48 103.12 349.48 105.22C349.48 107.25 349.41 111.45 349.2 112.43C349.06 113.13 348.01 113.97 346.4 114.39C345.21 114.74 344.72 115.09 344.72 115.51C344.72 116 345.42 116.28 346.54 116.28C347.73 116.28 350.18 116 352.49 116ZM352.35 73.51C351.37 73.51 350.32 73.79 349.62 74.42C349.06 75.19 348.78 76.31 348.78 76.94C348.78 78.13 349.27 78.9 349.83 79.53C350.46 80.09 351.58 80.37 352.07 80.37C353.47 80.37 355.43 78.83 355.43 76.94C355.43 75.68 354.24 73.51 352.35 73.51ZM378.035 87.72C373.345 87.72 369.845 89.68 367.675 91.57C365.015 93.81 362.775 97.17 362.775 102.49C362.775 105.99 364.945 110.75 367.955 113.2C370.545 115.37 374.045 116.84 377.265 116.84C380.415 116.84 383.145 116.07 385.945 114.04C388.535 112.36 392.035 107.81 392.035 102C392.035 93.18 384.965 87.72 378.035 87.72ZM376.705 89.82C378.525 89.82 381.045 90.87 382.585 92.55C385.245 95.63 386.085 99.62 386.085 103.26C386.085 106.27 384.685 110.61 382.935 112.5C380.975 114.46 379.435 114.81 378.665 114.81C375.305 114.81 371.315 112.29 369.565 107.04C369.005 105.29 368.725 103.12 368.725 100.81C368.725 97.17 370.335 93.53 372.155 91.85C373.625 90.59 375.235 89.82 376.705 89.82ZM397.741 91.08C397.741 91.29 398.161 91.64 399.071 92.27C400.611 93.53 400.751 94.23 400.751 95C400.751 102.14 400.611 108.23 400.401 110.33C400.191 112.85 399.771 113.55 397.461 114.25C396.691 114.46 395.991 114.81 395.991 115.3C395.991 115.93 396.761 116.21 397.811 116.21C399.001 116.21 401.031 116 403.621 116C405.091 116 407.051 116.07 407.891 116.07C408.871 116.07 409.641 115.72 409.641 115.23C409.641 114.81 409.081 114.39 408.381 114.18C406.141 113.55 405.861 112.99 405.791 112.01C405.721 111.17 405.721 96.12 405.721 95.21C405.721 94.58 406.211 93.74 406.421 93.53C407.751 92.34 409.571 91.29 412.651 91.29C414.261 91.29 416.361 92.06 417.131 92.62C417.971 93.25 419.231 95.28 419.231 97.8C419.231 99.83 419.161 108.3 419.021 110.61C418.881 112.92 418.531 113.48 416.851 114.11C416.011 114.39 415.241 114.81 415.241 115.3C415.241 115.86 416.221 116.14 416.851 116.14C417.761 116.14 419.931 116 421.681 116C423.641 116 425.251 116.14 426.861 116.14C427.981 116.14 428.961 115.86 428.961 115.37C428.961 114.88 428.541 114.53 427.211 114.18C425.461 113.69 424.761 112.78 424.621 111.73C424.551 110.75 424.411 100.32 424.411 98.99C424.411 95.49 423.501 92.27 421.961 90.45C420.981 89.33 419.021 87.79 415.591 87.79C412.651 87.79 409.011 89.75 406.211 91.64C406.141 91.64 405.791 91.78 405.791 91.43C405.791 90.8 406.071 89.12 406.071 87.93C406.071 87.65 405.721 86.88 405.371 86.88C405.021 86.88 404.391 87.23 403.691 87.65C402.711 88.35 400.191 89.26 399.001 89.68C398.511 89.89 397.741 90.59 397.741 91.08ZM444.275 87.72C442.945 87.72 439.795 88.91 437.765 90.38C434.475 92.55 432.515 94.51 432.515 96.54C432.515 96.89 432.935 97.45 433.355 97.45C433.705 97.45 437.205 95.7 437.905 95.14C438.045 95 438.325 94.58 438.325 94.37C438.185 92.97 438.395 91.71 438.815 91.5C439.305 91.15 440.215 90.73 441.685 90.73C445.115 90.73 447.145 93.67 447.145 95.42C447.145 96.26 447.075 100.53 447.005 101.16C447.005 101.58 446.585 101.93 444.975 102.42C443.435 102.91 437.835 104.45 436.785 104.87C435.735 105.36 434.685 105.71 433.985 106.62C433.215 107.6 432.655 108.93 432.655 110.19C432.655 113.69 435.035 116.7 437.485 116.7C437.835 116.7 439.515 116.56 440.285 116.28C440.985 116.07 443.995 114.88 446.585 113.06C446.725 112.99 447.005 113.27 447.005 113.34C447.845 115.93 449.875 116.84 451.485 116.84C454.635 116.84 457.785 113.83 457.785 112.5C457.785 112.43 457.785 112.01 457.575 111.8C457.435 111.59 457.365 111.45 457.155 111.59C456.385 112.15 454.775 112.64 454.495 112.64C453.935 112.64 451.695 112.36 451.695 109.14C451.695 108.37 451.975 99.55 451.975 96.82C451.975 93.88 451.625 92.48 450.575 91.01C449.525 89.47 447.775 87.72 444.275 87.72ZM442.175 113.06C440.705 113.06 437.765 111.94 437.765 108.86C437.765 107.18 438.465 106.69 439.165 106.2C441.055 105.29 444.415 104.1 446.375 104.1C446.655 104.1 446.935 104.45 446.935 104.66C446.935 106.06 446.935 108.44 446.795 110.12C446.795 110.26 446.375 111.59 445.955 111.87C444.625 112.57 443.225 113.06 442.175 113.06ZM461.159 69.8C461.159 70.08 461.369 70.29 462.559 71.13C464.169 72.11 464.169 72.53 464.239 73.09C464.449 74.98 464.449 82.54 464.449 87.72C464.449 98.78 464.239 106.13 464.029 109C463.749 112.5 463.609 113.76 460.389 114.46C459.619 114.6 458.849 114.95 458.849 115.44C458.849 116 459.409 116.21 460.809 116.21C462.279 116.21 465.359 116 466.969 116C468.229 116 471.239 116.21 472.919 116.21C473.759 116.21 474.739 115.93 474.739 115.44C474.739 115.02 474.179 114.67 473.129 114.39C470.119 113.55 469.839 112.71 469.559 111.31C469.209 109.42 469.349 96.05 469.349 85.83C469.349 76.45 469.769 68.54 469.979 66.79C469.979 66.51 469.559 65.95 469.349 66.09C467.459 67.28 465.359 67.7 462.139 68.82C461.369 69.03 461.159 69.52 461.159 69.8ZM519.494 69.73C513.054 69.73 506.544 71.27 500.524 76.17C497.584 78.62 492.824 84.99 492.824 92.97C492.824 100.95 496.044 105.99 498.704 109.07C501.504 112.36 508.714 117.26 518.584 117.26C524.534 117.26 530.204 115.79 531.324 115.3C532.024 114.95 533.214 114.11 533.494 113.48C534.474 111.87 536.084 108.16 536.294 106.41C536.434 105.64 536.364 104.1 535.664 104.1C535.384 104.1 535.104 104.45 534.194 105.92C532.514 108.86 530.764 111.1 527.684 112.71C524.814 114.39 521.384 114.6 520.054 114.6C514.384 114.6 506.264 111.45 502.344 103.4C500.804 100.32 499.894 96.54 499.894 91.85C499.894 81.28 507.104 71.97 518.374 71.97C522.154 71.97 525.724 72.74 529.574 75.61C530.484 76.31 531.814 78.41 532.444 80.86C532.794 81.91 533.214 82.68 533.564 82.68C534.124 82.68 534.684 81.84 534.614 80.37C534.474 78.83 534.124 75.75 534.124 74.28C534.124 72.67 533.424 72.18 533.074 72.18C532.024 72.04 529.574 71.13 527.754 70.85C525.094 70.22 521.944 69.73 519.494 69.73ZM557 87.72C552.31 87.72 548.81 89.68 546.64 91.57C543.98 93.81 541.74 97.17 541.74 102.49C541.74 105.99 543.91 110.75 546.92 113.2C549.51 115.37 553.01 116.84 556.23 116.84C559.38 116.84 562.11 116.07 564.91 114.04C567.5 112.36 571 107.81 571 102C571 93.18 563.93 87.72 557 87.72ZM555.67 89.82C557.49 89.82 560.01 90.87 561.55 92.55C564.21 95.63 565.05 99.62 565.05 103.26C565.05 106.27 563.65 110.61 561.9 112.5C559.94 114.46 558.4 114.81 557.63 114.81C554.27 114.81 550.28 112.29 548.53 107.04C547.97 105.29 547.69 103.12 547.69 100.81C547.69 97.17 549.3 93.53 551.12 91.85C552.59 90.59 554.2 89.82 555.67 89.82ZM576.636 91.5C576.636 91.85 577.126 92.2 579.086 94.02C579.716 94.65 579.576 95.56 579.576 95.91C579.576 100.74 579.506 107.74 579.366 109.77C579.086 112.78 578.666 113.83 576.426 114.39C575.166 114.67 574.746 115.16 574.746 115.44C574.746 115.93 575.446 116.21 576.496 116.21C578.036 116.21 579.436 116 581.746 116C584.406 116 586.996 116.14 587.276 116.14C588.186 116.14 589.166 115.93 589.166 115.44C589.166 114.88 588.606 114.6 587.276 114.18C585.036 113.48 584.756 112.36 584.756 111.03C584.756 105.71 584.756 96.89 584.896 95.07C584.966 94.3 585.176 93.74 585.666 93.32C587.346 91.99 588.956 91.15 591.266 91.15C593.786 91.15 595.606 92.06 596.516 93.25C597.006 93.88 597.426 94.79 597.426 96.82V110.54C597.426 113.06 597.146 113.76 594.766 114.32C593.646 114.6 593.366 115.09 593.366 115.3C593.366 115.58 593.576 116.14 595.186 116.14C596.656 116.14 598.686 116 600.156 116C601.766 116 603.866 116.14 605.406 116.14C606.526 116.14 607.086 115.79 607.086 115.3C607.086 114.95 606.386 114.53 605.616 114.32C603.236 113.76 602.886 113.06 602.676 110.82C602.536 109.28 602.676 96.05 602.676 95.56C602.676 95.07 603.166 93.74 603.376 93.53C604.356 92.69 605.616 91.36 608.766 91.36C611.706 91.36 613.246 92.48 614.086 93.81C614.786 95.07 615.206 96.05 615.206 98.5C615.206 100.81 615.346 108.65 615.346 110.33C615.346 112.78 615.066 113.62 612.826 114.32C612.056 114.53 611.286 114.81 611.286 115.23C611.286 115.72 611.706 116.14 613.036 116.14C614.646 116.14 615.696 116 617.796 116C619.546 116 621.436 116.21 622.836 116.21C624.166 116.21 624.796 115.93 624.796 115.44C624.796 115.02 624.376 114.74 623.466 114.46C620.946 113.76 620.526 112.43 620.456 111.17C620.456 105.43 620.596 100.53 620.316 96.89C620.176 94.37 619.546 91.92 618.006 90.17C616.536 88.63 614.576 87.79 611.986 87.79C610.726 87.79 609.116 88.14 607.506 88.91C605.686 89.82 603.866 90.94 602.536 91.92C602.256 92.06 602.116 91.92 601.976 91.64C601.696 91.15 600.996 90.1 599.736 89.19C598.476 88.28 596.796 87.79 594.276 87.79C590.986 87.79 586.646 90.45 584.896 91.85C584.616 92.13 584.476 91.64 584.476 91.43C584.476 90.73 584.756 88.77 584.756 87.79C584.756 87.65 584.266 87.16 583.916 87.09C583.776 87.09 583.636 87.16 583.356 87.37C582.586 87.86 579.436 89.68 578.036 90.24C577.266 90.66 576.636 91.08 576.636 91.5ZM647.053 87.86C645.093 87.86 642.993 88.21 641.873 88.7C640.893 89.12 639.003 90.1 637.323 91.22C637.043 91.43 636.763 91.15 636.763 90.87C636.833 89.75 636.833 88.42 636.973 87.3C636.973 87.02 636.413 86.46 636.203 86.46C636.063 86.46 635.503 86.74 634.803 87.09C633.613 87.79 630.533 89.26 629.483 89.54C629.203 89.61 628.503 90.45 628.503 90.8C628.503 91.15 629.343 91.78 631.093 93.04C631.303 93.18 631.653 93.67 631.653 96.61C631.723 100.74 631.653 105.99 631.653 110.75C631.653 117.89 631.583 123.63 631.443 125.94C631.163 130.98 630.813 131.61 627.103 132.38C625.983 132.59 625.493 133.15 625.493 133.43C625.493 134.06 626.543 134.34 627.593 134.34C629.693 134.34 630.393 134.13 632.073 134.13C634.803 134.13 638.863 134.48 640.403 134.48C641.313 134.48 642.223 134.13 642.223 133.57C642.223 133.08 641.663 132.73 640.263 132.31C637.603 131.47 637.113 130.63 636.903 128.81C636.693 126.85 636.623 123.98 636.623 117.19C636.623 116.84 636.903 116.28 637.113 116.28C638.023 116.42 639.423 116.56 641.033 116.56C644.183 116.56 648.313 116 652.163 112.99C656.643 109.63 658.113 104.45 658.113 100.95C658.113 97.1 656.503 93.67 654.823 91.78C652.723 89.47 649.573 87.86 647.053 87.86ZM643.413 91.43C645.023 91.43 647.893 92.41 649.713 94.3C652.583 97.45 652.583 101.23 652.583 102.84C652.583 104.94 651.323 110.19 647.823 113.13C646.843 113.97 645.373 114.32 644.603 114.32C642.853 114.32 639.493 113.13 637.603 110.47C637.113 109.84 636.833 108.65 636.693 107.39C636.413 104.52 636.483 96.89 636.833 94.79C637.043 93.53 637.393 92.97 637.743 92.69C638.513 92.06 640.473 91.43 643.413 91.43ZM663.503 69.8C663.503 70.08 663.713 70.29 664.903 71.13C666.513 72.11 666.513 72.53 666.583 73.09C666.793 74.98 666.793 82.54 666.793 87.72C666.793 98.78 666.583 106.13 666.373 109C666.093 112.5 665.953 113.76 662.733 114.46C661.963 114.6 661.193 114.95 661.193 115.44C661.193 116 661.753 116.21 663.153 116.21C664.623 116.21 667.703 116 669.313 116C670.573 116 673.583 116.21 675.263 116.21C676.103 116.21 677.083 115.93 677.083 115.44C677.083 115.02 676.523 114.67 675.473 114.39C672.463 113.55 672.183 112.71 671.903 111.31C671.553 109.42 671.693 96.05 671.693 85.83C671.693 76.45 672.113 68.54 672.323 66.79C672.323 66.51 671.903 65.95 671.693 66.09C669.803 67.28 667.703 67.7 664.483 68.82C663.713 69.03 663.503 69.52 663.503 69.8ZM693.753 87.79C692.563 87.79 690.253 88.21 688.433 89.05C682.973 91.57 680.033 97.17 680.033 102.77C680.033 110.96 685.073 116.7 692.633 116.7C696.623 116.7 700.333 115.02 702.783 111.45C702.993 111.1 703.273 110.33 703.273 109.77C703.273 109.42 703.133 108.93 702.713 108.93C702.433 108.93 702.083 109.35 701.803 109.77C700.613 111.52 698.513 112.29 695.433 112.29C692.073 112.29 689.133 110.54 687.593 108.44C686.053 106.41 684.933 103.19 684.933 100.46C684.933 99.76 685.073 98.57 685.283 98.01C685.353 97.8 685.633 97.45 685.843 97.45C689.063 97.52 701.033 97.52 701.803 97.52C702.573 97.52 703.133 96.75 703.133 96.33C703.133 93.88 702.223 91.92 700.683 90.45C698.933 88.7 696.203 87.79 693.753 87.79ZM693.053 89.61C695.573 89.61 697.673 91.85 697.673 93.81C697.673 95.21 696.973 95.56 695.293 95.56C691.793 95.63 688.083 95.63 686.263 95.56C686.123 95.56 685.843 95.14 685.983 94.79C687.243 91.57 689.903 89.61 693.053 89.61ZM706.185 88.91C706.185 89.4 706.675 89.82 708.005 90.17C709.755 90.73 711.155 91.78 712.905 94.37C714.935 97.45 717.455 102.07 717.735 102.7C717.875 102.98 717.875 103.19 717.735 103.4C715.635 106.13 713.325 109.56 711.925 111.17C710.525 112.78 709.125 113.69 706.675 114.39C705.835 114.6 704.925 115.02 704.925 115.51C704.925 116.07 706.045 116.28 706.955 116.28C708.285 116.28 710.315 116 712.625 116C713.745 116 714.165 116.14 715.635 116.14C716.125 116.14 717.105 116 717.105 115.44C717.105 115.02 716.545 114.53 716.125 114.39C714.725 113.83 714.305 113.27 714.305 112.43C714.375 111.45 717.595 106.62 718.715 105.5C718.925 105.29 719.065 105.36 719.205 105.5C719.695 105.92 721.935 110.19 722.635 111.52C723.965 113.62 723.125 113.9 721.935 114.32C720.955 114.6 720.605 114.95 720.605 115.23C720.605 115.72 721.095 116.14 722.075 116.14C723.475 116.14 724.245 116 725.645 116C728.305 116 730.825 116.35 733.205 116.35C734.325 116.35 734.885 116 734.885 115.51C734.885 115.16 734.465 114.74 733.275 114.46C731.805 114.11 730.055 113.62 727.955 110.61C725.785 107.53 722.845 102.21 722.145 100.67C722.075 100.46 722.075 100.18 722.215 99.9C724.105 97.24 725.365 95.63 727.115 93.46C728.655 91.57 730.405 90.87 733.205 90.1C733.555 89.96 734.535 89.68 734.535 89.12C734.535 88.56 733.835 88.35 733.065 88.35C731.945 88.35 728.655 88.7 726.975 88.7C725.715 88.7 724.665 88.56 723.965 88.56C723.195 88.56 722.565 88.84 722.565 89.33C722.565 89.82 722.915 90.03 724.455 90.66C725.295 91.01 725.645 91.36 724.945 92.48C724.245 93.81 722.355 96.75 721.235 98.22C721.095 98.36 720.815 98.43 720.745 98.29C719.765 96.89 717.035 92.27 717.035 91.85C717.035 91.5 716.895 90.87 718.435 90.38C719.205 90.17 719.765 89.68 719.765 89.19C719.765 88.77 719.065 88.56 718.225 88.56C717.035 88.56 715.565 88.7 714.095 88.7C712.415 88.7 708.845 88.28 708.005 88.28C707.025 88.28 706.185 88.49 706.185 88.91ZM744.599 116C746.069 116 749.569 116.21 750.059 116.21C750.829 116.21 751.669 115.93 751.669 115.51C751.669 115.02 751.249 114.67 750.129 114.32C748.379 113.76 746.839 113.62 746.769 111.38C746.699 108.93 746.629 105.99 746.629 102.07C746.629 98.08 747.049 88.98 747.049 88.21C747.049 88.14 746.699 87.44 746.419 87.44C745.369 87.72 742.079 89.26 739.489 89.82C738.719 89.96 738.089 90.52 738.089 91.01C738.089 91.29 738.229 91.5 738.649 91.78C740.679 93.25 741.449 93.81 741.519 94.3C741.659 95.14 741.589 103.12 741.589 105.22C741.589 107.25 741.519 111.45 741.309 112.43C741.169 113.13 740.119 113.97 738.509 114.39C737.319 114.74 736.829 115.09 736.829 115.51C736.829 116 737.529 116.28 738.649 116.28C739.839 116.28 742.289 116 744.599 116ZM744.459 73.51C743.479 73.51 742.429 73.79 741.729 74.42C741.169 75.19 740.889 76.31 740.889 76.94C740.889 78.13 741.379 78.9 741.939 79.53C742.569 80.09 743.689 80.37 744.179 80.37C745.579 80.37 747.539 78.83 747.539 76.94C747.539 75.68 746.349 73.51 744.459 73.51ZM764.125 88.7C763.845 88.7 763.565 88.35 763.565 88.14V84.85C763.565 84.71 762.935 84.08 762.585 84.08C762.305 84.08 761.815 84.64 760.975 85.62C759.995 86.81 757.825 88.49 755.375 90.45C755.165 90.66 754.955 90.94 754.955 91.22C754.955 91.43 755.375 91.78 755.935 91.99C757.335 92.41 758.595 92.9 758.595 93.39C758.595 95.84 758.315 106.34 758.315 108.93C758.315 110.89 758.455 112.36 759.225 113.55C760.065 115.09 762.515 116.84 765.385 116.84C768.535 116.84 770.985 115.58 772.875 113.76C773.365 113.27 773.855 112.57 773.855 112.01C773.855 111.38 773.505 111.24 773.435 111.24C773.155 111.24 773.015 111.31 772.385 111.66C771.335 112.29 769.865 112.71 768.955 112.71C767.485 112.71 766.015 112.57 764.685 111.38C763.915 110.61 763.495 109.7 763.495 107.95C763.495 104.59 763.565 94.3 763.635 92.9C763.635 92.76 763.915 92.41 764.265 92.41H771.895C772.385 92.41 773.715 92.27 773.715 91.64C773.715 90.73 773.505 88.77 773.505 88.98C773.505 88.77 772.805 88.42 772.735 88.42C772.455 88.42 765.665 88.7 764.125 88.7ZM776.084 89.26C776.084 89.68 776.504 89.96 777.484 90.31C779.794 91.08 780.144 91.78 780.774 93.04C782.944 97.45 787.284 107.88 788.754 112.01L789.804 114.88C790.084 115.51 789.804 116.42 789.594 117.4C789.104 119.15 786.864 125.31 786.234 126.43C785.954 127.13 785.814 127.62 785.184 127.62C784.484 127.62 783.014 127.55 782.664 127.55C780.704 127.55 779.584 129.44 779.584 130.63C779.584 132.1 780.354 134.06 782.734 134.06C784.764 134.06 786.094 133.01 786.374 132.1C788.614 126.15 791.204 118.94 793.654 112.57C795.264 108.51 799.044 99.13 801.354 93.88C802.404 91.57 803.314 90.73 804.784 90.24C805.624 89.96 806.324 89.68 806.324 89.05C806.324 88.56 805.834 88.42 804.924 88.42C803.104 88.42 801.494 88.7 800.514 88.7C799.604 88.7 797.714 88.63 796.384 88.63C795.544 88.63 794.634 88.77 794.634 89.4C794.634 89.68 795.264 90.17 796.104 90.38C798.834 91.01 799.394 91.85 798.764 93.81C798.414 94.93 794.074 106.27 793.234 108.16C793.024 108.58 792.744 108.58 792.674 108.44C792.114 107.6 787.634 96.61 786.584 93.25C785.884 91.43 786.094 91.08 788.054 90.52C789.174 90.24 789.664 89.82 789.664 89.33C789.664 88.77 788.684 88.56 788.124 88.56C787.284 88.56 785.184 88.7 783.224 88.7C781.194 88.7 779.514 88.42 777.764 88.42C776.294 88.42 776.084 88.98 776.084 89.26Z" fill="black"/>
<path id="Lecture 1. Turing machines and their resources" d="M68.84 149.68C68.84 149.96 69.16 150.28 69.96 150.44C71.84 150.8 72.04 151.56 72.08 152.44C72.12 153.76 72.12 156.52 72.12 158.12C72.12 163.92 72 170.28 71.92 171.28C71.72 172.84 71.16 173.6 68.96 174.04C68.32 174.16 68 174.48 68 174.76C68 175.12 68.4 175.2 69.16 175.2C69.72 175.2 71.6 175 74.32 175C82.44 175 86.08 175.24 86.56 175.24C86.72 175.24 87.48 175 87.52 174.56C87.84 173.04 88.12 172.2 88.76 170.24C88.92 169.6 88.8 169.16 88.6 169.16C88.4 169.16 88.04 169.32 87.6 170.04C86.52 171.56 85.88 172.16 85.32 172.72C84.52 173.44 84.04 173.44 83.72 173.48C83.12 173.56 82 173.6 80.88 173.6C79.56 173.6 78.08 173.56 77.04 173.4C76.72 173.36 75.76 172.44 75.68 171.88C75.52 170.56 75.4 166.72 75.4 163.6C75.4 157.68 75.4 153.64 75.64 151.84C75.72 151.24 76 150.8 78.32 150.28C78.92 150.12 79.24 149.88 79.24 149.6C79.24 149.32 78.96 149.16 78.24 149.16C77.28 149.16 74.56 149.28 73 149.28C71.84 149.28 71.12 149.2 70.04 149.2C69.16 149.2 68.84 149.4 68.84 149.68ZM99.0116 158.88C98.3316 158.88 97.0116 159.12 95.9716 159.6C92.8516 161.04 91.1716 164.24 91.1716 167.44C91.1716 172.12 94.0516 175.4 98.3716 175.4C100.652 175.4 102.772 174.44 104.172 172.4C104.292 172.2 104.452 171.76 104.452 171.44C104.452 171.24 104.372 170.96 104.132 170.96C103.972 170.96 103.772 171.2 103.612 171.44C102.932 172.44 101.732 172.88 99.9716 172.88C98.0516 172.88 96.3716 171.88 95.4916 170.68C94.6116 169.52 93.9716 167.68 93.9716 166.12C93.9716 165.72 94.0516 165.04 94.1716 164.72C94.2116 164.6 94.3716 164.4 94.4916 164.4C96.3316 164.44 103.172 164.44 103.612 164.44C104.052 164.44 104.372 164 104.372 163.76C104.372 162.36 103.852 161.24 102.972 160.4C101.972 159.4 100.412 158.88 99.0116 158.88ZM98.6116 159.92C100.052 159.92 101.252 161.2 101.252 162.32C101.252 163.12 100.852 163.32 99.8916 163.32C97.8916 163.36 95.7716 163.36 94.7316 163.32C94.6516 163.32 94.4916 163.08 94.5716 162.88C95.2916 161.04 96.8116 159.92 98.6116 159.92ZM116.423 158.96C115.343 158.96 112.743 159.52 111.183 160.64C108.863 162.2 107.303 164.64 107.303 167.56C107.303 169.24 107.863 171.12 108.543 172.24C109.823 174.12 111.943 175.44 114.463 175.44C116.543 175.44 118.823 174.52 120.223 172.96C120.543 172.64 120.743 172.24 120.743 171.8C120.743 171.6 120.423 171.48 119.983 171.8C118.943 172.52 117.903 173 116.423 173C114.343 173 112.383 172 111.383 170.32C111.223 170.08 110.343 168.64 110.343 166.32C110.343 164.56 110.943 162.92 112.023 161.72C112.663 160.92 113.863 160.36 114.503 160.36C115.863 160.36 116.543 160.96 117.863 161.92C118.503 162.36 119.183 162.68 119.423 162.68C119.583 162.68 120.743 161.72 120.743 161.08C120.743 160.84 120.543 160.16 120.143 159.88C119.383 159.28 117.623 158.96 116.423 158.96ZM128.248 159.4C128.088 159.4 127.928 159.2 127.928 159.08V157.2C127.928 157.12 127.567 156.76 127.368 156.76C127.208 156.76 126.928 157.08 126.448 157.64C125.888 158.32 124.648 159.28 123.248 160.4C123.128 160.52 123.007 160.68 123.007 160.84C123.007 160.96 123.248 161.16 123.568 161.28C124.368 161.52 125.088 161.8 125.088 162.08C125.088 163.48 124.928 169.48 124.928 170.96C124.928 172.08 125.008 172.92 125.448 173.6C125.928 174.48 127.328 175.48 128.968 175.48C130.768 175.48 132.168 174.76 133.248 173.72C133.528 173.44 133.808 173.04 133.808 172.72C133.808 172.36 133.608 172.28 133.568 172.28C133.408 172.28 133.328 172.32 132.968 172.52C132.368 172.88 131.528 173.12 131.008 173.12C130.168 173.12 129.328 173.04 128.568 172.36C128.128 171.92 127.888 171.4 127.888 170.4C127.888 168.48 127.928 162.6 127.968 161.8C127.968 161.72 128.128 161.52 128.328 161.52H132.688C132.968 161.52 133.728 161.44 133.728 161.08C133.728 160.56 133.608 159.44 133.608 159.56C133.608 159.44 133.208 159.24 133.168 159.24C133.008 159.24 129.128 159.4 128.248 159.4ZM144.223 173.48C143.263 173.48 142.543 173.48 141.503 172.68C140.943 172.28 140.503 171.36 140.503 170.44C140.503 168.64 140.663 161.08 140.623 159.72C140.623 159.48 140.463 159.12 140.303 159.12C140.143 159.12 137.183 159.56 136.063 159.56C135.583 159.56 135.383 159.8 135.383 159.92C135.383 160.28 135.743 160.48 136.103 160.64C136.783 160.92 137.543 161.08 137.583 162.2C137.663 164.32 137.663 168.84 137.663 171.72C137.663 172.36 137.943 173.16 138.223 173.6C139.023 174.84 140.303 175.48 141.743 175.48C142.863 175.48 143.743 175.28 144.423 175C144.943 174.8 146.543 173.76 147.703 172.96C147.783 172.92 147.903 173.04 147.903 173.24C147.863 173.92 147.743 174.68 147.743 174.92C147.743 175.2 147.983 175.48 148.143 175.48C148.223 175.48 148.863 175.32 149.543 175.12C150.463 174.88 152.143 174.44 153.183 174.36C153.343 174.36 153.623 174.08 153.623 173.96C153.583 173.84 153.303 173.2 153.143 173.2C152.663 173.2 151.423 173.4 151.143 173.4C150.823 173.4 150.663 172.92 150.663 172.84C150.663 169.56 150.983 160.68 151.063 159.56C151.063 159.4 150.983 158.96 150.783 158.96C150.503 158.96 150.223 159 149.823 159.12C148.903 159.36 147.143 159.56 145.543 159.56C145.143 159.56 144.623 159.76 144.623 159.92C144.623 160.24 145.143 160.48 145.423 160.56L147.263 161.04C147.503 161.12 147.943 161.68 147.943 161.92L147.863 171.12C147.863 171.28 147.503 171.88 147.263 172.08C146.263 172.96 145.183 173.48 144.223 173.48ZM155.681 160.92C155.681 161.08 156.081 161.24 157.041 162C157.481 162.28 157.481 162.8 157.481 163.2V170.84C157.441 173.24 157.321 173.64 155.761 174.16C155.441 174.28 154.961 174.44 154.961 174.68C154.961 175 155.361 175.16 155.801 175.16C156.761 175.16 157.241 175 158.441 175C160.761 175 162.161 175.2 163.161 175.2C163.761 175.2 164.121 175.04 164.121 174.84C164.121 174.68 164.041 174.4 163.401 174.2L161.561 173.72C160.841 173.6 160.601 172.84 160.521 171.68C160.481 171.08 160.281 163.84 160.281 163.04C160.281 162.84 160.401 162.48 160.681 162.16C161.081 161.72 161.761 161.6 162.441 161.6C163.241 161.6 164.201 162.08 164.641 162.48C164.761 162.56 165.121 162.64 165.201 162.6C165.441 162.48 166.401 161.4 166.841 160.76C166.961 160.56 167.081 160.28 167.081 160.2C167.081 159.84 166.721 158.84 165.081 158.84C163.841 158.84 162.081 159.84 160.521 161.32C160.441 161.36 160.241 161.32 160.241 161.16C160.241 160.4 160.321 159.68 160.321 158.96C160.321 158.84 160.121 158.48 159.961 158.48C159.841 158.48 159.641 158.64 159.161 158.96C158.761 159.2 157.521 159.8 156.201 160.24C155.761 160.4 155.681 160.8 155.681 160.92ZM176.082 158.88C175.402 158.88 174.082 159.12 173.042 159.6C169.922 161.04 168.242 164.24 168.242 167.44C168.242 172.12 171.122 175.4 175.442 175.4C177.722 175.4 179.842 174.44 181.242 172.4C181.362 172.2 181.522 171.76 181.522 171.44C181.522 171.24 181.442 170.96 181.202 170.96C181.042 170.96 180.842 171.2 180.682 171.44C180.002 172.44 178.802 172.88 177.042 172.88C175.122 172.88 173.442 171.88 172.562 170.68C171.682 169.52 171.042 167.68 171.042 166.12C171.042 165.72 171.122 165.04 171.242 164.72C171.282 164.6 171.442 164.4 171.562 164.4C173.402 164.44 180.242 164.44 180.682 164.44C181.122 164.44 181.442 164 181.442 163.76C181.442 162.36 180.922 161.24 180.042 160.4C179.042 159.4 177.482 158.88 176.082 158.88ZM175.682 159.92C177.122 159.92 178.322 161.2 178.322 162.32C178.322 163.12 177.922 163.32 176.962 163.32C174.962 163.36 172.842 163.36 171.802 163.32C171.722 163.32 171.562 163.08 171.642 162.88C172.362 161.04 173.882 159.92 175.682 159.92ZM200.675 149.76C199.555 149.76 197.755 150.12 196.515 150.84C193.235 152.72 192.195 155.84 192.195 158.2C192.195 161.84 194.515 164.72 198.115 164.72C199.115 164.72 200.955 164.16 202.075 163.2C202.555 162.8 202.715 162.56 202.795 162.36C202.915 162.12 202.995 161.84 202.995 161.68C202.995 161.52 202.755 161.4 202.555 161.48C202.035 161.72 201.315 162.16 200.195 162.16C197.195 162.16 195.115 160.16 195.115 156.28C195.115 153.88 196.835 151.24 199.355 151.24C200.155 151.24 201.275 151.48 202.075 152.12C204.035 153.72 204.835 156.92 204.835 159.4C204.835 163.48 202.915 168.04 200.395 170.96C198.675 173.04 196.355 175.04 193.515 176.44C193.275 176.52 192.955 176.72 192.955 176.84C192.955 177.08 193.435 177.28 193.715 177.28C195.075 177.28 196.355 176.84 198.515 175.48C203.995 172.08 208.355 164.88 208.355 159.2C208.355 154.64 205.915 149.76 200.675 149.76ZM212.135 170.88C211.415 170.88 209.935 171.52 209.935 173.2C209.935 174.92 211.175 175.52 212.135 175.52C213.455 175.52 214.375 174.48 214.375 173.2C214.375 172.4 213.855 170.88 212.135 170.88ZM231.307 149.28C230.067 149.28 228.627 149.16 226.867 149.16C226.227 149.16 225.747 149.32 225.747 149.64C225.747 149.92 225.947 150.12 226.747 150.32C228.507 150.76 229.187 151.44 229.267 152.8C229.347 153.84 229.347 156.2 229.347 159.96C229.347 167.88 229.147 170.84 229.027 172.08C228.987 172.6 228.907 173.52 226.747 174.04C226.107 174.2 225.667 174.52 225.667 174.84C225.667 175.08 225.987 175.24 226.787 175.24C227.627 175.24 229.947 175 231.547 175C233.067 175 234.307 175.12 235.347 175.12C236.107 175.12 236.467 174.88 236.467 174.64C236.467 174.28 236.107 174 235.507 173.88C232.907 173.4 232.827 172.6 232.787 171.36C232.747 170.2 232.587 164.6 232.627 163.84C232.667 163.68 232.827 163.36 232.947 163.36C233.787 163.24 235.707 163.24 236.467 163.24C237.267 163.24 238.707 163.36 239.147 163.44C239.907 163.64 240.387 163.84 240.787 165.36C240.947 165.92 241.187 166.2 241.387 166.2C241.787 166.2 241.987 165.72 241.987 165.28C241.987 164.4 241.907 164.04 241.907 162.12C241.907 161.4 242.107 160.12 242.107 159.6C242.107 159.12 242.027 158.72 241.747 158.72C241.387 158.72 241.227 159.12 240.987 159.68C240.427 161.04 240.067 161.4 238.827 161.52C237.867 161.6 234.627 161.56 233.067 161.56C232.867 161.56 232.667 161.16 232.667 160.08C232.667 157.44 232.747 152.2 232.827 151.24C232.827 151.12 233.067 150.76 233.467 150.72C234.307 150.64 238.307 150.6 239.667 150.8C240.987 151 241.427 151.36 242.067 153.32C242.307 154.12 242.627 154.56 242.947 154.56C243.307 154.56 243.547 154 243.507 153.48C243.467 152.12 243.307 150.72 243.387 149.56C243.387 149.32 243.107 149.12 242.907 149.16C242.587 149.16 238.907 149.28 236.507 149.28H231.307ZM250.059 175C250.899 175 252.899 175.12 253.179 175.12C253.619 175.12 254.099 174.96 254.099 174.72C254.099 174.44 253.859 174.24 253.219 174.04C252.219 173.72 251.339 173.64 251.299 172.36C251.259 170.96 251.219 169.28 251.219 167.04C251.219 164.76 251.459 159.56 251.459 159.12C251.459 159.08 251.259 158.68 251.099 158.68C250.499 158.84 248.619 159.72 247.139 160.04C246.699 160.12 246.339 160.44 246.339 160.72C246.339 160.88 246.419 161 246.659 161.16C247.819 162 248.259 162.32 248.299 162.6C248.379 163.08 248.339 167.64 248.339 168.84C248.339 170 248.299 172.4 248.179 172.96C248.099 173.36 247.499 173.84 246.579 174.08C245.899 174.28 245.619 174.48 245.619 174.72C245.619 175 246.019 175.16 246.659 175.16C247.339 175.16 248.739 175 250.059 175ZM249.979 150.72C249.419 150.72 248.819 150.88 248.419 151.24C248.099 151.68 247.939 152.32 247.939 152.68C247.939 153.36 248.219 153.8 248.539 154.16C248.899 154.48 249.539 154.64 249.819 154.64C250.619 154.64 251.739 153.76 251.739 152.68C251.739 151.96 251.059 150.72 249.979 150.72ZM255.256 159.52C255.256 159.8 255.536 160.04 256.296 160.24C257.296 160.56 258.096 161.16 259.096 162.64C260.256 164.4 261.696 167.04 261.856 167.4C261.936 167.56 261.936 167.68 261.856 167.8C260.656 169.36 259.336 171.32 258.536 172.24C257.736 173.16 256.936 173.68 255.536 174.08C255.056 174.2 254.536 174.44 254.536 174.72C254.536 175.04 255.176 175.16 255.696 175.16C256.456 175.16 257.616 175 258.936 175C259.576 175 259.816 175.08 260.656 175.08C260.936 175.08 261.496 175 261.496 174.68C261.496 174.44 261.176 174.16 260.936 174.08C260.136 173.76 259.896 173.44 259.896 172.96C259.936 172.4 261.776 169.64 262.416 169C262.536 168.88 262.616 168.92 262.696 169C262.976 169.24 264.256 171.68 264.656 172.44C265.416 173.64 264.936 173.8 264.256 174.04C263.696 174.2 263.496 174.4 263.496 174.56C263.496 174.84 263.776 175.08 264.336 175.08C265.136 175.08 265.576 175 266.376 175C267.896 175 269.336 175.2 270.696 175.2C271.336 175.2 271.656 175 271.656 174.72C271.656 174.52 271.416 174.28 270.736 174.12C269.896 173.92 268.896 173.64 267.696 171.92C266.456 170.16 264.776 167.12 264.376 166.24C264.336 166.12 264.336 165.96 264.416 165.8C265.496 164.28 266.216 163.36 267.216 162.12C268.096 161.04 269.096 160.64 270.696 160.2C270.896 160.12 271.456 159.96 271.456 159.64C271.456 159.32 271.056 159.2 270.616 159.2C269.976 159.2 268.096 159.4 267.136 159.4C266.416 159.4 265.816 159.32 265.416 159.32C264.976 159.32 264.616 159.48 264.616 159.76C264.616 160.04 264.816 160.16 265.696 160.52C266.176 160.72 266.376 160.92 265.976 161.56C265.576 162.32 264.496 164 263.856 164.84C263.776 164.92 263.616 164.96 263.576 164.88C263.016 164.08 261.456 161.44 261.456 161.2C261.456 161 261.376 160.64 262.256 160.36C262.696 160.24 263.016 159.96 263.016 159.68C263.016 159.44 262.616 159.32 262.136 159.32C261.456 159.32 260.616 159.4 259.776 159.4C258.816 159.4 256.776 159.16 256.296 159.16C255.736 159.16 255.256 159.28 255.256 159.52ZM280.223 158.88C279.543 158.88 278.223 159.12 277.183 159.6C274.063 161.04 272.382 164.24 272.382 167.44C272.382 172.12 275.263 175.4 279.583 175.4C281.863 175.4 283.983 174.44 285.383 172.4C285.503 172.2 285.663 171.76 285.663 171.44C285.663 171.24 285.583 170.96 285.343 170.96C285.183 170.96 284.983 171.2 284.823 171.44C284.143 172.44 282.943 172.88 281.183 172.88C279.263 172.88 277.583 171.88 276.703 170.68C275.823 169.52 275.183 167.68 275.183 166.12C275.183 165.72 275.263 165.04 275.383 164.72C275.423 164.6 275.583 164.4 275.703 164.4C277.543 164.44 284.383 164.44 284.823 164.44C285.263 164.44 285.583 164 285.583 163.76C285.583 162.36 285.063 161.24 284.183 160.4C283.183 159.4 281.622 158.88 280.223 158.88ZM279.823 159.92C281.263 159.92 282.463 161.2 282.463 162.32C282.463 163.12 282.063 163.32 281.103 163.32C279.103 163.36 276.983 163.36 275.943 163.32C275.863 163.32 275.703 163.08 275.783 162.88C276.503 161.04 278.023 159.92 279.823 159.92ZM298.034 158.84C296.954 158.84 294.594 159.24 292.754 160.36C290.794 161.52 288.514 163.8 288.514 167.72C288.514 169.72 289.154 171.76 290.434 173.2C291.674 174.52 293.514 175.4 295.434 175.4C296.754 175.4 298.794 175.04 300.634 173.4C300.714 173.4 300.874 173.48 300.874 173.64C300.874 174.2 300.794 174.92 300.794 175.28C300.794 175.48 301.074 175.8 301.234 175.8C301.434 175.8 301.754 175.72 302.674 175.4C303.434 175.12 305.514 174.72 306.274 174.6C306.474 174.56 306.954 173.88 306.954 173.6C306.954 173.56 306.874 173.36 306.714 173.36C306.314 173.4 304.994 173.68 304.554 173.68C304.314 173.68 303.994 173.52 303.914 172.04C303.914 171.28 303.834 170.64 303.834 162.92C303.834 150.68 303.994 149.24 304.194 147.12C304.234 146.76 303.994 146.48 303.874 146.48C303.714 146.48 303.594 146.52 303.354 146.6C302.314 147 300.194 147.6 299.274 147.72C299.034 147.76 298.594 148.24 298.594 148.4C298.594 148.48 298.634 148.56 298.994 148.76C300.834 149.72 300.834 150.2 300.874 150.4C300.994 151.36 301.114 157.48 300.914 158.56C300.874 158.76 300.754 159.04 300.594 159C300.114 158.92 299.474 158.84 298.034 158.84ZM296.554 160.16C297.354 160.16 298.874 160.6 299.994 161.72C300.474 162.2 300.834 162.92 300.874 163.24C300.994 165.12 301.034 167.32 300.994 169.88C300.954 171.16 300.434 172.44 300.354 172.52C299.634 173.04 298.714 173.48 297.434 173.48C293.994 173.48 291.754 169.8 291.754 166.6C291.754 164.36 292.674 162.32 293.434 161.56C294.154 160.84 295.274 160.16 296.554 160.16ZM327.404 158.92C326.284 158.92 325.084 159.12 324.444 159.4C323.884 159.64 322.804 160.2 321.844 160.84C321.684 160.96 321.524 160.8 321.524 160.64C321.564 160 321.564 159.24 321.644 158.6C321.644 158.44 321.324 158.12 321.204 158.12C321.124 158.12 320.804 158.28 320.404 158.48C319.724 158.88 317.964 159.72 317.364 159.88C317.204 159.92 316.804 160.4 316.804 160.6C316.804 160.8 317.284 161.16 318.284 161.88C318.404 161.96 318.604 162.24 318.604 163.92C318.644 166.28 318.604 169.28 318.604 172C318.604 176.08 318.564 179.36 318.484 180.68C318.324 183.56 318.124 183.92 316.004 184.36C315.364 184.48 315.084 184.8 315.084 184.96C315.084 185.32 315.684 185.48 316.284 185.48C317.484 185.48 317.884 185.36 318.844 185.36C320.404 185.36 322.724 185.56 323.604 185.56C324.124 185.56 324.644 185.36 324.644 185.04C324.644 184.76 324.324 184.56 323.524 184.32C322.004 183.84 321.724 183.36 321.604 182.32C321.484 181.2 321.444 179.56 321.444 175.68C321.444 175.48 321.604 175.16 321.724 175.16C322.244 175.24 323.044 175.32 323.964 175.32C325.764 175.32 328.124 175 330.324 173.28C332.884 171.36 333.724 168.4 333.724 166.4C333.724 164.2 332.804 162.24 331.844 161.16C330.644 159.84 328.844 158.92 327.404 158.92ZM325.324 160.96C326.244 160.96 327.884 161.52 328.924 162.6C330.564 164.4 330.564 166.56 330.564 167.48C330.564 168.68 329.844 171.68 327.844 173.36C327.284 173.84 326.444 174.04 326.004 174.04C325.004 174.04 323.084 173.36 322.004 171.84C321.724 171.48 321.564 170.8 321.484 170.08C321.324 168.44 321.364 164.08 321.564 162.88C321.684 162.16 321.884 161.84 322.084 161.68C322.524 161.32 323.644 160.96 325.324 160.96ZM343.484 158.84C342.724 158.84 340.924 159.52 339.764 160.36C337.884 161.6 336.764 162.72 336.764 163.88C336.764 164.08 337.004 164.4 337.244 164.4C337.444 164.4 339.444 163.4 339.844 163.08C339.924 163 340.084 162.76 340.084 162.64C340.004 161.84 340.124 161.12 340.364 161C340.644 160.8 341.164 160.56 342.004 160.56C343.964 160.56 345.124 162.24 345.124 163.24C345.124 163.72 345.084 166.16 345.044 166.52C345.044 166.76 344.804 166.96 343.884 167.24C343.004 167.52 339.804 168.4 339.204 168.64C338.604 168.92 338.004 169.12 337.604 169.64C337.164 170.2 336.844 170.96 336.844 171.68C336.844 173.68 338.204 175.4 339.604 175.4C339.804 175.4 340.764 175.32 341.204 175.16C341.604 175.04 343.324 174.36 344.804 173.32C344.884 173.28 345.044 173.44 345.044 173.48C345.524 174.96 346.684 175.48 347.604 175.48C349.404 175.48 351.204 173.76 351.204 173C351.204 172.96 351.204 172.72 351.084 172.6C351.004 172.48 350.964 172.4 350.844 172.48C350.404 172.8 349.484 173.08 349.324 173.08C349.004 173.08 347.724 172.92 347.724 171.08C347.724 170.64 347.884 165.6 347.884 164.04C347.884 162.36 347.684 161.56 347.084 160.72C346.484 159.84 345.484 158.84 343.484 158.84ZM342.284 173.32C341.444 173.32 339.764 172.68 339.764 170.92C339.764 169.96 340.164 169.68 340.564 169.4C341.644 168.88 343.564 168.2 344.684 168.2C344.844 168.2 345.004 168.4 345.004 168.52C345.004 169.32 345.004 170.68 344.924 171.64C344.924 171.72 344.684 172.48 344.444 172.64C343.684 173.04 342.884 173.32 342.284 173.32ZM353.103 160.92C353.103 161.08 353.503 161.24 354.463 162C354.903 162.28 354.903 162.8 354.903 163.2V170.84C354.863 173.24 354.743 173.64 353.183 174.16C352.863 174.28 352.382 174.44 352.382 174.68C352.382 175 352.783 175.16 353.223 175.16C354.183 175.16 354.663 175 355.863 175C358.183 175 359.583 175.2 360.583 175.2C361.183 175.2 361.543 175.04 361.543 174.84C361.543 174.68 361.463 174.4 360.823 174.2L358.983 173.72C358.263 173.6 358.023 172.84 357.943 171.68C357.903 171.08 357.703 163.84 357.703 163.04C357.703 162.84 357.823 162.48 358.103 162.16C358.503 161.72 359.183 161.6 359.863 161.6C360.663 161.6 361.622 162.08 362.063 162.48C362.183 162.56 362.543 162.64 362.623 162.6C362.863 162.48 363.823 161.4 364.263 160.76C364.383 160.56 364.503 160.28 364.503 160.2C364.503 159.84 364.143 158.84 362.503 158.84C361.263 158.84 359.503 159.84 357.943 161.32C357.863 161.36 357.663 161.32 357.663 161.16C357.663 160.4 357.743 159.68 357.743 158.96C357.743 158.84 357.543 158.48 357.383 158.48C357.263 158.48 357.063 158.64 356.583 158.96C356.183 159.2 354.943 159.8 353.623 160.24C353.183 160.4 353.103 160.8 353.103 160.92ZM372.82 158.84C372.06 158.84 370.26 159.52 369.1 160.36C367.22 161.6 366.1 162.72 366.1 163.88C366.1 164.08 366.34 164.4 366.58 164.4C366.78 164.4 368.78 163.4 369.18 163.08C369.26 163 369.42 162.76 369.42 162.64C369.34 161.84 369.46 161.12 369.7 161C369.98 160.8 370.5 160.56 371.34 160.56C373.3 160.56 374.46 162.24 374.46 163.24C374.46 163.72 374.42 166.16 374.38 166.52C374.38 166.76 374.14 166.96 373.22 167.24C372.34 167.52 369.14 168.4 368.54 168.64C367.94 168.92 367.34 169.12 366.94 169.64C366.5 170.2 366.18 170.96 366.18 171.68C366.18 173.68 367.54 175.4 368.94 175.4C369.14 175.4 370.1 175.32 370.54 175.16C370.94 175.04 372.66 174.36 374.14 173.32C374.22 173.28 374.38 173.44 374.38 173.48C374.86 174.96 376.02 175.48 376.94 175.48C378.74 175.48 380.54 173.76 380.54 173C380.54 172.96 380.54 172.72 380.42 172.6C380.34 172.48 380.3 172.4 380.18 172.48C379.74 172.8 378.82 173.08 378.66 173.08C378.34 173.08 377.06 172.92 377.06 171.08C377.06 170.64 377.22 165.6 377.22 164.04C377.22 162.36 377.02 161.56 376.42 160.72C375.82 159.84 374.82 158.84 372.82 158.84ZM371.62 173.32C370.78 173.32 369.1 172.68 369.1 170.92C369.1 169.96 369.5 169.68 369.9 169.4C370.98 168.88 372.9 168.2 374.02 168.2C374.18 168.2 374.34 168.4 374.34 168.52C374.34 169.32 374.34 170.68 374.26 171.64C374.26 171.72 374.02 172.48 373.78 172.64C373.02 173.04 372.22 173.32 371.62 173.32ZM382.478 161C382.478 161.2 382.758 161.4 383.878 162.44C384.238 162.8 384.158 163.32 384.158 163.52C384.158 166.28 384.118 170.28 384.038 171.44C383.878 173.16 383.638 173.76 382.358 174.08C381.638 174.24 381.398 174.52 381.398 174.68C381.398 174.96 381.798 175.12 382.398 175.12C383.278 175.12 384.078 175 385.398 175C386.918 175 388.398 175.08 388.558 175.08C389.078 175.08 389.638 174.96 389.638 174.68C389.638 174.36 389.318 174.2 388.558 173.96C387.278 173.56 387.118 172.92 387.118 172.16C387.118 169.12 387.118 164.08 387.198 163.04C387.238 162.6 387.358 162.28 387.638 162.04C388.598 161.28 389.518 160.8 390.838 160.8C392.278 160.8 393.318 161.32 393.838 162C394.118 162.36 394.358 162.88 394.358 164.04V171.88C394.358 173.32 394.198 173.72 392.838 174.04C392.198 174.2 392.038 174.48 392.038 174.6C392.038 174.76 392.158 175.08 393.078 175.08C393.918 175.08 395.078 175 395.918 175C396.838 175 398.038 175.08 398.918 175.08C399.558 175.08 399.878 174.88 399.878 174.6C399.878 174.4 399.478 174.16 399.038 174.04C397.678 173.72 397.478 173.32 397.358 172.04C397.278 171.16 397.358 163.6 397.358 163.32C397.358 163.04 397.638 162.28 397.758 162.16C398.318 161.68 399.038 160.92 400.838 160.92C402.518 160.92 403.398 161.56 403.878 162.32C404.278 163.04 404.518 163.6 404.518 165C404.518 166.32 404.598 170.8 404.598 171.76C404.598 173.16 404.438 173.64 403.158 174.04C402.718 174.16 402.278 174.32 402.278 174.56C402.278 174.84 402.518 175.08 403.278 175.08C404.198 175.08 404.798 175 405.998 175C406.998 175 408.078 175.12 408.878 175.12C409.638 175.12 409.998 174.96 409.998 174.68C409.998 174.44 409.758 174.28 409.238 174.12C407.798 173.72 407.558 172.96 407.518 172.24C407.518 168.96 407.598 166.16 407.438 164.08C407.358 162.64 406.998 161.24 406.118 160.24C405.278 159.36 404.158 158.88 402.678 158.88C401.958 158.88 401.038 159.08 400.118 159.52C399.078 160.04 398.038 160.68 397.278 161.24C397.118 161.32 397.038 161.24 396.958 161.08C396.798 160.8 396.398 160.2 395.678 159.68C394.958 159.16 393.998 158.88 392.558 158.88C390.678 158.88 388.198 160.4 387.198 161.2C387.038 161.36 386.958 161.08 386.958 160.96C386.958 160.56 387.118 159.44 387.118 158.88C387.118 158.8 386.838 158.52 386.638 158.48C386.558 158.48 386.478 158.52 386.318 158.64C385.878 158.92 384.078 159.96 383.278 160.28C382.838 160.52 382.478 160.76 382.478 161ZM420.027 158.88C419.347 158.88 418.027 159.12 416.987 159.6C413.867 161.04 412.187 164.24 412.187 167.44C412.187 172.12 415.067 175.4 419.387 175.4C421.667 175.4 423.787 174.44 425.187 172.4C425.307 172.2 425.467 171.76 425.467 171.44C425.467 171.24 425.387 170.96 425.147 170.96C424.987 170.96 424.787 171.2 424.627 171.44C423.947 172.44 422.747 172.88 420.987 172.88C419.067 172.88 417.387 171.88 416.507 170.68C415.627 169.52 414.987 167.68 414.987 166.12C414.987 165.72 415.067 165.04 415.187 164.72C415.227 164.6 415.387 164.4 415.507 164.4C417.347 164.44 424.187 164.44 424.627 164.44C425.067 164.44 425.387 164 425.387 163.76C425.387 162.36 424.867 161.24 423.987 160.4C422.987 159.4 421.427 158.88 420.027 158.88ZM419.627 159.92C421.067 159.92 422.267 161.2 422.267 162.32C422.267 163.12 421.867 163.32 420.907 163.32C418.907 163.36 416.787 163.36 415.747 163.32C415.667 163.32 415.507 163.08 415.587 162.88C416.307 161.04 417.827 159.92 419.627 159.92ZM433.091 159.4C432.931 159.4 432.771 159.2 432.771 159.08V157.2C432.771 157.12 432.411 156.76 432.211 156.76C432.051 156.76 431.771 157.08 431.291 157.64C430.731 158.32 429.491 159.28 428.091 160.4C427.971 160.52 427.851 160.68 427.851 160.84C427.851 160.96 428.091 161.16 428.411 161.28C429.211 161.52 429.931 161.8 429.931 162.08C429.931 163.48 429.771 169.48 429.771 170.96C429.771 172.08 429.851 172.92 430.291 173.6C430.771 174.48 432.171 175.48 433.811 175.48C435.611 175.48 437.011 174.76 438.091 173.72C438.371 173.44 438.651 173.04 438.651 172.72C438.651 172.36 438.451 172.28 438.411 172.28C438.251 172.28 438.171 172.32 437.811 172.52C437.211 172.88 436.371 173.12 435.851 173.12C435.011 173.12 434.171 173.04 433.411 172.36C432.971 171.92 432.731 171.4 432.731 170.4C432.731 168.48 432.771 162.6 432.811 161.8C432.811 161.72 432.971 161.52 433.171 161.52H437.531C437.811 161.52 438.571 161.44 438.571 161.08C438.571 160.56 438.451 159.44 438.451 159.56C438.451 159.44 438.051 159.24 438.011 159.24C437.851 159.24 433.971 159.4 433.091 159.4ZM448.387 158.88C447.707 158.88 446.387 159.12 445.347 159.6C442.227 161.04 440.547 164.24 440.547 167.44C440.547 172.12 443.427 175.4 447.747 175.4C450.027 175.4 452.147 174.44 453.547 172.4C453.667 172.2 453.827 171.76 453.827 171.44C453.827 171.24 453.747 170.96 453.507 170.96C453.347 170.96 453.147 171.2 452.987 171.44C452.307 172.44 451.107 172.88 449.347 172.88C447.427 172.88 445.747 171.88 444.867 170.68C443.987 169.52 443.347 167.68 443.347 166.12C443.347 165.72 443.427 165.04 443.547 164.72C443.587 164.6 443.747 164.4 443.867 164.4C445.707 164.44 452.547 164.44 452.987 164.44C453.427 164.44 453.747 164 453.747 163.76C453.747 162.36 453.227 161.24 452.347 160.4C451.347 159.4 449.787 158.88 448.387 158.88ZM447.987 159.92C449.427 159.92 450.627 161.2 450.627 162.32C450.627 163.12 450.227 163.32 449.267 163.32C447.267 163.36 445.147 163.36 444.107 163.32C444.027 163.32 443.867 163.08 443.947 162.88C444.667 161.04 446.187 159.92 447.987 159.92ZM456.54 160.92C456.54 161.08 456.94 161.24 457.9 162C458.34 162.28 458.34 162.8 458.34 163.2V170.84C458.3 173.24 458.18 173.64 456.62 174.16C456.3 174.28 455.82 174.44 455.82 174.68C455.82 175 456.22 175.16 456.66 175.16C457.62 175.16 458.1 175 459.3 175C461.62 175 463.02 175.2 464.02 175.2C464.62 175.2 464.98 175.04 464.98 174.84C464.98 174.68 464.9 174.4 464.26 174.2L462.42 173.72C461.7 173.6 461.46 172.84 461.38 171.68C461.34 171.08 461.14 163.84 461.14 163.04C461.14 162.84 461.26 162.48 461.54 162.16C461.94 161.72 462.62 161.6 463.3 161.6C464.1 161.6 465.06 162.08 465.5 162.48C465.62 162.56 465.98 162.64 466.06 162.6C466.3 162.48 467.26 161.4 467.7 160.76C467.82 160.56 467.94 160.28 467.94 160.2C467.94 159.84 467.58 158.84 465.94 158.84C464.7 158.84 462.94 159.84 461.38 161.32C461.3 161.36 461.1 161.32 461.1 161.16C461.1 160.4 461.18 159.68 461.18 158.96C461.18 158.84 460.98 158.48 460.82 158.48C460.7 158.48 460.5 158.64 460.02 158.96C459.62 159.2 458.38 159.8 457.06 160.24C456.62 160.4 456.54 160.8 456.54 160.92ZM482.623 159.4C482.463 159.4 482.303 159.2 482.303 159.08V157.2C482.303 157.12 481.942 156.76 481.743 156.76C481.583 156.76 481.303 157.08 480.823 157.64C480.263 158.32 479.023 159.28 477.623 160.4C477.503 160.52 477.382 160.68 477.382 160.84C477.382 160.96 477.623 161.16 477.943 161.28C478.743 161.52 479.463 161.8 479.463 162.08C479.463 163.48 479.303 169.48 479.303 170.96C479.303 172.08 479.383 172.92 479.823 173.6C480.303 174.48 481.703 175.48 483.343 175.48C485.143 175.48 486.543 174.76 487.623 173.72C487.903 173.44 488.183 173.04 488.183 172.72C488.183 172.36 487.983 172.28 487.943 172.28C487.783 172.28 487.703 172.32 487.343 172.52C486.743 172.88 485.903 173.12 485.383 173.12C484.543 173.12 483.703 173.04 482.943 172.36C482.503 171.92 482.263 171.4 482.263 170.4C482.263 168.48 482.303 162.6 482.343 161.8C482.343 161.72 482.503 161.52 482.703 161.52H487.063C487.343 161.52 488.103 161.44 488.103 161.08C488.103 160.56 487.983 159.44 487.983 159.56C487.983 159.44 487.583 159.24 487.543 159.24C487.383 159.24 483.503 159.4 482.623 159.4ZM490.29 160.92C490.29 161.08 490.69 161.24 491.65 162C492.09 162.28 492.09 162.8 492.09 163.2V170.84C492.05 173.24 491.93 173.64 490.37 174.16C490.05 174.28 489.57 174.44 489.57 174.68C489.57 175 489.97 175.16 490.41 175.16C491.37 175.16 491.85 175 493.05 175C495.37 175 496.77 175.2 497.77 175.2C498.37 175.2 498.73 175.04 498.73 174.84C498.73 174.68 498.65 174.4 498.01 174.2L496.17 173.72C495.45 173.6 495.21 172.84 495.13 171.68C495.09 171.08 494.89 163.84 494.89 163.04C494.89 162.84 495.01 162.48 495.29 162.16C495.69 161.72 496.37 161.6 497.05 161.6C497.85 161.6 498.81 162.08 499.25 162.48C499.37 162.56 499.73 162.64 499.81 162.6C500.05 162.48 501.01 161.4 501.45 160.76C501.57 160.56 501.69 160.28 501.69 160.2C501.69 159.84 501.33 158.84 499.69 158.84C498.45 158.84 496.69 159.84 495.13 161.32C495.05 161.36 494.85 161.32 494.85 161.16C494.85 160.4 494.93 159.68 494.93 158.96C494.93 158.84 494.73 158.48 494.57 158.48C494.45 158.48 494.25 158.64 493.77 158.96C493.37 159.2 492.13 159.8 490.81 160.24C490.37 160.4 490.29 160.8 490.29 160.92ZM510.008 158.84C509.248 158.84 507.448 159.52 506.288 160.36C504.408 161.6 503.288 162.72 503.288 163.88C503.288 164.08 503.528 164.4 503.768 164.4C503.968 164.4 505.968 163.4 506.368 163.08C506.448 163 506.608 162.76 506.608 162.64C506.528 161.84 506.648 161.12 506.888 161C507.168 160.8 507.688 160.56 508.528 160.56C510.488 160.56 511.648 162.24 511.648 163.24C511.648 163.72 511.608 166.16 511.568 166.52C511.568 166.76 511.328 166.96 510.408 167.24C509.528 167.52 506.328 168.4 505.728 168.64C505.128 168.92 504.528 169.12 504.128 169.64C503.688 170.2 503.368 170.96 503.368 171.68C503.368 173.68 504.728 175.4 506.128 175.4C506.328 175.4 507.288 175.32 507.728 175.16C508.128 175.04 509.848 174.36 511.328 173.32C511.408 173.28 511.568 173.44 511.568 173.48C512.048 174.96 513.208 175.48 514.128 175.48C515.928 175.48 517.728 173.76 517.728 173C517.728 172.96 517.728 172.72 517.608 172.6C517.528 172.48 517.488 172.4 517.368 172.48C516.928 172.8 516.008 173.08 515.848 173.08C515.528 173.08 514.248 172.92 514.248 171.08C514.248 170.64 514.408 165.6 514.408 164.04C514.408 162.36 514.208 161.56 513.608 160.72C513.008 159.84 512.008 158.84 510.008 158.84ZM508.808 173.32C507.968 173.32 506.288 172.68 506.288 170.92C506.288 169.96 506.688 169.68 507.088 169.4C508.168 168.88 510.088 168.2 511.208 168.2C511.368 168.2 511.528 168.4 511.528 168.52C511.528 169.32 511.528 170.68 511.448 171.64C511.448 171.72 511.208 172.48 510.968 172.64C510.208 173.04 509.408 173.32 508.808 173.32ZM527.986 158.96C526.906 158.96 524.306 159.52 522.746 160.64C520.426 162.2 518.866 164.64 518.866 167.56C518.866 169.24 519.426 171.12 520.106 172.24C521.386 174.12 523.506 175.44 526.026 175.44C528.106 175.44 530.386 174.52 531.786 172.96C532.106 172.64 532.306 172.24 532.306 171.8C532.306 171.6 531.986 171.48 531.546 171.8C530.506 172.52 529.466 173 527.986 173C525.906 173 523.946 172 522.946 170.32C522.786 170.08 521.906 168.64 521.906 166.32C521.906 164.56 522.506 162.92 523.586 161.72C524.226 160.92 525.426 160.36 526.066 160.36C527.426 160.36 528.106 160.96 529.426 161.92C530.066 162.36 530.746 162.68 530.986 162.68C531.146 162.68 532.306 161.72 532.306 161.08C532.306 160.84 532.106 160.16 531.706 159.88C530.946 159.28 529.186 158.96 527.986 158.96ZM539.81 159.4C539.65 159.4 539.49 159.2 539.49 159.08V157.2C539.49 157.12 539.13 156.76 538.93 156.76C538.77 156.76 538.49 157.08 538.01 157.64C537.45 158.32 536.21 159.28 534.81 160.4C534.69 160.52 534.57 160.68 534.57 160.84C534.57 160.96 534.81 161.16 535.13 161.28C535.93 161.52 536.65 161.8 536.65 162.08C536.65 163.48 536.49 169.48 536.49 170.96C536.49 172.08 536.57 172.92 537.01 173.6C537.49 174.48 538.89 175.48 540.53 175.48C542.33 175.48 543.73 174.76 544.81 173.72C545.09 173.44 545.37 173.04 545.37 172.72C545.37 172.36 545.17 172.28 545.13 172.28C544.97 172.28 544.89 172.32 544.53 172.52C543.93 172.88 543.09 173.12 542.57 173.12C541.73 173.12 540.89 173.04 540.13 172.36C539.69 171.92 539.45 171.4 539.45 170.4C539.45 168.48 539.49 162.6 539.53 161.8C539.53 161.72 539.69 161.52 539.89 161.52H544.25C544.53 161.52 545.29 161.44 545.29 161.08C545.29 160.56 545.17 159.44 545.17 159.56C545.17 159.44 544.77 159.24 544.73 159.24C544.57 159.24 540.69 159.4 539.81 159.4ZM554.07 158.84C553.31 158.84 551.51 159.52 550.35 160.36C548.47 161.6 547.35 162.72 547.35 163.88C547.35 164.08 547.59 164.4 547.83 164.4C548.03 164.4 550.03 163.4 550.43 163.08C550.51 163 550.67 162.76 550.67 162.64C550.59 161.84 550.71 161.12 550.95 161C551.23 160.8 551.75 160.56 552.59 160.56C554.55 160.56 555.71 162.24 555.71 163.24C555.71 163.72 555.67 166.16 555.63 166.52C555.63 166.76 555.39 166.96 554.47 167.24C553.59 167.52 550.39 168.4 549.79 168.64C549.19 168.92 548.59 169.12 548.19 169.64C547.75 170.2 547.43 170.96 547.43 171.68C547.43 173.68 548.79 175.4 550.19 175.4C550.39 175.4 551.35 175.32 551.79 175.16C552.19 175.04 553.91 174.36 555.39 173.32C555.47 173.28 555.63 173.44 555.63 173.48C556.11 174.96 557.27 175.48 558.19 175.48C559.99 175.48 561.79 173.76 561.79 173C561.79 172.96 561.79 172.72 561.67 172.6C561.59 172.48 561.55 172.4 561.43 172.48C560.99 172.8 560.07 173.08 559.91 173.08C559.59 173.08 558.31 172.92 558.31 171.08C558.31 170.64 558.47 165.6 558.47 164.04C558.47 162.36 558.27 161.56 557.67 160.72C557.07 159.84 556.07 158.84 554.07 158.84ZM552.87 173.32C552.03 173.32 550.35 172.68 550.35 170.92C550.35 169.96 550.75 169.68 551.15 169.4C552.23 168.88 554.15 168.2 555.27 168.2C555.43 168.2 555.59 168.4 555.59 168.52C555.59 169.32 555.59 170.68 555.51 171.64C555.51 171.72 555.27 172.48 555.03 172.64C554.27 173.04 553.47 173.32 552.87 173.32ZM579.808 166.64C579.808 164.36 578.968 162.12 577.168 160.6C575.888 159.48 574.088 158.84 572.208 158.84C570.888 158.84 568.968 159.32 567.648 160.2C567.608 160.24 567.408 160.12 567.408 160.04C567.328 159.6 567.328 157.64 567.328 156.6C567.328 153.4 567.568 149.6 567.688 146.96C567.688 146.8 567.408 146.44 567.248 146.44C567.168 146.44 566.768 146.6 566.248 146.92C565.448 147.4 564.088 147.76 562.968 148.16C562.848 148.2 562.488 148.68 562.488 148.72C562.488 148.92 562.688 149.04 563.288 149.48C564.048 150.12 564.248 150.64 564.288 150.84C564.368 151.4 564.488 157.32 564.488 161.12C564.488 164.4 564.448 171.28 564.248 174.4C564.248 174.68 564.328 174.92 564.488 174.92C564.568 174.92 564.808 174.88 564.968 174.8C565.288 174.64 565.648 174.6 565.808 174.68C566.728 175 569.488 175.48 570.888 175.48C572.288 175.48 574.688 175.04 576.328 173.68C578.088 172.32 579.808 169.96 579.808 166.64ZM576.488 167.48C576.488 169.28 575.768 171.76 574.648 172.84C573.728 173.68 572.648 174.2 572.208 174.2C571.488 174.2 569.608 173.68 568.488 172.52C567.968 172 567.728 171.36 567.688 170.52C567.488 168.36 567.368 166.2 567.368 164.12C567.368 163.28 567.408 162.16 567.448 161.8C567.488 161.52 567.648 161.28 567.768 161.2C568.088 160.96 568.848 160.6 570.168 160.6C572.048 160.6 573.608 161.4 574.528 162.32C575.888 163.8 576.488 166.04 576.488 167.48ZM586.778 175C587.618 175 589.618 175.12 589.898 175.12C590.338 175.12 590.818 174.96 590.818 174.72C590.818 174.44 590.578 174.24 589.938 174.04C588.938 173.72 588.058 173.64 588.018 172.36C587.978 170.96 587.938 169.28 587.938 167.04C587.938 164.76 588.178 159.56 588.178 159.12C588.178 159.08 587.978 158.68 587.818 158.68C587.218 158.84 585.338 159.72 583.858 160.04C583.418 160.12 583.058 160.44 583.058 160.72C583.058 160.88 583.138 161 583.378 161.16C584.538 162 584.978 162.32 585.018 162.6C585.098 163.08 585.058 167.64 585.058 168.84C585.058 170 585.018 172.4 584.898 172.96C584.818 173.36 584.218 173.84 583.298 174.08C582.618 174.28 582.338 174.48 582.338 174.72C582.338 175 582.738 175.16 583.378 175.16C584.058 175.16 585.458 175 586.778 175ZM586.698 150.72C586.138 150.72 585.538 150.88 585.138 151.24C584.818 151.68 584.658 152.32 584.658 152.68C584.658 153.36 584.938 153.8 585.258 154.16C585.618 154.48 586.258 154.64 586.538 154.64C587.338 154.64 588.458 153.76 588.458 152.68C588.458 151.96 587.778 150.72 586.698 150.72ZM593.015 148.6C593.015 148.76 593.135 148.88 593.815 149.36C594.735 149.92 594.735 150.16 594.775 150.48C594.895 151.56 594.895 155.88 594.895 158.84C594.895 165.16 594.775 169.36 594.655 171C594.495 173 594.415 173.72 592.575 174.12C592.135 174.2 591.695 174.4 591.695 174.68C591.695 175 592.015 175.12 592.815 175.12C593.655 175.12 595.415 175 596.335 175C597.055 175 598.775 175.12 599.735 175.12C600.215 175.12 600.775 174.96 600.775 174.68C600.775 174.44 600.455 174.24 599.855 174.08C598.135 173.6 597.975 173.12 597.815 172.32C597.615 171.24 597.695 163.6 597.695 157.76C597.695 152.4 597.935 147.88 598.055 146.88C598.055 146.72 597.815 146.4 597.695 146.48C596.615 147.16 595.415 147.4 593.575 148.04C593.135 148.16 593.015 148.44 593.015 148.6ZM606.895 175C607.735 175 609.735 175.12 610.015 175.12C610.455 175.12 610.935 174.96 610.935 174.72C610.935 174.44 610.695 174.24 610.055 174.04C609.055 173.72 608.175 173.64 608.135 172.36C608.095 170.96 608.055 169.28 608.055 167.04C608.055 164.76 608.295 159.56 608.295 159.12C608.295 159.08 608.095 158.68 607.935 158.68C607.335 158.84 605.455 159.72 603.975 160.04C603.535 160.12 603.175 160.44 603.175 160.72C603.175 160.88 603.255 161 603.495 161.16C604.655 162 605.095 162.32 605.135 162.6C605.215 163.08 605.175 167.64 605.175 168.84C605.175 170 605.135 172.4 605.015 172.96C604.935 173.36 604.335 173.84 603.415 174.08C602.735 174.28 602.455 174.48 602.455 174.72C602.455 175 602.855 175.16 603.495 175.16C604.175 175.16 605.575 175 606.895 175ZM606.815 150.72C606.255 150.72 605.655 150.88 605.255 151.24C604.935 151.68 604.775 152.32 604.775 152.68C604.775 153.36 605.055 153.8 605.375 154.16C605.735 154.48 606.375 154.64 606.655 154.64C607.455 154.64 608.575 153.76 608.575 152.68C608.575 151.96 607.895 150.72 606.815 150.72ZM618.052 159.4C617.892 159.4 617.732 159.2 617.732 159.08V157.2C617.732 157.12 617.372 156.76 617.172 156.76C617.012 156.76 616.732 157.08 616.252 157.64C615.692 158.32 614.452 159.28 613.052 160.4C612.932 160.52 612.812 160.68 612.812 160.84C612.812 160.96 613.052 161.16 613.372 161.28C614.172 161.52 614.892 161.8 614.892 162.08C614.892 163.48 614.732 169.48 614.732 170.96C614.732 172.08 614.812 172.92 615.252 173.6C615.732 174.48 617.132 175.48 618.772 175.48C620.572 175.48 621.972 174.76 623.052 173.72C623.332 173.44 623.612 173.04 623.612 172.72C623.612 172.36 623.412 172.28 623.372 172.28C623.212 172.28 623.132 172.32 622.772 172.52C622.172 172.88 621.332 173.12 620.812 173.12C619.972 173.12 619.132 173.04 618.372 172.36C617.932 171.92 617.692 171.4 617.692 170.4C617.692 168.48 617.732 162.6 617.772 161.8C617.772 161.72 617.932 161.52 618.132 161.52H622.492C622.772 161.52 623.532 161.44 623.532 161.08C623.532 160.56 623.412 159.44 623.412 159.56C623.412 159.44 623.012 159.24 622.972 159.24C622.812 159.24 618.932 159.4 618.052 159.4ZM624.886 159.72C624.886 159.96 625.126 160.12 625.686 160.32C627.006 160.76 627.206 161.16 627.566 161.88C628.806 164.4 631.286 170.36 632.126 172.72L632.726 174.36C632.886 174.72 632.726 175.24 632.606 175.8C632.326 176.8 631.046 180.32 630.686 180.96C630.526 181.36 630.446 181.64 630.086 181.64C629.686 181.64 628.846 181.6 628.646 181.6C627.526 181.6 626.886 182.68 626.886 183.36C626.886 184.2 627.326 185.32 628.686 185.32C629.846 185.32 630.606 184.72 630.766 184.2C632.046 180.8 633.526 176.68 634.926 173.04C635.846 170.72 638.006 165.36 639.326 162.36C639.926 161.04 640.446 160.56 641.286 160.28C641.766 160.12 642.166 159.96 642.166 159.6C642.166 159.32 641.886 159.24 641.366 159.24C640.326 159.24 639.406 159.4 638.846 159.4C638.326 159.4 637.246 159.36 636.486 159.36C636.006 159.36 635.486 159.44 635.486 159.8C635.486 159.96 635.846 160.24 636.326 160.36C637.886 160.72 638.206 161.2 637.846 162.32C637.646 162.96 635.166 169.44 634.686 170.52C634.566 170.76 634.406 170.76 634.366 170.68C634.046 170.2 631.486 163.92 630.886 162C630.486 160.96 630.606 160.76 631.726 160.44C632.366 160.28 632.646 160.04 632.646 159.76C632.646 159.44 632.086 159.32 631.766 159.32C631.286 159.32 630.086 159.4 628.966 159.4C627.806 159.4 626.846 159.24 625.846 159.24C625.006 159.24 624.886 159.56 624.886 159.72ZM657.937 158.84C657.177 158.84 655.377 159.52 654.217 160.36C652.337 161.6 651.217 162.72 651.217 163.88C651.217 164.08 651.457 164.4 651.697 164.4C651.897 164.4 653.897 163.4 654.297 163.08C654.377 163 654.537 162.76 654.537 162.64C654.457 161.84 654.577 161.12 654.817 161C655.097 160.8 655.617 160.56 656.457 160.56C658.417 160.56 659.577 162.24 659.577 163.24C659.577 163.72 659.537 166.16 659.497 166.52C659.497 166.76 659.257 166.96 658.337 167.24C657.457 167.52 654.257 168.4 653.657 168.64C653.057 168.92 652.457 169.12 652.057 169.64C651.617 170.2 651.297 170.96 651.297 171.68C651.297 173.68 652.657 175.4 654.057 175.4C654.257 175.4 655.217 175.32 655.657 175.16C656.057 175.04 657.777 174.36 659.257 173.32C659.337 173.28 659.497 173.44 659.497 173.48C659.977 174.96 661.137 175.48 662.057 175.48C663.857 175.48 665.657 173.76 665.657 173C665.657 172.96 665.657 172.72 665.537 172.6C665.457 172.48 665.417 172.4 665.297 172.48C664.857 172.8 663.937 173.08 663.777 173.08C663.457 173.08 662.177 172.92 662.177 171.08C662.177 170.64 662.337 165.6 662.337 164.04C662.337 162.36 662.137 161.56 661.537 160.72C660.937 159.84 659.937 158.84 657.937 158.84ZM656.737 173.32C655.897 173.32 654.217 172.68 654.217 170.92C654.217 169.96 654.617 169.68 655.017 169.4C656.097 168.88 658.017 168.2 659.137 168.2C659.297 168.2 659.457 168.4 659.457 168.52C659.457 169.32 659.457 170.68 659.377 171.64C659.377 171.72 659.137 172.48 658.897 172.64C658.137 173.04 657.337 173.32 656.737 173.32ZM667.636 160.76C667.636 160.88 667.876 161.08 668.396 161.44C669.276 162.16 669.356 162.56 669.356 163C669.356 167.08 669.276 170.56 669.156 171.76C669.036 173.2 668.796 173.6 667.476 174C667.036 174.12 666.636 174.32 666.636 174.6C666.636 174.96 667.076 175.12 667.676 175.12C668.356 175.12 669.516 175 670.996 175C671.836 175 672.956 175.04 673.436 175.04C673.996 175.04 674.436 174.84 674.436 174.56C674.436 174.32 674.116 174.08 673.716 173.96C672.436 173.6 672.276 173.28 672.236 172.72C672.196 172.24 672.196 163.64 672.196 163.12C672.196 162.76 672.476 162.28 672.596 162.16C673.356 161.48 674.396 160.88 676.156 160.88C677.076 160.88 678.276 161.32 678.716 161.64C679.196 162 679.916 163.16 679.916 164.6C679.916 165.76 679.876 170.6 679.796 171.92C679.716 173.24 679.516 173.56 678.556 173.92C678.076 174.08 677.636 174.32 677.636 174.6C677.636 174.92 678.196 175.08 678.556 175.08C679.076 175.08 680.316 175 681.316 175C682.436 175 683.356 175.08 684.276 175.08C684.916 175.08 685.476 174.92 685.476 174.64C685.476 174.36 685.236 174.16 684.476 173.96C683.476 173.68 683.076 173.16 682.996 172.56C682.956 172 682.876 166.04 682.876 165.28C682.876 163.28 682.356 161.44 681.476 160.4C680.916 159.76 679.796 158.88 677.836 158.88C676.156 158.88 674.076 160 672.476 161.08C672.436 161.08 672.236 161.16 672.236 160.96C672.236 160.6 672.396 159.64 672.396 158.96C672.396 158.8 672.196 158.36 671.996 158.36C671.796 158.36 671.436 158.56 671.036 158.8C670.476 159.2 669.036 159.72 668.356 159.96C668.076 160.08 667.636 160.48 667.636 160.76ZM697.175 158.84C696.095 158.84 693.735 159.24 691.895 160.36C689.935 161.52 687.655 163.8 687.655 167.72C687.655 169.72 688.295 171.76 689.575 173.2C690.815 174.52 692.655 175.4 694.575 175.4C695.895 175.4 697.935 175.04 699.775 173.4C699.855 173.4 700.015 173.48 700.015 173.64C700.015 174.2 699.935 174.92 699.935 175.28C699.935 175.48 700.215 175.8 700.375 175.8C700.575 175.8 700.895 175.72 701.815 175.4C702.575 175.12 704.655 174.72 705.415 174.6C705.615 174.56 706.095 173.88 706.095 173.6C706.095 173.56 706.015 173.36 705.855 173.36C705.455 173.4 704.135 173.68 703.695 173.68C703.455 173.68 703.135 173.52 703.055 172.04C703.055 171.28 702.975 170.64 702.975 162.92C702.975 150.68 703.135 149.24 703.335 147.12C703.375 146.76 703.135 146.48 703.015 146.48C702.855 146.48 702.735 146.52 702.495 146.6C701.455 147 699.335 147.6 698.415 147.72C698.175 147.76 697.735 148.24 697.735 148.4C697.735 148.48 697.775 148.56 698.135 148.76C699.975 149.72 699.975 150.2 700.015 150.4C700.135 151.36 700.255 157.48 700.055 158.56C700.015 158.76 699.895 159.04 699.735 159C699.255 158.92 698.615 158.84 697.175 158.84ZM695.695 160.16C696.495 160.16 698.015 160.6 699.135 161.72C699.615 162.2 699.975 162.92 700.015 163.24C700.135 165.12 700.175 167.32 700.135 169.88C700.095 171.16 699.575 172.44 699.495 172.52C698.775 173.04 697.855 173.48 696.575 173.48C693.135 173.48 690.895 169.8 690.895 166.6C690.895 164.36 691.815 162.32 692.575 161.56C693.295 160.84 694.415 160.16 695.695 160.16ZM722.625 158.84C721.865 158.84 720.065 159.52 718.905 160.36C717.025 161.6 715.905 162.72 715.905 163.88C715.905 164.08 716.145 164.4 716.385 164.4C716.585 164.4 718.585 163.4 718.985 163.08C719.065 163 719.225 162.76 719.225 162.64C719.145 161.84 719.265 161.12 719.505 161C719.785 160.8 720.305 160.56 721.145 160.56C723.105 160.56 724.265 162.24 724.265 163.24C724.265 163.72 724.225 166.16 724.185 166.52C724.185 166.76 723.945 166.96 723.025 167.24C722.145 167.52 718.945 168.4 718.345 168.64C717.745 168.92 717.145 169.12 716.745 169.64C716.305 170.2 715.985 170.96 715.985 171.68C715.985 173.68 717.345 175.4 718.745 175.4C718.945 175.4 719.905 175.32 720.345 175.16C720.745 175.04 722.465 174.36 723.945 173.32C724.025 173.28 724.185 173.44 724.185 173.48C724.665 174.96 725.825 175.48 726.745 175.48C728.545 175.48 730.345 173.76 730.345 173C730.345 172.96 730.345 172.72 730.225 172.6C730.145 172.48 730.105 172.4 729.985 172.48C729.545 172.8 728.625 173.08 728.465 173.08C728.145 173.08 726.865 172.92 726.865 171.08C726.865 170.64 727.025 165.6 727.025 164.04C727.025 162.36 726.825 161.56 726.225 160.72C725.625 159.84 724.625 158.84 722.625 158.84ZM721.425 173.32C720.585 173.32 718.905 172.68 718.905 170.92C718.905 169.96 719.305 169.68 719.705 169.4C720.785 168.88 722.705 168.2 723.825 168.2C723.985 168.2 724.145 168.4 724.145 168.52C724.145 169.32 724.145 170.68 724.065 171.64C724.065 171.72 723.825 172.48 723.585 172.64C722.825 173.04 722.025 173.32 721.425 173.32ZM742.092 158.92C740.972 158.92 739.772 159.12 739.132 159.4C738.572 159.64 737.492 160.2 736.532 160.84C736.372 160.96 736.212 160.8 736.212 160.64C736.252 160 736.252 159.24 736.332 158.6C736.332 158.44 736.012 158.12 735.892 158.12C735.812 158.12 735.492 158.28 735.092 158.48C734.412 158.88 732.652 159.72 732.052 159.88C731.892 159.92 731.492 160.4 731.492 160.6C731.492 160.8 731.972 161.16 732.972 161.88C733.092 161.96 733.292 162.24 733.292 163.92C733.332 166.28 733.292 169.28 733.292 172C733.292 176.08 733.252 179.36 733.172 180.68C733.012 183.56 732.812 183.92 730.692 184.36C730.052 184.48 729.772 184.8 729.772 184.96C729.772 185.32 730.372 185.48 730.972 185.48C732.172 185.48 732.572 185.36 733.532 185.36C735.092 185.36 737.412 185.56 738.292 185.56C738.812 185.56 739.332 185.36 739.332 185.04C739.332 184.76 739.012 184.56 738.212 184.32C736.692 183.84 736.412 183.36 736.292 182.32C736.172 181.2 736.132 179.56 736.132 175.68C736.132 175.48 736.292 175.16 736.412 175.16C736.932 175.24 737.732 175.32 738.652 175.32C740.452 175.32 742.812 175 745.012 173.28C747.572 171.36 748.412 168.4 748.412 166.4C748.412 164.2 747.492 162.24 746.532 161.16C745.332 159.84 743.532 158.92 742.092 158.92ZM740.012 160.96C740.932 160.96 742.572 161.52 743.612 162.6C745.252 164.4 745.252 166.56 745.252 167.48C745.252 168.68 744.532 171.68 742.532 173.36C741.972 173.84 741.132 174.04 740.692 174.04C739.692 174.04 737.772 173.36 736.692 171.84C736.412 171.48 736.252 170.8 736.172 170.08C736.012 168.44 736.052 164.08 736.252 162.88C736.372 162.16 736.572 161.84 736.772 161.68C737.212 161.32 738.332 160.96 740.012 160.96ZM761.779 158.92C760.659 158.92 759.459 159.12 758.819 159.4C758.259 159.64 757.179 160.2 756.219 160.84C756.059 160.96 755.899 160.8 755.899 160.64C755.939 160 755.939 159.24 756.019 158.6C756.019 158.44 755.699 158.12 755.579 158.12C755.499 158.12 755.179 158.28 754.779 158.48C754.099 158.88 752.339 159.72 751.739 159.88C751.579 159.92 751.179 160.4 751.179 160.6C751.179 160.8 751.659 161.16 752.659 161.88C752.779 161.96 752.979 162.24 752.979 163.92C753.019 166.28 752.979 169.28 752.979 172C752.979 176.08 752.939 179.36 752.859 180.68C752.699 183.56 752.499 183.92 750.379 184.36C749.739 184.48 749.459 184.8 749.459 184.96C749.459 185.32 750.059 185.48 750.659 185.48C751.859 185.48 752.259 185.36 753.219 185.36C754.779 185.36 757.099 185.56 757.979 185.56C758.499 185.56 759.019 185.36 759.019 185.04C759.019 184.76 758.699 184.56 757.899 184.32C756.379 183.84 756.099 183.36 755.979 182.32C755.859 181.2 755.819 179.56 755.819 175.68C755.819 175.48 755.979 175.16 756.099 175.16C756.619 175.24 757.419 175.32 758.339 175.32C760.139 175.32 762.499 175 764.699 173.28C767.259 171.36 768.099 168.4 768.099 166.4C768.099 164.2 767.179 162.24 766.219 161.16C765.019 159.84 763.219 158.92 761.779 158.92ZM759.699 160.96C760.619 160.96 762.259 161.52 763.299 162.6C764.939 164.4 764.939 166.56 764.939 167.48C764.939 168.68 764.219 171.68 762.219 173.36C761.659 173.84 760.819 174.04 760.379 174.04C759.379 174.04 757.459 173.36 756.379 171.84C756.099 171.48 755.939 170.8 755.859 170.08C755.699 168.44 755.739 164.08 755.939 162.88C756.059 162.16 756.259 161.84 756.459 161.68C756.899 161.32 758.019 160.96 759.699 160.96ZM771.267 160.92C771.267 161.08 771.667 161.24 772.627 162C773.067 162.28 773.067 162.8 773.067 163.2V170.84C773.027 173.24 772.907 173.64 771.347 174.16C771.027 174.28 770.547 174.44 770.547 174.68C770.547 175 770.947 175.16 771.387 175.16C772.347 175.16 772.827 175 774.027 175C776.347 175 777.747 175.2 778.747 175.2C779.347 175.2 779.707 175.04 779.707 174.84C779.707 174.68 779.627 174.4 778.987 174.2L777.147 173.72C776.427 173.6 776.187 172.84 776.107 171.68C776.067 171.08 775.867 163.84 775.867 163.04C775.867 162.84 775.987 162.48 776.267 162.16C776.667 161.72 777.347 161.6 778.027 161.6C778.827 161.6 779.787 162.08 780.227 162.48C780.347 162.56 780.707 162.64 780.787 162.6C781.027 162.48 781.987 161.4 782.427 160.76C782.547 160.56 782.667 160.28 782.667 160.2C782.667 159.84 782.307 158.84 780.667 158.84C779.427 158.84 777.667 159.84 776.107 161.32C776.027 161.36 775.827 161.32 775.827 161.16C775.827 160.4 775.907 159.68 775.907 158.96C775.907 158.84 775.707 158.48 775.547 158.48C775.427 158.48 775.227 158.64 774.747 158.96C774.347 159.2 773.107 159.8 771.787 160.24C771.347 160.4 771.267 160.8 771.267 160.92ZM792.508 158.84C789.828 158.84 787.828 159.96 786.588 161.04C785.068 162.32 783.788 164.24 783.788 167.28C783.788 169.28 785.028 172 786.748 173.4C788.228 174.64 790.228 175.48 792.068 175.48C793.868 175.48 795.428 175.04 797.028 173.88C798.508 172.92 800.508 170.32 800.508 167C800.508 161.96 796.468 158.84 792.508 158.84ZM791.748 160.04C792.788 160.04 794.228 160.64 795.108 161.6C796.628 163.36 797.108 165.64 797.108 167.72C797.108 169.44 796.308 171.92 795.308 173C794.188 174.12 793.308 174.32 792.868 174.32C790.948 174.32 788.668 172.88 787.668 169.88C787.348 168.88 787.188 167.64 787.188 166.32C787.188 164.24 788.108 162.16 789.148 161.2C789.988 160.48 790.908 160.04 791.748 160.04ZM801.78 159.52C801.78 159.8 802.06 160.04 802.82 160.24C803.82 160.56 804.62 161.16 805.62 162.64C806.78 164.4 808.22 167.04 808.38 167.4C808.46 167.56 808.46 167.68 808.38 167.8C807.18 169.36 805.86 171.32 805.06 172.24C804.26 173.16 803.46 173.68 802.06 174.08C801.58 174.2 801.06 174.44 801.06 174.72C801.06 175.04 801.7 175.16 802.22 175.16C802.98 175.16 804.14 175 805.46 175C806.1 175 806.34 175.08 807.18 175.08C807.46 175.08 808.02 175 808.02 174.68C808.02 174.44 807.7 174.16 807.46 174.08C806.66 173.76 806.42 173.44 806.42 172.96C806.46 172.4 808.3 169.64 808.94 169C809.06 168.88 809.14 168.92 809.22 169C809.5 169.24 810.78 171.68 811.18 172.44C811.94 173.64 811.46 173.8 810.78 174.04C810.22 174.2 810.02 174.4 810.02 174.56C810.02 174.84 810.3 175.08 810.86 175.08C811.66 175.08 812.1 175 812.9 175C814.42 175 815.86 175.2 817.22 175.2C817.86 175.2 818.18 175 818.18 174.72C818.18 174.52 817.94 174.28 817.26 174.12C816.42 173.92 815.42 173.64 814.22 171.92C812.98 170.16 811.3 167.12 810.9 166.24C810.86 166.12 810.86 165.96 810.94 165.8C812.02 164.28 812.74 163.36 813.74 162.12C814.62 161.04 815.62 160.64 817.22 160.2C817.42 160.12 817.98 159.96 817.98 159.64C817.98 159.32 817.58 159.2 817.14 159.2C816.5 159.2 814.62 159.4 813.66 159.4C812.94 159.4 812.34 159.32 811.94 159.32C811.5 159.32 811.14 159.48 811.14 159.76C811.14 160.04 811.34 160.16 812.22 160.52C812.7 160.72 812.9 160.92 812.5 161.56C812.1 162.32 811.02 164 810.38 164.84C810.3 164.92 810.14 164.96 810.1 164.88C809.54 164.08 807.98 161.44 807.98 161.2C807.98 161 807.9 160.64 808.78 160.36C809.22 160.24 809.54 159.96 809.54 159.68C809.54 159.44 809.14 159.32 808.66 159.32C807.98 159.32 807.14 159.4 806.3 159.4C805.34 159.4 803.3 159.16 802.82 159.16C802.26 159.16 801.78 159.28 801.78 159.52ZM823.731 175C824.571 175 826.571 175.12 826.851 175.12C827.291 175.12 827.771 174.96 827.771 174.72C827.771 174.44 827.531 174.24 826.891 174.04C825.891 173.72 825.011 173.64 824.971 172.36C824.931 170.96 824.891 169.28 824.891 167.04C824.891 164.76 825.131 159.56 825.131 159.12C825.131 159.08 824.931 158.68 824.771 158.68C824.171 158.84 822.291 159.72 820.811 160.04C820.371 160.12 820.011 160.44 820.011 160.72C820.011 160.88 820.091 161 820.331 161.16C821.491 162 821.931 162.32 821.971 162.6C822.051 163.08 822.011 167.64 822.011 168.84C822.011 170 821.971 172.4 821.851 172.96C821.771 173.36 821.171 173.84 820.251 174.08C819.571 174.28 819.291 174.48 819.291 174.72C819.291 175 819.691 175.16 820.331 175.16C821.011 175.16 822.411 175 823.731 175ZM823.651 150.72C823.091 150.72 822.491 150.88 822.091 151.24C821.771 151.68 821.611 152.32 821.611 152.68C821.611 153.36 821.891 153.8 822.211 154.16C822.571 154.48 823.211 154.64 823.491 154.64C824.291 154.64 825.411 153.76 825.411 152.68C825.411 151.96 824.731 150.72 823.651 150.72ZM830.174 161C830.174 161.2 830.454 161.4 831.574 162.44C831.934 162.8 831.854 163.32 831.854 163.52C831.854 166.28 831.814 170.28 831.734 171.44C831.574 173.16 831.334 173.76 830.054 174.08C829.334 174.24 829.094 174.52 829.094 174.68C829.094 174.96 829.494 175.12 830.094 175.12C830.974 175.12 831.774 175 833.094 175C834.614 175 836.094 175.08 836.254 175.08C836.774 175.08 837.334 174.96 837.334 174.68C837.334 174.36 837.014 174.2 836.254 173.96C834.974 173.56 834.814 172.92 834.814 172.16C834.814 169.12 834.814 164.08 834.894 163.04C834.934 162.6 835.054 162.28 835.334 162.04C836.294 161.28 837.214 160.8 838.534 160.8C839.974 160.8 841.014 161.32 841.534 162C841.814 162.36 842.054 162.88 842.054 164.04V171.88C842.054 173.32 841.894 173.72 840.534 174.04C839.894 174.2 839.734 174.48 839.734 174.6C839.734 174.76 839.854 175.08 840.774 175.08C841.614 175.08 842.774 175 843.614 175C844.534 175 845.734 175.08 846.614 175.08C847.254 175.08 847.574 174.88 847.574 174.6C847.574 174.4 847.174 174.16 846.734 174.04C845.374 173.72 845.174 173.32 845.054 172.04C844.974 171.16 845.054 163.6 845.054 163.32C845.054 163.04 845.334 162.28 845.454 162.16C846.014 161.68 846.734 160.92 848.534 160.92C850.214 160.92 851.094 161.56 851.574 162.32C851.974 163.04 852.214 163.6 852.214 165C852.214 166.32 852.294 170.8 852.294 171.76C852.294 173.16 852.134 173.64 850.854 174.04C850.414 174.16 849.974 174.32 849.974 174.56C849.974 174.84 850.214 175.08 850.974 175.08C851.894 175.08 852.494 175 853.694 175C854.694 175 855.774 175.12 856.574 175.12C857.334 175.12 857.694 174.96 857.694 174.68C857.694 174.44 857.454 174.28 856.934 174.12C855.494 173.72 855.254 172.96 855.214 172.24C855.214 168.96 855.294 166.16 855.134 164.08C855.054 162.64 854.694 161.24 853.814 160.24C852.974 159.36 851.854 158.88 850.374 158.88C849.654 158.88 848.734 159.08 847.814 159.52C846.774 160.04 845.734 160.68 844.974 161.24C844.814 161.32 844.734 161.24 844.654 161.08C844.494 160.8 844.094 160.2 843.374 159.68C842.654 159.16 841.694 158.88 840.254 158.88C838.374 158.88 835.894 160.4 834.894 161.2C834.734 161.36 834.654 161.08 834.654 160.96C834.654 160.56 834.814 159.44 834.814 158.88C834.814 158.8 834.534 158.52 834.334 158.48C834.254 158.48 834.174 158.52 834.014 158.64C833.574 158.92 831.774 159.96 830.974 160.28C830.534 160.52 830.174 160.76 830.174 161ZM866.414 158.84C865.654 158.84 863.854 159.52 862.694 160.36C860.814 161.6 859.694 162.72 859.694 163.88C859.694 164.08 859.934 164.4 860.174 164.4C860.374 164.4 862.374 163.4 862.774 163.08C862.854 163 863.014 162.76 863.014 162.64C862.934 161.84 863.054 161.12 863.294 161C863.574 160.8 864.094 160.56 864.934 160.56C866.894 160.56 868.054 162.24 868.054 163.24C868.054 163.72 868.014 166.16 867.974 166.52C867.974 166.76 867.734 166.96 866.814 167.24C865.934 167.52 862.734 168.4 862.134 168.64C861.534 168.92 860.934 169.12 860.534 169.64C860.094 170.2 859.774 170.96 859.774 171.68C859.774 173.68 861.134 175.4 862.534 175.4C862.734 175.4 863.694 175.32 864.134 175.16C864.534 175.04 866.254 174.36 867.734 173.32C867.814 173.28 867.974 173.44 867.974 173.48C868.454 174.96 869.614 175.48 870.534 175.48C872.334 175.48 874.134 173.76 874.134 173C874.134 172.96 874.134 172.72 874.014 172.6C873.934 172.48 873.894 172.4 873.774 172.48C873.334 172.8 872.414 173.08 872.254 173.08C871.934 173.08 870.654 172.92 870.654 171.08C870.654 170.64 870.814 165.6 870.814 164.04C870.814 162.36 870.614 161.56 870.014 160.72C869.414 159.84 868.414 158.84 866.414 158.84ZM865.214 173.32C864.374 173.32 862.694 172.68 862.694 170.92C862.694 169.96 863.094 169.68 863.494 169.4C864.574 168.88 866.494 168.2 867.614 168.2C867.774 168.2 867.934 168.4 867.934 168.52C867.934 169.32 867.934 170.68 867.854 171.64C867.854 171.72 867.614 172.48 867.374 172.64C866.614 173.04 865.814 173.32 865.214 173.32ZM880.201 159.4C880.041 159.4 879.881 159.2 879.881 159.08V157.2C879.881 157.12 879.521 156.76 879.321 156.76C879.161 156.76 878.881 157.08 878.401 157.64C877.841 158.32 876.601 159.28 875.201 160.4C875.081 160.52 874.961 160.68 874.961 160.84C874.961 160.96 875.201 161.16 875.521 161.28C876.321 161.52 877.041 161.8 877.041 162.08C877.041 163.48 876.881 169.48 876.881 170.96C876.881 172.08 876.961 172.92 877.401 173.6C877.881 174.48 879.281 175.48 880.921 175.48C882.721 175.48 884.121 174.76 885.201 173.72C885.481 173.44 885.761 173.04 885.761 172.72C885.761 172.36 885.561 172.28 885.521 172.28C885.361 172.28 885.281 172.32 884.921 172.52C884.321 172.88 883.481 173.12 882.961 173.12C882.121 173.12 881.281 173.04 880.521 172.36C880.081 171.92 879.841 171.4 879.841 170.4C879.841 168.48 879.881 162.6 879.921 161.8C879.921 161.72 880.081 161.52 880.281 161.52H884.641C884.921 161.52 885.681 161.44 885.681 161.08C885.681 160.56 885.561 159.44 885.561 159.56C885.561 159.44 885.161 159.24 885.121 159.24C884.961 159.24 881.081 159.4 880.201 159.4ZM891.583 175C892.423 175 894.423 175.12 894.703 175.12C895.143 175.12 895.623 174.96 895.623 174.72C895.623 174.44 895.383 174.24 894.743 174.04C893.743 173.72 892.863 173.64 892.823 172.36C892.783 170.96 892.743 169.28 892.743 167.04C892.743 164.76 892.983 159.56 892.983 159.12C892.983 159.08 892.783 158.68 892.623 158.68C892.023 158.84 890.143 159.72 888.663 160.04C888.223 160.12 887.863 160.44 887.863 160.72C887.863 160.88 887.943 161 888.183 161.16C889.343 162 889.783 162.32 889.823 162.6C889.903 163.08 889.863 167.64 889.863 168.84C889.863 170 889.823 172.4 889.703 172.96C889.623 173.36 889.023 173.84 888.103 174.08C887.423 174.28 887.143 174.48 887.143 174.72C887.143 175 887.543 175.16 888.183 175.16C888.863 175.16 890.263 175 891.583 175ZM891.503 150.72C890.943 150.72 890.343 150.88 889.943 151.24C889.623 151.68 889.463 152.32 889.463 152.68C889.463 153.36 889.743 153.8 890.063 154.16C890.423 154.48 891.062 154.64 891.342 154.64C892.143 154.64 893.263 153.76 893.263 152.68C893.263 151.96 892.583 150.72 891.503 150.72ZM906.18 158.84C903.5 158.84 901.5 159.96 900.26 161.04C898.74 162.32 897.46 164.24 897.46 167.28C897.46 169.28 898.7 172 900.42 173.4C901.9 174.64 903.9 175.48 905.74 175.48C907.54 175.48 909.1 175.04 910.7 173.88C912.18 172.92 914.18 170.32 914.18 167C914.18 161.96 910.14 158.84 906.18 158.84ZM905.42 160.04C906.46 160.04 907.9 160.64 908.78 161.6C910.3 163.36 910.78 165.64 910.78 167.72C910.78 169.44 909.98 171.92 908.98 173C907.86 174.12 906.98 174.32 906.54 174.32C904.62 174.32 902.34 172.88 901.34 169.88C901.02 168.88 900.86 167.64 900.86 166.32C900.86 164.24 901.78 162.16 902.82 161.2C903.66 160.48 904.58 160.04 905.42 160.04ZM917.44 160.76C917.44 160.88 917.68 161.08 918.2 161.44C919.08 162.16 919.16 162.56 919.16 163C919.16 167.08 919.08 170.56 918.96 171.76C918.84 173.2 918.6 173.6 917.28 174C916.84 174.12 916.44 174.32 916.44 174.6C916.44 174.96 916.88 175.12 917.48 175.12C918.16 175.12 919.32 175 920.8 175C921.64 175 922.76 175.04 923.24 175.04C923.8 175.04 924.24 174.84 924.24 174.56C924.24 174.32 923.92 174.08 923.52 173.96C922.24 173.6 922.08 173.28 922.04 172.72C922 172.24 922 163.64 922 163.12C922 162.76 922.28 162.28 922.4 162.16C923.16 161.48 924.2 160.88 925.96 160.88C926.88 160.88 928.08 161.32 928.52 161.64C929 162 929.72 163.16 929.72 164.6C929.72 165.76 929.68 170.6 929.6 171.92C929.52 173.24 929.32 173.56 928.36 173.92C927.88 174.08 927.44 174.32 927.44 174.6C927.44 174.92 928 175.08 928.36 175.08C928.88 175.08 930.12 175 931.12 175C932.24 175 933.16 175.08 934.08 175.08C934.72 175.08 935.28 174.92 935.28 174.64C935.28 174.36 935.04 174.16 934.28 173.96C933.28 173.68 932.88 173.16 932.8 172.56C932.76 172 932.68 166.04 932.68 165.28C932.68 163.28 932.16 161.44 931.28 160.4C930.72 159.76 929.6 158.88 927.64 158.88C925.96 158.88 923.88 160 922.28 161.08C922.24 161.08 922.04 161.16 922.04 160.96C922.04 160.6 922.2 159.64 922.2 158.96C922.2 158.8 922 158.36 921.8 158.36C921.6 158.36 921.24 158.56 920.84 158.8C920.28 159.2 918.84 159.72 918.16 159.96C917.88 160.08 917.44 160.48 917.44 160.76Z" fill="black"/>
<rect id="1:6" opacity="0.5" x="180" y="216" width="469" height="352" fill="#FF0000"/>
</g>
</svg>
