<svg width="1280" height="960" viewBox="0 0 1280 960" fill="none" xmlns="http://www.w3.org/2000/svg">
<g id="A tree decomposition">
<rect width="1280" height="960" fill="white"/>
<g id="140:300">
<rect id="Rectangle 10" width="116.088" height="104.655" rx="20" transform="matrix(1 0 0 -1 54 283.655)" fill="#F2F2F2"/>
<g id="Group 37">
<line id="Line 60" y1="-0.5" x2="45.8692" y2="-0.5" transform="matrix(-4.37115e-08 -1 -1 4.37115e-08 134.896 254.059)" stroke="black"/>
<line id="Line 59" y1="-0.5" x2="55.043" y2="-0.5" transform="matrix(1 0 0 -1 80.6875 208.189)" stroke="black"/>
<circle id="Ellipse 18" r="6.25489" transform="matrix(1 0 0 -1 81.9385 208.606)" fill="#EB5757"/>
<circle id="Ellipse 23" r="6.25489" transform="matrix(1 0 0 -1 135.313 208.606)" fill="#EB5757"/>
<circle id="Ellipse 24" r="6.25489" transform="matrix(1 0 0 -1 135.313 253.642)" fill="#EB5757"/>
</g>
</g>
<g id="140:308">
<rect id="Rectangle 12" width="116.088" height="104.655" rx="20" transform="matrix(1 0 0 -1 209.664 428.766)" fill="#F2F2F2"/>
<line id="Line 95" y1="-0.5" x2="45.7318" y2="-0.5" transform="matrix(-4.37115e-08 -1 -1 4.37115e-08 240.445 398.864)" stroke="black"/>
<circle id="Ellipse 65" r="6.1562" transform="matrix(1 0 0 -1 241.324 354.012)" fill="#EB5757"/>
<ellipse id="Ellipse 70" rx="6.59593" ry="6.1562" transform="matrix(1 0 0 -1 294.531 398.864)" fill="#EB5757"/>
<circle id="Ellipse 76" r="6.1562" transform="matrix(1 0 0 -1 241.324 398.864)" fill="#EB5757"/>
</g>
<g id="140:314">
<rect id="Rectangle 13" width="116.088" height="103.776" rx="20" transform="matrix(-1 -8.74228e-08 -8.74228e-08 1 639.718 392.708)" fill="#F2F2F2"/>
<line id="Line 96" y1="-0.5" x2="45.7318" y2="-0.5" transform="matrix(-4.37113e-08 1 1 4.37113e-08 608.937 421.73)" stroke="black"/>
<ellipse id="Ellipse 66" rx="6.1562" ry="6.1562" transform="matrix(-1 -8.74228e-08 -8.74228e-08 1 608.058 467.462)" fill="#EB5757"/>
<ellipse id="Ellipse 71" rx="6.59593" ry="6.59593" transform="matrix(-1 -8.74228e-08 -8.74228e-08 1 554.85 422.17)" fill="#EB5757"/>
<ellipse id="Ellipse 77" rx="6.1562" ry="6.59593" transform="matrix(-1 -8.74228e-08 -8.74228e-08 1 608.058 422.17)" fill="#EB5757"/>
</g>
<g id="140:320">
<g id="Group 42">
<rect id="Rectangle 14" width="115.209" height="103.776" rx="20" transform="matrix(1 0 0 -1 367.087 353.133)" fill="#F2F2F2"/>
<line id="Line 99" y1="-0.5" x2="45.7318" y2="-0.5" transform="matrix(-4.37115e-08 -1 -1 4.37115e-08 398.747 323.23)" stroke="black"/>
<circle id="Ellipse 69" r="6.1562" transform="matrix(1 0 0 -1 398.747 277.499)" fill="#EB5757"/>
<ellipse id="Ellipse 80" rx="6.1562" ry="6.59593" transform="matrix(1 0 0 -1 398.747 322.791)" fill="#EB5757"/>
<line id="Line 107" y1="-0.5" x2="54.5263" y2="-0.5" transform="matrix(1 0 0 -1 397.867 277.499)" stroke="black"/>
<circle id="Ellipse 84" r="6.1562" transform="matrix(1 0 0 -1 398.747 277.499)" fill="#EB5757"/>
<line id="Line 114" y1="-5" x2="63.1024" y2="-5" transform="matrix(0.872281 -0.489006 -0.489006 -0.872281 318.373 362.477)" stroke="#F2F2F2" stroke-width="10"/>
<line id="Line 116" y1="-5" x2="68.0043" y2="-5" transform="matrix(-0.833932 -0.551867 -0.551867 0.833932 375.084 290.754)" stroke="#F2F2F2" stroke-width="10"/>
</g>
<ellipse id="Ellipse 72" rx="6.1562" ry="6.59593" transform="matrix(1 0 0 -1 452.394 322.791)" fill="#EB5757"/>
<line id="Line 103" y1="-0.5" x2="45.7318" y2="-0.5" transform="matrix(-4.37115e-08 -1 -1 4.37115e-08 451.515 323.23)" stroke="black"/>
<circle id="Ellipse 85" r="6.1562" transform="matrix(1 0 0 -1 452.394 277.499)" fill="#333333"/>
<ellipse id="Ellipse 89" rx="6.1562" ry="6.59593" transform="matrix(1 0 0 -1 452.394 322.791)" fill="#EB5757"/>
</g>
<g id="140:334">
<rect id="Rectangle 11" width="116.088" height="104.655" rx="20" transform="matrix(1 0 0 -1 209.664 283.655)" fill="#F2F2F2"/>
<g id="Group 38">
<line id="Line 60_2" y1="-0.5" x2="45.8692" y2="-0.5" transform="matrix(-4.37115e-08 -1 -1 4.37115e-08 290.853 254.059)" stroke="black"/>
<line id="Line 59_2" y1="-0.5" x2="55.043" y2="-0.5" transform="matrix(1 0 0 -1 236.644 208.189)" stroke="black"/>
<circle id="Ellipse 18_2" r="6.25489" transform="matrix(1 0 0 -1 237.895 208.606)" fill="#EB5757"/>
<circle id="Ellipse 23_2" r="6.25489" transform="matrix(1 0 0 -1 291.27 208.606)" fill="#333333"/>
<circle id="Ellipse 24_2" r="6.25489" transform="matrix(1 0 0 -1 291.27 253.642)" fill="#EB5757"/>
</g>
<line id="Line 111" y1="-5" x2="40.455" y2="-5" transform="matrix(1 0 0 -1 169.209 228.25)" stroke="#F2F2F2" stroke-width="10"/>
</g>
<g id="140:343">
<rect id="Rectangle 15" width="116.088" height="103.776" rx="20" transform="matrix(1 0 0 -1 523.629 353.133)" fill="#F2F2F2"/>
<line id="Line 100" y1="-0.5" x2="45.7318" y2="-0.5" transform="matrix(-4.37115e-08 -1 -1 4.37115e-08 555.29 324.989)" stroke="black"/>
<ellipse id="Ellipse 73" rx="6.1562" ry="6.59593" transform="matrix(1 0 0 -1 608.936 324.55)" fill="#EB5757"/>
<circle id="Ellipse 81" r="6.59593" transform="matrix(1 0 0 -1 555.73 324.55)" fill="#EB5757"/>
<line id="Line 104" y1="-0.5" x2="45.7318" y2="-0.5" transform="matrix(-4.37115e-08 -1 -1 4.37115e-08 608.937 324.989)" stroke="black"/>
<line id="Line 108" y1="-0.5" x2="55.4058" y2="-0.5" transform="matrix(1 0 0 -1 554.41 279.258)" stroke="black"/>
<circle id="Ellipse 86" r="6.1562" transform="matrix(1 0 0 -1 608.936 279.258)" fill="#333333"/>
<ellipse id="Ellipse 90" rx="6.1562" ry="6.59593" transform="matrix(1 0 0 -1 608.936 324.55)" fill="#EB5757"/>
<ellipse id="Ellipse 93" rx="6.59593" ry="6.1562" transform="matrix(1 0 0 -1 555.73 279.258)" fill="#333333"/>
<line id="Line 112" y1="-5" x2="41.3345" y2="-5" transform="matrix(1 0 0 -1 482.295 301.244)" stroke="#F2F2F2" stroke-width="10"/>
</g>
<g id="140:354">
<rect id="Rectangle 17" width="115.209" height="146.869" rx="20" transform="matrix(1 0 0 -1 836.717 428.766)" fill="#F2F2F2"/>
<line id="Line 98" y1="-0.5" x2="45.7318" y2="-0.5" transform="matrix(-4.37113e-08 1 1 4.37113e-08 921.144 356.65)" stroke="black"/>
<line id="Line 102" y1="-0.5" x2="45.7318" y2="-0.5" transform="matrix(-4.37115e-08 -1 -1 4.37115e-08 868.377 357.529)" stroke="black"/>
<ellipse id="Ellipse 68" rx="6.1562" ry="6.1562" transform="matrix(-1 -8.74228e-08 -8.74228e-08 1 921.144 402.382)" fill="#EB5757"/>
<ellipse id="Ellipse 75" rx="6.1562" ry="6.59593" transform="matrix(1 0 0 -1 922.023 357.091)" fill="#EB5757"/>
<ellipse id="Ellipse 79" rx="6.1562" ry="6.59593" transform="matrix(-1 -8.74228e-08 -8.74228e-08 1 921.144 357.09)" fill="#EB5757"/>
<ellipse id="Ellipse 83" rx="6.1562" ry="6.59593" transform="matrix(1 0 0 -1 868.377 357.091)" fill="#EB5757"/>
<line id="Line 106" y1="-0.5" x2="45.7318" y2="-0.5" transform="matrix(-4.37115e-08 -1 -1 4.37115e-08 921.144 357.529)" stroke="black"/>
<line id="Line 110" y1="-0.5" x2="54.5263" y2="-0.5" transform="matrix(1 0 0 -1 867.497 311.798)" stroke="black"/>
<circle id="Ellipse 88" r="6.1562" transform="matrix(1 0 0 -1 922.023 311.798)" fill="#333333"/>
<ellipse id="Ellipse 92" rx="6.1562" ry="6.59593" transform="matrix(1 0 0 -1 922.023 357.091)" fill="#333333"/>
<circle id="Ellipse 95" r="6.1562" transform="matrix(1 0 0 -1 868.377 311.798)" fill="#333333"/>
<line id="Line 113" y1="-5" x2="40.455" y2="-5" transform="matrix(1 0 0 -1 797.141 353.133)" stroke="#F2F2F2" stroke-width="10"/>
</g>
<g id="140:368">
<rect id="Rectangle 16" width="116.088" height="146.869" rx="20" transform="matrix(1 0 0 -1 681.932 428.766)" fill="#F2F2F2"/>
<line id="Line 97" y1="-0.5" x2="45.7318" y2="-0.5" transform="matrix(-4.37113e-08 1 1 4.37113e-08 767.239 356.65)" stroke="black"/>
<line id="Line 101" y1="-0.5" x2="45.7318" y2="-0.5" transform="matrix(-4.37115e-08 -1 -1 4.37115e-08 713.592 357.529)" stroke="black"/>
<ellipse id="Ellipse 67" rx="6.1562" ry="6.1562" transform="matrix(-1 -8.74228e-08 -8.74228e-08 1 766.359 402.382)" fill="#EB5757"/>
<ellipse id="Ellipse 74" rx="6.1562" ry="6.59593" transform="matrix(1 0 0 -1 767.238 357.091)" fill="#EB5757"/>
<ellipse id="Ellipse 78" rx="6.1562" ry="6.59593" transform="matrix(-1 -8.74228e-08 -8.74228e-08 1 766.359 357.09)" fill="#EB5757"/>
<circle id="Ellipse 82" r="6.59593" transform="matrix(1 0 0 -1 714.031 357.091)" fill="#EB5757"/>
<line id="Line 105" y1="-0.5" x2="45.7318" y2="-0.5" transform="matrix(-4.37115e-08 -1 -1 4.37115e-08 767.239 357.529)" stroke="black"/>
<line id="Line 109" y1="-0.5" x2="55.4058" y2="-0.5" transform="matrix(1 0 0 -1 712.713 311.798)" stroke="black"/>
<circle id="Ellipse 87" r="6.1562" transform="matrix(1 0 0 -1 767.238 311.798)" fill="#333333"/>
<ellipse id="Ellipse 91" rx="6.1562" ry="6.59593" transform="matrix(1 0 0 -1 767.238 357.091)" fill="#EB5757"/>
<ellipse id="Ellipse 94" rx="6.59593" ry="6.1562" transform="matrix(1 0 0 -1 714.031 311.798)" fill="#333333"/>
<line id="Line 115" y1="-5" x2="63.1024" y2="-5" transform="matrix(0.872281 -0.489006 -0.489006 -0.872281 628.615 427.527)" stroke="#F2F2F2" stroke-width="10"/>
<line id="Line 117" y1="-5" x2="68.0043" y2="-5" transform="matrix(-0.833932 -0.551867 -0.551867 0.833932 685.326 355.805)" stroke="#F2F2F2" stroke-width="10"/>
</g>
<g id="140:383">
<rect id="Rectangle 1" x="54" y="784.067" width="116.088" height="104.655" rx="20" fill="#F2F2F2"/>
<rect id="Rectangle 2" x="209.664" y="784.067" width="116.088" height="104.655" rx="20" fill="#F2F2F2"/>
<rect id="Rectangle 4" x="209.664" y="638.956" width="116.088" height="104.655" rx="20" fill="#F2F2F2"/>
<rect id="Rectangle 6" x="639.718" y="675.015" width="116.088" height="103.776" rx="20" transform="rotate(180 639.718 675.015)" fill="#F2F2F2"/>
<rect id="Rectangle 3" x="367.087" y="714.59" width="115.209" height="103.776" rx="20" fill="#F2F2F2"/>
<rect id="Rectangle 5" x="523.63" y="714.59" width="116.088" height="103.776" rx="20" fill="#F2F2F2"/>
<rect id="Rectangle 8" x="681.932" y="638.956" width="116.088" height="146.869" rx="20" fill="#F2F2F2"/>
<rect id="Rectangle 9" x="836.717" y="638.956" width="115.209" height="146.869" rx="20" fill="#F2F2F2"/>
<g id="Group 35">
<line id="Line 60_3" x1="135.396" y1="813.663" x2="135.396" y2="859.532" stroke="black"/>
<line id="Line 59_3" x1="80.6875" y1="859.032" x2="135.731" y2="859.032" stroke="black"/>
<circle id="Ellipse 18_3" cx="81.9385" cy="859.115" r="6.25489" fill="#EB5757"/>
<circle id="Ellipse 23_3" cx="135.313" cy="859.115" r="6.25489" fill="#EB5757"/>
<circle id="Ellipse 24_3" cx="135.313" cy="814.08" r="6.25489" fill="#EB5757"/>
</g>
<g id="Group 36">
<line id="Line 60_4" x1="291.353" y1="813.663" x2="291.353" y2="859.532" stroke="black"/>
<line id="Line 59_4" x1="236.644" y1="859.032" x2="291.687" y2="859.032" stroke="black"/>
<circle id="Ellipse 18_4" cx="237.895" cy="859.115" r="6.25489" fill="#EB5757"/>
<circle id="Ellipse 23_4" cx="291.27" cy="859.115" r="6.25489" fill="#333333"/>
<circle id="Ellipse 24_4" cx="291.27" cy="814.08" r="6.25489" fill="#EB5757"/>
</g>
<line id="Line 67" x1="240.945" y1="668.858" x2="240.945" y2="714.59" stroke="black"/>
<line id="Line 78" x1="555.67" y1="645.992" x2="555.67" y2="600.26" stroke="black"/>
<line id="Line 83" x1="713.973" y1="711.072" x2="713.973" y2="665.341" stroke="black"/>
<line id="Line 84" x1="867.877" y1="711.072" x2="867.877" y2="665.341" stroke="black"/>
<line id="Line 72" x1="399.247" y1="744.491" x2="399.247" y2="790.223" stroke="black"/>
<line id="Line 75" x1="555.791" y1="742.732" x2="555.791" y2="788.464" stroke="black"/>
<line id="Line 80" x1="714.093" y1="710.192" x2="714.093" y2="755.924" stroke="black"/>
<line id="Line 85" x1="868.877" y1="710.192" x2="868.877" y2="755.924" stroke="black"/>
<circle id="Ellipse 30" cx="241.324" cy="713.711" r="6.1562" fill="#EB5757"/>
<ellipse id="Ellipse 45" cx="555.73" cy="600.261" rx="6.59593" ry="6.1562" transform="rotate(180 555.73 600.261)" fill="#EB5757"/>
<ellipse id="Ellipse 56" cx="714.032" cy="665.341" rx="6.59593" ry="6.1562" transform="rotate(180 714.032 665.341)" fill="#EB5757"/>
<ellipse id="Ellipse 58" cx="868.377" cy="665.341" rx="6.1562" ry="6.1562" transform="rotate(180 868.377 665.341)" fill="#EB5757"/>
<circle id="Ellipse 33" cx="398.747" cy="790.224" r="6.1562" fill="#EB5757"/>
<ellipse id="Ellipse 31" cx="294.531" cy="668.858" rx="6.59593" ry="6.1562" fill="#EB5757"/>
<ellipse id="Ellipse 46" cx="554.85" cy="645.552" rx="6.59593" ry="6.59593" transform="rotate(180 554.85 645.552)" fill="#EB5757"/>
<ellipse id="Ellipse 34" cx="452.394" cy="744.931" rx="6.1562" ry="6.59593" fill="#EB5757"/>
<ellipse id="Ellipse 40" cx="608.937" cy="743.172" rx="6.1562" ry="6.59593" fill="#EB5757"/>
<ellipse id="Ellipse 50" cx="767.239" cy="710.632" rx="6.1562" ry="6.59593" fill="#EB5757"/>
<circle id="Ellipse 32" cx="241.324" cy="668.858" r="6.1562" fill="#EB5757"/>
<ellipse id="Ellipse 47" cx="608.058" cy="645.552" rx="6.1562" ry="6.59593" transform="rotate(180 608.058 645.552)" fill="#EB5757"/>
<ellipse id="Ellipse 57" cx="766.36" cy="710.633" rx="6.1562" ry="6.59593" transform="rotate(180 766.36 710.633)" fill="#EB5757"/>
<ellipse id="Ellipse 35" cx="398.747" cy="744.931" rx="6.1562" ry="6.59593" fill="#EB5757"/>
<circle id="Ellipse 41" cx="555.73" cy="743.172" r="6.59593" fill="#EB5757"/>
<circle id="Ellipse 52" cx="714.032" cy="710.632" r="6.59593" fill="#EB5757"/>
<ellipse id="Ellipse 61" cx="868.377" cy="710.632" rx="6.1562" ry="6.59593" fill="#333333"/>
<line id="Line 73" x1="452.015" y1="744.491" x2="452.015" y2="790.223" stroke="black"/>
<line id="Line 76" x1="609.438" y1="742.732" x2="609.438" y2="788.464" stroke="black"/>
<line id="Line 81" x1="767.739" y1="710.192" x2="767.739" y2="755.924" stroke="black"/>
<line id="Line 86" x1="921.645" y1="710.192" x2="921.645" y2="755.924" stroke="black"/>
<line id="Line 74" x1="397.867" y1="789.723" x2="452.393" y2="789.723" stroke="black"/>
<line id="Line 77" x1="554.411" y1="787.965" x2="609.817" y2="787.965" stroke="black"/>
<line id="Line 82" x1="712.713" y1="755.424" x2="768.119" y2="755.424" stroke="black"/>
<line id="Line 87" x1="867.497" y1="755.424" x2="922.023" y2="755.424" stroke="black"/>
<circle id="Ellipse 36" cx="398.747" cy="790.224" r="6.1562" fill="#EB5757"/>
<circle id="Ellipse 37" cx="452.394" cy="790.224" r="6.1562" fill="#333333"/>
<circle id="Ellipse 43" cx="608.937" cy="788.464" r="6.1562" fill="#333333"/>
<circle id="Ellipse 53" cx="767.239" cy="755.925" r="6.1562" fill="#333333"/>
<circle id="Ellipse 62" cx="922.024" cy="755.925" r="6.1562" fill="#333333"/>
<ellipse id="Ellipse 38" cx="452.394" cy="744.931" rx="6.1562" ry="6.59593" fill="#EB5757"/>
<ellipse id="Ellipse 44" cx="608.937" cy="743.172" rx="6.1562" ry="6.59593" fill="#EB5757"/>
<ellipse id="Ellipse 54" cx="767.239" cy="710.632" rx="6.1562" ry="6.59593" fill="#EB5757"/>
<ellipse id="Ellipse 39" cx="555.73" cy="788.464" rx="6.59593" ry="6.1562" fill="#333333"/>
<ellipse id="Ellipse 55" cx="714.032" cy="755.925" rx="6.59593" ry="6.1562" fill="#333333"/>
<circle id="Ellipse 64" cx="868.377" cy="755.925" r="6.1562" fill="#333333"/>
<line id="Line 88" x1="169.209" y1="834.473" x2="209.664" y2="834.473" stroke="#F2F2F2" stroke-width="10"/>
<line id="Line 91" x1="482.296" y1="761.478" x2="523.63" y2="761.478" stroke="#F2F2F2" stroke-width="10"/>
<line id="Line 94" x1="797.141" y1="709.59" x2="837.596" y2="709.59" stroke="#F2F2F2" stroke-width="10"/>
<line id="Line 89" x1="320.818" y1="700.885" x2="375.861" y2="731.742" stroke="#F2F2F2" stroke-width="10"/>
<line id="Line 92" x1="631.061" y1="635.833" x2="686.104" y2="666.69" stroke="#F2F2F2" stroke-width="10"/>
<line id="Line 90" x1="377.843" y1="781.138" x2="321.132" y2="818.668" stroke="#F2F2F2" stroke-width="10"/>
<line id="Line 93" x1="688.086" y1="716.088" x2="631.375" y2="753.617" stroke="#F2F2F2" stroke-width="10"/>
<ellipse id="Ellipse 59" cx="922.024" cy="710.632" rx="6.1562" ry="6.59593" fill="#EB5757"/>
</g>
<g id="140:456">
<rect id="Rectangle 18" x="974.791" y="461.306" width="115.209" height="194.36" rx="20" fill="#F2F2F2"/>
<line id="Line 118" x1="1005.95" y1="580.912" x2="1005.95" y2="535.18" stroke="black"/>
<line id="Line 122" y1="-0.5" x2="45.7318" y2="-0.5" transform="matrix(-4.37113e-08 1 1 4.37113e-08 1059.22 535.181)" stroke="black"/>
<line id="Line 119" x1="1006.95" y1="580.032" x2="1006.95" y2="625.764" stroke="black"/>
<line id="Line 123" y1="-0.5" x2="45.7318" y2="-0.5" transform="matrix(-4.37115e-08 -1 -1 4.37115e-08 1006.45 536.06)" stroke="black"/>
<ellipse id="Ellipse 96" cx="1006.45" cy="535.181" rx="6.1562" ry="6.1562" transform="rotate(180 1006.45 535.181)" fill="#EB5757"/>
<ellipse id="Ellipse 97" cx="1006.45" cy="580.473" rx="6.1562" ry="6.59593" fill="#333333"/>
<line id="Line 120" x1="1059.72" y1="580.032" x2="1059.72" y2="625.764" stroke="black"/>
<line id="Line 124" y1="-0.5" x2="45.7318" y2="-0.5" transform="matrix(-4.37115e-08 -1 -1 4.37115e-08 1059.22 536.06)" stroke="black"/>
<line id="Line 121" x1="1005.57" y1="625.265" x2="1060.1" y2="625.265" stroke="black"/>
<line id="Line 125" y1="-0.5" x2="54.5263" y2="-0.5" transform="matrix(1 0 0 -1 1005.57 490.328)" stroke="black"/>
<circle id="Ellipse 98" cx="1060.1" cy="625.765" r="6.1562" fill="#333333"/>
<circle id="Ellipse 105" r="6.1562" transform="matrix(1 0 0 -1 1060.1 490.328)" fill="#333333"/>
<circle id="Ellipse 99" cx="1006.45" cy="625.765" r="6.1562" fill="#333333"/>
<circle id="Ellipse 107" r="6.1562" transform="matrix(1 0 0 -1 1006.45 490.328)" fill="#333333"/>
<line id="Line 126" x1="988.226" y1="471.24" x2="935.459" y2="425.509" stroke="#F2F2F2" stroke-width="10"/>
<line id="Line 127" x1="986.998" y1="629.42" x2="934.23" y2="678.669" stroke="#F2F2F2" stroke-width="10"/>
<ellipse id="Ellipse 102" rx="6.1562" ry="6.59593" transform="matrix(1 0 0 -1 1060.1 535.62)" fill="#333333"/>
<ellipse id="Ellipse 101" rx="6.1562" ry="6.1562" transform="matrix(-1 -8.74228e-08 -8.74228e-08 1 1059.22 580.912)" fill="#EB5757"/>
</g>
<g id="140:476">
<rect id="Rectangle 18_2" x="1124.97" y="461.306" width="115.209" height="194.36" rx="20" fill="#F2F2F2"/>
<line id="Line 118_2" x1="1156.13" y1="580.912" x2="1156.13" y2="535.18" stroke="black"/>
<line id="Line 122_2" y1="-0.5" x2="45.7318" y2="-0.5" transform="matrix(-4.37113e-08 1 1 4.37113e-08 1209.4 535.18)" stroke="black"/>
<line id="Line 119_2" x1="1157.13" y1="580.032" x2="1157.13" y2="625.764" stroke="black"/>
<line id="Line 123_2" y1="-0.5" x2="45.7318" y2="-0.5" transform="matrix(-4.37115e-08 -1 -1 4.37115e-08 1156.63 536.06)" stroke="black"/>
<ellipse id="Ellipse 96_2" cx="1156.63" cy="535.18" rx="6.1562" ry="6.1562" transform="rotate(180 1156.63 535.18)" fill="#333333"/>
<ellipse id="Ellipse 97_2" cx="1156.63" cy="580.472" rx="6.1562" ry="6.59593" fill="#333333"/>
<line id="Line 120_2" x1="1209.9" y1="580.032" x2="1209.9" y2="625.764" stroke="black"/>
<line id="Line 124_2" y1="-0.5" x2="45.7318" y2="-0.5" transform="matrix(-4.37115e-08 -1 -1 4.37115e-08 1209.4 536.06)" stroke="black"/>
<line id="Line 121_2" x1="1155.75" y1="625.265" x2="1210.28" y2="625.265" stroke="black"/>
<line id="Line 125_2" y1="-0.5" x2="54.5263" y2="-0.5" transform="matrix(1 0 0 -1 1155.75 490.327)" stroke="black"/>
<circle id="Ellipse 98_2" cx="1210.28" cy="625.764" r="6.1562" fill="#333333"/>
<circle id="Ellipse 105_2" r="6.1562" transform="matrix(1 0 0 -1 1210.28 490.328)" fill="#333333"/>
<circle id="Ellipse 99_2" cx="1156.63" cy="625.764" r="6.1562" fill="#333333"/>
<circle id="Ellipse 107_2" r="6.1562" transform="matrix(1 0 0 -1 1156.63 490.328)" fill="#333333"/>
<line id="Line 127_2" x1="1134" y1="556" x2="1077" y2="556" stroke="#F2F2F2" stroke-width="10"/>
<ellipse id="Ellipse 102_2" rx="6.1562" ry="6.59593" transform="matrix(1 0 0 -1 1210.28 535.62)" fill="#333333"/>
<ellipse id="Ellipse 101_2" rx="6.1562" ry="6.1562" transform="matrix(-1 -8.74228e-08 -8.74228e-08 1 1209.4 580.912)" fill="#333333"/>
</g>
<path id="140:495" d="M64 65.12V49.84C64 47.28 64.4 45.76 65.84 45.76H66.72C69.72 45.76 71.6 46.8 72.28 49.88C72.72 49.88 73.28 49.84 73.64 49.68C73.36 47.84 73.16 45.8 73.12 44C73.12 43.96 73.04 43.88 73 43.88C71.64 44 67.2 44.2 64.04 44.2H60.6C57.52 44.2 52.8 44 51.28 43.88C51.2 43.88 51.12 43.96 51.12 44C50.96 45.8 50.56 47.88 50.12 49.8C50.52 49.96 51 50 51.48 50C52.28 46.8 54.12 45.76 56.76 45.76H58.72C60.2 45.76 60.6 47.28 60.6 49.72V65.12C60.6 68.44 59.92 68.64 56.72 68.76C56.48 69 56.48 69.84 56.72 70.08C58.68 70.04 60.72 70 62.32 70C63.84 70 65.88 70.04 67.88 70.08C68.12 69.84 68.12 69 67.88 68.76C64.68 68.64 64 68.44 64 65.12ZM80.5472 58.56C80.5472 57.72 80.9072 57.24 81.2272 56.88C82.7472 55.4 84.7872 54.52 86.3472 54.52C87.1472 54.52 87.9872 55.04 88.4672 55.96C88.8672 56.76 88.9472 57.84 88.9472 59.04V65.12C88.9472 68.4 88.5472 68.56 86.4672 68.76C86.2672 69 86.2672 69.84 86.4672 70.08C87.5872 70.04 88.9472 70 90.5472 70C92.1472 70 93.4672 70.04 94.7872 70.08C94.9872 69.84 94.9872 69 94.7872 68.76C92.5472 68.56 92.1072 68.4 92.1072 65.12V59.16C92.1072 56.96 91.9472 55 91.0272 53.8C90.3472 52.92 89.1072 52.44 87.7072 52.44C85.7472 52.44 83.3472 52.96 80.9072 55.68C80.9072 55.72 80.8672 55.72 80.8272 55.76C80.7072 55.92 80.5072 56.16 80.5072 55.68L80.5472 46.68C80.5472 44.08 80.7072 42.48 80.7072 42.48C80.7072 42.2 80.5472 42.08 80.1872 42.08C79.1872 42.48 76.1872 43.04 74.5872 43.16C74.5072 43.48 74.5872 44.12 74.8272 44.36C74.9472 44.36 75.0672 44.36 75.1872 44.36C76.9472 44.48 77.3872 44.48 77.3872 47.64V65.12C77.3872 68.44 76.9072 68.6 74.5872 68.76C74.3472 69 74.3472 69.84 74.5872 70.08C75.9072 70.04 77.3872 70 78.9872 70C80.5072 70 81.8272 70.04 82.9472 70.08C83.1872 69.84 83.1872 69 82.9472 68.76C80.9072 68.6 80.5472 68.44 80.5472 65.12V58.56ZM110.831 66.28C109.351 67.8 108.191 68.44 105.871 68.44C104.431 68.44 102.751 67.6 101.511 65.56C100.711 64.24 100.231 62.4 100.231 60.08L110.871 60.16C111.351 60.16 111.631 59.92 111.631 59.48C111.631 56.12 110.431 52.52 104.871 52.52C101.391 52.52 96.8706 55.84 96.8706 61.92C96.8706 64.16 97.4306 66.32 98.7506 67.84C100.111 69.44 101.991 70.4 104.871 70.4C107.911 70.4 110.071 69 111.671 66.92C111.551 66.52 111.311 66.32 110.831 66.28ZM100.351 58.72C101.111 54.2 103.911 53.84 104.871 53.84C106.391 53.84 108.191 54.68 108.191 58.04C108.191 58.4 108.031 58.6 107.591 58.6L100.351 58.72ZM139.001 50.6C139.001 47.72 136.761 45.6 132.841 45.6C128.761 45.6 126.121 48.04 126.121 51.12C126.121 53.36 127.201 55 129.641 56.52L130.681 57.16C129.521 57.76 128.441 58.48 127.441 59.36C125.801 60.8 125.121 62.6 125.121 64.16C125.121 68.24 128.001 70.4 132.241 70.4C137.481 70.4 140.041 66.56 140.041 63.52C140.041 61.2 139.041 59.16 136.921 57.88L134.081 56.16C135.961 55.24 139.001 53.16 139.001 50.6ZM132.321 69C130.521 69 127.801 67.76 127.801 64.16C127.801 62.96 128.321 60.16 131.761 57.88L133.641 59C136.121 60.52 137.121 62.4 137.121 64.32C137.121 68.32 134.121 69 132.321 69ZM132.641 47C135.241 47 136.201 48.72 136.201 50.56C136.201 52.72 134.081 54.52 133.001 55.32L131.761 54.56C129.241 52.92 128.961 51.6 128.961 50.36C128.961 48.52 130.241 47 132.641 47ZM152.715 61.08C153.235 61.08 153.795 59.96 153.795 59.48C153.795 59.08 153.635 58.68 153.235 58.68H144.475C143.995 58.68 143.475 59.6 143.475 60.32C143.475 60.72 143.715 61.08 144.075 61.08H152.715ZM171.311 66.36C171.151 66 170.831 65.84 170.471 65.8C169.111 67.56 167.391 68.44 165.671 68.44C162.751 68.44 160.311 65.48 160.311 60.8C160.311 56.4 162.231 53.76 164.871 53.76C167.231 53.76 167.551 55.16 167.711 56.56C167.831 57.64 168.391 58 169.231 58C170.071 58 171.191 57.48 171.191 56.24C171.191 54.04 168.911 52.44 165.071 52.44C161.111 52.44 156.871 56 156.871 61.68C156.871 66.84 159.751 70.4 164.791 70.4C167.191 70.4 169.311 69.64 171.311 66.36ZM180.66 76.4C181.3 75.28 181.82 74.16 182.3 72.96C185.5 65.24 187.3 61.12 189.38 56.64C190.18 54.96 190.74 54.32 192.62 54.08C192.86 53.84 192.86 53 192.62 52.76C191.82 52.8 190.9 52.84 189.78 52.84C188.58 52.84 187.34 52.8 186.14 52.76C185.9 53 185.9 53.84 186.14 54.08C187.42 54.2 188.7 54.44 188.06 55.88L184.1 65.04C183.82 65.68 183.46 65.8 183.14 65L179.58 56.68C178.86 55 178.66 54.24 180.9 54.08C181.14 53.84 181.14 53 180.9 52.76C179.42 52.8 177.82 52.84 176.38 52.84C175.02 52.84 173.94 52.8 173.14 52.76C172.9 53 172.9 53.84 173.14 54.08C174.74 54.28 175.26 54.64 176.3 57.08L180.82 67.6C181.18 68.4 181.78 70.24 181.38 71.36C180.9 72.68 180.42 73.8 179.82 75.04C179.38 75.84 178.82 76.2 177.82 76.2C177.26 76.2 177.1 76.08 176.66 76.08C175.5 76.08 174.9 77.28 174.9 77.8C174.9 78.64 175.7 79.28 176.78 79.28C177.62 79.28 179.22 78.96 180.66 76.4ZM208.693 66.36C208.533 66 208.213 65.84 207.853 65.8C206.493 67.56 204.773 68.44 203.053 68.44C200.133 68.44 197.693 65.48 197.693 60.8C197.693 56.4 199.613 53.76 202.253 53.76C204.613 53.76 204.933 55.16 205.093 56.56C205.213 57.64 205.773 58 206.613 58C207.453 58 208.573 57.48 208.573 56.24C208.573 54.04 206.293 52.44 202.453 52.44C198.493 52.44 194.253 56 194.253 61.68C194.253 66.84 197.133 70.4 202.173 70.4C204.573 70.4 206.693 69.64 208.693 66.36ZM213.683 65.12C213.683 68.44 213.243 68.64 210.803 68.76C210.563 69 210.563 69.84 210.803 70.08C212.203 70.04 213.683 70 215.283 70C216.883 70 218.403 70.04 219.723 70.08C219.963 69.84 219.963 69 219.723 68.76C217.283 68.64 216.843 68.44 216.843 65.12V46.68C216.843 44.08 217.003 42.48 217.003 42.48C217.003 42.2 216.843 42.08 216.483 42.08C215.483 42.48 212.483 43.04 210.883 43.16C210.803 43.48 210.883 44.12 211.123 44.36C213.443 44.52 213.683 44.64 213.683 47.64V65.12ZM235.87 66.28C234.39 67.8 233.23 68.44 230.91 68.44C229.47 68.44 227.79 67.6 226.55 65.56C225.75 64.24 225.27 62.4 225.27 60.08L235.91 60.16C236.39 60.16 236.67 59.92 236.67 59.48C236.67 56.12 235.47 52.52 229.91 52.52C226.43 52.52 221.91 55.84 221.91 61.92C221.91 64.16 222.47 66.32 223.79 67.84C225.15 69.44 227.03 70.4 229.91 70.4C232.95 70.4 235.11 69 236.71 66.92C236.59 66.52 236.35 66.32 235.87 66.28ZM225.39 58.72C226.15 54.2 228.95 53.84 229.91 53.84C231.43 53.84 233.23 54.68 233.23 58.04C233.23 58.4 233.07 58.6 232.63 58.6L225.39 58.72ZM255 58.56C255 57.72 255.36 57.24 255.68 56.88C257.2 55.4 259.24 54.52 260.8 54.52C261.6 54.52 262.44 55.04 262.92 55.96C263.32 56.76 263.4 57.84 263.4 59.04V65.12C263.4 68.4 263 68.56 260.92 68.76C260.72 69 260.72 69.84 260.92 70.08C262.04 70.04 263.4 70 265 70C266.6 70 267.92 70.04 269.24 70.08C269.44 69.84 269.44 69 269.24 68.76C267 68.56 266.56 68.4 266.56 65.12V59.16C266.56 56.96 266.4 55 265.48 53.8C264.8 52.92 263.56 52.44 262.16 52.44C260.2 52.44 257.8 52.96 255.36 55.68C255.36 55.72 255.32 55.72 255.28 55.76C255.16 55.92 254.96 56.16 254.96 55.68L255 46.68C255 44.08 255.16 42.48 255.16 42.48C255.16 42.2 255 42.08 254.64 42.08C253.64 42.48 250.64 43.04 249.04 43.16C248.96 43.48 249.04 44.12 249.28 44.36C249.4 44.36 249.52 44.36 249.64 44.36C251.4 44.48 251.84 44.48 251.84 47.64V65.12C251.84 68.44 251.36 68.6 249.04 68.76C248.8 69 248.8 69.84 249.04 70.08C250.36 70.04 251.84 70 253.44 70C254.96 70 256.28 70.04 257.4 70.08C257.64 69.84 257.64 69 257.4 68.76C255.36 68.6 255 68.44 255 65.12V58.56ZM281.564 68.08C281.804 69.32 282.244 70.4 284.244 70.4C285.764 70.4 287.204 69.72 288.044 68.92C287.964 68.44 287.804 68.08 287.364 67.84C287.084 68.08 286.404 68.48 285.884 68.48C284.724 68.48 284.684 66.92 284.684 65.08V59.2C284.684 53.52 281.564 52.44 278.644 52.44C275.364 52.44 272.044 54.6 272.044 56.88C272.044 57.84 272.524 58.32 273.444 58.32C274.604 58.32 275.324 57.48 275.324 56.96C275.324 56.68 275.284 56.4 275.204 56.24C275.164 56.12 275.124 55.88 275.124 55.44C275.124 54.2 276.804 53.76 278.324 53.76C279.684 53.76 281.564 54.44 281.564 58.96C281.564 59.24 281.444 59.4 281.324 59.44L277.884 60.28C274.044 61.24 271.284 63.36 271.284 66.08C271.284 69.36 273.524 70.4 276.324 70.4C277.724 70.4 278.924 70.08 280.684 68.72L281.484 68.08H281.564ZM281.564 60.68V65.96C281.564 66.48 281.324 66.76 281.004 67C279.964 67.84 278.604 68.76 277.484 68.76C275.484 68.76 274.604 67.16 274.604 65.92C274.604 64.12 275.444 62.28 278.404 61.52L281.564 60.68ZM290.045 64.48C290.205 66.44 290.325 68.32 290.325 70C290.725 69.92 291.125 69.88 291.325 69.88C291.605 69.88 291.845 69.88 292.125 69.96C293.205 70.24 294.285 70.4 295.765 70.4C298.005 70.4 302.125 69.32 302.125 65.36C302.125 62.64 300.165 61.04 297.445 60.04C295.045 59.12 293.445 58.52 293.445 56.32C293.445 54.68 294.885 53.76 296.245 53.76C297.125 53.76 299.445 54.08 299.965 57.48C300.205 57.72 301.005 57.68 301.245 57.44C301.365 56 301.445 54.52 301.485 53.2C300.245 53 298.325 52.44 296.245 52.44C293.285 52.44 290.605 54.36 290.605 56.92C290.605 59.84 291.925 61.08 295.005 62.36C298.325 63.72 299.085 64.56 299.085 66.28C299.085 68.24 297.165 69.08 295.685 69.08C294.125 69.08 293.245 68.56 292.845 68.12C291.965 67.2 291.525 65.44 291.285 64.44C291.045 64.2 290.285 64.24 290.045 64.48ZM315.431 52.84C314.871 52.84 314.711 53.32 314.711 53.64V54.16C314.711 54.36 314.751 54.4 314.911 54.4H317.271V66.44C317.271 69.28 318.511 70.4 320.351 70.4C322.191 70.4 324.191 69.52 325.751 67.76C325.671 67.36 325.431 67.12 325.031 67.08C323.991 67.88 322.791 68.2 321.751 68.2C320.671 68.2 320.431 67 320.431 64.52V54.4H324.591C324.991 54.4 325.551 54.24 325.551 53.88V53.08C325.551 52.92 325.431 52.84 325.231 52.84H320.431V51.28C320.431 48.68 320.591 47.08 320.591 47.08C320.591 46.84 320.471 46.72 320.271 46.72C320.111 46.72 319.751 46.88 319.391 47.08C318.951 47.32 318.551 47.52 318.031 47.64C317.551 47.8 317.151 47.92 317.151 48.2C317.151 48.68 317.271 48.4 317.271 52.84H315.431ZM333.407 55.68C333.327 54.08 333.287 53.04 333.087 52.64C333.007 52.44 332.927 52.32 332.607 52.32C331.487 52.76 330.447 53.12 327.687 53.48C327.607 53.72 327.687 54.36 327.767 54.6C329.927 54.8 330.367 55 330.367 57.32V65.12C330.367 68.44 329.887 68.6 327.407 68.76C327.167 69 327.167 69.84 327.407 70.08C328.807 70.04 330.367 70 331.967 70C333.567 70 335.407 70.04 336.807 70.08C337.047 69.84 337.047 69 336.807 68.76C334.007 68.56 333.527 68.44 333.527 65.12V59.56C333.527 58.52 334.007 57.6 334.487 56.88C334.927 56.24 335.847 54.92 336.327 54.92C336.687 54.92 337.047 55 337.367 55.44C337.647 55.84 338.127 56.36 338.807 56.36C339.767 56.36 340.687 55.36 340.687 54.36C340.687 53.6 339.967 52.44 338.287 52.44C336.407 52.44 334.767 54.2 333.847 55.76C333.607 56.2 333.407 55.88 333.407 55.68ZM356.378 66.28C354.898 67.8 353.738 68.44 351.418 68.44C349.978 68.44 348.298 67.6 347.058 65.56C346.258 64.24 345.778 62.4 345.778 60.08L356.418 60.16C356.898 60.16 357.178 59.92 357.178 59.48C357.178 56.12 355.978 52.52 350.418 52.52C346.938 52.52 342.418 55.84 342.418 61.92C342.418 64.16 342.978 66.32 344.298 67.84C345.658 69.44 347.538 70.4 350.418 70.4C353.458 70.4 355.618 69 357.218 66.92C357.098 66.52 356.858 66.32 356.378 66.28ZM345.898 58.72C346.658 54.2 349.458 53.84 350.418 53.84C351.938 53.84 353.738 54.68 353.738 58.04C353.738 58.4 353.578 58.6 353.138 58.6L345.898 58.72ZM374.542 66.28C373.062 67.8 371.902 68.44 369.582 68.44C368.142 68.44 366.462 67.6 365.222 65.56C364.422 64.24 363.942 62.4 363.942 60.08L374.582 60.16C375.062 60.16 375.342 59.92 375.342 59.48C375.342 56.12 374.142 52.52 368.582 52.52C365.102 52.52 360.582 55.84 360.582 61.92C360.582 64.16 361.142 66.32 362.462 67.84C363.822 69.44 365.702 70.4 368.582 70.4C371.622 70.4 373.782 69 375.382 66.92C375.262 66.52 375.022 66.32 374.542 66.28ZM364.062 58.72C364.822 54.2 367.622 53.84 368.582 53.84C370.102 53.84 371.902 54.68 371.902 58.04C371.902 58.4 371.742 58.6 371.302 58.6L364.062 58.72ZM384.839 54.08C385.079 53.84 385.079 53 384.839 52.76C383.639 52.8 382.239 52.84 380.799 52.84C379.279 52.84 378.199 52.8 377.159 52.76C376.919 53 376.919 53.84 377.159 54.08C379.039 54.28 379.479 54.68 380.319 56.76L385.559 69.68C385.799 70.24 386.119 70.48 386.519 70.48C386.879 70.48 387.199 70.24 387.479 69.6L391.519 59.76L395.639 69.68C395.879 70.24 396.199 70.48 396.599 70.48C396.959 70.48 397.279 70.24 397.519 69.64L402.759 56.96C403.399 55.32 404.079 54.2 406.119 54.08C406.359 53.84 406.359 53 406.119 52.76C405.319 52.8 404.439 52.84 403.239 52.84C402.039 52.84 400.359 52.8 399.159 52.76C398.919 53 398.919 53.84 399.159 54.08C402.159 54.24 401.759 55.4 401.199 56.8L397.839 65.12C397.439 66.12 397.279 66.12 396.959 65.28L393.519 56.52C392.759 54.64 392.839 54.24 394.959 54.08C395.199 53.84 395.199 53 394.959 52.76C393.759 52.8 392.159 52.84 390.959 52.84C389.959 52.84 388.639 52.8 387.439 52.76C387.199 53 387.199 53.84 387.439 54.08C389.319 54.24 389.799 55.4 390.519 57.2L390.759 57.84L387.959 64.92C387.439 66.24 387.359 66.28 386.839 65L383.639 56.76C382.879 54.84 382.919 54.2 384.839 54.08ZM413.842 65.12V57.16C413.842 55.16 414.002 52.6 414.002 52.6C414.002 52.44 413.802 52.32 413.482 52.32C412.362 52.76 410.762 53.12 408.002 53.48C407.922 53.72 408.002 54.36 408.082 54.6C410.282 54.8 410.682 55.04 410.682 57.32V65.12C410.682 68.44 410.242 68.56 407.802 68.76C407.562 69 407.562 69.84 407.802 70.08C409.122 70.04 410.682 70 412.282 70C413.882 70 415.402 70.04 416.722 70.08C416.962 69.84 416.962 69 416.722 68.76C414.282 68.6 413.842 68.44 413.842 65.12ZM410.202 46.04C410.202 47.08 411.162 48.12 412.122 48.12C413.242 48.12 414.202 47.04 414.202 46.2C414.202 45.24 413.362 44.12 412.282 44.12C411.322 44.12 410.202 45.08 410.202 46.04ZM430.821 68C431.021 67.84 431.381 67.76 431.421 68.04C431.541 69 431.861 70.4 431.861 70.4C432.181 70.52 432.381 70.48 432.621 70.4C433.501 69.68 434.901 69.08 437.341 68.8C437.581 68.56 437.581 67.96 437.341 67.72C434.781 67.52 434.421 66.76 434.421 64.8V46.68C434.421 44.08 434.581 42.48 434.581 42.48C434.581 42.2 434.421 42.08 434.061 42.08C433.061 42.48 430.061 43.04 428.461 43.16C428.381 43.48 428.461 44.12 428.701 44.36C428.821 44.36 428.941 44.36 429.061 44.36C430.821 44.48 431.261 44.48 431.261 47.64V52.76C431.261 53.04 431.181 53.12 430.901 53.12C430.741 53.12 429.101 52.44 427.781 52.44C425.141 52.44 423.381 53.32 421.781 54.84C420.061 56.56 419.021 58.92 419.021 61.88C419.021 66.8 421.501 70.4 425.821 70.4C427.381 70.4 428.861 69.6 430.821 68ZM431.261 65.04C431.261 65.8 431.181 66.12 430.621 66.6C429.141 67.88 427.861 68.52 426.861 68.52C424.701 68.52 422.461 66.16 422.461 61.16C422.461 58.28 423.021 56.68 423.621 55.84C424.861 53.96 426.541 53.84 427.341 53.84C428.781 53.84 429.781 54.36 430.581 55.28C431.141 55.92 431.261 56.2 431.261 57.44V65.04ZM439.415 52.84C438.855 52.84 438.695 53.32 438.695 53.64V54.16C438.695 54.36 438.735 54.4 438.895 54.4H441.255V66.44C441.255 69.28 442.495 70.4 444.335 70.4C446.175 70.4 448.175 69.52 449.735 67.76C449.655 67.36 449.415 67.12 449.015 67.08C447.975 67.88 446.775 68.2 445.735 68.2C444.655 68.2 444.415 67 444.415 64.52V54.4H448.575C448.975 54.4 449.535 54.24 449.535 53.88V53.08C449.535 52.92 449.415 52.84 449.215 52.84H444.415V51.28C444.415 48.68 444.575 47.08 444.575 47.08C444.575 46.84 444.455 46.72 444.255 46.72C444.095 46.72 443.735 46.88 443.375 47.08C442.935 47.32 442.535 47.52 442.015 47.64C441.535 47.8 441.135 47.92 441.135 48.2C441.135 48.68 441.255 48.4 441.255 52.84H439.415ZM457.032 58.56C457.032 57.72 457.392 57.24 457.712 56.88C459.232 55.4 461.272 54.52 462.832 54.52C463.632 54.52 464.472 55.04 464.952 55.96C465.352 56.76 465.432 57.84 465.432 59.04V65.12C465.432 68.4 465.032 68.56 462.952 68.76C462.752 69 462.752 69.84 462.952 70.08C464.072 70.04 465.432 70 467.032 70C468.632 70 469.952 70.04 471.272 70.08C471.472 69.84 471.472 69 471.272 68.76C469.032 68.56 468.592 68.4 468.592 65.12V59.16C468.592 56.96 468.432 55 467.512 53.8C466.832 52.92 465.592 52.44 464.192 52.44C462.232 52.44 459.832 52.96 457.392 55.68C457.392 55.72 457.352 55.72 457.312 55.76C457.192 55.92 456.992 56.16 456.992 55.68L457.032 46.68C457.032 44.08 457.192 42.48 457.192 42.48C457.192 42.2 457.032 42.08 456.672 42.08C455.672 42.48 452.672 43.04 451.072 43.16C450.992 43.48 451.072 44.12 451.312 44.36C451.432 44.36 451.552 44.36 451.672 44.36C453.432 44.48 453.872 44.48 453.872 47.64V65.12C453.872 68.44 453.392 68.6 451.072 68.76C450.832 69 450.832 69.84 451.072 70.08C452.392 70.04 453.872 70 455.472 70C456.992 70 458.312 70.04 459.432 70.08C459.672 69.84 459.672 69 459.432 68.76C457.392 68.6 457.032 68.44 457.032 65.12V58.56ZM484.315 51.28C484.315 52.12 485.075 52.84 485.915 52.84C486.595 52.84 487.795 52.12 487.795 51.24C487.795 50.92 487.715 50.68 487.635 50.4C487.555 50.12 487.315 49.76 487.315 49.44C487.315 48.44 488.355 47 491.275 47C492.715 47 494.755 48 494.755 51.84C494.755 54.4 493.835 56.48 491.475 58.88L488.515 61.8C484.595 65.8 483.955 67.72 483.955 70.08C483.955 70.08 485.995 70 487.275 70H494.275C495.555 70 497.395 70.08 497.395 70.08C497.915 67.96 498.315 64.96 498.355 63.76C498.115 63.56 497.595 63.48 497.195 63.56C496.515 66.4 495.835 67.4 494.395 67.4H487.275C487.275 65.48 490.035 62.76 490.235 62.56L494.275 58.68C496.555 56.48 498.275 54.72 498.275 51.68C498.275 47.36 494.755 45.6 491.515 45.6C487.075 45.6 484.315 48.88 484.315 51.28ZM504.629 66.2C503.389 66.2 502.509 67.04 502.509 68.16C502.509 69.4 503.549 69.8 504.269 69.92C505.029 70 505.709 70.24 505.709 71.16C505.709 72 504.269 73.84 502.189 74.36C502.189 74.76 502.269 75.04 502.549 75.32C504.949 74.88 507.269 72.96 507.269 70.16C507.269 67.76 506.229 66.2 504.629 66.2ZM525.938 54.24C525.698 54.48 525.538 54.4 525.538 54.04V46.68C525.538 44.08 525.698 42.48 525.698 42.48C525.698 42.2 525.538 42.08 525.178 42.08C524.178 42.48 521.178 43.04 519.578 43.16C519.498 43.48 519.578 44.12 519.818 44.36C519.938 44.36 520.058 44.36 520.178 44.36C521.938 44.48 522.378 44.48 522.378 47.64V67.16C522.378 68.72 522.338 69.44 522.218 70C522.418 70.32 522.618 70.48 523.098 70.48C523.338 70.24 523.738 69.88 524.058 69.52C524.458 69.04 524.698 69.04 525.138 69.4C526.058 70.16 527.258 70.4 528.658 70.4C532.738 70.4 537.498 66.68 537.498 60.32C537.498 55.44 533.898 52.44 530.418 52.44C528.698 52.44 527.178 53.12 525.938 54.24ZM526.218 55.48C527.258 54.56 528.458 54.2 529.618 54.2C532.058 54.2 534.058 57.16 534.058 61.04C534.058 65.6 532.218 69.04 528.418 69.04C527.178 69.04 526.338 68.16 525.538 67.16V57.16C525.538 56.32 525.698 55.92 526.218 55.48ZM554.815 66.28C553.335 67.8 552.175 68.44 549.855 68.44C548.415 68.44 546.735 67.6 545.495 65.56C544.695 64.24 544.215 62.4 544.215 60.08L554.855 60.16C555.335 60.16 555.615 59.92 555.615 59.48C555.615 56.12 554.415 52.52 548.855 52.52C545.375 52.52 540.855 55.84 540.855 61.92C540.855 64.16 541.415 66.32 542.735 67.84C544.095 69.44 545.975 70.4 548.855 70.4C551.895 70.4 554.055 69 555.655 66.92C555.535 66.52 555.295 66.32 554.815 66.28ZM544.335 58.72C545.095 54.2 547.895 53.84 548.855 53.84C550.375 53.84 552.175 54.68 552.175 58.04C552.175 58.4 552.015 58.6 551.575 58.6L544.335 58.72ZM573.459 66.36C573.299 66 572.979 65.84 572.619 65.8C571.259 67.56 569.539 68.44 567.819 68.44C564.899 68.44 562.459 65.48 562.459 60.8C562.459 56.4 564.379 53.76 567.019 53.76C569.379 53.76 569.699 55.16 569.859 56.56C569.979 57.64 570.539 58 571.379 58C572.219 58 573.339 57.48 573.339 56.24C573.339 54.04 571.059 52.44 567.219 52.44C563.259 52.44 559.019 56 559.019 61.68C559.019 66.84 561.899 70.4 566.939 70.4C569.339 70.4 571.459 69.64 573.459 66.36ZM586.368 68.08C586.608 69.32 587.048 70.4 589.048 70.4C590.568 70.4 592.008 69.72 592.848 68.92C592.768 68.44 592.608 68.08 592.168 67.84C591.888 68.08 591.208 68.48 590.688 68.48C589.528 68.48 589.488 66.92 589.488 65.08V59.2C589.488 53.52 586.368 52.44 583.448 52.44C580.168 52.44 576.848 54.6 576.848 56.88C576.848 57.84 577.328 58.32 578.248 58.32C579.408 58.32 580.128 57.48 580.128 56.96C580.128 56.68 580.088 56.4 580.008 56.24C579.968 56.12 579.928 55.88 579.928 55.44C579.928 54.2 581.608 53.76 583.128 53.76C584.488 53.76 586.368 54.44 586.368 58.96C586.368 59.24 586.248 59.4 586.128 59.44L582.688 60.28C578.848 61.24 576.088 63.36 576.088 66.08C576.088 69.36 578.328 70.4 581.128 70.4C582.528 70.4 583.728 70.08 585.488 68.72L586.288 68.08H586.368ZM586.368 60.68V65.96C586.368 66.48 586.128 66.76 585.808 67C584.768 67.84 583.408 68.76 582.288 68.76C580.288 68.76 579.408 67.16 579.408 65.92C579.408 64.12 580.248 62.28 583.208 61.52L586.368 60.68ZM601.61 70.4C603.17 70.4 605.05 69.6 607.01 68C607.21 67.84 607.57 67.76 607.61 68.04C607.73 69.04 608.05 70.4 608.05 70.4C608.37 70.52 608.57 70.48 608.81 70.4C609.69 69.68 611.09 69.08 613.53 68.8C613.77 68.56 613.77 67.96 613.53 67.72C610.97 67.52 610.61 66.76 610.61 64.8V57.12C610.61 55.92 610.77 53 610.77 53C610.77 52.88 610.65 52.76 610.45 52.76C610.25 52.8 609.65 52.84 609.05 52.84C607.77 52.84 606.33 52.8 604.97 52.76C604.73 53 604.73 53.84 604.97 54.08C606.93 54.2 607.45 54.68 607.45 57.32V65.04C607.45 65.8 607.37 66.12 606.81 66.6C605.33 67.88 603.81 68.52 602.81 68.52C601.61 68.52 599.61 67.96 599.61 64.4V57.12C599.61 55.92 599.77 53 599.77 53C599.77 52.88 599.65 52.76 599.45 52.76C599.25 52.8 598.65 52.84 598.05 52.84C596.77 52.84 595.33 52.8 593.97 52.76C593.73 53 593.73 53.84 593.97 54.08C595.89 54.24 596.45 54.68 596.45 57.28V64.96C596.45 67.72 597.65 70.4 601.61 70.4ZM616.1 64.48C616.26 66.44 616.38 68.32 616.38 70C616.78 69.92 617.18 69.88 617.38 69.88C617.66 69.88 617.9 69.88 618.18 69.96C619.26 70.24 620.34 70.4 621.82 70.4C624.06 70.4 628.18 69.32 628.18 65.36C628.18 62.64 626.22 61.04 623.5 60.04C621.1 59.12 619.5 58.52 619.5 56.32C619.5 54.68 620.94 53.76 622.3 53.76C623.18 53.76 625.5 54.08 626.02 57.48C626.26 57.72 627.06 57.68 627.3 57.44C627.42 56 627.5 54.52 627.54 53.2C626.3 53 624.38 52.44 622.3 52.44C619.34 52.44 616.66 54.36 616.66 56.92C616.66 59.84 617.98 61.08 621.06 62.36C624.38 63.72 625.14 64.56 625.14 66.28C625.14 68.24 623.22 69.08 621.74 69.08C620.18 69.08 619.3 68.56 618.9 68.12C618.02 67.2 617.58 65.44 617.34 64.44C617.1 64.2 616.34 64.24 616.1 64.48ZM645.206 66.28C643.726 67.8 642.566 68.44 640.246 68.44C638.806 68.44 637.126 67.6 635.886 65.56C635.086 64.24 634.606 62.4 634.606 60.08L645.246 60.16C645.726 60.16 646.006 59.92 646.006 59.48C646.006 56.12 644.806 52.52 639.246 52.52C635.766 52.52 631.246 55.84 631.246 61.92C631.246 64.16 631.806 66.32 633.126 67.84C634.486 69.44 636.366 70.4 639.246 70.4C642.286 70.4 644.446 69 646.046 66.92C645.926 66.52 645.686 66.32 645.206 66.28ZM634.726 58.72C635.486 54.2 638.286 53.84 639.246 53.84C640.766 53.84 642.566 54.68 642.566 58.04C642.566 58.4 642.406 58.6 641.966 58.6L634.726 58.72ZM664.896 65.12V57.16C664.896 55.16 665.056 52.6 665.056 52.6C665.056 52.44 664.856 52.32 664.536 52.32C663.416 52.76 661.816 53.12 659.056 53.48C658.976 53.72 659.056 54.36 659.136 54.6C661.336 54.8 661.736 55.04 661.736 57.32V65.12C661.736 68.44 661.296 68.56 658.856 68.76C658.616 69 658.616 69.84 658.856 70.08C660.176 70.04 661.736 70 663.336 70C664.936 70 666.456 70.04 667.776 70.08C668.016 69.84 668.016 69 667.776 68.76C665.336 68.6 664.896 68.44 664.896 65.12ZM661.256 46.04C661.256 47.08 662.216 48.12 663.176 48.12C664.296 48.12 665.256 47.04 665.256 46.2C665.256 45.24 664.416 44.12 663.336 44.12C662.376 44.12 661.256 45.08 661.256 46.04ZM670.236 52.84C669.676 52.84 669.516 53.32 669.516 53.64V54.16C669.516 54.36 669.556 54.4 669.716 54.4H672.076V66.44C672.076 69.28 673.316 70.4 675.156 70.4C676.996 70.4 678.996 69.52 680.556 67.76C680.476 67.36 680.236 67.12 679.836 67.08C678.796 67.88 677.596 68.2 676.556 68.2C675.476 68.2 675.236 67 675.236 64.52V54.4H679.396C679.796 54.4 680.356 54.24 680.356 53.88V53.08C680.356 52.92 680.236 52.84 680.036 52.84H675.236V51.28C675.236 48.68 675.396 47.08 675.396 47.08C675.396 46.84 675.276 46.72 675.076 46.72C674.916 46.72 674.556 46.88 674.196 47.08C673.756 47.32 673.356 47.52 672.836 47.64C672.356 47.8 671.956 47.92 671.956 48.2C671.956 48.68 672.076 48.4 672.076 52.84H670.236ZM707.092 66.36C706.932 66 706.612 65.84 706.252 65.8C704.892 67.56 703.172 68.44 701.452 68.44C698.532 68.44 696.092 65.48 696.092 60.8C696.092 56.4 698.012 53.76 700.652 53.76C703.012 53.76 703.332 55.16 703.492 56.56C703.612 57.64 704.172 58 705.012 58C705.852 58 706.972 57.48 706.972 56.24C706.972 54.04 704.692 52.44 700.852 52.44C696.892 52.44 692.652 56 692.652 61.68C692.652 66.84 695.532 70.4 700.572 70.4C702.972 70.4 705.092 69.64 707.092 66.36ZM720.001 68.08C720.241 69.32 720.681 70.4 722.681 70.4C724.201 70.4 725.641 69.72 726.481 68.92C726.401 68.44 726.241 68.08 725.801 67.84C725.521 68.08 724.841 68.48 724.321 68.48C723.161 68.48 723.121 66.92 723.121 65.08V59.2C723.121 53.52 720.001 52.44 717.081 52.44C713.801 52.44 710.481 54.6 710.481 56.88C710.481 57.84 710.961 58.32 711.881 58.32C713.041 58.32 713.761 57.48 713.761 56.96C713.761 56.68 713.721 56.4 713.641 56.24C713.601 56.12 713.561 55.88 713.561 55.44C713.561 54.2 715.241 53.76 716.761 53.76C718.121 53.76 720.001 54.44 720.001 58.96C720.001 59.24 719.881 59.4 719.761 59.44L716.321 60.28C712.481 61.24 709.721 63.36 709.721 66.08C709.721 69.36 711.961 70.4 714.761 70.4C716.161 70.4 717.361 70.08 719.121 68.72L719.921 68.08H720.001ZM720.001 60.68V65.96C720.001 66.48 719.761 66.76 719.441 67C718.401 67.84 717.041 68.76 715.921 68.76C713.921 68.76 713.041 67.16 713.041 65.92C713.041 64.12 713.881 62.28 716.841 61.52L720.001 60.68ZM733.923 55.68C733.683 55.96 733.443 56.04 733.443 55.68C733.403 54.6 733.323 53.04 733.123 52.64C733.043 52.44 732.963 52.32 732.643 52.32C731.523 52.76 730.483 53.12 727.723 53.48C727.643 53.72 727.723 54.36 727.803 54.6C729.963 54.8 730.403 55 730.403 57.32V65.12C730.403 68.4 730.003 68.56 727.603 68.76C727.363 69 727.363 69.84 727.603 70.08C728.803 70.04 730.403 70 732.003 70C733.603 70 734.803 70.04 736.003 70.08C736.243 69.84 736.243 69 736.003 68.76C733.963 68.56 733.563 68.4 733.563 65.12V58.56C733.563 57.72 733.923 57.24 734.243 56.88C735.763 55.4 737.563 54.52 739.123 54.52C739.923 54.52 740.763 55.04 741.243 55.96C741.643 56.76 741.723 57.84 741.723 59.04V65.12C741.723 68.4 741.323 68.56 739.243 68.76C739.043 69 739.043 69.84 739.243 70.08C740.443 70.04 741.723 70 743.323 70C744.923 70 746.363 70.04 747.563 70.08C747.763 69.84 747.763 69 747.563 68.76C745.323 68.56 744.883 68.4 744.883 65.12V59.16C744.883 56.96 744.723 55.04 743.803 53.8C743.123 52.92 741.883 52.44 740.483 52.44C738.523 52.44 736.283 52.96 733.923 55.68ZM764.922 54.24C764.682 54.48 764.522 54.4 764.522 54.04V46.68C764.522 44.08 764.682 42.48 764.682 42.48C764.682 42.2 764.522 42.08 764.162 42.08C763.162 42.48 760.162 43.04 758.562 43.16C758.482 43.48 758.562 44.12 758.802 44.36C758.922 44.36 759.042 44.36 759.162 44.36C760.922 44.48 761.362 44.48 761.362 47.64V67.16C761.362 68.72 761.322 69.44 761.202 70C761.402 70.32 761.602 70.48 762.082 70.48C762.322 70.24 762.722 69.88 763.042 69.52C763.442 69.04 763.682 69.04 764.122 69.4C765.042 70.16 766.242 70.4 767.642 70.4C771.722 70.4 776.482 66.68 776.482 60.32C776.482 55.44 772.882 52.44 769.402 52.44C767.682 52.44 766.162 53.12 764.922 54.24ZM765.202 55.48C766.242 54.56 767.442 54.2 768.602 54.2C771.042 54.2 773.042 57.16 773.042 61.04C773.042 65.6 771.202 69.04 767.402 69.04C766.162 69.04 765.322 68.16 764.522 67.16V57.16C764.522 56.32 764.682 55.92 765.202 55.48ZM793.799 66.28C792.319 67.8 791.159 68.44 788.839 68.44C787.399 68.44 785.719 67.6 784.479 65.56C783.679 64.24 783.199 62.4 783.199 60.08L793.839 60.16C794.319 60.16 794.599 59.92 794.599 59.48C794.599 56.12 793.399 52.52 787.839 52.52C784.359 52.52 779.839 55.84 779.839 61.92C779.839 64.16 780.399 66.32 781.719 67.84C783.079 69.44 784.959 70.4 787.839 70.4C790.879 70.4 793.039 69 794.639 66.92C794.519 66.52 794.279 66.32 793.799 66.28ZM783.319 58.72C784.079 54.2 786.879 53.84 787.839 53.84C789.359 53.84 791.159 54.68 791.159 58.04C791.159 58.4 790.999 58.6 790.559 58.6L783.319 58.72ZM822.17 66.36C822.01 66 821.69 65.84 821.33 65.8C819.97 67.56 818.25 68.44 816.53 68.44C813.61 68.44 811.17 65.48 811.17 60.8C811.17 56.4 813.09 53.76 815.73 53.76C818.09 53.76 818.41 55.16 818.57 56.56C818.69 57.64 819.25 58 820.09 58C820.93 58 822.05 57.48 822.05 56.24C822.05 54.04 819.77 52.44 815.93 52.44C811.97 52.44 807.73 56 807.73 61.68C807.73 66.84 810.61 70.4 815.65 70.4C818.05 70.4 820.17 69.64 822.17 66.36ZM824.999 61.8C824.999 65.88 827.719 70.4 833.399 70.4C835.959 70.4 837.919 69.48 839.279 68.16C841.079 66.4 841.879 63.88 841.879 61.44C841.879 57.28 839.599 52.44 833.479 52.44C830.839 52.44 828.679 53.52 827.199 55.24C825.759 56.96 824.999 59.28 824.999 61.8ZM832.879 53.84C836.319 53.84 838.439 56.96 838.439 62.72C838.439 67.76 835.839 69 833.959 69C829.799 69 828.439 63.96 828.439 60.88C828.439 57.4 829.279 53.84 832.879 53.84ZM850.876 55.68C850.636 55.96 850.396 56.04 850.396 55.68C850.356 54.6 850.276 53.04 850.076 52.64C849.996 52.44 849.916 52.32 849.596 52.32C848.476 52.76 847.436 53.12 844.676 53.48C844.596 53.72 844.676 54.36 844.756 54.6C846.916 54.8 847.356 55 847.356 57.32V65.12C847.356 68.4 846.956 68.56 844.556 68.76C844.316 69 844.316 69.84 844.556 70.08C845.756 70.04 847.356 70 848.956 70C850.556 70 851.756 70.04 852.956 70.08C853.196 69.84 853.196 69 852.956 68.76C850.916 68.56 850.516 68.4 850.516 65.12V58.56C850.516 57.72 850.876 57.24 851.196 56.88C852.716 55.4 854.516 54.52 856.076 54.52C856.876 54.52 857.716 55.04 858.196 55.96C858.596 56.76 858.676 57.84 858.676 59.04V65.12C858.676 68.4 858.276 68.56 856.196 68.76C855.996 69 855.996 69.84 856.196 70.08C857.396 70.04 858.676 70 860.276 70C861.876 70 863.316 70.04 864.516 70.08C864.716 69.84 864.716 69 864.516 68.76C862.276 68.56 861.836 68.4 861.836 65.12V59.16C861.836 56.96 861.676 55.04 860.756 53.8C860.076 52.92 858.836 52.44 857.436 52.44C855.476 52.44 853.236 52.96 850.876 55.68ZM867.115 64.48C867.275 66.44 867.395 68.32 867.395 70C867.795 69.92 868.195 69.88 868.395 69.88C868.675 69.88 868.915 69.88 869.195 69.96C870.275 70.24 871.355 70.4 872.835 70.4C875.075 70.4 879.195 69.32 879.195 65.36C879.195 62.64 877.235 61.04 874.515 60.04C872.115 59.12 870.515 58.52 870.515 56.32C870.515 54.68 871.955 53.76 873.315 53.76C874.195 53.76 876.515 54.08 877.035 57.48C877.275 57.72 878.075 57.68 878.315 57.44C878.435 56 878.515 54.52 878.555 53.2C877.315 53 875.395 52.44 873.315 52.44C870.355 52.44 867.675 54.36 867.675 56.92C867.675 59.84 868.995 61.08 872.075 62.36C875.395 63.72 876.155 64.56 876.155 66.28C876.155 68.24 874.235 69.08 872.755 69.08C871.195 69.08 870.315 68.56 869.915 68.12C869.035 67.2 868.595 65.44 868.355 64.44C868.115 64.2 867.355 64.24 867.115 64.48ZM882.501 52.84C881.941 52.84 881.781 53.32 881.781 53.64V54.16C881.781 54.36 881.821 54.4 881.981 54.4H884.341V66.44C884.341 69.28 885.581 70.4 887.421 70.4C889.261 70.4 891.261 69.52 892.821 67.76C892.741 67.36 892.501 67.12 892.101 67.08C891.061 67.88 889.861 68.2 888.821 68.2C887.741 68.2 887.501 67 887.501 64.52V54.4H891.661C892.061 54.4 892.621 54.24 892.621 53.88V53.08C892.621 52.92 892.501 52.84 892.301 52.84H887.501V51.28C887.501 48.68 887.661 47.08 887.661 47.08C887.661 46.84 887.541 46.72 887.341 46.72C887.181 46.72 886.821 46.88 886.461 47.08C886.021 47.32 885.621 47.52 885.101 47.64C884.621 47.8 884.221 47.92 884.221 48.2C884.221 48.68 884.341 48.4 884.341 52.84H882.501ZM900.478 55.68C900.398 54.08 900.358 53.04 900.158 52.64C900.078 52.44 899.998 52.32 899.678 52.32C898.558 52.76 897.518 53.12 894.757 53.48C894.678 53.72 894.757 54.36 894.838 54.6C896.998 54.8 897.438 55 897.438 57.32V65.12C897.438 68.44 896.958 68.6 894.478 68.76C894.238 69 894.238 69.84 894.478 70.08C895.878 70.04 897.438 70 899.038 70C900.638 70 902.478 70.04 903.878 70.08C904.118 69.84 904.118 69 903.878 68.76C901.078 68.56 900.598 68.44 900.598 65.12V59.56C900.598 58.52 901.078 57.6 901.558 56.88C901.998 56.24 902.918 54.92 903.398 54.92C903.758 54.92 904.118 55 904.438 55.44C904.718 55.84 905.197 56.36 905.878 56.36C906.838 56.36 907.758 55.36 907.758 54.36C907.758 53.6 907.038 52.44 905.358 52.44C903.478 52.44 901.838 54.2 900.918 55.76C900.678 56.2 900.478 55.88 900.478 55.68ZM917 70.4C918.56 70.4 920.44 69.6 922.4 68C922.6 67.84 922.96 67.76 923 68.04C923.12 69.04 923.44 70.4 923.44 70.4C923.76 70.52 923.96 70.48 924.2 70.4C925.08 69.68 926.48 69.08 928.92 68.8C929.16 68.56 929.16 67.96 928.92 67.72C926.36 67.52 926 66.76 926 64.8V57.12C926 55.92 926.16 53 926.16 53C926.16 52.88 926.04 52.76 925.84 52.76C925.64 52.8 925.04 52.84 924.44 52.84C923.16 52.84 921.72 52.8 920.36 52.76C920.12 53 920.12 53.84 920.36 54.08C922.32 54.2 922.84 54.68 922.84 57.32V65.04C922.84 65.8 922.76 66.12 922.2 66.6C920.72 67.88 919.2 68.52 918.2 68.52C917 68.52 915 67.96 915 64.4V57.12C915 55.92 915.16 53 915.16 53C915.16 52.88 915.04 52.76 914.84 52.76C914.64 52.8 914.04 52.84 913.44 52.84C912.16 52.84 910.72 52.8 909.36 52.76C909.12 53 909.12 53.84 909.36 54.08C911.28 54.24 911.84 54.68 911.84 57.28V64.96C911.84 67.72 913.04 70.4 917 70.4ZM945.49 66.36C945.33 66 945.01 65.84 944.65 65.8C943.29 67.56 941.57 68.44 939.85 68.44C936.93 68.44 934.49 65.48 934.49 60.8C934.49 56.4 936.41 53.76 939.05 53.76C941.41 53.76 941.73 55.16 941.89 56.56C942.01 57.64 942.57 58 943.41 58C944.25 58 945.37 57.48 945.37 56.24C945.37 54.04 943.09 52.44 939.25 52.44C935.29 52.44 931.05 56 931.05 61.68C931.05 66.84 933.93 70.4 938.97 70.4C941.37 70.4 943.49 69.64 945.49 66.36ZM948.4 52.84C947.84 52.84 947.68 53.32 947.68 53.64V54.16C947.68 54.36 947.72 54.4 947.88 54.4H950.24V66.44C950.24 69.28 951.48 70.4 953.32 70.4C955.16 70.4 957.16 69.52 958.72 67.76C958.64 67.36 958.4 67.12 958 67.08C956.96 67.88 955.76 68.2 954.72 68.2C953.64 68.2 953.4 67 953.4 64.52V54.4H957.56C957.96 54.4 958.52 54.24 958.52 53.88V53.08C958.52 52.92 958.4 52.84 958.2 52.84H953.4V51.28C953.4 48.68 953.56 47.08 953.56 47.08C953.56 46.84 953.44 46.72 953.24 46.72C953.08 46.72 952.72 46.88 952.36 47.08C951.92 47.32 951.52 47.52 951 47.64C950.52 47.8 950.12 47.92 950.12 48.2C950.12 48.68 950.24 48.4 950.24 52.84H948.4ZM974.776 66.28C973.296 67.8 972.136 68.44 969.816 68.44C968.376 68.44 966.696 67.6 965.456 65.56C964.656 64.24 964.176 62.4 964.176 60.08L974.816 60.16C975.296 60.16 975.576 59.92 975.576 59.48C975.576 56.12 974.376 52.52 968.816 52.52C965.336 52.52 960.816 55.84 960.816 61.92C960.816 64.16 961.376 66.32 962.696 67.84C964.056 69.44 965.936 70.4 968.816 70.4C971.856 70.4 974.016 69 975.616 66.92C975.496 66.52 975.256 66.32 974.776 66.28ZM964.296 58.72C965.056 54.2 967.856 53.84 968.816 53.84C970.336 53.84 972.136 54.68 972.136 58.04C972.136 58.4 971.976 58.6 971.536 58.6L964.296 58.72ZM990.86 68C991.06 67.84 991.42 67.76 991.46 68.04C991.58 69 991.9 70.4 991.9 70.4C992.22 70.52 992.42 70.48 992.66 70.4C993.54 69.68 994.94 69.08 997.38 68.8C997.62 68.56 997.62 67.96 997.38 67.72C994.82 67.52 994.46 66.76 994.46 64.8V46.68C994.46 44.08 994.62 42.48 994.62 42.48C994.62 42.2 994.46 42.08 994.1 42.08C993.1 42.48 990.1 43.04 988.5 43.16C988.42 43.48 988.5 44.12 988.74 44.36C988.86 44.36 988.98 44.36 989.1 44.36C990.86 44.48 991.3 44.48 991.3 47.64V52.76C991.3 53.04 991.22 53.12 990.94 53.12C990.78 53.12 989.14 52.44 987.82 52.44C985.18 52.44 983.42 53.32 981.82 54.84C980.1 56.56 979.06 58.92 979.06 61.88C979.06 66.8 981.54 70.4 985.86 70.4C987.42 70.4 988.9 69.6 990.86 68ZM991.3 65.04C991.3 65.8 991.22 66.12 990.66 66.6C989.18 67.88 987.9 68.52 986.9 68.52C984.74 68.52 982.5 66.16 982.5 61.16C982.5 58.28 983.06 56.68 983.66 55.84C984.9 53.96 986.58 53.84 987.38 53.84C988.82 53.84 989.82 54.36 990.62 55.28C991.18 55.92 991.3 56.2 991.3 57.44V65.04ZM1016.41 70.4C1017.97 70.4 1019.85 69.6 1021.81 68C1022.01 67.84 1022.37 67.76 1022.41 68.04C1022.53 69.04 1022.85 70.4 1022.85 70.4C1023.17 70.52 1023.37 70.48 1023.61 70.4C1024.49 69.68 1025.89 69.08 1028.33 68.8C1028.57 68.56 1028.57 67.96 1028.33 67.72C1025.77 67.52 1025.41 66.76 1025.41 64.8V57.12C1025.41 55.92 1025.57 53 1025.57 53C1025.57 52.88 1025.45 52.76 1025.25 52.76C1025.05 52.8 1024.45 52.84 1023.85 52.84C1022.57 52.84 1021.13 52.8 1019.77 52.76C1019.53 53 1019.53 53.84 1019.77 54.08C1021.73 54.2 1022.25 54.68 1022.25 57.32V65.04C1022.25 65.8 1022.17 66.12 1021.61 66.6C1020.13 67.88 1018.61 68.52 1017.61 68.52C1016.41 68.52 1014.41 67.96 1014.41 64.4V57.12C1014.41 55.92 1014.57 53 1014.57 53C1014.57 52.88 1014.45 52.76 1014.25 52.76C1014.05 52.8 1013.45 52.84 1012.85 52.84C1011.57 52.84 1010.13 52.8 1008.77 52.76C1008.53 53 1008.53 53.84 1008.77 54.08C1010.69 54.24 1011.25 54.68 1011.25 57.28V64.96C1011.25 67.72 1012.45 70.4 1016.41 70.4ZM1030.9 64.48C1031.06 66.44 1031.18 68.32 1031.18 70C1031.58 69.92 1031.98 69.88 1032.18 69.88C1032.46 69.88 1032.7 69.88 1032.98 69.96C1034.06 70.24 1035.14 70.4 1036.62 70.4C1038.86 70.4 1042.98 69.32 1042.98 65.36C1042.98 62.64 1041.02 61.04 1038.3 60.04C1035.9 59.12 1034.3 58.52 1034.3 56.32C1034.3 54.68 1035.74 53.76 1037.1 53.76C1037.98 53.76 1040.3 54.08 1040.82 57.48C1041.06 57.72 1041.86 57.68 1042.1 57.44C1042.22 56 1042.3 54.52 1042.34 53.2C1041.1 53 1039.18 52.44 1037.1 52.44C1034.14 52.44 1031.46 54.36 1031.46 56.92C1031.46 59.84 1032.78 61.08 1035.86 62.36C1039.18 63.72 1039.94 64.56 1039.94 66.28C1039.94 68.24 1038.02 69.08 1036.54 69.08C1034.98 69.08 1034.1 68.56 1033.7 68.12C1032.82 67.2 1032.38 65.44 1032.14 64.44C1031.9 64.2 1031.14 64.24 1030.9 64.48ZM1051.81 65.12V57.16C1051.81 55.16 1051.97 52.6 1051.97 52.6C1051.97 52.44 1051.77 52.32 1051.45 52.32C1050.33 52.76 1048.73 53.12 1045.97 53.48C1045.89 53.72 1045.97 54.36 1046.05 54.6C1048.25 54.8 1048.65 55.04 1048.65 57.32V65.12C1048.65 68.44 1048.21 68.56 1045.77 68.76C1045.53 69 1045.53 69.84 1045.77 70.08C1047.09 70.04 1048.65 70 1050.25 70C1051.85 70 1053.37 70.04 1054.69 70.08C1054.93 69.84 1054.93 69 1054.69 68.76C1052.25 68.6 1051.81 68.44 1051.81 65.12ZM1048.17 46.04C1048.17 47.08 1049.13 48.12 1050.09 48.12C1051.21 48.12 1052.17 47.04 1052.17 46.2C1052.17 45.24 1051.33 44.12 1050.25 44.12C1049.29 44.12 1048.17 45.08 1048.17 46.04ZM1062.79 55.68C1062.55 55.96 1062.31 56.04 1062.31 55.68C1062.27 54.6 1062.19 53.04 1061.99 52.64C1061.91 52.44 1061.83 52.32 1061.51 52.32C1060.39 52.76 1059.35 53.12 1056.59 53.48C1056.51 53.72 1056.59 54.36 1056.67 54.6C1058.83 54.8 1059.27 55 1059.27 57.32V65.12C1059.27 68.4 1058.87 68.56 1056.47 68.76C1056.23 69 1056.23 69.84 1056.47 70.08C1057.67 70.04 1059.27 70 1060.87 70C1062.47 70 1063.67 70.04 1064.87 70.08C1065.11 69.84 1065.11 69 1064.87 68.76C1062.83 68.56 1062.43 68.4 1062.43 65.12V58.56C1062.43 57.72 1062.79 57.24 1063.11 56.88C1064.63 55.4 1066.43 54.52 1067.99 54.52C1068.79 54.52 1069.63 55.04 1070.11 55.96C1070.51 56.76 1070.59 57.84 1070.59 59.04V65.12C1070.59 68.4 1070.19 68.56 1068.11 68.76C1067.91 69 1067.91 69.84 1068.11 70.08C1069.31 70.04 1070.59 70 1072.19 70C1073.79 70 1075.23 70.04 1076.43 70.08C1076.63 69.84 1076.63 69 1076.43 68.76C1074.19 68.56 1073.75 68.4 1073.75 65.12V59.16C1073.75 56.96 1073.59 55.04 1072.67 53.8C1071.99 52.92 1070.75 52.44 1069.35 52.44C1067.39 52.44 1065.15 52.96 1062.79 55.68ZM1094.87 54.52C1095.63 54.52 1096.35 53.8 1096.35 53C1096.35 52.16 1095.59 51.52 1094.51 51.52C1093.47 51.52 1091.55 52.2 1090.51 53.56C1090.03 53.24 1088.71 52.44 1086.35 52.44C1082.79 52.44 1079.51 54.84 1079.51 58.52C1079.51 60.68 1080.47 61.92 1081.59 63C1080.47 63.96 1079.83 65.68 1079.83 67.04C1079.83 68.48 1080.63 69.6 1081.67 70.12C1079.51 71.4 1078.39 73.24 1078.39 74.96C1078.39 78.44 1081.67 79.52 1084.75 79.52C1090.15 79.52 1095.99 76.92 1095.99 72.6C1095.99 71.32 1095.39 70.32 1094.23 69.36C1092.67 68.08 1089.87 68.04 1088.39 68.04C1087.67 68.04 1086.67 68.12 1085.71 68.24C1085.11 68.28 1084.71 68.32 1084.51 68.32C1083.35 68.32 1081.95 67.76 1081.95 66.04C1081.95 65.24 1082.19 64.4 1082.67 63.72C1083.63 64.28 1084.75 64.56 1086.31 64.56C1089.83 64.56 1093.07 62.36 1093.07 58.44C1093.07 56.56 1092.51 55.48 1091.35 54.28C1091.63 53.88 1092.43 53.32 1092.95 53.32C1093.23 53.32 1093.51 53.44 1093.75 53.8C1093.91 54.12 1094.43 54.52 1094.87 54.52ZM1082.39 70.4C1082.83 70.52 1083.47 70.6 1083.99 70.6C1085.23 70.6 1086.35 70.48 1086.91 70.48C1088.91 70.48 1090.59 70.52 1091.75 71.16C1093.31 72.04 1093.79 72.6 1093.79 73.64C1093.79 76.52 1089.55 78.04 1085.95 78.04C1084.51 78.04 1081.15 76.88 1081.15 74.16C1081.15 72.8 1081.23 71.8 1082.39 70.4ZM1089.87 58.84C1089.87 62.56 1087.99 63.32 1086.51 63.32C1083.15 63.32 1082.79 60.48 1082.79 57.92C1082.79 55.12 1083.79 53.68 1085.99 53.68C1088.51 53.68 1089.87 55.52 1089.87 58.84ZM1115.71 47C1117.43 47 1119.03 48.04 1119.03 50.6C1119.03 52.6 1116.71 55.68 1112.75 56.24L1112.95 57.52C1113.63 57.44 1114.35 57.44 1114.87 57.44C1117.15 57.44 1120.11 58.08 1120.11 62.6C1120.11 67.92 1116.55 69 1115.15 69C1113.11 69 1112.75 68.08 1112.27 67.36C1111.87 66.8 1111.35 66.32 1110.55 66.32C1109.71 66.32 1108.87 67.08 1108.87 67.72C1108.87 69.32 1112.23 70.4 1114.63 70.4C1119.39 70.4 1123.63 67.32 1123.63 62.04C1123.63 57.68 1120.35 56.12 1117.99 55.72L1117.95 55.64C1121.23 54.08 1122.15 52.44 1122.15 50.32C1122.15 49.12 1121.87 48.16 1120.91 47.16C1120.03 46.28 1118.63 45.6 1116.55 45.6C1110.67 45.6 1108.99 49.44 1108.99 50.76C1108.99 51.32 1109.39 52.12 1110.35 52.12C1111.75 52.12 1111.91 50.8 1111.91 50.04C1111.91 47.48 1114.67 47 1115.71 47ZM1141.94 55.28C1141.9 54.08 1141.82 53.04 1141.62 52.64C1141.54 52.44 1141.46 52.32 1141.14 52.32C1140.02 52.76 1138.98 53.12 1136.22 53.48C1136.14 53.72 1136.22 54.36 1136.3 54.6C1138.46 54.8 1138.9 55 1138.9 57.32V74.4C1138.9 77.72 1138.46 77.92 1136.02 78.04C1135.78 78.28 1135.78 79.12 1136.02 79.36C1137.42 79.32 1138.9 79.28 1140.5 79.28C1142.1 79.28 1144.02 79.32 1145.34 79.36C1145.58 79.12 1145.58 78.28 1145.34 78.04C1142.5 77.88 1142.06 77.72 1142.06 74.4V70.08C1142.06 69.56 1142.22 69.6 1142.62 69.76C1143.62 70.16 1144.82 70.4 1146.1 70.4C1148.34 70.4 1150.34 69.72 1151.98 68.16C1153.86 66.32 1154.94 63.84 1154.94 60.6C1154.94 56.36 1151.94 52.44 1147.86 52.44C1146.02 52.44 1143.98 53.64 1142.38 55.44C1142.14 55.68 1141.98 55.68 1141.94 55.28ZM1142.7 56.76C1143.74 55.48 1145.58 54.28 1146.74 54.28C1149.3 54.28 1151.5 57.16 1151.5 61.68C1151.5 64.96 1150.34 69.04 1145.86 69.04C1145.14 69.04 1143.74 68.84 1143.02 68.2C1142.22 67.48 1142.06 67.24 1142.06 65.8V58.52C1142.06 57.68 1142.22 57.32 1142.7 56.76ZM1158.36 61.8C1158.36 65.88 1161.08 70.4 1166.76 70.4C1169.32 70.4 1171.28 69.48 1172.64 68.16C1174.44 66.4 1175.24 63.88 1175.24 61.44C1175.24 57.28 1172.96 52.44 1166.84 52.44C1164.2 52.44 1162.04 53.52 1160.56 55.24C1159.12 56.96 1158.36 59.28 1158.36 61.8ZM1166.24 53.84C1169.68 53.84 1171.8 56.96 1171.8 62.72C1171.8 67.76 1169.2 69 1167.32 69C1163.16 69 1161.8 63.96 1161.8 60.88C1161.8 57.4 1162.64 53.84 1166.24 53.84ZM1183.92 55.68C1183.84 54.08 1183.8 53.04 1183.6 52.64C1183.52 52.44 1183.44 52.32 1183.12 52.32C1182 52.76 1180.96 53.12 1178.19 53.48C1178.12 53.72 1178.19 54.36 1178.28 54.6C1180.44 54.8 1180.88 55 1180.88 57.32V65.12C1180.88 68.44 1180.4 68.6 1177.92 68.76C1177.68 69 1177.68 69.84 1177.92 70.08C1179.32 70.04 1180.88 70 1182.48 70C1184.08 70 1185.92 70.04 1187.32 70.08C1187.56 69.84 1187.56 69 1187.32 68.76C1184.52 68.56 1184.04 68.44 1184.04 65.12V59.56C1184.04 58.52 1184.52 57.6 1185 56.88C1185.44 56.24 1186.36 54.92 1186.84 54.92C1187.2 54.92 1187.56 55 1187.88 55.44C1188.16 55.84 1188.63 56.36 1189.32 56.36C1190.28 56.36 1191.2 55.36 1191.2 54.36C1191.2 53.6 1190.48 52.44 1188.8 52.44C1186.92 52.44 1185.28 54.2 1184.36 55.76C1184.12 56.2 1183.92 55.88 1183.92 55.68ZM1193.48 52.84C1192.92 52.84 1192.76 53.32 1192.76 53.64V54.16C1192.76 54.36 1192.8 54.4 1192.96 54.4H1195.32V66.44C1195.32 69.28 1196.56 70.4 1198.4 70.4C1200.24 70.4 1202.24 69.52 1203.8 67.76C1203.72 67.36 1203.48 67.12 1203.08 67.08C1202.04 67.88 1200.84 68.2 1199.8 68.2C1198.72 68.2 1198.48 67 1198.48 64.52V54.4H1202.64C1203.04 54.4 1203.6 54.24 1203.6 53.88V53.08C1203.6 52.92 1203.48 52.84 1203.28 52.84H1198.48V51.28C1198.48 48.68 1198.64 47.08 1198.64 47.08C1198.64 46.84 1198.52 46.72 1198.32 46.72C1198.16 46.72 1197.8 46.88 1197.44 47.08C1197 47.32 1196.6 47.52 1196.08 47.64C1195.6 47.8 1195.2 47.92 1195.2 48.2C1195.2 48.68 1195.32 48.4 1195.32 52.84H1193.48ZM1206.33 64.48C1206.49 66.44 1206.61 68.32 1206.61 70C1207.01 69.92 1207.41 69.88 1207.61 69.88C1207.89 69.88 1208.13 69.88 1208.41 69.96C1209.49 70.24 1210.57 70.4 1212.05 70.4C1214.29 70.4 1218.41 69.32 1218.41 65.36C1218.41 62.64 1216.45 61.04 1213.73 60.04C1211.33 59.12 1209.73 58.52 1209.73 56.32C1209.73 54.68 1211.17 53.76 1212.53 53.76C1213.41 53.76 1215.73 54.08 1216.25 57.48C1216.49 57.72 1217.29 57.68 1217.53 57.44C1217.65 56 1217.73 54.52 1217.77 53.2C1216.53 53 1214.61 52.44 1212.53 52.44C1209.57 52.44 1206.89 54.36 1206.89 56.92C1206.89 59.84 1208.21 61.08 1211.29 62.36C1214.61 63.72 1215.37 64.56 1215.37 66.28C1215.37 68.24 1213.45 69.08 1211.97 69.08C1210.41 69.08 1209.53 68.56 1209.13 68.12C1208.25 67.2 1207.81 65.44 1207.57 64.44C1207.33 64.2 1206.57 64.24 1206.33 64.48ZM1222.28 68.28C1222.28 69.44 1223.24 70.4 1224.4 70.4C1225.56 70.4 1226.52 69.44 1226.52 68.28C1226.52 67.12 1225.56 66.16 1224.4 66.16C1223.24 66.16 1222.28 67.12 1222.28 68.28Z" fill="black"/>
<path id="140:496" d="M756.2 116.84L758.4 111.04C758.6 110.52 758.84 110.36 759.8 110.36H768.24L770.56 117.12C771.04 118.48 769.52 118.64 767.6 118.76C767.36 119 767.36 119.84 767.6 120.08C769.08 120.04 771.28 120 772.84 120C774.48 120 776 120.04 777.4 120.08C777.64 119.84 777.64 119 777.4 118.76C775.84 118.6 774.48 118.48 773.8 116.56L765.56 93.68C764.96 94.04 763.88 94.48 763.36 94.48L754.28 115.92C753.24 118.4 752.04 118.64 750.28 118.76C750.04 119 750.04 119.84 750.28 120.08C751.32 120.04 752.64 120 753.84 120C755.48 120 757.48 120.04 758.96 120.08C759.2 119.84 759.2 119 758.96 118.76C757.44 118.64 755.56 118.48 756.2 116.84ZM760.52 108.68C759.64 108.68 759.36 108.56 759.52 108.16L763.6 97.8H763.84L767.6 108.68H760.52ZM781.613 115.12C781.613 118.44 781.173 118.64 778.733 118.76C778.493 119 778.493 119.84 778.733 120.08C780.133 120.04 781.613 120 783.213 120C784.813 120 786.333 120.04 787.653 120.08C787.893 119.84 787.893 119 787.653 118.76C785.213 118.64 784.773 118.44 784.773 115.12V96.68C784.773 94.08 784.933 92.48 784.933 92.48C784.933 92.2 784.773 92.08 784.413 92.08C783.413 92.48 780.413 93.04 778.813 93.16C778.733 93.48 778.813 94.12 779.053 94.36C781.373 94.52 781.613 94.64 781.613 97.64V115.12ZM792.159 115.12C792.159 118.44 791.719 118.64 789.279 118.76C789.039 119 789.039 119.84 789.279 120.08C790.679 120.04 792.159 120 793.759 120C795.359 120 796.879 120.04 798.199 120.08C798.439 119.84 798.439 119 798.199 118.76C795.759 118.64 795.319 118.44 795.319 115.12V96.68C795.319 94.08 795.479 92.48 795.479 92.48C795.479 92.2 795.319 92.08 794.959 92.08C793.959 92.48 790.959 93.04 789.359 93.16C789.279 93.48 789.359 94.12 789.599 94.36C791.919 94.52 792.159 94.64 792.159 97.64V115.12ZM824.826 116.36C824.666 116 824.346 115.84 823.986 115.8C822.626 117.56 820.906 118.44 819.186 118.44C816.266 118.44 813.826 115.48 813.826 110.8C813.826 106.4 815.746 103.76 818.386 103.76C820.746 103.76 821.066 105.16 821.226 106.56C821.346 107.64 821.906 108 822.746 108C823.586 108 824.706 107.48 824.706 106.24C824.706 104.04 822.426 102.44 818.586 102.44C814.626 102.44 810.386 106 810.386 111.68C810.386 116.84 813.266 120.4 818.306 120.4C820.706 120.4 822.826 119.64 824.826 116.36ZM834.176 126.4C834.816 125.28 835.336 124.16 835.816 122.96C839.016 115.24 840.816 111.12 842.896 106.64C843.696 104.96 844.256 104.32 846.136 104.08C846.376 103.84 846.376 103 846.136 102.76C845.336 102.8 844.416 102.84 843.296 102.84C842.096 102.84 840.856 102.8 839.656 102.76C839.416 103 839.416 103.84 839.656 104.08C840.936 104.2 842.216 104.44 841.576 105.88L837.616 115.04C837.336 115.68 836.976 115.8 836.656 115L833.096 106.68C832.376 105 832.176 104.24 834.416 104.08C834.656 103.84 834.656 103 834.416 102.76C832.936 102.8 831.336 102.84 829.896 102.84C828.536 102.84 827.456 102.8 826.656 102.76C826.416 103 826.416 103.84 826.656 104.08C828.256 104.28 828.776 104.64 829.816 107.08L834.336 117.6C834.696 118.4 835.296 120.24 834.896 121.36C834.416 122.68 833.936 123.8 833.336 125.04C832.896 125.84 832.336 126.2 831.336 126.2C830.776 126.2 830.616 126.08 830.176 126.08C829.016 126.08 828.416 127.28 828.416 127.8C828.416 128.64 829.216 129.28 830.296 129.28C831.136 129.28 832.736 128.96 834.176 126.4ZM862.209 116.36C862.049 116 861.729 115.84 861.369 115.8C860.009 117.56 858.289 118.44 856.569 118.44C853.649 118.44 851.209 115.48 851.209 110.8C851.209 106.4 853.129 103.76 855.769 103.76C858.129 103.76 858.449 105.16 858.609 106.56C858.729 107.64 859.289 108 860.129 108C860.969 108 862.089 107.48 862.089 106.24C862.089 104.04 859.809 102.44 855.969 102.44C852.009 102.44 847.769 106 847.769 111.68C847.769 116.84 850.649 120.4 855.689 120.4C858.089 120.4 860.209 119.64 862.209 116.36ZM867.198 115.12C867.198 118.44 866.758 118.64 864.318 118.76C864.078 119 864.078 119.84 864.318 120.08C865.718 120.04 867.198 120 868.798 120C870.398 120 871.918 120.04 873.238 120.08C873.478 119.84 873.478 119 873.238 118.76C870.798 118.64 870.358 118.44 870.358 115.12V96.68C870.358 94.08 870.518 92.48 870.518 92.48C870.518 92.2 870.358 92.08 869.998 92.08C868.998 92.48 865.998 93.04 864.398 93.16C864.318 93.48 864.398 94.12 864.638 94.36C866.958 94.52 867.198 94.64 867.198 97.64V115.12ZM889.385 116.28C887.905 117.8 886.745 118.44 884.425 118.44C882.985 118.44 881.305 117.6 880.065 115.56C879.265 114.24 878.785 112.4 878.785 110.08L889.425 110.16C889.905 110.16 890.185 109.92 890.185 109.48C890.185 106.12 888.985 102.52 883.425 102.52C879.945 102.52 875.425 105.84 875.425 111.92C875.425 114.16 875.985 116.32 877.305 117.84C878.665 119.44 880.545 120.4 883.425 120.4C886.465 120.4 888.625 119 890.225 116.92C890.105 116.52 889.865 116.32 889.385 116.28ZM878.905 108.72C879.665 104.2 882.465 103.84 883.425 103.84C884.945 103.84 886.745 104.68 886.745 108.04C886.745 108.4 886.585 108.6 886.145 108.6L878.905 108.72ZM893.756 114.48C893.916 116.44 894.036 118.32 894.036 120C894.436 119.92 894.836 119.88 895.036 119.88C895.316 119.88 895.556 119.88 895.836 119.96C896.916 120.24 897.996 120.4 899.476 120.4C901.716 120.4 905.836 119.32 905.836 115.36C905.836 112.64 903.876 111.04 901.156 110.04C898.756 109.12 897.156 108.52 897.156 106.32C897.156 104.68 898.596 103.76 899.956 103.76C900.836 103.76 903.156 104.08 903.676 107.48C903.916 107.72 904.716 107.68 904.956 107.44C905.076 106 905.156 104.52 905.196 103.2C903.956 103 902.036 102.44 899.956 102.44C896.996 102.44 894.316 104.36 894.316 106.92C894.316 109.84 895.636 111.08 898.716 112.36C902.036 113.72 902.796 114.56 902.796 116.28C902.796 118.24 900.876 119.08 899.396 119.08C897.836 119.08 896.956 118.56 896.556 118.12C895.676 117.2 895.236 115.44 894.996 114.44C894.756 114.2 893.996 114.24 893.756 114.48ZM924.102 108.56C924.102 107.72 924.462 107.24 924.782 106.88C926.302 105.4 928.342 104.52 929.902 104.52C930.702 104.52 931.542 105.04 932.022 105.96C932.422 106.76 932.502 107.84 932.502 109.04V115.12C932.502 118.4 932.102 118.56 930.022 118.76C929.822 119 929.822 119.84 930.022 120.08C931.142 120.04 932.502 120 934.102 120C935.702 120 937.022 120.04 938.342 120.08C938.542 119.84 938.542 119 938.342 118.76C936.102 118.56 935.662 118.4 935.662 115.12V109.16C935.662 106.96 935.502 105 934.582 103.8C933.902 102.92 932.662 102.44 931.262 102.44C929.302 102.44 926.902 102.96 924.462 105.68C924.462 105.72 924.422 105.72 924.382 105.76C924.262 105.92 924.062 106.16 924.062 105.68L924.102 96.68C924.102 94.08 924.262 92.48 924.262 92.48C924.262 92.2 924.102 92.08 923.742 92.08C922.742 92.48 919.742 93.04 918.142 93.16C918.062 93.48 918.142 94.12 918.382 94.36C918.502 94.36 918.622 94.36 918.742 94.36C920.502 94.48 920.942 94.48 920.942 97.64V115.12C920.942 118.44 920.462 118.6 918.142 118.76C917.902 119 917.902 119.84 918.142 120.08C919.462 120.04 920.942 120 922.542 120C924.062 120 925.382 120.04 926.502 120.08C926.742 119.84 926.742 119 926.502 118.76C924.462 118.6 924.102 118.44 924.102 115.12V108.56ZM950.665 118.08C950.905 119.32 951.345 120.4 953.345 120.4C954.865 120.4 956.305 119.72 957.145 118.92C957.065 118.44 956.905 118.08 956.465 117.84C956.185 118.08 955.505 118.48 954.985 118.48C953.825 118.48 953.785 116.92 953.785 115.08V109.2C953.785 103.52 950.665 102.44 947.745 102.44C944.465 102.44 941.145 104.6 941.145 106.88C941.145 107.84 941.625 108.32 942.545 108.32C943.705 108.32 944.425 107.48 944.425 106.96C944.425 106.68 944.385 106.4 944.305 106.24C944.265 106.12 944.225 105.88 944.225 105.44C944.225 104.2 945.905 103.76 947.425 103.76C948.785 103.76 950.665 104.44 950.665 108.96C950.665 109.24 950.545 109.4 950.425 109.44L946.985 110.28C943.145 111.24 940.385 113.36 940.385 116.08C940.385 119.36 942.625 120.4 945.425 120.4C946.825 120.4 948.025 120.08 949.785 118.72L950.585 118.08H950.665ZM950.665 110.68V115.96C950.665 116.48 950.425 116.76 950.105 117C949.065 117.84 947.705 118.76 946.585 118.76C944.585 118.76 943.705 117.16 943.705 115.92C943.705 114.12 944.545 112.28 947.505 111.52L950.665 110.68ZM970.227 104.08C972.387 104.24 972.627 104.72 971.787 106.76L968.547 114.6C967.907 116.16 967.707 116.16 967.067 114.48L964.187 106.76C963.467 104.84 963.307 104.36 965.427 104.08C965.667 103.84 965.667 103 965.427 102.76C964.107 102.8 962.707 102.84 961.387 102.84C960.067 102.84 958.867 102.8 957.667 102.76C957.427 103 957.427 103.84 957.667 104.08C959.787 104.32 960.067 104.96 960.867 107L965.987 119.64C966.227 120.24 966.467 120.48 966.987 120.48C967.387 120.48 967.667 120.24 967.947 119.56L973.267 107.04C974.027 105.28 974.467 104.28 976.707 104.08C976.947 103.84 976.947 103 976.707 102.76C975.907 102.8 974.947 102.84 973.907 102.84C972.587 102.84 971.227 102.8 970.227 102.76C969.987 103 969.987 103.84 970.227 104.08ZM992.237 116.28C990.757 117.8 989.597 118.44 987.277 118.44C985.837 118.44 984.157 117.6 982.917 115.56C982.117 114.24 981.637 112.4 981.637 110.08L992.277 110.16C992.757 110.16 993.037 109.92 993.037 109.48C993.037 106.12 991.837 102.52 986.277 102.52C982.797 102.52 978.277 105.84 978.277 111.92C978.277 114.16 978.837 116.32 980.157 117.84C981.517 119.44 983.397 120.4 986.277 120.4C989.317 120.4 991.477 119 993.077 116.92C992.957 116.52 992.717 116.32 992.237 116.28ZM981.757 108.72C982.517 104.2 985.317 103.84 986.277 103.84C987.797 103.84 989.597 104.68 989.597 108.04C989.597 108.4 989.437 108.6 988.997 108.6L981.757 108.72ZM1006.41 102.84C1005.85 102.84 1005.69 103.32 1005.69 103.64V104.16C1005.69 104.36 1005.73 104.4 1005.89 104.4H1008.25V116.44C1008.25 119.28 1009.49 120.4 1011.33 120.4C1013.17 120.4 1015.17 119.52 1016.73 117.76C1016.65 117.36 1016.41 117.12 1016.01 117.08C1014.97 117.88 1013.77 118.2 1012.73 118.2C1011.65 118.2 1011.41 117 1011.41 114.52V104.4H1015.57C1015.97 104.4 1016.53 104.24 1016.53 103.88V103.08C1016.53 102.92 1016.41 102.84 1016.21 102.84H1011.41V101.28C1011.41 98.68 1011.57 97.08 1011.57 97.08C1011.57 96.84 1011.45 96.72 1011.25 96.72C1011.09 96.72 1010.73 96.88 1010.37 97.08C1009.93 97.32 1009.53 97.52 1009.01 97.64C1008.53 97.8 1008.13 97.92 1008.13 98.2C1008.13 98.68 1008.25 98.4 1008.25 102.84H1006.41ZM1024.38 105.68C1024.3 104.08 1024.26 103.04 1024.06 102.64C1023.98 102.44 1023.9 102.32 1023.58 102.32C1022.46 102.76 1021.42 103.12 1018.66 103.48C1018.58 103.72 1018.66 104.36 1018.74 104.6C1020.9 104.8 1021.34 105 1021.34 107.32V115.12C1021.34 118.44 1020.86 118.6 1018.38 118.76C1018.14 119 1018.14 119.84 1018.38 120.08C1019.78 120.04 1021.34 120 1022.94 120C1024.54 120 1026.38 120.04 1027.78 120.08C1028.02 119.84 1028.02 119 1027.78 118.76C1024.98 118.56 1024.5 118.44 1024.5 115.12V109.56C1024.5 108.52 1024.98 107.6 1025.46 106.88C1025.9 106.24 1026.82 104.92 1027.3 104.92C1027.66 104.92 1028.02 105 1028.34 105.44C1028.62 105.84 1029.1 106.36 1029.78 106.36C1030.74 106.36 1031.66 105.36 1031.66 104.36C1031.66 103.6 1030.94 102.44 1029.26 102.44C1027.38 102.44 1025.74 104.2 1024.82 105.76C1024.58 106.2 1024.38 105.88 1024.38 105.68ZM1047.35 116.28C1045.87 117.8 1044.71 118.44 1042.39 118.44C1040.95 118.44 1039.27 117.6 1038.03 115.56C1037.23 114.24 1036.75 112.4 1036.75 110.08L1047.39 110.16C1047.87 110.16 1048.15 109.92 1048.15 109.48C1048.15 106.12 1046.95 102.52 1041.39 102.52C1037.91 102.52 1033.39 105.84 1033.39 111.92C1033.39 114.16 1033.95 116.32 1035.27 117.84C1036.63 119.44 1038.51 120.4 1041.39 120.4C1044.43 120.4 1046.59 119 1048.19 116.92C1048.07 116.52 1047.83 116.32 1047.35 116.28ZM1036.87 108.72C1037.63 104.2 1040.43 103.84 1041.39 103.84C1042.91 103.84 1044.71 104.68 1044.71 108.04C1044.71 108.4 1044.55 108.6 1044.11 108.6L1036.87 108.72ZM1065.52 116.28C1064.04 117.8 1062.88 118.44 1060.56 118.44C1059.12 118.44 1057.44 117.6 1056.2 115.56C1055.4 114.24 1054.92 112.4 1054.92 110.08L1065.56 110.16C1066.04 110.16 1066.32 109.92 1066.32 109.48C1066.32 106.12 1065.12 102.52 1059.56 102.52C1056.08 102.52 1051.56 105.84 1051.56 111.92C1051.56 114.16 1052.12 116.32 1053.44 117.84C1054.8 119.44 1056.68 120.4 1059.56 120.4C1062.6 120.4 1064.76 119 1066.36 116.92C1066.24 116.52 1066 116.32 1065.52 116.28ZM1055.04 108.72C1055.8 104.2 1058.6 103.84 1059.56 103.84C1061.08 103.84 1062.88 104.68 1062.88 108.04C1062.88 108.4 1062.72 108.6 1062.28 108.6L1055.04 108.72ZM1075.82 104.08C1076.06 103.84 1076.06 103 1075.82 102.76C1074.62 102.8 1073.22 102.84 1071.78 102.84C1070.26 102.84 1069.18 102.8 1068.14 102.76C1067.9 103 1067.9 103.84 1068.14 104.08C1070.02 104.28 1070.46 104.68 1071.3 106.76L1076.54 119.68C1076.78 120.24 1077.1 120.48 1077.5 120.48C1077.86 120.48 1078.18 120.24 1078.46 119.6L1082.5 109.76L1086.62 119.68C1086.86 120.24 1087.18 120.48 1087.58 120.48C1087.94 120.48 1088.26 120.24 1088.5 119.64L1093.74 106.96C1094.38 105.32 1095.06 104.2 1097.1 104.08C1097.34 103.84 1097.34 103 1097.1 102.76C1096.3 102.8 1095.42 102.84 1094.22 102.84C1093.02 102.84 1091.34 102.8 1090.14 102.76C1089.9 103 1089.9 103.84 1090.14 104.08C1093.14 104.24 1092.74 105.4 1092.18 106.8L1088.82 115.12C1088.42 116.12 1088.26 116.12 1087.94 115.28L1084.5 106.52C1083.74 104.64 1083.82 104.24 1085.94 104.08C1086.18 103.84 1086.18 103 1085.94 102.76C1084.74 102.8 1083.14 102.84 1081.94 102.84C1080.94 102.84 1079.62 102.8 1078.42 102.76C1078.18 103 1078.18 103.84 1078.42 104.08C1080.3 104.24 1080.78 105.4 1081.5 107.2L1081.74 107.84L1078.94 114.92C1078.42 116.24 1078.34 116.28 1077.82 115L1074.62 106.76C1073.86 104.84 1073.9 104.2 1075.82 104.08ZM1104.82 115.12V107.16C1104.82 105.16 1104.98 102.6 1104.98 102.6C1104.98 102.44 1104.78 102.32 1104.46 102.32C1103.34 102.76 1101.74 103.12 1098.98 103.48C1098.9 103.72 1098.98 104.36 1099.06 104.6C1101.26 104.8 1101.66 105.04 1101.66 107.32V115.12C1101.66 118.44 1101.22 118.56 1098.78 118.76C1098.54 119 1098.54 119.84 1098.78 120.08C1100.1 120.04 1101.66 120 1103.26 120C1104.86 120 1106.38 120.04 1107.7 120.08C1107.94 119.84 1107.94 119 1107.7 118.76C1105.26 118.6 1104.82 118.44 1104.82 115.12ZM1101.18 96.04C1101.18 97.08 1102.14 98.12 1103.1 98.12C1104.22 98.12 1105.18 97.04 1105.18 96.2C1105.18 95.24 1104.34 94.12 1103.26 94.12C1102.3 94.12 1101.18 95.08 1101.18 96.04ZM1121.8 118C1122 117.84 1122.36 117.76 1122.4 118.04C1122.52 119 1122.84 120.4 1122.84 120.4C1123.16 120.52 1123.36 120.48 1123.6 120.4C1124.48 119.68 1125.88 119.08 1128.32 118.8C1128.56 118.56 1128.56 117.96 1128.32 117.72C1125.76 117.52 1125.4 116.76 1125.4 114.8V96.68C1125.4 94.08 1125.56 92.48 1125.56 92.48C1125.56 92.2 1125.4 92.08 1125.04 92.08C1124.04 92.48 1121.04 93.04 1119.44 93.16C1119.36 93.48 1119.44 94.12 1119.68 94.36C1119.8 94.36 1119.92 94.36 1120.04 94.36C1121.8 94.48 1122.24 94.48 1122.24 97.64V102.76C1122.24 103.04 1122.16 103.12 1121.88 103.12C1121.72 103.12 1120.08 102.44 1118.76 102.44C1116.12 102.44 1114.36 103.32 1112.76 104.84C1111.04 106.56 1110 108.92 1110 111.88C1110 116.8 1112.48 120.4 1116.8 120.4C1118.36 120.4 1119.84 119.6 1121.8 118ZM1122.24 115.04C1122.24 115.8 1122.16 116.12 1121.6 116.6C1120.12 117.88 1118.84 118.52 1117.84 118.52C1115.68 118.52 1113.44 116.16 1113.44 111.16C1113.44 108.28 1114 106.68 1114.6 105.84C1115.84 103.96 1117.52 103.84 1118.32 103.84C1119.76 103.84 1120.76 104.36 1121.56 105.28C1122.12 105.92 1122.24 106.2 1122.24 107.44V115.04ZM1130.39 102.84C1129.83 102.84 1129.67 103.32 1129.67 103.64V104.16C1129.67 104.36 1129.71 104.4 1129.87 104.4H1132.23V116.44C1132.23 119.28 1133.47 120.4 1135.31 120.4C1137.15 120.4 1139.15 119.52 1140.71 117.76C1140.63 117.36 1140.39 117.12 1139.99 117.08C1138.95 117.88 1137.75 118.2 1136.71 118.2C1135.63 118.2 1135.39 117 1135.39 114.52V104.4H1139.55C1139.95 104.4 1140.51 104.24 1140.51 103.88V103.08C1140.51 102.92 1140.39 102.84 1140.19 102.84H1135.39V101.28C1135.39 98.68 1135.55 97.08 1135.55 97.08C1135.55 96.84 1135.43 96.72 1135.23 96.72C1135.07 96.72 1134.71 96.88 1134.35 97.08C1133.91 97.32 1133.51 97.52 1132.99 97.64C1132.51 97.8 1132.11 97.92 1132.11 98.2C1132.11 98.68 1132.23 98.4 1132.23 102.84H1130.39ZM1148.01 108.56C1148.01 107.72 1148.37 107.24 1148.69 106.88C1150.21 105.4 1152.25 104.52 1153.81 104.52C1154.61 104.52 1155.45 105.04 1155.93 105.96C1156.33 106.76 1156.41 107.84 1156.41 109.04V115.12C1156.41 118.4 1156.01 118.56 1153.93 118.76C1153.73 119 1153.73 119.84 1153.93 120.08C1155.05 120.04 1156.41 120 1158.01 120C1159.61 120 1160.93 120.04 1162.25 120.08C1162.45 119.84 1162.45 119 1162.25 118.76C1160.01 118.56 1159.57 118.4 1159.57 115.12V109.16C1159.57 106.96 1159.41 105 1158.49 103.8C1157.81 102.92 1156.57 102.44 1155.17 102.44C1153.21 102.44 1150.81 102.96 1148.37 105.68C1148.37 105.72 1148.33 105.72 1148.29 105.76C1148.17 105.92 1147.97 106.16 1147.97 105.68L1148.01 96.68C1148.01 94.08 1148.17 92.48 1148.17 92.48C1148.17 92.2 1148.01 92.08 1147.65 92.08C1146.65 92.48 1143.65 93.04 1142.05 93.16C1141.97 93.48 1142.05 94.12 1142.29 94.36C1142.41 94.36 1142.53 94.36 1142.65 94.36C1144.41 94.48 1144.85 94.48 1144.85 97.64V115.12C1144.85 118.44 1144.37 118.6 1142.05 118.76C1141.81 119 1141.81 119.84 1142.05 120.08C1143.37 120.04 1144.85 120 1146.45 120C1147.97 120 1149.29 120.04 1150.41 120.08C1150.65 119.84 1150.65 119 1150.41 118.76C1148.37 118.6 1148.01 118.44 1148.01 115.12V108.56ZM1175.29 101.28C1175.29 102.12 1176.05 102.84 1176.89 102.84C1177.57 102.84 1178.77 102.12 1178.77 101.24C1178.77 100.92 1178.69 100.68 1178.61 100.4C1178.53 100.12 1178.29 99.76 1178.29 99.44C1178.29 98.44 1179.33 97 1182.25 97C1183.69 97 1185.73 98 1185.73 101.84C1185.73 104.4 1184.81 106.48 1182.45 108.88L1179.49 111.8C1175.57 115.8 1174.93 117.72 1174.93 120.08C1174.93 120.08 1176.97 120 1178.25 120H1185.25C1186.53 120 1188.37 120.08 1188.37 120.08C1188.89 117.96 1189.29 114.96 1189.33 113.76C1189.09 113.56 1188.57 113.48 1188.17 113.56C1187.49 116.4 1186.81 117.4 1185.37 117.4H1178.25C1178.25 115.48 1181.01 112.76 1181.21 112.56L1185.25 108.68C1187.53 106.48 1189.25 104.72 1189.25 101.68C1189.25 97.36 1185.73 95.6 1182.49 95.6C1178.05 95.6 1175.29 98.88 1175.29 101.28ZM1193.73 118.28C1193.73 119.44 1194.69 120.4 1195.85 120.4C1197.01 120.4 1197.97 119.44 1197.97 118.28C1197.97 117.12 1197.01 116.16 1195.85 116.16C1194.69 116.16 1193.73 117.12 1193.73 118.28Z" fill="#2F80ED"/>
</g>
</svg>
