<svg width="1024" height="769" viewBox="0 0 1024 769" fill="none" xmlns="http://www.w3.org/2000/svg">
<g id="dziecko">
<rect width="1024" height="768" transform="translate(0 0.599976)" fill="white"/>
<path id="Halo_kuku" d="M267.156 286H263.387V272.855H249.051V286H245.301V257.562H249.051V269.789H263.387V257.562H267.156V286ZM286.297 286C286.089 285.583 285.919 284.841 285.789 283.773C284.109 285.518 282.104 286.391 279.773 286.391C277.69 286.391 275.978 285.805 274.637 284.633C273.309 283.448 272.645 281.951 272.645 280.141C272.645 277.94 273.478 276.234 275.145 275.023C276.824 273.799 279.181 273.188 282.215 273.188H285.73V271.527C285.73 270.264 285.353 269.262 284.598 268.52C283.842 267.764 282.729 267.387 281.258 267.387C279.969 267.387 278.888 267.712 278.016 268.363C277.143 269.014 276.707 269.802 276.707 270.727H273.074C273.074 269.672 273.445 268.656 274.188 267.68C274.943 266.69 275.958 265.909 277.234 265.336C278.523 264.763 279.936 264.477 281.473 264.477C283.908 264.477 285.815 265.089 287.195 266.312C288.576 267.523 289.292 269.197 289.344 271.332V281.059C289.344 282.999 289.591 284.542 290.086 285.688V286H286.297ZM280.301 283.246C281.434 283.246 282.508 282.953 283.523 282.367C284.539 281.781 285.275 281.02 285.73 280.082V275.746H282.898C278.471 275.746 276.258 277.042 276.258 279.633C276.258 280.766 276.635 281.651 277.391 282.289C278.146 282.927 279.116 283.246 280.301 283.246ZM298.934 286H295.32V256H298.934V286ZM303.777 275.238C303.777 273.168 304.181 271.306 304.988 269.652C305.809 267.999 306.941 266.723 308.387 265.824C309.845 264.926 311.505 264.477 313.367 264.477C316.245 264.477 318.569 265.473 320.34 267.465C322.124 269.457 323.016 272.107 323.016 275.414V275.668C323.016 277.725 322.618 279.574 321.824 281.215C321.043 282.842 319.917 284.112 318.445 285.023C316.987 285.935 315.307 286.391 313.406 286.391C310.542 286.391 308.217 285.395 306.434 283.402C304.663 281.41 303.777 278.773 303.777 275.492V275.238ZM307.41 275.668C307.41 278.012 307.951 279.893 309.031 281.312C310.125 282.732 311.583 283.441 313.406 283.441C315.242 283.441 316.701 282.725 317.781 281.293C318.862 279.848 319.402 277.829 319.402 275.238C319.402 272.921 318.849 271.046 317.742 269.613C316.648 268.168 315.19 267.445 313.367 267.445C311.583 267.445 310.145 268.155 309.051 269.574C307.957 270.993 307.41 273.025 307.41 275.668ZM343.367 276.215L341.102 278.578V286H337.488V256H341.102V274.145L343.035 271.82L349.617 264.867H354.012L345.789 273.695L354.969 286H350.73L343.367 276.215ZM370.789 283.91C369.383 285.564 367.319 286.391 364.598 286.391C362.345 286.391 360.626 285.74 359.441 284.438C358.27 283.122 357.677 281.182 357.664 278.617V264.867H361.277V278.52C361.277 281.723 362.579 283.324 365.184 283.324C367.944 283.324 369.78 282.296 370.691 280.238V264.867H374.305V286H370.867L370.789 283.91ZM385.711 276.215L383.445 278.578V286H379.832V256H383.445V274.145L385.379 271.82L391.961 264.867H396.355L388.133 273.695L397.312 286H393.074L385.711 276.215ZM413.133 283.91C411.727 285.564 409.663 286.391 406.941 286.391C404.689 286.391 402.97 285.74 401.785 284.438C400.613 283.122 400.021 281.182 400.008 278.617V264.867H403.621V278.52C403.621 281.723 404.923 283.324 407.527 283.324C410.288 283.324 412.124 282.296 413.035 280.238V264.867H416.648V286H413.211L413.133 283.91Z" fill="black"/>
<path id="Halo_buku" d="M340.156 398H336.387V384.855H322.051V398H318.301V369.562H322.051V381.789H336.387V369.562H340.156V398ZM359.297 398C359.089 397.583 358.919 396.841 358.789 395.773C357.109 397.518 355.104 398.391 352.773 398.391C350.69 398.391 348.978 397.805 347.637 396.633C346.309 395.448 345.645 393.951 345.645 392.141C345.645 389.94 346.478 388.234 348.145 387.023C349.824 385.799 352.181 385.188 355.215 385.188H358.73V383.527C358.73 382.264 358.353 381.262 357.598 380.52C356.842 379.764 355.729 379.387 354.258 379.387C352.969 379.387 351.888 379.712 351.016 380.363C350.143 381.014 349.707 381.802 349.707 382.727H346.074C346.074 381.672 346.445 380.656 347.188 379.68C347.943 378.69 348.958 377.909 350.234 377.336C351.523 376.763 352.936 376.477 354.473 376.477C356.908 376.477 358.815 377.089 360.195 378.312C361.576 379.523 362.292 381.197 362.344 383.332V393.059C362.344 394.999 362.591 396.542 363.086 397.688V398H359.297ZM353.301 395.246C354.434 395.246 355.508 394.953 356.523 394.367C357.539 393.781 358.275 393.02 358.73 392.082V387.746H355.898C351.471 387.746 349.258 389.042 349.258 391.633C349.258 392.766 349.635 393.651 350.391 394.289C351.146 394.927 352.116 395.246 353.301 395.246ZM371.934 398H368.32V368H371.934V398ZM376.777 387.238C376.777 385.168 377.181 383.306 377.988 381.652C378.809 379.999 379.941 378.723 381.387 377.824C382.845 376.926 384.505 376.477 386.367 376.477C389.245 376.477 391.569 377.473 393.34 379.465C395.124 381.457 396.016 384.107 396.016 387.414V387.668C396.016 389.725 395.618 391.574 394.824 393.215C394.043 394.842 392.917 396.112 391.445 397.023C389.987 397.935 388.307 398.391 386.406 398.391C383.542 398.391 381.217 397.395 379.434 395.402C377.663 393.41 376.777 390.773 376.777 387.492V387.238ZM380.41 387.668C380.41 390.012 380.951 391.893 382.031 393.312C383.125 394.732 384.583 395.441 386.406 395.441C388.242 395.441 389.701 394.725 390.781 393.293C391.862 391.848 392.402 389.829 392.402 387.238C392.402 384.921 391.849 383.046 390.742 381.613C389.648 380.168 388.19 379.445 386.367 379.445C384.583 379.445 383.145 380.155 382.051 381.574C380.957 382.993 380.41 385.025 380.41 387.668ZM428.359 387.668C428.359 390.897 427.617 393.495 426.133 395.461C424.648 397.414 422.656 398.391 420.156 398.391C417.487 398.391 415.423 397.447 413.965 395.559L413.789 398H410.469V368H414.082V379.191C415.54 377.382 417.552 376.477 420.117 376.477C422.682 376.477 424.694 377.447 426.152 379.387C427.624 381.327 428.359 383.983 428.359 387.355V387.668ZM424.746 387.258C424.746 384.797 424.271 382.896 423.32 381.555C422.37 380.214 421.003 379.543 419.219 379.543C416.836 379.543 415.124 380.65 414.082 382.863V392.004C415.189 394.217 416.914 395.324 419.258 395.324C420.99 395.324 422.337 394.654 423.301 393.312C424.264 391.971 424.746 389.953 424.746 387.258ZM445.977 395.91C444.57 397.564 442.507 398.391 439.785 398.391C437.533 398.391 435.814 397.74 434.629 396.438C433.457 395.122 432.865 393.182 432.852 390.617V376.867H436.465V390.52C436.465 393.723 437.767 395.324 440.371 395.324C443.132 395.324 444.967 394.296 445.879 392.238V376.867H449.492V398H446.055L445.977 395.91ZM460.898 388.215L458.633 390.578V398H455.02V368H458.633V386.145L460.566 383.82L467.148 376.867H471.543L463.32 385.695L472.5 398H468.262L460.898 388.215ZM488.32 395.91C486.914 397.564 484.85 398.391 482.129 398.391C479.876 398.391 478.158 397.74 476.973 396.438C475.801 395.122 475.208 393.182 475.195 390.617V376.867H478.809V390.52C478.809 393.723 480.111 395.324 482.715 395.324C485.475 395.324 487.311 394.296 488.223 392.238V376.867H491.836V398H488.398L488.32 395.91Z" fill="black"/>
<path id="Halo_ruku" d="M429.156 510H425.387V496.855H411.051V510H407.301V481.562H411.051V493.789H425.387V481.562H429.156V510ZM448.297 510C448.089 509.583 447.919 508.841 447.789 507.773C446.109 509.518 444.104 510.391 441.773 510.391C439.69 510.391 437.978 509.805 436.637 508.633C435.309 507.448 434.645 505.951 434.645 504.141C434.645 501.94 435.478 500.234 437.145 499.023C438.824 497.799 441.181 497.188 444.215 497.188H447.73V495.527C447.73 494.264 447.353 493.262 446.598 492.52C445.842 491.764 444.729 491.387 443.258 491.387C441.969 491.387 440.888 491.712 440.016 492.363C439.143 493.014 438.707 493.802 438.707 494.727H435.074C435.074 493.672 435.445 492.656 436.188 491.68C436.943 490.69 437.958 489.909 439.234 489.336C440.523 488.763 441.936 488.477 443.473 488.477C445.908 488.477 447.815 489.089 449.195 490.312C450.576 491.523 451.292 493.197 451.344 495.332V505.059C451.344 506.999 451.591 508.542 452.086 509.688V510H448.297ZM442.301 507.246C443.434 507.246 444.508 506.953 445.523 506.367C446.539 505.781 447.275 505.02 447.73 504.082V499.746H444.898C440.471 499.746 438.258 501.042 438.258 503.633C438.258 504.766 438.635 505.651 439.391 506.289C440.146 506.927 441.116 507.246 442.301 507.246ZM460.934 510H457.32V480H460.934V510ZM465.777 499.238C465.777 497.168 466.181 495.306 466.988 493.652C467.809 491.999 468.941 490.723 470.387 489.824C471.845 488.926 473.505 488.477 475.367 488.477C478.245 488.477 480.569 489.473 482.34 491.465C484.124 493.457 485.016 496.107 485.016 499.414V499.668C485.016 501.725 484.618 503.574 483.824 505.215C483.043 506.842 481.917 508.112 480.445 509.023C478.987 509.935 477.307 510.391 475.406 510.391C472.542 510.391 470.217 509.395 468.434 507.402C466.663 505.41 465.777 502.773 465.777 499.492V499.238ZM469.41 499.668C469.41 502.012 469.951 503.893 471.031 505.312C472.125 506.732 473.583 507.441 475.406 507.441C477.242 507.441 478.701 506.725 479.781 505.293C480.862 503.848 481.402 501.829 481.402 499.238C481.402 496.921 480.849 495.046 479.742 493.613C478.648 492.168 477.19 491.445 475.367 491.445C473.583 491.445 472.145 492.155 471.051 493.574C469.957 494.993 469.41 497.025 469.41 499.668ZM509.684 492.109C509.137 492.018 508.544 491.973 507.906 491.973C505.536 491.973 503.928 492.982 503.082 495V510H499.469V488.867H502.984L503.043 491.309C504.228 489.421 505.908 488.477 508.082 488.477C508.785 488.477 509.319 488.568 509.684 488.75V492.109ZM526.07 507.91C524.664 509.564 522.6 510.391 519.879 510.391C517.626 510.391 515.908 509.74 514.723 508.438C513.551 507.122 512.958 505.182 512.945 502.617V488.867H516.559V502.52C516.559 505.723 517.861 507.324 520.465 507.324C523.225 507.324 525.061 506.296 525.973 504.238V488.867H529.586V510H526.148L526.07 507.91ZM540.992 500.215L538.727 502.578V510H535.113V480H538.727V498.145L540.66 495.82L547.242 488.867H551.637L543.414 497.695L552.594 510H548.355L540.992 500.215ZM568.414 507.91C567.008 509.564 564.944 510.391 562.223 510.391C559.97 510.391 558.251 509.74 557.066 508.438C555.895 507.122 555.302 505.182 555.289 502.617V488.867H558.902V502.52C558.902 505.723 560.204 507.324 562.809 507.324C565.569 507.324 567.405 506.296 568.316 504.238V488.867H571.93V510H568.492L568.414 507.91Z" fill="black"/>
<g id="Group 1">
<path id="Miki" d="M713.145 217.562L722.441 240.766L731.738 217.562H736.602V246H732.852V234.926L733.203 222.973L723.867 246H720.996L711.68 223.031L712.051 234.926V246H708.301V217.562H713.145ZM746.582 246H742.969V224.867H746.582V246ZM742.676 219.262C742.676 218.676 742.852 218.181 743.203 217.777C743.568 217.374 744.102 217.172 744.805 217.172C745.508 217.172 746.042 217.374 746.406 217.777C746.771 218.181 746.953 218.676 746.953 219.262C746.953 219.848 746.771 220.336 746.406 220.727C746.042 221.117 745.508 221.312 744.805 221.312C744.102 221.312 743.568 221.117 743.203 220.727C742.852 220.336 742.676 219.848 742.676 219.262ZM758.281 236.215L756.016 238.578V246H752.402V216H756.016V234.145L757.949 231.82L764.531 224.867H768.926L760.703 233.695L769.883 246H765.645L758.281 236.215ZM776.582 246H772.969V224.867H776.582V246ZM772.676 219.262C772.676 218.676 772.852 218.181 773.203 217.777C773.568 217.374 774.102 217.172 774.805 217.172C775.508 217.172 776.042 217.374 776.406 217.777C776.771 218.181 776.953 218.676 776.953 219.262C776.953 219.848 776.771 220.336 776.406 220.727C776.042 221.117 775.508 221.312 774.805 221.312C774.102 221.312 773.568 221.117 773.203 220.727C772.852 220.336 772.676 219.848 772.676 219.262Z" fill="black"/>
<path id="piki" d="M757.586 344.668C757.586 347.884 756.85 350.475 755.379 352.441C753.908 354.408 751.915 355.391 749.402 355.391C746.837 355.391 744.819 354.577 743.348 352.949V363.125H739.734V333.867H743.035L743.211 336.211C744.682 334.388 746.727 333.477 749.344 333.477C751.883 333.477 753.888 334.434 755.359 336.348C756.844 338.262 757.586 340.924 757.586 344.336V344.668ZM753.973 344.258C753.973 341.875 753.465 339.993 752.449 338.613C751.434 337.233 750.04 336.543 748.27 336.543C746.082 336.543 744.441 337.513 743.348 339.453V349.551C744.428 351.478 746.082 352.441 748.309 352.441C750.04 352.441 751.414 351.758 752.43 350.391C753.458 349.01 753.973 346.966 753.973 344.258ZM766.121 355H762.508V333.867H766.121V355ZM762.215 328.262C762.215 327.676 762.391 327.181 762.742 326.777C763.107 326.374 763.641 326.172 764.344 326.172C765.047 326.172 765.581 326.374 765.945 326.777C766.31 327.181 766.492 327.676 766.492 328.262C766.492 328.848 766.31 329.336 765.945 329.727C765.581 330.117 765.047 330.312 764.344 330.312C763.641 330.312 763.107 330.117 762.742 329.727C762.391 329.336 762.215 328.848 762.215 328.262ZM777.82 345.215L775.555 347.578V355H771.941V325H775.555V343.145L777.488 340.82L784.07 333.867H788.465L780.242 342.695L789.422 355H785.184L777.82 345.215ZM796.121 355H792.508V333.867H796.121V355ZM792.215 328.262C792.215 327.676 792.391 327.181 792.742 326.777C793.107 326.374 793.641 326.172 794.344 326.172C795.047 326.172 795.581 326.374 795.945 326.777C796.31 327.181 796.492 327.676 796.492 328.262C796.492 328.848 796.31 329.336 795.945 329.727C795.581 330.117 795.047 330.312 794.344 330.312C793.641 330.312 793.107 330.117 792.742 329.727C792.391 329.336 792.215 328.848 792.215 328.262Z" fill="black"/>
<path id="fonterniki" d="M741.512 445V426.66H738.172V423.867H741.512V421.699C741.512 419.434 742.117 417.682 743.328 416.445C744.539 415.208 746.251 414.59 748.465 414.59C749.298 414.59 750.125 414.701 750.945 414.922L750.75 417.852C750.138 417.734 749.487 417.676 748.797 417.676C747.625 417.676 746.72 418.021 746.082 418.711C745.444 419.388 745.125 420.365 745.125 421.641V423.867H749.637V426.66H745.125V445H741.512ZM752.684 434.238C752.684 432.168 753.087 430.306 753.895 428.652C754.715 426.999 755.848 425.723 757.293 424.824C758.751 423.926 760.411 423.477 762.273 423.477C765.151 423.477 767.475 424.473 769.246 426.465C771.03 428.457 771.922 431.107 771.922 434.414V434.668C771.922 436.725 771.525 438.574 770.73 440.215C769.949 441.842 768.823 443.112 767.352 444.023C765.893 444.935 764.214 445.391 762.312 445.391C759.448 445.391 757.124 444.395 755.34 442.402C753.569 440.41 752.684 437.773 752.684 434.492V434.238ZM756.316 434.668C756.316 437.012 756.857 438.893 757.938 440.312C759.031 441.732 760.49 442.441 762.312 442.441C764.148 442.441 765.607 441.725 766.688 440.293C767.768 438.848 768.309 436.829 768.309 434.238C768.309 431.921 767.755 430.046 766.648 428.613C765.555 427.168 764.096 426.445 762.273 426.445C760.49 426.445 759.051 427.155 757.957 428.574C756.863 429.993 756.316 432.025 756.316 434.668ZM779.871 423.867L779.988 426.523C781.603 424.492 783.712 423.477 786.316 423.477C790.783 423.477 793.035 425.996 793.074 431.035V445H789.461V431.016C789.448 429.492 789.096 428.366 788.406 427.637C787.729 426.908 786.668 426.543 785.223 426.543C784.051 426.543 783.022 426.855 782.137 427.48C781.251 428.105 780.561 428.926 780.066 429.941V445H776.453V423.867H779.871ZM803.426 418.75V423.867H807.371V426.66H803.426V439.766C803.426 440.612 803.602 441.25 803.953 441.68C804.305 442.096 804.904 442.305 805.75 442.305C806.167 442.305 806.74 442.227 807.469 442.07V445C806.518 445.26 805.594 445.391 804.695 445.391C803.081 445.391 801.863 444.902 801.043 443.926C800.223 442.949 799.812 441.562 799.812 439.766V426.66H795.965V423.867H799.812V418.75H803.426ZM820.379 445.391C817.514 445.391 815.184 444.453 813.387 442.578C811.59 440.69 810.691 438.171 810.691 435.02V434.355C810.691 432.259 811.089 430.391 811.883 428.75C812.69 427.096 813.81 425.807 815.242 424.883C816.688 423.945 818.25 423.477 819.93 423.477C822.677 423.477 824.812 424.382 826.336 426.191C827.859 428.001 828.621 430.592 828.621 433.965V435.469H814.305C814.357 437.552 814.962 439.238 816.121 440.527C817.293 441.803 818.777 442.441 820.574 442.441C821.85 442.441 822.931 442.181 823.816 441.66C824.702 441.139 825.477 440.449 826.141 439.59L828.348 441.309C826.577 444.03 823.921 445.391 820.379 445.391ZM819.93 426.445C818.471 426.445 817.247 426.979 816.258 428.047C815.268 429.102 814.656 430.586 814.422 432.5H825.008V432.227C824.904 430.391 824.409 428.971 823.523 427.969C822.638 426.953 821.44 426.445 819.93 426.445ZM843.035 427.109C842.488 427.018 841.896 426.973 841.258 426.973C838.888 426.973 837.28 427.982 836.434 430V445H832.82V423.867H836.336L836.395 426.309C837.579 424.421 839.259 423.477 841.434 423.477C842.137 423.477 842.671 423.568 843.035 423.75V427.109ZM849.793 423.867L849.91 426.523C851.525 424.492 853.634 423.477 856.238 423.477C860.704 423.477 862.957 425.996 862.996 431.035V445H859.383V431.016C859.37 429.492 859.018 428.366 858.328 427.637C857.651 426.908 856.59 426.543 855.145 426.543C853.973 426.543 852.944 426.855 852.059 427.48C851.173 428.105 850.483 428.926 849.988 429.941V445H846.375V423.867H849.793ZM872.371 445H868.758V423.867H872.371V445ZM868.465 418.262C868.465 417.676 868.641 417.181 868.992 416.777C869.357 416.374 869.891 416.172 870.594 416.172C871.297 416.172 871.831 416.374 872.195 416.777C872.56 417.181 872.742 417.676 872.742 418.262C872.742 418.848 872.56 419.336 872.195 419.727C871.831 420.117 871.297 420.312 870.594 420.312C869.891 420.312 869.357 420.117 868.992 419.727C868.641 419.336 868.465 418.848 868.465 418.262ZM884.07 435.215L881.805 437.578V445H878.191V415H881.805V433.145L883.738 430.82L890.32 423.867H894.715L886.492 432.695L895.672 445H891.434L884.07 435.215ZM902.371 445H898.758V423.867H902.371V445ZM898.465 418.262C898.465 417.676 898.641 417.181 898.992 416.777C899.357 416.374 899.891 416.172 900.594 416.172C901.297 416.172 901.831 416.374 902.195 416.777C902.56 417.181 902.742 417.676 902.742 418.262C902.742 418.848 902.56 419.336 902.195 419.727C901.831 420.117 901.297 420.312 900.594 420.312C899.891 420.312 899.357 420.117 898.992 419.727C898.641 419.336 898.465 418.848 898.465 418.262Z" fill="black"/>
</g>
<g id="mikio">
<path id="mikio_2" d="M735.133 635.867L735.23 638.211C736.78 636.388 738.87 635.477 741.5 635.477C744.456 635.477 746.467 636.609 747.535 638.875C748.238 637.859 749.15 637.039 750.27 636.414C751.402 635.789 752.737 635.477 754.273 635.477C758.909 635.477 761.266 637.931 761.344 642.84V657H757.73V643.055C757.73 641.544 757.385 640.418 756.695 639.676C756.005 638.921 754.846 638.543 753.219 638.543C751.878 638.543 750.764 638.947 749.879 639.754C748.993 640.548 748.479 641.622 748.336 642.977V657H744.703V643.152C744.703 640.079 743.199 638.543 740.191 638.543C737.822 638.543 736.201 639.552 735.328 641.57V657H731.715V635.867H735.133ZM770.738 657H767.125V635.867H770.738V657ZM766.832 630.262C766.832 629.676 767.008 629.181 767.359 628.777C767.724 628.374 768.258 628.172 768.961 628.172C769.664 628.172 770.198 628.374 770.562 628.777C770.927 629.181 771.109 629.676 771.109 630.262C771.109 630.848 770.927 631.336 770.562 631.727C770.198 632.117 769.664 632.312 768.961 632.312C768.258 632.312 767.724 632.117 767.359 631.727C767.008 631.336 766.832 630.848 766.832 630.262ZM782.438 647.215L780.172 649.578V657H776.559V627H780.172V645.145L782.105 642.82L788.688 635.867H793.082L784.859 644.695L794.039 657H789.801L782.438 647.215ZM800.738 657H797.125V635.867H800.738V657ZM796.832 630.262C796.832 629.676 797.008 629.181 797.359 628.777C797.724 628.374 798.258 628.172 798.961 628.172C799.664 628.172 800.198 628.374 800.562 628.777C800.927 629.181 801.109 629.676 801.109 630.262C801.109 630.848 800.927 631.336 800.562 631.727C800.198 632.117 799.664 632.312 798.961 632.312C798.258 632.312 797.724 632.117 797.359 631.727C797.008 631.336 796.832 630.848 796.832 630.262ZM805.582 646.238C805.582 644.168 805.986 642.306 806.793 640.652C807.613 638.999 808.746 637.723 810.191 636.824C811.65 635.926 813.31 635.477 815.172 635.477C818.049 635.477 820.374 636.473 822.145 638.465C823.928 640.457 824.82 643.107 824.82 646.414V646.668C824.82 648.725 824.423 650.574 823.629 652.215C822.848 653.842 821.721 655.112 820.25 656.023C818.792 656.935 817.112 657.391 815.211 657.391C812.346 657.391 810.022 656.395 808.238 654.402C806.467 652.41 805.582 649.773 805.582 646.492V646.238ZM809.215 646.668C809.215 649.012 809.755 650.893 810.836 652.312C811.93 653.732 813.388 654.441 815.211 654.441C817.047 654.441 818.505 653.725 819.586 652.293C820.667 650.848 821.207 648.829 821.207 646.238C821.207 643.921 820.654 642.046 819.547 640.613C818.453 639.168 816.995 638.445 815.172 638.445C813.388 638.445 811.949 639.155 810.855 640.574C809.762 641.993 809.215 644.025 809.215 646.668Z" fill="black"/>
<path id="fikio" d="M702.945 733V714.66H699.605V711.867H702.945V710.07C702.945 707.714 703.616 705.878 704.957 704.562C706.311 703.247 708.219 702.59 710.68 702.59C712.138 702.59 713.98 702.987 716.207 703.781L715.602 706.828C713.974 706.177 712.424 705.852 710.953 705.852C709.404 705.852 708.284 706.203 707.594 706.906C706.917 707.596 706.578 708.638 706.578 710.031V711.867H710.895V714.66H706.578V733H702.945ZM718.004 733H714.371V711.867H718.004V733ZM729.781 723.215L727.516 725.578V733H723.902V703H727.516V721.145L729.449 718.82L736.031 711.867H740.426L732.203 720.695L741.383 733H737.145L729.781 723.215ZM748.082 733H744.469V711.867H748.082V733ZM744.176 706.262C744.176 705.676 744.352 705.181 744.703 704.777C745.068 704.374 745.602 704.172 746.305 704.172C747.008 704.172 747.542 704.374 747.906 704.777C748.271 705.181 748.453 705.676 748.453 706.262C748.453 706.848 748.271 707.336 747.906 707.727C747.542 708.117 747.008 708.312 746.305 708.312C745.602 708.312 745.068 708.117 744.703 707.727C744.352 707.336 744.176 706.848 744.176 706.262ZM752.926 722.238C752.926 720.168 753.329 718.306 754.137 716.652C754.957 714.999 756.09 713.723 757.535 712.824C758.993 711.926 760.654 711.477 762.516 711.477C765.393 711.477 767.717 712.473 769.488 714.465C771.272 716.457 772.164 719.107 772.164 722.414V722.668C772.164 724.725 771.767 726.574 770.973 728.215C770.191 729.842 769.065 731.112 767.594 732.023C766.135 732.935 764.456 733.391 762.555 733.391C759.69 733.391 757.366 732.395 755.582 730.402C753.811 728.41 752.926 725.773 752.926 722.492V722.238ZM756.559 722.668C756.559 725.012 757.099 726.893 758.18 728.312C759.273 729.732 760.732 730.441 762.555 730.441C764.391 730.441 765.849 729.725 766.93 728.293C768.01 726.848 768.551 724.829 768.551 722.238C768.551 719.921 767.997 718.046 766.891 716.613C765.797 715.168 764.339 714.445 762.516 714.445C760.732 714.445 759.293 715.155 758.199 716.574C757.105 717.993 756.559 720.025 756.559 722.668Z" fill="black"/>
</g>
</g>
</svg>
