<svg width="1024" height="769" viewBox="0 0 1024 769" fill="none" xmlns="http://www.w3.org/2000/svg">
<g id="o wa&#197;&#188;no&#197;&#155;ci">
<rect width="1024" height="768" transform="translate(0 0.199951)" fill="white"/>
<path id="S_C4_85_wa_C5_BCne_z_pierwszej_przyczyny" d="M247.76 349.493C245.348 348.8 243.59 347.95 242.486 346.944C241.393 345.929 240.846 344.679 240.846 343.194C240.846 341.515 241.515 340.128 242.853 339.034C244.2 337.931 245.948 337.379 248.097 337.379C249.562 337.379 250.865 337.662 252.008 338.229C253.16 338.795 254.049 339.576 254.674 340.572C255.309 341.568 255.626 342.657 255.626 343.839H252.799C252.799 342.55 252.389 341.539 251.568 340.807C250.748 340.064 249.591 339.693 248.097 339.693C246.71 339.693 245.626 340.001 244.845 340.616C244.073 341.222 243.688 342.066 243.688 343.15C243.688 344.02 244.054 344.757 244.786 345.362C245.528 345.958 246.783 346.505 248.551 347.003C250.328 347.501 251.715 348.053 252.711 348.658C253.717 349.254 254.459 349.952 254.938 350.753C255.426 351.554 255.67 352.496 255.67 353.58C255.67 355.309 254.996 356.695 253.648 357.74C252.301 358.775 250.499 359.293 248.243 359.293C246.778 359.293 245.411 359.015 244.142 358.458C242.872 357.892 241.891 357.12 241.197 356.144C240.514 355.167 240.172 354.059 240.172 352.818H242.999C242.999 354.107 243.473 355.128 244.42 355.88C245.377 356.622 246.651 356.993 248.243 356.993C249.728 356.993 250.865 356.69 251.656 356.085C252.447 355.479 252.843 354.654 252.843 353.609C252.843 352.564 252.477 351.759 251.744 351.192C251.012 350.616 249.684 350.05 247.76 349.493ZM268.59 358.897C268.443 358.526 268.336 358.004 268.268 357.33C267.008 358.639 265.504 359.293 263.756 359.293C262.193 359.293 260.909 358.854 259.903 357.975C258.907 357.086 258.409 355.963 258.409 354.605C258.409 352.955 259.034 351.676 260.284 350.768C261.544 349.85 263.312 349.391 265.587 349.391H268.224V348.146C268.224 347.198 267.94 346.446 267.374 345.89C266.808 345.323 265.973 345.04 264.869 345.04C263.902 345.04 263.092 345.284 262.438 345.772C261.783 346.261 261.456 346.852 261.456 347.545H258.731C258.731 346.754 259.01 345.992 259.566 345.26C260.133 344.518 260.895 343.932 261.852 343.502C262.818 343.072 263.878 342.857 265.03 342.857C266.856 342.857 268.287 343.316 269.322 344.234C270.357 345.143 270.895 346.397 270.934 347.999V355.294C270.934 356.749 271.119 357.906 271.49 358.766V359H271.007L270.157 359.659C269.054 360.548 268.502 361.412 268.502 362.252C268.502 362.955 268.883 363.307 269.645 363.307C270.113 363.307 270.602 363.18 271.109 362.926L271.3 364.698C270.616 365.128 269.835 365.343 268.956 365.343C268.087 365.343 267.398 365.089 266.891 364.581C266.393 364.073 266.144 363.399 266.144 362.56C266.144 361.153 266.959 359.933 268.59 358.897ZM264.151 356.935C265.001 356.935 265.807 356.715 266.568 356.275C267.33 355.836 267.882 355.265 268.224 354.562V351.31H266.1C262.779 351.31 261.119 352.281 261.119 354.225C261.119 355.074 261.402 355.738 261.969 356.217C262.535 356.695 263.263 356.935 264.151 356.935ZM296.656 355.265L299.703 343.15H302.413L297.799 359H295.602L291.749 346.988L287.999 359H285.802L281.202 343.15H283.897L287.018 355.016L290.709 343.15H292.892L296.656 355.265ZM314.967 359C314.811 358.688 314.684 358.131 314.586 357.33C313.326 358.639 311.822 359.293 310.074 359.293C308.512 359.293 307.228 358.854 306.222 357.975C305.226 357.086 304.728 355.963 304.728 354.605C304.728 352.955 305.353 351.676 306.603 350.768C307.862 349.85 309.63 349.391 311.905 349.391H314.542V348.146C314.542 347.198 314.259 346.446 313.692 345.89C313.126 345.323 312.291 345.04 311.188 345.04C310.221 345.04 309.41 345.284 308.756 345.772C308.102 346.261 307.774 346.852 307.774 347.545H305.05C305.05 346.754 305.328 345.992 305.885 345.26C306.451 344.518 307.213 343.932 308.17 343.502C309.137 343.072 310.196 342.857 311.349 342.857C313.175 342.857 314.605 343.316 315.641 344.234C316.676 345.143 317.213 346.397 317.252 347.999V355.294C317.252 356.749 317.438 357.906 317.809 358.766V359H314.967ZM310.47 356.935C311.319 356.935 312.125 356.715 312.887 356.275C313.648 355.836 314.2 355.265 314.542 354.562V351.31H312.418C309.098 351.31 307.438 352.281 307.438 354.225C307.438 355.074 307.721 355.738 308.287 356.217C308.854 356.695 309.581 356.935 310.47 356.935ZM324.049 356.788H333.321V359H320.738V357.008L329.483 345.392H320.87V343.15H332.882V345.069L324.049 356.788ZM325.382 338.976C325.382 338.536 325.514 338.165 325.777 337.862C326.051 337.56 326.451 337.408 326.979 337.408C327.506 337.408 327.906 337.56 328.18 337.862C328.453 338.165 328.59 338.536 328.59 338.976C328.59 339.415 328.453 339.781 328.18 340.074C327.906 340.367 327.506 340.514 326.979 340.514C326.451 340.514 326.051 340.367 325.777 340.074C325.514 339.781 325.382 339.415 325.382 338.976ZM338.946 343.15L339.034 345.143C340.245 343.619 341.827 342.857 343.78 342.857C347.13 342.857 348.819 344.747 348.849 348.526V359H346.139V348.512C346.129 347.369 345.865 346.524 345.348 345.978C344.84 345.431 344.044 345.157 342.96 345.157C342.081 345.157 341.31 345.392 340.646 345.86C339.981 346.329 339.464 346.944 339.093 347.706V359H336.383V343.15H338.946ZM359.513 359.293C357.364 359.293 355.616 358.59 354.269 357.184C352.921 355.768 352.247 353.878 352.247 351.515V351.017C352.247 349.444 352.545 348.043 353.141 346.812C353.746 345.572 354.586 344.605 355.66 343.912C356.744 343.209 357.916 342.857 359.176 342.857C361.236 342.857 362.838 343.536 363.98 344.894C365.123 346.251 365.694 348.194 365.694 350.724V351.852H354.957C354.996 353.414 355.45 354.679 356.319 355.646C357.198 356.603 358.312 357.081 359.659 357.081C360.616 357.081 361.427 356.886 362.091 356.495C362.755 356.104 363.336 355.587 363.834 354.942L365.489 356.231C364.161 358.272 362.169 359.293 359.513 359.293ZM359.176 345.084C358.082 345.084 357.164 345.484 356.422 346.285C355.68 347.076 355.221 348.189 355.045 349.625H362.984V349.42C362.906 348.043 362.535 346.979 361.871 346.227C361.207 345.465 360.309 345.084 359.176 345.084ZM378.834 356.788H388.106V359H375.523V357.008L384.269 345.392H375.655V343.15H387.667V345.069L378.834 356.788ZM411.998 351.251C411.998 353.663 411.446 355.606 410.343 357.081C409.239 358.556 407.745 359.293 405.86 359.293C403.937 359.293 402.423 358.683 401.319 357.462V365.094H398.609V343.15H401.085L401.217 344.908C402.32 343.541 403.854 342.857 405.816 342.857C407.721 342.857 409.225 343.575 410.328 345.011C411.441 346.446 411.998 348.443 411.998 351.002V351.251ZM409.288 350.943C409.288 349.156 408.907 347.745 408.146 346.71C407.384 345.675 406.339 345.157 405.011 345.157C403.37 345.157 402.14 345.885 401.319 347.34V354.913C402.13 356.358 403.37 357.081 405.04 357.081C406.339 357.081 407.369 356.568 408.131 355.543C408.902 354.508 409.288 352.975 409.288 350.943ZM418.399 359H415.689V343.15H418.399V359ZM415.47 338.946C415.47 338.507 415.602 338.136 415.865 337.833C416.139 337.53 416.539 337.379 417.066 337.379C417.594 337.379 417.994 337.53 418.268 337.833C418.541 338.136 418.678 338.507 418.678 338.946C418.678 339.386 418.541 339.752 418.268 340.045C417.994 340.338 417.594 340.484 417.066 340.484C416.539 340.484 416.139 340.338 415.865 340.045C415.602 339.752 415.47 339.386 415.47 338.946ZM429.327 359.293C427.179 359.293 425.431 358.59 424.083 357.184C422.735 355.768 422.062 353.878 422.062 351.515V351.017C422.062 349.444 422.359 348.043 422.955 346.812C423.561 345.572 424.4 344.605 425.475 343.912C426.559 343.209 427.73 342.857 428.99 342.857C431.051 342.857 432.652 343.536 433.795 344.894C434.938 346.251 435.509 348.194 435.509 350.724V351.852H424.771C424.811 353.414 425.265 354.679 426.134 355.646C427.013 356.603 428.126 357.081 429.474 357.081C430.431 357.081 431.241 356.886 431.905 356.495C432.569 356.104 433.15 355.587 433.648 354.942L435.304 356.231C433.976 358.272 431.983 359.293 429.327 359.293ZM428.99 345.084C427.896 345.084 426.979 345.484 426.236 346.285C425.494 347.076 425.035 348.189 424.859 349.625H432.799V349.42C432.721 348.043 432.35 346.979 431.686 346.227C431.021 345.465 430.123 345.084 428.99 345.084ZM446.319 345.582C445.909 345.514 445.465 345.479 444.986 345.479C443.209 345.479 442.003 346.236 441.368 347.75V359H438.658V343.15H441.295L441.339 344.981C442.228 343.565 443.487 342.857 445.118 342.857C445.646 342.857 446.046 342.926 446.319 343.062V345.582ZM463.121 355.265L466.168 343.15H468.878L464.264 359H462.066L458.214 346.988L454.464 359H452.267L447.667 343.15H450.362L453.482 355.016L457.174 343.15H459.356L463.121 355.265ZM480.875 354.796C480.875 354.063 480.597 353.497 480.04 353.097C479.493 352.687 478.531 352.335 477.154 352.042C475.787 351.749 474.698 351.397 473.888 350.987C473.087 350.577 472.491 350.089 472.101 349.522C471.72 348.956 471.529 348.282 471.529 347.501C471.529 346.202 472.076 345.104 473.17 344.205C474.273 343.307 475.68 342.857 477.389 342.857C479.186 342.857 480.641 343.321 481.754 344.249C482.877 345.177 483.438 346.363 483.438 347.809H480.714C480.714 347.066 480.396 346.427 479.762 345.89C479.137 345.353 478.346 345.084 477.389 345.084C476.402 345.084 475.631 345.299 475.074 345.729C474.518 346.158 474.239 346.72 474.239 347.413C474.239 348.067 474.498 348.561 475.016 348.893C475.533 349.225 476.466 349.542 477.813 349.845C479.171 350.147 480.27 350.509 481.109 350.929C481.949 351.349 482.569 351.856 482.97 352.452C483.38 353.038 483.585 353.756 483.585 354.605C483.585 356.021 483.019 357.159 481.886 358.019C480.753 358.868 479.283 359.293 477.477 359.293C476.207 359.293 475.084 359.068 474.107 358.619C473.131 358.17 472.364 357.545 471.808 356.744C471.261 355.934 470.987 355.06 470.987 354.122H473.697C473.746 355.03 474.107 355.753 474.781 356.29C475.465 356.817 476.363 357.081 477.477 357.081C478.502 357.081 479.322 356.876 479.938 356.466C480.562 356.046 480.875 355.489 480.875 354.796ZM489.664 356.788H498.937V359H486.354V357.008L495.099 345.392H486.485V343.15H498.497V345.069L489.664 356.788ZM508.341 359.293C506.192 359.293 504.444 358.59 503.097 357.184C501.749 355.768 501.075 353.878 501.075 351.515V351.017C501.075 349.444 501.373 348.043 501.969 346.812C502.574 345.572 503.414 344.605 504.488 343.912C505.572 343.209 506.744 342.857 508.004 342.857C510.064 342.857 511.666 343.536 512.809 344.894C513.951 346.251 514.522 348.194 514.522 350.724V351.852H503.785C503.824 353.414 504.278 354.679 505.147 355.646C506.026 356.603 507.14 357.081 508.487 357.081C509.444 357.081 510.255 356.886 510.919 356.495C511.583 356.104 512.164 355.587 512.662 354.942L514.317 356.231C512.989 358.272 510.997 359.293 508.341 359.293ZM508.004 345.084C506.91 345.084 505.992 345.484 505.25 346.285C504.508 347.076 504.049 348.189 503.873 349.625H511.812V349.42C511.734 348.043 511.363 346.979 510.699 346.227C510.035 345.465 509.137 345.084 508.004 345.084ZM520.47 343.15V360.831C520.47 363.878 519.088 365.401 516.324 365.401C515.729 365.401 515.177 365.313 514.669 365.138V362.97C514.981 363.048 515.392 363.087 515.899 363.087C516.505 363.087 516.964 362.921 517.276 362.589C517.599 362.267 517.76 361.7 517.76 360.89V343.15H520.47ZM517.481 338.946C517.481 338.517 517.613 338.15 517.877 337.848C518.15 337.535 518.546 337.379 519.063 337.379C519.591 337.379 519.991 337.53 520.265 337.833C520.538 338.136 520.675 338.507 520.675 338.946C520.675 339.386 520.538 339.752 520.265 340.045C519.991 340.338 519.591 340.484 519.063 340.484C518.536 340.484 518.141 340.338 517.877 340.045C517.613 339.752 517.481 339.386 517.481 338.946ZM545.68 351.251C545.68 353.663 545.128 355.606 544.024 357.081C542.921 358.556 541.427 359.293 539.542 359.293C537.618 359.293 536.104 358.683 535.001 357.462V365.094H532.291V343.15H534.767L534.898 344.908C536.002 343.541 537.535 342.857 539.498 342.857C541.402 342.857 542.906 343.575 544.01 345.011C545.123 346.446 545.68 348.443 545.68 351.002V351.251ZM542.97 350.943C542.97 349.156 542.589 347.745 541.827 346.71C541.065 345.675 540.021 345.157 538.692 345.157C537.052 345.157 535.821 345.885 535.001 347.34V354.913C535.812 356.358 537.052 357.081 538.722 357.081C540.021 357.081 541.051 356.568 541.812 355.543C542.584 354.508 542.97 352.975 542.97 350.943ZM556.798 345.582C556.388 345.514 555.943 345.479 555.465 345.479C553.688 345.479 552.481 346.236 551.847 347.75V359H549.137V343.15H551.773L551.817 344.981C552.706 343.565 553.966 342.857 555.597 342.857C556.124 342.857 556.524 342.926 556.798 343.062V345.582ZM561.852 356.788H571.124V359H558.541V357.008L567.286 345.392H558.673V343.15H570.685V345.069L561.852 356.788ZM579.371 355.03L583.062 343.15H585.963L579.591 361.446C578.604 364.083 577.037 365.401 574.889 365.401L574.376 365.357L573.365 365.167V362.97L574.098 363.028C575.016 363.028 575.729 362.843 576.236 362.472C576.754 362.101 577.179 361.422 577.511 360.436L578.111 358.824L572.457 343.15H575.416L579.371 355.03ZM594.547 357.081C595.514 357.081 596.358 356.788 597.081 356.202C597.804 355.616 598.204 354.884 598.282 354.005H600.846C600.797 354.913 600.484 355.777 599.908 356.598C599.332 357.418 598.561 358.072 597.594 358.561C596.637 359.049 595.621 359.293 594.547 359.293C592.389 359.293 590.67 358.575 589.391 357.14C588.121 355.694 587.486 353.722 587.486 351.222V350.768C587.486 349.225 587.77 347.853 588.336 346.651C588.902 345.45 589.713 344.518 590.768 343.854C591.832 343.189 593.087 342.857 594.532 342.857C596.31 342.857 597.784 343.39 598.956 344.454C600.138 345.519 600.768 346.9 600.846 348.6H598.282C598.204 347.574 597.813 346.734 597.11 346.08C596.417 345.416 595.558 345.084 594.532 345.084C593.155 345.084 592.086 345.582 591.324 346.578C590.572 347.564 590.196 348.995 590.196 350.87V351.383C590.196 353.209 590.572 354.615 591.324 355.602C592.076 356.588 593.15 357.081 594.547 357.081ZM606.441 356.788H615.714V359H603.131V357.008L611.876 345.392H603.263V343.15H615.274V345.069L606.441 356.788ZM623.961 355.03L627.652 343.15H630.553L624.181 361.446C623.194 364.083 621.627 365.401 619.479 365.401L618.966 365.357L617.955 365.167V362.97L618.688 363.028C619.605 363.028 620.318 362.843 620.826 362.472C621.344 362.101 621.769 361.422 622.101 360.436L622.701 358.824L617.047 343.15H620.006L623.961 355.03ZM635.548 343.15L635.636 345.143C636.847 343.619 638.429 342.857 640.382 342.857C643.731 342.857 645.421 344.747 645.45 348.526V359H642.74V348.512C642.73 347.369 642.467 346.524 641.949 345.978C641.441 345.431 640.646 345.157 639.562 345.157C638.683 345.157 637.911 345.392 637.247 345.86C636.583 346.329 636.065 346.944 635.694 347.706V359H632.984V343.15H635.548ZM654.723 355.03L658.414 343.15H661.314L654.942 361.446C653.956 364.083 652.389 365.401 650.24 365.401L649.728 365.357L648.717 365.167V362.97L649.449 363.028C650.367 363.028 651.08 362.843 651.588 362.472C652.105 362.101 652.53 361.422 652.862 360.436L653.463 358.824L647.809 343.15H650.768L654.723 355.03Z" fill="black"/>
<path id="S_C4_85_wa_C5_BCne_z_drugiej_przyczyny" d="M247.76 423.493C245.348 422.8 243.59 421.95 242.486 420.944C241.393 419.929 240.846 418.679 240.846 417.194C240.846 415.515 241.515 414.128 242.853 413.034C244.2 411.931 245.948 411.379 248.097 411.379C249.562 411.379 250.865 411.662 252.008 412.229C253.16 412.795 254.049 413.576 254.674 414.572C255.309 415.568 255.626 416.657 255.626 417.839H252.799C252.799 416.55 252.389 415.539 251.568 414.807C250.748 414.064 249.591 413.693 248.097 413.693C246.71 413.693 245.626 414.001 244.845 414.616C244.073 415.222 243.688 416.066 243.688 417.15C243.688 418.02 244.054 418.757 244.786 419.362C245.528 419.958 246.783 420.505 248.551 421.003C250.328 421.501 251.715 422.053 252.711 422.658C253.717 423.254 254.459 423.952 254.938 424.753C255.426 425.554 255.67 426.496 255.67 427.58C255.67 429.309 254.996 430.695 253.648 431.74C252.301 432.775 250.499 433.293 248.243 433.293C246.778 433.293 245.411 433.015 244.142 432.458C242.872 431.892 241.891 431.12 241.197 430.144C240.514 429.167 240.172 428.059 240.172 426.818H242.999C242.999 428.107 243.473 429.128 244.42 429.88C245.377 430.622 246.651 430.993 248.243 430.993C249.728 430.993 250.865 430.69 251.656 430.085C252.447 429.479 252.843 428.654 252.843 427.609C252.843 426.564 252.477 425.759 251.744 425.192C251.012 424.616 249.684 424.05 247.76 423.493ZM268.59 432.897C268.443 432.526 268.336 432.004 268.268 431.33C267.008 432.639 265.504 433.293 263.756 433.293C262.193 433.293 260.909 432.854 259.903 431.975C258.907 431.086 258.409 429.963 258.409 428.605C258.409 426.955 259.034 425.676 260.284 424.768C261.544 423.85 263.312 423.391 265.587 423.391H268.224V422.146C268.224 421.198 267.94 420.446 267.374 419.89C266.808 419.323 265.973 419.04 264.869 419.04C263.902 419.04 263.092 419.284 262.438 419.772C261.783 420.261 261.456 420.852 261.456 421.545H258.731C258.731 420.754 259.01 419.992 259.566 419.26C260.133 418.518 260.895 417.932 261.852 417.502C262.818 417.072 263.878 416.857 265.03 416.857C266.856 416.857 268.287 417.316 269.322 418.234C270.357 419.143 270.895 420.397 270.934 421.999V429.294C270.934 430.749 271.119 431.906 271.49 432.766V433H271.007L270.157 433.659C269.054 434.548 268.502 435.412 268.502 436.252C268.502 436.955 268.883 437.307 269.645 437.307C270.113 437.307 270.602 437.18 271.109 436.926L271.3 438.698C270.616 439.128 269.835 439.343 268.956 439.343C268.087 439.343 267.398 439.089 266.891 438.581C266.393 438.073 266.144 437.399 266.144 436.56C266.144 435.153 266.959 433.933 268.59 432.897ZM264.151 430.935C265.001 430.935 265.807 430.715 266.568 430.275C267.33 429.836 267.882 429.265 268.224 428.562V425.31H266.1C262.779 425.31 261.119 426.281 261.119 428.225C261.119 429.074 261.402 429.738 261.969 430.217C262.535 430.695 263.263 430.935 264.151 430.935ZM296.656 429.265L299.703 417.15H302.413L297.799 433H295.602L291.749 420.988L287.999 433H285.802L281.202 417.15H283.897L287.018 429.016L290.709 417.15H292.892L296.656 429.265ZM314.967 433C314.811 432.688 314.684 432.131 314.586 431.33C313.326 432.639 311.822 433.293 310.074 433.293C308.512 433.293 307.228 432.854 306.222 431.975C305.226 431.086 304.728 429.963 304.728 428.605C304.728 426.955 305.353 425.676 306.603 424.768C307.862 423.85 309.63 423.391 311.905 423.391H314.542V422.146C314.542 421.198 314.259 420.446 313.692 419.89C313.126 419.323 312.291 419.04 311.188 419.04C310.221 419.04 309.41 419.284 308.756 419.772C308.102 420.261 307.774 420.852 307.774 421.545H305.05C305.05 420.754 305.328 419.992 305.885 419.26C306.451 418.518 307.213 417.932 308.17 417.502C309.137 417.072 310.196 416.857 311.349 416.857C313.175 416.857 314.605 417.316 315.641 418.234C316.676 419.143 317.213 420.397 317.252 421.999V429.294C317.252 430.749 317.438 431.906 317.809 432.766V433H314.967ZM310.47 430.935C311.319 430.935 312.125 430.715 312.887 430.275C313.648 429.836 314.2 429.265 314.542 428.562V425.31H312.418C309.098 425.31 307.438 426.281 307.438 428.225C307.438 429.074 307.721 429.738 308.287 430.217C308.854 430.695 309.581 430.935 310.47 430.935ZM324.049 430.788H333.321V433H320.738V431.008L329.483 419.392H320.87V417.15H332.882V419.069L324.049 430.788ZM325.382 412.976C325.382 412.536 325.514 412.165 325.777 411.862C326.051 411.56 326.451 411.408 326.979 411.408C327.506 411.408 327.906 411.56 328.18 411.862C328.453 412.165 328.59 412.536 328.59 412.976C328.59 413.415 328.453 413.781 328.18 414.074C327.906 414.367 327.506 414.514 326.979 414.514C326.451 414.514 326.051 414.367 325.777 414.074C325.514 413.781 325.382 413.415 325.382 412.976ZM338.946 417.15L339.034 419.143C340.245 417.619 341.827 416.857 343.78 416.857C347.13 416.857 348.819 418.747 348.849 422.526V433H346.139V422.512C346.129 421.369 345.865 420.524 345.348 419.978C344.84 419.431 344.044 419.157 342.96 419.157C342.081 419.157 341.31 419.392 340.646 419.86C339.981 420.329 339.464 420.944 339.093 421.706V433H336.383V417.15H338.946ZM359.513 433.293C357.364 433.293 355.616 432.59 354.269 431.184C352.921 429.768 352.247 427.878 352.247 425.515V425.017C352.247 423.444 352.545 422.043 353.141 420.812C353.746 419.572 354.586 418.605 355.66 417.912C356.744 417.209 357.916 416.857 359.176 416.857C361.236 416.857 362.838 417.536 363.98 418.894C365.123 420.251 365.694 422.194 365.694 424.724V425.852H354.957C354.996 427.414 355.45 428.679 356.319 429.646C357.198 430.603 358.312 431.081 359.659 431.081C360.616 431.081 361.427 430.886 362.091 430.495C362.755 430.104 363.336 429.587 363.834 428.942L365.489 430.231C364.161 432.272 362.169 433.293 359.513 433.293ZM359.176 419.084C358.082 419.084 357.164 419.484 356.422 420.285C355.68 421.076 355.221 422.189 355.045 423.625H362.984V423.42C362.906 422.043 362.535 420.979 361.871 420.227C361.207 419.465 360.309 419.084 359.176 419.084ZM378.834 430.788H388.106V433H375.523V431.008L384.269 419.392H375.655V417.15H387.667V419.069L378.834 430.788ZM397.95 424.943C397.95 422.512 398.526 420.559 399.679 419.084C400.831 417.6 402.34 416.857 404.205 416.857C406.061 416.857 407.53 417.492 408.614 418.762V410.5H411.324V433H408.834L408.702 431.301C407.618 432.629 406.109 433.293 404.176 433.293C402.34 433.293 400.841 432.541 399.679 431.037C398.526 429.533 397.95 427.57 397.95 425.148V424.943ZM400.66 425.251C400.66 427.048 401.031 428.454 401.773 429.47C402.516 430.485 403.541 430.993 404.85 430.993C406.568 430.993 407.823 430.222 408.614 428.679V421.398C407.804 419.904 406.559 419.157 404.879 419.157C403.551 419.157 402.516 419.67 401.773 420.695C401.031 421.721 400.66 423.239 400.66 425.251ZM423.204 419.582C422.794 419.514 422.35 419.479 421.871 419.479C420.094 419.479 418.888 420.236 418.253 421.75V433H415.543V417.15H418.18L418.224 418.981C419.112 417.565 420.372 416.857 422.003 416.857C422.53 416.857 422.931 416.926 423.204 417.062V419.582ZM435.494 431.433C434.439 432.673 432.892 433.293 430.851 433.293C429.161 433.293 427.872 432.805 426.983 431.828C426.104 430.842 425.66 429.387 425.65 427.463V417.15H428.36V427.39C428.36 429.792 429.337 430.993 431.29 430.993C433.36 430.993 434.737 430.222 435.421 428.679V417.15H438.131V433H435.553L435.494 431.433ZM441.617 424.943C441.617 422.473 442.188 420.51 443.331 419.055C444.474 417.59 445.987 416.857 447.872 416.857C449.806 416.857 451.314 417.541 452.398 418.908L452.53 417.15H455.006V432.619C455.006 434.67 454.396 436.286 453.175 437.468C451.964 438.649 450.333 439.24 448.282 439.24C447.14 439.24 446.021 438.996 444.928 438.508C443.834 438.02 442.999 437.351 442.423 436.501L443.829 434.875C444.991 436.311 446.412 437.028 448.092 437.028C449.41 437.028 450.436 436.657 451.168 435.915C451.91 435.173 452.281 434.128 452.281 432.78V431.418C451.197 432.668 449.718 433.293 447.843 433.293C445.987 433.293 444.483 432.546 443.331 431.052C442.188 429.558 441.617 427.521 441.617 424.943ZM444.342 425.251C444.342 427.038 444.708 428.444 445.44 429.47C446.173 430.485 447.198 430.993 448.517 430.993C450.226 430.993 451.48 430.217 452.281 428.664V421.428C451.451 419.914 450.206 419.157 448.546 419.157C447.228 419.157 446.197 419.67 445.455 420.695C444.713 421.721 444.342 423.239 444.342 425.251ZM462.052 433H459.342V417.15H462.052V433ZM459.122 412.946C459.122 412.507 459.254 412.136 459.518 411.833C459.791 411.53 460.191 411.379 460.719 411.379C461.246 411.379 461.646 411.53 461.92 411.833C462.193 412.136 462.33 412.507 462.33 412.946C462.33 413.386 462.193 413.752 461.92 414.045C461.646 414.338 461.246 414.484 460.719 414.484C460.191 414.484 459.791 414.338 459.518 414.045C459.254 413.752 459.122 413.386 459.122 412.946ZM472.979 433.293C470.831 433.293 469.083 432.59 467.735 431.184C466.388 429.768 465.714 427.878 465.714 425.515V425.017C465.714 423.444 466.012 422.043 466.607 420.812C467.213 419.572 468.053 418.605 469.127 417.912C470.211 417.209 471.383 416.857 472.643 416.857C474.703 416.857 476.305 417.536 477.447 418.894C478.59 420.251 479.161 422.194 479.161 424.724V425.852H468.424C468.463 427.414 468.917 428.679 469.786 429.646C470.665 430.603 471.778 431.081 473.126 431.081C474.083 431.081 474.894 430.886 475.558 430.495C476.222 430.104 476.803 429.587 477.301 428.942L478.956 430.231C477.628 432.272 475.636 433.293 472.979 433.293ZM472.643 419.084C471.549 419.084 470.631 419.484 469.889 420.285C469.146 421.076 468.688 422.189 468.512 423.625H476.451V423.42C476.373 422.043 476.002 420.979 475.338 420.227C474.674 419.465 473.775 419.084 472.643 419.084ZM485.108 417.15V434.831C485.108 437.878 483.727 439.401 480.963 439.401C480.367 439.401 479.815 439.313 479.308 439.138V436.97C479.62 437.048 480.03 437.087 480.538 437.087C481.144 437.087 481.603 436.921 481.915 436.589C482.237 436.267 482.398 435.7 482.398 434.89V417.15H485.108ZM482.12 412.946C482.12 412.517 482.252 412.15 482.516 411.848C482.789 411.535 483.185 411.379 483.702 411.379C484.229 411.379 484.63 411.53 484.903 411.833C485.177 412.136 485.313 412.507 485.313 412.946C485.313 413.386 485.177 413.752 484.903 414.045C484.63 414.338 484.229 414.484 483.702 414.484C483.175 414.484 482.779 414.338 482.516 414.045C482.252 413.752 482.12 413.386 482.12 412.946ZM510.318 425.251C510.318 427.663 509.767 429.606 508.663 431.081C507.56 432.556 506.065 433.293 504.181 433.293C502.257 433.293 500.743 432.683 499.64 431.462V439.094H496.93V417.15H499.405L499.537 418.908C500.641 417.541 502.174 416.857 504.137 416.857C506.041 416.857 507.545 417.575 508.648 419.011C509.762 420.446 510.318 422.443 510.318 425.002V425.251ZM507.608 424.943C507.608 423.156 507.228 421.745 506.466 420.71C505.704 419.675 504.659 419.157 503.331 419.157C501.69 419.157 500.46 419.885 499.64 421.34V428.913C500.45 430.358 501.69 431.081 503.36 431.081C504.659 431.081 505.689 430.568 506.451 429.543C507.223 428.508 507.608 426.975 507.608 424.943ZM521.437 419.582C521.026 419.514 520.582 419.479 520.104 419.479C518.326 419.479 517.12 420.236 516.485 421.75V433H513.775V417.15H516.412L516.456 418.981C517.345 417.565 518.604 416.857 520.235 416.857C520.763 416.857 521.163 416.926 521.437 417.062V419.582ZM526.49 430.788H535.763V433H523.18V431.008L531.925 419.392H523.312V417.15H535.323V419.069L526.49 430.788ZM544.01 429.03L547.701 417.15H550.602L544.229 435.446C543.243 438.083 541.676 439.401 539.527 439.401L539.015 439.357L538.004 439.167V436.97L538.736 437.028C539.654 437.028 540.367 436.843 540.875 436.472C541.393 436.101 541.817 435.422 542.149 434.436L542.75 432.824L537.096 417.15H540.055L544.01 429.03ZM559.186 431.081C560.152 431.081 560.997 430.788 561.72 430.202C562.442 429.616 562.843 428.884 562.921 428.005H565.484C565.436 428.913 565.123 429.777 564.547 430.598C563.971 431.418 563.199 432.072 562.232 432.561C561.275 433.049 560.26 433.293 559.186 433.293C557.027 433.293 555.309 432.575 554.029 431.14C552.76 429.694 552.125 427.722 552.125 425.222V424.768C552.125 423.225 552.408 421.853 552.975 420.651C553.541 419.45 554.352 418.518 555.406 417.854C556.471 417.189 557.726 416.857 559.171 416.857C560.948 416.857 562.423 417.39 563.595 418.454C564.776 419.519 565.406 420.9 565.484 422.6H562.921C562.843 421.574 562.452 420.734 561.749 420.08C561.056 419.416 560.196 419.084 559.171 419.084C557.794 419.084 556.725 419.582 555.963 420.578C555.211 421.564 554.835 422.995 554.835 424.87V425.383C554.835 427.209 555.211 428.615 555.963 429.602C556.715 430.588 557.789 431.081 559.186 431.081ZM571.08 430.788H580.353V433H567.77V431.008L576.515 419.392H567.901V417.15H579.913V419.069L571.08 430.788ZM588.6 429.03L592.291 417.15H595.191L588.819 435.446C587.833 438.083 586.266 439.401 584.117 439.401L583.604 439.357L582.594 439.167V436.97L583.326 437.028C584.244 437.028 584.957 436.843 585.465 436.472C585.982 436.101 586.407 435.422 586.739 434.436L587.34 432.824L581.686 417.15H584.645L588.6 429.03ZM600.187 417.15L600.274 419.143C601.485 417.619 603.067 416.857 605.021 416.857C608.37 416.857 610.06 418.747 610.089 422.526V433H607.379V422.512C607.369 421.369 607.105 420.524 606.588 419.978C606.08 419.431 605.284 419.157 604.2 419.157C603.321 419.157 602.55 419.392 601.886 419.86C601.222 420.329 600.704 420.944 600.333 421.706V433H597.623V417.15H600.187ZM619.361 429.03L623.053 417.15H625.953L619.581 435.446C618.595 438.083 617.027 439.401 614.879 439.401L614.366 439.357L613.355 439.167V436.97L614.088 437.028C615.006 437.028 615.719 436.843 616.227 436.472C616.744 436.101 617.169 435.422 617.501 434.436L618.102 432.824L612.447 417.15H615.406L619.361 429.03Z" fill="black"/>
<path id="S_C4_85_wa_C5_BCne_z_trzeciej_przyczyny" d="M247.76 497.493C245.348 496.8 243.59 495.95 242.486 494.944C241.393 493.929 240.846 492.679 240.846 491.194C240.846 489.515 241.515 488.128 242.853 487.034C244.2 485.931 245.948 485.379 248.097 485.379C249.562 485.379 250.865 485.662 252.008 486.229C253.16 486.795 254.049 487.576 254.674 488.572C255.309 489.568 255.626 490.657 255.626 491.839H252.799C252.799 490.55 252.389 489.539 251.568 488.807C250.748 488.064 249.591 487.693 248.097 487.693C246.71 487.693 245.626 488.001 244.845 488.616C244.073 489.222 243.688 490.066 243.688 491.15C243.688 492.02 244.054 492.757 244.786 493.362C245.528 493.958 246.783 494.505 248.551 495.003C250.328 495.501 251.715 496.053 252.711 496.658C253.717 497.254 254.459 497.952 254.938 498.753C255.426 499.554 255.67 500.496 255.67 501.58C255.67 503.309 254.996 504.695 253.648 505.74C252.301 506.775 250.499 507.293 248.243 507.293C246.778 507.293 245.411 507.015 244.142 506.458C242.872 505.892 241.891 505.12 241.197 504.144C240.514 503.167 240.172 502.059 240.172 500.818H242.999C242.999 502.107 243.473 503.128 244.42 503.88C245.377 504.622 246.651 504.993 248.243 504.993C249.728 504.993 250.865 504.69 251.656 504.085C252.447 503.479 252.843 502.654 252.843 501.609C252.843 500.564 252.477 499.759 251.744 499.192C251.012 498.616 249.684 498.05 247.76 497.493ZM268.59 506.897C268.443 506.526 268.336 506.004 268.268 505.33C267.008 506.639 265.504 507.293 263.756 507.293C262.193 507.293 260.909 506.854 259.903 505.975C258.907 505.086 258.409 503.963 258.409 502.605C258.409 500.955 259.034 499.676 260.284 498.768C261.544 497.85 263.312 497.391 265.587 497.391H268.224V496.146C268.224 495.198 267.94 494.446 267.374 493.89C266.808 493.323 265.973 493.04 264.869 493.04C263.902 493.04 263.092 493.284 262.438 493.772C261.783 494.261 261.456 494.852 261.456 495.545H258.731C258.731 494.754 259.01 493.992 259.566 493.26C260.133 492.518 260.895 491.932 261.852 491.502C262.818 491.072 263.878 490.857 265.03 490.857C266.856 490.857 268.287 491.316 269.322 492.234C270.357 493.143 270.895 494.397 270.934 495.999V503.294C270.934 504.749 271.119 505.906 271.49 506.766V507H271.007L270.157 507.659C269.054 508.548 268.502 509.412 268.502 510.252C268.502 510.955 268.883 511.307 269.645 511.307C270.113 511.307 270.602 511.18 271.109 510.926L271.3 512.698C270.616 513.128 269.835 513.343 268.956 513.343C268.087 513.343 267.398 513.089 266.891 512.581C266.393 512.073 266.144 511.399 266.144 510.56C266.144 509.153 266.959 507.933 268.59 506.897ZM264.151 504.935C265.001 504.935 265.807 504.715 266.568 504.275C267.33 503.836 267.882 503.265 268.224 502.562V499.31H266.1C262.779 499.31 261.119 500.281 261.119 502.225C261.119 503.074 261.402 503.738 261.969 504.217C262.535 504.695 263.263 504.935 264.151 504.935ZM296.656 503.265L299.703 491.15H302.413L297.799 507H295.602L291.749 494.988L287.999 507H285.802L281.202 491.15H283.897L287.018 503.016L290.709 491.15H292.892L296.656 503.265ZM314.967 507C314.811 506.688 314.684 506.131 314.586 505.33C313.326 506.639 311.822 507.293 310.074 507.293C308.512 507.293 307.228 506.854 306.222 505.975C305.226 505.086 304.728 503.963 304.728 502.605C304.728 500.955 305.353 499.676 306.603 498.768C307.862 497.85 309.63 497.391 311.905 497.391H314.542V496.146C314.542 495.198 314.259 494.446 313.692 493.89C313.126 493.323 312.291 493.04 311.188 493.04C310.221 493.04 309.41 493.284 308.756 493.772C308.102 494.261 307.774 494.852 307.774 495.545H305.05C305.05 494.754 305.328 493.992 305.885 493.26C306.451 492.518 307.213 491.932 308.17 491.502C309.137 491.072 310.196 490.857 311.349 490.857C313.175 490.857 314.605 491.316 315.641 492.234C316.676 493.143 317.213 494.397 317.252 495.999V503.294C317.252 504.749 317.438 505.906 317.809 506.766V507H314.967ZM310.47 504.935C311.319 504.935 312.125 504.715 312.887 504.275C313.648 503.836 314.2 503.265 314.542 502.562V499.31H312.418C309.098 499.31 307.438 500.281 307.438 502.225C307.438 503.074 307.721 503.738 308.287 504.217C308.854 504.695 309.581 504.935 310.47 504.935ZM324.049 504.788H333.321V507H320.738V505.008L329.483 493.392H320.87V491.15H332.882V493.069L324.049 504.788ZM325.382 486.976C325.382 486.536 325.514 486.165 325.777 485.862C326.051 485.56 326.451 485.408 326.979 485.408C327.506 485.408 327.906 485.56 328.18 485.862C328.453 486.165 328.59 486.536 328.59 486.976C328.59 487.415 328.453 487.781 328.18 488.074C327.906 488.367 327.506 488.514 326.979 488.514C326.451 488.514 326.051 488.367 325.777 488.074C325.514 487.781 325.382 487.415 325.382 486.976ZM338.946 491.15L339.034 493.143C340.245 491.619 341.827 490.857 343.78 490.857C347.13 490.857 348.819 492.747 348.849 496.526V507H346.139V496.512C346.129 495.369 345.865 494.524 345.348 493.978C344.84 493.431 344.044 493.157 342.96 493.157C342.081 493.157 341.31 493.392 340.646 493.86C339.981 494.329 339.464 494.944 339.093 495.706V507H336.383V491.15H338.946ZM359.513 507.293C357.364 507.293 355.616 506.59 354.269 505.184C352.921 503.768 352.247 501.878 352.247 499.515V499.017C352.247 497.444 352.545 496.043 353.141 494.812C353.746 493.572 354.586 492.605 355.66 491.912C356.744 491.209 357.916 490.857 359.176 490.857C361.236 490.857 362.838 491.536 363.98 492.894C365.123 494.251 365.694 496.194 365.694 498.724V499.852H354.957C354.996 501.414 355.45 502.679 356.319 503.646C357.198 504.603 358.312 505.081 359.659 505.081C360.616 505.081 361.427 504.886 362.091 504.495C362.755 504.104 363.336 503.587 363.834 502.942L365.489 504.231C364.161 506.272 362.169 507.293 359.513 507.293ZM359.176 493.084C358.082 493.084 357.164 493.484 356.422 494.285C355.68 495.076 355.221 496.189 355.045 497.625H362.984V497.42C362.906 496.043 362.535 494.979 361.871 494.227C361.207 493.465 360.309 493.084 359.176 493.084ZM378.834 504.788H388.106V507H375.523V505.008L384.269 493.392H375.655V491.15H387.667V493.069L378.834 504.788ZM402.286 487.312V491.15H405.245V493.245H402.286V503.074C402.286 503.709 402.418 504.188 402.682 504.51C402.945 504.822 403.395 504.979 404.029 504.979C404.342 504.979 404.771 504.92 405.318 504.803V507C404.605 507.195 403.912 507.293 403.238 507.293C402.027 507.293 401.114 506.927 400.499 506.194C399.884 505.462 399.576 504.422 399.576 503.074V493.245H396.69V491.15H399.576V487.312H402.286ZM416.085 493.582C415.675 493.514 415.23 493.479 414.752 493.479C412.975 493.479 411.769 494.236 411.134 495.75V507H408.424V491.15H411.061L411.104 492.981C411.993 491.565 413.253 490.857 414.884 490.857C415.411 490.857 415.812 490.926 416.085 491.062V493.582ZM421.139 504.788H430.411V507H417.828V505.008L426.573 493.392H417.96V491.15H429.972V493.069L421.139 504.788ZM439.815 507.293C437.667 507.293 435.919 506.59 434.571 505.184C433.224 503.768 432.55 501.878 432.55 499.515V499.017C432.55 497.444 432.848 496.043 433.443 494.812C434.049 493.572 434.889 492.605 435.963 491.912C437.047 491.209 438.219 490.857 439.479 490.857C441.539 490.857 443.141 491.536 444.283 492.894C445.426 494.251 445.997 496.194 445.997 498.724V499.852H435.26C435.299 501.414 435.753 502.679 436.622 503.646C437.501 504.603 438.614 505.081 439.962 505.081C440.919 505.081 441.729 504.886 442.394 504.495C443.058 504.104 443.639 503.587 444.137 502.942L445.792 504.231C444.464 506.272 442.472 507.293 439.815 507.293ZM439.479 493.084C438.385 493.084 437.467 493.484 436.725 494.285C435.982 495.076 435.523 496.189 435.348 497.625H443.287V497.42C443.209 496.043 442.838 494.979 442.174 494.227C441.51 493.465 440.611 493.084 439.479 493.084ZM455.504 505.081C456.471 505.081 457.315 504.788 458.038 504.202C458.761 503.616 459.161 502.884 459.239 502.005H461.803C461.754 502.913 461.441 503.777 460.865 504.598C460.289 505.418 459.518 506.072 458.551 506.561C457.594 507.049 456.578 507.293 455.504 507.293C453.346 507.293 451.627 506.575 450.348 505.14C449.078 503.694 448.443 501.722 448.443 499.222V498.768C448.443 497.225 448.727 495.853 449.293 494.651C449.859 493.45 450.67 492.518 451.725 491.854C452.789 491.189 454.044 490.857 455.489 490.857C457.267 490.857 458.741 491.39 459.913 492.454C461.095 493.519 461.725 494.9 461.803 496.6H459.239C459.161 495.574 458.771 494.734 458.067 494.08C457.374 493.416 456.515 493.084 455.489 493.084C454.112 493.084 453.043 493.582 452.281 494.578C451.529 495.564 451.153 496.995 451.153 498.87V499.383C451.153 501.209 451.529 502.615 452.281 503.602C453.033 504.588 454.107 505.081 455.504 505.081ZM467.794 507H465.084V491.15H467.794V507ZM464.864 486.946C464.864 486.507 464.996 486.136 465.26 485.833C465.533 485.53 465.934 485.379 466.461 485.379C466.988 485.379 467.389 485.53 467.662 485.833C467.936 486.136 468.072 486.507 468.072 486.946C468.072 487.386 467.936 487.752 467.662 488.045C467.389 488.338 466.988 488.484 466.461 488.484C465.934 488.484 465.533 488.338 465.26 488.045C464.996 487.752 464.864 487.386 464.864 486.946ZM478.722 507.293C476.573 507.293 474.825 506.59 473.478 505.184C472.13 503.768 471.456 501.878 471.456 499.515V499.017C471.456 497.444 471.754 496.043 472.35 494.812C472.955 493.572 473.795 492.605 474.869 491.912C475.953 491.209 477.125 490.857 478.385 490.857C480.445 490.857 482.047 491.536 483.189 492.894C484.332 494.251 484.903 496.194 484.903 498.724V499.852H474.166C474.205 501.414 474.659 502.679 475.528 503.646C476.407 504.603 477.521 505.081 478.868 505.081C479.825 505.081 480.636 504.886 481.3 504.495C481.964 504.104 482.545 503.587 483.043 502.942L484.698 504.231C483.37 506.272 481.378 507.293 478.722 507.293ZM478.385 493.084C477.291 493.084 476.373 493.484 475.631 494.285C474.889 495.076 474.43 496.189 474.254 497.625H482.193V497.42C482.115 496.043 481.744 494.979 481.08 494.227C480.416 493.465 479.518 493.084 478.385 493.084ZM490.851 491.15V508.831C490.851 511.878 489.469 513.401 486.705 513.401C486.109 513.401 485.558 513.313 485.05 513.138V510.97C485.362 511.048 485.772 511.087 486.28 511.087C486.886 511.087 487.345 510.921 487.657 510.589C487.979 510.267 488.141 509.7 488.141 508.89V491.15H490.851ZM487.862 486.946C487.862 486.517 487.994 486.15 488.258 485.848C488.531 485.535 488.927 485.379 489.444 485.379C489.972 485.379 490.372 485.53 490.646 485.833C490.919 486.136 491.056 486.507 491.056 486.946C491.056 487.386 490.919 487.752 490.646 488.045C490.372 488.338 489.972 488.484 489.444 488.484C488.917 488.484 488.521 488.338 488.258 488.045C487.994 487.752 487.862 487.386 487.862 486.946ZM516.061 499.251C516.061 501.663 515.509 503.606 514.405 505.081C513.302 506.556 511.808 507.293 509.923 507.293C507.999 507.293 506.485 506.683 505.382 505.462V513.094H502.672V491.15H505.147L505.279 492.908C506.383 491.541 507.916 490.857 509.879 490.857C511.783 490.857 513.287 491.575 514.391 493.011C515.504 494.446 516.061 496.443 516.061 499.002V499.251ZM513.351 498.943C513.351 497.156 512.97 495.745 512.208 494.71C511.446 493.675 510.401 493.157 509.073 493.157C507.433 493.157 506.202 493.885 505.382 495.34V502.913C506.192 504.358 507.433 505.081 509.103 505.081C510.401 505.081 511.432 504.568 512.193 503.543C512.965 502.508 513.351 500.975 513.351 498.943ZM527.179 493.582C526.769 493.514 526.324 493.479 525.846 493.479C524.068 493.479 522.862 494.236 522.228 495.75V507H519.518V491.15H522.154L522.198 492.981C523.087 491.565 524.347 490.857 525.978 490.857C526.505 490.857 526.905 490.926 527.179 491.062V493.582ZM532.232 504.788H541.505V507H528.922V505.008L537.667 493.392H529.054V491.15H541.065V493.069L532.232 504.788ZM549.752 503.03L553.443 491.15H556.344L549.972 509.446C548.985 512.083 547.418 513.401 545.27 513.401L544.757 513.357L543.746 513.167V510.97L544.479 511.028C545.396 511.028 546.109 510.843 546.617 510.472C547.135 510.101 547.56 509.422 547.892 508.436L548.492 506.824L542.838 491.15H545.797L549.752 503.03ZM564.928 505.081C565.895 505.081 566.739 504.788 567.462 504.202C568.185 503.616 568.585 502.884 568.663 502.005H571.227C571.178 502.913 570.865 503.777 570.289 504.598C569.713 505.418 568.941 506.072 567.975 506.561C567.018 507.049 566.002 507.293 564.928 507.293C562.77 507.293 561.051 506.575 559.771 505.14C558.502 503.694 557.867 501.722 557.867 499.222V498.768C557.867 497.225 558.15 495.853 558.717 494.651C559.283 493.45 560.094 492.518 561.148 491.854C562.213 491.189 563.468 490.857 564.913 490.857C566.69 490.857 568.165 491.39 569.337 492.454C570.519 493.519 571.148 494.9 571.227 496.6H568.663C568.585 495.574 568.194 494.734 567.491 494.08C566.798 493.416 565.938 493.084 564.913 493.084C563.536 493.084 562.467 493.582 561.705 494.578C560.953 495.564 560.577 496.995 560.577 498.87V499.383C560.577 501.209 560.953 502.615 561.705 503.602C562.457 504.588 563.531 505.081 564.928 505.081ZM576.822 504.788H586.095V507H573.512V505.008L582.257 493.392H573.644V491.15H585.655V493.069L576.822 504.788ZM594.342 503.03L598.033 491.15H600.934L594.562 509.446C593.575 512.083 592.008 513.401 589.859 513.401L589.347 513.357L588.336 513.167V510.97L589.068 511.028C589.986 511.028 590.699 510.843 591.207 510.472C591.725 510.101 592.149 509.422 592.481 508.436L593.082 506.824L587.428 491.15H590.387L594.342 503.03ZM605.929 491.15L606.017 493.143C607.228 491.619 608.81 490.857 610.763 490.857C614.112 490.857 615.802 492.747 615.831 496.526V507H613.121V496.512C613.111 495.369 612.848 494.524 612.33 493.978C611.822 493.431 611.026 493.157 609.942 493.157C609.063 493.157 608.292 493.392 607.628 493.86C606.964 494.329 606.446 494.944 606.075 495.706V507H603.365V491.15H605.929ZM625.104 503.03L628.795 491.15H631.695L625.323 509.446C624.337 512.083 622.77 513.401 620.621 513.401L620.108 513.357L619.098 513.167V510.97L619.83 511.028C620.748 511.028 621.461 510.843 621.969 510.472C622.486 510.101 622.911 509.422 623.243 508.436L623.844 506.824L618.189 491.15H621.148L625.104 503.03Z" fill="black"/>
<path id="S_C4_85_wa_C5_BCne_z_czwartej_przyczyny" d="M247.76 571.493C245.348 570.8 243.59 569.95 242.486 568.944C241.393 567.929 240.846 566.679 240.846 565.194C240.846 563.515 241.515 562.128 242.853 561.034C244.2 559.931 245.948 559.379 248.097 559.379C249.562 559.379 250.865 559.662 252.008 560.229C253.16 560.795 254.049 561.576 254.674 562.572C255.309 563.568 255.626 564.657 255.626 565.839H252.799C252.799 564.55 252.389 563.539 251.568 562.807C250.748 562.064 249.591 561.693 248.097 561.693C246.71 561.693 245.626 562.001 244.845 562.616C244.073 563.222 243.688 564.066 243.688 565.15C243.688 566.02 244.054 566.757 244.786 567.362C245.528 567.958 246.783 568.505 248.551 569.003C250.328 569.501 251.715 570.053 252.711 570.658C253.717 571.254 254.459 571.952 254.938 572.753C255.426 573.554 255.67 574.496 255.67 575.58C255.67 577.309 254.996 578.695 253.648 579.74C252.301 580.775 250.499 581.293 248.243 581.293C246.778 581.293 245.411 581.015 244.142 580.458C242.872 579.892 241.891 579.12 241.197 578.144C240.514 577.167 240.172 576.059 240.172 574.818H242.999C242.999 576.107 243.473 577.128 244.42 577.88C245.377 578.622 246.651 578.993 248.243 578.993C249.728 578.993 250.865 578.69 251.656 578.085C252.447 577.479 252.843 576.654 252.843 575.609C252.843 574.564 252.477 573.759 251.744 573.192C251.012 572.616 249.684 572.05 247.76 571.493ZM268.59 580.897C268.443 580.526 268.336 580.004 268.268 579.33C267.008 580.639 265.504 581.293 263.756 581.293C262.193 581.293 260.909 580.854 259.903 579.975C258.907 579.086 258.409 577.963 258.409 576.605C258.409 574.955 259.034 573.676 260.284 572.768C261.544 571.85 263.312 571.391 265.587 571.391H268.224V570.146C268.224 569.198 267.94 568.446 267.374 567.89C266.808 567.323 265.973 567.04 264.869 567.04C263.902 567.04 263.092 567.284 262.438 567.772C261.783 568.261 261.456 568.852 261.456 569.545H258.731C258.731 568.754 259.01 567.992 259.566 567.26C260.133 566.518 260.895 565.932 261.852 565.502C262.818 565.072 263.878 564.857 265.03 564.857C266.856 564.857 268.287 565.316 269.322 566.234C270.357 567.143 270.895 568.397 270.934 569.999V577.294C270.934 578.749 271.119 579.906 271.49 580.766V581H271.007L270.157 581.659C269.054 582.548 268.502 583.412 268.502 584.252C268.502 584.955 268.883 585.307 269.645 585.307C270.113 585.307 270.602 585.18 271.109 584.926L271.3 586.698C270.616 587.128 269.835 587.343 268.956 587.343C268.087 587.343 267.398 587.089 266.891 586.581C266.393 586.073 266.144 585.399 266.144 584.56C266.144 583.153 266.959 581.933 268.59 580.897ZM264.151 578.935C265.001 578.935 265.807 578.715 266.568 578.275C267.33 577.836 267.882 577.265 268.224 576.562V573.31H266.1C262.779 573.31 261.119 574.281 261.119 576.225C261.119 577.074 261.402 577.738 261.969 578.217C262.535 578.695 263.263 578.935 264.151 578.935ZM296.656 577.265L299.703 565.15H302.413L297.799 581H295.602L291.749 568.988L287.999 581H285.802L281.202 565.15H283.897L287.018 577.016L290.709 565.15H292.892L296.656 577.265ZM314.967 581C314.811 580.688 314.684 580.131 314.586 579.33C313.326 580.639 311.822 581.293 310.074 581.293C308.512 581.293 307.228 580.854 306.222 579.975C305.226 579.086 304.728 577.963 304.728 576.605C304.728 574.955 305.353 573.676 306.603 572.768C307.862 571.85 309.63 571.391 311.905 571.391H314.542V570.146C314.542 569.198 314.259 568.446 313.692 567.89C313.126 567.323 312.291 567.04 311.188 567.04C310.221 567.04 309.41 567.284 308.756 567.772C308.102 568.261 307.774 568.852 307.774 569.545H305.05C305.05 568.754 305.328 567.992 305.885 567.26C306.451 566.518 307.213 565.932 308.17 565.502C309.137 565.072 310.196 564.857 311.349 564.857C313.175 564.857 314.605 565.316 315.641 566.234C316.676 567.143 317.213 568.397 317.252 569.999V577.294C317.252 578.749 317.438 579.906 317.809 580.766V581H314.967ZM310.47 578.935C311.319 578.935 312.125 578.715 312.887 578.275C313.648 577.836 314.2 577.265 314.542 576.562V573.31H312.418C309.098 573.31 307.438 574.281 307.438 576.225C307.438 577.074 307.721 577.738 308.287 578.217C308.854 578.695 309.581 578.935 310.47 578.935ZM324.049 578.788H333.321V581H320.738V579.008L329.483 567.392H320.87V565.15H332.882V567.069L324.049 578.788ZM325.382 560.976C325.382 560.536 325.514 560.165 325.777 559.862C326.051 559.56 326.451 559.408 326.979 559.408C327.506 559.408 327.906 559.56 328.18 559.862C328.453 560.165 328.59 560.536 328.59 560.976C328.59 561.415 328.453 561.781 328.18 562.074C327.906 562.367 327.506 562.514 326.979 562.514C326.451 562.514 326.051 562.367 325.777 562.074C325.514 561.781 325.382 561.415 325.382 560.976ZM338.946 565.15L339.034 567.143C340.245 565.619 341.827 564.857 343.78 564.857C347.13 564.857 348.819 566.747 348.849 570.526V581H346.139V570.512C346.129 569.369 345.865 568.524 345.348 567.978C344.84 567.431 344.044 567.157 342.96 567.157C342.081 567.157 341.31 567.392 340.646 567.86C339.981 568.329 339.464 568.944 339.093 569.706V581H336.383V565.15H338.946ZM359.513 581.293C357.364 581.293 355.616 580.59 354.269 579.184C352.921 577.768 352.247 575.878 352.247 573.515V573.017C352.247 571.444 352.545 570.043 353.141 568.812C353.746 567.572 354.586 566.605 355.66 565.912C356.744 565.209 357.916 564.857 359.176 564.857C361.236 564.857 362.838 565.536 363.98 566.894C365.123 568.251 365.694 570.194 365.694 572.724V573.852H354.957C354.996 575.414 355.45 576.679 356.319 577.646C357.198 578.603 358.312 579.081 359.659 579.081C360.616 579.081 361.427 578.886 362.091 578.495C362.755 578.104 363.336 577.587 363.834 576.942L365.489 578.231C364.161 580.272 362.169 581.293 359.513 581.293ZM359.176 567.084C358.082 567.084 357.164 567.484 356.422 568.285C355.68 569.076 355.221 570.189 355.045 571.625H362.984V571.42C362.906 570.043 362.535 568.979 361.871 568.227C361.207 567.465 360.309 567.084 359.176 567.084ZM378.834 578.788H388.106V581H375.523V579.008L384.269 567.392H375.655V565.15H387.667V567.069L378.834 578.788ZM404.967 579.081C405.934 579.081 406.778 578.788 407.501 578.202C408.224 577.616 408.624 576.884 408.702 576.005H411.266C411.217 576.913 410.904 577.777 410.328 578.598C409.752 579.418 408.98 580.072 408.014 580.561C407.057 581.049 406.041 581.293 404.967 581.293C402.809 581.293 401.09 580.575 399.811 579.14C398.541 577.694 397.906 575.722 397.906 573.222V572.768C397.906 571.225 398.189 569.853 398.756 568.651C399.322 567.45 400.133 566.518 401.188 565.854C402.252 565.189 403.507 564.857 404.952 564.857C406.729 564.857 408.204 565.39 409.376 566.454C410.558 567.519 411.188 568.9 411.266 570.6H408.702C408.624 569.574 408.233 568.734 407.53 568.08C406.837 567.416 405.978 567.084 404.952 567.084C403.575 567.084 402.506 567.582 401.744 568.578C400.992 569.564 400.616 570.995 400.616 572.87V573.383C400.616 575.209 400.992 576.615 401.744 577.602C402.496 578.588 403.57 579.081 404.967 579.081ZM416.861 578.788H426.134V581H413.551V579.008L422.296 567.392H413.683V565.15H425.694V567.069L416.861 578.788ZM443.229 577.265L446.275 565.15H448.985L444.371 581H442.174L438.321 568.988L434.571 581H432.374L427.774 565.15H430.47L433.59 577.016L437.281 565.15H439.464L443.229 577.265ZM461.539 581C461.383 580.688 461.256 580.131 461.158 579.33C459.898 580.639 458.395 581.293 456.646 581.293C455.084 581.293 453.8 580.854 452.794 579.975C451.798 579.086 451.3 577.963 451.3 576.605C451.3 574.955 451.925 573.676 453.175 572.768C454.435 571.85 456.202 571.391 458.478 571.391H461.114V570.146C461.114 569.198 460.831 568.446 460.265 567.89C459.698 567.323 458.863 567.04 457.76 567.04C456.793 567.04 455.982 567.284 455.328 567.772C454.674 568.261 454.347 568.852 454.347 569.545H451.622C451.622 568.754 451.9 567.992 452.457 567.26C453.023 566.518 453.785 565.932 454.742 565.502C455.709 565.072 456.769 564.857 457.921 564.857C459.747 564.857 461.178 565.316 462.213 566.234C463.248 567.143 463.785 568.397 463.824 569.999V577.294C463.824 578.749 464.01 579.906 464.381 580.766V581H461.539ZM457.042 578.935C457.892 578.935 458.697 578.715 459.459 578.275C460.221 577.836 460.772 577.265 461.114 576.562V573.31H458.99C455.67 573.31 454.01 574.281 454.01 576.225C454.01 577.074 454.293 577.738 454.859 578.217C455.426 578.695 456.153 578.935 457.042 578.935ZM475.733 567.582C475.323 567.514 474.879 567.479 474.4 567.479C472.623 567.479 471.417 568.236 470.782 569.75V581H468.072V565.15H470.709L470.753 566.981C471.642 565.565 472.901 564.857 474.532 564.857C475.06 564.857 475.46 564.926 475.733 565.062V567.582ZM482.647 561.312V565.15H485.606V567.245H482.647V577.074C482.647 577.709 482.779 578.188 483.043 578.51C483.307 578.822 483.756 578.979 484.391 578.979C484.703 578.979 485.133 578.92 485.68 578.803V581C484.967 581.195 484.273 581.293 483.6 581.293C482.389 581.293 481.476 580.927 480.86 580.194C480.245 579.462 479.938 578.422 479.938 577.074V567.245H477.052V565.15H479.938V561.312H482.647ZM495.362 581.293C493.214 581.293 491.466 580.59 490.118 579.184C488.771 577.768 488.097 575.878 488.097 573.515V573.017C488.097 571.444 488.395 570.043 488.99 568.812C489.596 567.572 490.436 566.605 491.51 565.912C492.594 565.209 493.766 564.857 495.025 564.857C497.086 564.857 498.688 565.536 499.83 566.894C500.973 568.251 501.544 570.194 501.544 572.724V573.852H490.807C490.846 575.414 491.3 576.679 492.169 577.646C493.048 578.603 494.161 579.081 495.509 579.081C496.466 579.081 497.276 578.886 497.94 578.495C498.604 578.104 499.186 577.587 499.684 576.942L501.339 578.231C500.011 580.272 498.019 581.293 495.362 581.293ZM495.025 567.084C493.932 567.084 493.014 567.484 492.271 568.285C491.529 569.076 491.07 570.189 490.895 571.625H498.834V571.42C498.756 570.043 498.385 568.979 497.721 568.227C497.057 567.465 496.158 567.084 495.025 567.084ZM507.491 565.15V582.831C507.491 585.878 506.109 587.401 503.346 587.401C502.75 587.401 502.198 587.313 501.69 587.138V584.97C502.003 585.048 502.413 585.087 502.921 585.087C503.526 585.087 503.985 584.921 504.298 584.589C504.62 584.267 504.781 583.7 504.781 582.89V565.15H507.491ZM504.503 560.946C504.503 560.517 504.635 560.15 504.898 559.848C505.172 559.535 505.567 559.379 506.085 559.379C506.612 559.379 507.013 559.53 507.286 559.833C507.56 560.136 507.696 560.507 507.696 560.946C507.696 561.386 507.56 561.752 507.286 562.045C507.013 562.338 506.612 562.484 506.085 562.484C505.558 562.484 505.162 562.338 504.898 562.045C504.635 561.752 504.503 561.386 504.503 560.946ZM532.701 573.251C532.701 575.663 532.149 577.606 531.046 579.081C529.942 580.556 528.448 581.293 526.563 581.293C524.64 581.293 523.126 580.683 522.022 579.462V587.094H519.312V565.15H521.788L521.92 566.908C523.023 565.541 524.557 564.857 526.52 564.857C528.424 564.857 529.928 565.575 531.031 567.011C532.145 568.446 532.701 570.443 532.701 573.002V573.251ZM529.991 572.943C529.991 571.156 529.61 569.745 528.849 568.71C528.087 567.675 527.042 567.157 525.714 567.157C524.073 567.157 522.843 567.885 522.022 569.34V576.913C522.833 578.358 524.073 579.081 525.743 579.081C527.042 579.081 528.072 578.568 528.834 577.543C529.605 576.508 529.991 574.975 529.991 572.943ZM543.819 567.582C543.409 567.514 542.965 567.479 542.486 567.479C540.709 567.479 539.503 568.236 538.868 569.75V581H536.158V565.15H538.795L538.839 566.981C539.728 565.565 540.987 564.857 542.618 564.857C543.146 564.857 543.546 564.926 543.819 565.062V567.582ZM548.873 578.788H558.146V581H545.562V579.008L554.308 567.392H545.694V565.15H557.706V567.069L548.873 578.788ZM566.393 577.03L570.084 565.15H572.984L566.612 583.446C565.626 586.083 564.059 587.401 561.91 587.401L561.397 587.357L560.387 587.167V584.97L561.119 585.028C562.037 585.028 562.75 584.843 563.258 584.472C563.775 584.101 564.2 583.422 564.532 582.436L565.133 580.824L559.479 565.15H562.438L566.393 577.03ZM581.568 579.081C582.535 579.081 583.38 578.788 584.103 578.202C584.825 577.616 585.226 576.884 585.304 576.005H587.867C587.818 576.913 587.506 577.777 586.93 578.598C586.354 579.418 585.582 580.072 584.615 580.561C583.658 581.049 582.643 581.293 581.568 581.293C579.41 581.293 577.691 580.575 576.412 579.14C575.143 577.694 574.508 575.722 574.508 573.222V572.768C574.508 571.225 574.791 569.853 575.357 568.651C575.924 567.45 576.734 566.518 577.789 565.854C578.854 565.189 580.108 564.857 581.554 564.857C583.331 564.857 584.806 565.39 585.978 566.454C587.159 567.519 587.789 568.9 587.867 570.6H585.304C585.226 569.574 584.835 568.734 584.132 568.08C583.438 567.416 582.579 567.084 581.554 567.084C580.177 567.084 579.107 567.582 578.346 568.578C577.594 569.564 577.218 570.995 577.218 572.87V573.383C577.218 575.209 577.594 576.615 578.346 577.602C579.098 578.588 580.172 579.081 581.568 579.081ZM593.463 578.788H602.735V581H590.152V579.008L598.897 567.392H590.284V565.15H602.296V567.069L593.463 578.788ZM610.982 577.03L614.674 565.15H617.574L611.202 583.446C610.216 586.083 608.648 587.401 606.5 587.401L605.987 587.357L604.977 587.167V584.97L605.709 585.028C606.627 585.028 607.34 584.843 607.848 584.472C608.365 584.101 608.79 583.422 609.122 582.436L609.723 580.824L604.068 565.15H607.027L610.982 577.03ZM622.569 565.15L622.657 567.143C623.868 565.619 625.45 564.857 627.403 564.857C630.753 564.857 632.442 566.747 632.472 570.526V581H629.762V570.512C629.752 569.369 629.488 568.524 628.971 567.978C628.463 567.431 627.667 567.157 626.583 567.157C625.704 567.157 624.933 567.392 624.269 567.86C623.604 568.329 623.087 568.944 622.716 569.706V581H620.006V565.15H622.569ZM641.744 577.03L645.436 565.15H648.336L641.964 583.446C640.978 586.083 639.41 587.401 637.262 587.401L636.749 587.357L635.738 587.167V584.97L636.471 585.028C637.389 585.028 638.102 584.843 638.609 584.472C639.127 584.101 639.552 583.422 639.884 582.436L640.484 580.824L634.83 565.15H637.789L641.744 577.03Z" fill="black"/>
</g>
</svg>
