<svg width="1280" height="960" viewBox="0 0 1280 960" fill="none" xmlns="http://www.w3.org/2000/svg">
<g id="Words and trees">
<rect width="1280" height="960" fill="white"/>
<path id="Finite words" d="M153.32 233.08C156.72 233.08 156.84 234 156.96 235.8C157.2 236.04 158.04 236.04 158.28 235.8C158.24 234.8 158.2 233.64 158.2 232.28C158.2 230.92 158.24 229.88 158.28 228.84C158.04 228.6 157.2 228.6 156.96 228.84C156.84 231.04 156.72 231.56 153.32 231.56H149.6V224.36C149.6 222.2 150.08 221.8 151.84 221.8H153.64C157.88 221.8 158.88 223.4 159.76 226.16C160.24 226.16 160.68 226.08 161 225.96C160.8 224.32 160.2 220.48 160.12 220.16C160.12 220.08 160.08 220.04 159.96 220.04C159.28 220.16 159.08 220.2 158.08 220.2H147.88C146.6 220.2 144.32 220.16 142.72 220.12C142.48 220.36 142.48 221.2 142.72 221.44C145.52 221.56 146.2 221.76 146.2 225.08V241.12C146.2 244.44 145.52 244.64 142.72 244.76C142.48 245 142.48 245.84 142.72 246.08C144.12 246.04 146.12 246 147.92 246C149.72 246 151.68 246.04 153.08 246.08C153.32 245.84 153.32 245 153.08 244.76C150.28 244.64 149.6 244.44 149.6 241.12V233.08H153.32ZM168.654 241.12V233.16C168.654 231.16 168.814 228.6 168.814 228.6C168.814 228.44 168.614 228.32 168.294 228.32C167.174 228.76 165.574 229.12 162.814 229.48C162.734 229.72 162.814 230.36 162.894 230.6C165.094 230.8 165.494 231.04 165.494 233.32V241.12C165.494 244.44 165.054 244.56 162.614 244.76C162.374 245 162.374 245.84 162.614 246.08C163.934 246.04 165.494 246 167.094 246C168.694 246 170.214 246.04 171.534 246.08C171.774 245.84 171.774 245 171.534 244.76C169.094 244.6 168.654 244.44 168.654 241.12ZM165.014 222.04C165.014 223.08 165.974 224.12 166.934 224.12C168.054 224.12 169.014 223.04 169.014 222.2C169.014 221.24 168.174 220.12 167.094 220.12C166.134 220.12 165.014 221.08 165.014 222.04ZM179.633 231.68C179.393 231.96 179.153 232.04 179.153 231.68C179.113 230.6 179.033 229.04 178.833 228.64C178.753 228.44 178.673 228.32 178.353 228.32C177.233 228.76 176.193 229.12 173.433 229.48C173.353 229.72 173.433 230.36 173.513 230.6C175.673 230.8 176.113 231 176.113 233.32V241.12C176.113 244.4 175.713 244.56 173.313 244.76C173.073 245 173.073 245.84 173.313 246.08C174.513 246.04 176.113 246 177.713 246C179.313 246 180.513 246.04 181.713 246.08C181.953 245.84 181.953 245 181.713 244.76C179.673 244.56 179.273 244.4 179.273 241.12V234.56C179.273 233.72 179.633 233.24 179.953 232.88C181.473 231.4 183.273 230.52 184.833 230.52C185.633 230.52 186.473 231.04 186.953 231.96C187.353 232.76 187.433 233.84 187.433 235.04V241.12C187.433 244.4 187.033 244.56 184.953 244.76C184.753 245 184.753 245.84 184.953 246.08C186.153 246.04 187.433 246 189.033 246C190.633 246 192.073 246.04 193.273 246.08C193.473 245.84 193.473 245 193.273 244.76C191.033 244.56 190.593 244.4 190.593 241.12V235.16C190.593 232.96 190.433 231.04 189.513 229.8C188.833 228.92 187.593 228.44 186.193 228.44C184.233 228.44 181.993 228.96 179.633 231.68ZM201.193 241.12V233.16C201.193 231.16 201.353 228.6 201.353 228.6C201.353 228.44 201.153 228.32 200.833 228.32C199.713 228.76 198.113 229.12 195.353 229.48C195.273 229.72 195.353 230.36 195.433 230.6C197.633 230.8 198.033 231.04 198.033 233.32V241.12C198.033 244.44 197.593 244.56 195.153 244.76C194.913 245 194.913 245.84 195.153 246.08C196.473 246.04 198.033 246 199.633 246C201.233 246 202.753 246.04 204.073 246.08C204.313 245.84 204.313 245 204.073 244.76C201.633 244.6 201.193 244.44 201.193 241.12ZM197.553 222.04C197.553 223.08 198.513 224.12 199.473 224.12C200.593 224.12 201.553 223.04 201.553 222.2C201.553 221.24 200.713 220.12 199.633 220.12C198.673 220.12 197.553 221.08 197.553 222.04ZM206.533 228.84C205.973 228.84 205.813 229.32 205.813 229.64V230.16C205.813 230.36 205.853 230.4 206.013 230.4H208.373V242.44C208.373 245.28 209.613 246.4 211.453 246.4C213.293 246.4 215.293 245.52 216.853 243.76C216.773 243.36 216.533 243.12 216.133 243.08C215.092 243.88 213.893 244.2 212.853 244.2C211.773 244.2 211.533 243 211.533 240.52V230.4H215.693C216.093 230.4 216.653 230.24 216.653 229.88V229.08C216.653 228.92 216.533 228.84 216.333 228.84H211.533V227.28C211.533 224.68 211.693 223.08 211.693 223.08C211.693 222.84 211.573 222.72 211.373 222.72C211.213 222.72 210.853 222.88 210.493 223.08C210.053 223.32 209.653 223.52 209.133 223.64C208.653 223.8 208.253 223.92 208.253 224.2C208.253 224.68 208.373 224.4 208.373 228.84H206.533ZM232.909 242.28C231.429 243.8 230.269 244.44 227.949 244.44C226.509 244.44 224.829 243.6 223.589 241.56C222.789 240.24 222.309 238.4 222.309 236.08L232.949 236.16C233.429 236.16 233.709 235.92 233.709 235.48C233.709 232.12 232.509 228.52 226.949 228.52C223.469 228.52 218.949 231.84 218.949 237.92C218.949 240.16 219.509 242.32 220.829 243.84C222.189 245.44 224.069 246.4 226.949 246.4C229.989 246.4 232.149 245 233.749 242.92C233.629 242.52 233.389 242.32 232.909 242.28ZM222.429 234.72C223.189 230.2 225.989 229.84 226.949 229.84C228.469 229.84 230.269 230.68 230.269 234.04C230.269 234.4 230.109 234.6 229.669 234.6L222.429 234.72ZM253.479 230.08C253.719 229.84 253.719 229 253.479 228.76C252.279 228.8 250.879 228.84 249.439 228.84C247.919 228.84 246.839 228.8 245.799 228.76C245.559 229 245.559 229.84 245.799 230.08C247.679 230.28 248.119 230.68 248.959 232.76L254.199 245.68C254.439 246.24 254.759 246.48 255.159 246.48C255.519 246.48 255.839 246.24 256.119 245.6L260.159 235.76L264.279 245.68C264.519 246.24 264.839 246.48 265.239 246.48C265.599 246.48 265.919 246.24 266.159 245.64L271.399 232.96C272.039 231.32 272.719 230.2 274.759 230.08C274.999 229.84 274.999 229 274.759 228.76C273.959 228.8 273.079 228.84 271.879 228.84C270.679 228.84 268.999 228.8 267.799 228.76C267.559 229 267.559 229.84 267.799 230.08C270.799 230.24 270.399 231.4 269.839 232.8L266.479 241.12C266.079 242.12 265.919 242.12 265.599 241.28L262.159 232.52C261.399 230.64 261.479 230.24 263.599 230.08C263.839 229.84 263.839 229 263.599 228.76C262.399 228.8 260.799 228.84 259.599 228.84C258.599 228.84 257.279 228.8 256.079 228.76C255.839 229 255.839 229.84 256.079 230.08C257.959 230.24 258.439 231.4 259.159 233.2L259.399 233.84L256.599 240.92C256.079 242.24 255.999 242.28 255.479 241L252.279 232.76C251.519 230.84 251.559 230.2 253.479 230.08ZM276.57 237.8C276.57 241.88 279.29 246.4 284.97 246.4C287.53 246.4 289.49 245.48 290.85 244.16C292.65 242.4 293.45 239.88 293.45 237.44C293.45 233.28 291.17 228.44 285.05 228.44C282.41 228.44 280.25 229.52 278.77 231.24C277.33 232.96 276.57 235.28 276.57 237.8ZM284.45 229.84C287.89 229.84 290.01 232.96 290.01 238.72C290.01 243.76 287.41 245 285.53 245C281.37 245 280.01 239.96 280.01 236.88C280.01 233.4 280.85 229.84 284.45 229.84ZM302.126 231.68C302.046 230.08 302.006 229.04 301.806 228.64C301.726 228.44 301.646 228.32 301.326 228.32C300.206 228.76 299.166 229.12 296.406 229.48C296.326 229.72 296.406 230.36 296.486 230.6C298.646 230.8 299.086 231 299.086 233.32V241.12C299.086 244.44 298.606 244.6 296.126 244.76C295.886 245 295.886 245.84 296.126 246.08C297.526 246.04 299.086 246 300.686 246C302.286 246 304.126 246.04 305.526 246.08C305.766 245.84 305.766 245 305.526 244.76C302.726 244.56 302.246 244.44 302.246 241.12V235.56C302.246 234.52 302.726 233.6 303.206 232.88C303.646 232.24 304.566 230.92 305.046 230.92C305.406 230.92 305.766 231 306.086 231.44C306.366 231.84 306.846 232.36 307.526 232.36C308.486 232.36 309.406 231.36 309.406 230.36C309.406 229.6 308.686 228.44 307.006 228.44C305.126 228.44 303.486 230.2 302.566 231.76C302.326 232.2 302.126 231.88 302.126 231.68ZM323.016 244C323.216 243.84 323.576 243.76 323.616 244.04C323.736 245 324.056 246.4 324.056 246.4C324.376 246.52 324.576 246.48 324.816 246.4C325.696 245.68 327.096 245.08 329.536 244.8C329.776 244.56 329.776 243.96 329.536 243.72C326.976 243.52 326.616 242.76 326.616 240.8V222.68C326.616 220.08 326.776 218.48 326.776 218.48C326.776 218.2 326.616 218.08 326.256 218.08C325.256 218.48 322.256 219.04 320.656 219.16C320.576 219.48 320.656 220.12 320.896 220.36C321.016 220.36 321.136 220.36 321.256 220.36C323.016 220.48 323.456 220.48 323.456 223.64V228.76C323.456 229.04 323.376 229.12 323.096 229.12C322.936 229.12 321.296 228.44 319.976 228.44C317.336 228.44 315.576 229.32 313.976 230.84C312.256 232.56 311.216 234.92 311.216 237.88C311.216 242.8 313.696 246.4 318.016 246.4C319.576 246.4 321.056 245.6 323.016 244ZM323.456 241.04C323.456 241.8 323.376 242.12 322.816 242.6C321.336 243.88 320.056 244.52 319.056 244.52C316.896 244.52 314.656 242.16 314.656 237.16C314.656 234.28 315.216 232.68 315.816 231.84C317.056 229.96 318.736 229.84 319.536 229.84C320.976 229.84 321.976 230.36 322.776 231.28C323.336 231.92 323.456 232.2 323.456 233.44V241.04ZM331.811 240.48C331.971 242.44 332.091 244.32 332.091 246C332.491 245.92 332.891 245.88 333.091 245.88C333.371 245.88 333.611 245.88 333.891 245.96C334.971 246.24 336.051 246.4 337.531 246.4C339.771 246.4 343.891 245.32 343.891 241.36C343.891 238.64 341.931 237.04 339.211 236.04C336.811 235.12 335.211 234.52 335.211 232.32C335.211 230.68 336.651 229.76 338.011 229.76C338.891 229.76 341.211 230.08 341.731 233.48C341.971 233.72 342.771 233.68 343.011 233.44C343.131 232 343.211 230.52 343.251 229.2C342.011 229 340.091 228.44 338.011 228.44C335.051 228.44 332.371 230.36 332.371 232.92C332.371 235.84 333.691 237.08 336.771 238.36C340.091 239.72 340.851 240.56 340.851 242.28C340.851 244.24 338.931 245.08 337.451 245.08C335.891 245.08 335.011 244.56 334.611 244.12C333.731 243.2 333.291 241.44 333.051 240.44C332.811 240.2 332.051 240.24 331.811 240.48Z" fill="black"/>
<path id="Graphs" d="M722.08 218.68C715.4 218.68 708.48 223.92 708.48 232.72C708.48 239.92 713.44 245.4 721.08 245.4C725.8 245.4 729.52 244.4 732.24 242.08C731.8 241.72 731.6 241.4 731.6 240.96V236.32C731.6 234.92 732.28 234.52 733.44 234.4C733.68 234.16 733.68 233.2 733.44 232.96C732.48 233 731.48 233.04 729.88 233.04C728.56 233.04 726.68 233 724.92 232.96C724.68 233.2 724.68 234.16 724.92 234.4C727.12 234.56 728.2 234.72 728.2 236.32V242.44C726.84 243.72 724.16 243.96 722 243.96C715.68 243.96 712.32 237.2 712.32 231.92C712.32 224.92 716.88 220.12 721.52 220.12C727.32 220.12 728.96 223.44 730 226.88C730.44 226.92 730.88 226.84 731.32 226.64C731.24 224.96 731.04 223.36 730.4 220.48C728 220.08 726.52 218.68 722.08 218.68ZM741.423 230.68C741.343 229.08 741.303 228.04 741.103 227.64C741.023 227.44 740.943 227.32 740.623 227.32C739.503 227.76 738.463 228.12 735.703 228.48C735.623 228.72 735.703 229.36 735.783 229.6C737.943 229.8 738.383 230 738.383 232.32V240.12C738.383 243.44 737.903 243.6 735.423 243.76C735.183 244 735.183 244.84 735.423 245.08C736.823 245.04 738.383 245 739.983 245C741.583 245 743.423 245.04 744.823 245.08C745.063 244.84 745.063 244 744.823 243.76C742.023 243.56 741.543 243.44 741.543 240.12V234.56C741.543 233.52 742.023 232.6 742.503 231.88C742.943 231.24 743.863 229.92 744.343 229.92C744.703 229.92 745.063 230 745.383 230.44C745.663 230.84 746.143 231.36 746.823 231.36C747.783 231.36 748.703 230.36 748.703 229.36C748.703 228.6 747.983 227.44 746.303 227.44C744.423 227.44 742.783 229.2 741.863 230.76C741.623 231.2 741.423 230.88 741.423 230.68ZM760.986 243.08C761.226 244.32 761.666 245.4 763.666 245.4C765.186 245.4 766.626 244.72 767.466 243.92C767.386 243.44 767.226 243.08 766.786 242.84C766.506 243.08 765.826 243.48 765.306 243.48C764.146 243.48 764.106 241.92 764.106 240.08V234.2C764.106 228.52 760.986 227.44 758.066 227.44C754.786 227.44 751.466 229.6 751.466 231.88C751.466 232.84 751.946 233.32 752.866 233.32C754.026 233.32 754.746 232.48 754.746 231.96C754.746 231.68 754.706 231.4 754.626 231.24C754.586 231.12 754.546 230.88 754.546 230.44C754.546 229.2 756.226 228.76 757.746 228.76C759.106 228.76 760.986 229.44 760.986 233.96C760.986 234.24 760.866 234.4 760.746 234.44L757.306 235.28C753.466 236.24 750.706 238.36 750.706 241.08C750.706 244.36 752.946 245.4 755.746 245.4C757.146 245.4 758.346 245.08 760.106 243.72L760.906 243.08H760.986ZM760.986 235.68V240.96C760.986 241.48 760.746 241.76 760.426 242C759.386 242.84 758.026 243.76 756.906 243.76C754.906 243.76 754.026 242.16 754.026 240.92C754.026 239.12 754.866 237.28 757.826 236.52L760.986 235.68ZM773.787 230.28C773.747 229.08 773.667 228.04 773.467 227.64C773.387 227.44 773.307 227.32 772.987 227.32C771.867 227.76 770.827 228.12 768.067 228.48C767.987 228.72 768.067 229.36 768.147 229.6C770.307 229.8 770.747 230 770.747 232.32V249.4C770.747 252.72 770.307 252.92 767.867 253.04C767.627 253.28 767.627 254.12 767.867 254.36C769.267 254.32 770.747 254.28 772.347 254.28C773.947 254.28 775.867 254.32 777.187 254.36C777.427 254.12 777.427 253.28 777.187 253.04C774.347 252.88 773.907 252.72 773.907 249.4V245.08C773.907 244.56 774.067 244.6 774.467 244.76C775.467 245.16 776.667 245.4 777.947 245.4C780.187 245.4 782.187 244.72 783.827 243.16C785.707 241.32 786.787 238.84 786.787 235.6C786.787 231.36 783.787 227.44 779.707 227.44C777.867 227.44 775.827 228.64 774.227 230.44C773.987 230.68 773.827 230.68 773.787 230.28ZM774.547 231.76C775.587 230.48 777.427 229.28 778.587 229.28C781.147 229.28 783.347 232.16 783.347 236.68C783.347 239.96 782.187 244.04 777.707 244.04C776.987 244.04 775.587 243.84 774.867 243.2C774.067 242.48 773.907 242.24 773.907 240.8V233.52C773.907 232.68 774.067 232.32 774.547 231.76ZM794.969 233.56C794.969 232.72 795.329 232.24 795.649 231.88C797.169 230.4 799.209 229.52 800.769 229.52C801.569 229.52 802.409 230.04 802.889 230.96C803.289 231.76 803.369 232.84 803.369 234.04V240.12C803.369 243.4 802.969 243.56 800.889 243.76C800.689 244 800.689 244.84 800.889 245.08C802.009 245.04 803.369 245 804.969 245C806.569 245 807.889 245.04 809.209 245.08C809.409 244.84 809.409 244 809.209 243.76C806.969 243.56 806.529 243.4 806.529 240.12V234.16C806.529 231.96 806.369 230 805.449 228.8C804.769 227.92 803.529 227.44 802.129 227.44C800.169 227.44 797.769 227.96 795.329 230.68C795.329 230.72 795.289 230.72 795.249 230.76C795.129 230.92 794.929 231.16 794.929 230.68L794.969 221.68C794.969 219.08 795.129 217.48 795.129 217.48C795.129 217.2 794.969 217.08 794.609 217.08C793.609 217.48 790.609 218.04 789.009 218.16C788.929 218.48 789.009 219.12 789.249 219.36C789.369 219.36 789.489 219.36 789.609 219.36C791.369 219.48 791.809 219.48 791.809 222.64V240.12C791.809 243.44 791.329 243.6 789.009 243.76C788.769 244 788.769 244.84 789.009 245.08C790.329 245.04 791.809 245 793.409 245C794.929 245 796.249 245.04 797.369 245.08C797.609 244.84 797.609 244 797.369 243.76C795.329 243.6 794.969 243.44 794.969 240.12V233.56ZM811.733 239.48C811.893 241.44 812.013 243.32 812.013 245C812.413 244.92 812.813 244.88 813.013 244.88C813.293 244.88 813.533 244.88 813.813 244.96C814.893 245.24 815.973 245.4 817.453 245.4C819.693 245.4 823.813 244.32 823.813 240.36C823.813 237.64 821.853 236.04 819.133 235.04C816.733 234.12 815.133 233.52 815.133 231.32C815.133 229.68 816.573 228.76 817.933 228.76C818.813 228.76 821.133 229.08 821.653 232.48C821.893 232.72 822.693 232.68 822.933 232.44C823.053 231 823.133 229.52 823.173 228.2C821.933 228 820.013 227.44 817.933 227.44C814.973 227.44 812.293 229.36 812.293 231.92C812.293 234.84 813.613 236.08 816.693 237.36C820.013 238.72 820.773 239.56 820.773 241.28C820.773 243.24 818.853 244.08 817.373 244.08C815.813 244.08 814.933 243.56 814.533 243.12C813.653 242.2 813.213 240.44 812.973 239.44C812.733 239.2 811.973 239.24 811.733 239.48Z" fill="black"/>
<rect id="136:16" opacity="0.5" x="72" y="262" width="343" height="258" fill="#FF0000"/>
<rect id="136:18" opacity="0.5" x="530" y="262" width="497" height="373" fill="#FF0000"/>
</g>
</svg>
