<svg width="1280" height="960" viewBox="0 0 1280 960" fill="none" xmlns="http://www.w3.org/2000/svg">
<g id="Entsheidungsproblem">
<rect width="1280" height="960" fill="white"/>
<path id="Hilbert&#226;&#128;&#153;s Entscheidungsproblem:" d="M82.9856 72.12V56.08C82.9856 52.76 83.6656 52.56 86.4656 52.44C86.7056 52.2 86.7056 51.36 86.4656 51.12C84.8256 51.16 82.7856 51.2 81.2656 51.2C79.7856 51.2 77.8656 51.16 76.1056 51.12C75.8656 51.36 75.8656 52.2 76.1056 52.44C78.9056 52.56 79.5856 52.76 79.5856 56.08V62.48H65.9056V56.08C65.9056 52.76 66.5856 52.56 69.3856 52.44C69.6256 52.2 69.6256 51.36 69.3856 51.12C67.8656 51.16 66.2256 51.2 64.1856 51.2C62.1856 51.2 60.5456 51.16 59.0256 51.12C58.7856 51.36 58.7856 52.2 59.0256 52.44C61.8256 52.56 62.5056 52.76 62.5056 56.08V72.12C62.5056 75.44 61.8256 75.64 59.0256 75.76C58.7856 76 58.7856 76.84 59.0256 77.08C60.7856 77.04 62.7056 77 64.2256 77C65.6656 77 67.6256 77.04 69.3856 77.08C69.6256 76.84 69.6256 76 69.3856 75.76C66.5856 75.64 65.9056 75.44 65.9056 72.12V64.16H79.5856V72.12C79.5856 75.44 78.9056 75.64 76.1056 75.76C75.8656 76 75.8656 76.84 76.1056 77.08C77.9056 77.04 79.8256 77 81.3056 77C82.7856 77 84.7056 77.04 86.4656 77.08C86.7056 76.84 86.7056 76 86.4656 75.76C83.6656 75.64 82.9856 75.44 82.9856 72.12ZM94.7244 72.12V64.16C94.7244 62.16 94.8844 59.6 94.8844 59.6C94.8844 59.44 94.6844 59.32 94.3644 59.32C93.2444 59.76 91.6444 60.12 88.8844 60.48C88.8044 60.72 88.8844 61.36 88.9644 61.6C91.1644 61.8 91.5644 62.04 91.5644 64.32V72.12C91.5644 75.44 91.1244 75.56 88.6844 75.76C88.4444 76 88.4444 76.84 88.6844 77.08C90.0044 77.04 91.5644 77 93.1644 77C94.7644 77 96.2844 77.04 97.6044 77.08C97.8444 76.84 97.8444 76 97.6044 75.76C95.1644 75.6 94.7244 75.44 94.7244 72.12ZM91.0844 53.04C91.0844 54.08 92.0444 55.12 93.0044 55.12C94.1244 55.12 95.0844 54.04 95.0844 53.2C95.0844 52.24 94.2444 51.12 93.1644 51.12C92.2044 51.12 91.0844 52.08 91.0844 53.04ZM102.144 72.12C102.144 75.44 101.704 75.64 99.2638 75.76C99.0238 76 99.0238 76.84 99.2638 77.08C100.664 77.04 102.144 77 103.744 77C105.344 77 106.864 77.04 108.184 77.08C108.424 76.84 108.424 76 108.184 75.76C105.744 75.64 105.304 75.44 105.304 72.12V53.68C105.304 51.08 105.464 49.48 105.464 49.48C105.464 49.2 105.304 49.08 104.944 49.08C103.944 49.48 100.944 50.04 99.3438 50.16C99.2638 50.48 99.3438 51.12 99.5838 51.36C101.904 51.52 102.144 51.64 102.144 54.64V72.12ZM115.571 61.24C115.331 61.48 115.171 61.4 115.171 61.04V53.68C115.171 51.08 115.331 49.48 115.331 49.48C115.331 49.2 115.171 49.08 114.811 49.08C113.811 49.48 110.811 50.04 109.211 50.16C109.131 50.48 109.211 51.12 109.451 51.36C109.571 51.36 109.691 51.36 109.811 51.36C111.571 51.48 112.011 51.48 112.011 54.64V74.16C112.011 75.72 111.971 76.44 111.851 77C112.051 77.32 112.251 77.48 112.731 77.48C112.971 77.24 113.371 76.88 113.691 76.52C114.091 76.04 114.331 76.04 114.771 76.4C115.691 77.16 116.891 77.4 118.291 77.4C122.371 77.4 127.131 73.68 127.131 67.32C127.131 62.44 123.531 59.44 120.051 59.44C118.331 59.44 116.811 60.12 115.571 61.24ZM115.851 62.48C116.891 61.56 118.091 61.2 119.251 61.2C121.691 61.2 123.691 64.16 123.691 68.04C123.691 72.6 121.851 76.04 118.051 76.04C116.811 76.04 115.971 75.16 115.171 74.16V64.16C115.171 63.32 115.331 62.92 115.851 62.48ZM144.448 73.28C142.968 74.8 141.808 75.44 139.488 75.44C138.048 75.44 136.368 74.6 135.128 72.56C134.328 71.24 133.848 69.4 133.848 67.08L144.488 67.16C144.968 67.16 145.248 66.92 145.248 66.48C145.248 63.12 144.048 59.52 138.488 59.52C135.008 59.52 130.488 62.84 130.488 68.92C130.488 71.16 131.048 73.32 132.368 74.84C133.728 76.44 135.608 77.4 138.488 77.4C141.528 77.4 143.688 76 145.288 73.92C145.168 73.52 144.928 73.32 144.448 73.28ZM133.968 65.72C134.728 61.2 137.528 60.84 138.488 60.84C140.008 60.84 141.808 61.68 141.808 65.04C141.808 65.4 141.648 65.6 141.208 65.6L133.968 65.72ZM153.938 62.68C153.858 61.08 153.818 60.04 153.618 59.64C153.538 59.44 153.458 59.32 153.138 59.32C152.018 59.76 150.978 60.12 148.218 60.48C148.138 60.72 148.218 61.36 148.298 61.6C150.458 61.8 150.898 62 150.898 64.32V72.12C150.898 75.44 150.418 75.6 147.938 75.76C147.698 76 147.698 76.84 147.938 77.08C149.338 77.04 150.898 77 152.498 77C154.098 77 155.938 77.04 157.338 77.08C157.578 76.84 157.578 76 157.338 75.76C154.538 75.56 154.058 75.44 154.058 72.12V66.56C154.058 65.52 154.538 64.6 155.018 63.88C155.458 63.24 156.378 61.92 156.858 61.92C157.218 61.92 157.578 62 157.898 62.44C158.178 62.84 158.658 63.36 159.338 63.36C160.298 63.36 161.218 62.36 161.218 61.36C161.218 60.6 160.498 59.44 158.818 59.44C156.938 59.44 155.298 61.2 154.378 62.76C154.138 63.2 153.938 62.88 153.938 62.68ZM163.501 59.84C162.941 59.84 162.781 60.32 162.781 60.64V61.16C162.781 61.36 162.821 61.4 162.981 61.4H165.341V73.44C165.341 76.28 166.581 77.4 168.421 77.4C170.261 77.4 172.261 76.52 173.821 74.76C173.741 74.36 173.501 74.12 173.101 74.08C172.061 74.88 170.861 75.2 169.821 75.2C168.741 75.2 168.501 74 168.501 71.52V61.4H172.661C173.061 61.4 173.621 61.24 173.621 60.88V60.08C173.621 59.92 173.501 59.84 173.301 59.84H168.501V58.28C168.501 55.68 168.661 54.08 168.661 54.08C168.661 53.84 168.541 53.72 168.341 53.72C168.181 53.72 167.821 53.88 167.461 54.08C167.021 54.32 166.621 54.52 166.101 54.64C165.621 54.8 165.221 54.92 165.221 55.2C165.221 55.68 165.341 55.4 165.341 59.84H163.501ZM179.598 49.08C178.358 49.08 177.478 49.92 177.478 51.04C177.478 52.28 178.518 52.68 179.238 52.8C179.998 52.88 180.678 53.12 180.678 54.04C180.678 54.88 179.238 56.72 177.158 57.24C177.158 57.64 177.238 57.92 177.518 58.2C179.918 57.76 182.238 55.84 182.238 53.04C182.238 50.64 181.198 49.08 179.598 49.08ZM187.061 71.48C187.221 73.44 187.341 75.32 187.341 77C187.741 76.92 188.141 76.88 188.341 76.88C188.621 76.88 188.861 76.88 189.141 76.96C190.221 77.24 191.301 77.4 192.781 77.4C195.021 77.4 199.141 76.32 199.141 72.36C199.141 69.64 197.181 68.04 194.461 67.04C192.061 66.12 190.461 65.52 190.461 63.32C190.461 61.68 191.901 60.76 193.261 60.76C194.141 60.76 196.461 61.08 196.981 64.48C197.221 64.72 198.021 64.68 198.261 64.44C198.381 63 198.461 61.52 198.501 60.2C197.261 60 195.341 59.44 193.261 59.44C190.301 59.44 187.621 61.36 187.621 63.92C187.621 66.84 188.941 68.08 192.021 69.36C195.341 70.72 196.101 71.56 196.101 73.28C196.101 75.24 194.181 76.08 192.701 76.08C191.141 76.08 190.261 75.56 189.861 75.12C188.981 74.2 188.541 72.44 188.301 71.44C188.061 71.2 187.301 71.24 187.061 71.48ZM221.967 62.56H218.327V55.36C218.327 53.6 218.807 52.8 220.967 52.8H223.967C226.967 52.8 227.607 54.4 228.487 57.16C228.967 57.24 229.407 57.16 229.807 56.96C229.607 55.32 229.007 51.48 228.927 51.16C228.927 51.08 228.887 51.04 228.767 51.04C228.087 51.16 227.767 51.2 226.807 51.2H216.607C215.407 51.2 213.047 51.16 211.447 51.12C211.207 51.36 211.207 52.2 211.447 52.44C214.247 52.56 214.927 52.76 214.927 56.08V72.12C214.927 75.44 214.247 75.64 211.447 75.76C211.207 76 211.207 76.84 211.447 77.08C212.927 77.04 215.327 77 216.647 77H225.247C227.167 77 230.367 77.08 230.367 77.08C230.927 75.08 231.527 72.44 231.847 70.4C231.447 70.16 230.967 70.08 230.447 70.2C229.647 73.08 228.247 75.44 225.207 75.44H220.567C218.887 75.44 218.327 74.8 218.327 72.92V64.08H221.967C225.367 64.08 225.487 65 225.607 66.8C225.847 67.04 226.687 67.04 226.927 66.8C226.887 65.76 226.847 64.64 226.847 63.28C226.847 62.16 226.887 60.8 226.927 59.84C226.687 59.6 225.847 59.6 225.607 59.84C225.487 62.04 225.367 62.56 221.967 62.56ZM240.352 62.68C240.112 62.96 239.872 63.04 239.872 62.68C239.832 61.6 239.752 60.04 239.552 59.64C239.472 59.44 239.392 59.32 239.072 59.32C237.952 59.76 236.912 60.12 234.152 60.48C234.072 60.72 234.152 61.36 234.232 61.6C236.392 61.8 236.832 62 236.832 64.32V72.12C236.832 75.4 236.432 75.56 234.032 75.76C233.792 76 233.792 76.84 234.032 77.08C235.232 77.04 236.832 77 238.432 77C240.032 77 241.232 77.04 242.432 77.08C242.672 76.84 242.672 76 242.432 75.76C240.392 75.56 239.992 75.4 239.992 72.12V65.56C239.992 64.72 240.352 64.24 240.672 63.88C242.192 62.4 243.992 61.52 245.552 61.52C246.352 61.52 247.192 62.04 247.672 62.96C248.072 63.76 248.152 64.84 248.152 66.04V72.12C248.152 75.4 247.752 75.56 245.672 75.76C245.472 76 245.472 76.84 245.672 77.08C246.872 77.04 248.152 77 249.752 77C251.352 77 252.792 77.04 253.992 77.08C254.192 76.84 254.192 76 253.992 75.76C251.752 75.56 251.312 75.4 251.312 72.12V66.16C251.312 63.96 251.152 62.04 250.232 60.8C249.552 59.92 248.312 59.44 246.912 59.44C244.952 59.44 242.712 59.96 240.352 62.68ZM256.392 59.84C255.832 59.84 255.672 60.32 255.672 60.64V61.16C255.672 61.36 255.712 61.4 255.872 61.4H258.232V73.44C258.232 76.28 259.472 77.4 261.312 77.4C263.152 77.4 265.152 76.52 266.712 74.76C266.632 74.36 266.392 74.12 265.992 74.08C264.952 74.88 263.752 75.2 262.712 75.2C261.632 75.2 261.392 74 261.392 71.52V61.4H265.552C265.952 61.4 266.512 61.24 266.512 60.88V60.08C266.512 59.92 266.392 59.84 266.192 59.84H261.392V58.28C261.392 55.68 261.552 54.08 261.552 54.08C261.552 53.84 261.432 53.72 261.232 53.72C261.072 53.72 260.712 53.88 260.352 54.08C259.912 54.32 259.512 54.52 258.992 54.64C258.512 54.8 258.112 54.92 258.112 55.2C258.112 55.68 258.232 55.4 258.232 59.84H256.392ZM269.248 71.48C269.408 73.44 269.528 75.32 269.528 77C269.928 76.92 270.328 76.88 270.528 76.88C270.808 76.88 271.048 76.88 271.328 76.96C272.408 77.24 273.488 77.4 274.968 77.4C277.208 77.4 281.328 76.32 281.328 72.36C281.328 69.64 279.368 68.04 276.648 67.04C274.248 66.12 272.648 65.52 272.648 63.32C272.648 61.68 274.088 60.76 275.448 60.76C276.328 60.76 278.648 61.08 279.168 64.48C279.408 64.72 280.208 64.68 280.448 64.44C280.568 63 280.648 61.52 280.688 60.2C279.448 60 277.528 59.44 275.448 59.44C272.488 59.44 269.808 61.36 269.808 63.92C269.808 66.84 271.128 68.08 274.208 69.36C277.528 70.72 278.288 71.56 278.288 73.28C278.288 75.24 276.368 76.08 274.888 76.08C273.328 76.08 272.448 75.56 272.048 75.12C271.168 74.2 270.728 72.44 270.488 71.44C270.248 71.2 269.488 71.24 269.248 71.48ZM298.834 73.36C298.674 73 298.354 72.84 297.994 72.8C296.634 74.56 294.914 75.44 293.194 75.44C290.274 75.44 287.834 72.48 287.834 67.8C287.834 63.4 289.754 60.76 292.394 60.76C294.754 60.76 295.074 62.16 295.234 63.56C295.354 64.64 295.914 65 296.754 65C297.594 65 298.714 64.48 298.714 63.24C298.714 61.04 296.434 59.44 292.594 59.44C288.634 59.44 284.394 63 284.394 68.68C284.394 73.84 287.274 77.4 292.314 77.4C294.714 77.4 296.834 76.64 298.834 73.36ZM306.703 65.56C306.703 64.72 307.063 64.24 307.383 63.88C308.903 62.4 310.943 61.52 312.503 61.52C313.303 61.52 314.143 62.04 314.623 62.96C315.023 63.76 315.103 64.84 315.103 66.04V72.12C315.103 75.4 314.703 75.56 312.623 75.76C312.423 76 312.423 76.84 312.623 77.08C313.743 77.04 315.103 77 316.703 77C318.303 77 319.623 77.04 320.943 77.08C321.143 76.84 321.143 76 320.943 75.76C318.703 75.56 318.263 75.4 318.263 72.12V66.16C318.263 63.96 318.103 62 317.183 60.8C316.503 59.92 315.263 59.44 313.863 59.44C311.903 59.44 309.503 59.96 307.063 62.68C307.063 62.72 307.023 62.72 306.983 62.76C306.863 62.92 306.663 63.16 306.663 62.68L306.703 53.68C306.703 51.08 306.863 49.48 306.863 49.48C306.863 49.2 306.703 49.08 306.343 49.08C305.343 49.48 302.343 50.04 300.743 50.16C300.663 50.48 300.743 51.12 300.983 51.36C301.103 51.36 301.223 51.36 301.343 51.36C303.103 51.48 303.543 51.48 303.543 54.64V72.12C303.543 75.44 303.063 75.6 300.743 75.76C300.503 76 300.503 76.84 300.743 77.08C302.063 77.04 303.543 77 305.143 77C306.663 77 307.983 77.04 309.103 77.08C309.343 76.84 309.343 76 309.103 75.76C307.063 75.6 306.703 75.44 306.703 72.12V65.56ZM336.987 73.28C335.507 74.8 334.347 75.44 332.027 75.44C330.587 75.44 328.907 74.6 327.667 72.56C326.867 71.24 326.387 69.4 326.387 67.08L337.027 67.16C337.507 67.16 337.787 66.92 337.787 66.48C337.787 63.12 336.587 59.52 331.027 59.52C327.547 59.52 323.027 62.84 323.027 68.92C323.027 71.16 323.587 73.32 324.907 74.84C326.267 76.44 328.147 77.4 331.027 77.4C334.067 77.4 336.227 76 337.827 73.92C337.707 73.52 337.467 73.32 336.987 73.28ZM326.507 65.72C327.267 61.2 330.067 60.84 331.027 60.84C332.547 60.84 334.347 61.68 334.347 65.04C334.347 65.4 334.187 65.6 333.747 65.6L326.507 65.72ZM346.678 72.12V64.16C346.678 62.16 346.838 59.6 346.838 59.6C346.838 59.44 346.638 59.32 346.318 59.32C345.198 59.76 343.598 60.12 340.838 60.48C340.757 60.72 340.838 61.36 340.918 61.6C343.118 61.8 343.518 62.04 343.518 64.32V72.12C343.518 75.44 343.078 75.56 340.638 75.76C340.398 76 340.398 76.84 340.638 77.08C341.958 77.04 343.518 77 345.118 77C346.718 77 348.238 77.04 349.558 77.08C349.798 76.84 349.798 76 349.558 75.76C347.118 75.6 346.678 75.44 346.678 72.12ZM343.038 53.04C343.038 54.08 343.998 55.12 344.958 55.12C346.078 55.12 347.038 54.04 347.038 53.2C347.038 52.24 346.198 51.12 345.118 51.12C344.158 51.12 343.038 52.08 343.038 53.04ZM363.657 75C363.857 74.84 364.217 74.76 364.257 75.04C364.377 76 364.697 77.4 364.697 77.4C365.017 77.52 365.217 77.48 365.457 77.4C366.337 76.68 367.737 76.08 370.177 75.8C370.417 75.56 370.417 74.96 370.177 74.72C367.617 74.52 367.257 73.76 367.257 71.8V53.68C367.257 51.08 367.417 49.48 367.417 49.48C367.417 49.2 367.257 49.08 366.897 49.08C365.897 49.48 362.897 50.04 361.297 50.16C361.217 50.48 361.297 51.12 361.537 51.36C361.657 51.36 361.777 51.36 361.897 51.36C363.657 51.48 364.097 51.48 364.097 54.64V59.76C364.097 60.04 364.017 60.12 363.737 60.12C363.577 60.12 361.937 59.44 360.617 59.44C357.977 59.44 356.217 60.32 354.617 61.84C352.897 63.56 351.857 65.92 351.857 68.88C351.857 73.8 354.337 77.4 358.657 77.4C360.217 77.4 361.697 76.6 363.657 75ZM364.097 72.04C364.097 72.8 364.017 73.12 363.457 73.6C361.977 74.88 360.697 75.52 359.697 75.52C357.537 75.52 355.297 73.16 355.297 68.16C355.297 65.28 355.857 63.68 356.457 62.84C357.697 60.96 359.377 60.84 360.177 60.84C361.617 60.84 362.617 61.36 363.417 62.28C363.977 62.92 364.097 63.2 364.097 64.44V72.04ZM379.211 77.4C380.771 77.4 382.651 76.6 384.611 75C384.811 74.84 385.171 74.76 385.211 75.04C385.331 76.04 385.651 77.4 385.651 77.4C385.971 77.52 386.171 77.48 386.411 77.4C387.291 76.68 388.691 76.08 391.131 75.8C391.371 75.56 391.371 74.96 391.131 74.72C388.571 74.52 388.211 73.76 388.211 71.8V64.12C388.211 62.92 388.371 60 388.371 60C388.371 59.88 388.251 59.76 388.051 59.76C387.851 59.8 387.251 59.84 386.651 59.84C385.371 59.84 383.931 59.8 382.571 59.76C382.331 60 382.331 60.84 382.571 61.08C384.531 61.2 385.051 61.68 385.051 64.32V72.04C385.051 72.8 384.971 73.12 384.411 73.6C382.931 74.88 381.411 75.52 380.411 75.52C379.211 75.52 377.211 74.96 377.211 71.4V64.12C377.211 62.92 377.371 60 377.371 60C377.371 59.88 377.251 59.76 377.051 59.76C376.851 59.8 376.251 59.84 375.651 59.84C374.371 59.84 372.931 59.8 371.571 59.76C371.331 60 371.331 60.84 371.571 61.08C373.491 61.24 374.051 61.68 374.051 64.28V71.96C374.051 74.72 375.251 77.4 379.211 77.4ZM399.141 62.68C398.901 62.96 398.661 63.04 398.661 62.68C398.621 61.6 398.541 60.04 398.341 59.64C398.261 59.44 398.181 59.32 397.861 59.32C396.741 59.76 395.701 60.12 392.941 60.48C392.861 60.72 392.941 61.36 393.021 61.6C395.181 61.8 395.621 62 395.621 64.32V72.12C395.621 75.4 395.221 75.56 392.821 75.76C392.581 76 392.581 76.84 392.821 77.08C394.021 77.04 395.621 77 397.221 77C398.821 77 400.021 77.04 401.221 77.08C401.461 76.84 401.461 76 401.221 75.76C399.181 75.56 398.781 75.4 398.781 72.12V65.56C398.781 64.72 399.141 64.24 399.461 63.88C400.981 62.4 402.781 61.52 404.341 61.52C405.141 61.52 405.981 62.04 406.461 62.96C406.861 63.76 406.941 64.84 406.941 66.04V72.12C406.941 75.4 406.541 75.56 404.461 75.76C404.261 76 404.261 76.84 404.461 77.08C405.661 77.04 406.941 77 408.541 77C410.141 77 411.581 77.04 412.781 77.08C412.981 76.84 412.981 76 412.781 75.76C410.541 75.56 410.101 75.4 410.101 72.12V66.16C410.101 63.96 409.941 62.04 409.021 60.8C408.341 59.92 407.101 59.44 405.701 59.44C403.741 59.44 401.501 59.96 399.141 62.68ZM431.221 61.52C431.981 61.52 432.701 60.8 432.701 60C432.701 59.16 431.941 58.52 430.861 58.52C429.821 58.52 427.901 59.2 426.861 60.56C426.381 60.24 425.061 59.44 422.701 59.44C419.141 59.44 415.861 61.84 415.861 65.52C415.861 67.68 416.821 68.92 417.941 70C416.821 70.96 416.181 72.68 416.181 74.04C416.181 75.48 416.981 76.6 418.021 77.12C415.861 78.4 414.741 80.24 414.741 81.96C414.741 85.44 418.021 86.52 421.101 86.52C426.501 86.52 432.341 83.92 432.341 79.6C432.341 78.32 431.741 77.32 430.581 76.36C429.021 75.08 426.221 75.04 424.741 75.04C424.021 75.04 423.021 75.12 422.061 75.24C421.461 75.28 421.061 75.32 420.861 75.32C419.701 75.32 418.301 74.76 418.301 73.04C418.301 72.24 418.541 71.4 419.021 70.72C419.981 71.28 421.101 71.56 422.661 71.56C426.181 71.56 429.421 69.36 429.421 65.44C429.421 63.56 428.861 62.48 427.701 61.28C427.981 60.88 428.781 60.32 429.301 60.32C429.581 60.32 429.861 60.44 430.101 60.8C430.261 61.12 430.781 61.52 431.221 61.52ZM418.741 77.4C419.181 77.52 419.821 77.6 420.341 77.6C421.581 77.6 422.701 77.48 423.261 77.48C425.261 77.48 426.941 77.52 428.101 78.16C429.661 79.04 430.141 79.6 430.141 80.64C430.141 83.52 425.901 85.04 422.301 85.04C420.861 85.04 417.501 83.88 417.501 81.16C417.501 79.8 417.581 78.8 418.741 77.4ZM426.221 65.84C426.221 69.56 424.341 70.32 422.861 70.32C419.501 70.32 419.141 67.48 419.141 64.92C419.141 62.12 420.141 60.68 422.341 60.68C424.861 60.68 426.221 62.52 426.221 65.84ZM435.381 71.48C435.541 73.44 435.661 75.32 435.661 77C436.061 76.92 436.461 76.88 436.661 76.88C436.941 76.88 437.181 76.88 437.461 76.96C438.541 77.24 439.621 77.4 441.101 77.4C443.341 77.4 447.461 76.32 447.461 72.36C447.461 69.64 445.501 68.04 442.781 67.04C440.381 66.12 438.781 65.52 438.781 63.32C438.781 61.68 440.221 60.76 441.581 60.76C442.461 60.76 444.781 61.08 445.301 64.48C445.541 64.72 446.341 64.68 446.581 64.44C446.701 63 446.781 61.52 446.821 60.2C445.581 60 443.661 59.44 441.581 59.44C438.621 59.44 435.941 61.36 435.941 63.92C435.941 66.84 437.261 68.08 440.341 69.36C443.661 70.72 444.421 71.56 444.421 73.28C444.421 75.24 442.501 76.08 441.021 76.08C439.461 76.08 438.581 75.56 438.181 75.12C437.301 74.2 436.861 72.44 436.621 71.44C436.381 71.2 435.621 71.24 435.381 71.48ZM455.287 62.28C455.247 61.08 455.167 60.04 454.967 59.64C454.887 59.44 454.807 59.32 454.487 59.32C453.367 59.76 452.327 60.12 449.567 60.48C449.487 60.72 449.567 61.36 449.647 61.6C451.807 61.8 452.247 62 452.247 64.32V81.4C452.247 84.72 451.807 84.92 449.367 85.04C449.127 85.28 449.127 86.12 449.367 86.36C450.767 86.32 452.247 86.28 453.847 86.28C455.447 86.28 457.367 86.32 458.687 86.36C458.927 86.12 458.927 85.28 458.687 85.04C455.847 84.88 455.407 84.72 455.407 81.4V77.08C455.407 76.56 455.567 76.6 455.967 76.76C456.967 77.16 458.167 77.4 459.447 77.4C461.687 77.4 463.687 76.72 465.327 75.16C467.207 73.32 468.287 70.84 468.287 67.6C468.287 63.36 465.287 59.44 461.207 59.44C459.367 59.44 457.327 60.64 455.727 62.44C455.487 62.68 455.327 62.68 455.287 62.28ZM456.047 63.76C457.087 62.48 458.927 61.28 460.087 61.28C462.647 61.28 464.847 64.16 464.847 68.68C464.847 71.96 463.687 76.04 459.207 76.04C458.487 76.04 457.087 75.84 456.367 75.2C455.567 74.48 455.407 74.24 455.407 72.8V65.52C455.407 64.68 455.567 64.32 456.047 63.76ZM476.829 62.68C476.749 61.08 476.709 60.04 476.509 59.64C476.429 59.44 476.349 59.32 476.029 59.32C474.909 59.76 473.869 60.12 471.109 60.48C471.029 60.72 471.109 61.36 471.189 61.6C473.349 61.8 473.789 62 473.789 64.32V72.12C473.789 75.44 473.309 75.6 470.829 75.76C470.589 76 470.589 76.84 470.829 77.08C472.229 77.04 473.789 77 475.389 77C476.989 77 478.829 77.04 480.229 77.08C480.469 76.84 480.469 76 480.229 75.76C477.429 75.56 476.949 75.44 476.949 72.12V66.56C476.949 65.52 477.429 64.6 477.909 63.88C478.349 63.24 479.269 61.92 479.749 61.92C480.109 61.92 480.469 62 480.789 62.44C481.069 62.84 481.549 63.36 482.229 63.36C483.189 63.36 484.109 62.36 484.109 61.36C484.109 60.6 483.389 59.44 481.709 59.44C479.829 59.44 478.189 61.2 477.269 62.76C477.029 63.2 476.829 62.88 476.829 62.68ZM485.999 68.8C485.999 72.88 488.719 77.4 494.399 77.4C496.959 77.4 498.919 76.48 500.279 75.16C502.079 73.4 502.879 70.88 502.879 68.44C502.879 64.28 500.599 59.44 494.479 59.44C491.839 59.44 489.679 60.52 488.199 62.24C486.759 63.96 485.999 66.28 485.999 68.8ZM493.879 60.84C497.319 60.84 499.439 63.96 499.439 69.72C499.439 74.76 496.839 76 494.959 76C490.799 76 489.439 70.96 489.439 67.88C489.439 64.4 490.279 60.84 493.879 60.84ZM511.196 61.24C510.956 61.48 510.796 61.4 510.796 61.04V53.68C510.796 51.08 510.956 49.48 510.956 49.48C510.956 49.2 510.796 49.08 510.436 49.08C509.436 49.48 506.436 50.04 504.836 50.16C504.756 50.48 504.836 51.12 505.076 51.36C505.196 51.36 505.316 51.36 505.436 51.36C507.196 51.48 507.636 51.48 507.636 54.64V74.16C507.636 75.72 507.596 76.44 507.476 77C507.676 77.32 507.876 77.48 508.356 77.48C508.596 77.24 508.996 76.88 509.316 76.52C509.716 76.04 509.956 76.04 510.396 76.4C511.316 77.16 512.516 77.4 513.916 77.4C517.996 77.4 522.756 73.68 522.756 67.32C522.756 62.44 519.156 59.44 515.676 59.44C513.956 59.44 512.436 60.12 511.196 61.24ZM511.476 62.48C512.516 61.56 513.716 61.2 514.876 61.2C517.316 61.2 519.316 64.16 519.316 68.04C519.316 72.6 517.476 76.04 513.676 76.04C512.436 76.04 511.596 75.16 510.796 74.16V64.16C510.796 63.32 510.956 62.92 511.476 62.48ZM528.042 72.12C528.042 75.44 527.602 75.64 525.162 75.76C524.922 76 524.922 76.84 525.162 77.08C526.562 77.04 528.042 77 529.642 77C531.242 77 532.762 77.04 534.082 77.08C534.322 76.84 534.322 76 534.082 75.76C531.642 75.64 531.202 75.44 531.202 72.12V53.68C531.202 51.08 531.362 49.48 531.362 49.48C531.362 49.2 531.202 49.08 530.842 49.08C529.842 49.48 526.842 50.04 525.242 50.16C525.162 50.48 525.242 51.12 525.482 51.36C527.802 51.52 528.042 51.64 528.042 54.64V72.12ZM550.229 73.28C548.749 74.8 547.589 75.44 545.269 75.44C543.829 75.44 542.149 74.6 540.909 72.56C540.109 71.24 539.629 69.4 539.629 67.08L550.269 67.16C550.749 67.16 551.029 66.92 551.029 66.48C551.029 63.12 549.829 59.52 544.269 59.52C540.789 59.52 536.269 62.84 536.269 68.92C536.269 71.16 536.829 73.32 538.149 74.84C539.509 76.44 541.389 77.4 544.269 77.4C547.309 77.4 549.469 76 551.069 73.92C550.949 73.52 550.709 73.32 550.229 73.28ZM539.749 65.72C540.509 61.2 543.309 60.84 544.269 60.84C545.789 60.84 547.589 61.68 547.589 65.04C547.589 65.4 547.429 65.6 546.989 65.6L539.749 65.72ZM559.48 62.68C559.44 61.48 559.36 60.04 559.16 59.64C559.08 59.44 559 59.32 558.68 59.32C557.56 59.76 556.52 60.12 553.76 60.48C553.68 60.72 553.76 61.36 553.84 61.6C556 61.8 556.44 62 556.44 64.32V72.12C556.44 75.4 555.92 75.6 553.72 75.76C553.48 76 553.48 76.84 553.72 77.08C554.92 77.04 556.44 77 558.04 77C559.64 77 560.88 77.04 562.08 77.08C562.32 76.84 562.32 76 562.08 75.76C560.04 75.56 559.6 75.4 559.6 72.12V65.56C559.6 64.72 559.96 64.24 560.28 63.88C561.88 62.32 563.36 61.52 564.6 61.52C566.12 61.52 567.24 62.48 567.24 65.16V72.12C567.24 75.4 566.92 75.6 564.76 75.76C564.56 76 564.56 76.84 564.76 77.08C565.76 77.04 567.24 77 568.84 77C570.44 77 571.76 77.04 572.76 77.08C572.96 76.84 572.96 76 572.76 75.76C570.76 75.6 570.4 75.4 570.4 72.12V65.76C570.4 65.2 570.4 64.64 570.36 64.16C572.28 62.04 574.08 61.52 575.64 61.52C577.16 61.52 578.04 62.4 578.04 65.08V72.12C578.04 75.4 577.64 75.6 575.56 75.76C575.36 76 575.36 76.84 575.56 77.08C576.56 77.04 578.04 77 579.64 77C581.24 77 582.64 77.04 583.76 77.08C583.96 76.84 583.96 76 583.76 75.76C581.56 75.6 581.2 75.4 581.2 72.12V65.8C581.2 62.24 580.6 59.44 577.08 59.44C575.04 59.44 572.56 60.2 570.48 62.4C570.36 62.52 570.12 62.72 570.04 62.36C569.68 60.72 568.12 59.44 566.04 59.44C563.72 59.44 561.64 60.8 559.96 62.68C559.76 62.88 559.52 63.16 559.48 62.68ZM587.081 74.6C587.081 75.76 588.041 76.72 589.201 76.72C590.361 76.72 591.321 75.76 591.321 74.6C591.321 73.44 590.361 72.48 589.201 72.48C588.041 72.48 587.081 73.44 587.081 74.6ZM587.081 62.68C587.081 63.84 588.041 64.8 589.201 64.8C590.361 64.8 591.321 63.84 591.321 62.68C591.321 61.52 590.361 60.56 589.201 60.56C588.041 60.56 587.081 61.52 587.081 62.68Z" fill="black"/>
<path id="Given a sentence of first-order logic, decide if it is true." d="M73.08 96.68C66.4 96.68 59.48 101.92 59.48 110.72C59.48 117.92 64.44 123.4 72.08 123.4C76.8 123.4 80.52 122.4 83.24 120.08C82.8 119.72 82.6 119.4 82.6 118.96V114.32C82.6 112.92 83.28 112.52 84.44 112.4C84.68 112.16 84.68 111.2 84.44 110.96C83.48 111 82.48 111.04 80.88 111.04C79.56 111.04 77.68 111 75.92 110.96C75.68 111.2 75.68 112.16 75.92 112.4C78.12 112.56 79.2 112.72 79.2 114.32V120.44C77.84 121.72 75.16 121.96 73 121.96C66.68 121.96 63.32 115.2 63.32 109.92C63.32 102.92 67.88 98.12 72.52 98.12C78.32 98.12 79.96 101.44 81 104.88C81.44 104.92 81.88 104.84 82.32 104.64C82.24 102.96 82.04 101.36 81.4 98.48C79 98.08 77.52 96.68 73.08 96.68ZM92.6228 118.12V110.16C92.6228 108.16 92.7828 105.6 92.7828 105.6C92.7828 105.44 92.5828 105.32 92.2628 105.32C91.1428 105.76 89.5428 106.12 86.7828 106.48C86.7028 106.72 86.7828 107.36 86.8628 107.6C89.0628 107.8 89.4628 108.04 89.4628 110.32V118.12C89.4628 121.44 89.0228 121.56 86.5828 121.76C86.3428 122 86.3428 122.84 86.5828 123.08C87.9028 123.04 89.4628 123 91.0628 123C92.6628 123 94.1828 123.04 95.5028 123.08C95.7428 122.84 95.7428 122 95.5028 121.76C93.0628 121.6 92.6228 121.44 92.6228 118.12ZM88.9828 99.04C88.9828 100.08 89.9428 101.12 90.9028 101.12C92.0228 101.12 92.9828 100.04 92.9828 99.2C92.9828 98.24 92.1428 97.12 91.0628 97.12C90.1028 97.12 88.9828 98.08 88.9828 99.04ZM109.242 107.08C111.402 107.24 111.642 107.72 110.802 109.76L107.562 117.6C106.922 119.16 106.722 119.16 106.082 117.48L103.202 109.76C102.482 107.84 102.322 107.36 104.442 107.08C104.682 106.84 104.682 106 104.442 105.76C103.122 105.8 101.722 105.84 100.402 105.84C99.0822 105.84 97.8822 105.8 96.6822 105.76C96.4422 106 96.4422 106.84 96.6822 107.08C98.8022 107.32 99.0822 107.96 99.8822 110L105.002 122.64C105.242 123.24 105.482 123.48 106.002 123.48C106.402 123.48 106.682 123.24 106.962 122.56L112.282 110.04C113.042 108.28 113.482 107.28 115.722 107.08C115.962 106.84 115.962 106 115.722 105.76C114.922 105.8 113.962 105.84 112.922 105.84C111.602 105.84 110.242 105.8 109.242 105.76C109.002 106 109.002 106.84 109.242 107.08ZM131.253 119.28C129.773 120.8 128.613 121.44 126.293 121.44C124.853 121.44 123.173 120.6 121.933 118.56C121.133 117.24 120.653 115.4 120.653 113.08L131.293 113.16C131.773 113.16 132.053 112.92 132.053 112.48C132.053 109.12 130.853 105.52 125.293 105.52C121.813 105.52 117.293 108.84 117.293 114.92C117.293 117.16 117.853 119.32 119.173 120.84C120.533 122.44 122.413 123.4 125.293 123.4C128.333 123.4 130.493 122 132.093 119.92C131.973 119.52 131.733 119.32 131.253 119.28ZM120.773 111.72C121.533 107.2 124.333 106.84 125.293 106.84C126.813 106.84 128.613 107.68 128.613 111.04C128.613 111.4 128.453 111.6 128.013 111.6L120.773 111.72ZM141.063 108.68C140.823 108.96 140.583 109.04 140.583 108.68C140.543 107.6 140.463 106.04 140.263 105.64C140.183 105.44 140.103 105.32 139.783 105.32C138.663 105.76 137.623 106.12 134.863 106.48C134.783 106.72 134.863 107.36 134.943 107.6C137.103 107.8 137.543 108 137.543 110.32V118.12C137.543 121.4 137.143 121.56 134.743 121.76C134.503 122 134.503 122.84 134.743 123.08C135.943 123.04 137.543 123 139.143 123C140.743 123 141.943 123.04 143.143 123.08C143.383 122.84 143.383 122 143.143 121.76C141.103 121.56 140.703 121.4 140.703 118.12V111.56C140.703 110.72 141.063 110.24 141.383 109.88C142.903 108.4 144.703 107.52 146.263 107.52C147.063 107.52 147.903 108.04 148.383 108.96C148.783 109.76 148.863 110.84 148.863 112.04V118.12C148.863 121.4 148.463 121.56 146.383 121.76C146.183 122 146.183 122.84 146.383 123.08C147.583 123.04 148.863 123 150.463 123C152.063 123 153.503 123.04 154.703 123.08C154.903 122.84 154.903 122 154.703 121.76C152.463 121.56 152.023 121.4 152.023 118.12V112.16C152.023 109.96 151.863 108.04 150.943 106.8C150.263 105.92 149.023 105.44 147.623 105.44C145.663 105.44 143.423 105.96 141.063 108.68ZM177.103 121.08C177.343 122.32 177.783 123.4 179.783 123.4C181.303 123.4 182.743 122.72 183.583 121.92C183.503 121.44 183.343 121.08 182.903 120.84C182.623 121.08 181.943 121.48 181.423 121.48C180.263 121.48 180.223 119.92 180.223 118.08V112.2C180.223 106.52 177.103 105.44 174.183 105.44C170.903 105.44 167.583 107.6 167.583 109.88C167.583 110.84 168.063 111.32 168.983 111.32C170.143 111.32 170.863 110.48 170.863 109.96C170.863 109.68 170.823 109.4 170.743 109.24C170.703 109.12 170.663 108.88 170.663 108.44C170.663 107.2 172.343 106.76 173.863 106.76C175.223 106.76 177.103 107.44 177.103 111.96C177.103 112.24 176.983 112.4 176.863 112.44L173.423 113.28C169.583 114.24 166.823 116.36 166.823 119.08C166.823 122.36 169.063 123.4 171.863 123.4C173.263 123.4 174.463 123.08 176.223 121.72L177.023 121.08H177.103ZM177.103 113.68V118.96C177.103 119.48 176.863 119.76 176.543 120C175.503 120.84 174.143 121.76 173.023 121.76C171.023 121.76 170.143 120.16 170.143 118.92C170.143 117.12 170.983 115.28 173.943 114.52L177.103 113.68ZM195.584 117.48C195.744 119.44 195.864 121.32 195.864 123C196.264 122.92 196.664 122.88 196.864 122.88C197.144 122.88 197.384 122.88 197.664 122.96C198.744 123.24 199.824 123.4 201.304 123.4C203.544 123.4 207.664 122.32 207.664 118.36C207.664 115.64 205.704 114.04 202.984 113.04C200.584 112.12 198.984 111.52 198.984 109.32C198.984 107.68 200.424 106.76 201.784 106.76C202.664 106.76 204.984 107.08 205.504 110.48C205.744 110.72 206.544 110.68 206.784 110.44C206.904 109 206.984 107.52 207.024 106.2C205.784 106 203.864 105.44 201.784 105.44C198.824 105.44 196.144 107.36 196.144 109.92C196.144 112.84 197.464 114.08 200.544 115.36C203.864 116.72 204.624 117.56 204.624 119.28C204.624 121.24 202.704 122.08 201.224 122.08C199.664 122.08 198.784 121.56 198.384 121.12C197.504 120.2 197.064 118.44 196.824 117.44C196.584 117.2 195.824 117.24 195.584 117.48ZM224.69 119.28C223.21 120.8 222.05 121.44 219.73 121.44C218.29 121.44 216.61 120.6 215.37 118.56C214.57 117.24 214.09 115.4 214.09 113.08L224.73 113.16C225.21 113.16 225.49 112.92 225.49 112.48C225.49 109.12 224.29 105.52 218.73 105.52C215.25 105.52 210.73 108.84 210.73 114.92C210.73 117.16 211.29 119.32 212.61 120.84C213.97 122.44 215.85 123.4 218.73 123.4C221.77 123.4 223.93 122 225.53 119.92C225.41 119.52 225.17 119.32 224.69 119.28ZM214.21 111.72C214.97 107.2 217.77 106.84 218.73 106.84C220.25 106.84 222.05 107.68 222.05 111.04C222.05 111.4 221.89 111.6 221.45 111.6L214.21 111.72ZM234.501 108.68C234.261 108.96 234.021 109.04 234.021 108.68C233.981 107.6 233.901 106.04 233.701 105.64C233.621 105.44 233.541 105.32 233.221 105.32C232.101 105.76 231.061 106.12 228.301 106.48C228.221 106.72 228.301 107.36 228.381 107.6C230.541 107.8 230.981 108 230.981 110.32V118.12C230.981 121.4 230.581 121.56 228.181 121.76C227.941 122 227.941 122.84 228.181 123.08C229.381 123.04 230.981 123 232.581 123C234.181 123 235.381 123.04 236.581 123.08C236.821 122.84 236.821 122 236.581 121.76C234.541 121.56 234.141 121.4 234.141 118.12V111.56C234.141 110.72 234.501 110.24 234.821 109.88C236.341 108.4 238.141 107.52 239.701 107.52C240.501 107.52 241.341 108.04 241.821 108.96C242.221 109.76 242.301 110.84 242.301 112.04V118.12C242.301 121.4 241.901 121.56 239.821 121.76C239.621 122 239.621 122.84 239.821 123.08C241.021 123.04 242.301 123 243.901 123C245.501 123 246.941 123.04 248.141 123.08C248.341 122.84 248.341 122 248.141 121.76C245.901 121.56 245.461 121.4 245.461 118.12V112.16C245.461 109.96 245.301 108.04 244.381 106.8C243.701 105.92 242.461 105.44 241.061 105.44C239.101 105.44 236.861 105.96 234.501 108.68ZM250.54 105.84C249.98 105.84 249.82 106.32 249.82 106.64V107.16C249.82 107.36 249.86 107.4 250.02 107.4H252.38V119.44C252.38 122.28 253.62 123.4 255.46 123.4C257.3 123.4 259.3 122.52 260.86 120.76C260.78 120.36 260.54 120.12 260.14 120.08C259.1 120.88 257.9 121.2 256.86 121.2C255.78 121.2 255.54 120 255.54 117.52V107.4H259.7C260.1 107.4 260.66 107.24 260.66 106.88V106.08C260.66 105.92 260.54 105.84 260.34 105.84H255.54V104.28C255.54 101.68 255.7 100.08 255.7 100.08C255.7 99.84 255.58 99.72 255.38 99.72C255.22 99.72 254.86 99.88 254.5 100.08C254.06 100.32 253.66 100.52 253.14 100.64C252.66 100.8 252.26 100.92 252.26 101.2C252.26 101.68 252.38 101.4 252.38 105.84H250.54ZM276.917 119.28C275.437 120.8 274.277 121.44 271.957 121.44C270.517 121.44 268.837 120.6 267.597 118.56C266.797 117.24 266.317 115.4 266.317 113.08L276.957 113.16C277.437 113.16 277.717 112.92 277.717 112.48C277.717 109.12 276.517 105.52 270.957 105.52C267.477 105.52 262.957 108.84 262.957 114.92C262.957 117.16 263.517 119.32 264.837 120.84C266.197 122.44 268.077 123.4 270.957 123.4C273.997 123.4 276.157 122 277.757 119.92C277.637 119.52 277.397 119.32 276.917 119.28ZM266.437 111.72C267.197 107.2 269.997 106.84 270.957 106.84C272.477 106.84 274.277 107.68 274.277 111.04C274.277 111.4 274.117 111.6 273.677 111.6L266.437 111.72ZM286.727 108.68C286.487 108.96 286.247 109.04 286.247 108.68C286.207 107.6 286.127 106.04 285.927 105.64C285.847 105.44 285.767 105.32 285.447 105.32C284.327 105.76 283.287 106.12 280.527 106.48C280.447 106.72 280.527 107.36 280.607 107.6C282.767 107.8 283.207 108 283.207 110.32V118.12C283.207 121.4 282.807 121.56 280.407 121.76C280.167 122 280.167 122.84 280.407 123.08C281.607 123.04 283.207 123 284.807 123C286.407 123 287.607 123.04 288.807 123.08C289.047 122.84 289.047 122 288.807 121.76C286.767 121.56 286.367 121.4 286.367 118.12V111.56C286.367 110.72 286.727 110.24 287.047 109.88C288.567 108.4 290.367 107.52 291.927 107.52C292.727 107.52 293.567 108.04 294.047 108.96C294.447 109.76 294.527 110.84 294.527 112.04V118.12C294.527 121.4 294.127 121.56 292.047 121.76C291.847 122 291.847 122.84 292.047 123.08C293.247 123.04 294.527 123 296.127 123C297.727 123 299.167 123.04 300.367 123.08C300.567 122.84 300.567 122 300.367 121.76C298.127 121.56 297.687 121.4 297.687 118.12V112.16C297.687 109.96 297.527 108.04 296.607 106.8C295.927 105.92 294.687 105.44 293.287 105.44C291.327 105.44 289.087 105.96 286.727 108.68ZM316.967 119.36C316.807 119 316.487 118.84 316.127 118.8C314.767 120.56 313.047 121.44 311.327 121.44C308.407 121.44 305.967 118.48 305.967 113.8C305.967 109.4 307.887 106.76 310.527 106.76C312.887 106.76 313.207 108.16 313.367 109.56C313.487 110.64 314.047 111 314.887 111C315.727 111 316.847 110.48 316.847 109.24C316.847 107.04 314.567 105.44 310.727 105.44C306.767 105.44 302.527 109 302.527 114.68C302.527 119.84 305.407 123.4 310.447 123.4C312.847 123.4 314.967 122.64 316.967 119.36ZM333.596 119.28C332.116 120.8 330.956 121.44 328.636 121.44C327.196 121.44 325.516 120.6 324.276 118.56C323.476 117.24 322.996 115.4 322.996 113.08L333.636 113.16C334.116 113.16 334.396 112.92 334.396 112.48C334.396 109.12 333.196 105.52 327.636 105.52C324.156 105.52 319.636 108.84 319.636 114.92C319.636 117.16 320.196 119.32 321.516 120.84C322.876 122.44 324.756 123.4 327.636 123.4C330.676 123.4 332.836 122 334.436 119.92C334.316 119.52 334.076 119.32 333.596 119.28ZM323.116 111.72C323.876 107.2 326.676 106.84 327.636 106.84C329.156 106.84 330.956 107.68 330.956 111.04C330.956 111.4 330.796 111.6 330.356 111.6L323.116 111.72ZM347.687 114.8C347.687 118.88 350.407 123.4 356.087 123.4C358.647 123.4 360.607 122.48 361.967 121.16C363.767 119.4 364.567 116.88 364.567 114.44C364.567 110.28 362.287 105.44 356.167 105.44C353.527 105.44 351.367 106.52 349.887 108.24C348.447 109.96 347.687 112.28 347.687 114.8ZM355.567 106.84C359.007 106.84 361.127 109.96 361.127 115.72C361.127 120.76 358.527 122 356.647 122C352.487 122 351.127 116.96 351.127 113.88C351.127 110.4 351.967 106.84 355.567 106.84ZM373.203 118.12V107.4H376.923C377.283 107.4 377.843 107.24 377.843 106.88V106.08C377.843 105.92 377.723 105.84 377.523 105.84H373.203V103.56C373.203 97.4 375.043 96.44 376.363 96.44C377.563 96.44 378.203 96.92 378.763 98.32C379.083 99.04 379.523 99.6 380.363 99.6C381.043 99.6 382.003 98.76 382.003 97.96C382.003 97.28 381.563 96.56 380.723 95.92C379.683 95.2 378.643 95.08 377.123 95.08C373.763 95.08 370.043 98 370.043 104.24V105.84H368.003C367.283 105.84 367.083 106.32 367.083 106.64V107.16C367.083 107.36 367.123 107.4 367.283 107.4H370.043V118.12C370.043 121.44 369.403 121.6 367.243 121.76C367.003 122 367.003 122.84 367.243 123.08C368.643 123.04 370.043 123 371.643 123C373.243 123 375.163 123.04 376.563 123.08C376.803 122.84 376.803 122 376.563 121.76C373.443 121.6 373.203 121.44 373.203 118.12ZM407.386 118.12V109.68C407.386 108.12 407.546 105.56 407.546 105.56C407.546 105.4 407.306 105.32 407.146 105.32C405.946 105.8 404.786 105.84 403.386 105.84H395.506V103.56C395.506 99.76 396.866 96.44 399.586 96.44C401.306 96.44 402.666 96.88 402.986 98.52C403.386 100.52 404.226 101.12 405.466 101.12C406.346 101.12 407.186 100.32 407.186 99.48C407.186 97 403.786 95.08 400.066 95.08C398.226 95.08 396.026 95.8 394.386 97.72C392.706 99.68 392.346 102.12 392.346 105.24V105.84H390.386C389.666 105.84 389.466 106.32 389.466 106.64V107.16C389.466 107.36 389.506 107.4 389.666 107.4H392.346V118.12C392.346 121.44 391.906 121.6 389.746 121.76C389.506 122 389.506 122.84 389.746 123.08C391.106 123.04 392.546 123 393.946 123C395.346 123 397.146 123.04 398.466 123.08C398.706 122.84 398.706 122 398.466 121.76C395.906 121.6 395.506 121.44 395.506 118.12V107.4H402.666C403.906 107.4 404.226 108.2 404.226 110.24V118.12C404.226 121.44 403.746 121.6 401.546 121.76C401.306 122 401.306 122.84 401.546 123.08C402.946 123.04 404.386 123 405.826 123C407.226 123 408.786 123.04 410.266 123.08C410.506 122.84 410.506 122 410.266 121.76C407.826 121.6 407.386 121.44 407.386 118.12ZM418.009 108.68C417.929 107.08 417.889 106.04 417.689 105.64C417.609 105.44 417.529 105.32 417.209 105.32C416.089 105.76 415.049 106.12 412.289 106.48C412.209 106.72 412.289 107.36 412.369 107.6C414.529 107.8 414.969 108 414.969 110.32V118.12C414.969 121.44 414.489 121.6 412.009 121.76C411.769 122 411.769 122.84 412.009 123.08C413.409 123.04 414.969 123 416.569 123C418.169 123 420.009 123.04 421.409 123.08C421.649 122.84 421.649 122 421.409 121.76C418.609 121.56 418.129 121.44 418.129 118.12V112.56C418.129 111.52 418.609 110.6 419.089 109.88C419.529 109.24 420.449 107.92 420.929 107.92C421.289 107.92 421.649 108 421.969 108.44C422.249 108.84 422.729 109.36 423.409 109.36C424.369 109.36 425.289 108.36 425.289 107.36C425.289 106.6 424.569 105.44 422.889 105.44C421.009 105.44 419.369 107.2 418.449 108.76C418.209 109.2 418.009 108.88 418.009 108.68ZM427.772 117.48C427.932 119.44 428.052 121.32 428.052 123C428.452 122.92 428.852 122.88 429.052 122.88C429.332 122.88 429.572 122.88 429.852 122.96C430.932 123.24 432.012 123.4 433.492 123.4C435.732 123.4 439.852 122.32 439.852 118.36C439.852 115.64 437.892 114.04 435.172 113.04C432.772 112.12 431.172 111.52 431.172 109.32C431.172 107.68 432.612 106.76 433.972 106.76C434.852 106.76 437.172 107.08 437.692 110.48C437.932 110.72 438.732 110.68 438.972 110.44C439.092 109 439.172 107.52 439.212 106.2C437.972 106 436.052 105.44 433.972 105.44C431.012 105.44 428.332 107.36 428.332 109.92C428.332 112.84 429.652 114.08 432.732 115.36C436.052 116.72 436.812 117.56 436.812 119.28C436.812 121.24 434.892 122.08 433.412 122.08C431.852 122.08 430.972 121.56 430.572 121.12C429.692 120.2 429.252 118.44 429.012 117.44C428.772 117.2 428.012 117.24 427.772 117.48ZM443.158 105.84C442.598 105.84 442.438 106.32 442.438 106.64V107.16C442.438 107.36 442.478 107.4 442.638 107.4H444.998V119.44C444.998 122.28 446.238 123.4 448.078 123.4C449.918 123.4 451.918 122.52 453.478 120.76C453.398 120.36 453.158 120.12 452.758 120.08C451.717 120.88 450.518 121.2 449.478 121.2C448.398 121.2 448.158 120 448.158 117.52V107.4H452.318C452.718 107.4 453.278 107.24 453.278 106.88V106.08C453.278 105.92 453.158 105.84 452.958 105.84H448.158V104.28C448.158 101.68 448.318 100.08 448.318 100.08C448.318 99.84 448.198 99.72 447.998 99.72C447.838 99.72 447.478 99.88 447.118 100.08C446.678 100.32 446.278 100.52 445.758 100.64C445.278 100.8 444.878 100.92 444.878 101.2C444.878 101.68 444.998 101.4 444.998 105.84H443.158ZM464.934 114.08C465.454 114.08 466.014 112.96 466.014 112.48C466.014 112.08 465.854 111.68 465.454 111.68H456.694C456.214 111.68 455.694 112.6 455.694 113.32C455.694 113.72 455.934 114.08 456.294 114.08H464.934ZM469.249 114.8C469.249 118.88 471.969 123.4 477.649 123.4C480.209 123.4 482.169 122.48 483.529 121.16C485.329 119.4 486.129 116.88 486.129 114.44C486.129 110.28 483.849 105.44 477.729 105.44C475.089 105.44 472.929 106.52 471.449 108.24C470.009 109.96 469.249 112.28 469.249 114.8ZM477.129 106.84C480.569 106.84 482.689 109.96 482.689 115.72C482.689 120.76 480.089 122 478.209 122C474.049 122 472.689 116.96 472.689 113.88C472.689 110.4 473.529 106.84 477.129 106.84ZM494.806 108.68C494.726 107.08 494.686 106.04 494.486 105.64C494.406 105.44 494.326 105.32 494.006 105.32C492.886 105.76 491.846 106.12 489.086 106.48C489.006 106.72 489.086 107.36 489.166 107.6C491.326 107.8 491.766 108 491.766 110.32V118.12C491.766 121.44 491.286 121.6 488.806 121.76C488.566 122 488.566 122.84 488.806 123.08C490.206 123.04 491.766 123 493.366 123C494.966 123 496.806 123.04 498.206 123.08C498.446 122.84 498.446 122 498.206 121.76C495.406 121.56 494.926 121.44 494.926 118.12V112.56C494.926 111.52 495.406 110.6 495.886 109.88C496.326 109.24 497.246 107.92 497.726 107.92C498.086 107.92 498.446 108 498.766 108.44C499.046 108.84 499.526 109.36 500.206 109.36C501.166 109.36 502.086 108.36 502.086 107.36C502.086 106.6 501.366 105.44 499.686 105.44C497.806 105.44 496.166 107.2 495.246 108.76C495.006 109.2 494.806 108.88 494.806 108.68ZM515.696 121C515.896 120.84 516.256 120.76 516.296 121.04C516.416 122 516.736 123.4 516.736 123.4C517.056 123.52 517.256 123.48 517.496 123.4C518.376 122.68 519.776 122.08 522.216 121.8C522.456 121.56 522.456 120.96 522.216 120.72C519.656 120.52 519.296 119.76 519.296 117.8V99.68C519.296 97.08 519.456 95.48 519.456 95.48C519.456 95.2 519.296 95.08 518.936 95.08C517.936 95.48 514.936 96.04 513.336 96.16C513.256 96.48 513.336 97.12 513.576 97.36C513.696 97.36 513.816 97.36 513.936 97.36C515.696 97.48 516.136 97.48 516.136 100.64V105.76C516.136 106.04 516.056 106.12 515.776 106.12C515.616 106.12 513.976 105.44 512.656 105.44C510.016 105.44 508.256 106.32 506.656 107.84C504.936 109.56 503.896 111.92 503.896 114.88C503.896 119.8 506.376 123.4 510.696 123.4C512.256 123.4 513.736 122.6 515.696 121ZM516.136 118.04C516.136 118.8 516.056 119.12 515.496 119.6C514.016 120.88 512.736 121.52 511.736 121.52C509.576 121.52 507.336 119.16 507.336 114.16C507.336 111.28 507.896 109.68 508.496 108.84C509.736 106.96 511.416 106.84 512.216 106.84C513.656 106.84 514.656 107.36 515.456 108.28C516.016 108.92 516.136 109.2 516.136 110.44V118.04ZM538.01 119.28C536.53 120.8 535.37 121.44 533.05 121.44C531.61 121.44 529.93 120.6 528.69 118.56C527.89 117.24 527.41 115.4 527.41 113.08L538.05 113.16C538.53 113.16 538.81 112.92 538.81 112.48C538.81 109.12 537.61 105.52 532.05 105.52C528.57 105.52 524.05 108.84 524.05 114.92C524.05 117.16 524.61 119.32 525.93 120.84C527.29 122.44 529.17 123.4 532.05 123.4C535.09 123.4 537.25 122 538.85 119.92C538.73 119.52 538.49 119.32 538.01 119.28ZM527.53 111.72C528.29 107.2 531.09 106.84 532.05 106.84C533.57 106.84 535.37 107.68 535.37 111.04C535.37 111.4 535.21 111.6 534.77 111.6L527.53 111.72ZM547.501 108.68C547.421 107.08 547.381 106.04 547.181 105.64C547.101 105.44 547.021 105.32 546.701 105.32C545.581 105.76 544.541 106.12 541.781 106.48C541.701 106.72 541.781 107.36 541.861 107.6C544.021 107.8 544.461 108 544.461 110.32V118.12C544.461 121.44 543.981 121.6 541.501 121.76C541.261 122 541.261 122.84 541.501 123.08C542.901 123.04 544.461 123 546.061 123C547.661 123 549.501 123.04 550.901 123.08C551.141 122.84 551.141 122 550.901 121.76C548.101 121.56 547.621 121.44 547.621 118.12V112.56C547.621 111.52 548.101 110.6 548.581 109.88C549.021 109.24 549.941 107.92 550.421 107.92C550.781 107.92 551.141 108 551.461 108.44C551.741 108.84 552.221 109.36 552.901 109.36C553.861 109.36 554.781 108.36 554.781 107.36C554.781 106.6 554.061 105.44 552.381 105.44C550.501 105.44 548.861 107.2 547.941 108.76C547.701 109.2 547.501 108.88 547.501 108.68ZM569.144 118.12C569.144 121.44 568.704 121.64 566.264 121.76C566.024 122 566.024 122.84 566.264 123.08C567.664 123.04 569.144 123 570.744 123C572.344 123 573.864 123.04 575.184 123.08C575.424 122.84 575.424 122 575.184 121.76C572.744 121.64 572.304 121.44 572.304 118.12V99.68C572.304 97.08 572.464 95.48 572.464 95.48C572.464 95.2 572.304 95.08 571.944 95.08C570.944 95.48 567.944 96.04 566.344 96.16C566.264 96.48 566.344 97.12 566.584 97.36C568.904 97.52 569.144 97.64 569.144 100.64V118.12ZM577.531 114.8C577.531 118.88 580.251 123.4 585.931 123.4C588.491 123.4 590.451 122.48 591.811 121.16C593.611 119.4 594.411 116.88 594.411 114.44C594.411 110.28 592.131 105.44 586.011 105.44C583.371 105.44 581.211 106.52 579.731 108.24C578.291 109.96 577.531 112.28 577.531 114.8ZM585.411 106.84C588.851 106.84 590.971 109.96 590.971 115.72C590.971 120.76 588.371 122 586.491 122C582.331 122 580.971 116.96 580.971 113.88C580.971 110.4 581.811 106.84 585.411 106.84ZM613.807 107.52C614.567 107.52 615.287 106.8 615.287 106C615.287 105.16 614.527 104.52 613.447 104.52C612.407 104.52 610.487 105.2 609.447 106.56C608.967 106.24 607.647 105.44 605.287 105.44C601.727 105.44 598.447 107.84 598.447 111.52C598.447 113.68 599.407 114.92 600.527 116C599.407 116.96 598.767 118.68 598.767 120.04C598.767 121.48 599.567 122.6 600.607 123.12C598.447 124.4 597.327 126.24 597.327 127.96C597.327 131.44 600.607 132.52 603.687 132.52C609.087 132.52 614.927 129.92 614.927 125.6C614.927 124.32 614.327 123.32 613.167 122.36C611.607 121.08 608.807 121.04 607.327 121.04C606.607 121.04 605.607 121.12 604.647 121.24C604.047 121.28 603.647 121.32 603.447 121.32C602.287 121.32 600.887 120.76 600.887 119.04C600.887 118.24 601.127 117.4 601.607 116.72C602.567 117.28 603.687 117.56 605.247 117.56C608.767 117.56 612.007 115.36 612.007 111.44C612.007 109.56 611.447 108.48 610.287 107.28C610.567 106.88 611.367 106.32 611.887 106.32C612.167 106.32 612.447 106.44 612.687 106.8C612.847 107.12 613.367 107.52 613.807 107.52ZM601.327 123.4C601.767 123.52 602.407 123.6 602.927 123.6C604.167 123.6 605.287 123.48 605.847 123.48C607.847 123.48 609.527 123.52 610.687 124.16C612.247 125.04 612.727 125.6 612.727 126.64C612.727 129.52 608.487 131.04 604.887 131.04C603.447 131.04 600.087 129.88 600.087 127.16C600.087 125.8 600.167 124.8 601.327 123.4ZM608.807 111.84C608.807 115.56 606.927 116.32 605.447 116.32C602.087 116.32 601.727 113.48 601.727 110.92C601.727 108.12 602.727 106.68 604.927 106.68C607.447 106.68 608.807 108.52 608.807 111.84ZM623.287 118.12V110.16C623.287 108.16 623.447 105.6 623.447 105.6C623.447 105.44 623.247 105.32 622.927 105.32C621.807 105.76 620.207 106.12 617.447 106.48C617.367 106.72 617.447 107.36 617.527 107.6C619.727 107.8 620.127 108.04 620.127 110.32V118.12C620.127 121.44 619.687 121.56 617.247 121.76C617.007 122 617.007 122.84 617.247 123.08C618.567 123.04 620.127 123 621.727 123C623.327 123 624.847 123.04 626.167 123.08C626.407 122.84 626.407 122 626.167 121.76C623.727 121.6 623.287 121.44 623.287 118.12ZM619.647 99.04C619.647 100.08 620.607 101.12 621.567 101.12C622.687 101.12 623.647 100.04 623.647 99.2C623.647 98.24 622.807 97.12 621.727 97.12C620.767 97.12 619.647 98.08 619.647 99.04ZM642.826 119.36C642.666 119 642.346 118.84 641.986 118.8C640.626 120.56 638.906 121.44 637.186 121.44C634.266 121.44 631.826 118.48 631.826 113.8C631.826 109.4 633.746 106.76 636.386 106.76C638.746 106.76 639.066 108.16 639.226 109.56C639.346 110.64 639.906 111 640.746 111C641.586 111 642.706 110.48 642.706 109.24C642.706 107.04 640.426 105.44 636.586 105.44C632.626 105.44 628.386 109 628.386 114.68C628.386 119.84 631.266 123.4 636.306 123.4C638.706 123.4 640.826 122.64 642.826 119.36ZM648.176 119.2C646.936 119.2 646.056 120.04 646.056 121.16C646.056 122.4 647.096 122.8 647.816 122.92C648.576 123 649.256 123.24 649.256 124.16C649.256 125 647.816 126.84 645.736 127.36C645.736 127.76 645.816 128.04 646.096 128.32C648.496 127.88 650.816 125.96 650.816 123.16C650.816 120.76 649.776 119.2 648.176 119.2ZM676.165 121C676.365 120.84 676.725 120.76 676.765 121.04C676.885 122 677.205 123.4 677.205 123.4C677.525 123.52 677.725 123.48 677.965 123.4C678.845 122.68 680.245 122.08 682.685 121.8C682.925 121.56 682.925 120.96 682.685 120.72C680.125 120.52 679.765 119.76 679.765 117.8V99.68C679.765 97.08 679.925 95.48 679.925 95.48C679.925 95.2 679.765 95.08 679.405 95.08C678.405 95.48 675.405 96.04 673.805 96.16C673.725 96.48 673.805 97.12 674.045 97.36C674.165 97.36 674.285 97.36 674.405 97.36C676.165 97.48 676.605 97.48 676.605 100.64V105.76C676.605 106.04 676.525 106.12 676.245 106.12C676.085 106.12 674.445 105.44 673.125 105.44C670.485 105.44 668.725 106.32 667.125 107.84C665.405 109.56 664.365 111.92 664.365 114.88C664.365 119.8 666.845 123.4 671.165 123.4C672.725 123.4 674.205 122.6 676.165 121ZM676.605 118.04C676.605 118.8 676.525 119.12 675.965 119.6C674.485 120.88 673.205 121.52 672.205 121.52C670.045 121.52 667.805 119.16 667.805 114.16C667.805 111.28 668.365 109.68 668.965 108.84C670.205 106.96 671.885 106.84 672.685 106.84C674.125 106.84 675.125 107.36 675.925 108.28C676.485 108.92 676.605 109.2 676.605 110.44V118.04ZM698.479 119.28C696.999 120.8 695.839 121.44 693.519 121.44C692.079 121.44 690.399 120.6 689.159 118.56C688.359 117.24 687.879 115.4 687.879 113.08L698.519 113.16C698.999 113.16 699.279 112.92 699.279 112.48C699.279 109.12 698.079 105.52 692.519 105.52C689.039 105.52 684.519 108.84 684.519 114.92C684.519 117.16 685.079 119.32 686.399 120.84C687.759 122.44 689.639 123.4 692.519 123.4C695.559 123.4 697.719 122 699.319 119.92C699.199 119.52 698.959 119.32 698.479 119.28ZM687.999 111.72C688.759 107.2 691.559 106.84 692.519 106.84C694.039 106.84 695.839 107.68 695.839 111.04C695.839 111.4 695.679 111.6 695.239 111.6L687.999 111.72ZM717.123 119.36C716.963 119 716.643 118.84 716.283 118.8C714.923 120.56 713.203 121.44 711.483 121.44C708.563 121.44 706.123 118.48 706.123 113.8C706.123 109.4 708.043 106.76 710.683 106.76C713.043 106.76 713.363 108.16 713.523 109.56C713.643 110.64 714.203 111 715.043 111C715.883 111 717.003 110.48 717.003 109.24C717.003 107.04 714.723 105.44 710.883 105.44C706.923 105.44 702.683 109 702.683 114.68C702.683 119.84 705.563 123.4 710.603 123.4C713.003 123.4 715.123 122.64 717.123 119.36ZM725.553 118.12V110.16C725.553 108.16 725.713 105.6 725.713 105.6C725.713 105.44 725.513 105.32 725.193 105.32C724.073 105.76 722.473 106.12 719.713 106.48C719.632 106.72 719.713 107.36 719.793 107.6C721.993 107.8 722.393 108.04 722.393 110.32V118.12C722.393 121.44 721.953 121.56 719.513 121.76C719.273 122 719.273 122.84 719.513 123.08C720.833 123.04 722.393 123 723.993 123C725.593 123 727.113 123.04 728.433 123.08C728.673 122.84 728.673 122 728.433 121.76C725.993 121.6 725.553 121.44 725.553 118.12ZM721.913 99.04C721.913 100.08 722.873 101.12 723.833 101.12C724.953 101.12 725.913 100.04 725.913 99.2C725.913 98.24 725.073 97.12 723.993 97.12C723.033 97.12 721.913 98.08 721.913 99.04ZM742.532 121C742.732 120.84 743.092 120.76 743.132 121.04C743.252 122 743.572 123.4 743.572 123.4C743.892 123.52 744.092 123.48 744.332 123.4C745.212 122.68 746.612 122.08 749.052 121.8C749.292 121.56 749.292 120.96 749.052 120.72C746.492 120.52 746.132 119.76 746.132 117.8V99.68C746.132 97.08 746.292 95.48 746.292 95.48C746.292 95.2 746.132 95.08 745.772 95.08C744.772 95.48 741.772 96.04 740.172 96.16C740.092 96.48 740.172 97.12 740.412 97.36C740.532 97.36 740.652 97.36 740.772 97.36C742.532 97.48 742.972 97.48 742.972 100.64V105.76C742.972 106.04 742.892 106.12 742.612 106.12C742.452 106.12 740.812 105.44 739.492 105.44C736.852 105.44 735.092 106.32 733.492 107.84C731.772 109.56 730.732 111.92 730.732 114.88C730.732 119.8 733.212 123.4 737.532 123.4C739.092 123.4 740.572 122.6 742.532 121ZM742.972 118.04C742.972 118.8 742.892 119.12 742.332 119.6C740.852 120.88 739.572 121.52 738.572 121.52C736.412 121.52 734.172 119.16 734.172 114.16C734.172 111.28 734.732 109.68 735.332 108.84C736.572 106.96 738.252 106.84 739.052 106.84C740.492 106.84 741.492 107.36 742.292 108.28C742.852 108.92 742.972 109.2 742.972 110.44V118.04ZM764.846 119.28C763.366 120.8 762.206 121.44 759.886 121.44C758.446 121.44 756.766 120.6 755.526 118.56C754.726 117.24 754.246 115.4 754.246 113.08L764.886 113.16C765.366 113.16 765.646 112.92 765.646 112.48C765.646 109.12 764.446 105.52 758.886 105.52C755.406 105.52 750.886 108.84 750.886 114.92C750.886 117.16 751.446 119.32 752.766 120.84C754.126 122.44 756.006 123.4 758.886 123.4C761.926 123.4 764.086 122 765.686 119.92C765.566 119.52 765.326 119.32 764.846 119.28ZM754.366 111.72C755.126 107.2 757.926 106.84 758.886 106.84C760.406 106.84 762.206 107.68 762.206 111.04C762.206 111.4 762.046 111.6 761.606 111.6L754.366 111.72ZM784.537 118.12V110.16C784.537 108.16 784.697 105.6 784.697 105.6C784.697 105.44 784.497 105.32 784.177 105.32C783.057 105.76 781.457 106.12 778.697 106.48C778.617 106.72 778.697 107.36 778.777 107.6C780.977 107.8 781.377 108.04 781.377 110.32V118.12C781.377 121.44 780.937 121.56 778.497 121.76C778.257 122 778.257 122.84 778.497 123.08C779.817 123.04 781.377 123 782.977 123C784.577 123 786.097 123.04 787.417 123.08C787.657 122.84 787.657 122 787.417 121.76C784.977 121.6 784.537 121.44 784.537 118.12ZM780.897 99.04C780.897 100.08 781.857 101.12 782.817 101.12C783.937 101.12 784.897 100.04 784.897 99.2C784.897 98.24 784.057 97.12 782.977 97.12C782.017 97.12 780.897 98.08 780.897 99.04ZM795.156 118.12V107.4H798.876C799.236 107.4 799.796 107.24 799.796 106.88V106.08C799.796 105.92 799.676 105.84 799.476 105.84H795.156V103.56C795.156 97.4 796.996 96.44 798.316 96.44C799.516 96.44 800.156 96.92 800.716 98.32C801.036 99.04 801.476 99.6 802.316 99.6C802.996 99.6 803.956 98.76 803.956 97.96C803.956 97.28 803.516 96.56 802.676 95.92C801.636 95.2 800.596 95.08 799.076 95.08C795.716 95.08 791.996 98 791.996 104.24V105.84H789.956C789.236 105.84 789.036 106.32 789.036 106.64V107.16C789.036 107.36 789.076 107.4 789.236 107.4H791.996V118.12C791.996 121.44 791.356 121.6 789.196 121.76C788.956 122 788.956 122.84 789.196 123.08C790.596 123.04 791.996 123 793.596 123C795.196 123 797.116 123.04 798.516 123.08C798.756 122.84 798.756 122 798.516 121.76C795.396 121.6 795.156 121.44 795.156 118.12ZM817.779 118.12V110.16C817.779 108.16 817.939 105.6 817.939 105.6C817.939 105.44 817.739 105.32 817.419 105.32C816.299 105.76 814.699 106.12 811.939 106.48C811.859 106.72 811.939 107.36 812.019 107.6C814.219 107.8 814.619 108.04 814.619 110.32V118.12C814.619 121.44 814.179 121.56 811.739 121.76C811.499 122 811.499 122.84 811.739 123.08C813.059 123.04 814.619 123 816.219 123C817.819 123 819.339 123.04 820.659 123.08C820.899 122.84 820.899 122 820.659 121.76C818.219 121.6 817.779 121.44 817.779 118.12ZM814.139 99.04C814.139 100.08 815.099 101.12 816.059 101.12C817.179 101.12 818.139 100.04 818.139 99.2C818.139 98.24 817.299 97.12 816.219 97.12C815.259 97.12 814.139 98.08 814.139 99.04ZM823.118 105.84C822.558 105.84 822.398 106.32 822.398 106.64V107.16C822.398 107.36 822.438 107.4 822.598 107.4H824.958V119.44C824.958 122.28 826.198 123.4 828.038 123.4C829.878 123.4 831.878 122.52 833.438 120.76C833.358 120.36 833.118 120.12 832.718 120.08C831.678 120.88 830.478 121.2 829.438 121.2C828.358 121.2 828.118 120 828.118 117.52V107.4H832.278C832.678 107.4 833.238 107.24 833.238 106.88V106.08C833.238 105.92 833.118 105.84 832.918 105.84H828.118V104.28C828.118 101.68 828.278 100.08 828.278 100.08C828.278 99.84 828.158 99.72 827.958 99.72C827.798 99.72 827.438 99.88 827.078 100.08C826.638 100.32 826.238 100.52 825.718 100.64C825.238 100.8 824.838 100.92 824.838 101.2C824.838 101.68 824.958 101.4 824.958 105.84H823.118ZM851.295 118.12V110.16C851.295 108.16 851.455 105.6 851.455 105.6C851.455 105.44 851.255 105.32 850.935 105.32C849.815 105.76 848.215 106.12 845.455 106.48C845.375 106.72 845.455 107.36 845.535 107.6C847.735 107.8 848.135 108.04 848.135 110.32V118.12C848.135 121.44 847.695 121.56 845.255 121.76C845.015 122 845.015 122.84 845.255 123.08C846.575 123.04 848.135 123 849.735 123C851.335 123 852.855 123.04 854.175 123.08C854.415 122.84 854.415 122 854.175 121.76C851.735 121.6 851.295 121.44 851.295 118.12ZM847.655 99.04C847.655 100.08 848.615 101.12 849.575 101.12C850.695 101.12 851.655 100.04 851.655 99.2C851.655 98.24 850.815 97.12 849.735 97.12C848.775 97.12 847.655 98.08 847.655 99.04ZM856.834 117.48C856.994 119.44 857.114 121.32 857.114 123C857.514 122.92 857.914 122.88 858.114 122.88C858.394 122.88 858.634 122.88 858.914 122.96C859.994 123.24 861.074 123.4 862.554 123.4C864.794 123.4 868.914 122.32 868.914 118.36C868.914 115.64 866.954 114.04 864.234 113.04C861.834 112.12 860.234 111.52 860.234 109.32C860.234 107.68 861.674 106.76 863.034 106.76C863.914 106.76 866.234 107.08 866.754 110.48C866.994 110.72 867.794 110.68 868.034 110.44C868.154 109 868.234 107.52 868.274 106.2C867.034 106 865.114 105.44 863.034 105.44C860.074 105.44 857.394 107.36 857.394 109.92C857.394 112.84 858.714 114.08 861.794 115.36C865.114 116.72 865.874 117.56 865.874 119.28C865.874 121.24 863.954 122.08 862.474 122.08C860.914 122.08 860.034 121.56 859.634 121.12C858.754 120.2 858.314 118.44 858.074 117.44C857.834 117.2 857.074 117.24 856.834 117.48ZM882.22 105.84C881.66 105.84 881.5 106.32 881.5 106.64V107.16C881.5 107.36 881.54 107.4 881.7 107.4H884.06V119.44C884.06 122.28 885.3 123.4 887.14 123.4C888.98 123.4 890.98 122.52 892.54 120.76C892.46 120.36 892.22 120.12 891.82 120.08C890.78 120.88 889.58 121.2 888.54 121.2C887.46 121.2 887.22 120 887.22 117.52V107.4H891.38C891.78 107.4 892.34 107.24 892.34 106.88V106.08C892.34 105.92 892.22 105.84 892.02 105.84H887.22V104.28C887.22 101.68 887.38 100.08 887.38 100.08C887.38 99.84 887.26 99.72 887.06 99.72C886.9 99.72 886.54 99.88 886.18 100.08C885.74 100.32 885.34 100.52 884.82 100.64C884.34 100.8 883.94 100.92 883.94 101.2C883.94 101.68 884.06 101.4 884.06 105.84H882.22ZM900.196 108.68C900.116 107.08 900.076 106.04 899.876 105.64C899.796 105.44 899.716 105.32 899.396 105.32C898.276 105.76 897.236 106.12 894.476 106.48C894.396 106.72 894.476 107.36 894.556 107.6C896.716 107.8 897.156 108 897.156 110.32V118.12C897.156 121.44 896.676 121.6 894.196 121.76C893.956 122 893.956 122.84 894.196 123.08C895.596 123.04 897.156 123 898.756 123C900.356 123 902.196 123.04 903.596 123.08C903.836 122.84 903.836 122 903.596 121.76C900.796 121.56 900.316 121.44 900.316 118.12V112.56C900.316 111.52 900.796 110.6 901.276 109.88C901.716 109.24 902.636 107.92 903.116 107.92C903.476 107.92 903.836 108 904.156 108.44C904.436 108.84 904.916 109.36 905.596 109.36C906.556 109.36 907.476 108.36 907.476 107.36C907.476 106.6 906.756 105.44 905.076 105.44C903.196 105.44 901.556 107.2 900.636 108.76C900.396 109.2 900.196 108.88 900.196 108.68ZM916.719 123.4C918.279 123.4 920.159 122.6 922.119 121C922.319 120.84 922.679 120.76 922.719 121.04C922.839 122.04 923.159 123.4 923.159 123.4C923.479 123.52 923.679 123.48 923.919 123.4C924.799 122.68 926.199 122.08 928.639 121.8C928.879 121.56 928.879 120.96 928.639 120.72C926.079 120.52 925.719 119.76 925.719 117.8V110.12C925.719 108.92 925.879 106 925.879 106C925.879 105.88 925.759 105.76 925.559 105.76C925.359 105.8 924.759 105.84 924.159 105.84C922.879 105.84 921.439 105.8 920.079 105.76C919.839 106 919.839 106.84 920.079 107.08C922.039 107.2 922.559 107.68 922.559 110.32V118.04C922.559 118.8 922.479 119.12 921.919 119.6C920.439 120.88 918.919 121.52 917.919 121.52C916.719 121.52 914.719 120.96 914.719 117.4V110.12C914.719 108.92 914.879 106 914.879 106C914.879 105.88 914.759 105.76 914.559 105.76C914.359 105.8 913.759 105.84 913.159 105.84C911.879 105.84 910.439 105.8 909.079 105.76C908.839 106 908.839 106.84 909.079 107.08C910.999 107.24 911.559 107.68 911.559 110.28V117.96C911.559 120.72 912.759 123.4 916.719 123.4ZM944.729 119.28C943.249 120.8 942.089 121.44 939.769 121.44C938.329 121.44 936.649 120.6 935.409 118.56C934.609 117.24 934.129 115.4 934.129 113.08L944.769 113.16C945.249 113.16 945.529 112.92 945.529 112.48C945.529 109.12 944.329 105.52 938.769 105.52C935.289 105.52 930.769 108.84 930.769 114.92C930.769 117.16 931.329 119.32 932.649 120.84C934.009 122.44 935.889 123.4 938.769 123.4C941.809 123.4 943.969 122 945.569 119.92C945.449 119.52 945.209 119.32 944.729 119.28ZM934.249 111.72C935.009 107.2 937.809 106.84 938.769 106.84C940.289 106.84 942.089 107.68 942.089 111.04C942.089 111.4 941.929 111.6 941.489 111.6L934.249 111.72ZM949.069 121.28C949.069 122.44 950.029 123.4 951.189 123.4C952.349 123.4 953.309 122.44 953.309 121.28C953.309 120.12 952.349 119.16 951.189 119.16C950.029 119.16 949.069 120.12 949.069 121.28Z" fill="black"/>
<path id="in all models" d="M837.068 154.584V149.012C837.068 147.612 837.18 145.82 837.18 145.82C837.18 145.708 837.04 145.624 836.816 145.624C836.032 145.932 834.912 146.184 832.98 146.436C832.924 146.604 832.98 147.052 833.036 147.22C834.576 147.36 834.856 147.528 834.856 149.124V154.584C834.856 156.908 834.548 156.992 832.84 157.132C832.672 157.3 832.672 157.888 832.84 158.056C833.764 158.028 834.856 158 835.976 158C837.096 158 838.16 158.028 839.084 158.056C839.252 157.888 839.252 157.3 839.084 157.132C837.376 157.02 837.068 156.908 837.068 154.584ZM834.52 141.228C834.52 141.956 835.192 142.684 835.864 142.684C836.648 142.684 837.32 141.928 837.32 141.34C837.32 140.668 836.732 139.884 835.976 139.884C835.304 139.884 834.52 140.556 834.52 141.228ZM844.754 147.976C844.586 148.172 844.418 148.228 844.418 147.976C844.39 147.22 844.334 146.128 844.194 145.848C844.138 145.708 844.082 145.624 843.858 145.624C843.074 145.932 842.346 146.184 840.414 146.436C840.358 146.604 840.414 147.052 840.47 147.22C841.982 147.36 842.29 147.5 842.29 149.124V154.584C842.29 156.88 842.01 156.992 840.33 157.132C840.162 157.3 840.162 157.888 840.33 158.056C841.17 158.028 842.29 158 843.41 158C844.53 158 845.37 158.028 846.21 158.056C846.378 157.888 846.378 157.3 846.21 157.132C844.782 156.992 844.502 156.88 844.502 154.584V149.992C844.502 149.404 844.754 149.068 844.978 148.816C846.042 147.78 847.302 147.164 848.394 147.164C848.954 147.164 849.542 147.528 849.878 148.172C850.158 148.732 850.214 149.488 850.214 150.328V154.584C850.214 156.88 849.934 156.992 848.478 157.132C848.338 157.3 848.338 157.888 848.478 158.056C849.318 158.028 850.214 158 851.334 158C852.454 158 853.462 158.028 854.302 158.056C854.442 157.888 854.442 157.3 854.302 157.132C852.734 156.992 852.426 156.88 852.426 154.584V150.412C852.426 148.872 852.314 147.528 851.67 146.66C851.194 146.044 850.326 145.708 849.346 145.708C847.974 145.708 846.406 146.072 844.754 147.976ZM869.981 156.656C870.149 157.524 870.457 158.28 871.857 158.28C872.921 158.28 873.929 157.804 874.517 157.244C874.461 156.908 874.349 156.656 874.041 156.488C873.845 156.656 873.369 156.936 873.005 156.936C872.193 156.936 872.165 155.844 872.165 154.556V150.44C872.165 146.464 869.981 145.708 867.937 145.708C865.641 145.708 863.317 147.22 863.317 148.816C863.317 149.488 863.653 149.824 864.297 149.824C865.109 149.824 865.613 149.236 865.613 148.872C865.613 148.676 865.585 148.48 865.529 148.368C865.501 148.284 865.473 148.116 865.473 147.808C865.473 146.94 866.649 146.632 867.713 146.632C868.665 146.632 869.981 147.108 869.981 150.272C869.981 150.468 869.897 150.58 869.813 150.608L867.405 151.196C864.717 151.868 862.785 153.352 862.785 155.256C862.785 157.552 864.353 158.28 866.313 158.28C867.293 158.28 868.133 158.056 869.365 157.104L869.925 156.656H869.981ZM869.981 151.476V155.172C869.981 155.536 869.813 155.732 869.589 155.9C868.861 156.488 867.909 157.132 867.125 157.132C865.725 157.132 865.109 156.012 865.109 155.144C865.109 153.884 865.697 152.596 867.769 152.064L869.981 151.476ZM877.234 154.584C877.234 156.908 876.926 157.048 875.218 157.132C875.05 157.3 875.05 157.888 875.218 158.056C876.198 158.028 877.234 158 878.354 158C879.474 158 880.538 158.028 881.462 158.056C881.63 157.888 881.63 157.3 881.462 157.132C879.754 157.048 879.446 156.908 879.446 154.584V141.676C879.446 139.856 879.558 138.736 879.558 138.736C879.558 138.54 879.446 138.456 879.194 138.456C878.494 138.736 876.394 139.128 875.274 139.212C875.218 139.436 875.274 139.884 875.442 140.052C877.066 140.164 877.234 140.248 877.234 142.348V154.584ZM884.617 154.584C884.617 156.908 884.309 157.048 882.601 157.132C882.433 157.3 882.433 157.888 882.601 158.056C883.581 158.028 884.617 158 885.737 158C886.857 158 887.921 158.028 888.845 158.056C889.013 157.888 889.013 157.3 888.845 157.132C887.137 157.048 886.829 156.908 886.829 154.584V141.676C886.829 139.856 886.941 138.736 886.941 138.736C886.941 138.54 886.829 138.456 886.577 138.456C885.877 138.736 883.777 139.128 882.657 139.212C882.601 139.436 882.657 139.884 882.825 140.052C884.449 140.164 884.617 140.248 884.617 142.348V154.584ZM901.1 147.976C901.072 147.136 901.016 146.128 900.876 145.848C900.82 145.708 900.764 145.624 900.54 145.624C899.756 145.932 899.028 146.184 897.096 146.436C897.04 146.604 897.096 147.052 897.152 147.22C898.664 147.36 898.972 147.5 898.972 149.124V154.584C898.972 156.88 898.608 157.02 897.068 157.132C896.9 157.3 896.9 157.888 897.068 158.056C897.908 158.028 898.972 158 900.092 158C901.212 158 902.08 158.028 902.92 158.056C903.088 157.888 903.088 157.3 902.92 157.132C901.492 156.992 901.184 156.88 901.184 154.584V149.992C901.184 149.404 901.436 149.068 901.66 148.816C902.78 147.724 903.816 147.164 904.684 147.164C905.748 147.164 906.532 147.836 906.532 149.712V154.584C906.532 156.88 906.308 157.02 904.796 157.132C904.656 157.3 904.656 157.888 904.796 158.056C905.496 158.028 906.532 158 907.652 158C908.772 158 909.696 158.028 910.396 158.056C910.536 157.888 910.536 157.3 910.396 157.132C908.996 157.02 908.744 156.88 908.744 154.584V150.132C908.744 149.74 908.744 149.348 908.716 149.012C910.06 147.528 911.32 147.164 912.412 147.164C913.476 147.164 914.092 147.78 914.092 149.656V154.584C914.092 156.88 913.812 157.02 912.356 157.132C912.216 157.3 912.216 157.888 912.356 158.056C913.056 158.028 914.092 158 915.212 158C916.332 158 917.312 158.028 918.096 158.056C918.236 157.888 918.236 157.3 918.096 157.132C916.556 157.02 916.304 156.88 916.304 154.584V150.16C916.304 147.668 915.884 145.708 913.42 145.708C911.992 145.708 910.256 146.24 908.8 147.78C908.716 147.864 908.548 148.004 908.492 147.752C908.24 146.604 907.148 145.708 905.692 145.708C904.068 145.708 902.612 146.66 901.436 147.976C901.296 148.116 901.128 148.312 901.1 147.976ZM919.609 152.26C919.609 155.116 921.513 158.28 925.489 158.28C927.281 158.28 928.653 157.636 929.605 156.712C930.865 155.48 931.425 153.716 931.425 152.008C931.425 149.096 929.829 145.708 925.545 145.708C923.697 145.708 922.185 146.464 921.149 147.668C920.141 148.872 919.609 150.496 919.609 152.26ZM925.125 146.688C927.533 146.688 929.017 148.872 929.017 152.904C929.017 156.432 927.197 157.3 925.881 157.3C922.969 157.3 922.017 153.772 922.017 151.616C922.017 149.18 922.605 146.688 925.125 146.688ZM942.114 156.6C942.254 156.488 942.506 156.432 942.534 156.628C942.618 157.3 942.842 158.28 942.842 158.28C943.066 158.364 943.206 158.336 943.374 158.28C943.99 157.776 944.97 157.356 946.678 157.16C946.846 156.992 946.846 156.572 946.678 156.404C944.886 156.264 944.634 155.732 944.634 154.36V141.676C944.634 139.856 944.746 138.736 944.746 138.736C944.746 138.54 944.634 138.456 944.382 138.456C943.682 138.736 941.582 139.128 940.462 139.212C940.406 139.436 940.462 139.884 940.63 140.052C940.714 140.052 940.798 140.052 940.882 140.052C942.114 140.136 942.422 140.136 942.422 142.348V145.932C942.422 146.128 942.366 146.184 942.17 146.184C942.058 146.184 940.91 145.708 939.986 145.708C938.138 145.708 936.906 146.324 935.786 147.388C934.582 148.592 933.854 150.244 933.854 152.316C933.854 155.76 935.59 158.28 938.614 158.28C939.706 158.28 940.742 157.72 942.114 156.6ZM942.422 154.528C942.422 155.06 942.366 155.284 941.974 155.62C940.938 156.516 940.042 156.964 939.342 156.964C937.83 156.964 936.262 155.312 936.262 151.812C936.262 149.796 936.654 148.676 937.074 148.088C937.942 146.772 939.118 146.688 939.678 146.688C940.686 146.688 941.386 147.052 941.946 147.696C942.338 148.144 942.422 148.34 942.422 149.208V154.528ZM957.734 155.396C956.698 156.46 955.886 156.908 954.262 156.908C953.254 156.908 952.078 156.32 951.21 154.892C950.65 153.968 950.314 152.68 950.314 151.056L957.762 151.112C958.098 151.112 958.294 150.944 958.294 150.636C958.294 148.284 957.454 145.764 953.562 145.764C951.126 145.764 947.962 148.088 947.962 152.344C947.962 153.912 948.354 155.424 949.278 156.488C950.23 157.608 951.546 158.28 953.562 158.28C955.69 158.28 957.202 157.3 958.322 155.844C958.238 155.564 958.07 155.424 957.734 155.396ZM950.398 150.104C950.93 146.94 952.89 146.688 953.562 146.688C954.626 146.688 955.886 147.276 955.886 149.628C955.886 149.88 955.774 150.02 955.466 150.02L950.398 150.104ZM962.109 154.584C962.109 156.908 961.801 157.048 960.093 157.132C959.925 157.3 959.925 157.888 960.093 158.056C961.073 158.028 962.109 158 963.229 158C964.349 158 965.413 158.028 966.337 158.056C966.505 157.888 966.505 157.3 966.337 157.132C964.629 157.048 964.321 156.908 964.321 154.584V141.676C964.321 139.856 964.433 138.736 964.433 138.736C964.433 138.54 964.321 138.456 964.069 138.456C963.369 138.736 961.269 139.128 960.149 139.212C960.093 139.436 960.149 139.884 960.317 140.052C961.941 140.164 962.109 140.248 962.109 142.348V154.584ZM968.176 154.136C968.288 155.508 968.372 156.824 968.372 158C968.652 157.944 968.932 157.916 969.072 157.916C969.268 157.916 969.436 157.916 969.632 157.972C970.388 158.168 971.144 158.28 972.18 158.28C973.748 158.28 976.632 157.524 976.632 154.752C976.632 152.848 975.26 151.728 973.356 151.028C971.676 150.384 970.556 149.964 970.556 148.424C970.556 147.276 971.564 146.632 972.516 146.632C973.132 146.632 974.756 146.856 975.12 149.236C975.288 149.404 975.848 149.376 976.016 149.208C976.1 148.2 976.156 147.164 976.184 146.24C975.316 146.1 973.972 145.708 972.516 145.708C970.444 145.708 968.568 147.052 968.568 148.844C968.568 150.888 969.492 151.756 971.648 152.652C973.972 153.604 974.504 154.192 974.504 155.396C974.504 156.768 973.16 157.356 972.124 157.356C971.032 157.356 970.416 156.992 970.136 156.684C969.52 156.04 969.212 154.808 969.044 154.108C968.876 153.94 968.344 153.968 968.176 154.136Z" fill="black"/>
</g>
</svg>
