<svg width="1024" height="768" viewBox="0 0 1024 768" fill="none" xmlns="http://www.w3.org/2000/svg">
<g id="graphs">
<rect width="1024" height="768" fill="white"/>
<rect id="hypergraphs" opacity="0.5" x="277" y="157" width="235" height="176" fill="#FF0000"/>
<rect id="hypergraph_monad" opacity="0.5" x="512" y="157" width="235" height="176" fill="#FF0000"/>
<path id="We_can_model_graphs_using_a_monad" d="M243.4 100.4L237.16 117.76L237.04 117.72L231.52 100.84C230.84 98.68 232.24 98.56 233.6 98.44C233.84 98.2 233.84 97.36 233.6 97.12C231.96 97.16 230.2 97.2 228.6 97.2C227.28 97.2 225.88 97.16 224.6 97.12C224.36 97.36 224.36 98.2 224.6 98.44C226.72 98.56 227.6 99.8 227.96 100.84L228.88 103.48C229.04 103.96 229.16 104.36 229.16 104.72C229.16 105.12 229.12 105.44 228.8 106.12L223.64 117.84L223.44 117.8L217.6 100.12C217.12 98.72 218.2 98.52 219.6 98.44C219.84 98.2 219.84 97.36 219.6 97.12C218.28 97.16 216.52 97.2 214.96 97.2C213.56 97.2 212.4 97.16 211.24 97.12C211 97.36 211 98.2 211.24 98.44C213.04 98.56 213.32 98.6 214.08 100.76L221.6 122.4C221.8 123.04 222.04 123.48 222.48 123.48C223 123.48 223.24 123.08 223.52 122.4L229.48 109C229.84 108.2 229.96 108 230.16 108C230.32 108 230.48 108.44 230.72 109.12L235.32 122.4C235.56 123.08 235.76 123.48 236.24 123.48C236.68 123.48 236.96 123.04 237.16 122.44L245.2 100.88C245.72 99.48 246.44 98.56 248.64 98.44C248.88 98.2 248.88 97.36 248.64 97.12C247.48 97.16 246.2 97.2 245.16 97.2C244.12 97.2 242.36 97.16 240.76 97.12C240.52 97.36 240.52 98.2 240.76 98.44C242.4 98.56 244 98.68 243.4 100.4ZM261.284 119.28C259.804 120.8 258.644 121.44 256.324 121.44C254.884 121.44 253.204 120.6 251.964 118.56C251.164 117.24 250.684 115.4 250.684 113.08L261.324 113.16C261.804 113.16 262.084 112.92 262.084 112.48C262.084 109.12 260.884 105.52 255.324 105.52C251.844 105.52 247.324 108.84 247.324 114.92C247.324 117.16 247.884 119.32 249.204 120.84C250.564 122.44 252.444 123.4 255.324 123.4C258.364 123.4 260.524 122 262.124 119.92C262.004 119.52 261.764 119.32 261.284 119.28ZM250.804 111.72C251.564 107.2 254.364 106.84 255.324 106.84C256.844 106.84 258.644 107.68 258.644 111.04C258.644 111.4 258.484 111.6 258.044 111.6L250.804 111.72ZM289.654 119.36C289.494 119 289.174 118.84 288.814 118.8C287.454 120.56 285.734 121.44 284.014 121.44C281.094 121.44 278.654 118.48 278.654 113.8C278.654 109.4 280.574 106.76 283.214 106.76C285.574 106.76 285.894 108.16 286.054 109.56C286.174 110.64 286.734 111 287.574 111C288.414 111 289.534 110.48 289.534 109.24C289.534 107.04 287.254 105.44 283.414 105.44C279.454 105.44 275.214 109 275.214 114.68C275.214 119.84 278.094 123.4 283.134 123.4C285.534 123.4 287.654 122.64 289.654 119.36ZM302.564 121.08C302.804 122.32 303.244 123.4 305.244 123.4C306.764 123.4 308.204 122.72 309.044 121.92C308.964 121.44 308.804 121.08 308.364 120.84C308.084 121.08 307.404 121.48 306.884 121.48C305.724 121.48 305.684 119.92 305.684 118.08V112.2C305.684 106.52 302.564 105.44 299.644 105.44C296.364 105.44 293.044 107.6 293.044 109.88C293.044 110.84 293.524 111.32 294.444 111.32C295.604 111.32 296.324 110.48 296.324 109.96C296.324 109.68 296.284 109.4 296.204 109.24C296.164 109.12 296.124 108.88 296.124 108.44C296.124 107.2 297.804 106.76 299.324 106.76C300.684 106.76 302.564 107.44 302.564 111.96C302.564 112.24 302.444 112.4 302.324 112.44L298.884 113.28C295.044 114.24 292.284 116.36 292.284 119.08C292.284 122.36 294.524 123.4 297.324 123.4C298.724 123.4 299.924 123.08 301.684 121.72L302.484 121.08H302.564ZM302.564 113.68V118.96C302.564 119.48 302.324 119.76 302.004 120C300.964 120.84 299.604 121.76 298.484 121.76C296.484 121.76 295.604 120.16 295.604 118.92C295.604 117.12 296.444 115.28 299.404 114.52L302.564 113.68ZM316.485 108.68C316.245 108.96 316.005 109.04 316.005 108.68C315.965 107.6 315.885 106.04 315.685 105.64C315.605 105.44 315.525 105.32 315.205 105.32C314.085 105.76 313.045 106.12 310.285 106.48C310.205 106.72 310.285 107.36 310.365 107.6C312.525 107.8 312.965 108 312.965 110.32V118.12C312.965 121.4 312.565 121.56 310.165 121.76C309.925 122 309.925 122.84 310.165 123.08C311.365 123.04 312.965 123 314.565 123C316.165 123 317.365 123.04 318.565 123.08C318.805 122.84 318.805 122 318.565 121.76C316.525 121.56 316.125 121.4 316.125 118.12V111.56C316.125 110.72 316.485 110.24 316.805 109.88C318.325 108.4 320.125 107.52 321.685 107.52C322.485 107.52 323.325 108.04 323.805 108.96C324.205 109.76 324.285 110.84 324.285 112.04V118.12C324.285 121.4 323.885 121.56 321.805 121.76C321.605 122 321.605 122.84 321.805 123.08C323.005 123.04 324.285 123 325.885 123C327.485 123 328.925 123.04 330.125 123.08C330.325 122.84 330.325 122 330.125 121.76C327.885 121.56 327.445 121.4 327.445 118.12V112.16C327.445 109.96 327.285 108.04 326.365 106.8C325.685 105.92 324.445 105.44 323.045 105.44C321.085 105.44 318.845 105.96 316.485 108.68ZM347.605 108.68C347.565 107.48 347.485 106.04 347.285 105.64C347.205 105.44 347.125 105.32 346.805 105.32C345.685 105.76 344.645 106.12 341.885 106.48C341.805 106.72 341.885 107.36 341.965 107.6C344.125 107.8 344.565 108 344.565 110.32V118.12C344.565 121.4 344.045 121.6 341.845 121.76C341.605 122 341.605 122.84 341.845 123.08C343.045 123.04 344.565 123 346.165 123C347.765 123 349.005 123.04 350.205 123.08C350.445 122.84 350.445 122 350.205 121.76C348.165 121.56 347.725 121.4 347.725 118.12V111.56C347.725 110.72 348.085 110.24 348.405 109.88C350.005 108.32 351.485 107.52 352.725 107.52C354.245 107.52 355.365 108.48 355.365 111.16V118.12C355.365 121.4 355.045 121.6 352.885 121.76C352.685 122 352.685 122.84 352.885 123.08C353.885 123.04 355.365 123 356.965 123C358.565 123 359.885 123.04 360.885 123.08C361.085 122.84 361.085 122 360.885 121.76C358.885 121.6 358.525 121.4 358.525 118.12V111.76C358.525 111.2 358.525 110.64 358.485 110.16C360.405 108.04 362.205 107.52 363.765 107.52C365.285 107.52 366.165 108.4 366.165 111.08V118.12C366.165 121.4 365.765 121.6 363.685 121.76C363.485 122 363.485 122.84 363.685 123.08C364.685 123.04 366.165 123 367.765 123C369.365 123 370.765 123.04 371.885 123.08C372.085 122.84 372.085 122 371.885 121.76C369.685 121.6 369.325 121.4 369.325 118.12V111.8C369.325 108.24 368.725 105.44 365.205 105.44C363.165 105.44 360.685 106.2 358.605 108.4C358.485 108.52 358.245 108.72 358.165 108.36C357.805 106.72 356.245 105.44 354.165 105.44C351.845 105.44 349.765 106.8 348.085 108.68C347.885 108.88 347.645 109.16 347.605 108.68ZM374.046 114.8C374.046 118.88 376.766 123.4 382.446 123.4C385.006 123.4 386.966 122.48 388.326 121.16C390.126 119.4 390.926 116.88 390.926 114.44C390.926 110.28 388.646 105.44 382.526 105.44C379.886 105.44 377.726 106.52 376.246 108.24C374.806 109.96 374.046 112.28 374.046 114.8ZM381.926 106.84C385.366 106.84 387.486 109.96 387.486 115.72C387.486 120.76 384.886 122 383.006 122C378.846 122 377.486 116.96 377.486 113.88C377.486 110.4 378.326 106.84 381.926 106.84ZM406.196 121C406.396 120.84 406.756 120.76 406.796 121.04C406.916 122 407.236 123.4 407.236 123.4C407.556 123.52 407.756 123.48 407.996 123.4C408.876 122.68 410.276 122.08 412.716 121.8C412.956 121.56 412.956 120.96 412.716 120.72C410.156 120.52 409.796 119.76 409.796 117.8V99.68C409.796 97.08 409.956 95.48 409.956 95.48C409.956 95.2 409.796 95.08 409.436 95.08C408.436 95.48 405.436 96.04 403.836 96.16C403.756 96.48 403.836 97.12 404.076 97.36C404.196 97.36 404.316 97.36 404.436 97.36C406.196 97.48 406.636 97.48 406.636 100.64V105.76C406.636 106.04 406.556 106.12 406.276 106.12C406.116 106.12 404.476 105.44 403.156 105.44C400.516 105.44 398.756 106.32 397.156 107.84C395.436 109.56 394.396 111.92 394.396 114.88C394.396 119.8 396.876 123.4 401.196 123.4C402.756 123.4 404.236 122.6 406.196 121ZM406.636 118.04C406.636 118.8 406.556 119.12 405.996 119.6C404.516 120.88 403.236 121.52 402.236 121.52C400.076 121.52 397.836 119.16 397.836 114.16C397.836 111.28 398.396 109.68 398.996 108.84C400.236 106.96 401.916 106.84 402.716 106.84C404.156 106.84 405.156 107.36 405.956 108.28C406.516 108.92 406.636 109.2 406.636 110.44V118.04ZM428.51 119.28C427.03 120.8 425.87 121.44 423.55 121.44C422.11 121.44 420.43 120.6 419.19 118.56C418.39 117.24 417.91 115.4 417.91 113.08L428.55 113.16C429.03 113.16 429.31 112.92 429.31 112.48C429.31 109.12 428.11 105.52 422.55 105.52C419.07 105.52 414.55 108.84 414.55 114.92C414.55 117.16 415.11 119.32 416.43 120.84C417.79 122.44 419.67 123.4 422.55 123.4C425.59 123.4 427.75 122 429.35 119.92C429.23 119.52 428.99 119.32 428.51 119.28ZM418.03 111.72C418.79 107.2 421.59 106.84 422.55 106.84C424.07 106.84 425.87 107.68 425.87 111.04C425.87 111.4 425.71 111.6 425.27 111.6L418.03 111.72ZM434.761 118.12C434.761 121.44 434.321 121.64 431.881 121.76C431.641 122 431.641 122.84 431.881 123.08C433.281 123.04 434.761 123 436.361 123C437.961 123 439.481 123.04 440.801 123.08C441.041 122.84 441.041 122 440.801 121.76C438.361 121.64 437.921 121.44 437.921 118.12V99.68C437.921 97.08 438.081 95.48 438.081 95.48C438.081 95.2 437.921 95.08 437.561 95.08C436.561 95.48 433.561 96.04 431.961 96.16C431.881 96.48 431.961 97.12 432.201 97.36C434.521 97.52 434.761 97.64 434.761 100.64V118.12ZM469.268 107.52C470.028 107.52 470.748 106.8 470.748 106C470.748 105.16 469.988 104.52 468.908 104.52C467.868 104.52 465.948 105.2 464.908 106.56C464.428 106.24 463.108 105.44 460.748 105.44C457.188 105.44 453.908 107.84 453.908 111.52C453.908 113.68 454.868 114.92 455.988 116C454.868 116.96 454.228 118.68 454.228 120.04C454.228 121.48 455.028 122.6 456.068 123.12C453.908 124.4 452.788 126.24 452.788 127.96C452.788 131.44 456.068 132.52 459.148 132.52C464.548 132.52 470.388 129.92 470.388 125.6C470.388 124.32 469.788 123.32 468.628 122.36C467.068 121.08 464.268 121.04 462.788 121.04C462.068 121.04 461.068 121.12 460.108 121.24C459.508 121.28 459.108 121.32 458.908 121.32C457.748 121.32 456.348 120.76 456.348 119.04C456.348 118.24 456.588 117.4 457.068 116.72C458.028 117.28 459.148 117.56 460.708 117.56C464.228 117.56 467.468 115.36 467.468 111.44C467.468 109.56 466.908 108.48 465.748 107.28C466.028 106.88 466.828 106.32 467.348 106.32C467.628 106.32 467.908 106.44 468.148 106.8C468.308 107.12 468.828 107.52 469.268 107.52ZM456.788 123.4C457.228 123.52 457.868 123.6 458.388 123.6C459.628 123.6 460.748 123.48 461.308 123.48C463.308 123.48 464.988 123.52 466.148 124.16C467.708 125.04 468.188 125.6 468.188 126.64C468.188 129.52 463.948 131.04 460.348 131.04C458.908 131.04 455.548 129.88 455.548 127.16C455.548 125.8 455.628 124.8 456.788 123.4ZM464.268 111.84C464.268 115.56 462.388 116.32 460.908 116.32C457.548 116.32 457.188 113.48 457.188 110.92C457.188 108.12 458.188 106.68 460.388 106.68C462.908 106.68 464.268 108.52 464.268 111.84ZM478.548 108.68C478.468 107.08 478.428 106.04 478.228 105.64C478.148 105.44 478.068 105.32 477.748 105.32C476.628 105.76 475.588 106.12 472.828 106.48C472.748 106.72 472.828 107.36 472.908 107.6C475.068 107.8 475.508 108 475.508 110.32V118.12C475.508 121.44 475.028 121.6 472.548 121.76C472.308 122 472.308 122.84 472.548 123.08C473.948 123.04 475.508 123 477.108 123C478.708 123 480.548 123.04 481.948 123.08C482.188 122.84 482.188 122 481.948 121.76C479.148 121.56 478.668 121.44 478.668 118.12V112.56C478.668 111.52 479.148 110.6 479.628 109.88C480.068 109.24 480.988 107.92 481.468 107.92C481.828 107.92 482.188 108 482.508 108.44C482.788 108.84 483.268 109.36 483.948 109.36C484.908 109.36 485.828 108.36 485.828 107.36C485.828 106.6 485.108 105.44 483.428 105.44C481.548 105.44 479.908 107.2 478.988 108.76C478.748 109.2 478.548 108.88 478.548 108.68ZM498.111 121.08C498.351 122.32 498.791 123.4 500.791 123.4C502.311 123.4 503.751 122.72 504.591 121.92C504.511 121.44 504.351 121.08 503.911 120.84C503.631 121.08 502.951 121.48 502.431 121.48C501.271 121.48 501.231 119.92 501.231 118.08V112.2C501.231 106.52 498.111 105.44 495.191 105.44C491.911 105.44 488.591 107.6 488.591 109.88C488.591 110.84 489.071 111.32 489.991 111.32C491.151 111.32 491.871 110.48 491.871 109.96C491.871 109.68 491.831 109.4 491.751 109.24C491.711 109.12 491.671 108.88 491.671 108.44C491.671 107.2 493.351 106.76 494.871 106.76C496.231 106.76 498.111 107.44 498.111 111.96C498.111 112.24 497.991 112.4 497.871 112.44L494.431 113.28C490.591 114.24 487.831 116.36 487.831 119.08C487.831 122.36 490.071 123.4 492.871 123.4C494.271 123.4 495.471 123.08 497.231 121.72L498.031 121.08H498.111ZM498.111 113.68V118.96C498.111 119.48 497.871 119.76 497.551 120C496.511 120.84 495.151 121.76 494.031 121.76C492.031 121.76 491.151 120.16 491.151 118.92C491.151 117.12 491.991 115.28 494.951 114.52L498.111 113.68ZM510.912 108.28C510.872 107.08 510.792 106.04 510.592 105.64C510.512 105.44 510.432 105.32 510.112 105.32C508.992 105.76 507.952 106.12 505.192 106.48C505.112 106.72 505.192 107.36 505.272 107.6C507.432 107.8 507.872 108 507.872 110.32V127.4C507.872 130.72 507.432 130.92 504.992 131.04C504.752 131.28 504.752 132.12 504.992 132.36C506.392 132.32 507.872 132.28 509.472 132.28C511.072 132.28 512.992 132.32 514.312 132.36C514.552 132.12 514.552 131.28 514.312 131.04C511.472 130.88 511.032 130.72 511.032 127.4V123.08C511.032 122.56 511.192 122.6 511.592 122.76C512.592 123.16 513.792 123.4 515.072 123.4C517.312 123.4 519.312 122.72 520.952 121.16C522.832 119.32 523.912 116.84 523.912 113.6C523.912 109.36 520.912 105.44 516.832 105.44C514.992 105.44 512.952 106.64 511.352 108.44C511.112 108.68 510.952 108.68 510.912 108.28ZM511.672 109.76C512.712 108.48 514.552 107.28 515.712 107.28C518.272 107.28 520.472 110.16 520.472 114.68C520.472 117.96 519.312 122.04 514.832 122.04C514.112 122.04 512.712 121.84 511.992 121.2C511.192 120.48 511.032 120.24 511.032 118.8V111.52C511.032 110.68 511.192 110.32 511.672 109.76ZM532.094 111.56C532.094 110.72 532.454 110.24 532.774 109.88C534.294 108.4 536.334 107.52 537.894 107.52C538.694 107.52 539.534 108.04 540.014 108.96C540.414 109.76 540.494 110.84 540.494 112.04V118.12C540.494 121.4 540.094 121.56 538.014 121.76C537.814 122 537.814 122.84 538.014 123.08C539.134 123.04 540.494 123 542.094 123C543.694 123 545.014 123.04 546.334 123.08C546.534 122.84 546.534 122 546.334 121.76C544.094 121.56 543.654 121.4 543.654 118.12V112.16C543.654 109.96 543.494 108 542.574 106.8C541.894 105.92 540.654 105.44 539.254 105.44C537.294 105.44 534.894 105.96 532.454 108.68C532.454 108.72 532.414 108.72 532.374 108.76C532.254 108.92 532.054 109.16 532.054 108.68L532.094 99.68C532.094 97.08 532.254 95.48 532.254 95.48C532.254 95.2 532.094 95.08 531.734 95.08C530.734 95.48 527.734 96.04 526.134 96.16C526.054 96.48 526.134 97.12 526.374 97.36C526.494 97.36 526.614 97.36 526.734 97.36C528.494 97.48 528.934 97.48 528.934 100.64V118.12C528.934 121.44 528.454 121.6 526.134 121.76C525.894 122 525.894 122.84 526.134 123.08C527.454 123.04 528.934 123 530.534 123C532.054 123 533.374 123.04 534.494 123.08C534.734 122.84 534.734 122 534.494 121.76C532.454 121.6 532.094 121.44 532.094 118.12V111.56ZM548.858 117.48C549.018 119.44 549.138 121.32 549.138 123C549.538 122.92 549.938 122.88 550.138 122.88C550.418 122.88 550.658 122.88 550.938 122.96C552.018 123.24 553.098 123.4 554.578 123.4C556.818 123.4 560.938 122.32 560.938 118.36C560.938 115.64 558.978 114.04 556.258 113.04C553.858 112.12 552.258 111.52 552.258 109.32C552.258 107.68 553.698 106.76 555.058 106.76C555.938 106.76 558.258 107.08 558.778 110.48C559.018 110.72 559.818 110.68 560.058 110.44C560.178 109 560.258 107.52 560.298 106.2C559.058 106 557.138 105.44 555.058 105.44C552.098 105.44 549.418 107.36 549.418 109.92C549.418 112.84 550.738 114.08 553.818 115.36C557.138 116.72 557.898 117.56 557.898 119.28C557.898 121.24 555.978 122.08 554.498 122.08C552.938 122.08 552.058 121.56 551.658 121.12C550.778 120.2 550.338 118.44 550.098 117.44C549.858 117.2 549.098 117.24 548.858 117.48ZM581.203 123.4C582.763 123.4 584.643 122.6 586.603 121C586.803 120.84 587.163 120.76 587.203 121.04C587.323 122.04 587.643 123.4 587.643 123.4C587.963 123.52 588.163 123.48 588.403 123.4C589.283 122.68 590.683 122.08 593.123 121.8C593.363 121.56 593.363 120.96 593.123 120.72C590.563 120.52 590.203 119.76 590.203 117.8V110.12C590.203 108.92 590.363 106 590.363 106C590.363 105.88 590.243 105.76 590.043 105.76C589.843 105.8 589.243 105.84 588.643 105.84C587.363 105.84 585.923 105.8 584.563 105.76C584.323 106 584.323 106.84 584.563 107.08C586.523 107.2 587.043 107.68 587.043 110.32V118.04C587.043 118.8 586.963 119.12 586.403 119.6C584.923 120.88 583.403 121.52 582.403 121.52C581.203 121.52 579.203 120.96 579.203 117.4V110.12C579.203 108.92 579.363 106 579.363 106C579.363 105.88 579.243 105.76 579.043 105.76C578.843 105.8 578.243 105.84 577.643 105.84C576.363 105.84 574.923 105.8 573.563 105.76C573.323 106 573.323 106.84 573.563 107.08C575.483 107.24 576.043 107.68 576.043 110.28V117.96C576.043 120.72 577.243 123.4 581.203 123.4ZM595.693 117.48C595.853 119.44 595.973 121.32 595.973 123C596.373 122.92 596.773 122.88 596.973 122.88C597.253 122.88 597.493 122.88 597.773 122.96C598.853 123.24 599.933 123.4 601.413 123.4C603.653 123.4 607.773 122.32 607.773 118.36C607.773 115.64 605.813 114.04 603.093 113.04C600.693 112.12 599.093 111.52 599.093 109.32C599.093 107.68 600.533 106.76 601.893 106.76C602.773 106.76 605.093 107.08 605.613 110.48C605.853 110.72 606.653 110.68 606.893 110.44C607.013 109 607.093 107.52 607.133 106.2C605.893 106 603.973 105.44 601.893 105.44C598.933 105.44 596.253 107.36 596.253 109.92C596.253 112.84 597.573 114.08 600.653 115.36C603.973 116.72 604.733 117.56 604.733 119.28C604.733 121.24 602.813 122.08 601.333 122.08C599.773 122.08 598.893 121.56 598.493 121.12C597.613 120.2 597.173 118.44 596.933 117.44C596.693 117.2 595.933 117.24 595.693 117.48ZM616.599 118.12V110.16C616.599 108.16 616.759 105.6 616.759 105.6C616.759 105.44 616.559 105.32 616.239 105.32C615.119 105.76 613.519 106.12 610.759 106.48C610.679 106.72 610.759 107.36 610.839 107.6C613.039 107.8 613.439 108.04 613.439 110.32V118.12C613.439 121.44 612.999 121.56 610.559 121.76C610.319 122 610.319 122.84 610.559 123.08C611.879 123.04 613.439 123 615.039 123C616.639 123 618.159 123.04 619.479 123.08C619.719 122.84 619.719 122 619.479 121.76C617.039 121.6 616.599 121.44 616.599 118.12ZM612.959 99.04C612.959 100.08 613.919 101.12 614.879 101.12C615.999 101.12 616.959 100.04 616.959 99.2C616.959 98.24 616.119 97.12 615.039 97.12C614.079 97.12 612.959 98.08 612.959 99.04ZM627.579 108.68C627.339 108.96 627.099 109.04 627.099 108.68C627.059 107.6 626.979 106.04 626.779 105.64C626.699 105.44 626.619 105.32 626.299 105.32C625.179 105.76 624.139 106.12 621.379 106.48C621.299 106.72 621.379 107.36 621.459 107.6C623.619 107.8 624.059 108 624.059 110.32V118.12C624.059 121.4 623.659 121.56 621.259 121.76C621.019 122 621.019 122.84 621.259 123.08C622.459 123.04 624.059 123 625.659 123C627.259 123 628.459 123.04 629.659 123.08C629.899 122.84 629.899 122 629.659 121.76C627.619 121.56 627.219 121.4 627.219 118.12V111.56C627.219 110.72 627.579 110.24 627.899 109.88C629.419 108.4 631.219 107.52 632.779 107.52C633.579 107.52 634.419 108.04 634.899 108.96C635.299 109.76 635.379 110.84 635.379 112.04V118.12C635.379 121.4 634.979 121.56 632.899 121.76C632.699 122 632.699 122.84 632.899 123.08C634.099 123.04 635.379 123 636.979 123C638.579 123 640.019 123.04 641.219 123.08C641.419 122.84 641.419 122 641.219 121.76C638.979 121.56 638.539 121.4 638.539 118.12V112.16C638.539 109.96 638.379 108.04 637.459 106.8C636.779 105.92 635.539 105.44 634.139 105.44C632.179 105.44 629.939 105.96 627.579 108.68ZM659.658 107.52C660.418 107.52 661.138 106.8 661.138 106C661.138 105.16 660.378 104.52 659.298 104.52C658.258 104.52 656.338 105.2 655.298 106.56C654.818 106.24 653.498 105.44 651.138 105.44C647.578 105.44 644.298 107.84 644.298 111.52C644.298 113.68 645.258 114.92 646.378 116C645.258 116.96 644.618 118.68 644.618 120.04C644.618 121.48 645.418 122.6 646.458 123.12C644.298 124.4 643.178 126.24 643.178 127.96C643.178 131.44 646.458 132.52 649.538 132.52C654.938 132.52 660.778 129.92 660.778 125.6C660.778 124.32 660.178 123.32 659.018 122.36C657.458 121.08 654.658 121.04 653.178 121.04C652.458 121.04 651.458 121.12 650.498 121.24C649.898 121.28 649.498 121.32 649.298 121.32C648.138 121.32 646.738 120.76 646.738 119.04C646.738 118.24 646.978 117.4 647.458 116.72C648.418 117.28 649.538 117.56 651.098 117.56C654.618 117.56 657.858 115.36 657.858 111.44C657.858 109.56 657.298 108.48 656.138 107.28C656.418 106.88 657.218 106.32 657.738 106.32C658.018 106.32 658.298 106.44 658.538 106.8C658.698 107.12 659.218 107.52 659.658 107.52ZM647.178 123.4C647.618 123.52 648.258 123.6 648.778 123.6C650.018 123.6 651.138 123.48 651.698 123.48C653.698 123.48 655.378 123.52 656.538 124.16C658.098 125.04 658.578 125.6 658.578 126.64C658.578 129.52 654.338 131.04 650.738 131.04C649.298 131.04 645.938 129.88 645.938 127.16C645.938 125.8 646.018 124.8 647.178 123.4ZM654.658 111.84C654.658 115.56 652.778 116.32 651.298 116.32C647.938 116.32 647.578 113.48 647.578 110.92C647.578 108.12 648.578 106.68 650.778 106.68C653.298 106.68 654.658 108.52 654.658 111.84ZM683.618 121.08C683.858 122.32 684.298 123.4 686.298 123.4C687.818 123.4 689.258 122.72 690.098 121.92C690.018 121.44 689.858 121.08 689.418 120.84C689.138 121.08 688.458 121.48 687.938 121.48C686.778 121.48 686.738 119.92 686.738 118.08V112.2C686.738 106.52 683.618 105.44 680.698 105.44C677.418 105.44 674.098 107.6 674.098 109.88C674.098 110.84 674.578 111.32 675.498 111.32C676.658 111.32 677.378 110.48 677.378 109.96C677.378 109.68 677.338 109.4 677.258 109.24C677.218 109.12 677.178 108.88 677.178 108.44C677.178 107.2 678.858 106.76 680.378 106.76C681.738 106.76 683.618 107.44 683.618 111.96C683.618 112.24 683.498 112.4 683.378 112.44L679.938 113.28C676.098 114.24 673.338 116.36 673.338 119.08C673.338 122.36 675.578 123.4 678.378 123.4C679.778 123.4 680.978 123.08 682.738 121.72L683.538 121.08H683.618ZM683.618 113.68V118.96C683.618 119.48 683.378 119.76 683.058 120C682.018 120.84 680.658 121.76 679.538 121.76C677.538 121.76 676.658 120.16 676.658 118.92C676.658 117.12 677.498 115.28 680.458 114.52L683.618 113.68ZM706.98 108.68C706.94 107.48 706.86 106.04 706.66 105.64C706.58 105.44 706.5 105.32 706.18 105.32C705.06 105.76 704.02 106.12 701.26 106.48C701.18 106.72 701.26 107.36 701.34 107.6C703.5 107.8 703.94 108 703.94 110.32V118.12C703.94 121.4 703.42 121.6 701.22 121.76C700.98 122 700.98 122.84 701.22 123.08C702.42 123.04 703.94 123 705.54 123C707.14 123 708.38 123.04 709.58 123.08C709.82 122.84 709.82 122 709.58 121.76C707.54 121.56 707.1 121.4 707.1 118.12V111.56C707.1 110.72 707.46 110.24 707.78 109.88C709.38 108.32 710.86 107.52 712.1 107.52C713.62 107.52 714.74 108.48 714.74 111.16V118.12C714.74 121.4 714.42 121.6 712.26 121.76C712.06 122 712.06 122.84 712.26 123.08C713.26 123.04 714.74 123 716.34 123C717.94 123 719.26 123.04 720.26 123.08C720.46 122.84 720.46 122 720.26 121.76C718.26 121.6 717.9 121.4 717.9 118.12V111.76C717.9 111.2 717.9 110.64 717.86 110.16C719.78 108.04 721.58 107.52 723.14 107.52C724.66 107.52 725.54 108.4 725.54 111.08V118.12C725.54 121.4 725.14 121.6 723.06 121.76C722.86 122 722.86 122.84 723.06 123.08C724.06 123.04 725.54 123 727.14 123C728.74 123 730.14 123.04 731.26 123.08C731.46 122.84 731.46 122 731.26 121.76C729.06 121.6 728.7 121.4 728.7 118.12V111.8C728.7 108.24 728.1 105.44 724.58 105.44C722.54 105.44 720.06 106.2 717.98 108.4C717.86 108.52 717.62 108.72 717.54 108.36C717.18 106.72 715.62 105.44 713.54 105.44C711.22 105.44 709.14 106.8 707.46 108.68C707.26 108.88 707.02 109.16 706.98 108.68ZM733.421 114.8C733.421 118.88 736.141 123.4 741.821 123.4C744.381 123.4 746.341 122.48 747.701 121.16C749.501 119.4 750.301 116.88 750.301 114.44C750.301 110.28 748.021 105.44 741.901 105.44C739.261 105.44 737.101 106.52 735.621 108.24C734.181 109.96 733.421 112.28 733.421 114.8ZM741.301 106.84C744.741 106.84 746.861 109.96 746.861 115.72C746.861 120.76 744.261 122 742.381 122C738.221 122 736.861 116.96 736.861 113.88C736.861 110.4 737.701 106.84 741.301 106.84ZM759.298 108.68C759.058 108.96 758.818 109.04 758.818 108.68C758.778 107.6 758.698 106.04 758.498 105.64C758.418 105.44 758.338 105.32 758.018 105.32C756.898 105.76 755.858 106.12 753.098 106.48C753.018 106.72 753.098 107.36 753.178 107.6C755.338 107.8 755.778 108 755.778 110.32V118.12C755.778 121.4 755.378 121.56 752.978 121.76C752.738 122 752.738 122.84 752.978 123.08C754.178 123.04 755.778 123 757.378 123C758.978 123 760.178 123.04 761.378 123.08C761.618 122.84 761.618 122 761.378 121.76C759.338 121.56 758.938 121.4 758.938 118.12V111.56C758.938 110.72 759.298 110.24 759.618 109.88C761.138 108.4 762.938 107.52 764.498 107.52C765.298 107.52 766.138 108.04 766.618 108.96C767.018 109.76 767.098 110.84 767.098 112.04V118.12C767.098 121.4 766.698 121.56 764.618 121.76C764.418 122 764.418 122.84 764.618 123.08C765.818 123.04 767.098 123 768.698 123C770.298 123 771.738 123.04 772.938 123.08C773.138 122.84 773.138 122 772.938 121.76C770.698 121.56 770.258 121.4 770.258 118.12V112.16C770.258 109.96 770.098 108.04 769.178 106.8C768.498 105.92 767.258 105.44 765.858 105.44C763.898 105.44 761.658 105.96 759.298 108.68ZM785.337 121.08C785.577 122.32 786.017 123.4 788.017 123.4C789.537 123.4 790.977 122.72 791.817 121.92C791.737 121.44 791.577 121.08 791.137 120.84C790.857 121.08 790.177 121.48 789.657 121.48C788.497 121.48 788.457 119.92 788.457 118.08V112.2C788.457 106.52 785.337 105.44 782.417 105.44C779.137 105.44 775.817 107.6 775.817 109.88C775.817 110.84 776.297 111.32 777.217 111.32C778.377 111.32 779.097 110.48 779.097 109.96C779.097 109.68 779.057 109.4 778.977 109.24C778.937 109.12 778.897 108.88 778.897 108.44C778.897 107.2 780.577 106.76 782.097 106.76C783.457 106.76 785.337 107.44 785.337 111.96C785.337 112.24 785.217 112.4 785.097 112.44L781.657 113.28C777.817 114.24 775.057 116.36 775.057 119.08C775.057 122.36 777.297 123.4 780.097 123.4C781.497 123.4 782.697 123.08 784.457 121.72L785.257 121.08H785.337ZM785.337 113.68V118.96C785.337 119.48 785.097 119.76 784.777 120C783.737 120.84 782.377 121.76 781.257 121.76C779.257 121.76 778.377 120.16 778.377 118.92C778.377 117.12 779.217 115.28 782.177 114.52L785.337 113.68ZM805.258 121C805.458 120.84 805.818 120.76 805.858 121.04C805.978 122 806.298 123.4 806.298 123.4C806.618 123.52 806.818 123.48 807.058 123.4C807.938 122.68 809.338 122.08 811.778 121.8C812.018 121.56 812.018 120.96 811.778 120.72C809.218 120.52 808.858 119.76 808.858 117.8V99.68C808.858 97.08 809.018 95.48 809.018 95.48C809.018 95.2 808.858 95.08 808.498 95.08C807.498 95.48 804.498 96.04 802.898 96.16C802.818 96.48 802.898 97.12 803.138 97.36C803.258 97.36 803.378 97.36 803.498 97.36C805.258 97.48 805.698 97.48 805.698 100.64V105.76C805.698 106.04 805.618 106.12 805.338 106.12C805.178 106.12 803.538 105.44 802.218 105.44C799.578 105.44 797.818 106.32 796.218 107.84C794.498 109.56 793.458 111.92 793.458 114.88C793.458 119.8 795.938 123.4 800.258 123.4C801.818 123.4 803.298 122.6 805.258 121ZM805.698 118.04C805.698 118.8 805.618 119.12 805.058 119.6C803.578 120.88 802.298 121.52 801.298 121.52C799.138 121.52 796.898 119.16 796.898 114.16C796.898 111.28 797.458 109.68 798.058 108.84C799.298 106.96 800.978 106.84 801.778 106.84C803.218 106.84 804.218 107.36 805.018 108.28C805.578 108.92 805.698 109.2 805.698 110.44V118.04Z" fill="black"/>
<path id="This_places_existing_results_in_context,_and_invites_new_ones." d="M34 415.12V399.84C34 397.28 34.4 395.76 35.84 395.76H36.72C39.72 395.76 41.6 396.8 42.28 399.88C42.72 399.88 43.28 399.84 43.64 399.68C43.36 397.84 43.16 395.8 43.12 394C43.12 393.96 43.04 393.88 43 393.88C41.64 394 37.2 394.2 34.04 394.2H30.6C27.52 394.2 22.8 394 21.28 393.88C21.2 393.88 21.12 393.96 21.12 394C20.96 395.8 20.56 397.88 20.12 399.8C20.52 399.96 21 400 21.48 400C22.28 396.8 24.12 395.76 26.76 395.76H28.72C30.2 395.76 30.6 397.28 30.6 399.72V415.12C30.6 418.44 29.92 418.64 26.72 418.76C26.48 419 26.48 419.84 26.72 420.08C28.68 420.04 30.72 420 32.32 420C33.84 420 35.88 420.04 37.88 420.08C38.12 419.84 38.12 419 37.88 418.76C34.68 418.64 34 418.44 34 415.12ZM50.5472 408.56C50.5472 407.72 50.9072 407.24 51.2272 406.88C52.7472 405.4 54.7872 404.52 56.3472 404.52C57.1472 404.52 57.9872 405.04 58.4672 405.96C58.8672 406.76 58.9472 407.84 58.9472 409.04V415.12C58.9472 418.4 58.5472 418.56 56.4672 418.76C56.2672 419 56.2672 419.84 56.4672 420.08C57.5872 420.04 58.9472 420 60.5472 420C62.1472 420 63.4672 420.04 64.7872 420.08C64.9872 419.84 64.9872 419 64.7872 418.76C62.5472 418.56 62.1072 418.4 62.1072 415.12V409.16C62.1072 406.96 61.9472 405 61.0272 403.8C60.3472 402.92 59.1072 402.44 57.7072 402.44C55.7472 402.44 53.3472 402.96 50.9072 405.68C50.9072 405.72 50.8672 405.72 50.8272 405.76C50.7072 405.92 50.5072 406.16 50.5072 405.68L50.5472 396.68C50.5472 394.08 50.7072 392.48 50.7072 392.48C50.7072 392.2 50.5472 392.08 50.1872 392.08C49.1872 392.48 46.1872 393.04 44.5872 393.16C44.5072 393.48 44.5872 394.12 44.8272 394.36C44.9472 394.36 45.0672 394.36 45.1872 394.36C46.9472 394.48 47.3872 394.48 47.3872 397.64V415.12C47.3872 418.44 46.9072 418.6 44.5872 418.76C44.3472 419 44.3472 419.84 44.5872 420.08C45.9072 420.04 47.3872 420 48.9872 420C50.5072 420 51.8272 420.04 52.9472 420.08C53.1872 419.84 53.1872 419 52.9472 418.76C50.9072 418.6 50.5472 418.44 50.5472 415.12V408.56ZM72.6306 415.12V407.16C72.6306 405.16 72.7906 402.6 72.7906 402.6C72.7906 402.44 72.5906 402.32 72.2706 402.32C71.1506 402.76 69.5506 403.12 66.7906 403.48C66.7106 403.72 66.7906 404.36 66.8706 404.6C69.0706 404.8 69.4706 405.04 69.4706 407.32V415.12C69.4706 418.44 69.0306 418.56 66.5906 418.76C66.3506 419 66.3506 419.84 66.5906 420.08C67.9106 420.04 69.4706 420 71.0706 420C72.6706 420 74.1906 420.04 75.5106 420.08C75.7506 419.84 75.7506 419 75.5106 418.76C73.0706 418.6 72.6306 418.44 72.6306 415.12ZM68.9906 396.04C68.9906 397.08 69.9506 398.12 70.9106 398.12C72.0306 398.12 72.9906 397.04 72.9906 396.2C72.9906 395.24 72.1506 394.12 71.0706 394.12C70.1106 394.12 68.9906 395.08 68.9906 396.04ZM78.17 414.48C78.33 416.44 78.45 418.32 78.45 420C78.85 419.92 79.25 419.88 79.45 419.88C79.73 419.88 79.97 419.88 80.25 419.96C81.33 420.24 82.41 420.4 83.89 420.4C86.13 420.4 90.25 419.32 90.25 415.36C90.25 412.64 88.29 411.04 85.57 410.04C83.17 409.12 81.57 408.52 81.57 406.32C81.57 404.68 83.01 403.76 84.37 403.76C85.25 403.76 87.57 404.08 88.09 407.48C88.33 407.72 89.13 407.68 89.37 407.44C89.49 406 89.57 404.52 89.61 403.2C88.37 403 86.45 402.44 84.37 402.44C81.41 402.44 78.73 404.36 78.73 406.92C78.73 409.84 80.05 411.08 83.13 412.36C86.45 413.72 87.21 414.56 87.21 416.28C87.21 418.24 85.29 419.08 83.81 419.08C82.25 419.08 81.37 418.56 80.97 418.12C80.09 417.2 79.65 415.44 79.41 414.44C79.17 414.2 78.41 414.24 78.17 414.48ZM108.076 405.28C108.036 404.08 107.956 403.04 107.756 402.64C107.676 402.44 107.596 402.32 107.276 402.32C106.156 402.76 105.116 403.12 102.356 403.48C102.276 403.72 102.356 404.36 102.436 404.6C104.596 404.8 105.036 405 105.036 407.32V424.4C105.036 427.72 104.596 427.92 102.156 428.04C101.916 428.28 101.916 429.12 102.156 429.36C103.556 429.32 105.036 429.28 106.636 429.28C108.236 429.28 110.156 429.32 111.476 429.36C111.716 429.12 111.716 428.28 111.476 428.04C108.636 427.88 108.196 427.72 108.196 424.4V420.08C108.196 419.56 108.356 419.6 108.756 419.76C109.756 420.16 110.956 420.4 112.236 420.4C114.476 420.4 116.476 419.72 118.116 418.16C119.996 416.32 121.076 413.84 121.076 410.6C121.076 406.36 118.076 402.44 113.996 402.44C112.156 402.44 110.116 403.64 108.516 405.44C108.276 405.68 108.116 405.68 108.076 405.28ZM108.836 406.76C109.876 405.48 111.716 404.28 112.876 404.28C115.436 404.28 117.636 407.16 117.636 411.68C117.636 414.96 116.476 419.04 111.996 419.04C111.276 419.04 109.876 418.84 109.156 418.2C108.356 417.48 108.196 417.24 108.196 415.8V408.52C108.196 407.68 108.356 407.32 108.836 406.76ZM126.378 415.12C126.378 418.44 125.938 418.64 123.498 418.76C123.258 419 123.258 419.84 123.498 420.08C124.898 420.04 126.378 420 127.978 420C129.578 420 131.098 420.04 132.418 420.08C132.658 419.84 132.658 419 132.418 418.76C129.978 418.64 129.538 418.44 129.538 415.12V396.68C129.538 394.08 129.698 392.48 129.698 392.48C129.698 392.2 129.538 392.08 129.178 392.08C128.178 392.48 125.178 393.04 123.578 393.16C123.498 393.48 123.578 394.12 123.818 394.36C126.138 394.52 126.378 394.64 126.378 397.64V415.12ZM144.845 418.08C145.085 419.32 145.525 420.4 147.525 420.4C149.045 420.4 150.485 419.72 151.325 418.92C151.245 418.44 151.085 418.08 150.645 417.84C150.365 418.08 149.685 418.48 149.165 418.48C148.005 418.48 147.965 416.92 147.965 415.08V409.2C147.965 403.52 144.845 402.44 141.925 402.44C138.645 402.44 135.325 404.6 135.325 406.88C135.325 407.84 135.805 408.32 136.725 408.32C137.885 408.32 138.605 407.48 138.605 406.96C138.605 406.68 138.565 406.4 138.485 406.24C138.445 406.12 138.405 405.88 138.405 405.44C138.405 404.2 140.085 403.76 141.605 403.76C142.965 403.76 144.845 404.44 144.845 408.96C144.845 409.24 144.725 409.4 144.605 409.44L141.165 410.28C137.325 411.24 134.565 413.36 134.565 416.08C134.565 419.36 136.805 420.4 139.605 420.4C141.005 420.4 142.205 420.08 143.965 418.72L144.765 418.08H144.845ZM144.845 410.68V415.96C144.845 416.48 144.605 416.76 144.285 417C143.245 417.84 141.885 418.76 140.765 418.76C138.765 418.76 137.885 417.16 137.885 415.92C137.885 414.12 138.725 412.28 141.685 411.52L144.845 410.68ZM167.326 416.36C167.166 416 166.846 415.84 166.486 415.8C165.126 417.56 163.406 418.44 161.686 418.44C158.766 418.44 156.326 415.48 156.326 410.8C156.326 406.4 158.246 403.76 160.886 403.76C163.246 403.76 163.566 405.16 163.726 406.56C163.846 407.64 164.406 408 165.246 408C166.086 408 167.206 407.48 167.206 406.24C167.206 404.04 164.926 402.44 161.086 402.44C157.126 402.44 152.886 406 152.886 411.68C152.886 416.84 155.766 420.4 160.806 420.4C163.206 420.4 165.326 419.64 167.326 416.36ZM183.956 416.28C182.476 417.8 181.316 418.44 178.996 418.44C177.556 418.44 175.876 417.6 174.636 415.56C173.836 414.24 173.356 412.4 173.356 410.08L183.996 410.16C184.476 410.16 184.756 409.92 184.756 409.48C184.756 406.12 183.556 402.52 177.996 402.52C174.516 402.52 169.996 405.84 169.996 411.92C169.996 414.16 170.556 416.32 171.876 417.84C173.236 419.44 175.116 420.4 177.996 420.4C181.036 420.4 183.196 419 184.796 416.92C184.676 416.52 184.436 416.32 183.956 416.28ZM173.476 408.72C174.236 404.2 177.036 403.84 177.996 403.84C179.516 403.84 181.316 404.68 181.316 408.04C181.316 408.4 181.156 408.6 180.716 408.6L173.476 408.72ZM188.326 414.48C188.486 416.44 188.606 418.32 188.606 420C189.006 419.92 189.406 419.88 189.606 419.88C189.886 419.88 190.126 419.88 190.406 419.96C191.486 420.24 192.566 420.4 194.046 420.4C196.286 420.4 200.406 419.32 200.406 415.36C200.406 412.64 198.446 411.04 195.726 410.04C193.326 409.12 191.726 408.52 191.726 406.32C191.726 404.68 193.166 403.76 194.526 403.76C195.406 403.76 197.726 404.08 198.246 407.48C198.486 407.72 199.286 407.68 199.526 407.44C199.646 406 199.726 404.52 199.766 403.2C198.526 403 196.606 402.44 194.526 402.44C191.566 402.44 188.886 404.36 188.886 406.92C188.886 409.84 190.206 411.08 193.286 412.36C196.606 413.72 197.366 414.56 197.366 416.28C197.366 418.24 195.446 419.08 193.966 419.08C192.406 419.08 191.526 418.56 191.126 418.12C190.246 417.2 189.806 415.44 189.566 414.44C189.326 414.2 188.566 414.24 188.326 414.48ZM227.432 416.28C225.952 417.8 224.792 418.44 222.472 418.44C221.032 418.44 219.352 417.6 218.112 415.56C217.312 414.24 216.832 412.4 216.832 410.08L227.472 410.16C227.952 410.16 228.232 409.92 228.232 409.48C228.232 406.12 227.032 402.52 221.472 402.52C217.992 402.52 213.472 405.84 213.472 411.92C213.472 414.16 214.032 416.32 215.352 417.84C216.712 419.44 218.592 420.4 221.472 420.4C224.512 420.4 226.672 419 228.272 416.92C228.152 416.52 227.912 416.32 227.432 416.28ZM216.952 408.72C217.712 404.2 220.512 403.84 221.472 403.84C222.992 403.84 224.792 404.68 224.792 408.04C224.792 408.4 224.632 408.6 224.192 408.6L216.952 408.72ZM236.889 405.68C235.969 404.32 236.249 404.28 238.049 404.08C238.289 403.84 238.289 403 238.049 402.76C236.969 402.8 235.209 402.84 234.009 402.84C232.809 402.84 231.609 402.8 230.569 402.76C230.329 403 230.329 403.84 230.569 404.08C231.929 404.2 233.049 404.88 234.169 406.52L237.649 411.6C237.849 411.88 237.849 412 237.689 412.2L234.329 416.52C232.729 418.56 231.849 418.68 230.449 418.76C230.209 419 230.209 419.84 230.449 420.08C231.249 420.04 232.129 420 233.329 420C234.529 420 235.649 420.04 236.689 420.08C236.929 419.84 236.929 419 236.689 418.76C235.249 418.6 234.929 418.44 235.809 417.16L238.329 413.52C238.649 413.04 238.809 413.08 239.049 413.44L241.369 416.64C242.769 418.56 242.129 418.64 240.849 418.76C240.609 419 240.609 419.84 240.849 420.08C242.049 420.04 243.369 420 244.809 420C246.329 420 247.409 420.04 248.369 420.08C248.609 419.84 248.609 419 248.369 418.76C246.569 418.64 245.969 418.52 244.369 416.24L240.769 411.16C240.609 410.92 240.569 410.8 240.769 410.56L244.129 406.28C245.609 404.4 246.569 404.2 248.009 404.08C248.249 403.84 248.249 403 248.009 402.76C247.209 402.8 246.289 402.84 245.089 402.84C243.889 402.84 242.769 402.8 241.729 402.76C241.489 403 241.489 403.84 241.729 404.08C243.209 404.24 243.649 404.36 242.689 405.72L240.089 409.36C239.809 409.76 239.649 409.72 239.329 409.28L236.889 405.68ZM256.459 415.12V407.16C256.459 405.16 256.619 402.6 256.619 402.6C256.619 402.44 256.419 402.32 256.099 402.32C254.979 402.76 253.379 403.12 250.619 403.48C250.539 403.72 250.619 404.36 250.699 404.6C252.899 404.8 253.299 405.04 253.299 407.32V415.12C253.299 418.44 252.859 418.56 250.419 418.76C250.179 419 250.179 419.84 250.419 420.08C251.739 420.04 253.299 420 254.899 420C256.499 420 258.019 420.04 259.339 420.08C259.579 419.84 259.579 419 259.339 418.76C256.899 418.6 256.459 418.44 256.459 415.12ZM252.819 396.04C252.819 397.08 253.779 398.12 254.739 398.12C255.859 398.12 256.819 397.04 256.819 396.2C256.819 395.24 255.979 394.12 254.899 394.12C253.939 394.12 252.819 395.08 252.819 396.04ZM261.998 414.48C262.158 416.44 262.278 418.32 262.278 420C262.678 419.92 263.078 419.88 263.278 419.88C263.558 419.88 263.798 419.88 264.078 419.96C265.158 420.24 266.238 420.4 267.718 420.4C269.958 420.4 274.078 419.32 274.078 415.36C274.078 412.64 272.118 411.04 269.398 410.04C266.998 409.12 265.398 408.52 265.398 406.32C265.398 404.68 266.838 403.76 268.198 403.76C269.078 403.76 271.398 404.08 271.918 407.48C272.158 407.72 272.958 407.68 273.198 407.44C273.318 406 273.398 404.52 273.438 403.2C272.198 403 270.278 402.44 268.198 402.44C265.238 402.44 262.558 404.36 262.558 406.92C262.558 409.84 263.878 411.08 266.958 412.36C270.278 413.72 271.038 414.56 271.038 416.28C271.038 418.24 269.118 419.08 267.638 419.08C266.078 419.08 265.198 418.56 264.798 418.12C263.918 417.2 263.478 415.44 263.238 414.44C262.998 414.2 262.238 414.24 261.998 414.48ZM277.384 402.84C276.824 402.84 276.664 403.32 276.664 403.64V404.16C276.664 404.36 276.704 404.4 276.864 404.4H279.224V416.44C279.224 419.28 280.464 420.4 282.304 420.4C284.144 420.4 286.144 419.52 287.704 417.76C287.624 417.36 287.384 417.12 286.984 417.08C285.944 417.88 284.744 418.2 283.704 418.2C282.624 418.2 282.384 417 282.384 414.52V404.4H286.544C286.944 404.4 287.504 404.24 287.504 403.88V403.08C287.504 402.92 287.384 402.84 287.184 402.84H282.384V401.28C282.384 398.68 282.544 397.08 282.544 397.08C282.544 396.84 282.424 396.72 282.224 396.72C282.064 396.72 281.704 396.88 281.344 397.08C280.904 397.32 280.504 397.52 279.984 397.64C279.504 397.8 279.104 397.92 279.104 398.2C279.104 398.68 279.224 398.4 279.224 402.84H277.384ZM295.56 415.12V407.16C295.56 405.16 295.72 402.6 295.72 402.6C295.72 402.44 295.52 402.32 295.2 402.32C294.08 402.76 292.48 403.12 289.72 403.48C289.64 403.72 289.72 404.36 289.8 404.6C292 404.8 292.4 405.04 292.4 407.32V415.12C292.4 418.44 291.96 418.56 289.52 418.76C289.28 419 289.28 419.84 289.52 420.08C290.84 420.04 292.4 420 294 420C295.6 420 297.12 420.04 298.44 420.08C298.68 419.84 298.68 419 298.44 418.76C296 418.6 295.56 418.44 295.56 415.12ZM291.92 396.04C291.92 397.08 292.88 398.12 293.84 398.12C294.96 398.12 295.92 397.04 295.92 396.2C295.92 395.24 295.08 394.12 294 394.12C293.04 394.12 291.92 395.08 291.92 396.04ZM306.54 405.68C306.3 405.96 306.06 406.04 306.06 405.68C306.02 404.6 305.94 403.04 305.74 402.64C305.66 402.44 305.58 402.32 305.26 402.32C304.14 402.76 303.1 403.12 300.34 403.48C300.26 403.72 300.34 404.36 300.42 404.6C302.58 404.8 303.02 405 303.02 407.32V415.12C303.02 418.4 302.62 418.56 300.22 418.76C299.98 419 299.98 419.84 300.22 420.08C301.42 420.04 303.02 420 304.62 420C306.22 420 307.42 420.04 308.62 420.08C308.86 419.84 308.86 419 308.62 418.76C306.58 418.56 306.18 418.4 306.18 415.12V408.56C306.18 407.72 306.54 407.24 306.86 406.88C308.38 405.4 310.18 404.52 311.74 404.52C312.54 404.52 313.38 405.04 313.86 405.96C314.26 406.76 314.34 407.84 314.34 409.04V415.12C314.34 418.4 313.94 418.56 311.86 418.76C311.66 419 311.66 419.84 311.86 420.08C313.06 420.04 314.34 420 315.94 420C317.54 420 318.98 420.04 320.18 420.08C320.38 419.84 320.38 419 320.18 418.76C317.94 418.56 317.5 418.4 317.5 415.12V409.16C317.5 406.96 317.34 405.04 316.42 403.8C315.74 402.92 314.5 402.44 313.1 402.44C311.14 402.44 308.9 402.96 306.54 405.68ZM338.619 404.52C339.379 404.52 340.099 403.8 340.099 403C340.099 402.16 339.339 401.52 338.259 401.52C337.219 401.52 335.299 402.2 334.259 403.56C333.779 403.24 332.459 402.44 330.099 402.44C326.539 402.44 323.259 404.84 323.259 408.52C323.259 410.68 324.219 411.92 325.339 413C324.219 413.96 323.579 415.68 323.579 417.04C323.579 418.48 324.379 419.6 325.419 420.12C323.259 421.4 322.139 423.24 322.139 424.96C322.139 428.44 325.419 429.52 328.499 429.52C333.899 429.52 339.739 426.92 339.739 422.6C339.739 421.32 339.139 420.32 337.979 419.36C336.419 418.08 333.619 418.04 332.139 418.04C331.419 418.04 330.419 418.12 329.459 418.24C328.859 418.28 328.459 418.32 328.259 418.32C327.099 418.32 325.699 417.76 325.699 416.04C325.699 415.24 325.939 414.4 326.419 413.72C327.379 414.28 328.499 414.56 330.059 414.56C333.579 414.56 336.819 412.36 336.819 408.44C336.819 406.56 336.259 405.48 335.099 404.28C335.379 403.88 336.179 403.32 336.699 403.32C336.979 403.32 337.259 403.44 337.499 403.8C337.659 404.12 338.179 404.52 338.619 404.52ZM326.139 420.4C326.579 420.52 327.219 420.6 327.739 420.6C328.979 420.6 330.099 420.48 330.659 420.48C332.659 420.48 334.339 420.52 335.499 421.16C337.059 422.04 337.539 422.6 337.539 423.64C337.539 426.52 333.299 428.04 329.699 428.04C328.259 428.04 324.899 426.88 324.899 424.16C324.899 422.8 324.979 421.8 326.139 420.4ZM333.619 408.84C333.619 412.56 331.739 413.32 330.259 413.32C326.899 413.32 326.539 410.48 326.539 407.92C326.539 405.12 327.539 403.68 329.739 403.68C332.259 403.68 333.619 405.52 333.619 408.84ZM357.899 405.68C357.819 404.08 357.779 403.04 357.579 402.64C357.499 402.44 357.419 402.32 357.099 402.32C355.979 402.76 354.939 403.12 352.179 403.48C352.099 403.72 352.179 404.36 352.259 404.6C354.419 404.8 354.859 405 354.859 407.32V415.12C354.859 418.44 354.379 418.6 351.899 418.76C351.659 419 351.659 419.84 351.899 420.08C353.299 420.04 354.859 420 356.459 420C358.059 420 359.899 420.04 361.299 420.08C361.539 419.84 361.539 419 361.299 418.76C358.499 418.56 358.019 418.44 358.019 415.12V409.56C358.019 408.52 358.499 407.6 358.979 406.88C359.419 406.24 360.339 404.92 360.819 404.92C361.179 404.92 361.539 405 361.859 405.44C362.139 405.84 362.619 406.36 363.299 406.36C364.259 406.36 365.179 405.36 365.179 404.36C365.179 403.6 364.459 402.44 362.779 402.44C360.899 402.44 359.259 404.2 358.339 405.76C358.099 406.2 357.899 405.88 357.899 405.68ZM380.87 416.28C379.39 417.8 378.23 418.44 375.91 418.44C374.47 418.44 372.79 417.6 371.55 415.56C370.75 414.24 370.27 412.4 370.27 410.08L380.91 410.16C381.39 410.16 381.67 409.92 381.67 409.48C381.67 406.12 380.47 402.52 374.91 402.52C371.43 402.52 366.91 405.84 366.91 411.92C366.91 414.16 367.47 416.32 368.79 417.84C370.15 419.44 372.03 420.4 374.91 420.4C377.95 420.4 380.11 419 381.71 416.92C381.59 416.52 381.35 416.32 380.87 416.28ZM370.39 408.72C371.15 404.2 373.95 403.84 374.91 403.84C376.43 403.84 378.23 404.68 378.23 408.04C378.23 408.4 378.07 408.6 377.63 408.6L370.39 408.72ZM385.24 414.48C385.4 416.44 385.52 418.32 385.52 420C385.92 419.92 386.32 419.88 386.52 419.88C386.8 419.88 387.04 419.88 387.32 419.96C388.4 420.24 389.48 420.4 390.96 420.4C393.2 420.4 397.32 419.32 397.32 415.36C397.32 412.64 395.36 411.04 392.64 410.04C390.24 409.12 388.64 408.52 388.64 406.32C388.64 404.68 390.08 403.76 391.44 403.76C392.32 403.76 394.64 404.08 395.16 407.48C395.4 407.72 396.2 407.68 396.44 407.44C396.56 406 396.64 404.52 396.68 403.2C395.44 403 393.52 402.44 391.44 402.44C388.48 402.44 385.8 404.36 385.8 406.92C385.8 409.84 387.12 411.08 390.2 412.36C393.52 413.72 394.28 414.56 394.28 416.28C394.28 418.24 392.36 419.08 390.88 419.08C389.32 419.08 388.44 418.56 388.04 418.12C387.16 417.2 386.72 415.44 386.48 414.44C386.24 414.2 385.48 414.24 385.24 414.48ZM407.586 420.4C409.146 420.4 411.026 419.6 412.986 418C413.186 417.84 413.546 417.76 413.586 418.04C413.706 419.04 414.026 420.4 414.026 420.4C414.346 420.52 414.546 420.48 414.786 420.4C415.666 419.68 417.066 419.08 419.506 418.8C419.746 418.56 419.746 417.96 419.506 417.72C416.946 417.52 416.586 416.76 416.586 414.8V407.12C416.586 405.92 416.746 403 416.746 403C416.746 402.88 416.626 402.76 416.426 402.76C416.226 402.8 415.626 402.84 415.026 402.84C413.746 402.84 412.306 402.8 410.946 402.76C410.706 403 410.706 403.84 410.946 404.08C412.906 404.2 413.426 404.68 413.426 407.32V415.04C413.426 415.8 413.346 416.12 412.786 416.6C411.306 417.88 409.786 418.52 408.786 418.52C407.586 418.52 405.586 417.96 405.586 414.4V407.12C405.586 405.92 405.746 403 405.746 403C405.746 402.88 405.626 402.76 405.426 402.76C405.226 402.8 404.626 402.84 404.026 402.84C402.746 402.84 401.306 402.8 399.946 402.76C399.706 403 399.706 403.84 399.946 404.08C401.866 404.24 402.426 404.68 402.426 407.28V414.96C402.426 417.72 403.626 420.4 407.586 420.4ZM423.956 415.12C423.956 418.44 423.516 418.64 421.076 418.76C420.836 419 420.836 419.84 421.076 420.08C422.476 420.04 423.956 420 425.556 420C427.156 420 428.676 420.04 429.996 420.08C430.236 419.84 430.236 419 429.996 418.76C427.556 418.64 427.116 418.44 427.116 415.12V396.68C427.116 394.08 427.276 392.48 427.276 392.48C427.276 392.2 427.116 392.08 426.756 392.08C425.756 392.48 422.756 393.04 421.156 393.16C421.076 393.48 421.156 394.12 421.396 394.36C423.716 394.52 423.956 394.64 423.956 397.64V415.12ZM432.423 402.84C431.863 402.84 431.703 403.32 431.703 403.64V404.16C431.703 404.36 431.743 404.4 431.903 404.4H434.263V416.44C434.263 419.28 435.503 420.4 437.343 420.4C439.183 420.4 441.183 419.52 442.743 417.76C442.663 417.36 442.423 417.12 442.023 417.08C440.983 417.88 439.783 418.2 438.743 418.2C437.663 418.2 437.423 417 437.423 414.52V404.4H441.583C441.983 404.4 442.543 404.24 442.543 403.88V403.08C442.543 402.92 442.423 402.84 442.223 402.84H437.423V401.28C437.423 398.68 437.583 397.08 437.583 397.08C437.583 396.84 437.463 396.72 437.263 396.72C437.103 396.72 436.743 396.88 436.383 397.08C435.943 397.32 435.543 397.52 435.023 397.64C434.543 397.8 434.143 397.92 434.143 398.2C434.143 398.68 434.263 398.4 434.263 402.84H432.423ZM445.279 414.48C445.439 416.44 445.559 418.32 445.559 420C445.959 419.92 446.359 419.88 446.559 419.88C446.839 419.88 447.079 419.88 447.359 419.96C448.439 420.24 449.519 420.4 450.999 420.4C453.239 420.4 457.359 419.32 457.359 415.36C457.359 412.64 455.399 411.04 452.679 410.04C450.279 409.12 448.679 408.52 448.679 406.32C448.679 404.68 450.119 403.76 451.479 403.76C452.359 403.76 454.679 404.08 455.199 407.48C455.439 407.72 456.239 407.68 456.479 407.44C456.599 406 456.679 404.52 456.719 403.2C455.479 403 453.559 402.44 451.479 402.44C448.519 402.44 445.839 404.36 445.839 406.92C445.839 409.84 447.159 411.08 450.239 412.36C453.559 413.72 454.319 414.56 454.319 416.28C454.319 418.24 452.399 419.08 450.919 419.08C449.359 419.08 448.479 418.56 448.079 418.12C447.199 417.2 446.759 415.44 446.519 414.44C446.279 414.2 445.519 414.24 445.279 414.48ZM476.185 415.12V407.16C476.185 405.16 476.345 402.6 476.345 402.6C476.345 402.44 476.145 402.32 475.825 402.32C474.705 402.76 473.105 403.12 470.345 403.48C470.265 403.72 470.345 404.36 470.425 404.6C472.625 404.8 473.025 405.04 473.025 407.32V415.12C473.025 418.44 472.585 418.56 470.145 418.76C469.905 419 469.905 419.84 470.145 420.08C471.465 420.04 473.025 420 474.625 420C476.225 420 477.745 420.04 479.065 420.08C479.305 419.84 479.305 419 479.065 418.76C476.625 418.6 476.185 418.44 476.185 415.12ZM472.545 396.04C472.545 397.08 473.505 398.12 474.465 398.12C475.585 398.12 476.545 397.04 476.545 396.2C476.545 395.24 475.705 394.12 474.625 394.12C473.665 394.12 472.545 395.08 472.545 396.04ZM487.165 405.68C486.925 405.96 486.685 406.04 486.685 405.68C486.645 404.6 486.565 403.04 486.365 402.64C486.285 402.44 486.205 402.32 485.885 402.32C484.765 402.76 483.725 403.12 480.965 403.48C480.885 403.72 480.965 404.36 481.045 404.6C483.205 404.8 483.645 405 483.645 407.32V415.12C483.645 418.4 483.245 418.56 480.845 418.76C480.605 419 480.605 419.84 480.845 420.08C482.045 420.04 483.645 420 485.245 420C486.845 420 488.045 420.04 489.245 420.08C489.485 419.84 489.485 419 489.245 418.76C487.205 418.56 486.805 418.4 486.805 415.12V408.56C486.805 407.72 487.165 407.24 487.485 406.88C489.005 405.4 490.805 404.52 492.365 404.52C493.165 404.52 494.005 405.04 494.485 405.96C494.885 406.76 494.965 407.84 494.965 409.04V415.12C494.965 418.4 494.565 418.56 492.485 418.76C492.285 419 492.285 419.84 492.485 420.08C493.685 420.04 494.965 420 496.565 420C498.165 420 499.605 420.04 500.805 420.08C501.005 419.84 501.005 419 500.805 418.76C498.565 418.56 498.125 418.4 498.125 415.12V409.16C498.125 406.96 497.965 405.04 497.045 403.8C496.365 402.92 495.125 402.44 493.725 402.44C491.765 402.44 489.525 402.96 487.165 405.68ZM527.404 416.36C527.244 416 526.924 415.84 526.564 415.8C525.204 417.56 523.484 418.44 521.764 418.44C518.844 418.44 516.404 415.48 516.404 410.8C516.404 406.4 518.324 403.76 520.964 403.76C523.324 403.76 523.644 405.16 523.804 406.56C523.924 407.64 524.484 408 525.324 408C526.164 408 527.284 407.48 527.284 406.24C527.284 404.04 525.004 402.44 521.164 402.44C517.204 402.44 512.964 406 512.964 411.68C512.964 416.84 515.844 420.4 520.884 420.4C523.284 420.4 525.404 419.64 527.404 416.36ZM530.234 411.8C530.234 415.88 532.954 420.4 538.634 420.4C541.194 420.4 543.154 419.48 544.514 418.16C546.314 416.4 547.114 413.88 547.114 411.44C547.114 407.28 544.834 402.44 538.714 402.44C536.074 402.44 533.914 403.52 532.434 405.24C530.994 406.96 530.234 409.28 530.234 411.8ZM538.114 403.84C541.554 403.84 543.674 406.96 543.674 412.72C543.674 417.76 541.074 419 539.194 419C535.034 419 533.674 413.96 533.674 410.88C533.674 407.4 534.514 403.84 538.114 403.84ZM556.11 405.68C555.87 405.96 555.63 406.04 555.63 405.68C555.59 404.6 555.51 403.04 555.31 402.64C555.23 402.44 555.15 402.32 554.83 402.32C553.71 402.76 552.67 403.12 549.91 403.48C549.83 403.72 549.91 404.36 549.99 404.6C552.15 404.8 552.59 405 552.59 407.32V415.12C552.59 418.4 552.19 418.56 549.79 418.76C549.55 419 549.55 419.84 549.79 420.08C550.99 420.04 552.59 420 554.19 420C555.79 420 556.99 420.04 558.19 420.08C558.43 419.84 558.43 419 558.19 418.76C556.15 418.56 555.75 418.4 555.75 415.12V408.56C555.75 407.72 556.11 407.24 556.43 406.88C557.95 405.4 559.75 404.52 561.31 404.52C562.11 404.52 562.95 405.04 563.43 405.96C563.83 406.76 563.91 407.84 563.91 409.04V415.12C563.91 418.4 563.51 418.56 561.43 418.76C561.23 419 561.23 419.84 561.43 420.08C562.63 420.04 563.91 420 565.51 420C567.11 420 568.55 420.04 569.75 420.08C569.95 419.84 569.95 419 569.75 418.76C567.51 418.56 567.07 418.4 567.07 415.12V409.16C567.07 406.96 566.91 405.04 565.99 403.8C565.31 402.92 564.07 402.44 562.67 402.44C560.71 402.44 558.47 402.96 556.11 405.68ZM572.15 402.84C571.59 402.84 571.43 403.32 571.43 403.64V404.16C571.43 404.36 571.47 404.4 571.63 404.4H573.99V416.44C573.99 419.28 575.23 420.4 577.07 420.4C578.91 420.4 580.91 419.52 582.47 417.76C582.39 417.36 582.15 417.12 581.75 417.08C580.71 417.88 579.51 418.2 578.47 418.2C577.39 418.2 577.15 417 577.15 414.52V404.4H581.31C581.71 404.4 582.27 404.24 582.27 403.88V403.08C582.27 402.92 582.15 402.84 581.95 402.84H577.15V401.28C577.15 398.68 577.31 397.08 577.31 397.08C577.31 396.84 577.19 396.72 576.99 396.72C576.83 396.72 576.47 396.88 576.11 397.08C575.67 397.32 575.27 397.52 574.75 397.64C574.27 397.8 573.87 397.92 573.87 398.2C573.87 398.68 573.99 398.4 573.99 402.84H572.15ZM598.526 416.28C597.046 417.8 595.886 418.44 593.566 418.44C592.126 418.44 590.446 417.6 589.206 415.56C588.406 414.24 587.926 412.4 587.926 410.08L598.566 410.16C599.046 410.16 599.326 409.92 599.326 409.48C599.326 406.12 598.126 402.52 592.566 402.52C589.086 402.52 584.566 405.84 584.566 411.92C584.566 414.16 585.126 416.32 586.446 417.84C587.806 419.44 589.686 420.4 592.566 420.4C595.606 420.4 597.766 419 599.366 416.92C599.246 416.52 599.006 416.32 598.526 416.28ZM588.046 408.72C588.806 404.2 591.606 403.84 592.566 403.84C594.086 403.84 595.886 404.68 595.886 408.04C595.886 408.4 595.726 408.6 595.286 408.6L588.046 408.72ZM607.983 405.68C607.063 404.32 607.343 404.28 609.143 404.08C609.383 403.84 609.383 403 609.143 402.76C608.063 402.8 606.303 402.84 605.103 402.84C603.903 402.84 602.703 402.8 601.663 402.76C601.423 403 601.423 403.84 601.663 404.08C603.023 404.2 604.143 404.88 605.263 406.52L608.743 411.6C608.943 411.88 608.943 412 608.783 412.2L605.423 416.52C603.823 418.56 602.943 418.68 601.543 418.76C601.303 419 601.303 419.84 601.543 420.08C602.343 420.04 603.223 420 604.423 420C605.623 420 606.743 420.04 607.783 420.08C608.023 419.84 608.023 419 607.783 418.76C606.343 418.6 606.023 418.44 606.903 417.16L609.423 413.52C609.743 413.04 609.903 413.08 610.143 413.44L612.463 416.64C613.863 418.56 613.223 418.64 611.943 418.76C611.703 419 611.703 419.84 611.943 420.08C613.143 420.04 614.463 420 615.903 420C617.423 420 618.503 420.04 619.463 420.08C619.703 419.84 619.703 419 619.463 418.76C617.663 418.64 617.063 418.52 615.463 416.24L611.863 411.16C611.703 410.92 611.663 410.8 611.863 410.56L615.223 406.28C616.703 404.4 617.663 404.2 619.103 404.08C619.343 403.84 619.343 403 619.103 402.76C618.303 402.8 617.383 402.84 616.183 402.84C614.983 402.84 613.863 402.8 612.823 402.76C612.583 403 612.583 403.84 612.823 404.08C614.303 404.24 614.743 404.36 613.783 405.72L611.183 409.36C610.903 409.76 610.743 409.72 610.423 409.28L607.983 405.68ZM622.033 402.84C621.473 402.84 621.313 403.32 621.313 403.64V404.16C621.313 404.36 621.353 404.4 621.513 404.4H623.873V416.44C623.873 419.28 625.113 420.4 626.953 420.4C628.793 420.4 630.793 419.52 632.353 417.76C632.273 417.36 632.033 417.12 631.633 417.08C630.592 417.88 629.393 418.2 628.353 418.2C627.273 418.2 627.033 417 627.033 414.52V404.4H631.193C631.593 404.4 632.153 404.24 632.153 403.88V403.08C632.153 402.92 632.033 402.84 631.833 402.84H627.033V401.28C627.033 398.68 627.193 397.08 627.193 397.08C627.193 396.84 627.073 396.72 626.873 396.72C626.713 396.72 626.353 396.88 625.993 397.08C625.553 397.32 625.153 397.52 624.633 397.64C624.153 397.8 623.753 397.92 623.753 398.2C623.753 398.68 623.873 398.4 623.873 402.84H622.033ZM637.129 416.2C635.889 416.2 635.009 417.04 635.009 418.16C635.009 419.4 636.049 419.8 636.769 419.92C637.529 420 638.209 420.24 638.209 421.16C638.209 422 636.769 423.84 634.689 424.36C634.689 424.76 634.769 425.04 635.049 425.32C637.449 424.88 639.769 422.96 639.769 420.16C639.769 417.76 638.729 416.2 637.129 416.2ZM663.478 418.08C663.718 419.32 664.158 420.4 666.158 420.4C667.678 420.4 669.118 419.72 669.958 418.92C669.878 418.44 669.718 418.08 669.278 417.84C668.998 418.08 668.318 418.48 667.798 418.48C666.638 418.48 666.598 416.92 666.598 415.08V409.2C666.598 403.52 663.478 402.44 660.558 402.44C657.278 402.44 653.958 404.6 653.958 406.88C653.958 407.84 654.438 408.32 655.358 408.32C656.518 408.32 657.238 407.48 657.238 406.96C657.238 406.68 657.198 406.4 657.118 406.24C657.078 406.12 657.038 405.88 657.038 405.44C657.038 404.2 658.718 403.76 660.238 403.76C661.598 403.76 663.478 404.44 663.478 408.96C663.478 409.24 663.358 409.4 663.238 409.44L659.798 410.28C655.958 411.24 653.198 413.36 653.198 416.08C653.198 419.36 655.438 420.4 658.238 420.4C659.638 420.4 660.838 420.08 662.598 418.72L663.398 418.08H663.478ZM663.478 410.68V415.96C663.478 416.48 663.238 416.76 662.918 417C661.878 417.84 660.518 418.76 659.398 418.76C657.398 418.76 656.518 417.16 656.518 415.92C656.518 414.12 657.358 412.28 660.318 411.52L663.478 410.68ZM677.399 405.68C677.159 405.96 676.919 406.04 676.919 405.68C676.879 404.6 676.799 403.04 676.599 402.64C676.519 402.44 676.439 402.32 676.119 402.32C674.999 402.76 673.959 403.12 671.199 403.48C671.119 403.72 671.199 404.36 671.279 404.6C673.439 404.8 673.879 405 673.879 407.32V415.12C673.879 418.4 673.479 418.56 671.079 418.76C670.839 419 670.839 419.84 671.079 420.08C672.279 420.04 673.879 420 675.479 420C677.079 420 678.279 420.04 679.479 420.08C679.719 419.84 679.719 419 679.479 418.76C677.439 418.56 677.039 418.4 677.039 415.12V408.56C677.039 407.72 677.399 407.24 677.719 406.88C679.239 405.4 681.039 404.52 682.599 404.52C683.399 404.52 684.239 405.04 684.719 405.96C685.119 406.76 685.199 407.84 685.199 409.04V415.12C685.199 418.4 684.799 418.56 682.719 418.76C682.519 419 682.519 419.84 682.719 420.08C683.919 420.04 685.199 420 686.799 420C688.399 420 689.839 420.04 691.039 420.08C691.239 419.84 691.239 419 691.039 418.76C688.799 418.56 688.359 418.4 688.359 415.12V409.16C688.359 406.96 688.199 405.04 687.279 403.8C686.599 402.92 685.359 402.44 683.959 402.44C681.999 402.44 679.759 402.96 677.399 405.68ZM705.079 418C705.279 417.84 705.639 417.76 705.679 418.04C705.799 419 706.119 420.4 706.119 420.4C706.439 420.52 706.639 420.48 706.879 420.4C707.759 419.68 709.159 419.08 711.599 418.8C711.839 418.56 711.839 417.96 711.599 417.72C709.039 417.52 708.679 416.76 708.679 414.8V396.68C708.679 394.08 708.839 392.48 708.839 392.48C708.839 392.2 708.679 392.08 708.319 392.08C707.319 392.48 704.319 393.04 702.719 393.16C702.639 393.48 702.719 394.12 702.959 394.36C703.079 394.36 703.199 394.36 703.319 394.36C705.079 394.48 705.519 394.48 705.519 397.64V402.76C705.519 403.04 705.439 403.12 705.159 403.12C704.999 403.12 703.359 402.44 702.039 402.44C699.399 402.44 697.639 403.32 696.039 404.84C694.319 406.56 693.279 408.92 693.279 411.88C693.279 416.8 695.759 420.4 700.079 420.4C701.639 420.4 703.119 419.6 705.079 418ZM705.519 415.04C705.519 415.8 705.439 416.12 704.879 416.6C703.399 417.88 702.119 418.52 701.119 418.52C698.959 418.52 696.719 416.16 696.719 411.16C696.719 408.28 697.279 406.68 697.879 405.84C699.119 403.96 700.799 403.84 701.599 403.84C703.039 403.84 704.039 404.36 704.839 405.28C705.399 405.92 705.519 406.2 705.519 407.44V415.04ZM729.193 415.12V407.16C729.193 405.16 729.353 402.6 729.353 402.6C729.353 402.44 729.153 402.32 728.833 402.32C727.713 402.76 726.113 403.12 723.353 403.48C723.273 403.72 723.353 404.36 723.433 404.6C725.633 404.8 726.033 405.04 726.033 407.32V415.12C726.033 418.44 725.593 418.56 723.153 418.76C722.913 419 722.913 419.84 723.153 420.08C724.473 420.04 726.033 420 727.633 420C729.233 420 730.753 420.04 732.073 420.08C732.313 419.84 732.313 419 732.073 418.76C729.633 418.6 729.193 418.44 729.193 415.12ZM725.553 396.04C725.553 397.08 726.513 398.12 727.473 398.12C728.593 398.12 729.553 397.04 729.553 396.2C729.553 395.24 728.713 394.12 727.633 394.12C726.673 394.12 725.553 395.08 725.553 396.04ZM740.173 405.68C739.933 405.96 739.693 406.04 739.693 405.68C739.653 404.6 739.573 403.04 739.373 402.64C739.293 402.44 739.213 402.32 738.893 402.32C737.773 402.76 736.733 403.12 733.973 403.48C733.893 403.72 733.973 404.36 734.053 404.6C736.213 404.8 736.653 405 736.653 407.32V415.12C736.653 418.4 736.253 418.56 733.853 418.76C733.613 419 733.613 419.84 733.853 420.08C735.053 420.04 736.653 420 738.253 420C739.853 420 741.053 420.04 742.253 420.08C742.493 419.84 742.493 419 742.253 418.76C740.213 418.56 739.813 418.4 739.813 415.12V408.56C739.813 407.72 740.173 407.24 740.493 406.88C742.013 405.4 743.813 404.52 745.373 404.52C746.173 404.52 747.013 405.04 747.493 405.96C747.893 406.76 747.973 407.84 747.973 409.04V415.12C747.973 418.4 747.573 418.56 745.493 418.76C745.293 419 745.293 419.84 745.493 420.08C746.693 420.04 747.973 420 749.573 420C751.173 420 752.613 420.04 753.813 420.08C754.013 419.84 754.013 419 753.813 418.76C751.573 418.56 751.133 418.4 751.133 415.12V409.16C751.133 406.96 750.973 405.04 750.053 403.8C749.373 402.92 748.133 402.44 746.733 402.44C744.773 402.44 742.533 402.96 740.173 405.68ZM767.492 404.08C769.652 404.24 769.892 404.72 769.052 406.76L765.812 414.6C765.172 416.16 764.972 416.16 764.332 414.48L761.452 406.76C760.732 404.84 760.572 404.36 762.692 404.08C762.932 403.84 762.932 403 762.692 402.76C761.372 402.8 759.972 402.84 758.652 402.84C757.332 402.84 756.132 402.8 754.932 402.76C754.692 403 754.692 403.84 754.932 404.08C757.052 404.32 757.332 404.96 758.132 407L763.252 419.64C763.492 420.24 763.732 420.48 764.252 420.48C764.652 420.48 764.932 420.24 765.212 419.56L770.532 407.04C771.292 405.28 771.732 404.28 773.972 404.08C774.212 403.84 774.212 403 773.972 402.76C773.172 402.8 772.212 402.84 771.172 402.84C769.852 402.84 768.492 402.8 767.492 402.76C767.252 403 767.252 403.84 767.492 404.08ZM781.615 415.12V407.16C781.615 405.16 781.775 402.6 781.775 402.6C781.775 402.44 781.575 402.32 781.255 402.32C780.135 402.76 778.535 403.12 775.775 403.48C775.695 403.72 775.775 404.36 775.855 404.6C778.055 404.8 778.455 405.04 778.455 407.32V415.12C778.455 418.44 778.015 418.56 775.575 418.76C775.335 419 775.335 419.84 775.575 420.08C776.895 420.04 778.455 420 780.055 420C781.655 420 783.175 420.04 784.495 420.08C784.735 419.84 784.735 419 784.495 418.76C782.055 418.6 781.615 418.44 781.615 415.12ZM777.975 396.04C777.975 397.08 778.935 398.12 779.895 398.12C781.015 398.12 781.975 397.04 781.975 396.2C781.975 395.24 781.135 394.12 780.055 394.12C779.095 394.12 777.975 395.08 777.975 396.04ZM786.954 402.84C786.394 402.84 786.234 403.32 786.234 403.64V404.16C786.234 404.36 786.274 404.4 786.434 404.4H788.794V416.44C788.794 419.28 790.034 420.4 791.874 420.4C793.714 420.4 795.714 419.52 797.274 417.76C797.194 417.36 796.954 417.12 796.554 417.08C795.514 417.88 794.314 418.2 793.274 418.2C792.194 418.2 791.954 417 791.954 414.52V404.4H796.114C796.514 404.4 797.074 404.24 797.074 403.88V403.08C797.074 402.92 796.954 402.84 796.754 402.84H791.954V401.28C791.954 398.68 792.114 397.08 792.114 397.08C792.114 396.84 791.994 396.72 791.794 396.72C791.634 396.72 791.274 396.88 790.914 397.08C790.474 397.32 790.074 397.52 789.554 397.64C789.074 397.8 788.674 397.92 788.674 398.2C788.674 398.68 788.794 398.4 788.794 402.84H786.954ZM813.331 416.28C811.851 417.8 810.691 418.44 808.371 418.44C806.931 418.44 805.251 417.6 804.011 415.56C803.211 414.24 802.731 412.4 802.731 410.08L813.371 410.16C813.851 410.16 814.131 409.92 814.131 409.48C814.131 406.12 812.931 402.52 807.371 402.52C803.891 402.52 799.371 405.84 799.371 411.92C799.371 414.16 799.931 416.32 801.251 417.84C802.611 419.44 804.491 420.4 807.371 420.4C810.411 420.4 812.571 419 814.171 416.92C814.051 416.52 813.811 416.32 813.331 416.28ZM802.851 408.72C803.611 404.2 806.411 403.84 807.371 403.84C808.891 403.84 810.691 404.68 810.691 408.04C810.691 408.4 810.531 408.6 810.091 408.6L802.851 408.72ZM817.701 414.48C817.861 416.44 817.981 418.32 817.981 420C818.381 419.92 818.781 419.88 818.981 419.88C819.261 419.88 819.501 419.88 819.781 419.96C820.861 420.24 821.941 420.4 823.421 420.4C825.661 420.4 829.781 419.32 829.781 415.36C829.781 412.64 827.821 411.04 825.101 410.04C822.701 409.12 821.101 408.52 821.101 406.32C821.101 404.68 822.541 403.76 823.901 403.76C824.781 403.76 827.101 404.08 827.621 407.48C827.861 407.72 828.661 407.68 828.901 407.44C829.021 406 829.101 404.52 829.141 403.2C827.901 403 825.981 402.44 823.901 402.44C820.941 402.44 818.261 404.36 818.261 406.92C818.261 409.84 819.581 411.08 822.661 412.36C825.981 413.72 826.741 414.56 826.741 416.28C826.741 418.24 824.821 419.08 823.341 419.08C821.781 419.08 820.901 418.56 820.501 418.12C819.621 417.2 819.181 415.44 818.941 414.44C818.701 414.2 817.941 414.24 817.701 414.48ZM848.727 405.68C848.487 405.96 848.247 406.04 848.247 405.68C848.207 404.6 848.127 403.04 847.927 402.64C847.847 402.44 847.767 402.32 847.447 402.32C846.327 402.76 845.287 403.12 842.527 403.48C842.447 403.72 842.527 404.36 842.607 404.6C844.767 404.8 845.207 405 845.207 407.32V415.12C845.207 418.4 844.807 418.56 842.407 418.76C842.167 419 842.167 419.84 842.407 420.08C843.607 420.04 845.207 420 846.807 420C848.407 420 849.607 420.04 850.807 420.08C851.047 419.84 851.047 419 850.807 418.76C848.767 418.56 848.367 418.4 848.367 415.12V408.56C848.367 407.72 848.727 407.24 849.047 406.88C850.567 405.4 852.367 404.52 853.927 404.52C854.727 404.52 855.567 405.04 856.047 405.96C856.447 406.76 856.527 407.84 856.527 409.04V415.12C856.527 418.4 856.127 418.56 854.047 418.76C853.847 419 853.847 419.84 854.047 420.08C855.247 420.04 856.527 420 858.127 420C859.727 420 861.167 420.04 862.367 420.08C862.567 419.84 862.567 419 862.367 418.76C860.127 418.56 859.687 418.4 859.687 415.12V409.16C859.687 406.96 859.527 405.04 858.607 403.8C857.927 402.92 856.687 402.44 855.287 402.44C853.327 402.44 851.087 402.96 848.727 405.68ZM878.487 416.28C877.007 417.8 875.847 418.44 873.527 418.44C872.087 418.44 870.407 417.6 869.167 415.56C868.367 414.24 867.887 412.4 867.887 410.08L878.527 410.16C879.007 410.16 879.287 409.92 879.287 409.48C879.287 406.12 878.087 402.52 872.527 402.52C869.047 402.52 864.527 405.84 864.527 411.92C864.527 414.16 865.087 416.32 866.407 417.84C867.767 419.44 869.647 420.4 872.527 420.4C875.567 420.4 877.727 419 879.327 416.92C879.207 416.52 878.967 416.32 878.487 416.28ZM868.007 408.72C868.767 404.2 871.567 403.84 872.527 403.84C874.047 403.84 875.847 404.68 875.847 408.04C875.847 408.4 875.687 408.6 875.247 408.6L868.007 408.72ZM888.784 404.08C889.024 403.84 889.024 403 888.784 402.76C887.584 402.8 886.184 402.84 884.744 402.84C883.224 402.84 882.144 402.8 881.104 402.76C880.864 403 880.864 403.84 881.104 404.08C882.984 404.28 883.424 404.68 884.264 406.76L889.504 419.68C889.744 420.24 890.064 420.48 890.464 420.48C890.824 420.48 891.144 420.24 891.424 419.6L895.464 409.76L899.584 419.68C899.824 420.24 900.144 420.48 900.544 420.48C900.904 420.48 901.224 420.24 901.464 419.64L906.704 406.96C907.344 405.32 908.024 404.2 910.064 404.08C910.304 403.84 910.304 403 910.064 402.76C909.264 402.8 908.384 402.84 907.184 402.84C905.984 402.84 904.304 402.8 903.104 402.76C902.864 403 902.864 403.84 903.104 404.08C906.104 404.24 905.704 405.4 905.144 406.8L901.784 415.12C901.384 416.12 901.224 416.12 900.904 415.28L897.464 406.52C896.704 404.64 896.784 404.24 898.904 404.08C899.144 403.84 899.144 403 898.904 402.76C897.704 402.8 896.104 402.84 894.904 402.84C893.904 402.84 892.584 402.8 891.384 402.76C891.144 403 891.144 403.84 891.384 404.08C893.264 404.24 893.744 405.4 894.464 407.2L894.704 407.84L891.904 414.92C891.384 416.24 891.304 416.28 890.784 415L887.584 406.76C886.824 404.84 886.864 404.2 888.784 404.08ZM922.187 411.8C922.187 415.88 924.907 420.4 930.587 420.4C933.147 420.4 935.107 419.48 936.467 418.16C938.267 416.4 939.067 413.88 939.067 411.44C939.067 407.28 936.787 402.44 930.667 402.44C928.027 402.44 925.867 403.52 924.387 405.24C922.947 406.96 922.187 409.28 922.187 411.8ZM930.067 403.84C933.507 403.84 935.627 406.96 935.627 412.72C935.627 417.76 933.027 419 931.147 419C926.987 419 925.627 413.96 925.627 410.88C925.627 407.4 926.467 403.84 930.067 403.84ZM948.063 405.68C947.823 405.96 947.583 406.04 947.583 405.68C947.543 404.6 947.463 403.04 947.263 402.64C947.183 402.44 947.103 402.32 946.783 402.32C945.663 402.76 944.623 403.12 941.863 403.48C941.783 403.72 941.863 404.36 941.943 404.6C944.103 404.8 944.543 405 944.543 407.32V415.12C944.543 418.4 944.143 418.56 941.743 418.76C941.503 419 941.503 419.84 941.743 420.08C942.943 420.04 944.543 420 946.143 420C947.743 420 948.943 420.04 950.143 420.08C950.383 419.84 950.383 419 950.143 418.76C948.103 418.56 947.703 418.4 947.703 415.12V408.56C947.703 407.72 948.063 407.24 948.383 406.88C949.903 405.4 951.703 404.52 953.263 404.52C954.063 404.52 954.903 405.04 955.383 405.96C955.783 406.76 955.863 407.84 955.863 409.04V415.12C955.863 418.4 955.463 418.56 953.383 418.76C953.183 419 953.183 419.84 953.383 420.08C954.583 420.04 955.863 420 957.463 420C959.063 420 960.503 420.04 961.703 420.08C961.903 419.84 961.903 419 961.703 418.76C959.463 418.56 959.023 418.4 959.023 415.12V409.16C959.023 406.96 958.863 405.04 957.943 403.8C957.263 402.92 956.023 402.44 954.623 402.44C952.663 402.44 950.423 402.96 948.063 405.68ZM977.823 416.28C976.343 417.8 975.183 418.44 972.863 418.44C971.423 418.44 969.743 417.6 968.503 415.56C967.703 414.24 967.223 412.4 967.223 410.08L977.863 410.16C978.343 410.16 978.623 409.92 978.623 409.48C978.623 406.12 977.423 402.52 971.863 402.52C968.383 402.52 963.863 405.84 963.863 411.92C963.863 414.16 964.423 416.32 965.743 417.84C967.103 419.44 968.983 420.4 971.863 420.4C974.903 420.4 977.063 419 978.663 416.92C978.543 416.52 978.303 416.32 977.823 416.28ZM967.343 408.72C968.103 404.2 970.903 403.84 971.863 403.84C973.383 403.84 975.183 404.68 975.183 408.04C975.183 408.4 975.023 408.6 974.583 408.6L967.343 408.72ZM982.193 414.48C982.353 416.44 982.473 418.32 982.473 420C982.873 419.92 983.273 419.88 983.473 419.88C983.753 419.88 983.993 419.88 984.273 419.96C985.353 420.24 986.433 420.4 987.913 420.4C990.153 420.4 994.273 419.32 994.273 415.36C994.273 412.64 992.313 411.04 989.593 410.04C987.193 409.12 985.593 408.52 985.593 406.32C985.593 404.68 987.033 403.76 988.393 403.76C989.273 403.76 991.593 404.08 992.113 407.48C992.353 407.72 993.153 407.68 993.393 407.44C993.513 406 993.593 404.52 993.633 403.2C992.393 403 990.473 402.44 988.393 402.44C985.433 402.44 982.753 404.36 982.753 406.92C982.753 409.84 984.073 411.08 987.153 412.36C990.473 413.72 991.233 414.56 991.233 416.28C991.233 418.24 989.313 419.08 987.833 419.08C986.273 419.08 985.393 418.56 984.993 418.12C984.113 417.2 983.673 415.44 983.433 414.44C983.193 414.2 982.433 414.24 982.193 414.48ZM998.139 418.28C998.139 419.44 999.099 420.4 1000.26 420.4C1001.42 420.4 1002.38 419.44 1002.38 418.28C1002.38 417.12 1001.42 416.16 1000.26 416.16C999.099 416.16 998.139 417.12 998.139 418.28Z" fill="black"/>
<rect id="mso_=_reco" opacity="0.5" x="330" y="454" width="215" height="161" fill="#FF0000"/>
<rect id="cmso_vs_mso" opacity="0.5" x="579" y="459" width="208" height="156" fill="#FF0000"/>
<rect id="star_free_expressions" opacity="0.5" x="794" y="458" width="211" height="158" fill="#FF0000"/>
</g>
</svg>
