<svg width="1280" height="960" viewBox="0 0 1280 960" fill="none" xmlns="http://www.w3.org/2000/svg">
<g id="First-order graph properties">
<rect width="1280" height="960" fill="white"/>
<path id="301:56" d="M120.98 80.62C126.08 80.62 126.26 82 126.44 84.7C126.8 85.06 128.06 85.06 128.42 84.7C128.36 83.2 128.3 81.46 128.3 79.42C128.3 77.38 128.36 75.82 128.42 74.26C128.06 73.9 126.8 73.9 126.44 74.26C126.26 77.56 126.08 78.34 120.98 78.34H115.4V67.54C115.4 64.3 116.12 63.7 118.76 63.7H121.46C127.82 63.7 129.32 66.1 130.64 70.24C131.36 70.24 132.02 70.12 132.5 69.94C132.2 67.48 131.3 61.72 131.18 61.24C131.18 61.12 131.12 61.06 130.94 61.06C129.92 61.24 129.62 61.3 128.12 61.3H112.82C110.9 61.3 107.48 61.24 105.08 61.18C104.72 61.54 104.72 62.8 105.08 63.16C109.28 63.34 110.3 63.64 110.3 68.62V92.68C110.3 97.66 109.28 97.96 105.08 98.14C104.72 98.5 104.72 99.76 105.08 100.12C107.18 100.06 110.18 100 112.88 100C115.58 100 118.52 100.06 120.62 100.12C120.98 99.76 120.98 98.5 120.62 98.14C116.42 97.96 115.4 97.66 115.4 92.68V80.62H120.98ZM143.981 92.68V80.74C143.981 77.74 144.221 73.9 144.221 73.9C144.221 73.66 143.921 73.48 143.441 73.48C141.761 74.14 139.361 74.68 135.221 75.22C135.101 75.58 135.221 76.54 135.341 76.9C138.641 77.2 139.241 77.56 139.241 80.98V92.68C139.241 97.66 138.581 97.84 134.921 98.14C134.561 98.5 134.561 99.76 134.921 100.12C136.901 100.06 139.241 100 141.641 100C144.041 100 146.321 100.06 148.301 100.12C148.661 99.76 148.661 98.5 148.301 98.14C144.641 97.9 143.981 97.66 143.981 92.68ZM138.521 64.06C138.521 65.62 139.961 67.18 141.401 67.18C143.081 67.18 144.521 65.56 144.521 64.3C144.521 62.86 143.261 61.18 141.641 61.18C140.201 61.18 138.521 62.62 138.521 64.06ZM159.97 78.52C159.85 76.12 159.79 74.56 159.49 73.96C159.37 73.66 159.25 73.48 158.77 73.48C157.09 74.14 155.53 74.68 151.39 75.22C151.27 75.58 151.39 76.54 151.51 76.9C154.75 77.2 155.41 77.5 155.41 80.98V92.68C155.41 97.66 154.69 97.9 150.97 98.14C150.61 98.5 150.61 99.76 150.97 100.12C153.07 100.06 155.41 100 157.81 100C160.21 100 162.97 100.06 165.07 100.12C165.43 99.76 165.43 98.5 165.07 98.14C160.87 97.84 160.15 97.66 160.15 92.68V84.34C160.15 82.78 160.87 81.4 161.59 80.32C162.25 79.36 163.63 77.38 164.35 77.38C164.89 77.38 165.43 77.5 165.91 78.16C166.33 78.76 167.05 79.54 168.07 79.54C169.51 79.54 170.89 78.04 170.89 76.54C170.89 75.4 169.81 73.66 167.29 73.66C164.47 73.66 162.01 76.3 160.63 78.64C160.27 79.3 159.97 78.82 159.97 78.52ZM174.614 91.72C174.854 94.66 175.034 97.48 175.034 100C175.634 99.88 176.234 99.82 176.534 99.82C176.954 99.82 177.314 99.82 177.734 99.94C179.354 100.36 180.974 100.6 183.194 100.6C186.554 100.6 192.734 98.98 192.734 93.04C192.734 88.96 189.794 86.56 185.714 85.06C182.114 83.68 179.714 82.78 179.714 79.48C179.714 77.02 181.874 75.64 183.914 75.64C185.234 75.64 188.714 76.12 189.494 81.22C189.854 81.58 191.054 81.52 191.414 81.16C191.594 79 191.714 76.78 191.774 74.8C189.914 74.5 187.034 73.66 183.914 73.66C179.474 73.66 175.454 76.54 175.454 80.38C175.454 84.76 177.434 86.62 182.054 88.54C187.034 90.58 188.174 91.84 188.174 94.42C188.174 97.36 185.294 98.62 183.074 98.62C180.734 98.62 179.414 97.84 178.814 97.18C177.494 95.8 176.834 93.16 176.474 91.66C176.114 91.3 174.974 91.36 174.614 91.72ZM197.693 74.26C196.853 74.26 196.613 74.98 196.613 75.46V76.24C196.613 76.54 196.673 76.6 196.913 76.6H200.453V94.66C200.453 98.92 202.313 100.6 205.073 100.6C207.833 100.6 210.833 99.28 213.173 96.64C213.053 96.04 212.693 95.68 212.093 95.62C210.533 96.82 208.733 97.3 207.173 97.3C205.553 97.3 205.193 95.5 205.193 91.78V76.6H211.433C212.033 76.6 212.873 76.36 212.873 75.82V74.62C212.873 74.38 212.693 74.26 212.393 74.26H205.193V71.92C205.193 68.02 205.433 65.62 205.433 65.62C205.433 65.26 205.253 65.08 204.953 65.08C204.713 65.08 204.173 65.32 203.633 65.62C202.973 65.98 202.373 66.28 201.593 66.46C200.873 66.7 200.273 66.88 200.273 67.3C200.273 68.02 200.453 67.6 200.453 74.26H197.693ZM230.358 86.62C231.138 86.62 231.978 84.94 231.978 84.22C231.978 83.62 231.738 83.02 231.138 83.02H217.998C217.278 83.02 216.498 84.4 216.498 85.48C216.498 86.08 216.858 86.62 217.398 86.62H230.358ZM236.831 87.7C236.831 93.82 240.911 100.6 249.431 100.6C253.271 100.6 256.211 99.22 258.251 97.24C260.951 94.6 262.151 90.82 262.151 87.16C262.151 80.92 258.731 73.66 249.551 73.66C245.591 73.66 242.351 75.28 240.131 77.86C237.971 80.44 236.831 83.92 236.831 87.7ZM248.651 75.76C253.811 75.76 256.991 80.44 256.991 89.08C256.991 96.64 253.091 98.5 250.271 98.5C244.031 98.5 241.991 90.94 241.991 86.32C241.991 81.1 243.251 75.76 248.651 75.76ZM275.165 78.52C275.045 76.12 274.985 74.56 274.685 73.96C274.565 73.66 274.445 73.48 273.965 73.48C272.285 74.14 270.725 74.68 266.585 75.22C266.465 75.58 266.585 76.54 266.705 76.9C269.945 77.2 270.605 77.5 270.605 80.98V92.68C270.605 97.66 269.885 97.9 266.165 98.14C265.805 98.5 265.805 99.76 266.165 100.12C268.265 100.06 270.605 100 273.005 100C275.405 100 278.165 100.06 280.265 100.12C280.625 99.76 280.625 98.5 280.265 98.14C276.065 97.84 275.345 97.66 275.345 92.68V84.34C275.345 82.78 276.065 81.4 276.785 80.32C277.445 79.36 278.825 77.38 279.545 77.38C280.085 77.38 280.625 77.5 281.105 78.16C281.525 78.76 282.245 79.54 283.265 79.54C284.705 79.54 286.085 78.04 286.085 76.54C286.085 75.4 285.005 73.66 282.485 73.66C279.665 73.66 277.205 76.3 275.825 78.64C275.465 79.3 275.165 78.82 275.165 78.52ZM306.501 97C306.801 96.76 307.341 96.64 307.401 97.06C307.581 98.5 308.061 100.6 308.061 100.6C308.541 100.78 308.841 100.72 309.201 100.6C310.521 99.52 312.621 98.62 316.281 98.2C316.641 97.84 316.641 96.94 316.281 96.58C312.441 96.28 311.901 95.14 311.901 92.2V65.02C311.901 61.12 312.141 58.72 312.141 58.72C312.141 58.3 311.901 58.12 311.361 58.12C309.861 58.72 305.361 59.56 302.961 59.74C302.841 60.22 302.961 61.18 303.321 61.54C303.501 61.54 303.681 61.54 303.861 61.54C306.501 61.72 307.161 61.72 307.161 66.46V74.14C307.161 74.56 307.041 74.68 306.621 74.68C306.381 74.68 303.921 73.66 301.941 73.66C297.981 73.66 295.341 74.98 292.941 77.26C290.361 79.84 288.801 83.38 288.801 87.82C288.801 95.2 292.521 100.6 299.001 100.6C301.341 100.6 303.561 99.4 306.501 97ZM307.161 92.56C307.161 93.7 307.041 94.18 306.201 94.9C303.981 96.82 302.061 97.78 300.561 97.78C297.321 97.78 293.961 94.24 293.961 86.74C293.961 82.42 294.801 80.02 295.701 78.76C297.561 75.94 300.081 75.76 301.281 75.76C303.441 75.76 304.941 76.54 306.141 77.92C306.981 78.88 307.161 79.3 307.161 81.16V92.56ZM339.973 94.42C337.753 96.7 336.013 97.66 332.533 97.66C330.373 97.66 327.853 96.4 325.993 93.34C324.793 91.36 324.073 88.6 324.073 85.12L340.033 85.24C340.753 85.24 341.173 84.88 341.173 84.22C341.173 79.18 339.373 73.78 331.033 73.78C325.813 73.78 319.033 78.76 319.033 87.88C319.033 91.24 319.873 94.48 321.853 96.76C323.893 99.16 326.713 100.6 331.033 100.6C335.593 100.6 338.833 98.5 341.233 95.38C341.053 94.78 340.693 94.48 339.973 94.42ZM324.253 83.08C325.393 76.3 329.593 75.76 331.033 75.76C333.313 75.76 336.013 77.02 336.013 82.06C336.013 82.6 335.773 82.9 335.113 82.9L324.253 83.08ZM354.208 78.52C354.088 76.12 354.028 74.56 353.728 73.96C353.608 73.66 353.488 73.48 353.008 73.48C351.328 74.14 349.768 74.68 345.628 75.22C345.508 75.58 345.628 76.54 345.748 76.9C348.988 77.2 349.648 77.5 349.648 80.98V92.68C349.648 97.66 348.928 97.9 345.208 98.14C344.848 98.5 344.848 99.76 345.208 100.12C347.308 100.06 349.648 100 352.048 100C354.448 100 357.208 100.06 359.308 100.12C359.668 99.76 359.668 98.5 359.308 98.14C355.108 97.84 354.388 97.66 354.388 92.68V84.34C354.388 82.78 355.108 81.4 355.828 80.32C356.488 79.36 357.868 77.38 358.588 77.38C359.128 77.38 359.668 77.5 360.148 78.16C360.568 78.76 361.288 79.54 362.308 79.54C363.748 79.54 365.128 78.04 365.128 76.54C365.128 75.4 364.048 73.66 361.528 73.66C358.708 73.66 356.248 76.3 354.868 78.64C354.508 79.3 354.208 78.82 354.208 78.52ZM386.673 92.68C386.673 97.66 386.013 97.96 382.353 98.14C381.993 98.5 381.993 99.76 382.353 100.12C384.453 100.06 386.673 100 389.073 100C391.473 100 393.753 100.06 395.733 100.12C396.093 99.76 396.093 98.5 395.733 98.14C392.073 97.96 391.413 97.66 391.413 92.68V65.02C391.413 61.12 391.653 58.72 391.653 58.72C391.653 58.3 391.413 58.12 390.873 58.12C389.373 58.72 384.873 59.56 382.473 59.74C382.353 60.22 382.473 61.18 382.833 61.54C386.313 61.78 386.673 61.96 386.673 66.46V92.68ZM399.253 87.7C399.253 93.82 403.333 100.6 411.853 100.6C415.693 100.6 418.633 99.22 420.673 97.24C423.373 94.6 424.573 90.82 424.573 87.16C424.573 80.92 421.153 73.66 411.973 73.66C408.013 73.66 404.773 75.28 402.553 77.86C400.393 80.44 399.253 83.92 399.253 87.7ZM411.073 75.76C416.233 75.76 419.413 80.44 419.413 89.08C419.413 96.64 415.513 98.5 412.693 98.5C406.453 98.5 404.413 90.94 404.413 86.32C404.413 81.1 405.673 75.76 411.073 75.76ZM453.667 76.78C454.807 76.78 455.887 75.7 455.887 74.5C455.887 73.24 454.747 72.28 453.127 72.28C451.567 72.28 448.687 73.3 447.127 75.34C446.407 74.86 444.427 73.66 440.887 73.66C435.547 73.66 430.627 77.26 430.627 82.78C430.627 86.02 432.067 87.88 433.747 89.5C432.067 90.94 431.107 93.52 431.107 95.56C431.107 97.72 432.307 99.4 433.867 100.18C430.627 102.1 428.947 104.86 428.947 107.44C428.947 112.66 433.867 114.28 438.487 114.28C446.587 114.28 455.347 110.38 455.347 103.9C455.347 101.98 454.447 100.48 452.707 99.04C450.367 97.12 446.167 97.06 443.947 97.06C442.867 97.06 441.367 97.18 439.927 97.36C439.027 97.42 438.427 97.48 438.127 97.48C436.387 97.48 434.287 96.64 434.287 94.06C434.287 92.86 434.647 91.6 435.367 90.58C436.807 91.42 438.487 91.84 440.827 91.84C446.107 91.84 450.967 88.54 450.967 82.66C450.967 79.84 450.127 78.22 448.387 76.42C448.807 75.82 450.007 74.98 450.787 74.98C451.207 74.98 451.627 75.16 451.987 75.7C452.227 76.18 453.007 76.78 453.667 76.78ZM434.947 100.6C435.607 100.78 436.567 100.9 437.347 100.9C439.207 100.9 440.887 100.72 441.727 100.72C444.727 100.72 447.247 100.78 448.987 101.74C451.327 103.06 452.047 103.9 452.047 105.46C452.047 109.78 445.687 112.06 440.287 112.06C438.127 112.06 433.087 110.32 433.087 106.24C433.087 104.2 433.207 102.7 434.947 100.6ZM446.167 83.26C446.167 88.84 443.347 89.98 441.127 89.98C436.087 89.98 435.547 85.72 435.547 81.88C435.547 77.68 437.047 75.52 440.347 75.52C444.127 75.52 446.167 78.28 446.167 83.26ZM467.887 92.68V80.74C467.887 77.74 468.127 73.9 468.127 73.9C468.127 73.66 467.827 73.48 467.347 73.48C465.667 74.14 463.267 74.68 459.127 75.22C459.007 75.58 459.127 76.54 459.247 76.9C462.547 77.2 463.147 77.56 463.147 80.98V92.68C463.147 97.66 462.487 97.84 458.827 98.14C458.467 98.5 458.467 99.76 458.827 100.12C460.807 100.06 463.147 100 465.547 100C467.947 100 470.227 100.06 472.207 100.12C472.567 99.76 472.567 98.5 472.207 98.14C468.547 97.9 467.887 97.66 467.887 92.68ZM462.427 64.06C462.427 65.62 463.867 67.18 465.307 67.18C466.987 67.18 468.427 65.56 468.427 64.3C468.427 62.86 467.167 61.18 465.547 61.18C464.107 61.18 462.427 62.62 462.427 64.06ZM497.196 94.54C496.956 94 496.476 93.76 495.936 93.7C493.896 96.34 491.316 97.66 488.736 97.66C484.356 97.66 480.696 93.22 480.696 86.2C480.696 79.6 483.576 75.64 487.536 75.64C491.076 75.64 491.556 77.74 491.796 79.84C491.976 81.46 492.816 82 494.076 82C495.336 82 497.016 81.22 497.016 79.36C497.016 76.06 493.596 73.66 487.836 73.66C481.896 73.66 475.536 79 475.536 87.52C475.536 95.26 479.856 100.6 487.416 100.6C491.016 100.6 494.196 99.46 497.196 94.54Z" fill="black"/>
<g id="311:12">
<path id="Independent set of size k:" d="M111.64 237.12V221.08C111.64 217.76 112.32 217.56 115.12 217.44C115.36 217.2 115.36 216.36 115.12 216.12C113.36 216.16 111.48 216.2 109.92 216.2C108.6 216.2 106.64 216.16 104.76 216.12C104.52 216.36 104.52 217.2 104.76 217.44C107.56 217.56 108.24 217.76 108.24 221.08V237.12C108.24 240.44 107.56 240.64 104.76 240.76C104.52 241 104.52 241.84 104.76 242.08C106.56 242.04 108.52 242 109.96 242C111.4 242 113.32 242.04 115.12 242.08C115.36 241.84 115.36 241 115.12 240.76C112.32 240.64 111.64 240.44 111.64 237.12ZM123.235 227.68C122.995 227.96 122.755 228.04 122.755 227.68C122.715 226.6 122.635 225.04 122.435 224.64C122.355 224.44 122.275 224.32 121.955 224.32C120.835 224.76 119.795 225.12 117.035 225.48C116.955 225.72 117.035 226.36 117.115 226.6C119.275 226.8 119.715 227 119.715 229.32V237.12C119.715 240.4 119.315 240.56 116.915 240.76C116.675 241 116.675 241.84 116.915 242.08C118.115 242.04 119.715 242 121.315 242C122.915 242 124.115 242.04 125.315 242.08C125.555 241.84 125.555 241 125.315 240.76C123.275 240.56 122.875 240.4 122.875 237.12V230.56C122.875 229.72 123.235 229.24 123.555 228.88C125.075 227.4 126.875 226.52 128.435 226.52C129.235 226.52 130.075 227.04 130.555 227.96C130.955 228.76 131.035 229.84 131.035 231.04V237.12C131.035 240.4 130.635 240.56 128.555 240.76C128.355 241 128.355 241.84 128.555 242.08C129.755 242.04 131.035 242 132.635 242C134.235 242 135.675 242.04 136.875 242.08C137.075 241.84 137.075 241 136.875 240.76C134.635 240.56 134.195 240.4 134.195 237.12V231.16C134.195 228.96 134.035 227.04 133.115 225.8C132.435 224.92 131.195 224.44 129.795 224.44C127.835 224.44 125.595 224.96 123.235 227.68ZM150.915 240C151.115 239.84 151.475 239.76 151.515 240.04C151.635 241 151.955 242.4 151.955 242.4C152.275 242.52 152.475 242.48 152.715 242.4C153.595 241.68 154.995 241.08 157.435 240.8C157.675 240.56 157.675 239.96 157.435 239.72C154.875 239.52 154.515 238.76 154.515 236.8V218.68C154.515 216.08 154.675 214.48 154.675 214.48C154.675 214.2 154.515 214.08 154.155 214.08C153.155 214.48 150.155 215.04 148.555 215.16C148.475 215.48 148.555 216.12 148.795 216.36C148.915 216.36 149.035 216.36 149.155 216.36C150.915 216.48 151.355 216.48 151.355 219.64V224.76C151.355 225.04 151.275 225.12 150.995 225.12C150.835 225.12 149.195 224.44 147.875 224.44C145.235 224.44 143.475 225.32 141.875 226.84C140.155 228.56 139.115 230.92 139.115 233.88C139.115 238.8 141.595 242.4 145.915 242.4C147.475 242.4 148.955 241.6 150.915 240ZM151.355 237.04C151.355 237.8 151.275 238.12 150.715 238.6C149.235 239.88 147.955 240.52 146.955 240.52C144.795 240.52 142.555 238.16 142.555 233.16C142.555 230.28 143.115 228.68 143.715 227.84C144.955 225.96 146.635 225.84 147.435 225.84C148.875 225.84 149.875 226.36 150.675 227.28C151.235 227.92 151.355 228.2 151.355 229.44V237.04ZM173.229 238.28C171.749 239.8 170.589 240.44 168.269 240.44C166.829 240.44 165.149 239.6 163.909 237.56C163.109 236.24 162.629 234.4 162.629 232.08L173.269 232.16C173.749 232.16 174.029 231.92 174.029 231.48C174.029 228.12 172.829 224.52 167.269 224.52C163.789 224.52 159.269 227.84 159.269 233.92C159.269 236.16 159.829 238.32 161.149 239.84C162.509 241.44 164.389 242.4 167.269 242.4C170.309 242.4 172.469 241 174.069 238.92C173.949 238.52 173.709 238.32 173.229 238.28ZM162.749 230.72C163.509 226.2 166.309 225.84 167.269 225.84C168.789 225.84 170.589 226.68 170.589 230.04C170.589 230.4 170.429 230.6 169.989 230.6L162.749 230.72ZM181.92 227.28C181.88 226.08 181.8 225.04 181.6 224.64C181.52 224.44 181.44 224.32 181.12 224.32C180 224.76 178.96 225.12 176.2 225.48C176.12 225.72 176.2 226.36 176.28 226.6C178.44 226.8 178.88 227 178.88 229.32V246.4C178.88 249.72 178.44 249.92 176 250.04C175.76 250.28 175.76 251.12 176 251.36C177.4 251.32 178.88 251.28 180.48 251.28C182.08 251.28 184 251.32 185.32 251.36C185.56 251.12 185.56 250.28 185.32 250.04C182.48 249.88 182.04 249.72 182.04 246.4V242.08C182.04 241.56 182.2 241.6 182.6 241.76C183.6 242.16 184.8 242.4 186.08 242.4C188.32 242.4 190.32 241.72 191.96 240.16C193.84 238.32 194.92 235.84 194.92 232.6C194.92 228.36 191.92 224.44 187.84 224.44C186 224.44 183.96 225.64 182.36 227.44C182.12 227.68 181.96 227.68 181.92 227.28ZM182.68 228.76C183.72 227.48 185.56 226.28 186.72 226.28C189.28 226.28 191.48 229.16 191.48 233.68C191.48 236.96 190.32 241.04 185.84 241.04C185.12 241.04 183.72 240.84 183 240.2C182.2 239.48 182.04 239.24 182.04 237.8V230.52C182.04 229.68 182.2 229.32 182.68 228.76ZM212.135 238.28C210.655 239.8 209.495 240.44 207.175 240.44C205.735 240.44 204.055 239.6 202.815 237.56C202.015 236.24 201.535 234.4 201.535 232.08L212.175 232.16C212.655 232.16 212.935 231.92 212.935 231.48C212.935 228.12 211.735 224.52 206.175 224.52C202.695 224.52 198.175 227.84 198.175 233.92C198.175 236.16 198.735 238.32 200.055 239.84C201.415 241.44 203.295 242.4 206.175 242.4C209.215 242.4 211.375 241 212.975 238.92C212.855 238.52 212.615 238.32 212.135 238.28ZM201.655 230.72C202.415 226.2 205.215 225.84 206.175 225.84C207.695 225.84 209.495 226.68 209.495 230.04C209.495 230.4 209.335 230.6 208.895 230.6L201.655 230.72ZM221.946 227.68C221.706 227.96 221.466 228.04 221.466 227.68C221.426 226.6 221.346 225.04 221.146 224.64C221.066 224.44 220.986 224.32 220.666 224.32C219.546 224.76 218.506 225.12 215.746 225.48C215.666 225.72 215.746 226.36 215.826 226.6C217.986 226.8 218.426 227 218.426 229.32V237.12C218.426 240.4 218.026 240.56 215.626 240.76C215.386 241 215.386 241.84 215.626 242.08C216.826 242.04 218.426 242 220.026 242C221.626 242 222.826 242.04 224.026 242.08C224.266 241.84 224.266 241 224.026 240.76C221.986 240.56 221.586 240.4 221.586 237.12V230.56C221.586 229.72 221.946 229.24 222.266 228.88C223.786 227.4 225.586 226.52 227.146 226.52C227.946 226.52 228.786 227.04 229.266 227.96C229.666 228.76 229.746 229.84 229.746 231.04V237.12C229.746 240.4 229.346 240.56 227.266 240.76C227.066 241 227.066 241.84 227.266 242.08C228.466 242.04 229.746 242 231.346 242C232.946 242 234.386 242.04 235.586 242.08C235.786 241.84 235.786 241 235.586 240.76C233.346 240.56 232.906 240.4 232.906 237.12V231.16C232.906 228.96 232.746 227.04 231.826 225.8C231.146 224.92 229.906 224.44 228.506 224.44C226.546 224.44 224.306 224.96 221.946 227.68ZM249.626 240C249.826 239.84 250.186 239.76 250.226 240.04C250.346 241 250.666 242.4 250.666 242.4C250.986 242.52 251.186 242.48 251.426 242.4C252.306 241.68 253.706 241.08 256.146 240.8C256.386 240.56 256.386 239.96 256.146 239.72C253.586 239.52 253.226 238.76 253.226 236.8V218.68C253.226 216.08 253.386 214.48 253.386 214.48C253.386 214.2 253.226 214.08 252.866 214.08C251.866 214.48 248.866 215.04 247.266 215.16C247.186 215.48 247.266 216.12 247.506 216.36C247.626 216.36 247.746 216.36 247.866 216.36C249.626 216.48 250.066 216.48 250.066 219.64V224.76C250.066 225.04 249.986 225.12 249.706 225.12C249.546 225.12 247.906 224.44 246.586 224.44C243.946 224.44 242.186 225.32 240.586 226.84C238.866 228.56 237.826 230.92 237.826 233.88C237.826 238.8 240.306 242.4 244.626 242.4C246.186 242.4 247.666 241.6 249.626 240ZM250.066 237.04C250.066 237.8 249.986 238.12 249.426 238.6C247.946 239.88 246.666 240.52 245.666 240.52C243.506 240.52 241.266 238.16 241.266 233.16C241.266 230.28 241.826 228.68 242.426 227.84C243.666 225.96 245.346 225.84 246.146 225.84C247.586 225.84 248.586 226.36 249.386 227.28C249.946 227.92 250.066 228.2 250.066 229.44V237.04ZM271.94 238.28C270.46 239.8 269.3 240.44 266.98 240.44C265.54 240.44 263.86 239.6 262.62 237.56C261.82 236.24 261.34 234.4 261.34 232.08L271.98 232.16C272.46 232.16 272.74 231.92 272.74 231.48C272.74 228.12 271.54 224.52 265.98 224.52C262.5 224.52 257.98 227.84 257.98 233.92C257.98 236.16 258.54 238.32 259.86 239.84C261.22 241.44 263.1 242.4 265.98 242.4C269.02 242.4 271.18 241 272.78 238.92C272.66 238.52 272.42 238.32 271.94 238.28ZM261.46 230.72C262.22 226.2 265.02 225.84 265.98 225.84C267.5 225.84 269.3 226.68 269.3 230.04C269.3 230.4 269.14 230.6 268.7 230.6L261.46 230.72ZM281.751 227.68C281.511 227.96 281.271 228.04 281.271 227.68C281.231 226.6 281.151 225.04 280.951 224.64C280.871 224.44 280.791 224.32 280.471 224.32C279.351 224.76 278.311 225.12 275.551 225.48C275.471 225.72 275.551 226.36 275.631 226.6C277.791 226.8 278.231 227 278.231 229.32V237.12C278.231 240.4 277.831 240.56 275.431 240.76C275.191 241 275.191 241.84 275.431 242.08C276.631 242.04 278.231 242 279.831 242C281.431 242 282.631 242.04 283.831 242.08C284.071 241.84 284.071 241 283.831 240.76C281.791 240.56 281.391 240.4 281.391 237.12V230.56C281.391 229.72 281.751 229.24 282.071 228.88C283.591 227.4 285.391 226.52 286.951 226.52C287.751 226.52 288.591 227.04 289.071 227.96C289.471 228.76 289.551 229.84 289.551 231.04V237.12C289.551 240.4 289.151 240.56 287.071 240.76C286.871 241 286.871 241.84 287.071 242.08C288.271 242.04 289.551 242 291.151 242C292.751 242 294.191 242.04 295.391 242.08C295.591 241.84 295.591 241 295.391 240.76C293.151 240.56 292.711 240.4 292.711 237.12V231.16C292.711 228.96 292.551 227.04 291.631 225.8C290.951 224.92 289.711 224.44 288.311 224.44C286.351 224.44 284.111 224.96 281.751 227.68ZM297.79 224.84C297.23 224.84 297.07 225.32 297.07 225.64V226.16C297.07 226.36 297.11 226.4 297.27 226.4H299.63V238.44C299.63 241.28 300.87 242.4 302.71 242.4C304.55 242.4 306.55 241.52 308.11 239.76C308.03 239.36 307.79 239.12 307.39 239.08C306.35 239.88 305.15 240.2 304.11 240.2C303.03 240.2 302.79 239 302.79 236.52V226.4H306.95C307.35 226.4 307.91 226.24 307.91 225.88V225.08C307.91 224.92 307.79 224.84 307.59 224.84H302.79V223.28C302.79 220.68 302.95 219.08 302.95 219.08C302.95 218.84 302.83 218.72 302.63 218.72C302.47 218.72 302.11 218.88 301.75 219.08C301.31 219.32 300.91 219.52 300.39 219.64C299.91 219.8 299.51 219.92 299.51 220.2C299.51 220.68 299.63 220.4 299.63 224.84H297.79ZM320.647 236.48C320.807 238.44 320.927 240.32 320.927 242C321.327 241.92 321.727 241.88 321.927 241.88C322.207 241.88 322.447 241.88 322.727 241.96C323.807 242.24 324.887 242.4 326.367 242.4C328.607 242.4 332.727 241.32 332.727 237.36C332.727 234.64 330.767 233.04 328.047 232.04C325.647 231.12 324.047 230.52 324.047 228.32C324.047 226.68 325.487 225.76 326.847 225.76C327.727 225.76 330.047 226.08 330.567 229.48C330.807 229.72 331.607 229.68 331.847 229.44C331.967 228 332.047 226.52 332.087 225.2C330.847 225 328.927 224.44 326.847 224.44C323.887 224.44 321.207 226.36 321.207 228.92C321.207 231.84 322.527 233.08 325.607 234.36C328.927 235.72 329.687 236.56 329.687 238.28C329.687 240.24 327.767 241.08 326.287 241.08C324.727 241.08 323.847 240.56 323.447 240.12C322.567 239.2 322.127 237.44 321.887 236.44C321.647 236.2 320.887 236.24 320.647 236.48ZM349.753 238.28C348.273 239.8 347.113 240.44 344.793 240.44C343.353 240.44 341.673 239.6 340.433 237.56C339.633 236.24 339.153 234.4 339.153 232.08L349.793 232.16C350.273 232.16 350.553 231.92 350.553 231.48C350.553 228.12 349.353 224.52 343.793 224.52C340.313 224.52 335.793 227.84 335.793 233.92C335.793 236.16 336.353 238.32 337.673 239.84C339.033 241.44 340.913 242.4 343.793 242.4C346.833 242.4 348.993 241 350.593 238.92C350.473 238.52 350.233 238.32 349.753 238.28ZM339.273 230.72C340.033 226.2 342.833 225.84 343.793 225.84C345.313 225.84 347.113 226.68 347.113 230.04C347.113 230.4 346.953 230.6 346.513 230.6L339.273 230.72ZM353.923 224.84C353.363 224.84 353.203 225.32 353.203 225.64V226.16C353.203 226.36 353.243 226.4 353.403 226.4H355.763V238.44C355.763 241.28 357.003 242.4 358.843 242.4C360.683 242.4 362.683 241.52 364.243 239.76C364.163 239.36 363.923 239.12 363.523 239.08C362.483 239.88 361.283 240.2 360.243 240.2C359.163 240.2 358.923 239 358.923 236.52V226.4H363.083C363.483 226.4 364.043 226.24 364.043 225.88V225.08C364.043 224.92 363.923 224.84 363.723 224.84H358.923V223.28C358.923 220.68 359.083 219.08 359.083 219.08C359.083 218.84 358.963 218.72 358.763 218.72C358.603 218.72 358.243 218.88 357.883 219.08C357.443 219.32 357.043 219.52 356.523 219.64C356.043 219.8 355.643 219.92 355.643 220.2C355.643 220.68 355.763 220.4 355.763 224.84H353.923ZM376.499 233.8C376.499 237.88 379.219 242.4 384.899 242.4C387.459 242.4 389.419 241.48 390.779 240.16C392.579 238.4 393.379 235.88 393.379 233.44C393.379 229.28 391.099 224.44 384.979 224.44C382.339 224.44 380.179 225.52 378.699 227.24C377.259 228.96 376.499 231.28 376.499 233.8ZM384.379 225.84C387.819 225.84 389.939 228.96 389.939 234.72C389.939 239.76 387.339 241 385.459 241C381.299 241 379.939 235.96 379.939 232.88C379.939 229.4 380.779 225.84 384.379 225.84ZM402.016 237.12V226.4H405.736C406.096 226.4 406.656 226.24 406.656 225.88V225.08C406.656 224.92 406.536 224.84 406.336 224.84H402.016V222.56C402.016 216.4 403.856 215.44 405.176 215.44C406.376 215.44 407.016 215.92 407.576 217.32C407.896 218.04 408.336 218.6 409.176 218.6C409.856 218.6 410.816 217.76 410.816 216.96C410.816 216.28 410.376 215.56 409.536 214.92C408.496 214.2 407.456 214.08 405.936 214.08C402.576 214.08 398.856 217 398.856 223.24V224.84H396.816C396.096 224.84 395.896 225.32 395.896 225.64V226.16C395.896 226.36 395.936 226.4 396.096 226.4H398.856V237.12C398.856 240.44 398.216 240.6 396.056 240.76C395.816 241 395.816 241.84 396.056 242.08C397.456 242.04 398.856 242 400.456 242C402.056 242 403.976 242.04 405.376 242.08C405.616 241.84 405.616 241 405.376 240.76C402.256 240.6 402.016 240.44 402.016 237.12ZM419.318 236.48C419.478 238.44 419.598 240.32 419.598 242C419.998 241.92 420.398 241.88 420.598 241.88C420.878 241.88 421.118 241.88 421.398 241.96C422.478 242.24 423.558 242.4 425.038 242.4C427.278 242.4 431.398 241.32 431.398 237.36C431.398 234.64 429.438 233.04 426.718 232.04C424.318 231.12 422.718 230.52 422.718 228.32C422.718 226.68 424.158 225.76 425.518 225.76C426.398 225.76 428.718 226.08 429.238 229.48C429.478 229.72 430.278 229.68 430.518 229.44C430.638 228 430.718 226.52 430.758 225.2C429.518 225 427.598 224.44 425.518 224.44C422.558 224.44 419.878 226.36 419.878 228.92C419.878 231.84 421.198 233.08 424.278 234.36C427.598 235.72 428.358 236.56 428.358 238.28C428.358 240.24 426.438 241.08 424.958 241.08C423.398 241.08 422.518 240.56 422.118 240.12C421.238 239.2 420.798 237.44 420.558 236.44C420.318 236.2 419.558 236.24 419.318 236.48ZM440.224 237.12V229.16C440.224 227.16 440.384 224.6 440.384 224.6C440.384 224.44 440.184 224.32 439.864 224.32C438.744 224.76 437.144 225.12 434.384 225.48C434.304 225.72 434.384 226.36 434.464 226.6C436.664 226.8 437.064 227.04 437.064 229.32V237.12C437.064 240.44 436.624 240.56 434.184 240.76C433.944 241 433.944 241.84 434.184 242.08C435.504 242.04 437.064 242 438.664 242C440.264 242 441.784 242.04 443.104 242.08C443.344 241.84 443.344 241 443.104 240.76C440.664 240.6 440.224 240.44 440.224 237.12ZM436.584 218.04C436.584 219.08 437.544 220.12 438.504 220.12C439.624 220.12 440.584 219.04 440.584 218.2C440.584 217.24 439.744 216.12 438.664 216.12C437.704 216.12 436.584 217.08 436.584 218.04ZM446.684 224.44C446.604 224.44 446.444 224.6 446.444 224.68C446.404 226.48 446.204 227.88 445.844 229.84C446.204 230 446.684 230.08 447.164 229.96C447.964 227.04 449.204 226.36 450.404 226.32L455.524 226.2C452.804 230.76 448.804 236.52 445.684 240.72C445.324 241.2 445.324 241.32 445.324 241.52C445.324 241.8 445.644 242 446.244 242L458.724 242.12C459.204 240.76 459.724 238.68 460.004 236.68C459.764 236.52 459.284 236.44 458.804 236.44L458.244 237.6C457.244 239.72 456.404 240.6 454.324 240.64H449.004C451.964 236.88 456.124 230.6 458.604 226.52C459.204 225.52 459.324 225.2 459.324 225.04C459.324 224.88 459.124 224.76 458.844 224.76C458.644 224.76 457.524 224.84 456.364 224.84H449.044C447.764 224.84 447.284 224.64 446.684 224.44ZM476.237 238.28C474.757 239.8 473.597 240.44 471.277 240.44C469.837 240.44 468.157 239.6 466.917 237.56C466.117 236.24 465.637 234.4 465.637 232.08L476.277 232.16C476.757 232.16 477.037 231.92 477.037 231.48C477.037 228.12 475.837 224.52 470.277 224.52C466.797 224.52 462.277 227.84 462.277 233.92C462.277 236.16 462.837 238.32 464.157 239.84C465.517 241.44 467.397 242.4 470.277 242.4C473.317 242.4 475.477 241 477.077 238.92C476.957 238.52 476.717 238.32 476.237 238.28ZM465.757 230.72C466.517 226.2 469.317 225.84 470.277 225.84C471.797 225.84 473.597 226.68 473.597 230.04C473.597 230.4 473.437 230.6 472.997 230.6L465.757 230.72ZM492.248 239.12C492.048 239.92 491.728 240.92 491.728 241.32C491.728 241.96 492.088 242.4 493.368 242.4C494.888 242.4 494.888 240.6 495.208 239.12L496.648 232.64C496.968 232.52 497.248 232.52 497.528 232.52C497.848 232.52 498.128 232.8 498.328 233.16C499.048 234.44 499.488 236.48 500.288 238.28C501.608 241.16 502.608 242.4 504.248 242.4C505.608 242.4 507.008 241.16 508.288 238.92C508.008 238.6 507.848 238.4 507.408 238.4C506.608 239.56 505.768 240.32 505.328 240.32C504.568 240.32 504.288 239.6 503.888 238.8C502.768 236.6 502.248 235.04 501.688 233.92C501.048 232.68 500.808 232.12 499.488 231.76V231.6L501.568 229.76C503.528 228 504.608 227.28 505.408 227.28C506.448 227.28 506.288 227.84 507.648 227.84C508.208 227.84 509.488 227.08 509.488 225.84C509.488 224.72 508.608 224.44 507.528 224.44C506.248 224.44 503.808 225.96 500.928 228.52L499.328 229.88C498.648 230.48 497.808 231.12 496.968 231.12L499.848 218.68C500.447 216.08 500.848 214.48 500.848 214.48C500.848 214.2 500.728 214.08 500.368 214.08C499.288 214.48 496.408 215 494.768 215.12L494.648 216.08C494.648 216.2 494.688 216.28 494.848 216.28L496.088 216.36C496.608 216.36 496.928 216.6 496.928 217.48C496.928 217.92 496.848 218.6 496.648 219.48L492.248 239.12ZM510.941 239.6C510.941 240.76 511.901 241.72 513.061 241.72C514.221 241.72 515.181 240.76 515.181 239.6C515.181 238.44 514.221 237.48 513.061 237.48C511.901 237.48 510.941 238.44 510.941 239.6ZM510.941 227.68C510.941 228.84 511.901 229.8 513.061 229.8C514.221 229.8 515.181 228.84 515.181 227.68C515.181 226.52 514.221 225.56 513.061 225.56C511.901 225.56 510.941 226.52 510.941 227.68Z" fill="black"/>
<g id="\exists v_1 \cdots \ \exists v_k \bigwedge_{i \neq j} \neg E(x,y)" clip-path="url(#clip0)">
<g id="page1">
<path id="Vector" d="M121.562 288.256C121.562 287.097 121.457 286.992 120.333 286.992H107.161C106.564 286.992 105.932 286.992 105.932 287.694C105.932 288.397 106.564 288.397 107.161 288.397H120.157V298.478H107.653C107.056 298.478 106.424 298.478 106.424 299.18C106.424 299.883 107.056 299.883 107.653 299.883H120.157V309.963H107.161C106.564 309.963 105.932 309.963 105.932 310.666C105.932 311.368 106.564 311.368 107.161 311.368H120.333C121.457 311.368 121.562 311.263 121.562 310.104V288.256Z" fill="black"/>
<path id="Vector_2" d="M139.565 298.232C139.565 296.019 138.441 295.878 138.16 295.878C137.317 295.878 136.545 296.721 136.545 297.424C136.545 297.845 136.791 298.091 136.931 298.232C137.282 298.548 138.196 299.496 138.196 301.323C138.196 302.798 136.088 311.017 131.873 311.017C129.731 311.017 129.309 309.226 129.309 307.926C129.309 306.17 130.117 303.711 131.065 301.182C131.627 299.742 131.768 299.391 131.768 298.688C131.768 297.213 130.714 295.878 128.993 295.878C125.762 295.878 124.462 300.971 124.462 301.252C124.462 301.393 124.602 301.569 124.848 301.569C125.164 301.569 125.2 301.428 125.34 300.936C126.183 297.916 127.553 296.581 128.888 296.581C129.204 296.581 129.801 296.581 129.801 297.74C129.801 298.653 129.414 299.672 128.888 301.007C127.202 305.502 127.202 306.591 127.202 307.434C127.202 308.207 127.307 309.647 128.396 310.631C129.66 311.719 131.417 311.719 131.733 311.719C137.563 311.719 139.565 300.234 139.565 298.232Z" fill="black"/>
<path id="Vector_3" d="M147.493 301.721C147.493 301.088 147.446 301.065 146.814 301.065C145.854 302.002 144.613 302.564 142.389 302.564V303.336C143.021 303.336 144.285 303.336 145.643 302.704V314.717C145.643 315.583 145.573 315.864 143.349 315.864H142.529V316.637C143.489 316.567 145.503 316.567 146.557 316.567C147.61 316.567 149.648 316.567 150.608 316.637V315.864H149.788C147.564 315.864 147.493 315.583 147.493 314.717V301.721Z" fill="black"/>
<path id="Vector_4" d="M166.642 302.587C166.642 301.569 165.799 300.726 164.78 300.726C163.762 300.726 162.919 301.569 162.919 302.587C162.919 303.606 163.762 304.449 164.78 304.449C165.799 304.449 166.642 303.606 166.642 302.587Z" fill="black"/>
<path id="Vector_5" d="M182.253 302.587C182.253 301.569 181.41 300.726 180.391 300.726C179.372 300.726 178.529 301.569 178.529 302.587C178.529 303.606 179.372 304.449 180.391 304.449C181.41 304.449 182.253 303.606 182.253 302.587Z" fill="black"/>
<path id="Vector_6" d="M197.863 302.587C197.863 301.569 197.02 300.726 196.002 300.726C194.983 300.726 194.14 301.569 194.14 302.587C194.14 303.606 194.983 304.449 196.002 304.449C197.02 304.449 197.863 303.606 197.863 302.587Z" fill="black"/>
<path id="Vector_7" d="M235.756 288.256C235.756 287.097 235.651 286.992 234.527 286.992H221.355C220.758 286.992 220.126 286.992 220.126 287.694C220.126 288.397 220.758 288.397 221.355 288.397H234.351V298.478H221.847C221.25 298.478 220.618 298.478 220.618 299.18C220.618 299.883 221.25 299.883 221.847 299.883H234.351V309.963H221.355C220.758 309.963 220.126 309.963 220.126 310.666C220.126 311.368 220.758 311.368 221.355 311.368H234.527C235.651 311.368 235.756 311.263 235.756 310.104V288.256Z" fill="black"/>
<path id="Vector_8" d="M253.76 298.232C253.76 296.019 252.636 295.878 252.355 295.878C251.512 295.878 250.739 296.721 250.739 297.424C250.739 297.845 250.985 298.091 251.125 298.232C251.476 298.548 252.39 299.496 252.39 301.323C252.39 302.798 250.282 311.017 246.067 311.017C243.925 311.017 243.503 309.226 243.503 307.926C243.503 306.17 244.311 303.711 245.259 301.182C245.821 299.742 245.962 299.391 245.962 298.688C245.962 297.213 244.908 295.878 243.187 295.878C239.956 295.878 238.656 300.971 238.656 301.252C238.656 301.393 238.797 301.569 239.042 301.569C239.359 301.569 239.394 301.428 239.534 300.936C240.377 297.916 241.747 296.581 243.082 296.581C243.398 296.581 243.995 296.581 243.995 297.74C243.995 298.653 243.609 299.672 243.082 301.007C241.396 305.502 241.396 306.591 241.396 307.434C241.396 308.207 241.501 309.647 242.59 310.631C243.855 311.719 245.611 311.719 245.927 311.719C251.757 311.719 253.76 300.234 253.76 298.232Z" fill="black"/>
<path id="Vector_9" d="M261.172 301.088C261.196 301.042 261.266 300.737 261.266 300.714C261.266 300.597 261.172 300.386 260.891 300.386C260.798 300.386 260.072 300.456 259.533 300.503L258.222 300.597C257.707 300.644 257.472 300.667 257.472 301.088C257.472 301.416 257.8 301.416 258.081 301.416C259.205 301.416 259.205 301.557 259.205 301.768C259.205 301.838 259.205 301.885 259.088 302.306L255.763 315.63C255.669 315.981 255.669 316.122 255.669 316.145C255.669 316.543 255.997 316.871 256.442 316.871C257.238 316.871 257.426 316.122 257.519 315.794C257.753 314.81 258.362 312.328 258.62 311.345C259.908 311.485 261.477 311.93 261.477 313.265C261.477 313.382 261.477 313.499 261.43 313.733C261.36 314.038 261.313 314.365 261.313 314.483C261.313 315.864 262.343 316.871 263.701 316.871C264.685 316.871 265.293 316.145 265.598 315.7C266.16 314.834 266.535 313.429 266.535 313.288C266.535 313.054 266.347 312.984 266.183 312.984C265.902 312.984 265.855 313.124 265.762 313.546C265.457 314.646 264.849 316.215 263.748 316.215C263.139 316.215 262.999 315.7 262.999 315.068C262.999 314.764 263.022 314.483 263.139 313.944C263.163 313.85 263.256 313.476 263.256 313.218C263.256 311.298 260.844 310.876 259.65 310.713C260.517 310.197 261.313 309.401 261.594 309.097C262.882 307.832 263.935 306.966 265.059 306.966C265.364 306.966 265.645 307.036 265.832 307.27C264.568 307.434 264.568 308.535 264.568 308.558C264.568 309.073 264.966 309.425 265.481 309.425C266.113 309.425 266.816 308.909 266.816 307.949C266.816 307.153 266.254 306.31 265.083 306.31C263.725 306.31 262.507 307.341 261.172 308.675C259.814 310.01 259.229 310.268 258.854 310.432L261.172 301.088Z" fill="black"/>
<path id="Vector_10" d="M309.404 325.839C309.58 326.331 309.861 327.174 310.879 327.174C311.722 327.174 312.355 326.507 312.355 325.699C312.355 325.523 312.355 325.453 312.144 324.891L296.162 278.808C295.916 278.316 295.39 278 294.828 278C293.809 278 293.493 278.843 293.352 279.3L277.511 324.891C277.301 325.453 277.301 325.523 277.301 325.699C277.301 326.542 277.968 327.174 278.776 327.174C279.794 327.174 280.04 326.366 280.216 325.91L294.828 283.901L309.404 325.839Z" fill="black"/>
<path id="Vector_11" d="M282.209 338.19C282.209 337.675 281.834 337.301 281.295 337.301C280.687 337.301 280.008 337.863 280.008 338.565C280.008 339.08 280.382 339.455 280.921 339.455C281.53 339.455 282.209 338.893 282.209 338.19ZM278.79 346.784L277.525 350.016C277.408 350.367 277.291 350.648 277.291 351.046C277.291 352.193 278.181 353.036 279.422 353.036C281.693 353.036 282.654 349.758 282.654 349.454C282.654 349.219 282.466 349.149 282.302 349.149C282.021 349.149 281.974 349.313 281.904 349.547C281.366 351.42 280.406 352.381 279.469 352.381C279.188 352.381 278.907 352.263 278.907 351.631C278.907 351.069 279.071 350.648 279.375 349.922C279.609 349.29 279.844 348.657 280.101 348.025L280.827 346.128C281.038 345.59 281.319 344.864 281.319 344.466C281.319 343.295 280.382 342.476 279.188 342.476C276.917 342.476 275.933 345.754 275.933 346.058C275.933 346.269 276.097 346.363 276.284 346.363C276.589 346.363 276.612 346.222 276.682 345.988C277.338 343.763 278.415 343.131 279.118 343.131C279.446 343.131 279.68 343.248 279.68 343.904C279.68 344.138 279.656 344.466 279.422 345.168L278.79 346.784Z" fill="black"/>
<path id="Vector_12" d="M299.39 337.043C299.577 336.739 299.577 336.692 299.577 336.598C299.577 336.341 299.367 336.06 299.039 336.06C298.758 336.06 298.617 336.247 298.453 336.528L287.331 356.853C287.143 357.158 287.143 357.204 287.143 357.298C287.143 357.556 287.354 357.837 287.682 357.837C287.963 357.837 288.103 357.649 288.267 357.368L299.39 337.043Z" fill="black"/>
<path id="Vector_13" d="M300.818 345.005C301.17 345.005 301.638 345.005 301.638 344.466C301.638 343.927 301.076 343.927 300.725 343.927H285.996C285.645 343.927 285.083 343.927 285.083 344.466C285.083 345.005 285.551 345.005 285.902 345.005H300.818ZM300.725 349.969C301.076 349.969 301.638 349.969 301.638 349.43C301.638 348.892 301.17 348.892 300.818 348.892H285.902C285.551 348.892 285.083 348.892 285.083 349.43C285.083 349.969 285.645 349.969 285.996 349.969H300.725Z" fill="black"/>
<path id="Vector_14" d="M312.723 338.19C312.723 337.745 312.372 337.301 311.81 337.301C311.107 337.301 310.499 337.956 310.499 338.565C310.499 339.01 310.85 339.455 311.412 339.455C312.114 339.455 312.723 338.799 312.723 338.19ZM307.829 353.973C307.478 355.401 306.331 356.923 304.902 356.923C304.528 356.923 304.176 356.83 304.129 356.806C304.855 356.455 304.949 355.823 304.949 355.612C304.949 355.05 304.528 354.746 304.036 354.746C303.357 354.746 302.724 355.331 302.724 356.104C302.724 356.994 303.591 357.579 304.926 357.579C306.354 357.579 308.93 356.689 309.632 353.879L311.74 345.496C311.81 345.215 311.857 345.028 311.857 344.677C311.857 343.389 310.826 342.476 309.468 342.476C306.986 342.476 305.534 345.754 305.534 346.058C305.534 346.269 305.698 346.363 305.886 346.363C306.143 346.363 306.167 346.292 306.331 345.941C307.033 344.325 308.227 343.131 309.398 343.131C309.89 343.131 310.171 343.459 310.171 344.232C310.171 344.56 310.101 344.887 310.03 345.215L307.829 353.973Z" fill="black"/>
<path id="Vector_15" d="M341.779 300.128C341.779 298.969 341.673 298.864 340.549 298.864H323.479C322.882 298.864 322.25 298.864 322.25 299.567C322.25 300.269 322.882 300.269 323.479 300.269H340.374V306.978C340.374 307.61 340.374 308.242 341.076 308.242C341.779 308.242 341.779 307.61 341.779 306.978V300.128Z" fill="black"/>
<path id="Vector_16" d="M368.145 303.219C368.18 303.114 368.286 302.868 368.286 302.728C368.286 302.552 368.145 302.376 367.935 302.376C367.794 302.376 367.724 302.412 367.618 302.517C367.548 302.552 367.548 302.622 367.232 303.325C365.16 308.242 363.649 310.35 358.029 310.35H352.901C352.41 310.35 352.339 310.35 352.129 310.315C351.742 310.279 351.707 310.209 351.707 309.928C351.707 309.682 351.777 309.472 351.848 309.155L354.271 299.461H357.748C360.488 299.461 360.699 300.058 360.699 301.112C360.699 301.463 360.699 301.779 360.453 302.833C360.383 302.974 360.348 303.114 360.348 303.219C360.348 303.465 360.523 303.571 360.734 303.571C361.05 303.571 361.085 303.325 361.226 302.833L363.228 294.684C363.228 294.509 363.087 294.333 362.877 294.333C362.561 294.333 362.525 294.473 362.385 294.965C361.682 297.67 360.98 298.443 357.854 298.443H354.517L356.695 289.802C357.011 288.573 357.081 288.467 358.521 288.467H363.544C367.864 288.467 368.742 289.626 368.742 292.296C368.742 292.331 368.742 293.314 368.602 294.473C368.567 294.614 368.532 294.825 368.532 294.895C368.532 295.176 368.707 295.281 368.918 295.281C369.164 295.281 369.304 295.141 369.375 294.509L370.112 288.362C370.112 288.256 370.182 287.905 370.182 287.835C370.182 287.449 369.866 287.449 369.234 287.449H352.093C351.426 287.449 351.075 287.449 351.075 288.081C351.075 288.467 351.321 288.467 351.918 288.467C354.096 288.467 354.096 288.713 354.096 289.099C354.096 289.275 354.06 289.416 353.955 289.802L349.213 308.769C348.897 309.998 348.827 310.35 346.368 310.35C345.701 310.35 345.35 310.35 345.35 310.982C345.35 311.368 345.56 311.368 346.263 311.368H363.895C364.668 311.368 364.703 311.333 364.949 310.771L368.145 303.219Z" fill="black"/>
<path id="Vector_17" d="M382.667 319.903C382.667 319.798 382.667 319.728 382.07 319.131C378.558 315.583 376.591 309.788 376.591 302.622C376.591 295.808 378.241 289.942 382.316 285.798C382.667 285.482 382.667 285.411 382.667 285.306C382.667 285.095 382.492 285.025 382.351 285.025C381.894 285.025 379.014 287.554 377.293 290.996C375.502 294.544 374.694 298.302 374.694 302.622C374.694 305.748 375.186 309.928 377.012 313.686C379.084 317.901 381.965 320.184 382.351 320.184C382.492 320.184 382.667 320.114 382.667 319.903Z" fill="black"/>
<path id="Vector_18" d="M401.275 297.038C400.151 297.248 399.73 298.091 399.73 298.759C399.73 299.602 400.397 299.883 400.889 299.883C401.943 299.883 402.68 298.969 402.68 298.021C402.68 296.546 400.994 295.878 399.519 295.878C397.377 295.878 396.182 297.986 395.866 298.653C395.058 296.019 392.881 295.878 392.248 295.878C388.666 295.878 386.769 300.48 386.769 301.252C386.769 301.393 386.91 301.569 387.155 301.569C387.436 301.569 387.507 301.358 387.577 301.217C388.771 297.319 391.124 296.581 392.143 296.581C393.724 296.581 394.04 298.056 394.04 298.899C394.04 299.672 393.829 300.48 393.408 302.166L392.213 306.978C391.686 309.085 390.668 311.017 388.806 311.017C388.631 311.017 387.753 311.017 387.015 310.56C388.279 310.314 388.56 309.261 388.56 308.839C388.56 308.137 388.034 307.715 387.366 307.715C386.523 307.715 385.61 308.453 385.61 309.577C385.61 311.052 387.261 311.719 388.771 311.719C390.457 311.719 391.651 310.385 392.389 308.945C392.951 311.017 394.707 311.719 396.007 311.719C399.589 311.719 401.486 307.118 401.486 306.345C401.486 306.17 401.346 306.029 401.135 306.029C400.819 306.029 400.784 306.205 400.678 306.486C399.73 309.577 397.693 311.017 396.112 311.017C394.883 311.017 394.215 310.104 394.215 308.664C394.215 307.891 394.356 307.329 394.918 305.011L396.147 300.234C396.674 298.126 397.868 296.581 399.484 296.581C399.554 296.581 400.538 296.581 401.275 297.038Z" fill="black"/>
<path id="Vector_19" d="M411.02 311.509C411.02 309.472 410.352 307.961 408.912 307.961C407.788 307.961 407.226 308.874 407.226 309.647C407.226 310.42 407.753 311.368 408.947 311.368C409.404 311.368 409.79 311.228 410.106 310.912C410.177 310.841 410.212 310.841 410.247 310.841C410.317 310.841 410.317 311.333 410.317 311.509C410.317 312.668 410.106 314.951 408.069 317.234C407.683 317.655 407.683 317.726 407.683 317.796C407.683 317.972 407.858 318.147 408.034 318.147C408.315 318.147 411.02 315.548 411.02 311.509Z" fill="black"/>
<path id="Vector_20" d="M428.815 315.302C427.867 316.637 426.497 317.831 424.776 317.831C424.355 317.831 422.669 317.761 422.142 316.145C422.247 316.18 422.423 316.18 422.493 316.18C423.547 316.18 424.249 315.267 424.249 314.459C424.249 313.651 423.582 313.37 423.055 313.37C422.493 313.37 421.264 313.792 421.264 315.513C421.264 317.304 422.774 318.534 424.776 318.534C428.288 318.534 431.836 315.302 432.82 311.403L436.262 297.705C436.297 297.529 436.367 297.319 436.367 297.108C436.367 296.581 435.946 296.23 435.419 296.23C435.103 296.23 434.365 296.37 434.084 297.424L431.485 307.75C431.309 308.383 431.309 308.453 431.028 308.839C430.326 309.823 429.167 311.017 427.481 311.017C425.514 311.017 425.338 309.085 425.338 308.137C425.338 306.135 426.286 303.43 427.235 300.901C427.621 299.883 427.832 299.391 427.832 298.688C427.832 297.213 426.778 295.878 425.057 295.878C421.826 295.878 420.526 300.971 420.526 301.252C420.526 301.393 420.667 301.569 420.912 301.569C421.229 301.569 421.264 301.428 421.404 300.936C422.247 297.986 423.582 296.581 424.952 296.581C425.268 296.581 425.865 296.581 425.865 297.74C425.865 298.653 425.479 299.672 424.952 301.007C423.231 305.608 423.231 306.767 423.231 307.61C423.231 310.947 425.619 311.719 427.375 311.719C428.394 311.719 429.658 311.403 430.888 310.104L430.923 310.139C430.396 312.211 430.045 313.581 428.815 315.302Z" fill="black"/>
<path id="Vector_21" d="M447.512 302.622C447.512 299.953 447.161 295.597 445.194 291.523C443.122 287.308 440.241 285.025 439.855 285.025C439.715 285.025 439.539 285.095 439.539 285.306C439.539 285.411 439.539 285.482 440.136 286.079C443.649 289.626 445.616 295.422 445.616 302.587C445.616 309.401 443.965 315.267 439.89 319.412C439.539 319.728 439.539 319.798 439.539 319.903C439.539 320.114 439.715 320.184 439.855 320.184C440.312 320.184 443.192 317.655 444.913 314.213C446.704 310.631 447.512 306.837 447.512 302.622Z" fill="black"/>
</g>
</g>
</g>
<g id="311:13">
<path id="Dominating set of size k:" d="M109.92 509.2C108.48 509.2 106.36 509.16 104.76 509.12C104.52 509.36 104.52 510.2 104.76 510.44C107.56 510.56 108.24 510.76 108.24 514.08V530.12C108.24 533.44 107.56 533.64 104.76 533.76C104.52 534 104.52 534.84 104.76 535.08C106.32 535.04 108.44 535 109.96 535C111.44 535 113.12 535.08 117.24 535.08C122.88 535.08 130.32 532.52 130.32 522.68C130.32 515.24 124.2 509.12 116.52 509.12C113.68 509.12 111.48 509.2 109.92 509.2ZM111.64 531.64V512.44C111.64 511.04 113.04 510.48 115 510.48C123.64 510.48 126.48 517.48 126.48 523.64C126.48 531.72 121.64 533.72 116 533.72C112.08 533.72 111.64 532.92 111.64 531.64ZM133.687 526.8C133.687 530.88 136.407 535.4 142.087 535.4C144.647 535.4 146.607 534.48 147.967 533.16C149.767 531.4 150.567 528.88 150.567 526.44C150.567 522.28 148.287 517.44 142.167 517.44C139.527 517.44 137.367 518.52 135.887 520.24C134.447 521.96 133.687 524.28 133.687 526.8ZM141.567 518.84C145.007 518.84 147.127 521.96 147.127 527.72C147.127 532.76 144.527 534 142.647 534C138.487 534 137.127 528.96 137.127 525.88C137.127 522.4 137.967 518.84 141.567 518.84ZM159.003 520.68C158.963 519.48 158.883 518.04 158.683 517.64C158.603 517.44 158.523 517.32 158.203 517.32C157.083 517.76 156.043 518.12 153.283 518.48C153.203 518.72 153.283 519.36 153.363 519.6C155.523 519.8 155.963 520 155.963 522.32V530.12C155.963 533.4 155.443 533.6 153.243 533.76C153.003 534 153.003 534.84 153.243 535.08C154.443 535.04 155.963 535 157.563 535C159.163 535 160.403 535.04 161.603 535.08C161.843 534.84 161.843 534 161.603 533.76C159.563 533.56 159.123 533.4 159.123 530.12V523.56C159.123 522.72 159.483 522.24 159.803 521.88C161.403 520.32 162.883 519.52 164.123 519.52C165.643 519.52 166.763 520.48 166.763 523.16V530.12C166.763 533.4 166.443 533.6 164.283 533.76C164.083 534 164.083 534.84 164.283 535.08C165.283 535.04 166.763 535 168.363 535C169.963 535 171.283 535.04 172.283 535.08C172.483 534.84 172.483 534 172.283 533.76C170.283 533.6 169.923 533.4 169.923 530.12V523.76C169.923 523.2 169.923 522.64 169.883 522.16C171.803 520.04 173.603 519.52 175.163 519.52C176.683 519.52 177.563 520.4 177.563 523.08V530.12C177.563 533.4 177.163 533.6 175.083 533.76C174.883 534 174.883 534.84 175.083 535.08C176.083 535.04 177.563 535 179.163 535C180.763 535 182.163 535.04 183.283 535.08C183.483 534.84 183.483 534 183.283 533.76C181.083 533.6 180.723 533.4 180.723 530.12V523.8C180.723 520.24 180.123 517.44 176.603 517.44C174.563 517.44 172.083 518.2 170.003 520.4C169.883 520.52 169.643 520.72 169.563 520.36C169.203 518.72 167.643 517.44 165.563 517.44C163.243 517.44 161.163 518.8 159.483 520.68C159.283 520.88 159.043 521.16 159.003 520.68ZM191.045 530.12V522.16C191.045 520.16 191.205 517.6 191.205 517.6C191.205 517.44 191.005 517.32 190.685 517.32C189.565 517.76 187.965 518.12 185.205 518.48C185.125 518.72 185.205 519.36 185.285 519.6C187.485 519.8 187.885 520.04 187.885 522.32V530.12C187.885 533.44 187.445 533.56 185.005 533.76C184.765 534 184.765 534.84 185.005 535.08C186.325 535.04 187.885 535 189.485 535C191.085 535 192.605 535.04 193.925 535.08C194.165 534.84 194.165 534 193.925 533.76C191.485 533.6 191.045 533.44 191.045 530.12ZM187.405 511.04C187.405 512.08 188.365 513.12 189.325 513.12C190.445 513.12 191.405 512.04 191.405 511.2C191.405 510.24 190.565 509.12 189.485 509.12C188.525 509.12 187.405 510.08 187.405 511.04ZM202.024 520.68C201.784 520.96 201.544 521.04 201.544 520.68C201.504 519.6 201.424 518.04 201.224 517.64C201.144 517.44 201.064 517.32 200.744 517.32C199.624 517.76 198.584 518.12 195.824 518.48C195.744 518.72 195.824 519.36 195.904 519.6C198.064 519.8 198.504 520 198.504 522.32V530.12C198.504 533.4 198.104 533.56 195.704 533.76C195.464 534 195.464 534.84 195.704 535.08C196.904 535.04 198.504 535 200.104 535C201.704 535 202.904 535.04 204.104 535.08C204.344 534.84 204.344 534 204.104 533.76C202.064 533.56 201.664 533.4 201.664 530.12V523.56C201.664 522.72 202.024 522.24 202.344 521.88C203.864 520.4 205.664 519.52 207.224 519.52C208.024 519.52 208.864 520.04 209.344 520.96C209.744 521.76 209.824 522.84 209.824 524.04V530.12C209.824 533.4 209.424 533.56 207.344 533.76C207.144 534 207.144 534.84 207.344 535.08C208.544 535.04 209.824 535 211.424 535C213.024 535 214.464 535.04 215.664 535.08C215.864 534.84 215.864 534 215.664 533.76C213.424 533.56 212.984 533.4 212.984 530.12V524.16C212.984 521.96 212.824 520.04 211.904 518.8C211.224 517.92 209.984 517.44 208.584 517.44C206.624 517.44 204.384 517.96 202.024 520.68ZM228.064 533.08C228.304 534.32 228.744 535.4 230.744 535.4C232.264 535.4 233.704 534.72 234.544 533.92C234.464 533.44 234.304 533.08 233.864 532.84C233.584 533.08 232.904 533.48 232.384 533.48C231.224 533.48 231.184 531.92 231.184 530.08V524.2C231.184 518.52 228.064 517.44 225.144 517.44C221.864 517.44 218.544 519.6 218.544 521.88C218.544 522.84 219.024 523.32 219.944 523.32C221.104 523.32 221.824 522.48 221.824 521.96C221.824 521.68 221.784 521.4 221.704 521.24C221.664 521.12 221.624 520.88 221.624 520.44C221.624 519.2 223.304 518.76 224.824 518.76C226.184 518.76 228.064 519.44 228.064 523.96C228.064 524.24 227.944 524.4 227.824 524.44L224.384 525.28C220.544 526.24 217.784 528.36 217.784 531.08C217.784 534.36 220.024 535.4 222.824 535.4C224.224 535.4 225.424 535.08 227.184 533.72L227.984 533.08H228.064ZM228.064 525.68V530.96C228.064 531.48 227.824 531.76 227.504 532C226.464 532.84 225.104 533.76 223.984 533.76C221.984 533.76 221.104 532.16 221.104 530.92C221.104 529.12 221.944 527.28 224.904 526.52L228.064 525.68ZM236.345 517.84C235.785 517.84 235.625 518.32 235.625 518.64V519.16C235.625 519.36 235.665 519.4 235.825 519.4H238.185V531.44C238.185 534.28 239.425 535.4 241.265 535.4C243.105 535.4 245.105 534.52 246.665 532.76C246.585 532.36 246.345 532.12 245.945 532.08C244.905 532.88 243.705 533.2 242.665 533.2C241.585 533.2 241.345 532 241.345 529.52V519.4H245.505C245.905 519.4 246.465 519.24 246.465 518.88V518.08C246.465 517.92 246.345 517.84 246.145 517.84H241.345V516.28C241.345 513.68 241.505 512.08 241.505 512.08C241.505 511.84 241.385 511.72 241.185 511.72C241.025 511.72 240.665 511.88 240.305 512.08C239.865 512.32 239.465 512.52 238.945 512.64C238.465 512.8 238.065 512.92 238.065 513.2C238.065 513.68 238.185 513.4 238.185 517.84H236.345ZM254.521 530.12V522.16C254.521 520.16 254.681 517.6 254.681 517.6C254.681 517.44 254.481 517.32 254.161 517.32C253.041 517.76 251.441 518.12 248.681 518.48C248.601 518.72 248.681 519.36 248.761 519.6C250.961 519.8 251.361 520.04 251.361 522.32V530.12C251.361 533.44 250.921 533.56 248.481 533.76C248.241 534 248.241 534.84 248.481 535.08C249.801 535.04 251.361 535 252.961 535C254.561 535 256.081 535.04 257.401 535.08C257.641 534.84 257.641 534 257.401 533.76C254.961 533.6 254.521 533.44 254.521 530.12ZM250.881 511.04C250.881 512.08 251.841 513.12 252.801 513.12C253.921 513.12 254.881 512.04 254.881 511.2C254.881 510.24 254.041 509.12 252.961 509.12C252.001 509.12 250.881 510.08 250.881 511.04ZM265.501 520.68C265.261 520.96 265.021 521.04 265.021 520.68C264.981 519.6 264.901 518.04 264.701 517.64C264.621 517.44 264.541 517.32 264.221 517.32C263.101 517.76 262.061 518.12 259.301 518.48C259.221 518.72 259.301 519.36 259.381 519.6C261.541 519.8 261.981 520 261.981 522.32V530.12C261.981 533.4 261.581 533.56 259.181 533.76C258.941 534 258.941 534.84 259.181 535.08C260.381 535.04 261.981 535 263.581 535C265.181 535 266.381 535.04 267.581 535.08C267.821 534.84 267.821 534 267.581 533.76C265.541 533.56 265.141 533.4 265.141 530.12V523.56C265.141 522.72 265.501 522.24 265.821 521.88C267.341 520.4 269.141 519.52 270.701 519.52C271.501 519.52 272.341 520.04 272.821 520.96C273.221 521.76 273.301 522.84 273.301 524.04V530.12C273.301 533.4 272.901 533.56 270.821 533.76C270.621 534 270.621 534.84 270.821 535.08C272.021 535.04 273.301 535 274.901 535C276.501 535 277.941 535.04 279.141 535.08C279.341 534.84 279.341 534 279.141 533.76C276.901 533.56 276.461 533.4 276.461 530.12V524.16C276.461 521.96 276.301 520.04 275.381 518.8C274.701 517.92 273.461 517.44 272.061 517.44C270.101 517.44 267.861 517.96 265.501 520.68ZM297.58 519.52C298.34 519.52 299.06 518.8 299.06 518C299.06 517.16 298.3 516.52 297.22 516.52C296.18 516.52 294.26 517.2 293.22 518.56C292.74 518.24 291.42 517.44 289.06 517.44C285.5 517.44 282.22 519.84 282.22 523.52C282.22 525.68 283.18 526.92 284.3 528C283.18 528.96 282.54 530.68 282.54 532.04C282.54 533.48 283.34 534.6 284.38 535.12C282.22 536.4 281.1 538.24 281.1 539.96C281.1 543.44 284.38 544.52 287.46 544.52C292.86 544.52 298.7 541.92 298.7 537.6C298.7 536.32 298.1 535.32 296.94 534.36C295.38 533.08 292.58 533.04 291.1 533.04C290.38 533.04 289.38 533.12 288.42 533.24C287.82 533.28 287.42 533.32 287.22 533.32C286.06 533.32 284.66 532.76 284.66 531.04C284.66 530.24 284.9 529.4 285.38 528.72C286.34 529.28 287.46 529.56 289.02 529.56C292.54 529.56 295.78 527.36 295.78 523.44C295.78 521.56 295.22 520.48 294.06 519.28C294.34 518.88 295.14 518.32 295.66 518.32C295.94 518.32 296.22 518.44 296.46 518.8C296.62 519.12 297.14 519.52 297.58 519.52ZM285.1 535.4C285.54 535.52 286.18 535.6 286.7 535.6C287.94 535.6 289.06 535.48 289.62 535.48C291.62 535.48 293.3 535.52 294.46 536.16C296.02 537.04 296.5 537.6 296.5 538.64C296.5 541.52 292.26 543.04 288.66 543.04C287.22 543.04 283.86 541.88 283.86 539.16C283.86 537.8 283.94 536.8 285.1 535.4ZM292.58 523.84C292.58 527.56 290.7 528.32 289.22 528.32C285.86 528.32 285.5 525.48 285.5 522.92C285.5 520.12 286.5 518.68 288.7 518.68C291.22 518.68 292.58 520.52 292.58 523.84ZM311.74 529.48C311.9 531.44 312.02 533.32 312.02 535C312.42 534.92 312.82 534.88 313.02 534.88C313.3 534.88 313.54 534.88 313.82 534.96C314.9 535.24 315.98 535.4 317.46 535.4C319.7 535.4 323.82 534.32 323.82 530.36C323.82 527.64 321.86 526.04 319.14 525.04C316.74 524.12 315.14 523.52 315.14 521.32C315.14 519.68 316.58 518.76 317.94 518.76C318.82 518.76 321.14 519.08 321.66 522.48C321.9 522.72 322.7 522.68 322.94 522.44C323.06 521 323.14 519.52 323.18 518.2C321.94 518 320.02 517.44 317.94 517.44C314.98 517.44 312.3 519.36 312.3 521.92C312.3 524.84 313.62 526.08 316.7 527.36C320.02 528.72 320.78 529.56 320.78 531.28C320.78 533.24 318.86 534.08 317.38 534.08C315.82 534.08 314.94 533.56 314.54 533.12C313.66 532.2 313.22 530.44 312.98 529.44C312.74 529.2 311.98 529.24 311.74 529.48ZM340.846 531.28C339.366 532.8 338.206 533.44 335.886 533.44C334.446 533.44 332.766 532.6 331.526 530.56C330.726 529.24 330.246 527.4 330.246 525.08L340.886 525.16C341.366 525.16 341.646 524.92 341.646 524.48C341.646 521.12 340.446 517.52 334.886 517.52C331.406 517.52 326.886 520.84 326.886 526.92C326.886 529.16 327.446 531.32 328.766 532.84C330.126 534.44 332.006 535.4 334.886 535.4C337.926 535.4 340.086 534 341.686 531.92C341.566 531.52 341.326 531.32 340.846 531.28ZM330.366 523.72C331.126 519.2 333.926 518.84 334.886 518.84C336.406 518.84 338.206 519.68 338.206 523.04C338.206 523.4 338.046 523.6 337.606 523.6L330.366 523.72ZM345.017 517.84C344.457 517.84 344.297 518.32 344.297 518.64V519.16C344.297 519.36 344.337 519.4 344.497 519.4H346.857V531.44C346.857 534.28 348.097 535.4 349.937 535.4C351.777 535.4 353.777 534.52 355.337 532.76C355.257 532.36 355.017 532.12 354.617 532.08C353.577 532.88 352.377 533.2 351.337 533.2C350.257 533.2 350.017 532 350.017 529.52V519.4H354.177C354.577 519.4 355.137 519.24 355.137 518.88V518.08C355.137 517.92 355.017 517.84 354.817 517.84H350.017V516.28C350.017 513.68 350.177 512.08 350.177 512.08C350.177 511.84 350.057 511.72 349.857 511.72C349.697 511.72 349.337 511.88 348.977 512.08C348.537 512.32 348.137 512.52 347.617 512.64C347.137 512.8 346.737 512.92 346.737 513.2C346.737 513.68 346.857 513.4 346.857 517.84H345.017ZM367.593 526.8C367.593 530.88 370.313 535.4 375.993 535.4C378.553 535.4 380.513 534.48 381.873 533.16C383.673 531.4 384.473 528.88 384.473 526.44C384.473 522.28 382.193 517.44 376.073 517.44C373.433 517.44 371.273 518.52 369.793 520.24C368.353 521.96 367.593 524.28 367.593 526.8ZM375.473 518.84C378.913 518.84 381.033 521.96 381.033 527.72C381.033 532.76 378.433 534 376.553 534C372.393 534 371.033 528.96 371.033 525.88C371.033 522.4 371.873 518.84 375.473 518.84ZM393.109 530.12V519.4H396.829C397.189 519.4 397.749 519.24 397.749 518.88V518.08C397.749 517.92 397.629 517.84 397.429 517.84H393.109V515.56C393.109 509.4 394.949 508.44 396.269 508.44C397.469 508.44 398.109 508.92 398.669 510.32C398.989 511.04 399.429 511.6 400.269 511.6C400.949 511.6 401.909 510.76 401.909 509.96C401.909 509.28 401.469 508.56 400.629 507.92C399.589 507.2 398.549 507.08 397.029 507.08C393.669 507.08 389.949 510 389.949 516.24V517.84H387.909C387.189 517.84 386.989 518.32 386.989 518.64V519.16C386.989 519.36 387.029 519.4 387.189 519.4H389.949V530.12C389.949 533.44 389.309 533.6 387.149 533.76C386.909 534 386.909 534.84 387.149 535.08C388.549 535.04 389.949 535 391.549 535C393.149 535 395.069 535.04 396.469 535.08C396.709 534.84 396.709 534 396.469 533.76C393.349 533.6 393.109 533.44 393.109 530.12ZM410.412 529.48C410.572 531.44 410.692 533.32 410.692 535C411.092 534.92 411.492 534.88 411.692 534.88C411.972 534.88 412.212 534.88 412.492 534.96C413.572 535.24 414.652 535.4 416.132 535.4C418.372 535.4 422.492 534.32 422.492 530.36C422.492 527.64 420.532 526.04 417.812 525.04C415.412 524.12 413.812 523.52 413.812 521.32C413.812 519.68 415.252 518.76 416.612 518.76C417.492 518.76 419.812 519.08 420.332 522.48C420.572 522.72 421.372 522.68 421.612 522.44C421.732 521 421.812 519.52 421.852 518.2C420.612 518 418.692 517.44 416.612 517.44C413.652 517.44 410.972 519.36 410.972 521.92C410.972 524.84 412.292 526.08 415.372 527.36C418.692 528.72 419.452 529.56 419.452 531.28C419.452 533.24 417.532 534.08 416.052 534.08C414.492 534.08 413.612 533.56 413.212 533.12C412.332 532.2 411.892 530.44 411.652 529.44C411.412 529.2 410.652 529.24 410.412 529.48ZM431.318 530.12V522.16C431.318 520.16 431.478 517.6 431.478 517.6C431.478 517.44 431.278 517.32 430.958 517.32C429.838 517.76 428.238 518.12 425.478 518.48C425.398 518.72 425.478 519.36 425.558 519.6C427.758 519.8 428.158 520.04 428.158 522.32V530.12C428.158 533.44 427.718 533.56 425.278 533.76C425.038 534 425.038 534.84 425.278 535.08C426.598 535.04 428.158 535 429.758 535C431.358 535 432.878 535.04 434.198 535.08C434.438 534.84 434.438 534 434.198 533.76C431.758 533.6 431.318 533.44 431.318 530.12ZM427.678 511.04C427.678 512.08 428.638 513.12 429.598 513.12C430.718 513.12 431.678 512.04 431.678 511.2C431.678 510.24 430.838 509.12 429.758 509.12C428.798 509.12 427.678 510.08 427.678 511.04ZM437.778 517.44C437.698 517.44 437.538 517.6 437.538 517.68C437.498 519.48 437.298 520.88 436.938 522.84C437.298 523 437.778 523.08 438.258 522.96C439.058 520.04 440.298 519.36 441.498 519.32L446.618 519.2C443.898 523.76 439.898 529.52 436.778 533.72C436.418 534.2 436.418 534.32 436.418 534.52C436.418 534.8 436.738 535 437.338 535L449.818 535.12C450.298 533.76 450.818 531.68 451.098 529.68C450.858 529.52 450.378 529.44 449.898 529.44L449.338 530.6C448.338 532.72 447.498 533.6 445.418 533.64H440.098C443.058 529.88 447.218 523.6 449.698 519.52C450.298 518.52 450.418 518.2 450.418 518.04C450.418 517.88 450.218 517.76 449.938 517.76C449.738 517.76 448.618 517.84 447.458 517.84H440.138C438.858 517.84 438.378 517.64 437.778 517.44ZM467.331 531.28C465.851 532.8 464.691 533.44 462.371 533.44C460.931 533.44 459.251 532.6 458.011 530.56C457.211 529.24 456.731 527.4 456.731 525.08L467.371 525.16C467.851 525.16 468.131 524.92 468.131 524.48C468.131 521.12 466.931 517.52 461.371 517.52C457.891 517.52 453.371 520.84 453.371 526.92C453.371 529.16 453.931 531.32 455.251 532.84C456.611 534.44 458.491 535.4 461.371 535.4C464.411 535.4 466.571 534 468.171 531.92C468.051 531.52 467.811 531.32 467.331 531.28ZM456.851 523.72C457.611 519.2 460.411 518.84 461.371 518.84C462.891 518.84 464.691 519.68 464.691 523.04C464.691 523.4 464.531 523.6 464.091 523.6L456.851 523.72ZM483.341 532.12C483.141 532.92 482.821 533.92 482.821 534.32C482.821 534.96 483.181 535.4 484.461 535.4C485.981 535.4 485.981 533.6 486.301 532.12L487.741 525.64C488.061 525.52 488.341 525.52 488.621 525.52C488.941 525.52 489.221 525.8 489.421 526.16C490.141 527.44 490.581 529.48 491.381 531.28C492.701 534.16 493.701 535.4 495.341 535.4C496.701 535.4 498.101 534.16 499.381 531.92C499.101 531.6 498.941 531.4 498.501 531.4C497.701 532.56 496.861 533.32 496.421 533.32C495.661 533.32 495.381 532.6 494.981 531.8C493.861 529.6 493.341 528.04 492.781 526.92C492.141 525.68 491.901 525.12 490.581 524.76V524.6L492.661 522.76C494.621 521 495.701 520.28 496.501 520.28C497.541 520.28 497.381 520.84 498.741 520.84C499.301 520.84 500.581 520.08 500.581 518.84C500.581 517.72 499.701 517.44 498.621 517.44C497.341 517.44 494.901 518.96 492.021 521.52L490.421 522.88C489.741 523.48 488.901 524.12 488.061 524.12L490.941 511.68C491.541 509.08 491.941 507.48 491.941 507.48C491.941 507.2 491.821 507.08 491.461 507.08C490.381 507.48 487.501 508 485.861 508.12L485.741 509.08C485.741 509.2 485.781 509.28 485.941 509.28L487.181 509.36C487.701 509.36 488.021 509.6 488.021 510.48C488.021 510.92 487.941 511.6 487.741 512.48L483.341 532.12ZM502.034 532.6C502.034 533.76 502.994 534.72 504.154 534.72C505.314 534.72 506.274 533.76 506.274 532.6C506.274 531.44 505.314 530.48 504.154 530.48C502.994 530.48 502.034 531.44 502.034 532.6ZM502.034 520.68C502.034 521.84 502.994 522.8 504.154 522.8C505.314 522.8 506.274 521.84 506.274 520.68C506.274 519.52 505.314 518.56 504.154 518.56C502.994 518.56 502.034 519.52 502.034 520.68Z" fill="black"/>
<g id="\exists v_1 \cdots \ \exists v_k  \forall w \bigvee_{i} \neg E(v_i,w)" clip-path="url(#clip1)">
<g id="page1_2">
<path id="Vector_22" d="M121.562 595.257C121.562 594.097 121.457 593.992 120.333 593.992H107.161C106.564 593.992 105.932 593.992 105.932 594.695C105.932 595.397 106.564 595.397 107.161 595.397H120.157V605.478H107.653C107.056 605.478 106.424 605.478 106.424 606.18C106.424 606.883 107.056 606.883 107.653 606.883H120.157V616.963H107.161C106.564 616.963 105.932 616.963 105.932 617.666C105.932 618.368 106.564 618.368 107.161 618.368H120.333C121.457 618.368 121.562 618.263 121.562 617.104V595.257Z" fill="black"/>
<path id="Vector_23" d="M139.565 605.232C139.565 603.019 138.441 602.879 138.16 602.879C137.317 602.879 136.545 603.722 136.545 604.424C136.545 604.845 136.791 605.091 136.931 605.232C137.282 605.548 138.196 606.496 138.196 608.323C138.196 609.798 136.088 618.017 131.873 618.017C129.731 618.017 129.309 616.226 129.309 614.926C129.309 613.17 130.117 610.711 131.065 608.182C131.627 606.742 131.768 606.391 131.768 605.688C131.768 604.213 130.714 602.879 128.993 602.879C125.762 602.879 124.462 607.972 124.462 608.253C124.462 608.393 124.602 608.569 124.848 608.569C125.164 608.569 125.2 608.428 125.34 607.936C126.183 604.916 127.553 603.581 128.888 603.581C129.204 603.581 129.801 603.581 129.801 604.74C129.801 605.653 129.414 606.672 128.888 608.007C127.202 612.503 127.202 613.591 127.202 614.434C127.202 615.207 127.307 616.647 128.396 617.631C129.66 618.72 131.417 618.72 131.733 618.72C137.563 618.72 139.565 607.234 139.565 605.232Z" fill="black"/>
<path id="Vector_24" d="M147.493 608.721C147.493 608.089 147.446 608.065 146.814 608.065C145.854 609.002 144.613 609.564 142.389 609.564V610.337C143.021 610.337 144.285 610.337 145.643 609.704V621.717C145.643 622.583 145.573 622.864 143.349 622.864H142.529V623.637C143.489 623.567 145.503 623.567 146.557 623.567C147.61 623.567 149.648 623.567 150.608 623.637V622.864H149.788C147.564 622.864 147.493 622.583 147.493 621.717V608.721Z" fill="black"/>
<path id="Vector_25" d="M166.642 609.587C166.642 608.569 165.799 607.726 164.78 607.726C163.762 607.726 162.919 608.569 162.919 609.587C162.919 610.606 163.762 611.449 164.78 611.449C165.799 611.449 166.642 610.606 166.642 609.587Z" fill="black"/>
<path id="Vector_26" d="M182.253 609.587C182.253 608.569 181.41 607.726 180.391 607.726C179.372 607.726 178.529 608.569 178.529 609.587C178.529 610.606 179.372 611.449 180.391 611.449C181.41 611.449 182.253 610.606 182.253 609.587Z" fill="black"/>
<path id="Vector_27" d="M197.863 609.587C197.863 608.569 197.02 607.726 196.002 607.726C194.983 607.726 194.14 608.569 194.14 609.587C194.14 610.606 194.983 611.449 196.002 611.449C197.02 611.449 197.863 610.606 197.863 609.587Z" fill="black"/>
<path id="Vector_28" d="M235.756 595.257C235.756 594.097 235.651 593.992 234.527 593.992H221.355C220.758 593.992 220.126 593.992 220.126 594.695C220.126 595.397 220.758 595.397 221.355 595.397H234.351V605.478H221.847C221.25 605.478 220.618 605.478 220.618 606.18C220.618 606.883 221.25 606.883 221.847 606.883H234.351V616.963H221.355C220.758 616.963 220.126 616.963 220.126 617.666C220.126 618.368 220.758 618.368 221.355 618.368H234.527C235.651 618.368 235.756 618.263 235.756 617.104V595.257Z" fill="black"/>
<path id="Vector_29" d="M253.76 605.232C253.76 603.019 252.636 602.879 252.355 602.879C251.512 602.879 250.739 603.722 250.739 604.424C250.739 604.845 250.985 605.091 251.125 605.232C251.476 605.548 252.39 606.496 252.39 608.323C252.39 609.798 250.282 618.017 246.067 618.017C243.925 618.017 243.503 616.226 243.503 614.926C243.503 613.17 244.311 610.711 245.259 608.182C245.821 606.742 245.962 606.391 245.962 605.688C245.962 604.213 244.908 602.879 243.187 602.879C239.956 602.879 238.656 607.972 238.656 608.253C238.656 608.393 238.797 608.569 239.042 608.569C239.359 608.569 239.394 608.428 239.534 607.936C240.377 604.916 241.747 603.581 243.082 603.581C243.398 603.581 243.995 603.581 243.995 604.74C243.995 605.653 243.609 606.672 243.082 608.007C241.396 612.503 241.396 613.591 241.396 614.434C241.396 615.207 241.501 616.647 242.59 617.631C243.855 618.72 245.611 618.72 245.927 618.72C251.757 618.72 253.76 607.234 253.76 605.232Z" fill="black"/>
<path id="Vector_30" d="M261.172 608.088C261.196 608.042 261.266 607.737 261.266 607.714C261.266 607.597 261.172 607.386 260.891 607.386C260.798 607.386 260.072 607.456 259.533 607.503L258.222 607.597C257.707 607.644 257.472 607.667 257.472 608.088C257.472 608.416 257.8 608.416 258.081 608.416C259.205 608.416 259.205 608.557 259.205 608.768C259.205 608.838 259.205 608.885 259.088 609.306L255.763 622.63C255.669 622.981 255.669 623.122 255.669 623.145C255.669 623.543 255.997 623.871 256.442 623.871C257.238 623.871 257.426 623.122 257.519 622.794C257.753 621.81 258.362 619.328 258.62 618.345C259.908 618.485 261.477 618.93 261.477 620.265C261.477 620.382 261.477 620.499 261.43 620.733C261.36 621.038 261.313 621.365 261.313 621.483C261.313 622.864 262.343 623.871 263.701 623.871C264.685 623.871 265.293 623.145 265.598 622.7C266.16 621.834 266.535 620.429 266.535 620.288C266.535 620.054 266.347 619.984 266.183 619.984C265.902 619.984 265.855 620.124 265.762 620.546C265.457 621.646 264.849 623.215 263.748 623.215C263.139 623.215 262.999 622.7 262.999 622.068C262.999 621.764 263.022 621.483 263.139 620.944C263.163 620.85 263.256 620.476 263.256 620.218C263.256 618.298 260.844 617.876 259.65 617.713C260.517 617.197 261.313 616.401 261.594 616.097C262.882 614.832 263.935 613.966 265.059 613.966C265.364 613.966 265.645 614.036 265.832 614.27C264.568 614.434 264.568 615.535 264.568 615.558C264.568 616.073 264.966 616.425 265.481 616.425C266.113 616.425 266.816 615.909 266.816 614.949C266.816 614.153 266.254 613.31 265.083 613.31C263.725 613.31 262.507 614.341 261.172 615.675C259.814 617.01 259.229 617.268 258.854 617.432L261.172 608.088Z" fill="black"/>
<path id="Vector_31" d="M288.73 595.327C288.906 594.94 288.906 594.87 288.906 594.695C288.906 594.343 288.625 593.992 288.203 593.992C287.747 593.992 287.536 594.414 287.395 594.8L284.48 602.527H273.802L270.887 594.8C270.711 594.308 270.536 593.992 270.079 593.992C269.728 593.992 269.377 594.343 269.377 594.695C269.377 594.765 269.377 594.835 269.587 595.327L278.333 618.333C278.509 618.825 278.685 619.141 279.141 619.141C279.633 619.141 279.773 618.755 279.914 618.403L288.73 595.327ZM274.364 603.932H283.918L279.141 616.436L274.364 603.932Z" fill="black"/>
<path id="Vector_32" d="M300.973 616.226C301.746 618.333 303.923 618.72 305.258 618.72C307.928 618.72 309.508 616.401 310.492 613.978C311.3 611.941 312.599 607.304 312.599 605.232C312.599 603.089 311.51 602.879 311.194 602.879C310.351 602.879 309.578 603.722 309.578 604.424C309.578 604.845 309.824 605.091 310 605.232C310.316 605.548 311.229 606.496 311.229 608.323C311.229 609.517 310.246 612.819 309.508 614.47C308.525 616.612 307.225 618.017 305.399 618.017C303.432 618.017 302.799 616.542 302.799 614.926C302.799 613.908 303.116 612.678 303.256 612.081L304.731 606.18C304.907 605.478 305.223 604.248 305.223 604.108C305.223 603.581 304.802 603.23 304.275 603.23C303.256 603.23 303.01 604.108 302.799 604.951C302.448 606.321 300.973 612.257 300.833 613.029C300.692 613.627 300.692 614.013 300.692 614.786C300.692 615.629 299.568 616.963 299.533 617.034C299.147 617.42 298.585 618.017 297.496 618.017C294.721 618.017 294.721 615.383 294.721 614.786C294.721 613.662 294.967 612.116 296.547 607.936C296.969 606.848 297.144 606.391 297.144 605.688C297.144 604.213 296.091 602.879 294.37 602.879C291.138 602.879 289.839 607.972 289.839 608.253C289.839 608.393 289.979 608.569 290.225 608.569C290.541 608.569 290.576 608.428 290.717 607.936C291.595 604.845 292.965 603.581 294.264 603.581C294.616 603.581 295.178 603.616 295.178 604.74C295.178 604.916 295.178 605.653 294.58 607.199C292.93 611.589 292.578 613.029 292.578 614.364C292.578 618.052 295.599 618.72 297.39 618.72C297.987 618.72 299.568 618.72 300.973 616.226Z" fill="black"/>
<path id="Vector_33" d="M338.293 632.874C338.433 633.331 338.749 634.174 339.768 634.174C340.787 634.174 341.068 633.366 341.243 632.874L357.084 587.283C357.295 586.721 357.295 586.651 357.295 586.475C357.295 585.632 356.628 585 355.82 585C354.801 585 354.555 585.808 354.38 586.264L339.768 628.273L325.191 586.335C325.016 585.843 324.735 585 323.716 585C322.873 585 322.241 585.667 322.241 586.475C322.241 586.651 322.241 586.721 322.452 587.283L338.293 632.874Z" fill="black"/>
<path id="Vector_34" d="M342.53 644.409C342.53 643.894 342.156 643.519 341.617 643.519C341.008 643.519 340.329 644.081 340.329 644.784C340.329 645.299 340.704 645.674 341.242 645.674C341.851 645.674 342.53 645.112 342.53 644.409ZM339.111 653.003L337.847 656.234C337.73 656.586 337.613 656.867 337.613 657.265C337.613 658.412 338.503 659.255 339.744 659.255C342.015 659.255 342.975 655.977 342.975 655.672C342.975 655.438 342.788 655.368 342.624 655.368C342.343 655.368 342.296 655.532 342.226 655.766C341.687 657.639 340.727 658.599 339.791 658.599C339.51 658.599 339.229 658.482 339.229 657.85C339.229 657.288 339.392 656.867 339.697 656.141C339.931 655.508 340.165 654.876 340.423 654.244L341.149 652.347C341.359 651.809 341.64 651.083 341.64 650.685C341.64 649.514 340.704 648.694 339.51 648.694C337.238 648.694 336.255 651.973 336.255 652.277C336.255 652.488 336.419 652.581 336.606 652.581C336.91 652.581 336.934 652.441 337.004 652.207C337.66 649.982 338.737 649.35 339.439 649.35C339.767 649.35 340.001 649.467 340.001 650.123C340.001 650.357 339.978 650.685 339.744 651.387L339.111 653.003Z" fill="black"/>
<path id="Vector_35" d="M386.616 607.129C386.616 605.97 386.511 605.864 385.387 605.864H368.316C367.719 605.864 367.087 605.864 367.087 606.567C367.087 607.269 367.719 607.269 368.316 607.269H385.211V613.978C385.211 614.61 385.211 615.242 385.913 615.242C386.616 615.242 386.616 614.61 386.616 613.978V607.129Z" fill="black"/>
<path id="Vector_36" d="M412.983 610.219C413.018 610.114 413.123 609.868 413.123 609.728C413.123 609.552 412.983 609.376 412.772 609.376C412.631 609.376 412.561 609.411 412.456 609.517C412.385 609.552 412.385 609.622 412.069 610.325C409.997 615.242 408.487 617.35 402.867 617.35H397.739C397.247 617.35 397.177 617.35 396.966 617.314C396.58 617.279 396.544 617.209 396.544 616.928C396.544 616.682 396.615 616.471 396.685 616.155L399.109 606.461H402.586C405.326 606.461 405.536 607.058 405.536 608.112C405.536 608.463 405.536 608.779 405.29 609.833C405.22 609.973 405.185 610.114 405.185 610.219C405.185 610.465 405.361 610.571 405.571 610.571C405.888 610.571 405.923 610.325 406.063 609.833L408.065 601.684C408.065 601.508 407.925 601.333 407.714 601.333C407.398 601.333 407.363 601.473 407.222 601.965C406.52 604.67 405.817 605.442 402.691 605.442H399.354L401.532 596.802C401.848 595.572 401.918 595.467 403.359 595.467H408.381C412.702 595.467 413.58 596.626 413.58 599.296C413.58 599.331 413.58 600.314 413.439 601.473C413.404 601.614 413.369 601.825 413.369 601.895C413.369 602.176 413.545 602.281 413.755 602.281C414.001 602.281 414.142 602.141 414.212 601.508L414.95 595.362C414.95 595.256 415.02 594.905 415.02 594.835C415.02 594.448 414.704 594.448 414.071 594.448H396.931C396.263 594.448 395.912 594.448 395.912 595.081C395.912 595.467 396.158 595.467 396.755 595.467C398.933 595.467 398.933 595.713 398.933 596.099C398.933 596.275 398.898 596.415 398.792 596.802L394.051 615.769C393.735 616.998 393.664 617.35 391.206 617.35C390.538 617.35 390.187 617.35 390.187 617.982C390.187 618.368 390.398 618.368 391.1 618.368H408.733C409.505 618.368 409.54 618.333 409.786 617.771L412.983 610.219Z" fill="black"/>
<path id="Vector_37" d="M427.505 626.903C427.505 626.798 427.505 626.728 426.907 626.131C423.395 622.583 421.428 616.788 421.428 609.622C421.428 602.808 423.079 596.942 427.153 592.798C427.505 592.482 427.505 592.411 427.505 592.306C427.505 592.095 427.329 592.025 427.188 592.025C426.732 592.025 423.852 594.554 422.131 597.996C420.339 601.544 419.531 605.302 419.531 609.622C419.531 612.748 420.023 616.928 421.85 620.686C423.922 624.901 426.802 627.184 427.188 627.184C427.329 627.184 427.505 627.114 427.505 626.903Z" fill="black"/>
<path id="Vector_38" d="M445.516 605.232C445.516 603.019 444.392 602.879 444.111 602.879C443.268 602.879 442.495 603.722 442.495 604.424C442.495 604.845 442.741 605.091 442.881 605.232C443.233 605.548 444.146 606.496 444.146 608.323C444.146 609.798 442.038 618.017 437.824 618.017C435.681 618.017 435.26 616.226 435.26 614.926C435.26 613.17 436.067 610.711 437.016 608.182C437.578 606.742 437.718 606.391 437.718 605.688C437.718 604.213 436.664 602.879 434.943 602.879C431.712 602.879 430.412 607.972 430.412 608.253C430.412 608.393 430.553 608.569 430.799 608.569C431.115 608.569 431.15 608.428 431.29 607.936C432.133 604.916 433.503 603.581 434.838 603.581C435.154 603.581 435.751 603.581 435.751 604.74C435.751 605.653 435.365 606.672 434.838 608.007C433.152 612.503 433.152 613.591 433.152 614.434C433.152 615.207 433.257 616.647 434.346 617.631C435.611 618.72 437.367 618.72 437.683 618.72C443.514 618.72 445.516 607.234 445.516 605.232Z" fill="black"/>
<path id="Vector_39" d="M453.069 609.025C453.069 608.51 452.694 608.135 452.156 608.135C451.547 608.135 450.868 608.697 450.868 609.4C450.868 609.915 451.243 610.29 451.781 610.29C452.39 610.29 453.069 609.728 453.069 609.025ZM449.65 617.619L448.386 620.85C448.269 621.201 448.152 621.482 448.152 621.881C448.152 623.028 449.041 623.871 450.282 623.871C452.554 623.871 453.514 620.593 453.514 620.288C453.514 620.054 453.327 619.984 453.163 619.984C452.882 619.984 452.835 620.148 452.765 620.382C452.226 622.255 451.266 623.215 450.329 623.215C450.048 623.215 449.767 623.098 449.767 622.466C449.767 621.904 449.931 621.482 450.236 620.757C450.47 620.124 450.704 619.492 450.962 618.86L451.687 616.963C451.898 616.425 452.179 615.699 452.179 615.301C452.179 614.13 451.243 613.31 450.048 613.31C447.777 613.31 446.793 616.588 446.793 616.893C446.793 617.104 446.957 617.197 447.145 617.197C447.449 617.197 447.472 617.057 447.543 616.823C448.198 614.598 449.276 613.966 449.978 613.966C450.306 613.966 450.54 614.083 450.54 614.739C450.54 614.973 450.517 615.301 450.282 616.003L449.65 617.619Z" fill="black"/>
<path id="Vector_40" d="M462.874 618.509C462.874 616.472 462.207 614.961 460.767 614.961C459.643 614.961 459.081 615.875 459.081 616.647C459.081 617.42 459.608 618.368 460.802 618.368C461.259 618.368 461.645 618.228 461.961 617.912C462.031 617.841 462.066 617.841 462.102 617.841C462.172 617.841 462.172 618.333 462.172 618.509C462.172 619.668 461.961 621.951 459.924 624.234C459.538 624.656 459.538 624.726 459.538 624.796C459.538 624.972 459.713 625.147 459.889 625.147C460.17 625.147 462.874 622.548 462.874 618.509Z" fill="black"/>
<path id="Vector_41" d="M483.515 616.226C484.288 618.333 486.466 618.72 487.8 618.72C490.47 618.72 492.05 616.401 493.034 613.978C493.842 611.941 495.141 607.304 495.141 605.232C495.141 603.089 494.053 602.879 493.736 602.879C492.893 602.879 492.121 603.722 492.121 604.424C492.121 604.845 492.367 605.091 492.542 605.232C492.858 605.548 493.772 606.496 493.772 608.323C493.772 609.517 492.788 612.819 492.05 614.47C491.067 616.612 489.767 618.017 487.941 618.017C485.974 618.017 485.342 616.542 485.342 614.926C485.342 613.908 485.658 612.678 485.798 612.081L487.274 606.18C487.449 605.478 487.765 604.248 487.765 604.108C487.765 603.581 487.344 603.23 486.817 603.23C485.798 603.23 485.552 604.108 485.342 604.951C484.99 606.321 483.515 612.257 483.375 613.029C483.234 613.627 483.234 614.013 483.234 614.786C483.234 615.629 482.11 616.963 482.075 617.034C481.689 617.42 481.127 618.017 480.038 618.017C477.263 618.017 477.263 615.383 477.263 614.786C477.263 613.662 477.509 612.116 479.09 607.936C479.511 606.848 479.687 606.391 479.687 605.688C479.687 604.213 478.633 602.879 476.912 602.879C473.68 602.879 472.381 607.972 472.381 608.253C472.381 608.393 472.521 608.569 472.767 608.569C473.083 608.569 473.118 608.428 473.259 607.936C474.137 604.845 475.507 603.581 476.806 603.581C477.158 603.581 477.72 603.616 477.72 604.74C477.72 604.916 477.72 605.653 477.123 607.199C475.472 611.589 475.121 613.029 475.121 614.364C475.121 618.052 478.141 618.72 479.933 618.72C480.53 618.72 482.11 618.72 483.515 616.226Z" fill="black"/>
<path id="Vector_42" d="M506.867 609.622C506.867 606.953 506.516 602.597 504.549 598.523C502.477 594.308 499.597 592.025 499.21 592.025C499.07 592.025 498.894 592.095 498.894 592.306C498.894 592.411 498.894 592.482 499.491 593.079C503.004 596.626 504.971 602.422 504.971 609.587C504.971 616.401 503.32 622.267 499.245 626.412C498.894 626.728 498.894 626.798 498.894 626.903C498.894 627.114 499.07 627.184 499.21 627.184C499.667 627.184 502.547 624.655 504.268 621.213C506.059 617.631 506.867 613.837 506.867 609.622Z" fill="black"/>
</g>
</g>
</g>
</g>
<defs>
<clipPath id="clip0">
<rect width="343.512" height="79.8366" fill="white" transform="translate(104 278)"/>
</clipPath>
<clipPath id="clip1">
<rect width="402.867" height="74.2552" fill="white" transform="translate(104 585)"/>
</clipPath>
</defs>
</svg>
