<svg width="1280" height="960" viewBox="0 0 1280 960" fill="none" xmlns="http://www.w3.org/2000/svg">
<g id="Grids and treelike" clip-path="url(#clip0)">
<rect width="1280" height="960" fill="white"/>
<g id="140:757">
<path id="The graphs that witness undecidability look like this:" d="M217.777 188.68V165.76C217.777 161.92 218.377 159.64 220.537 159.64H221.857C226.357 159.64 229.177 161.2 230.197 165.82C230.857 165.82 231.697 165.76 232.237 165.52C231.817 162.76 231.517 159.7 231.457 157C231.457 156.94 231.337 156.82 231.277 156.82C229.237 157 222.577 157.3 217.837 157.3H212.677C208.057 157.3 200.977 157 198.697 156.82C198.577 156.82 198.457 156.94 198.457 157C198.217 159.7 197.617 162.82 196.957 165.7C197.557 165.94 198.277 166 198.997 166C200.197 161.2 202.957 159.64 206.917 159.64H209.857C212.077 159.64 212.677 161.92 212.677 165.58V188.68C212.677 193.66 211.657 193.96 206.857 194.14C206.497 194.5 206.497 195.76 206.857 196.12C209.797 196.06 212.857 196 215.257 196C217.537 196 220.597 196.06 223.597 196.12C223.957 195.76 223.957 194.5 223.597 194.14C218.797 193.96 217.777 193.66 217.777 188.68ZM242.598 178.84C242.598 177.58 243.138 176.86 243.618 176.32C245.898 174.1 248.958 172.78 251.298 172.78C252.498 172.78 253.758 173.56 254.478 174.94C255.078 176.14 255.198 177.76 255.198 179.56V188.68C255.198 193.6 254.598 193.84 251.478 194.14C251.178 194.5 251.178 195.76 251.478 196.12C253.158 196.06 255.198 196 257.598 196C259.998 196 261.978 196.06 263.958 196.12C264.258 195.76 264.258 194.5 263.958 194.14C260.598 193.84 259.938 193.6 259.938 188.68V179.74C259.938 176.44 259.698 173.5 258.318 171.7C257.298 170.38 255.438 169.66 253.338 169.66C250.398 169.66 246.798 170.44 243.138 174.52C243.138 174.58 243.078 174.58 243.018 174.64C242.838 174.88 242.538 175.24 242.538 174.52L242.598 161.02C242.598 157.12 242.838 154.72 242.838 154.72C242.838 154.3 242.598 154.12 242.058 154.12C240.558 154.72 236.058 155.56 233.658 155.74C233.538 156.22 233.658 157.18 234.018 157.54C234.198 157.54 234.378 157.54 234.558 157.54C237.198 157.72 237.858 157.72 237.858 162.46V188.68C237.858 193.66 237.138 193.9 233.658 194.14C233.298 194.5 233.298 195.76 233.658 196.12C235.638 196.06 237.858 196 240.258 196C242.538 196 244.518 196.06 246.198 196.12C246.558 195.76 246.558 194.5 246.198 194.14C243.138 193.9 242.598 193.66 242.598 188.68V178.84ZM288.023 190.42C285.803 192.7 284.063 193.66 280.583 193.66C278.423 193.66 275.903 192.4 274.043 189.34C272.843 187.36 272.123 184.6 272.123 181.12L288.083 181.24C288.803 181.24 289.223 180.88 289.223 180.22C289.223 175.18 287.423 169.78 279.083 169.78C273.863 169.78 267.083 174.76 267.083 183.88C267.083 187.24 267.923 190.48 269.903 192.76C271.943 195.16 274.763 196.6 279.083 196.6C283.643 196.6 286.883 194.5 289.283 191.38C289.103 190.78 288.743 190.48 288.023 190.42ZM272.303 179.08C273.443 172.3 277.643 171.76 279.083 171.76C281.363 171.76 284.063 173.02 284.063 178.06C284.063 178.6 283.823 178.9 283.163 178.9L272.303 179.08ZM333.339 172.78C334.479 172.78 335.559 171.7 335.559 170.5C335.559 169.24 334.419 168.28 332.799 168.28C331.239 168.28 328.359 169.3 326.799 171.34C326.079 170.86 324.099 169.66 320.559 169.66C315.219 169.66 310.299 173.26 310.299 178.78C310.299 182.02 311.739 183.88 313.419 185.5C311.739 186.94 310.779 189.52 310.779 191.56C310.779 193.72 311.979 195.4 313.539 196.18C310.299 198.1 308.619 200.86 308.619 203.44C308.619 208.66 313.539 210.28 318.159 210.28C326.259 210.28 335.019 206.38 335.019 199.9C335.019 197.98 334.119 196.48 332.379 195.04C330.039 193.12 325.839 193.06 323.619 193.06C322.539 193.06 321.039 193.18 319.599 193.36C318.699 193.42 318.099 193.48 317.799 193.48C316.059 193.48 313.959 192.64 313.959 190.06C313.959 188.86 314.319 187.6 315.039 186.58C316.479 187.42 318.159 187.84 320.499 187.84C325.779 187.84 330.639 184.54 330.639 178.66C330.639 175.84 329.799 174.22 328.059 172.42C328.479 171.82 329.679 170.98 330.459 170.98C330.879 170.98 331.299 171.16 331.659 171.7C331.899 172.18 332.679 172.78 333.339 172.78ZM314.619 196.6C315.279 196.78 316.239 196.9 317.019 196.9C318.879 196.9 320.559 196.72 321.399 196.72C324.399 196.72 326.919 196.78 328.659 197.74C330.999 199.06 331.719 199.9 331.719 201.46C331.719 205.78 325.359 208.06 319.959 208.06C317.799 208.06 312.759 206.32 312.759 202.24C312.759 200.2 312.879 198.7 314.619 196.6ZM325.839 179.26C325.839 184.84 323.019 185.98 320.799 185.98C315.759 185.98 315.219 181.72 315.219 177.88C315.219 173.68 316.719 171.52 320.019 171.52C323.799 171.52 325.839 174.28 325.839 179.26ZM347.259 174.52C347.139 172.12 347.079 170.56 346.779 169.96C346.659 169.66 346.539 169.48 346.059 169.48C344.379 170.14 342.819 170.68 338.679 171.22C338.559 171.58 338.679 172.54 338.799 172.9C342.039 173.2 342.699 173.5 342.699 176.98V188.68C342.699 193.66 341.979 193.9 338.259 194.14C337.899 194.5 337.899 195.76 338.259 196.12C340.359 196.06 342.699 196 345.099 196C347.499 196 350.259 196.06 352.359 196.12C352.719 195.76 352.719 194.5 352.359 194.14C348.159 193.84 347.439 193.66 347.439 188.68V180.34C347.439 178.78 348.159 177.4 348.879 176.32C349.539 175.36 350.919 173.38 351.639 173.38C352.179 173.38 352.719 173.5 353.199 174.16C353.619 174.76 354.339 175.54 355.359 175.54C356.799 175.54 358.179 174.04 358.179 172.54C358.179 171.4 357.099 169.66 354.579 169.66C351.759 169.66 349.299 172.3 347.919 174.64C347.559 175.3 347.259 174.82 347.259 174.52ZM376.603 193.12C376.963 194.98 377.623 196.6 380.623 196.6C382.903 196.6 385.063 195.58 386.323 194.38C386.203 193.66 385.963 193.12 385.303 192.76C384.883 193.12 383.863 193.72 383.083 193.72C381.343 193.72 381.283 191.38 381.283 188.62V179.8C381.283 171.28 376.603 169.66 372.223 169.66C367.303 169.66 362.323 172.9 362.323 176.32C362.323 177.76 363.043 178.48 364.423 178.48C366.163 178.48 367.243 177.22 367.243 176.44C367.243 176.02 367.183 175.6 367.063 175.36C367.003 175.18 366.943 174.82 366.943 174.16C366.943 172.3 369.463 171.64 371.743 171.64C373.783 171.64 376.603 172.66 376.603 179.44C376.603 179.86 376.423 180.1 376.243 180.16L371.083 181.42C365.323 182.86 361.183 186.04 361.183 190.12C361.183 195.04 364.543 196.6 368.743 196.6C370.843 196.6 372.643 196.12 375.283 194.08L376.483 193.12H376.603ZM376.603 182.02V189.94C376.603 190.72 376.243 191.14 375.763 191.5C374.203 192.76 372.163 194.14 370.483 194.14C367.483 194.14 366.163 191.74 366.163 189.88C366.163 187.18 367.423 184.42 371.863 183.28L376.603 182.02ZM395.805 173.92C395.745 172.12 395.625 170.56 395.325 169.96C395.205 169.66 395.085 169.48 394.605 169.48C392.925 170.14 391.365 170.68 387.225 171.22C387.105 171.58 387.225 172.54 387.345 172.9C390.585 173.2 391.245 173.5 391.245 176.98V202.6C391.245 207.58 390.585 207.88 386.925 208.06C386.565 208.42 386.565 209.68 386.925 210.04C389.025 209.98 391.245 209.92 393.645 209.92C396.045 209.92 398.925 209.98 400.905 210.04C401.265 209.68 401.265 208.42 400.905 208.06C396.645 207.82 395.985 207.58 395.985 202.6V196.12C395.985 195.34 396.225 195.4 396.825 195.64C398.325 196.24 400.125 196.6 402.045 196.6C405.405 196.6 408.405 195.58 410.865 193.24C413.685 190.48 415.305 186.76 415.305 181.9C415.305 175.54 410.805 169.66 404.685 169.66C401.925 169.66 398.865 171.46 396.465 174.16C396.105 174.52 395.865 174.52 395.805 173.92ZM396.945 176.14C398.505 174.22 401.265 172.42 403.005 172.42C406.845 172.42 410.145 176.74 410.145 183.52C410.145 188.44 408.405 194.56 401.685 194.56C400.605 194.56 398.505 194.26 397.425 193.3C396.225 192.22 395.985 191.86 395.985 189.7V178.78C395.985 177.52 396.225 176.98 396.945 176.14ZM427.579 178.84C427.579 177.58 428.119 176.86 428.599 176.32C430.879 174.1 433.939 172.78 436.279 172.78C437.479 172.78 438.739 173.56 439.459 174.94C440.059 176.14 440.179 177.76 440.179 179.56V188.68C440.179 193.6 439.579 193.84 436.459 194.14C436.159 194.5 436.159 195.76 436.459 196.12C438.139 196.06 440.179 196 442.579 196C444.979 196 446.959 196.06 448.939 196.12C449.239 195.76 449.239 194.5 448.939 194.14C445.579 193.84 444.919 193.6 444.919 188.68V179.74C444.919 176.44 444.679 173.5 443.299 171.7C442.279 170.38 440.419 169.66 438.319 169.66C435.379 169.66 431.779 170.44 428.119 174.52C428.119 174.58 428.059 174.58 427.999 174.64C427.819 174.88 427.519 175.24 427.519 174.52L427.579 161.02C427.579 157.12 427.819 154.72 427.819 154.72C427.819 154.3 427.579 154.12 427.039 154.12C425.539 154.72 421.039 155.56 418.639 155.74C418.519 156.22 418.639 157.18 418.999 157.54C419.179 157.54 419.359 157.54 419.539 157.54C422.179 157.72 422.839 157.72 422.839 162.46V188.68C422.839 193.66 422.119 193.9 418.639 194.14C418.279 194.5 418.279 195.76 418.639 196.12C420.619 196.06 422.839 196 425.239 196C427.519 196 429.499 196.06 431.179 196.12C431.539 195.76 431.539 194.5 431.179 194.14C428.119 193.9 427.579 193.66 427.579 188.68V178.84ZM452.724 187.72C452.964 190.66 453.144 193.48 453.144 196C453.744 195.88 454.344 195.82 454.644 195.82C455.064 195.82 455.424 195.82 455.844 195.94C457.464 196.36 459.084 196.6 461.304 196.6C464.664 196.6 470.844 194.98 470.844 189.04C470.844 184.96 467.904 182.56 463.824 181.06C460.224 179.68 457.824 178.78 457.824 175.48C457.824 173.02 459.984 171.64 462.024 171.64C463.344 171.64 466.824 172.12 467.604 177.22C467.964 177.58 469.164 177.52 469.524 177.16C469.704 175 469.824 172.78 469.884 170.8C468.024 170.5 465.144 169.66 462.024 169.66C457.584 169.66 453.564 172.54 453.564 176.38C453.564 180.76 455.544 182.62 460.164 184.54C465.144 186.58 466.284 187.84 466.284 190.42C466.284 193.36 463.404 194.62 461.184 194.62C458.844 194.62 457.524 193.84 456.924 193.18C455.604 191.8 454.944 189.16 454.584 187.66C454.224 187.3 453.084 187.36 452.724 187.72ZM188.137 238.26C187.297 238.26 187.057 238.98 187.057 239.46V240.24C187.057 240.54 187.117 240.6 187.357 240.6H190.897V258.66C190.897 262.92 192.757 264.6 195.517 264.6C198.277 264.6 201.277 263.28 203.617 260.64C203.497 260.04 203.137 259.68 202.537 259.62C200.977 260.82 199.177 261.3 197.617 261.3C195.997 261.3 195.637 259.5 195.637 255.78V240.6H201.877C202.477 240.6 203.317 240.36 203.317 239.82V238.62C203.317 238.38 203.137 238.26 202.837 238.26H195.637V235.92C195.637 232.02 195.877 229.62 195.877 229.62C195.877 229.26 195.697 229.08 195.397 229.08C195.157 229.08 194.617 229.32 194.077 229.62C193.417 229.98 192.817 230.28 192.037 230.46C191.317 230.7 190.717 230.88 190.717 231.3C190.717 232.02 190.897 231.6 190.897 238.26H188.137ZM214.561 246.84C214.561 245.58 215.101 244.86 215.581 244.32C217.861 242.1 220.921 240.78 223.261 240.78C224.461 240.78 225.721 241.56 226.441 242.94C227.041 244.14 227.161 245.76 227.161 247.56V256.68C227.161 261.6 226.561 261.84 223.441 262.14C223.141 262.5 223.141 263.76 223.441 264.12C225.121 264.06 227.161 264 229.561 264C231.961 264 233.941 264.06 235.921 264.12C236.221 263.76 236.221 262.5 235.921 262.14C232.561 261.84 231.901 261.6 231.901 256.68V247.74C231.901 244.44 231.661 241.5 230.281 239.7C229.261 238.38 227.401 237.66 225.301 237.66C222.361 237.66 218.761 238.44 215.101 242.52C215.101 242.58 215.041 242.58 214.981 242.64C214.801 242.88 214.501 243.24 214.501 242.52L214.561 229.02C214.561 225.12 214.801 222.72 214.801 222.72C214.801 222.3 214.561 222.12 214.021 222.12C212.521 222.72 208.021 223.56 205.621 223.74C205.501 224.22 205.621 225.18 205.981 225.54C206.161 225.54 206.341 225.54 206.521 225.54C209.161 225.72 209.821 225.72 209.821 230.46V256.68C209.821 261.66 209.101 261.9 205.621 262.14C205.261 262.5 205.261 263.76 205.621 264.12C207.601 264.06 209.821 264 212.221 264C214.501 264 216.481 264.06 218.161 264.12C218.521 263.76 218.521 262.5 218.161 262.14C215.101 261.9 214.561 261.66 214.561 256.68V246.84ZM254.406 261.12C254.766 262.98 255.426 264.6 258.426 264.6C260.706 264.6 262.866 263.58 264.126 262.38C264.006 261.66 263.766 261.12 263.106 260.76C262.686 261.12 261.666 261.72 260.886 261.72C259.146 261.72 259.086 259.38 259.086 256.62V247.8C259.086 239.28 254.406 237.66 250.026 237.66C245.106 237.66 240.126 240.9 240.126 244.32C240.126 245.76 240.846 246.48 242.226 246.48C243.966 246.48 245.046 245.22 245.046 244.44C245.046 244.02 244.986 243.6 244.866 243.36C244.806 243.18 244.746 242.82 244.746 242.16C244.746 240.3 247.266 239.64 249.546 239.64C251.586 239.64 254.406 240.66 254.406 247.44C254.406 247.86 254.226 248.1 254.046 248.16L248.886 249.42C243.126 250.86 238.986 254.04 238.986 258.12C238.986 263.04 242.346 264.6 246.546 264.6C248.646 264.6 250.446 264.12 253.086 262.08L254.286 261.12H254.406ZM254.406 250.02V257.94C254.406 258.72 254.046 259.14 253.566 259.5C252.006 260.76 249.966 262.14 248.286 262.14C245.286 262.14 243.966 259.74 243.966 257.88C243.966 255.18 245.226 252.42 249.666 251.28L254.406 250.02ZM266.828 238.26C265.988 238.26 265.748 238.98 265.748 239.46V240.24C265.748 240.54 265.808 240.6 266.048 240.6H269.588V258.66C269.588 262.92 271.448 264.6 274.208 264.6C276.968 264.6 279.968 263.28 282.308 260.64C282.188 260.04 281.828 259.68 281.228 259.62C279.668 260.82 277.868 261.3 276.308 261.3C274.688 261.3 274.328 259.5 274.328 255.78V240.6H280.568C281.168 240.6 282.008 240.36 282.008 239.82V238.62C282.008 238.38 281.828 238.26 281.528 238.26H274.328V235.92C274.328 232.02 274.568 229.62 274.568 229.62C274.568 229.26 274.388 229.08 274.088 229.08C273.848 229.08 273.308 229.32 272.768 229.62C272.108 229.98 271.508 230.28 270.728 230.46C270.008 230.7 269.408 230.88 269.408 231.3C269.408 232.02 269.588 231.6 269.588 238.26H266.828ZM310.412 240.12C310.772 239.76 310.772 238.5 310.412 238.14C308.612 238.2 306.512 238.26 304.352 238.26C302.072 238.26 300.452 238.2 298.892 238.14C298.532 238.5 298.532 239.76 298.892 240.12C301.712 240.42 302.372 241.02 303.632 244.14L311.492 263.52C311.852 264.36 312.332 264.72 312.932 264.72C313.472 264.72 313.952 264.36 314.372 263.4L320.432 248.64L326.612 263.52C326.972 264.36 327.452 264.72 328.052 264.72C328.592 264.72 329.072 264.36 329.432 263.46L337.292 244.44C338.252 241.98 339.272 240.3 342.332 240.12C342.692 239.76 342.692 238.5 342.332 238.14C341.132 238.2 339.812 238.26 338.012 238.26C336.212 238.26 333.692 238.2 331.892 238.14C331.532 238.5 331.532 239.76 331.892 240.12C336.392 240.36 335.792 242.1 334.952 244.2L329.912 256.68C329.312 258.18 329.072 258.18 328.592 256.92L323.432 243.78C322.292 240.96 322.412 240.36 325.592 240.12C325.952 239.76 325.952 238.5 325.592 238.14C323.792 238.2 321.392 238.26 319.592 238.26C318.092 238.26 316.112 238.2 314.312 238.14C313.952 238.5 313.952 239.76 314.312 240.12C317.132 240.36 317.852 242.1 318.932 244.8L319.292 245.76L315.092 256.38C314.312 258.36 314.192 258.42 313.412 256.5L308.612 244.14C307.472 241.26 307.532 240.3 310.412 240.12ZM353.917 256.68V244.74C353.917 241.74 354.157 237.9 354.157 237.9C354.157 237.66 353.857 237.48 353.377 237.48C351.697 238.14 349.297 238.68 345.157 239.22C345.037 239.58 345.157 240.54 345.277 240.9C348.577 241.2 349.177 241.56 349.177 244.98V256.68C349.177 261.66 348.517 261.84 344.857 262.14C344.497 262.5 344.497 263.76 344.857 264.12C346.837 264.06 349.177 264 351.577 264C353.977 264 356.257 264.06 358.237 264.12C358.597 263.76 358.597 262.5 358.237 262.14C354.577 261.9 353.917 261.66 353.917 256.68ZM348.457 228.06C348.457 229.62 349.897 231.18 351.337 231.18C353.017 231.18 354.457 229.56 354.457 228.3C354.457 226.86 353.197 225.18 351.577 225.18C350.137 225.18 348.457 226.62 348.457 228.06ZM361.926 238.26C361.086 238.26 360.846 238.98 360.846 239.46V240.24C360.846 240.54 360.906 240.6 361.146 240.6H364.686V258.66C364.686 262.92 366.546 264.6 369.306 264.6C372.066 264.6 375.066 263.28 377.406 260.64C377.286 260.04 376.926 259.68 376.326 259.62C374.766 260.82 372.966 261.3 371.406 261.3C369.786 261.3 369.426 259.5 369.426 255.78V240.6H375.666C376.266 240.6 377.106 240.36 377.106 239.82V238.62C377.106 238.38 376.926 238.26 376.626 238.26H369.426V235.92C369.426 232.02 369.666 229.62 369.666 229.62C369.666 229.26 369.486 229.08 369.186 229.08C368.946 229.08 368.406 229.32 367.866 229.62C367.206 229.98 366.606 230.28 365.826 230.46C365.106 230.7 364.506 230.88 364.506 231.3C364.506 232.02 364.686 231.6 364.686 238.26H361.926ZM389.37 242.52C389.01 242.94 388.65 243.06 388.65 242.52C388.59 240.9 388.47 238.56 388.17 237.96C388.05 237.66 387.93 237.48 387.45 237.48C385.77 238.14 384.21 238.68 380.07 239.22C379.95 239.58 380.07 240.54 380.19 240.9C383.43 241.2 384.09 241.5 384.09 244.98V256.68C384.09 261.6 383.49 261.84 379.89 262.14C379.53 262.5 379.53 263.76 379.89 264.12C381.69 264.06 384.09 264 386.49 264C388.89 264 390.69 264.06 392.49 264.12C392.85 263.76 392.85 262.5 392.49 262.14C389.43 261.84 388.83 261.6 388.83 256.68V246.84C388.83 245.58 389.37 244.86 389.85 244.32C392.13 242.1 394.83 240.78 397.17 240.78C398.37 240.78 399.63 241.56 400.35 242.94C400.95 244.14 401.07 245.76 401.07 247.56V256.68C401.07 261.6 400.47 261.84 397.35 262.14C397.05 262.5 397.05 263.76 397.35 264.12C399.15 264.06 401.07 264 403.47 264C405.87 264 408.03 264.06 409.83 264.12C410.13 263.76 410.13 262.5 409.83 262.14C406.47 261.84 405.81 261.6 405.81 256.68V247.74C405.81 244.44 405.57 241.56 404.19 239.7C403.17 238.38 401.31 237.66 399.21 237.66C396.27 237.66 392.91 238.44 389.37 242.52ZM434.01 258.42C431.79 260.7 430.05 261.66 426.57 261.66C424.41 261.66 421.89 260.4 420.03 257.34C418.83 255.36 418.11 252.6 418.11 249.12L434.07 249.24C434.79 249.24 435.21 248.88 435.21 248.22C435.21 243.18 433.41 237.78 425.07 237.78C419.85 237.78 413.07 242.76 413.07 251.88C413.07 255.24 413.91 258.48 415.89 260.76C417.93 263.16 420.75 264.6 425.07 264.6C429.63 264.6 432.87 262.5 435.27 259.38C435.09 258.78 434.73 258.48 434.01 258.42ZM418.29 247.08C419.43 240.3 423.63 239.76 425.07 239.76C427.35 239.76 430.05 241.02 430.05 246.06C430.05 246.6 429.81 246.9 429.15 246.9L418.29 247.08ZM440.566 255.72C440.806 258.66 440.986 261.48 440.986 264C441.586 263.88 442.186 263.82 442.486 263.82C442.906 263.82 443.266 263.82 443.686 263.94C445.306 264.36 446.926 264.6 449.146 264.6C452.506 264.6 458.686 262.98 458.686 257.04C458.686 252.96 455.746 250.56 451.666 249.06C448.066 247.68 445.666 246.78 445.666 243.48C445.666 241.02 447.826 239.64 449.866 239.64C451.186 239.64 454.666 240.12 455.446 245.22C455.806 245.58 457.006 245.52 457.366 245.16C457.546 243 457.666 240.78 457.726 238.8C455.866 238.5 452.986 237.66 449.866 237.66C445.426 237.66 441.406 240.54 441.406 244.38C441.406 248.76 443.386 250.62 448.006 252.54C452.986 254.58 454.126 255.84 454.126 258.42C454.126 261.36 451.246 262.62 449.026 262.62C446.686 262.62 445.366 261.84 444.766 261.18C443.446 259.8 442.786 257.16 442.426 255.66C442.066 255.3 440.926 255.36 440.566 255.72ZM463.944 255.72C464.184 258.66 464.364 261.48 464.364 264C464.964 263.88 465.564 263.82 465.864 263.82C466.284 263.82 466.644 263.82 467.064 263.94C468.684 264.36 470.304 264.6 472.524 264.6C475.884 264.6 482.064 262.98 482.064 257.04C482.064 252.96 479.124 250.56 475.044 249.06C471.444 247.68 469.044 246.78 469.044 243.48C469.044 241.02 471.204 239.64 473.244 239.64C474.564 239.64 478.044 240.12 478.824 245.22C479.184 245.58 480.384 245.52 480.744 245.16C480.924 243 481.044 240.78 481.104 238.8C479.244 238.5 476.364 237.66 473.244 237.66C468.804 237.66 464.784 240.54 464.784 244.38C464.784 248.76 466.764 250.62 471.384 252.54C476.364 254.58 477.504 255.84 477.504 258.42C477.504 261.36 474.624 262.62 472.404 262.62C470.064 262.62 468.744 261.84 468.144 261.18C466.824 259.8 466.164 257.16 465.804 255.66C465.444 255.3 464.304 255.36 463.944 255.72ZM173.235 332.6C175.575 332.6 178.395 331.4 181.335 329C181.635 328.76 182.175 328.64 182.235 329.06C182.415 330.56 182.895 332.6 182.895 332.6C183.375 332.78 183.675 332.72 184.035 332.6C185.355 331.52 187.455 330.62 191.115 330.2C191.475 329.84 191.475 328.94 191.115 328.58C187.275 328.28 186.735 327.14 186.735 324.2V312.68C186.735 310.88 186.975 306.5 186.975 306.5C186.975 306.32 186.795 306.14 186.495 306.14C186.195 306.2 185.295 306.26 184.395 306.26C182.475 306.26 180.315 306.2 178.275 306.14C177.915 306.5 177.915 307.76 178.275 308.12C181.215 308.3 181.995 309.02 181.995 312.98V324.56C181.995 325.7 181.875 326.18 181.035 326.9C178.815 328.82 176.535 329.78 175.035 329.78C173.235 329.78 170.235 328.94 170.235 323.6V312.68C170.235 310.88 170.475 306.5 170.475 306.5C170.475 306.32 170.295 306.14 169.995 306.14C169.695 306.2 168.795 306.26 167.895 306.26C165.975 306.26 163.815 306.2 161.775 306.14C161.415 306.5 161.415 307.76 161.775 308.12C164.655 308.36 165.495 309.02 165.495 312.92V324.44C165.495 328.58 167.295 332.6 173.235 332.6ZM203.13 310.52C202.77 310.94 202.41 311.06 202.41 310.52C202.35 308.9 202.23 306.56 201.93 305.96C201.81 305.66 201.69 305.48 201.21 305.48C199.53 306.14 197.97 306.68 193.83 307.22C193.71 307.58 193.83 308.54 193.95 308.9C197.19 309.2 197.85 309.5 197.85 312.98V324.68C197.85 329.6 197.25 329.84 193.65 330.14C193.29 330.5 193.29 331.76 193.65 332.12C195.45 332.06 197.85 332 200.25 332C202.65 332 204.45 332.06 206.25 332.12C206.61 331.76 206.61 330.5 206.25 330.14C203.19 329.84 202.59 329.6 202.59 324.68V314.84C202.59 313.58 203.13 312.86 203.61 312.32C205.89 310.1 208.59 308.78 210.93 308.78C212.13 308.78 213.39 309.56 214.11 310.94C214.71 312.14 214.83 313.76 214.83 315.56V324.68C214.83 329.6 214.23 329.84 211.11 330.14C210.81 330.5 210.81 331.76 211.11 332.12C212.91 332.06 214.83 332 217.23 332C219.63 332 221.79 332.06 223.59 332.12C223.89 331.76 223.89 330.5 223.59 330.14C220.23 329.84 219.57 329.6 219.57 324.68V315.74C219.57 312.44 219.33 309.56 217.95 307.7C216.93 306.38 215.07 305.66 212.97 305.66C210.03 305.66 206.67 306.44 203.13 310.52ZM244.649 329C244.949 328.76 245.489 328.64 245.549 329.06C245.729 330.5 246.209 332.6 246.209 332.6C246.689 332.78 246.989 332.72 247.349 332.6C248.669 331.52 250.769 330.62 254.429 330.2C254.789 329.84 254.789 328.94 254.429 328.58C250.589 328.28 250.049 327.14 250.049 324.2V297.02C250.049 293.12 250.289 290.72 250.289 290.72C250.289 290.3 250.049 290.12 249.509 290.12C248.009 290.72 243.509 291.56 241.109 291.74C240.989 292.22 241.109 293.18 241.469 293.54C241.649 293.54 241.829 293.54 242.009 293.54C244.649 293.72 245.309 293.72 245.309 298.46V306.14C245.309 306.56 245.189 306.68 244.769 306.68C244.529 306.68 242.069 305.66 240.089 305.66C236.129 305.66 233.489 306.98 231.089 309.26C228.509 311.84 226.949 315.38 226.949 319.82C226.949 327.2 230.669 332.6 237.149 332.6C239.489 332.6 241.709 331.4 244.649 329ZM245.309 324.56C245.309 325.7 245.189 326.18 244.349 326.9C242.129 328.82 240.209 329.78 238.709 329.78C235.469 329.78 232.109 326.24 232.109 318.74C232.109 314.42 232.949 312.02 233.849 310.76C235.709 307.94 238.229 307.76 239.429 307.76C241.589 307.76 243.089 308.54 244.289 309.92C245.129 310.88 245.309 311.3 245.309 313.16V324.56ZM278.121 326.42C275.901 328.7 274.161 329.66 270.681 329.66C268.521 329.66 266.001 328.4 264.141 325.34C262.941 323.36 262.221 320.6 262.221 317.12L278.181 317.24C278.901 317.24 279.321 316.88 279.321 316.22C279.321 311.18 277.521 305.78 269.181 305.78C263.961 305.78 257.181 310.76 257.181 319.88C257.181 323.24 258.021 326.48 260.001 328.76C262.041 331.16 264.861 332.6 269.181 332.6C273.741 332.6 276.981 330.5 279.381 327.38C279.201 326.78 278.841 326.48 278.121 326.42ZM262.401 315.08C263.541 308.3 267.741 307.76 269.181 307.76C271.461 307.76 274.161 309.02 274.161 314.06C274.161 314.6 273.921 314.9 273.261 314.9L262.401 315.08ZM306.087 326.54C305.847 326 305.367 325.76 304.827 325.7C302.787 328.34 300.207 329.66 297.627 329.66C293.247 329.66 289.587 325.22 289.587 318.2C289.587 311.6 292.467 307.64 296.427 307.64C299.967 307.64 300.447 309.74 300.687 311.84C300.867 313.46 301.707 314 302.967 314C304.227 314 305.907 313.22 305.907 311.36C305.907 308.06 302.487 305.66 296.727 305.66C290.787 305.66 284.427 311 284.427 319.52C284.427 327.26 288.747 332.6 296.307 332.6C299.907 332.6 303.087 331.46 306.087 326.54ZM318.731 324.68V312.74C318.731 309.74 318.971 305.9 318.971 305.9C318.971 305.66 318.671 305.48 318.191 305.48C316.511 306.14 314.111 306.68 309.971 307.22C309.851 307.58 309.971 308.54 310.091 308.9C313.391 309.2 313.991 309.56 313.991 312.98V324.68C313.991 329.66 313.331 329.84 309.671 330.14C309.311 330.5 309.311 331.76 309.671 332.12C311.651 332.06 313.991 332 316.391 332C318.791 332 321.071 332.06 323.051 332.12C323.411 331.76 323.411 330.5 323.051 330.14C319.391 329.9 318.731 329.66 318.731 324.68ZM313.271 296.06C313.271 297.62 314.711 299.18 316.151 299.18C317.831 299.18 319.271 297.56 319.271 296.3C319.271 294.86 318.011 293.18 316.391 293.18C314.951 293.18 313.271 294.62 313.271 296.06ZM344.2 329C344.5 328.76 345.04 328.64 345.1 329.06C345.28 330.5 345.76 332.6 345.76 332.6C346.24 332.78 346.54 332.72 346.9 332.6C348.22 331.52 350.32 330.62 353.98 330.2C354.34 329.84 354.34 328.94 353.98 328.58C350.14 328.28 349.6 327.14 349.6 324.2V297.02C349.6 293.12 349.84 290.72 349.84 290.72C349.84 290.3 349.6 290.12 349.06 290.12C347.56 290.72 343.06 291.56 340.66 291.74C340.54 292.22 340.66 293.18 341.02 293.54C341.2 293.54 341.38 293.54 341.56 293.54C344.2 293.72 344.86 293.72 344.86 298.46V306.14C344.86 306.56 344.74 306.68 344.32 306.68C344.08 306.68 341.62 305.66 339.64 305.66C335.68 305.66 333.04 306.98 330.64 309.26C328.06 311.84 326.5 315.38 326.5 319.82C326.5 327.2 330.22 332.6 336.7 332.6C339.04 332.6 341.26 331.4 344.2 329ZM344.86 324.56C344.86 325.7 344.74 326.18 343.9 326.9C341.68 328.82 339.76 329.78 338.26 329.78C335.02 329.78 331.66 326.24 331.66 318.74C331.66 314.42 332.5 312.02 333.4 310.76C335.26 307.94 337.78 307.76 338.98 307.76C341.14 307.76 342.64 308.54 343.84 309.92C344.68 310.88 344.86 311.3 344.86 313.16V324.56ZM372.092 329.12C372.452 330.98 373.112 332.6 376.112 332.6C378.392 332.6 380.552 331.58 381.812 330.38C381.692 329.66 381.452 329.12 380.792 328.76C380.372 329.12 379.352 329.72 378.572 329.72C376.832 329.72 376.772 327.38 376.772 324.62V315.8C376.772 307.28 372.092 305.66 367.712 305.66C362.792 305.66 357.812 308.9 357.812 312.32C357.812 313.76 358.532 314.48 359.912 314.48C361.652 314.48 362.732 313.22 362.732 312.44C362.732 312.02 362.672 311.6 362.552 311.36C362.492 311.18 362.432 310.82 362.432 310.16C362.432 308.3 364.952 307.64 367.232 307.64C369.272 307.64 372.092 308.66 372.092 315.44C372.092 315.86 371.912 316.1 371.732 316.16L366.572 317.42C360.812 318.86 356.672 322.04 356.672 326.12C356.672 331.04 360.032 332.6 364.232 332.6C366.332 332.6 368.132 332.12 370.772 330.08L371.972 329.12H372.092ZM372.092 318.02V325.94C372.092 326.72 371.732 327.14 371.252 327.5C369.692 328.76 367.652 330.14 365.972 330.14C362.972 330.14 361.652 327.74 361.652 325.88C361.652 323.18 362.912 320.42 367.352 319.28L372.092 318.02ZM391.954 308.36C391.594 308.72 391.354 308.6 391.354 308.06V297.02C391.354 293.12 391.594 290.72 391.594 290.72C391.594 290.3 391.354 290.12 390.814 290.12C389.314 290.72 384.814 291.56 382.414 291.74C382.294 292.22 382.414 293.18 382.774 293.54C382.954 293.54 383.134 293.54 383.314 293.54C385.954 293.72 386.614 293.72 386.614 298.46V327.74C386.614 330.08 386.554 331.16 386.374 332C386.674 332.48 386.974 332.72 387.694 332.72C388.054 332.36 388.654 331.82 389.134 331.28C389.734 330.56 390.094 330.56 390.754 331.1C392.134 332.24 393.934 332.6 396.034 332.6C402.154 332.6 409.294 327.02 409.294 317.48C409.294 310.16 403.894 305.66 398.674 305.66C396.094 305.66 393.814 306.68 391.954 308.36ZM392.374 310.22C393.934 308.84 395.734 308.3 397.474 308.3C401.134 308.3 404.134 312.74 404.134 318.56C404.134 325.4 401.374 330.56 395.674 330.56C393.814 330.56 392.554 329.24 391.354 327.74V312.74C391.354 311.48 391.594 310.88 392.374 310.22ZM422.383 324.68V312.74C422.383 309.74 422.623 305.9 422.623 305.9C422.623 305.66 422.323 305.48 421.843 305.48C420.163 306.14 417.763 306.68 413.623 307.22C413.503 307.58 413.623 308.54 413.743 308.9C417.043 309.2 417.643 309.56 417.643 312.98V324.68C417.643 329.66 416.983 329.84 413.323 330.14C412.963 330.5 412.963 331.76 413.323 332.12C415.303 332.06 417.643 332 420.043 332C422.443 332 424.723 332.06 426.703 332.12C427.063 331.76 427.063 330.5 426.703 330.14C423.043 329.9 422.383 329.66 422.383 324.68ZM416.923 296.06C416.923 297.62 418.363 299.18 419.803 299.18C421.483 299.18 422.923 297.56 422.923 296.3C422.923 294.86 421.663 293.18 420.043 293.18C418.603 293.18 416.923 294.62 416.923 296.06ZM433.513 324.68C433.513 329.66 432.853 329.96 429.193 330.14C428.833 330.5 428.833 331.76 429.193 332.12C431.293 332.06 433.513 332 435.913 332C438.313 332 440.593 332.06 442.573 332.12C442.933 331.76 442.933 330.5 442.573 330.14C438.913 329.96 438.253 329.66 438.253 324.68V297.02C438.253 293.12 438.493 290.72 438.493 290.72C438.493 290.3 438.253 290.12 437.713 290.12C436.213 290.72 431.713 291.56 429.313 291.74C429.193 292.22 429.313 293.18 429.673 293.54C433.153 293.78 433.513 293.96 433.513 298.46V324.68ZM454.493 324.68V312.74C454.493 309.74 454.733 305.9 454.733 305.9C454.733 305.66 454.433 305.48 453.953 305.48C452.273 306.14 449.873 306.68 445.733 307.22C445.613 307.58 445.733 308.54 445.853 308.9C449.153 309.2 449.753 309.56 449.753 312.98V324.68C449.753 329.66 449.093 329.84 445.433 330.14C445.073 330.5 445.073 331.76 445.433 332.12C447.413 332.06 449.753 332 452.153 332C454.553 332 456.833 332.06 458.813 332.12C459.173 331.76 459.173 330.5 458.813 330.14C455.153 329.9 454.493 329.66 454.493 324.68ZM449.033 296.06C449.033 297.62 450.473 299.18 451.913 299.18C453.593 299.18 455.033 297.56 455.033 296.3C455.033 294.86 453.773 293.18 452.153 293.18C450.713 293.18 449.033 294.62 449.033 296.06ZM462.502 306.26C461.662 306.26 461.422 306.98 461.422 307.46V308.24C461.422 308.54 461.482 308.6 461.722 308.6H465.262V326.66C465.262 330.92 467.122 332.6 469.882 332.6C472.642 332.6 475.642 331.28 477.982 328.64C477.862 328.04 477.502 327.68 476.902 327.62C475.342 328.82 473.542 329.3 471.982 329.3C470.362 329.3 470.002 327.5 470.002 323.78V308.6H476.242C476.842 308.6 477.682 308.36 477.682 307.82V306.62C477.682 306.38 477.502 306.26 477.202 306.26H470.002V303.92C470.002 300.02 470.242 297.62 470.242 297.62C470.242 297.26 470.062 297.08 469.762 297.08C469.522 297.08 468.982 297.32 468.442 297.62C467.782 297.98 467.182 298.28 466.402 298.46C465.682 298.7 465.082 298.88 465.082 299.3C465.082 300.02 465.262 299.6 465.262 306.26H462.502ZM491.146 341.6C492.106 339.92 492.886 338.24 493.606 336.44C498.406 324.86 501.106 318.68 504.226 311.96C505.426 309.44 506.266 308.48 509.086 308.12C509.446 307.76 509.446 306.5 509.086 306.14C507.886 306.2 506.506 306.26 504.826 306.26C503.026 306.26 501.166 306.2 499.366 306.14C499.006 306.5 499.006 307.76 499.366 308.12C501.286 308.3 503.206 308.66 502.246 310.82L496.306 324.56C495.886 325.52 495.346 325.7 494.866 324.5L489.526 312.02C488.446 309.5 488.146 308.36 491.506 308.12C491.866 307.76 491.866 306.5 491.506 306.14C489.286 306.2 486.886 306.26 484.726 306.26C482.686 306.26 481.066 306.2 479.866 306.14C479.506 306.5 479.506 307.76 479.866 308.12C482.266 308.42 483.046 308.96 484.606 312.62L491.386 328.4C491.926 329.6 492.826 332.36 492.226 334.04C491.506 336.02 490.786 337.7 489.886 339.56C489.226 340.76 488.386 341.3 486.886 341.3C486.046 341.3 485.806 341.12 485.146 341.12C483.406 341.12 482.506 342.92 482.506 343.7C482.506 344.96 483.706 345.92 485.326 345.92C486.586 345.92 488.986 345.44 491.146 341.6ZM174.616 392.68C174.616 397.66 173.956 397.96 170.296 398.14C169.936 398.5 169.936 399.76 170.296 400.12C172.396 400.06 174.616 400 177.016 400C179.416 400 181.696 400.06 183.676 400.12C184.036 399.76 184.036 398.5 183.676 398.14C180.016 397.96 179.356 397.66 179.356 392.68V365.02C179.356 361.12 179.596 358.72 179.596 358.72C179.596 358.3 179.356 358.12 178.816 358.12C177.316 358.72 172.816 359.56 170.416 359.74C170.296 360.22 170.416 361.18 170.776 361.54C174.256 361.78 174.616 361.96 174.616 366.46V392.68ZM187.196 387.7C187.196 393.82 191.276 400.6 199.796 400.6C203.636 400.6 206.576 399.22 208.616 397.24C211.316 394.6 212.516 390.82 212.516 387.16C212.516 380.92 209.096 373.66 199.916 373.66C195.956 373.66 192.716 375.28 190.496 377.86C188.336 380.44 187.196 383.92 187.196 387.7ZM199.016 375.76C204.176 375.76 207.356 380.44 207.356 389.08C207.356 396.64 203.456 398.5 200.636 398.5C194.396 398.5 192.356 390.94 192.356 386.32C192.356 381.1 193.616 375.76 199.016 375.76ZM217.841 387.7C217.841 393.82 221.921 400.6 230.441 400.6C234.281 400.6 237.221 399.22 239.261 397.24C241.961 394.6 243.161 390.82 243.161 387.16C243.161 380.92 239.741 373.66 230.561 373.66C226.601 373.66 223.361 375.28 221.141 377.86C218.981 380.44 217.841 383.92 217.841 387.7ZM229.661 375.76C234.821 375.76 238.001 380.44 238.001 389.08C238.001 396.64 234.101 398.5 231.281 398.5C225.041 398.5 223.001 390.94 223.001 386.32C223.001 381.1 224.261 375.76 229.661 375.76ZM250.775 392.68C250.775 397.66 250.115 397.9 246.755 398.14C246.395 398.5 246.395 399.76 246.755 400.12C248.735 400.06 250.775 400 253.175 400C255.275 400 257.255 400.06 258.635 400.12C258.995 399.76 258.995 398.5 258.635 398.14C256.175 397.9 255.515 397.66 255.515 392.68V387.46C256.655 387.52 257.495 387.58 258.095 387.76C258.755 388.24 259.295 388.78 260.015 389.74L264.395 395.62C266.135 397.96 266.855 399.1 266.915 399.82C266.915 400 266.975 400.12 267.155 400.12C268.355 400.06 269.675 400 270.875 400C272.735 400 274.595 400.06 275.795 400.12C276.155 399.76 276.155 398.5 275.795 398.14C273.755 397.9 272.255 397.66 270.635 395.62L262.715 385.66C262.475 385.36 262.295 385.12 262.295 384.82C262.295 384.58 262.295 384.46 262.535 384.22L267.815 378.76C269.615 376.84 271.715 376.36 274.115 376.12C274.475 375.76 274.475 374.5 274.115 374.14C272.735 374.2 271.055 374.26 268.895 374.26C266.615 374.26 264.395 374.2 263.015 374.14C262.655 374.5 262.655 375.76 263.015 376.12C266.375 376.36 264.935 378.46 264.395 379.18C263.015 380.92 261.155 382.96 259.595 384.1C258.275 385.06 256.655 385.78 255.515 385.96V365.02C255.515 361.12 255.755 358.72 255.755 358.72C255.755 358.3 255.515 358.12 254.975 358.12C253.475 358.72 248.975 359.56 246.575 359.74C246.455 360.22 246.575 361.18 246.935 361.54C247.115 361.54 247.295 361.54 247.475 361.54C250.115 361.72 250.775 361.72 250.775 366.46V392.68ZM297.018 392.68C297.018 397.66 296.358 397.96 292.698 398.14C292.338 398.5 292.338 399.76 292.698 400.12C294.798 400.06 297.018 400 299.418 400C301.818 400 304.098 400.06 306.078 400.12C306.438 399.76 306.438 398.5 306.078 398.14C302.418 397.96 301.758 397.66 301.758 392.68V365.02C301.758 361.12 301.998 358.72 301.998 358.72C301.998 358.3 301.758 358.12 301.218 358.12C299.718 358.72 295.218 359.56 292.818 359.74C292.698 360.22 292.818 361.18 293.178 361.54C296.658 361.78 297.018 361.96 297.018 366.46V392.68ZM317.999 392.68V380.74C317.999 377.74 318.239 373.9 318.239 373.9C318.239 373.66 317.939 373.48 317.459 373.48C315.779 374.14 313.379 374.68 309.239 375.22C309.119 375.58 309.239 376.54 309.359 376.9C312.659 377.2 313.259 377.56 313.259 380.98V392.68C313.259 397.66 312.599 397.84 308.939 398.14C308.579 398.5 308.579 399.76 308.939 400.12C310.919 400.06 313.259 400 315.659 400C318.059 400 320.339 400.06 322.319 400.12C322.679 399.76 322.679 398.5 322.319 398.14C318.659 397.9 317.999 397.66 317.999 392.68ZM312.539 364.06C312.539 365.62 313.979 367.18 315.419 367.18C317.099 367.18 318.539 365.56 318.539 364.3C318.539 362.86 317.279 361.18 315.659 361.18C314.219 361.18 312.539 362.62 312.539 364.06ZM328.588 392.68C328.588 397.66 327.928 397.9 324.568 398.14C324.208 398.5 324.208 399.76 324.568 400.12C326.548 400.06 328.588 400 330.988 400C333.088 400 335.068 400.06 336.448 400.12C336.808 399.76 336.808 398.5 336.448 398.14C333.988 397.9 333.328 397.66 333.328 392.68V387.46C334.468 387.52 335.308 387.58 335.908 387.76C336.568 388.24 337.108 388.78 337.828 389.74L342.208 395.62C343.948 397.96 344.668 399.1 344.728 399.82C344.728 400 344.788 400.12 344.968 400.12C346.168 400.06 347.488 400 348.688 400C350.548 400 352.408 400.06 353.608 400.12C353.968 399.76 353.968 398.5 353.608 398.14C351.568 397.9 350.068 397.66 348.448 395.62L340.528 385.66C340.288 385.36 340.108 385.12 340.108 384.82C340.108 384.58 340.108 384.46 340.348 384.22L345.628 378.76C347.428 376.84 349.528 376.36 351.928 376.12C352.288 375.76 352.288 374.5 351.928 374.14C350.548 374.2 348.868 374.26 346.708 374.26C344.428 374.26 342.208 374.2 340.828 374.14C340.468 374.5 340.468 375.76 340.828 376.12C344.188 376.36 342.748 378.46 342.208 379.18C340.828 380.92 338.968 382.96 337.408 384.1C336.088 385.06 334.468 385.78 333.328 385.96V365.02C333.328 361.12 333.568 358.72 333.568 358.72C333.568 358.3 333.328 358.12 332.788 358.12C331.288 358.72 326.788 359.56 324.388 359.74C324.268 360.22 324.388 361.18 324.748 361.54C324.928 361.54 325.108 361.54 325.288 361.54C327.928 361.72 328.588 361.72 328.588 366.46V392.68ZM377.291 394.42C375.071 396.7 373.331 397.66 369.851 397.66C367.691 397.66 365.171 396.4 363.311 393.34C362.111 391.36 361.391 388.6 361.391 385.12L377.351 385.24C378.071 385.24 378.491 384.88 378.491 384.22C378.491 379.18 376.691 373.78 368.351 373.78C363.131 373.78 356.351 378.76 356.351 387.88C356.351 391.24 357.191 394.48 359.171 396.76C361.211 399.16 364.031 400.6 368.351 400.6C372.911 400.6 376.151 398.5 378.551 395.38C378.371 394.78 378.011 394.48 377.291 394.42ZM361.571 383.08C362.711 376.3 366.911 375.76 368.351 375.76C370.631 375.76 373.331 377.02 373.331 382.06C373.331 382.6 373.091 382.9 372.431 382.9L361.571 383.08ZM398.547 374.26C397.707 374.26 397.467 374.98 397.467 375.46V376.24C397.467 376.54 397.527 376.6 397.767 376.6H401.307V394.66C401.307 398.92 403.167 400.6 405.927 400.6C408.687 400.6 411.687 399.28 414.027 396.64C413.907 396.04 413.547 395.68 412.947 395.62C411.387 396.82 409.587 397.3 408.027 397.3C406.407 397.3 406.047 395.5 406.047 391.78V376.6H412.287C412.887 376.6 413.727 376.36 413.727 375.82V374.62C413.727 374.38 413.547 374.26 413.247 374.26H406.047V371.92C406.047 368.02 406.287 365.62 406.287 365.62C406.287 365.26 406.107 365.08 405.807 365.08C405.567 365.08 405.027 365.32 404.487 365.62C403.827 365.98 403.227 366.28 402.447 366.46C401.727 366.7 401.127 366.88 401.127 367.3C401.127 368.02 401.307 367.6 401.307 374.26H398.547ZM424.971 382.84C424.971 381.58 425.511 380.86 425.991 380.32C428.271 378.1 431.331 376.78 433.671 376.78C434.871 376.78 436.131 377.56 436.851 378.94C437.451 380.14 437.571 381.76 437.571 383.56V392.68C437.571 397.6 436.971 397.84 433.851 398.14C433.551 398.5 433.551 399.76 433.851 400.12C435.531 400.06 437.571 400 439.971 400C442.371 400 444.351 400.06 446.331 400.12C446.631 399.76 446.631 398.5 446.331 398.14C442.971 397.84 442.311 397.6 442.311 392.68V383.74C442.311 380.44 442.071 377.5 440.691 375.7C439.671 374.38 437.811 373.66 435.711 373.66C432.771 373.66 429.171 374.44 425.511 378.52C425.511 378.58 425.451 378.58 425.391 378.64C425.211 378.88 424.911 379.24 424.911 378.52L424.971 365.02C424.971 361.12 425.211 358.72 425.211 358.72C425.211 358.3 424.971 358.12 424.431 358.12C422.931 358.72 418.431 359.56 416.031 359.74C415.911 360.22 416.031 361.18 416.391 361.54C416.571 361.54 416.751 361.54 416.931 361.54C419.571 361.72 420.231 361.72 420.231 366.46V392.68C420.231 397.66 419.511 397.9 416.031 398.14C415.671 398.5 415.671 399.76 416.031 400.12C418.011 400.06 420.231 400 422.631 400C424.911 400 426.891 400.06 428.571 400.12C428.931 399.76 428.931 398.5 428.571 398.14C425.511 397.9 424.971 397.66 424.971 392.68V382.84ZM458.096 392.68V380.74C458.096 377.74 458.336 373.9 458.336 373.9C458.336 373.66 458.036 373.48 457.556 373.48C455.876 374.14 453.476 374.68 449.336 375.22C449.216 375.58 449.336 376.54 449.456 376.9C452.756 377.2 453.356 377.56 453.356 380.98V392.68C453.356 397.66 452.696 397.84 449.036 398.14C448.676 398.5 448.676 399.76 449.036 400.12C451.016 400.06 453.356 400 455.756 400C458.156 400 460.436 400.06 462.416 400.12C462.776 399.76 462.776 398.5 462.416 398.14C458.756 397.9 458.096 397.66 458.096 392.68ZM452.636 364.06C452.636 365.62 454.076 367.18 455.516 367.18C457.196 367.18 458.636 365.56 458.636 364.3C458.636 362.86 457.376 361.18 455.756 361.18C454.316 361.18 452.636 362.62 452.636 364.06ZM466.405 391.72C466.645 394.66 466.825 397.48 466.825 400C467.425 399.88 468.025 399.82 468.325 399.82C468.745 399.82 469.105 399.82 469.525 399.94C471.145 400.36 472.765 400.6 474.985 400.6C478.345 400.6 484.525 398.98 484.525 393.04C484.525 388.96 481.585 386.56 477.505 385.06C473.905 383.68 471.505 382.78 471.505 379.48C471.505 377.02 473.665 375.64 475.705 375.64C477.025 375.64 480.505 376.12 481.285 381.22C481.645 381.58 482.845 381.52 483.205 381.16C483.385 379 483.505 376.78 483.565 374.8C481.705 374.5 478.825 373.66 475.705 373.66C471.265 373.66 467.245 376.54 467.245 380.38C467.245 384.76 469.225 386.62 473.845 388.54C478.825 390.58 479.965 391.84 479.965 394.42C479.965 397.36 477.085 398.62 474.865 398.62C472.525 398.62 471.205 397.84 470.605 397.18C469.285 395.8 468.625 393.16 468.265 391.66C467.905 391.3 466.765 391.36 466.405 391.72ZM491.104 396.4C491.104 398.14 492.544 399.58 494.284 399.58C496.024 399.58 497.464 398.14 497.464 396.4C497.464 394.66 496.024 393.22 494.284 393.22C492.544 393.22 491.104 394.66 491.104 396.4ZM491.104 378.52C491.104 380.26 492.544 381.7 494.284 381.7C496.024 381.7 497.464 380.26 497.464 378.52C497.464 376.78 496.024 375.34 494.284 375.34C492.544 375.34 491.104 376.78 491.104 378.52Z" fill="black"/>
<g id="Group 17">
<line id="Line 52" x1="160.451" y1="473.952" x2="160.451" y2="807.385" stroke="black"/>
<line id="Line 54" x1="299.195" y1="473.952" x2="299.195" y2="807.385" stroke="black"/>
<line id="Line 56" x1="437.939" y1="473.952" x2="437.939" y2="807.385" stroke="black"/>
<line id="Line 53" x1="229.823" y1="473.952" x2="229.823" y2="807.385" stroke="black"/>
<line id="Line 55" x1="368.567" y1="473.952" x2="368.567" y2="807.385" stroke="black"/>
<line id="Line 57" x1="507.311" y1="473.952" x2="507.311" y2="807.385" stroke="black"/>
<line id="Line 58" x1="168.902" y1="806.885" x2="502.335" y2="806.885" stroke="black"/>
<line id="Line 59" x1="168.902" y1="672.615" x2="502.335" y2="672.615" stroke="black"/>
<line id="Line 60" x1="168.902" y1="542.823" x2="502.335" y2="542.823" stroke="black"/>
<line id="Line 61" x1="168.902" y1="739.75" x2="502.335" y2="739.75" stroke="black"/>
<line id="Line 62" x1="168.902" y1="609.957" x2="502.335" y2="609.957" stroke="black"/>
<line id="Line 63" x1="168.902" y1="475.689" x2="502.335" y2="475.689" stroke="black"/>
<circle id="Ellipse 1" cx="161.07" cy="475.07" r="10.0701" fill="#333333"/>
<circle id="Ellipse 4" cx="161.07" cy="671.997" r="10.0701" fill="#333333"/>
<circle id="Ellipse 3" cx="161.07" cy="609.338" r="10.0701" fill="#333333"/>
<circle id="Ellipse 5" cx="161.07" cy="806.265" r="10.0701" fill="#333333"/>
<circle id="Ellipse 2" cx="161.07" cy="542.205" r="10.0701" fill="#333333"/>
<circle id="Ellipse 6" cx="161.07" cy="739.131" r="10.0701" fill="#333333"/>
<circle id="Ellipse 1_2" cx="369.186" cy="475.07" r="10.0701" fill="#333333"/>
<circle id="Ellipse 4_2" cx="369.186" cy="671.997" r="10.0701" fill="#333333"/>
<circle id="Ellipse 3_2" cx="369.186" cy="609.338" r="10.0701" fill="#333333"/>
<circle id="Ellipse 5_2" cx="369.186" cy="806.265" r="10.0701" fill="#333333"/>
<circle id="Ellipse 2_2" cx="369.186" cy="542.205" r="10.0701" fill="#333333"/>
<circle id="Ellipse 6_2" cx="369.186" cy="739.131" r="10.0701" fill="#333333"/>
<circle id="Ellipse 1_3" cx="230.442" cy="475.07" r="10.0701" fill="#333333"/>
<circle id="Ellipse 4_3" cx="230.442" cy="671.997" r="10.0701" fill="#333333"/>
<circle id="Ellipse 3_3" cx="230.442" cy="609.338" r="10.0701" fill="#333333"/>
<circle id="Ellipse 5_3" cx="230.442" cy="806.265" r="10.0701" fill="#333333"/>
<circle id="Ellipse 2_3" cx="230.442" cy="542.205" r="10.0701" fill="#333333"/>
<circle id="Ellipse 6_3" cx="230.442" cy="739.131" r="10.0701" fill="#333333"/>
<circle id="Ellipse 1_4" cx="438.558" cy="475.07" r="10.0701" fill="#333333"/>
<circle id="Ellipse 4_4" cx="438.558" cy="671.997" r="10.0701" fill="#333333"/>
<circle id="Ellipse 3_4" cx="438.558" cy="609.338" r="10.0701" fill="#333333"/>
<circle id="Ellipse 5_4" cx="438.558" cy="806.265" r="10.0701" fill="#333333"/>
<circle id="Ellipse 2_4" cx="438.558" cy="542.205" r="10.0701" fill="#333333"/>
<circle id="Ellipse 6_4" cx="438.558" cy="739.131" r="10.0701" fill="#333333"/>
<circle id="Ellipse 1_5" cx="299.814" cy="475.07" r="10.0701" fill="#333333"/>
<circle id="Ellipse 4_5" cx="299.814" cy="671.997" r="10.0701" fill="#333333"/>
<circle id="Ellipse 3_5" cx="299.814" cy="609.338" r="10.0701" fill="#333333"/>
<circle id="Ellipse 5_5" cx="299.814" cy="806.265" r="10.0701" fill="#333333"/>
<circle id="Ellipse 2_5" cx="299.814" cy="542.205" r="10.0701" fill="#333333"/>
<circle id="Ellipse 6_5" cx="299.814" cy="739.131" r="10.0701" fill="#333333"/>
<circle id="Ellipse 1_6" cx="507.93" cy="475.07" r="10.0701" fill="#333333"/>
<circle id="Ellipse 4_6" cx="507.93" cy="671.997" r="10.0701" fill="#333333"/>
<circle id="Ellipse 3_6" cx="507.93" cy="609.338" r="10.0701" fill="#333333"/>
<circle id="Ellipse 5_6" cx="507.93" cy="806.265" r="10.0701" fill="#333333"/>
<circle id="Ellipse 2_6" cx="507.93" cy="542.205" r="10.0701" fill="#333333"/>
<circle id="Ellipse 6_6" cx="507.93" cy="739.131" r="10.0701" fill="#333333"/>
</g>
</g>
<g id="140:758">
<path id="What about graphs that look like this:" d="M828.873 162.1L819.513 188.14L819.333 188.08L811.053 162.76C810.033 159.52 812.133 159.34 814.173 159.16C814.533 158.8 814.533 157.54 814.173 157.18C811.713 157.24 809.073 157.3 806.673 157.3C804.693 157.3 802.593 157.24 800.673 157.18C800.313 157.54 800.313 158.8 800.673 159.16C803.853 159.34 805.173 161.2 805.713 162.76L807.093 166.72C807.333 167.44 807.513 168.04 807.513 168.58C807.513 169.18 807.453 169.66 806.973 170.68L799.233 188.26L798.933 188.2L790.173 161.68C789.453 159.58 791.073 159.28 793.173 159.16C793.533 158.8 793.533 157.54 793.173 157.18C791.193 157.24 788.553 157.3 786.213 157.3C784.113 157.3 782.373 157.24 780.633 157.18C780.273 157.54 780.273 158.8 780.633 159.16C783.333 159.34 783.753 159.4 784.893 162.64L796.173 195.1C796.473 196.06 796.833 196.72 797.493 196.72C798.273 196.72 798.633 196.12 799.053 195.1L807.993 175C808.533 173.8 808.713 173.5 809.013 173.5C809.253 173.5 809.493 174.16 809.853 175.18L816.753 195.1C817.113 196.12 817.413 196.72 818.133 196.72C818.793 196.72 819.213 196.06 819.513 195.16L831.573 162.82C832.353 160.72 833.433 159.34 836.733 159.16C837.093 158.8 837.093 157.54 836.733 157.18C834.993 157.24 833.073 157.3 831.513 157.3C829.953 157.3 827.313 157.24 824.913 157.18C824.553 157.54 824.553 158.8 824.913 159.16C827.373 159.34 829.773 159.52 828.873 162.1ZM847.364 178.84C847.364 177.58 847.904 176.86 848.384 176.32C850.664 174.1 853.724 172.78 856.064 172.78C857.264 172.78 858.524 173.56 859.244 174.94C859.844 176.14 859.964 177.76 859.964 179.56V188.68C859.964 193.6 859.364 193.84 856.244 194.14C855.944 194.5 855.944 195.76 856.244 196.12C857.924 196.06 859.964 196 862.364 196C864.764 196 866.744 196.06 868.724 196.12C869.024 195.76 869.024 194.5 868.724 194.14C865.364 193.84 864.704 193.6 864.704 188.68V179.74C864.704 176.44 864.464 173.5 863.084 171.7C862.064 170.38 860.204 169.66 858.104 169.66C855.164 169.66 851.564 170.44 847.904 174.52C847.904 174.58 847.844 174.58 847.784 174.64C847.604 174.88 847.304 175.24 847.304 174.52L847.364 161.02C847.364 157.12 847.604 154.72 847.604 154.72C847.604 154.3 847.364 154.12 846.824 154.12C845.324 154.72 840.824 155.56 838.424 155.74C838.304 156.22 838.424 157.18 838.784 157.54C838.964 157.54 839.144 157.54 839.324 157.54C841.964 157.72 842.624 157.72 842.624 162.46V188.68C842.624 193.66 841.904 193.9 838.424 194.14C838.064 194.5 838.064 195.76 838.424 196.12C840.404 196.06 842.624 196 845.024 196C847.304 196 849.284 196.06 850.964 196.12C851.324 195.76 851.324 194.5 850.964 194.14C847.904 193.9 847.364 193.66 847.364 188.68V178.84ZM887.209 193.12C887.569 194.98 888.229 196.6 891.229 196.6C893.509 196.6 895.669 195.58 896.929 194.38C896.809 193.66 896.569 193.12 895.909 192.76C895.489 193.12 894.469 193.72 893.689 193.72C891.949 193.72 891.889 191.38 891.889 188.62V179.8C891.889 171.28 887.209 169.66 882.829 169.66C877.909 169.66 872.929 172.9 872.929 176.32C872.929 177.76 873.649 178.48 875.029 178.48C876.769 178.48 877.849 177.22 877.849 176.44C877.849 176.02 877.789 175.6 877.669 175.36C877.609 175.18 877.549 174.82 877.549 174.16C877.549 172.3 880.069 171.64 882.349 171.64C884.389 171.64 887.209 172.66 887.209 179.44C887.209 179.86 887.029 180.1 886.849 180.16L881.689 181.42C875.929 182.86 871.789 186.04 871.789 190.12C871.789 195.04 875.149 196.6 879.349 196.6C881.449 196.6 883.249 196.12 885.889 194.08L887.089 193.12H887.209ZM887.209 182.02V189.94C887.209 190.72 886.849 191.14 886.369 191.5C884.809 192.76 882.769 194.14 881.089 194.14C878.089 194.14 876.769 191.74 876.769 189.88C876.769 187.18 878.029 184.42 882.469 183.28L887.209 182.02ZM899.631 170.26C898.791 170.26 898.551 170.98 898.551 171.46V172.24C898.551 172.54 898.611 172.6 898.851 172.6H902.391V190.66C902.391 194.92 904.251 196.6 907.011 196.6C909.771 196.6 912.771 195.28 915.111 192.64C914.991 192.04 914.631 191.68 914.031 191.62C912.471 192.82 910.671 193.3 909.111 193.3C907.491 193.3 907.131 191.5 907.131 187.78V172.6H913.371C913.971 172.6 914.811 172.36 914.811 171.82V170.62C914.811 170.38 914.631 170.26 914.331 170.26H907.131V167.92C907.131 164.02 907.371 161.62 907.371 161.62C907.371 161.26 907.191 161.08 906.891 161.08C906.651 161.08 906.111 161.32 905.571 161.62C904.911 161.98 904.311 162.28 903.531 162.46C902.811 162.7 902.211 162.88 902.211 163.3C902.211 164.02 902.391 163.6 902.391 170.26H899.631ZM948.615 193.12C948.975 194.98 949.635 196.6 952.635 196.6C954.915 196.6 957.075 195.58 958.335 194.38C958.215 193.66 957.975 193.12 957.315 192.76C956.895 193.12 955.875 193.72 955.095 193.72C953.355 193.72 953.295 191.38 953.295 188.62V179.8C953.295 171.28 948.615 169.66 944.235 169.66C939.315 169.66 934.335 172.9 934.335 176.32C934.335 177.76 935.055 178.48 936.435 178.48C938.175 178.48 939.255 177.22 939.255 176.44C939.255 176.02 939.195 175.6 939.075 175.36C939.015 175.18 938.955 174.82 938.955 174.16C938.955 172.3 941.475 171.64 943.755 171.64C945.795 171.64 948.615 172.66 948.615 179.44C948.615 179.86 948.435 180.1 948.255 180.16L943.095 181.42C937.335 182.86 933.195 186.04 933.195 190.12C933.195 195.04 936.555 196.6 940.755 196.6C942.855 196.6 944.655 196.12 947.295 194.08L948.495 193.12H948.615ZM948.615 182.02V189.94C948.615 190.72 948.255 191.14 947.775 191.5C946.215 192.76 944.175 194.14 942.495 194.14C939.495 194.14 938.175 191.74 938.175 189.88C938.175 187.18 939.435 184.42 943.875 183.28L948.615 182.02ZM968.477 172.36C968.117 172.72 967.877 172.6 967.877 172.06V161.02C967.877 157.12 968.117 154.72 968.117 154.72C968.117 154.3 967.877 154.12 967.337 154.12C965.837 154.72 961.337 155.56 958.937 155.74C958.817 156.22 958.937 157.18 959.297 157.54C959.477 157.54 959.657 157.54 959.837 157.54C962.477 157.72 963.137 157.72 963.137 162.46V191.74C963.137 194.08 963.077 195.16 962.897 196C963.197 196.48 963.497 196.72 964.217 196.72C964.577 196.36 965.177 195.82 965.657 195.28C966.257 194.56 966.617 194.56 967.277 195.1C968.657 196.24 970.457 196.6 972.557 196.6C978.677 196.6 985.817 191.02 985.817 181.48C985.817 174.16 980.417 169.66 975.197 169.66C972.617 169.66 970.337 170.68 968.477 172.36ZM968.897 174.22C970.457 172.84 972.257 172.3 973.997 172.3C977.657 172.3 980.657 176.74 980.657 182.56C980.657 189.4 977.897 194.56 972.197 194.56C970.337 194.56 969.077 193.24 967.877 191.74V176.74C967.877 175.48 968.117 174.88 968.897 174.22ZM991.093 183.7C991.093 189.82 995.173 196.6 1003.69 196.6C1007.53 196.6 1010.47 195.22 1012.51 193.24C1015.21 190.6 1016.41 186.82 1016.41 183.16C1016.41 176.92 1012.99 169.66 1003.81 169.66C999.853 169.66 996.613 171.28 994.393 173.86C992.233 176.44 991.093 179.92 991.093 183.7ZM1002.91 171.76C1008.07 171.76 1011.25 176.44 1011.25 185.08C1011.25 192.64 1007.35 194.5 1004.53 194.5C998.293 194.5 996.253 186.94 996.253 182.32C996.253 177.1 997.513 171.76 1002.91 171.76ZM1031.89 196.6C1034.23 196.6 1037.05 195.4 1039.99 193C1040.29 192.76 1040.83 192.64 1040.89 193.06C1041.07 194.56 1041.55 196.6 1041.55 196.6C1042.03 196.78 1042.33 196.72 1042.69 196.6C1044.01 195.52 1046.11 194.62 1049.77 194.2C1050.13 193.84 1050.13 192.94 1049.77 192.58C1045.93 192.28 1045.39 191.14 1045.39 188.2V176.68C1045.39 174.88 1045.63 170.5 1045.63 170.5C1045.63 170.32 1045.45 170.14 1045.15 170.14C1044.85 170.2 1043.95 170.26 1043.05 170.26C1041.13 170.26 1038.97 170.2 1036.93 170.14C1036.57 170.5 1036.57 171.76 1036.93 172.12C1039.87 172.3 1040.65 173.02 1040.65 176.98V188.56C1040.65 189.7 1040.53 190.18 1039.69 190.9C1037.47 192.82 1035.19 193.78 1033.69 193.78C1031.89 193.78 1028.89 192.94 1028.89 187.6V176.68C1028.89 174.88 1029.13 170.5 1029.13 170.5C1029.13 170.32 1028.95 170.14 1028.65 170.14C1028.35 170.2 1027.45 170.26 1026.55 170.26C1024.63 170.26 1022.47 170.2 1020.43 170.14C1020.07 170.5 1020.07 171.76 1020.43 172.12C1023.31 172.36 1024.15 173.02 1024.15 176.92V188.44C1024.15 192.58 1025.95 196.6 1031.89 196.6ZM1053.32 170.26C1052.48 170.26 1052.24 170.98 1052.24 171.46V172.24C1052.24 172.54 1052.3 172.6 1052.54 172.6H1056.08V190.66C1056.08 194.92 1057.94 196.6 1060.7 196.6C1063.46 196.6 1066.46 195.28 1068.8 192.64C1068.68 192.04 1068.32 191.68 1067.72 191.62C1066.16 192.82 1064.36 193.3 1062.8 193.3C1061.18 193.3 1060.82 191.5 1060.82 187.78V172.6H1067.06C1067.66 172.6 1068.5 172.36 1068.5 171.82V170.62C1068.5 170.38 1068.32 170.26 1068.02 170.26H1060.82V167.92C1060.82 164.02 1061.06 161.62 1061.06 161.62C1061.06 161.26 1060.88 161.08 1060.58 161.08C1060.34 161.08 1059.8 161.32 1059.26 161.62C1058.6 161.98 1058 162.28 1057.22 162.46C1056.5 162.7 1055.9 162.88 1055.9 163.3C1055.9 164.02 1056.08 163.6 1056.08 170.26H1053.32ZM812.04 240.78C813.18 240.78 814.26 239.7 814.26 238.5C814.26 237.24 813.12 236.28 811.5 236.28C809.94 236.28 807.06 237.3 805.5 239.34C804.78 238.86 802.8 237.66 799.26 237.66C793.92 237.66 789 241.26 789 246.78C789 250.02 790.44 251.88 792.12 253.5C790.44 254.94 789.48 257.52 789.48 259.56C789.48 261.72 790.68 263.4 792.24 264.18C789 266.1 787.32 268.86 787.32 271.44C787.32 276.66 792.24 278.28 796.86 278.28C804.96 278.28 813.72 274.38 813.72 267.9C813.72 265.98 812.82 264.48 811.08 263.04C808.74 261.12 804.54 261.06 802.32 261.06C801.24 261.06 799.74 261.18 798.3 261.36C797.4 261.42 796.8 261.48 796.5 261.48C794.76 261.48 792.66 260.64 792.66 258.06C792.66 256.86 793.02 255.6 793.74 254.58C795.18 255.42 796.86 255.84 799.2 255.84C804.48 255.84 809.34 252.54 809.34 246.66C809.34 243.84 808.5 242.22 806.76 240.42C807.18 239.82 808.38 238.98 809.16 238.98C809.58 238.98 810 239.16 810.36 239.7C810.6 240.18 811.38 240.78 812.04 240.78ZM793.32 264.6C793.98 264.78 794.94 264.9 795.72 264.9C797.58 264.9 799.26 264.72 800.1 264.72C803.1 264.72 805.62 264.78 807.36 265.74C809.7 267.06 810.42 267.9 810.42 269.46C810.42 273.78 804.06 276.06 798.66 276.06C796.5 276.06 791.46 274.32 791.46 270.24C791.46 268.2 791.58 266.7 793.32 264.6ZM804.54 247.26C804.54 252.84 801.72 253.98 799.5 253.98C794.46 253.98 793.92 249.72 793.92 245.88C793.92 241.68 795.42 239.52 798.72 239.52C802.5 239.52 804.54 242.28 804.54 247.26ZM825.96 242.52C825.84 240.12 825.78 238.56 825.48 237.96C825.36 237.66 825.24 237.48 824.76 237.48C823.08 238.14 821.52 238.68 817.38 239.22C817.26 239.58 817.38 240.54 817.5 240.9C820.74 241.2 821.4 241.5 821.4 244.98V256.68C821.4 261.66 820.68 261.9 816.96 262.14C816.6 262.5 816.6 263.76 816.96 264.12C819.06 264.06 821.4 264 823.8 264C826.2 264 828.96 264.06 831.06 264.12C831.42 263.76 831.42 262.5 831.06 262.14C826.86 261.84 826.14 261.66 826.14 256.68V248.34C826.14 246.78 826.86 245.4 827.58 244.32C828.24 243.36 829.62 241.38 830.34 241.38C830.88 241.38 831.42 241.5 831.9 242.16C832.32 242.76 833.04 243.54 834.06 243.54C835.5 243.54 836.88 242.04 836.88 240.54C836.88 239.4 835.8 237.66 833.28 237.66C830.46 237.66 828 240.3 826.62 242.64C826.26 243.3 825.96 242.82 825.96 242.52ZM855.305 261.12C855.665 262.98 856.325 264.6 859.325 264.6C861.605 264.6 863.765 263.58 865.025 262.38C864.905 261.66 864.665 261.12 864.005 260.76C863.585 261.12 862.565 261.72 861.785 261.72C860.045 261.72 859.985 259.38 859.985 256.62V247.8C859.985 239.28 855.305 237.66 850.925 237.66C846.005 237.66 841.025 240.9 841.025 244.32C841.025 245.76 841.745 246.48 843.125 246.48C844.865 246.48 845.945 245.22 845.945 244.44C845.945 244.02 845.885 243.6 845.765 243.36C845.705 243.18 845.645 242.82 845.645 242.16C845.645 240.3 848.165 239.64 850.445 239.64C852.485 239.64 855.305 240.66 855.305 247.44C855.305 247.86 855.125 248.1 854.945 248.16L849.785 249.42C844.025 250.86 839.885 254.04 839.885 258.12C839.885 263.04 843.245 264.6 847.445 264.6C849.545 264.6 851.345 264.12 853.985 262.08L855.185 261.12H855.305ZM855.305 250.02V257.94C855.305 258.72 854.945 259.14 854.465 259.5C852.905 260.76 850.865 262.14 849.185 262.14C846.185 262.14 844.865 259.74 844.865 257.88C844.865 255.18 846.125 252.42 850.565 251.28L855.305 250.02ZM874.506 241.92C874.446 240.12 874.326 238.56 874.026 237.96C873.906 237.66 873.786 237.48 873.306 237.48C871.626 238.14 870.066 238.68 865.926 239.22C865.806 239.58 865.926 240.54 866.046 240.9C869.286 241.2 869.946 241.5 869.946 244.98V270.6C869.946 275.58 869.286 275.88 865.626 276.06C865.266 276.42 865.266 277.68 865.626 278.04C867.726 277.98 869.946 277.92 872.346 277.92C874.746 277.92 877.626 277.98 879.606 278.04C879.966 277.68 879.966 276.42 879.606 276.06C875.346 275.82 874.686 275.58 874.686 270.6V264.12C874.686 263.34 874.926 263.4 875.526 263.64C877.026 264.24 878.826 264.6 880.746 264.6C884.106 264.6 887.106 263.58 889.566 261.24C892.386 258.48 894.006 254.76 894.006 249.9C894.006 243.54 889.506 237.66 883.386 237.66C880.626 237.66 877.566 239.46 875.166 242.16C874.806 242.52 874.566 242.52 874.506 241.92ZM875.646 244.14C877.206 242.22 879.966 240.42 881.706 240.42C885.546 240.42 888.846 244.74 888.846 251.52C888.846 256.44 887.106 262.56 880.386 262.56C879.306 262.56 877.206 262.26 876.126 261.3C874.926 260.22 874.686 259.86 874.686 257.7V246.78C874.686 245.52 874.926 244.98 875.646 244.14ZM906.28 246.84C906.28 245.58 906.82 244.86 907.3 244.32C909.58 242.1 912.64 240.78 914.98 240.78C916.18 240.78 917.44 241.56 918.16 242.94C918.76 244.14 918.88 245.76 918.88 247.56V256.68C918.88 261.6 918.28 261.84 915.16 262.14C914.86 262.5 914.86 263.76 915.16 264.12C916.84 264.06 918.88 264 921.28 264C923.68 264 925.66 264.06 927.64 264.12C927.94 263.76 927.94 262.5 927.64 262.14C924.28 261.84 923.62 261.6 923.62 256.68V247.74C923.62 244.44 923.38 241.5 922 239.7C920.98 238.38 919.12 237.66 917.02 237.66C914.08 237.66 910.48 238.44 906.82 242.52C906.82 242.58 906.76 242.58 906.7 242.64C906.52 242.88 906.22 243.24 906.22 242.52L906.28 229.02C906.28 225.12 906.52 222.72 906.52 222.72C906.52 222.3 906.28 222.12 905.74 222.12C904.24 222.72 899.74 223.56 897.34 223.74C897.22 224.22 897.34 225.18 897.7 225.54C897.88 225.54 898.06 225.54 898.24 225.54C900.88 225.72 901.54 225.72 901.54 230.46V256.68C901.54 261.66 900.82 261.9 897.34 262.14C896.98 262.5 896.98 263.76 897.34 264.12C899.32 264.06 901.54 264 903.94 264C906.22 264 908.2 264.06 909.88 264.12C910.24 263.76 910.24 262.5 909.88 262.14C906.82 261.9 906.28 261.66 906.28 256.68V246.84ZM931.425 255.72C931.665 258.66 931.845 261.48 931.845 264C932.445 263.88 933.045 263.82 933.345 263.82C933.765 263.82 934.125 263.82 934.545 263.94C936.165 264.36 937.785 264.6 940.005 264.6C943.365 264.6 949.545 262.98 949.545 257.04C949.545 252.96 946.605 250.56 942.525 249.06C938.925 247.68 936.525 246.78 936.525 243.48C936.525 241.02 938.685 239.64 940.725 239.64C942.045 239.64 945.525 240.12 946.305 245.22C946.665 245.58 947.865 245.52 948.225 245.16C948.405 243 948.525 240.78 948.585 238.8C946.725 238.5 943.845 237.66 940.725 237.66C936.285 237.66 932.265 240.54 932.265 244.38C932.265 248.76 934.245 250.62 938.865 252.54C943.845 254.58 944.985 255.84 944.985 258.42C944.985 261.36 942.105 262.62 939.885 262.62C937.545 262.62 936.225 261.84 935.625 261.18C934.305 259.8 933.645 257.16 933.285 255.66C932.925 255.3 931.785 255.36 931.425 255.72ZM969.504 238.26C968.664 238.26 968.424 238.98 968.424 239.46V240.24C968.424 240.54 968.484 240.6 968.724 240.6H972.264V258.66C972.264 262.92 974.124 264.6 976.884 264.6C979.644 264.6 982.644 263.28 984.984 260.64C984.864 260.04 984.504 259.68 983.904 259.62C982.344 260.82 980.544 261.3 978.984 261.3C977.364 261.3 977.004 259.5 977.004 255.78V240.6H983.244C983.844 240.6 984.684 240.36 984.684 239.82V238.62C984.684 238.38 984.504 238.26 984.204 238.26H977.004V235.92C977.004 232.02 977.244 229.62 977.244 229.62C977.244 229.26 977.064 229.08 976.764 229.08C976.524 229.08 975.984 229.32 975.444 229.62C974.784 229.98 974.184 230.28 973.404 230.46C972.684 230.7 972.084 230.88 972.084 231.3C972.084 232.02 972.264 231.6 972.264 238.26H969.504ZM995.928 246.84C995.928 245.58 996.468 244.86 996.948 244.32C999.228 242.1 1002.29 240.78 1004.63 240.78C1005.83 240.78 1007.09 241.56 1007.81 242.94C1008.41 244.14 1008.53 245.76 1008.53 247.56V256.68C1008.53 261.6 1007.93 261.84 1004.81 262.14C1004.51 262.5 1004.51 263.76 1004.81 264.12C1006.49 264.06 1008.53 264 1010.93 264C1013.33 264 1015.31 264.06 1017.29 264.12C1017.59 263.76 1017.59 262.5 1017.29 262.14C1013.93 261.84 1013.27 261.6 1013.27 256.68V247.74C1013.27 244.44 1013.03 241.5 1011.65 239.7C1010.63 238.38 1008.77 237.66 1006.67 237.66C1003.73 237.66 1000.13 238.44 996.468 242.52C996.468 242.58 996.408 242.58 996.348 242.64C996.168 242.88 995.868 243.24 995.868 242.52L995.928 229.02C995.928 225.12 996.168 222.72 996.168 222.72C996.168 222.3 995.928 222.12 995.388 222.12C993.888 222.72 989.388 223.56 986.988 223.74C986.868 224.22 986.988 225.18 987.348 225.54C987.528 225.54 987.708 225.54 987.888 225.54C990.528 225.72 991.188 225.72 991.188 230.46V256.68C991.188 261.66 990.468 261.9 986.988 262.14C986.628 262.5 986.628 263.76 986.988 264.12C988.968 264.06 991.188 264 993.588 264C995.868 264 997.848 264.06 999.528 264.12C999.888 263.76 999.888 262.5 999.528 262.14C996.468 261.9 995.928 261.66 995.928 256.68V246.84ZM1035.77 261.12C1036.13 262.98 1036.79 264.6 1039.79 264.6C1042.07 264.6 1044.23 263.58 1045.49 262.38C1045.37 261.66 1045.13 261.12 1044.47 260.76C1044.05 261.12 1043.03 261.72 1042.25 261.72C1040.51 261.72 1040.45 259.38 1040.45 256.62V247.8C1040.45 239.28 1035.77 237.66 1031.39 237.66C1026.47 237.66 1021.49 240.9 1021.49 244.32C1021.49 245.76 1022.21 246.48 1023.59 246.48C1025.33 246.48 1026.41 245.22 1026.41 244.44C1026.41 244.02 1026.35 243.6 1026.23 243.36C1026.17 243.18 1026.11 242.82 1026.11 242.16C1026.11 240.3 1028.63 239.64 1030.91 239.64C1032.95 239.64 1035.77 240.66 1035.77 247.44C1035.77 247.86 1035.59 248.1 1035.41 248.16L1030.25 249.42C1024.49 250.86 1020.35 254.04 1020.35 258.12C1020.35 263.04 1023.71 264.6 1027.91 264.6C1030.01 264.6 1031.81 264.12 1034.45 262.08L1035.65 261.12H1035.77ZM1035.77 250.02V257.94C1035.77 258.72 1035.41 259.14 1034.93 259.5C1033.37 260.76 1031.33 262.14 1029.65 262.14C1026.65 262.14 1025.33 259.74 1025.33 257.88C1025.33 255.18 1026.59 252.42 1031.03 251.28L1035.77 250.02ZM1048.2 238.26C1047.36 238.26 1047.12 238.98 1047.12 239.46V240.24C1047.12 240.54 1047.18 240.6 1047.42 240.6H1050.96V258.66C1050.96 262.92 1052.82 264.6 1055.58 264.6C1058.34 264.6 1061.34 263.28 1063.68 260.64C1063.56 260.04 1063.2 259.68 1062.6 259.62C1061.04 260.82 1059.24 261.3 1057.68 261.3C1056.06 261.3 1055.7 259.5 1055.7 255.78V240.6H1061.94C1062.54 240.6 1063.38 240.36 1063.38 239.82V238.62C1063.38 238.38 1063.2 238.26 1062.9 238.26H1055.7V235.92C1055.7 232.02 1055.94 229.62 1055.94 229.62C1055.94 229.26 1055.76 229.08 1055.46 229.08C1055.22 229.08 1054.68 229.32 1054.14 229.62C1053.48 229.98 1052.88 230.28 1052.1 230.46C1051.38 230.7 1050.78 230.88 1050.78 231.3C1050.78 232.02 1050.96 231.6 1050.96 238.26H1048.2ZM764.616 324.68C764.616 329.66 763.956 329.96 760.296 330.14C759.936 330.5 759.936 331.76 760.296 332.12C762.396 332.06 764.616 332 767.016 332C769.416 332 771.696 332.06 773.676 332.12C774.036 331.76 774.036 330.5 773.676 330.14C770.016 329.96 769.356 329.66 769.356 324.68V297.02C769.356 293.12 769.596 290.72 769.596 290.72C769.596 290.3 769.356 290.12 768.816 290.12C767.316 290.72 762.816 291.56 760.416 291.74C760.296 292.22 760.416 293.18 760.776 293.54C764.256 293.78 764.616 293.96 764.616 298.46V324.68ZM777.196 319.7C777.196 325.82 781.276 332.6 789.796 332.6C793.636 332.6 796.576 331.22 798.616 329.24C801.316 326.6 802.516 322.82 802.516 319.16C802.516 312.92 799.096 305.66 789.916 305.66C785.956 305.66 782.716 307.28 780.496 309.86C778.336 312.44 777.196 315.92 777.196 319.7ZM789.016 307.76C794.176 307.76 797.356 312.44 797.356 321.08C797.356 328.64 793.456 330.5 790.636 330.5C784.396 330.5 782.356 322.94 782.356 318.32C782.356 313.1 783.616 307.76 789.016 307.76ZM807.841 319.7C807.841 325.82 811.921 332.6 820.441 332.6C824.281 332.6 827.221 331.22 829.261 329.24C831.961 326.6 833.161 322.82 833.161 319.16C833.161 312.92 829.741 305.66 820.561 305.66C816.601 305.66 813.361 307.28 811.141 309.86C808.981 312.44 807.841 315.92 807.841 319.7ZM819.661 307.76C824.821 307.76 828.001 312.44 828.001 321.08C828.001 328.64 824.101 330.5 821.281 330.5C815.041 330.5 813.001 322.94 813.001 318.32C813.001 313.1 814.261 307.76 819.661 307.76ZM840.775 324.68C840.775 329.66 840.115 329.9 836.755 330.14C836.395 330.5 836.395 331.76 836.755 332.12C838.735 332.06 840.775 332 843.175 332C845.275 332 847.255 332.06 848.635 332.12C848.995 331.76 848.995 330.5 848.635 330.14C846.175 329.9 845.515 329.66 845.515 324.68V319.46C846.655 319.52 847.495 319.58 848.095 319.76C848.755 320.24 849.295 320.78 850.015 321.74L854.395 327.62C856.135 329.96 856.855 331.1 856.915 331.82C856.915 332 856.975 332.12 857.155 332.12C858.355 332.06 859.675 332 860.875 332C862.735 332 864.595 332.06 865.795 332.12C866.155 331.76 866.155 330.5 865.795 330.14C863.755 329.9 862.255 329.66 860.635 327.62L852.715 317.66C852.475 317.36 852.295 317.12 852.295 316.82C852.295 316.58 852.295 316.46 852.535 316.22L857.815 310.76C859.615 308.84 861.715 308.36 864.115 308.12C864.475 307.76 864.475 306.5 864.115 306.14C862.735 306.2 861.055 306.26 858.895 306.26C856.615 306.26 854.395 306.2 853.015 306.14C852.655 306.5 852.655 307.76 853.015 308.12C856.375 308.36 854.935 310.46 854.395 311.18C853.015 312.92 851.155 314.96 849.595 316.1C848.275 317.06 846.655 317.78 845.515 317.96V297.02C845.515 293.12 845.755 290.72 845.755 290.72C845.755 290.3 845.515 290.12 844.975 290.12C843.475 290.72 838.975 291.56 836.575 291.74C836.455 292.22 836.575 293.18 836.935 293.54C837.115 293.54 837.295 293.54 837.475 293.54C840.115 293.72 840.775 293.72 840.775 298.46V324.68ZM887.018 324.68C887.018 329.66 886.358 329.96 882.698 330.14C882.338 330.5 882.338 331.76 882.698 332.12C884.798 332.06 887.018 332 889.418 332C891.818 332 894.098 332.06 896.078 332.12C896.438 331.76 896.438 330.5 896.078 330.14C892.418 329.96 891.758 329.66 891.758 324.68V297.02C891.758 293.12 891.998 290.72 891.998 290.72C891.998 290.3 891.758 290.12 891.218 290.12C889.718 290.72 885.218 291.56 882.818 291.74C882.698 292.22 882.818 293.18 883.178 293.54C886.658 293.78 887.018 293.96 887.018 298.46V324.68ZM907.999 324.68V312.74C907.999 309.74 908.239 305.9 908.239 305.9C908.239 305.66 907.939 305.48 907.459 305.48C905.779 306.14 903.379 306.68 899.239 307.22C899.119 307.58 899.239 308.54 899.359 308.9C902.659 309.2 903.259 309.56 903.259 312.98V324.68C903.259 329.66 902.599 329.84 898.939 330.14C898.579 330.5 898.579 331.76 898.939 332.12C900.919 332.06 903.259 332 905.659 332C908.059 332 910.339 332.06 912.319 332.12C912.679 331.76 912.679 330.5 912.319 330.14C908.659 329.9 907.999 329.66 907.999 324.68ZM902.539 296.06C902.539 297.62 903.979 299.18 905.419 299.18C907.099 299.18 908.539 297.56 908.539 296.3C908.539 294.86 907.279 293.18 905.659 293.18C904.219 293.18 902.539 294.62 902.539 296.06ZM918.588 324.68C918.588 329.66 917.928 329.9 914.568 330.14C914.208 330.5 914.208 331.76 914.568 332.12C916.548 332.06 918.588 332 920.988 332C923.088 332 925.068 332.06 926.448 332.12C926.808 331.76 926.808 330.5 926.448 330.14C923.988 329.9 923.328 329.66 923.328 324.68V319.46C924.468 319.52 925.308 319.58 925.908 319.76C926.568 320.24 927.108 320.78 927.828 321.74L932.208 327.62C933.948 329.96 934.668 331.1 934.728 331.82C934.728 332 934.788 332.12 934.968 332.12C936.168 332.06 937.488 332 938.688 332C940.548 332 942.408 332.06 943.608 332.12C943.968 331.76 943.968 330.5 943.608 330.14C941.568 329.9 940.068 329.66 938.448 327.62L930.528 317.66C930.288 317.36 930.108 317.12 930.108 316.82C930.108 316.58 930.108 316.46 930.348 316.22L935.628 310.76C937.428 308.84 939.528 308.36 941.928 308.12C942.288 307.76 942.288 306.5 941.928 306.14C940.548 306.2 938.868 306.26 936.708 306.26C934.428 306.26 932.208 306.2 930.828 306.14C930.468 306.5 930.468 307.76 930.828 308.12C934.188 308.36 932.748 310.46 932.208 311.18C930.828 312.92 928.968 314.96 927.408 316.1C926.088 317.06 924.468 317.78 923.328 317.96V297.02C923.328 293.12 923.568 290.72 923.568 290.72C923.568 290.3 923.328 290.12 922.788 290.12C921.288 290.72 916.788 291.56 914.388 291.74C914.268 292.22 914.388 293.18 914.748 293.54C914.928 293.54 915.108 293.54 915.288 293.54C917.928 293.72 918.588 293.72 918.588 298.46V324.68ZM967.291 326.42C965.071 328.7 963.331 329.66 959.851 329.66C957.691 329.66 955.171 328.4 953.311 325.34C952.111 323.36 951.391 320.6 951.391 317.12L967.351 317.24C968.071 317.24 968.491 316.88 968.491 316.22C968.491 311.18 966.691 305.78 958.351 305.78C953.131 305.78 946.351 310.76 946.351 319.88C946.351 323.24 947.191 326.48 949.171 328.76C951.211 331.16 954.031 332.6 958.351 332.6C962.911 332.6 966.151 330.5 968.551 327.38C968.371 326.78 968.011 326.48 967.291 326.42ZM951.571 315.08C952.711 308.3 956.911 307.76 958.351 307.76C960.631 307.76 963.331 309.02 963.331 314.06C963.331 314.6 963.091 314.9 962.431 314.9L951.571 315.08ZM988.547 306.26C987.707 306.26 987.467 306.98 987.467 307.46V308.24C987.467 308.54 987.527 308.6 987.767 308.6H991.307V326.66C991.307 330.92 993.167 332.6 995.927 332.6C998.687 332.6 1001.69 331.28 1004.03 328.64C1003.91 328.04 1003.55 327.68 1002.95 327.62C1001.39 328.82 999.587 329.3 998.027 329.3C996.407 329.3 996.047 327.5 996.047 323.78V308.6H1002.29C1002.89 308.6 1003.73 308.36 1003.73 307.82V306.62C1003.73 306.38 1003.55 306.26 1003.25 306.26H996.047V303.92C996.047 300.02 996.287 297.62 996.287 297.62C996.287 297.26 996.107 297.08 995.807 297.08C995.567 297.08 995.027 297.32 994.487 297.62C993.827 297.98 993.227 298.28 992.447 298.46C991.727 298.7 991.127 298.88 991.127 299.3C991.127 300.02 991.307 299.6 991.307 306.26H988.547ZM1014.97 314.84C1014.97 313.58 1015.51 312.86 1015.99 312.32C1018.27 310.1 1021.33 308.78 1023.67 308.78C1024.87 308.78 1026.13 309.56 1026.85 310.94C1027.45 312.14 1027.57 313.76 1027.57 315.56V324.68C1027.57 329.6 1026.97 329.84 1023.85 330.14C1023.55 330.5 1023.55 331.76 1023.85 332.12C1025.53 332.06 1027.57 332 1029.97 332C1032.37 332 1034.35 332.06 1036.33 332.12C1036.63 331.76 1036.63 330.5 1036.33 330.14C1032.97 329.84 1032.31 329.6 1032.31 324.68V315.74C1032.31 312.44 1032.07 309.5 1030.69 307.7C1029.67 306.38 1027.81 305.66 1025.71 305.66C1022.77 305.66 1019.17 306.44 1015.51 310.52C1015.51 310.58 1015.45 310.58 1015.39 310.64C1015.21 310.88 1014.91 311.24 1014.91 310.52L1014.97 297.02C1014.97 293.12 1015.21 290.72 1015.21 290.72C1015.21 290.3 1014.97 290.12 1014.43 290.12C1012.93 290.72 1008.43 291.56 1006.03 291.74C1005.91 292.22 1006.03 293.18 1006.39 293.54C1006.57 293.54 1006.75 293.54 1006.93 293.54C1009.57 293.72 1010.23 293.72 1010.23 298.46V324.68C1010.23 329.66 1009.51 329.9 1006.03 330.14C1005.67 330.5 1005.67 331.76 1006.03 332.12C1008.01 332.06 1010.23 332 1012.63 332C1014.91 332 1016.89 332.06 1018.57 332.12C1018.93 331.76 1018.93 330.5 1018.57 330.14C1015.51 329.9 1014.97 329.66 1014.97 324.68V314.84ZM1048.1 324.68V312.74C1048.1 309.74 1048.34 305.9 1048.34 305.9C1048.34 305.66 1048.04 305.48 1047.56 305.48C1045.88 306.14 1043.48 306.68 1039.34 307.22C1039.22 307.58 1039.34 308.54 1039.46 308.9C1042.76 309.2 1043.36 309.56 1043.36 312.98V324.68C1043.36 329.66 1042.7 329.84 1039.04 330.14C1038.68 330.5 1038.68 331.76 1039.04 332.12C1041.02 332.06 1043.36 332 1045.76 332C1048.16 332 1050.44 332.06 1052.42 332.12C1052.78 331.76 1052.78 330.5 1052.42 330.14C1048.76 329.9 1048.1 329.66 1048.1 324.68ZM1042.64 296.06C1042.64 297.62 1044.08 299.18 1045.52 299.18C1047.2 299.18 1048.64 297.56 1048.64 296.3C1048.64 294.86 1047.38 293.18 1045.76 293.18C1044.32 293.18 1042.64 294.62 1042.64 296.06ZM1056.41 323.72C1056.65 326.66 1056.83 329.48 1056.83 332C1057.43 331.88 1058.03 331.82 1058.33 331.82C1058.75 331.82 1059.11 331.82 1059.53 331.94C1061.15 332.36 1062.77 332.6 1064.99 332.6C1068.35 332.6 1074.53 330.98 1074.53 325.04C1074.53 320.96 1071.59 318.56 1067.51 317.06C1063.91 315.68 1061.51 314.78 1061.51 311.48C1061.51 309.02 1063.67 307.64 1065.71 307.64C1067.03 307.64 1070.51 308.12 1071.29 313.22C1071.65 313.58 1072.85 313.52 1073.21 313.16C1073.39 311 1073.51 308.78 1073.57 306.8C1071.71 306.5 1068.83 305.66 1065.71 305.66C1061.27 305.66 1057.25 308.54 1057.25 312.38C1057.25 316.76 1059.23 318.62 1063.85 320.54C1068.83 322.58 1069.97 323.84 1069.97 326.42C1069.97 329.36 1067.09 330.62 1064.87 330.62C1062.53 330.62 1061.21 329.84 1060.61 329.18C1059.29 327.8 1058.63 325.16 1058.27 323.66C1057.91 323.3 1056.77 323.36 1056.41 323.72ZM1081.1 328.4C1081.1 330.14 1082.54 331.58 1084.28 331.58C1086.02 331.58 1087.46 330.14 1087.46 328.4C1087.46 326.66 1086.02 325.22 1084.28 325.22C1082.54 325.22 1081.1 326.66 1081.1 328.4ZM1081.1 310.52C1081.1 312.26 1082.54 313.7 1084.28 313.7C1086.02 313.7 1087.46 312.26 1087.46 310.52C1087.46 308.78 1086.02 307.34 1084.28 307.34C1082.54 307.34 1081.1 308.78 1081.1 310.52Z" fill="black"/>
<g id="Group 19">
<line id="Line 64" x1="684.586" y1="767.719" x2="724.586" y2="708.719" stroke="black"/>
<line id="Line 65" x1="690.952" y1="765.502" x2="752.952" y2="759.502" stroke="black"/>
<line id="Line 66" x1="726.429" y1="710.743" x2="753.429" y2="755.743" stroke="black"/>
<line id="Line 67" x1="782.47" y1="676.17" x2="753.47" y2="756.17" stroke="black"/>
<line id="Line 68" x1="763.457" y1="623.202" x2="725.457" y2="709.202" stroke="black"/>
<line id="Line 69" x1="782.242" y1="678.437" x2="726.242" y2="709.437" stroke="black"/>
<line id="Line 70" x1="784.536" y1="678.186" x2="762.536" y2="623.186" stroke="black"/>
<line id="Line 71" x1="830.381" y1="623.324" x2="785.381" y2="676.324" stroke="black"/>
<line id="Line 72" x1="826" y1="623.5" x2="763" y2="623.5" stroke="black"/>
<line id="Line 73" x1="847.53" y1="673.169" x2="829.53" y2="623.169" stroke="black"/>
<line id="Line 74" x1="853.503" y1="729.053" x2="847.503" y2="673.053" stroke="black"/>
<line id="Line 75" x1="908.773" y1="699.446" x2="847.773" y2="668.446" stroke="black"/>
<line id="Line 76" x1="905.501" y1="758.974" x2="908.501" y2="700.974" stroke="black"/>
<line id="Line 77" x1="902.745" y1="758.43" x2="853.745" y2="729.43" stroke="black"/>
<line id="Line 78" x1="830.584" y1="622.723" x2="884.584" y2="541.723" stroke="black"/>
<line id="Line 79" x1="818.496" y1="561.935" x2="826.496" y2="622.935" stroke="black"/>
<line id="Line 80" x1="762.629" y1="622.665" x2="817.629" y2="561.665" stroke="black"/>
<line id="Line 81" x1="887.12" y1="545.485" x2="818.12" y2="562.485" stroke="black"/>
<line id="Line 82" x1="853.434" y1="498.249" x2="818.434" y2="559.249" stroke="black"/>
<line id="Line 83" x1="884.594" y1="544.292" x2="853.594" y2="501.292" stroke="black"/>
<line id="Line 84" x1="907.478" y1="480.147" x2="887.478" y2="545.147" stroke="black"/>
<line id="Line 85" x1="907.166" y1="479.472" x2="853.166" y2="498.472" stroke="black"/>
<line id="Line 86" x1="944.408" y1="425.289" x2="905.408" y2="480.289" stroke="black"/>
<line id="Line 87" x1="887.855" y1="544.521" x2="940.855" y2="528.521" stroke="black"/>
<line id="Line 88" x1="942.592" y1="530.288" x2="906.591" y2="479.288" stroke="black"/>
<line id="Line 89" x1="946.49" y1="425.898" x2="957.49" y2="478.898" stroke="black"/>
<line id="Line 90" x1="957" y1="479.5" x2="909" y2="479.5" stroke="black"/>
<line id="Line 91" x1="941.519" y1="528.864" x2="956.519" y2="475.864" stroke="black"/>
<line id="Line 92" x1="992.633" y1="518.339" x2="956.633" y2="479.339" stroke="black"/>
<line id="Line 93" x1="941.885" y1="534.513" x2="992.885" y2="522.513" stroke="black"/>
<line id="Line 94" x1="992.5" y1="574" x2="992.5" y2="518" stroke="black"/>
<line id="Line 95" x1="986.502" y1="643.957" x2="992.502" y2="573.957" stroke="black"/>
<line id="Line 96" x1="1044.7" y1="558.396" x2="992.695" y2="518.396" stroke="black"/>
<line id="Line 97" x1="1044.14" y1="559.481" x2="991.136" y2="574.481" stroke="black"/>
<line id="Line 98" x1="1042.65" y1="623.357" x2="992.65" y2="574.357" stroke="black"/>
<line id="Line 99" x1="1044.5" y1="560.008" x2="1043.5" y2="620.008" stroke="black"/>
<line id="Line 100" x1="1103.66" y1="613.369" x2="1044.66" y2="559.369" stroke="black"/>
<line id="Line 101" x1="1042.92" y1="622.507" x2="1103.92" y2="612.507" stroke="black"/>
<line id="Line 102" x1="1062.55" y1="666.211" x2="1042.55" y2="623.211" stroke="black"/>
<line id="Line 103" x1="1101.41" y1="613.291" x2="1063.41" y2="666.291" stroke="black"/>
<line id="Line 104" x1="1063.5" y1="666.04" x2="1058.5" y2="729.04" stroke="black"/>
<line id="Line 105" x1="973.512" y1="689.89" x2="984.512" y2="640.891" stroke="black"/>
<line id="Line 106" x1="1031.54" y1="786.804" x2="1057.54" y2="725.804" stroke="black"/>
<line id="Line 107" x1="1092" y1="787.5" x2="1029" y2="787.5" stroke="black"/>
<line id="Line 108" x1="1096.57" y1="786.248" x2="1060.57" y2="723.248" stroke="black"/>
<line id="Line 109" x1="1162.51" y1="705.077" x2="1152.51" y2="641.077" stroke="black"/>
<line id="Line 110" x1="1152.77" y1="641.444" x2="1098.77" y2="613.444" stroke="black"/>
<g id="Group 18">
<circle id="Ellipse 5_7" cx="687.07" cy="766.07" r="10.0701" fill="#333333"/>
<circle id="Ellipse 6_7" cx="725.07" cy="710.07" r="10.0701" fill="#333333"/>
<circle id="Ellipse 7" cx="753.07" cy="760.07" r="10.0701" fill="#333333"/>
<circle id="Ellipse 8" cx="783.07" cy="678.07" r="10.0701" fill="#333333"/>
<circle id="Ellipse 9" cx="763.07" cy="623.07" r="10.0701" fill="#333333"/>
<circle id="Ellipse 10" cx="828.07" cy="623.07" r="10.0701" fill="#333333"/>
<circle id="Ellipse 11" cx="848.07" cy="673.07" r="10.0701" fill="#333333"/>
<circle id="Ellipse 12" cx="853.07" cy="729.07" r="10.0701" fill="#333333"/>
<circle id="Ellipse 13" cx="905.07" cy="700.07" r="10.0701" fill="#333333"/>
<circle id="Ellipse 14" cx="905.07" cy="756.07" r="10.0701" fill="#333333"/>
<circle id="Ellipse 15" cx="818.07" cy="564.07" r="10.0701" fill="#333333"/>
<circle id="Ellipse 16" cx="885.07" cy="544.07" r="10.0701" fill="#333333"/>
<circle id="Ellipse 17" cx="853.07" cy="501.07" r="10.0701" fill="#333333"/>
<circle id="Ellipse 18" cx="905.07" cy="481.07" r="10.0701" fill="#333333"/>
<circle id="Ellipse 19" cx="941.07" cy="427.07" r="10.0701" fill="#333333"/>
<circle id="Ellipse 20" cx="957.07" cy="481.07" r="10.0701" fill="#333333"/>
<circle id="Ellipse 21" cx="941.07" cy="532.07" r="10.0701" fill="#333333"/>
<circle id="Ellipse 22" cx="991.07" cy="521.07" r="10.0701" fill="#333333"/>
<circle id="Ellipse 23" cx="991.07" cy="574.07" r="10.0701" fill="#333333"/>
<circle id="Ellipse 24" cx="1043.07" cy="559.07" r="10.0701" fill="#333333"/>
<circle id="Ellipse 25" cx="1043.07" cy="623.07" r="10.0701" fill="#333333"/>
<circle id="Ellipse 26" cx="1099.07" cy="613.07" r="10.0701" fill="#333333"/>
<circle id="Ellipse 27" cx="1063.07" cy="666.07" r="10.0701" fill="#333333"/>
<circle id="Ellipse 30" cx="1153.07" cy="641.07" r="10.0701" fill="#333333"/>
<circle id="Ellipse 32" cx="1163.07" cy="704.07" r="10.0701" fill="#333333"/>
<circle id="Ellipse 33" cx="1034.07" cy="786.07" r="10.0701" fill="#333333"/>
<circle id="Ellipse 34" cx="1092.07" cy="786.07" r="10.0701" fill="#333333"/>
<circle id="Ellipse 31" cx="1058.07" cy="726.07" r="10.0701" fill="#333333"/>
<circle id="Ellipse 28" cx="987.07" cy="643.07" r="10.0701" fill="#333333"/>
<circle id="Ellipse 29" cx="975.07" cy="689.07" r="10.0701" fill="#333333"/>
</g>
</g>
</g>
<rect id="140:156" opacity="0.5" y="846" width="1280" height="960" fill="#FF0000"/>
</g>
<defs>
<clipPath id="clip0">
<rect width="1280" height="960" fill="white"/>
</clipPath>
</defs>
</svg>
