<svg width="1024" height="768" viewBox="0 0 1024 768" fill="none" xmlns="http://www.w3.org/2000/svg">
<g id="regular list functions">
<rect width="1024" height="768" fill="white"/>
<path id="Prime_functions" d="M88.84 393.84C87.24 393.84 77.84 394.12 76.24 394.12C75.84 394.36 75.84 395.24 76.24 395.48C78.44 395.6 79.56 395.76 79.56 399.08V415.12C79.56 418.44 78.44 418.6 76.24 418.72C75.84 418.96 75.84 419.84 76.24 420.08C77.84 420.04 80.8 420 82.4 420C84 420 86.88 420.04 88.48 420.08C88.88 419.84 88.88 418.96 88.48 418.72C86.28 418.6 85.16 418.44 85.16 415.12V399.04C85.16 396.32 85.44 395.48 87.56 395.48C89.88 395.48 92.56 396.44 92.56 401.32C92.56 405.48 91.4 407.24 88.12 407.24C87.52 407.24 86.68 407.2 86.12 407.12C86.12 407.88 86.36 408.44 86.92 408.8C87.48 408.88 87.36 408.92 88.32 408.92C91.84 408.92 94.32 408.32 95.92 407C97.92 405.36 98.6 402.76 98.6 400.64C98.6 399.04 98 396.64 95.52 395.16C94.04 394.28 91.84 393.84 88.84 393.84ZM108.69 409.28C108.69 407.84 109.13 407.24 109.65 406.64C109.97 406.24 110.33 405.96 110.93 405.96C111.29 405.96 111.73 406.32 112.05 406.72C112.33 407.04 113.01 407.36 113.93 407.36C115.09 407.36 116.21 406.16 116.21 404.48C116.21 403.44 115.01 402.24 113.57 402.24C112.17 402.24 110.65 403.44 108.81 406.08H108.65C108.57 404.88 108.37 402.92 108.37 402.92C108.33 402.56 108.01 402.24 107.45 402.24C105.57 402.72 103.45 403.28 100.81 403.56C100.73 403.8 100.81 404.56 100.89 404.8C103.09 405 103.49 405.36 103.49 407.64V415.12C103.49 418.44 103.05 418.52 100.61 418.72C100.37 418.96 100.37 419.84 100.61 420.08C102.29 420.04 103.97 420 106.09 420C108.21 420 109.85 420.04 111.57 420.08C111.81 419.84 111.81 418.96 111.57 418.72C109.13 418.56 108.69 418.44 108.69 415.12V409.28ZM125.96 415.12V407.16C125.96 405.16 126.12 402.92 126.12 402.92C126.12 402.48 125.76 402.24 125.2 402.24C124.08 402.68 120.84 403 118.08 403.36C118 403.6 118.08 404.4 118.16 404.64C120.36 404.84 120.76 405.16 120.76 407.44V415.12C120.76 418.44 120.32 418.52 117.88 418.72C117.64 418.96 117.64 419.84 117.88 420.08C119.56 420.04 121.24 420 123.36 420C125.48 420 127.12 420.04 128.84 420.08C129.08 419.84 129.08 418.96 128.84 418.72C126.4 418.56 125.96 418.44 125.96 415.12ZM120.56 396.16C120.56 397.48 121.52 398.8 123.12 398.8C124.92 398.8 125.96 397.36 125.96 396.32C125.96 395.12 125.04 393.68 123.36 393.68C121.48 393.68 120.56 394.96 120.56 396.16ZM138.69 415.12V407.16C138.69 406.96 138.69 406.76 138.69 406.56C140.25 405.6 141.65 405.2 142.33 405.2C143.93 405.2 145.13 405.92 145.13 408.2V414.88C145.13 418.24 144.49 418.6 142.85 418.72C142.61 418.96 142.61 419.84 142.85 420.08C144.53 420.04 145.81 420 147.73 420C149.65 420 150.89 420.04 152.61 420.08C152.85 419.84 152.85 418.96 152.61 418.72C151.01 418.6 150.33 418.24 150.33 414.88V408.64C150.33 407.64 150.29 406.84 150.17 406.44C151.69 405.68 153.41 405.2 154.05 405.2C155.65 405.2 156.77 405.92 156.77 408.2V414.88C156.77 418.24 156.13 418.6 154.49 418.72C154.25 418.96 154.25 419.84 154.49 420.08C156.17 420.04 157.45 420 159.37 420C161.57 420 163.33 420.04 165.05 420.08C165.29 419.84 165.29 418.96 165.05 418.72C162.61 418.6 161.97 418.24 161.97 414.88V408.64C161.97 404.24 160.37 402.24 156.93 402.24C155.45 402.24 152.09 403.84 149.77 405.12C149.17 403.4 147.57 402.24 145.21 402.24C143.77 402.24 140.89 403.76 138.61 405.04C138.49 403.84 138.37 402.92 138.37 402.92C138.33 402.44 138.01 402.24 137.45 402.24C135.97 402.64 133.57 403.2 130.81 403.56C130.73 403.8 130.81 404.6 130.89 404.84C133.09 405.04 133.49 405.36 133.49 407.64V415.12C133.49 418.44 133.05 418.52 130.61 418.72C130.37 418.96 130.37 419.84 130.61 420.08C132.29 420.04 133.97 420 136.09 420C137.93 420 139.05 420.04 140.77 420.08C141.01 419.84 141.01 418.96 140.77 418.72C139.09 418.56 138.69 418.44 138.69 415.12ZM183.021 414.84C181.381 416.52 179.221 416.96 177.701 416.96C174.581 416.96 172.661 415.16 172.661 411.24C172.661 410.96 172.701 410.8 172.701 410.6H182.301C183.261 410.6 183.461 409.92 183.461 409.36C183.461 405.96 182.141 402.24 176.261 402.24C172.061 402.24 167.261 405.96 167.261 412.08C167.261 414.4 168.101 416.84 169.821 418.4C171.341 419.76 173.301 420.4 176.141 420.4C178.901 420.4 181.621 419 183.621 416.08C183.621 415.56 183.421 414.84 183.021 414.84ZM172.861 409C172.901 407.6 173.101 406.08 173.661 405.28C174.301 404.32 175.381 403.92 175.821 403.92C176.901 403.92 178.381 404.96 178.381 408.16C178.381 408.4 178.381 408.92 178.301 409H172.861ZM204.552 414.88V404.64H207.992C208.712 404.64 209.392 404.44 209.392 403.96V403.04C209.392 402.8 209.352 402.64 208.592 402.64H204.552V400.6C204.552 394.64 206.192 393.76 207.072 393.76C207.752 393.76 207.912 394.36 208.192 395.32C208.552 396.6 209.592 397.6 211.032 397.6C212.352 397.6 213.312 396.76 213.312 395.04C213.312 393.96 212.072 392.08 207.832 392.08C205.952 392.08 203.712 392.76 202.192 394.4C200.712 396 199.352 398 199.352 401.84V402.64H199.272C197.912 402.64 196.272 402.84 196.272 403.16V404.24C196.272 404.52 196.432 404.64 197.352 404.64H199.352V414.96C199.352 418.24 198.712 418.6 196.272 418.72C196.032 418.96 196.032 419.84 196.272 420.08C197.952 420.04 199.752 420 201.952 420C204.152 420 205.912 420.04 207.632 420.08C207.872 419.84 207.872 418.96 207.632 418.72C205.192 418.6 204.552 418.24 204.552 414.88ZM231.377 414.68V407.76C231.377 404.4 231.457 404.88 231.457 403.92C231.457 403.24 231.297 402.8 231.057 402.56C230.337 402.6 229.537 402.64 228.777 402.64C227.657 402.64 225.057 402.6 223.497 402.56C223.257 402.8 223.257 403.68 223.497 403.92C225.537 404.12 226.177 404.4 226.177 407.76V415.16C226.177 415.56 226.177 415.96 226.217 416.36C224.577 417.36 223.257 417.44 222.537 417.44C220.937 417.44 219.737 417.24 219.737 414.44V407.76C219.737 404.4 219.817 404.88 219.817 403.92C219.817 403.24 219.657 402.8 219.417 402.56C218.697 402.6 217.857 402.64 217.137 402.64C215.097 402.64 213.577 402.6 211.857 402.56C211.617 402.8 211.617 403.68 211.857 403.92C213.697 404 214.537 404.4 214.537 407.76V414C214.537 418.24 216.217 420.4 219.657 420.4C221.097 420.4 224.017 419.24 226.337 417.96C226.417 418.96 226.497 419.72 226.497 419.72C226.537 420.2 226.857 420.4 227.417 420.4C228.897 420 231.297 419.44 234.057 419.08C234.137 418.84 234.057 418.04 233.977 417.8C231.817 417.6 231.377 416.96 231.377 414.68ZM244.003 415.12V407.08C245.603 406 247.203 405.2 247.923 405.2C249.523 405.2 250.723 405.92 250.723 408.2V414.88C250.723 418.24 250.083 418.6 248.443 418.72C248.203 418.96 248.203 419.84 248.443 420.08C250.123 420.04 251.403 420 253.323 420C255.523 420 257.283 420.04 259.003 420.08C259.243 419.84 259.243 418.96 259.003 418.72C256.563 418.6 255.923 418.24 255.923 414.88V408.64C255.923 404.24 254.043 402.24 250.603 402.24C249.003 402.24 246.163 404 243.963 405.52C243.843 404.12 243.683 402.92 243.683 402.92C243.643 402.44 243.323 402.24 242.763 402.24C241.283 402.64 238.883 403.2 236.123 403.56C236.043 403.8 236.123 404.6 236.203 404.84C238.403 405.04 238.803 405.36 238.803 407.64V415.12C238.803 418.44 238.363 418.52 235.923 418.72C235.683 418.96 235.683 419.84 235.923 420.08C237.603 420.04 239.283 420 241.403 420C243.243 420 244.363 420.04 246.083 420.08C246.323 419.84 246.323 418.96 246.083 418.72C244.403 418.56 244.003 418.44 244.003 415.12ZM276.411 416.52C276.411 416.04 276.331 415.28 275.891 415.28C274.291 416.76 272.931 417.52 271.771 417.52C268.771 417.52 266.411 415.36 266.411 410.56C266.411 406.12 267.411 403.92 269.531 403.92C271.011 403.92 271.611 405.48 271.731 406.76C271.851 407.84 272.931 408.64 274.211 408.64C275.491 408.64 276.411 407.64 276.411 406.4C276.411 404.6 274.251 402.24 269.891 402.24C265.171 402.24 261.011 406.04 261.011 411.96C261.011 414.56 261.931 416.84 263.491 418.32C265.051 419.8 266.891 420.4 269.731 420.4C272.131 420.4 274.891 418.72 276.411 416.52ZM280.293 402.64C279.733 402.64 279.133 402.8 278.613 403.24V404.4C278.613 404.6 278.653 404.64 278.813 404.64H281.413C281.333 408.68 281.293 413.8 281.293 415.8C281.293 417.2 281.653 418.56 282.493 419.28C283.413 420.04 284.853 420.4 285.813 420.4C288.013 420.4 290.453 419.28 291.253 418.16C291.253 417.68 291.013 417.44 290.533 417.04C290.013 417.44 289.013 417.6 288.253 417.6C287.373 417.6 286.493 416.92 286.493 414.92C286.493 412.92 286.453 408.64 286.453 404.64H290.493C290.893 404.64 291.453 404.48 291.453 404.12V402.88C291.453 402.72 291.333 402.64 291.133 402.64H286.453L286.493 401.28C286.573 398.6 286.693 396.76 286.693 396.76C286.693 396.52 286.573 396.4 286.373 396.4C286.093 396.4 284.613 396.84 283.973 397.12C283.293 397.4 282.133 397.64 281.853 398C281.573 398.36 281.413 399.44 281.413 402.64H280.293ZM301.389 415.12V407.16C301.389 405.16 301.549 402.92 301.549 402.92C301.549 402.48 301.189 402.24 300.629 402.24C299.509 402.68 296.269 403 293.509 403.36C293.429 403.6 293.509 404.4 293.589 404.64C295.789 404.84 296.189 405.16 296.189 407.44V415.12C296.189 418.44 295.749 418.52 293.309 418.72C293.069 418.96 293.069 419.84 293.309 420.08C294.989 420.04 296.669 420 298.789 420C300.909 420 302.549 420.04 304.269 420.08C304.509 419.84 304.509 418.96 304.269 418.72C301.829 418.56 301.389 418.44 301.389 415.12ZM295.989 396.16C295.989 397.48 296.949 398.8 298.549 398.8C300.349 398.8 301.389 397.36 301.389 396.32C301.389 395.12 300.469 393.68 298.789 393.68C296.909 393.68 295.989 394.96 295.989 396.16ZM306.48 411.72C306.48 416.96 310.64 420.4 316 420.4C318.84 420.4 321.2 419.6 322.84 418.12C324.88 416.32 325.56 413.6 325.56 411.36C325.56 406.12 322 402.24 316.04 402.24C312.72 402.24 310.24 403.4 308.68 405.2C307.16 406.96 306.48 409.36 306.48 411.72ZM315.4 403.92C318.12 403.92 319.96 407.16 319.96 412.64C319.96 417.44 318.08 418.72 316.64 418.72C313.36 418.72 312.08 413.8 312.08 410.84C312.08 407.16 312.72 403.92 315.4 403.92ZM336.151 415.12V407.08C337.751 406 339.351 405.2 340.071 405.2C341.671 405.2 342.871 405.92 342.871 408.2V414.88C342.871 418.24 342.231 418.6 340.591 418.72C340.351 418.96 340.351 419.84 340.591 420.08C342.271 420.04 343.551 420 345.471 420C347.671 420 349.431 420.04 351.151 420.08C351.391 419.84 351.391 418.96 351.151 418.72C348.711 418.6 348.071 418.24 348.071 414.88V408.64C348.071 404.24 346.191 402.24 342.751 402.24C341.151 402.24 338.311 404 336.111 405.52C335.991 404.12 335.831 402.92 335.831 402.92C335.791 402.44 335.471 402.24 334.911 402.24C333.431 402.64 331.031 403.2 328.271 403.56C328.191 403.8 328.271 404.6 328.351 404.84C330.551 405.04 330.951 405.36 330.951 407.64V415.12C330.951 418.44 330.511 418.52 328.071 418.72C327.831 418.96 327.831 419.84 328.071 420.08C329.751 420.04 331.431 420 333.551 420C335.391 420 336.511 420.04 338.231 420.08C338.471 419.84 338.471 418.96 338.231 418.72C336.551 418.56 336.151 418.44 336.151 415.12ZM353.6 414.16C353.76 416.12 353.96 418 354.28 419.52C355.04 419.76 357.6 420.4 359.84 420.4C362.92 420.4 366.76 418.72 366.76 415.24C366.76 413.88 366.44 412.8 365.52 411.8C364.4 410.52 362.72 409.52 360.88 408.72C359.28 408.04 358.72 406.76 358.72 405.6C358.72 404.68 359.48 403.92 360.64 403.92C362.04 403.92 363.4 405.2 364.4 407.64C365.12 407.76 365.56 407.72 365.96 407.44C365.96 406 365.8 404.48 365.44 403.2C364.16 402.64 363.16 402.24 360.96 402.24C358.84 402.24 356.84 403.04 355.56 404.32C354.64 405.24 354.2 406.36 354.2 407.44C354.2 408.64 354.68 409.6 355.44 410.44C356.68 411.8 358.88 413.2 360.08 413.76C361.68 414.48 362.12 415.92 362.12 416.88C362.12 418.16 360.84 418.84 359.76 418.84C357.96 418.84 356.04 417 355.2 414.08C354.56 413.96 354.24 414 353.6 414.16Z" fill="black"/>
<path id="Combinators" d="M663.88 420.4C667.76 420.4 671.32 418.56 674.04 415C673.84 414.64 673.16 414.16 672.72 414.16C669.88 417.28 666.64 418.32 663.84 418.32C659.2 418.32 655.52 412.88 655.52 406.64C655.52 400.44 658.72 395.32 663.48 395.32C669 395.32 670.8 398.44 671.84 401.88C672.32 402.04 673.12 401.92 673.56 401.68C673.36 399.6 673.04 397.68 672.68 395.48C670.64 395.28 668.84 393.68 663.92 393.68C656.08 393.68 649.48 398.6 649.48 407.4C649.48 411.16 651.12 415.56 654.32 417.88C656.88 419.72 660 420.4 663.88 420.4ZM677.722 411.72C677.722 416.96 681.882 420.4 687.242 420.4C690.082 420.4 692.442 419.6 694.082 418.12C696.122 416.32 696.802 413.6 696.802 411.36C696.802 406.12 693.242 402.24 687.282 402.24C683.962 402.24 681.482 403.4 679.922 405.2C678.402 406.96 677.722 409.36 677.722 411.72ZM686.642 403.92C689.362 403.92 691.202 407.16 691.202 412.64C691.202 417.44 689.322 418.72 687.882 418.72C684.602 418.72 683.322 413.8 683.322 410.84C683.322 407.16 683.962 403.92 686.642 403.92ZM707.393 415.12V407.16C707.393 406.96 707.393 406.76 707.393 406.56C708.953 405.6 710.353 405.2 711.033 405.2C712.633 405.2 713.833 405.92 713.833 408.2V414.88C713.833 418.24 713.193 418.6 711.553 418.72C711.313 418.96 711.313 419.84 711.553 420.08C713.233 420.04 714.513 420 716.433 420C718.353 420 719.593 420.04 721.313 420.08C721.553 419.84 721.553 418.96 721.313 418.72C719.713 418.6 719.033 418.24 719.033 414.88V408.64C719.033 407.64 718.993 406.84 718.873 406.44C720.393 405.68 722.113 405.2 722.753 405.2C724.353 405.2 725.473 405.92 725.473 408.2V414.88C725.473 418.24 724.833 418.6 723.193 418.72C722.953 418.96 722.953 419.84 723.193 420.08C724.873 420.04 726.153 420 728.073 420C730.273 420 732.033 420.04 733.753 420.08C733.993 419.84 733.993 418.96 733.753 418.72C731.313 418.6 730.673 418.24 730.673 414.88V408.64C730.673 404.24 729.073 402.24 725.633 402.24C724.153 402.24 720.793 403.84 718.473 405.12C717.873 403.4 716.273 402.24 713.913 402.24C712.473 402.24 709.593 403.76 707.313 405.04C707.193 403.84 707.073 402.92 707.073 402.92C707.033 402.44 706.713 402.24 706.153 402.24C704.673 402.64 702.273 403.2 699.513 403.56C699.433 403.8 699.513 404.6 699.593 404.84C701.793 405.04 702.193 405.36 702.193 407.64V415.12C702.193 418.44 701.753 418.52 699.313 418.72C699.073 418.96 699.073 419.84 699.313 420.08C700.993 420.04 702.673 420 704.793 420C706.633 420 707.753 420.04 709.473 420.08C709.713 419.84 709.713 418.96 709.473 418.72C707.793 418.56 707.393 418.44 707.393 415.12ZM737.444 414.92C737.444 418.24 737.364 418.72 737.204 420.24C737.684 420.4 738.124 420.52 738.564 420.52C739.084 420.08 739.484 419.52 739.844 418.8C741.404 420 743.844 420.4 745.684 420.4C750.124 420.4 754.804 416 754.804 410.28C754.804 408 753.924 405.76 752.644 404.28C751.204 402.64 749.284 402.24 747.164 402.24C745.924 402.24 743.804 403.64 742.644 404.48V396.68C742.644 394.08 742.764 392.6 742.764 392.6C742.764 392.24 742.484 392.08 742.124 392.08C740.644 392.56 737.444 393 734.604 393.12C734.484 393.6 734.524 394.04 734.724 394.4C737.244 394.6 737.444 394.64 737.444 397.4V414.92ZM742.644 406.08C743.964 405.2 744.844 405.08 745.764 405.08C747.724 405.08 749.204 406.88 749.204 410.8C749.204 414.08 748.644 418.72 745.484 418.72C744.324 418.72 743.404 418.24 742.644 417.32V406.08ZM765.444 415.12V407.16C765.444 405.16 765.604 402.92 765.604 402.92C765.604 402.48 765.244 402.24 764.684 402.24C763.564 402.68 760.324 403 757.564 403.36C757.484 403.6 757.564 404.4 757.644 404.64C759.844 404.84 760.244 405.16 760.244 407.44V415.12C760.244 418.44 759.804 418.52 757.364 418.72C757.124 418.96 757.124 419.84 757.364 420.08C759.044 420.04 760.724 420 762.844 420C764.964 420 766.604 420.04 768.324 420.08C768.564 419.84 768.564 418.96 768.324 418.72C765.884 418.56 765.444 418.44 765.444 415.12ZM760.044 396.16C760.044 397.48 761.004 398.8 762.604 398.8C764.404 398.8 765.444 397.36 765.444 396.32C765.444 395.12 764.524 393.68 762.844 393.68C760.964 393.68 760.044 394.96 760.044 396.16ZM778.175 415.12V407.08C779.775 406 781.375 405.2 782.095 405.2C783.695 405.2 784.895 405.92 784.895 408.2V414.88C784.895 418.24 784.255 418.6 782.615 418.72C782.375 418.96 782.375 419.84 782.615 420.08C784.295 420.04 785.575 420 787.495 420C789.695 420 791.455 420.04 793.175 420.08C793.415 419.84 793.415 418.96 793.175 418.72C790.735 418.6 790.095 418.24 790.095 414.88V408.64C790.095 404.24 788.215 402.24 784.775 402.24C783.175 402.24 780.335 404 778.135 405.52C778.015 404.12 777.855 402.92 777.855 402.92C777.815 402.44 777.495 402.24 776.935 402.24C775.455 402.64 773.055 403.2 770.295 403.56C770.215 403.8 770.295 404.6 770.375 404.84C772.575 405.04 772.975 405.36 772.975 407.64V415.12C772.975 418.44 772.535 418.52 770.095 418.72C769.855 418.96 769.855 419.84 770.095 420.08C771.775 420.04 773.455 420 775.575 420C777.415 420 778.535 420.04 780.255 420.08C780.495 419.84 780.495 418.96 780.255 418.72C778.575 418.56 778.175 418.44 778.175 415.12ZM805.503 418.04C805.783 419.68 806.863 420.4 808.623 420.4C810.823 420.4 812.383 419.56 813.863 418.16C813.783 417.68 813.623 417.36 813.143 417.04C812.623 417.44 812.223 417.6 811.463 417.6C810.583 417.6 810.343 416.88 810.343 414.92L810.423 409.16C810.423 403.4 806.863 402.24 803.583 402.24C800.663 402.24 796.183 403.92 796.183 406.56C796.183 407.68 796.663 408.56 798.223 408.56C799.663 408.56 800.703 407.68 800.703 406.72C800.703 406.52 800.663 406.28 800.623 406.04C800.543 405.64 800.463 405.24 800.543 404.84C800.583 404.4 800.903 403.92 802.223 403.92C803.903 403.92 805.303 404.64 805.303 409.72L802.623 410.56C798.423 411.88 795.463 413.04 795.463 416.2C795.463 418.96 796.983 420.4 800.463 420.4C801.623 420.4 803.943 419.12 805.263 418.08L805.503 418.04ZM805.303 411.28V416.56C804.303 417.36 803.303 418 802.583 418C800.863 418 800.263 416.84 800.263 415.6C800.263 414.12 800.383 412.88 803.223 411.96L805.303 411.28ZM816.458 402.64C815.898 402.64 815.298 402.8 814.778 403.24V404.4C814.778 404.6 814.818 404.64 814.978 404.64H817.578C817.498 408.68 817.458 413.8 817.458 415.8C817.458 417.2 817.818 418.56 818.658 419.28C819.578 420.04 821.018 420.4 821.978 420.4C824.178 420.4 826.618 419.28 827.418 418.16C827.418 417.68 827.178 417.44 826.698 417.04C826.178 417.44 825.178 417.6 824.418 417.6C823.538 417.6 822.658 416.92 822.658 414.92C822.658 412.92 822.618 408.64 822.618 404.64H826.658C827.058 404.64 827.618 404.48 827.618 404.12V402.88C827.618 402.72 827.498 402.64 827.298 402.64H822.618L822.658 401.28C822.738 398.6 822.858 396.76 822.858 396.76C822.858 396.52 822.738 396.4 822.538 396.4C822.258 396.4 820.778 396.84 820.138 397.12C819.458 397.4 818.298 397.64 818.018 398C817.738 398.36 817.578 399.44 817.578 402.64H816.458ZM829.753 411.72C829.753 416.96 833.913 420.4 839.273 420.4C842.113 420.4 844.473 419.6 846.113 418.12C848.153 416.32 848.833 413.6 848.833 411.36C848.833 406.12 845.273 402.24 839.313 402.24C835.993 402.24 833.513 403.4 831.953 405.2C830.433 406.96 829.753 409.36 829.753 411.72ZM838.673 403.92C841.393 403.92 843.233 407.16 843.233 412.64C843.233 417.44 841.353 418.72 839.913 418.72C836.633 418.72 835.353 413.8 835.353 410.84C835.353 407.16 835.993 403.92 838.673 403.92ZM859.425 409.28C859.425 407.84 859.865 407.24 860.385 406.64C860.705 406.24 861.065 405.96 861.665 405.96C862.025 405.96 862.465 406.32 862.785 406.72C863.065 407.04 863.745 407.36 864.665 407.36C865.825 407.36 866.945 406.16 866.945 404.48C866.945 403.44 865.745 402.24 864.305 402.24C862.905 402.24 861.385 403.44 859.545 406.08H859.385C859.305 404.88 859.105 402.92 859.105 402.92C859.065 402.56 858.745 402.24 858.185 402.24C856.305 402.72 854.185 403.28 851.545 403.56C851.465 403.8 851.545 404.56 851.625 404.8C853.825 405 854.225 405.36 854.225 407.64V415.12C854.225 418.44 853.785 418.52 851.345 418.72C851.105 418.96 851.105 419.84 851.345 420.08C853.025 420.04 854.705 420 856.825 420C858.945 420 860.585 420.04 862.305 420.08C862.545 419.84 862.545 418.96 862.305 418.72C859.865 418.56 859.425 418.44 859.425 415.12V409.28ZM869.334 414.16C869.494 416.12 869.694 418 870.014 419.52C870.774 419.76 873.334 420.4 875.574 420.4C878.654 420.4 882.494 418.72 882.494 415.24C882.494 413.88 882.174 412.8 881.254 411.8C880.134 410.52 878.454 409.52 876.614 408.72C875.014 408.04 874.454 406.76 874.454 405.6C874.454 404.68 875.214 403.92 876.374 403.92C877.774 403.92 879.134 405.2 880.134 407.64C880.854 407.76 881.294 407.72 881.694 407.44C881.694 406 881.534 404.48 881.174 403.2C879.894 402.64 878.894 402.24 876.694 402.24C874.574 402.24 872.574 403.04 871.294 404.32C870.374 405.24 869.934 406.36 869.934 407.44C869.934 408.64 870.414 409.6 871.174 410.44C872.414 411.8 874.614 413.2 875.814 413.76C877.414 414.48 877.854 415.92 877.854 416.88C877.854 418.16 876.574 418.84 875.494 418.84C873.694 418.84 871.774 417 870.934 414.08C870.294 413.96 869.974 414 869.334 414.16Z" fill="black"/>
<g id="every_finite_set__7C__CF_84_+__CF_84__7C__CF_84__C3_97__CF_84__7C__CF_84*">
<path id="Datatypes" d="M428.4 275C430 275 433.28 275.08 434.88 275.08C438.4 275.08 442.36 274.2 445.2 271.72C447.12 270.04 448.44 266.72 448.44 262.64C448.44 255.24 443.64 249.16 433.8 249.16C431.68 249.16 430 249.2 428.4 249.2C426.8 249.2 422.24 249.12 422.24 249.12C421.84 249.36 421.84 250.24 422.24 250.48C424.44 250.6 425.56 250.76 425.56 254.08V270.12C425.56 273.44 424.44 273.6 422.24 273.72C421.84 273.96 421.84 274.84 422.24 275.08C422.24 275.08 426.8 275 428.4 275ZM431.16 270.24V253.84C431.16 251.64 432.2 250.84 433.64 250.84C441.52 250.84 442.4 257.6 442.4 263.64C442.4 270.92 438.04 273.4 435 273.4C432.2 273.4 431.16 272.92 431.16 270.24ZM462.175 273.04C462.455 274.68 463.535 275.4 465.295 275.4C467.495 275.4 469.055 274.56 470.535 273.16C470.455 272.68 470.295 272.36 469.815 272.04C469.295 272.44 468.895 272.6 468.135 272.6C467.255 272.6 467.015 271.88 467.015 269.92L467.095 264.16C467.095 258.4 463.535 257.24 460.255 257.24C457.335 257.24 452.855 258.92 452.855 261.56C452.855 262.68 453.335 263.56 454.895 263.56C456.335 263.56 457.375 262.68 457.375 261.72C457.375 261.52 457.335 261.28 457.295 261.04C457.215 260.64 457.135 260.24 457.215 259.84C457.255 259.4 457.575 258.92 458.895 258.92C460.575 258.92 461.975 259.64 461.975 264.72L459.295 265.56C455.095 266.88 452.135 268.04 452.135 271.2C452.135 273.96 453.655 275.4 457.135 275.4C458.295 275.4 460.615 274.12 461.935 273.08L462.175 273.04ZM461.975 266.28V271.56C460.975 272.36 459.975 273 459.255 273C457.535 273 456.935 271.84 456.935 270.6C456.935 269.12 457.055 267.88 459.895 266.96L461.975 266.28ZM473.129 257.64C472.569 257.64 471.969 257.8 471.449 258.24V259.4C471.449 259.6 471.489 259.64 471.649 259.64H474.249C474.169 263.68 474.129 268.8 474.129 270.8C474.129 272.2 474.489 273.56 475.329 274.28C476.249 275.04 477.689 275.4 478.649 275.4C480.849 275.4 483.289 274.28 484.089 273.16C484.089 272.68 483.849 272.44 483.369 272.04C482.849 272.44 481.849 272.6 481.089 272.6C480.209 272.6 479.329 271.92 479.329 269.92C479.329 267.92 479.289 263.64 479.289 259.64H483.329C483.729 259.64 484.289 259.48 484.289 259.12V257.88C484.289 257.72 484.169 257.64 483.969 257.64H479.289L479.329 256.28C479.409 253.6 479.529 251.76 479.529 251.76C479.529 251.52 479.409 251.4 479.209 251.4C478.929 251.4 477.449 251.84 476.809 252.12C476.129 252.4 474.969 252.64 474.689 253C474.409 253.36 474.249 254.44 474.249 257.64H473.129ZM496.745 273.04C497.025 274.68 498.105 275.4 499.865 275.4C502.065 275.4 503.625 274.56 505.105 273.16C505.025 272.68 504.865 272.36 504.385 272.04C503.865 272.44 503.465 272.6 502.705 272.6C501.825 272.6 501.585 271.88 501.585 269.92L501.665 264.16C501.665 258.4 498.105 257.24 494.825 257.24C491.905 257.24 487.425 258.92 487.425 261.56C487.425 262.68 487.905 263.56 489.465 263.56C490.905 263.56 491.945 262.68 491.945 261.72C491.945 261.52 491.905 261.28 491.865 261.04C491.785 260.64 491.705 260.24 491.785 259.84C491.825 259.4 492.145 258.92 493.465 258.92C495.145 258.92 496.545 259.64 496.545 264.72L493.865 265.56C489.665 266.88 486.705 268.04 486.705 271.2C486.705 273.96 488.225 275.4 491.705 275.4C492.865 275.4 495.185 274.12 496.505 273.08L496.745 273.04ZM496.545 266.28V271.56C495.545 272.36 494.545 273 493.825 273C492.105 273 491.505 271.84 491.505 270.6C491.505 269.12 491.625 267.88 494.465 266.96L496.545 266.28ZM507.7 257.64C507.14 257.64 506.54 257.8 506.02 258.24V259.4C506.02 259.6 506.06 259.64 506.22 259.64H508.82C508.74 263.68 508.7 268.8 508.7 270.8C508.7 272.2 509.06 273.56 509.9 274.28C510.82 275.04 512.26 275.4 513.22 275.4C515.42 275.4 517.86 274.28 518.66 273.16C518.66 272.68 518.42 272.44 517.94 272.04C517.42 272.44 516.42 272.6 515.66 272.6C514.78 272.6 513.9 271.92 513.9 269.92C513.9 267.92 513.86 263.64 513.86 259.64H517.9C518.3 259.64 518.86 259.48 518.86 259.12V257.88C518.86 257.72 518.74 257.64 518.54 257.64H513.86L513.9 256.28C513.98 253.6 514.1 251.76 514.1 251.76C514.1 251.52 513.98 251.4 513.78 251.4C513.5 251.4 512.02 251.84 511.38 252.12C510.7 252.4 509.54 252.64 509.26 253C508.98 253.36 508.82 254.44 508.82 257.64H507.7ZM529.196 281.72C529.836 280.6 530.436 279.16 530.916 277.96C534.116 270.24 536.076 265.92 538.196 261.44C538.756 260.28 539.956 259.04 541.436 258.92C541.676 258.68 541.676 257.8 541.436 257.56C540.436 257.6 539.716 257.64 538.596 257.64C537.196 257.64 535.836 257.6 534.356 257.56C534.116 257.8 534.116 258.68 534.356 258.92C535.636 259.04 536.916 259.24 536.276 260.68L532.156 269.92C532.156 269.96 532.156 269.96 532.116 270C532.116 269.96 532.116 269.92 532.076 269.84L528.356 261.48C528.316 261.44 528.316 261.4 528.316 261.36C527.596 259.8 527.316 259.12 529.676 258.92C529.916 258.68 529.916 257.8 529.676 257.56C528.196 257.6 525.796 257.64 524.356 257.64C522.996 257.64 520.716 257.6 519.916 257.56C519.676 257.8 519.676 258.68 519.916 258.92C521.676 259.08 521.996 259.36 523.076 261.88L528.236 273.72C528.356 273.92 528.516 274.08 528.636 274.24C529.156 274.96 529.596 275.56 529.356 276.12L528.396 278.32C527.876 279.56 527.396 280.28 526.276 280.28C525.556 280.28 525.436 280.12 524.876 280.12C523.356 280.12 522.476 281.16 522.476 281.96C522.476 282.48 522.596 283.12 522.956 283.56C523.316 284 523.996 284.28 524.516 284.28C525.036 284.28 526.236 284.12 526.796 283.88C527.636 283.48 528.756 282.52 529.196 281.72ZM545.62 262.64V279.4C545.62 282.72 545.18 282.8 542.74 283C542.5 283.24 542.5 284.12 542.74 284.36C544.42 284.32 546.1 284.28 548.22 284.28C550.34 284.28 551.98 284.32 553.7 284.36C553.94 284.12 553.94 283.24 553.7 283C551.26 282.84 550.82 282.72 550.82 279.4V274.72C551.7 275.16 552.54 275.4 553.5 275.4C559.58 275.4 563.54 271.4 563.54 265.52C563.54 263.28 562.7 260.8 561.14 259.24C559.74 257.84 557.74 257.24 555.66 257.24C554.5 257.24 552.34 258.64 550.94 259.92H550.7C550.62 258.8 550.5 257.92 550.5 257.92C550.46 257.44 550.14 257.24 549.58 257.24C548.1 257.64 545.7 258.2 542.94 258.56C542.86 258.8 542.94 259.6 543.02 259.84C545.22 260.04 545.62 260.36 545.62 262.64ZM550.82 272.4V262.16C550.82 261.92 550.82 261.72 550.82 261.48C551.98 260.44 553.46 259.92 554.38 259.92C556.02 259.92 557.94 261.92 557.94 266.6C557.94 269.96 556.74 273.72 553.26 273.72C552.82 273.72 551.82 273.48 550.82 272.4ZM582.576 269.84C580.936 271.52 578.776 271.96 577.256 271.96C574.136 271.96 572.216 270.16 572.216 266.24C572.216 265.96 572.256 265.8 572.256 265.6H581.856C582.816 265.6 583.016 264.92 583.016 264.36C583.016 260.96 581.696 257.24 575.816 257.24C571.616 257.24 566.816 260.96 566.816 267.08C566.816 269.4 567.656 271.84 569.376 273.4C570.896 274.76 572.856 275.4 575.696 275.4C578.456 275.4 581.176 274 583.176 271.08C583.176 270.56 582.976 269.84 582.576 269.84ZM572.416 264C572.456 262.6 572.656 261.08 573.216 260.28C573.856 259.32 574.936 258.92 575.376 258.92C576.456 258.92 577.936 259.96 577.936 263.16C577.936 263.4 577.936 263.92 577.856 264H572.416ZM586.826 269.16C586.986 271.12 587.186 273 587.506 274.52C588.266 274.76 590.826 275.4 593.066 275.4C596.146 275.4 599.986 273.72 599.986 270.24C599.986 268.88 599.666 267.8 598.746 266.8C597.626 265.52 595.946 264.52 594.106 263.72C592.506 263.04 591.946 261.76 591.946 260.6C591.946 259.68 592.706 258.92 593.866 258.92C595.266 258.92 596.626 260.2 597.626 262.64C598.346 262.76 598.786 262.72 599.186 262.44C599.186 261 599.026 259.48 598.666 258.2C597.386 257.64 596.386 257.24 594.186 257.24C592.066 257.24 590.066 258.04 588.786 259.32C587.866 260.24 587.426 261.36 587.426 262.44C587.426 263.64 587.906 264.6 588.666 265.44C589.906 266.8 592.106 268.2 593.306 268.76C594.906 269.48 595.346 270.92 595.346 271.88C595.346 273.16 594.066 273.84 592.986 273.84C591.186 273.84 589.266 272 588.426 269.08C587.786 268.96 587.466 269 586.826 269.16Z" fill="black"/>
<path id="every finite set | &#207;&#132; + &#207;&#132; | &#207;&#132; &#195;&#151; &#207;&#132; | &#207;&#132;*" d="M303.808 319.396C302.772 320.46 301.96 320.908 300.336 320.908C299.328 320.908 298.152 320.32 297.284 318.892C296.724 317.968 296.388 316.68 296.388 315.056L303.836 315.112C304.172 315.112 304.368 314.944 304.368 314.636C304.368 312.284 303.528 309.764 299.636 309.764C297.2 309.764 294.036 312.088 294.036 316.344C294.036 317.912 294.428 319.424 295.352 320.488C296.304 321.608 297.62 322.28 299.636 322.28C301.764 322.28 303.276 321.3 304.396 319.844C304.312 319.564 304.144 319.424 303.808 319.396ZM296.472 314.104C297.004 310.94 298.964 310.688 299.636 310.688C300.7 310.688 301.96 311.276 301.96 313.628C301.96 313.88 301.848 314.02 301.54 314.02L296.472 314.104ZM314.432 310.856C315.944 310.968 316.112 311.304 315.524 312.732L313.256 318.22C312.808 319.312 312.668 319.312 312.22 318.136L310.204 312.732C309.7 311.388 309.588 311.052 311.072 310.856C311.24 310.688 311.24 310.1 311.072 309.932C310.148 309.96 309.168 309.988 308.244 309.988C307.32 309.988 306.48 309.96 305.64 309.932C305.472 310.1 305.472 310.688 305.64 310.856C307.124 311.024 307.32 311.472 307.88 312.9L311.464 321.748C311.632 322.168 311.8 322.336 312.164 322.336C312.444 322.336 312.64 322.168 312.836 321.692L316.56 312.928C317.092 311.696 317.4 310.996 318.968 310.856C319.136 310.688 319.136 310.1 318.968 309.932C318.408 309.96 317.736 309.988 317.008 309.988C316.084 309.988 315.132 309.96 314.432 309.932C314.264 310.1 314.264 310.688 314.432 310.856ZM329.839 319.396C328.803 320.46 327.991 320.908 326.367 320.908C325.359 320.908 324.183 320.32 323.315 318.892C322.755 317.968 322.419 316.68 322.419 315.056L329.867 315.112C330.203 315.112 330.399 314.944 330.399 314.636C330.399 312.284 329.559 309.764 325.667 309.764C323.231 309.764 320.067 312.088 320.067 316.344C320.067 317.912 320.459 319.424 321.383 320.488C322.335 321.608 323.651 322.28 325.667 322.28C327.795 322.28 329.307 321.3 330.427 319.844C330.343 319.564 330.175 319.424 329.839 319.396ZM322.503 314.104C323.035 310.94 324.995 310.688 325.667 310.688C326.731 310.688 327.991 311.276 327.991 313.628C327.991 313.88 327.879 314.02 327.571 314.02L322.503 314.104ZM336.483 311.976C336.427 310.856 336.399 310.128 336.259 309.848C336.203 309.708 336.147 309.624 335.923 309.624C335.139 309.932 334.411 310.184 332.479 310.436C332.423 310.604 332.479 311.052 332.535 311.22C334.047 311.36 334.355 311.5 334.355 313.124V318.584C334.355 320.908 334.019 321.02 332.283 321.132C332.115 321.3 332.115 321.888 332.283 322.056C333.263 322.028 334.355 322 335.475 322C336.595 322 337.883 322.028 338.863 322.056C339.031 321.888 339.031 321.3 338.863 321.132C336.903 320.992 336.567 320.908 336.567 318.584V314.692C336.567 313.964 336.903 313.32 337.239 312.816C337.547 312.368 338.191 311.444 338.527 311.444C338.779 311.444 339.031 311.5 339.255 311.808C339.451 312.088 339.787 312.452 340.263 312.452C340.935 312.452 341.579 311.752 341.579 311.052C341.579 310.52 341.075 309.708 339.899 309.708C338.583 309.708 337.435 310.94 336.791 312.032C336.623 312.34 336.483 312.116 336.483 311.976ZM348.095 326.48C348.543 325.696 348.907 324.912 349.243 324.072C351.483 318.668 352.743 315.784 354.199 312.648C354.759 311.472 355.151 311.024 356.467 310.856C356.635 310.688 356.635 310.1 356.467 309.932C355.907 309.96 355.263 309.988 354.479 309.988C353.639 309.988 352.771 309.96 351.931 309.932C351.763 310.1 351.763 310.688 351.931 310.856C352.827 310.94 353.723 311.108 353.275 312.116L350.503 318.528C350.307 318.976 350.055 319.06 349.831 318.5L347.339 312.676C346.835 311.5 346.695 310.968 348.263 310.856C348.431 310.688 348.431 310.1 348.263 309.932C347.227 309.96 346.107 309.988 345.099 309.988C344.147 309.988 343.391 309.96 342.831 309.932C342.663 310.1 342.663 310.688 342.831 310.856C343.951 310.996 344.315 311.248 345.043 312.956L348.207 320.32C348.459 320.88 348.879 322.168 348.599 322.952C348.263 323.876 347.927 324.66 347.507 325.528C347.199 326.088 346.807 326.34 346.107 326.34C345.715 326.34 345.603 326.256 345.295 326.256C344.483 326.256 344.063 327.096 344.063 327.46C344.063 328.048 344.623 328.496 345.379 328.496C345.967 328.496 347.087 328.272 348.095 326.48ZM376.953 318.584V312.676C376.953 311.584 377.065 309.792 377.065 309.792C377.065 309.68 376.897 309.624 376.785 309.624C375.945 309.96 375.133 309.988 374.153 309.988H368.637V308.392C368.637 305.732 369.589 303.408 371.493 303.408C372.697 303.408 373.649 303.716 373.873 304.864C374.153 306.264 374.741 306.684 375.609 306.684C376.225 306.684 376.813 306.124 376.813 305.536C376.813 303.8 374.433 302.456 371.829 302.456C370.541 302.456 369.001 302.96 367.853 304.304C366.677 305.676 366.425 307.384 366.425 309.568V309.988H365.053C364.549 309.988 364.409 310.324 364.409 310.548V310.912C364.409 311.052 364.437 311.08 364.549 311.08H366.425V318.584C366.425 320.908 366.117 321.02 364.605 321.132C364.437 321.3 364.437 321.888 364.605 322.056C365.557 322.028 366.565 322 367.545 322C368.525 322 369.785 322.028 370.709 322.056C370.877 321.888 370.877 321.3 370.709 321.132C368.917 321.02 368.637 320.908 368.637 318.584V311.08H373.649C374.517 311.08 374.741 311.64 374.741 313.068V318.584C374.741 320.908 374.405 321.02 372.865 321.132C372.697 321.3 372.697 321.888 372.865 322.056C373.845 322.028 374.853 322 375.861 322C376.841 322 377.933 322.028 378.969 322.056C379.137 321.888 379.137 321.3 378.969 321.132C377.261 321.02 376.953 320.908 376.953 318.584ZM384.613 311.976C384.445 312.172 384.277 312.228 384.277 311.976C384.249 311.22 384.193 310.128 384.053 309.848C383.997 309.708 383.941 309.624 383.717 309.624C382.933 309.932 382.205 310.184 380.273 310.436C380.217 310.604 380.273 311.052 380.329 311.22C381.841 311.36 382.149 311.5 382.149 313.124V318.584C382.149 320.88 381.869 320.992 380.189 321.132C380.021 321.3 380.021 321.888 380.189 322.056C381.029 322.028 382.149 322 383.269 322C384.389 322 385.229 322.028 386.069 322.056C386.237 321.888 386.237 321.3 386.069 321.132C384.641 320.992 384.361 320.88 384.361 318.584V313.992C384.361 313.404 384.613 313.068 384.837 312.816C385.901 311.78 387.161 311.164 388.253 311.164C388.813 311.164 389.401 311.528 389.737 312.172C390.017 312.732 390.073 313.488 390.073 314.328V318.584C390.073 320.88 389.793 320.992 388.337 321.132C388.197 321.3 388.197 321.888 388.337 322.056C389.177 322.028 390.073 322 391.193 322C392.313 322 393.321 322.028 394.161 322.056C394.301 321.888 394.301 321.3 394.161 321.132C392.593 320.992 392.285 320.88 392.285 318.584V314.412C392.285 312.872 392.173 311.528 391.529 310.66C391.053 310.044 390.185 309.708 389.205 309.708C387.833 309.708 386.265 310.072 384.613 311.976ZM399.705 318.584V313.012C399.705 311.612 399.817 309.82 399.817 309.82C399.817 309.708 399.677 309.624 399.453 309.624C398.669 309.932 397.549 310.184 395.617 310.436C395.561 310.604 395.617 311.052 395.673 311.22C397.213 311.36 397.493 311.528 397.493 313.124V318.584C397.493 320.908 397.185 320.992 395.477 321.132C395.309 321.3 395.309 321.888 395.477 322.056C396.401 322.028 397.493 322 398.613 322C399.733 322 400.797 322.028 401.721 322.056C401.889 321.888 401.889 321.3 401.721 321.132C400.013 321.02 399.705 320.908 399.705 318.584ZM397.157 305.228C397.157 305.956 397.829 306.684 398.501 306.684C399.285 306.684 399.957 305.928 399.957 305.34C399.957 304.668 399.369 303.884 398.613 303.884C397.941 303.884 397.157 304.556 397.157 305.228ZM403.442 309.988C403.05 309.988 402.938 310.324 402.938 310.548V310.912C402.938 311.052 402.966 311.08 403.078 311.08H404.73V319.508C404.73 321.496 405.598 322.28 406.886 322.28C408.174 322.28 409.574 321.664 410.666 320.432C410.61 320.152 410.442 319.984 410.162 319.956C409.434 320.516 408.594 320.74 407.866 320.74C407.11 320.74 406.942 319.9 406.942 318.164V311.08H409.854C410.134 311.08 410.526 310.968 410.526 310.716V310.156C410.526 310.044 410.442 309.988 410.302 309.988H406.942V308.896C406.942 307.076 407.054 305.956 407.054 305.956C407.054 305.788 406.97 305.704 406.83 305.704C406.718 305.704 406.466 305.816 406.214 305.956C405.906 306.124 405.626 306.264 405.262 306.348C404.926 306.46 404.646 306.544 404.646 306.74C404.646 307.076 404.73 306.88 404.73 309.988H403.442ZM421.906 319.396C420.87 320.46 420.058 320.908 418.434 320.908C417.426 320.908 416.25 320.32 415.382 318.892C414.822 317.968 414.486 316.68 414.486 315.056L421.934 315.112C422.27 315.112 422.466 314.944 422.466 314.636C422.466 312.284 421.626 309.764 417.734 309.764C415.298 309.764 412.134 312.088 412.134 316.344C412.134 317.912 412.526 319.424 413.45 320.488C414.402 321.608 415.718 322.28 417.734 322.28C419.862 322.28 421.374 321.3 422.494 319.844C422.41 319.564 422.242 319.424 421.906 319.396ZM414.57 314.104C415.102 310.94 417.062 310.688 417.734 310.688C418.798 310.688 420.058 311.276 420.058 313.628C420.058 313.88 419.946 314.02 419.638 314.02L414.57 314.104ZM431.965 318.136C432.077 319.508 432.161 320.824 432.161 322C432.441 321.944 432.721 321.916 432.861 321.916C433.057 321.916 433.225 321.916 433.421 321.972C434.177 322.168 434.933 322.28 435.969 322.28C437.537 322.28 440.421 321.524 440.421 318.752C440.421 316.848 439.049 315.728 437.145 315.028C435.465 314.384 434.345 313.964 434.345 312.424C434.345 311.276 435.353 310.632 436.305 310.632C436.921 310.632 438.545 310.856 438.909 313.236C439.077 313.404 439.637 313.376 439.805 313.208C439.889 312.2 439.945 311.164 439.973 310.24C439.105 310.1 437.761 309.708 436.305 309.708C434.233 309.708 432.357 311.052 432.357 312.844C432.357 314.888 433.281 315.756 435.437 316.652C437.761 317.604 438.293 318.192 438.293 319.396C438.293 320.768 436.949 321.356 435.913 321.356C434.821 321.356 434.205 320.992 433.925 320.684C433.309 320.04 433.001 318.808 432.833 318.108C432.665 317.94 432.133 317.968 431.965 318.136ZM452.339 319.396C451.303 320.46 450.491 320.908 448.867 320.908C447.859 320.908 446.683 320.32 445.815 318.892C445.255 317.968 444.919 316.68 444.919 315.056L452.367 315.112C452.703 315.112 452.899 314.944 452.899 314.636C452.899 312.284 452.059 309.764 448.167 309.764C445.731 309.764 442.567 312.088 442.567 316.344C442.567 317.912 442.959 319.424 443.883 320.488C444.835 321.608 446.151 322.28 448.167 322.28C450.295 322.28 451.807 321.3 452.927 319.844C452.843 319.564 452.675 319.424 452.339 319.396ZM445.003 314.104C445.535 310.94 447.495 310.688 448.167 310.688C449.231 310.688 450.491 311.276 450.491 313.628C450.491 313.88 450.379 314.02 450.071 314.02L445.003 314.104ZM455.259 309.988C454.867 309.988 454.755 310.324 454.755 310.548V310.912C454.755 311.052 454.783 311.08 454.895 311.08H456.547V319.508C456.547 321.496 457.415 322.28 458.703 322.28C459.991 322.28 461.391 321.664 462.483 320.432C462.427 320.152 462.259 319.984 461.979 319.956C461.251 320.516 460.411 320.74 459.683 320.74C458.927 320.74 458.759 319.9 458.759 318.164V311.08H461.671C461.951 311.08 462.343 310.968 462.343 310.716V310.156C462.343 310.044 462.259 309.988 462.119 309.988H458.759V308.896C458.759 307.076 458.871 305.956 458.871 305.956C458.871 305.788 458.787 305.704 458.647 305.704C458.535 305.704 458.283 305.816 458.031 305.956C457.723 306.124 457.443 306.264 457.079 306.348C456.743 306.46 456.463 306.544 456.463 306.74C456.463 307.076 456.547 306.88 456.547 309.988H455.259ZM480.414 328.496V302.456H479.182V328.496H480.414ZM507.968 309.988C505.364 309.988 504.608 312.368 504.412 313.852C504.524 314.02 504.776 314.076 505.056 314.076C505.7 312.368 506.036 311.892 507.408 311.892H508.976C508.612 314.916 508.36 318.108 508.36 319.62C508.36 321.664 509.144 322.28 510.684 322.28C511.916 322.28 513.064 321.244 514.016 320.012C513.932 319.732 513.736 319.592 513.484 319.508C512.336 320.684 511.524 320.796 511.048 320.796C510.46 320.796 510.152 320.236 510.152 318.976C510.152 317.436 510.32 314.972 510.6 311.892H513.456C514.604 311.892 515.248 311.276 515.752 310.324L515.444 309.988H507.968ZM530.016 309.82V314.272H525.396C525.06 314.272 524.696 314.804 524.696 315.224C524.696 315.448 524.864 315.672 525.116 315.672H530.016V320.432C530.016 320.684 530.24 320.852 530.464 320.852C530.884 320.852 531.416 320.488 531.416 320.152V315.672H535.98C536.344 315.672 536.736 315.028 536.736 314.748C536.736 314.524 536.624 314.272 536.344 314.272H531.416V309.456C531.416 309.176 531.164 309.064 530.94 309.064C530.66 309.064 530.016 309.456 530.016 309.82ZM549.722 309.988C547.118 309.988 546.362 312.368 546.166 313.852C546.278 314.02 546.53 314.076 546.81 314.076C547.454 312.368 547.79 311.892 549.162 311.892H550.73C550.366 314.916 550.114 318.108 550.114 319.62C550.114 321.664 550.898 322.28 552.438 322.28C553.67 322.28 554.818 321.244 555.77 320.012C555.686 319.732 555.49 319.592 555.238 319.508C554.09 320.684 553.278 320.796 552.802 320.796C552.214 320.796 551.906 320.236 551.906 318.976C551.906 317.436 552.074 314.972 552.354 311.892H555.21C556.358 311.892 557.002 311.276 557.506 310.324L557.198 309.988H549.722ZM582.27 328.496V302.456H581.038V328.496H582.27ZM609.824 309.988C607.22 309.988 606.464 312.368 606.268 313.852C606.38 314.02 606.632 314.076 606.912 314.076C607.556 312.368 607.892 311.892 609.264 311.892H610.832C610.468 314.916 610.216 318.108 610.216 319.62C610.216 321.664 611 322.28 612.54 322.28C613.772 322.28 614.92 321.244 615.872 320.012C615.788 319.732 615.592 319.592 615.34 319.508C614.192 320.684 613.38 320.796 612.904 320.796C612.316 320.796 612.008 320.236 612.008 318.976C612.008 317.436 612.176 314.972 612.456 311.892H615.312C616.46 311.892 617.104 311.276 617.608 310.324L617.3 309.988H609.824ZM633.495 314.944L636.939 311.5L635.959 310.52L632.543 313.964L629.127 310.52L628.119 311.5L631.563 314.944L628.119 318.36L629.127 319.34L632.543 315.924L635.959 319.34L636.939 318.36L633.495 314.944ZM651.578 309.988C648.974 309.988 648.218 312.368 648.022 313.852C648.134 314.02 648.386 314.076 648.666 314.076C649.31 312.368 649.646 311.892 651.018 311.892H652.586C652.222 314.916 651.97 318.108 651.97 319.62C651.97 321.664 652.754 322.28 654.294 322.28C655.526 322.28 656.674 321.244 657.626 320.012C657.542 319.732 657.346 319.592 657.094 319.508C655.946 320.684 655.134 320.796 654.658 320.796C654.07 320.796 653.762 320.236 653.762 318.976C653.762 317.436 653.93 314.972 654.21 311.892H657.066C658.214 311.892 658.858 311.276 659.362 310.324L659.054 309.988H651.578ZM684.125 328.496V302.456H682.893V328.496H684.125ZM711.679 309.988C709.075 309.988 708.319 312.368 708.123 313.852C708.235 314.02 708.487 314.076 708.767 314.076C709.411 312.368 709.747 311.892 711.119 311.892H712.687C712.323 314.916 712.071 318.108 712.071 319.62C712.071 321.664 712.855 322.28 714.395 322.28C715.627 322.28 716.775 321.244 717.727 320.012C717.643 319.732 717.447 319.592 717.195 319.508C716.047 320.684 715.235 320.796 714.759 320.796C714.171 320.796 713.863 320.236 713.863 318.976C713.863 317.436 714.031 314.972 714.311 311.892H717.167C718.315 311.892 718.959 311.276 719.463 310.324L719.155 309.988H711.679ZM724.431 306.684C723.507 307.72 722.079 307.944 722.079 309.148C722.079 309.568 722.415 309.932 722.891 309.932C723.955 309.932 724.151 308.28 724.851 307.02C725.551 308.112 725.747 309.932 726.839 309.932C727.231 309.932 727.651 309.624 727.651 309.12C727.651 308 726.279 307.72 725.327 306.684C725.831 306.6 726.335 306.572 726.867 306.572C727.819 306.572 728.799 306.376 728.799 305.536C728.799 305.256 728.603 304.696 727.847 304.696C726.923 304.696 726.475 305.592 725.187 306.152C725.243 305.312 725.719 304.192 725.719 303.436C725.719 302.764 725.299 302.456 724.795 302.456C724.291 302.456 723.955 302.96 723.955 303.548C723.955 304.276 724.487 305.032 724.599 306.124C723.367 305.62 722.863 304.696 721.911 304.696C721.239 304.696 720.987 305.144 720.987 305.536C720.987 306.376 721.883 306.572 723.255 306.572C723.675 306.572 724.067 306.6 724.431 306.684Z" fill="#EB5757"/>
</g>
<rect id="prime_regular_list_functions" opacity="0.5" x="69" y="461" width="300" height="225" fill="#FF0000"/>
<g id="_CF_841__E2_86_92__CF_83__CF_842__E2_86_92__CF_83">
<path id="&#207;&#132;1 + &#207;&#132;2 &#226;&#134;&#146; &#207;&#131;" d="M567.724 519.988C565.12 519.988 564.364 522.368 564.168 523.852C564.28 524.02 564.532 524.076 564.812 524.076C565.456 522.368 565.792 521.892 567.164 521.892H568.732C568.368 524.916 568.116 528.108 568.116 529.62C568.116 531.664 568.9 532.28 570.44 532.28C571.672 532.28 572.82 531.244 573.772 530.012C573.688 529.732 573.492 529.592 573.24 529.508C572.092 530.684 571.28 530.796 570.804 530.796C570.216 530.796 569.908 530.236 569.908 528.976C569.908 527.436 570.076 524.972 570.356 521.892H573.212C574.36 521.892 575.004 521.276 575.508 520.324L575.2 519.988H567.724ZM579.551 527.94C579.887 527.94 579.943 528.192 579.943 529.088V532.728C579.943 534.156 579.075 534.24 577.955 534.296C577.815 534.52 577.843 534.94 577.955 535.108C578.795 535.08 579.663 535.08 580.643 535.08C581.567 535.08 582.155 535.08 582.995 535.108C583.107 534.912 583.107 534.52 582.995 534.296C582.043 534.24 581.455 534.156 581.455 532.728V526.036C581.315 525.896 581.091 525.952 580.951 526.036C579.719 526.792 578.991 527.128 577.675 527.604C577.675 527.94 577.731 528.192 577.955 528.36C578.655 528.108 579.187 527.94 579.551 527.94ZM598.357 519.82V524.272H593.737C593.401 524.272 593.037 524.804 593.037 525.224C593.037 525.448 593.205 525.672 593.457 525.672H598.357V530.432C598.357 530.684 598.581 530.852 598.805 530.852C599.225 530.852 599.757 530.488 599.757 530.152V525.672H604.321C604.685 525.672 605.077 525.028 605.077 524.748C605.077 524.524 604.965 524.272 604.685 524.272H599.757V519.456C599.757 519.176 599.505 519.064 599.281 519.064C599.001 519.064 598.357 519.456 598.357 519.82ZM618.064 519.988C615.46 519.988 614.704 522.368 614.508 523.852C614.62 524.02 614.872 524.076 615.152 524.076C615.796 522.368 616.132 521.892 617.504 521.892H619.072C618.708 524.916 618.456 528.108 618.456 529.62C618.456 531.664 619.24 532.28 620.78 532.28C622.012 532.28 623.16 531.244 624.112 530.012C624.028 529.732 623.832 529.592 623.58 529.508C622.432 530.684 621.62 530.796 621.144 530.796C620.556 530.796 620.248 530.236 620.248 528.976C620.248 527.436 620.416 524.972 620.696 521.892H623.552C624.7 521.892 625.344 521.276 625.848 520.324L625.54 519.988H618.064ZM628.155 528.892C628.435 528.892 628.827 528.808 628.911 528.304C628.939 528.22 628.911 528.108 628.911 527.996C628.911 527.828 628.911 527.632 628.967 527.492C629.107 527.156 629.443 526.904 630.311 526.904C630.815 526.904 631.711 527.1 631.711 528.416C631.711 529.928 631.039 530.572 629.779 531.58C628.435 532.616 627.371 533.792 627.371 535.136H633.139C633.391 534.38 633.559 533.512 633.671 532.504C633.531 532.392 633.307 532.364 632.999 532.364C632.691 533.148 632.299 534.24 631.431 534.24H629.107C629.359 533.316 629.779 532.56 630.955 531.72C632.523 530.6 633.447 529.676 633.447 528.388C633.447 526.596 631.823 526.064 630.423 526.064C628.211 526.064 627.427 527.492 627.427 528.22C627.427 528.584 627.819 528.892 628.155 528.892ZM665.665 524.776C662.977 523.656 660.849 521.556 659.029 519.456L658.469 519.988C659.085 520.912 659.953 521.892 660.765 522.676C661.045 522.956 661.157 523.124 661.157 523.376C661.157 523.656 660.709 523.992 660.429 523.992H643.657V525.84H660.401C660.905 525.84 661.129 526.12 661.129 526.4C661.129 526.624 660.989 526.932 660.737 527.184C659.897 528.052 659.085 528.948 658.441 529.872L659.001 530.404C660.849 528.276 662.977 526.204 665.665 525.056V524.776ZM688.059 521.892C689.095 521.892 689.543 521.276 690.047 520.324L689.739 519.988H682.991C680.443 519.988 678.455 520.772 677.475 521.752C676.299 522.928 675.655 524.58 675.655 526.288C675.655 529.816 678.119 532.28 681.955 532.28C686.407 532.28 687.667 528.78 687.667 527.184C687.667 524.692 685.931 522.76 684.251 521.892H688.059ZM682.151 531.356C679.267 531.356 677.979 528.64 677.979 526.736C677.979 524.076 679.239 521.892 682.851 521.892C684.447 523.292 685.343 524.552 685.343 527.1C685.343 529.732 683.943 531.356 682.151 531.356Z" fill="#EB5757"/>
<path id="&#207;&#132;1 &#226;&#134;&#146; &#207;&#131; &#207;&#132;2 &#226;&#134;&#146; &#207;&#131;" d="M540.476 477.988C537.872 477.988 537.116 480.368 536.92 481.852C537.032 482.02 537.284 482.076 537.564 482.076C538.208 480.368 538.544 479.892 539.916 479.892H541.484C541.12 482.916 540.868 486.108 540.868 487.62C540.868 489.664 541.652 490.28 543.192 490.28C544.424 490.28 545.572 489.244 546.524 488.012C546.44 487.732 546.244 487.592 545.992 487.508C544.844 488.684 544.032 488.796 543.556 488.796C542.968 488.796 542.66 488.236 542.66 486.976C542.66 485.436 542.828 482.972 543.108 479.892H545.964C547.112 479.892 547.756 479.276 548.26 478.324L547.952 477.988H540.476ZM552.303 485.94C552.639 485.94 552.695 486.192 552.695 487.088V490.728C552.695 492.156 551.827 492.24 550.707 492.296C550.567 492.52 550.595 492.94 550.707 493.108C551.547 493.08 552.415 493.08 553.395 493.08C554.319 493.08 554.907 493.08 555.747 493.108C555.859 492.912 555.859 492.52 555.747 492.296C554.795 492.24 554.207 492.156 554.207 490.728V484.036C554.067 483.896 553.843 483.952 553.703 484.036C552.471 484.792 551.743 485.128 550.427 485.604C550.427 485.94 550.483 486.192 550.707 486.36C551.407 486.108 551.939 485.94 552.303 485.94ZM588.077 482.776C585.389 481.656 583.261 479.556 581.441 477.456L580.881 477.988C581.497 478.912 582.365 479.892 583.177 480.676C583.457 480.956 583.569 481.124 583.569 481.376C583.569 481.656 583.121 481.992 582.841 481.992H566.069V483.84H582.813C583.317 483.84 583.541 484.12 583.541 484.4C583.541 484.624 583.401 484.932 583.149 485.184C582.309 486.052 581.497 486.948 580.853 487.872L581.413 488.404C583.261 486.276 585.389 484.204 588.077 483.056V482.776ZM610.471 479.892C611.507 479.892 611.955 479.276 612.459 478.324L612.151 477.988H605.403C602.855 477.988 600.867 478.772 599.887 479.752C598.711 480.928 598.067 482.58 598.067 484.288C598.067 487.816 600.531 490.28 604.367 490.28C608.819 490.28 610.079 486.78 610.079 485.184C610.079 482.692 608.343 480.76 606.663 479.892H610.471ZM604.563 489.356C601.679 489.356 600.391 486.64 600.391 484.736C600.391 482.076 601.651 479.892 605.263 479.892C606.859 481.292 607.755 482.552 607.755 485.1C607.755 487.732 606.355 489.356 604.563 489.356ZM645.312 477.988C642.708 477.988 641.952 480.368 641.756 481.852C641.868 482.02 642.12 482.076 642.4 482.076C643.044 480.368 643.38 479.892 644.752 479.892H646.32C645.956 482.916 645.704 486.108 645.704 487.62C645.704 489.664 646.488 490.28 648.028 490.28C649.26 490.28 650.408 489.244 651.36 488.012C651.276 487.732 651.08 487.592 650.828 487.508C649.68 488.684 648.868 488.796 648.392 488.796C647.804 488.796 647.496 488.236 647.496 486.976C647.496 485.436 647.664 482.972 647.944 479.892H650.8C651.948 479.892 652.592 479.276 653.096 478.324L652.788 477.988H645.312ZM655.403 486.892C655.683 486.892 656.075 486.808 656.159 486.304C656.187 486.22 656.159 486.108 656.159 485.996C656.159 485.828 656.159 485.632 656.215 485.492C656.355 485.156 656.691 484.904 657.559 484.904C658.063 484.904 658.959 485.1 658.959 486.416C658.959 487.928 658.287 488.572 657.027 489.58C655.683 490.616 654.619 491.792 654.619 493.136H660.387C660.639 492.38 660.807 491.512 660.919 490.504C660.779 490.392 660.555 490.364 660.247 490.364C659.939 491.148 659.547 492.24 658.679 492.24H656.355C656.607 491.316 657.027 490.56 658.203 489.72C659.771 488.6 660.695 487.676 660.695 486.388C660.695 484.596 659.071 484.064 657.671 484.064C655.459 484.064 654.675 485.492 654.675 486.22C654.675 486.584 655.067 486.892 655.403 486.892ZM692.913 482.776C690.225 481.656 688.097 479.556 686.277 477.456L685.717 477.988C686.333 478.912 687.201 479.892 688.013 480.676C688.293 480.956 688.405 481.124 688.405 481.376C688.405 481.656 687.957 481.992 687.677 481.992H670.905V483.84H687.649C688.153 483.84 688.377 484.12 688.377 484.4C688.377 484.624 688.237 484.932 687.985 485.184C687.145 486.052 686.333 486.948 685.689 487.872L686.249 488.404C688.097 486.276 690.225 484.204 692.913 483.056V482.776ZM715.307 479.892C716.343 479.892 716.791 479.276 717.295 478.324L716.987 477.988H710.239C707.691 477.988 705.703 478.772 704.723 479.752C703.547 480.928 702.903 482.58 702.903 484.288C702.903 487.816 705.367 490.28 709.203 490.28C713.655 490.28 714.915 486.78 714.915 485.184C714.915 482.692 713.179 480.76 711.499 479.892H715.307ZM709.399 489.356C706.515 489.356 705.227 486.64 705.227 484.736C705.227 482.076 706.487 479.892 710.099 479.892C711.695 481.292 712.591 482.552 712.591 485.1C712.591 487.732 711.191 489.356 709.399 489.356Z" fill="#EB5757"/>
<line id="Line 1" x1="533" y1="504.5" x2="727" y2="504.5" stroke="#EB5757"/>
</g>
<g id="_CF_841__E2_86_92__CF_842__CF_842__E2_86_92__CF_843">
<path id="&#207;&#132;1 &#226;&#134;&#146; &#207;&#132;3" d="M590.406 642.988C587.802 642.988 587.046 645.368 586.85 646.852C586.962 647.02 587.214 647.076 587.494 647.076C588.138 645.368 588.474 644.892 589.846 644.892H591.414C591.05 647.916 590.798 651.108 590.798 652.62C590.798 654.664 591.582 655.28 593.122 655.28C594.354 655.28 595.502 654.244 596.454 653.012C596.37 652.732 596.174 652.592 595.922 652.508C594.774 653.684 593.962 653.796 593.486 653.796C592.898 653.796 592.59 653.236 592.59 651.976C592.59 650.436 592.758 647.972 593.038 644.892H595.894C597.042 644.892 597.686 644.276 598.19 643.324L597.882 642.988H590.406ZM602.233 650.94C602.569 650.94 602.625 651.192 602.625 652.088V655.728C602.625 657.156 601.757 657.24 600.637 657.296C600.497 657.52 600.525 657.94 600.637 658.108C601.477 658.08 602.345 658.08 603.325 658.08C604.249 658.08 604.837 658.08 605.677 658.108C605.789 657.912 605.789 657.52 605.677 657.296C604.725 657.24 604.137 657.156 604.137 655.728V649.036C603.997 648.896 603.773 648.952 603.633 649.036C602.401 649.792 601.673 650.128 600.357 650.604C600.357 650.94 600.413 651.192 600.637 651.36C601.337 651.108 601.869 650.94 602.233 650.94ZM638.007 647.776C635.319 646.656 633.191 644.556 631.371 642.456L630.811 642.988C631.427 643.912 632.295 644.892 633.107 645.676C633.387 645.956 633.499 646.124 633.499 646.376C633.499 646.656 633.051 646.992 632.771 646.992H615.999V648.84H632.743C633.247 648.84 633.471 649.12 633.471 649.4C633.471 649.624 633.331 649.932 633.079 650.184C632.239 651.052 631.427 651.948 630.783 652.872L631.343 653.404C633.191 651.276 635.319 649.204 638.007 648.056V647.776ZM651.273 642.988C648.669 642.988 647.913 645.368 647.717 646.852C647.829 647.02 648.081 647.076 648.361 647.076C649.005 645.368 649.341 644.892 650.713 644.892H652.281C651.917 647.916 651.665 651.108 651.665 652.62C651.665 654.664 652.449 655.28 653.989 655.28C655.221 655.28 656.369 654.244 657.321 653.012C657.237 652.732 657.041 652.592 656.789 652.508C655.641 653.684 654.829 653.796 654.353 653.796C653.765 653.796 653.457 653.236 653.457 651.976C653.457 650.436 653.625 647.972 653.905 644.892H656.761C657.909 644.892 658.553 644.276 659.057 643.324L658.749 642.988H651.273ZM664.528 650.856C664.528 652.004 663.772 652.732 662.54 652.9C662.456 653.152 662.456 653.46 662.596 653.656C662.82 653.628 662.96 653.6 663.156 653.6C663.828 653.6 665.256 653.712 665.256 655.308C665.256 657.1 664.024 657.464 663.212 657.464C662.316 657.464 662.092 657.268 661.924 656.96C661.756 656.624 661.476 656.484 661.084 656.484C660.748 656.484 660.384 656.736 660.384 657.1C660.384 657.996 662.372 658.304 663.1 658.304C665.34 658.304 666.992 657.016 666.992 655.084C666.992 653.46 665.676 652.704 664.752 652.62C665.564 652.172 666.18 651.528 666.18 650.716C666.18 649.68 665.256 649.064 663.8 649.064C661.364 649.064 660.608 650.408 660.608 650.884C660.608 650.968 660.72 651.388 661.252 651.388C661.896 651.388 661.868 650.884 662.008 650.576C662.204 650.128 662.988 649.904 663.464 649.904C663.912 649.904 664.528 650.128 664.528 650.856Z" fill="#EB5757"/>
<path id="&#207;&#132;1 &#226;&#134;&#146; &#207;&#132;2 &#207;&#132;2 &#226;&#134;&#146; &#207;&#132;3" d="M535.5 600.988C532.896 600.988 532.14 603.368 531.944 604.852C532.056 605.02 532.308 605.076 532.588 605.076C533.232 603.368 533.568 602.892 534.94 602.892H536.508C536.144 605.916 535.892 609.108 535.892 610.62C535.892 612.664 536.676 613.28 538.216 613.28C539.448 613.28 540.596 612.244 541.548 611.012C541.464 610.732 541.268 610.592 541.016 610.508C539.868 611.684 539.056 611.796 538.579 611.796C537.992 611.796 537.684 611.236 537.684 609.976C537.684 608.436 537.852 605.972 538.132 602.892H540.988C542.136 602.892 542.78 602.276 543.284 601.324L542.976 600.988H535.5ZM547.327 608.94C547.663 608.94 547.719 609.192 547.719 610.088V613.728C547.719 615.156 546.851 615.24 545.731 615.296C545.591 615.52 545.619 615.94 545.731 616.108C546.571 616.08 547.439 616.08 548.419 616.08C549.343 616.08 549.931 616.08 550.771 616.108C550.883 615.912 550.883 615.52 550.771 615.296C549.819 615.24 549.231 615.156 549.231 613.728V607.036C549.091 606.896 548.867 606.952 548.727 607.036C547.495 607.792 546.767 608.128 545.451 608.604C545.451 608.94 545.507 609.192 545.731 609.36C546.431 609.108 546.963 608.94 547.327 608.94ZM583.101 605.776C580.413 604.656 578.285 602.556 576.465 600.456L575.905 600.988C576.521 601.912 577.389 602.892 578.201 603.676C578.481 603.956 578.593 604.124 578.593 604.376C578.593 604.656 578.145 604.992 577.865 604.992H561.093V606.84H577.837C578.341 606.84 578.565 607.12 578.565 607.4C578.565 607.624 578.425 607.932 578.173 608.184C577.333 609.052 576.521 609.948 575.877 610.872L576.437 611.404C578.285 609.276 580.413 607.204 583.101 606.056V605.776ZM596.367 600.988C593.763 600.988 593.007 603.368 592.811 604.852C592.923 605.02 593.175 605.076 593.455 605.076C594.099 603.368 594.435 602.892 595.807 602.892H597.375C597.011 605.916 596.759 609.108 596.759 610.62C596.759 612.664 597.543 613.28 599.083 613.28C600.315 613.28 601.463 612.244 602.415 611.012C602.331 610.732 602.135 610.592 601.883 610.508C600.735 611.684 599.923 611.796 599.447 611.796C598.859 611.796 598.551 611.236 598.551 609.976C598.551 608.436 598.719 605.972 598.999 602.892H601.855C603.003 602.892 603.647 602.276 604.151 601.324L603.843 600.988H596.367ZM606.458 609.892C606.738 609.892 607.13 609.808 607.214 609.304C607.242 609.22 607.214 609.108 607.214 608.996C607.214 608.828 607.214 608.632 607.27 608.492C607.41 608.156 607.746 607.904 608.614 607.904C609.118 607.904 610.014 608.1 610.014 609.416C610.014 610.928 609.342 611.572 608.082 612.58C606.738 613.616 605.674 614.792 605.674 616.136H611.442C611.694 615.38 611.862 614.512 611.974 613.504C611.834 613.392 611.61 613.364 611.302 613.364C610.994 614.148 610.602 615.24 609.734 615.24H607.41C607.662 614.316 608.082 613.56 609.258 612.72C610.826 611.6 611.75 610.676 611.75 609.388C611.75 607.596 610.126 607.064 608.726 607.064C606.514 607.064 605.73 608.492 605.73 609.22C605.73 609.584 606.122 609.892 606.458 609.892ZM645.312 600.988C642.708 600.988 641.952 603.368 641.756 604.852C641.868 605.02 642.12 605.076 642.4 605.076C643.044 603.368 643.38 602.892 644.752 602.892H646.32C645.956 605.916 645.704 609.108 645.704 610.62C645.704 612.664 646.488 613.28 648.028 613.28C649.26 613.28 650.408 612.244 651.36 611.012C651.276 610.732 651.08 610.592 650.828 610.508C649.68 611.684 648.868 611.796 648.392 611.796C647.804 611.796 647.496 611.236 647.496 609.976C647.496 608.436 647.664 605.972 647.944 602.892H650.8C651.948 602.892 652.592 602.276 653.096 601.324L652.788 600.988H645.312ZM655.403 609.892C655.683 609.892 656.075 609.808 656.159 609.304C656.187 609.22 656.159 609.108 656.159 608.996C656.159 608.828 656.159 608.632 656.215 608.492C656.355 608.156 656.691 607.904 657.559 607.904C658.063 607.904 658.959 608.1 658.959 609.416C658.959 610.928 658.287 611.572 657.027 612.58C655.683 613.616 654.619 614.792 654.619 616.136H660.387C660.639 615.38 660.807 614.512 660.919 613.504C660.779 613.392 660.555 613.364 660.247 613.364C659.939 614.148 659.547 615.24 658.679 615.24H656.355C656.607 614.316 657.027 613.56 658.203 612.72C659.771 611.6 660.695 610.676 660.695 609.388C660.695 607.596 659.071 607.064 657.671 607.064C655.459 607.064 654.675 608.492 654.675 609.22C654.675 609.584 655.067 609.892 655.403 609.892ZM692.913 605.776C690.225 604.656 688.097 602.556 686.277 600.456L685.717 600.988C686.333 601.912 687.201 602.892 688.013 603.676C688.293 603.956 688.405 604.124 688.405 604.376C688.405 604.656 687.957 604.992 687.677 604.992H670.905V606.84H687.649C688.153 606.84 688.377 607.12 688.377 607.4C688.377 607.624 688.237 607.932 687.985 608.184C687.145 609.052 686.333 609.948 685.689 610.872L686.249 611.404C688.097 609.276 690.225 607.204 692.913 606.056V605.776ZM706.179 600.988C703.575 600.988 702.819 603.368 702.623 604.852C702.735 605.02 702.987 605.076 703.267 605.076C703.911 603.368 704.247 602.892 705.619 602.892H707.187C706.823 605.916 706.571 609.108 706.571 610.62C706.571 612.664 707.355 613.28 708.895 613.28C710.127 613.28 711.275 612.244 712.227 611.012C712.143 610.732 711.947 610.592 711.695 610.508C710.547 611.684 709.735 611.796 709.259 611.796C708.671 611.796 708.363 611.236 708.363 609.976C708.363 608.436 708.531 605.972 708.811 602.892H711.667C712.815 602.892 713.459 602.276 713.963 601.324L713.655 600.988H706.179ZM719.435 608.856C719.435 610.004 718.679 610.732 717.447 610.9C717.363 611.152 717.363 611.46 717.503 611.656C717.727 611.628 717.867 611.6 718.063 611.6C718.735 611.6 720.163 611.712 720.163 613.308C720.163 615.1 718.931 615.464 718.119 615.464C717.223 615.464 716.999 615.268 716.831 614.96C716.663 614.624 716.383 614.484 715.991 614.484C715.655 614.484 715.291 614.736 715.291 615.1C715.291 615.996 717.279 616.304 718.007 616.304C720.247 616.304 721.899 615.016 721.899 613.084C721.899 611.46 720.583 610.704 719.659 610.62C720.471 610.172 721.087 609.528 721.087 608.716C721.087 607.68 720.163 607.064 718.707 607.064C716.271 607.064 715.515 608.408 715.515 608.884C715.515 608.968 715.627 609.388 716.159 609.388C716.803 609.388 716.775 608.884 716.915 608.576C717.111 608.128 717.895 607.904 718.371 607.904C718.819 607.904 719.435 608.128 719.435 608.856Z" fill="#EB5757"/>
<line id="Line 3" x1="533" y1="627.5" x2="727" y2="627.5" stroke="#EB5757"/>
</g>
<g id="_CF_84__E2_86_92__CF_831__CF_84__E2_86_92__CF_832">
<path id="&#207;&#132; &#226;&#134;&#146; &#207;&#131;1 &#195;&#151; &#207;&#131;2" d="M814.662 519.988C812.058 519.988 811.302 522.368 811.106 523.852C811.218 524.02 811.47 524.076 811.75 524.076C812.394 522.368 812.73 521.892 814.102 521.892H815.67C815.306 524.916 815.054 528.108 815.054 529.62C815.054 531.664 815.838 532.28 817.378 532.28C818.61 532.28 819.758 531.244 820.71 530.012C820.626 529.732 820.43 529.592 820.178 529.508C819.03 530.684 818.218 530.796 817.742 530.796C817.154 530.796 816.846 530.236 816.846 528.976C816.846 527.436 817.014 524.972 817.294 521.892H820.15C821.298 521.892 821.942 521.276 822.446 520.324L822.138 519.988H814.662ZM853.677 524.776C850.989 523.656 848.861 521.556 847.041 519.456L846.481 519.988C847.097 520.912 847.965 521.892 848.777 522.676C849.057 522.956 849.169 523.124 849.169 523.376C849.169 523.656 848.721 523.992 848.441 523.992H831.669V525.84H848.413C848.917 525.84 849.141 526.12 849.141 526.4C849.141 526.624 849.001 526.932 848.749 527.184C847.909 528.052 847.097 528.948 846.453 529.872L847.013 530.404C848.861 528.276 850.989 526.204 853.677 525.056V524.776ZM876.071 521.892C877.107 521.892 877.555 521.276 878.059 520.324L877.751 519.988H871.003C868.455 519.988 866.467 520.772 865.487 521.752C864.311 522.928 863.667 524.58 863.667 526.288C863.667 529.816 866.131 532.28 869.967 532.28C874.419 532.28 875.679 528.78 875.679 527.184C875.679 524.692 873.943 522.76 872.263 521.892H876.071ZM870.163 531.356C867.279 531.356 865.991 528.64 865.991 526.736C865.991 524.076 867.251 521.892 870.863 521.892C872.459 523.292 873.355 524.552 873.355 527.1C873.355 529.732 871.955 531.356 870.163 531.356ZM882.38 527.94C882.716 527.94 882.772 528.192 882.772 529.088V532.728C882.772 534.156 881.904 534.24 880.784 534.296C880.644 534.52 880.672 534.94 880.784 535.108C881.624 535.08 882.492 535.08 883.472 535.08C884.396 535.08 884.984 535.08 885.824 535.108C885.936 534.912 885.936 534.52 885.824 534.296C884.872 534.24 884.284 534.156 884.284 532.728V526.036C884.144 525.896 883.92 525.952 883.78 526.036C882.548 526.792 881.82 527.128 880.504 527.604C880.504 527.94 880.56 528.192 880.784 528.36C881.484 528.108 882.016 527.94 882.38 527.94ZM910.902 531.384L904.462 524.944L910.902 518.448L909.614 517.188L903.146 523.628L896.706 517.188L895.39 518.476L901.83 524.944L895.39 531.412L896.678 532.7L903.146 526.26L909.614 532.7L910.902 531.384ZM932.536 521.892C933.572 521.892 934.02 521.276 934.524 520.324L934.216 519.988H927.468C924.92 519.988 922.932 520.772 921.952 521.752C920.776 522.928 920.132 524.58 920.132 526.288C920.132 529.816 922.596 532.28 926.432 532.28C930.884 532.28 932.144 528.78 932.144 527.184C932.144 524.692 930.408 522.76 928.728 521.892H932.536ZM926.628 531.356C923.744 531.356 922.456 528.64 922.456 526.736C922.456 524.076 923.716 521.892 927.328 521.892C928.924 523.292 929.82 524.552 929.82 527.1C929.82 529.732 928.42 531.356 926.628 531.356ZM937.108 528.892C937.388 528.892 937.78 528.808 937.864 528.304C937.892 528.22 937.864 528.108 937.864 527.996C937.864 527.828 937.864 527.632 937.92 527.492C938.06 527.156 938.396 526.904 939.264 526.904C939.768 526.904 940.664 527.1 940.664 528.416C940.664 529.928 939.992 530.572 938.732 531.58C937.388 532.616 936.324 533.792 936.324 535.136H942.092C942.344 534.38 942.512 533.512 942.624 532.504C942.484 532.392 942.26 532.364 941.952 532.364C941.644 533.148 941.252 534.24 940.384 534.24H938.06C938.312 533.316 938.732 532.56 939.908 531.72C941.476 530.6 942.4 529.676 942.4 528.388C942.4 526.596 940.776 526.064 939.376 526.064C937.164 526.064 936.38 527.492 936.38 528.22C936.38 528.584 936.772 528.892 937.108 528.892Z" fill="#EB5757"/>
<path id="&#207;&#132; &#226;&#134;&#146; &#207;&#131;1 &#207;&#132; &#226;&#134;&#146; &#207;&#131;2" d="M790.476 477.988C787.872 477.988 787.116 480.368 786.92 481.852C787.032 482.02 787.284 482.076 787.564 482.076C788.208 480.368 788.544 479.892 789.916 479.892H791.484C791.12 482.916 790.868 486.108 790.868 487.62C790.868 489.664 791.652 490.28 793.192 490.28C794.424 490.28 795.572 489.244 796.524 488.012C796.44 487.732 796.244 487.592 795.992 487.508C794.844 488.684 794.032 488.796 793.556 488.796C792.968 488.796 792.66 488.236 792.66 486.976C792.66 485.436 792.828 482.972 793.108 479.892H795.964C797.112 479.892 797.756 479.276 798.26 478.324L797.952 477.988H790.476ZM829.491 482.776C826.803 481.656 824.675 479.556 822.855 477.456L822.295 477.988C822.911 478.912 823.779 479.892 824.591 480.676C824.871 480.956 824.983 481.124 824.983 481.376C824.983 481.656 824.535 481.992 824.255 481.992H807.483V483.84H824.227C824.731 483.84 824.955 484.12 824.955 484.4C824.955 484.624 824.815 484.932 824.563 485.184C823.723 486.052 822.911 486.948 822.267 487.872L822.827 488.404C824.675 486.276 826.803 484.204 829.491 483.056V482.776ZM851.885 479.892C852.921 479.892 853.369 479.276 853.873 478.324L853.565 477.988H846.817C844.269 477.988 842.281 478.772 841.301 479.752C840.125 480.928 839.481 482.58 839.481 484.288C839.481 487.816 841.945 490.28 845.781 490.28C850.233 490.28 851.493 486.78 851.493 485.184C851.493 482.692 849.757 480.76 848.077 479.892H851.885ZM845.977 489.356C843.093 489.356 841.805 486.64 841.805 484.736C841.805 482.076 843.065 479.892 846.677 479.892C848.273 481.292 849.169 482.552 849.169 485.1C849.169 487.732 847.769 489.356 845.977 489.356ZM858.194 485.94C858.53 485.94 858.586 486.192 858.586 487.088V490.728C858.586 492.156 857.718 492.24 856.598 492.296C856.458 492.52 856.486 492.94 856.598 493.108C857.438 493.08 858.306 493.08 859.286 493.08C860.21 493.08 860.798 493.08 861.638 493.108C861.75 492.912 861.75 492.52 861.638 492.296C860.686 492.24 860.098 492.156 860.098 490.728V484.036C859.958 483.896 859.734 483.952 859.594 484.036C858.362 484.792 857.634 485.128 856.318 485.604C856.318 485.94 856.374 486.192 856.598 486.36C857.298 486.108 857.83 485.94 858.194 485.94ZM895.312 477.988C892.708 477.988 891.952 480.368 891.756 481.852C891.868 482.02 892.12 482.076 892.4 482.076C893.044 480.368 893.38 479.892 894.752 479.892H896.32C895.956 482.916 895.704 486.108 895.704 487.62C895.704 489.664 896.488 490.28 898.028 490.28C899.26 490.28 900.408 489.244 901.36 488.012C901.276 487.732 901.08 487.592 900.828 487.508C899.68 488.684 898.868 488.796 898.392 488.796C897.804 488.796 897.496 488.236 897.496 486.976C897.496 485.436 897.664 482.972 897.944 479.892H900.8C901.948 479.892 902.592 479.276 903.096 478.324L902.788 477.988H895.312ZM934.327 482.776C931.639 481.656 929.511 479.556 927.691 477.456L927.131 477.988C927.747 478.912 928.615 479.892 929.427 480.676C929.707 480.956 929.819 481.124 929.819 481.376C929.819 481.656 929.371 481.992 929.091 481.992H912.319V483.84H929.063C929.567 483.84 929.791 484.12 929.791 484.4C929.791 484.624 929.651 484.932 929.399 485.184C928.559 486.052 927.747 486.948 927.103 487.872L927.663 488.404C929.511 486.276 931.639 484.204 934.327 483.056V482.776ZM956.721 479.892C957.757 479.892 958.205 479.276 958.709 478.324L958.401 477.988H951.653C949.105 477.988 947.117 478.772 946.137 479.752C944.961 480.928 944.317 482.58 944.317 484.288C944.317 487.816 946.781 490.28 950.617 490.28C955.069 490.28 956.329 486.78 956.329 485.184C956.329 482.692 954.593 480.76 952.913 479.892H956.721ZM950.813 489.356C947.929 489.356 946.641 486.64 946.641 484.736C946.641 482.076 947.901 479.892 951.513 479.892C953.109 481.292 954.005 482.552 954.005 485.1C954.005 487.732 952.605 489.356 950.813 489.356ZM961.294 486.892C961.574 486.892 961.966 486.808 962.05 486.304C962.078 486.22 962.05 486.108 962.05 485.996C962.05 485.828 962.05 485.632 962.106 485.492C962.246 485.156 962.582 484.904 963.45 484.904C963.954 484.904 964.85 485.1 964.85 486.416C964.85 487.928 964.178 488.572 962.918 489.58C961.574 490.616 960.51 491.792 960.51 493.136H966.278C966.53 492.38 966.698 491.512 966.81 490.504C966.67 490.392 966.446 490.364 966.138 490.364C965.83 491.148 965.438 492.24 964.57 492.24H962.246C962.498 491.316 962.918 490.56 964.094 489.72C965.662 488.6 966.586 487.676 966.586 486.388C966.586 484.596 964.962 484.064 963.562 484.064C961.35 484.064 960.566 485.492 960.566 486.22C960.566 486.584 960.958 486.892 961.294 486.892Z" fill="#EB5757"/>
<line id="Line 2" x1="783" y1="504.5" x2="977" y2="504.5" stroke="#EB5757"/>
</g>
<g id="_CF_84*__E2_86_92__CF_83*">
<path id="&#207;&#132;* &#226;&#134;&#146; &#207;&#131;*" d="M837.351 642.988C834.747 642.988 833.991 645.368 833.795 646.852C833.907 647.02 834.159 647.076 834.439 647.076C835.083 645.368 835.419 644.892 836.791 644.892H838.359C837.995 647.916 837.743 651.108 837.743 652.62C837.743 654.664 838.527 655.28 840.067 655.28C841.299 655.28 842.447 654.244 843.399 653.012C843.315 652.732 843.119 652.592 842.867 652.508C841.719 653.684 840.907 653.796 840.431 653.796C839.843 653.796 839.535 653.236 839.535 651.976C839.535 650.436 839.703 647.972 839.983 644.892H842.839C843.987 644.892 844.631 644.276 845.135 643.324L844.827 642.988H837.351ZM850.102 639.684C849.178 640.72 847.75 640.944 847.75 642.148C847.75 642.568 848.086 642.932 848.562 642.932C849.626 642.932 849.822 641.28 850.522 640.02C851.222 641.112 851.418 642.932 852.51 642.932C852.902 642.932 853.322 642.624 853.322 642.12C853.322 641 851.95 640.72 850.998 639.684C851.502 639.6 852.006 639.572 852.538 639.572C853.49 639.572 854.47 639.376 854.47 638.536C854.47 638.256 854.274 637.696 853.518 637.696C852.594 637.696 852.146 638.592 850.858 639.152C850.914 638.312 851.39 637.192 851.39 636.436C851.39 635.764 850.97 635.456 850.466 635.456C849.962 635.456 849.626 635.96 849.626 636.548C849.626 637.276 850.158 638.032 850.27 639.124C849.038 638.62 848.534 637.696 847.582 637.696C846.91 637.696 846.658 638.144 846.658 638.536C846.658 639.376 847.554 639.572 848.926 639.572C849.346 639.572 849.738 639.6 850.102 639.684ZM886.702 647.776C884.014 646.656 881.886 644.556 880.066 642.456L879.506 642.988C880.122 643.912 880.99 644.892 881.802 645.676C882.082 645.956 882.194 646.124 882.194 646.376C882.194 646.656 881.746 646.992 881.466 646.992H864.694V648.84H881.438C881.942 648.84 882.166 649.12 882.166 649.4C882.166 649.624 882.026 649.932 881.774 650.184C880.934 651.052 880.122 651.948 879.478 652.872L880.038 653.404C881.886 651.276 884.014 649.204 886.702 648.056V647.776ZM909.096 644.892C910.132 644.892 910.58 644.276 911.084 643.324L910.776 642.988H904.028C901.48 642.988 899.492 643.772 898.512 644.752C897.336 645.928 896.692 647.58 896.692 649.288C896.692 652.816 899.156 655.28 902.992 655.28C907.444 655.28 908.704 651.78 908.704 650.184C908.704 647.692 906.968 645.76 905.288 644.892H909.096ZM903.188 654.356C900.304 654.356 899.016 651.64 899.016 649.736C899.016 647.076 900.276 644.892 903.888 644.892C905.484 646.292 906.38 647.552 906.38 650.1C906.38 652.732 904.98 654.356 903.188 654.356ZM916.329 639.684C915.405 640.72 913.977 640.944 913.977 642.148C913.977 642.568 914.313 642.932 914.789 642.932C915.853 642.932 916.049 641.28 916.749 640.02C917.449 641.112 917.645 642.932 918.737 642.932C919.129 642.932 919.549 642.624 919.549 642.12C919.549 641 918.177 640.72 917.225 639.684C917.729 639.6 918.233 639.572 918.765 639.572C919.717 639.572 920.697 639.376 920.697 638.536C920.697 638.256 920.501 637.696 919.745 637.696C918.821 637.696 918.373 638.592 917.085 639.152C917.141 638.312 917.617 637.192 917.617 636.436C917.617 635.764 917.197 635.456 916.693 635.456C916.189 635.456 915.853 635.96 915.853 636.548C915.853 637.276 916.385 638.032 916.497 639.124C915.265 638.62 914.761 637.696 913.809 637.696C913.137 637.696 912.885 638.144 912.885 638.536C912.885 639.376 913.781 639.572 915.153 639.572C915.573 639.572 915.965 639.6 916.329 639.684Z" fill="#EB5757"/>
<path id="&#207;&#132; &#226;&#134;&#146; &#207;&#131;" d="M847.687 600.988C845.083 600.988 844.327 603.368 844.131 604.852C844.243 605.02 844.495 605.076 844.775 605.076C845.419 603.368 845.755 602.892 847.127 602.892H848.695C848.331 605.916 848.079 609.108 848.079 610.62C848.079 612.664 848.863 613.28 850.403 613.28C851.635 613.28 852.783 612.244 853.735 611.012C853.651 610.732 853.455 610.592 853.203 610.508C852.055 611.684 851.243 611.796 850.767 611.796C850.179 611.796 849.871 611.236 849.871 609.976C849.871 608.436 850.039 605.972 850.319 602.892H853.175C854.323 602.892 854.967 602.276 855.471 601.324L855.163 600.988H847.687ZM886.702 605.776C884.014 604.656 881.886 602.556 880.066 600.456L879.506 600.988C880.122 601.912 880.99 602.892 881.802 603.676C882.082 603.956 882.194 604.124 882.194 604.376C882.194 604.656 881.746 604.992 881.466 604.992H864.694V606.84H881.438C881.942 606.84 882.166 607.12 882.166 607.4C882.166 607.624 882.026 607.932 881.774 608.184C880.934 609.052 880.122 609.948 879.478 610.872L880.038 611.404C881.886 609.276 884.014 607.204 886.702 606.056V605.776ZM909.096 602.892C910.132 602.892 910.58 602.276 911.084 601.324L910.776 600.988H904.028C901.48 600.988 899.492 601.772 898.512 602.752C897.336 603.928 896.692 605.58 896.692 607.288C896.692 610.816 899.156 613.28 902.992 613.28C907.444 613.28 908.704 609.78 908.704 608.184C908.704 605.692 906.968 603.76 905.288 602.892H909.096ZM903.188 612.356C900.304 612.356 899.016 609.64 899.016 607.736C899.016 605.076 900.276 602.892 903.888 602.892C905.484 604.292 906.38 605.552 906.38 608.1C906.38 610.732 904.98 612.356 903.188 612.356Z" fill="#EB5757"/>
<line id="Line 4" x1="783" y1="627.5" x2="977" y2="627.5" stroke="#EB5757"/>
</g>
</g>
</svg>
