<svg width="1024" height="768" viewBox="0 0 1024 768" fill="none" xmlns="http://www.w3.org/2000/svg">
<g id="dowod pierwszego" clip-path="url(#clip0)">
<rect width="1024" height="768" fill="white"/>
<path id="1:14" d="M192.68 150.24C192.44 150.48 192.28 150.4 192.28 150.04V142.68C192.28 140.08 192.44 138.48 192.44 138.48C192.44 138.2 192.28 138.08 191.92 138.08C190.92 138.48 187.92 139.04 186.32 139.16C186.24 139.48 186.32 140.12 186.56 140.36C186.68 140.36 186.8 140.36 186.92 140.36C188.68 140.48 189.12 140.48 189.12 143.64V163.16C189.12 164.72 189.08 165.44 188.96 166C189.16 166.32 189.36 166.48 189.84 166.48C190.08 166.24 190.48 165.88 190.8 165.52C191.2 165.04 191.44 165.04 191.88 165.4C192.8 166.16 194 166.4 195.4 166.4C199.48 166.4 204.24 162.68 204.24 156.32C204.24 151.44 200.64 148.44 197.16 148.44C195.44 148.44 193.92 149.12 192.68 150.24ZM192.96 151.48C194 150.56 195.2 150.2 196.36 150.2C198.8 150.2 200.8 153.16 200.8 157.04C200.8 161.6 198.96 165.04 195.16 165.04C193.92 165.04 193.08 164.16 192.28 163.16V153.16C192.28 152.32 192.44 151.92 192.96 151.48ZM227.447 164.08C227.687 165.32 228.127 166.4 230.127 166.4C231.647 166.4 233.087 165.72 233.927 164.92C233.847 164.44 233.687 164.08 233.247 163.84C232.967 164.08 232.287 164.48 231.767 164.48C230.607 164.48 230.567 162.92 230.567 161.08V155.2C230.567 149.52 227.447 148.44 224.527 148.44C221.247 148.44 217.927 150.6 217.927 152.88C217.927 153.84 218.407 154.32 219.327 154.32C220.487 154.32 221.207 153.48 221.207 152.96C221.207 152.68 221.167 152.4 221.087 152.24C221.047 152.12 221.007 151.88 221.007 151.44C221.007 150.2 222.687 149.76 224.207 149.76C225.567 149.76 227.447 150.44 227.447 154.96C227.447 155.24 227.327 155.4 227.207 155.44L223.767 156.28C219.927 157.24 217.167 159.36 217.167 162.08C217.167 165.36 219.407 166.4 222.207 166.4C223.607 166.4 224.807 166.08 226.567 164.72L227.367 164.08H227.447ZM227.447 156.68V161.96C227.447 162.48 227.207 162.76 226.887 163C225.847 163.84 224.487 164.76 223.367 164.76C221.367 164.76 220.487 163.16 220.487 161.92C220.487 160.12 221.327 158.28 224.287 157.52L227.447 156.68ZM255.728 164.08C255.968 165.32 256.408 166.4 258.408 166.4C259.928 166.4 261.368 165.72 262.208 164.92C262.128 164.44 261.968 164.08 261.528 163.84C261.248 164.08 260.568 164.48 260.048 164.48C258.888 164.48 258.848 162.92 258.848 161.08V155.2C258.848 149.52 255.728 148.44 252.808 148.44C249.528 148.44 246.208 150.6 246.208 152.88C246.208 153.84 246.688 154.32 247.608 154.32C248.768 154.32 249.488 153.48 249.488 152.96C249.488 152.68 249.448 152.4 249.368 152.24C249.328 152.12 249.288 151.88 249.288 151.44C249.288 150.2 250.968 149.76 252.488 149.76C253.848 149.76 255.728 150.44 255.728 154.96C255.728 155.24 255.608 155.4 255.488 155.44L252.048 156.28C248.208 157.24 245.448 159.36 245.448 162.08C245.448 165.36 247.688 166.4 250.488 166.4C251.888 166.4 253.088 166.08 254.848 164.72L255.648 164.08H255.728ZM255.728 156.68V161.96C255.728 162.48 255.488 162.76 255.168 163C254.128 163.84 252.768 164.76 251.648 164.76C249.648 164.76 248.768 163.16 248.768 161.92C248.768 160.12 249.608 158.28 252.568 157.52L255.728 156.68ZM277.729 164.2L286.889 150.52C287.569 149.52 287.849 149.12 288.089 148.84C288.089 148.68 288.049 148.6 287.889 148.6C287.689 148.6 285.809 148.84 284.649 148.84H276.489C275.689 148.84 274.849 148.8 274.249 148.72L274.169 148.84C274.209 149.36 274.249 149.56 274.249 149.92C274.249 150.28 274.209 150.64 274.169 150.96L274.249 151.08C274.249 151.08 278.769 150.72 283.369 150.64L273.969 164.72C273.649 165.2 273.409 165.56 273.089 165.92L273.209 166.12C273.209 166.12 275.329 166 276.449 166H285.489C286.289 166 287.129 166.04 287.729 166.12L287.809 166C287.769 165.48 287.729 165.28 287.729 164.92C287.729 164.56 287.769 164.2 287.809 163.88L287.729 163.76C287.729 163.76 282.609 164.16 277.729 164.2ZM301.33 164.08C301.81 165.64 302.97 166.4 304.45 166.4C305.45 166.4 306.69 166.16 307.65 165.16L307.33 164.16C306.89 164.32 306.57 164.36 306.25 164.36C305.85 164.36 305.33 164.32 305.09 164.08C304.69 163.72 304.41 162.72 304.41 160.96C304.41 159.8 304.53 155.36 304.53 154.92C304.53 149.52 300.97 148.44 297.93 148.44C294.89 148.44 293.05 149.92 292.05 150.76L291.93 150.92L292.61 153.6L293.13 153.64C294.25 151.84 295.61 150.24 297.53 150.24C298.97 150.24 301.37 150.44 301.37 154.96C301.37 155.24 301.21 155.4 301.09 155.44L297.37 156.28C293.29 157.2 290.73 159.36 290.73 162.08C290.73 165.04 292.77 166.4 295.73 166.4C297.93 166.4 299.05 165.88 301.17 164.08H301.33ZM301.33 157L301.17 161.76C301.17 162.28 300.93 162.56 300.61 162.8C299.49 163.64 298.13 164.36 296.93 164.36C295.13 164.36 293.97 163.16 293.97 161.92C293.97 160.12 294.81 158.76 297.93 157.92L301.33 157ZM318.188 150.04C319.748 150.04 321.148 151.16 322.188 153L322.708 152.96L323.628 149.68L323.548 149.56C322.308 148.92 320.228 148.44 318.228 148.44C314.067 148.44 309.708 151.84 309.708 157.28C309.708 162.84 312.868 166.4 317.748 166.4C320.148 166.4 322.028 165.6 323.628 163.56L322.868 162.72H322.708C321.188 164.08 319.908 164.4 318.428 164.4C315.508 164.4 313.228 161.76 313.228 157.08C313.228 152.68 315.548 150.04 318.188 150.04ZM330.776 164.2L339.936 150.52C340.616 149.52 340.896 149.12 341.136 148.84C341.136 148.68 341.096 148.6 340.936 148.6C340.736 148.6 338.856 148.84 337.696 148.84H329.536C328.736 148.84 327.896 148.8 327.296 148.72L327.216 148.84C327.256 149.36 327.296 149.56 327.296 149.92C327.296 150.28 327.256 150.64 327.216 150.96L327.296 151.08C327.296 151.08 331.816 150.72 336.416 150.64L327.016 164.72C326.696 165.2 326.456 165.56 326.136 165.92L326.256 166.12C326.256 166.12 328.376 166 329.496 166H338.536C339.336 166 340.176 166.04 340.776 166.12L340.856 166C340.816 165.48 340.776 165.28 340.776 164.92C340.776 164.56 340.816 164.2 340.856 163.88L340.776 163.76C340.776 163.76 335.656 164.16 330.776 164.2ZM343.097 148.72C344.697 152.28 349.457 162.6 350.857 166.4C349.577 169.4 347.937 172.48 346.137 175.48C346.537 175.36 347.137 175.28 347.537 175.28C347.937 175.28 349.097 175.36 349.497 175.48C351.017 170.48 359.777 151.4 361.097 148.72C360.697 148.84 359.777 148.84 359.377 148.84C358.977 148.84 358.217 148.84 357.817 148.72C356.377 153.24 354.497 158.36 352.577 162.48H352.497C350.537 157.72 348.617 153.28 347.137 148.72C346.617 148.84 345.737 148.84 345.177 148.84C344.657 148.84 343.657 148.84 343.097 148.72ZM373.931 164.08C374.171 165.32 374.611 166.4 376.611 166.4C378.131 166.4 379.571 165.72 380.411 164.92C380.331 164.44 380.171 164.08 379.731 163.84C379.451 164.08 378.771 164.48 378.251 164.48C377.091 164.48 377.051 162.92 377.051 161.08V155.2C377.051 149.52 373.931 148.44 371.011 148.44C367.731 148.44 364.411 150.6 364.411 152.88C364.411 153.84 364.891 154.32 365.811 154.32C366.971 154.32 367.691 153.48 367.691 152.96C367.691 152.68 367.651 152.4 367.571 152.24C367.531 152.12 367.491 151.88 367.491 151.44C367.491 150.2 369.171 149.76 370.691 149.76C372.051 149.76 373.931 150.44 373.931 154.96C373.931 155.24 373.811 155.4 373.691 155.44L370.251 156.28C366.411 157.24 363.651 159.36 363.651 162.08C363.651 165.36 365.891 166.4 368.691 166.4C370.091 166.4 371.291 166.08 373.051 164.72L373.851 164.08H373.931ZM373.931 156.68V161.96C373.931 162.48 373.691 162.76 373.371 163C372.331 163.84 370.971 164.76 369.851 164.76C367.851 164.76 366.971 163.16 366.971 161.92C366.971 160.12 367.811 158.28 370.771 157.52L373.931 156.68ZM402.212 164.08C402.452 165.32 402.892 166.4 404.892 166.4C406.412 166.4 407.852 165.72 408.692 164.92C408.612 164.44 408.452 164.08 408.012 163.84C407.732 164.08 407.052 164.48 406.532 164.48C405.372 164.48 405.332 162.92 405.332 161.08V155.2C405.332 149.52 402.212 148.44 399.292 148.44C396.012 148.44 392.692 150.6 392.692 152.88C392.692 153.84 393.172 154.32 394.092 154.32C395.252 154.32 395.972 153.48 395.972 152.96C395.972 152.68 395.932 152.4 395.852 152.24C395.812 152.12 395.772 151.88 395.772 151.44C395.772 150.2 397.452 149.76 398.972 149.76C400.332 149.76 402.212 150.44 402.212 154.96C402.212 155.24 402.092 155.4 401.972 155.44L398.532 156.28C394.692 157.24 391.932 159.36 391.932 162.08C391.932 165.36 394.172 166.4 396.972 166.4C398.372 166.4 399.572 166.08 401.332 164.72L402.132 164.08H402.212ZM402.212 156.68V161.96C402.212 162.48 401.972 162.76 401.652 163C400.612 163.84 399.252 164.76 398.132 164.76C396.132 164.76 395.252 163.16 395.252 161.92C395.252 160.12 396.092 158.28 399.052 157.52L402.212 156.68ZM430.493 164.08C430.733 165.32 431.173 166.4 433.173 166.4C434.693 166.4 436.133 165.72 436.973 164.92C436.893 164.44 436.733 164.08 436.293 163.84C436.013 164.08 435.333 164.48 434.813 164.48C433.653 164.48 433.613 162.92 433.613 161.08V155.2C433.613 149.52 430.493 148.44 427.573 148.44C424.293 148.44 420.973 150.6 420.973 152.88C420.973 153.84 421.453 154.32 422.373 154.32C423.533 154.32 424.253 153.48 424.253 152.96C424.253 152.68 424.213 152.4 424.133 152.24C424.093 152.12 424.053 151.88 424.053 151.44C424.053 150.2 425.733 149.76 427.253 149.76C428.613 149.76 430.493 150.44 430.493 154.96C430.493 155.24 430.373 155.4 430.253 155.44L426.813 156.28C422.973 157.24 420.213 159.36 420.213 162.08C420.213 165.36 422.453 166.4 425.253 166.4C426.653 166.4 427.853 166.08 429.613 164.72L430.413 164.08H430.493ZM430.493 156.68V161.96C430.493 162.48 430.253 162.76 429.933 163C428.893 163.84 427.533 164.76 426.413 164.76C424.413 164.76 423.533 163.16 423.533 161.92C423.533 160.12 424.373 158.28 427.333 157.52L430.493 156.68ZM456.615 164.16L449.775 148.64H447.655L455.615 166.4H457.695L465.695 148.64H463.575L456.695 164.16H456.615ZM493.313 163.8C493.993 163.8 494.713 163.08 494.713 162.4L487.913 155.6L494.713 148.8C494.713 148.12 493.993 147.4 493.313 147.4L486.513 154.2L479.713 147.4C479.033 147.4 478.313 148.12 478.313 148.8L485.113 155.6L478.313 162.4C478.313 163.08 479.033 163.8 479.713 163.8L486.513 157L493.313 163.8ZM525.103 158.8C525.103 157.52 525.183 156.04 525.183 154.76C525.183 150.6 523.823 148.44 520.223 148.44C518.703 148.44 515.863 149.04 513.303 152.04L513.223 151.92V149C513.223 148.68 513.183 148.6 512.983 148.6C512.103 148.76 510.663 148.8 509.743 148.72L509.663 148.84C509.943 150.56 510.023 153.6 510.023 156.6V158.8C510.023 161.8 509.983 163.84 509.663 166L509.743 166.12C510.223 166.04 511.143 166 511.623 166C512.103 166 513.023 166.04 513.503 166.12L513.583 166C513.263 163.72 513.223 161.84 513.223 158.8V154.12C515.263 151.72 517.583 150.84 519.023 150.84C521.063 150.84 521.903 151.64 521.903 154.88V158.8C521.903 161.8 521.823 163.84 521.543 166L521.623 166.12C522.103 166.04 523.023 166 523.503 166C523.983 166 524.903 166.04 525.383 166.12L525.463 166C525.143 163.72 525.103 161.84 525.103 158.8ZM534.946 150.24C534.706 150.48 534.546 150.4 534.546 150.04V142.68C534.546 140.08 534.706 138.48 534.706 138.48C534.706 138.2 534.546 138.08 534.186 138.08C533.186 138.48 530.186 139.04 528.586 139.16C528.506 139.48 528.586 140.12 528.826 140.36C528.946 140.36 529.066 140.36 529.186 140.36C530.946 140.48 531.386 140.48 531.386 143.64V163.16C531.386 164.72 531.346 165.44 531.226 166C531.426 166.32 531.626 166.48 532.106 166.48C532.346 166.24 532.746 165.88 533.066 165.52C533.466 165.04 533.706 165.04 534.146 165.4C535.066 166.16 536.266 166.4 537.666 166.4C541.746 166.4 546.506 162.68 546.506 156.32C546.506 151.44 542.906 148.44 539.426 148.44C537.706 148.44 536.186 149.12 534.946 150.24ZM535.226 151.48C536.266 150.56 537.466 150.2 538.626 150.2C541.066 150.2 543.066 153.16 543.066 157.04C543.066 161.6 541.226 165.04 537.426 165.04C536.186 165.04 535.346 164.16 534.546 163.16V153.16C534.546 152.32 534.706 151.92 535.226 151.48ZM570.392 164.08C570.872 165.64 572.032 166.4 573.512 166.4C574.512 166.4 575.752 166.16 576.712 165.16L576.392 164.16C575.952 164.32 575.632 164.36 575.312 164.36C574.912 164.36 574.392 164.32 574.152 164.08C573.752 163.72 573.472 162.72 573.472 160.96C573.472 159.8 573.592 155.36 573.592 154.92C573.592 149.52 570.032 148.44 566.992 148.44C563.952 148.44 562.112 149.92 561.112 150.76L560.992 150.92L561.672 153.6L562.192 153.64C563.312 151.84 564.672 150.24 566.592 150.24C568.032 150.24 570.432 150.44 570.432 154.96C570.432 155.24 570.272 155.4 570.152 155.44L566.432 156.28C562.352 157.2 559.792 159.36 559.792 162.08C559.792 165.04 561.832 166.4 564.792 166.4C566.992 166.4 568.112 165.88 570.232 164.08H570.392ZM570.392 157L570.232 161.76C570.232 162.28 569.992 162.56 569.672 162.8C568.552 163.64 567.192 164.36 565.992 164.36C564.192 164.36 563.032 163.16 563.032 161.92C563.032 160.12 563.872 158.76 566.992 157.92L570.392 157ZM603.77 158.36L608.57 148.64C608.05 148.64 607.41 148.84 606.81 148.84C606.21 148.84 605.49 148.64 604.89 148.64L602.81 154.24C602.81 154.24 602.09 148.44 597.41 148.44C593.77 148.44 588.61 150.8 588.61 158.16C588.61 163.12 590.93 166.4 596.05 166.4C598.77 166.4 600.61 164.76 602.61 160.8L602.97 162.36C603.61 165.08 604.65 166.4 606.13 166.4C607.89 166.4 608.89 165.36 609.77 162.84L608.69 162.48C608.01 163.68 607.57 163.96 606.57 163.96C605.65 163.96 604.85 162.8 604.33 160.68L603.77 158.36ZM601.77 157.12L601.13 158.76C599.77 162.56 598.09 164.8 596.25 164.8C593.29 164.8 592.13 161.56 592.13 157.24C592.13 152.64 594.53 150.04 597.21 150.04C599.61 150.04 600.65 152.44 601.57 156.28L601.77 157.12ZM626.065 165.16C627.265 166.04 628.825 166.4 631.025 166.4C635.585 166.4 638.785 162.36 638.785 157.84C638.785 152 634.465 150.32 632.665 149.72C635.305 148.32 637.305 146.68 637.305 143.76C637.305 140 633.865 138.08 630.625 138.08C624.945 138.08 622.865 142.12 622.865 148.84V166.4C622.865 171.36 622.425 173.44 621.905 174.8L622.385 175.52L625.705 174.28C626.025 172.68 626.065 170.8 626.065 168.44V165.16ZM631.425 150.72C634.425 151.32 635.305 155.04 635.305 158C635.305 160.64 633.905 164.8 630.785 164.8C628.345 164.8 626.825 163.88 626.065 162.76V146.4C626.065 140.16 628.545 139.64 630.225 139.64C632.625 139.64 633.945 141.64 633.945 144.16C633.945 145.84 633.065 148.44 631.425 148.76C631.105 148.84 630.785 148.84 630.465 148.84C629.985 148.84 629.545 148.8 629.265 148.76C628.985 149.4 628.785 149.8 628.385 150.4L628.585 150.68C628.945 150.64 629.465 150.64 630.025 150.64C630.505 150.64 630.985 150.64 631.425 150.72ZM656.972 151.92V149C656.972 148.68 656.932 148.6 656.732 148.6C655.852 148.76 654.412 148.8 653.492 148.72L653.412 148.84C653.692 150.56 653.772 153.6 653.772 156.6V158.8C653.772 161.8 653.732 163.84 653.412 166L653.492 166.12C653.972 166.04 654.892 166 655.372 166C655.852 166 656.772 166.04 657.252 166.12L657.332 166C657.012 163.72 656.972 161.84 656.972 158.8V153.96C658.852 152.04 661.092 150.84 662.492 150.84C664.012 150.84 665.132 151.72 665.132 154.4V158.8C665.132 161.8 665.092 163.84 664.772 166L664.852 166.12C665.332 166.04 666.252 166 666.732 166C667.212 166 668.132 166.04 668.612 166.12L668.692 166C668.372 163.72 668.332 161.84 668.332 158.8V154.76C668.332 154.2 668.332 153.72 668.292 153.24C670.212 151.12 671.812 150.84 673.372 150.84C675.532 150.84 676.572 151.72 676.572 154.4V158.8C676.572 161.8 676.532 163.84 676.212 166L676.292 166.12C676.772 166.04 677.692 166 678.172 166C678.652 166 679.572 166.04 680.052 166.12L680.132 166C679.812 163.72 679.772 161.84 679.772 158.8V154.8C679.772 151.24 679.132 148.44 674.812 148.44C672.652 148.44 670.332 149.2 668.052 151.6C667.692 149.68 666.052 148.44 663.812 148.44C661.332 148.44 658.972 150.04 657.092 152.04L656.972 151.92ZM683.878 148.72C685.478 152.28 690.238 162.6 691.638 166.4C690.358 169.4 688.718 172.48 686.918 175.48C687.318 175.36 687.918 175.28 688.318 175.28C688.718 175.28 689.878 175.36 690.278 175.48C691.798 170.48 700.558 151.4 701.878 148.72C701.478 148.84 700.558 148.84 700.158 148.84C699.758 148.84 698.998 148.84 698.598 148.72C697.158 153.24 695.278 158.36 693.358 162.48H693.278C691.318 157.72 689.398 153.28 687.918 148.72C687.398 148.84 686.518 148.84 685.958 148.84C685.438 148.84 684.438 148.84 683.878 148.72ZM731.472 166V163.72H725.272C721.112 163.72 717.552 160.24 716.952 155.68H731.112V153.44H716.952C717.472 149.12 720.632 145.4 725.272 145.4H731.472V143.12H725.472C719.192 143.12 714.152 148.36 714.152 154.56C714.152 160.72 719.112 166 725.472 166H731.472ZM754.587 166L762.427 143.12H759.507L757.627 149H748.347L746.507 143.12H743.587L751.427 166H754.587ZM753.027 162.96L749.187 151.56H756.787L753.027 162.96ZM776.558 148.84C775.758 148.84 774.878 148.84 774.398 148.76C774.118 149.4 773.918 149.8 773.518 150.4L773.718 150.68C774.398 150.64 775.638 150.6 776.558 150.6V156.08C776.558 158.48 776.438 161.36 776.438 162.56C776.438 165.16 778.118 166.4 779.958 166.4C781.638 166.4 782.918 166 784.598 164.92L784.118 163.92C782.878 164.36 781.958 164.4 780.958 164.24C779.998 164.08 779.638 163.12 779.638 160.96C779.638 159.76 779.758 158.04 779.758 155.64V150.6H781.278C782.238 150.6 783.638 150.64 784.158 150.68C784.278 150.04 784.398 149.64 784.638 149.04L784.438 148.76C783.718 148.8 782.558 148.84 781.638 148.84H779.758C779.758 145.84 779.798 145.32 779.958 143C779.958 142.72 779.838 142.6 779.598 142.6C778.598 143 778.118 143.4 776.798 143.6L776.718 143.72C776.638 145.12 776.558 146.52 776.558 148.84ZM802.032 161.84C800.632 163.36 798.752 164.04 796.552 164.04C795.192 164.04 793.312 163.52 792.192 161.76C791.472 160.64 791.232 159 791.232 156.68H802.112C802.552 156.68 802.832 156.44 802.832 156C802.832 152.64 801.192 148.44 795.912 148.44C791.792 148.44 787.712 151.76 787.712 157.64C787.712 159.92 788.192 162.16 789.512 163.76C790.872 165.4 793.192 166.4 795.872 166.4C798.752 166.4 801.312 164.92 802.832 162.84L802.032 161.84ZM791.352 155.08C792.032 150.92 794.672 150.04 795.912 150.04C797.512 150.04 799.272 151.52 799.272 154.52C799.272 154.88 799.112 155.08 798.712 155.08H791.352ZM822.877 158.8C822.877 157.52 822.957 156.04 822.957 154.76C822.957 150.6 821.597 148.44 817.997 148.44C816.477 148.44 813.637 149.04 811.077 152.04L810.997 151.92V149C810.997 148.68 810.957 148.6 810.757 148.6C809.877 148.76 808.437 148.8 807.517 148.72L807.437 148.84C807.717 150.56 807.797 153.6 807.797 156.6V158.8C807.797 161.8 807.757 163.84 807.437 166L807.517 166.12C807.997 166.04 808.917 166 809.397 166C809.877 166 810.797 166.04 811.277 166.12L811.357 166C811.037 163.72 810.997 161.84 810.997 158.8V154.12C813.037 151.72 815.357 150.84 816.797 150.84C818.837 150.84 819.677 151.64 819.677 154.88V158.8C819.677 161.8 819.597 163.84 819.317 166L819.397 166.12C819.877 166.04 820.797 166 821.277 166C821.757 166 822.677 166.04 823.157 166.12L823.237 166C822.917 163.72 822.877 161.84 822.877 158.8ZM858.359 139.52H855.519L852.559 147.48H841.919L838.959 139.52H836.119L845.919 166H848.559L858.359 139.52ZM851.679 149.88L847.239 161.88L842.799 149.88H851.679ZM891.982 144.56H889.462L880.862 161.84L872.262 144.56H869.662L880.662 167.16H881.062L891.982 144.56ZM917.667 163.68H917.747L917.947 166C917.947 166.08 918.067 166.12 918.307 166.12C918.827 166.04 919.107 166 919.707 166C920.187 166 920.947 166.04 921.467 166.12L921.547 166C921.227 164.28 920.867 161.32 920.867 158.32V146C920.867 143.04 921.027 140.96 921.227 138.48C921.227 138.2 921.107 138.08 920.867 138.08C919.867 138.48 919.027 138.76 917.387 138.88L917.307 139C917.627 140.72 917.667 143.68 917.667 146.72V149.32C916.747 148.8 915.107 148.44 914.307 148.44C909.107 148.44 905.267 152.04 905.267 157.48C905.267 162.4 908.187 166.4 912.507 166.4C914.427 166.4 916.227 165.52 917.667 163.68ZM917.667 161.48C916.227 163.32 914.387 164.32 912.747 164.32C910.587 164.32 908.747 162.16 908.747 157.16C908.747 151.16 911.947 150.04 913.867 150.04C915.747 150.04 916.707 150.84 917.667 152.36V161.48ZM925.958 157.8C925.958 162.6 929.118 166.4 934.438 166.4C939.718 166.4 942.918 162.68 942.918 157.44C942.918 152 939.998 148.44 934.598 148.44C929.358 148.44 925.958 152.12 925.958 157.8ZM934.318 150.04C938.558 150.04 939.398 153.32 939.398 158.16C939.398 161.96 937.478 164.8 934.798 164.8C930.558 164.8 929.478 160.2 929.478 157.12C929.478 153.64 930.558 150.04 934.318 150.04ZM956.158 164.08C956.398 165.32 956.838 166.4 958.838 166.4C960.358 166.4 961.798 165.72 962.638 164.92C962.558 164.44 962.398 164.08 961.958 163.84C961.678 164.08 960.998 164.48 960.478 164.48C959.318 164.48 959.278 162.92 959.278 161.08V155.2C959.278 149.52 956.158 148.44 953.238 148.44C949.958 148.44 946.638 150.6 946.638 152.88C946.638 153.84 947.118 154.32 948.038 154.32C949.198 154.32 949.918 153.48 949.918 152.96C949.918 152.68 949.878 152.4 949.798 152.24C949.758 152.12 949.717 151.88 949.717 151.44C949.717 150.2 951.398 149.76 952.918 149.76C954.278 149.76 956.158 150.44 956.158 154.96C956.158 155.24 956.038 155.4 955.918 155.44L952.478 156.28C948.638 157.24 945.878 159.36 945.878 162.08C945.878 165.36 948.118 166.4 950.918 166.4C952.318 166.4 953.518 166.08 955.278 164.72L956.078 164.08H956.158ZM956.158 156.68V161.96C956.158 162.48 955.918 162.76 955.598 163C954.558 163.84 953.198 164.76 952.078 164.76C950.078 164.76 949.198 163.16 949.198 161.92C949.198 160.12 950.038 158.28 952.998 157.52L956.158 156.68ZM980.919 166.16C981.319 166.04 981.839 166.04 982.239 166.04C982.639 166.04 983.319 166.04 983.679 166.16C984.759 163.08 985.919 159.8 987.239 156.64C988.439 159.76 989.719 163 990.839 166.12C991.239 166 991.479 166 991.879 166C992.279 166 992.999 166 993.359 166.12C995.319 161.4 998.519 153.72 1000.8 148.72C1000.44 148.84 999.479 148.84 999.079 148.84C998.679 148.84 998.079 148.84 997.719 148.72C996.239 153.44 994.439 158.56 992.799 162.4H992.479C990.799 158 989.559 152.96 988.639 148.72C988.119 148.84 987.199 148.84 986.639 148.84C985.999 148.84 984.959 148.84 984.319 148.72C984.879 150.36 985.519 152.12 986.199 153.96C985.119 156.96 984.039 159.96 982.879 162.44H982.639C980.639 157.84 979.279 153.36 977.839 148.76C977.319 148.88 976.399 148.88 975.839 148.88C975.199 148.88 974.159 148.88 973.519 148.76C976.199 154.64 978.679 160.32 980.919 166.16ZM1003.11 157.8C1003.11 162.6 1006.27 166.4 1011.59 166.4C1016.87 166.4 1020.07 162.68 1020.07 157.44C1020.07 152 1017.15 148.44 1011.75 148.44C1006.51 148.44 1003.11 152.12 1003.11 157.8ZM1011.47 150.04C1015.71 150.04 1016.55 153.32 1016.55 158.16C1016.55 161.96 1014.63 164.8 1011.95 164.8C1007.71 164.8 1006.63 160.2 1006.63 157.12C1006.63 153.64 1007.71 150.04 1011.47 150.04ZM1012.79 139.16L1009.75 143.92C1009.43 144.44 1009.31 144.6 1009.31 145.04C1009.31 145.32 1009.59 145.56 1009.87 145.56C1010.15 145.56 1010.47 145.4 1011.07 144.8L1015.67 140.44L1015.55 140C1014.63 139.12 1013.59 139.08 1013.35 139.08C1013.15 139.08 1012.91 139.12 1012.79 139.16ZM1036.3 163.68H1036.38L1036.58 166C1036.58 166.08 1036.7 166.12 1036.94 166.12C1037.46 166.04 1037.74 166 1038.34 166C1038.82 166 1039.58 166.04 1040.1 166.12L1040.18 166C1039.86 164.28 1039.5 161.32 1039.5 158.32V146C1039.5 143.04 1039.66 140.96 1039.86 138.48C1039.86 138.2 1039.74 138.08 1039.5 138.08C1038.5 138.48 1037.66 138.76 1036.02 138.88L1035.94 139C1036.26 140.72 1036.3 143.68 1036.3 146.72V149.32C1035.38 148.8 1033.74 148.44 1032.94 148.44C1027.74 148.44 1023.9 152.04 1023.9 157.48C1023.9 162.4 1026.82 166.4 1031.14 166.4C1033.06 166.4 1034.86 165.52 1036.3 163.68ZM1036.3 161.48C1034.86 163.32 1033.02 164.32 1031.38 164.32C1029.22 164.32 1027.38 162.16 1027.38 157.16C1027.38 151.16 1030.58 150.04 1032.5 150.04C1034.38 150.04 1035.34 150.84 1036.3 152.36V161.48Z" fill="black"/>
<g id="\alpha = \beta" clip-path="url(#clip1)">
<g id="page1">
<path id="Vector" d="M484.263 291.876C484.263 288.469 482.331 285.273 478.608 285.273C474.006 285.273 469.405 290.296 469.405 295.283C469.405 298.339 471.302 301.114 474.884 301.114C477.062 301.114 479.661 300.271 482.155 298.163C482.647 300.13 483.736 301.114 485.246 301.114C487.143 301.114 488.091 299.147 488.091 298.69C488.091 298.374 487.845 298.374 487.74 298.374C487.459 298.374 487.424 298.48 487.318 298.761C487.002 299.639 486.194 300.411 485.351 300.411C484.263 300.411 484.263 298.163 484.263 296.021C487.845 291.736 488.688 287.31 488.688 287.275C488.688 286.959 488.407 286.959 488.302 286.959C487.986 286.959 487.951 287.064 487.81 287.696C487.354 289.242 486.44 291.982 484.263 294.862V291.876ZM482.05 297.32C478.959 300.095 476.184 300.411 474.955 300.411C472.461 300.411 471.758 298.199 471.758 296.548C471.758 295.037 472.531 291.455 473.62 289.523C475.06 287.064 477.027 285.975 478.608 285.975C482.015 285.975 482.015 290.436 482.015 293.387C482.015 294.265 481.979 295.178 481.979 296.056C481.979 296.758 482.015 296.934 482.05 297.32Z" fill="black"/>
<path id="Vector_2" d="M523.564 289.382C524.056 289.382 524.688 289.382 524.688 288.75C524.688 288.083 524.091 288.083 523.564 288.083H502.876C502.384 288.083 501.752 288.083 501.752 288.715C501.752 289.382 502.349 289.382 502.876 289.382H523.564ZM523.564 295.915C524.056 295.915 524.688 295.915 524.688 295.283C524.688 294.616 524.091 294.616 523.564 294.616H502.876C502.384 294.616 501.752 294.616 501.752 295.248C501.752 295.915 502.349 295.915 502.876 295.915H523.564Z" fill="black"/>
<path id="Vector_3" d="M556.242 280.32C556.242 278.213 554.45 276 551.254 276C546.723 276 543.843 281.55 542.93 285.203L537.38 307.225C537.31 307.506 537.521 307.577 537.696 307.577C537.942 307.577 538.118 307.542 538.153 307.366L540.612 297.531C540.963 299.498 542.895 301.114 544.967 301.114C549.99 301.114 554.731 297.18 554.731 291.946C554.731 290.612 554.415 289.277 553.678 288.153C553.256 287.486 552.729 286.994 552.167 286.572C554.696 285.238 556.242 283.095 556.242 280.32ZM550.13 286.537C549.568 286.748 549.006 286.818 548.339 286.818C547.847 286.818 547.39 286.853 546.758 286.643C547.11 286.397 547.636 286.327 548.374 286.327C549.006 286.327 549.638 286.397 550.13 286.537ZM554.415 280.004C554.415 281.936 553.467 284.746 551.184 286.046C550.517 285.8 549.603 285.624 548.831 285.624C548.093 285.624 545.986 285.554 545.986 286.678C545.986 287.626 547.917 287.521 548.514 287.521C549.428 287.521 550.236 287.31 551.079 287.064C552.203 287.977 552.694 289.172 552.694 290.928C552.694 292.965 552.132 294.616 551.465 296.126C550.306 298.725 547.566 300.411 545.143 300.411C542.578 300.411 541.244 298.374 541.244 295.986C541.244 295.67 541.244 295.213 541.384 294.686L543.667 285.448C544.826 280.847 547.777 276.702 551.184 276.702C553.713 276.702 554.415 278.459 554.415 280.004Z" fill="black"/>
</g>
</g>
<path id="\alpha = \sum beta" d="M711.781 274.562H715.219L727.094 305.441H723.656L711.781 274.562ZM743.188 303C742.979 302.583 742.81 301.841 742.68 300.773C741 302.518 738.995 303.391 736.664 303.391C734.581 303.391 732.868 302.805 731.527 301.633C730.199 300.448 729.535 298.951 729.535 297.141C729.535 294.94 730.368 293.234 732.035 292.023C733.715 290.799 736.072 290.188 739.105 290.188H742.621V288.527C742.621 287.264 742.243 286.262 741.488 285.52C740.733 284.764 739.62 284.387 738.148 284.387C736.859 284.387 735.779 284.712 734.906 285.363C734.034 286.014 733.598 286.802 733.598 287.727H729.965C729.965 286.672 730.336 285.656 731.078 284.68C731.833 283.69 732.849 282.909 734.125 282.336C735.414 281.763 736.827 281.477 738.363 281.477C740.798 281.477 742.706 282.089 744.086 283.312C745.466 284.523 746.182 286.197 746.234 288.332V298.059C746.234 299.999 746.482 301.542 746.977 302.688V303H743.188ZM737.191 300.246C738.324 300.246 739.398 299.953 740.414 299.367C741.43 298.781 742.165 298.02 742.621 297.082V292.746H739.789C735.362 292.746 733.148 294.042 733.148 296.633C733.148 297.766 733.526 298.651 734.281 299.289C735.036 299.927 736.007 300.246 737.191 300.246ZM755.824 303H752.211V273H755.824V303ZM779.477 292.668C779.477 295.884 778.741 298.475 777.27 300.441C775.798 302.408 773.806 303.391 771.293 303.391C768.728 303.391 766.71 302.577 765.238 300.949V311.125H761.625V281.867H764.926L765.102 284.211C766.573 282.388 768.617 281.477 771.234 281.477C773.773 281.477 775.779 282.434 777.25 284.348C778.734 286.262 779.477 288.924 779.477 292.336V292.668ZM775.863 292.258C775.863 289.875 775.355 287.993 774.34 286.613C773.324 285.233 771.931 284.543 770.16 284.543C767.973 284.543 766.332 285.513 765.238 287.453V297.551C766.319 299.478 767.973 300.441 770.199 300.441C771.931 300.441 773.305 299.758 774.32 298.391C775.349 297.01 775.863 294.966 775.863 292.258ZM787.699 284.426C789.301 282.46 791.384 281.477 793.949 281.477C798.415 281.477 800.668 283.996 800.707 289.035V303H797.094V289.016C797.081 287.492 796.729 286.366 796.039 285.637C795.362 284.908 794.301 284.543 792.855 284.543C791.684 284.543 790.655 284.855 789.77 285.48C788.884 286.105 788.194 286.926 787.699 287.941V303H784.086V273H787.699V284.426ZM819.164 303C818.956 302.583 818.786 301.841 818.656 300.773C816.977 302.518 814.971 303.391 812.641 303.391C810.557 303.391 808.845 302.805 807.504 301.633C806.176 300.448 805.512 298.951 805.512 297.141C805.512 294.94 806.345 293.234 808.012 292.023C809.691 290.799 812.048 290.188 815.082 290.188H818.598V288.527C818.598 287.264 818.22 286.262 817.465 285.52C816.71 284.764 815.596 284.387 814.125 284.387C812.836 284.387 811.755 284.712 810.883 285.363C810.01 286.014 809.574 286.802 809.574 287.727H805.941C805.941 286.672 806.312 285.656 807.055 284.68C807.81 283.69 808.826 282.909 810.102 282.336C811.391 281.763 812.803 281.477 814.34 281.477C816.775 281.477 818.682 282.089 820.062 283.312C821.443 284.523 822.159 286.197 822.211 288.332V298.059C822.211 299.999 822.458 301.542 822.953 302.688V303H819.164ZM813.168 300.246C814.301 300.246 815.375 299.953 816.391 299.367C817.406 298.781 818.142 298.02 818.598 297.082V292.746H815.766C811.339 292.746 809.125 294.042 809.125 296.633C809.125 297.766 809.503 298.651 810.258 299.289C811.013 299.927 811.983 300.246 813.168 300.246ZM854.32 287.102H838.031V283.957H854.32V287.102ZM854.32 295.207H838.031V292.082H854.32V295.207ZM867.719 274.562H871.156L883.031 305.441H879.594L867.719 274.562ZM898.383 297.395C898.383 296.418 898.012 295.663 897.27 295.129C896.54 294.582 895.258 294.113 893.422 293.723C891.599 293.332 890.147 292.863 889.066 292.316C887.999 291.77 887.204 291.118 886.684 290.363C886.176 289.608 885.922 288.71 885.922 287.668C885.922 285.936 886.651 284.471 888.109 283.273C889.581 282.076 891.456 281.477 893.734 281.477C896.13 281.477 898.07 282.095 899.555 283.332C901.052 284.569 901.801 286.151 901.801 288.078H898.168C898.168 287.089 897.745 286.236 896.898 285.52C896.065 284.803 895.01 284.445 893.734 284.445C892.419 284.445 891.391 284.732 890.648 285.305C889.906 285.878 889.535 286.626 889.535 287.551C889.535 288.423 889.88 289.081 890.57 289.523C891.26 289.966 892.504 290.389 894.301 290.793C896.111 291.197 897.576 291.678 898.695 292.238C899.815 292.798 900.642 293.475 901.176 294.27C901.723 295.051 901.996 296.008 901.996 297.141C901.996 299.029 901.241 300.546 899.73 301.691C898.22 302.824 896.26 303.391 893.852 303.391C892.159 303.391 890.661 303.091 889.359 302.492C888.057 301.893 887.035 301.06 886.293 299.992C885.564 298.911 885.199 297.746 885.199 296.496H888.812C888.878 297.707 889.359 298.671 890.258 299.387C891.169 300.09 892.367 300.441 893.852 300.441C895.219 300.441 896.312 300.168 897.133 299.621C897.966 299.061 898.383 298.319 898.383 297.395ZM919.75 300.91C918.344 302.564 916.28 303.391 913.559 303.391C911.306 303.391 909.587 302.74 908.402 301.438C907.23 300.122 906.638 298.182 906.625 295.617V281.867H910.238V295.52C910.238 298.723 911.54 300.324 914.145 300.324C916.905 300.324 918.741 299.296 919.652 297.238V281.867H923.266V303H919.828L919.75 300.91ZM932.172 281.867L932.27 284.211C933.819 282.388 935.909 281.477 938.539 281.477C941.495 281.477 943.507 282.609 944.574 284.875C945.277 283.859 946.189 283.039 947.309 282.414C948.441 281.789 949.776 281.477 951.312 281.477C955.948 281.477 958.305 283.931 958.383 288.84V303H954.77V289.055C954.77 287.544 954.424 286.418 953.734 285.676C953.044 284.921 951.885 284.543 950.258 284.543C948.917 284.543 947.803 284.947 946.918 285.754C946.033 286.548 945.518 287.622 945.375 288.977V303H941.742V289.152C941.742 286.079 940.238 284.543 937.23 284.543C934.861 284.543 933.24 285.552 932.367 287.57V303H928.754V281.867H932.172ZM991.664 292.668C991.664 295.897 990.922 298.495 989.438 300.461C987.953 302.414 985.961 303.391 983.461 303.391C980.792 303.391 978.728 302.447 977.27 300.559L977.094 303H973.773V273H977.387V284.191C978.845 282.382 980.857 281.477 983.422 281.477C985.987 281.477 987.999 282.447 989.457 284.387C990.928 286.327 991.664 288.983 991.664 292.355V292.668ZM988.051 292.258C988.051 289.797 987.576 287.896 986.625 286.555C985.674 285.214 984.307 284.543 982.523 284.543C980.141 284.543 978.428 285.65 977.387 287.863V297.004C978.493 299.217 980.219 300.324 982.562 300.324C984.294 300.324 985.642 299.654 986.605 298.312C987.569 296.971 988.051 294.953 988.051 292.258ZM1005 303.391C1002.14 303.391 999.809 302.453 998.012 300.578C996.215 298.69 995.316 296.171 995.316 293.02V292.355C995.316 290.259 995.714 288.391 996.508 286.75C997.315 285.096 998.435 283.807 999.867 282.883C1001.31 281.945 1002.88 281.477 1004.55 281.477C1007.3 281.477 1009.44 282.382 1010.96 284.191C1012.48 286.001 1013.25 288.592 1013.25 291.965V293.469H998.93C998.982 295.552 999.587 297.238 1000.75 298.527C1001.92 299.803 1003.4 300.441 1005.2 300.441C1006.48 300.441 1007.56 300.181 1008.44 299.66C1009.33 299.139 1010.1 298.449 1010.77 297.59L1012.97 299.309C1011.2 302.03 1008.55 303.391 1005 303.391ZM1004.55 284.445C1003.1 284.445 1001.87 284.979 1000.88 286.047C999.893 287.102 999.281 288.586 999.047 290.5H1009.63V290.227C1009.53 288.391 1009.03 286.971 1008.15 285.969C1007.26 284.953 1006.07 284.445 1004.55 284.445ZM1022.35 276.75V281.867H1026.29V284.66H1022.35V297.766C1022.35 298.612 1022.52 299.25 1022.88 299.68C1023.23 300.096 1023.83 300.305 1024.67 300.305C1025.09 300.305 1025.66 300.227 1026.39 300.07V303C1025.44 303.26 1024.52 303.391 1023.62 303.391C1022 303.391 1020.79 302.902 1019.96 301.926C1019.14 300.949 1018.73 299.562 1018.73 297.766V284.66H1014.89V281.867H1018.73V276.75H1022.35ZM1043.58 303C1043.37 302.583 1043.2 301.841 1043.07 300.773C1041.39 302.518 1039.39 303.391 1037.05 303.391C1034.97 303.391 1033.26 302.805 1031.92 301.633C1030.59 300.448 1029.93 298.951 1029.93 297.141C1029.93 294.94 1030.76 293.234 1032.43 292.023C1034.11 290.799 1036.46 290.188 1039.5 290.188H1043.01V288.527C1043.01 287.264 1042.63 286.262 1041.88 285.52C1041.12 284.764 1040.01 284.387 1038.54 284.387C1037.25 284.387 1036.17 284.712 1035.3 285.363C1034.42 286.014 1033.99 286.802 1033.99 287.727H1030.36C1030.36 286.672 1030.73 285.656 1031.47 284.68C1032.22 283.69 1033.24 282.909 1034.52 282.336C1035.8 281.763 1037.22 281.477 1038.75 281.477C1041.19 281.477 1043.1 282.089 1044.48 283.312C1045.86 284.523 1046.57 286.197 1046.62 288.332V298.059C1046.62 299.999 1046.87 301.542 1047.37 302.688V303H1043.58ZM1037.58 300.246C1038.71 300.246 1039.79 299.953 1040.8 299.367C1041.82 298.781 1042.56 298.02 1043.01 297.082V292.746H1040.18C1035.75 292.746 1033.54 294.042 1033.54 296.633C1033.54 297.766 1033.92 298.651 1034.67 299.289C1035.43 299.927 1036.4 300.246 1037.58 300.246Z" fill="black"/>
</g>
<defs>
<clipPath id="clip0">
<rect width="1024" height="768" fill="white"/>
</clipPath>
<clipPath id="clip1">
<rect width="88.2418" height="31.5767" fill="white" transform="translate(468 276)"/>
</clipPath>
</defs>
</svg>
