<svg width="1280" height="960" viewBox="0 0 1280 960" fill="none" xmlns="http://www.w3.org/2000/svg">
<g id="Why Karp?">
<rect width="1280" height="960" fill="white"/>
<path id="14:29" d="M33.72 50.68C33.72 50.88 33.84 51.12 34.76 51.36C36.36 51.76 36.88 52.2 36.96 53.6C37.04 55.04 37.12 55.76 37.12 62.16C37.12 66.48 37.04 70.24 37 71.6C36.88 73.96 36.12 74.52 34.16 74.92C33.32 75.12 33 75.24 33 75.6C33 75.88 33.52 76.12 33.96 76.12C35.24 76.12 36.56 76 37.84 76C39.08 76 41.88 76.12 42.76 76.12C43.4 76.12 43.8 75.92 43.8 75.6C43.8 75.32 43.6 75.04 42.88 74.88C41.08 74.4 40.52 73.8 40.48 72.76C40.44 71.28 40.32 64.8 40.4 64.04C40.44 63.72 40.4 63.2 40.6 63.2C40.92 63.2 41.32 63.72 42.4 64.88C44.48 67 49.88 72.72 51.08 74.24C51.16 74.36 51.04 74.6 50.88 74.64C49.32 74.96 49.16 75.12 49.16 75.32C49.16 75.6 49.44 76.04 50 76.04C50.92 76.04 51.36 76 52.8 76C53.88 76 57.56 76.32 58.64 76.32C59.08 76.32 59.64 76.12 59.64 75.72C59.64 75.56 59.28 75.28 58.84 75.16C57.4 74.92 56.48 74.84 54.64 73C51.64 69.92 44.8 62.92 43.92 61.8C43.8 61.68 43.84 61.64 43.92 61.4C44.4 60.64 49.6 55.84 51.48 54.36C54.04 52.4 55 51.76 57.28 51.28C57.88 51.12 58.36 50.8 58.36 50.56C58.36 50.24 58.04 50.08 57.32 50.08C56.2 50.08 52.36 50.28 51.4 50.28C50.68 50.28 50.64 50.24 49.88 50.24C49.28 50.24 48.84 50.4 48.84 50.76C48.84 51.08 49.28 51.2 49.76 51.36C51.08 51.72 51.24 52.36 50.2 53.52C48.96 54.92 42.56 61.2 41.28 62.16C41.24 62.16 40.84 62.44 40.68 62.44C40.52 62.44 40.44 62.32 40.4 62.16C40.32 61.6 40.32 55.08 40.44 53.56C40.52 52 41 51.64 42.36 51.36C43 51.2 43.52 51 43.52 50.68C43.52 50.32 43.12 50.2 42.44 50.2C41.48 50.2 39.92 50.28 38.72 50.28C37.44 50.28 35.76 50.16 34.8 50.16C34.2 50.16 33.72 50.32 33.72 50.68ZM67.6247 59.84C66.8647 59.84 65.0647 60.52 63.9047 61.36C62.0247 62.6 60.9047 63.72 60.9047 64.88C60.9047 65.08 61.1447 65.4 61.3847 65.4C61.5847 65.4 63.5847 64.4 63.9847 64.08C64.0647 64 64.2247 63.76 64.2247 63.64C64.1447 62.84 64.2647 62.12 64.5047 62C64.7847 61.8 65.3047 61.56 66.1447 61.56C68.1047 61.56 69.2647 63.24 69.2647 64.24C69.2647 64.72 69.2247 67.16 69.1847 67.52C69.1847 67.76 68.9447 67.96 68.0247 68.24C67.1447 68.52 63.9447 69.4 63.3447 69.64C62.7447 69.92 62.1447 70.12 61.7447 70.64C61.3047 71.2 60.9847 71.96 60.9847 72.68C60.9847 74.68 62.3447 76.4 63.7447 76.4C63.9447 76.4 64.9047 76.32 65.3447 76.16C65.7447 76.04 67.4647 75.36 68.9447 74.32C69.0247 74.28 69.1847 74.44 69.1847 74.48C69.6647 75.96 70.8247 76.48 71.7447 76.48C73.5447 76.48 75.3447 74.76 75.3447 74C75.3447 73.96 75.3447 73.72 75.2247 73.6C75.1447 73.48 75.1047 73.4 74.9847 73.48C74.5447 73.8 73.6247 74.08 73.4647 74.08C73.1447 74.08 71.8647 73.92 71.8647 72.08C71.8647 71.64 72.0247 66.6 72.0247 65.04C72.0247 63.36 71.8247 62.56 71.2247 61.72C70.6247 60.84 69.6247 59.84 67.6247 59.84ZM66.4247 74.32C65.5847 74.32 63.9047 73.68 63.9047 71.92C63.9047 70.96 64.3047 70.68 64.7047 70.4C65.7847 69.88 67.7047 69.2 68.8247 69.2C68.9847 69.2 69.1447 69.4 69.1447 69.52C69.1447 70.32 69.1447 71.68 69.0647 72.64C69.0647 72.72 68.8247 73.48 68.5847 73.64C67.8247 74.04 67.0247 74.32 66.4247 74.32ZM77.2431 61.92C77.2431 62.08 77.6431 62.24 78.6031 63C79.0431 63.28 79.0431 63.8 79.0431 64.2V71.84C79.0031 74.24 78.8831 74.64 77.3231 75.16C77.0031 75.28 76.5231 75.44 76.5231 75.68C76.5231 76 76.9231 76.16 77.3631 76.16C78.3231 76.16 78.8031 76 80.0031 76C82.3231 76 83.7231 76.2 84.7231 76.2C85.3231 76.2 85.6831 76.04 85.6831 75.84C85.6831 75.68 85.6031 75.4 84.9631 75.2L83.1231 74.72C82.4031 74.6 82.1631 73.84 82.0831 72.68C82.0431 72.08 81.8431 64.84 81.8431 64.04C81.8431 63.84 81.9631 63.48 82.2431 63.16C82.6431 62.72 83.3231 62.6 84.0031 62.6C84.8031 62.6 85.7631 63.08 86.2031 63.48C86.3231 63.56 86.6831 63.64 86.7631 63.6C87.0031 63.48 87.9631 62.4 88.4031 61.76C88.5231 61.56 88.6431 61.28 88.6431 61.2C88.6431 60.84 88.2831 59.84 86.6431 59.84C85.4031 59.84 83.6431 60.84 82.0831 62.32C82.0031 62.36 81.8031 62.32 81.8031 62.16C81.8031 61.4 81.8831 60.68 81.8831 59.96C81.8831 59.84 81.6831 59.48 81.5231 59.48C81.4031 59.48 81.2031 59.64 80.7231 59.96C80.3231 60.2 79.0831 60.8 77.7631 61.24C77.3231 61.4 77.2431 61.8 77.2431 61.92ZM101.037 59.92C99.9169 59.92 98.7169 60.12 98.0769 60.4C97.5169 60.64 96.4369 61.2 95.4769 61.84C95.3169 61.96 95.1569 61.8 95.1569 61.64C95.1969 61 95.1969 60.24 95.2769 59.6C95.2769 59.44 94.9569 59.12 94.8369 59.12C94.7569 59.12 94.4369 59.28 94.0369 59.48C93.3569 59.88 91.5969 60.72 90.9969 60.88C90.8369 60.92 90.4369 61.4 90.4369 61.6C90.4369 61.8 90.9169 62.16 91.9169 62.88C92.0369 62.96 92.2369 63.24 92.2369 64.92C92.2769 67.28 92.2369 70.28 92.2369 73C92.2369 77.08 92.1969 80.36 92.1169 81.68C91.9569 84.56 91.7569 84.92 89.6369 85.36C88.9969 85.48 88.7169 85.8 88.7169 85.96C88.7169 86.32 89.3169 86.48 89.9169 86.48C91.1169 86.48 91.5169 86.36 92.4769 86.36C94.0369 86.36 96.3569 86.56 97.2369 86.56C97.7569 86.56 98.2769 86.36 98.2769 86.04C98.2769 85.76 97.9569 85.56 97.1569 85.32C95.6369 84.84 95.3569 84.36 95.2369 83.32C95.1169 82.2 95.0769 80.56 95.0769 76.68C95.0769 76.48 95.2369 76.16 95.3569 76.16C95.8769 76.24 96.6769 76.32 97.5969 76.32C99.3969 76.32 101.757 76 103.957 74.28C106.517 72.36 107.357 69.4 107.357 67.4C107.357 65.2 106.437 63.24 105.477 62.16C104.277 60.84 102.477 59.92 101.037 59.92ZM98.9569 61.96C99.8769 61.96 101.517 62.52 102.557 63.6C104.197 65.4 104.197 67.56 104.197 68.48C104.197 69.68 103.477 72.68 101.477 74.36C100.917 74.84 100.077 75.04 99.6369 75.04C98.6369 75.04 96.7169 74.36 95.6369 72.84C95.3569 72.48 95.1969 71.8 95.1169 71.08C94.9569 69.44 94.9969 65.08 95.1969 63.88C95.3169 63.16 95.5169 62.84 95.7169 62.68C96.1569 62.32 97.2769 61.96 98.9569 61.96ZM118.649 61.92C118.649 62.08 119.049 62.24 120.009 63C120.449 63.28 120.449 63.8 120.449 64.2V71.84C120.409 74.24 120.289 74.64 118.729 75.16C118.409 75.28 117.929 75.44 117.929 75.68C117.929 76 118.329 76.16 118.769 76.16C119.729 76.16 120.209 76 121.409 76C123.729 76 125.129 76.2 126.129 76.2C126.729 76.2 127.089 76.04 127.089 75.84C127.089 75.68 127.009 75.4 126.369 75.2L124.529 74.72C123.809 74.6 123.569 73.84 123.489 72.68C123.449 72.08 123.249 64.84 123.249 64.04C123.249 63.84 123.369 63.48 123.649 63.16C124.049 62.72 124.729 62.6 125.409 62.6C126.209 62.6 127.169 63.08 127.609 63.48C127.729 63.56 128.089 63.64 128.169 63.6C128.409 63.48 129.369 62.4 129.809 61.76C129.929 61.56 130.049 61.28 130.049 61.2C130.049 60.84 129.689 59.84 128.049 59.84C126.809 59.84 125.049 60.84 123.489 62.32C123.409 62.36 123.209 62.32 123.209 62.16C123.209 61.4 123.289 60.68 123.289 59.96C123.289 59.84 123.089 59.48 122.929 59.48C122.809 59.48 122.609 59.64 122.129 59.96C121.729 60.2 120.489 60.8 119.169 61.24C118.729 61.4 118.649 61.8 118.649 61.92ZM139.051 59.88C138.371 59.88 137.051 60.12 136.011 60.6C132.891 62.04 131.211 65.24 131.211 68.44C131.211 73.12 134.091 76.4 138.411 76.4C140.691 76.4 142.811 75.44 144.211 73.4C144.331 73.2 144.491 72.76 144.491 72.44C144.491 72.24 144.411 71.96 144.171 71.96C144.011 71.96 143.811 72.2 143.651 72.44C142.971 73.44 141.771 73.88 140.011 73.88C138.091 73.88 136.411 72.88 135.531 71.68C134.651 70.52 134.011 68.68 134.011 67.12C134.011 66.72 134.091 66.04 134.211 65.72C134.251 65.6 134.411 65.4 134.531 65.4C136.371 65.44 143.211 65.44 143.651 65.44C144.091 65.44 144.411 65 144.411 64.76C144.411 63.36 143.891 62.24 143.011 61.4C142.011 60.4 140.451 59.88 139.051 59.88ZM138.651 60.92C140.091 60.92 141.291 62.2 141.291 63.32C141.291 64.12 140.891 64.32 139.931 64.32C137.931 64.36 135.811 64.36 134.771 64.32C134.691 64.32 134.531 64.08 134.611 63.88C135.331 62.04 136.851 60.92 138.651 60.92ZM156.863 59.84C155.783 59.84 153.423 60.24 151.583 61.36C149.623 62.52 147.343 64.8 147.343 68.72C147.343 70.72 147.983 72.76 149.263 74.2C150.503 75.52 152.343 76.4 154.263 76.4C155.583 76.4 157.623 76.04 159.463 74.4C159.543 74.4 159.703 74.48 159.703 74.64C159.703 75.2 159.623 75.92 159.623 76.28C159.623 76.48 159.903 76.8 160.063 76.8C160.263 76.8 160.583 76.72 161.503 76.4C162.263 76.12 164.343 75.72 165.103 75.6C165.303 75.56 165.783 74.88 165.783 74.6C165.783 74.56 165.703 74.36 165.543 74.36C165.143 74.4 163.823 74.68 163.383 74.68C163.143 74.68 162.823 74.52 162.743 73.04C162.743 72.28 162.663 71.64 162.663 63.92C162.663 51.68 162.823 50.24 163.023 48.12C163.063 47.76 162.823 47.48 162.703 47.48C162.543 47.48 162.423 47.52 162.183 47.6C161.143 48 159.023 48.6 158.103 48.72C157.863 48.76 157.423 49.24 157.423 49.4C157.423 49.48 157.463 49.56 157.822 49.76C159.663 50.72 159.663 51.2 159.703 51.4C159.823 52.36 159.943 58.48 159.743 59.56C159.703 59.76 159.583 60.04 159.423 60C158.943 59.92 158.303 59.84 156.863 59.84ZM155.383 61.16C156.183 61.16 157.703 61.6 158.823 62.72C159.303 63.2 159.663 63.92 159.703 64.24C159.823 66.12 159.863 68.32 159.823 70.88C159.783 72.16 159.263 73.44 159.183 73.52C158.463 74.04 157.543 74.48 156.263 74.48C152.823 74.48 150.583 70.8 150.583 67.6C150.583 65.36 151.503 63.32 152.263 62.56C152.983 61.84 154.103 61.16 155.383 61.16ZM175.707 74.48C174.747 74.48 174.027 74.48 172.987 73.68C172.427 73.28 171.987 72.36 171.987 71.44C171.987 69.64 172.147 62.08 172.107 60.72C172.107 60.48 171.947 60.12 171.787 60.12C171.627 60.12 168.667 60.56 167.547 60.56C167.067 60.56 166.867 60.8 166.867 60.92C166.867 61.28 167.227 61.48 167.587 61.64C168.267 61.92 169.027 62.08 169.067 63.2C169.147 65.32 169.147 69.84 169.147 72.72C169.147 73.36 169.427 74.16 169.707 74.6C170.507 75.84 171.787 76.48 173.227 76.48C174.347 76.48 175.227 76.28 175.907 76C176.427 75.8 178.027 74.76 179.187 73.96C179.267 73.92 179.387 74.04 179.387 74.24C179.347 74.92 179.227 75.68 179.227 75.92C179.227 76.2 179.467 76.48 179.627 76.48C179.707 76.48 180.347 76.32 181.027 76.12C181.947 75.88 183.627 75.44 184.667 75.36C184.827 75.36 185.107 75.08 185.107 74.96C185.067 74.84 184.787 74.2 184.627 74.2C184.147 74.2 182.907 74.4 182.627 74.4C182.307 74.4 182.147 73.92 182.147 73.84C182.147 70.56 182.467 61.68 182.547 60.56C182.547 60.4 182.467 59.96 182.267 59.96C181.987 59.96 181.707 60 181.307 60.12C180.387 60.36 178.627 60.56 177.027 60.56C176.627 60.56 176.107 60.76 176.107 60.92C176.107 61.24 176.627 61.48 176.907 61.56L178.747 62.04C178.987 62.12 179.427 62.68 179.427 62.92L179.347 72.12C179.347 72.28 178.987 72.88 178.747 73.08C177.747 73.96 176.667 74.48 175.707 74.48ZM196.189 59.96C195.109 59.96 192.509 60.52 190.949 61.64C188.629 63.2 187.069 65.64 187.069 68.56C187.069 70.24 187.629 72.12 188.309 73.24C189.589 75.12 191.709 76.44 194.229 76.44C196.309 76.44 198.589 75.52 199.989 73.96C200.309 73.64 200.509 73.24 200.509 72.8C200.509 72.6 200.189 72.48 199.749 72.8C198.709 73.52 197.669 74 196.189 74C194.109 74 192.149 73 191.149 71.32C190.989 71.08 190.109 69.64 190.109 67.32C190.109 65.56 190.709 63.92 191.789 62.72C192.429 61.92 193.629 61.36 194.269 61.36C195.629 61.36 196.309 61.96 197.629 62.92C198.269 63.36 198.949 63.68 199.189 63.68C199.349 63.68 200.509 62.72 200.509 62.08C200.509 61.84 200.309 61.16 199.909 60.88C199.149 60.28 197.389 59.96 196.189 59.96ZM208.013 60.4C207.853 60.4 207.693 60.2 207.693 60.08V58.2C207.693 58.12 207.333 57.76 207.133 57.76C206.973 57.76 206.693 58.08 206.213 58.64C205.653 59.32 204.413 60.28 203.013 61.4C202.893 61.52 202.773 61.68 202.773 61.84C202.773 61.96 203.013 62.16 203.333 62.28C204.133 62.52 204.853 62.8 204.853 63.08C204.853 64.48 204.693 70.48 204.693 71.96C204.693 73.08 204.773 73.92 205.213 74.6C205.693 75.48 207.093 76.48 208.733 76.48C210.533 76.48 211.933 75.76 213.013 74.72C213.293 74.44 213.573 74.04 213.573 73.72C213.573 73.36 213.373 73.28 213.333 73.28C213.173 73.28 213.093 73.32 212.733 73.52C212.133 73.88 211.293 74.12 210.773 74.12C209.933 74.12 209.093 74.04 208.333 73.36C207.893 72.92 207.653 72.4 207.653 71.4C207.653 69.48 207.693 63.6 207.733 62.8C207.733 62.72 207.893 62.52 208.093 62.52H212.453C212.733 62.52 213.493 62.44 213.493 62.08C213.493 61.56 213.373 60.44 213.373 60.56C213.373 60.44 212.973 60.24 212.933 60.24C212.773 60.24 208.893 60.4 208.013 60.4ZM219.395 76C220.235 76 222.235 76.12 222.515 76.12C222.955 76.12 223.435 75.96 223.435 75.72C223.435 75.44 223.195 75.24 222.555 75.04C221.555 74.72 220.675 74.64 220.635 73.36C220.595 71.96 220.555 70.28 220.555 68.04C220.555 65.76 220.795 60.56 220.795 60.12C220.795 60.08 220.595 59.68 220.435 59.68C219.835 59.84 217.955 60.72 216.475 61.04C216.035 61.12 215.675 61.44 215.675 61.72C215.675 61.88 215.755 62 215.995 62.16C217.155 63 217.595 63.32 217.635 63.6C217.715 64.08 217.675 68.64 217.675 69.84C217.675 71 217.635 73.4 217.515 73.96C217.435 74.36 216.835 74.84 215.915 75.08C215.235 75.28 214.955 75.48 214.955 75.72C214.955 76 215.355 76.16 215.995 76.16C216.675 76.16 218.075 76 219.395 76ZM219.315 51.72C218.755 51.72 218.155 51.88 217.755 52.24C217.435 52.68 217.275 53.32 217.275 53.68C217.275 54.36 217.555 54.8 217.875 55.16C218.235 55.48 218.875 55.64 219.155 55.64C219.955 55.64 221.075 54.76 221.075 53.68C221.075 52.96 220.395 51.72 219.315 51.72ZM233.992 59.84C231.312 59.84 229.312 60.96 228.072 62.04C226.552 63.32 225.272 65.24 225.272 68.28C225.272 70.28 226.512 73 228.232 74.4C229.712 75.64 231.712 76.48 233.552 76.48C235.352 76.48 236.912 76.04 238.512 74.88C239.992 73.92 241.992 71.32 241.992 68C241.992 62.96 237.952 59.84 233.992 59.84ZM233.232 61.04C234.272 61.04 235.712 61.64 236.592 62.6C238.112 64.36 238.592 66.64 238.592 68.72C238.592 70.44 237.792 72.92 236.792 74C235.672 75.12 234.792 75.32 234.352 75.32C232.432 75.32 230.152 73.88 229.152 70.88C228.832 69.88 228.672 68.64 228.672 67.32C228.672 65.24 229.592 63.16 230.632 62.2C231.472 61.48 232.392 61.04 233.232 61.04ZM245.253 61.76C245.253 61.88 245.493 62.08 246.013 62.44C246.893 63.16 246.973 63.56 246.973 64C246.973 68.08 246.893 71.56 246.773 72.76C246.653 74.2 246.413 74.6 245.093 75C244.653 75.12 244.253 75.32 244.253 75.6C244.253 75.96 244.693 76.12 245.293 76.12C245.973 76.12 247.133 76 248.613 76C249.453 76 250.573 76.04 251.053 76.04C251.613 76.04 252.053 75.84 252.053 75.56C252.053 75.32 251.733 75.08 251.333 74.96C250.053 74.6 249.893 74.28 249.853 73.72C249.813 73.24 249.813 64.64 249.813 64.12C249.813 63.76 250.093 63.28 250.213 63.16C250.973 62.48 252.013 61.88 253.773 61.88C254.693 61.88 255.893 62.32 256.333 62.64C256.813 63 257.533 64.16 257.533 65.6C257.533 66.76 257.493 71.6 257.413 72.92C257.333 74.24 257.133 74.56 256.173 74.92C255.693 75.08 255.253 75.32 255.253 75.6C255.253 75.92 255.813 76.08 256.173 76.08C256.693 76.08 257.933 76 258.933 76C260.053 76 260.973 76.08 261.893 76.08C262.533 76.08 263.093 75.92 263.093 75.64C263.093 75.36 262.853 75.16 262.093 74.96C261.093 74.68 260.693 74.16 260.613 73.56C260.573 73 260.493 67.04 260.493 66.28C260.493 64.28 259.973 62.44 259.093 61.4C258.533 60.76 257.413 59.88 255.453 59.88C253.773 59.88 251.693 61 250.093 62.08C250.053 62.08 249.853 62.16 249.853 61.96C249.853 61.6 250.013 60.64 250.013 59.96C250.013 59.8 249.813 59.36 249.613 59.36C249.413 59.36 249.053 59.56 248.653 59.8C248.093 60.2 246.653 60.72 245.973 60.96C245.693 61.08 245.253 61.48 245.253 61.76ZM282.361 59.96C281.281 59.96 278.681 60.52 277.121 61.64C274.801 63.2 273.241 65.64 273.241 68.56C273.241 70.24 273.801 72.12 274.481 73.24C275.761 75.12 277.881 76.44 280.401 76.44C282.481 76.44 284.761 75.52 286.161 73.96C286.481 73.64 286.681 73.24 286.681 72.8C286.681 72.6 286.361 72.48 285.921 72.8C284.881 73.52 283.841 74 282.361 74C280.281 74 278.321 73 277.321 71.32C277.161 71.08 276.281 69.64 276.281 67.32C276.281 65.56 276.881 63.92 277.961 62.72C278.601 61.92 279.801 61.36 280.441 61.36C281.801 61.36 282.481 61.96 283.801 62.92C284.441 63.36 285.121 63.68 285.361 63.68C285.521 63.68 286.681 62.72 286.681 62.08C286.681 61.84 286.481 61.16 286.081 60.88C285.321 60.28 283.561 59.96 282.361 59.96ZM295.789 59.84C295.029 59.84 293.229 60.52 292.069 61.36C290.189 62.6 289.069 63.72 289.069 64.88C289.069 65.08 289.309 65.4 289.549 65.4C289.749 65.4 291.749 64.4 292.149 64.08C292.229 64 292.389 63.76 292.389 63.64C292.309 62.84 292.429 62.12 292.669 62C292.949 61.8 293.469 61.56 294.309 61.56C296.269 61.56 297.429 63.24 297.429 64.24C297.429 64.72 297.389 67.16 297.349 67.52C297.349 67.76 297.109 67.96 296.189 68.24C295.309 68.52 292.109 69.4 291.509 69.64C290.909 69.92 290.309 70.12 289.909 70.64C289.469 71.2 289.149 71.96 289.149 72.68C289.149 74.68 290.509 76.4 291.909 76.4C292.109 76.4 293.069 76.32 293.509 76.16C293.909 76.04 295.629 75.36 297.109 74.32C297.189 74.28 297.349 74.44 297.349 74.48C297.829 75.96 298.989 76.48 299.909 76.48C301.709 76.48 303.509 74.76 303.509 74C303.509 73.96 303.509 73.72 303.389 73.6C303.309 73.48 303.269 73.4 303.149 73.48C302.709 73.8 301.789 74.08 301.629 74.08C301.309 74.08 300.029 73.92 300.029 72.08C300.029 71.64 300.189 66.6 300.189 65.04C300.189 63.36 299.989 62.56 299.389 61.72C298.789 60.84 297.789 59.84 295.789 59.84ZM294.589 74.32C293.749 74.32 292.069 73.68 292.069 71.92C292.069 70.96 292.469 70.68 292.869 70.4C293.949 69.88 295.869 69.2 296.989 69.2C297.149 69.2 297.309 69.4 297.309 69.52C297.309 70.32 297.309 71.68 297.229 72.64C297.229 72.72 296.989 73.48 296.749 73.64C295.989 74.04 295.189 74.32 294.589 74.32ZM305.487 61.76C305.487 61.88 305.727 62.08 306.247 62.44C307.127 63.16 307.207 63.56 307.207 64C307.207 68.08 307.127 71.56 307.007 72.76C306.887 74.2 306.647 74.6 305.327 75C304.887 75.12 304.487 75.32 304.487 75.6C304.487 75.96 304.927 76.12 305.527 76.12C306.207 76.12 307.367 76 308.847 76C309.687 76 310.807 76.04 311.287 76.04C311.847 76.04 312.287 75.84 312.287 75.56C312.287 75.32 311.967 75.08 311.567 74.96C310.287 74.6 310.127 74.28 310.087 73.72C310.047 73.24 310.047 64.64 310.047 64.12C310.047 63.76 310.327 63.28 310.447 63.16C311.207 62.48 312.247 61.88 314.007 61.88C314.927 61.88 316.127 62.32 316.567 62.64C317.047 63 317.767 64.16 317.767 65.6C317.767 66.76 317.727 71.6 317.647 72.92C317.567 74.24 317.367 74.56 316.407 74.92C315.927 75.08 315.487 75.32 315.487 75.6C315.487 75.92 316.047 76.08 316.407 76.08C316.927 76.08 318.167 76 319.167 76C320.287 76 321.207 76.08 322.127 76.08C322.767 76.08 323.327 75.92 323.327 75.64C323.327 75.36 323.087 75.16 322.327 74.96C321.327 74.68 320.927 74.16 320.847 73.56C320.807 73 320.727 67.04 320.727 66.28C320.727 64.28 320.207 62.44 319.327 61.4C318.767 60.76 317.647 59.88 315.687 59.88C314.007 59.88 311.927 61 310.327 62.08C310.287 62.08 310.087 62.16 310.087 61.96C310.087 61.6 310.247 60.64 310.247 59.96C310.247 59.8 310.047 59.36 309.847 59.36C309.647 59.36 309.287 59.56 308.887 59.8C308.327 60.2 306.887 60.72 306.207 60.96C305.927 61.08 305.487 61.48 305.487 61.76ZM342.995 59.84C341.915 59.84 339.555 60.24 337.715 61.36C335.755 62.52 333.475 64.8 333.475 68.72C333.475 70.72 334.115 72.76 335.395 74.2C336.635 75.52 338.475 76.4 340.395 76.4C341.715 76.4 343.755 76.04 345.595 74.4C345.675 74.4 345.835 74.48 345.835 74.64C345.835 75.2 345.755 75.92 345.755 76.28C345.755 76.48 346.035 76.8 346.195 76.8C346.395 76.8 346.715 76.72 347.635 76.4C348.395 76.12 350.475 75.72 351.235 75.6C351.435 75.56 351.915 74.88 351.915 74.6C351.915 74.56 351.835 74.36 351.675 74.36C351.275 74.4 349.955 74.68 349.515 74.68C349.275 74.68 348.955 74.52 348.875 73.04C348.875 72.28 348.795 71.64 348.795 63.92C348.795 51.68 348.955 50.24 349.155 48.12C349.195 47.76 348.955 47.48 348.835 47.48C348.675 47.48 348.555 47.52 348.315 47.6C347.275 48 345.155 48.6 344.235 48.72C343.995 48.76 343.555 49.24 343.555 49.4C343.555 49.48 343.595 49.56 343.955 49.76C345.795 50.72 345.795 51.2 345.835 51.4C345.955 52.36 346.075 58.48 345.875 59.56C345.835 59.76 345.715 60.04 345.555 60C345.075 59.92 344.435 59.84 342.995 59.84ZM341.515 61.16C342.315 61.16 343.835 61.6 344.955 62.72C345.435 63.2 345.795 63.92 345.835 64.24C345.955 66.12 345.995 68.32 345.955 70.88C345.915 72.16 345.395 73.44 345.315 73.52C344.595 74.04 343.675 74.48 342.395 74.48C338.955 74.48 336.715 70.8 336.715 67.6C336.715 65.36 337.635 63.32 338.395 62.56C339.115 61.84 340.235 61.16 341.515 61.16ZM357.911 76C358.751 76 360.751 76.12 361.031 76.12C361.471 76.12 361.951 75.96 361.951 75.72C361.951 75.44 361.711 75.24 361.071 75.04C360.071 74.72 359.191 74.64 359.151 73.36C359.111 71.96 359.071 70.28 359.071 68.04C359.071 65.76 359.311 60.56 359.311 60.12C359.311 60.08 359.111 59.68 358.951 59.68C358.351 59.84 356.471 60.72 354.991 61.04C354.551 61.12 354.191 61.44 354.191 61.72C354.191 61.88 354.271 62 354.511 62.16C355.671 63 356.111 63.32 356.151 63.6C356.231 64.08 356.191 68.64 356.191 69.84C356.191 71 356.151 73.4 356.031 73.96C355.951 74.36 355.351 74.84 354.431 75.08C353.751 75.28 353.471 75.48 353.471 75.72C353.471 76 353.871 76.16 354.511 76.16C355.191 76.16 356.591 76 357.911 76ZM357.831 51.72C357.271 51.72 356.671 51.88 356.271 52.24C355.951 52.68 355.791 53.32 355.791 53.68C355.791 54.36 356.071 54.8 356.391 55.16C356.751 55.48 357.391 55.64 357.671 55.64C358.471 55.64 359.591 54.76 359.591 53.68C359.591 52.96 358.911 51.72 357.831 51.72ZM369.908 59.84C368.548 59.84 367.468 60.2 366.708 60.68C365.188 61.6 364.508 62.92 364.508 64.28C364.508 66.16 365.788 67.56 366.988 68.32C368.228 69.12 368.468 69.32 369.428 70C370.668 70.76 371.228 71.6 371.228 72.68C371.228 73.44 370.908 74.4 370.308 74.88C369.868 75.2 369.228 75.48 368.708 75.48C367.268 75.48 366.188 74.68 365.068 72.64C364.828 72.2 364.548 71.72 364.228 71.72C363.988 71.72 363.908 72.12 363.908 72.56C363.908 73.72 364.388 75.4 364.508 75.6C365.188 76.16 367.188 76.48 368.388 76.48C369.628 76.48 371.028 76.04 371.748 75.56C372.748 74.84 374.068 73.48 374.068 71.64C374.068 69.84 373.188 68.48 370.948 67.16C368.268 65.68 366.988 64.64 366.988 63.28C366.988 62.44 367.748 60.8 369.388 60.8C370.708 60.8 371.708 61.6 372.588 63.48C372.788 63.92 373.028 64.16 373.188 64.16C373.508 64.16 373.668 63.8 373.668 63.44C373.668 63.16 373.548 61.8 373.548 61.08C373.548 60.84 373.308 60.56 373.228 60.52C373.148 60.48 372.388 60.16 371.948 60.08C371.508 59.96 370.668 59.84 369.908 59.84ZM381.685 60.4C381.525 60.4 381.365 60.2 381.365 60.08V58.2C381.365 58.12 381.005 57.76 380.805 57.76C380.645 57.76 380.365 58.08 379.885 58.64C379.325 59.32 378.085 60.28 376.685 61.4C376.565 61.52 376.445 61.68 376.445 61.84C376.445 61.96 376.685 62.16 377.005 62.28C377.805 62.52 378.525 62.8 378.525 63.08C378.525 64.48 378.365 70.48 378.365 71.96C378.365 73.08 378.445 73.92 378.885 74.6C379.365 75.48 380.765 76.48 382.405 76.48C384.205 76.48 385.605 75.76 386.685 74.72C386.965 74.44 387.245 74.04 387.245 73.72C387.245 73.36 387.045 73.28 387.005 73.28C386.845 73.28 386.765 73.32 386.405 73.52C385.805 73.88 384.965 74.12 384.445 74.12C383.605 74.12 382.765 74.04 382.005 73.36C381.565 72.92 381.325 72.4 381.325 71.4C381.325 69.48 381.365 63.6 381.405 62.8C381.405 62.72 381.565 62.52 381.765 62.52H386.125C386.405 62.52 387.165 62.44 387.165 62.08C387.165 61.56 387.045 60.44 387.045 60.56C387.045 60.44 386.645 60.24 386.605 60.24C386.445 60.24 382.565 60.4 381.685 60.4ZM393.067 76C393.907 76 395.907 76.12 396.187 76.12C396.627 76.12 397.107 75.96 397.107 75.72C397.107 75.44 396.867 75.24 396.227 75.04C395.227 74.72 394.347 74.64 394.307 73.36C394.267 71.96 394.227 70.28 394.227 68.04C394.227 65.76 394.467 60.56 394.467 60.12C394.467 60.08 394.267 59.68 394.107 59.68C393.507 59.84 391.627 60.72 390.147 61.04C389.707 61.12 389.347 61.44 389.347 61.72C389.347 61.88 389.427 62 389.667 62.16C390.827 63 391.267 63.32 391.307 63.6C391.387 64.08 391.347 68.64 391.347 69.84C391.347 71 391.307 73.4 391.187 73.96C391.107 74.36 390.507 74.84 389.587 75.08C388.907 75.28 388.627 75.48 388.627 75.72C388.627 76 389.027 76.16 389.667 76.16C390.347 76.16 391.747 76 393.067 76ZM392.987 51.72C392.427 51.72 391.827 51.88 391.427 52.24C391.107 52.68 390.947 53.32 390.947 53.68C390.947 54.36 391.227 54.8 391.547 55.16C391.907 55.48 392.547 55.64 392.827 55.64C393.627 55.64 394.747 54.76 394.747 53.68C394.747 52.96 394.067 51.72 392.987 51.72ZM399.55 61.76C399.55 61.88 399.79 62.08 400.31 62.44C401.19 63.16 401.27 63.56 401.27 64C401.27 68.08 401.19 71.56 401.07 72.76C400.95 74.2 400.71 74.6 399.39 75C398.95 75.12 398.55 75.32 398.55 75.6C398.55 75.96 398.99 76.12 399.59 76.12C400.27 76.12 401.43 76 402.91 76C403.75 76 404.87 76.04 405.35 76.04C405.91 76.04 406.35 75.84 406.35 75.56C406.35 75.32 406.03 75.08 405.63 74.96C404.35 74.6 404.19 74.28 404.15 73.72C404.11 73.24 404.11 64.64 404.11 64.12C404.11 63.76 404.39 63.28 404.51 63.16C405.27 62.48 406.31 61.88 408.07 61.88C408.99 61.88 410.19 62.32 410.63 62.64C411.11 63 411.83 64.16 411.83 65.6C411.83 66.76 411.79 71.6 411.71 72.92C411.63 74.24 411.43 74.56 410.47 74.92C409.99 75.08 409.55 75.32 409.55 75.6C409.55 75.92 410.11 76.08 410.47 76.08C410.99 76.08 412.23 76 413.23 76C414.35 76 415.27 76.08 416.19 76.08C416.83 76.08 417.39 75.92 417.39 75.64C417.39 75.36 417.15 75.16 416.39 74.96C415.39 74.68 414.99 74.16 414.91 73.56C414.87 73 414.79 67.04 414.79 66.28C414.79 64.28 414.27 62.44 413.39 61.4C412.83 60.76 411.71 59.88 409.75 59.88C408.07 59.88 405.99 61 404.39 62.08C404.35 62.08 404.15 62.16 404.15 61.96C404.15 61.6 404.31 60.64 404.31 59.96C404.31 59.8 404.11 59.36 403.91 59.36C403.71 59.36 403.35 59.56 402.95 59.8C402.39 60.2 400.95 60.72 400.27 60.96C399.99 61.08 399.55 61.48 399.55 61.76ZM426.255 59.68C424.695 59.68 423.295 60.12 422.175 60.96C420.615 62.12 419.735 63.56 419.735 65.52C419.735 68.44 421.655 69.96 422.775 70.6C422.895 70.72 423.015 70.88 422.935 70.96C422.295 71.6 420.575 72.56 419.975 73.04C419.895 73.12 419.775 73.32 419.775 73.4C419.775 74.68 420.335 75.8 421.135 76.36C421.655 76.76 422.415 77 422.695 77.16C422.815 77.24 422.895 77.36 422.815 77.44C422.295 77.88 421.055 78.76 420.055 79.6C419.695 79.88 418.895 80.36 418.895 82.12C418.895 83.24 419.615 84.72 420.735 85.6C422.415 86.84 424.295 87.08 425.735 87.08C427.175 87.08 429.295 86.8 431.495 85.36C433.215 84.24 435.255 82.2 435.255 79.2C435.255 78.16 434.695 76.64 433.575 75.68C432.855 75.12 431.975 74.76 431.655 74.72C430.375 74.52 426.055 74.48 424.295 74.4C423.855 74.36 422.655 73.64 422.655 72.6C422.655 72.28 423.535 71.44 423.935 71.24C424.095 71.16 424.295 71.16 424.535 71.2C424.815 71.2 425.695 71.24 425.935 71.24C426.895 71.24 428.535 71.08 430.295 69.72C431.855 68.52 432.535 66.88 432.535 64.68C432.535 64 432.415 63.28 432.215 62.68C432.175 62.56 432.295 62.36 432.455 62.36C433.455 62.44 434.895 62.44 435.135 62.44C435.295 62.44 435.855 61.72 435.855 61.16C435.855 61 435.735 60.76 435.495 60.72C434.655 60.52 431.735 60.48 430.855 60.4L429.735 60.16C428.575 59.88 427.855 59.68 426.255 59.68ZM427.215 85.4C425.735 85.4 424.375 85 423.295 84.16C422.455 83.44 421.895 82.4 421.895 81.12C421.895 80.2 422.415 78.72 423.695 77.84C423.935 77.68 424.575 77.44 425.855 77.44C427.535 77.44 428.815 77.44 429.895 77.64C430.855 77.84 431.615 78.36 432.015 78.88C432.495 79.52 432.575 80.44 432.575 80.96C432.575 82.12 431.975 83.64 430.375 84.68C429.935 84.92 428.775 85.4 427.215 85.4ZM425.935 60.64C427.095 60.64 428.055 61.28 428.815 62.4C429.455 63.36 429.695 64.68 429.695 65.4C429.695 67.04 429.175 69 428.175 69.64C427.615 70 427.135 70.2 426.855 70.2C424.255 70.2 422.895 67.2 422.895 65.2C422.895 63.32 423.335 62.28 423.935 61.64C424.295 61.16 425.215 60.64 425.935 60.64ZM445.863 74.48C444.903 74.48 444.183 74.48 443.143 73.68C442.583 73.28 442.143 72.36 442.143 71.44C442.143 69.64 442.303 62.08 442.263 60.72C442.263 60.48 442.103 60.12 441.943 60.12C441.783 60.12 438.823 60.56 437.703 60.56C437.223 60.56 437.023 60.8 437.023 60.92C437.023 61.28 437.383 61.48 437.743 61.64C438.423 61.92 439.183 62.08 439.223 63.2C439.303 65.32 439.303 69.84 439.303 72.72C439.303 73.36 439.583 74.16 439.863 74.6C440.663 75.84 441.943 76.48 443.383 76.48C444.503 76.48 445.383 76.28 446.063 76C446.583 75.8 448.183 74.76 449.343 73.96C449.423 73.92 449.543 74.04 449.543 74.24C449.503 74.92 449.383 75.68 449.383 75.92C449.383 76.2 449.623 76.48 449.783 76.48C449.863 76.48 450.503 76.32 451.183 76.12C452.103 75.88 453.783 75.44 454.823 75.36C454.983 75.36 455.263 75.08 455.263 74.96C455.223 74.84 454.943 74.2 454.783 74.2C454.303 74.2 453.063 74.4 452.783 74.4C452.463 74.4 452.303 73.92 452.303 73.84C452.303 70.56 452.623 61.68 452.703 60.56C452.703 60.4 452.623 59.96 452.423 59.96C452.143 59.96 451.863 60 451.463 60.12C450.543 60.36 448.783 60.56 447.183 60.56C446.783 60.56 446.263 60.76 446.263 60.92C446.263 61.24 446.783 61.48 447.063 61.56L448.903 62.04C449.143 62.12 449.583 62.68 449.583 62.92L449.503 72.12C449.503 72.28 449.143 72.88 448.903 73.08C447.903 73.96 446.823 74.48 445.863 74.48ZM461.465 76C462.305 76 464.305 76.12 464.585 76.12C465.025 76.12 465.505 75.96 465.505 75.72C465.505 75.44 465.265 75.24 464.625 75.04C463.625 74.72 462.745 74.64 462.705 73.36C462.665 71.96 462.625 70.28 462.625 68.04C462.625 65.76 462.865 60.56 462.865 60.12C462.865 60.08 462.665 59.68 462.505 59.68C461.905 59.84 460.025 60.72 458.545 61.04C458.105 61.12 457.745 61.44 457.745 61.72C457.745 61.88 457.825 62 458.065 62.16C459.225 63 459.665 63.32 459.705 63.6C459.785 64.08 459.745 68.64 459.745 69.84C459.745 71 459.705 73.4 459.585 73.96C459.505 74.36 458.905 74.84 457.985 75.08C457.305 75.28 457.025 75.48 457.025 75.72C457.025 76 457.425 76.16 458.065 76.16C458.745 76.16 460.145 76 461.465 76ZM461.385 51.72C460.825 51.72 460.225 51.88 459.825 52.24C459.505 52.68 459.345 53.32 459.345 53.68C459.345 54.36 459.625 54.8 459.945 55.16C460.305 55.48 460.945 55.64 461.225 55.64C462.025 55.64 463.145 54.76 463.145 53.68C463.145 52.96 462.465 51.72 461.385 51.72ZM473.463 59.84C472.103 59.84 471.023 60.2 470.263 60.68C468.743 61.6 468.063 62.92 468.063 64.28C468.063 66.16 469.343 67.56 470.543 68.32C471.783 69.12 472.023 69.32 472.983 70C474.223 70.76 474.783 71.6 474.783 72.68C474.783 73.44 474.463 74.4 473.863 74.88C473.423 75.2 472.783 75.48 472.263 75.48C470.823 75.48 469.743 74.68 468.623 72.64C468.383 72.2 468.103 71.72 467.783 71.72C467.543 71.72 467.463 72.12 467.463 72.56C467.463 73.72 467.943 75.4 468.063 75.6C468.743 76.16 470.743 76.48 471.942 76.48C473.183 76.48 474.583 76.04 475.303 75.56C476.303 74.84 477.623 73.48 477.623 71.64C477.623 69.84 476.743 68.48 474.503 67.16C471.823 65.68 470.543 64.64 470.543 63.28C470.543 62.44 471.303 60.8 472.943 60.8C474.263 60.8 475.263 61.6 476.143 63.48C476.342 63.92 476.583 64.16 476.743 64.16C477.063 64.16 477.223 63.8 477.223 63.44C477.223 63.16 477.103 61.8 477.103 61.08C477.103 60.84 476.863 60.56 476.783 60.52C476.703 60.48 475.943 60.16 475.503 60.08C475.063 59.96 474.223 59.84 473.463 59.84ZM490.514 59.84C488.834 59.84 487.114 60.68 485.474 62.16C485.434 62.2 485.194 62.16 485.194 61.92C485.194 60.76 485.354 50.8 485.754 47.92C485.754 47.8 485.674 47.48 485.514 47.48C485.274 47.48 484.914 47.68 484.754 47.76C483.794 48.4 481.994 48.8 480.754 49.16C480.674 49.2 480.634 49.28 480.634 49.36C480.634 49.68 480.874 50.08 481.034 50.16C482.154 50.88 482.234 50.96 482.354 52C482.514 53.16 482.474 59.92 482.474 61.52C482.474 65.56 482.194 70.96 482.074 72.64C481.954 74.12 481.554 74.56 480.514 74.92C479.674 75.16 479.354 75.4 479.354 75.6C479.354 76 479.914 76.12 480.274 76.12C480.954 76.12 482.394 76 483.314 76C484.274 76 486.274 76.08 486.594 76.08C487.154 76.08 487.594 75.96 487.594 75.6C487.594 75.4 487.274 75.12 486.714 74.96C485.794 74.72 485.234 74.48 485.154 73.16C485.114 71.72 485.114 66.52 485.234 64.84C485.274 63.6 485.794 62.96 485.874 62.88C486.034 62.72 487.354 61.96 489.074 61.96C490.634 61.96 491.674 62.52 492.314 63.28C492.754 63.8 492.954 65.08 492.954 67.28C492.954 67.92 493.034 72.32 492.954 73.08C492.794 74.6 492.674 74.72 491.674 75.04C491.194 75.16 490.834 75.36 490.834 75.6C490.834 75.88 491.034 76.08 491.634 76.08C492.794 76.08 493.594 76 494.514 76C495.874 76 496.314 76.12 497.674 76.12C498.434 76.12 498.754 75.96 498.754 75.6C498.754 75.36 498.434 75.12 497.634 74.96C496.594 74.72 496.074 74.4 496.074 73.4L495.914 66C495.914 64.28 495.554 62.76 494.754 61.68C493.914 60.52 492.514 59.84 490.514 59.84ZM519.631 59.92C518.511 59.92 517.311 60.12 516.671 60.4C516.111 60.64 515.031 61.2 514.071 61.84C513.911 61.96 513.751 61.8 513.751 61.64C513.791 61 513.791 60.24 513.871 59.6C513.871 59.44 513.551 59.12 513.431 59.12C513.351 59.12 513.031 59.28 512.631 59.48C511.951 59.88 510.191 60.72 509.591 60.88C509.431 60.92 509.031 61.4 509.031 61.6C509.031 61.8 509.511 62.16 510.511 62.88C510.631 62.96 510.831 63.24 510.831 64.92C510.871 67.28 510.831 70.28 510.831 73C510.831 77.08 510.791 80.36 510.711 81.68C510.551 84.56 510.351 84.92 508.231 85.36C507.591 85.48 507.311 85.8 507.311 85.96C507.311 86.32 507.911 86.48 508.511 86.48C509.711 86.48 510.111 86.36 511.071 86.36C512.631 86.36 514.951 86.56 515.831 86.56C516.351 86.56 516.871 86.36 516.871 86.04C516.871 85.76 516.551 85.56 515.751 85.32C514.231 84.84 513.951 84.36 513.831 83.32C513.711 82.2 513.671 80.56 513.671 76.68C513.671 76.48 513.831 76.16 513.951 76.16C514.471 76.24 515.271 76.32 516.191 76.32C517.991 76.32 520.351 76 522.551 74.28C525.111 72.36 525.951 69.4 525.951 67.4C525.951 65.2 525.031 63.24 524.071 62.16C522.871 60.84 521.071 59.92 519.631 59.92ZM517.551 61.96C518.471 61.96 520.111 62.52 521.151 63.6C522.791 65.4 522.791 67.56 522.791 68.48C522.791 69.68 522.071 72.68 520.071 74.36C519.511 74.84 518.671 75.04 518.231 75.04C517.231 75.04 515.311 74.36 514.231 72.84C513.951 72.48 513.791 71.8 513.711 71.08C513.551 69.44 513.591 65.08 513.791 63.88C513.911 63.16 514.111 62.84 514.311 62.68C514.751 62.32 515.871 61.96 517.551 61.96ZM529.118 61.92C529.118 62.08 529.518 62.24 530.478 63C530.918 63.28 530.918 63.8 530.918 64.2V71.84C530.878 74.24 530.758 74.64 529.198 75.16C528.878 75.28 528.398 75.44 528.398 75.68C528.398 76 528.798 76.16 529.238 76.16C530.198 76.16 530.678 76 531.878 76C534.198 76 535.598 76.2 536.598 76.2C537.198 76.2 537.558 76.04 537.558 75.84C537.558 75.68 537.478 75.4 536.838 75.2L534.998 74.72C534.278 74.6 534.038 73.84 533.958 72.68C533.918 72.08 533.718 64.84 533.718 64.04C533.718 63.84 533.838 63.48 534.118 63.16C534.518 62.72 535.198 62.6 535.878 62.6C536.678 62.6 537.638 63.08 538.078 63.48C538.198 63.56 538.558 63.64 538.638 63.6C538.878 63.48 539.838 62.4 540.278 61.76C540.398 61.56 540.518 61.28 540.518 61.2C540.518 60.84 540.158 59.84 538.518 59.84C537.278 59.84 535.518 60.84 533.958 62.32C533.878 62.36 533.678 62.32 533.678 62.16C533.678 61.4 533.758 60.68 533.758 59.96C533.758 59.84 533.558 59.48 533.398 59.48C533.278 59.48 533.078 59.64 532.598 59.96C532.198 60.2 530.958 60.8 529.638 61.24C529.198 61.4 529.118 61.8 529.118 61.92ZM550.359 59.84C547.679 59.84 545.679 60.96 544.439 62.04C542.919 63.32 541.639 65.24 541.639 68.28C541.639 70.28 542.879 73 544.599 74.4C546.079 75.64 548.079 76.48 549.919 76.48C551.719 76.48 553.279 76.04 554.879 74.88C556.359 73.92 558.359 71.32 558.359 68C558.359 62.96 554.319 59.84 550.359 59.84ZM549.599 61.04C550.639 61.04 552.079 61.64 552.959 62.6C554.479 64.36 554.959 66.64 554.959 68.72C554.959 70.44 554.159 72.92 553.159 74C552.039 75.12 551.159 75.32 550.719 75.32C548.799 75.32 546.519 73.88 545.519 70.88C545.199 69.88 545.039 68.64 545.039 67.32C545.039 65.24 545.959 63.16 546.999 62.2C547.839 61.48 548.759 61.04 549.599 61.04ZM577.973 67.64C577.973 65.36 577.133 63.12 575.333 61.6C574.053 60.48 572.253 59.84 570.372 59.84C569.053 59.84 567.133 60.32 565.813 61.2C565.773 61.24 565.573 61.12 565.573 61.04C565.493 60.6 565.493 58.64 565.493 57.6C565.493 54.4 565.733 50.6 565.853 47.96C565.853 47.8 565.573 47.44 565.413 47.44C565.333 47.44 564.933 47.6 564.413 47.92C563.613 48.4 562.253 48.76 561.132 49.16C561.013 49.2 560.653 49.68 560.653 49.72C560.653 49.92 560.853 50.04 561.453 50.48C562.213 51.12 562.413 51.64 562.452 51.84C562.533 52.4 562.653 58.32 562.653 62.12C562.653 65.4 562.613 72.28 562.413 75.4C562.413 75.68 562.493 75.92 562.653 75.92C562.733 75.92 562.973 75.88 563.133 75.8C563.453 75.64 563.813 75.6 563.973 75.68C564.893 76 567.653 76.48 569.053 76.48C570.453 76.48 572.853 76.04 574.493 74.68C576.253 73.32 577.973 70.96 577.973 67.64ZM574.653 68.48C574.653 70.28 573.933 72.76 572.813 73.84C571.893 74.68 570.813 75.2 570.372 75.2C569.653 75.2 567.773 74.68 566.653 73.52C566.133 73 565.893 72.36 565.853 71.52C565.653 69.36 565.533 67.2 565.533 65.12C565.533 64.28 565.573 63.16 565.613 62.8C565.653 62.52 565.813 62.28 565.933 62.2C566.253 61.96 567.013 61.6 568.333 61.6C570.213 61.6 571.773 62.4 572.693 63.32C574.053 64.8 574.653 67.04 574.653 68.48ZM581.062 49.6C581.062 49.76 581.182 49.88 581.862 50.36C582.782 50.92 582.782 51.16 582.822 51.48C582.942 52.56 582.942 56.88 582.942 59.84C582.942 66.16 582.822 70.36 582.702 72C582.542 74 582.462 74.72 580.622 75.12C580.182 75.2 579.742 75.4 579.742 75.68C579.742 76 580.062 76.12 580.862 76.12C581.702 76.12 583.462 76 584.382 76C585.102 76 586.822 76.12 587.782 76.12C588.262 76.12 588.822 75.96 588.822 75.68C588.822 75.44 588.502 75.24 587.902 75.08C586.182 74.6 586.022 74.12 585.862 73.32C585.662 72.24 585.742 64.6 585.742 58.76C585.742 53.4 585.982 48.88 586.102 47.88C586.102 47.72 585.862 47.4 585.742 47.48C584.662 48.16 583.462 48.4 581.622 49.04C581.182 49.16 581.062 49.44 581.062 49.6ZM598.348 59.88C597.668 59.88 596.348 60.12 595.308 60.6C592.188 62.04 590.507 65.24 590.507 68.44C590.507 73.12 593.388 76.4 597.708 76.4C599.988 76.4 602.108 75.44 603.508 73.4C603.628 73.2 603.788 72.76 603.788 72.44C603.788 72.24 603.708 71.96 603.468 71.96C603.308 71.96 603.108 72.2 602.948 72.44C602.268 73.44 601.068 73.88 599.308 73.88C597.388 73.88 595.708 72.88 594.828 71.68C593.948 70.52 593.308 68.68 593.308 67.12C593.308 66.72 593.388 66.04 593.508 65.72C593.548 65.6 593.708 65.4 593.828 65.4C595.668 65.44 602.508 65.44 602.948 65.44C603.388 65.44 603.708 65 603.708 64.76C603.708 63.36 603.188 62.24 602.308 61.4C601.308 60.4 599.747 59.88 598.348 59.88ZM597.948 60.92C599.388 60.92 600.588 62.2 600.588 63.32C600.588 64.12 600.188 64.32 599.228 64.32C597.228 64.36 595.108 64.36 594.068 64.32C593.988 64.32 593.828 64.08 593.908 63.88C594.628 62.04 596.148 60.92 597.948 60.92ZM606.541 62C606.541 62.2 606.821 62.4 607.941 63.44C608.301 63.8 608.221 64.32 608.221 64.52C608.221 67.28 608.181 71.28 608.101 72.44C607.941 74.16 607.701 74.76 606.421 75.08C605.701 75.24 605.461 75.52 605.461 75.68C605.461 75.96 605.861 76.12 606.461 76.12C607.341 76.12 608.141 76 609.461 76C610.981 76 612.461 76.08 612.621 76.08C613.141 76.08 613.701 75.96 613.701 75.68C613.701 75.36 613.381 75.2 612.621 74.96C611.341 74.56 611.181 73.92 611.181 73.16C611.181 70.12 611.181 65.08 611.261 64.04C611.301 63.6 611.421 63.28 611.701 63.04C612.661 62.28 613.581 61.8 614.901 61.8C616.341 61.8 617.381 62.32 617.901 63C618.181 63.36 618.421 63.88 618.421 65.04V72.88C618.421 74.32 618.261 74.72 616.901 75.04C616.261 75.2 616.101 75.48 616.101 75.6C616.101 75.76 616.221 76.08 617.141 76.08C617.981 76.08 619.141 76 619.981 76C620.901 76 622.101 76.08 622.981 76.08C623.621 76.08 623.941 75.88 623.941 75.6C623.941 75.4 623.541 75.16 623.101 75.04C621.741 74.72 621.541 74.32 621.421 73.04C621.341 72.16 621.421 64.6 621.421 64.32C621.421 64.04 621.701 63.28 621.821 63.16C622.381 62.68 623.101 61.92 624.901 61.92C626.581 61.92 627.461 62.56 627.941 63.32C628.341 64.04 628.581 64.6 628.581 66C628.581 67.32 628.661 71.8 628.661 72.76C628.661 74.16 628.501 74.64 627.221 75.04C626.781 75.16 626.341 75.32 626.341 75.56C626.341 75.84 626.581 76.08 627.341 76.08C628.261 76.08 628.861 76 630.061 76C631.061 76 632.141 76.12 632.941 76.12C633.701 76.12 634.061 75.96 634.061 75.68C634.061 75.44 633.821 75.28 633.301 75.12C631.861 74.72 631.621 73.96 631.581 73.24C631.581 69.96 631.661 67.16 631.501 65.08C631.421 63.64 631.061 62.24 630.181 61.24C629.341 60.36 628.221 59.88 626.741 59.88C626.021 59.88 625.101 60.08 624.181 60.52C623.141 61.04 622.101 61.68 621.341 62.24C621.181 62.32 621.101 62.24 621.021 62.08C620.861 61.8 620.461 61.2 619.741 60.68C619.021 60.16 618.061 59.88 616.621 59.88C614.741 59.88 612.261 61.4 611.261 62.2C611.101 62.36 611.021 62.08 611.021 61.96C611.021 61.56 611.181 60.44 611.181 59.88C611.181 59.8 610.901 59.52 610.701 59.48C610.621 59.48 610.541 59.52 610.381 59.64C609.941 59.92 608.141 60.96 607.341 61.28C606.901 61.52 606.541 61.76 606.541 62ZM642.056 59.84C640.696 59.84 639.616 60.2 638.856 60.68C637.336 61.6 636.656 62.92 636.656 64.28C636.656 66.16 637.936 67.56 639.136 68.32C640.376 69.12 640.616 69.32 641.576 70C642.816 70.76 643.376 71.6 643.376 72.68C643.376 73.44 643.056 74.4 642.456 74.88C642.016 75.2 641.376 75.48 640.856 75.48C639.416 75.48 638.336 74.68 637.216 72.64C636.976 72.2 636.696 71.72 636.376 71.72C636.136 71.72 636.056 72.12 636.056 72.56C636.056 73.72 636.536 75.4 636.656 75.6C637.336 76.16 639.336 76.48 640.536 76.48C641.776 76.48 643.176 76.04 643.896 75.56C644.896 74.84 646.216 73.48 646.216 71.64C646.216 69.84 645.336 68.48 643.096 67.16C640.416 65.68 639.136 64.64 639.136 63.28C639.136 62.44 639.896 60.8 641.536 60.8C642.856 60.8 643.856 61.6 644.736 63.48C644.936 63.92 645.176 64.16 645.336 64.16C645.656 64.16 645.816 63.8 645.816 63.44C645.816 63.16 645.696 61.8 645.696 61.08C645.696 60.84 645.456 60.56 645.376 60.52C645.296 60.48 644.536 60.16 644.096 60.08C643.656 59.96 642.816 59.84 642.056 59.84ZM662.037 60.4C661.877 60.4 661.717 60.2 661.717 60.08V58.2C661.717 58.12 661.357 57.76 661.157 57.76C660.997 57.76 660.717 58.08 660.237 58.64C659.677 59.32 658.437 60.28 657.037 61.4C656.917 61.52 656.797 61.68 656.797 61.84C656.797 61.96 657.037 62.16 657.357 62.28C658.157 62.52 658.877 62.8 658.877 63.08C658.877 64.48 658.717 70.48 658.717 71.96C658.717 73.08 658.797 73.92 659.237 74.6C659.717 75.48 661.117 76.48 662.757 76.48C664.557 76.48 665.957 75.76 667.037 74.72C667.317 74.44 667.597 74.04 667.597 73.72C667.597 73.36 667.397 73.28 667.357 73.28C667.197 73.28 667.117 73.32 666.757 73.52C666.157 73.88 665.317 74.12 664.797 74.12C663.957 74.12 663.117 74.04 662.357 73.36C661.917 72.92 661.677 72.4 661.677 71.4C661.677 69.48 661.717 63.6 661.757 62.8C661.757 62.72 661.917 62.52 662.117 62.52H666.477C666.757 62.52 667.517 62.44 667.517 62.08C667.517 61.56 667.397 60.44 667.397 60.56C667.397 60.44 666.997 60.24 666.957 60.24C666.797 60.24 662.917 60.4 662.037 60.4ZM679.498 59.84C677.818 59.84 676.098 60.68 674.458 62.16C674.418 62.2 674.178 62.16 674.178 61.92C674.178 60.76 674.338 50.8 674.738 47.92C674.738 47.8 674.658 47.48 674.498 47.48C674.258 47.48 673.898 47.68 673.738 47.76C672.778 48.4 670.978 48.8 669.738 49.16C669.658 49.2 669.618 49.28 669.618 49.36C669.618 49.68 669.858 50.08 670.018 50.16C671.138 50.88 671.218 50.96 671.338 52C671.498 53.16 671.458 59.92 671.458 61.52C671.458 65.56 671.178 70.96 671.058 72.64C670.938 74.12 670.538 74.56 669.498 74.92C668.658 75.16 668.338 75.4 668.338 75.6C668.338 76 668.898 76.12 669.258 76.12C669.938 76.12 671.378 76 672.298 76C673.258 76 675.258 76.08 675.578 76.08C676.138 76.08 676.578 75.96 676.578 75.6C676.578 75.4 676.258 75.12 675.698 74.96C674.778 74.72 674.218 74.48 674.138 73.16C674.098 71.72 674.098 66.52 674.218 64.84C674.258 63.6 674.778 62.96 674.858 62.88C675.018 62.72 676.338 61.96 678.058 61.96C679.618 61.96 680.658 62.52 681.298 63.28C681.738 63.8 681.938 65.08 681.938 67.28C681.938 67.92 682.018 72.32 681.938 73.08C681.778 74.6 681.658 74.72 680.658 75.04C680.178 75.16 679.818 75.36 679.818 75.6C679.818 75.88 680.018 76.08 680.618 76.08C681.778 76.08 682.578 76 683.498 76C684.858 76 685.298 76.12 686.658 76.12C687.418 76.12 687.738 75.96 687.738 75.6C687.738 75.36 687.418 75.12 686.618 74.96C685.578 74.72 685.058 74.4 685.058 73.4L684.898 66C684.898 64.28 684.538 62.76 683.738 61.68C682.898 60.52 681.498 59.84 679.498 59.84ZM696.258 59.84C695.498 59.84 693.698 60.52 692.538 61.36C690.658 62.6 689.538 63.72 689.538 64.88C689.538 65.08 689.778 65.4 690.018 65.4C690.218 65.4 692.218 64.4 692.618 64.08C692.698 64 692.858 63.76 692.858 63.64C692.778 62.84 692.898 62.12 693.138 62C693.418 61.8 693.938 61.56 694.778 61.56C696.738 61.56 697.898 63.24 697.898 64.24C697.898 64.72 697.858 67.16 697.818 67.52C697.818 67.76 697.578 67.96 696.658 68.24C695.778 68.52 692.578 69.4 691.978 69.64C691.378 69.92 690.778 70.12 690.378 70.64C689.938 71.2 689.618 71.96 689.618 72.68C689.618 74.68 690.978 76.4 692.378 76.4C692.578 76.4 693.538 76.32 693.978 76.16C694.378 76.04 696.098 75.36 697.578 74.32C697.658 74.28 697.818 74.44 697.818 74.48C698.298 75.96 699.458 76.48 700.378 76.48C702.178 76.48 703.978 74.76 703.978 74C703.978 73.96 703.978 73.72 703.858 73.6C703.778 73.48 703.738 73.4 703.618 73.48C703.178 73.8 702.258 74.08 702.098 74.08C701.778 74.08 700.498 73.92 700.498 72.08C700.498 71.64 700.658 66.6 700.658 65.04C700.658 63.36 700.458 62.56 699.858 61.72C699.258 60.84 698.258 59.84 696.258 59.84ZM695.058 74.32C694.218 74.32 692.538 73.68 692.538 71.92C692.538 70.96 692.938 70.68 693.338 70.4C694.418 69.88 696.338 69.2 697.458 69.2C697.618 69.2 697.778 69.4 697.778 69.52C697.778 70.32 697.778 71.68 697.698 72.64C697.698 72.72 697.458 73.48 697.218 73.64C696.458 74.04 695.658 74.32 695.058 74.32ZM710.044 60.4C709.884 60.4 709.724 60.2 709.724 60.08V58.2C709.724 58.12 709.364 57.76 709.164 57.76C709.004 57.76 708.724 58.08 708.244 58.64C707.684 59.32 706.444 60.28 705.044 61.4C704.924 61.52 704.804 61.68 704.804 61.84C704.804 61.96 705.044 62.16 705.364 62.28C706.164 62.52 706.884 62.8 706.884 63.08C706.884 64.48 706.724 70.48 706.724 71.96C706.724 73.08 706.804 73.92 707.244 74.6C707.724 75.48 709.124 76.48 710.764 76.48C712.564 76.48 713.964 75.76 715.044 74.72C715.324 74.44 715.604 74.04 715.604 73.72C715.604 73.36 715.404 73.28 715.364 73.28C715.204 73.28 715.124 73.32 714.764 73.52C714.164 73.88 713.324 74.12 712.804 74.12C711.964 74.12 711.124 74.04 710.364 73.36C709.924 72.92 709.684 72.4 709.684 71.4C709.684 69.48 709.724 63.6 709.764 62.8C709.764 62.72 709.924 62.52 710.124 62.52H714.484C714.764 62.52 715.524 62.44 715.524 62.08C715.524 61.56 715.404 60.44 715.404 60.56C715.404 60.44 715.004 60.24 714.964 60.24C714.804 60.24 710.924 60.4 710.044 60.4ZM732.664 59.84C731.904 59.84 730.104 60.52 728.944 61.36C727.064 62.6 725.944 63.72 725.944 64.88C725.944 65.08 726.184 65.4 726.424 65.4C726.624 65.4 728.624 64.4 729.024 64.08C729.104 64 729.264 63.76 729.264 63.64C729.184 62.84 729.304 62.12 729.544 62C729.824 61.8 730.344 61.56 731.184 61.56C733.144 61.56 734.304 63.24 734.304 64.24C734.304 64.72 734.264 67.16 734.224 67.52C734.224 67.76 733.984 67.96 733.064 68.24C732.184 68.52 728.984 69.4 728.384 69.64C727.784 69.92 727.184 70.12 726.784 70.64C726.344 71.2 726.024 71.96 726.024 72.68C726.024 74.68 727.384 76.4 728.784 76.4C728.984 76.4 729.944 76.32 730.384 76.16C730.784 76.04 732.504 75.36 733.984 74.32C734.064 74.28 734.224 74.44 734.224 74.48C734.704 75.96 735.864 76.48 736.784 76.48C738.584 76.48 740.384 74.76 740.384 74C740.384 73.96 740.384 73.72 740.264 73.6C740.184 73.48 740.144 73.4 740.024 73.48C739.584 73.8 738.664 74.08 738.504 74.08C738.184 74.08 736.904 73.92 736.904 72.08C736.904 71.64 737.064 66.6 737.064 65.04C737.064 63.36 736.864 62.56 736.264 61.72C735.664 60.84 734.664 59.84 732.664 59.84ZM731.464 74.32C730.624 74.32 728.944 73.68 728.944 71.92C728.944 70.96 729.344 70.68 729.744 70.4C730.824 69.88 732.744 69.2 733.864 69.2C734.024 69.2 734.184 69.4 734.184 69.52C734.184 70.32 734.184 71.68 734.104 72.64C734.104 72.72 733.864 73.48 733.624 73.64C732.864 74.04 732.064 74.32 731.464 74.32ZM742.282 61.92C742.282 62.08 742.682 62.24 743.642 63C744.082 63.28 744.082 63.8 744.082 64.2V71.84C744.042 74.24 743.922 74.64 742.362 75.16C742.042 75.28 741.562 75.44 741.562 75.68C741.562 76 741.962 76.16 742.402 76.16C743.362 76.16 743.842 76 745.042 76C747.362 76 748.762 76.2 749.762 76.2C750.362 76.2 750.722 76.04 750.722 75.84C750.722 75.68 750.642 75.4 750.002 75.2L748.162 74.72C747.442 74.6 747.202 73.84 747.122 72.68C747.082 72.08 746.882 64.84 746.882 64.04C746.882 63.84 747.002 63.48 747.282 63.16C747.682 62.72 748.362 62.6 749.042 62.6C749.842 62.6 750.802 63.08 751.242 63.48C751.362 63.56 751.722 63.64 751.802 63.6C752.042 63.48 753.002 62.4 753.442 61.76C753.562 61.56 753.682 61.28 753.682 61.2C753.682 60.84 753.322 59.84 751.682 59.84C750.442 59.84 748.682 60.84 747.122 62.32C747.042 62.36 746.842 62.32 746.842 62.16C746.842 61.4 746.922 60.68 746.922 59.96C746.922 59.84 746.722 59.48 746.562 59.48C746.442 59.48 746.242 59.64 745.762 59.96C745.362 60.2 744.122 60.8 742.802 61.24C742.362 61.4 742.282 61.8 742.282 61.92ZM762.683 59.88C762.003 59.88 760.683 60.12 759.643 60.6C756.523 62.04 754.843 65.24 754.843 68.44C754.843 73.12 757.723 76.4 762.043 76.4C764.323 76.4 766.443 75.44 767.843 73.4C767.963 73.2 768.123 72.76 768.123 72.44C768.123 72.24 768.043 71.96 767.803 71.96C767.643 71.96 767.443 72.2 767.283 72.44C766.603 73.44 765.403 73.88 763.643 73.88C761.723 73.88 760.043 72.88 759.163 71.68C758.283 70.52 757.643 68.68 757.643 67.12C757.643 66.72 757.723 66.04 757.843 65.72C757.883 65.6 758.043 65.4 758.163 65.4C760.003 65.44 766.843 65.44 767.283 65.44C767.723 65.44 768.043 65 768.043 64.76C768.043 63.36 767.523 62.24 766.643 61.4C765.643 60.4 764.083 59.88 762.683 59.88ZM762.283 60.92C763.723 60.92 764.923 62.2 764.923 63.32C764.923 64.12 764.523 64.32 763.563 64.32C761.563 64.36 759.443 64.36 758.403 64.32C758.323 64.32 758.163 64.08 758.243 63.88C758.963 62.04 760.483 60.92 762.283 60.92ZM782.676 76C783.516 76 785.516 76.12 785.796 76.12C786.236 76.12 786.716 75.96 786.716 75.72C786.716 75.44 786.476 75.24 785.836 75.04C784.836 74.72 783.956 74.64 783.916 73.36C783.876 71.96 783.836 70.28 783.836 68.04C783.836 65.76 784.076 60.56 784.076 60.12C784.076 60.08 783.876 59.68 783.716 59.68C783.116 59.84 781.236 60.72 779.756 61.04C779.316 61.12 778.956 61.44 778.956 61.72C778.956 61.88 779.036 62 779.276 62.16C780.436 63 780.876 63.32 780.916 63.6C780.996 64.08 780.956 68.64 780.956 69.84C780.956 71 780.916 73.4 780.796 73.96C780.716 74.36 780.116 74.84 779.196 75.08C778.516 75.28 778.236 75.48 778.236 75.72C778.236 76 778.636 76.16 779.276 76.16C779.956 76.16 781.356 76 782.676 76ZM782.596 51.72C782.036 51.72 781.436 51.88 781.036 52.24C780.716 52.68 780.556 53.32 780.556 53.68C780.556 54.36 780.836 54.8 781.156 55.16C781.516 55.48 782.156 55.64 782.436 55.64C783.236 55.64 784.356 54.76 784.356 53.68C784.356 52.96 783.676 51.72 782.596 51.72ZM789.159 61.76C789.159 61.88 789.399 62.08 789.919 62.44C790.799 63.16 790.879 63.56 790.879 64C790.879 68.08 790.799 71.56 790.679 72.76C790.559 74.2 790.319 74.6 788.999 75C788.559 75.12 788.159 75.32 788.159 75.6C788.159 75.96 788.599 76.12 789.199 76.12C789.879 76.12 791.039 76 792.519 76C793.359 76 794.479 76.04 794.959 76.04C795.519 76.04 795.959 75.84 795.959 75.56C795.959 75.32 795.639 75.08 795.239 74.96C793.959 74.6 793.799 74.28 793.759 73.72C793.719 73.24 793.719 64.64 793.719 64.12C793.719 63.76 793.999 63.28 794.119 63.16C794.879 62.48 795.919 61.88 797.679 61.88C798.599 61.88 799.799 62.32 800.239 62.64C800.719 63 801.439 64.16 801.439 65.6C801.439 66.76 801.399 71.6 801.319 72.92C801.239 74.24 801.039 74.56 800.079 74.92C799.599 75.08 799.159 75.32 799.159 75.6C799.159 75.92 799.719 76.08 800.079 76.08C800.599 76.08 801.839 76 802.839 76C803.959 76 804.879 76.08 805.799 76.08C806.439 76.08 806.999 75.92 806.999 75.64C806.999 75.36 806.759 75.16 805.999 74.96C804.999 74.68 804.599 74.16 804.519 73.56C804.479 73 804.399 67.04 804.399 66.28C804.399 64.28 803.879 62.44 802.999 61.4C802.439 60.76 801.319 59.88 799.359 59.88C797.679 59.88 795.599 61 793.999 62.08C793.959 62.08 793.759 62.16 793.759 61.96C793.759 61.6 793.919 60.64 793.919 59.96C793.919 59.8 793.719 59.36 793.519 59.36C793.319 59.36 792.959 59.56 792.559 59.8C791.999 60.2 790.559 60.72 789.879 60.96C789.599 61.08 789.159 61.48 789.159 61.76ZM813.951 60.4C813.791 60.4 813.631 60.2 813.631 60.08V58.2C813.631 58.12 813.271 57.76 813.071 57.76C812.911 57.76 812.631 58.08 812.151 58.64C811.591 59.32 810.351 60.28 808.951 61.4C808.831 61.52 808.711 61.68 808.711 61.84C808.711 61.96 808.951 62.16 809.271 62.28C810.071 62.52 810.791 62.8 810.791 63.08C810.791 64.48 810.631 70.48 810.631 71.96C810.631 73.08 810.711 73.92 811.151 74.6C811.631 75.48 813.031 76.48 814.671 76.48C816.471 76.48 817.871 75.76 818.951 74.72C819.231 74.44 819.511 74.04 819.511 73.72C819.511 73.36 819.311 73.28 819.271 73.28C819.111 73.28 819.031 73.32 818.671 73.52C818.071 73.88 817.231 74.12 816.711 74.12C815.871 74.12 815.031 74.04 814.271 73.36C813.831 72.92 813.591 72.4 813.591 71.4C813.591 69.48 813.631 63.6 813.671 62.8C813.671 62.72 813.831 62.52 814.031 62.52H818.391C818.671 62.52 819.431 62.44 819.431 62.08C819.431 61.56 819.311 60.44 819.311 60.56C819.311 60.44 818.911 60.24 818.871 60.24C818.711 60.24 814.831 60.4 813.951 60.4ZM829.246 59.88C828.566 59.88 827.246 60.12 826.206 60.6C823.086 62.04 821.406 65.24 821.406 68.44C821.406 73.12 824.286 76.4 828.606 76.4C830.886 76.4 833.006 75.44 834.406 73.4C834.526 73.2 834.686 72.76 834.686 72.44C834.686 72.24 834.606 71.96 834.366 71.96C834.206 71.96 834.006 72.2 833.846 72.44C833.166 73.44 831.966 73.88 830.206 73.88C828.286 73.88 826.606 72.88 825.726 71.68C824.846 70.52 824.206 68.68 824.206 67.12C824.206 66.72 824.286 66.04 824.406 65.72C824.446 65.6 824.606 65.4 824.726 65.4C826.566 65.44 833.406 65.44 833.846 65.44C834.286 65.44 834.606 65 834.606 64.76C834.606 63.36 834.086 62.24 833.206 61.4C832.206 60.4 830.646 59.88 829.246 59.88ZM828.846 60.92C830.286 60.92 831.486 62.2 831.486 63.32C831.486 64.12 831.086 64.32 830.126 64.32C828.126 64.36 826.006 64.36 824.966 64.32C824.886 64.32 824.726 64.08 824.806 63.88C825.526 62.04 827.046 60.92 828.846 60.92ZM837.399 61.92C837.399 62.08 837.799 62.24 838.759 63C839.199 63.28 839.199 63.8 839.199 64.2V71.84C839.159 74.24 839.039 74.64 837.479 75.16C837.159 75.28 836.679 75.44 836.679 75.68C836.679 76 837.079 76.16 837.519 76.16C838.479 76.16 838.959 76 840.159 76C842.479 76 843.879 76.2 844.879 76.2C845.479 76.2 845.839 76.04 845.839 75.84C845.839 75.68 845.759 75.4 845.119 75.2L843.279 74.72C842.559 74.6 842.319 73.84 842.239 72.68C842.199 72.08 841.999 64.84 841.999 64.04C841.999 63.84 842.119 63.48 842.399 63.16C842.799 62.72 843.479 62.6 844.159 62.6C844.959 62.6 845.919 63.08 846.359 63.48C846.479 63.56 846.839 63.64 846.919 63.6C847.159 63.48 848.119 62.4 848.559 61.76C848.679 61.56 848.799 61.28 848.799 61.2C848.799 60.84 848.439 59.84 846.799 59.84C845.559 59.84 843.799 60.84 842.239 62.32C842.159 62.36 841.959 62.32 841.959 62.16C841.959 61.4 842.039 60.68 842.039 59.96C842.039 59.84 841.839 59.48 841.679 59.48C841.559 59.48 841.359 59.64 840.879 59.96C840.479 60.2 839.239 60.8 837.919 61.24C837.479 61.4 837.399 61.8 837.399 61.92ZM850.524 61.92C850.524 62.08 850.924 62.24 851.884 63C852.324 63.28 852.324 63.8 852.324 64.2V71.84C852.284 74.24 852.164 74.64 850.604 75.16C850.284 75.28 849.804 75.44 849.804 75.68C849.804 76 850.204 76.16 850.644 76.16C851.604 76.16 852.084 76 853.284 76C855.604 76 857.004 76.2 858.004 76.2C858.604 76.2 858.964 76.04 858.964 75.84C858.964 75.68 858.884 75.4 858.244 75.2L856.404 74.72C855.684 74.6 855.444 73.84 855.364 72.68C855.324 72.08 855.124 64.84 855.124 64.04C855.124 63.84 855.244 63.48 855.524 63.16C855.924 62.72 856.604 62.6 857.284 62.6C858.084 62.6 859.044 63.08 859.484 63.48C859.604 63.56 859.964 63.64 860.044 63.6C860.284 63.48 861.244 62.4 861.684 61.76C861.804 61.56 861.924 61.28 861.924 61.2C861.924 60.84 861.564 59.84 859.924 59.84C858.684 59.84 856.924 60.84 855.364 62.32C855.284 62.36 855.084 62.32 855.084 62.16C855.084 61.4 855.164 60.68 855.164 59.96C855.164 59.84 854.964 59.48 854.804 59.48C854.684 59.48 854.484 59.64 854.004 59.96C853.604 60.2 852.364 60.8 851.044 61.24C850.604 61.4 850.524 61.8 850.524 61.92ZM870.926 59.88C870.246 59.88 868.926 60.12 867.886 60.6C864.766 62.04 863.086 65.24 863.086 68.44C863.086 73.12 865.966 76.4 870.286 76.4C872.566 76.4 874.686 75.44 876.086 73.4C876.206 73.2 876.366 72.76 876.366 72.44C876.366 72.24 876.286 71.96 876.046 71.96C875.886 71.96 875.686 72.2 875.526 72.44C874.846 73.44 873.646 73.88 871.886 73.88C869.966 73.88 868.286 72.88 867.406 71.68C866.526 70.52 865.886 68.68 865.886 67.12C865.886 66.72 865.966 66.04 866.086 65.72C866.126 65.6 866.286 65.4 866.406 65.4C868.246 65.44 875.086 65.44 875.526 65.44C875.966 65.44 876.286 65 876.286 64.76C876.286 63.36 875.766 62.24 874.886 61.4C873.886 60.4 872.326 59.88 870.926 59.88ZM870.526 60.92C871.966 60.92 873.166 62.2 873.166 63.32C873.166 64.12 872.766 64.32 871.806 64.32C869.806 64.36 867.686 64.36 866.646 64.32C866.566 64.32 866.406 64.08 866.486 63.88C867.206 62.04 868.726 60.92 870.526 60.92ZM888.738 59.84C887.658 59.84 885.298 60.24 883.458 61.36C881.498 62.52 879.218 64.8 879.218 68.72C879.218 70.72 879.858 72.76 881.138 74.2C882.378 75.52 884.218 76.4 886.138 76.4C887.458 76.4 889.498 76.04 891.338 74.4C891.418 74.4 891.578 74.48 891.578 74.64C891.578 75.2 891.498 75.92 891.498 76.28C891.498 76.48 891.778 76.8 891.938 76.8C892.138 76.8 892.458 76.72 893.378 76.4C894.138 76.12 896.218 75.72 896.978 75.6C897.178 75.56 897.658 74.88 897.658 74.6C897.658 74.56 897.578 74.36 897.418 74.36C897.018 74.4 895.698 74.68 895.258 74.68C895.018 74.68 894.698 74.52 894.618 73.04C894.618 72.28 894.538 71.64 894.538 63.92C894.538 51.68 894.698 50.24 894.898 48.12C894.938 47.76 894.698 47.48 894.578 47.48C894.418 47.48 894.298 47.52 894.058 47.6C893.018 48 890.898 48.6 889.978 48.72C889.738 48.76 889.298 49.24 889.298 49.4C889.298 49.48 889.338 49.56 889.697 49.76C891.538 50.72 891.538 51.2 891.578 51.4C891.698 52.36 891.818 58.48 891.618 59.56C891.578 59.76 891.458 60.04 891.298 60C890.818 59.92 890.178 59.84 888.738 59.84ZM887.258 61.16C888.058 61.16 889.578 61.6 890.698 62.72C891.178 63.2 891.538 63.92 891.578 64.24C891.698 66.12 891.738 68.32 891.698 70.88C891.658 72.16 891.138 73.44 891.058 73.52C890.338 74.04 889.418 74.48 888.138 74.48C884.698 74.48 882.458 70.8 882.458 67.6C882.458 65.36 883.378 63.32 884.138 62.56C884.858 61.84 885.978 61.16 887.258 61.16ZM907.582 74.48C906.622 74.48 905.902 74.48 904.862 73.68C904.302 73.28 903.862 72.36 903.862 71.44C903.862 69.64 904.022 62.08 903.982 60.72C903.982 60.48 903.822 60.12 903.662 60.12C903.502 60.12 900.542 60.56 899.422 60.56C898.942 60.56 898.742 60.8 898.742 60.92C898.742 61.28 899.102 61.48 899.462 61.64C900.142 61.92 900.902 62.08 900.942 63.2C901.022 65.32 901.022 69.84 901.022 72.72C901.022 73.36 901.302 74.16 901.582 74.6C902.382 75.84 903.662 76.48 905.102 76.48C906.222 76.48 907.102 76.28 907.782 76C908.302 75.8 909.902 74.76 911.062 73.96C911.142 73.92 911.262 74.04 911.262 74.24C911.222 74.92 911.102 75.68 911.102 75.92C911.102 76.2 911.342 76.48 911.502 76.48C911.582 76.48 912.222 76.32 912.902 76.12C913.822 75.88 915.502 75.44 916.542 75.36C916.702 75.36 916.982 75.08 916.982 74.96C916.942 74.84 916.662 74.2 916.502 74.2C916.022 74.2 914.782 74.4 914.502 74.4C914.182 74.4 914.022 73.92 914.022 73.84C914.022 70.56 914.342 61.68 914.422 60.56C914.422 60.4 914.342 59.96 914.142 59.96C913.862 59.96 913.582 60 913.182 60.12C912.262 60.36 910.502 60.56 908.902 60.56C908.502 60.56 907.982 60.76 907.982 60.92C907.982 61.24 908.502 61.48 908.782 61.56L910.622 62.04C910.862 62.12 911.302 62.68 911.302 62.92L911.222 72.12C911.222 72.28 910.862 72.88 910.622 73.08C909.622 73.96 908.542 74.48 907.582 74.48ZM928.064 59.96C926.984 59.96 924.384 60.52 922.824 61.64C920.504 63.2 918.944 65.64 918.944 68.56C918.944 70.24 919.504 72.12 920.184 73.24C921.464 75.12 923.584 76.44 926.104 76.44C928.184 76.44 930.464 75.52 931.864 73.96C932.184 73.64 932.384 73.24 932.384 72.8C932.384 72.6 932.064 72.48 931.624 72.8C930.584 73.52 929.544 74 928.064 74C925.984 74 924.024 73 923.024 71.32C922.864 71.08 921.984 69.64 921.984 67.32C921.984 65.56 922.584 63.92 923.664 62.72C924.304 61.92 925.504 61.36 926.144 61.36C927.504 61.36 928.184 61.96 929.504 62.92C930.144 63.36 930.824 63.68 931.064 63.68C931.224 63.68 932.384 62.72 932.384 62.08C932.384 61.84 932.184 61.16 931.784 60.88C931.024 60.28 929.264 59.96 928.064 59.96ZM938.848 76C939.688 76 941.688 76.12 941.968 76.12C942.408 76.12 942.888 75.96 942.888 75.72C942.888 75.44 942.648 75.24 942.008 75.04C941.008 74.72 940.128 74.64 940.088 73.36C940.048 71.96 940.008 70.28 940.008 68.04C940.008 65.76 940.248 60.56 940.248 60.12C940.248 60.08 940.048 59.68 939.888 59.68C939.288 59.84 937.408 60.72 935.928 61.04C935.488 61.12 935.128 61.44 935.128 61.72C935.128 61.88 935.208 62 935.448 62.16C936.608 63 937.048 63.32 937.088 63.6C937.168 64.08 937.128 68.64 937.128 69.84C937.128 71 937.088 73.4 936.968 73.96C936.888 74.36 936.288 74.84 935.368 75.08C934.688 75.28 934.408 75.48 934.408 75.72C934.408 76 934.808 76.16 935.448 76.16C936.128 76.16 937.528 76 938.848 76ZM938.768 51.72C938.208 51.72 937.608 51.88 937.208 52.24C936.888 52.68 936.728 53.32 936.728 53.68C936.728 54.36 937.008 54.8 937.328 55.16C937.688 55.48 938.328 55.64 938.608 55.64C939.408 55.64 940.528 54.76 940.528 53.68C940.528 52.96 939.848 51.72 938.768 51.72ZM961.605 67.64C961.605 65.36 960.765 63.12 958.965 61.6C957.685 60.48 955.885 59.84 954.005 59.84C952.685 59.84 950.765 60.32 949.445 61.2C949.405 61.24 949.205 61.12 949.205 61.04C949.125 60.6 949.125 58.64 949.125 57.6C949.125 54.4 949.365 50.6 949.485 47.96C949.485 47.8 949.205 47.44 949.045 47.44C948.965 47.44 948.565 47.6 948.045 47.92C947.245 48.4 945.885 48.76 944.765 49.16C944.645 49.2 944.285 49.68 944.285 49.72C944.285 49.92 944.485 50.04 945.085 50.48C945.845 51.12 946.045 51.64 946.085 51.84C946.165 52.4 946.285 58.32 946.285 62.12C946.285 65.4 946.245 72.28 946.045 75.4C946.045 75.68 946.125 75.92 946.285 75.92C946.365 75.92 946.605 75.88 946.765 75.8C947.085 75.64 947.445 75.6 947.605 75.68C948.525 76 951.285 76.48 952.685 76.48C954.085 76.48 956.485 76.04 958.125 74.68C959.885 73.32 961.605 70.96 961.605 67.64ZM958.285 68.48C958.285 70.28 957.565 72.76 956.445 73.84C955.525 74.68 954.445 75.2 954.005 75.2C953.285 75.2 951.405 74.68 950.285 73.52C949.765 73 949.525 72.36 949.485 71.52C949.285 69.36 949.165 67.2 949.165 65.12C949.165 64.28 949.205 63.16 949.245 62.8C949.285 62.52 949.445 62.28 949.565 62.2C949.885 61.96 950.645 61.6 951.965 61.6C953.845 61.6 955.405 62.4 956.325 63.32C957.685 64.8 958.285 67.04 958.285 68.48ZM964.695 49.6C964.695 49.76 964.815 49.88 965.495 50.36C966.415 50.92 966.415 51.16 966.455 51.48C966.575 52.56 966.575 56.88 966.575 59.84C966.575 66.16 966.455 70.36 966.335 72C966.175 74 966.095 74.72 964.255 75.12C963.815 75.2 963.375 75.4 963.375 75.68C963.375 76 963.695 76.12 964.495 76.12C965.335 76.12 967.095 76 968.015 76C968.735 76 970.455 76.12 971.415 76.12C971.895 76.12 972.455 75.96 972.455 75.68C972.455 75.44 972.135 75.24 971.535 75.08C969.815 74.6 969.655 74.12 969.495 73.32C969.295 72.24 969.375 64.6 969.375 58.76C969.375 53.4 969.615 48.88 969.735 47.88C969.735 47.72 969.495 47.4 969.375 47.48C968.295 48.16 967.095 48.4 965.255 49.04C964.815 49.16 964.695 49.44 964.695 49.6ZM981.98 59.88C981.3 59.88 979.98 60.12 978.94 60.6C975.82 62.04 974.14 65.24 974.14 68.44C974.14 73.12 977.02 76.4 981.34 76.4C983.62 76.4 985.74 75.44 987.14 73.4C987.26 73.2 987.42 72.76 987.42 72.44C987.42 72.24 987.34 71.96 987.1 71.96C986.94 71.96 986.74 72.2 986.58 72.44C985.9 73.44 984.7 73.88 982.94 73.88C981.02 73.88 979.34 72.88 978.46 71.68C977.58 70.52 976.94 68.68 976.94 67.12C976.94 66.72 977.02 66.04 977.14 65.72C977.18 65.6 977.34 65.4 977.46 65.4C979.3 65.44 986.14 65.44 986.58 65.44C987.02 65.44 987.34 65 987.34 64.76C987.34 63.36 986.82 62.24 985.94 61.4C984.94 60.4 983.38 59.88 981.98 59.88ZM981.58 60.92C983.02 60.92 984.22 62.2 984.22 63.32C984.22 64.12 983.82 64.32 982.86 64.32C980.86 64.36 978.74 64.36 977.7 64.32C977.62 64.32 977.46 64.08 977.54 63.88C978.26 62.04 979.78 60.92 981.58 60.92ZM1000.09 60.4C999.213 60.4 998.053 60.24 997.373 60.24C996.613 60.24 996.213 60.36 996.213 60.72C996.213 60.96 996.653 61.2 997.213 61.32C998.333 61.6 998.813 62.52 999.453 64C1000.29 65.96 1002.61 71.76 1002.89 72.56L1004.09 76C1004.25 76.48 1004.45 76.6 1004.81 76.6C1005.17 76.6 1005.65 75.4 1005.81 74.96C1007.01 71.96 1008.49 68.88 1009.45 66.88C1009.49 66.76 1009.69 66.76 1009.73 66.84L1012.21 72.96C1012.61 73.92 1013.09 75.48 1013.25 75.92C1013.49 76.24 1013.81 76.52 1014.01 76.52C1014.21 76.52 1014.41 76.44 1014.53 76.04C1014.93 74.72 1015.53 73.4 1016.21 71.72C1017.41 68.76 1018.73 65.48 1020.05 63.12C1020.69 62.04 1020.85 61.6 1022.17 61.2C1022.65 61.08 1023.09 60.96 1023.09 60.6C1023.09 60.36 1022.73 60.2 1022.25 60.2C1021.61 60.2 1020.61 60.4 1019.29 60.4C1018.69 60.4 1017.25 60.28 1016.81 60.28C1016.41 60.28 1015.89 60.44 1015.89 60.68C1015.89 61.04 1016.45 61.2 1016.81 61.32C1018.29 61.68 1018.37 62.16 1018.37 62.56C1018.37 62.92 1018.13 63.8 1017.69 64.96C1016.89 67 1015.69 70.2 1015.01 71.64C1014.89 71.88 1014.73 71.96 1014.65 71.68C1013.81 69.72 1011.81 64.28 1011.57 63.68C1011.29 62.92 1011.09 62.52 1011.09 62.24C1011.09 62.08 1011.21 61.6 1012.25 61.36C1012.93 61.24 1013.21 61 1013.21 60.72C1013.21 60.48 1012.85 60.28 1012.25 60.28C1011.37 60.28 1010.17 60.4 1009.45 60.4C1008.53 60.4 1007.33 60.28 1006.77 60.28C1006.09 60.28 1005.81 60.4 1005.81 60.68C1005.81 61 1006.17 61.16 1006.69 61.32C1007.61 61.56 1007.93 62.2 1008.37 63C1008.69 63.6 1008.97 64.64 1009.01 64.92C1009.01 65.08 1009.01 65.28 1008.81 65.72C1008.01 67.52 1006.45 70.92 1006.01 71.8C1005.93 72 1005.77 72.04 1005.65 71.8C1005.37 71.32 1002.69 64.48 1002.21 62.92C1001.85 62 1002.05 61.52 1002.93 61.36C1003.61 61.2 1003.93 60.96 1003.93 60.72C1003.93 60.52 1003.61 60.28 1002.89 60.28C1002.21 60.28 1001.09 60.4 1000.09 60.4ZM1027.95 76C1028.79 76 1030.79 76.12 1031.07 76.12C1031.51 76.12 1031.99 75.96 1031.99 75.72C1031.99 75.44 1031.75 75.24 1031.11 75.04C1030.11 74.72 1029.23 74.64 1029.19 73.36C1029.15 71.96 1029.11 70.28 1029.11 68.04C1029.11 65.76 1029.35 60.56 1029.35 60.12C1029.35 60.08 1029.15 59.68 1028.99 59.68C1028.39 59.84 1026.51 60.72 1025.03 61.04C1024.59 61.12 1024.23 61.44 1024.23 61.72C1024.23 61.88 1024.31 62 1024.55 62.16C1025.71 63 1026.15 63.32 1026.19 63.6C1026.27 64.08 1026.23 68.64 1026.23 69.84C1026.23 71 1026.19 73.4 1026.07 73.96C1025.99 74.36 1025.39 74.84 1024.47 75.08C1023.79 75.28 1023.51 75.48 1023.51 75.72C1023.51 76 1023.91 76.16 1024.55 76.16C1025.23 76.16 1026.63 76 1027.95 76ZM1027.87 51.72C1027.31 51.72 1026.71 51.88 1026.31 52.24C1025.99 52.68 1025.83 53.32 1025.83 53.68C1025.83 54.36 1026.11 54.8 1026.43 55.16C1026.79 55.48 1027.43 55.64 1027.71 55.64C1028.51 55.64 1029.63 54.76 1029.63 53.68C1029.63 52.96 1028.95 51.72 1027.87 51.72ZM1039.11 60.4C1038.95 60.4 1038.79 60.2 1038.79 60.08V58.2C1038.79 58.12 1038.43 57.76 1038.23 57.76C1038.07 57.76 1037.79 58.08 1037.31 58.64C1036.75 59.32 1035.51 60.28 1034.11 61.4C1033.99 61.52 1033.87 61.68 1033.87 61.84C1033.87 61.96 1034.11 62.16 1034.43 62.28C1035.23 62.52 1035.95 62.8 1035.95 63.08C1035.95 64.48 1035.79 70.48 1035.79 71.96C1035.79 73.08 1035.87 73.92 1036.31 74.6C1036.79 75.48 1038.19 76.48 1039.83 76.48C1041.63 76.48 1043.03 75.76 1044.11 74.72C1044.39 74.44 1044.67 74.04 1044.67 73.72C1044.67 73.36 1044.47 73.28 1044.43 73.28C1044.27 73.28 1044.19 73.32 1043.83 73.52C1043.23 73.88 1042.39 74.12 1041.87 74.12C1041.03 74.12 1040.19 74.04 1039.43 73.36C1038.99 72.92 1038.75 72.4 1038.75 71.4C1038.75 69.48 1038.79 63.6 1038.83 62.8C1038.83 62.72 1038.99 62.52 1039.19 62.52H1043.55C1043.83 62.52 1044.59 62.44 1044.59 62.08C1044.59 61.56 1044.47 60.44 1044.47 60.56C1044.47 60.44 1044.07 60.24 1044.03 60.24C1043.87 60.24 1039.99 60.4 1039.11 60.4ZM1056.57 59.84C1054.89 59.84 1053.17 60.68 1051.53 62.16C1051.49 62.2 1051.25 62.16 1051.25 61.92C1051.25 60.76 1051.41 50.8 1051.81 47.92C1051.81 47.8 1051.73 47.48 1051.57 47.48C1051.33 47.48 1050.97 47.68 1050.81 47.76C1049.85 48.4 1048.05 48.8 1046.81 49.16C1046.73 49.2 1046.69 49.28 1046.69 49.36C1046.69 49.68 1046.93 50.08 1047.09 50.16C1048.21 50.88 1048.29 50.96 1048.41 52C1048.57 53.16 1048.53 59.92 1048.53 61.52C1048.53 65.56 1048.25 70.96 1048.13 72.64C1048.01 74.12 1047.61 74.56 1046.57 74.92C1045.73 75.16 1045.41 75.4 1045.41 75.6C1045.41 76 1045.97 76.12 1046.33 76.12C1047.01 76.12 1048.45 76 1049.37 76C1050.33 76 1052.33 76.08 1052.65 76.08C1053.21 76.08 1053.65 75.96 1053.65 75.6C1053.65 75.4 1053.33 75.12 1052.77 74.96C1051.85 74.72 1051.29 74.48 1051.21 73.16C1051.17 71.72 1051.17 66.52 1051.29 64.84C1051.33 63.6 1051.85 62.96 1051.93 62.88C1052.09 62.72 1053.41 61.96 1055.13 61.96C1056.69 61.96 1057.73 62.52 1058.37 63.28C1058.81 63.8 1059.01 65.08 1059.01 67.28C1059.01 67.92 1059.09 72.32 1059.01 73.08C1058.85 74.6 1058.73 74.72 1057.73 75.04C1057.25 75.16 1056.89 75.36 1056.89 75.6C1056.89 75.88 1057.09 76.08 1057.69 76.08C1058.85 76.08 1059.65 76 1060.57 76C1061.93 76 1062.37 76.12 1063.73 76.12C1064.49 76.12 1064.81 75.96 1064.81 75.6C1064.81 75.36 1064.49 75.12 1063.69 74.96C1062.65 74.72 1062.13 74.4 1062.13 73.4L1061.97 66C1061.97 64.28 1061.61 62.76 1060.81 61.68C1059.97 60.52 1058.57 59.84 1056.57 59.84ZM34.04 109.92C34.04 110.08 34.44 110.24 35.4 111C35.84 111.28 35.84 111.8 35.84 112.2V119.84C35.8 122.24 35.68 122.64 34.12 123.16C33.8 123.28 33.32 123.44 33.32 123.68C33.32 124 33.72 124.16 34.16 124.16C35.12 124.16 35.6 124 36.8 124C39.12 124 40.52 124.2 41.52 124.2C42.12 124.2 42.48 124.04 42.48 123.84C42.48 123.68 42.4 123.4 41.76 123.2L39.92 122.72C39.2 122.6 38.96 121.84 38.88 120.68C38.84 120.08 38.64 112.84 38.64 112.04C38.64 111.84 38.76 111.48 39.04 111.16C39.44 110.72 40.12 110.6 40.8 110.6C41.6 110.6 42.56 111.08 43 111.48C43.12 111.56 43.48 111.64 43.56 111.6C43.8 111.48 44.76 110.4 45.2 109.76C45.32 109.56 45.44 109.28 45.44 109.2C45.44 108.84 45.08 107.84 43.44 107.84C42.2 107.84 40.44 108.84 38.88 110.32C38.8 110.36 38.6 110.32 38.6 110.16C38.6 109.4 38.68 108.68 38.68 107.96C38.68 107.84 38.48 107.48 38.32 107.48C38.2 107.48 38 107.64 37.52 107.96C37.12 108.2 35.88 108.8 34.56 109.24C34.12 109.4 34.04 109.8 34.04 109.92ZM54.4413 107.88C53.7613 107.88 52.4413 108.12 51.4013 108.6C48.2813 110.04 46.6012 113.24 46.6012 116.44C46.6012 121.12 49.4813 124.4 53.8013 124.4C56.0813 124.4 58.2013 123.44 59.6013 121.4C59.7213 121.2 59.8813 120.76 59.8813 120.44C59.8813 120.24 59.8013 119.96 59.5613 119.96C59.4013 119.96 59.2013 120.2 59.0413 120.44C58.3613 121.44 57.1613 121.88 55.4013 121.88C53.4813 121.88 51.8013 120.88 50.9213 119.68C50.0413 118.52 49.4013 116.68 49.4013 115.12C49.4013 114.72 49.4813 114.04 49.6013 113.72C49.6413 113.6 49.8013 113.4 49.9213 113.4C51.7613 113.44 58.6013 113.44 59.0413 113.44C59.4813 113.44 59.8013 113 59.8013 112.76C59.8013 111.36 59.2813 110.24 58.4013 109.4C57.4013 108.4 55.8412 107.88 54.4413 107.88ZM54.0413 108.92C55.4813 108.92 56.6813 110.2 56.6813 111.32C56.6813 112.12 56.2813 112.32 55.3213 112.32C53.3213 112.36 51.2013 112.36 50.1613 112.32C50.0813 112.32 49.9213 112.08 50.0013 111.88C50.7213 110.04 52.2413 108.92 54.0413 108.92ZM68.3453 107.84C66.9853 107.84 65.9053 108.2 65.1453 108.68C63.6253 109.6 62.9453 110.92 62.9453 112.28C62.9453 114.16 64.2253 115.56 65.4253 116.32C66.6653 117.12 66.9053 117.32 67.8653 118C69.1053 118.76 69.6653 119.6 69.6653 120.68C69.6653 121.44 69.3453 122.4 68.7453 122.88C68.3053 123.2 67.6653 123.48 67.1453 123.48C65.7053 123.48 64.6253 122.68 63.5053 120.64C63.2653 120.2 62.9853 119.72 62.6653 119.72C62.4253 119.72 62.3453 120.12 62.3453 120.56C62.3453 121.72 62.8253 123.4 62.9453 123.6C63.6253 124.16 65.6253 124.48 66.8253 124.48C68.0653 124.48 69.4653 124.04 70.1853 123.56C71.1853 122.84 72.5053 121.48 72.5053 119.64C72.5053 117.84 71.6253 116.48 69.3853 115.16C66.7053 113.68 65.4253 112.64 65.4253 111.28C65.4253 110.44 66.1853 108.8 67.8253 108.8C69.1453 108.8 70.1453 109.6 71.0253 111.48C71.2253 111.92 71.4653 112.16 71.6253 112.16C71.9453 112.16 72.1053 111.8 72.1053 111.44C72.1053 111.16 71.9853 109.8 71.9853 109.08C71.9853 108.84 71.7453 108.56 71.6653 108.52C71.5853 108.48 70.8253 108.16 70.3853 108.08C69.9453 107.96 69.1053 107.84 68.3453 107.84ZM85.6072 107.92C84.4872 107.92 83.2872 108.12 82.6472 108.4C82.0872 108.64 81.0072 109.2 80.0472 109.84C79.8872 109.96 79.7272 109.8 79.7272 109.64C79.7672 109 79.7672 108.24 79.8472 107.6C79.8472 107.44 79.5272 107.12 79.4072 107.12C79.3272 107.12 79.0072 107.28 78.6072 107.48C77.9272 107.88 76.1672 108.72 75.5672 108.88C75.4072 108.92 75.0072 109.4 75.0072 109.6C75.0072 109.8 75.4872 110.16 76.4872 110.88C76.6072 110.96 76.8072 111.24 76.8072 112.92C76.8472 115.28 76.8072 118.28 76.8072 121C76.8072 125.08 76.7672 128.36 76.6872 129.68C76.5272 132.56 76.3272 132.92 74.2072 133.36C73.5672 133.48 73.2872 133.8 73.2872 133.96C73.2872 134.32 73.8872 134.48 74.4872 134.48C75.6872 134.48 76.0872 134.36 77.0472 134.36C78.6072 134.36 80.9272 134.56 81.8072 134.56C82.3272 134.56 82.8472 134.36 82.8472 134.04C82.8472 133.76 82.5272 133.56 81.7272 133.32C80.2072 132.84 79.9272 132.36 79.8072 131.32C79.6872 130.2 79.6472 128.56 79.6472 124.68C79.6472 124.48 79.8072 124.16 79.9272 124.16C80.4472 124.24 81.2472 124.32 82.1672 124.32C83.9672 124.32 86.3272 124 88.5272 122.28C91.0872 120.36 91.9272 117.4 91.9272 115.4C91.9272 113.2 91.0072 111.24 90.0472 110.16C88.8472 108.84 87.0472 107.92 85.6072 107.92ZM83.5272 109.96C84.4472 109.96 86.0872 110.52 87.1272 111.6C88.7672 113.4 88.7672 115.56 88.7672 116.48C88.7672 117.68 88.0472 120.68 86.0472 122.36C85.4872 122.84 84.6472 123.04 84.2072 123.04C83.2072 123.04 81.2872 122.36 80.2072 120.84C79.9272 120.48 79.7672 119.8 79.6872 119.08C79.5272 117.44 79.5672 113.08 79.7672 111.88C79.8872 111.16 80.0872 110.84 80.2872 110.68C80.7272 110.32 81.8472 109.96 83.5272 109.96ZM102.723 107.88C102.043 107.88 100.723 108.12 99.6825 108.6C96.5625 110.04 94.8825 113.24 94.8825 116.44C94.8825 121.12 97.7625 124.4 102.083 124.4C104.363 124.4 106.483 123.44 107.883 121.4C108.003 121.2 108.163 120.76 108.163 120.44C108.163 120.24 108.083 119.96 107.843 119.96C107.683 119.96 107.483 120.2 107.323 120.44C106.643 121.44 105.443 121.88 103.683 121.88C101.763 121.88 100.083 120.88 99.2025 119.68C98.3225 118.52 97.6825 116.68 97.6825 115.12C97.6825 114.72 97.7625 114.04 97.8825 113.72C97.9225 113.6 98.0825 113.4 98.2025 113.4C100.043 113.44 106.883 113.44 107.323 113.44C107.763 113.44 108.083 113 108.083 112.76C108.083 111.36 107.563 110.24 106.683 109.4C105.683 108.4 104.122 107.88 102.723 107.88ZM102.323 108.92C103.763 108.92 104.963 110.2 104.963 111.32C104.963 112.12 104.563 112.32 103.603 112.32C101.603 112.36 99.4825 112.36 98.4425 112.32C98.3625 112.32 98.2025 112.08 98.2825 111.88C99.0025 110.04 100.523 108.92 102.323 108.92ZM120.134 107.96C119.054 107.96 116.454 108.52 114.894 109.64C112.574 111.2 111.014 113.64 111.014 116.56C111.014 118.24 111.574 120.12 112.254 121.24C113.534 123.12 115.654 124.44 118.174 124.44C120.254 124.44 122.534 123.52 123.934 121.96C124.254 121.64 124.454 121.24 124.454 120.8C124.454 120.6 124.134 120.48 123.694 120.8C122.654 121.52 121.614 122 120.134 122C118.054 122 116.094 121 115.094 119.32C114.934 119.08 114.054 117.64 114.054 115.32C114.054 113.56 114.654 111.92 115.734 110.72C116.374 109.92 117.574 109.36 118.214 109.36C119.574 109.36 120.254 109.96 121.574 110.92C122.214 111.36 122.894 111.68 123.134 111.68C123.294 111.68 124.454 110.72 124.454 110.08C124.454 109.84 124.254 109.16 123.854 108.88C123.094 108.28 121.334 107.96 120.134 107.96ZM131.958 108.4C131.798 108.4 131.638 108.2 131.638 108.08V106.2C131.638 106.12 131.278 105.76 131.078 105.76C130.918 105.76 130.638 106.08 130.158 106.64C129.598 107.32 128.358 108.28 126.958 109.4C126.838 109.52 126.718 109.68 126.718 109.84C126.718 109.96 126.958 110.16 127.278 110.28C128.078 110.52 128.798 110.8 128.798 111.08C128.798 112.48 128.638 118.48 128.638 119.96C128.638 121.08 128.718 121.92 129.158 122.6C129.638 123.48 131.038 124.48 132.678 124.48C134.478 124.48 135.878 123.76 136.958 122.72C137.238 122.44 137.518 122.04 137.518 121.72C137.518 121.36 137.318 121.28 137.278 121.28C137.118 121.28 137.038 121.32 136.678 121.52C136.078 121.88 135.238 122.12 134.718 122.12C133.878 122.12 133.038 122.04 132.278 121.36C131.838 120.92 131.598 120.4 131.598 119.4C131.598 117.48 131.638 111.6 131.678 110.8C131.678 110.72 131.838 110.52 132.038 110.52H136.398C136.678 110.52 137.438 110.44 137.438 110.08C137.438 109.56 137.318 108.44 137.318 108.56C137.318 108.44 136.918 108.24 136.878 108.24C136.718 108.24 132.838 108.4 131.958 108.4ZM152.818 108.4C152.658 108.4 152.498 108.2 152.498 108.08V106.2C152.498 106.12 152.138 105.76 151.938 105.76C151.778 105.76 151.498 106.08 151.018 106.64C150.458 107.32 149.218 108.28 147.818 109.4C147.698 109.52 147.578 109.68 147.578 109.84C147.578 109.96 147.818 110.16 148.138 110.28C148.938 110.52 149.658 110.8 149.658 111.08C149.658 112.48 149.498 118.48 149.498 119.96C149.498 121.08 149.578 121.92 150.018 122.6C150.498 123.48 151.898 124.48 153.538 124.48C155.338 124.48 156.738 123.76 157.818 122.72C158.098 122.44 158.378 122.04 158.378 121.72C158.378 121.36 158.178 121.28 158.138 121.28C157.978 121.28 157.898 121.32 157.538 121.52C156.938 121.88 156.098 122.12 155.578 122.12C154.738 122.12 153.898 122.04 153.138 121.36C152.698 120.92 152.458 120.4 152.458 119.4C152.458 117.48 152.498 111.6 152.538 110.8C152.538 110.72 152.698 110.52 152.898 110.52H157.258C157.538 110.52 158.298 110.44 158.298 110.08C158.298 109.56 158.178 108.44 158.178 108.56C158.178 108.44 157.778 108.24 157.738 108.24C157.578 108.24 153.698 108.4 152.818 108.4ZM168.953 107.84C166.273 107.84 164.273 108.96 163.033 110.04C161.513 111.32 160.233 113.24 160.233 116.28C160.233 118.28 161.473 121 163.193 122.4C164.673 123.64 166.673 124.48 168.513 124.48C170.313 124.48 171.873 124.04 173.473 122.88C174.953 121.92 176.953 119.32 176.953 116C176.953 110.96 172.913 107.84 168.953 107.84ZM168.193 109.04C169.233 109.04 170.673 109.64 171.553 110.6C173.073 112.36 173.553 114.64 173.553 116.72C173.553 118.44 172.753 120.92 171.753 122C170.633 123.12 169.753 123.32 169.313 123.32C167.393 123.32 165.113 121.88 164.113 118.88C163.793 117.88 163.633 116.64 163.633 115.32C163.633 113.24 164.553 111.16 165.593 110.2C166.433 109.48 167.353 109.04 168.193 109.04ZM199.859 98.28C194.739 98.28 191.539 98.16 190.499 98.04C189.899 98 189.259 97.4 189.139 97.28C188.699 96.92 188.699 96.64 188.499 96.64C188.259 96.64 187.899 97.04 187.899 97.28C187.899 99.64 187.139 101.84 187.139 102.6C187.139 103 187.299 103.52 187.539 103.52C187.699 103.52 187.939 103.56 188.299 102.72C188.979 101.4 189.459 100.76 189.619 100.64C190.219 99.96 191.059 99.72 192.579 99.72C193.219 99.72 196.739 99.8 197.539 99.92C197.659 99.92 197.859 100.12 197.859 100.44V105.2C197.859 108.28 197.659 116.44 197.579 118.8C197.459 121.8 197.379 122.48 194.579 123.12C194.219 123.2 193.819 123.52 193.819 123.8C193.819 124.04 194.219 124.28 195.019 124.28C195.539 124.28 197.579 124 199.579 124C201.339 124 203.819 124.2 204.139 124.2C204.539 124.2 205.259 124.16 205.259 123.72C205.259 123.44 204.699 123.12 204.179 123C201.699 122.44 201.499 121.96 201.299 120.16C201.139 118.68 201.139 114.88 201.139 110.24V100.44C201.139 100.36 201.299 99.96 201.499 99.92C201.979 99.8 206.419 99.8 207.099 99.84C209.579 99.96 210.099 100.16 210.339 102.24C210.459 103.24 210.619 103.52 210.899 103.52C211.219 103.52 211.539 103.12 211.579 102.76C211.819 100.68 212.059 99.4 212.459 98.16C212.659 97.6 212.499 97.24 212.299 97.24C212.139 97.24 212.019 97.32 211.739 97.48C211.179 97.88 210.459 98.12 209.019 98.2C207.379 98.24 201.939 98.28 199.859 98.28ZM218.129 122.48C217.169 122.48 216.449 122.48 215.409 121.68C214.849 121.28 214.409 120.36 214.409 119.44C214.409 117.64 214.569 110.08 214.529 108.72C214.529 108.48 214.369 108.12 214.209 108.12C214.049 108.12 211.089 108.56 209.969 108.56C209.489 108.56 209.289 108.8 209.289 108.92C209.289 109.28 209.649 109.48 210.009 109.64C210.689 109.92 211.449 110.08 211.489 111.2C211.569 113.32 211.569 117.84 211.569 120.72C211.569 121.36 211.849 122.16 212.129 122.6C212.929 123.84 214.209 124.48 215.649 124.48C216.769 124.48 217.649 124.28 218.329 124C218.849 123.8 220.449 122.76 221.609 121.96C221.689 121.92 221.809 122.04 221.809 122.24C221.769 122.92 221.649 123.68 221.649 123.92C221.649 124.2 221.889 124.48 222.049 124.48C222.129 124.48 222.769 124.32 223.449 124.12C224.369 123.88 226.049 123.44 227.089 123.36C227.249 123.36 227.529 123.08 227.529 122.96C227.489 122.84 227.209 122.2 227.049 122.2C226.569 122.2 225.329 122.4 225.049 122.4C224.729 122.4 224.569 121.92 224.569 121.84C224.569 118.56 224.889 109.68 224.969 108.56C224.969 108.4 224.889 107.96 224.689 107.96C224.409 107.96 224.129 108 223.729 108.12C222.809 108.36 221.049 108.56 219.449 108.56C219.049 108.56 218.529 108.76 218.529 108.92C218.529 109.24 219.049 109.48 219.329 109.56L221.169 110.04C221.409 110.12 221.849 110.68 221.849 110.92L221.769 120.12C221.769 120.28 221.409 120.88 221.169 121.08C220.169 121.96 219.089 122.48 218.129 122.48ZM229.587 109.92C229.587 110.08 229.987 110.24 230.947 111C231.387 111.28 231.387 111.8 231.387 112.2V119.84C231.347 122.24 231.227 122.64 229.667 123.16C229.347 123.28 228.867 123.44 228.867 123.68C228.867 124 229.267 124.16 229.707 124.16C230.667 124.16 231.147 124 232.347 124C234.667 124 236.067 124.2 237.067 124.2C237.667 124.2 238.027 124.04 238.027 123.84C238.027 123.68 237.947 123.4 237.307 123.2L235.467 122.72C234.747 122.6 234.507 121.84 234.427 120.68C234.387 120.08 234.187 112.84 234.187 112.04C234.187 111.84 234.307 111.48 234.587 111.16C234.987 110.72 235.667 110.6 236.347 110.6C237.147 110.6 238.107 111.08 238.547 111.48C238.667 111.56 239.027 111.64 239.107 111.6C239.347 111.48 240.307 110.4 240.747 109.76C240.867 109.56 240.987 109.28 240.987 109.2C240.987 108.84 240.627 107.84 238.987 107.84C237.747 107.84 235.987 108.84 234.427 110.32C234.347 110.36 234.147 110.32 234.147 110.16C234.147 109.4 234.227 108.68 234.227 107.96C234.227 107.84 234.027 107.48 233.867 107.48C233.747 107.48 233.547 107.64 233.067 107.96C232.667 108.2 231.427 108.8 230.107 109.24C229.667 109.4 229.587 109.8 229.587 109.92ZM246.348 124C247.188 124 249.188 124.12 249.468 124.12C249.908 124.12 250.388 123.96 250.388 123.72C250.388 123.44 250.148 123.24 249.508 123.04C248.508 122.72 247.628 122.64 247.588 121.36C247.548 119.96 247.508 118.28 247.508 116.04C247.508 113.76 247.748 108.56 247.748 108.12C247.748 108.08 247.548 107.68 247.388 107.68C246.788 107.84 244.908 108.72 243.428 109.04C242.988 109.12 242.628 109.44 242.628 109.72C242.628 109.88 242.708 110 242.948 110.16C244.108 111 244.548 111.32 244.588 111.6C244.668 112.08 244.628 116.64 244.628 117.84C244.628 119 244.588 121.4 244.468 121.96C244.388 122.36 243.788 122.84 242.868 123.08C242.188 123.28 241.908 123.48 241.908 123.72C241.908 124 242.308 124.16 242.948 124.16C243.628 124.16 245.028 124 246.348 124ZM246.268 99.72C245.708 99.72 245.108 99.88 244.708 100.24C244.388 100.68 244.228 101.32 244.228 101.68C244.228 102.36 244.508 102.8 244.828 103.16C245.188 103.48 245.828 103.64 246.108 103.64C246.908 103.64 248.028 102.76 248.028 101.68C248.028 100.96 247.348 99.72 246.268 99.72ZM252.831 109.76C252.831 109.88 253.071 110.08 253.591 110.44C254.471 111.16 254.551 111.56 254.551 112C254.551 116.08 254.471 119.56 254.351 120.76C254.231 122.2 253.991 122.6 252.671 123C252.231 123.12 251.831 123.32 251.831 123.6C251.831 123.96 252.271 124.12 252.871 124.12C253.551 124.12 254.711 124 256.191 124C257.031 124 258.151 124.04 258.631 124.04C259.191 124.04 259.631 123.84 259.631 123.56C259.631 123.32 259.311 123.08 258.911 122.96C257.631 122.6 257.471 122.28 257.431 121.72C257.391 121.24 257.391 112.64 257.391 112.12C257.391 111.76 257.671 111.28 257.791 111.16C258.551 110.48 259.591 109.88 261.351 109.88C262.271 109.88 263.471 110.32 263.911 110.64C264.391 111 265.111 112.16 265.111 113.6C265.111 114.76 265.071 119.6 264.991 120.92C264.911 122.24 264.711 122.56 263.751 122.92C263.271 123.08 262.831 123.32 262.831 123.6C262.831 123.92 263.391 124.08 263.751 124.08C264.271 124.08 265.511 124 266.511 124C267.631 124 268.551 124.08 269.471 124.08C270.111 124.08 270.671 123.92 270.671 123.64C270.671 123.36 270.431 123.16 269.671 122.96C268.671 122.68 268.271 122.16 268.191 121.56C268.151 121 268.071 115.04 268.071 114.28C268.071 112.28 267.551 110.44 266.671 109.4C266.111 108.76 264.991 107.88 263.031 107.88C261.351 107.88 259.271 109 257.671 110.08C257.631 110.08 257.431 110.16 257.431 109.96C257.431 109.6 257.591 108.64 257.591 107.96C257.591 107.8 257.391 107.36 257.191 107.36C256.991 107.36 256.631 107.56 256.231 107.8C255.671 108.2 254.231 108.72 253.551 108.96C253.271 109.08 252.831 109.48 252.831 109.76ZM279.536 107.68C277.976 107.68 276.576 108.12 275.456 108.96C273.896 110.12 273.016 111.56 273.016 113.52C273.016 116.44 274.936 117.96 276.056 118.6C276.176 118.72 276.296 118.88 276.216 118.96C275.576 119.6 273.856 120.56 273.256 121.04C273.176 121.12 273.056 121.32 273.056 121.4C273.056 122.68 273.616 123.8 274.416 124.36C274.936 124.76 275.696 125 275.976 125.16C276.096 125.24 276.176 125.36 276.096 125.44C275.576 125.88 274.336 126.76 273.336 127.6C272.976 127.88 272.176 128.36 272.176 130.12C272.176 131.24 272.896 132.72 274.016 133.6C275.696 134.84 277.576 135.08 279.016 135.08C280.456 135.08 282.576 134.8 284.776 133.36C286.496 132.24 288.536 130.2 288.536 127.2C288.536 126.16 287.976 124.64 286.856 123.68C286.136 123.12 285.256 122.76 284.936 122.72C283.656 122.52 279.336 122.48 277.576 122.4C277.136 122.36 275.936 121.64 275.936 120.6C275.936 120.28 276.816 119.44 277.216 119.24C277.376 119.16 277.576 119.16 277.816 119.2C278.096 119.2 278.976 119.24 279.216 119.24C280.176 119.24 281.816 119.08 283.576 117.72C285.136 116.52 285.816 114.88 285.816 112.68C285.816 112 285.696 111.28 285.496 110.68C285.456 110.56 285.576 110.36 285.736 110.36C286.736 110.44 288.176 110.44 288.416 110.44C288.576 110.44 289.136 109.72 289.136 109.16C289.136 109 289.016 108.76 288.776 108.72C287.936 108.52 285.016 108.48 284.136 108.4L283.016 108.16C281.856 107.88 281.136 107.68 279.536 107.68ZM280.496 133.4C279.016 133.4 277.656 133 276.576 132.16C275.736 131.44 275.176 130.4 275.176 129.12C275.176 128.2 275.696 126.72 276.976 125.84C277.216 125.68 277.856 125.44 279.136 125.44C280.816 125.44 282.096 125.44 283.176 125.64C284.136 125.84 284.896 126.36 285.296 126.88C285.776 127.52 285.856 128.44 285.856 128.96C285.856 130.12 285.256 131.64 283.656 132.68C283.216 132.92 282.056 133.4 280.496 133.4ZM279.216 108.64C280.376 108.64 281.336 109.28 282.096 110.4C282.736 111.36 282.976 112.68 282.976 113.4C282.976 115.04 282.456 117 281.456 117.64C280.896 118 280.416 118.2 280.136 118.2C277.536 118.2 276.176 115.2 276.176 113.2C276.176 111.32 276.616 110.28 277.216 109.64C277.576 109.16 278.496 108.64 279.216 108.64ZM297.985 109.92C297.985 110.08 298.385 110.24 299.345 111C299.785 111.28 299.785 111.8 299.785 112.2V119.84C299.745 122.24 299.625 122.64 298.065 123.16C297.745 123.28 297.265 123.44 297.265 123.68C297.265 124 297.665 124.16 298.105 124.16C299.065 124.16 299.545 124 300.745 124C303.065 124 304.465 124.2 305.465 124.2C306.065 124.2 306.425 124.04 306.425 123.84C306.425 123.68 306.345 123.4 305.705 123.2L303.865 122.72C303.145 122.6 302.905 121.84 302.825 120.68C302.785 120.08 302.585 112.84 302.585 112.04C302.585 111.84 302.705 111.48 302.985 111.16C303.385 110.72 304.065 110.6 304.745 110.6C305.545 110.6 306.505 111.08 306.945 111.48C307.065 111.56 307.425 111.64 307.505 111.6C307.745 111.48 308.705 110.4 309.145 109.76C309.265 109.56 309.385 109.28 309.385 109.2C309.385 108.84 309.025 107.84 307.385 107.84C306.145 107.84 304.385 108.84 302.825 110.32C302.745 110.36 302.545 110.32 302.545 110.16C302.545 109.4 302.625 108.68 302.625 107.96C302.625 107.84 302.425 107.48 302.265 107.48C302.145 107.48 301.945 107.64 301.465 107.96C301.065 108.2 299.825 108.8 298.505 109.24C298.065 109.4 297.985 109.8 297.985 109.92ZM318.387 107.88C317.707 107.88 316.387 108.12 315.347 108.6C312.227 110.04 310.547 113.24 310.547 116.44C310.547 121.12 313.427 124.4 317.747 124.4C320.027 124.4 322.147 123.44 323.547 121.4C323.667 121.2 323.827 120.76 323.827 120.44C323.827 120.24 323.747 119.96 323.507 119.96C323.347 119.96 323.147 120.2 322.987 120.44C322.307 121.44 321.107 121.88 319.347 121.88C317.427 121.88 315.747 120.88 314.867 119.68C313.987 118.52 313.347 116.68 313.347 115.12C313.347 114.72 313.427 114.04 313.547 113.72C313.587 113.6 313.747 113.4 313.867 113.4C315.707 113.44 322.547 113.44 322.987 113.44C323.427 113.44 323.747 113 323.747 112.76C323.747 111.36 323.227 110.24 322.347 109.4C321.347 108.4 319.787 107.88 318.387 107.88ZM317.987 108.92C319.427 108.92 320.627 110.2 320.627 111.32C320.627 112.12 320.227 112.32 319.267 112.32C317.267 112.36 315.147 112.36 314.107 112.32C314.027 112.32 313.867 112.08 313.947 111.88C314.667 110.04 316.187 108.92 317.987 108.92ZM336.198 107.84C335.118 107.84 332.758 108.24 330.918 109.36C328.958 110.52 326.678 112.8 326.678 116.72C326.678 118.72 327.318 120.76 328.598 122.2C329.838 123.52 331.678 124.4 333.598 124.4C334.918 124.4 336.958 124.04 338.798 122.4C338.878 122.4 339.038 122.48 339.038 122.64C339.038 123.2 338.958 123.92 338.958 124.28C338.958 124.48 339.238 124.8 339.398 124.8C339.598 124.8 339.918 124.72 340.838 124.4C341.598 124.12 343.678 123.72 344.438 123.6C344.638 123.56 345.118 122.88 345.118 122.6C345.118 122.56 345.038 122.36 344.878 122.36C344.478 122.4 343.158 122.68 342.718 122.68C342.478 122.68 342.158 122.52 342.078 121.04C342.078 120.28 341.998 119.64 341.998 111.92C341.998 99.68 342.158 98.24 342.358 96.12C342.398 95.76 342.158 95.48 342.038 95.48C341.878 95.48 341.758 95.52 341.518 95.6C340.478 96 338.358 96.6 337.438 96.72C337.198 96.76 336.758 97.24 336.758 97.4C336.758 97.48 336.798 97.56 337.158 97.76C338.998 98.72 338.998 99.2 339.038 99.4C339.158 100.36 339.278 106.48 339.078 107.56C339.038 107.76 338.918 108.04 338.758 108C338.278 107.92 337.638 107.84 336.198 107.84ZM334.718 109.16C335.518 109.16 337.038 109.6 338.158 110.72C338.638 111.2 338.998 111.92 339.038 112.24C339.158 114.12 339.198 116.32 339.158 118.88C339.118 120.16 338.598 121.44 338.518 121.52C337.798 122.04 336.878 122.48 335.598 122.48C332.158 122.48 329.918 118.8 329.918 115.6C329.918 113.36 330.838 111.32 331.598 110.56C332.318 109.84 333.438 109.16 334.718 109.16ZM355.043 122.48C354.083 122.48 353.363 122.48 352.323 121.68C351.763 121.28 351.323 120.36 351.323 119.44C351.323 117.64 351.483 110.08 351.443 108.72C351.443 108.48 351.283 108.12 351.123 108.12C350.963 108.12 348.003 108.56 346.883 108.56C346.403 108.56 346.203 108.8 346.203 108.92C346.203 109.28 346.563 109.48 346.923 109.64C347.603 109.92 348.363 110.08 348.403 111.2C348.483 113.32 348.483 117.84 348.483 120.72C348.483 121.36 348.763 122.16 349.043 122.6C349.843 123.84 351.123 124.48 352.563 124.48C353.683 124.48 354.563 124.28 355.243 124C355.763 123.8 357.363 122.76 358.523 121.96C358.603 121.92 358.723 122.04 358.723 122.24C358.683 122.92 358.563 123.68 358.563 123.92C358.563 124.2 358.803 124.48 358.963 124.48C359.043 124.48 359.683 124.32 360.363 124.12C361.283 123.88 362.963 123.44 364.003 123.36C364.163 123.36 364.443 123.08 364.443 122.96C364.403 122.84 364.123 122.2 363.963 122.2C363.483 122.2 362.243 122.4 361.963 122.4C361.643 122.4 361.483 121.92 361.483 121.84C361.483 118.56 361.803 109.68 361.883 108.56C361.883 108.4 361.803 107.96 361.603 107.96C361.323 107.96 361.043 108 360.643 108.12C359.723 108.36 357.963 108.56 356.363 108.56C355.963 108.56 355.443 108.76 355.443 108.92C355.443 109.24 355.963 109.48 356.243 109.56L358.083 110.04C358.323 110.12 358.763 110.68 358.763 110.92L358.683 120.12C358.683 120.28 358.323 120.88 358.083 121.08C357.083 121.96 356.003 122.48 355.043 122.48ZM375.525 107.96C374.445 107.96 371.845 108.52 370.285 109.64C367.965 111.2 366.405 113.64 366.405 116.56C366.405 118.24 366.965 120.12 367.645 121.24C368.925 123.12 371.045 124.44 373.565 124.44C375.645 124.44 377.925 123.52 379.325 121.96C379.645 121.64 379.845 121.24 379.845 120.8C379.845 120.6 379.525 120.48 379.085 120.8C378.045 121.52 377.005 122 375.525 122C373.445 122 371.485 121 370.485 119.32C370.325 119.08 369.445 117.64 369.445 115.32C369.445 113.56 370.045 111.92 371.125 110.72C371.765 109.92 372.965 109.36 373.605 109.36C374.965 109.36 375.645 109.96 376.965 110.92C377.605 111.36 378.285 111.68 378.525 111.68C378.685 111.68 379.845 110.72 379.845 110.08C379.845 109.84 379.645 109.16 379.245 108.88C378.485 108.28 376.725 107.96 375.525 107.96ZM387.349 108.4C387.189 108.4 387.029 108.2 387.029 108.08V106.2C387.029 106.12 386.669 105.76 386.469 105.76C386.309 105.76 386.029 106.08 385.549 106.64C384.989 107.32 383.749 108.28 382.349 109.4C382.229 109.52 382.109 109.68 382.109 109.84C382.109 109.96 382.349 110.16 382.669 110.28C383.469 110.52 384.189 110.8 384.189 111.08C384.189 112.48 384.029 118.48 384.029 119.96C384.029 121.08 384.109 121.92 384.549 122.6C385.029 123.48 386.429 124.48 388.069 124.48C389.869 124.48 391.269 123.76 392.349 122.72C392.629 122.44 392.909 122.04 392.909 121.72C392.909 121.36 392.709 121.28 392.669 121.28C392.509 121.28 392.429 121.32 392.069 121.52C391.469 121.88 390.629 122.12 390.109 122.12C389.269 122.12 388.429 122.04 387.669 121.36C387.229 120.92 386.989 120.4 386.989 119.4C386.989 117.48 387.029 111.6 387.069 110.8C387.069 110.72 387.229 110.52 387.429 110.52H391.789C392.069 110.52 392.829 110.44 392.829 110.08C392.829 109.56 392.709 108.44 392.709 108.56C392.709 108.44 392.309 108.24 392.269 108.24C392.109 108.24 388.229 108.4 387.349 108.4ZM398.731 124C399.571 124 401.571 124.12 401.851 124.12C402.291 124.12 402.771 123.96 402.771 123.72C402.771 123.44 402.531 123.24 401.891 123.04C400.891 122.72 400.011 122.64 399.971 121.36C399.931 119.96 399.891 118.28 399.891 116.04C399.891 113.76 400.131 108.56 400.131 108.12C400.131 108.08 399.931 107.68 399.771 107.68C399.171 107.84 397.291 108.72 395.811 109.04C395.371 109.12 395.011 109.44 395.011 109.72C395.011 109.88 395.091 110 395.331 110.16C396.491 111 396.931 111.32 396.971 111.6C397.051 112.08 397.011 116.64 397.011 117.84C397.011 119 396.971 121.4 396.851 121.96C396.771 122.36 396.171 122.84 395.251 123.08C394.571 123.28 394.291 123.48 394.291 123.72C394.291 124 394.691 124.16 395.331 124.16C396.011 124.16 397.411 124 398.731 124ZM398.651 99.72C398.091 99.72 397.491 99.88 397.091 100.24C396.771 100.68 396.611 101.32 396.611 101.68C396.611 102.36 396.891 102.8 397.211 103.16C397.571 103.48 398.211 103.64 398.491 103.64C399.291 103.64 400.411 102.76 400.411 101.68C400.411 100.96 399.731 99.72 398.651 99.72ZM413.328 107.84C410.648 107.84 408.648 108.96 407.408 110.04C405.888 111.32 404.608 113.24 404.608 116.28C404.608 118.28 405.848 121 407.568 122.4C409.048 123.64 411.048 124.48 412.888 124.48C414.688 124.48 416.248 124.04 417.848 122.88C419.328 121.92 421.328 119.32 421.328 116C421.328 110.96 417.288 107.84 413.328 107.84ZM412.568 109.04C413.608 109.04 415.048 109.64 415.928 110.6C417.448 112.36 417.928 114.64 417.928 116.72C417.928 118.44 417.128 120.92 416.128 122C415.008 123.12 414.128 123.32 413.688 123.32C411.768 123.32 409.488 121.88 408.488 118.88C408.168 117.88 408.008 116.64 408.008 115.32C408.008 113.24 408.928 111.16 409.968 110.2C410.808 109.48 411.728 109.04 412.568 109.04ZM424.589 109.76C424.589 109.88 424.829 110.08 425.349 110.44C426.229 111.16 426.309 111.56 426.309 112C426.309 116.08 426.229 119.56 426.109 120.76C425.989 122.2 425.749 122.6 424.429 123C423.989 123.12 423.589 123.32 423.589 123.6C423.589 123.96 424.029 124.12 424.629 124.12C425.309 124.12 426.469 124 427.949 124C428.789 124 429.909 124.04 430.389 124.04C430.949 124.04 431.389 123.84 431.389 123.56C431.389 123.32 431.069 123.08 430.669 122.96C429.389 122.6 429.229 122.28 429.189 121.72C429.149 121.24 429.149 112.64 429.149 112.12C429.149 111.76 429.429 111.28 429.549 111.16C430.309 110.48 431.349 109.88 433.109 109.88C434.029 109.88 435.229 110.32 435.669 110.64C436.149 111 436.869 112.16 436.869 113.6C436.869 114.76 436.829 119.6 436.749 120.92C436.669 122.24 436.469 122.56 435.509 122.92C435.029 123.08 434.589 123.32 434.589 123.6C434.589 123.92 435.149 124.08 435.509 124.08C436.029 124.08 437.269 124 438.269 124C439.389 124 440.309 124.08 441.229 124.08C441.869 124.08 442.429 123.92 442.429 123.64C442.429 123.36 442.189 123.16 441.429 122.96C440.429 122.68 440.029 122.16 439.949 121.56C439.909 121 439.829 115.04 439.829 114.28C439.829 112.28 439.309 110.44 438.429 109.4C437.869 108.76 436.749 107.88 434.789 107.88C433.109 107.88 431.029 109 429.429 110.08C429.389 110.08 429.189 110.16 429.189 109.96C429.189 109.6 429.349 108.64 429.349 107.96C429.349 107.8 429.149 107.36 428.949 107.36C428.749 107.36 428.389 107.56 427.989 107.8C427.429 108.2 425.989 108.72 425.309 108.96C425.029 109.08 424.589 109.48 424.589 109.76ZM450.455 107.84C449.095 107.84 448.015 108.2 447.255 108.68C445.735 109.6 445.055 110.92 445.055 112.28C445.055 114.16 446.335 115.56 447.535 116.32C448.775 117.12 449.015 117.32 449.975 118C451.215 118.76 451.775 119.6 451.775 120.68C451.775 121.44 451.455 122.4 450.855 122.88C450.415 123.2 449.775 123.48 449.255 123.48C447.815 123.48 446.735 122.68 445.615 120.64C445.375 120.2 445.095 119.72 444.775 119.72C444.535 119.72 444.455 120.12 444.455 120.56C444.455 121.72 444.935 123.4 445.055 123.6C445.735 124.16 447.735 124.48 448.935 124.48C450.175 124.48 451.575 124.04 452.295 123.56C453.295 122.84 454.615 121.48 454.615 119.64C454.615 117.84 453.735 116.48 451.495 115.16C448.815 113.68 447.535 112.64 447.535 111.28C447.535 110.44 448.295 108.8 449.935 108.8C451.255 108.8 452.255 109.6 453.135 111.48C453.335 111.92 453.575 112.16 453.735 112.16C454.055 112.16 454.215 111.8 454.215 111.44C454.215 111.16 454.095 109.8 454.095 109.08C454.095 108.84 453.855 108.56 453.775 108.52C453.695 108.48 452.935 108.16 452.495 108.08C452.055 107.96 451.215 107.84 450.455 107.84ZM460.221 119.88C459.501 119.88 458.021 120.52 458.021 122.2C458.021 123.92 459.261 124.52 460.221 124.52C461.541 124.52 462.461 123.48 462.461 122.2C462.461 121.4 461.941 119.88 460.221 119.88Z" fill="black"/>
<rect id="14:38" opacity="0.5" x="277" y="187" width="691" height="518" fill="#FF0000"/>
</g>
</svg>
