<svg width="1280" height="960" viewBox="0 0 1280 960" fill="none" xmlns="http://www.w3.org/2000/svg">
<g id="First slide">
<rect width="1280" height="960" fill="white"/>
<path id="Computational Complexity" d="M92.86 60.34C87.34 60.34 81.76 61.66 76.6 65.86C74.08 67.96 70 73.42 70 80.26C70 87.1 72.76 91.42 75.04 94.06C77.44 96.88 83.62 101.08 92.08 101.08C97.18 101.08 102.04 99.82 103 99.4C103.6 99.1 104.62 98.38 104.86 97.84C105.7 96.46 107.08 93.28 107.26 91.78C107.38 91.12 107.32 89.8 106.72 89.8C106.48 89.8 106.24 90.1 105.46 91.36C104.02 93.88 102.52 95.8 99.88 97.18C97.42 98.62 94.48 98.8 93.34 98.8C88.48 98.8 81.52 96.1 78.16 89.2C76.84 86.56 76.06 83.32 76.06 79.3C76.06 70.24 82.24 62.26 91.9 62.26C95.14 62.26 98.2 62.92 101.5 65.38C102.28 65.98 103.42 67.78 103.96 69.88C104.26 70.78 104.62 71.44 104.92 71.44C105.4 71.44 105.88 70.72 105.82 69.46C105.7 68.14 105.4 65.5 105.4 64.24C105.4 62.86 104.8 62.44 104.5 62.44C103.6 62.32 101.5 61.54 99.94 61.3C97.66 60.76 94.96 60.34 92.86 60.34ZM125.008 75.76C120.988 75.76 117.988 77.44 116.128 79.06C113.848 80.98 111.928 83.86 111.928 88.42C111.928 91.42 113.788 95.5 116.368 97.6C118.588 99.46 121.588 100.72 124.348 100.72C127.048 100.72 129.388 100.06 131.788 98.32C134.008 96.88 137.008 92.98 137.008 88C137.008 80.44 130.948 75.76 125.008 75.76ZM123.868 77.56C125.428 77.56 127.588 78.46 128.908 79.9C131.188 82.54 131.908 85.96 131.908 89.08C131.908 91.66 130.708 95.38 129.208 97C127.528 98.68 126.208 98.98 125.548 98.98C122.668 98.98 119.248 96.82 117.748 92.32C117.268 90.82 117.028 88.96 117.028 86.98C117.028 83.86 118.408 80.74 119.968 79.3C121.228 78.22 122.608 77.56 123.868 77.56ZM141.839 79C141.839 79.3 142.259 79.6 143.939 81.16C144.479 81.7 144.359 82.48 144.359 82.78C144.359 86.92 144.299 92.92 144.179 94.66C143.939 97.24 143.579 98.14 141.659 98.62C140.579 98.86 140.219 99.28 140.219 99.52C140.219 99.94 140.819 100.18 141.719 100.18C143.039 100.18 144.239 100 146.219 100C148.499 100 150.719 100.12 150.959 100.12C151.739 100.12 152.579 99.94 152.579 99.52C152.579 99.04 152.099 98.8 150.959 98.44C149.039 97.84 148.799 96.88 148.799 95.74C148.799 91.18 148.799 83.62 148.919 82.06C148.979 81.4 149.159 80.92 149.579 80.56C151.019 79.42 152.399 78.7 154.379 78.7C156.539 78.7 158.099 79.48 158.879 80.5C159.299 81.04 159.659 81.82 159.659 83.56V95.32C159.659 97.48 159.419 98.08 157.379 98.56C156.419 98.8 156.179 99.22 156.179 99.4C156.179 99.64 156.359 100.12 157.739 100.12C158.999 100.12 160.739 100 161.999 100C163.379 100 165.179 100.12 166.499 100.12C167.459 100.12 167.939 99.82 167.939 99.4C167.939 99.1 167.339 98.74 166.679 98.56C164.639 98.08 164.339 97.48 164.159 95.56C164.039 94.24 164.159 82.9 164.159 82.48C164.159 82.06 164.579 80.92 164.759 80.74C165.599 80.02 166.679 78.88 169.379 78.88C171.899 78.88 173.219 79.84 173.939 80.98C174.539 82.06 174.899 82.9 174.899 85C174.899 86.98 175.019 93.7 175.019 95.14C175.019 97.24 174.779 97.96 172.859 98.56C172.199 98.74 171.539 98.98 171.539 99.34C171.539 99.76 171.899 100.12 173.039 100.12C174.419 100.12 175.319 100 177.119 100C178.619 100 180.239 100.18 181.439 100.18C182.579 100.18 183.119 99.94 183.119 99.52C183.119 99.16 182.759 98.92 181.979 98.68C179.819 98.08 179.459 96.94 179.399 95.86C179.399 90.94 179.519 86.74 179.279 83.62C179.159 81.46 178.619 79.36 177.299 77.86C176.039 76.54 174.359 75.82 172.139 75.82C171.059 75.82 169.679 76.12 168.299 76.78C166.739 77.56 165.179 78.52 164.039 79.36C163.799 79.48 163.679 79.36 163.559 79.12C163.319 78.7 162.719 77.8 161.639 77.02C160.559 76.24 159.119 75.82 156.959 75.82C154.139 75.82 150.419 78.1 148.919 79.3C148.679 79.54 148.559 79.12 148.559 78.94C148.559 78.34 148.799 76.66 148.799 75.82C148.799 75.7 148.379 75.28 148.079 75.22C147.959 75.22 147.839 75.28 147.599 75.46C146.939 75.88 144.239 77.44 143.039 77.92C142.379 78.28 141.839 78.64 141.839 79ZM202.196 75.88C200.516 75.88 198.716 76.18 197.756 76.6C196.916 76.96 195.296 77.8 193.856 78.76C193.616 78.94 193.376 78.7 193.376 78.46C193.436 77.5 193.436 76.36 193.556 75.4C193.556 75.16 193.076 74.68 192.896 74.68C192.776 74.68 192.296 74.92 191.696 75.22C190.676 75.82 188.036 77.08 187.136 77.32C186.896 77.38 186.296 78.1 186.296 78.4C186.296 78.7 187.016 79.24 188.516 80.32C188.696 80.44 188.996 80.86 188.996 83.38C189.056 86.92 188.996 91.42 188.996 95.5C188.996 101.62 188.936 106.54 188.816 108.52C188.576 112.84 188.276 113.38 185.096 114.04C184.136 114.22 183.716 114.7 183.716 114.94C183.716 115.48 184.616 115.72 185.516 115.72C187.316 115.72 187.916 115.54 189.356 115.54C191.696 115.54 195.176 115.84 196.496 115.84C197.276 115.84 198.056 115.54 198.056 115.06C198.056 114.64 197.576 114.34 196.376 113.98C194.096 113.26 193.676 112.54 193.496 110.98C193.316 109.3 193.256 106.84 193.256 101.02C193.256 100.72 193.496 100.24 193.676 100.24C194.456 100.36 195.656 100.48 197.036 100.48C199.736 100.48 203.276 100 206.576 97.42C210.416 94.54 211.676 90.1 211.676 87.1C211.676 83.8 210.296 80.86 208.856 79.24C207.056 77.26 204.356 75.88 202.196 75.88ZM199.076 78.94C200.456 78.94 202.916 79.78 204.476 81.4C206.936 84.1 206.936 87.34 206.936 88.72C206.936 90.52 205.856 95.02 202.856 97.54C202.016 98.26 200.756 98.56 200.096 98.56C198.596 98.56 195.716 97.54 194.096 95.26C193.676 94.72 193.436 93.7 193.316 92.62C193.076 90.16 193.136 83.62 193.436 81.82C193.616 80.74 193.916 80.26 194.216 80.02C194.876 79.48 196.556 78.94 199.076 78.94ZM228.362 97.72C226.922 97.72 225.842 97.72 224.282 96.52C223.442 95.92 222.782 94.54 222.782 93.16C222.782 90.46 223.022 79.12 222.962 77.08C222.962 76.72 222.722 76.18 222.482 76.18C222.242 76.18 217.802 76.84 216.122 76.84C215.402 76.84 215.102 77.2 215.102 77.38C215.102 77.92 215.642 78.22 216.182 78.46C217.202 78.88 218.342 79.12 218.402 80.8C218.522 83.98 218.522 90.76 218.522 95.08C218.522 96.04 218.942 97.24 219.362 97.9C220.562 99.76 222.482 100.72 224.642 100.72C226.322 100.72 227.642 100.42 228.662 100C229.442 99.7 231.842 98.14 233.582 96.94C233.702 96.88 233.882 97.06 233.882 97.36C233.822 98.38 233.642 99.52 233.642 99.88C233.642 100.3 234.002 100.72 234.242 100.72C234.362 100.72 235.322 100.48 236.342 100.18C237.722 99.82 240.242 99.16 241.802 99.04C242.042 99.04 242.462 98.62 242.462 98.44C242.402 98.26 241.982 97.3 241.742 97.3C241.022 97.3 239.162 97.6 238.742 97.6C238.262 97.6 238.022 96.88 238.022 96.76C238.022 91.84 238.502 78.52 238.622 76.84C238.622 76.6 238.502 75.94 238.202 75.94C237.782 75.94 237.362 76 236.762 76.18C235.382 76.54 232.742 76.84 230.342 76.84C229.742 76.84 228.962 77.14 228.962 77.38C228.962 77.86 229.742 78.22 230.162 78.34L232.922 79.06C233.282 79.18 233.942 80.02 233.942 80.38L233.822 94.18C233.822 94.42 233.282 95.32 232.922 95.62C231.422 96.94 229.802 97.72 228.362 97.72ZM252.563 76.6C252.323 76.6 252.083 76.3 252.083 76.12V73.3C252.083 73.18 251.543 72.64 251.243 72.64C251.003 72.64 250.583 73.12 249.863 73.96C249.023 74.98 247.163 76.42 245.063 78.1C244.883 78.28 244.703 78.52 244.703 78.76C244.703 78.94 245.063 79.24 245.543 79.42C246.743 79.78 247.823 80.2 247.823 80.62C247.823 82.72 247.583 91.72 247.583 93.94C247.583 95.62 247.703 96.88 248.363 97.9C249.083 99.22 251.183 100.72 253.643 100.72C256.343 100.72 258.443 99.64 260.063 98.08C260.483 97.66 260.903 97.06 260.903 96.58C260.903 96.04 260.603 95.92 260.543 95.92C260.303 95.92 260.183 95.98 259.643 96.28C258.743 96.82 257.483 97.18 256.703 97.18C255.443 97.18 254.183 97.06 253.043 96.04C252.383 95.38 252.023 94.6 252.023 93.1C252.023 90.22 252.083 81.4 252.143 80.2C252.143 80.08 252.383 79.78 252.683 79.78H259.223C259.643 79.78 260.783 79.66 260.783 79.12C260.783 78.34 260.603 76.66 260.603 76.84C260.603 76.66 260.003 76.36 259.943 76.36C259.703 76.36 253.883 76.6 252.563 76.6ZM273.953 75.76C272.813 75.76 270.113 76.78 268.373 78.04C265.553 79.9 263.873 81.58 263.873 83.32C263.873 83.62 264.233 84.1 264.593 84.1C264.893 84.1 267.893 82.6 268.493 82.12C268.613 82 268.853 81.64 268.853 81.46C268.733 80.26 268.913 79.18 269.273 79C269.693 78.7 270.473 78.34 271.733 78.34C274.673 78.34 276.413 80.86 276.413 82.36C276.413 83.08 276.353 86.74 276.293 87.28C276.293 87.64 275.933 87.94 274.553 88.36C273.233 88.78 268.433 90.1 267.533 90.46C266.633 90.88 265.733 91.18 265.133 91.96C264.473 92.8 263.993 93.94 263.993 95.02C263.993 98.02 266.033 100.6 268.133 100.6C268.433 100.6 269.873 100.48 270.533 100.24C271.133 100.06 273.713 99.04 275.933 97.48C276.053 97.42 276.293 97.66 276.293 97.72C277.013 99.94 278.753 100.72 280.133 100.72C282.833 100.72 285.533 98.14 285.533 97C285.533 96.94 285.533 96.58 285.353 96.4C285.233 96.22 285.173 96.1 284.993 96.22C284.333 96.7 282.953 97.12 282.713 97.12C282.233 97.12 280.313 96.88 280.313 94.12C280.313 93.46 280.553 85.9 280.553 83.56C280.553 81.04 280.253 79.84 279.353 78.58C278.453 77.26 276.953 75.76 273.953 75.76ZM272.153 97.48C270.893 97.48 268.373 96.52 268.373 93.88C268.373 92.44 268.973 92.02 269.573 91.6C271.193 90.82 274.073 89.8 275.753 89.8C275.993 89.8 276.233 90.1 276.233 90.28C276.233 91.48 276.233 93.52 276.113 94.96C276.113 95.08 275.753 96.22 275.393 96.46C274.253 97.06 273.053 97.48 272.153 97.48ZM294.633 76.6C294.393 76.6 294.153 76.3 294.153 76.12V73.3C294.153 73.18 293.613 72.64 293.313 72.64C293.073 72.64 292.653 73.12 291.933 73.96C291.093 74.98 289.233 76.42 287.133 78.1C286.953 78.28 286.773 78.52 286.773 78.76C286.773 78.94 287.133 79.24 287.613 79.42C288.813 79.78 289.893 80.2 289.893 80.62C289.893 82.72 289.653 91.72 289.653 93.94C289.653 95.62 289.773 96.88 290.433 97.9C291.153 99.22 293.253 100.72 295.713 100.72C298.413 100.72 300.513 99.64 302.133 98.08C302.553 97.66 302.973 97.06 302.973 96.58C302.973 96.04 302.673 95.92 302.613 95.92C302.373 95.92 302.253 95.98 301.713 96.28C300.813 96.82 299.553 97.18 298.773 97.18C297.513 97.18 296.253 97.06 295.113 96.04C294.453 95.38 294.093 94.6 294.093 93.1C294.093 90.22 294.153 81.4 294.213 80.2C294.213 80.08 294.453 79.78 294.753 79.78H301.293C301.713 79.78 302.853 79.66 302.853 79.12C302.853 78.34 302.673 76.66 302.673 76.84C302.673 76.66 302.073 76.36 302.013 76.36C301.773 76.36 295.953 76.6 294.633 76.6ZM311.706 100C312.966 100 315.966 100.18 316.386 100.18C317.046 100.18 317.766 99.94 317.766 99.58C317.766 99.16 317.406 98.86 316.446 98.56C314.946 98.08 313.626 97.96 313.566 96.04C313.506 93.94 313.446 91.42 313.446 88.06C313.446 84.64 313.806 76.84 313.806 76.18C313.806 76.12 313.506 75.52 313.266 75.52C312.366 75.76 309.546 77.08 307.326 77.56C306.666 77.68 306.126 78.16 306.126 78.58C306.126 78.82 306.246 79 306.606 79.24C308.346 80.5 309.006 80.98 309.066 81.4C309.186 82.12 309.126 88.96 309.126 90.76C309.126 92.5 309.066 96.1 308.886 96.94C308.766 97.54 307.866 98.26 306.486 98.62C305.466 98.92 305.046 99.22 305.046 99.58C305.046 100 305.646 100.24 306.606 100.24C307.626 100.24 309.726 100 311.706 100ZM311.586 63.58C310.746 63.58 309.846 63.82 309.246 64.36C308.766 65.02 308.526 65.98 308.526 66.52C308.526 67.54 308.946 68.2 309.426 68.74C309.966 69.22 310.926 69.46 311.346 69.46C312.546 69.46 314.226 68.14 314.226 66.52C314.226 65.44 313.206 63.58 311.586 63.58ZM333.602 75.76C329.582 75.76 326.582 77.44 324.722 79.06C322.442 80.98 320.522 83.86 320.522 88.42C320.522 91.42 322.382 95.5 324.962 97.6C327.182 99.46 330.182 100.72 332.942 100.72C335.642 100.72 337.982 100.06 340.382 98.32C342.602 96.88 345.602 92.98 345.602 88C345.602 80.44 339.542 75.76 333.602 75.76ZM332.462 77.56C334.022 77.56 336.182 78.46 337.502 79.9C339.782 82.54 340.502 85.96 340.502 89.08C340.502 91.66 339.302 95.38 337.802 97C336.122 98.68 334.802 98.98 334.142 98.98C331.262 98.98 327.842 96.82 326.342 92.32C325.862 90.82 325.622 88.96 325.622 86.98C325.622 83.86 327.002 80.74 328.562 79.3C329.822 78.22 331.202 77.56 332.462 77.56ZM350.493 78.64C350.493 78.82 350.853 79.12 351.633 79.66C352.953 80.74 353.073 81.34 353.073 82C353.073 88.12 352.953 93.34 352.773 95.14C352.593 97.3 352.233 97.9 350.253 98.5C349.593 98.68 348.993 98.98 348.993 99.4C348.993 99.94 349.653 100.18 350.553 100.18C351.573 100.18 353.313 100 355.533 100C356.793 100 358.473 100.06 359.193 100.06C360.033 100.06 360.693 99.76 360.693 99.34C360.693 98.98 360.213 98.62 359.613 98.44C357.693 97.9 357.453 97.42 357.393 96.58C357.333 95.86 357.333 82.96 357.333 82.18C357.333 81.64 357.753 80.92 357.933 80.74C359.073 79.72 360.633 78.82 363.273 78.82C364.653 78.82 366.453 79.48 367.113 79.96C367.833 80.5 368.913 82.24 368.913 84.4C368.913 86.14 368.853 93.4 368.733 95.38C368.613 97.36 368.313 97.84 366.873 98.38C366.153 98.62 365.493 98.98 365.493 99.4C365.493 99.88 366.333 100.12 366.873 100.12C367.653 100.12 369.513 100 371.013 100C372.693 100 374.073 100.12 375.453 100.12C376.413 100.12 377.253 99.88 377.253 99.46C377.253 99.04 376.893 98.74 375.753 98.44C374.253 98.02 373.653 97.24 373.533 96.34C373.473 95.5 373.353 86.56 373.353 85.42C373.353 82.42 372.573 79.66 371.253 78.1C370.413 77.14 368.733 75.82 365.793 75.82C363.273 75.82 360.153 77.5 357.753 79.12C357.693 79.12 357.393 79.24 357.393 78.94C357.393 78.4 357.633 76.96 357.633 75.94C357.633 75.7 357.333 75.04 357.033 75.04C356.733 75.04 356.193 75.34 355.593 75.7C354.753 76.3 352.593 77.08 351.573 77.44C351.153 77.62 350.493 78.22 350.493 78.64ZM390.378 75.76C389.238 75.76 386.538 76.78 384.798 78.04C381.978 79.9 380.298 81.58 380.298 83.32C380.298 83.62 380.658 84.1 381.018 84.1C381.318 84.1 384.318 82.6 384.918 82.12C385.038 82 385.278 81.64 385.278 81.46C385.158 80.26 385.338 79.18 385.698 79C386.118 78.7 386.898 78.34 388.158 78.34C391.098 78.34 392.838 80.86 392.838 82.36C392.838 83.08 392.778 86.74 392.718 87.28C392.718 87.64 392.358 87.94 390.978 88.36C389.658 88.78 384.858 90.1 383.958 90.46C383.058 90.88 382.158 91.18 381.558 91.96C380.898 92.8 380.418 93.94 380.418 95.02C380.418 98.02 382.458 100.6 384.558 100.6C384.858 100.6 386.298 100.48 386.958 100.24C387.558 100.06 390.138 99.04 392.358 97.48C392.478 97.42 392.718 97.66 392.718 97.72C393.438 99.94 395.178 100.72 396.558 100.72C399.258 100.72 401.958 98.14 401.958 97C401.958 96.94 401.958 96.58 401.778 96.4C401.658 96.22 401.598 96.1 401.418 96.22C400.758 96.7 399.378 97.12 399.138 97.12C398.658 97.12 396.738 96.88 396.738 94.12C396.738 93.46 396.978 85.9 396.978 83.56C396.978 81.04 396.678 79.84 395.778 78.58C394.878 77.26 393.378 75.76 390.378 75.76ZM388.578 97.48C387.318 97.48 384.798 96.52 384.798 93.88C384.798 92.44 385.398 92.02 385.998 91.6C387.618 90.82 390.498 89.8 392.178 89.8C392.418 89.8 392.658 90.1 392.658 90.28C392.658 91.48 392.658 93.52 392.538 94.96C392.538 95.08 392.178 96.22 391.818 96.46C390.678 97.06 389.478 97.48 388.578 97.48ZM404.851 60.4C404.851 60.64 405.031 60.82 406.051 61.54C407.431 62.38 407.431 62.74 407.491 63.22C407.671 64.84 407.671 71.32 407.671 75.76C407.671 85.24 407.491 91.54 407.311 94C407.071 97 406.951 98.08 404.191 98.68C403.531 98.8 402.871 99.1 402.871 99.52C402.871 100 403.351 100.18 404.551 100.18C405.811 100.18 408.451 100 409.831 100C410.911 100 413.491 100.18 414.931 100.18C415.651 100.18 416.491 99.94 416.491 99.52C416.491 99.16 416.011 98.86 415.111 98.62C412.531 97.9 412.291 97.18 412.051 95.98C411.751 94.36 411.871 82.9 411.871 74.14C411.871 66.1 412.231 59.32 412.411 57.82C412.411 57.58 412.051 57.1 411.871 57.22C410.251 58.24 408.451 58.6 405.691 59.56C405.031 59.74 404.851 60.16 404.851 60.4ZM454.852 60.34C449.332 60.34 443.752 61.66 438.592 65.86C436.072 67.96 431.992 73.42 431.992 80.26C431.992 87.1 434.752 91.42 437.032 94.06C439.432 96.88 445.612 101.08 454.072 101.08C459.172 101.08 464.032 99.82 464.992 99.4C465.592 99.1 466.612 98.38 466.852 97.84C467.692 96.46 469.072 93.28 469.252 91.78C469.372 91.12 469.312 89.8 468.712 89.8C468.472 89.8 468.232 90.1 467.452 91.36C466.012 93.88 464.512 95.8 461.872 97.18C459.412 98.62 456.472 98.8 455.332 98.8C450.472 98.8 443.512 96.1 440.152 89.2C438.832 86.56 438.052 83.32 438.052 79.3C438.052 70.24 444.232 62.26 453.892 62.26C457.132 62.26 460.192 62.92 463.492 65.38C464.272 65.98 465.412 67.78 465.952 69.88C466.252 70.78 466.612 71.44 466.912 71.44C467.392 71.44 467.872 70.72 467.812 69.46C467.692 68.14 467.392 65.5 467.392 64.24C467.392 62.86 466.792 62.44 466.492 62.44C465.592 62.32 463.492 61.54 461.932 61.3C459.652 60.76 456.952 60.34 454.852 60.34ZM487 75.76C482.98 75.76 479.98 77.44 478.12 79.06C475.84 80.98 473.92 83.86 473.92 88.42C473.92 91.42 475.78 95.5 478.36 97.6C480.58 99.46 483.58 100.72 486.34 100.72C489.04 100.72 491.38 100.06 493.78 98.32C496 96.88 499 92.98 499 88C499 80.44 492.94 75.76 487 75.76ZM485.86 77.56C487.42 77.56 489.58 78.46 490.9 79.9C493.18 82.54 493.9 85.96 493.9 89.08C493.9 91.66 492.7 95.38 491.2 97C489.52 98.68 488.2 98.98 487.54 98.98C484.66 98.98 481.24 96.82 479.74 92.32C479.26 90.82 479.02 88.96 479.02 86.98C479.02 83.86 480.4 80.74 481.96 79.3C483.22 78.22 484.6 77.56 485.86 77.56ZM503.831 79C503.831 79.3 504.251 79.6 505.931 81.16C506.471 81.7 506.351 82.48 506.351 82.78C506.351 86.92 506.291 92.92 506.171 94.66C505.931 97.24 505.571 98.14 503.651 98.62C502.571 98.86 502.211 99.28 502.211 99.52C502.211 99.94 502.811 100.18 503.711 100.18C505.031 100.18 506.231 100 508.211 100C510.491 100 512.711 100.12 512.951 100.12C513.731 100.12 514.571 99.94 514.571 99.52C514.571 99.04 514.091 98.8 512.951 98.44C511.031 97.84 510.791 96.88 510.791 95.74C510.791 91.18 510.791 83.62 510.911 82.06C510.971 81.4 511.151 80.92 511.571 80.56C513.011 79.42 514.391 78.7 516.371 78.7C518.531 78.7 520.091 79.48 520.871 80.5C521.291 81.04 521.651 81.82 521.651 83.56V95.32C521.651 97.48 521.411 98.08 519.371 98.56C518.411 98.8 518.171 99.22 518.171 99.4C518.171 99.64 518.351 100.12 519.731 100.12C520.991 100.12 522.731 100 523.991 100C525.371 100 527.171 100.12 528.491 100.12C529.451 100.12 529.931 99.82 529.931 99.4C529.931 99.1 529.331 98.74 528.671 98.56C526.631 98.08 526.331 97.48 526.151 95.56C526.031 94.24 526.151 82.9 526.151 82.48C526.151 82.06 526.571 80.92 526.751 80.74C527.591 80.02 528.671 78.88 531.371 78.88C533.891 78.88 535.211 79.84 535.931 80.98C536.531 82.06 536.891 82.9 536.891 85C536.891 86.98 537.011 93.7 537.011 95.14C537.011 97.24 536.771 97.96 534.851 98.56C534.191 98.74 533.531 98.98 533.531 99.34C533.531 99.76 533.891 100.12 535.031 100.12C536.411 100.12 537.311 100 539.111 100C540.611 100 542.231 100.18 543.431 100.18C544.571 100.18 545.111 99.94 545.111 99.52C545.111 99.16 544.751 98.92 543.971 98.68C541.811 98.08 541.451 96.94 541.391 95.86C541.391 90.94 541.511 86.74 541.271 83.62C541.151 81.46 540.611 79.36 539.291 77.86C538.031 76.54 536.351 75.82 534.131 75.82C533.051 75.82 531.671 76.12 530.291 76.78C528.731 77.56 527.171 78.52 526.031 79.36C525.791 79.48 525.671 79.36 525.551 79.12C525.311 78.7 524.711 77.8 523.631 77.02C522.551 76.24 521.111 75.82 518.951 75.82C516.131 75.82 512.411 78.1 510.911 79.3C510.671 79.54 510.551 79.12 510.551 78.94C510.551 78.34 510.791 76.66 510.791 75.82C510.791 75.7 510.371 75.28 510.071 75.22C509.951 75.22 509.831 75.28 509.591 75.46C508.931 75.88 506.231 77.44 505.031 77.92C504.371 78.28 503.831 78.64 503.831 79ZM564.188 75.88C562.508 75.88 560.708 76.18 559.748 76.6C558.908 76.96 557.288 77.8 555.848 78.76C555.608 78.94 555.368 78.7 555.368 78.46C555.428 77.5 555.428 76.36 555.548 75.4C555.548 75.16 555.068 74.68 554.888 74.68C554.768 74.68 554.288 74.92 553.688 75.22C552.668 75.82 550.028 77.08 549.128 77.32C548.888 77.38 548.288 78.1 548.288 78.4C548.288 78.7 549.008 79.24 550.508 80.32C550.688 80.44 550.988 80.86 550.988 83.38C551.048 86.92 550.988 91.42 550.988 95.5C550.988 101.62 550.928 106.54 550.808 108.52C550.568 112.84 550.268 113.38 547.088 114.04C546.128 114.22 545.708 114.7 545.708 114.94C545.708 115.48 546.608 115.72 547.508 115.72C549.308 115.72 549.908 115.54 551.348 115.54C553.688 115.54 557.168 115.84 558.488 115.84C559.268 115.84 560.048 115.54 560.048 115.06C560.048 114.64 559.568 114.34 558.368 113.98C556.088 113.26 555.668 112.54 555.488 110.98C555.308 109.3 555.248 106.84 555.248 101.02C555.248 100.72 555.488 100.24 555.668 100.24C556.448 100.36 557.648 100.48 559.028 100.48C561.728 100.48 565.268 100 568.568 97.42C572.408 94.54 573.668 90.1 573.668 87.1C573.668 83.8 572.288 80.86 570.848 79.24C569.048 77.26 566.348 75.88 564.188 75.88ZM561.068 78.94C562.448 78.94 564.908 79.78 566.468 81.4C568.928 84.1 568.928 87.34 568.928 88.72C568.928 90.52 567.848 95.02 564.848 97.54C564.008 98.26 562.748 98.56 562.088 98.56C560.588 98.56 557.708 97.54 556.088 95.26C555.668 94.72 555.428 93.7 555.308 92.62C555.068 90.16 555.128 83.62 555.428 81.82C555.608 80.74 555.908 80.26 556.208 80.02C556.868 79.48 558.548 78.94 561.068 78.94ZM578.288 60.4C578.288 60.64 578.468 60.82 579.488 61.54C580.868 62.38 580.868 62.74 580.928 63.22C581.108 64.84 581.108 71.32 581.108 75.76C581.108 85.24 580.928 91.54 580.748 94C580.508 97 580.388 98.08 577.628 98.68C576.968 98.8 576.308 99.1 576.308 99.52C576.308 100 576.788 100.18 577.988 100.18C579.248 100.18 581.888 100 583.268 100C584.348 100 586.928 100.18 588.368 100.18C589.088 100.18 589.928 99.94 589.928 99.52C589.928 99.16 589.448 98.86 588.548 98.62C585.968 97.9 585.728 97.18 585.488 95.98C585.188 94.36 585.308 82.9 585.308 74.14C585.308 66.1 585.668 59.32 585.848 57.82C585.848 57.58 585.488 57.1 585.308 57.22C583.688 58.24 581.888 58.6 579.128 59.56C578.468 59.74 578.288 60.16 578.288 60.4ZM604.217 75.82C603.197 75.82 601.217 76.18 599.657 76.9C594.977 79.06 592.457 83.86 592.457 88.66C592.457 95.68 596.777 100.6 603.257 100.6C606.677 100.6 609.857 99.16 611.957 96.1C612.137 95.8 612.377 95.14 612.377 94.66C612.377 94.36 612.257 93.94 611.897 93.94C611.657 93.94 611.357 94.3 611.117 94.66C610.097 96.16 608.297 96.82 605.657 96.82C602.777 96.82 600.257 95.32 598.937 93.52C597.617 91.78 596.657 89.02 596.657 86.68C596.657 86.08 596.777 85.06 596.957 84.58C597.017 84.4 597.257 84.1 597.437 84.1C600.197 84.16 610.457 84.16 611.117 84.16C611.777 84.16 612.257 83.5 612.257 83.14C612.257 81.04 611.477 79.36 610.157 78.1C608.657 76.6 606.317 75.82 604.217 75.82ZM603.617 77.38C605.777 77.38 607.577 79.3 607.577 80.98C607.577 82.18 606.977 82.48 605.537 82.48C602.537 82.54 599.357 82.54 597.797 82.48C597.677 82.48 597.437 82.12 597.557 81.82C598.637 79.06 600.917 77.38 603.617 77.38ZM614.873 76.78C614.873 77.2 615.293 77.56 616.433 77.86C617.933 78.34 619.133 79.24 620.633 81.46C622.373 84.1 624.533 88.06 624.773 88.6C624.893 88.84 624.893 89.02 624.773 89.2C622.973 91.54 620.993 94.48 619.793 95.86C618.593 97.24 617.393 98.02 615.293 98.62C614.573 98.8 613.793 99.16 613.793 99.58C613.793 100.06 614.753 100.24 615.533 100.24C616.673 100.24 618.413 100 620.393 100C621.353 100 621.713 100.12 622.973 100.12C623.393 100.12 624.233 100 624.233 99.52C624.233 99.16 623.753 98.74 623.393 98.62C622.193 98.14 621.833 97.66 621.833 96.94C621.893 96.1 624.653 91.96 625.613 91C625.793 90.82 625.913 90.88 626.033 91C626.453 91.36 628.373 95.02 628.973 96.16C630.113 97.96 629.393 98.2 628.373 98.56C627.533 98.8 627.233 99.1 627.233 99.34C627.233 99.76 627.653 100.12 628.493 100.12C629.693 100.12 630.353 100 631.553 100C633.833 100 635.993 100.3 638.033 100.3C638.993 100.3 639.473 100 639.473 99.58C639.473 99.28 639.113 98.92 638.093 98.68C636.833 98.38 635.333 97.96 633.533 95.38C631.673 92.74 629.153 88.18 628.553 86.86C628.493 86.68 628.493 86.44 628.613 86.2C630.233 83.92 631.313 82.54 632.813 80.68C634.133 79.06 635.633 78.46 638.033 77.8C638.333 77.68 639.173 77.44 639.173 76.96C639.173 76.48 638.573 76.3 637.913 76.3C636.953 76.3 634.133 76.6 632.693 76.6C631.613 76.6 630.713 76.48 630.113 76.48C629.453 76.48 628.913 76.72 628.913 77.14C628.913 77.56 629.213 77.74 630.533 78.28C631.253 78.58 631.553 78.88 630.953 79.84C630.353 80.98 628.733 83.5 627.773 84.76C627.653 84.88 627.413 84.94 627.353 84.82C626.513 83.62 624.173 79.66 624.173 79.3C624.173 79 624.053 78.46 625.373 78.04C626.033 77.86 626.513 77.44 626.513 77.02C626.513 76.66 625.913 76.48 625.193 76.48C624.173 76.48 622.913 76.6 621.653 76.6C620.213 76.6 617.153 76.24 616.433 76.24C615.593 76.24 614.873 76.42 614.873 76.78ZM647.8 100C649.06 100 652.06 100.18 652.48 100.18C653.14 100.18 653.86 99.94 653.86 99.58C653.86 99.16 653.5 98.86 652.54 98.56C651.04 98.08 649.72 97.96 649.66 96.04C649.6 93.94 649.54 91.42 649.54 88.06C649.54 84.64 649.9 76.84 649.9 76.18C649.9 76.12 649.6 75.52 649.36 75.52C648.46 75.76 645.64 77.08 643.42 77.56C642.76 77.68 642.22 78.16 642.22 78.58C642.22 78.82 642.34 79 642.7 79.24C644.44 80.5 645.1 80.98 645.16 81.4C645.28 82.12 645.22 88.96 645.22 90.76C645.22 92.5 645.16 96.1 644.98 96.94C644.86 97.54 643.96 98.26 642.58 98.62C641.56 98.92 641.14 99.22 641.14 99.58C641.14 100 641.74 100.24 642.7 100.24C643.72 100.24 645.82 100 647.8 100ZM647.68 63.58C646.84 63.58 645.94 63.82 645.34 64.36C644.86 65.02 644.62 65.98 644.62 66.52C644.62 67.54 645.04 68.2 645.52 68.74C646.06 69.22 647.02 69.46 647.44 69.46C648.64 69.46 650.32 68.14 650.32 66.52C650.32 65.44 649.3 63.58 647.68 63.58ZM664.535 76.6C664.295 76.6 664.055 76.3 664.055 76.12V73.3C664.055 73.18 663.515 72.64 663.215 72.64C662.975 72.64 662.555 73.12 661.835 73.96C660.995 74.98 659.135 76.42 657.035 78.1C656.855 78.28 656.675 78.52 656.675 78.76C656.675 78.94 657.035 79.24 657.515 79.42C658.715 79.78 659.795 80.2 659.795 80.62C659.795 82.72 659.555 91.72 659.555 93.94C659.555 95.62 659.675 96.88 660.335 97.9C661.055 99.22 663.155 100.72 665.615 100.72C668.315 100.72 670.415 99.64 672.035 98.08C672.455 97.66 672.875 97.06 672.875 96.58C672.875 96.04 672.575 95.92 672.515 95.92C672.275 95.92 672.155 95.98 671.615 96.28C670.715 96.82 669.455 97.18 668.675 97.18C667.415 97.18 666.155 97.06 665.015 96.04C664.355 95.38 663.995 94.6 663.995 93.1C663.995 90.22 664.055 81.4 664.115 80.2C664.115 80.08 664.355 79.78 664.655 79.78H671.195C671.615 79.78 672.755 79.66 672.755 79.12C672.755 78.34 672.575 76.66 672.575 76.84C672.575 76.66 671.975 76.36 671.915 76.36C671.675 76.36 665.855 76.6 664.535 76.6ZM674.786 77.08C674.786 77.44 675.146 77.68 675.986 77.98C677.966 78.64 678.266 79.24 678.806 80.32C680.666 84.1 684.386 93.04 685.646 96.58L686.546 99.04C686.786 99.58 686.546 100.36 686.366 101.2C685.946 102.7 684.026 107.98 683.486 108.94C683.246 109.54 683.126 109.96 682.586 109.96C681.986 109.96 680.726 109.9 680.426 109.9C678.746 109.9 677.786 111.52 677.786 112.54C677.786 113.8 678.446 115.48 680.486 115.48C682.226 115.48 683.366 114.58 683.606 113.8C685.526 108.7 687.746 102.52 689.846 97.06C691.226 93.58 694.466 85.54 696.446 81.04C697.346 79.06 698.126 78.34 699.386 77.92C700.106 77.68 700.706 77.44 700.706 76.9C700.706 76.48 700.286 76.36 699.506 76.36C697.946 76.36 696.566 76.6 695.726 76.6C694.946 76.6 693.326 76.54 692.186 76.54C691.466 76.54 690.686 76.66 690.686 77.2C690.686 77.44 691.226 77.86 691.946 78.04C694.286 78.58 694.766 79.3 694.226 80.98C693.926 81.94 690.206 91.66 689.486 93.28C689.306 93.64 689.066 93.64 689.006 93.52C688.526 92.8 684.686 83.38 683.786 80.5C683.186 78.94 683.366 78.64 685.046 78.16C686.006 77.92 686.426 77.56 686.426 77.14C686.426 76.66 685.586 76.48 685.106 76.48C684.386 76.48 682.586 76.6 680.906 76.6C679.166 76.6 677.726 76.36 676.226 76.36C674.966 76.36 674.786 76.84 674.786 77.08Z" fill="black"/>
<path id="Lecture 3. Reductions and complete problems" d="M68.84 141.68C68.84 141.96 69.16 142.28 69.96 142.44C71.84 142.8 72.04 143.56 72.08 144.44C72.12 145.76 72.12 148.52 72.12 150.12C72.12 155.92 72 162.28 71.92 163.28C71.72 164.84 71.16 165.6 68.96 166.04C68.32 166.16 68 166.48 68 166.76C68 167.12 68.4 167.2 69.16 167.2C69.72 167.2 71.6 167 74.32 167C82.44 167 86.08 167.24 86.56 167.24C86.72 167.24 87.48 167 87.52 166.56C87.84 165.04 88.12 164.2 88.76 162.24C88.92 161.6 88.8 161.16 88.6 161.16C88.4 161.16 88.04 161.32 87.6 162.04C86.52 163.56 85.88 164.16 85.32 164.72C84.52 165.44 84.04 165.44 83.72 165.48C83.12 165.56 82 165.6 80.88 165.6C79.56 165.6 78.08 165.56 77.04 165.4C76.72 165.36 75.76 164.44 75.68 163.88C75.52 162.56 75.4 158.72 75.4 155.6C75.4 149.68 75.4 145.64 75.64 143.84C75.72 143.24 76 142.8 78.32 142.28C78.92 142.12 79.24 141.88 79.24 141.6C79.24 141.32 78.96 141.16 78.24 141.16C77.28 141.16 74.56 141.28 73 141.28C71.84 141.28 71.12 141.2 70.04 141.2C69.16 141.2 68.84 141.4 68.84 141.68ZM99.0116 150.88C98.3316 150.88 97.0116 151.12 95.9716 151.6C92.8516 153.04 91.1716 156.24 91.1716 159.44C91.1716 164.12 94.0516 167.4 98.3716 167.4C100.652 167.4 102.772 166.44 104.172 164.4C104.292 164.2 104.452 163.76 104.452 163.44C104.452 163.24 104.372 162.96 104.132 162.96C103.972 162.96 103.772 163.2 103.612 163.44C102.932 164.44 101.732 164.88 99.9716 164.88C98.0516 164.88 96.3716 163.88 95.4916 162.68C94.6116 161.52 93.9716 159.68 93.9716 158.12C93.9716 157.72 94.0516 157.04 94.1716 156.72C94.2116 156.6 94.3716 156.4 94.4916 156.4C96.3316 156.44 103.172 156.44 103.612 156.44C104.052 156.44 104.372 156 104.372 155.76C104.372 154.36 103.852 153.24 102.972 152.4C101.972 151.4 100.412 150.88 99.0116 150.88ZM98.6116 151.92C100.052 151.92 101.252 153.2 101.252 154.32C101.252 155.12 100.852 155.32 99.8916 155.32C97.8916 155.36 95.7716 155.36 94.7316 155.32C94.6516 155.32 94.4916 155.08 94.5716 154.88C95.2916 153.04 96.8116 151.92 98.6116 151.92ZM116.423 150.96C115.343 150.96 112.743 151.52 111.183 152.64C108.863 154.2 107.303 156.64 107.303 159.56C107.303 161.24 107.863 163.12 108.543 164.24C109.823 166.12 111.943 167.44 114.463 167.44C116.543 167.44 118.823 166.52 120.223 164.96C120.543 164.64 120.743 164.24 120.743 163.8C120.743 163.6 120.423 163.48 119.983 163.8C118.943 164.52 117.903 165 116.423 165C114.343 165 112.383 164 111.383 162.32C111.223 162.08 110.343 160.64 110.343 158.32C110.343 156.56 110.943 154.92 112.023 153.72C112.663 152.92 113.863 152.36 114.503 152.36C115.863 152.36 116.543 152.96 117.863 153.92C118.503 154.36 119.183 154.68 119.423 154.68C119.583 154.68 120.743 153.72 120.743 153.08C120.743 152.84 120.543 152.16 120.143 151.88C119.383 151.28 117.623 150.96 116.423 150.96ZM128.248 151.4C128.088 151.4 127.928 151.2 127.928 151.08V149.2C127.928 149.12 127.567 148.76 127.368 148.76C127.208 148.76 126.928 149.08 126.448 149.64C125.888 150.32 124.648 151.28 123.248 152.4C123.128 152.52 123.007 152.68 123.007 152.84C123.007 152.96 123.248 153.16 123.568 153.28C124.368 153.52 125.088 153.8 125.088 154.08C125.088 155.48 124.928 161.48 124.928 162.96C124.928 164.08 125.008 164.92 125.448 165.6C125.928 166.48 127.328 167.48 128.968 167.48C130.768 167.48 132.168 166.76 133.248 165.72C133.528 165.44 133.808 165.04 133.808 164.72C133.808 164.36 133.608 164.28 133.568 164.28C133.408 164.28 133.328 164.32 132.968 164.52C132.368 164.88 131.528 165.12 131.008 165.12C130.168 165.12 129.328 165.04 128.568 164.36C128.128 163.92 127.888 163.4 127.888 162.4C127.888 160.48 127.928 154.6 127.968 153.8C127.968 153.72 128.128 153.52 128.328 153.52H132.688C132.968 153.52 133.728 153.44 133.728 153.08C133.728 152.56 133.608 151.44 133.608 151.56C133.608 151.44 133.208 151.24 133.168 151.24C133.008 151.24 129.128 151.4 128.248 151.4ZM144.223 165.48C143.263 165.48 142.543 165.48 141.503 164.68C140.943 164.28 140.503 163.36 140.503 162.44C140.503 160.64 140.663 153.08 140.623 151.72C140.623 151.48 140.463 151.12 140.303 151.12C140.143 151.12 137.183 151.56 136.063 151.56C135.583 151.56 135.383 151.8 135.383 151.92C135.383 152.28 135.743 152.48 136.103 152.64C136.783 152.92 137.543 153.08 137.583 154.2C137.663 156.32 137.663 160.84 137.663 163.72C137.663 164.36 137.943 165.16 138.223 165.6C139.023 166.84 140.303 167.48 141.743 167.48C142.863 167.48 143.743 167.28 144.423 167C144.943 166.8 146.543 165.76 147.703 164.96C147.783 164.92 147.903 165.04 147.903 165.24C147.863 165.92 147.743 166.68 147.743 166.92C147.743 167.2 147.983 167.48 148.143 167.48C148.223 167.48 148.863 167.32 149.543 167.12C150.463 166.88 152.143 166.44 153.183 166.36C153.343 166.36 153.623 166.08 153.623 165.96C153.583 165.84 153.303 165.2 153.143 165.2C152.663 165.2 151.423 165.4 151.143 165.4C150.823 165.4 150.663 164.92 150.663 164.84C150.663 161.56 150.983 152.68 151.063 151.56C151.063 151.4 150.983 150.96 150.783 150.96C150.503 150.96 150.223 151 149.823 151.12C148.903 151.36 147.143 151.56 145.543 151.56C145.143 151.56 144.623 151.76 144.623 151.92C144.623 152.24 145.143 152.48 145.423 152.56L147.263 153.04C147.503 153.12 147.943 153.68 147.943 153.92L147.863 163.12C147.863 163.28 147.503 163.88 147.263 164.08C146.263 164.96 145.183 165.48 144.223 165.48ZM155.681 152.92C155.681 153.08 156.081 153.24 157.041 154C157.481 154.28 157.481 154.8 157.481 155.2V162.84C157.441 165.24 157.321 165.64 155.761 166.16C155.441 166.28 154.961 166.44 154.961 166.68C154.961 167 155.361 167.16 155.801 167.16C156.761 167.16 157.241 167 158.441 167C160.761 167 162.161 167.2 163.161 167.2C163.761 167.2 164.121 167.04 164.121 166.84C164.121 166.68 164.041 166.4 163.401 166.2L161.561 165.72C160.841 165.6 160.601 164.84 160.521 163.68C160.481 163.08 160.281 155.84 160.281 155.04C160.281 154.84 160.401 154.48 160.681 154.16C161.081 153.72 161.761 153.6 162.441 153.6C163.241 153.6 164.201 154.08 164.641 154.48C164.761 154.56 165.121 154.64 165.201 154.6C165.441 154.48 166.401 153.4 166.841 152.76C166.961 152.56 167.081 152.28 167.081 152.2C167.081 151.84 166.721 150.84 165.081 150.84C163.841 150.84 162.081 151.84 160.521 153.32C160.441 153.36 160.241 153.32 160.241 153.16C160.241 152.4 160.321 151.68 160.321 150.96C160.321 150.84 160.121 150.48 159.961 150.48C159.841 150.48 159.641 150.64 159.161 150.96C158.761 151.2 157.521 151.8 156.201 152.24C155.761 152.4 155.681 152.8 155.681 152.92ZM176.082 150.88C175.402 150.88 174.082 151.12 173.042 151.6C169.922 153.04 168.242 156.24 168.242 159.44C168.242 164.12 171.122 167.4 175.442 167.4C177.722 167.4 179.842 166.44 181.242 164.4C181.362 164.2 181.522 163.76 181.522 163.44C181.522 163.24 181.442 162.96 181.202 162.96C181.042 162.96 180.842 163.2 180.682 163.44C180.002 164.44 178.802 164.88 177.042 164.88C175.122 164.88 173.442 163.88 172.562 162.68C171.682 161.52 171.042 159.68 171.042 158.12C171.042 157.72 171.122 157.04 171.242 156.72C171.282 156.6 171.442 156.4 171.562 156.4C173.402 156.44 180.242 156.44 180.682 156.44C181.122 156.44 181.442 156 181.442 155.76C181.442 154.36 180.922 153.24 180.042 152.4C179.042 151.4 177.482 150.88 176.082 150.88ZM175.682 151.92C177.122 151.92 178.322 153.2 178.322 154.32C178.322 155.12 177.922 155.32 176.962 155.32C174.962 155.36 172.842 155.36 171.802 155.32C171.722 155.32 171.562 155.08 171.642 154.88C172.362 153.04 173.882 151.92 175.682 151.92ZM198.035 150.84C197.155 150.84 195.995 151.04 194.915 151.8C193.515 152.8 192.475 154.48 192.475 154.6C192.475 154.88 192.555 155.04 192.955 155.04C193.115 155.04 193.235 154.92 193.475 154.72C193.795 154.44 194.915 153.16 196.515 153.16C197.675 153.16 198.955 154.24 198.955 155.6C198.955 156.56 198.555 158.04 197.195 159.12C196.035 160.08 194.995 160.8 194.195 161.44C193.915 161.72 193.635 162.16 193.635 162.44C193.635 162.56 193.915 162.72 194.075 162.64C194.755 162.36 195.915 162.12 196.275 162.12C197.235 162.12 198.355 162.56 199.075 163.2C199.835 163.88 200.195 164.92 200.195 166.08C200.195 168.4 199.395 170.48 196.755 171.88C196.515 172 195.635 172.2 194.275 172.2C193.915 172.2 193.315 173.08 193.315 173.44C193.315 173.72 193.835 173.96 194.195 173.96C194.555 173.96 195.955 173.52 196.915 173.04C200.315 171.36 203.275 167.84 203.275 164.68C203.275 162.56 201.995 161 199.955 160.44C199.195 160.2 198.075 160.08 197.835 160.12C197.715 160.12 197.715 159.92 197.755 159.84C200.275 157.84 201.795 156.44 201.795 154.44C201.795 153.52 201.235 150.84 198.035 150.84ZM209.791 162.88C209.071 162.88 207.591 163.52 207.591 165.2C207.591 166.92 208.831 167.52 209.791 167.52C211.111 167.52 212.031 166.48 212.031 165.2C212.031 164.4 211.511 162.88 209.791 162.88ZM242.123 147.76C242.123 145.84 241.163 143.84 239.843 142.76C238.243 141.44 236.083 141.08 233.323 141.08C231.163 141.08 228.323 141.28 226.843 141.28H224.603C223.723 141.28 223.523 141.48 223.523 141.76C223.523 142.08 223.883 142.28 224.483 142.44C226.283 142.88 226.643 142.96 226.803 144.44C226.963 146 227.043 149.64 227.043 155.8C227.043 158.2 226.883 162.44 226.803 163.68C226.683 165.2 225.963 165.44 224.203 166C223.683 166.2 223.323 166.28 223.323 166.6C223.323 167 223.843 167.16 224.363 167.16C224.803 167.16 226.883 167 227.603 167C230.323 167 231.083 167.24 232.763 167.24C232.963 167.24 233.723 167.12 233.723 166.72C233.723 166.52 233.443 166.24 232.763 166.04C230.883 165.6 230.443 165.04 230.363 163.36C230.243 161.04 230.163 155.96 230.203 155.28C230.203 155.16 230.403 154.8 230.683 154.8C231.883 154.8 233.363 155.16 233.523 155.32C233.763 155.48 234.563 156.48 235.123 157.32C236.723 159.84 238.763 162.92 240.163 164.84C241.323 166.32 243.603 167.44 245.483 167.44C246.323 167.44 247.203 167.36 247.683 167.16C247.923 167.04 248.243 166.88 248.243 166.64C248.243 166.48 247.923 166.16 247.603 166.08C245.843 165.72 244.763 165 243.683 163.72C241.243 161 237.883 155.6 237.483 154.64C237.403 154.48 237.523 154.12 237.643 154.04C237.923 153.84 238.683 153.48 238.883 153.36C240.843 152.16 242.123 149.92 242.123 147.76ZM238.563 147.84C238.563 150.36 237.003 152.12 235.923 152.8C235.363 153.16 233.243 153.84 230.923 153.84C230.683 153.84 230.363 153.56 230.283 153.24C230.163 152.56 230.283 144.84 230.403 143.44C230.403 143.28 230.683 142.68 230.883 142.6C231.323 142.4 232.603 142.32 232.803 142.32C234.083 142.32 235.803 142.92 236.763 143.84C237.923 145 238.563 146.88 238.563 147.84ZM256.707 150.88C256.027 150.88 254.707 151.12 253.667 151.6C250.547 153.04 248.867 156.24 248.867 159.44C248.867 164.12 251.747 167.4 256.067 167.4C258.347 167.4 260.467 166.44 261.867 164.4C261.987 164.2 262.147 163.76 262.147 163.44C262.147 163.24 262.067 162.96 261.827 162.96C261.667 162.96 261.467 163.2 261.307 163.44C260.627 164.44 259.427 164.88 257.667 164.88C255.747 164.88 254.067 163.88 253.187 162.68C252.307 161.52 251.667 159.68 251.667 158.12C251.667 157.72 251.747 157.04 251.867 156.72C251.907 156.6 252.067 156.4 252.187 156.4C254.027 156.44 260.867 156.44 261.307 156.44C261.747 156.44 262.067 156 262.067 155.76C262.067 154.36 261.547 153.24 260.667 152.4C259.667 151.4 258.107 150.88 256.707 150.88ZM256.307 151.92C257.747 151.92 258.947 153.2 258.947 154.32C258.947 155.12 258.547 155.32 257.587 155.32C255.587 155.36 253.467 155.36 252.427 155.32C252.347 155.32 252.187 155.08 252.267 154.88C252.987 153.04 254.507 151.92 256.307 151.92ZM274.519 150.84C273.439 150.84 271.079 151.24 269.239 152.36C267.279 153.52 264.999 155.8 264.999 159.72C264.999 161.72 265.639 163.76 266.919 165.2C268.159 166.52 269.999 167.4 271.919 167.4C273.239 167.4 275.279 167.04 277.119 165.4C277.199 165.4 277.359 165.48 277.359 165.64C277.359 166.2 277.279 166.92 277.279 167.28C277.279 167.48 277.559 167.8 277.719 167.8C277.919 167.8 278.239 167.72 279.159 167.4C279.919 167.12 281.999 166.72 282.759 166.6C282.959 166.56 283.439 165.88 283.439 165.6C283.439 165.56 283.359 165.36 283.199 165.36C282.799 165.4 281.479 165.68 281.039 165.68C280.799 165.68 280.479 165.52 280.399 164.04C280.399 163.28 280.319 162.64 280.319 154.92C280.319 142.68 280.479 141.24 280.679 139.12C280.719 138.76 280.479 138.48 280.359 138.48C280.199 138.48 280.079 138.52 279.839 138.6C278.799 139 276.679 139.6 275.759 139.72C275.519 139.76 275.079 140.24 275.079 140.4C275.079 140.48 275.119 140.56 275.479 140.76C277.319 141.72 277.319 142.2 277.359 142.4C277.479 143.36 277.599 149.48 277.399 150.56C277.359 150.76 277.239 151.04 277.079 151C276.599 150.92 275.959 150.84 274.519 150.84ZM273.039 152.16C273.839 152.16 275.359 152.6 276.479 153.72C276.959 154.2 277.319 154.92 277.359 155.24C277.479 157.12 277.519 159.32 277.479 161.88C277.439 163.16 276.919 164.44 276.839 164.52C276.119 165.04 275.199 165.48 273.919 165.48C270.479 165.48 268.239 161.8 268.239 158.6C268.239 156.36 269.159 154.32 269.919 153.56C270.639 152.84 271.759 152.16 273.039 152.16ZM293.363 165.48C292.403 165.48 291.683 165.48 290.643 164.68C290.083 164.28 289.643 163.36 289.643 162.44C289.643 160.64 289.803 153.08 289.763 151.72C289.763 151.48 289.603 151.12 289.443 151.12C289.283 151.12 286.323 151.56 285.203 151.56C284.723 151.56 284.523 151.8 284.523 151.92C284.523 152.28 284.883 152.48 285.243 152.64C285.923 152.92 286.683 153.08 286.723 154.2C286.803 156.32 286.803 160.84 286.803 163.72C286.803 164.36 287.083 165.16 287.363 165.6C288.163 166.84 289.443 167.48 290.883 167.48C292.003 167.48 292.883 167.28 293.563 167C294.083 166.8 295.683 165.76 296.843 164.96C296.923 164.92 297.043 165.04 297.043 165.24C297.003 165.92 296.883 166.68 296.883 166.92C296.883 167.2 297.123 167.48 297.283 167.48C297.363 167.48 298.003 167.32 298.683 167.12C299.603 166.88 301.283 166.44 302.323 166.36C302.483 166.36 302.763 166.08 302.763 165.96C302.723 165.84 302.443 165.2 302.283 165.2C301.803 165.2 300.563 165.4 300.283 165.4C299.963 165.4 299.803 164.92 299.803 164.84C299.803 161.56 300.123 152.68 300.203 151.56C300.203 151.4 300.123 150.96 299.923 150.96C299.643 150.96 299.363 151 298.963 151.12C298.043 151.36 296.283 151.56 294.683 151.56C294.283 151.56 293.763 151.76 293.763 151.92C293.763 152.24 294.283 152.48 294.563 152.56L296.403 153.04C296.643 153.12 297.083 153.68 297.083 153.92L297.003 163.12C297.003 163.28 296.643 163.88 296.403 164.08C295.403 164.96 294.323 165.48 293.363 165.48ZM313.845 150.96C312.765 150.96 310.165 151.52 308.605 152.64C306.285 154.2 304.725 156.64 304.725 159.56C304.725 161.24 305.285 163.12 305.965 164.24C307.245 166.12 309.365 167.44 311.885 167.44C313.965 167.44 316.245 166.52 317.645 164.96C317.965 164.64 318.165 164.24 318.165 163.8C318.165 163.6 317.845 163.48 317.405 163.8C316.365 164.52 315.325 165 313.845 165C311.765 165 309.805 164 308.805 162.32C308.645 162.08 307.765 160.64 307.765 158.32C307.765 156.56 308.365 154.92 309.445 153.72C310.085 152.92 311.285 152.36 311.925 152.36C313.285 152.36 313.965 152.96 315.285 153.92C315.925 154.36 316.605 154.68 316.845 154.68C317.005 154.68 318.165 153.72 318.165 153.08C318.165 152.84 317.965 152.16 317.565 151.88C316.805 151.28 315.045 150.96 313.845 150.96ZM325.669 151.4C325.509 151.4 325.349 151.2 325.349 151.08V149.2C325.349 149.12 324.989 148.76 324.789 148.76C324.629 148.76 324.349 149.08 323.869 149.64C323.309 150.32 322.069 151.28 320.669 152.4C320.549 152.52 320.429 152.68 320.429 152.84C320.429 152.96 320.669 153.16 320.989 153.28C321.789 153.52 322.509 153.8 322.509 154.08C322.509 155.48 322.349 161.48 322.349 162.96C322.349 164.08 322.429 164.92 322.869 165.6C323.349 166.48 324.749 167.48 326.389 167.48C328.189 167.48 329.589 166.76 330.669 165.72C330.949 165.44 331.229 165.04 331.229 164.72C331.229 164.36 331.029 164.28 330.989 164.28C330.829 164.28 330.749 164.32 330.389 164.52C329.789 164.88 328.949 165.12 328.429 165.12C327.589 165.12 326.749 165.04 325.989 164.36C325.549 163.92 325.309 163.4 325.309 162.4C325.309 160.48 325.349 154.6 325.389 153.8C325.389 153.72 325.549 153.52 325.749 153.52H330.109C330.389 153.52 331.149 153.44 331.149 153.08C331.149 152.56 331.029 151.44 331.029 151.56C331.029 151.44 330.629 151.24 330.589 151.24C330.429 151.24 326.549 151.4 325.669 151.4ZM337.051 167C337.891 167 339.891 167.12 340.171 167.12C340.611 167.12 341.091 166.96 341.091 166.72C341.091 166.44 340.851 166.24 340.211 166.04C339.211 165.72 338.331 165.64 338.291 164.36C338.251 162.96 338.211 161.28 338.211 159.04C338.211 156.76 338.451 151.56 338.451 151.12C338.451 151.08 338.251 150.68 338.091 150.68C337.491 150.84 335.611 151.72 334.131 152.04C333.691 152.12 333.331 152.44 333.331 152.72C333.331 152.88 333.411 153 333.651 153.16C334.811 154 335.251 154.32 335.291 154.6C335.371 155.08 335.331 159.64 335.331 160.84C335.331 162 335.291 164.4 335.171 164.96C335.091 165.36 334.491 165.84 333.571 166.08C332.891 166.28 332.611 166.48 332.611 166.72C332.611 167 333.011 167.16 333.651 167.16C334.331 167.16 335.731 167 337.051 167ZM336.971 142.72C336.411 142.72 335.811 142.88 335.411 143.24C335.091 143.68 334.931 144.32 334.931 144.68C334.931 145.36 335.211 145.8 335.531 146.16C335.891 146.48 336.531 146.64 336.811 146.64C337.611 146.64 338.731 145.76 338.731 144.68C338.731 143.96 338.051 142.72 336.971 142.72ZM351.648 150.84C348.968 150.84 346.968 151.96 345.728 153.04C344.208 154.32 342.928 156.24 342.928 159.28C342.928 161.28 344.168 164 345.888 165.4C347.368 166.64 349.368 167.48 351.208 167.48C353.008 167.48 354.568 167.04 356.168 165.88C357.648 164.92 359.648 162.32 359.648 159C359.648 153.96 355.608 150.84 351.648 150.84ZM350.888 152.04C351.928 152.04 353.368 152.64 354.248 153.6C355.768 155.36 356.248 157.64 356.248 159.72C356.248 161.44 355.448 163.92 354.448 165C353.328 166.12 352.448 166.32 352.008 166.32C350.088 166.32 347.808 164.88 346.808 161.88C346.488 160.88 346.328 159.64 346.328 158.32C346.328 156.24 347.248 154.16 348.288 153.2C349.128 152.48 350.048 152.04 350.888 152.04ZM362.909 152.76C362.909 152.88 363.149 153.08 363.669 153.44C364.549 154.16 364.629 154.56 364.629 155C364.629 159.08 364.549 162.56 364.429 163.76C364.309 165.2 364.069 165.6 362.749 166C362.309 166.12 361.909 166.32 361.909 166.6C361.909 166.96 362.349 167.12 362.949 167.12C363.629 167.12 364.789 167 366.269 167C367.109 167 368.229 167.04 368.709 167.04C369.269 167.04 369.709 166.84 369.709 166.56C369.709 166.32 369.389 166.08 368.989 165.96C367.709 165.6 367.549 165.28 367.509 164.72C367.469 164.24 367.469 155.64 367.469 155.12C367.469 154.76 367.749 154.28 367.869 154.16C368.629 153.48 369.669 152.88 371.429 152.88C372.349 152.88 373.549 153.32 373.989 153.64C374.469 154 375.189 155.16 375.189 156.6C375.189 157.76 375.149 162.6 375.069 163.92C374.989 165.24 374.789 165.56 373.829 165.92C373.349 166.08 372.909 166.32 372.909 166.6C372.909 166.92 373.469 167.08 373.829 167.08C374.349 167.08 375.589 167 376.589 167C377.709 167 378.629 167.08 379.549 167.08C380.189 167.08 380.749 166.92 380.749 166.64C380.749 166.36 380.509 166.16 379.749 165.96C378.749 165.68 378.349 165.16 378.269 164.56C378.229 164 378.149 158.04 378.149 157.28C378.149 155.28 377.629 153.44 376.749 152.4C376.189 151.76 375.069 150.88 373.109 150.88C371.429 150.88 369.349 152 367.749 153.08C367.709 153.08 367.509 153.16 367.509 152.96C367.509 152.6 367.669 151.64 367.669 150.96C367.669 150.8 367.469 150.36 367.269 150.36C367.069 150.36 366.709 150.56 366.309 150.8C365.749 151.2 364.309 151.72 363.629 151.96C363.349 152.08 362.909 152.48 362.909 152.76ZM388.775 150.84C387.415 150.84 386.335 151.2 385.575 151.68C384.055 152.6 383.375 153.92 383.375 155.28C383.375 157.16 384.655 158.56 385.855 159.32C387.095 160.12 387.335 160.32 388.295 161C389.535 161.76 390.095 162.6 390.095 163.68C390.095 164.44 389.775 165.4 389.175 165.88C388.735 166.2 388.095 166.48 387.575 166.48C386.135 166.48 385.055 165.68 383.935 163.64C383.695 163.2 383.415 162.72 383.095 162.72C382.855 162.72 382.775 163.12 382.775 163.56C382.775 164.72 383.255 166.4 383.375 166.6C384.055 167.16 386.055 167.48 387.255 167.48C388.495 167.48 389.895 167.04 390.615 166.56C391.615 165.84 392.935 164.48 392.935 162.64C392.935 160.84 392.055 159.48 389.815 158.16C387.135 156.68 385.855 155.64 385.855 154.28C385.855 153.44 386.615 151.8 388.255 151.8C389.575 151.8 390.575 152.6 391.455 154.48C391.655 154.92 391.895 155.16 392.055 155.16C392.375 155.16 392.535 154.8 392.535 154.44C392.535 154.16 392.415 152.8 392.415 152.08C392.415 151.84 392.175 151.56 392.095 151.52C392.015 151.48 391.255 151.16 390.815 151.08C390.375 150.96 389.535 150.84 388.775 150.84ZM410.515 150.84C409.755 150.84 407.955 151.52 406.795 152.36C404.915 153.6 403.795 154.72 403.795 155.88C403.795 156.08 404.035 156.4 404.275 156.4C404.475 156.4 406.475 155.4 406.875 155.08C406.955 155 407.115 154.76 407.115 154.64C407.035 153.84 407.155 153.12 407.395 153C407.675 152.8 408.195 152.56 409.035 152.56C410.995 152.56 412.155 154.24 412.155 155.24C412.155 155.72 412.115 158.16 412.075 158.52C412.075 158.76 411.835 158.96 410.915 159.24C410.035 159.52 406.835 160.4 406.235 160.64C405.635 160.92 405.035 161.12 404.635 161.64C404.195 162.2 403.875 162.96 403.875 163.68C403.875 165.68 405.235 167.4 406.635 167.4C406.835 167.4 407.795 167.32 408.235 167.16C408.635 167.04 410.355 166.36 411.835 165.32C411.915 165.28 412.075 165.44 412.075 165.48C412.555 166.96 413.715 167.48 414.635 167.48C416.435 167.48 418.235 165.76 418.235 165C418.235 164.96 418.235 164.72 418.115 164.6C418.035 164.48 417.995 164.4 417.875 164.48C417.435 164.8 416.515 165.08 416.355 165.08C416.035 165.08 414.755 164.92 414.755 163.08C414.755 162.64 414.915 157.6 414.915 156.04C414.915 154.36 414.715 153.56 414.115 152.72C413.515 151.84 412.515 150.84 410.515 150.84ZM409.315 165.32C408.475 165.32 406.795 164.68 406.795 162.92C406.795 161.96 407.195 161.68 407.595 161.4C408.675 160.88 410.595 160.2 411.715 160.2C411.875 160.2 412.035 160.4 412.035 160.52C412.035 161.32 412.035 162.68 411.955 163.64C411.955 163.72 411.715 164.48 411.475 164.64C410.715 165.04 409.915 165.32 409.315 165.32ZM420.214 152.76C420.214 152.88 420.454 153.08 420.974 153.44C421.854 154.16 421.934 154.56 421.934 155C421.934 159.08 421.854 162.56 421.734 163.76C421.614 165.2 421.374 165.6 420.054 166C419.614 166.12 419.214 166.32 419.214 166.6C419.214 166.96 419.654 167.12 420.254 167.12C420.934 167.12 422.094 167 423.574 167C424.414 167 425.534 167.04 426.014 167.04C426.574 167.04 427.014 166.84 427.014 166.56C427.014 166.32 426.694 166.08 426.294 165.96C425.014 165.6 424.854 165.28 424.814 164.72C424.774 164.24 424.774 155.64 424.774 155.12C424.774 154.76 425.054 154.28 425.174 154.16C425.934 153.48 426.974 152.88 428.734 152.88C429.654 152.88 430.854 153.32 431.294 153.64C431.774 154 432.494 155.16 432.494 156.6C432.494 157.76 432.454 162.6 432.374 163.92C432.294 165.24 432.094 165.56 431.134 165.92C430.654 166.08 430.214 166.32 430.214 166.6C430.214 166.92 430.774 167.08 431.134 167.08C431.654 167.08 432.894 167 433.894 167C435.014 167 435.934 167.08 436.854 167.08C437.494 167.08 438.054 166.92 438.054 166.64C438.054 166.36 437.814 166.16 437.054 165.96C436.054 165.68 435.654 165.16 435.574 164.56C435.534 164 435.454 158.04 435.454 157.28C435.454 155.28 434.934 153.44 434.054 152.4C433.494 151.76 432.374 150.88 430.414 150.88C428.734 150.88 426.654 152 425.054 153.08C425.014 153.08 424.814 153.16 424.814 152.96C424.814 152.6 424.974 151.64 424.974 150.96C424.974 150.8 424.774 150.36 424.574 150.36C424.374 150.36 424.014 150.56 423.614 150.8C423.054 151.2 421.614 151.72 420.934 151.96C420.654 152.08 420.214 152.48 420.214 152.76ZM449.753 150.84C448.673 150.84 446.313 151.24 444.473 152.36C442.513 153.52 440.233 155.8 440.233 159.72C440.233 161.72 440.873 163.76 442.153 165.2C443.393 166.52 445.233 167.4 447.153 167.4C448.473 167.4 450.513 167.04 452.353 165.4C452.433 165.4 452.593 165.48 452.593 165.64C452.593 166.2 452.513 166.92 452.513 167.28C452.513 167.48 452.793 167.8 452.953 167.8C453.153 167.8 453.473 167.72 454.393 167.4C455.153 167.12 457.233 166.72 457.993 166.6C458.193 166.56 458.673 165.88 458.673 165.6C458.673 165.56 458.593 165.36 458.433 165.36C458.033 165.4 456.713 165.68 456.273 165.68C456.033 165.68 455.713 165.52 455.633 164.04C455.633 163.28 455.553 162.64 455.553 154.92C455.553 142.68 455.713 141.24 455.913 139.12C455.953 138.76 455.713 138.48 455.593 138.48C455.433 138.48 455.313 138.52 455.073 138.6C454.033 139 451.913 139.6 450.993 139.72C450.753 139.76 450.313 140.24 450.313 140.4C450.313 140.48 450.353 140.56 450.713 140.76C452.553 141.72 452.553 142.2 452.593 142.4C452.713 143.36 452.833 149.48 452.633 150.56C452.593 150.76 452.473 151.04 452.313 151C451.833 150.92 451.193 150.84 449.753 150.84ZM448.273 152.16C449.073 152.16 450.593 152.6 451.713 153.72C452.193 154.2 452.553 154.92 452.593 155.24C452.713 157.12 452.753 159.32 452.713 161.88C452.673 163.16 452.153 164.44 452.073 164.52C451.353 165.04 450.433 165.48 449.153 165.48C445.713 165.48 443.473 161.8 443.473 158.6C443.473 156.36 444.393 154.32 445.153 153.56C445.873 152.84 446.993 152.16 448.273 152.16ZM477.283 150.96C476.203 150.96 473.603 151.52 472.043 152.64C469.723 154.2 468.163 156.64 468.163 159.56C468.163 161.24 468.723 163.12 469.403 164.24C470.683 166.12 472.803 167.44 475.323 167.44C477.403 167.44 479.683 166.52 481.083 164.96C481.403 164.64 481.603 164.24 481.603 163.8C481.603 163.6 481.283 163.48 480.843 163.8C479.803 164.52 478.763 165 477.283 165C475.203 165 473.243 164 472.243 162.32C472.083 162.08 471.203 160.64 471.203 158.32C471.203 156.56 471.803 154.92 472.883 153.72C473.523 152.92 474.723 152.36 475.363 152.36C476.723 152.36 477.403 152.96 478.723 153.92C479.363 154.36 480.043 154.68 480.283 154.68C480.443 154.68 481.603 153.72 481.603 153.08C481.603 152.84 481.403 152.16 481.003 151.88C480.243 151.28 478.483 150.96 477.283 150.96ZM492.703 150.84C490.023 150.84 488.023 151.96 486.783 153.04C485.263 154.32 483.983 156.24 483.983 159.28C483.983 161.28 485.223 164 486.943 165.4C488.423 166.64 490.423 167.48 492.263 167.48C494.063 167.48 495.623 167.04 497.223 165.88C498.703 164.92 500.703 162.32 500.703 159C500.703 153.96 496.663 150.84 492.703 150.84ZM491.943 152.04C492.983 152.04 494.423 152.64 495.303 153.6C496.823 155.36 497.303 157.64 497.303 159.72C497.303 161.44 496.503 163.92 495.503 165C494.383 166.12 493.503 166.32 493.063 166.32C491.143 166.32 488.863 164.88 487.863 161.88C487.543 160.88 487.383 159.64 487.383 158.32C487.383 156.24 488.303 154.16 489.343 153.2C490.183 152.48 491.103 152.04 491.943 152.04ZM503.924 153C503.924 153.2 504.204 153.4 505.324 154.44C505.684 154.8 505.604 155.32 505.604 155.52C505.604 158.28 505.564 162.28 505.484 163.44C505.324 165.16 505.084 165.76 503.804 166.08C503.084 166.24 502.844 166.52 502.844 166.68C502.844 166.96 503.244 167.12 503.844 167.12C504.724 167.12 505.524 167 506.844 167C508.364 167 509.844 167.08 510.004 167.08C510.524 167.08 511.084 166.96 511.084 166.68C511.084 166.36 510.764 166.2 510.004 165.96C508.724 165.56 508.564 164.92 508.564 164.16C508.564 161.12 508.564 156.08 508.644 155.04C508.684 154.6 508.804 154.28 509.084 154.04C510.044 153.28 510.964 152.8 512.284 152.8C513.724 152.8 514.764 153.32 515.284 154C515.564 154.36 515.804 154.88 515.804 156.04V163.88C515.804 165.32 515.644 165.72 514.284 166.04C513.644 166.2 513.484 166.48 513.484 166.6C513.484 166.76 513.604 167.08 514.524 167.08C515.364 167.08 516.524 167 517.364 167C518.284 167 519.484 167.08 520.364 167.08C521.004 167.08 521.324 166.88 521.324 166.6C521.324 166.4 520.924 166.16 520.484 166.04C519.124 165.72 518.924 165.32 518.804 164.04C518.724 163.16 518.804 155.6 518.804 155.32C518.804 155.04 519.084 154.28 519.204 154.16C519.764 153.68 520.484 152.92 522.284 152.92C523.964 152.92 524.844 153.56 525.324 154.32C525.724 155.04 525.964 155.6 525.964 157C525.964 158.32 526.044 162.8 526.044 163.76C526.044 165.16 525.884 165.64 524.604 166.04C524.164 166.16 523.724 166.32 523.724 166.56C523.724 166.84 523.964 167.08 524.724 167.08C525.644 167.08 526.244 167 527.444 167C528.444 167 529.524 167.12 530.324 167.12C531.084 167.12 531.444 166.96 531.444 166.68C531.444 166.44 531.204 166.28 530.684 166.12C529.244 165.72 529.004 164.96 528.964 164.24C528.964 160.96 529.044 158.16 528.884 156.08C528.804 154.64 528.444 153.24 527.564 152.24C526.724 151.36 525.604 150.88 524.124 150.88C523.404 150.88 522.484 151.08 521.564 151.52C520.524 152.04 519.484 152.68 518.724 153.24C518.564 153.32 518.484 153.24 518.404 153.08C518.244 152.8 517.844 152.2 517.124 151.68C516.404 151.16 515.444 150.88 514.004 150.88C512.124 150.88 509.644 152.4 508.644 153.2C508.484 153.36 508.404 153.08 508.404 152.96C508.404 152.56 508.564 151.44 508.564 150.88C508.564 150.8 508.284 150.52 508.084 150.48C508.004 150.48 507.924 150.52 507.764 150.64C507.324 150.92 505.524 151.96 504.724 152.28C504.284 152.52 503.924 152.76 503.924 153ZM544.162 150.92C543.042 150.92 541.842 151.12 541.202 151.4C540.642 151.64 539.562 152.2 538.602 152.84C538.442 152.96 538.282 152.8 538.282 152.64C538.322 152 538.322 151.24 538.402 150.6C538.402 150.44 538.082 150.12 537.962 150.12C537.882 150.12 537.562 150.28 537.162 150.48C536.482 150.88 534.722 151.72 534.122 151.88C533.962 151.92 533.562 152.4 533.562 152.6C533.562 152.8 534.042 153.16 535.042 153.88C535.162 153.96 535.362 154.24 535.362 155.92C535.402 158.28 535.362 161.28 535.362 164C535.362 168.08 535.322 171.36 535.242 172.68C535.082 175.56 534.882 175.92 532.762 176.36C532.122 176.48 531.842 176.8 531.842 176.96C531.842 177.32 532.442 177.48 533.042 177.48C534.242 177.48 534.642 177.36 535.602 177.36C537.162 177.36 539.482 177.56 540.362 177.56C540.882 177.56 541.402 177.36 541.402 177.04C541.402 176.76 541.082 176.56 540.282 176.32C538.762 175.84 538.482 175.36 538.362 174.32C538.242 173.2 538.202 171.56 538.202 167.68C538.202 167.48 538.362 167.16 538.482 167.16C539.002 167.24 539.802 167.32 540.722 167.32C542.522 167.32 544.882 167 547.082 165.28C549.642 163.36 550.482 160.4 550.482 158.4C550.482 156.2 549.562 154.24 548.602 153.16C547.402 151.84 545.602 150.92 544.162 150.92ZM542.082 152.96C543.002 152.96 544.642 153.52 545.682 154.6C547.322 156.4 547.322 158.56 547.322 159.48C547.322 160.68 546.602 163.68 544.602 165.36C544.042 165.84 543.202 166.04 542.762 166.04C541.762 166.04 539.842 165.36 538.762 163.84C538.482 163.48 538.322 162.8 538.242 162.08C538.082 160.44 538.122 156.08 538.322 154.88C538.442 154.16 538.642 153.84 538.842 153.68C539.282 153.32 540.402 152.96 542.082 152.96ZM553.562 140.6C553.562 140.76 553.682 140.88 554.362 141.36C555.282 141.92 555.282 142.16 555.322 142.48C555.442 143.56 555.442 147.88 555.442 150.84C555.442 157.16 555.322 161.36 555.202 163C555.042 165 554.962 165.72 553.122 166.12C552.682 166.2 552.242 166.4 552.242 166.68C552.242 167 552.562 167.12 553.362 167.12C554.202 167.12 555.962 167 556.882 167C557.602 167 559.322 167.12 560.282 167.12C560.762 167.12 561.322 166.96 561.322 166.68C561.322 166.44 561.002 166.24 560.402 166.08C558.682 165.6 558.522 165.12 558.362 164.32C558.162 163.24 558.242 155.6 558.242 149.76C558.242 144.4 558.482 139.88 558.602 138.88C558.602 138.72 558.362 138.4 558.242 138.48C557.162 139.16 555.962 139.4 554.122 140.04C553.682 140.16 553.562 140.44 553.562 140.6ZM570.848 150.88C570.168 150.88 568.848 151.12 567.808 151.6C564.688 153.04 563.007 156.24 563.007 159.44C563.007 164.12 565.888 167.4 570.208 167.4C572.488 167.4 574.608 166.44 576.008 164.4C576.128 164.2 576.288 163.76 576.288 163.44C576.288 163.24 576.208 162.96 575.968 162.96C575.808 162.96 575.608 163.2 575.448 163.44C574.768 164.44 573.568 164.88 571.808 164.88C569.888 164.88 568.208 163.88 567.328 162.68C566.448 161.52 565.808 159.68 565.808 158.12C565.808 157.72 565.888 157.04 566.008 156.72C566.048 156.6 566.208 156.4 566.328 156.4C568.168 156.44 575.008 156.44 575.448 156.44C575.888 156.44 576.208 156 576.208 155.76C576.208 154.36 575.688 153.24 574.808 152.4C573.808 151.4 572.247 150.88 570.848 150.88ZM570.448 151.92C571.888 151.92 573.088 153.2 573.088 154.32C573.088 155.12 572.688 155.32 571.728 155.32C569.728 155.36 567.608 155.36 566.568 155.32C566.488 155.32 566.328 155.08 566.408 154.88C567.128 153.04 568.648 151.92 570.448 151.92ZM583.912 151.4C583.752 151.4 583.592 151.2 583.592 151.08V149.2C583.592 149.12 583.232 148.76 583.032 148.76C582.872 148.76 582.592 149.08 582.112 149.64C581.552 150.32 580.312 151.28 578.912 152.4C578.792 152.52 578.672 152.68 578.672 152.84C578.672 152.96 578.912 153.16 579.232 153.28C580.032 153.52 580.752 153.8 580.752 154.08C580.752 155.48 580.592 161.48 580.592 162.96C580.592 164.08 580.672 164.92 581.112 165.6C581.592 166.48 582.992 167.48 584.632 167.48C586.432 167.48 587.832 166.76 588.912 165.72C589.192 165.44 589.472 165.04 589.472 164.72C589.472 164.36 589.272 164.28 589.232 164.28C589.072 164.28 588.992 164.32 588.632 164.52C588.032 164.88 587.192 165.12 586.672 165.12C585.832 165.12 584.992 165.04 584.232 164.36C583.792 163.92 583.552 163.4 583.552 162.4C583.552 160.48 583.592 154.6 583.632 153.8C583.632 153.72 583.792 153.52 583.992 153.52H588.352C588.632 153.52 589.392 153.44 589.392 153.08C589.392 152.56 589.272 151.44 589.272 151.56C589.272 151.44 588.872 151.24 588.832 151.24C588.672 151.24 584.792 151.4 583.912 151.4ZM599.207 150.88C598.527 150.88 597.207 151.12 596.167 151.6C593.047 153.04 591.367 156.24 591.367 159.44C591.367 164.12 594.247 167.4 598.567 167.4C600.847 167.4 602.967 166.44 604.367 164.4C604.487 164.2 604.647 163.76 604.647 163.44C604.647 163.24 604.567 162.96 604.327 162.96C604.167 162.96 603.967 163.2 603.807 163.44C603.127 164.44 601.927 164.88 600.167 164.88C598.247 164.88 596.567 163.88 595.687 162.68C594.807 161.52 594.167 159.68 594.167 158.12C594.167 157.72 594.247 157.04 594.367 156.72C594.407 156.6 594.567 156.4 594.687 156.4C596.527 156.44 603.367 156.44 603.807 156.44C604.247 156.44 604.567 156 604.567 155.76C604.567 154.36 604.047 153.24 603.167 152.4C602.167 151.4 600.607 150.88 599.207 150.88ZM598.807 151.92C600.247 151.92 601.447 153.2 601.447 154.32C601.447 155.12 601.047 155.32 600.087 155.32C598.087 155.36 595.967 155.36 594.927 155.32C594.847 155.32 594.687 155.08 594.767 154.88C595.487 153.04 597.007 151.92 598.807 151.92ZM625.92 150.92C624.8 150.92 623.6 151.12 622.96 151.4C622.4 151.64 621.32 152.2 620.36 152.84C620.2 152.96 620.04 152.8 620.04 152.64C620.08 152 620.08 151.24 620.16 150.6C620.16 150.44 619.84 150.12 619.72 150.12C619.64 150.12 619.32 150.28 618.92 150.48C618.24 150.88 616.48 151.72 615.88 151.88C615.72 151.92 615.32 152.4 615.32 152.6C615.32 152.8 615.8 153.16 616.8 153.88C616.92 153.96 617.12 154.24 617.12 155.92C617.16 158.28 617.12 161.28 617.12 164C617.12 168.08 617.08 171.36 617 172.68C616.84 175.56 616.64 175.92 614.52 176.36C613.88 176.48 613.6 176.8 613.6 176.96C613.6 177.32 614.2 177.48 614.8 177.48C616 177.48 616.4 177.36 617.36 177.36C618.92 177.36 621.24 177.56 622.12 177.56C622.64 177.56 623.16 177.36 623.16 177.04C623.16 176.76 622.84 176.56 622.04 176.32C620.52 175.84 620.24 175.36 620.12 174.32C620 173.2 619.96 171.56 619.96 167.68C619.96 167.48 620.12 167.16 620.24 167.16C620.76 167.24 621.56 167.32 622.48 167.32C624.28 167.32 626.64 167 628.84 165.28C631.4 163.36 632.24 160.4 632.24 158.4C632.24 156.2 631.32 154.24 630.36 153.16C629.16 151.84 627.36 150.92 625.92 150.92ZM623.84 152.96C624.76 152.96 626.4 153.52 627.44 154.6C629.08 156.4 629.08 158.56 629.08 159.48C629.08 160.68 628.36 163.68 626.36 165.36C625.8 165.84 624.96 166.04 624.52 166.04C623.52 166.04 621.6 165.36 620.52 163.84C620.24 163.48 620.08 162.8 620 162.08C619.84 160.44 619.88 156.08 620.08 154.88C620.2 154.16 620.4 153.84 620.6 153.68C621.04 153.32 622.16 152.96 623.84 152.96ZM635.407 152.92C635.407 153.08 635.807 153.24 636.767 154C637.207 154.28 637.207 154.8 637.207 155.2V162.84C637.167 165.24 637.047 165.64 635.487 166.16C635.167 166.28 634.687 166.44 634.687 166.68C634.687 167 635.087 167.16 635.527 167.16C636.487 167.16 636.967 167 638.167 167C640.487 167 641.887 167.2 642.887 167.2C643.487 167.2 643.847 167.04 643.847 166.84C643.847 166.68 643.767 166.4 643.127 166.2L641.287 165.72C640.567 165.6 640.327 164.84 640.247 163.68C640.207 163.08 640.007 155.84 640.007 155.04C640.007 154.84 640.127 154.48 640.407 154.16C640.807 153.72 641.487 153.6 642.167 153.6C642.967 153.6 643.927 154.08 644.367 154.48C644.487 154.56 644.847 154.64 644.927 154.6C645.167 154.48 646.127 153.4 646.567 152.76C646.687 152.56 646.807 152.28 646.807 152.2C646.807 151.84 646.447 150.84 644.807 150.84C643.567 150.84 641.807 151.84 640.247 153.32C640.167 153.36 639.967 153.32 639.967 153.16C639.967 152.4 640.047 151.68 640.047 150.96C640.047 150.84 639.847 150.48 639.687 150.48C639.567 150.48 639.367 150.64 638.887 150.96C638.487 151.2 637.247 151.8 635.927 152.24C635.487 152.4 635.407 152.8 635.407 152.92ZM656.648 150.84C653.968 150.84 651.968 151.96 650.728 153.04C649.208 154.32 647.928 156.24 647.928 159.28C647.928 161.28 649.168 164 650.888 165.4C652.368 166.64 654.368 167.48 656.208 167.48C658.008 167.48 659.568 167.04 661.168 165.88C662.648 164.92 664.648 162.32 664.648 159C664.648 153.96 660.608 150.84 656.648 150.84ZM655.888 152.04C656.928 152.04 658.368 152.64 659.248 153.6C660.768 155.36 661.248 157.64 661.248 159.72C661.248 161.44 660.448 163.92 659.448 165C658.328 166.12 657.448 166.32 657.008 166.32C655.088 166.32 652.808 164.88 651.808 161.88C651.488 160.88 651.328 159.64 651.328 158.32C651.328 156.24 652.248 154.16 653.288 153.2C654.128 152.48 655.048 152.04 655.888 152.04ZM684.262 158.64C684.262 156.36 683.422 154.12 681.622 152.6C680.342 151.48 678.542 150.84 676.662 150.84C675.342 150.84 673.422 151.32 672.102 152.2C672.062 152.24 671.862 152.12 671.862 152.04C671.782 151.6 671.782 149.64 671.782 148.6C671.782 145.4 672.022 141.6 672.142 138.96C672.142 138.8 671.862 138.44 671.702 138.44C671.622 138.44 671.222 138.6 670.702 138.92C669.902 139.4 668.542 139.76 667.422 140.16C667.302 140.2 666.942 140.68 666.942 140.72C666.942 140.92 667.142 141.04 667.742 141.48C668.502 142.12 668.702 142.64 668.742 142.84C668.822 143.4 668.942 149.32 668.942 153.12C668.942 156.4 668.902 163.28 668.702 166.4C668.702 166.68 668.782 166.92 668.942 166.92C669.022 166.92 669.262 166.88 669.422 166.8C669.742 166.64 670.102 166.6 670.262 166.68C671.182 167 673.942 167.48 675.342 167.48C676.742 167.48 679.142 167.04 680.782 165.68C682.542 164.32 684.262 161.96 684.262 158.64ZM680.942 159.48C680.942 161.28 680.222 163.76 679.102 164.84C678.182 165.68 677.102 166.2 676.662 166.2C675.942 166.2 674.062 165.68 672.942 164.52C672.422 164 672.182 163.36 672.142 162.52C671.942 160.36 671.822 158.2 671.822 156.12C671.822 155.28 671.862 154.16 671.902 153.8C671.942 153.52 672.102 153.28 672.222 153.2C672.542 152.96 673.302 152.6 674.622 152.6C676.502 152.6 678.062 153.4 678.982 154.32C680.342 155.8 680.942 158.04 680.942 159.48ZM687.351 140.6C687.351 140.76 687.471 140.88 688.151 141.36C689.071 141.92 689.071 142.16 689.111 142.48C689.231 143.56 689.231 147.88 689.231 150.84C689.231 157.16 689.111 161.36 688.991 163C688.831 165 688.751 165.72 686.911 166.12C686.471 166.2 686.031 166.4 686.031 166.68C686.031 167 686.351 167.12 687.151 167.12C687.991 167.12 689.751 167 690.671 167C691.391 167 693.111 167.12 694.071 167.12C694.551 167.12 695.111 166.96 695.111 166.68C695.111 166.44 694.791 166.24 694.191 166.08C692.471 165.6 692.311 165.12 692.151 164.32C691.951 163.24 692.031 155.6 692.031 149.76C692.031 144.4 692.271 139.88 692.391 138.88C692.391 138.72 692.151 138.4 692.031 138.48C690.951 139.16 689.751 139.4 687.911 140.04C687.471 140.16 687.351 140.44 687.351 140.6ZM704.637 150.88C703.957 150.88 702.637 151.12 701.597 151.6C698.477 153.04 696.797 156.24 696.797 159.44C696.797 164.12 699.677 167.4 703.997 167.4C706.277 167.4 708.397 166.44 709.797 164.4C709.917 164.2 710.077 163.76 710.077 163.44C710.077 163.24 709.997 162.96 709.757 162.96C709.597 162.96 709.397 163.2 709.237 163.44C708.557 164.44 707.357 164.88 705.597 164.88C703.677 164.88 701.997 163.88 701.117 162.68C700.237 161.52 699.597 159.68 699.597 158.12C699.597 157.72 699.677 157.04 699.797 156.72C699.837 156.6 699.997 156.4 700.117 156.4C701.957 156.44 708.797 156.44 709.237 156.44C709.677 156.44 709.997 156 709.997 155.76C709.997 154.36 709.477 153.24 708.597 152.4C707.597 151.4 706.037 150.88 704.637 150.88ZM704.237 151.92C705.677 151.92 706.877 153.2 706.877 154.32C706.877 155.12 706.477 155.32 705.517 155.32C703.517 155.36 701.397 155.36 700.357 155.32C700.277 155.32 700.117 155.08 700.197 154.88C700.917 153.04 702.437 151.92 704.237 151.92ZM712.83 153C712.83 153.2 713.11 153.4 714.23 154.44C714.59 154.8 714.51 155.32 714.51 155.52C714.51 158.28 714.47 162.28 714.39 163.44C714.23 165.16 713.99 165.76 712.71 166.08C711.99 166.24 711.75 166.52 711.75 166.68C711.75 166.96 712.15 167.12 712.75 167.12C713.63 167.12 714.43 167 715.75 167C717.27 167 718.75 167.08 718.91 167.08C719.43 167.08 719.99 166.96 719.99 166.68C719.99 166.36 719.67 166.2 718.91 165.96C717.63 165.56 717.47 164.92 717.47 164.16C717.47 161.12 717.47 156.08 717.55 155.04C717.59 154.6 717.71 154.28 717.99 154.04C718.95 153.28 719.87 152.8 721.19 152.8C722.63 152.8 723.67 153.32 724.19 154C724.47 154.36 724.71 154.88 724.71 156.04V163.88C724.71 165.32 724.55 165.72 723.19 166.04C722.55 166.2 722.39 166.48 722.39 166.6C722.39 166.76 722.51 167.08 723.43 167.08C724.27 167.08 725.43 167 726.27 167C727.19 167 728.39 167.08 729.27 167.08C729.91 167.08 730.23 166.88 730.23 166.6C730.23 166.4 729.83 166.16 729.39 166.04C728.03 165.72 727.83 165.32 727.71 164.04C727.63 163.16 727.71 155.6 727.71 155.32C727.71 155.04 727.99 154.28 728.11 154.16C728.67 153.68 729.39 152.92 731.19 152.92C732.87 152.92 733.75 153.56 734.23 154.32C734.63 155.04 734.87 155.6 734.87 157C734.87 158.32 734.95 162.8 734.95 163.76C734.95 165.16 734.79 165.64 733.51 166.04C733.07 166.16 732.63 166.32 732.63 166.56C732.63 166.84 732.87 167.08 733.63 167.08C734.55 167.08 735.15 167 736.35 167C737.35 167 738.43 167.12 739.23 167.12C739.99 167.12 740.35 166.96 740.35 166.68C740.35 166.44 740.11 166.28 739.59 166.12C738.15 165.72 737.91 164.96 737.87 164.24C737.87 160.96 737.95 158.16 737.79 156.08C737.71 154.64 737.35 153.24 736.47 152.24C735.63 151.36 734.51 150.88 733.03 150.88C732.31 150.88 731.39 151.08 730.47 151.52C729.43 152.04 728.39 152.68 727.63 153.24C727.47 153.32 727.39 153.24 727.31 153.08C727.15 152.8 726.75 152.2 726.03 151.68C725.31 151.16 724.35 150.88 722.91 150.88C721.03 150.88 718.55 152.4 717.55 153.2C717.39 153.36 717.31 153.08 717.31 152.96C717.31 152.56 717.47 151.44 717.47 150.88C717.47 150.8 717.19 150.52 716.99 150.48C716.91 150.48 716.83 150.52 716.67 150.64C716.23 150.92 714.43 151.96 713.63 152.28C713.19 152.52 712.83 152.76 712.83 153ZM748.345 150.84C746.985 150.84 745.905 151.2 745.145 151.68C743.625 152.6 742.945 153.92 742.945 155.28C742.945 157.16 744.225 158.56 745.425 159.32C746.665 160.12 746.905 160.32 747.865 161C749.105 161.76 749.665 162.6 749.665 163.68C749.665 164.44 749.345 165.4 748.745 165.88C748.305 166.2 747.665 166.48 747.145 166.48C745.705 166.48 744.625 165.68 743.505 163.64C743.265 163.2 742.985 162.72 742.665 162.72C742.425 162.72 742.345 163.12 742.345 163.56C742.345 164.72 742.825 166.4 742.945 166.6C743.625 167.16 745.625 167.48 746.825 167.48C748.065 167.48 749.465 167.04 750.185 166.56C751.185 165.84 752.505 164.48 752.505 162.64C752.505 160.84 751.625 159.48 749.385 158.16C746.705 156.68 745.425 155.64 745.425 154.28C745.425 153.44 746.185 151.8 747.825 151.8C749.145 151.8 750.145 152.6 751.025 154.48C751.225 154.92 751.465 155.16 751.625 155.16C751.945 155.16 752.105 154.8 752.105 154.44C752.105 154.16 751.985 152.8 751.985 152.08C751.985 151.84 751.745 151.56 751.665 151.52C751.585 151.48 750.825 151.16 750.385 151.08C749.945 150.96 749.105 150.84 748.345 150.84Z" fill="black"/>
<rect id="13:2" opacity="0.5" x="205" y="194" width="196" height="147" fill="#FF0000"/>
<rect id="84:13" opacity="0.5" x="449" y="194" width="309" height="232" fill="#FF0000"/>
</g>
</svg>
