<svg width="1280" height="960" viewBox="0 0 1280 960" fill="none" xmlns="http://www.w3.org/2000/svg">
<g id="Child of polynomial">
<rect width="1280" height="960" fill="white"/>
<path id="72:31" d="M465.8 467.68C463.08 467.68 460.92 468.4 459.4 469.36C456.36 471.2 455 473.84 455 476.56C455 480.32 457.56 483.12 459.96 484.64C462.44 486.24 462.92 486.64 464.84 488C467.32 489.52 468.44 491.2 468.44 493.36C468.44 494.88 467.8 496.8 466.6 497.76C465.72 498.4 464.44 498.96 463.4 498.96C460.52 498.96 458.36 497.36 456.12 493.28C455.64 492.4 455.08 491.44 454.44 491.44C453.96 491.44 453.8 492.24 453.8 493.12C453.8 495.44 454.76 498.8 455 499.2C456.36 500.32 460.36 500.96 462.76 500.96C465.24 500.96 468.04 500.08 469.48 499.12C471.48 497.68 474.12 494.96 474.12 491.28C474.12 487.68 472.36 484.96 467.88 482.32C462.52 479.36 459.96 477.28 459.96 474.56C459.96 472.88 461.48 469.6 464.76 469.6C467.4 469.6 469.4 471.2 471.16 474.96C471.56 475.84 472.04 476.32 472.36 476.32C473 476.32 473.32 475.6 473.32 474.88C473.32 474.32 473.08 471.6 473.08 470.16C473.08 469.68 472.6 469.12 472.44 469.04C472.28 468.96 470.76 468.32 469.88 468.16C469 467.92 467.32 467.68 465.8 467.68ZM498.303 467.68C496.143 467.68 491.423 468.48 487.743 470.72C483.823 473.04 479.263 477.6 479.263 485.44C479.263 489.44 480.543 493.52 483.103 496.4C485.583 499.04 489.263 500.8 493.103 500.8C495.743 500.8 499.823 500.08 503.503 496.8C503.663 496.8 503.983 496.96 503.983 497.28C503.983 498.4 503.823 499.84 503.823 500.56C503.823 500.96 504.383 501.6 504.703 501.6C505.103 501.6 505.743 501.44 507.583 500.8C509.103 500.24 513.263 499.44 514.783 499.2C515.183 499.12 516.143 497.76 516.143 497.2C516.143 497.12 515.983 496.72 515.663 496.72C514.863 496.8 512.223 497.36 511.343 497.36C510.863 497.36 510.223 497.04 510.063 494.08C510.063 492.56 509.903 491.28 509.903 475.84C509.903 451.36 510.223 448.48 510.623 444.24C510.703 443.52 510.223 442.96 509.983 442.96C509.663 442.96 509.423 443.04 508.943 443.2C506.863 444 502.623 445.2 500.783 445.44C500.303 445.52 499.423 446.48 499.423 446.8C499.423 446.96 499.503 447.12 500.223 447.52C503.903 449.44 503.903 450.4 503.983 450.8C504.223 452.72 504.463 464.96 504.063 467.12C503.983 467.52 503.743 468.08 503.423 468C502.463 467.84 501.183 467.68 498.303 467.68ZM495.343 470.32C496.943 470.32 499.983 471.2 502.223 473.44C503.183 474.4 503.903 475.84 503.983 476.48C504.223 480.24 504.303 484.64 504.223 489.76C504.143 492.32 503.103 494.88 502.943 495.04C501.503 496.08 499.663 496.96 497.103 496.96C490.223 496.96 485.743 489.6 485.743 483.2C485.743 478.72 487.583 474.64 489.103 473.12C490.543 471.68 492.783 470.32 495.343 470.32ZM530.233 468.8C529.993 468.8 529.753 468.4 529.753 468.08C529.753 457.6 530.473 453.28 532.393 449.92C533.833 447.6 535.433 446.64 537.353 446.64C539.433 446.64 541.433 447.76 542.953 449.12C544.073 450.24 544.553 450.72 545.113 450.72C545.593 450.72 546.153 450.64 546.553 450.48C547.673 450.08 548.713 448.24 548.713 447.12C548.713 446.16 548.153 445.04 547.353 444.4C546.073 443.36 543.913 442.88 542.233 442.88C539.193 442.88 536.312 443.76 533.113 446.16C529.593 448.72 527.593 451.6 525.913 455.6C524.473 459.04 524.073 462.72 523.913 467.52C523.913 467.92 523.433 468.4 522.873 468.88C521.033 470.32 519.033 471.2 518.952 471.52C518.713 472.08 519.273 472.88 519.673 472.88C520.553 472.72 522.233 472.72 523.033 472.72C523.353 472.72 523.833 472.96 523.833 475.68C523.833 480 523.753 489.6 523.673 492.88C523.593 496.48 523.513 497.28 520.073 498.24C519.193 498.56 518.393 499.12 518.393 499.52C518.393 500.08 519.273 500.4 520.393 500.4C521.193 500.4 525.513 500 528.393 500C530.393 500 534.073 500.16 535.033 500.16C535.993 500.16 537.113 500 537.113 499.2C537.113 498.88 536.633 498.24 535.273 498C530.793 497.28 530.233 496.56 529.913 493.76C529.753 492.4 529.513 474.88 529.673 473.28C529.673 473.12 530.073 472.64 530.233 472.64C531.113 472.64 539.033 472.88 539.593 472.88C539.993 472.88 540.793 472.32 540.793 472.08C540.793 470.4 540.233 468.72 539.673 468.72C539.353 468.72 535.113 468.8 530.233 468.8ZM556.937 467.68C555.417 467.68 551.817 469.04 549.497 470.72C545.737 473.2 543.497 475.44 543.497 477.76C543.497 478.16 543.977 478.8 544.457 478.8C544.857 478.8 548.857 476.8 549.657 476.16C549.817 476 550.137 475.52 550.137 475.28C549.977 473.68 550.217 472.24 550.697 472C551.257 471.6 552.297 471.12 553.977 471.12C557.897 471.12 560.217 474.48 560.217 476.48C560.217 477.44 560.137 482.32 560.057 483.04C560.057 483.52 559.577 483.92 557.737 484.48C555.977 485.04 549.577 486.8 548.377 487.28C547.177 487.84 545.977 488.24 545.177 489.28C544.297 490.4 543.657 491.92 543.657 493.36C543.657 497.36 546.377 500.8 549.177 500.8C549.577 500.8 551.497 500.64 552.377 500.32C553.177 500.08 556.617 498.72 559.577 496.64C559.737 496.56 560.057 496.88 560.057 496.96C561.017 499.92 563.337 500.96 565.177 500.96C568.777 500.96 572.377 497.52 572.377 496C572.377 495.92 572.377 495.44 572.137 495.2C571.977 494.96 571.897 494.8 571.657 494.96C570.777 495.6 568.937 496.16 568.617 496.16C567.977 496.16 565.417 495.84 565.417 492.16C565.417 491.28 565.737 481.2 565.737 478.08C565.737 474.72 565.337 473.12 564.137 471.44C562.937 469.68 560.937 467.68 556.937 467.68ZM554.537 496.64C552.857 496.64 549.497 495.36 549.497 491.84C549.497 489.92 550.297 489.36 551.097 488.8C553.257 487.76 557.097 486.4 559.337 486.4C559.657 486.4 559.977 486.8 559.977 487.04C559.977 488.64 559.977 491.36 559.817 493.28C559.817 493.44 559.337 494.96 558.857 495.28C557.337 496.08 555.737 496.64 554.537 496.64ZM587.597 467.68C584.877 467.68 582.717 468.4 581.197 469.36C578.157 471.2 576.797 473.84 576.797 476.56C576.797 480.32 579.357 483.12 581.757 484.64C584.237 486.24 584.717 486.64 586.637 488C589.117 489.52 590.237 491.2 590.237 493.36C590.237 494.88 589.597 496.8 588.397 497.76C587.517 498.4 586.237 498.96 585.197 498.96C582.317 498.96 580.157 497.36 577.917 493.28C577.437 492.4 576.877 491.44 576.237 491.44C575.757 491.44 575.597 492.24 575.597 493.12C575.597 495.44 576.557 498.8 576.797 499.2C578.157 500.32 582.157 500.96 584.557 500.96C587.037 500.96 589.837 500.08 591.277 499.12C593.277 497.68 595.917 494.96 595.917 491.28C595.917 487.68 594.157 484.96 589.677 482.32C584.317 479.36 581.757 477.28 581.757 474.56C581.757 472.88 583.277 469.6 586.557 469.6C589.197 469.6 591.197 471.2 592.957 474.96C593.357 475.84 593.837 476.32 594.157 476.32C594.797 476.32 595.117 475.6 595.117 474.88C595.117 474.32 594.877 471.6 594.877 470.16C594.877 469.68 594.397 469.12 594.237 469.04C594.077 468.96 592.557 468.32 591.677 468.16C590.797 467.92 589.117 467.68 587.597 467.68ZM620.1 467.68C617.94 467.68 613.22 468.48 609.54 470.72C605.62 473.04 601.06 477.6 601.06 485.44C601.06 489.44 602.34 493.52 604.9 496.4C607.38 499.04 611.06 500.8 614.9 500.8C617.54 500.8 621.62 500.08 625.3 496.8C625.46 496.8 625.78 496.96 625.78 497.28C625.78 498.4 625.62 499.84 625.62 500.56C625.62 500.96 626.18 501.6 626.5 501.6C626.9 501.6 627.54 501.44 629.38 500.8C630.9 500.24 635.06 499.44 636.58 499.2C636.98 499.12 637.94 497.76 637.94 497.2C637.94 497.12 637.78 496.72 637.46 496.72C636.66 496.8 634.02 497.36 633.14 497.36C632.66 497.36 632.02 497.04 631.86 494.08C631.86 492.56 631.7 491.28 631.7 475.84C631.7 451.36 632.02 448.48 632.42 444.24C632.5 443.52 632.02 442.96 631.78 442.96C631.46 442.96 631.22 443.04 630.74 443.2C628.66 444 624.42 445.2 622.58 445.44C622.1 445.52 621.22 446.48 621.22 446.8C621.22 446.96 621.3 447.12 622.02 447.52C625.7 449.44 625.7 450.4 625.78 450.8C626.02 452.72 626.26 464.96 625.86 467.12C625.78 467.52 625.54 468.08 625.22 468C624.26 467.84 622.98 467.68 620.1 467.68ZM617.14 470.32C618.74 470.32 621.78 471.2 624.02 473.44C624.98 474.4 625.7 475.84 625.78 476.48C626.02 480.24 626.1 484.64 626.02 489.76C625.94 492.32 624.9 494.88 624.74 495.04C623.3 496.08 621.46 496.96 618.9 496.96C612.02 496.96 607.54 489.6 607.54 483.2C607.54 478.72 609.38 474.64 610.9 473.12C612.34 471.68 614.58 470.32 617.14 470.32Z" fill="black"/>
<path id="72:33" d="M554.8 722.68C552.08 722.68 549.92 723.4 548.4 724.36C545.36 726.2 544 728.84 544 731.56C544 735.32 546.56 738.12 548.96 739.64C551.44 741.24 551.92 741.64 553.84 743C556.32 744.52 557.44 746.2 557.44 748.36C557.44 749.88 556.8 751.8 555.6 752.76C554.72 753.4 553.44 753.96 552.4 753.96C549.52 753.96 547.36 752.36 545.12 748.28C544.64 747.4 544.08 746.44 543.44 746.44C542.96 746.44 542.8 747.24 542.8 748.12C542.8 750.44 543.76 753.8 544 754.2C545.36 755.32 549.36 755.96 551.76 755.96C554.24 755.96 557.04 755.08 558.48 754.12C560.48 752.68 563.12 749.96 563.12 746.28C563.12 742.68 561.36 739.96 556.88 737.32C551.52 734.36 548.96 732.28 548.96 729.56C548.96 727.88 550.48 724.6 553.76 724.6C556.4 724.6 558.4 726.2 560.16 729.96C560.56 730.84 561.04 731.32 561.36 731.32C562 731.32 562.32 730.6 562.32 729.88C562.32 729.32 562.08 726.6 562.08 725.16C562.08 724.68 561.6 724.12 561.44 724.04C561.28 723.96 559.76 723.32 558.88 723.16C558 722.92 556.32 722.68 554.8 722.68ZM587.303 722.68C585.143 722.68 580.423 723.48 576.743 725.72C572.823 728.04 568.263 732.6 568.263 740.44C568.263 744.44 569.543 748.52 572.103 751.4C574.583 754.04 578.263 755.8 582.103 755.8C584.743 755.8 588.823 755.08 592.503 751.8C592.663 751.8 592.983 751.96 592.983 752.28C592.983 753.4 592.823 754.84 592.823 755.56C592.823 755.96 593.383 756.6 593.703 756.6C594.103 756.6 594.743 756.44 596.583 755.8C598.103 755.24 602.263 754.44 603.783 754.2C604.183 754.12 605.143 752.76 605.143 752.2C605.143 752.12 604.983 751.72 604.663 751.72C603.863 751.8 601.223 752.36 600.343 752.36C599.863 752.36 599.223 752.04 599.063 749.08C599.063 747.56 598.903 746.28 598.903 730.84C598.903 706.36 599.223 703.48 599.623 699.24C599.703 698.52 599.223 697.96 598.983 697.96C598.663 697.96 598.423 698.04 597.943 698.2C595.863 699 591.623 700.2 589.783 700.44C589.303 700.52 588.423 701.48 588.423 701.8C588.423 701.96 588.503 702.12 589.223 702.52C592.903 704.44 592.903 705.4 592.983 705.8C593.223 707.72 593.463 719.96 593.063 722.12C592.983 722.52 592.743 723.08 592.423 723C591.463 722.84 590.183 722.68 587.303 722.68ZM584.343 725.32C585.943 725.32 588.983 726.2 591.223 728.44C592.183 729.4 592.903 730.84 592.983 731.48C593.223 735.24 593.303 739.64 593.223 744.76C593.143 747.32 592.103 749.88 591.943 750.04C590.503 751.08 588.663 751.96 586.103 751.96C579.223 751.96 574.743 744.6 574.743 738.2C574.743 733.72 576.583 729.64 578.103 728.12C579.543 726.68 581.783 725.32 584.343 725.32ZM619.233 723.8C618.993 723.8 618.753 723.4 618.753 723.08C618.753 712.6 619.473 708.28 621.393 704.92C622.833 702.6 624.433 701.64 626.353 701.64C628.433 701.64 630.433 702.76 631.953 704.12C633.073 705.24 633.553 705.72 634.113 705.72C634.593 705.72 635.153 705.64 635.553 705.48C636.673 705.08 637.713 703.24 637.713 702.12C637.713 701.16 637.153 700.04 636.353 699.4C635.073 698.36 632.913 697.88 631.233 697.88C628.193 697.88 625.312 698.76 622.113 701.16C618.593 703.72 616.593 706.6 614.913 710.6C613.473 714.04 613.073 717.72 612.913 722.52C612.913 722.92 612.433 723.4 611.873 723.88C610.033 725.32 608.033 726.2 607.952 726.52C607.713 727.08 608.273 727.88 608.673 727.88C609.553 727.72 611.233 727.72 612.033 727.72C612.353 727.72 612.833 727.96 612.833 730.68C612.833 735 612.753 744.6 612.673 747.88C612.593 751.48 612.513 752.28 609.073 753.24C608.193 753.56 607.393 754.12 607.393 754.52C607.393 755.08 608.273 755.4 609.393 755.4C610.193 755.4 614.513 755 617.393 755C619.393 755 623.073 755.16 624.033 755.16C624.993 755.16 626.113 755 626.113 754.2C626.113 753.88 625.633 753.24 624.273 753C619.793 752.28 619.233 751.56 618.913 748.76C618.753 747.4 618.513 729.88 618.673 728.28C618.673 728.12 619.073 727.64 619.233 727.64C620.113 727.64 628.033 727.88 628.593 727.88C628.993 727.88 629.793 727.32 629.793 727.08C629.793 725.4 629.233 723.72 628.673 723.72C628.353 723.72 624.113 723.8 619.233 723.8ZM645.937 722.68C644.417 722.68 640.817 724.04 638.497 725.72C634.737 728.2 632.497 730.44 632.497 732.76C632.497 733.16 632.977 733.8 633.457 733.8C633.857 733.8 637.857 731.8 638.657 731.16C638.817 731 639.137 730.52 639.137 730.28C638.977 728.68 639.217 727.24 639.697 727C640.257 726.6 641.297 726.12 642.977 726.12C646.897 726.12 649.217 729.48 649.217 731.48C649.217 732.44 649.137 737.32 649.057 738.04C649.057 738.52 648.577 738.92 646.737 739.48C644.977 740.04 638.577 741.8 637.377 742.28C636.177 742.84 634.977 743.24 634.177 744.28C633.297 745.4 632.657 746.92 632.657 748.36C632.657 752.36 635.377 755.8 638.177 755.8C638.577 755.8 640.497 755.64 641.377 755.32C642.177 755.08 645.617 753.72 648.577 751.64C648.737 751.56 649.057 751.88 649.057 751.96C650.017 754.92 652.337 755.96 654.177 755.96C657.777 755.96 661.377 752.52 661.377 751C661.377 750.92 661.377 750.44 661.137 750.2C660.977 749.96 660.897 749.8 660.657 749.96C659.777 750.6 657.937 751.16 657.617 751.16C656.977 751.16 654.417 750.84 654.417 747.16C654.417 746.28 654.737 736.2 654.737 733.08C654.737 729.72 654.337 728.12 653.137 726.44C651.937 724.68 649.937 722.68 645.937 722.68ZM643.537 751.64C641.857 751.64 638.497 750.36 638.497 746.84C638.497 744.92 639.297 744.36 640.097 743.8C642.257 742.76 646.097 741.4 648.337 741.4C648.657 741.4 648.977 741.8 648.977 742.04C648.977 743.64 648.977 746.36 648.817 748.28C648.817 748.44 648.337 749.96 647.857 750.28C646.337 751.08 644.737 751.64 643.537 751.64ZM676.597 722.68C673.877 722.68 671.717 723.4 670.197 724.36C667.157 726.2 665.797 728.84 665.797 731.56C665.797 735.32 668.357 738.12 670.757 739.64C673.237 741.24 673.717 741.64 675.637 743C678.117 744.52 679.237 746.2 679.237 748.36C679.237 749.88 678.597 751.8 677.397 752.76C676.517 753.4 675.237 753.96 674.197 753.96C671.317 753.96 669.157 752.36 666.917 748.28C666.437 747.4 665.877 746.44 665.237 746.44C664.757 746.44 664.597 747.24 664.597 748.12C664.597 750.44 665.557 753.8 665.797 754.2C667.157 755.32 671.157 755.96 673.557 755.96C676.037 755.96 678.837 755.08 680.277 754.12C682.277 752.68 684.917 749.96 684.917 746.28C684.917 742.68 683.157 739.96 678.677 737.32C673.317 734.36 670.757 732.28 670.757 729.56C670.757 727.88 672.277 724.6 675.557 724.6C678.197 724.6 680.197 726.2 681.957 729.96C682.357 730.84 682.837 731.32 683.157 731.32C683.797 731.32 684.117 730.6 684.117 729.88C684.117 729.32 683.877 726.6 683.877 725.16C683.877 724.68 683.397 724.12 683.237 724.04C683.077 723.96 681.557 723.32 680.677 723.16C679.797 722.92 678.117 722.68 676.597 722.68Z" fill="black"/>
</g>
</svg>
